<?xml version="1.0" encoding="UTF-8"?>
<svg width="24px" height="24px" viewBox="0 0 24 24" version="1.1" xmlns="http://www.w3.org/2000/svg" xmlns:xlink="http://www.w3.org/1999/xlink">
    <title>align_left_line</title>
    <g id="页面-1" stroke="none" stroke-width="1" fill="none" fill-rule="evenodd">
        <g id="Editor" transform="translate(-48.000000, 0.000000)" fill-rule="nonzero">
            <g id="align_left_line" transform="translate(48.000000, 0.000000)">
                <rect id="矩形" x="0" y="0" width="24" height="24"></rect>
                <path d="M14,18 C14.5523,18 15,18.4477 15,19 C15,19.51285 14.613973,19.9355092 14.1166239,19.9932725 L14,20 L4,20 C3.44772,20 3,19.5523 3,19 C3,18.48715 3.38604429,18.0644908 3.88337975,18.0067275 L4,18 L14,18 Z M20,13 C20.5523,13 21,13.4477 21,14 C21,14.5523 20.5523,15 20,15 L4,15 C3.44772,15 3,14.5523 3,14 C3,13.4477 3.44772,13 4,13 L20,13 Z M14,8 C14.5523,8 15,8.44772 15,9 C15,9.51283143 14.613973,9.93550653 14.1166239,9.9932722 L14,10 L4,10 C3.44772,10 3,9.55228 3,9 C3,8.48716857 3.38604429,8.06449347 3.88337975,8.0067278 L4,8 L14,8 Z M20,3 C20.5523,3 21,3.44772 21,4 C21,4.51283143 20.613973,4.93550653 20.1166239,4.9932722 L20,5 L4,5 C3.44772,5 3,4.55228 3,4 C3,3.48716857 3.38604429,3.06449347 3.88337975,3.0067278 L4,3 L20,3 Z" id="形状" fill="#09244B"></path>
            </g>
        </g>
    </g>
</svg>