<?xml version="1.0" encoding="UTF-8"?>
<svg width="24px" height="24px" viewBox="0 0 24 24" version="1.1" xmlns="http://www.w3.org/2000/svg" xmlns:xlink="http://www.w3.org/1999/xlink">
    <title>align_left_fill</title>
    <g id="页面-1" stroke="none" stroke-width="1" fill="none" fill-rule="evenodd">
        <g id="Editor" transform="translate(-48.000000, -48.000000)" fill-rule="nonzero">
            <g id="align_left_fill" transform="translate(48.000000, 48.000000)">
                <rect id="矩形" x="0" y="0" width="24" height="24"></rect>
                <path d="M14,17.5 C14.8284,17.5 15.5,18.1716 15.5,19 C15.5,19.7796706 14.9050879,20.4204457 14.1444558,20.4931332 L14,20.5 L4,20.5 C3.17157,20.5 2.5,19.8284 2.5,19 C2.5,18.2203294 3.09488554,17.5795543 3.85553954,17.5068668 L4,17.5 L14,17.5 Z M20,12.5 C20.8284,12.5 21.5,13.1716 21.5,14 C21.5,14.8284 20.8284,15.5 20,15.5 L4,15.5 C3.17157,15.5 2.5,14.8284 2.5,14 C2.5,13.1716 3.17157,12.5 4,12.5 L20,12.5 Z M14,7.5 C14.8284,7.5 15.5,8.17157 15.5,9 C15.5,9.77969882 14.9050879,10.420449 14.1444558,10.4931335 L14,10.5 L4,10.5 C3.17157,10.5 2.5,9.82843 2.5,9 C2.5,8.22030118 3.09488554,7.579551 3.85553954,7.50686655 L4,7.5 L14,7.5 Z M20,2.5 C20.8284,2.5 21.5,3.17157 21.5,4 C21.5,4.77969882 20.9050879,5.420449 20.1444558,5.49313345 L20,5.5 L4,5.5 C3.17157,5.5 2.5,4.82843 2.5,4 C2.5,3.22030118 3.09488554,2.579551 3.85553954,2.50686655 L4,2.5 L20,2.5 Z" id="形状" fill="#09244B"></path>
            </g>
        </g>
    </g>
</svg>