<?xml version="1.0" encoding="UTF-8"?>
<svg width="24px" height="24px" viewBox="0 0 24 24" version="1.1" xmlns="http://www.w3.org/2000/svg" xmlns:xlink="http://www.w3.org/1999/xlink">
    <title>align_right_line</title>
    <g id="页面-1" stroke="none" stroke-width="1" fill="none" fill-rule="evenodd">
        <g id="Editor" transform="translate(-96.000000, 0.000000)" fill-rule="nonzero">
            <g id="align_right_line" transform="translate(96.000000, 0.000000)">
                <rect id="矩形" x="0" y="0" width="24" height="24"></rect>
                <path d="M20,18 C20.5523,18 21,18.4477 21,19 C21,19.51285 20.613973,19.9355092 20.1166239,19.9932725 L20,20 L10,20 C9.44772,20 9,19.5523 9,19 C9,18.48715 9.38604429,18.0644908 9.88337975,18.0067275 L10,18 L20,18 Z M20,13 C20.5523,13 21,13.4477 21,14 C21,14.5523 20.5523,15 20,15 L4,15 C3.44772,15 3,14.5523 3,14 C3,13.4477 3.44772,13 4,13 L20,13 Z M20,8 C20.5523,8 21,8.44772 21,9 C21,9.51283143 20.613973,9.93550653 20.1166239,9.9932722 L20,10 L10,10 C9.44772,10 9,9.55228 9,9 C9,8.48716857 9.38604429,8.06449347 9.88337975,8.0067278 L10,8 L20,8 Z M20,3 C20.5523,3 21,3.44772 21,4 C21,4.51283143 20.613973,4.93550653 20.1166239,4.9932722 L20,5 L4,5 C3.44772,5 3,4.55228 3,4 C3,3.48716857 3.38604429,3.06449347 3.88337975,3.0067278 L4,3 L20,3 Z" id="形状" fill="#09244B"></path>
            </g>
        </g>
    </g>
</svg>