<?xml version="1.0" encoding="UTF-8"?>
<svg width="24px" height="24px" viewBox="0 0 24 24" version="1.1" xmlns="http://www.w3.org/2000/svg" xmlns:xlink="http://www.w3.org/1999/xlink">
    <title>align_center_fill</title>
    <g id="页面-1" stroke="none" stroke-width="1" fill="none" fill-rule="evenodd">
        <g id="Editor" transform="translate(0.000000, -48.000000)" fill-rule="nonzero">
            <g id="align_center_fill" transform="translate(0.000000, 48.000000)">
                <rect id="矩形" fill-opacity="0.01" fill="#FFFFFF" x="0" y="0" width="24" height="24"></rect>
                <path d="M4,2.5 C3.17157,2.5 2.5,3.17157 2.5,4 C2.5,4.82843 3.17157,5.5 4,5.5 L20,5.5 C20.8284,5.5 21.5,4.82843 21.5,4 C21.5,3.17157 20.8284,2.5 20,2.5 L4,2.5 Z" id="路径" fill="#09244B"></path>
                <path d="M7,7.5 C6.17157,7.5 5.5,8.17157 5.5,9 C5.5,9.82843 6.17157,10.5 7,10.5 L17,10.5 C17.8284,10.5 18.5,9.82843 18.5,9 C18.5,8.17157 17.8284,7.5 17,7.5 L7,7.5 Z" id="路径" fill="#09244B"></path>
                <path d="M2.5,14 C2.5,13.1716 3.17157,12.5 4,12.5 L20,12.5 C20.8284,12.5 21.5,13.1716 21.5,14 C21.5,14.8284 20.8284,15.5 20,15.5 L4,15.5 C3.17157,15.5 2.5,14.8284 2.5,14 Z" id="路径" fill="#09244B"></path>
                <path d="M7,17.5 C6.17157,17.5 5.5,18.1716 5.5,19 C5.5,19.8284 6.17157,20.5 7,20.5 L17,20.5 C17.8284,20.5 18.5,19.8284 18.5,19 C18.5,18.1716 17.8284,17.5 17,17.5 L7,17.5 Z" id="路径" fill="#09244B"></path>
            </g>
        </g>
    </g>
</svg>