<svg width="24" height="24" viewBox="0 0 24 24" fill="none" xmlns="http://www.w3.org/2000/svg">
<rect width="24" height="24" fill="white" fill-opacity="0.01"/>
<path d="M4 3C3.44772 3 3 3.44772 3 4C3 4.55228 3.44772 5 4 5H20C20.5523 5 21 4.55228 21 4C21 3.44772 20.5523 3 20 3H4Z" fill="#09244B"/>
<path d="M4 8C3.44772 8 3 8.44772 3 9C3 9.55228 3.44772 10 4 10H14C14.5523 10 15 9.55228 15 9C15 8.44772 14.5523 8 14 8H4Z" fill="#09244B"/>
<path d="M3 14C3 13.4477 3.44772 13 4 13H20C20.5523 13 21 13.4477 21 14C21 14.5523 20.5523 15 20 15H4C3.44772 15 3 14.5523 3 14Z" fill="#09244B"/>
<path d="M4 18C3.44772 18 3 18.4477 3 19C3 19.5523 3.44772 20 4 20H14C14.5523 20 15 19.5523 15 19C15 18.4477 14.5523 18 14 18H4Z" fill="#09244B"/>
</svg>
