<?xml version="1.0" encoding="UTF-8"?>
<svg width="24px" height="24px" viewBox="0 0 24 24" version="1.1" xmlns="http://www.w3.org/2000/svg" xmlns:xlink="http://www.w3.org/1999/xlink">
    <title>align_center_line</title>
    <g id="页面-1" stroke="none" stroke-width="1" fill="none" fill-rule="evenodd">
        <g id="Editor" fill-rule="nonzero">
            <g id="align_center_line">
                <rect id="矩形" x="0" y="0" width="24" height="24"></rect>
                <path d="M17,18 C17.5523,18 18,18.4477 18,19 C18,19.51285 17.613973,19.9355092 17.1166239,19.9932725 L17,20 L7,20 C6.44772,20 6,19.5523 6,19 C6,18.48715 6.38604429,18.0644908 6.88337975,18.0067275 L7,18 L17,18 Z M20,13 C20.5523,13 21,13.4477 21,14 C21,14.5523 20.5523,15 20,15 L4,15 C3.44772,15 3,14.5523 3,14 C3,13.4477 3.44772,13 4,13 L20,13 Z M17,8 C17.5523,8 18,8.44772 18,9 C18,9.51283143 17.613973,9.93550653 17.1166239,9.9932722 L17,10 L7,10 C6.44772,10 6,9.55228 6,9 C6,8.48716857 6.38604429,8.06449347 6.88337975,8.0067278 L7,8 L17,8 Z M20,3 C20.5523,3 21,3.44772 21,4 C21,4.51283143 20.613973,4.93550653 20.1166239,4.9932722 L20,5 L4,5 C3.44772,5 3,4.55228 3,4 C3,3.48716857 3.38604429,3.06449347 3.88337975,3.0067278 L4,3 L20,3 Z" id="形状" fill="#09244B"></path>
            </g>
        </g>
    </g>
</svg>