<svg width="24" height="24" viewBox="0 0 24 24" fill="none" xmlns="http://www.w3.org/2000/svg">
<rect width="24" height="24" fill="white" fill-opacity="0.01"/>
<path d="M4 2.5C3.17157 2.5 2.5 3.17157 2.5 4C2.5 4.82843 3.17157 5.5 4 5.5H20C20.8284 5.5 21.5 4.82843 21.5 4C21.5 3.17157 20.8284 2.5 20 2.5H4Z" fill="#09244B"/>
<path d="M7 7.5C6.17157 7.5 5.5 8.17157 5.5 9C5.5 9.82843 6.17157 10.5 7 10.5H17C17.8284 10.5 18.5 9.82843 18.5 9C18.5 8.17157 17.8284 7.5 17 7.5H7Z" fill="#09244B"/>
<path d="M2.5 14C2.5 13.1716 3.17157 12.5 4 12.5H20C20.8284 12.5 21.5 13.1716 21.5 14C21.5 14.8284 20.8284 15.5 20 15.5H4C3.17157 15.5 2.5 14.8284 2.5 14Z" fill="#09244B"/>
<path d="M7 17.5C6.17157 17.5 5.5 18.1716 5.5 19C5.5 19.8284 6.17157 20.5 7 20.5H17C17.8284 20.5 18.5 19.8284 18.5 19C18.5 18.1716 17.8284 17.5 17 17.5H7Z" fill="#09244B"/>
</svg>
