<?xml version="1.0" encoding="UTF-8"?>
<svg width="24px" height="24px" viewBox="0 0 24 24" version="1.1" xmlns="http://www.w3.org/2000/svg" xmlns:xlink="http://www.w3.org/1999/xlink">
    <title>and_fill</title>
    <g id="页面-1" stroke="none" stroke-width="1" fill="none" fill-rule="evenodd">
        <g id="Editor" transform="translate(-288.000000, -144.000000)">
            <g id="and_fill" transform="translate(288.000000, 144.000000)">
                 <path d="M24,0 L24,24 L0,24 L0,0 L24,0 Z M12.5934901,23.257841 L12.5819402,23.2595131 L12.5108777,23.2950439 L12.4918791,23.2987469 L12.4918791,23.2987469 L12.4767152,23.2950439 L12.4056548,23.2595131 C12.3958229,23.2563662 12.3870493,23.2590235 12.3821421,23.2649074 L12.3780323,23.275831 L12.360941,23.7031097 L12.3658947,23.7234994 L12.3769048,23.7357139 L12.4804777,23.8096931 L12.4953491,23.8136134 L12.4953491,23.8136134 L12.5071152,23.8096931 L12.6106902,23.7357139 L12.6232938,23.7196733 L12.6232938,23.7196733 L12.6266527,23.7031097 L12.609561,23.275831 C12.6075724,23.2657013 12.6010112,23.2592993 12.5934901,23.257841 L12.5934901,23.257841 Z M12.8583906,23.1452862 L12.8445485,23.1473072 L12.6598443,23.2396597 L12.6498822,23.2499052 L12.6498822,23.2499052 L12.6471943,23.2611114 L12.6650943,23.6906389 L12.6699349,23.7034178 L12.6699349,23.7034178 L12.678386,23.7104931 L12.8793402,23.8032389 C12.8914285,23.8068999 12.9022333,23.8029875 12.9078286,23.7952264 L12.9118235,23.7811639 L12.8776777,23.1665331 C12.8752882,23.1545897 12.8674102,23.1470016 12.8583906,23.1452862 L12.8583906,23.1452862 Z M12.1430473,23.1473072 C12.1332178,23.1423925 12.1221763,23.1452606 12.1156365,23.1525954 L12.1099173,23.1665331 L12.0757714,23.7811639 C12.0751323,23.7926639 12.0828099,23.8018602 12.0926481,23.8045676 L12.108256,23.8032389 L12.3092106,23.7104931 L12.3186497,23.7024347 L12.3186497,23.7024347 L12.3225043,23.6906389 L12.340401,23.2611114 L12.337245,23.2485176 L12.337245,23.2485176 L12.3277531,23.2396597 L12.1430473,23.1473072 Z" id="MingCute" fill-rule="nonzero"></path>
                <path d="M8.01735,2.86131 C9.66462,1.21404 12.3354,1.21404 13.9827,2.86131 C15.6688091,4.54745788 15.6153406,7.27994758 13.9063641,8.90119909 L13.7413,9.04987 L12.4997,10.1115 L16.599,14.8939 C16.9293,14.2055 17.2602,13.4115 17.5874,12.4955 C17.866,11.7153 18.7243,11.3087 19.5045,11.5874 C20.2847,11.866 20.6912,12.7243 20.4126,13.5045 C19.9357111,14.8397889 19.431958,15.9925593 18.9028156,16.9843727 L18.7032,17.3488 L20.1389,19.0238 C20.678,19.6528 20.6052,20.5997 19.9762,21.1389 C19.3865125,21.6443062 18.5173328,21.6119098 17.9667841,21.0876059 L17.8611,20.9762 L16.9138,19.871 C16.5993,20.2137 16.2779,20.5175 15.9499,20.7859 C14.2315,22.1918 12.4844,22.5 11,22.5 C7.77072,22.5 4.5,19.9242 4.5,16 C4.5,14.8637 4.93074,13.817 5.44508,12.957 C5.96613,12.0858 6.63801,11.298 7.27194,10.6505 C7.517835,10.3994 7.7628975,10.1644437 7.99819641,9.94882062 L8.22991,9.73976 L7.63114,9.04119 C6.172556,7.33951833 6.21815657,4.82962698 7.70371733,3.18329155 L7.86253,3.01613 L8.01735,2.86131 Z M10.1826,12.018 C9.93611,12.2383 9.67515,12.4842 9.41552,12.7494 C8.87758,13.2988 8.3776,13.8985 8.01974,14.4968 C7.65518,15.1064 7.5,15.6112 7.5,16 C7.5,18.0758 9.22928,19.5 11,19.5 C12.0156,19.5 13.0185,19.3081 14.0501,18.464 C14.27938,18.27648 14.51634,18.05152 14.7588808,17.78144 L14.9418,17.5703 L10.1826,12.018 Z M11.8613,4.98263 C11.4173133,4.53864333 10.7159133,4.50904422 10.2376049,4.89383267 L10.1387,4.98263 L9.98385,5.13745 L9.88430696,5.2477236 C9.4818042,5.74248449 9.45474132,6.44705275 9.81811651,6.97123467 L9.90891,7.08882 L10.5474,7.83369 L11.7916,6.76977 L11.8927828,6.67284407 C12.3333053,6.19988956 12.33002,5.451294 11.8613,4.98263 Z" id="形状" fill="#09244B"></path>
            </g>
        </g>
    </g>
</svg>