<svg xmlns="http://www.w3.org/2000/svg" width="24" height="24"><g fill="none" fill-rule="evenodd"><path d="M24 0v24H0V0zM12.593 23.258l-.011.002-.071.035-.02.004-.014-.004-.071-.035c-.01-.004-.019-.001-.024.005l-.004.01-.017.428.005.02.01.013.104.074.015.004.012-.004.104-.074.012-.016.004-.017-.017-.427c-.002-.01-.009-.017-.017-.018m.265-.113-.013.002-.185.093-.01.01-.003.011.018.43.005.012.008.007.201.093c.012.004.023 0 .029-.008l.004-.014-.034-.614c-.003-.012-.01-.02-.02-.022m-.715.002a.023.023 0 0 0-.027.006l-.006.014-.034.614c0 .012.007.02.017.024l.015-.002.201-.093.01-.008.004-.011.017-.43-.003-.012-.01-.01z"/><path fill="#09244B" d="M8.017 2.861a4.218 4.218 0 1 1 5.89 6.04l-.166.149-1.241 1.06 4.099 4.783c.33-.688.661-1.482.988-2.399a1.5 1.5 0 1 1 2.826 1.01c-.477 1.335-.981 2.488-1.51 3.48l-.2.364 1.436 1.675a1.5 1.5 0 0 1-2.172 2.064l-.106-.112-.947-1.105a9.324 9.324 0 0 1-.964.915C14.232 22.192 12.484 22.5 11 22.5c-3.23 0-6.5-2.576-6.5-6.5 0-1.136.43-2.183.945-3.043.521-.871 1.193-1.659 1.827-2.307.246-.25.49-.486.726-.701l.232-.21-.599-.698a4.437 4.437 0 0 1 .073-5.858l.159-.167zm2.166 9.157c-.247.22-.508.466-.767.731-.538.55-1.038 1.15-1.396 1.748-.365.61-.52 1.114-.52 1.503 0 2.076 1.73 3.5 3.5 3.5 1.016 0 2.018-.192 3.05-1.036.23-.188.466-.412.709-.683l.183-.21zm1.678-7.035a1.218 1.218 0 0 0-1.623-.09l-.1.09-.154.154-.1.11c-.402.495-.43 1.2-.066 1.724l.09.118.64.745 1.244-1.064.1-.097a1.218 1.218 0 0 0-.03-1.69Z"/></g></svg>