<?xml version="1.0" encoding="UTF-8"?>
<svg width="24px" height="24px" viewBox="0 0 24 24" version="1.1" xmlns="http://www.w3.org/2000/svg" xmlns:xlink="http://www.w3.org/1999/xlink">
    <title>and_fill</title>
    <g id="页面-1" stroke="none" stroke-width="1" fill="none" fill-rule="evenodd">
        <g id="Editor" transform="translate(-288.000000, -144.000000)">
            <g id="and_fill" transform="translate(288.000000, 144.000000)">
                <rect id="矩形" fill-rule="nonzero" x="0" y="0" width="24" height="24"></rect>
                <path d="M8.01735,2.86131 C9.66462,1.21404 12.3354,1.21404 13.9827,2.86131 C15.6688091,4.54745788 15.6153406,7.27994758 13.9063641,8.90119909 L13.7413,9.04987 L12.4997,10.1115 L16.599,14.8939 C16.9293,14.2055 17.2602,13.4115 17.5874,12.4955 C17.866,11.7153 18.7243,11.3087 19.5045,11.5874 C20.2847,11.866 20.6912,12.7243 20.4126,13.5045 C19.9357111,14.8397889 19.431958,15.9925593 18.9028156,16.9843727 L18.7032,17.3488 L20.1389,19.0238 C20.678,19.6528 20.6052,20.5997 19.9762,21.1389 C19.3865125,21.6443062 18.5173328,21.6119098 17.9667841,21.0876059 L17.8611,20.9762 L16.9138,19.871 C16.5993,20.2137 16.2779,20.5175 15.9499,20.7859 C14.2315,22.1918 12.4844,22.5 11,22.5 C7.77072,22.5 4.5,19.9242 4.5,16 C4.5,14.8637 4.93074,13.817 5.44508,12.957 C5.96613,12.0858 6.63801,11.298 7.27194,10.6505 C7.517835,10.3994 7.7628975,10.1644437 7.99819641,9.94882062 L8.22991,9.73976 L7.63114,9.04119 C6.172556,7.33951833 6.21815657,4.82962698 7.70371733,3.18329155 L7.86253,3.01613 L8.01735,2.86131 Z M10.1826,12.018 C9.93611,12.2383 9.67515,12.4842 9.41552,12.7494 C8.87758,13.2988 8.3776,13.8985 8.01974,14.4968 C7.65518,15.1064 7.5,15.6112 7.5,16 C7.5,18.0758 9.22928,19.5 11,19.5 C12.0156,19.5 13.0185,19.3081 14.0501,18.464 C14.27938,18.27648 14.51634,18.05152 14.7588808,17.78144 L14.9418,17.5703 L10.1826,12.018 Z M11.8613,4.98263 C11.4173133,4.53864333 10.7159133,4.50904422 10.2376049,4.89383267 L10.1387,4.98263 L9.98385,5.13745 L9.88430696,5.2477236 C9.4818042,5.74248449 9.45474132,6.44705275 9.81811651,6.97123467 L9.90891,7.08882 L10.5474,7.83369 L11.7916,6.76977 L11.8927828,6.67284407 C12.3333053,6.19988956 12.33002,5.451294 11.8613,4.98263 Z" id="形状" fill="#09244B"></path>
            </g>
        </g>
    </g>
</svg>