<svg xmlns="http://www.w3.org/2000/svg" width="24" height="24"><g fill="none"><path d="M24 0v24H0V0zM12.594 23.258l-.012.002-.071.035-.02.004-.014-.004-.071-.036c-.01-.003-.019 0-.024.006l-.004.01-.017.428.005.02.01.013.104.074.015.004.012-.004.104-.074.012-.016.004-.017-.017-.427c-.002-.01-.009-.017-.016-.018m.264-.113-.014.002-.184.093-.01.01-.003.011.018.43.005.012.008.008.201.092c.012.004.023 0 .029-.008l.004-.014-.034-.614c-.003-.012-.01-.02-.02-.022m-.715.002a.023.023 0 0 0-.027.006l-.006.014-.034.614c0 .012.007.02.017.024l.015-.002.201-.093.01-.008.003-.011.018-.43-.003-.012-.01-.01z"/><path fill="#09244B" d="M12 2.5A1.5 1.5 0 0 1 13.5 4v5.935l5.645-1.834a1.5 1.5 0 1 1 .927 2.853l-5.645 1.835 4.076 5.61a1.5 1.5 0 0 1-2.427 1.764L12 14.552l-4.077 5.61A1.5 1.5 0 0 1 5.496 18.4l4.077-5.611-5.645-1.834A1.5 1.5 0 0 1 4.855 8.1L10.5 9.936V4A1.5 1.5 0 0 1 12 2.5"/></g></svg>