<?xml version="1.0" encoding="UTF-8"?>
<svg width="24px" height="24px" viewBox="0 0 24 24" version="1.1" xmlns="http://www.w3.org/2000/svg" xmlns:xlink="http://www.w3.org/1999/xlink">
    <title>at_fill</title>
    <g id="页面-1" stroke="none" stroke-width="1" fill="none" fill-rule="evenodd">
        <g id="Editor" transform="translate(-1200.000000, -48.000000)">
            <g id="at_fill" transform="translate(1200.000000, 48.000000)">
                <rect id="矩形" fill-rule="nonzero" transform="translate(12.000000, 12.000000) scale(-1, 1) translate(-12.000000, -12.000000) " x="0" y="0" width="24" height="24"></rect>
                <path d="M4.49998,12 C4.49998,7.85786 7.85784,4.5 12,4.5 C17.0506,4.5 19.9167,8.66698 19.5092,12.3343 C19.3971,13.3426 19.108,13.8915 18.8873,14.1835 C18.6266,14.5284 18.1554,14.8542 17.703,14.838 C17.3723,14.8262 17.4712,14.3628 17.4925,14.1493 L17.9926,9.14926 C18.075,8.32495 17.4736,7.58988 16.6493,7.50744 C16.2585,7.46837 15.8879,7.58294 15.5972,7.80208 C14.6374,6.99382 13.3961,6.5 12.0305,6.5 C9.00785,6.5 6.49998,8.94763 6.49998,12 C6.49998,15.0558 9.01843,17.5 12.0377,17.5 C13.167,17.5 14.2392,17.1554 15.1338,16.5541 C15.2968,16.7752 15.491,16.9787 15.7176,17.1581 C16.8264,18.0361 18.3002,18.0269 19.6707,17.3416 C20.0525,17.1508 20.6953,16.7667 21.2805,15.9925 C21.8658,15.2182 22.3267,14.1421 22.4908,12.6657 C23.0834,7.33302 18.9493,1.5 12,1.5 C6.20099,1.5 1.49998,6.20101 1.49998,12 C1.49998,17.799 6.20099,22.5 12,22.5 C13.6736,22.5 15.2598,22.1073 16.6675,21.4078 C17.4094,21.0391 17.7119,20.1388 17.3433,19.3969 C16.9746,18.6551 16.0743,18.3525 15.3324,18.7212 C14.3303,19.2192 13.2001,19.5 12,19.5 C7.85784,19.5 4.49998,16.1421 4.49998,12 Z M9.49998,12 C9.49998,10.6341 10.6349,9.5 12.0305,9.5 C13.639,9.5 14.8381,10.9814 14.5144,12.516 C14.2733,13.6589 13.2333,14.5 12.0377,14.5 C10.6386,14.5 9.49998,13.3625 9.49998,12 Z" id="形状" fill="#09244B"></path>
            </g>
        </g>
    </g>
</svg>