<svg xmlns="http://www.w3.org/2000/svg" width="24" height="24"><g fill="none" fill-rule="evenodd"><path d="M24 0v24H0V0zM12.593 23.258l-.011.002-.071.035-.02.004-.014-.004-.071-.035c-.01-.004-.019-.001-.024.005l-.004.01-.017.428.005.02.01.013.104.074.015.004.012-.004.104-.074.012-.016.004-.017-.017-.427c-.002-.01-.009-.017-.017-.018m.265-.113-.013.002-.185.093-.01.01-.003.011.018.43.005.012.008.007.201.093c.012.004.023 0 .029-.008l.004-.014-.034-.614c-.003-.012-.01-.02-.02-.022m-.715.002a.023.023 0 0 0-.027.006l-.006.014-.034.614c0 .012.007.02.017.024l.015-.002.201-.093.01-.008.004-.011.017-.43-.003-.012-.01-.01z"/><path fill="#09244B" d="M4.5 12A7.5 7.5 0 0 1 12 4.5c5.05 0 7.917 4.167 7.51 7.834-.113 1.009-.402 1.558-.623 1.85-.26.344-.732.67-1.184.654-.33-.012-.232-.475-.21-.689l.5-5a1.5 1.5 0 0 0-2.396-1.347A5.515 5.515 0 0 0 12.031 6.5C9.008 6.5 6.5 8.948 6.5 12c0 3.056 2.518 5.5 5.538 5.5a5.552 5.552 0 0 0 3.096-.946c.163.221.357.425.584.604 1.108.878 2.582.869 3.953.184a4.543 4.543 0 0 0 1.61-1.35c.585-.774 1.046-1.85 1.21-3.326C23.083 7.333 18.949 1.5 12 1.5 6.201 1.5 1.5 6.201 1.5 12S6.201 22.5 12 22.5c1.674 0 3.26-.393 4.668-1.092a1.5 1.5 0 0 0-1.336-2.687A7.5 7.5 0 0 1 4.5 12m5 0c0-1.366 1.135-2.5 2.53-2.5 1.609 0 2.808 1.481 2.484 3.016-.24 1.143-1.28 1.984-2.476 1.984-1.4 0-2.538-1.137-2.538-2.5"/></g></svg>