<?xml version="1.0" encoding="UTF-8"?>
<svg width="24px" height="24px" viewBox="0 0 24 24" version="1.1" xmlns="http://www.w3.org/2000/svg" xmlns:xlink="http://www.w3.org/1999/xlink">
    <title>A-Z_sort_ascending_letters_line</title>
    <g id="页面-1" stroke="none" stroke-width="1" fill="none" fill-rule="evenodd">
        <g id="Editor" transform="translate(-240.000000, -96.000000)">
            <g id="A-Z_sort_ascending_letters_line" transform="translate(240.000000, 96.000000)">
                <rect id="矩形" fill-rule="nonzero" x="0" y="0" width="24" height="24"></rect>
                <path d="M10.7586,13 C11.6994,13 12.1893533,14.0920038 11.6139222,14.7923977 L11.5364,14.8778 L7.41424,19 L11,19 C11.5523,19 12,19.4477 12,20 C12,20.51285 11.613973,20.9355092 11.1166239,20.9932725 L11,21 L5.24145,21 C4.30065,21 3.81071515,19.9079962 4.3861123,19.2076023 L4.46363,19.1222 L8.58581,15 L5.00003,15 C4.44774,15 4.00003,14.5523 4.00003,14 C4.00003,13.48715 4.38606566,13.0644908 4.8834079,13.0067275 L5.00003,13 L10.7586,13 Z M17,4 C17.5523,4 18,4.44772 18,5 L18,17.414 L19.1213,16.2927 C19.5119,15.9022 20.145,15.9022 20.5356,16.2927 C20.9261,16.6832 20.9261,17.3164 20.5356,17.7069 L17.7071,20.5354 C17.3166,20.9259 16.6834,20.9259 16.2929,20.5354 L13.4645,17.7069 C13.074,17.3164 13.074,16.6832 13.4645,16.2927 C13.855,15.9022 14.4882,15.9022 14.8787,16.2927 L16,17.414 L16,5 C16,4.44772 16.4477,4 17,4 Z M8.00003,3 C8.674326,3 9.28067533,3.39562382 9.55608491,4.00153967 L9.60994,4.13453 L11.9418,10.6637 C12.1275,11.1838 11.8565,11.756 11.3364,11.9417 C10.85345,12.1142286 10.3254908,11.8927974 10.1038503,11.443863 L10.0583,11.3363 L9.58102,10 L6.41903,10 L5.94177,11.3363 C5.75602,11.8564 5.1838,12.1275 4.66369,11.9417 C4.18073071,11.7692643 3.91252214,11.2635709 4.02540056,10.7757876 L4.05829,10.6637 L6.39012,4.13453 C6.63311,3.45416 7.27757,3 8.00003,3 Z M8.00003,5.57321 L7.13332,8 L8.86674,8 L8.00003,5.57321 Z" id="形状" fill="#09244B"></path>
            </g>
        </g>
    </g>
</svg>