<?xml version="1.0" encoding="UTF-8"?>
<svg width="24px" height="24px" viewBox="0 0 24 24" version="1.1" xmlns="http://www.w3.org/2000/svg" xmlns:xlink="http://www.w3.org/1999/xlink">
    <title>A-Z_sort_ascending_letters_fill</title>
    <g id="页面-1" stroke="none" stroke-width="1" fill="none" fill-rule="evenodd">
        <g id="Editor" transform="translate(-240.000000, -144.000000)">
            <g id="A-Z_sort_ascending_letters_fill" transform="translate(240.000000, 144.000000)">
                <rect id="矩形" fill-rule="nonzero" x="0" y="0" width="24" height="24"></rect>
                <path d="M10.7585,13 C12.1363867,13 12.8494161,14.6104216 11.9849881,15.6283057 L11.8899,15.7314 L8.62124,19 L10.9999,19 C11.8283,19 12.4999,19.6716 12.4999,20.5 C12.4999,21.2796706 11.9049879,21.9204457 11.1443558,21.9931332 L10.9999,22 L5.24134,22 C3.863405,22 3.15041132,20.3895784 4.01487792,19.3716943 L4.10997,19.2686 L7.3786,16 L4.99992,16 C4.17149,16 3.49992,15.3284 3.49992,14.5 C3.49992,13.7203294 4.09480554,13.0795543 4.85545954,13.0068668 L4.99992,13 L10.7585,13 Z M16.9999,3 C17.8283,3 18.4999,3.67157 18.4999,4.5 L18.4999,16.2069 L18.7677,15.9392 C19.3535,15.3534 20.3032,15.3534 20.889,15.9392 C21.4748,16.5249 21.4748,17.4747 20.889,18.0605 L18.0606,20.8889 C17.4748,21.4747 16.525,21.4747 15.9392,20.8889 L13.1108,18.0605 C12.525,17.4747 12.525,16.5249 13.1108,15.9392 C13.6966,15.3534 14.6463,15.3534 15.2321,15.9392 L15.4999,16.2069 L15.4999,4.5 C15.4999,3.67157 16.1715,3 16.9999,3 Z M7.99992,2 C8.87532937,2 9.66212742,2.51591797 10.0158351,3.30498627 L10.0807,3.46637 L12.4125,9.9955 C12.6912,10.7757 12.2846,11.634 11.5044,11.9126 C10.7701882,12.1748118 9.96665273,11.8301529 9.64236403,11.1382397 L9.5857,11 L6.41414,11 C6.1339,11.7847 5.27558,12.1912 4.49542,11.9126 C3.76114235,11.6503882 3.3578045,10.8746706 3.54518938,10.1338592 L3.58731,9.9955 L5.91914,3.46637 C6.2332,2.587 7.06615,2 7.99992,2 Z M7.99992,6.55982 L7.48557,8 L8.51427,8 L7.99992,6.55982 Z" id="形状" fill="#09244B"></path>
            </g>
        </g>
    </g>
</svg>