<?xml version="1.0" encoding="UTF-8"?>
<svg width="24px" height="24px" viewBox="0 0 24 24" version="1.1" xmlns="http://www.w3.org/2000/svg" xmlns:xlink="http://www.w3.org/1999/xlink">
    <title>AZ_sort_descending_letters_fill</title>
    <g id="Icon" stroke="none" stroke-width="1" fill="none" fill-rule="evenodd">
        <g id="Editor" transform="translate(-96.000000, -336.000000)">
            <g id="AZ_sort_descending_letters_fill" transform="translate(96.000000, 336.000000)">
                <path d="M24,0 L24,24 L0,24 L0,0 L24,0 Z M12.5935,23.2578 L12.5819,23.2595 L12.5109,23.295 L12.4919,23.2987 L12.4767,23.295 L12.4057,23.2595 C12.3958,23.2564 12.387,23.259 12.3821,23.2649 L12.378,23.2758 L12.3609,23.7031 L12.3659,23.7235 L12.3769,23.7357 L12.4805,23.8097 L12.4953,23.8136 L12.5071,23.8097 L12.6107,23.7357 L12.6233,23.7197 L12.6267,23.7031 L12.6096,23.2758 C12.6076,23.2657 12.601,23.2593 12.5935,23.2578 Z M12.8584,23.1453 L12.8445,23.1473 L12.6598,23.2397 L12.6499,23.2499 L12.6472,23.2611 L12.6651,23.6906 L12.6699,23.7034 L12.6784,23.7105 L12.8793,23.8032 C12.8914,23.8069 12.9022,23.803 12.9078,23.7952 L12.9118,23.7812 L12.8777,23.1665 C12.8753,23.1546 12.8674,23.147 12.8584,23.1453 Z M12.143,23.1473 C12.1332,23.1424 12.1222,23.1453 12.1156,23.1526 L12.1099,23.1665 L12.0758,23.7812 C12.0751,23.7927 12.0828,23.8019 12.0926,23.8046 L12.1083,23.8032 L12.3092,23.7105 L12.3186,23.7024 L12.3225,23.6906 L12.3404,23.2611 L12.3372,23.2485 L12.3278,23.2397 L12.143,23.1473 Z" id="MingCute" fill-rule="nonzero"></path>
                <path d="M4.49542,11.9126 C5.27558,12.1912 6.1339,11.7847 6.41253,11.0045 L6.59271,10.5 L9.40713,10.5 L9.58731,11.0045 C9.86594,11.7847 10.7243,12.1912 11.5044,11.9126 C12.2846,11.634 12.6912,10.7757 12.4125,9.9955 L10.0807,3.46637 C9.76664,2.587 8.93369,2 7.99992,2 C7.06615,2 6.2332,2.587 5.91914,3.46637 L3.58731,9.9955 C3.30868,10.7757 3.71525,11.634 4.49542,11.9126 Z M7.99992,6.55982 L8.3357,7.5 L7.66414,7.5 L7.99992,6.55982 Z M15.9394,3.93934 C16.5252,3.35355 17.4749,3.35355 18.0607,3.93934 L20.8891,6.76777 C21.4749,7.35355 21.4749,8.3033 20.8891,8.88909 C20.3033,9.47487 19.3536,9.47487 18.7678,8.88909 L18.5,8.62132 L18.5,19.9999975 C18.5,20.8284 17.8285,21.4999975 17,21.4999975 C16.1716,21.4999975 15.5,20.8284 15.5,19.9999975 L15.5,8.62132 L15.2323,8.88909 C14.6465,9.47487 13.6967,9.47487 13.111,8.88909 C12.5252,8.3033 12.5252,7.35355 13.111,6.76777 L15.9394,3.93934 Z M4.99992,13 C4.17149,13 3.49992,13.6716 3.49992,14.5 C3.49992,15.3284 4.17149,16 4.99992,16 L7.3786,16 L4.10997,19.2686 C3.10203,20.2766 3.81589,22 5.24134,22 L10.9999,22 C11.8283,22 12.4999,21.3284 12.4999,20.5 C12.4999,19.6716 11.8283,19 10.9999,19 L8.62124,19 L11.8899,15.7314 C12.8978,14.7234 12.1839,13 10.7585,13 L4.99992,13 Z" id="形状" fill="#09244B"></path>
            </g>
        </g>
    </g>
</svg>