<svg width="24" height="24" viewBox="0 0 24 24" fill="none" xmlns="http://www.w3.org/2000/svg">
<rect width="24" height="24" fill="white" fill-opacity="0.01"/>
<path d="M16.3653 4.79454C17.4397 4.1902 18.281 3.24286 18.7795 2.12106C18.8644 1.93003 19.1356 1.93003 19.2205 2.12106C19.719 3.24286 20.5603 4.19019 21.6347 4.79454C21.7949 4.88467 21.7949 5.11536 21.6347 5.20549C20.5603 5.80984 19.719 6.75718 19.2205 7.87897C19.1356 8.07 18.8644 8.07 18.7795 7.87897C18.281 6.75717 17.4397 5.80984 16.3653 5.20549C16.2051 5.11536 16.2051 4.88467 16.3653 4.79454Z" fill="#09244B"/>
<path d="M11.9229 2.61445C11.5675 1.81471 10.4325 1.81472 10.077 2.61445L9.03507 4.95885C8.07351 7.12237 6.43955 8.91792 4.37602 10.0787L2.52521 11.1197C1.83876 11.5059 1.83877 12.4942 2.52521 12.8803L4.37602 13.9214C6.43955 15.0821 8.07351 16.8777 9.03507 19.0412L10.077 21.3856C10.4325 22.1853 11.5675 22.1853 11.9229 21.3856L12.9649 19.0412C13.9265 16.8777 15.5604 15.0821 17.6239 13.9214L19.4747 12.8803C20.1612 12.4942 20.1612 11.5059 19.4747 11.1197L17.6239 10.0787C15.5604 8.91792 13.9265 7.12237 12.9649 4.95885L11.9229 2.61445Z" fill="#09244B"/>
</svg>
