<svg xmlns="http://www.w3.org/2000/svg" width="24" height="24"><g fill="none" fill-rule="nonzero"><path d="M24 0v24H0V0h24ZM12.594 23.258l-.012.002-.071.035-.02.004-.014-.004-.071-.036c-.01-.003-.019 0-.024.006l-.004.01-.017.428.005.02.01.013.104.074.015.004.012-.004.104-.074.012-.016.004-.017-.017-.427c-.002-.01-.009-.017-.016-.018Zm.264-.113-.014.002-.184.093-.01.01-.003.011.018.43.005.012.008.008.201.092c.012.004.023 0 .029-.008l.004-.014-.034-.614c-.003-.012-.01-.02-.02-.022Zm-.715.002a.023.023 0 0 0-.027.006l-.006.014-.034.614c0 .012.007.02.017.024l.015-.002.201-.093.01-.008.003-.011.018-.43-.003-.012-.01-.01-.184-.092Z"/><path fill="#09244B" d="M11.778 4.371a1 1 0 0 1-.15 1.407c-.559.452-.924.886-1.163 1.276A2 2 0 1 1 8 9l.006-.154c-.025-.492.019-1.15.292-1.892.326-.884.956-1.829 2.073-2.732a1 1 0 0 1 1.407.15ZM5.465 7.054c.239-.39.604-.824 1.164-1.276A1 1 0 1 0 5.37 4.222c-1.117.903-1.747 1.848-2.073 2.732a4.757 4.757 0 0 0-.292 1.892L3 9a2 2 0 1 0 2.465-1.946ZM13.5 10A1.5 1.5 0 0 1 15 8.5h5a1.5 1.5 0 0 1 0 3h-5a1.5 1.5 0 0 1-1.5-1.5Zm0-4A1.5 1.5 0 0 1 15 4.5h5a1.5 1.5 0 0 1 0 3h-5A1.5 1.5 0 0 1 13.5 6Zm-10 8A1.5 1.5 0 0 1 5 12.5h15a1.5 1.5 0 0 1 0 3H5A1.5 1.5 0 0 1 3.5 14ZM5 16.5a1.5 1.5 0 0 0 0 3h15a1.5 1.5 0 0 0 0-3H5Z"/></g></svg>