<?xml version="1.0" encoding="UTF-8"?>
<svg width="24px" height="24px" viewBox="0 0 24 24" version="1.1" xmlns="http://www.w3.org/2000/svg" xmlns:xlink="http://www.w3.org/1999/xlink">
    <title>blockquote_fill</title>
    <g id="Icon" stroke="none" stroke-width="1" fill="none" fill-rule="evenodd">
        <g id="Editor" transform="translate(-432.000000, -336.000000)" fill-rule="nonzero">
            <g id="blockquote_fill" transform="translate(432.000000, 336.000000)">
                <path d="M24,0 L24,24 L0,24 L0,0 L24,0 Z M12.5935,23.2578 L12.5819,23.2595 L12.5109,23.295 L12.4919,23.2987 L12.4767,23.295 L12.4057,23.2595 C12.3958,23.2564 12.387,23.259 12.3821,23.2649 L12.378,23.2758 L12.3609,23.7031 L12.3659,23.7235 L12.3769,23.7357 L12.4805,23.8097 L12.4953,23.8136 L12.5071,23.8097 L12.6107,23.7357 L12.6233,23.7197 L12.6267,23.7031 L12.6096,23.2758 C12.6076,23.2657 12.601,23.2593 12.5935,23.2578 Z M12.8584,23.1453 L12.8445,23.1473 L12.6598,23.2397 L12.6499,23.2499 L12.6472,23.2611 L12.6651,23.6906 L12.6699,23.7034 L12.6784,23.7105 L12.8793,23.8032 C12.8914,23.8069 12.9022,23.803 12.9078,23.7952 L12.9118,23.7812 L12.8777,23.1665 C12.8753,23.1546 12.8674,23.147 12.8584,23.1453 Z M12.143,23.1473 C12.1332,23.1424 12.1222,23.1453 12.1156,23.1526 L12.1099,23.1665 L12.0758,23.7812 C12.0751,23.7927 12.0828,23.8019 12.0926,23.8046 L12.1083,23.8032 L12.3092,23.7105 L12.3186,23.7024 L12.3225,23.6906 L12.3404,23.2611 L12.3372,23.2485 L12.3278,23.2397 L12.143,23.1473 Z" id="MingCute"></path>
                <path d="M11.7777,4.37147 C12.1249,4.80101 12.0581,5.43065 11.6285,5.77779 C11.0693,6.22979 10.704,6.66416 10.4646,7.05424 C11.3451,7.26371 12.0000137,8.05538 12.0000137,9.00000227 C12.0000137,10.1046 11.1046,11.0000023 9.99999653,11.0000023 C8.89543,11.0000023 7.99999653,10.1046 7.99999653,9.00000227 L8.00584,8.84597 L8.00584,8.84597 C7.98146,8.35439 8.02496,7.6968 8.29834,6.95445 C8.62409,6.06993 9.25425,5.12514 10.3714,4.22228 C10.801,3.87513 11.4306,3.94193 11.7777,4.37147 Z M5.4646,7.05424 C5.70404,6.66415 6.06927,6.22979 6.62854,5.77779 C7.05809,5.43065 7.12489,4.80101 6.77774,4.37147 C6.43059,3.94193 5.80096,3.87513 5.37142,4.22228 C4.25425,5.12514 3.62409,6.06993 3.29834,6.95445 C3.02496,7.6968 2.98146,8.35439 3.00584,8.84597 L2.99999653,9.00000227 L2.99999653,9.00000227 C2.99999653,10.1046 3.89543,11.0000023 4.99999653,11.0000023 C6.10457,11.0000023 7.00001693,10.1046 7.00001693,9.00000227 C7.00001693,8.05538 6.34512,7.26371 5.4646,7.05424 Z M13.5,10 C13.5,9.17157 14.1716,8.5 15,8.5 L20,8.5 C20.8284,8.5 21.5,9.17157 21.5,10 C21.5,10.8284 20.8284,11.5 20,11.5 L15,11.5 C14.1716,11.5 13.5,10.8284 13.5,10 Z M13.5,6 C13.5,5.17157 14.1716,4.5 15,4.5 L20,4.5 C20.8284,4.5 21.5,5.17157 21.5,6 C21.5,6.8284 20.8284,7.5 20,7.5 L15,7.5 C14.1716,7.5 13.5,6.8284 13.5,6 Z M3.5,14 C3.5,13.1716 4.17157,12.5 5,12.5 L20,12.5 C20.8284,12.5 21.5,13.1716 21.5,14 C21.5,14.8284 20.8284,15.5 20,15.5 L5,15.5 C4.17157,15.5 3.5,14.8284 3.5,14 Z M5,16.5 C4.17157,16.5 3.5,17.1716 3.5,18 C3.5,18.8284 4.17157,19.5 5,19.5 L20,19.5 C20.8284,19.5 21.5,18.8284 21.5,18 C21.5,17.1716 20.8284,16.5 20,16.5 L5,16.5 Z" id="形状" fill="#09244B"></path>
            </g>
        </g>
    </g>
</svg>