<?xml version="1.0" encoding="UTF-8"?>
<svg width="24px" height="24px" viewBox="0 0 24 24" version="1.1" xmlns="http://www.w3.org/2000/svg" xmlns:xlink="http://www.w3.org/1999/xlink">
    <title>bold_line</title>
    <g id="页面-1" stroke="none" stroke-width="1" fill="none" fill-rule="evenodd">
        <g id="Editor" transform="translate(-192.000000, 0.000000)" fill-rule="nonzero">
            <g id="bold_line" transform="translate(192.000000, 0.000000)">
                <rect id="矩形" x="0" y="0" width="24" height="24"></rect>
                <path d="M13,3 C15.7614,3 18,5.23858 18,8 C18,9.43071 17.3991,10.7211 16.4359,11.6325 C17.9657,12.4875 19,14.123 19,16 C19,18.6887316 16.8776708,20.8818169 14.2168878,20.9953804 L14,21 L6.1,21 C5.533,21 5.06617778,20.5709778 5.00645481,20.0198548 L5,19.9 L5,4.1 C5,3.53299067 5.42901351,3.06617653 5.98014344,3.00645469 L6.1,3 L13,3 Z M14,13 L7,13 L7,19 L14,19 C15.6569,19 17,17.6569 17,16 C17,14.3431 15.6569,13 14,13 Z M13,5 L7,5 L7,11 L13,11 C14.6569,11 16,9.65685 16,8 C16,6.34315 14.6569,5 13,5 Z" id="形状" fill="#09244B"></path>
            </g>
        </g>
    </g>
</svg>