<?xml version="1.0" encoding="UTF-8"?>
<svg width="24px" height="24px" viewBox="0 0 24 24" version="1.1" xmlns="http://www.w3.org/2000/svg" xmlns:xlink="http://www.w3.org/1999/xlink">
    <title>bold_fill</title>
    <g id="页面-1" stroke="none" stroke-width="1" fill="none" fill-rule="evenodd">
        <g id="Editor" transform="translate(-192.000000, -48.000000)" fill-rule="nonzero">
            <g id="bold_fill" transform="translate(192.000000, 48.000000)">
                <rect id="矩形" x="0" y="0" width="24" height="24"></rect>
                <path d="M13,2.5 C16.0376,2.5 18.5,4.96243 18.5,8 C18.5,9.34631 18.0163,10.5796 17.2131,11.5357 C18.5983,12.5344 19.5,14.1619 19.5,16 C19.5,18.9635122 17.1562522,21.3795407 14.2212095,21.4956329 L14,21.5 L6.1,21.5 C5.26545111,21.5 4.58011185,20.8610781 4.50653881,20.0456392 L4.5,19.9 L4.5,4.1 C4.5,3.26543222 5.13896651,2.58010975 5.95436822,2.50653864 L6.1,2.5 L13,2.5 Z M14,13.5 L7.5,13.5 L7.5,18.5 L14,18.5 C15.3807,18.5 16.5,17.3807 16.5,16 C16.5,14.6193 15.3807,13.5 14,13.5 Z M13,5.5 L7.5,5.5 L7.5,10.5 L13,10.5 C14.3807,10.5 15.5,9.38071 15.5,8 C15.5,6.61929 14.3807,5.5 13,5.5 Z" id="形状" fill="#09244B"></path>
            </g>
        </g>
    </g>
</svg>