<?xml version="1.0" encoding="UTF-8"?>
<svg width="24px" height="24px" viewBox="0 0 24 24" version="1.1" xmlns="http://www.w3.org/2000/svg" xmlns:xlink="http://www.w3.org/1999/xlink">
    <title>column_line</title>
    <g id="页面-1" stroke="none" stroke-width="1" fill="none" fill-rule="evenodd">
        <g id="Editor" transform="translate(-192.000000, -192.000000)">
            <g id="column_line" transform="translate(192.000000, 192.000000)">
                <rect id="矩形" fill-rule="nonzero" x="0" y="0" width="24" height="24"></rect>
                <path d="M3,5 C3,3.89543 3.89543,3 5,3 L19,3 C20.1046,3 21,3.89543 21,5 L21,19 C21,20.1046 20.1046,21 19,21 L5,21 C3.89543,21 3,20.1046 3,19 L3,5 Z M14,5 L10,5 L10,19 L14,19 L14,5 Z M16,5 L19,5 L19,19 L16,19 L16,5 Z M8,19 L8,5 L5,5 L5,19 L8,19 Z" id="形状" fill="#09244B"></path>
            </g>
        </g>
    </g>
</svg>