<?xml version="1.0" encoding="UTF-8"?>
<svg width="24px" height="24px" viewBox="0 0 24 24" version="1.1" xmlns="http://www.w3.org/2000/svg" xmlns:xlink="http://www.w3.org/1999/xlink">
    <title>dividing_line_fill</title>
    <g id="页面-1" stroke="none" stroke-width="1" fill="none" fill-rule="evenodd">
        <g id="Editor" transform="translate(-384.000000, -144.000000)" fill-rule="nonzero">
            <g id="dividing_line_fill" transform="translate(384.000000, 144.000000)">
                <rect id="矩形" x="0" y="0" width="24" height="24"></rect>
                <path d="M6,17.5 C6.82843,17.5 7.5,18.1716 7.5,19 C7.5,19.8284 6.82843,20.5 6,20.5 L4,20.5 C3.17157,20.5 2.5,19.8284 2.5,19 C2.5,18.1716 3.17157,17.5 4,17.5 L6,17.5 Z M13,17.5 C13.8284,17.5 14.5,18.1716 14.5,19 C14.5,19.8284 13.8284,20.5 13,20.5 L11,20.5 C10.1716,20.5 9.5,19.8284 9.5,19 C9.5,18.1716 10.1716,17.5 11,17.5 L13,17.5 Z M20,17.5 C20.8284,17.5 21.5,18.1716 21.5,19 C21.5,19.8284 20.8284,20.5 20,20.5 L18,20.5 C17.1716,20.5 16.5,19.8284 16.5,19 C16.5,18.1716 17.1716,17.5 18,17.5 L20,17.5 Z M20,10.5 C20.8284,10.5 21.5,11.1716 21.5,12 C21.5,12.8284 20.8284,13.5 20,13.5 L20,13.5 L4,13.5 C3.17157,13.5 2.5,12.8284 2.5,12 C2.5,11.1716 3.17157,10.5 4,10.5 L4,10.5 Z M6,3.5 C6.82843,3.5 7.5,4.17157 7.5,5 C7.5,5.82843 6.82843,6.5 6,6.5 L4,6.5 C3.17157,6.5 2.5,5.82843 2.5,5 C2.5,4.17157 3.17157,3.5 4,3.5 L6,3.5 Z M13,3.5 C13.8284,3.5 14.5,4.17157 14.5,5 C14.5,5.82843 13.8284,6.5 13,6.5 L13,6.5 L11,6.5 C10.1716,6.5 9.5,5.82843 9.5,5 C9.5,4.17157 10.1716,3.5 11,3.5 L11,3.5 Z M20,3.5 C20.8284,3.5 21.5,4.17157 21.5,5 C21.5,5.82843 20.8284,6.5 20,6.5 L20,6.5 L18,6.5 C17.1716,6.5 16.5,5.82843 16.5,5 C16.5,4.17157 17.1716,3.5 18,3.5 L18,3.5 Z" id="形状结合" fill="#09244B"></path>
            </g>
        </g>
    </g>
</svg>