<svg xmlns="http://www.w3.org/2000/svg" width="24" height="24"><g fill="none" fill-rule="evenodd"><path d="M24 0v24H0V0zM12.594 23.258l-.012.002-.071.035-.02.004-.014-.004-.071-.036c-.01-.003-.019 0-.024.006l-.004.01-.017.428.005.02.01.013.104.074.015.004.012-.004.104-.074.012-.016.004-.017-.017-.427c-.002-.01-.009-.017-.016-.018m.264-.113-.014.002-.184.093-.01.01-.003.011.018.43.005.012.008.008.201.092c.012.004.023 0 .029-.008l.004-.014-.034-.614c-.003-.012-.01-.02-.02-.022m-.715.002a.023.023 0 0 0-.027.006l-.006.014-.034.614c0 .012.007.02.017.024l.015-.002.201-.093.01-.008.003-.011.018-.43-.003-.012-.01-.01z"/><path fill="#09244B" d="m14.535 12.225 4.242 4.243-4.243 4.243a1 1 0 0 1-.707.293H11a1 1 0 0 1-1-1v-2.829a1 1 0 0 1 .293-.707zM17 2a2 2 0 0 1 1.995 1.85L19 4v4.02a4.996 4.996 0 0 0-4.27 1.192l-.196.185-5.656 5.657a3 3 0 0 0-.872 1.923l-.007.198v2.829a3 3 0 0 0 .11.804l.06.192H5a2 2 0 0 1-1.995-1.85L3 19V4a2 2 0 0 1 1.85-1.995L5 2zm3.191 8.811a3 3 0 0 1 0 4.243L15.95 10.81a3 3 0 0 1 4.242 0ZM11 6H7a1 1 0 0 0 0 2h4a1 1 0 1 0 0-2"/></g></svg>