<svg xmlns="http://www.w3.org/2000/svg" width="24" height="24"><g fill="none"><path d="M24 0v24H0V0zM12.593 23.258l-.011.002-.071.035-.02.004-.014-.004-.071-.035c-.01-.004-.019-.001-.024.005l-.004.01-.017.428.005.02.01.013.104.074.015.004.012-.004.104-.074.012-.016.004-.017-.017-.427c-.002-.01-.009-.017-.017-.018m.265-.113-.013.002-.185.093-.01.01-.003.011.018.43.005.012.008.007.201.093c.012.004.023 0 .029-.008l.004-.014-.034-.614c-.003-.012-.01-.02-.02-.022m-.715.002a.023.023 0 0 0-.027.006l-.006.014-.034.614c0 .012.007.02.017.024l.015-.002.201-.093.01-.008.004-.011.017-.43-.003-.012-.01-.01z"/><path fill="#09244B" d="m10.756 6.17 7.07 7.071-7.173 7.174a2 2 0 0 1-1.238.578L9.239 21H4.006a1.01 1.01 0 0 1-1.004-.9l-.006-.11v-5.233a2 2 0 0 1 .467-1.284l.12-.13 7.173-7.174Zm3.14-3.14a2 2 0 0 1 2.701-.117l.127.117 4.243 4.243a2 2 0 0 1 .117 2.7l-.117.128-1.726 1.726-7.07-7.071z"/></g></svg>