<?xml version="1.0" encoding="UTF-8"?>
<svg width="24px" height="24px" viewBox="0 0 24 24" version="1.1" xmlns="http://www.w3.org/2000/svg" xmlns:xlink="http://www.w3.org/1999/xlink">
    <title>edit_2_fill</title>
    <g id="页面-1" stroke="none" stroke-width="1" fill="none" fill-rule="evenodd">
        <g id="Editor" transform="translate(-96.000000, -240.000000)" fill-rule="nonzero">
            <g id="edit_2_fill" transform="translate(96.000000, 240.000000)">
                <rect id="矩形" x="0" y="0" width="24" height="24"></rect>
                <path d="M10.7559,6.16997 L17.8269,13.241 L10.6532,20.4148 C10.3197778,20.7482222 9.88080296,20.9517481 9.41483139,20.9928598 L9.23898,21.0006 L4.00634,21.0006 C3.48575467,21.0006 3.0571064,20.6066836 3.00226701,20.1006493 L2.99634,19.9906 L2.99634,14.7579 C2.99634,14.2864333 3.16282691,13.8321123 3.46324765,13.473528 L3.58212,13.3437 L10.7559,6.16997 Z M13.8958,3.03 C14.6357895,2.29005789 15.8112493,2.25111357 16.5970778,2.91316704 L16.7243,3.03 L20.9669,7.27264 C21.7067947,8.01258211 21.7457366,9.18806637 21.0837255,9.97388053 L20.9669,10.1011 L19.2411,11.8268 L12.1701,4.75576 L13.8958,3.03 Z" id="形状" fill="#09244B"></path>
            </g>
        </g>
    </g>
</svg>