<svg width="24" height="24" viewBox="0 0 24 24" fill="none" xmlns="http://www.w3.org/2000/svg">
<rect width="24" height="24" fill="white" fill-opacity="0.01"/>
<path d="M20.2426 2.34319C20.6331 1.95266 21.2663 1.95266 21.6568 2.34319C22.0473 2.73371 22.0473 3.36688 21.6568 3.7574L20.9323 4.48195C20.7482 3.79373 20.2063 3.25178 19.5181 3.06772L20.2426 2.34319Z" fill="#09244B"/>
<path d="M3 5C3 3.89543 3.89543 3 5 3H19C19.2209 3 19.4333 3.0358 19.632 3.10191C19.4897 3.14946 19.3559 3.2299 19.2426 3.34322L9.34311 13.2427C8.95258 13.6332 8.95258 14.2664 9.34311 14.6569C9.73363 15.0474 10.3668 15.0474 10.7573 14.6569L20.6568 4.75743C20.7701 4.64412 20.8506 4.51037 20.8981 4.36807C20.9642 4.56669 21 4.77917 21 5V19C21 20.1046 20.1046 21 19 21H5C3.89543 21 3 20.1046 3 19V5Z" fill="#09244B"/>
</svg>
