<?xml version="1.0" encoding="UTF-8"?>
<svg width="24px" height="24px" viewBox="0 0 24 24" version="1.1" xmlns="http://www.w3.org/2000/svg" xmlns:xlink="http://www.w3.org/1999/xlink">
    <title>edit_4_line</title>
    <g id="Icon" stroke="none" stroke-width="1" fill="none" fill-rule="evenodd">
        <g id="Editor" transform="translate(-480.000000, -288.000000)">
            <g id="edit_4_line" transform="translate(480.000000, 288.000000)">
                <path d="M24,0 L24,24 L0,24 L0,0 L24,0 Z M12.5935,23.2578 L12.5819,23.2595 L12.5109,23.295 L12.4919,23.2987 L12.4767,23.295 L12.4057,23.2595 C12.3958,23.2564 12.387,23.259 12.3821,23.2649 L12.378,23.2758 L12.3609,23.7031 L12.3659,23.7235 L12.3769,23.7357 L12.4805,23.8097 L12.4953,23.8136 L12.5071,23.8097 L12.6107,23.7357 L12.6233,23.7197 L12.6267,23.7031 L12.6096,23.2758 C12.6076,23.2657 12.601,23.2593 12.5935,23.2578 Z M12.8584,23.1453 L12.8445,23.1473 L12.6598,23.2397 L12.6499,23.2499 L12.6472,23.2611 L12.6651,23.6906 L12.6699,23.7034 L12.6784,23.7105 L12.8793,23.8032 C12.8914,23.8069 12.9022,23.803 12.9078,23.7952 L12.9118,23.7812 L12.8777,23.1665 C12.8753,23.1546 12.8674,23.147 12.8584,23.1453 Z M12.143,23.1473 C12.1332,23.1424 12.1222,23.1453 12.1156,23.1526 L12.1099,23.1665 L12.0758,23.7812 C12.0751,23.7927 12.0828,23.8019 12.0926,23.8046 L12.1083,23.8032 L12.3092,23.7105 L12.3186,23.7024 L12.3225,23.6906 L12.3404,23.2611 L12.3372,23.2485 L12.3278,23.2397 L12.143,23.1473 Z" id="MingCute" fill-rule="nonzero"></path>
                <path d="M5,2 C3.89543,2 3,2.89543 3,4 L3,19 C3,20.1046 3.89543,21 5,21 L8,21 L8,19 L5,19 L5,4 L17,4 L17,8 L19,8 L19,4 C19,2.89543 18.1046,2 17,2 L5,2 Z M8,7 C7.44772,7 7,7.44772 7,8 C7,8.55228 7.44772,9 8,9 L12,9 C12.5523,9 13,8.55228 13,8 C13,7.44772 12.5523,7 12,7 L8,7 Z M15.9487,10.8111 C17.1203,9.63954 19.0198,9.63954 20.1914,10.8111 C21.363,11.9827 21.363,13.8822 20.1914,15.0538 L14.5345,20.7106 C14.347,20.8981 14.0927,21.0036 13.8275,21.0036 L10.999,21.0036 C10.7337,21.0036 10.4794,20.8983 10.2918,20.7107 C10.1043,20.5232 9.99894,20.2688 9.99894,20.0036 L9.99894,17.175 C9.99894,16.9098 10.1044,16.6555 10.2919,16.468 L15.9487,10.8111 Z M18.7772,12.2253 C18.3867,11.8348 17.7535,11.8348 17.363,12.2253 L18.7772,13.6395 C19.1677,13.249 19.1677,12.6158 18.7772,12.2253 Z M17.3629,15.0538 L15.9487,13.6396 L11.999,17.5893 L11.999,19.0036 L13.4132,19.0035 L17.3629,15.0538 Z" id="形状" fill="#09244B"></path>
            </g>
        </g>
    </g>
</svg>