<?xml version="1.0" encoding="UTF-8"?>
<svg width="24px" height="24px" viewBox="0 0 24 24" version="1.1" xmlns="http://www.w3.org/2000/svg" xmlns:xlink="http://www.w3.org/1999/xlink">
    <title>edit_2_line</title>
    <g id="页面-1" stroke="none" stroke-width="1" fill="none" fill-rule="evenodd">
        <g id="Editor" transform="translate(-96.000000, -192.000000)">
            <g id="edit_2_line" transform="translate(96.000000, 192.000000)">
                <rect id="矩形" fill-rule="nonzero" x="0" y="0" width="24" height="24"></rect>
                <path d="M16.7243,3.03 C15.9432,2.24895 14.6769,2.24895 13.8958,3.03 L3.58212,13.3437 C3.20705,13.7188 2.99634,14.2275 2.99634,14.7579 L2.99634,19.9906 C2.99634,20.5484 3.44857,21.0006 4.00634,21.0006 L9.23898,21.0006 C9.76941,21.0006 10.2781,20.7899 10.6532,20.4148 L20.9669,10.1011 C21.7479,9.32002 21.7479,8.05369 20.9669,7.27264 L16.7243,3.03 Z M15.31,4.44421 L19.5527,8.68685 L17.8269,10.4127 L13.5842,6.17001 L15.31,4.44421 Z M12.17,7.58423 L4.99634,14.7579 L4.99634,19.0006 L9.23898,19.0006 L16.4127,11.8269 L12.17,7.58423 Z" id="形状" fill="#09244B"></path>
            </g>
        </g>
    </g>
</svg>