<?xml version="1.0" encoding="UTF-8"?>
<svg width="24px" height="24px" viewBox="0 0 24 24" version="1.1" xmlns="http://www.w3.org/2000/svg" xmlns:xlink="http://www.w3.org/1999/xlink">
    <title>emoji_2_line</title>
    <g id="页面-1" stroke="none" stroke-width="1" fill="none" fill-rule="evenodd">
        <g id="Editor" transform="translate(-432.000000, -192.000000)" fill-rule="nonzero">
            <g id="emoji_2_line" transform="translate(432.000000, 192.000000)">
                 <path d="M24,0 L24,24 L0,24 L0,0 L24,0 Z M12.5934901,23.257841 L12.5819402,23.2595131 L12.5108777,23.2950439 L12.4918791,23.2987469 L12.4918791,23.2987469 L12.4767152,23.2950439 L12.4056548,23.2595131 C12.3958229,23.2563662 12.3870493,23.2590235 12.3821421,23.2649074 L12.3780323,23.275831 L12.360941,23.7031097 L12.3658947,23.7234994 L12.3769048,23.7357139 L12.4804777,23.8096931 L12.4953491,23.8136134 L12.4953491,23.8136134 L12.5071152,23.8096931 L12.6106902,23.7357139 L12.6232938,23.7196733 L12.6232938,23.7196733 L12.6266527,23.7031097 L12.609561,23.275831 C12.6075724,23.2657013 12.6010112,23.2592993 12.5934901,23.257841 L12.5934901,23.257841 Z M12.8583906,23.1452862 L12.8445485,23.1473072 L12.6598443,23.2396597 L12.6498822,23.2499052 L12.6498822,23.2499052 L12.6471943,23.2611114 L12.6650943,23.6906389 L12.6699349,23.7034178 L12.6699349,23.7034178 L12.678386,23.7104931 L12.8793402,23.8032389 C12.8914285,23.8068999 12.9022333,23.8029875 12.9078286,23.7952264 L12.9118235,23.7811639 L12.8776777,23.1665331 C12.8752882,23.1545897 12.8674102,23.1470016 12.8583906,23.1452862 L12.8583906,23.1452862 Z M12.1430473,23.1473072 C12.1332178,23.1423925 12.1221763,23.1452606 12.1156365,23.1525954 L12.1099173,23.1665331 L12.0757714,23.7811639 C12.0751323,23.7926639 12.0828099,23.8018602 12.0926481,23.8045676 L12.108256,23.8032389 L12.3092106,23.7104931 L12.3186497,23.7024347 L12.3186497,23.7024347 L12.3225043,23.6906389 L12.340401,23.2611114 L12.337245,23.2485176 L12.337245,23.2485176 L12.3277531,23.2396597 L12.1430473,23.1473072 Z" id="MingCute" fill-rule="nonzero"></path>
                <path d="M12,2 C17.5228,2 22,6.47715 22,12 C22,17.5228 17.5228,22 12,22 C6.47715,22 2,17.5228 2,12 C2,6.47715 6.47715,2 12,2 Z M12,4 C7.58172,4 4,7.58172 4,12 C4,16.4183 7.58172,20 12,20 C16.4183,20 20,16.4183 20,12 C20,7.58172 16.4183,4 12,4 Z M15.1667,12 C16.1792,12 17,12.8208 17,13.8333 L17,14 C17,16.7614 14.7614,19 12,19 C9.23858,19 7,16.7614 7,14 L7,13.8333 C7,12.8208 7.82081,12 8.83333,12 L15.1667,12 Z M15,14 L9,14 C9,15.6569 10.3431,17 12,17 C13.6569,17 15,15.6569 15,14 Z M9,7 C9.51283143,7 9.93550653,7.38604429 9.9932722,7.88337975 L10,8 L10,10 C10,10.5523 9.55228,11 9,11 C8.48716857,11 8.06449347,10.613973 8.0067278,10.1166239 L8,10 L8,8 C8,7.44772 8.44772,7 9,7 Z M14.2929,7.29289 C14.6834,6.90237 15.3166,6.90237 15.7071,7.29289 C16.0675615,7.65337923 16.0952893,8.22060645 15.7902834,8.61290152 L15.7071,8.70711 L15.4142,9 L15.7071,9.29289 C16.0976,9.68342 16.0976,10.3166 15.7071,10.7071 C15.3466385,11.0675615 14.7793793,11.0952893 14.3871027,10.7902834 L14.2929,10.7071 L13.2929,9.70711 C12.9324385,9.34662077 12.9047107,8.77939355 13.2097166,8.38709848 L13.2929,8.29289 L14.2929,7.29289 Z" id="形状" fill="#09244B"></path>
            </g>
        </g>
    </g>
</svg>