<?xml version="1.0" encoding="UTF-8"?>
<svg width="24px" height="24px" viewBox="0 0 24 24" version="1.1" xmlns="http://www.w3.org/2000/svg" xmlns:xlink="http://www.w3.org/1999/xlink">
    <title>emoji_line</title>
    <g id="页面-1" stroke="none" stroke-width="1" fill="none" fill-rule="evenodd">
        <g id="Editor" transform="translate(-480.000000, -192.000000)" fill-rule="nonzero">
            <g id="emoji_line" transform="translate(480.000000, 192.000000)">
                <rect id="矩形" x="0" y="0" width="24" height="24"></rect>
                <path d="M12,2 C17.5228,2 22,6.47715 22,12 C22,17.5228 17.5228,22 12,22 C6.47715,22 2,17.5228 2,12 C2,6.47715 6.47715,2 12,2 Z M12,4 C7.58172,4 4,7.58172 4,12 C4,16.4183 7.58172,20 12,20 C16.4183,20 20,16.4183 20,12 C20,7.58172 16.4183,4 12,4 Z M14.8,13.8566 C15.1943,13.47 15.8275,13.4762 16.2141,13.8706 C16.6007,14.265 16.5944,14.8982 16.2,15.2848 C15.1188,16.3447 13.6349,17 12.0000015,17 C10.3651,17 8.88118,16.3447 7.79996,15.2848 C7.40557,14.8982 7.39928,14.265 7.7859,13.8706 C8.17252,13.4762 8.80566,13.47 9.20004,13.8566 C9.92257,14.5649 10.9095,15 12.0000015,15 C13.0905,15 14.0774,14.5649 14.8,13.8566 Z M8.5,8 C9.32843,8 10,8.67157 10,9.5 C10,10.3284 9.32843,11 8.5,11 C7.67157,11 7,10.3284 7,9.5 C7,8.67157 7.67157,8 8.5,8 Z M15.5,8 C16.3284,8 17,8.67157 17,9.5 C17,10.3284 16.3284,11 15.5,11 C14.6716,11 14,10.3284 14,9.5 C14,8.67157 14.6716,8 15.5,8 Z" id="形状" fill="#09244B"></path>
            </g>
        </g>
    </g>
</svg>