<?xml version="1.0" encoding="UTF-8"?>
<svg width="24px" height="24px" viewBox="0 0 24 24" version="1.1" xmlns="http://www.w3.org/2000/svg" xmlns:xlink="http://www.w3.org/1999/xlink">
    <title>emoji_2_line</title>
    <g id="页面-1" stroke="none" stroke-width="1" fill="none" fill-rule="evenodd">
        <g id="Editor" transform="translate(-432.000000, -192.000000)" fill-rule="nonzero">
            <g id="emoji_2_line" transform="translate(432.000000, 192.000000)">
                <rect id="矩形" x="0" y="0" width="24" height="24"></rect>
                <path d="M12,2 C17.5228,2 22,6.47715 22,12 C22,17.5228 17.5228,22 12,22 C6.47715,22 2,17.5228 2,12 C2,6.47715 6.47715,2 12,2 Z M12,4 C7.58172,4 4,7.58172 4,12 C4,16.4183 7.58172,20 12,20 C16.4183,20 20,16.4183 20,12 C20,7.58172 16.4183,4 12,4 Z M15.1667,12 C16.1792,12 17,12.8208 17,13.8333 L17,14 C17,16.7614 14.7614,19 12,19 C9.23858,19 7,16.7614 7,14 L7,13.8333 C7,12.8208 7.82081,12 8.83333,12 L15.1667,12 Z M15,14 L9,14 C9,15.6569 10.3431,17 12,17 C13.6569,17 15,15.6569 15,14 Z M9,7 C9.51283143,7 9.93550653,7.38604429 9.9932722,7.88337975 L10,8 L10,10 C10,10.5523 9.55228,11 9,11 C8.48716857,11 8.06449347,10.613973 8.0067278,10.1166239 L8,10 L8,8 C8,7.44772 8.44772,7 9,7 Z M14.2929,7.29289 C14.6834,6.90237 15.3166,6.90237 15.7071,7.29289 C16.0675615,7.65337923 16.0952893,8.22060645 15.7902834,8.61290152 L15.7071,8.70711 L15.4142,9 L15.7071,9.29289 C16.0976,9.68342 16.0976,10.3166 15.7071,10.7071 C15.3466385,11.0675615 14.7793793,11.0952893 14.3871027,10.7902834 L14.2929,10.7071 L13.2929,9.70711 C12.9324385,9.34662077 12.9047107,8.77939355 13.2097166,8.38709848 L13.2929,8.29289 L14.2929,7.29289 Z" id="形状" fill="#09244B"></path>
            </g>
        </g>
    </g>
</svg>