<?xml version="1.0" encoding="UTF-8"?>
<svg width="24px" height="24px" viewBox="0 0 24 24" version="1.1" xmlns="http://www.w3.org/2000/svg" xmlns:xlink="http://www.w3.org/1999/xlink">
    <title>eraser_line</title>
    <g id="页面-1" stroke="none" stroke-width="1" fill="none" fill-rule="evenodd">
        <g id="Editor" transform="translate(-432.000000, -96.000000)">
            <g id="eraser_line" transform="translate(432.000000, 96.000000)">
                <rect id="矩形" fill-rule="nonzero" x="0" y="0" width="24" height="24"></rect>
                <path d="M15.5354,2.80759 L21.1922,8.46444 C21.9733,9.24549 21.9733,10.5118 21.1922,11.2929 L17.6696,14.8155 C17.6654,14.8199 17.6611,14.8242 17.6568,14.8285 C17.6526,14.8328 17.6482,14.837 17.6439,14.8412 L13.4851,19 L19.9999,19 C20.5522,19 20.9999,19.4477 20.9999,20 C20.9999,20.5523 20.5522,21 19.9999,21 L8.89327,21 C8.49545,21 8.11392,20.842 7.83261,20.5607 L2.80747,15.5355 C2.02642,14.7545 2.02642,13.4881 2.80747,12.7071 L12.707,2.80759 C13.488,2.02654 14.7543,2.02654 15.5354,2.80759 Z M15.5354,14.1213 L10.6567,19 L9.10038,19 L4.22168,14.1213 L9.87856,8.46442 L15.5354,14.1213 Z M16.9496,12.7071 L11.2928,7.0502 L14.1212,4.2218 L19.778,9.87866 L16.9496,12.7071 Z" id="形状" fill="#09244B"></path>
            </g>
        </g>
    </g>
</svg>