<?xml version="1.0" encoding="UTF-8"?>
<svg width="24px" height="24px" viewBox="0 0 24 24" version="1.1" xmlns="http://www.w3.org/2000/svg" xmlns:xlink="http://www.w3.org/1999/xlink">
    <title>font_line</title>
    <g id="页面-1" stroke="none" stroke-width="1" fill="none" fill-rule="evenodd">
        <g id="Editor" transform="translate(-288.000000, 0.000000)">
            <g id="font_line" transform="translate(288.000000, 0.000000)">
                <rect id="矩形" fill-rule="nonzero" x="0" y="0" width="24" height="24"></rect>
                <path d="M5.92649,20.3764 C5.71862,20.8881 5.13532,21.1343 4.62364,20.9265 C4.11197,20.7186 3.86569,20.1353 4.07355,19.6236 L10.3854,4.08686 C10.6523,3.42978 11.2908,3 12,3 C12.7092,3 13.3477,3.42978 13.6147,4.08686 L19.9265,19.6236 C20.1344,20.1353 19.8881,20.7186 19.3764,20.9265 C18.8647,21.1343 18.2814,20.8881 18.0736,20.3764 L15.8894,15 L8.11063,15 L5.92649,20.3764 Z M8.92313,13 L15.0769,13 L12,5.42614 L8.92313,13 Z" id="形状" fill="#09244B"></path>
            </g>
        </g>
    </g>
</svg>