<?xml version="1.0" encoding="UTF-8"?>
<svg width="24px" height="24px" viewBox="0 0 24 24" version="1.1" xmlns="http://www.w3.org/2000/svg" xmlns:xlink="http://www.w3.org/1999/xlink">
    <title>font_fill</title>
    <g id="页面-1" stroke="none" stroke-width="1" fill="none" fill-rule="evenodd">
        <g id="Editor" transform="translate(-288.000000, -48.000000)">
            <g id="font_fill" transform="translate(288.000000, 48.000000)">
                <rect id="矩形" fill-rule="nonzero" x="0" y="0" width="24" height="24"></rect>
                <path d="M6.38961,20.5646 C6.07781,21.3321 5.20285,21.7015 4.43534,21.3897 C3.66783,21.0779 3.29841,20.2029 3.61021,19.4354 L9.92202,3.89867 C10.2655,3.05308 11.0872,2.5 11.9999,2.5 C12.9126,2.5 13.7343,3.05308 14.0778,3.89867 L20.3896,19.4354 C20.7014,20.2029 20.332,21.0779 19.5645,21.3897 C18.797,21.7015 17.922,21.3321 17.6102,20.5646 L15.5527,15.4999 L8.44712,15.4999 L6.38961,20.5646 Z M9.66587,12.4999 L14.3339,12.4999 L11.9999,6.7546 L9.66587,12.4999 Z" id="形状" fill="#09244B"></path>
            </g>
        </g>
    </g>
</svg>