<svg width="24" height="24" viewBox="0 0 24 24" fill="none" xmlns="http://www.w3.org/2000/svg">
<rect width="24" height="24" fill="white" fill-opacity="0.01"/>
<path fill-rule="evenodd" clip-rule="evenodd" d="M4.42796 19.459C4.17445 20.2477 3.32959 20.6815 2.5409 20.428C1.75222 20.1745 1.31837 19.3297 1.57187 18.541L5.91887 5.017C6.20944 4.11301 7.05038 3.5 7.99992 3.5C8.94946 3.5 9.7904 4.11301 10.081 5.017L14.428 18.541C14.6815 19.3297 14.2476 20.1745 13.4589 20.428C12.6702 20.6815 11.8254 20.2477 11.5719 19.459L10.2993 15.5H5.70051L4.42796 19.459ZM6.66479 12.5H9.33504L7.99992 8.34626L6.66479 12.5Z" fill="#09244B"/>
<path fill-rule="evenodd" clip-rule="evenodd" d="M19.5726 12.321C19.8278 12.1199 20.1499 12 20.5 12C21.3284 12 22 12.6715 22 13.5V18.5C22 19.3284 21.3284 20 20.5 20C20.1499 20 19.8278 19.88 19.5726 19.679C19.0899 19.8856 18.5583 20 18 20C15.7909 20 14 18.2091 14 16C14 13.7908 15.7909 12 18 12C18.5583 12 19.0899 12.1144 19.5726 12.321ZM19 16C19 15.4477 18.5523 15 18 15C17.4477 15 17 15.4477 17 16C17 16.5523 17.4477 17 18 17C18.5523 17 19 16.5523 19 16Z" fill="#09244B"/>
</svg>
