<?xml version="1.0" encoding="UTF-8"?>
<svg width="24px" height="24px" viewBox="0 0 24 24" version="1.1" xmlns="http://www.w3.org/2000/svg" xmlns:xlink="http://www.w3.org/1999/xlink">
    <title>font_size_line</title>
    <g id="页面-1" stroke="none" stroke-width="1" fill="none" fill-rule="evenodd">
        <g id="Editor" transform="translate(-336.000000, 0.000000)">
            <g id="font_size_line" transform="translate(336.000000, 0.000000)">
                <rect id="矩形" fill-rule="nonzero" x="0" y="0" width="24" height="24"></rect>
                <path d="M21,12 C21.5523,12 22,12.4477 22,13 L22,19 C22,19.5523 21.5523,20 21,20 C20.5946,20 20.2456,19.7588 20.0886,19.4121 C19.4807,19.785 18.7654,20 18,20 C15.7909,20 14,18.2092 14,16 C14,13.7909 15.7909,12 18,12 C18.7654,12 19.4807,12.215 20.0886,12.5879 C20.2456,12.2412 20.5946,12 21,12 Z M8.00003,4 C8.73237,4 9.38095,4.47279 9.60506,5.17 L13.9521,18.694 C14.1211,19.2198 13.8318,19.783 13.306,19.952 C12.7802,20.121 12.217,19.8318 12.048,19.306 L10.6639,15 L5.33612,15 L3.95205,19.306 C3.78305,19.8318 3.21981,20.121 2.69402,19.952 C2.16823,19.783 1.87899,19.2198 2.048,18.694 L6.39499,5.17 C6.6191,4.47279 7.26768,4 8.00003,4 Z M18,14 C16.8954,14 16,14.8955 16,16 C16,17.1046 16.8954,18 18,18 C19.1046,18 20,17.1046 20,16 C20,14.8955 19.1046,14 18,14 Z M8.00003,6.71232 L5.97898,13 L10.0211,13 L8.00003,6.71232 Z" id="形状" fill="#09244B"></path>
            </g>
        </g>
    </g>
</svg>