<?xml version="1.0" encoding="UTF-8"?>
<svg width="24px" height="24px" viewBox="0 0 24 24" version="1.1" xmlns="http://www.w3.org/2000/svg" xmlns:xlink="http://www.w3.org/1999/xlink">
    <title>frame_line</title>
    <g id="页面-1" stroke="none" stroke-width="1" fill="none" fill-rule="evenodd">
        <g id="Editor" transform="translate(-240.000000, -192.000000)">
            <g id="frame_line" transform="translate(240.000000, 192.000000)">
                <rect id="矩形" fill-rule="nonzero" x="0" y="0" width="24" height="24"></rect>
                <path d="M16,20 C16,20.5523 16.4477,21 17,21 C17.5523,21 18,20.5523 18,20 L18,18 L20,18 C20.5523,18 21,17.5523 21,17 C21,16.4477 20.5523,16 20,16 L18,16 L18,8 L20,8 C20.5523,8 21,7.55228 21,7 C21,6.44772 20.5523,6 20,6 L18,6 L18,4 C18,3.44772 17.5523,3 17,3 C16.4477,3 16,3.44772 16,4 L16,6 L8,6 L8,4 C8,3.44772 7.55229,3 7,3 C6.44772,3 6,3.44772 6,4 L6,6 L4,6 C3.44772,6 3,6.44771 3,7 C3,7.55228 3.44772,8 4,8 L6,8 L6,16 L4,16 C3.44772,16 3,16.4477 3,17 C3,17.5523 3.44772,18 4,18 L6,18 L6,20 C6,20.5523 6.44772,21 7,21 C7.55228,21 8,20.5523 8,20 L8,18 L16,18 L16,20 Z M8,16 L16,16 L16,8 L8,8 L8,16 Z" id="形状" fill="#09244B"></path>
            </g>
        </g>
    </g>
</svg>