<?xml version="1.0" encoding="UTF-8"?>
<svg width="24px" height="24px" viewBox="0 0 24 24" version="1.1" xmlns="http://www.w3.org/2000/svg" xmlns:xlink="http://www.w3.org/1999/xlink">
    <title>hashtag_line</title>
    <g id="页面-1" stroke="none" stroke-width="1" fill="none" fill-rule="evenodd">
        <g id="Editor" transform="translate(-384.000000, 0.000000)">
            <g id="hashtag_line" transform="translate(384.000000, 0.000000)">
                <rect id="矩形" fill-rule="nonzero" x="0" y="0" width="24" height="24"></rect>
                <path d="M10.1241,3.00783 C10.6722,3.07633 11.0609,3.57612 10.9924,4.12414 L10.5079,8.00000106 L14.4923,8.00000106 L15.0078,3.87607 C15.0763,3.32805 15.5761,2.93932 16.1241,3.00783 C16.6722,3.07633 17.0609,3.57612 16.9924,4.12414 L16.5079,8.00000106 L20,8.00000106 C20.5523,8.00000106 21,8.44772 21,9.00000106 C21,9.55228 20.5523,10.0000011 20,10.0000011 L16.2579,10.0000011 L15.7579,14.0000011 L19.5,14.0000011 C20.0523,14.0000011 20.5,14.4477 20.5,15.0000011 C20.5,15.5523 20.0523,16.0000011 19.5,16.0000011 L15.5079,16.0000011 L14.9924,20.1241 C14.9239,20.6722 14.4241,21.0609 13.8761,20.9924 C13.3281,20.9239 12.9393,20.4241 13.0078,19.8761 L13.4923,16.0000011 L9.5079,16.0000011 L8.99238,20.1241 C8.92388,20.6722 8.42409,21.0609 7.87607,20.9924 C7.32805,20.9239 6.93932,20.4241 7.00783,19.8761 L7.49234,16.0000011 L4.5,16.0000011 C3.94772,16.0000011 3.5,15.5523 3.5,15.0000011 C3.5,14.4477 3.94772,14.0000011 4.5,14.0000011 L7.74234,14.0000011 L8.24234,10.0000011 L5,10.0000011 C4.44772,10.0000011 4,9.55228 4,9.00000106 C4,8.44772 4.44772,8.00000106 5,8.00000106 L8.49234,8.00000106 L9.00783,3.87607 C9.07633,3.32805 9.57612,2.93932 10.1241,3.00783 Z M13.7423,14 L14.2423,10 L10.2579,10 L9.7579,14 L13.7423,14 Z" id="形状" fill="#09244B"></path>
            </g>
        </g>
    </g>
</svg>