<svg width="24" height="24" viewBox="0 0 24 24" fill="none" xmlns="http://www.w3.org/2000/svg">
<rect width="24" height="24" fill="white" fill-opacity="0.01"/>
<path fill-rule="evenodd" clip-rule="evenodd" d="M9.68621 2.5115C10.5082 2.61425 11.0913 3.36394 10.9886 4.18597L10.6368 6.99994H14.6135L15.0117 3.81386C15.1145 2.99183 15.8642 2.40874 16.6862 2.5115C17.5082 2.61425 18.0913 3.36394 17.9886 4.18597L17.6368 6.99994H20C20.8284 6.99994 21.5 7.67151 21.5 8.49994C21.5 9.32837 20.8284 9.99994 20 9.99994H17.2618L16.7618 13.9999H19.5C20.3284 13.9999 21 14.6715 21 15.4999C21 16.3284 20.3284 16.9999 19.5 16.9999H16.3868L15.9886 20.186C15.8858 21.008 15.1361 21.5911 14.3141 21.4883C13.4921 21.3856 12.909 20.6359 13.0117 19.8139L13.3635 16.9999H9.38683L8.98857 20.186C8.88582 21.008 8.13614 21.5911 7.31411 21.4883C6.49208 21.3856 5.90899 20.6359 6.01174 19.8139L6.36348 16.9999H4.5C3.67157 16.9999 3 16.3284 3 15.4999C3 14.6715 3.67157 13.9999 4.5 13.9999H6.73848L7.23848 9.99994H5C4.17157 9.99994 3.5 9.32837 3.5 8.49994C3.5 7.67151 4.17157 6.99994 5 6.99994H7.61348L8.01174 3.81386C8.11449 2.99183 8.86418 2.40874 9.68621 2.5115ZM13.7385 13.9999L14.2385 9.99994H10.2618L9.76183 13.9999H13.7385Z" fill="#09244B"/>
</svg>
