<svg width="24" height="24" viewBox="0 0 24 24" fill="none" xmlns="http://www.w3.org/2000/svg">
<rect width="24" height="24" fill="white" fill-opacity="0.01"/>
<path fill-rule="evenodd" clip-rule="evenodd" d="M10.1241 3.00783C10.6722 3.07633 11.0609 3.57612 10.9924 4.12414L10.5079 8H14.4923L15.0078 3.87607C15.0763 3.32805 15.5761 2.93932 16.1241 3.00783C16.6722 3.07633 17.0609 3.57612 16.9924 4.12414L16.5079 8H20C20.5523 8 21 8.44772 21 9C21 9.55228 20.5523 10 20 10H16.2579L15.7579 14H19.5C20.0523 14 20.5 14.4477 20.5 15C20.5 15.5523 20.0523 16 19.5 16H15.5079L14.9924 20.1241C14.9239 20.6722 14.4241 21.0609 13.8761 20.9924C13.3281 20.9239 12.9393 20.4241 13.0078 19.8761L13.4923 16H9.5079L8.99238 20.1241C8.92388 20.6722 8.42409 21.0609 7.87607 20.9924C7.32805 20.9239 6.93932 20.4241 7.00783 19.8761L7.49234 16H4.5C3.94772 16 3.5 15.5523 3.5 15C3.5 14.4477 3.94772 14 4.5 14H7.74234L8.24234 10H5C4.44772 10 4 9.55228 4 9C4 8.44772 4.44772 8 5 8H8.49234L9.00783 3.87607C9.07633 3.32805 9.57612 2.93932 10.1241 3.00783ZM13.7423 14L14.2423 10H10.2579L9.7579 14H13.7423Z" fill="#09244B"/>
</svg>
