<?xml version="1.0" encoding="UTF-8"?>
<svg width="24px" height="24px" viewBox="0 0 24 24" version="1.1" xmlns="http://www.w3.org/2000/svg" xmlns:xlink="http://www.w3.org/1999/xlink">
    <title>Heading_3_line</title>
    <g id="页面-1" stroke="none" stroke-width="1" fill="none" fill-rule="evenodd">
        <g id="Editor" transform="translate(-528.000000, 0.000000)" fill-rule="nonzero">
            <g id="Heading_3_line" transform="translate(528.000000, 0.000000)">
                <rect id="矩形" x="0" y="0" width="24" height="24"></rect>
                <path d="M13,3 C13.51285,3 13.9355092,3.38604429 13.9932725,3.88337975 L14,4 L14,20 C14,20.5523 13.5523,21 13,21 C12.48715,21 12.0644908,20.613973 12.0067275,20.1166239 L12,20 L12,13 L5,13 L5,20 C5,20.5523 4.55228,21 4,21 C3.48716857,21 3.06449347,20.613973 3.0067278,20.1166239 L3,20 L3,4 C3,3.44772 3.44772,3 4,3 C4.51283143,3 4.93550653,3.38604429 4.9932722,3.88337975 L5,4 L5,11 L12,11 L12,4 C12,3.44772 12.4477,3 13,3 Z M18.3714,12.5 C19.827,12.5 21,13.6854 21,15.1334 C21,15.7245 20.8,16.2932 20.4417,16.7501 C20.7999,17.2069 20.9998,17.7756 20.9998,18.3666 C20.9998,19.8146 19.8268,21 18.3712,21 C17.3194,21 16.332,20.6496 15.8873,19.6016 C15.646,19.033 15.6581,18.3518 16.3234,18.0694 C16.7955786,17.8691071 17.3354434,18.0594112 17.5828593,18.4946729 L17.6346,18.5994 C17.7727091,18.9247091 17.9134959,18.9858645 18.1764703,18.9973488 L18.3712,19 L18.3712,19 C18.7146,19 18.9998,18.7176 18.9998,18.3666 C18.9998,17.9941455 18.7150893,17.7892942 18.3855626,17.7551267 L18.2856,17.75 C17.7333,17.75 17.2856,17.3023 17.2856,16.75 C17.2856,16.23715 17.6717995,15.8144908 18.1690931,15.7567275 L18.2857,15.75 C18.6555,15.75 19,15.5431 19,15.1334 C19,14.7824 18.7148,14.5 18.3714,14.5 L18.1766709,14.5026512 C17.9429183,14.5128595 17.8057186,14.562314 17.6811746,14.8016529 L17.6349,14.9006 C17.4191,15.409 16.8321,15.6463 16.3237,15.4306 C15.6450684,15.1426421 15.6559116,14.6208958 15.7613429,14.2420961 L15.8105845,14.0896036 L15.8105845,14.0896036 L15.8875,13.8984 C16.3322,12.8504 17.3196,12.5 18.3714,12.5 Z" id="形状" fill="#09244B"></path>
            </g>
        </g>
    </g>
</svg>