<?xml version="1.0" encoding="UTF-8"?>
<svg width="24px" height="24px" viewBox="0 0 24 24" version="1.1" xmlns="http://www.w3.org/2000/svg" xmlns:xlink="http://www.w3.org/1999/xlink">
    <title>Heading_2_line</title>
    <g id="页面-1" stroke="none" stroke-width="1" fill="none" fill-rule="evenodd">
        <g id="Editor" transform="translate(-480.000000, 0.000000)" fill-rule="nonzero">
            <g id="Heading_2_line" transform="translate(480.000000, 0.000000)">
                <rect id="矩形" x="0" y="0" width="24" height="24"></rect>
                <path d="M13,3 C13.51285,3 13.9355092,3.38604429 13.9932725,3.88337975 L14,4 L14,20 C14,20.5523 13.5523,21 13,21 C12.48715,21 12.0644908,20.613973 12.0067275,20.1166239 L12,20 L12,13 L5,13 L5,20 C5,20.5523 4.55228,21 4,21 C3.48716857,21 3.06449347,20.613973 3.0067278,20.1166239 L3,20 L3,4 C3,3.44772 3.44772,3 4,3 C4.51283143,3 4.93550653,3.38604429 4.9932722,3.88337975 L5,4 L5,11 L12,11 L12,4 C12,3.44772 12.4477,3 13,3 Z M17.6575,12.6791 C18.2901,12.521 18.9499,12.6084 19.5304,12.8987 C20.6922,13.4796 21.2947,14.7895 20.9797,16.0497 C20.8789857,16.4525571 20.6967939,16.8293327 20.4382254,17.1522551 L20.3026,17.3091 L18.7244,19 L20.3542,19 C20.9065,19 21.3542,19.4477 21.3542,20 C21.3542,20.51285 20.968173,20.9355092 20.4708239,20.9932725 L20.3542,21 L16.6492,21 C16.0918,21 15.6399,20.5482 15.6399,19.9907 C15.6399,19.69775 15.6621031,19.4213375 15.830043,19.182766 L15.9113,19.0829 L18.8405,15.9445 C19.3159,15.4352 18.897,14.4308 18.1425,14.6194 C17.8471,14.6933 17.6399,14.9587 17.6399,15.2632 C17.6399,15.8397 17.2573,16.3572 16.6399,16.3572 C16.0225,16.3572 15.6399,15.8397 15.6399,15.2632 C15.6399,14.041 16.4717,12.9756 17.6575,12.6791 Z" id="形状" fill="#09244B"></path>
            </g>
        </g>
    </g>
</svg>