<?xml version="1.0" encoding="UTF-8"?>
<svg width="24px" height="24px" viewBox="0 0 24 24" version="1.1" xmlns="http://www.w3.org/2000/svg" xmlns:xlink="http://www.w3.org/1999/xlink">
    <title>Heading_3_fill</title>
    <g id="页面-1" stroke="none" stroke-width="1" fill="none" fill-rule="evenodd">
        <g id="Editor" transform="translate(-528.000000, -48.000000)" fill-rule="nonzero">
            <g id="Heading_3_fill" transform="translate(528.000000, 48.000000)">
                <rect id="矩形" x="0" y="0" width="24" height="24"></rect>
                <path d="M13,2.5 C13.7796706,2.5 14.4204457,3.09488554 14.4931332,3.85553954 L14.5,4 L14.5,20 C14.5,20.8284 13.8284,21.5 13,21.5 C12.2203294,21.5 11.5795543,20.9050879 11.5068668,20.1444558 L11.5,20 L11.5,13.5 L5.5,13.5 L5.5,20 C5.5,20.8284 4.82843,21.5 4,21.5 C3.22030118,21.5 2.579551,20.9050879 2.50686655,20.1444558 L2.5,20 L2.5,4 C2.5,3.17157 3.17157,2.5 4,2.5 C4.77969882,2.5 5.420449,3.09488554 5.49313345,3.85553954 L5.5,4 L5.5,10.5 L11.5,10.5 L11.5,4 C11.5,3.17157 12.1716,2.5 13,2.5 Z M18.3715,12.5 C19.827,12.5 21.0001,13.6854 21.0001,15.1334 C21.0001,15.7245 20.8,16.2932 20.4418,16.7501 C20.7999,17.2069 20.9999,17.7756 20.9999,18.3666 C20.9999,19.8146 19.8268,21 18.3713,21 C17.3195,21 16.332,20.6496 15.8873,19.6016 C15.6461,19.033 15.6582,18.3518 16.3235,18.0694 C16.7955857,17.8691071 17.3354439,18.0594112 17.5829394,18.4946729 L17.6347,18.5994 C17.7727273,18.9247091 17.9135661,18.9858645 18.1765622,18.9973488 L18.3713,19 L18.3713,19 C18.7147,19 18.9999,18.7176 18.9999,18.3666 C18.9999,17.9941455 18.7151893,17.7892942 18.3855875,17.7551267 L18.2856,17.75 C17.7333,17.75 17.2856,17.3023 17.2856,16.75 C17.2856,16.23715 17.6717995,15.8144908 18.1691731,15.7567275 L18.2858,15.75 C18.6556,15.75 19.0001,15.5431 19.0001,15.1334 C19.0001,14.7824 18.7149,14.5 18.3715,14.5 L18.1767622,14.5026512 C17.9429879,14.5128595 17.8057329,14.562314 17.6811769,14.8016529 L17.6349,14.9006 C17.4192,15.409 16.8322,15.6463 16.3238,15.4306 C15.6584,15.1482 15.6463,14.467 15.8876,13.8984 C16.3323,12.8504 17.3197,12.5 18.3715,12.5 Z" id="形状" fill="#09244B"></path>
            </g>
        </g>
    </g>
</svg>