<svg width="24" height="24" viewBox="0 0 24 24" fill="none" xmlns="http://www.w3.org/2000/svg">
<rect width="24" height="24" fill="white" fill-opacity="0.01"/>
<path d="M5.5 4C5.5 3.17157 4.82843 2.5 4 2.5C3.17157 2.5 2.5 3.17157 2.5 4V20C2.5 20.8284 3.17157 21.5 4 21.5C4.82843 21.5 5.5 20.8284 5.5 20V13.5H11.5V20C11.5 20.8284 12.1716 21.5 13 21.5C13.8284 21.5 14.5 20.8284 14.5 20V4C14.5 3.17157 13.8284 2.5 13 2.5C12.1716 2.5 11.5 3.17157 11.5 4V10.5H5.5V4Z" fill="#09244B"/>
<path d="M17.0001 20V15.366C16.5471 15.6281 15.9624 15.4962 15.6681 15.0547C15.3617 14.5951 15.4859 13.9743 15.9454 13.6679L17.4299 12.6783C18.101 12.2308 19.0001 12.712 19.0001 13.5187V20C19.0001 20.5523 18.5524 21 18.0001 21C17.4478 21 17.0001 20.5523 17.0001 20Z" fill="#09244B"/>
</svg>
