<?xml version="1.0" encoding="UTF-8"?>
<svg width="24px" height="24px" viewBox="0 0 24 24" version="1.1" xmlns="http://www.w3.org/2000/svg" xmlns:xlink="http://www.w3.org/1999/xlink">
    <title>Heading_1_line</title>
    <g id="页面-1" stroke="none" stroke-width="1" fill="none" fill-rule="evenodd">
        <g id="Editor" transform="translate(-432.000000, 0.000000)" fill-rule="nonzero">
            <g id="Heading_1_line" transform="translate(432.000000, 0.000000)">
                <rect id="矩形" x="0" y="0" width="24" height="24"></rect>
                <path d="M13,3 C13.51285,3 13.9355092,3.38604429 13.9932725,3.88337975 L14,4 L14,20 C14,20.5523 13.5523,21 13,21 C12.48715,21 12.0644908,20.613973 12.0067275,20.1166239 L12,20 L12,13 L5,13 L5,20 C5,20.5523 4.55228,21 4,21 C3.48716857,21 3.06449347,20.613973 3.0067278,20.1166239 L3,20 L3,4 C3,3.44772 3.44772,3 4,3 C4.51283143,3 4.93550653,3.38604429 4.9932722,3.88337975 L5,4 L5,11 L12,11 L12,4 C12,3.44772 12.4477,3 13,3 Z M19.0001,13.5188 L19.0001,20.0001 C19.0001,20.5524 18.5524,21.0001 18.0001,21.0001 C17.4478,21.0001 17.0001,20.5524 17.0001,20.0001 L17.0001,15.3662 C16.5471,15.6283 15.9624,15.4963 15.6681,15.0548 C15.3617,14.5953 15.4859,13.9744 15.9454,13.668 L17.4299,12.6784 C18.101,12.2309 19.0001,12.7121 19.0001,13.5188 Z" id="形状" fill="#09244B"></path>
            </g>
        </g>
    </g>
</svg>