<svg width="24" height="24" viewBox="0 0 24 24" fill="none" xmlns="http://www.w3.org/2000/svg">
<rect width="24" height="24" fill="white" fill-opacity="0.01"/>
<path d="M5 4C5 3.44772 4.55228 3 4 3C3.44772 3 3 3.44772 3 4V20C3 20.5523 3.44772 21 4 21C4.55228 21 5 20.5523 5 20V13H12V20C12 20.5523 12.4477 21 13 21C13.5523 21 14 20.5523 14 20V4C14 3.44772 13.5523 3 13 3C12.4477 3 12 3.44772 12 4V11H5V4Z" fill="#09244B"/>
<path d="M17.0001 20.0001V15.3662C16.5471 15.6283 15.9624 15.4963 15.6681 15.0548C15.3617 14.5953 15.4859 13.9744 15.9454 13.668L17.4299 12.6784C18.101 12.2309 19.0001 12.7121 19.0001 13.5188V20.0001C19.0001 20.5524 18.5524 21.0001 18.0001 21.0001C17.4478 21.0001 17.0001 20.5524 17.0001 20.0001Z" fill="#09244B"/>
</svg>
