<?xml version="1.0" encoding="UTF-8"?>
<svg width="24px" height="24px" viewBox="0 0 24 24" version="1.1" xmlns="http://www.w3.org/2000/svg" xmlns:xlink="http://www.w3.org/1999/xlink">
    <title>Heading_2_fill</title>
    <g id="页面-1" stroke="none" stroke-width="1" fill="none" fill-rule="evenodd">
        <g id="Editor" transform="translate(-480.000000, -48.000000)" fill-rule="nonzero">
            <g id="Heading_2_fill" transform="translate(480.000000, 48.000000)">
                <rect id="矩形" x="0" y="0" width="24" height="24"></rect>
                <path d="M13,2.5 C13.7796706,2.5 14.4204457,3.09488554 14.4931332,3.85553954 L14.5,4 L14.5,20 C14.5,20.8284 13.8284,21.5 13,21.5 C12.2203294,21.5 11.5795543,20.9050879 11.5068668,20.1444558 L11.5,20 L11.5,13.5 L5.5,13.5 L5.5,20 C5.5,20.8284 4.82843,21.5 4,21.5 C3.22030118,21.5 2.579551,20.9050879 2.50686655,20.1444558 L2.5,20 L2.5,4 C2.5,3.17157 3.17157,2.5 4,2.5 C4.77969882,2.5 5.420449,3.09488554 5.49313345,3.85553954 L5.5,4 L5.5,10.5 L11.5,10.5 L11.5,4 C11.5,3.17157 12.1716,2.5 13,2.5 Z M17.6575,12.6792 C18.2901,12.521 18.9499,12.6085 19.5304,12.8987 C20.6957,13.4814 21.2873,14.8195 20.9732,16.0757 C20.8743714,16.4711857 20.6906857,16.8394878 20.4358711,17.1556055 L20.3026,17.3092 L18.7244,19.0001 L20.3542,19.0001 C20.9065,19.0001 21.3542,19.4478 21.3542,20.0001 C21.3542,20.51295 20.968173,20.9356092 20.4708239,20.9933725 L20.3542,21.0001 L16.6492,21.0001 C16.0918,21.0001 15.6399,20.5482 15.6399,19.9908 C15.6399,19.69785 15.6621031,19.4213609 15.830043,19.1827703 L15.9113,19.0829 L18.8405,15.9446 C19.313,15.4383 18.8904,14.4325 18.1425,14.6195 C17.8287222,14.6979889 17.6756556,14.9547296 17.6455145,15.2464465 L17.6399,15.3572 C17.6399,15.9095 17.1922,16.3572 16.6399,16.3572 C16.0876,16.3572 15.6399,15.9095 15.6399,15.3572 C15.6399,14.1109 16.4218,12.9881 17.6575,12.6792 Z" id="形状" fill="#09244B"></path>
            </g>
        </g>
    </g>
</svg>