<?xml version="1.0" encoding="UTF-8"?>
<svg width="24px" height="24px" viewBox="0 0 24 24" version="1.1" xmlns="http://www.w3.org/2000/svg" xmlns:xlink="http://www.w3.org/1999/xlink">
    <title>indent_decrease_fill</title>
    <g id="页面-1" stroke="none" stroke-width="1" fill="none" fill-rule="evenodd">
        <g id="Editor" transform="translate(-576.000000, -48.000000)" fill-rule="nonzero">
            <g id="indent_decrease_fill" transform="translate(576.000000, 48.000000)">
                <rect id="矩形" x="0" y="0" width="24" height="24"></rect>
                <path d="M20,17.5 C20.8284,17.5 21.5,18.1716 21.5,19 C21.5,19.7796706 20.9050879,20.4204457 20.1444558,20.4931332 L20,20.5 L4,20.5 C3.17157,20.5 2.5,19.8284 2.5,19 C2.5,18.2203294 3.09488554,17.5795543 3.85553954,17.5068668 L4,17.5 L20,17.5 Z M20,12.5 C20.8284,12.5 21.5,13.1716 21.5,14 C21.5,14.8284 20.8284,15.5 20,15.5 L11,15.5 C10.1716,15.5 9.5,14.8284 9.5,14 C9.5,13.1716 10.1716,12.5 11,12.5 L20,12.5 Z M7.06481,9.17291 C7.3223,9.04139 7.62081,9.23553 7.64813,9.55217 L7.69021121,10.1181043 L7.69021121,10.1181043 L7.71561875,10.5819212 L7.71561875,10.5819212 L7.73546669,11.1090706 C7.73814746,11.2019261 7.74047364,11.29721 7.74238376,11.3948174 L7.74836,12.0075 L7.74836,12.0075 L7.74301235,12.5871562 L7.74301235,12.5871562 L7.72862278,13.1174041 L7.72862278,13.1174041 L7.70767134,13.5939992 L7.70767134,13.5939992 L7.66936583,14.1990074 L7.66936583,14.1990074 L7.64286,14.5229 L7.64286,14.5229 C7.61644,14.8195 7.34428,14.9844 7.09085,14.8553 L6.80186688,14.7045728 L6.80186688,14.7045728 L6.45586264,14.5155224 L6.45586264,14.5155224 L6.05778896,14.2873856 C5.98737932,14.2460632 5.91500644,14.2030804 5.84077348,14.1584213 L5.37388004,13.8702239 L5.37388004,13.8702239 L5.12524,13.7108 C4.956194,13.601 4.7955704,13.493796 4.64368416,13.3900592 L4.21455248,13.0901216 L4.21455248,13.0901216 L3.83973472,12.8162144 L3.83973472,12.8162144 L3.38348053,12.4655951 C3.3400473,12.431198 3.299074,12.39843 3.2606,12.3674 C3.03479,12.1852 3.02537,11.8382 3.24013,11.6641 L3.50185728,11.4560336 L3.50185728,11.4560336 L3.82364264,11.2099368 L3.82364264,11.2099368 L4.20299536,10.9317232 L4.20299536,10.9317232 L4.63742472,10.6273064 C4.7911372,10.522124 4.953614,10.41356 5.12444,10.3026 L5.36676407,10.1472363 L5.36676407,10.1472363 L5.82374549,9.86518704 L5.82374549,9.86518704 L6.23952875,9.62098 L6.23952875,9.62098 L6.60894281,9.41414096 L6.60894281,9.41414096 L7.06481,9.17291 L7.06481,9.17291 Z M20,7.5 C20.8284,7.5 21.5,8.17157 21.5,9 C21.5,9.82843 20.8284,10.5 20,10.5 L11,10.5 C10.1716,10.5 9.5,9.82843 9.5,9 C9.5,8.17157 10.1716,7.5 11,7.5 L20,7.5 Z M20,2.5 C20.8284,2.5 21.5,3.17157 21.5,4 C21.5,4.82843 20.8284,5.5 20,5.5 L4,5.5 C3.17157,5.5 2.5,4.82843 2.5,4 C2.5,3.17157 3.17157,2.5 4,2.5 L20,2.5 Z" id="形状" fill="#09244B"></path>
            </g>
        </g>
    </g>
</svg>