<svg width="24" height="24" viewBox="0 0 24 24" fill="none" xmlns="http://www.w3.org/2000/svg">
<rect width="24" height="24" fill="white" fill-opacity="0.01"/>
<path d="M2.5 4C2.5 3.17157 3.17157 2.5 4 2.5H20C20.8284 2.5 21.5 3.17157 21.5 4C21.5 4.82843 20.8284 5.5 20 5.5H4C3.17157 5.5 2.5 4.82843 2.5 4Z" fill="#09244B"/>
<path d="M9.5 9C9.5 8.17157 10.1716 7.5 11 7.5H20C20.8284 7.5 21.5 8.17157 21.5 9C21.5 9.82843 20.8284 10.5 20 10.5H11C10.1716 10.5 9.5 9.82843 9.5 9Z" fill="#09244B"/>
<path d="M7.64813 9.55217C7.62081 9.23553 7.3223 9.04139 7.06481 9.17291C6.62918 9.39542 5.94648 9.76869 5.12444 10.3026C4.27031 10.8574 3.62491 11.3523 3.24013 11.6641C3.02537 11.8382 3.03479 12.1852 3.2606 12.3674C3.64534 12.6777 4.28001 13.1618 5.12524 13.7108C5.96989 14.2594 6.65948 14.6356 7.09085 14.8553C7.34428 14.9844 7.61644 14.8195 7.64286 14.5229C7.69027 13.9906 7.74836 13.1129 7.74836 12.0075C7.74836 10.9427 7.69446 10.0892 7.64813 9.55217Z" fill="#09244B"/>
<path d="M9.5 14C9.5 13.1716 10.1716 12.5 11 12.5H20C20.8284 12.5 21.5 13.1716 21.5 14C21.5 14.8284 20.8284 15.5 20 15.5H11C10.1716 15.5 9.5 14.8284 9.5 14Z" fill="#09244B"/>
<path d="M4 17.5C3.17157 17.5 2.5 18.1716 2.5 19C2.5 19.8284 3.17157 20.5 4 20.5H20C20.8284 20.5 21.5 19.8284 21.5 19C21.5 18.1716 20.8284 17.5 20 17.5H4Z" fill="#09244B"/>
</svg>
