<?xml version="1.0" encoding="UTF-8"?>
<svg width="24px" height="24px" viewBox="0 0 24 24" version="1.1" xmlns="http://www.w3.org/2000/svg" xmlns:xlink="http://www.w3.org/1999/xlink">
    <title>indent_decrease_fill</title>
    <g id="页面-1" stroke="none" stroke-width="1" fill="none" fill-rule="evenodd">
        <g id="Editor" transform="translate(-576.000000, -48.000000)" fill-rule="nonzero">
            <g id="indent_decrease_fill" transform="translate(576.000000, 48.000000)">
                 <path d="M24,0 L24,24 L0,24 L0,0 L24,0 Z M12.5934901,23.257841 L12.5819402,23.2595131 L12.5108777,23.2950439 L12.4918791,23.2987469 L12.4918791,23.2987469 L12.4767152,23.2950439 L12.4056548,23.2595131 C12.3958229,23.2563662 12.3870493,23.2590235 12.3821421,23.2649074 L12.3780323,23.275831 L12.360941,23.7031097 L12.3658947,23.7234994 L12.3769048,23.7357139 L12.4804777,23.8096931 L12.4953491,23.8136134 L12.4953491,23.8136134 L12.5071152,23.8096931 L12.6106902,23.7357139 L12.6232938,23.7196733 L12.6232938,23.7196733 L12.6266527,23.7031097 L12.609561,23.275831 C12.6075724,23.2657013 12.6010112,23.2592993 12.5934901,23.257841 L12.5934901,23.257841 Z M12.8583906,23.1452862 L12.8445485,23.1473072 L12.6598443,23.2396597 L12.6498822,23.2499052 L12.6498822,23.2499052 L12.6471943,23.2611114 L12.6650943,23.6906389 L12.6699349,23.7034178 L12.6699349,23.7034178 L12.678386,23.7104931 L12.8793402,23.8032389 C12.8914285,23.8068999 12.9022333,23.8029875 12.9078286,23.7952264 L12.9118235,23.7811639 L12.8776777,23.1665331 C12.8752882,23.1545897 12.8674102,23.1470016 12.8583906,23.1452862 L12.8583906,23.1452862 Z M12.1430473,23.1473072 C12.1332178,23.1423925 12.1221763,23.1452606 12.1156365,23.1525954 L12.1099173,23.1665331 L12.0757714,23.7811639 C12.0751323,23.7926639 12.0828099,23.8018602 12.0926481,23.8045676 L12.108256,23.8032389 L12.3092106,23.7104931 L12.3186497,23.7024347 L12.3186497,23.7024347 L12.3225043,23.6906389 L12.340401,23.2611114 L12.337245,23.2485176 L12.337245,23.2485176 L12.3277531,23.2396597 L12.1430473,23.1473072 Z" id="MingCute" fill-rule="nonzero"></path>
                <path d="M20,17.5 C20.8284,17.5 21.5,18.1716 21.5,19 C21.5,19.7796706 20.9050879,20.4204457 20.1444558,20.4931332 L20,20.5 L4,20.5 C3.17157,20.5 2.5,19.8284 2.5,19 C2.5,18.2203294 3.09488554,17.5795543 3.85553954,17.5068668 L4,17.5 L20,17.5 Z M20,12.5 C20.8284,12.5 21.5,13.1716 21.5,14 C21.5,14.8284 20.8284,15.5 20,15.5 L11,15.5 C10.1716,15.5 9.5,14.8284 9.5,14 C9.5,13.1716 10.1716,12.5 11,12.5 L20,12.5 Z M7.06481,9.17291 C7.3223,9.04139 7.62081,9.23553 7.64813,9.55217 L7.69021121,10.1181043 L7.69021121,10.1181043 L7.71561875,10.5819212 L7.71561875,10.5819212 L7.73546669,11.1090706 C7.73814746,11.2019261 7.74047364,11.29721 7.74238376,11.3948174 L7.74836,12.0075 L7.74836,12.0075 L7.74301235,12.5871562 L7.74301235,12.5871562 L7.72862278,13.1174041 L7.72862278,13.1174041 L7.70767134,13.5939992 L7.70767134,13.5939992 L7.66936583,14.1990074 L7.66936583,14.1990074 L7.64286,14.5229 L7.64286,14.5229 C7.61644,14.8195 7.34428,14.9844 7.09085,14.8553 L6.80186688,14.7045728 L6.80186688,14.7045728 L6.45586264,14.5155224 L6.45586264,14.5155224 L6.05778896,14.2873856 C5.98737932,14.2460632 5.91500644,14.2030804 5.84077348,14.1584213 L5.37388004,13.8702239 L5.37388004,13.8702239 L5.12524,13.7108 C4.956194,13.601 4.7955704,13.493796 4.64368416,13.3900592 L4.21455248,13.0901216 L4.21455248,13.0901216 L3.83973472,12.8162144 L3.83973472,12.8162144 L3.38348053,12.4655951 C3.3400473,12.431198 3.299074,12.39843 3.2606,12.3674 C3.03479,12.1852 3.02537,11.8382 3.24013,11.6641 L3.50185728,11.4560336 L3.50185728,11.4560336 L3.82364264,11.2099368 L3.82364264,11.2099368 L4.20299536,10.9317232 L4.20299536,10.9317232 L4.63742472,10.6273064 C4.7911372,10.522124 4.953614,10.41356 5.12444,10.3026 L5.36676407,10.1472363 L5.36676407,10.1472363 L5.82374549,9.86518704 L5.82374549,9.86518704 L6.23952875,9.62098 L6.23952875,9.62098 L6.60894281,9.41414096 L6.60894281,9.41414096 L7.06481,9.17291 L7.06481,9.17291 Z M20,7.5 C20.8284,7.5 21.5,8.17157 21.5,9 C21.5,9.82843 20.8284,10.5 20,10.5 L11,10.5 C10.1716,10.5 9.5,9.82843 9.5,9 C9.5,8.17157 10.1716,7.5 11,7.5 L20,7.5 Z M20,2.5 C20.8284,2.5 21.5,3.17157 21.5,4 C21.5,4.82843 20.8284,5.5 20,5.5 L4,5.5 C3.17157,5.5 2.5,4.82843 2.5,4 C2.5,3.17157 3.17157,2.5 4,2.5 L20,2.5 Z" id="形状" fill="#09244B"></path>
            </g>
        </g>
    </g>
</svg>