<svg xmlns="http://www.w3.org/2000/svg" width="24" height="24"><g fill="none"><path d="M24 0v24H0V0zM12.593 23.258l-.011.002-.071.035-.02.004-.014-.004-.071-.035c-.01-.004-.019-.001-.024.005l-.004.01-.017.428.005.02.01.013.104.074.015.004.012-.004.104-.074.012-.016.004-.017-.017-.427c-.002-.01-.009-.017-.017-.018m.265-.113-.013.002-.185.093-.01.01-.003.011.018.43.005.012.008.007.201.093c.012.004.023 0 .029-.008l.004-.014-.034-.614c-.003-.012-.01-.02-.02-.022m-.715.002a.023.023 0 0 0-.027.006l-.006.014-.034.614c0 .012.007.02.017.024l.015-.002.201-.093.01-.008.004-.011.017-.43-.003-.012-.01-.01z"/><path fill="#09244B" d="M20 17.5a1.5 1.5 0 0 1 .144 2.993L20 20.5H4a1.5 1.5 0 0 1-.144-2.993L4 17.5zm0-5a1.5 1.5 0 0 1 0 3h-9a1.5 1.5 0 0 1 0-3zM7.065 9.173c.257-.132.556.063.583.38l.042.565.026.464.02.527.006.286.006.613-.005.58-.014.53-.021.476-.039.605-.026.324c-.027.297-.299.461-.552.332l-.29-.15-.345-.19-.398-.228a9.422 9.422 0 0 1-.217-.129l-.467-.288-.249-.16c-.169-.109-.33-.216-.481-.32l-.43-.3-.374-.274-.457-.35a17.703 17.703 0 0 1-.122-.099c-.226-.182-.236-.529-.02-.703l.26-.208.323-.246.379-.278.434-.305c.154-.105.317-.213.487-.324l.243-.156.457-.282.416-.244.369-.207zM20 7.5a1.5 1.5 0 0 1 0 3h-9a1.5 1.5 0 0 1 0-3zm0-5a1.5 1.5 0 0 1 0 3H4a1.5 1.5 0 1 1 0-3z"/></g></svg>