<svg width="24" height="24" viewBox="0 0 24 24" fill="none" xmlns="http://www.w3.org/2000/svg">
<rect width="24" height="24" fill="white" fill-opacity="0.01"/>
<path d="M2.99995 4C2.99995 3.44772 3.44766 3 3.99995 3H19.9999C20.5522 3 20.9999 3.44772 20.9999 4C20.9999 4.55228 20.5522 5 19.9999 5H3.99995C3.44766 5 2.99995 4.55228 2.99995 4Z" fill="#09244B"/>
<path d="M9.99995 9C9.99995 8.44772 10.4477 8 10.9999 8H20C20.5522 8 21 8.44772 21 9C21 9.55228 20.5522 10 20 10H10.9999C10.4477 10 9.99995 9.55228 9.99995 9Z" fill="#09244B"/>
<path d="M3.05958 9.55205C3.0869 9.2354 3.38541 9.04127 3.64291 9.17279C4.07853 9.3953 4.76123 9.76857 5.58328 10.3025C6.43741 10.8573 7.08281 11.3522 7.46758 11.664C7.68235 11.838 7.67292 12.1851 7.44711 12.3672C7.06238 12.6776 6.4277 13.1617 5.58247 13.7107C4.73782 14.2593 4.04823 14.6355 3.61687 14.8552C3.36343 14.9843 3.09127 14.8194 3.06485 14.5228C3.01745 13.9905 2.95935 13.1127 2.95935 12.0074C2.95935 10.9426 3.01325 10.0891 3.05958 9.55205Z" fill="#09244B"/>
<path d="M9.99995 14C9.99995 13.4477 10.4477 13 10.9999 13H20C20.5522 13 21 13.4477 21 14C21 14.5523 20.5522 15 20 15H10.9999C10.4477 15 9.99995 14.5523 9.99995 14Z" fill="#09244B"/>
<path d="M3.99995 18C3.44766 18 2.99995 18.4477 2.99995 19C2.99995 19.5523 3.44766 20 3.99995 20H19.9999C20.5522 20 20.9999 19.5523 20.9999 19C20.9999 18.4477 20.5522 18 19.9999 18H3.99995Z" fill="#09244B"/>
</svg>
