<svg width="24" height="24" viewBox="0 0 24 24" fill="none" xmlns="http://www.w3.org/2000/svg">
<rect width="24" height="24" fill="white" fill-opacity="0.01"/>
<path d="M2.5 4C2.5 3.17157 3.17157 2.5 4 2.5H20C20.8284 2.5 21.5 3.17157 21.5 4C21.5 4.82843 20.8284 5.5 20 5.5H4C3.17157 5.5 2.5 4.82843 2.5 4Z" fill="#09244B"/>
<path d="M9.5 9C9.5 8.17157 10.1716 7.5 11 7.5H20C20.8284 7.5 21.5 8.17157 21.5 9C21.5 9.82843 20.8284 10.5 20 10.5H11C10.1716 10.5 9.5 9.82843 9.5 9Z" fill="#09244B"/>
<path d="M3.05963 9.55217C3.08695 9.23553 3.38546 9.04139 3.64296 9.17291C4.07858 9.39542 4.76128 9.76869 5.58333 10.3026C6.43746 10.8574 7.08286 11.3523 7.46763 11.6641C7.6824 11.8382 7.67298 12.1852 7.44716 12.3674C7.06243 12.6777 6.42775 13.1618 5.58252 13.7108C4.73787 14.2594 4.04828 14.6356 3.61692 14.8553C3.36348 14.9844 3.09132 14.8195 3.0649 14.5229C3.0175 13.9906 2.9594 13.1129 2.9594 12.0075C2.9594 10.9427 3.0133 10.0892 3.05963 9.55217Z" fill="#09244B"/>
<path d="M9.5 14C9.5 13.1716 10.1716 12.5 11 12.5H20C20.8284 12.5 21.5 13.1716 21.5 14C21.5 14.8284 20.8284 15.5 20 15.5H11C10.1716 15.5 9.5 14.8284 9.5 14Z" fill="#09244B"/>
<path d="M4 17.5C3.17157 17.5 2.5 18.1716 2.5 19C2.5 19.8284 3.17157 20.5 4 20.5H20C20.8284 20.5 21.5 19.8284 21.5 19C21.5 18.1716 20.8284 17.5 20 17.5H4Z" fill="#09244B"/>
</svg>
