<?xml version="1.0" encoding="UTF-8"?>
<svg width="24px" height="24px" viewBox="0 0 24 24" version="1.1" xmlns="http://www.w3.org/2000/svg" xmlns:xlink="http://www.w3.org/1999/xlink">
    <title>indent_increase_fill</title>
    <g id="页面-1" stroke="none" stroke-width="1" fill="none" fill-rule="evenodd">
        <g id="Editor" transform="translate(-624.000000, -48.000000)" fill-rule="nonzero">
            <g id="indent_increase_fill" transform="translate(624.000000, 48.000000)">
                <rect id="矩形" x="0" y="0" width="24" height="24"></rect>
                <path d="M20,17.5 C20.8284,17.5 21.5,18.1716 21.5,19 C21.5,19.7796706 20.9050879,20.4204457 20.1444558,20.4931332 L20,20.5 L4,20.5 C3.17157,20.5 2.5,19.8284 2.5,19 C2.5,18.2203294 3.09488554,17.5795543 3.85553954,17.5068668 L4,17.5 L20,17.5 Z M20,12.5 C20.8284,12.5 21.5,13.1716 21.5,14 C21.5,14.8284 20.8284,15.5 20,15.5 L11,15.5 C10.1716,15.5 9.5,14.8284 9.5,14 C9.5,13.1716 10.1716,12.5 11,12.5 L20,12.5 Z M3.64296,9.17291 L3.93311976,9.32458624 L3.93311976,9.32458624 L4.27740768,9.51291912 C4.3390124,9.547389 4.402657,9.583406 4.46823375,9.62098 L4.88401821,9.86518704 L4.88401821,9.86518704 L5.34100323,10.1472363 C5.4203135,10.1974244 5.501125,10.249209 5.58333,10.3026 C5.839569,10.46904 6.0770223,10.630089 6.2942886,10.7824206 L6.70149,11.074475 C6.7647325,11.120885 6.8256282,11.16608 6.8841252,11.2099368 L7.344432,11.5651902 C7.3880697,11.599909 7.429153,11.63292 7.46763,11.6641 C7.6824,11.8382 7.67298,12.1852 7.44716,12.3674 L7.1866432,12.5735648 L7.1866432,12.5735648 L6.8680296,12.8162144 L6.8680296,12.8162144 L6.4932104,13.0901216 L6.4932104,13.0901216 L6.0640768,13.3900592 C5.9881334,13.4419276 5.9100057,13.4946628 5.8297331,13.5481559 L5.58252,13.7108 C5.41359,13.82052 5.2508624,13.923344 5.09516256,14.0193992 L4.64997168,14.2873856 L4.64997168,14.2873856 L4.25189952,14.5155224 L4.25189952,14.5155224 L3.90589824,14.7045728 L3.90589824,14.7045728 L3.61692,14.8553 L3.61692,14.8553 C3.36348,14.9844 3.09132,14.8195 3.0649,14.5229 L3.02512622,14.0126967 L3.02512622,14.0126967 L2.98895109,13.3626736 L2.98895109,13.3626736 L2.97096882,12.8587215 L2.97096882,12.8587215 L2.96078881,12.3032388 L2.96078881,12.3032388 L2.96095553,11.6945042 L2.96095553,11.6945042 L2.97229331,11.1090706 L2.97229331,11.1090706 L2.99214125,10.5819212 L2.99214125,10.5819212 L3.01754879,10.1181043 L3.01754879,10.1181043 L3.05963,9.55217 L3.05963,9.55217 C3.08695,9.23553 3.38546,9.04139 3.64296,9.17291 Z M20,7.5 C20.8284,7.5 21.5,8.17157 21.5,9 C21.5,9.82843 20.8284,10.5 20,10.5 L11,10.5 C10.1716,10.5 9.5,9.82843 9.5,9 C9.5,8.17157 10.1716,7.5 11,7.5 L20,7.5 Z M20,2.5 C20.8284,2.5 21.5,3.17157 21.5,4 C21.5,4.82843 20.8284,5.5 20,5.5 L4,5.5 C3.17157,5.5 2.5,4.82843 2.5,4 C2.5,3.17157 3.17157,2.5 4,2.5 L20,2.5 Z" id="形状" fill="#09244B"></path>
            </g>
        </g>
    </g>
</svg>