<?xml version="1.0" encoding="UTF-8"?>
<svg width="24px" height="24px" viewBox="0 0 24 24" version="1.1" xmlns="http://www.w3.org/2000/svg" xmlns:xlink="http://www.w3.org/1999/xlink">
    <title>indent_decrease_line</title>
    <g id="页面-1" stroke="none" stroke-width="1" fill="none" fill-rule="evenodd">
        <g id="Editor" transform="translate(-576.000000, 0.000000)" fill-rule="nonzero">
            <g id="indent_decrease_line" transform="translate(576.000000, 0.000000)">
                <rect id="矩形" x="0" y="0" width="24" height="24"></rect>
                <path d="M20,18 C20.5523,18 21,18.4477 21,19 C21,19.5523 20.5523,20 20,20 L4,20 C3.44772,20 3,19.5523 3,19 C3,18.4477 3.44772,18 4,18 L20,18 Z M20,13 C20.5523,13 21,13.4477 21,14 C21,14.51285 20.613973,14.9355092 20.1166239,14.9932725 L20,15 L11,15 C10.4477,15 10,14.5523 10,14 C10,13.48715 10.386027,13.0644908 10.8833761,13.0067275 L11,13 L20,13 Z M7.06481,9.17279 C7.3223,9.04127 7.62081,9.2354 7.64813,9.55205 L7.69021121,10.1179975 L7.69021121,10.1179975 L7.71561875,10.5818188 L7.71561875,10.5818188 L7.73546669,11.10897 C7.73814746,11.2018257 7.74047364,11.2971098 7.74238376,11.3947172 L7.74836,12.0074 L7.74836,12.0074 L7.74301235,12.5870197 L7.74301235,12.5870197 L7.72862278,13.11726 L7.72862278,13.11726 L7.70767134,13.5938654 L7.70767134,13.5938654 L7.66936583,14.1988993 L7.66936583,14.1988993 L7.64286,14.5228 L7.64286,14.5228 C7.61644,14.8194 7.34428,14.9843 7.09085,14.8552 L6.80186688,14.7044728 L6.80186688,14.7044728 L6.45586264,14.5154224 L6.45586264,14.5154224 L6.05778896,14.2872856 C5.98737932,14.2459632 5.91500644,14.2029804 5.84077348,14.1583213 L5.37388004,13.8701239 L5.37388004,13.8701239 L4.87802717,13.5480558 L4.87802717,13.5480558 L4.42244719,13.2370606 C4.35091212,13.1870338 4.28160076,13.1379824 4.21455248,13.0900152 L3.83973472,12.8160928 L3.83973472,12.8160928 L3.38348053,12.4654222 C3.3400473,12.431017 3.299074,12.39824 3.2606,12.3672 C3.03479,12.1851 3.02537,11.838 3.24013,11.664 L3.50185728,11.4559336 L3.50185728,11.4559336 L3.82364264,11.2098368 L3.82364264,11.2098368 L4.20299536,10.9316232 L4.20299536,10.9316232 L4.63742472,10.6272064 C4.7911372,10.522024 4.953614,10.41346 5.12444,10.3025 L5.36676407,10.1471309 L5.36676407,10.1471309 L5.82374549,9.8650739 L5.82374549,9.8650739 L6.23952875,9.6208625 L6.23952875,9.6208625 L6.60894281,9.4140215 L6.60894281,9.4140215 L7.06481,9.17279 L7.06481,9.17279 Z M20,8 C20.5523,8 21,8.44772 21,9 C21,9.55228 20.5523,10 20,10 L11,10 C10.4477,10 10,9.55228 10,9 C10,8.44772 10.4477,8 11,8 L20,8 Z M20,3 C20.5523,3 21,3.44772 21,4 C21,4.55228 20.5523,5 20,5 L4,5 C3.44772,5 3,4.55228 3,4 C3,3.44772 3.44772,3 4,3 L20,3 Z" id="形状" fill="#09244B"></path>
            </g>
        </g>
    </g>
</svg>