<?xml version="1.0" encoding="UTF-8"?>
<svg width="24px" height="24px" viewBox="0 0 24 24" version="1.1" xmlns="http://www.w3.org/2000/svg" xmlns:xlink="http://www.w3.org/1999/xlink">
    <title>italic_fill</title>
    <g id="页面-1" stroke="none" stroke-width="1" fill="none" fill-rule="evenodd">
        <g id="Editor" transform="translate(-672.000000, -48.000000)" fill-rule="nonzero">
            <g id="italic_fill" transform="translate(672.000000, 48.000000)">
                <rect id="矩形" x="0" y="0" width="24" height="24"></rect>
                <path d="M16,2.49975623 L13.0215,2.49975623 C13.0058,2.49975623 12.9902,2.49975623 12.9746,2.49975623 L10,2.49975623 C9.17157,2.49975623 8.5,3.17151 8.5,3.99994 C8.5,4.82837 9.17157,5.49994 10,5.49994 L11.3007,5.49994 L9.67574,18.4999 L8,18.4999 C7.17157,18.4999 6.5,19.1715 6.5,19.9999 C6.5,20.8284 7.17157,21.50005 8,21.50005 L10.9818,21.50005 C10.9952,21.50005 11.0085,21.50005 11.0218,21.50005 L14,21.50005 C14.8284,21.50005 15.5,20.8284 15.5,19.9999 C15.5,19.1715 14.8284,18.4999 14,18.4999 L12.6991,18.4999 L14.3241,5.49994 L16,5.49994 C16.8284,5.49994 17.5,4.82837 17.5,3.99994 C17.5,3.17151 16.8284,2.49975623 16,2.49975623 Z" id="路径" fill="#09244B"></path>
            </g>
        </g>
    </g>
</svg>