<svg width="24" height="24" viewBox="0 0 24 24" fill="none" xmlns="http://www.w3.org/2000/svg">
<rect width="24" height="24" fill="white" fill-opacity="0.01"/>
<path d="M16 2.49994H13.0215C13.0058 2.49969 12.9902 2.4997 12.9746 2.49994H10C9.17157 2.49994 8.5 3.17151 8.5 3.99994C8.5 4.82837 9.17157 5.49994 10 5.49994H11.3007L9.67574 18.4999H8C7.17157 18.4999 6.5 19.1715 6.5 19.9999C6.5 20.8284 7.17157 21.4999 8 21.4999H10.9818C10.9952 21.5001 11.0085 21.5001 11.0218 21.4999H14C14.8284 21.4999 15.5 20.8284 15.5 19.9999C15.5 19.1715 14.8284 18.4999 14 18.4999H12.6991L14.3241 5.49994H16C16.8284 5.49994 17.5 4.82837 17.5 3.99994C17.5 3.17151 16.8284 2.49994 16 2.49994Z" fill="#09244B"/>
</svg>
