<svg xmlns="http://www.w3.org/2000/svg" width="24" height="24"><g fill="none" fill-rule="evenodd"><path d="M24 0v24H0V0zM12.593 23.258l-.011.002-.071.035-.02.004-.014-.004-.071-.035c-.01-.004-.019-.001-.024.005l-.004.01-.017.428.005.02.01.013.104.074.015.004.012-.004.104-.074.012-.016.004-.017-.017-.427c-.002-.01-.009-.017-.017-.018m.265-.113-.013.002-.185.093-.01.01-.003.011.018.43.005.012.008.007.201.093c.012.004.023 0 .029-.008l.004-.014-.034-.614c-.003-.012-.01-.02-.02-.022m-.715.002a.023.023 0 0 0-.027.006l-.006.014-.034.614c0 .012.007.02.017.024l.015-.002.201-.093.01-.008.004-.011.017-.43-.003-.012-.01-.01z"/><path fill="#09244B" d="M5.398 13.544a1.5 1.5 0 1 1-2.796-1.088L5.92 3.922a2.23 2.23 0 0 1 4.158 0l3.319 8.534c.065.168.098.34.102.509V4a1.5 1.5 0 0 1 3 0v2.626a4 4 0 1 1 1.76 7.802c.25.065.484.195.68.39l2.12 2.121a1.5 1.5 0 0 1 0 2.122l-2.12 2.121a1.5 1.5 0 0 1-2.427-1.682H7.487a1.5 1.5 0 0 1-2.426 1.682l-2.122-2.121a1.5 1.5 0 0 1 0-2.122l2.122-2.121A1.5 1.5 0 0 1 7.487 16.5h9.026a1.5 1.5 0 0 1 .785-2.005 3.98 3.98 0 0 1-1.37-.316 1.5 1.5 0 0 1-2.427-1.155 1.5 1.5 0 0 1-2.9.52L9.808 11.5H6.193zM16.5 10.5a1 1 0 1 0 2 0 1 1 0 0 0-2 0m-7.86-2L8 6.853 7.36 8.5z"/></g></svg>