<?xml version="1.0" encoding="UTF-8"?>
<svg width="24px" height="24px" viewBox="0 0 24 24" version="1.1" xmlns="http://www.w3.org/2000/svg" xmlns:xlink="http://www.w3.org/1999/xlink">
    <title>letter_spacing_line</title>
    <g id="页面-1" stroke="none" stroke-width="1" fill="none" fill-rule="evenodd">
        <g id="Editor" transform="translate(-288.000000, -192.000000)">
            <g id="letter_spacing_line" transform="translate(288.000000, 192.000000)">
                <rect id="矩形" fill-rule="nonzero" x="0" y="0" width="24" height="24"></rect>
                <path d="M6.82843,15.1716 C7.21895,15.5621 7.21895,16.1952 6.82843,16.5858 L6.41421,17 L17.5858,17 L17.1716,16.5858 C16.781,16.1952 16.781,15.5621 17.1716,15.1716 C17.5621,14.781 18.1953,14.781 18.5858,15.1716 L20.7071,17.2929 C21.0976,17.6834 21.0976,18.3166 20.7071,18.7071 L18.5858,20.8284 C18.1953,21.2189 17.5621,21.2189 17.1716,20.8284 C16.781,20.4379 16.781,19.8047 17.1716,19.4142 L17.5858,19 L6.41421,19 L6.82843,19.4142 C7.21895,19.8047 7.21895,20.4379 6.82843,20.8284 C6.4379,21.2189 5.80474,21.2189 5.41421,20.8284 L3.29289,18.7071 C2.90237,18.3166 2.90237,17.6834 3.29289,17.2929 L5.41421,15.1716 C5.80474,14.781 6.4379,14.781 6.82843,15.1716 Z M15,3 C15.51285,3 15.9355092,3.38604429 15.9932725,3.88337975 L16,4 L16,7.33682 C16.4547,7.12085 16.9632,7 17.5,7 C19.433,7 21,8.567 21,10.5 C21,12.433 19.433,14 17.5,14 C16.8915,14 16.3192,13.8447 15.8207,13.5716 C15.64,13.8306 15.3398,14 15,14 C14.48715,14 14.0644908,13.613973 14.0067275,13.1166239 L14,13 L14,4 C14,3.44772 14.4477,3 15,3 Z M8.00002,3 C8.66289,3 9.26262643,3.3778702 9.55207479,3.9645441 L9.61325,4.10356 L12.932,12.6376 C13.1322,13.1523 12.8772,13.7318 12.3625,13.932 C11.8844714,14.1179 11.3506556,13.9113061 11.1165438,13.4686665 L11.068,13.3624 L10.1493,11 L5.85076,11 L4.93203,13.3624 C4.73186,13.8772 4.15231,14.1322 3.63758,13.932 C3.15961643,13.7461 2.90560372,13.2331505 3.03202209,12.7487228 L3.06802,12.6376 L6.3868,4.10356 C6.64553,3.43824 7.28617,3 8.00002,3 Z M17.5,9 C16.6716,9 16,9.67157 16,10.5 C16,11.3284 16.6716,12 17.5,12 C18.3285,12 19,11.3284 19,10.5 C19,9.67157 18.3285,9 17.5,9 Z M8.00002,5.47332 L6.62854,9 L9.37151,9 L8.00002,5.47332 Z" id="形状" fill="#09244B"></path>
            </g>
        </g>
    </g>
</svg>