<?xml version="1.0" encoding="UTF-8"?>
<svg width="24px" height="24px" viewBox="0 0 24 24" version="1.1" xmlns="http://www.w3.org/2000/svg" xmlns:xlink="http://www.w3.org/1999/xlink">
    <title>line_height_line</title>
    <g id="页面-1" stroke="none" stroke-width="1" fill="none" fill-rule="evenodd">
        <g id="Editor" transform="translate(-912.000000, -96.000000)" fill-rule="nonzero">
            <g id="line_height_line" transform="translate(912.000000, 96.000000)">
                 <path d="M24,0 L24,24 L0,24 L0,0 L24,0 Z M12.5934901,23.257841 L12.5819402,23.2595131 L12.5108777,23.2950439 L12.4918791,23.2987469 L12.4918791,23.2987469 L12.4767152,23.2950439 L12.4056548,23.2595131 C12.3958229,23.2563662 12.3870493,23.2590235 12.3821421,23.2649074 L12.3780323,23.275831 L12.360941,23.7031097 L12.3658947,23.7234994 L12.3769048,23.7357139 L12.4804777,23.8096931 L12.4953491,23.8136134 L12.4953491,23.8136134 L12.5071152,23.8096931 L12.6106902,23.7357139 L12.6232938,23.7196733 L12.6232938,23.7196733 L12.6266527,23.7031097 L12.609561,23.275831 C12.6075724,23.2657013 12.6010112,23.2592993 12.5934901,23.257841 L12.5934901,23.257841 Z M12.8583906,23.1452862 L12.8445485,23.1473072 L12.6598443,23.2396597 L12.6498822,23.2499052 L12.6498822,23.2499052 L12.6471943,23.2611114 L12.6650943,23.6906389 L12.6699349,23.7034178 L12.6699349,23.7034178 L12.678386,23.7104931 L12.8793402,23.8032389 C12.8914285,23.8068999 12.9022333,23.8029875 12.9078286,23.7952264 L12.9118235,23.7811639 L12.8776777,23.1665331 C12.8752882,23.1545897 12.8674102,23.1470016 12.8583906,23.1452862 L12.8583906,23.1452862 Z M12.1430473,23.1473072 C12.1332178,23.1423925 12.1221763,23.1452606 12.1156365,23.1525954 L12.1099173,23.1665331 L12.0757714,23.7811639 C12.0751323,23.7926639 12.0828099,23.8018602 12.0926481,23.8045676 L12.108256,23.8032389 L12.3092106,23.7104931 L12.3186497,23.7024347 L12.3186497,23.7024347 L12.3225043,23.6906389 L12.340401,23.2611114 L12.337245,23.2485176 L12.337245,23.2485176 L12.3277531,23.2396597 L12.1430473,23.1473072 Z" id="MingCute" fill-rule="nonzero"></path>
                <path d="M6.70709,3.29289 L8.82841,5.41421 C9.21893,5.80474 9.21893,6.4379 8.82841,6.82843 C8.43789,7.21895 7.80472,7.21895 7.4142,6.82843 L6.99999,6.41422 L6.99999,17.5858 L7.41423,17.1716 C7.80475,16.781 8.43792,16.781 8.82844,17.1716 C9.21896,17.5621 9.21896,18.1953 8.82844,18.5858 L6.70712,20.7071 C6.3166,21.0976 5.68343,21.0976 5.29291,20.7071 L3.17159,18.5858 C2.78106,18.1953 2.78106,17.5621 3.17159,17.1716 C3.56211,16.781 4.19528,16.781 4.5858,17.1716 L4.99999,17.5858 L4.99999,6.4142 L4.58577,6.82843 C4.19524,7.21895 3.56208,7.21895 3.17156,6.82843 C2.78103,6.4379 2.78103,5.80474 3.17156,5.41421 L5.29288,3.29289 C5.6834,2.90237 6.31656,2.90237 6.70709,3.29289 Z M20,18 C20.5523,18 21,18.4478 21,19 C21,19.51285 20.613973,19.9355092 20.1166239,19.9932725 L20,20 L12,20 C11.4477,20 11,19.5523 11,19 C11,18.4872429 11.386027,18.0645041 11.8833761,18.0067289 L12,18 L20,18 Z M20,11 C20.5523,11 21,11.4478 21,12 C21,12.51285 20.613973,12.9355092 20.1166239,12.9932725 L20,13 L12,13 C11.4477,13 11,12.5523 11,12 C11,11.4872429 11.386027,11.0645041 11.8833761,11.0067289 L12,11 L20,11 Z M20,4.00005 C20.5523,4.00005 21,4.44776 21,5.00005 C21,5.55233 20.5523,6.00005 20,6.00005 L12,6.00005 C11.4477,6.00005 11,5.55233 11,5.00005 C11,4.44776 11.4477,4.00005 12,4.00005 L20,4.00005 Z" id="形状" fill="#09244B"></path>
            </g>
        </g>
    </g>
</svg>