<?xml version="1.0" encoding="UTF-8"?>
<svg width="24px" height="24px" viewBox="0 0 24 24" version="1.1" xmlns="http://www.w3.org/2000/svg" xmlns:xlink="http://www.w3.org/1999/xlink">
    <title>line_height_fill</title>
    <g id="页面-1" stroke="none" stroke-width="1" fill="none" fill-rule="evenodd">
        <g id="Editor" transform="translate(-912.000000, -144.000000)" fill-rule="nonzero">
            <g id="line_height_fill" transform="translate(912.000000, 144.000000)">
                <rect id="矩形" x="0" y="0" width="24" height="24"></rect>
                <path d="M7.06064,2.93934 L9.18196,5.06066 C9.76775,5.64645 9.76775,6.59619 9.18196,7.18198 C8.72714,7.6368 8.05292,7.73849 7.49999,7.48704 L7.49999,16.513 C8.05293,16.2615 8.72717,16.3632 9.18199,16.818 C9.76778,17.4038 9.76778,18.3536 9.18199,18.9393 L7.06067,21.0607 C6.47489,21.6464 5.52514,21.6464 4.93935,21.0607 L2.81803,18.9393 C2.23225,18.3536 2.23225,17.4038 2.81803,16.818 C3.27285,16.3632 3.94707,16.2615 4.49999,16.513 L4.49999,7.48703 C3.94706,7.73849 3.27283,7.6368 2.818,7.18198 C2.23222,6.59619 2.23222,5.64645 2.818,5.06066 L4.93932,2.93934 C5.52511,2.35355 6.47486,2.35355 7.06064,2.93934 Z M20,17.5 C20.8284,17.5 21.5,18.1716 21.5,19 C21.5,19.7797647 20.9050879,20.4204567 20.1444558,20.4931341 L20,20.5 L12,20.5 C11.1716,20.5 10.5,19.8285 10.5,19 C10.5,18.2203294 11.0949121,17.5795543 11.8555442,17.5068668 L12,17.5 L20,17.5 Z M20,10.5 C20.8284,10.5 21.5,11.1716 21.5,12 C21.5,12.7797647 20.9050879,13.4204567 20.1444558,13.4931341 L20,13.5 L12,13.5 C11.1716,13.5 10.5,12.8285 10.5,12 C10.5,11.2203294 11.0949121,10.5795543 11.8555442,10.5068668 L12,10.5 L20,10.5 Z M20,3.50005 C20.8284,3.50005 21.5,4.17162 21.5,5.00005 C21.5,5.82847 20.8284,6.50005 20,6.50005 L12,6.50005 C11.1716,6.50005 10.5,5.82847 10.5,5.00005 C10.5,4.17162 11.1716,3.50005 12,3.50005 L20,3.50005 Z" id="形状" fill="#09244B"></path>
            </g>
        </g>
    </g>
</svg>