<?xml version="1.0" encoding="UTF-8"?>
<svg width="24px" height="24px" viewBox="0 0 24 24" version="1.1" xmlns="http://www.w3.org/2000/svg" xmlns:xlink="http://www.w3.org/1999/xlink">
    <title>line_height_line</title>
    <g id="页面-1" stroke="none" stroke-width="1" fill="none" fill-rule="evenodd">
        <g id="Editor" transform="translate(-912.000000, -96.000000)" fill-rule="nonzero">
            <g id="line_height_line" transform="translate(912.000000, 96.000000)">
                <rect id="矩形" x="0" y="0" width="24" height="24"></rect>
                <path d="M6.70709,3.29289 L8.82841,5.41421 C9.21893,5.80474 9.21893,6.4379 8.82841,6.82843 C8.43789,7.21895 7.80472,7.21895 7.4142,6.82843 L6.99999,6.41422 L6.99999,17.5858 L7.41423,17.1716 C7.80475,16.781 8.43792,16.781 8.82844,17.1716 C9.21896,17.5621 9.21896,18.1953 8.82844,18.5858 L6.70712,20.7071 C6.3166,21.0976 5.68343,21.0976 5.29291,20.7071 L3.17159,18.5858 C2.78106,18.1953 2.78106,17.5621 3.17159,17.1716 C3.56211,16.781 4.19528,16.781 4.5858,17.1716 L4.99999,17.5858 L4.99999,6.4142 L4.58577,6.82843 C4.19524,7.21895 3.56208,7.21895 3.17156,6.82843 C2.78103,6.4379 2.78103,5.80474 3.17156,5.41421 L5.29288,3.29289 C5.6834,2.90237 6.31656,2.90237 6.70709,3.29289 Z M20,18 C20.5523,18 21,18.4478 21,19 C21,19.51285 20.613973,19.9355092 20.1166239,19.9932725 L20,20 L12,20 C11.4477,20 11,19.5523 11,19 C11,18.4872429 11.386027,18.0645041 11.8833761,18.0067289 L12,18 L20,18 Z M20,11 C20.5523,11 21,11.4478 21,12 C21,12.51285 20.613973,12.9355092 20.1166239,12.9932725 L20,13 L12,13 C11.4477,13 11,12.5523 11,12 C11,11.4872429 11.386027,11.0645041 11.8833761,11.0067289 L12,11 L20,11 Z M20,4.00005 C20.5523,4.00005 21,4.44776 21,5.00005 C21,5.55233 20.5523,6.00005 20,6.00005 L12,6.00005 C11.4477,6.00005 11,5.55233 11,5.00005 C11,4.44776 11.4477,4.00005 12,4.00005 L20,4.00005 Z" id="形状" fill="#09244B"></path>
            </g>
        </g>
    </g>
</svg>