<?xml version="1.0" encoding="UTF-8"?>
<svg width="24px" height="24px" viewBox="0 0 24 24" version="1.1" xmlns="http://www.w3.org/2000/svg" xmlns:xlink="http://www.w3.org/1999/xlink">
    <title>list_search_line</title>
    <g id="Icon" stroke="none" stroke-width="1" fill="none" fill-rule="evenodd">
        <g id="Editor" transform="translate(-768.000000, -192.000000)" fill-rule="nonzero">
            <g id="list_search_line" transform="translate(768.000000, 192.000000)">
                <path d="M24,0 L24,24 L0,24 L0,0 L24,0 Z M12.5935,23.2578 L12.5819,23.2595 L12.5109,23.295 L12.4919,23.2987 L12.4767,23.295 L12.4057,23.2595 C12.3958,23.2564 12.387,23.259 12.3821,23.2649 L12.378,23.2758 L12.3609,23.7031 L12.3659,23.7235 L12.3769,23.7357 L12.4805,23.8097 L12.4953,23.8136 L12.5071,23.8097 L12.6107,23.7357 L12.6233,23.7197 L12.6267,23.7031 L12.6096,23.2758 C12.6076,23.2657 12.601,23.2593 12.5935,23.2578 Z M12.8584,23.1453 L12.8445,23.1473 L12.6598,23.2397 L12.6499,23.2499 L12.6472,23.2611 L12.6651,23.6906 L12.6699,23.7034 L12.6784,23.7105 L12.8793,23.8032 C12.8914,23.8069 12.9022,23.803 12.9078,23.7952 L12.9118,23.7812 L12.8777,23.1665 C12.8753,23.1546 12.8674,23.147 12.8584,23.1453 Z M12.143,23.1473 C12.1332,23.1424 12.1222,23.1453 12.1156,23.1526 L12.1099,23.1665 L12.0758,23.7812 C12.0751,23.7927 12.0828,23.8019 12.0926,23.8046 L12.1083,23.8032 L12.3092,23.7105 L12.3186,23.7024 L12.3225,23.6906 L12.3404,23.2611 L12.3372,23.2485 L12.3278,23.2397 L12.143,23.1473 Z" id="MingCute"></path>
                <path d="M4,4 C3.44772,4 3,4.44772 3,5 C3,5.55228 3.44772,6 4,6 L20,6 C20.5523,6 21,5.55228 21,5 C21,4.44772 20.5523,4 20,4 L4,4 Z M3,12 C3,11.4477 3.44772,11 4,11 L7,11 C7.55228,11 8,11.4477 8,12 C8,12.5523 7.55228,13 7,13 L4,13 C3.44772,13 3,12.5523 3,12 Z M3,19 C3,18.4477 3.44772,18 4,18 L8,18 C8.55228,18 9,18.4477 9,19 C9,19.5523 8.55228,20 8,20 L4,20 C3.44772,20 3,19.5523 3,19 Z M10,14 C10,11.2386 12.2386,9 15,9 C17.7614,9 20,11.2386 20,14 C20,15.0191 19.6951,15.967 19.1716,16.7574 L20.7071,18.2929 C21.0976,18.6834 21.0976,19.3166 20.7071,19.7071 C20.3166,20.0976 19.6834,20.0976 19.2929,19.7071 L17.7574,18.1716 C16.967,18.6951 16.0191,19 15,19 C12.2386,19 10,16.7614 10,14 Z M15,11 C13.3431,11 12,12.3431 12,14 C12,15.6569 13.3431,17 15,17 C16.6569,17 18,15.6569 18,14 C18,12.3431 16.6569,11 15,11 Z" id="形状" fill="#09244B"></path>
            </g>
        </g>
    </g>
</svg>