<svg xmlns="http://www.w3.org/2000/svg" width="24" height="24"><g fill="none"><path d="M24 0v24H0V0zM12.593 23.258l-.011.002-.071.035-.02.004-.014-.004-.071-.035c-.01-.004-.019-.001-.024.005l-.004.01-.017.428.005.02.01.013.104.074.015.004.012-.004.104-.074.012-.016.004-.017-.017-.427c-.002-.01-.009-.017-.017-.018m.265-.113-.013.002-.185.093-.01.01-.003.011.018.43.005.012.008.007.201.093c.012.004.023 0 .029-.008l.004-.014-.034-.614c-.003-.012-.01-.02-.02-.022m-.715.002a.023.023 0 0 0-.027.006l-.006.014-.034.614c0 .012.007.02.017.024l.015-.002.201-.093.01-.008.004-.011.017-.43-.003-.012-.01-.01z"/><path fill="#09244B" d="M7.06 16.836a1.25 1.25 0 0 1 1.86 1.666l-.091.102-2.298 2.298a1.5 1.5 0 0 1-2.008.103l-.114-.103-1.237-1.238a1.25 1.25 0 0 1 1.666-1.859l.102.091.53.53zM20 17.5a1.5 1.5 0 0 1 0 3h-8a1.5 1.5 0 1 1 0-3zM8.83 9.836a1.25 1.25 0 0 1 0 1.768l-2.3 2.298a1.5 1.5 0 0 1-2.122 0l-1.237-1.238a1.25 1.25 0 1 1 1.768-1.768l.53.53 1.59-1.59a1.25 1.25 0 0 1 1.769 0ZM20 10.5a1.5 1.5 0 0 1 .145 2.993L20 13.5h-8a1.5 1.5 0 0 1-.144-2.993L12 10.5zM7.06 2.836a1.25 1.25 0 0 1 1.86 1.666l-.091.101L6.53 6.902a1.5 1.5 0 0 1-2.008.103l-.114-.103-1.237-1.238a1.25 1.25 0 0 1 1.666-1.859l.102.091.53.53zM20 3.5a1.5 1.5 0 0 1 .145 2.993L20 6.5h-8a1.5 1.5 0 0 1-.144-2.993L12 3.5z"/></g></svg>