<svg width="24" height="24" viewBox="0 0 24 24" fill="none" xmlns="http://www.w3.org/2000/svg">
<rect width="24" height="24" fill="white" fill-opacity="0.01"/>
<path d="M4.85004 6.63016V4.52258C4.60765 4.56015 4.35422 4.45823 4.20921 4.24071C4.01008 3.94202 4.0908 3.53845 4.38949 3.33932L5.13172 2.84451C5.56699 2.55432 6.15004 2.86634 6.15004 3.3895V6.63016C6.15004 6.98914 5.85903 7.28016 5.50004 7.28016C5.14106 7.28016 4.85004 6.98914 4.85004 6.63016Z" fill="#09244B"/>
<path d="M9 3.50012C8.17157 3.50012 7.5 4.17169 7.5 5.00012C7.5 5.82855 8.17157 6.50012 9 6.50012H20C20.8284 6.50012 21.5 5.82855 21.5 5.00012C21.5 4.17169 20.8284 3.50012 20 3.50012H9Z" fill="#09244B"/>
<path d="M9 10.5001C8.17157 10.5001 7.5 11.1717 7.5 12.0001C7.5 12.8285 8.17157 13.5001 9 13.5001H20C20.8284 13.5001 21.5 12.8285 21.5 12.0001C21.5 11.1717 20.8284 10.5001 20 10.5001H9Z" fill="#09244B"/>
<path d="M7.5 19.0001C7.5 18.1717 8.17157 17.5001 9 17.5001H20C20.8284 17.5001 21.5 18.1717 21.5 19.0001C21.5 19.8285 20.8284 20.5001 20 20.5001H9C8.17157 20.5001 7.5 19.8285 7.5 19.0001Z" fill="#09244B"/>
<path d="M5.35616 11.0853C5.24678 11.1127 5.21846 11.2101 5.21846 11.3087C5.21846 11.6677 4.92744 11.9587 4.56846 11.9587C4.20947 11.9587 3.91846 11.6677 3.91846 11.3087C3.91846 10.6174 4.357 9.99512 5.04087 9.82415C5.3917 9.73644 5.75867 9.78422 6.08078 9.94527C6.72558 10.2677 7.05451 11.0088 6.88063 11.7043C6.81679 11.9597 6.68907 12.1946 6.50947 12.387L5.95592 12.9801H6.4256C6.78459 12.9801 7.0756 13.2711 7.0756 13.6301C7.0756 13.9891 6.78459 14.2801 6.4256 14.2801H4.5731C4.21155 14.2801 3.91846 13.987 3.91846 13.6255C3.91846 13.4195 3.9468 13.2275 4.09452 13.0692L5.5591 11.5C5.70059 11.3484 5.58869 11.0272 5.35616 11.0853Z" fill="#09244B"/>
<path d="M5.20556 18.129C5.23357 18.063 5.29835 18.0175 5.37005 18.0192C5.48385 18.0218 5.60006 18.0457 5.60006 18.1868C5.60006 18.3078 5.49481 18.3451 5.39291 18.3451C5.27861 18.3451 5.1712 18.3746 5.07787 18.4264C4.87806 18.5373 4.74283 18.7504 4.74283 18.9951C4.74283 19.3541 5.03384 19.6451 5.39283 19.6451C5.49472 19.6451 5.59997 19.6824 5.59997 19.8035C5.59997 19.9445 5.48374 19.9684 5.36993 19.971C5.29823 19.9727 5.23345 19.9273 5.20544 19.8612C5.06521 19.5308 4.68364 19.3766 4.35318 19.5168C3.94402 19.6904 3.90259 20.1189 4.0556 20.4795C4.30154 21.0591 4.84927 21.2701 5.43567 21.2701C6.24685 21.2701 6.89997 20.6097 6.89997 19.8035C6.89997 19.513 6.81328 19.2321 6.65581 18.9952C6.81334 18.7582 6.90006 18.4773 6.90006 18.1868C6.90006 17.3805 6.24693 16.7201 5.43576 16.7201C4.84937 16.7201 4.30166 16.9311 4.05572 17.5107C3.90271 17.8713 3.94414 18.2998 4.3533 18.4735C4.68376 18.6137 5.06533 18.4595 5.20556 18.129Z" fill="#09244B"/>
</svg>
