<svg xmlns="http://www.w3.org/2000/svg" width="24" height="24"><g fill="none"><path d="M24 0v24H0V0zM12.593 23.258l-.011.002-.071.035-.02.004-.014-.004-.071-.035c-.01-.004-.019-.001-.024.005l-.004.01-.017.428.005.02.01.013.104.074.015.004.012-.004.104-.074.012-.016.004-.017-.017-.427c-.002-.01-.009-.017-.017-.018m.265-.113-.013.002-.185.093-.01.01-.003.011.018.43.005.012.008.007.201.093c.012.004.023 0 .029-.008l.004-.014-.034-.614c-.003-.012-.01-.02-.02-.022m-.715.002a.023.023 0 0 0-.027.006l-.006.014-.034.614c0 .012.007.02.017.024l.015-.002.201-.093.01-.008.004-.011.017-.43-.003-.012-.01-.01z"/><path fill="#09244B" d="M4 3.5a1.5 1.5 0 1 0 0 3h7.5a1.5 1.5 0 0 0 0-3zm17.312 2.326c.285-.558-.145-1.22-.831-1.279l-.368-.028-.44-.028-.506-.024-.567-.016a31.753 31.753 0 0 0-.624-.006l-.59.005-.54.015-.707.034-.57.04-.158.013c-.64.057-1.008.658-.727 1.21l.155.298.092.17.213.382.254.431a25.048 25.048 0 0 0 .784 1.222l.306.438.28.383.36.468.1.127c.398.492 1.166.51 1.542.046l.213-.268.252-.328.138-.187.298-.415.158-.228.33-.495c.163-.251.312-.49.446-.713l.249-.423.21-.377.175-.326.073-.14Zm0 10c.285-.558-.145-1.22-.831-1.279l-.368-.029-.44-.027-.506-.024a30.08 30.08 0 0 0-.567-.016l-.624-.006-.59.005-.54.015-.707.033-.57.04-.158.014c-.64.057-1.008.658-.727 1.21l.247.468.213.382.254.431a25.064 25.064 0 0 0 .94 1.448l.293.41.137.185.36.468.1.127c.398.492 1.166.51 1.542.046l.213-.268.252-.328.138-.187.298-.415.158-.228.33-.496c.163-.25.312-.489.446-.712l.249-.423.21-.378.175-.325zM2.5 12A1.5 1.5 0 0 1 4 10.5h7.5a1.5 1.5 0 0 1 0 3H4A1.5 1.5 0 0 1 2.5 12M4 17.5a1.5 1.5 0 0 0 0 3h7.5a1.5 1.5 0 0 0 0-3z"/></g></svg>