<?xml version="1.0" encoding="UTF-8"?>
<svg width="24px" height="24px" viewBox="0 0 24 24" version="1.1" xmlns="http://www.w3.org/2000/svg" xmlns:xlink="http://www.w3.org/1999/xlink">
    <title>list_ordered_line</title>
    <g id="é¡µé¢-1" stroke="none" stroke-width="1" fill="none" fill-rule="evenodd">
        <g id="Editor" transform="translate(-768.000000, 0.000000)" fill-rule="nonzero">
            <g id="list_ordered_line" transform="translate(768.000000, 0.000000)">
                 <path d="M24,0 L24,24 L0,24 L0,0 L24,0 Z M12.5934901,23.257841 L12.5819402,23.2595131 L12.5108777,23.2950439 L12.4918791,23.2987469 L12.4918791,23.2987469 L12.4767152,23.2950439 L12.4056548,23.2595131 C12.3958229,23.2563662 12.3870493,23.2590235 12.3821421,23.2649074 L12.3780323,23.275831 L12.360941,23.7031097 L12.3658947,23.7234994 L12.3769048,23.7357139 L12.4804777,23.8096931 L12.4953491,23.8136134 L12.4953491,23.8136134 L12.5071152,23.8096931 L12.6106902,23.7357139 L12.6232938,23.7196733 L12.6232938,23.7196733 L12.6266527,23.7031097 L12.609561,23.275831 C12.6075724,23.2657013 12.6010112,23.2592993 12.5934901,23.257841 L12.5934901,23.257841 Z M12.8583906,23.1452862 L12.8445485,23.1473072 L12.6598443,23.2396597 L12.6498822,23.2499052 L12.6498822,23.2499052 L12.6471943,23.2611114 L12.6650943,23.6906389 L12.6699349,23.7034178 L12.6699349,23.7034178 L12.678386,23.7104931 L12.8793402,23.8032389 C12.8914285,23.8068999 12.9022333,23.8029875 12.9078286,23.7952264 L12.9118235,23.7811639 L12.8776777,23.1665331 C12.8752882,23.1545897 12.8674102,23.1470016 12.8583906,23.1452862 L12.8583906,23.1452862 Z M12.1430473,23.1473072 C12.1332178,23.1423925 12.1221763,23.1452606 12.1156365,23.1525954 L12.1099173,23.1665331 L12.0757714,23.7811639 C12.0751323,23.7926639 12.0828099,23.8018602 12.0926481,23.8045676 L12.108256,23.8032389 L12.3092106,23.7104931 L12.3186497,23.7024347 L12.3186497,23.7024347 L12.3225043,23.6906389 L12.340401,23.2611114 L12.337245,23.2485176 L12.337245,23.2485176 L12.3277531,23.2396597 L12.1430473,23.1473072 Z" id="MingCute" fill-rule="nonzero"></path>
                <path d="M5.43576,16.7202 C6.24693,16.7202 6.90006,17.3807 6.90006,18.1869 C6.90006,18.4774 6.81337,18.7582 6.65589,18.9952 C6.81331,19.2321 6.89997,19.5129 6.89997,19.8033 C6.89997,20.6096 6.24685,21.27 5.43567,21.27 C4.78616,21.27 4.27297,20.9917 4.00872,20.3689 C3.86849,20.0385 4.02271,19.6569 4.35318,19.5167 C4.68364,19.3764 5.06521,19.5307 5.20544,19.8611 C5.23345,19.9271 5.29822,19.97 5.36995,19.97 C5.479,19.97 5.59997,19.9398 5.59997,19.8033 C5.59997,19.7023833 5.52693528,19.6598694 5.44362625,19.6485014 L5.39291,19.6452 C5.03386,19.6452 4.74283,19.3541 4.74283,18.995 C4.74283,18.6686364 4.98333413,18.3984711 5.29677666,18.3520473 L5.39283,18.345 C5.49475,18.345 5.60006,18.3081 5.60006,18.1869 C5.60006,18.0504 5.47911,18.0202 5.37007,18.0202 C5.29835,18.0202 5.23357,18.0631 5.20556,18.1291 C5.06533,18.4596 4.68376,18.6138 4.3533,18.4736 C4.02283,18.3333 3.86861,17.9518 4.00884,17.6213 C4.27308,16.9986 4.78626,16.7202 5.43576,16.7202 Z M20,18 C20.5523,18 21,18.4477 21,19 C21,19.5523 20.5523,20 20,20 L9,20 C8.44772,20 8,19.5523 8,19 C8,18.4477 8.44772,18 9,18 L20,18 Z M6.08078,9.94525 C6.72558,10.2677 7.05451,11.0088 6.88063,11.7043 C6.81679,11.9596 6.68907,12.1946 6.50947,12.387 L5.95592,12.9801 L6.4256,12.9801 C6.78459,12.9801 7.0756,13.2711 7.0756,13.6301 C7.0756,13.9891 6.78459,14.2801 6.4256,14.2801 L4.5731,14.2801 C4.21155,14.2801 3.91846,13.987 3.91846,13.6255 C3.91846,13.4195 3.9468,13.2274 4.09452,13.0692 L5.5591,11.5 C5.66833,11.383 5.64089,11.1787 5.49941,11.108 C5.362945,11.03975 5.25019141,11.1187297 5.22413527,11.2496762 L5.21846,11.3087 C5.21846,11.6677 4.92744,11.9587 4.56846,11.9587 C4.17777,11.9587 3.91846,11.632 3.91846,11.2617 C3.91846,10.5817 4.38122,9.98904 5.04087,9.82413 C5.3917,9.73642 5.75867,9.7842 6.08078,9.94525 Z M20,11 C20.5523,11 21,11.4477 21,12 C21,12.51285 20.613973,12.9355092 20.1166239,12.9932725 L20,13 L9,13 C8.44772,13 8,12.5523 8,12 C8,11.48715 8.38604429,11.0644908 8.88337975,11.0067275 L9,11 L20,11 Z M6.15004,3.38925 L6.15004,6.62991 C6.15004,6.9889 5.85903,7.27991 5.50004,7.27991 C5.14106,7.27991 4.85004,6.9889 4.85004,6.62991 L4.85004,4.52233 C4.60765,4.5599 4.35422,4.45799 4.20921,4.24047 C4.01008,3.94177 4.0908,3.53821 4.38949,3.33908 L5.13172,2.84426 C5.56699,2.55408 6.15004,2.8661 6.15004,3.38925 Z M20,4 C20.5523,4 21,4.44772 21,5 C21,5.51283143 20.613973,5.93550653 20.1166239,5.9932722 L20,6 L9,6 C8.44772,6 8,5.55228 8,5 C8,4.48716857 8.38604429,4.06449347 8.88337975,4.0067278 L9,4 L20,4 Z" id="å½¢çŠ¶" fill="#09244B"></path>
            </g>
        </g>
    </g>
</svg>