<?xml version="1.0" encoding="UTF-8"?>
<svg width="24px" height="24px" viewBox="0 0 24 24" version="1.1" xmlns="http://www.w3.org/2000/svg" xmlns:xlink="http://www.w3.org/1999/xlink">
    <title>list_check_line</title>
    <g id="页面-1" stroke="none" stroke-width="1" fill="none" fill-rule="evenodd">
        <g id="Editor" transform="translate(-720.000000, 0.000000)" fill-rule="nonzero">
            <g id="list_check_line" transform="translate(720.000000, 0.000000)">
                <rect id="矩形" x="0" y="0" width="24" height="24"></rect>
                <path d="M4.5,17.5 C5.32843,17.5 6,18.1716 6,19 C6,19.8284 5.32843,20.5 4.5,20.5 C3.67157,20.5 3,19.8284 3,19 C3,18.1716 3.67157,17.5 4.5,17.5 Z M20,18 C20.5523,18 21,18.4477 21,19 C21,19.5523 20.5523,20 20,20 L9,20 C8.44772,20 8,19.5523 8,19 C8,18.4477 8.44772,18 9,18 L20,18 Z M4.5,10.5 C5.32843,10.5 6,11.1716 6,12 C6,12.8284 5.32843,13.5 4.5,13.5 C3.67157,13.5 3,12.8284 3,12 C3,11.1716 3.67157,10.5 4.5,10.5 Z M20,11 C20.5523,11 21,11.4477 21,12 C21,12.51285 20.613973,12.9355092 20.1166239,12.9932725 L20,13 L9,13 C8.44772,13 8,12.5523 8,12 C8,11.48715 8.38604429,11.0644908 8.88337975,11.0067275 L9,11 L20,11 Z M4.5,3.5 C5.32843,3.5 6,4.17157 6,5 C6,5.82843 5.32843,6.5 4.5,6.5 C3.67157,6.5 3,5.82843 3,5 C3,4.17157 3.67157,3.5 4.5,3.5 Z M20,4 C20.5523,4 21,4.44772 21,5 C21,5.51283143 20.613973,5.93550653 20.1166239,5.9932722 L20,6 L9,6 C8.44772,6 8,5.55228 8,5 C8,4.48716857 8.38604429,4.06449347 8.88337975,4.0067278 L9,4 L20,4 Z" id="形状" fill="#09244B"></path>
            </g>
        </g>
    </g>
</svg>