<?xml version="1.0" encoding="UTF-8"?>
<svg width="24px" height="24px" viewBox="0 0 24 24" version="1.1" xmlns="http://www.w3.org/2000/svg" xmlns:xlink="http://www.w3.org/1999/xlink">
    <title>list_check_3_fill</title>
    <g id="页面-1" stroke="none" stroke-width="1" fill="none" fill-rule="evenodd">
        <g id="Editor" transform="translate(-48.000000, -240.000000)" fill-rule="nonzero">
            <g id="list_check_3_fill" transform="translate(48.000000, 240.000000)">
                <rect id="矩形" x="0" y="0" width="24" height="24"></rect>
                <path d="M7,13 C8.05436227,13 8.91816517,13.81585 8.99451427,14.8507339 L9,15 L9,18 C9,19.0543909 8.18412267,19.9181678 7.14926241,19.9945144 L7,20 L4,20 C2.94563773,20 2.08183483,19.18415 2.00548573,18.1492661 L2,18 L2,15 C2,13.9456091 2.81587733,13.0818322 3.85073759,13.0054856 L4,13 L7,13 Z M16,17 C16.5523,17 17,17.4477 17,18 C17,18.51285 16.613973,18.9355092 16.1166239,18.9932725 L16,19 L12,19 C11.4477,19 11,18.5523 11,18 C11,17.48715 11.386027,17.0644908 11.8833761,17.0067275 L12,17 L16,17 Z M20,13 C20.5523,13 21,13.4477 21,14 C21,14.5523 20.5523,15 20,15 L12,15 C11.4477,15 11,14.5523 11,14 C11,13.4477 11.4477,13 12,13 L20,13 Z M7,3 C8.10457,3 9,3.89543 9,5 L9,8 C9,9.10457 8.10457,10 7,10 L4,10 C2.89543,10 2,9.10457 2,8 L2,5 C2,3.89543 2.89543,3 4,3 L7,3 Z M16,7 C16.5523,7 17,7.44772 17,8 C17,8.51283143 16.613973,8.93550653 16.1166239,8.9932722 L16,9 L12,9 C11.4477,9 11,8.55228 11,8 C11,7.48716857 11.386027,7.06449347 11.8833761,7.0067278 L12,7 L16,7 Z M20,3 C20.5523,3 21,3.44772 21,4 C21,4.51283143 20.613973,4.93550653 20.1166239,4.9932722 L20,5 L12,5 C11.4477,5 11,4.55228 11,4 C11,3.48716857 11.386027,3.06449347 11.8833761,3.0067278 L12,3 L20,3 Z" id="形状" fill="#09244B"></path>
            </g>
        </g>
    </g>
</svg>