<?xml version="1.0" encoding="UTF-8"?>
<svg width="24px" height="24px" viewBox="0 0 24 24" version="1.1" xmlns="http://www.w3.org/2000/svg" xmlns:xlink="http://www.w3.org/1999/xlink">
    <title>list_check_2_line</title>
    <g id="页面-1" stroke="none" stroke-width="1" fill="none" fill-rule="evenodd">
        <g id="Editor" transform="translate(0.000000, -192.000000)" fill-rule="nonzero">
            <g id="list_check_2_line" transform="translate(0.000000, 192.000000)">
                <rect id="矩形" x="0" y="0" width="24" height="24"></rect>
                <path d="M7.23767,17.0125 C7.62819,16.622 8.26136,16.622 8.65188,17.0125 C9.01236,17.3729615 9.04008923,17.9402207 8.73506769,18.3324973 L8.65188,18.4267 L6.35378,20.7248 C5.89817333,21.1804533 5.17834996,21.2108302 4.68751439,20.8159307 L4.58602,20.7248 L3.34856,19.4874 C2.95803,19.0968 2.95803,18.4637 3.34856,18.0731 C3.70904,17.7126385 4.27627503,17.6849107 4.6685635,17.9899166 L4.76277,18.0731 L5.4699,18.7803 L7.23767,17.0125 Z M20.0002,17.9999 C20.5525,17.9999 21.0002,18.4477 21.0002,18.9999 C21.0002,19.5522 20.5525,19.9999 20.0002,19.9999 L11.0002,19.9999 C10.4479,19.9999 10.0002,19.5522 10.0002,18.9999 C10.0002,18.4477 10.4479,17.9999 11.0002,17.9999 L20.0002,17.9999 Z M8.65188,10.0125 C9.0424,10.403 9.0424,11.0362 8.65188,11.4267 L6.35378,13.7248 C5.86563,14.213 5.07417,14.213 4.58602,13.7248 L3.34856,12.4873 C2.95803,12.0968 2.95803,11.4637 3.34856,11.0731 C3.73908,10.6826 4.37225,10.6826 4.76277,11.0731 L5.4699,11.7803 L7.23767,10.0125 C7.62819,9.62197 8.26136,9.62197 8.65188,10.0125 Z M20.0002,10.9999 C20.5525,10.9999 21.0002,11.4477 21.0002,11.9999 C21.0002,12.51275 20.614173,12.9354092 20.1168239,12.9931725 L20.0002,12.9999 L11.0002,12.9999 C10.4479,12.9999 10.0002,12.5522 10.0002,11.9999 C10.0002,11.4871429 10.386227,11.0644041 10.8835761,11.0066289 L11.0002,10.9999 L20.0002,10.9999 Z M7.23767,3.0125 C7.62819,2.62197 8.26136,2.62197 8.65188,3.0125 C9.01236,3.37298 9.04008923,3.94021503 8.73506769,4.3325035 L8.65188,4.42671 L6.35378,6.72481 C5.89817333,7.18041667 5.17834996,7.21079044 4.68751439,6.81593133 L4.58602,6.72481 L3.34856,5.48735 C2.95803,5.09683 2.95803,4.46366 3.34856,4.07314 C3.70904,3.71265077 4.27627503,3.68492083 4.6685635,3.98995018 L4.76277,4.07314 L5.4699,4.78026 L7.23767,3.0125 Z M20.0002,3.99995 C20.5525,3.99995 21.0002,4.44766 21.0002,4.99995 C21.0002,5.51278143 20.614173,5.93545653 20.1168239,5.9932222 L20.0002,5.99995 L11.0002,5.99995 C10.4479,5.99995 10.0002,5.55223 10.0002,4.99995 C10.0002,4.48710929 10.386227,4.06444214 10.8835761,4.00667766 L11.0002,3.99995 L20.0002,3.99995 Z" id="形状" fill="#09244B"></path>
            </g>
        </g>
    </g>
</svg>