<?xml version="1.0" encoding="UTF-8"?>
<svg width="24px" height="24px" viewBox="0 0 24 24" version="1.1" xmlns="http://www.w3.org/2000/svg" xmlns:xlink="http://www.w3.org/1999/xlink">
    <title>magic_1_fill</title>
    <g id="页面-1" stroke="none" stroke-width="1" fill="none" fill-rule="evenodd">
        <g id="Editor" transform="translate(-816.000000, -48.000000)" fill-rule="nonzero">
            <g id="magic_1_fill" transform="translate(816.000000, 48.000000)">
                <rect id="矩形" x="0" y="0" width="24" height="24"></rect>
                <path d="M5.49685,3.99766 C4.58907,3.75813 3.76032,4.58687 3.99985,5.49466 L5.26377,10.2847 L2.58152,14.4497 C2.07319,15.239 2.60527,16.2833 3.54265,16.336 L8.48879,16.6141 L11.6211,20.4522 C12.2147,21.1795 13.3723,20.9962 13.7121,20.121 L15.1096,16.5215 L19.7175,21.1294 C20.108,21.5199 20.7411,21.5199 21.1317,21.1294 C21.5222,20.7389 21.5222,20.1057 21.1317,19.7152 L16.5238,15.1073 L20.1232,13.7099 C20.9984,13.3701 21.1817,12.2125 20.4544,11.6189 L16.6163,8.4866 L16.3382,3.54046 C16.2855,2.60308 15.2412,2.07099 14.4519,2.57932 L10.2869,5.26158 L5.49685,3.99766 Z" id="路径" fill="#09244B"></path>
            </g>
        </g>
    </g>
</svg>