<?xml version="1.0" encoding="UTF-8"?>
<svg width="24px" height="24px" viewBox="0 0 24 24" version="1.1" xmlns="http://www.w3.org/2000/svg" xmlns:xlink="http://www.w3.org/1999/xlink">
    <title>Ωomega_fill</title>
    <g id="页面-1" stroke="none" stroke-width="1" fill="none" fill-rule="evenodd">
        <g id="Editor" transform="translate(-864.000000, -144.000000)">
            <g id="Ωomega_fill" transform="translate(864.000000, 144.000000)">
                <rect id="矩形" fill-rule="nonzero" x="0" y="0" width="24" height="24"></rect>
                <path d="M12,4.5 C8.41015,4.5 5.5,7.41015 5.5,11 C5.5,13.9715 7.49522,16.4809 10.222,17.2542 C10.9545,17.462 11.5,18.1338 11.5,18.9418 L11.5,20.75 C11.5,21.7165 10.7165,22.5 9.75,22.5 L6,22.5 C5.17157,22.5 4.5,21.8284 4.5,21 C4.5,20.1716 5.17157,19.5 6,19.5 L7.75368,19.5 C4.6394,17.9413 2.5,14.7219 2.5,11 C2.5,5.75329 6.75329,1.5 12,1.5 C17.2467,1.5 21.5,5.75329 21.5,11 C21.5,14.7219 19.3606,17.9413 16.2463,19.5 L18,19.5 C18.8284,19.5 19.5,20.1716 19.5,21 C19.5,21.8284 18.8284,22.5 18,22.5 L14.25,22.5 C13.2835,22.5 12.5,21.7165 12.5,20.75 L12.5,18.9418 C12.5,18.1338 13.0455,17.462 13.778,17.2542 C16.5048,16.4809 18.5,13.9715 18.5,11 C18.5,7.41015 15.5899,4.5 12,4.5 Z" id="路径" fill="#09244B"></path>
            </g>
        </g>
    </g>
</svg>