<?xml version="1.0" encoding="UTF-8"?>
<svg width="24px" height="24px" viewBox="0 0 24 24" version="1.1" xmlns="http://www.w3.org/2000/svg" xmlns:xlink="http://www.w3.org/1999/xlink">
    <title>Ωomega_line</title>
    <g id="页面-1" stroke="none" stroke-width="1" fill="none" fill-rule="evenodd">
        <g id="Editor" transform="translate(-864.000000, -96.000000)">
            <g id="Ωomega_line" transform="translate(864.000000, 96.000000)">
                <rect id="矩形" fill-rule="nonzero" x="0" y="0" width="24" height="24"></rect>
                <path d="M12,4 C8.13401,4 5,7.13401 5,11 C5,14.201 7.14937,16.9025 10.0856,17.7353 C10.6105,17.8841 11,18.3651 11,18.9418 L11,20.75 C11,21.4404 10.4404,22 9.75,22 L6,22 C5.44772,22 5,21.5523 5,21 C5,20.4477 5.44772,20 6,20 L9,20 L9,19.4876 C5.50512,18.2521 3,14.9198 3,11 C3,6.02944 7.02944,2 12,2 C16.9706,2 21,6.02944 21,11 C21,14.9198 18.4949,18.2521 15,19.4876 L15,20 L18,20 C18.5523,20 19,20.4477 19,21 C19,21.5523 18.5523,22 18,22 L14.25,22 C13.5596,22 13,21.4404 13,20.75 L13,18.9418 C13,18.3651 13.3895,17.8841 13.9144,17.7353 C16.8506,16.9025 19,14.201 19,11 C19,7.13401 15.866,4 12,4 Z" id="路径" fill="#09244B"></path>
            </g>
        </g>
    </g>
</svg>