<?xml version="1.0" encoding="UTF-8"?>
<svg width="24px" height="24px" viewBox="0 0 24 24" version="1.1" xmlns="http://www.w3.org/2000/svg" xmlns:xlink="http://www.w3.org/1999/xlink">
    <title>paint_fill</title>
    <g id="页面-1" stroke="none" stroke-width="1" fill="none" fill-rule="evenodd">
        <g id="paint_fill">
            <rect id="矩形" fill-opacity="0.01" fill="#FFFFFF" fill-rule="nonzero" x="0" y="0" width="24" height="24"></rect>
            <path d="M11.1967304,2.74881104 L11.3351,2.82175 L19.1293,7.32175 C20.0403476,7.84773095 20.3809644,8.98224705 19.9342407,9.91543327 L19.8613,10.0538 L13.8613,20.4461 C13.3353,21.3571476 12.2008646,21.6977644 11.2676689,21.2511271 L11.1293,21.1782 L3.33505,16.6782 C2.42402143,16.1522 2.0833602,15.0176739 2.53006233,14.0844695 L2.603,13.9461 L7.10297,6.15192 L5.37091,5.15191 C4.89262,4.87577 4.72874,4.26418 5.00488,3.78589 C5.261305,3.34175429 5.80696143,3.16873423 6.2665498,3.36737622 L6.37091,3.41986 L8.10297,4.41987 L8.603,3.5538 C9.10129774,2.6907203 10.1457844,2.3395411 11.0478269,2.68478958 L11.1967304,2.74881104 Z M20.3027799,11.2295069 L20.5,11 L20.5,11 L20.5760706,11.0868737 L20.5760706,11.0868737 L20.7738542,11.3219877 L20.7738542,11.3219877 L20.9507889,11.542192 L20.9507889,11.542192 L21.148009,11.7999399 L21.148009,11.7999399 L21.351991,12.0838948 C21.6900826,12.5726942 22,13.1234545 22,13.5 C22,14.3284 21.3284,15 20.5,15 C19.6716,15 19,14.3284 19,13.5 C19,13.0481455 19.446281,12.3454215 19.851991,11.7999399 L20.0492111,11.542192 L20.0492111,11.542192 L20.3027799,11.2295069 L20.3027799,11.2295069 Z M10.3351,4.5538 L9.83503,5.41987 L10.701,5.91986 C11.1793,6.196 11.3432,6.80759 11.0671,7.28589 C10.7909,7.76418 10.1793,7.92805 9.70104,7.65191 L8.83503,7.15192 L7.1907,9.99997 L17.583,9.99997 L18.1293,9.0538 L10.3351,4.5538 Z" id="形状" fill="#09244B"></path>
        </g>
    </g>
</svg>