<?xml version="1.0" encoding="UTF-8"?>
<svg width="24px" height="24px" viewBox="0 0 24 24" version="1.1" xmlns="http://www.w3.org/2000/svg" xmlns:xlink="http://www.w3.org/1999/xlink">
    <title>paint_line</title>
    <g id="页面-1" stroke="none" stroke-width="1" fill="none" fill-rule="evenodd">
        <g id="Editor" transform="translate(-912.000000, 0.000000)" fill-rule="nonzero">
            <g id="paint_line" transform="translate(912.000000, 0.000000)">
                <rect id="矩形" x="0" y="0" width="24" height="24"></rect>
                <path d="M11.1967304,2.74881104 L11.3351,2.82175 L19.1293,7.32175 C20.0403476,7.84773095 20.3809644,8.98224705 19.9342407,9.91543327 L19.8613,10.0538 L13.8613,20.4461 C13.3353,21.3571476 12.2008646,21.6977644 11.2676689,21.2511271 L11.1293,21.1782 L3.33505,16.6782 C2.42402143,16.1522 2.0833602,15.0176739 2.53006233,14.0844695 L2.603,13.9461 L7.10295,6.15196 L5.37088,5.15195 C4.89259,4.8758 4.72871,4.26421 5.00486,3.78592 C5.26127571,3.34179357 5.80693148,3.16876556 6.26651981,3.36740637 L6.37088,3.41989 L8.10295,4.41991 L8.603,3.5538 C9.10129774,2.6907203 10.1457844,2.3395411 11.0478269,2.68478958 L11.1967304,2.74881104 Z M16.4283,12 L6.036,12 L4.33505,14.9461 L12.1293,19.4461 L16.4283,12 Z M20.3027799,11.229495 L20.5,11 L20.5,11 L20.5760706,11.0868688 L20.5760706,11.0868688 L20.7738542,11.3219715 L20.7738542,11.3219715 L20.9507889,11.5421668 L20.9507889,11.5421668 L21.148009,11.7999061 L21.148009,11.7999061 L21.351991,12.0838542 C21.6900826,12.5726446 22,13.1234091 22,13.5 C22,14.3284 21.3284,15 20.5,15 C19.6715,15 19,14.3284 19,13.5 C19,13.0480909 19.446281,12.3453719 19.851991,11.7999061 L20.0492111,11.5421668 L20.0492111,11.5421668 L20.3027799,11.229495 L20.3027799,11.229495 Z M10.3351,4.5538 L9.835,5.41991 L10.701,5.91989 C11.1793,6.19604 11.3432,6.80763 11.067,7.28592 C10.7909,7.76421 10.1793,7.92809 9.70101,7.65195 L8.835,7.15196 L7.1907,9.99997 L17.583,9.99997 L18.1293,9.0538 L10.3351,4.5538 Z" id="形状" fill="#09244B"></path>
            </g>
        </g>
    </g>
</svg>