<svg xmlns="http://www.w3.org/2000/svg" width="24" height="24" viewBox="0 0 24 24"><title>pen_2_ai_line</title><g fill="none" fill-rule="nonzero"><path d="M24 0v24H0V0zM12.594 23.258l-.012.002-.071.035-.02.004-.014-.004-.071-.036q-.016-.004-.024.006l-.004.01-.017.428.005.02.01.013.104.074.015.004.012-.004.104-.074.012-.016.004-.017-.017-.427q-.004-.016-.016-.018m.264-.113-.014.002-.184.093-.01.01-.003.011.018.43.005.012.008.008.201.092q.019.005.029-.008l.004-.014-.034-.614q-.005-.019-.02-.022m-.715.002a.02.02 0 0 0-.027.006l-.006.014-.034.614q.001.018.017.024l.015-.002.201-.093.01-.008.003-.011.018-.43-.003-.012-.01-.01z"/><path fill="#09244b" d="M16.243 3.515a3 3 0 1 1 4.242 4.243l-.707.706.707.708a2 2 0 0 1 0 2.828l-4.242 4.242a1.001 1.001 0 0 1-1.415-1.414l4.243-4.242-.707-.707-9.9 9.9c-.139.139-.317.234-.51.273l-3.536.707a1 1 0 0 1-1.177-1.177l.707-3.535.04-.143a1 1 0 0 1 .234-.369zM5.85 16.735l-.354 1.768 1.769-.354.492-.493-1.414-1.414zm1.907-1.907 1.414 1.414 7.778-7.778-1.414-1.414zM7 1a1 1 0 0 1 .946.677l.13.378c.3.879.99 1.57 1.87 1.87l.377.129a1 1 0 0 1 0 1.892l-.378.13c-.879.3-1.57.99-1.87 1.87l-.129.377a1 1 0 0 1-1.892 0l-.13-.378a3 3 0 0 0-1.87-1.87l-.377-.129a1 1 0 0 1 0-1.892l.378-.13c.879-.3 1.57-.99 1.87-1.87l.129-.377C6.222 1.285 6.552 1 7 1m12.071 3.929a1 1 0 0 0-1.414 0l-.708.707 1.414 1.414.708-.707a1 1 0 0 0 0-1.414M7 4.196A5 5 0 0 1 6.196 5q.449.355.804.803.356-.447.803-.803A5 5 0 0 1 7 4.196"/></g></svg>