<?xml version="1.0" encoding="UTF-8"?>
<svg width="24px" height="24px" viewBox="0 0 24 24" version="1.1" xmlns="http://www.w3.org/2000/svg" xmlns:xlink="http://www.w3.org/1999/xlink">
    <title>pen_2_fill</title>
    <g id="页面-1" stroke="none" stroke-width="1" fill="none" fill-rule="evenodd">
        <g id="Editor" transform="translate(-576.000000, -144.000000)">
            <g id="pen_2_fill" transform="translate(576.000000, 144.000000)">
                <rect id="矩形" fill-rule="nonzero" x="0" y="0" width="24" height="24"></rect>
                <path d="M16.2423,3.51454 C17.4138,2.34297 19.3133,2.34297 20.4849,3.51454 C21.609636,4.6392568 21.6546254,6.43481546 20.6198683,7.61319076 L20.4849,7.75718 L19.7778,8.46431 L20.4849,9.17143 C21.2247947,9.91137211 21.2637366,11.0868474 20.6017255,11.8726776 L20.4849,11.9999 L16.2423,16.2425 C15.8517,16.633 15.2186,16.633 14.828,16.2425 C14.4675385,15.8820385 14.4398107,15.3147793 14.7448166,14.9225027 L14.828,14.8283 L19.0707,10.5856 L18.3636,9.87852 L8.4855,19.7566 C8.362652,19.8794 8.2129112,19.970968 8.0488984,20.0244944 L7.92341,20.0574 L4.43227,20.7556 C3.76479333,20.8891444 3.17195716,20.3407738 3.22721439,19.6840925 L3.24381,19.5672 L3.94203,16.076 C3.976102,15.90568 4.0499052,15.746432 4.15668632,15.6109024 L4.24285,15.5139 L16.2423,3.51454 Z M17.6565,4.92885 L16.9494,5.63593 L18.3636,7.05014 L19.0707,6.34306 C19.4612,5.95254 19.4612,5.31937 19.0707,4.92885 C18.6802,4.53833 18.047,4.53833 17.6565,4.92885 Z" id="形状" fill="#09244B"></path>
            </g>
        </g>
    </g>
</svg>