<svg xmlns="http://www.w3.org/2000/svg" width="24" height="24" viewBox="0 0 24 24"><title>pen_2_ai_fill</title><g fill="none" fill-rule="evenodd"><path d="M24 0v24H0V0zM12.594 23.258l-.012.002-.071.035-.02.004-.014-.004-.071-.036q-.016-.004-.024.006l-.004.01-.017.428.005.02.01.013.104.074.015.004.012-.004.104-.074.012-.016.004-.017-.017-.427q-.004-.016-.016-.018m.264-.113-.014.002-.184.093-.01.01-.003.011.018.43.005.012.008.008.201.092q.019.005.029-.008l.004-.014-.034-.614q-.005-.019-.02-.022m-.715.002a.02.02 0 0 0-.027.006l-.006.014-.034.614q.001.018.017.024l.015-.002.201-.093.01-.008.003-.011.018-.43-.003-.012-.01-.01z"/><path fill="#09244b" d="M20.485 3.515a3 3 0 0 1 0 4.242l-.707.707.707.707a2 2 0 0 1 0 2.829l-4.242 4.242a1.001 1.001 0 0 1-1.415-1.414l4.243-4.242-.707-.708-9.9 9.9c-.139.14-.317.235-.51.274l-3.536.707a1 1 0 0 1-1.177-1.177l.707-3.536a1 1 0 0 1 .274-.51L16.243 3.514a3 3 0 0 1 4.242 0M7 1a1 1 0 0 1 .946.677l.13.378c.3.879.99 1.57 1.87 1.87l.377.129a1 1 0 0 1 0 1.892l-.378.13c-.879.3-1.57.99-1.87 1.87l-.129.377a1 1 0 0 1-1.892 0l-.13-.378a3 3 0 0 0-1.87-1.87l-.377-.129a1 1 0 0 1 0-1.892l.378-.13c.879-.3 1.57-.99 1.87-1.87l.129-.377A1 1 0 0 1 7 1m10.657 3.929-.707.707 1.414 1.414.707-.707a1 1 0 0 0-1.414-1.414"/></g></svg>