<svg xmlns="http://www.w3.org/2000/svg" width="24" height="24" viewBox="0 0 24 24"><g fill="none" fill-rule="evenodd"><path d="M24,0 L24,24 L0,24 L0,0 L24,0 Z M12.5935,23.2578 L12.5819,23.2595 L12.5109,23.295 L12.4919,23.2987 L12.4767,23.295 L12.4057,23.2595 C12.3958,23.2564 12.387,23.259 12.3821,23.2649 L12.378,23.2758 L12.3609,23.7031 L12.3659,23.7235 L12.3769,23.7357 L12.4805,23.8097 L12.4953,23.8136 L12.5071,23.8097 L12.6107,23.7357 L12.6233,23.7197 L12.6267,23.7031 L12.6096,23.2758 C12.6076,23.2657 12.601,23.2593 12.5935,23.2578 Z M12.8584,23.1453 L12.8445,23.1473 L12.6598,23.2397 L12.6499,23.2499 L12.6472,23.2611 L12.6651,23.6906 L12.6699,23.7034 L12.6784,23.7105 L12.8793,23.8032 C12.8914,23.8069 12.9022,23.803 12.9078,23.7952 L12.9118,23.7812 L12.8777,23.1665 C12.8753,23.1546 12.8674,23.147 12.8584,23.1453 Z M12.143,23.1473 C12.1332,23.1424 12.1222,23.1453 12.1156,23.1526 L12.1099,23.1665 L12.0758,23.7812 C12.0751,23.7927 12.0828,23.8019 12.0926,23.8046 L12.1083,23.8032 L12.3092,23.7105 L12.3186,23.7024 L12.3225,23.6906 L12.3404,23.2611 L12.3372,23.2485 L12.3278,23.2397 L12.143,23.1473 Z"/><path fill="#09244B" d="M18.2932,17.293 C18.6837,16.9025 19.3169,16.9025 19.7074,17.293 C20.0679538,17.6534615 20.0956888,18.2207207 19.7906047,18.6129973 L19.7074,18.7072 L18.2074,20.2072 C16.9885,21.4262 15.0122,21.4261 13.7932,20.2072 C13.3865786,19.8005786 12.7453403,19.7715342 12.3052022,20.1200668 L12.2074,20.2072 L11.7074,20.7072 C11.3169,21.0977 10.6837,21.0977 10.2932,20.7072 C9.93273846,20.3467385 9.90501065,19.7794793 10.2100166,19.3872027 L10.2932,19.293 L10.7932,18.793 C12.0122,17.574 13.9885,17.574 15.2074,18.793 C15.6140214,19.1996214 16.2552597,19.2286658 16.6953978,18.8801332 L16.7932,18.793 L18.2932,17.293 Z M16.4826,3.98345 C17.4589,3.00714 19.0418,3.00714 20.0181,3.98345 C20.9519522,4.91731174 20.9925544,6.40618149 20.1399068,7.3883048 L20.0181,7.51899 L8.44269,19.0944 C8.298154,19.23896 8.1259956,19.352032 7.93708456,19.4272672 L7.79243,19.4765 L4.9548,20.2837 C4.23641905,20.488081 3.57010159,19.8657952 3.69355629,19.1543874 L3.71809,19.0471 L4.52503,16.2093 C4.580942,16.01258 4.6763164,15.830004 4.80474808,15.672324 L4.90717,15.5589 L16.4826,3.98345 Z M18.6039,5.39767 C18.4303,5.22409667 18.160937,5.20481074 17.9660564,5.33981222 L17.8968,5.39767 L6.41324,16.8812 L6.13225,17.8694 L7.12031,17.5884 L18.6039,6.10477 C18.7992,5.90951 18.7992,5.59293 18.6039,5.39767 Z"/></g></svg>