<svg xmlns="http://www.w3.org/2000/svg" width="24" height="24" viewBox="0 0 24 24"><title>pencil_3_ai_fill</title><g fill="none" fill-rule="nonzero"><path d="M24 0v24H0V0zM12.594 23.258l-.012.002-.071.035-.02.004-.014-.004-.071-.036q-.016-.004-.024.006l-.004.01-.017.428.005.02.01.013.104.074.015.004.012-.004.104-.074.012-.016.004-.017-.017-.427q-.004-.016-.016-.018m.264-.113-.014.002-.184.093-.01.01-.003.011.018.43.005.012.008.008.201.092q.019.005.029-.008l.004-.014-.034-.614q-.005-.019-.02-.022m-.715.002a.02.02 0 0 0-.027.006l-.006.014-.034.614q.001.018.017.024l.015-.002.201-.093.01-.008.003-.011.018-.43-.003-.012-.01-.01z"/><path fill="#09244b" d="M18.293 17.294a1 1 0 0 1 1.414 1.414l-1.5 1.5a3.12 3.12 0 0 1-4.414 0 1.12 1.12 0 0 0-1.586 0l-.5.5a1 1 0 1 1-1.414-1.414l.5-.5a3.12 3.12 0 0 1 4.414 0 1.12 1.12 0 0 0 1.586 0zm-1.81-13.31a2.5 2.5 0 0 1 3.535 3.536L8.442 19.095a1.5 1.5 0 0 1-.65.382l-2.837.807a1.001 1.001 0 0 1-1.237-1.236l.807-2.838a1.5 1.5 0 0 1 .382-.65zM6 1a1 1 0 0 1 .946.677l.129.377c.3.88.992 1.57 1.87 1.871l.378.13a1 1 0 0 1 0 1.891l-.377.13c-.88.3-1.57.99-1.87 1.87l-.13.377a1.001 1.001 0 0 1-1.892 0l-.129-.378a3 3 0 0 0-1.87-1.87l-.379-.129a1 1 0 0 1 0-1.892l.379-.13c.879-.3 1.57-.99 1.87-1.87l.129-.377A1 1 0 0 1 6 1"/></g></svg>