<?xml version="1.0" encoding="UTF-8"?>
<svg width="24px" height="24px" viewBox="0 0 24 24" version="1.1" xmlns="http://www.w3.org/2000/svg" xmlns:xlink="http://www.w3.org/1999/xlink">
    <title>pencil_line</title>
    <g id="页面-1" stroke="none" stroke-width="1" fill="none" fill-rule="evenodd">
        <g id="Editor" transform="translate(-960.000000, 0.000000)" fill-rule="nonzero">
            <g id="pencil_line" transform="translate(960.000000, 0.000000)">
                <rect id="矩形" x="0" y="0" width="24" height="24"></rect>
                <path d="M16.0354,3.01467 C17.16004,1.8899532 18.9556048,1.84496453 20.1340073,2.87970398 L20.278,3.01467 L20.9851,3.72177 C22.109836,4.8464868 22.1548254,6.64204546 21.1200683,7.82042076 L20.9851,7.96441 L9.77281,19.1767 C9.613778,19.33574 9.4215556,19.456444 9.21077064,19.5307224 L9.04943,19.5776 L4.59453,20.6057 C3.91174263,20.7632474 3.2959362,20.1918396 3.37445672,19.5183806 L3.39408,19.4053 L4.42213,14.9503 C4.472706,14.73118 4.57173,14.526972 4.71109704,14.352268 L4.82306,14.227 L16.0354,3.01467 Z M15.3282,6.55026 L6.33867,15.5398 L5.70227,18.2975 L8.45999,17.6611 L17.4495,8.67158 L15.3282,6.55026 Z M18.8638,4.42888 C18.5033385,4.0684 17.9360793,4.04067077 17.5438027,4.34569231 L17.4496,4.42888 L16.7424,5.13605 L18.8637,7.25737 L19.5709,6.5502 C19.9313615,6.18972 19.9590893,5.62248497 19.6540834,5.2301965 L19.5709,5.13599 L18.8638,4.42888 Z" id="形状" fill="#09244B"></path>
            </g>
        </g>
    </g>
</svg>