<svg xmlns="http://www.w3.org/2000/svg" width="24" height="24"><g fill="none" fill-rule="evenodd"><path d="M24 0v24H0V0zM12.594 23.258l-.012.002-.071.035-.02.004-.014-.004-.071-.036c-.01-.003-.019 0-.024.006l-.004.01-.017.428.005.02.01.013.104.074.015.004.012-.004.104-.074.012-.016.004-.017-.017-.427c-.002-.01-.009-.017-.016-.018m.264-.113-.014.002-.184.093-.01.01-.003.011.018.43.005.012.008.008.201.092c.012.004.023 0 .029-.008l.004-.014-.034-.614c-.003-.012-.01-.02-.02-.022m-.715.002a.023.023 0 0 0-.027.006l-.006.014-.034.614c0 .012.007.02.017.024l.015-.002.201-.093.01-.008.003-.011.018-.43-.003-.012-.01-.01z"/><path fill="#09244B" d="M15.328 3.722a3 3 0 0 1 4.099-.135l.144.135.707.707a3 3 0 0 1 .135 4.098l-.135.144-2.975 2.975 3.182 3.182a2 2 0 0 1 .117 2.702l-.117.127-2.828 2.828a2 2 0 0 1-2.701.117l-.128-.117-3.182-3.182-2.363 2.364a1.5 1.5 0 0 1-.7.395l-.16.03-3.92.53a1.001 1.001 0 0 1-1.135-1.011l.01-.115.53-3.919a1.5 1.5 0 0 1 .316-.738l.109-.122 2.364-2.363-3.182-3.182a2 2 0 0 1-.117-2.702l.117-.127 2.828-2.828a2 2 0 0 1 2.701-.117l.128.117 3.182 3.182zm.561 9.339-2.828 2.828.353.354.707-.707a1 1 0 0 1 1.498 1.32l-.083.094-.707.707 1.414 1.414 2.828-2.828zM7.757 4.929 4.93 7.757l1.414 1.415.707-.707a1 1 0 0 1 1.414 1.414l-.707.707.354.353 2.828-2.828z"/></g></svg>