<svg xmlns="http://www.w3.org/2000/svg" width="24" height="24" viewBox="0 0 24 24"><title>pencil_3_ai_line</title><g fill="none" fill-rule="nonzero"><path d="M24 0v24H0V0zM12.594 23.258l-.012.002-.071.035-.02.004-.014-.004-.071-.036q-.016-.004-.024.006l-.004.01-.017.428.005.02.01.013.104.074.015.004.012-.004.104-.074.012-.016.004-.017-.017-.427q-.004-.016-.016-.018m.264-.113-.014.002-.184.093-.01.01-.003.011.018.43.005.012.008.008.201.092q.019.005.029-.008l.004-.014-.034-.614q-.005-.019-.02-.022m-.715.002a.02.02 0 0 0-.027.006l-.006.014-.034.614q.001.018.017.024l.015-.002.201-.093.01-.008.003-.011.018-.43-.003-.012-.01-.01z"/><path fill="#09244b" d="M19.708 17.293a1 1 0 0 1 0 1.414l-1.5 1.5a3.12 3.12 0 0 1-4.415 0 1.12 1.12 0 0 0-1.585 0l-.5.5a1.001 1.001 0 0 1-1.415-1.414l.5-.5a3.123 3.123 0 0 1 4.271-.135l.144.135a1.12 1.12 0 0 0 1.585 0l1.5-1.5c.39-.39 1.025-.39 1.415 0m.31-13.31a2.5 2.5 0 0 1 0 3.536L8.444 19.095c-.18.18-.405.312-.65.382l-2.84.807a1 1 0 0 1-1.235-1.235l.807-2.84a1.5 1.5 0 0 1 .382-.65L16.482 3.983a2.5 2.5 0 0 1 3.537 0m-2.12 1.414L6.413 16.88l-.281.99.988-.282L18.605 6.104a.5.5 0 0 0-.707-.707M6 1a1 1 0 0 1 .946.677l.13.378c.3.879.99 1.57 1.87 1.87l.377.129a1 1 0 0 1 0 1.892l-.378.13c-.879.3-1.57.99-1.87 1.87l-.129.377a1 1 0 0 1-1.892 0l-.13-.378a3 3 0 0 0-1.87-1.87l-.377-.129a1 1 0 0 1 0-1.892l.378-.13c.879-.3 1.57-.99 1.87-1.87l.129-.377.062-.146A1 1 0 0 1 6 1m0 3.196A5 5 0 0 1 5.196 5q.449.355.804.803.356-.447.803-.803A5 5 0 0 1 6 4.196"/></g></svg>