<?xml version="1.0" encoding="UTF-8"?>
<svg width="24px" height="24px" viewBox="0 0 24 24" version="1.1" xmlns="http://www.w3.org/2000/svg" xmlns:xlink="http://www.w3.org/1999/xlink">
    <title>quote_left_fill</title>
    <g id="页面-1" stroke="none" stroke-width="1" fill="none" fill-rule="evenodd">
        <g id="Editor" transform="translate(-624.000000, -144.000000)" fill-rule="nonzero">
            <g id="quote_left_fill" transform="translate(624.000000, 144.000000)">
                 <path d="M24,0 L24,24 L0,24 L0,0 L24,0 Z M12.5934901,23.257841 L12.5819402,23.2595131 L12.5108777,23.2950439 L12.4918791,23.2987469 L12.4918791,23.2987469 L12.4767152,23.2950439 L12.4056548,23.2595131 C12.3958229,23.2563662 12.3870493,23.2590235 12.3821421,23.2649074 L12.3780323,23.275831 L12.360941,23.7031097 L12.3658947,23.7234994 L12.3769048,23.7357139 L12.4804777,23.8096931 L12.4953491,23.8136134 L12.4953491,23.8136134 L12.5071152,23.8096931 L12.6106902,23.7357139 L12.6232938,23.7196733 L12.6232938,23.7196733 L12.6266527,23.7031097 L12.609561,23.275831 C12.6075724,23.2657013 12.6010112,23.2592993 12.5934901,23.257841 L12.5934901,23.257841 Z M12.8583906,23.1452862 L12.8445485,23.1473072 L12.6598443,23.2396597 L12.6498822,23.2499052 L12.6498822,23.2499052 L12.6471943,23.2611114 L12.6650943,23.6906389 L12.6699349,23.7034178 L12.6699349,23.7034178 L12.678386,23.7104931 L12.8793402,23.8032389 C12.8914285,23.8068999 12.9022333,23.8029875 12.9078286,23.7952264 L12.9118235,23.7811639 L12.8776777,23.1665331 C12.8752882,23.1545897 12.8674102,23.1470016 12.8583906,23.1452862 L12.8583906,23.1452862 Z M12.1430473,23.1473072 C12.1332178,23.1423925 12.1221763,23.1452606 12.1156365,23.1525954 L12.1099173,23.1665331 L12.0757714,23.7811639 C12.0751323,23.7926639 12.0828099,23.8018602 12.0926481,23.8045676 L12.108256,23.8032389 L12.3092106,23.7104931 L12.3186497,23.7024347 L12.3186497,23.7024347 L12.3225043,23.6906389 L12.340401,23.2611114 L12.337245,23.2485176 L12.337245,23.2485176 L12.3277531,23.2396597 L12.1430473,23.1473072 Z" id="MingCute" fill-rule="nonzero"></path>
                <path d="M8.40001,6.20006 C8.84184,5.86869 9.46864,5.95823 9.80001,6.40005 C10.1314,6.84188 10.0418,7.46868 9.60002,7.80006 C8.03605,8.97305 7.13907,10.1135 6.62712,11.1097 C6.90615,11.0381 7.19863,11.0000002 7.5,11.0000002 C9.433,11.0000002 11,12.567 11,14.5000002 C11,16.433 9.433,18.0000002 7.5,18.0000002 C5.58635,18.0000002 4.0314,16.4642 4.00047,14.5579 C3.91027,13.6929 3.92344,12.4169 4.50804,10.9437 C5.10548,9.43818 6.27242,7.79577 8.40001,6.20006 Z M17.4,6.20006 C17.8418,5.86869 18.4686,5.95823 18.8,6.40005 C19.1314,6.84188 19.0418,7.46868 18.6,7.80006 C17.036,8.97305 16.1391,10.1135 15.6271,11.1097 C15.9061,11.0381 16.1986,11.0000002 16.5,11.0000002 C18.433,11.0000002 20,12.567 20,14.5000002 C20,16.433 18.433,18.0000002 16.5,18.0000002 C14.5863,18.0000002 13.0314,16.4642 13.0005,14.5579 C12.9103,13.6929 12.9234,12.4169 13.508,10.9437 C14.1055,9.43818 15.2724,7.79577 17.4,6.20006 Z" id="形状结合" fill="#09244B"></path>
            </g>
        </g>
    </g>
</svg>