<?xml version="1.0" encoding="UTF-8"?>
<svg width="24px" height="24px" viewBox="0 0 24 24" version="1.1" xmlns="http://www.w3.org/2000/svg" xmlns:xlink="http://www.w3.org/1999/xlink">
    <title>quote_left_fill</title>
    <g id="页面-1" stroke="none" stroke-width="1" fill="none" fill-rule="evenodd">
        <g id="Editor" transform="translate(-624.000000, -144.000000)" fill-rule="nonzero">
            <g id="quote_left_fill" transform="translate(624.000000, 144.000000)">
                <rect id="矩形" x="0" y="0" width="24" height="24"></rect>
                <path d="M8.40001,6.20006 C8.84184,5.86869 9.46864,5.95823 9.80001,6.40005 C10.1314,6.84188 10.0418,7.46868 9.60002,7.80006 C8.03605,8.97305 7.13907,10.1135 6.62712,11.1097 C6.90615,11.0381 7.19863,11.0000002 7.5,11.0000002 C9.433,11.0000002 11,12.567 11,14.5000002 C11,16.433 9.433,18.0000002 7.5,18.0000002 C5.58635,18.0000002 4.0314,16.4642 4.00047,14.5579 C3.91027,13.6929 3.92344,12.4169 4.50804,10.9437 C5.10548,9.43818 6.27242,7.79577 8.40001,6.20006 Z M17.4,6.20006 C17.8418,5.86869 18.4686,5.95823 18.8,6.40005 C19.1314,6.84188 19.0418,7.46868 18.6,7.80006 C17.036,8.97305 16.1391,10.1135 15.6271,11.1097 C15.9061,11.0381 16.1986,11.0000002 16.5,11.0000002 C18.433,11.0000002 20,12.567 20,14.5000002 C20,16.433 18.433,18.0000002 16.5,18.0000002 C14.5863,18.0000002 13.0314,16.4642 13.0005,14.5579 C12.9103,13.6929 12.9234,12.4169 13.508,10.9437 C14.1055,9.43818 15.2724,7.79577 17.4,6.20006 Z" id="形状结合" fill="#09244B"></path>
            </g>
        </g>
    </g>
</svg>