<svg xmlns="http://www.w3.org/2000/svg" width="24" height="24"><g fill="none" fill-rule="evenodd"><path d="M24 0v24H0V0zM12.594 23.258l-.012.002-.071.035-.02.004-.014-.004-.071-.036c-.01-.003-.019 0-.024.006l-.004.01-.017.428.005.02.01.013.104.074.015.004.012-.004.104-.074.012-.016.004-.017-.017-.427c-.002-.01-.009-.017-.016-.018m.264-.113-.014.002-.184.093-.01.01-.003.011.018.43.005.012.008.008.201.092c.012.004.023 0 .029-.008l.004-.014-.034-.614c-.003-.012-.01-.02-.02-.022m-.715.002a.023.023 0 0 0-.027.006l-.006.014-.034.614c0 .012.007.02.017.024l.015-.002.201-.093.01-.008.003-.011.018-.43-.003-.012-.01-.01z"/><path fill="#09244B" d="M15.97 5.38c-.507.16-1.19.46-2.04.932-1.97 1.092-4.657 3.218-7.82 6.697a1.5 1.5 0 1 1-2.22-2.018c3.298-3.628 6.236-6 8.586-7.303 1.176-.652 2.291-1.141 3.245-1.343.799-.17 2.288-.284 3.072.997.349.57.39 1.2.335 1.717-.055.526-.222 1.078-.452 1.637-.46 1.12-1.277 2.506-2.45 4.169-1.091 1.546-1.766 2.671-2.15 3.464 1.01-.465 1.931-1.246 3.054-1.42.32-.05.783-.06 1.248.173.51.256.794.689.923 1.085.304.93-.082 1.946-.366 2.834a1.5 1.5 0 0 1 .736 2.84c-.989.495-2.27.946-3.264.216a1.967 1.967 0 0 1-.726-1.066c-.204-.725-.028-1.489.177-2.194-.852.44-1.798.859-2.77.899-.433.017-1.075-.044-1.626-.491-.604-.49-.788-1.182-.787-1.766 0-.552.158-1.127.379-1.688.445-1.133 1.326-2.64 2.72-4.616.827-1.17 1.689-2.405 2.197-3.755Z"/></g></svg>