<svg xmlns="http://www.w3.org/2000/svg" width="24" height="24" viewBox="0 0 24 24"><title>signature_2_ai_fill</title><g fill="none" fill-rule="nonzero"><path d="M24 0v24H0V0zM12.594 23.258l-.012.002-.071.035-.02.004-.014-.004-.071-.036q-.016-.004-.024.006l-.004.01-.017.428.005.02.01.013.104.074.015.004.012-.004.104-.074.012-.016.004-.017-.017-.427q-.004-.016-.016-.018m.264-.113-.014.002-.184.093-.01.01-.003.011.018.43.005.012.008.008.201.092q.019.005.029-.008l.004-.014-.034-.614q-.005-.019-.02-.022m-.715.002a.02.02 0 0 0-.027.006l-.006.014-.034.614q.001.018.017.024l.015-.002.201-.093.01-.008.003-.011.018-.43-.003-.012-.01-.01z"/><path fill="#09244b" d="m3.007 8.53.024.06.13.38a3 3 0 0 0 2.506 2.008c.022 1.778.935 3.72 3.024 5.39 2.076 1.659 3.463 2.39 5.582 2.693a1.5 1.5 0 0 1-.425 2.97c-2.83-.405-4.708-1.464-7.03-3.32-3.557-2.842-4.849-6.784-3.811-10.18m18.423.889c.467 1.112.936 2.4.977 3.696.045 1.396-.407 2.76-1.64 3.905-1.27 1.176-2.91 1.49-4.37 1.42-1.464-.069-2.918-.523-4.069-1.098a1.501 1.501 0 0 1 1.342-2.684c.849.425 1.896.74 2.868.786.976.046 1.71-.18 2.189-.624.543-.504.702-1.005.682-1.61-.022-.703-.293-1.552-.745-2.63A1.5 1.5 0 0 1 21.43 9.42m-.3-6.55a1.5 1.5 0 0 1 0 2.12l-9.899 9.9a1.5 1.5 0 0 1-2.12-2.121l9.899-9.9a1.5 1.5 0 0 1 2.12 0M6 1a1 1 0 0 1 .946.677l.13.378c.3.879.99 1.57 1.87 1.87l.377.129a1 1 0 0 1 0 1.892l-.378.13c-.879.3-1.57.99-1.87 1.87l-.129.377a1 1 0 0 1-1.892 0l-.13-.378a3 3 0 0 0-1.87-1.87l-.377-.129a1 1 0 0 1 0-1.892l.378-.13c.879-.3 1.57-.99 1.87-1.87l.129-.377A1 1 0 0 1 6 1m7.852 1.918a1.5 1.5 0 0 1-.706 2.916 7.5 7.5 0 0 0-1.22-.19A3 3 0 0 0 12 5c0-.938-.438-1.8-1.148-2.357.999-.056 2.014.036 3 .275"/></g></svg>