<svg xmlns="http://www.w3.org/2000/svg" width="24" height="24" viewBox="0 0 24 24"><title>signature_2_fill</title><g fill="none" fill-rule="nonzero"><path d="M24 0v24H0V0zM12.594 23.258l-.012.002-.071.035-.02.004-.014-.004-.071-.036q-.016-.004-.024.006l-.004.01-.017.428.005.02.01.013.104.074.015.004.012-.004.104-.074.012-.016.004-.017-.017-.427q-.004-.016-.016-.018m.264-.113-.014.002-.184.093-.01.01-.003.011.018.43.005.012.008.008.201.092q.019.005.029-.008l.004-.014-.034-.614q-.005-.019-.02-.022m-.715.002a.02.02 0 0 0-.027.006l-.006.014-.034.614q.001.018.017.024l.015-.002.201-.093.01-.008.003-.011.018-.43-.003-.012-.01-.01z"/><path fill="#09244b" d="M13.852 2.918a1.5 1.5 0 0 1-.705 2.916c-2.424-.586-4.822.081-6.204 1.671-1.964 2.26-1.872 5.97 1.75 8.863 2.075 1.659 3.462 2.39 5.58 2.693a1.5 1.5 0 0 1-.425 2.97c-2.83-.405-4.707-1.463-7.029-3.319-4.677-3.738-5.44-9.376-2.14-13.175 2.25-2.588 5.872-3.418 9.173-2.619M21.43 9.42c.467 1.113.936 2.4.978 3.696.045 1.396-.407 2.76-1.64 3.905-1.27 1.177-2.91 1.49-4.37 1.42-1.464-.069-2.918-.524-4.07-1.1a1.5 1.5 0 0 1 1.343-2.682c.849.425 1.895.74 2.868.787.976.046 1.71-.181 2.187-.625.544-.504.703-1.005.684-1.609-.023-.704-.293-1.553-.745-2.63a1.5 1.5 0 1 1 2.765-1.162m-.298-6.55a1.5 1.5 0 0 1 0 2.12l-9.9 9.9a1.5 1.5 0 1 1-2.12-2.121l9.899-9.9a1.5 1.5 0 0 1 2.12 0"/></g></svg>