<?xml version="1.0" encoding="UTF-8"?>
<svg width="24px" height="24px" viewBox="0 0 24 24" version="1.1" xmlns="http://www.w3.org/2000/svg" xmlns:xlink="http://www.w3.org/1999/xlink">
    <title>sort_ascending_line</title>
    <g id="页面-1" stroke="none" stroke-width="1" fill="none" fill-rule="evenodd">
        <g id="Editor" transform="translate(-720.000000, -96.000000)" fill-rule="nonzero">
            <g id="sort_ascending_line" transform="translate(720.000000, 96.000000)">
                <rect id="矩形" x="0" y="0" width="24" height="24"></rect>
                <path d="M17.2929,3.46465 C17.6533615,3.10416077 18.2206207,3.07643083 18.6128973,3.38146018 L18.7071,3.46465 L21.5355,6.29307 C21.9261,6.6836 21.9261,7.31676 21.5355,7.70729 C21.1750385,8.06777 20.6077793,8.09549923 20.2155027,7.79047769 L20.1213,7.70729 L19,6.58597 L19,19 C19,19.5523 18.5523,20 18,20 C17.48715,20 17.0644908,19.613973 17.0067275,19.1166239 L17,19 L17,6.58597 L15.8787,7.70729 C15.4882,8.09781 14.855,8.09781 14.4645,7.70729 C14.1039462,7.34680077 14.0762112,6.77957355 14.3812953,6.38727848 L14.4645,6.29307 L17.2929,3.46465 Z M13,18 C13.5523,18 14,18.4477 14,19 C14,19.51285 13.613973,19.9355092 13.1166239,19.9932725 L13,20 L4,20 C3.44772,20 3,19.5523 3,19 C3,18.48715 3.38604429,18.0644908 3.88337975,18.0067275 L4,18 L13,18 Z M13,11 C13.5523,11 14,11.4477 14,12 C14,12.5523 13.5523,13 13,13 L4,13 C3.44772,13 3,12.5523 3,12 C3,11.4477 3.44772,11 4,11 L13,11 Z M11,4 C11.5523,4 12,4.44772 12,5 C12,5.55229 11.5523,6 11,6 L4,6 C3.44772,6 3,5.55229 3,5 C3,4.44772 3.44772,4 4,4 L11,4 Z" id="形状" fill="#09244B"></path>
            </g>
        </g>
    </g>
</svg>