<?xml version="1.0" encoding="UTF-8"?>
<svg width="24px" height="24px" viewBox="0 0 24 24" version="1.1" xmlns="http://www.w3.org/2000/svg" xmlns:xlink="http://www.w3.org/1999/xlink">
    <title>sort_descending_fill</title>
    <g id="页面-1" stroke="none" stroke-width="1" fill="none" fill-rule="evenodd">
        <g id="Editor" transform="translate(-768.000000, -144.000000)" fill-rule="nonzero">
            <g id="sort_descending_fill" transform="translate(768.000000, 144.000000)">
                <rect id="矩形" x="0" y="0" width="24" height="24"></rect>
                <path d="M18,3.5 C18.8284,3.5 19.5,4.17157 19.5,5 L19.5,16.2069 L19.7678,15.9392 C20.3536,15.3534 21.3033,15.3534 21.8891,15.9392 C22.4749,16.5249 22.4749,17.4747 21.8891,18.0605 L19.0607,20.8889 C18.4749,21.4747 17.5251,21.4747 16.9393,20.8889 L14.1109,18.0605 C13.5251,17.4747 13.5251,16.5249 14.1109,15.9392 C14.6967,15.3534 15.6464,15.3534 16.2322,15.9392 L16.5,16.2069 L16.5,5 C16.5,4.17157 17.1716,3.5 18,3.5 Z M11,17.5 C11.8284,17.5 12.5,18.1716 12.5,19 C12.5,19.7796706 11.9050879,20.4204457 11.1444558,20.4931332 L11,20.5 L4,20.5 C3.17157,20.5 2.5,19.8284 2.5,19 C2.5,18.2203294 3.09488554,17.5795543 3.85553954,17.5068668 L4,17.5 L11,17.5 Z M13,10.5 C13.8284,10.5 14.5,11.1716 14.5,12 C14.5,12.7796706 13.9050879,13.4204457 13.1444558,13.4931332 L13,13.5 L4,13.5 C3.17157,13.5 2.5,12.8284 2.5,12 C2.5,11.2203294 3.09488554,10.5795543 3.85553954,10.5068668 L4,10.5 L13,10.5 Z M13,3.5 C13.8284,3.5 14.5,4.17157 14.5,5 C14.5,5.82843 13.8284,6.5 13,6.5 L4,6.5 C3.17157,6.5 2.5,5.82843 2.5,5 C2.5,4.17157 3.17157,3.5 4,3.5 L13,3.5 Z" id="形状" fill="#09244B"></path>
            </g>
        </g>
    </g>
</svg>