<?xml version="1.0" encoding="UTF-8"?>
<svg width="24px" height="24px" viewBox="0 0 24 24" version="1.1" xmlns="http://www.w3.org/2000/svg" xmlns:xlink="http://www.w3.org/1999/xlink">
    <title>sort_descending_line</title>
    <g id="页面-1" stroke="none" stroke-width="1" fill="none" fill-rule="evenodd">
        <g id="Editor" transform="translate(-768.000000, -96.000000)" fill-rule="nonzero">
            <g id="sort_descending_line" transform="translate(768.000000, 96.000000)">
                <rect id="矩形" x="0" y="0" width="24" height="24"></rect>
                <path d="M18,4 C18.5523,4 19,4.44772 19,5 L19,17.414 L20.1213,16.2927 C20.5118,15.9022 21.145,15.9022 21.5355,16.2927 C21.9261,16.6832 21.9261,17.3164 21.5355,17.7069 L18.7071,20.5354 C18.3166,20.9259 17.6834,20.9259 17.2929,20.5354 L14.4645,17.7069 C14.0739,17.3164 14.0739,16.6832 14.4645,16.2927 C14.855,15.9022 15.4882,15.9022 15.8787,16.2927 L17,17.414 L17,5 C17,4.44772 17.4477,4 18,4 Z M11,18 C11.5523,18 12,18.4477 12,19 C12,19.51285 11.613973,19.9355092 11.1166239,19.9932725 L11,20 L4,20 C3.44772,20 3,19.5523 3,19 C3,18.48715 3.38604429,18.0644908 3.88337975,18.0067275 L4,18 L11,18 Z M13,11 C13.5523,11 14,11.4477 14,12 C14,12.51285 13.613973,12.9355092 13.1166239,12.9932725 L13,13 L4,13 C3.44772,13 3,12.5523 3,12 C3,11.48715 3.38604429,11.0644908 3.88337975,11.0067275 L4,11 L13,11 Z M13,4 C13.5523,4 14,4.44772 14,5 C14,5.55228 13.5523,6 13,6 L4,6 C3.44772,6 3,5.55228 3,5 C3,4.44772 3.44772,4 4,4 L13,4 Z" id="形状" fill="#09244B"></path>
            </g>
        </g>
    </g>
</svg>