<?xml version="1.0" encoding="UTF-8"?>
<svg width="24px" height="24px" viewBox="0 0 24 24" version="1.1" xmlns="http://www.w3.org/2000/svg" xmlns:xlink="http://www.w3.org/1999/xlink">
    <title>spacing_vertical_fill</title>
    <g id="页面-1" stroke="none" stroke-width="1" fill="none" fill-rule="evenodd">
        <g id="Editor" transform="translate(-384.000000, -240.000000)">
            <g id="spacing_vertical_fill" transform="translate(384.000000, 240.000000)">
                <rect id="矩形" fill-rule="nonzero" x="0" y="0" width="24" height="24"></rect>
                <path d="M20,2.5 C20.8284,2.5 21.5,3.17157 21.5,4 L21.5,6 C21.5,7.38071 20.3807,8.5 19,8.5 L5,8.5 C3.61929,8.5 2.5,7.38071 2.5,6 L2.5,4 C2.5,3.17157 3.17157,2.5 4,2.5 C4.82843,2.5 5.5,3.17157 5.5,4 L5.5,5.5 L18.5,5.5 L18.5,4 C18.5,3.17157 19.1716,2.5 20,2.5 Z M20,21.5 C20.8284,21.5 21.5,20.8284 21.5,20 L21.5,18 C21.5,16.6193 20.3807,15.5 19,15.5 L5,15.5 C3.61929,15.5 2.5,16.6193 2.5,18 L2.5,20 C2.5,20.8284 3.17157,21.5 4,21.5 C4.82843,21.5 5.5,20.8284 5.5,20 L5.5,18.5 L18.5,18.5 L18.5,20 C18.5,20.8284 19.1716,21.5 20,21.5 Z M16,13.5 C16.8284,13.5 17.5,12.8284 17.5,12 C17.5,11.1716 16.8284,10.5 16,10.5 L8,10.5 C7.17157,10.5 6.5,11.1716 6.5,12 C6.5,12.8284 7.17157,13.5 8,13.5 L16,13.5 Z" id="形状" fill="#09244B"></path>
            </g>
        </g>
    </g>
</svg>