<svg xmlns="http://www.w3.org/2000/svg" width="24" height="24"><g fill="none"><path d="M24 0v24H0V0zM12.593 23.258l-.011.002-.071.035-.02.004-.014-.004-.071-.035c-.01-.004-.019-.001-.024.005l-.004.01-.017.428.005.02.01.013.104.074.015.004.012-.004.104-.074.012-.016.004-.017-.017-.427c-.002-.01-.009-.017-.017-.018m.265-.113-.013.002-.185.093-.01.01-.003.011.018.43.005.012.008.007.201.093c.012.004.023 0 .029-.008l.004-.014-.034-.614c-.003-.012-.01-.02-.02-.022m-.715.002a.023.023 0 0 0-.027.006l-.006.014-.034.614c0 .012.007.02.017.024l.015-.002.201-.093.01-.008.004-.011.017-.43-.003-.012-.01-.01z"/><path fill="#09244B" d="M6 2.5A2.5 2.5 0 0 1 8.5 5v14A2.5 2.5 0 0 1 6 21.5H4a1.5 1.5 0 0 1 0-3h1.5v-13H4a1.5 1.5 0 1 1 0-3zm14 0a1.5 1.5 0 0 1 .144 2.993L20 5.5h-1.5v13H20a1.5 1.5 0 0 1 .144 2.993L20 21.5h-2a2.5 2.5 0 0 1-2.495-2.336L15.5 19V5a2.5 2.5 0 0 1 2.336-2.495L18 2.5zm-8 4a1.5 1.5 0 0 1 1.493 1.356L13.5 8v8a1.5 1.5 0 0 1-2.993.144L10.5 16V8A1.5 1.5 0 0 1 12 6.5"/></g></svg>