<svg width="24" height="24" viewBox="0 0 24 24" fill="none" xmlns="http://www.w3.org/2000/svg">
<rect width="24" height="24" fill="white" fill-opacity="0.01"/>
<path d="M12.5723 2.5H10.8705C7.45054 2.5 5.03566 5.85047 6.11713 9.09488C6.2227 9.4116 6.35879 9.71451 6.52225 10H11.3541L9.97136 9.30864C9.49444 9.07018 9.1318 8.65204 8.96318 8.1462C8.52924 6.84438 9.49821 5.5 10.8705 5.5H12.5723C13.7984 5.5 14.9193 6.19274 15.4676 7.28941L15.6492 7.65248C15.6738 7.70464 15.7075 7.76448 15.7451 7.82199C15.8679 8.00987 16.0305 8.1663 16.2204 8.28166C16.5547 8.48471 16.9572 8.55063 17.3405 8.46107C17.5197 8.41952 17.6895 8.34495 17.8413 8.24197C18.0129 8.12607 18.1577 7.97613 18.2675 7.80235C18.4784 7.46891 18.5508 7.06334 18.4647 6.67564C18.4361 6.54524 18.3896 6.41884 18.3271 6.30045L18.1509 5.94782C17.0944 3.83475 14.9347 2.5 12.5723 2.5Z" fill="#09244B"/>
<path d="M17.728 14.5H19C19.8284 14.5 20.5 13.8284 20.5 13C20.5 12.1716 19.8284 11.5 19 11.5H5C4.17157 11.5 3.5 12.1716 3.5 13C3.5 13.8284 4.17157 14.5 5 14.5H13.646L14.0286 14.6913C14.5055 14.9298 14.8682 15.3479 15.0368 15.8538C15.4707 17.1556 14.5018 18.5 13.1295 18.5H11.4276C10.2015 18.5 9.08065 17.8073 8.53233 16.7106L8.35179 16.3495C8.32288 16.2881 8.28358 16.2196 8.2391 16.1545C7.99706 15.8003 7.61356 15.5635 7.18262 15.5111C7.00622 15.4892 6.82574 15.499 6.65055 15.541C6.48076 15.5816 6.31983 15.6516 6.17474 15.7473C5.81168 15.9856 5.5728 16.3693 5.51389 16.7954C5.48766 16.9853 5.49787 17.1787 5.54503 17.3658C5.57379 17.4807 5.61638 17.592 5.6715 17.6969L5.84904 18.0522C6.90553 20.1653 9.06518 21.5 11.4276 21.5H13.1295C16.5494 21.5 18.9643 18.1496 17.8828 14.9051C17.8369 14.7674 17.7852 14.6322 17.728 14.5Z" fill="#09244B"/>
</svg>
