<?xml version="1.0" encoding="UTF-8"?>
<svg width="24px" height="24px" viewBox="0 0 24 24" version="1.1" xmlns="http://www.w3.org/2000/svg" xmlns:xlink="http://www.w3.org/1999/xlink">
    <title>strikethrough_line</title>
    <g id="页面-1" stroke="none" stroke-width="1" fill="none" fill-rule="evenodd">
        <g id="Editor" transform="translate(-1008.000000, 0.000000)" fill-rule="nonzero">
            <g id="strikethrough_line" transform="translate(1008.000000, 0.000000)">
                <rect id="矩形" x="0" y="0" width="24" height="24"></rect>
                <path d="M19,12 C19.5523,12 20,12.4477 20,13 C20,13.51285 19.613973,13.9355092 19.1166239,13.9932725 L19,14 L16.8907,14 C17.1073,14.3274 17.2822,14.6843 17.4085,15.0632 C18.3612872,17.9217574 16.2991816,20.8716985 13.3247561,20.9959339 L13.1295,21 L11.4276,21 C9.33508148,21 7.41547616,19.8615567 6.40836368,18.0415942 L6.29625,17.8286 L6.11406,17.4642 C6.07774,17.3951 6.04927,17.3211 6.02987,17.2436 C5.99808,17.1175 5.99194,16.9887 6.00918,16.8639 C6.04771,16.5852 6.20307,16.3268 6.44999,16.1647 C6.54553,16.1017 6.65252,16.0546 6.76716,16.0272 C6.88516,15.9989 7.00534,15.9929 7.12218,16.0074 C7.41451,16.043 7.6679,16.2048 7.82628,16.4366 L7.86803875,16.5031625 L7.86803875,16.5031625 L8.08511,16.9342 C8.6864885,18.136995 9.88435633,18.918864 11.216254,18.9940439 L11.4276,19 L13.1295,19 C14.843,19 16.053,17.3213 15.5111,15.6957 C15.32165,15.12717 14.935856,14.647416 14.4264722,14.3400543 L14.2522,14.2441 L13.7639,14 L5,14 C4.44772,14 4,13.5523 4,13 C4,12.48715 4.38604429,12.0644908 4.88337975,12.0067275 L5,12 L19,12 Z M12.5723,3 C14.7453,3 16.7319,4.22775 17.7037,6.17137 L17.8849,6.53388 C17.926,6.61173 17.9572,6.69566 17.9766,6.78396 C18.0345,7.04488 17.984,7.31519 17.8448,7.53528 C17.7729,7.64908 17.6772,7.74945 17.5607,7.82816 C17.4608,7.89591 17.348,7.94607 17.2268,7.97418 C16.9685,8.03452 16.7003,7.98813 16.48,7.85433 C16.3558,7.77888 16.2468,7.67563 16.1634,7.54805 L16.1279125,7.48969875 L16.1279125,7.48969875 L15.9148,7.0658 C15.2818,5.79974 13.9878,5 12.5723,5 L10.8705,5 C9.15693,5 7.94698,6.67873 8.48884,8.30432 C8.69939,8.93596 9.15223,9.45809 9.74775,9.75585 L12.236,11 L8.01262,11 C7.35876,10.4645 6.86299,9.75131 6.59147,8.93677 C5.61792,6.01612 7.79182,3 10.8705,3 L12.5723,3 Z" id="形状" fill="#09244B"></path>
            </g>
        </g>
    </g>
</svg>