<?xml version="1.0" encoding="UTF-8"?>
<svg width="24px" height="24px" viewBox="0 0 24 24" version="1.1" xmlns="http://www.w3.org/2000/svg" xmlns:xlink="http://www.w3.org/1999/xlink">
    <title>strikethrough_fill</title>
    <g id="页面-1" stroke="none" stroke-width="1" fill="none" fill-rule="evenodd">
        <g id="Editor" transform="translate(-1008.000000, -48.000000)" fill-rule="nonzero">
            <g id="strikethrough_fill" transform="translate(1008.000000, 48.000000)">
                <rect id="矩形" x="0" y="0" width="24" height="24"></rect>
                <path d="M19,11.5 C19.8284,11.5 20.5,12.1716 20.5,13 C20.5,13.7796706 19.9050879,14.4204457 19.1444558,14.4931332 L19,14.5 L17.728,14.5 C17.7852,14.6322 17.8369,14.7674 17.8828,14.9051 C18.94267,18.08471 16.6445974,21.3660264 13.3334681,21.4960072 L13.1295,21.5 L11.4276,21.5 C9.14955214,21.5 7.06004935,20.2589333 5.96641562,18.2755997 L5.84904,18.0522 L5.6715,17.6969 C5.61638,17.592 5.57379,17.4807 5.54503,17.3658 C5.49787,17.1787 5.48766,16.9853 5.51389,16.7954 C5.5728,16.3693 5.81168,15.9856 6.17474,15.7473 C6.31983,15.6516 6.48076,15.5816 6.65055,15.541 C6.82574,15.499 7.00622,15.4892 7.18262,15.5111 C7.61356,15.5635 7.99706,15.8003 8.2391,16.1545 L8.30128375,16.2533875 L8.30128375,16.2533875 L8.53233,16.7106 C9.05018778,17.7463722 10.0787282,18.4217864 11.2243047,18.4936356 L11.4276,18.5 L13.1295,18.5 C14.5018,18.5 15.4707,17.1556 15.0368,15.8538 C14.8869333,15.4041111 14.5837037,15.0237951 14.1832274,14.7773259 L14.0286,14.6913 L13.646,14.5 L5,14.5 C4.17157,14.5 3.5,13.8284 3.5,13 C3.5,12.2203294 4.09488554,11.5795543 4.85553954,11.5068668 L5,11.5 L19,11.5 Z M12.5723,2.5 C14.8503286,2.5 16.9398772,3.7411132 18.0335232,5.72442326 L18.1509,5.94782 L18.3271,6.30045 C18.3896,6.41884 18.4361,6.54524 18.4647,6.67564 C18.5508,7.06334 18.4784,7.46891 18.2675,7.80235 C18.1577,7.97613 18.0129,8.12607 17.8413,8.24197 C17.6895,8.34495 17.5197,8.41952 17.3405,8.46107 C16.9572,8.55063 16.5547,8.48471 16.2204,8.28166 C16.0305,8.1663 15.8679,8.00987 15.7451,7.82199 L15.692275,7.73522875 L15.692275,7.73522875 L15.4676,7.28941 C14.9497611,6.25366611 13.9211772,5.57821781 12.7755958,5.50636474 L12.5723,5.5 L10.8705,5.5 C9.49821,5.5 8.52924,6.84438 8.96318,8.1462 C9.11306444,8.59583556 9.41624864,8.97617728 9.81672864,9.22262469 L9.97136,9.30864 L11.3541,10 L6.52225,10 C6.35879,9.71451 6.2227,9.4116 6.11713,9.09488 C5.0572894,5.9153582 7.35534334,2.63397638 10.6665284,2.50399291 L10.8705,2.5 L12.5723,2.5 Z" id="形状" fill="#09244B"></path>
            </g>
        </g>
    </g>
</svg>