<svg xmlns="http://www.w3.org/2000/svg" width="24" height="24" viewBox="0 0 24 24"><g fill="none" fill-rule="evenodd"><path d="M24,0 L24,24 L0,24 L0,0 L24,0 Z M12.5935,23.2578 L12.5819,23.2595 L12.5109,23.295 L12.4919,23.2987 L12.4767,23.295 L12.4057,23.2595 C12.3958,23.2564 12.387,23.259 12.3821,23.2649 L12.378,23.2758 L12.3609,23.7031 L12.3659,23.7235 L12.3769,23.7357 L12.4805,23.8097 L12.4953,23.8136 L12.5071,23.8097 L12.6107,23.7357 L12.6233,23.7197 L12.6267,23.7031 L12.6096,23.2758 C12.6076,23.2657 12.601,23.2593 12.5935,23.2578 Z M12.8584,23.1453 L12.8445,23.1473 L12.6598,23.2397 L12.6499,23.2499 L12.6472,23.2611 L12.6651,23.6906 L12.6699,23.7034 L12.6784,23.7105 L12.8793,23.8032 C12.8914,23.8069 12.9022,23.803 12.9078,23.7952 L12.9118,23.7812 L12.8777,23.1665 C12.8753,23.1546 12.8674,23.147 12.8584,23.1453 Z M12.143,23.1473 C12.1332,23.1424 12.1222,23.1453 12.1156,23.1526 L12.1099,23.1665 L12.0758,23.7812 C12.0751,23.7927 12.0828,23.8019 12.0926,23.8046 L12.1083,23.8032 L12.3092,23.7105 L12.3186,23.7024 L12.3225,23.6906 L12.3404,23.2611 L12.3372,23.2485 L12.3278,23.2397 L12.143,23.1473 Z"/><path fill="#09244B" d="M20.0002,4.00024 C21.1048,4.00024 22.0002,4.89567 22.0002,6.00024 L22.0002,18.0002 C22.0002,19.1048 21.1048,20.0002 20.0002,20.0002 L4.00024,20.0002 C2.89568,20.0002 2.00024,19.1048 2.00024,18.0002 L2.00024,6.00024 C2.00024,4.89568 2.89567,4.00024 4.00024,4.00024 L20.0002,4.00024 Z M8.50024,8.00024 C6.90256321,8.00024 5.59657941,9.24916392 5.50533271,10.8239318 L5.50024,11.0002 L5.50024,13.0002 C5.50024,14.6571 6.84339,16.0002 8.50024,16.0002 C9.89949,16.0002 11.0727,15.0432 11.4057,13.7495 C11.5433,13.2146 11.2213,12.6695 10.6865,12.5318 C10.1898071,12.4039357 9.6842849,12.6724454 9.50438328,13.1397272 L9.4688,13.251 C9.35773,13.6825 8.96483,14.0002 8.50024,14.0002 C7.98740857,14.0002 7.56473347,13.614173 7.5069678,13.1168239 L7.50024,13.0002 L7.50024,11.0002 C7.50024,10.448 7.94796,10.0002 8.50024,10.0002 C8.92611417,10.0002 9.29174882,10.2672403 9.43528265,10.6441119 L9.4688,10.7495 C9.60646,11.2844 10.1516,11.6063 10.6865,11.4687 C11.2213,11.331 11.5433,10.7858 11.4057,10.251 C11.0727,8.95728 9.89949,8.00024 8.50024,8.00024 Z M15.5002,8.00024 C13.8434,8.00024 12.5002,9.34339 12.5002,11.0002 L12.5002,13.0002 C12.5002,14.6571 13.8434,16.0002 15.5002,16.0002 C16.8995,16.0002 18.0727,15.0432 18.4057,13.7495 C18.5433,13.2146 18.2213,12.6695 17.6865,12.5318 C17.1898071,12.4039357 16.6843194,12.6724454 16.5043907,13.1397272 L16.4688,13.251 C16.3577,13.6825 15.9648,14.0002 15.5002,14.0002 C14.948,14.0002 14.5002,13.5525 14.5002,13.0002 L14.5002,11.0002 C14.5002,10.448 14.948,10.0002 15.5002,10.0002 C15.9260833,10.0002 16.2917187,10.2672403 16.4352758,10.6441119 L16.4688,10.7495 C16.6065,11.2844 17.1516,11.6063 17.6865,11.4687 C18.2213,11.331 18.5433,10.7858 18.4057,10.251 C18.0727,8.95728 16.8995,8.00024 15.5002,8.00024 Z"/></g></svg>