<?xml version="1.0" encoding="UTF-8"?>
<svg width="24px" height="24px" viewBox="0 0 24 24" version="1.1" xmlns="http://www.w3.org/2000/svg" xmlns:xlink="http://www.w3.org/1999/xlink">
    <title>table_line</title>
    <g id="页面-1" stroke="none" stroke-width="1" fill="none" fill-rule="evenodd">
        <g id="table_line">
            <rect id="矩形" fill-opacity="0.01" fill="#FFFFFF" fill-rule="nonzero" x="0" y="0" width="24" height="24"></rect>
            <path d="M19,3 C20.0543909,3 20.9181678,3.81587733 20.9945144,4.85073759 L21,5 L21,19 C21,20.0543909 20.18415,20.9181678 19.1492661,20.9945144 L19,21 L5,21 C3.94563773,21 3.08183483,20.18415 3.00548573,19.1492661 L3,19 L3,5 C3,3.94563773 3.81587733,3.08183483 4.85073759,3.00548573 L5,3 L19,3 Z M11,15 L5,15 L5,19 L11,19 L11,15 Z M19,15 L13,15 L13,19 L19,19 L19,15 Z M19,10 L13,10 L13,13 L19,13 L19,10 Z M11,10 L5,10 L5,13 L11,13 L11,10 Z M19,5 L13,5 L13,8 L19,8 L19,5 Z M11,5 L5,5 L5,8 L11,8 L11,5 Z" id="形状" fill="#09244B"></path>
        </g>
    </g>
</svg>