<svg xmlns="http://www.w3.org/2000/svg" width="24" height="24"><g fill="none" fill-rule="nonzero"><path d="M24 0v24H0V0h24ZM12.594 23.258l-.012.002-.071.035-.02.004-.014-.004-.071-.036c-.01-.003-.019 0-.024.006l-.004.01-.017.428.005.02.01.013.104.074.015.004.012-.004.104-.074.012-.016.004-.017-.017-.427c-.002-.01-.009-.017-.016-.018Zm.264-.113-.014.002-.184.093-.01.01-.003.011.018.43.005.012.008.008.201.092c.012.004.023 0 .029-.008l.004-.014-.034-.614c-.003-.012-.01-.02-.02-.022Zm-.715.002a.023.023 0 0 0-.027.006l-.006.014-.034.614c0 .012.007.02.017.024l.015-.002.201-.093.01-.008.003-.011.018-.43-.003-.012-.01-.01-.184-.092Z"/><path fill="#09244B" d="M2 6a2 2 0 0 1 2-2h3v4H2V6Zm0 4v4h5v-4H2Zm7 0v4h6v-4H9Zm8 0v4h5v-4h-5Zm5-2V6a2 2 0 0 0-2-2h-3v4h5Zm-7 0H9V4h6v4ZM2 16h5v4H4a2 2 0 0 1-2-2v-2Zm13 0H9v4h6v-4Zm5 4h-3v-4h5v2a2 2 0 0 1-2 2Z"/></g></svg>