<?xml version="1.0" encoding="UTF-8"?>
<svg width="24px" height="24px" viewBox="0 0 24 24" version="1.1" xmlns="http://www.w3.org/2000/svg" xmlns:xlink="http://www.w3.org/1999/xlink">
    <title>table_fill</title>
    <g id="页面-1" stroke="none" stroke-width="1" fill="none" fill-rule="evenodd">
        <g id="Editor" transform="translate(-1056.000000, -48.000000)" fill-rule="nonzero">
            <g id="table_fill" transform="translate(1056.000000, 48.000000)">
                <rect id="矩形" x="0" y="0" width="24" height="24"></rect>
                <path d="M11,16 L11,21 L5,21 C3.94563773,21 3.08183483,20.18415 3.00548573,19.1492661 L3,19 L3,16 L11,16 Z M21,16 L21,19 C21,20.0543909 20.18415,20.9181678 19.1492661,20.9945144 L19,21 L13,21 L13,16 L21,16 Z M11,10 L11,14 L3,14 L3,10 L11,10 Z M21,10 L21,14 L13,14 L13,10 L21,10 Z M11,3 L11,8 L3,8 L3,5 C3,3.94563773 3.81587733,3.08183483 4.85073759,3.00548573 L5,3 L11,3 Z M19,3 C20.1046,3 21,3.89543 21,5 L21,8 L13,8 L13,3 L19,3 Z" id="形状" fill="#09244B"></path>
            </g>
        </g>
    </g>
</svg>