<svg xmlns="http://www.w3.org/2000/svg" width="24" height="24" viewBox="0 0 24 24"><g fill="none" fill-rule="evenodd"><path d="M24,0 L24,24 L0,24 L0,0 L24,0 Z M12.5935,23.2578 L12.5819,23.2595 L12.5109,23.295 L12.4919,23.2987 L12.4767,23.295 L12.4057,23.2595 C12.3958,23.2564 12.387,23.259 12.3821,23.2649 L12.378,23.2758 L12.3609,23.7031 L12.3659,23.7235 L12.3769,23.7357 L12.4805,23.8097 L12.4953,23.8136 L12.5071,23.8097 L12.6107,23.7357 L12.6233,23.7197 L12.6267,23.7031 L12.6096,23.2758 C12.6076,23.2657 12.601,23.2593 12.5935,23.2578 Z M12.8584,23.1453 L12.8445,23.1473 L12.6598,23.2397 L12.6499,23.2499 L12.6472,23.2611 L12.6651,23.6906 L12.6699,23.7034 L12.6784,23.7105 L12.8793,23.8032 C12.8914,23.8069 12.9022,23.803 12.9078,23.7952 L12.9118,23.7812 L12.8777,23.1665 C12.8753,23.1546 12.8674,23.147 12.8584,23.1453 Z M12.143,23.1473 C12.1332,23.1424 12.1222,23.1453 12.1156,23.1526 L12.1099,23.1665 L12.0758,23.7812 C12.0751,23.7927 12.0828,23.8019 12.0926,23.8046 L12.1083,23.8032 L12.3092,23.7105 L12.3186,23.7024 L12.3225,23.6906 L12.3404,23.2611 L12.3372,23.2485 L12.3278,23.2397 L12.143,23.1473 Z"/><path fill="#09244B" d="M8.18198,15.818 C8.6368,16.2728 8.73849,16.9471 8.48704,17.5 L17.9999975,17.5 C18.8284,17.5 19.4999975,18.1716 19.4999975,19 C19.4999975,19.8284 18.8284,20.5 17.9999975,20.5 L8.48704,20.5 C8.73849,21.0529 8.6368,21.7272 8.18198,22.182 C7.59619,22.7678 6.64645,22.7678 6.06066,22.182 L3.93934,20.0607 C3.35355,19.4749 3.35355,18.5251 3.93934,17.9393 L6.06066,15.818 C6.64645,15.2322 7.59619,15.2322 8.18198,15.818 Z M17,1.5 C17.8284,1.5 18.5,2.17157 18.5,3 C18.5,3.82843 17.8284,4.5 17,4.5 L17,15 C17,15.8284 16.3284,16.5 15.5,16.5 C14.6716,16.5 14,15.8284 14,15 L14,4.5 L13,4.5 L13,15 C13,15.8284 12.3284,16.5 11.5,16.5 C10.6716,16.5 10,15.8284 10,15 L10,12.5 C6.96245,12.5 4.50002,10.0376 4.50002,7 C4.50002,3.96243 6.96245,1.5 10,1.5 L17,1.5 Z M10,4.5 C8.61931,4.5 7.50002,5.61929 7.50002,7 C7.50002,8.3254816 8.53155766,9.41003853 9.83562682,9.49468231 L10,9.5 L10,4.5 Z"/></g></svg>