<svg xmlns="http://www.w3.org/2000/svg" width="24" height="24" viewBox="0 0 24 24"><g fill="none" fill-rule="evenodd"><path d="M24,0 L24,24 L0,24 L0,0 L24,0 Z M12.5935,23.2578 L12.5819,23.2595 L12.5109,23.295 L12.4919,23.2987 L12.4767,23.295 L12.4057,23.2595 C12.3958,23.2564 12.387,23.259 12.3821,23.2649 L12.378,23.2758 L12.3609,23.7031 L12.3659,23.7235 L12.3769,23.7357 L12.4805,23.8097 L12.4953,23.8136 L12.5071,23.8097 L12.6107,23.7357 L12.6233,23.7197 L12.6267,23.7031 L12.6096,23.2758 C12.6076,23.2657 12.601,23.2593 12.5935,23.2578 Z M12.8584,23.1453 L12.8445,23.1473 L12.6598,23.2397 L12.6499,23.2499 L12.6472,23.2611 L12.6651,23.6906 L12.6699,23.7034 L12.6784,23.7105 L12.8793,23.8032 C12.8914,23.8069 12.9022,23.803 12.9078,23.7952 L12.9118,23.7812 L12.8777,23.1665 C12.8753,23.1546 12.8674,23.147 12.8584,23.1453 Z M12.143,23.1473 C12.1332,23.1424 12.1222,23.1453 12.1156,23.1526 L12.1099,23.1665 L12.0758,23.7812 C12.0751,23.7927 12.0828,23.8019 12.0926,23.8046 L12.1083,23.8032 L12.3092,23.7105 L12.3186,23.7024 L12.3225,23.6906 L12.3404,23.2611 L12.3372,23.2485 L12.3278,23.2397 L12.143,23.1473 Z"/><path fill="#09244B" d="M6.41421,16.1716 C6.80474,15.781 7.4379,15.781 7.82843,16.1716 C8.18891,16.5320615 8.21663923,17.0993207 7.91161769,17.4915973 L7.82843,17.5858 L7.41421,18 L18,18 C18.5523,18 19,18.4477 19,19 C19,19.51285 18.613973,19.9355092 18.1166239,19.9932725 L18,20 L7.41421,20 L7.82843,20.4142 C8.21895,20.8047 8.21895,21.4379 7.82843,21.8284 C7.46794077,22.1889538 6.90071355,22.2166888 6.50841848,21.9116047 L6.41421,21.8284 L4.29289,19.7071 C4.10114,19.5154 4,19.2712 4,19 C4,18.774 4.07023611,18.56675 4.20461458,18.3930069 L4.29289,18.2929 L6.41421,16.1716 Z M17,2 C17.5523,2 18,2.44772 18,3 C18,3.55228 17.5523,4 17,4 L16,4 L16,15 C16,15.5523 15.5523,16 15,16 C14.4477,16 14,15.5523 14,15 L14,4 L13,4 L13,15 C13,15.5523 12.5523,16 12,16 C11.4477,16 11,15.5523 11,15 L11,12 L10,12 C7.23858,12 5,9.76142 5,7 C5,4.23858 7.23858,2 10,2 L17,2 Z M11,4 L10,4 C8.34315,4 7,5.34315 7,7 C7,8.59767679 8.24892392,9.90366059 9.82372764,9.99490729 L10,10 L11,10 L11,4 Z"/></g></svg>