<?xml version="1.0" encoding="UTF-8"?>
<svg width="24px" height="24px" viewBox="0 0 24 24" version="1.1" xmlns="http://www.w3.org/2000/svg" xmlns:xlink="http://www.w3.org/1999/xlink">
    <title>translate_2_fill</title>
    <g id="Icon" stroke="none" stroke-width="1" fill="none" fill-rule="evenodd">
        <g id="Editor" transform="translate(-960.000000, -240.000000)">
            <g id="translate_2_fill" transform="translate(960.000000, 240.000000)">
                <path d="M24,0 L24,24 L0,24 L0,0 L24,0 Z M12.5935,23.2578 L12.5819,23.2595 L12.5109,23.295 L12.4919,23.2987 L12.4767,23.295 L12.4057,23.2595 C12.3958,23.2564 12.387,23.259 12.3821,23.2649 L12.378,23.2758 L12.3609,23.7031 L12.3659,23.7235 L12.3769,23.7357 L12.4805,23.8097 L12.4953,23.8136 L12.5071,23.8097 L12.6107,23.7357 L12.6233,23.7197 L12.6267,23.7031 L12.6096,23.2758 C12.6076,23.2657 12.601,23.2593 12.5935,23.2578 Z M12.8584,23.1453 L12.8445,23.1473 L12.6598,23.2397 L12.6499,23.2499 L12.6472,23.2611 L12.6651,23.6906 L12.6699,23.7034 L12.6784,23.7105 L12.8793,23.8032 C12.8914,23.8069 12.9022,23.803 12.9078,23.7952 L12.9118,23.7812 L12.8777,23.1665 C12.8753,23.1546 12.8674,23.147 12.8584,23.1453 Z M12.143,23.1473 C12.1332,23.1424 12.1222,23.1453 12.1156,23.1526 L12.1099,23.1665 L12.0758,23.7812 C12.0751,23.7927 12.0828,23.8019 12.0926,23.8046 L12.1083,23.8032 L12.3092,23.7105 L12.3186,23.7024 L12.3225,23.6906 L12.3404,23.2611 L12.3372,23.2485 L12.3278,23.2397 L12.143,23.1473 Z" id="MingCute" fill-rule="nonzero"></path>
                <path d="M8.99991,2.5 C9.77960882,2.5 10.4203501,3.09488554 10.4930335,3.85553954 L10.4999,4 L10.4999,4.5 L13.9999,4.5 C14.8283,4.5 15.4999,5.17157 15.4999,6 C15.4999,6.77969882 14.9049879,7.420449 14.1443558,7.49313345 L13.9999,7.5 L13.3834,7.5 C13.0994,9.32557 12.3049,11.0711 11.0991,12.6196 C11.377875,12.84235 11.6720062,13.0571687 11.9812406,13.2629172 L12.2955,13.4656 L14.132,9.38445 C14.3743,8.84618 14.9096,8.5 15.4999,8.5 C16.0410083,8.5 16.5359854,8.79088736 16.8012796,9.25397355 L16.8678,9.38445 L21.3678,19.3845 C21.7077,20.1399 21.3709,21.0279 20.6155,21.3679 C19.9044412,21.6878059 19.0760121,21.408282 18.6975501,20.7444246 L18.632,20.6155 L17.68,18.5 L13.3198,18.5 L12.3678,20.6155 C12.0278,21.371 11.1398,21.7078 10.3844,21.3679 C9.67334118,21.0479 9.33314574,20.2424744 9.57901002,19.5190438 L9.63203,19.3845 L11.0552,16.2219 C10.3157,15.7849 9.6282,15.3009 8.99819,14.777 C7.73052,15.8306 6.2334,16.7222 4.557,17.3927 C3.78782,17.7004 2.91487,17.3263 2.6072,16.5571 C2.29953,15.7879 2.67365,14.915 3.44282,14.6073 C4.77914,14.0728 5.93484,13.3942 6.90202,12.6214 C6.4221,12.0037 6.00749,11.3545 5.66383,10.6811 C5.56693,10.4912 5.47567,10.2994 5.39021,10.1057 C5.05567,9.34786 5.39885,8.46228 6.15673,8.12775 C6.9146,7.79321 7.80018,8.13639 8.13472,8.89426 C8.19722,9.03586 8.26432,9.17697 8.336,9.31743 C8.52544,9.68867 8.74687,10.0551 8.99948,10.4136 C9.58304444,9.58268444 9.99989284,8.7083042 10.2439079,7.82962831 L10.3273,7.5 L3.99991,7.5 C3.17148,7.5 2.49991,6.82843 2.49991,6 C2.49991,5.22030118 3.09479554,4.579551 3.85544954,4.50686655 L3.99991,4.5 L7.49991,4.5 L7.49991,4 C7.49991,3.17157 8.17148,2.5 8.99991,2.5 Z M15.4999,13.6553 L14.6698,15.5 L16.33,15.5 L15.4999,13.6553 Z" id="形状" fill="#09244B"></path>
            </g>
        </g>
    </g>
</svg>