<?xml version="1.0" encoding="UTF-8"?>
<svg width="24px" height="24px" viewBox="0 0 24 24" version="1.1" xmlns="http://www.w3.org/2000/svg" xmlns:xlink="http://www.w3.org/1999/xlink">
    <title>translate_line</title>
    <g id="页面-1" stroke="none" stroke-width="1" fill="none" fill-rule="evenodd">
        <g id="Editor" transform="translate(-192.000000, -96.000000)" fill-rule="nonzero">
            <g id="translate_line" transform="translate(192.000000, 96.000000)">
                <rect id="矩形" x="0" y="0" width="24" height="24"></rect>
                <path d="M17,11 C17.5523,11 18,11.4477 18,12 L18,13 L19.5,13 C20.3284,13 21,13.6716 21,14.5 L21,17.5 C21,18.3284 20.3284,19 19.5,19 L18,19 L18,20 C18,20.5523 17.5523,21 17,21 C16.4477,21 16,20.5523 16,20 L16,19 L14.5,19 C13.6716,19 13,18.3284 13,17.5 L13,14.5 C13,13.6716 13.6716,13 14.5,13 L16,13 L16,12 C16,11.4477 16.4477,11 17,11 Z M5,15 C5.55228,15 6,15.4477 6,16 L6,17 C6,17.5523 6.44772,18 7,18 L10,18 C10.5523,18 11,18.4477 11,19 C11,19.5523 10.5523,20 10,20 L7,20 C5.34315,20 4,18.6569 4,17 L4,16 C4,15.4477 4.44772,15 5,15 Z M19,15 L18,15 L18,17 L19,17 L19,15 Z M16,15 L15,15 L15,17 L16,17 L16,15 Z M9.5,3 C10.0523,3 10.5,3.44772 10.5,4 C10.5,4.55228 10.0523,5 9.5,5 L9.5,5 L5,5 L5,7 L9,7 C9.55228,7 10,7.44772 10,8 C10,8.55228 9.55228,9 9,9 L9,9 L5,9 L5,11 L10,11 C10.5523,11 11,11.4477 11,12 C11,12.5523 10.5523,13 10,13 L10,13 L4.1,13 C3.49249,13 3,12.5075 3,11.9 L3,11.9 L3,4.1 C3,3.49249 3.49249,3 4.1,3 L4.1,3 Z M17,4 C18.6569,4 20,5.34315 20,7 L20,7 L20,9 C20,9.55228 19.5523,10 19,10 C18.4477,10 18,9.55228 18,9 L18,9 L18,7 C18,6.44772 17.5523,6 17,6 L17,6 L14,6 C13.4477,6 13,5.55228 13,5 C13,4.44772 13.4477,4 14,4 L14,4 Z" id="形状结合" fill="#09244B"></path>
            </g>
        </g>
    </g>
</svg>