<svg xmlns="http://www.w3.org/2000/svg" width="24" height="24"><g fill="none"><path d="M24 0v24H0V0zM12.594 23.258l-.012.002-.071.035-.02.004-.014-.004-.071-.036c-.01-.003-.019 0-.024.006l-.004.01-.017.428.005.02.01.013.104.074.015.004.012-.004.104-.074.012-.016.004-.017-.017-.427c-.002-.01-.009-.017-.016-.018m.264-.113-.014.002-.184.093-.01.01-.003.011.018.43.005.012.008.008.201.092c.012.004.023 0 .029-.008l.004-.014-.034-.614c-.003-.012-.01-.02-.02-.022m-.715.002a.023.023 0 0 0-.027.006l-.006.014-.034.614c0 .012.007.02.017.024l.015-.002.201-.093.01-.008.003-.011.018-.43-.003-.012-.01-.01z"/><path fill="#09244B" d="M9 2.5A1.5 1.5 0 0 1 10.5 4v.5h2a1.5 1.5 0 0 1 .928 2.678c-.237 1.942-1.053 3.802-2.329 5.442.372.297.77.58 1.197.846l1.836-4.082a1.5 1.5 0 0 1 2.736 0l4.5 10a1.5 1.5 0 0 1-2.736 1.232L17.68 18.5h-4.36l-.952 2.116a1.5 1.5 0 0 1-2.736-1.232l1.423-3.162a15.737 15.737 0 0 1-2.057-1.445 16.566 16.566 0 0 1-4.441 2.616 1.5 1.5 0 1 1-1.114-2.786 13.636 13.636 0 0 0 3.459-1.986 12.22 12.22 0 0 1-1.512-2.515 1.5 1.5 0 1 1 2.745-1.212A9.027 9.027 0 0 0 9 10.414c.656-.935 1.101-1.925 1.327-2.914H4a1.5 1.5 0 1 1 0-3h3.5V4A1.5 1.5 0 0 1 9 2.5m6.5 11.155-.83 1.845h1.66zM19 1a1 1 0 0 1 .946.677l.13.378a3 3 0 0 0 1.869 1.87l.378.129a1 1 0 0 1 0 1.892l-.378.13a3 3 0 0 0-1.87 1.869l-.129.378a1 1 0 0 1-1.892 0l-.13-.378a3 3 0 0 0-1.87-1.87l-.377-.129a1 1 0 0 1 0-1.892l.378-.13a3 3 0 0 0 1.87-1.869l.129-.378A1 1 0 0 1 19 1"/></g></svg>