<svg width="24" height="24" viewBox="0 0 24 24" fill="none" xmlns="http://www.w3.org/2000/svg">
<rect width="24" height="24" fill="white" fill-opacity="0.01"/>
<path d="M8.5 4C8.5 3.17157 7.82843 2.5 7 2.5C6.17157 2.5 5.5 3.17157 5.5 4V11C5.5 14.5899 8.41015 17.5 12 17.5C15.5899 17.5 18.5 14.5899 18.5 11V4C18.5 3.17157 17.8284 2.5 17 2.5C16.1716 2.5 15.5 3.17157 15.5 4V11C15.5 12.933 13.933 14.5 12 14.5C10.067 14.5 8.5 12.933 8.5 11V4Z" fill="#09244B"/>
<path d="M6 18.5C5.17157 18.5 4.5 19.1716 4.5 20C4.5 20.8284 5.17157 21.5 6 21.5H18C18.8284 21.5 19.5 20.8284 19.5 20C19.5 19.1716 18.8284 18.5 18 18.5H6Z" fill="#09244B"/>
</svg>
