<?xml version="1.0" encoding="UTF-8"?>
<svg width="24px" height="24px" viewBox="0 0 24 24" version="1.1" xmlns="http://www.w3.org/2000/svg" xmlns:xlink="http://www.w3.org/1999/xlink">
    <title>Z-A_sort_descending_letters_fill</title>
    <g id="页面-1" stroke="none" stroke-width="1" fill="none" fill-rule="evenodd">
        <g id="Editor" transform="translate(-816.000000, -144.000000)" fill-rule="nonzero">
            <g id="Z-A_sort_descending_letters_fill" transform="translate(816.000000, 144.000000)">
                 <path d="M24,0 L24,24 L0,24 L0,0 L24,0 Z M12.5934901,23.257841 L12.5819402,23.2595131 L12.5108777,23.2950439 L12.4918791,23.2987469 L12.4918791,23.2987469 L12.4767152,23.2950439 L12.4056548,23.2595131 C12.3958229,23.2563662 12.3870493,23.2590235 12.3821421,23.2649074 L12.3780323,23.275831 L12.360941,23.7031097 L12.3658947,23.7234994 L12.3769048,23.7357139 L12.4804777,23.8096931 L12.4953491,23.8136134 L12.4953491,23.8136134 L12.5071152,23.8096931 L12.6106902,23.7357139 L12.6232938,23.7196733 L12.6232938,23.7196733 L12.6266527,23.7031097 L12.609561,23.275831 C12.6075724,23.2657013 12.6010112,23.2592993 12.5934901,23.257841 L12.5934901,23.257841 Z M12.8583906,23.1452862 L12.8445485,23.1473072 L12.6598443,23.2396597 L12.6498822,23.2499052 L12.6498822,23.2499052 L12.6471943,23.2611114 L12.6650943,23.6906389 L12.6699349,23.7034178 L12.6699349,23.7034178 L12.678386,23.7104931 L12.8793402,23.8032389 C12.8914285,23.8068999 12.9022333,23.8029875 12.9078286,23.7952264 L12.9118235,23.7811639 L12.8776777,23.1665331 C12.8752882,23.1545897 12.8674102,23.1470016 12.8583906,23.1452862 L12.8583906,23.1452862 Z M12.1430473,23.1473072 C12.1332178,23.1423925 12.1221763,23.1452606 12.1156365,23.1525954 L12.1099173,23.1665331 L12.0757714,23.7811639 C12.0751323,23.7926639 12.0828099,23.8018602 12.0926481,23.8045676 L12.108256,23.8032389 L12.3092106,23.7104931 L12.3186497,23.7024347 L12.3186497,23.7024347 L12.3225043,23.6906389 L12.340401,23.2611114 L12.337245,23.2485176 L12.337245,23.2485176 L12.3277531,23.2396597 L12.1430473,23.1473072 Z" id="MingCute" fill-rule="nonzero"></path>
                <path d="M7.99992,12 C8.87532937,12 9.66212742,12.515918 10.0158351,13.305011 L10.0807,13.4664 L12.4125,19.9955 C12.6912,20.7757 12.2846,21.634 11.5044,21.9126 C10.7701882,22.1748118 9.96665273,21.8301529 9.64236403,21.1382397 L9.58731,21.0045 L9.40713,20.5 L6.59271,20.5 L6.41253,21.0045 C6.1339,21.7847 5.27558,22.1912 4.49542,21.9126 C3.76114235,21.6503882 3.3578045,20.8746706 3.54518938,20.1338592 L3.58731,19.9955 L5.91914,13.4664 C6.2332,12.587 7.06615,12 7.99992,12 Z M16.9999,3 C17.8283,3 18.4999,3.67157 18.4999,4.5 L18.4999,16.2069 L18.7677,15.9392 C19.3535,15.3534 20.3032,15.3534 20.889,15.9392 C21.4748,16.5249 21.4748,17.4747 20.889,18.0605 L18.0606,20.8889 C17.4748,21.4747 16.525,21.4747 15.9392,20.8889 L13.1108,18.0605 C12.525,17.4747 12.525,16.5249 13.1108,15.9392 C13.6966,15.3534 14.6463,15.3534 15.2321,15.9392 L15.4999,16.2069 L15.4999,4.5 C15.4999,3.67157 16.1715,3 16.9999,3 Z M7.99992,16.5598 L7.66414,17.5 L8.3357,17.5 L7.99992,16.5598 Z M10.7585,2 C12.1363867,2 12.8494161,3.61044959 11.9848978,4.62828136 L11.8898,4.73137 L8.62119,8 L10.9999,8 C11.8283,8 12.4999,8.67157 12.4999,9.5 C12.4999,10.2796706 11.9049879,10.9204457 11.1443558,10.9931332 L10.9999,11 L5.24129,11 C3.863355,11 3.15036132,9.38955041 4.01482792,8.37171864 L4.10992,8.26863 L7.37855,5 L4.99987,5 C4.17145,5 3.49987,4.32843 3.49987,3.5 C3.49987,2.72030118 4.09476439,2.079551 4.8554111,2.00686655 L4.99987,2 L10.7585,2 Z" id="形状" fill="#09244B"></path>
            </g>
        </g>
    </g>
</svg>