<?xml version="1.0" encoding="UTF-8"?>
<svg width="24px" height="24px" viewBox="0 0 24 24" version="1.1" xmlns="http://www.w3.org/2000/svg" xmlns:xlink="http://www.w3.org/1999/xlink">
    <title>Z-A_sort_descending_letters_line</title>
    <g id="页面-1" stroke="none" stroke-width="1" fill="none" fill-rule="evenodd">
        <g id="Editor" transform="translate(-816.000000, -96.000000)" fill-rule="nonzero">
            <g id="Z-A_sort_descending_letters_line" transform="translate(816.000000, 96.000000)">
                <rect id="矩形" x="0" y="0" width="24" height="24"></rect>
                <path d="M8.00003,12 C8.674326,12 9.28067533,12.3956587 9.55608491,13.0015223 L9.60994,13.1345 L11.9418,19.6637 C12.1275,20.1838 11.8565,20.756 11.3364,20.9417 C10.85345,21.1142286 10.3254908,20.8927974 10.1038503,20.443863 L10.0583,20.3363 L9.58102,19 L6.41903,19 L5.94177,20.3363 C5.75602,20.8564 5.1838,21.1275 4.66369,20.9417 C4.18073071,20.7692643 3.91252214,20.2635709 4.02540056,19.7757876 L4.05829,19.6637 L6.39012,13.1345 C6.63311,12.4542 7.27757,12 8.00003,12 Z M17,4 C17.5523,4 18,4.44772 18,5 L18,17.414 L19.1213,16.2927 C19.5119,15.9022 20.145,15.9022 20.5356,16.2927 C20.9261,16.6832 20.9261,17.3164 20.5356,17.7069 L17.7071,20.5354 C17.3166,20.9259 16.6834,20.9259 16.2929,20.5354 L13.4645,17.7069 C13.074,17.3164 13.074,16.6832 13.4645,16.2927 C13.855,15.9022 14.4882,15.9022 14.8787,16.2927 L16,17.414 L16,5 C16,4.44772 16.4477,4 17,4 Z M8.00003,14.5732 L7.13332,17 L8.86674,17 L8.00003,14.5732 Z M10.7586,3 C11.6994,3 12.1893533,4.09196698 11.6139222,4.79241099 L11.5364,4.87782 L7.41424,9 L11,9 C11.5523,9 12,9.44772 12,10 C12,10.51285 11.613973,10.9355092 11.1166239,10.9932725 L11,11 L5.24145,11 C4.30065,11 3.81071515,9.90803302 4.3861123,9.20758901 L4.46363,9.12218 L8.58581,5 L5.00003,5 C4.44774,5 4.00003,4.55228 4.00003,4 C4.00003,3.48716857 4.38606566,3.06449347 4.8834079,3.0067278 L5.00003,3 L10.7586,3 Z" id="形状" fill="#09244B"></path>
            </g>
        </g>
    </g>
</svg>