<?xml version="1.0" encoding="UTF-8"?>
<svg width="24px" height="24px" viewBox="0 0 24 24" version="1.1" xmlns="http://www.w3.org/2000/svg" xmlns:xlink="http://www.w3.org/1999/xlink">
    <title>aiming_fill</title>
    <g id="页面-1" stroke="none" stroke-width="1" fill="none" fill-rule="evenodd">
        <g id="Map" transform="translate(-528.000000, -48.000000)" fill-rule="nonzero">
            <g id="aiming_fill" transform="translate(528.000000, 48.000000)">
                <rect id="矩形" x="0" y="0" width="24" height="24"></rect>
                <path d="M13,20.9451 L13,21 C13,21.5523 12.5523,22 12,22 C11.4477,22 11,21.5523 11,21 L11,20.9451 C11.3283,20.9814 11.662,21 12,21 C12.338,21 12.6717,20.9814 13,20.9451 Z M13,3.05493 C17.1716,3.51608 20.4839,6.82838 20.9451,11 L19,11 C18.4477,11 18,11.4477 18,12 C18,12.5523 18.4477,13 19,13 L20.9451,13 C20.4839,17.1716 17.1716,20.4839 13,20.9451 L13,19 C13,18.4477 12.5523,18 12,18 C11.4477,18 11,18.4477 11,19 L11,20.9451 C6.91906739,20.4939261 3.66049915,17.3142656 3.08902681,13.2708221 L3.05493,13 L3,13 C2.44772,13 2,12.5523 2,12 C2,11.4477 2.44772,11 3,11 L3.05493,11 C3.01863,11.3283 3,11.662 3,12 C3,12.2253333 3.00828,12.4487556 3.02455556,12.6699407 L3.05493,13 L5,13 C5.55228,13 6,12.5523 6,12 C6,11.4477 5.55228,11 5,11 L3.05493,11 C3.51608,6.82838 6.82838,3.51608 11,3.05493 L11,5 C11,5.55228 11.4477,6 12,6 C12.5523,6 13,5.55228 13,5 L13,3.05493 Z M12,10.5 C11.1716,10.5 10.5,11.1716 10.5,12 C10.5,12.8284 11.1716,13.5 12,13.5 C12.8284,13.5 13.5,12.8284 13.5,12 C13.5,11.1716 12.8284,10.5 12,10.5 Z M21,11 C21.5523,11 22,11.4477 22,12 C22,12.5523 21.5523,13 21,13 L20.9451,13 C20.9814,12.6717 21,12.338 21,12 C21,11.662 20.9814,11.3283 20.9451,11 L21,11 Z M12,2 C12.5523,2 13,2.44772 13,3 L13,3.05493 C12.6717,3.01863 12.338,3 12,3 C11.662,3 11.3283,3.01863 11,3.05493 L11,3 C11,2.44772 11.4477,2 12,2 Z" id="形状" fill="#09244B"></path>
            </g>
        </g>
    </g>
</svg>