<?xml version="1.0" encoding="UTF-8"?>
<svg width="24px" height="24px" viewBox="0 0 24 24" version="1.1" xmlns="http://www.w3.org/2000/svg" xmlns:xlink="http://www.w3.org/1999/xlink">
    <title>aiming_line</title>
    <g id="页面-1" stroke="none" stroke-width="1" fill="none" fill-rule="evenodd">
        <g id="Map" transform="translate(-528.000000, 0.000000)" fill-rule="nonzero">
            <g id="aiming_line" transform="translate(528.000000, 0.000000)">
                <rect id="矩形" x="0" y="0" width="24" height="24"></rect>
                <path d="M12,2 C12.5523,2 13,2.44772 13,3 L13,3.05493 C17.1716,3.51608 20.4839,6.82838 20.9451,11 L21,11 C21.5523,11 22,11.4477 22,12 C22,12.5523 21.5523,13 21,13 L20.9451,13 C20.4839,17.1716 17.1716,20.4839 13,20.9451 L13,21 C13,21.5523 12.5523,22 12,22 C11.4477,22 11,21.5523 11,21 L11,20.9451 C6.82838,20.4839 3.51608,17.1716 3.05493,13 L3,13 C2.44772,13 2,12.5523 2,12 C2,11.4477 2.44772,11 3,11 L3.05493,11 C3.51608,6.82838 6.82838,3.51608 11,3.05493 L11,3 C11,2.44772 11.4477,2 12,2 Z M13,5.07089 L13,6 C13,6.55228 12.5523,7 12,7 C11.48715,7 11.0644908,6.61395571 11.0067275,6.11662025 L11,6 L11,5.07089 C8.01946806,5.49721917 5.64461165,7.80112549 5.11200181,10.746038 L5.07089,11 L6,11 C6.55228,11 7,11.4477 7,12 C7,12.51285 6.61395571,12.9355092 6.11662025,12.9932725 L6,13 L5.07089,13 C5.49721917,15.9805417 7.80112549,18.3553889 10.746038,18.887989 L11,18.9291 L11,18 C11,17.4477 11.4477,17 12,17 C12.51285,17 12.9355092,17.386027 12.9932725,17.8833761 L13,18 L13,18.9291 C15.9805417,18.5027806 18.3553889,16.198884 18.887989,13.2539628 L18.9291,13 L18,13 C17.4477,13 17,12.5523 17,12 C17,11.48715 17.386027,11.0644908 17.8833761,11.0067275 L18,11 L18.9291,11 C18.5027806,8.01946806 16.198884,5.64461165 13.2539628,5.11200181 L13,5.07089 Z M12,10.5 C12.8284,10.5 13.5,11.1716 13.5,12 C13.5,12.8284 12.8284,13.5 12,13.5 C11.1716,13.5 10.5,12.8284 10.5,12 C10.5,11.1716 11.1716,10.5 12,10.5 Z" id="形状" fill="#09244B"></path>
            </g>
        </g>
    </g>
</svg>