<?xml version="1.0" encoding="UTF-8"?>
<svg width="24px" height="24px" viewBox="0 0 24 24" version="1.1" xmlns="http://www.w3.org/2000/svg" xmlns:xlink="http://www.w3.org/1999/xlink">
    <title>anchor_line</title>
    <g id="页面-1" stroke="none" stroke-width="1" fill="none" fill-rule="evenodd">
        <g id="Map" transform="translate(-576.000000, 0.000000)">
            <g id="anchor_line" transform="translate(576.000000, 0.000000)">
                <rect id="矩形" fill-rule="nonzero" x="0" y="0" width="24" height="24"></rect>
                <path d="M11,9.87398 C9.27477,9.42994 8,7.86384 8,6 C8,3.79086 9.79086,2 12,2 C14.2091,2 16,3.79086 16,6 C16,7.86384 14.7252,9.42994 13,9.87398 L13,19.9381 C16.6187,19.4869 19.4869,16.6187 19.9381,13 L18,13 C17.4477,13 17,12.5523 17,12 C17,11.4477 17.4477,11 18,11 L21,11 C21.5523,11 22,11.4477 22,12 C22,17.5228 17.5228,22 12,22 C6.47715,22 2,17.5228 2,12 C2,11.4477 2.44772,11 3,11 L6,11 C6.55228,11 7,11.4477 7,12 C7,12.5523 6.55228,13 6,13 L4.06189,13 C4.51314,16.6187 7.38128,19.4869 11,19.9381 L11,9.87398 Z M12,4 C10.8954,4 10,4.89543 10,6 C10,7.10457 10.8954,8 12,8 C13.1046,8 14,7.10457 14,6 C14,4.89543 13.1046,4 12,4 Z" id="形状" fill="#09244B"></path>
            </g>
        </g>
    </g>
</svg>