<?xml version="1.0" encoding="UTF-8"?>
<svg width="24px" height="24px" viewBox="0 0 24 24" version="1.1" xmlns="http://www.w3.org/2000/svg" xmlns:xlink="http://www.w3.org/1999/xlink">
    <title>anchor_fill</title>
    <g id="页面-1" stroke="none" stroke-width="1" fill="none" fill-rule="evenodd">
        <g id="Map" transform="translate(-576.000000, -48.000000)">
            <g id="anchor_fill" transform="translate(576.000000, 48.000000)">
                <rect id="矩形" fill-rule="nonzero" x="0" y="0" width="24" height="24"></rect>
                <path d="M10.5,10.2439 C8.75221,9.62619 7.5,7.95933 7.5,6 C7.5,3.51472 9.51472,1.5 12,1.5 C14.4853,1.5 16.5,3.51472 16.5,6 C16.5,7.95933 15.2478,9.62619 13.5,10.2439 L13.5,19.35 C16.4387,18.7535 18.7535,16.4387 19.35,13.5 L18,13.5 C17.1716,13.5 16.5,12.8284 16.5,12 C16.5,11.1716 17.1716,10.5 18,10.5 L21,10.5 C21.8284,10.5 22.5,11.1716 22.5,12 C22.5,17.799 17.799,22.5 12,22.5 C6.20101,22.5 1.5,17.799 1.5,12 C1.5,11.1716 2.17157,10.5 3,10.5 L6,10.5 C6.82843,10.5 7.5,11.1716 7.5,12 C7.5,12.8284 6.82843,13.5 6,13.5 L4.65003,13.5 C5.24655,16.4387 7.5613,18.7535 10.5,19.35 L10.5,10.2439 Z M12,4.5 C11.1716,4.5 10.5,5.17157 10.5,6 C10.5,6.82843 11.1716,7.5 12,7.5 C12.8284,7.5 13.5,6.82843 13.5,6 C13.5,5.17157 12.8284,4.5 12,4.5 Z" id="形状" fill="#09244B"></path>
            </g>
        </g>
    </g>
</svg>