<?xml version="1.0" encoding="UTF-8"?>
<svg width="24px" height="24px" viewBox="0 0 24 24" version="1.1" xmlns="http://www.w3.org/2000/svg" xmlns:xlink="http://www.w3.org/1999/xlink">
    <title>clock_2_line</title>
    <g id="页面-1" stroke="none" stroke-width="1" fill="none" fill-rule="evenodd">
        <g id="Map" transform="translate(-624.000000, 0.000000)">
            <g id="clock_2_line" transform="translate(624.000000, 0.000000)">
                <rect id="矩形" fill-rule="nonzero" x="0" y="0" width="24" height="24"></rect>
                <path d="M5,11 C5,7.13401 8.13401,4 12,4 C15.866,4 19,7.13401 19,11 C19,13.3224 17.728,15.3608 16.1286,16.996 C14.576,18.5834 12.8218,19.6789 12,20.1475 C11.1782,19.6789 9.42404,18.5834 7.87141,16.996 C6.27202,15.3608 5,13.3224 5,11 Z M12,2 C7.02944,2 3,6.02944 3,11 C3,14.0738 4.6759,16.5892 6.44162,18.3945 C8.2176,20.2102 10.1996,21.4278 11.0729,21.921 C11.6521,22.2481 12.3479,22.2481 12.9271,21.921 C13.8004,21.4278 15.7824,20.2102 17.5584,18.3945 C19.3241,16.5892 21,14.0738 21,11 C21,6.02944 16.9706,2 12,2 Z M13,7 C13,6.44772 12.5523,6 12,6 C11.4477,6 11,6.44772 11,7 L11,12 C11,12.2652 11.1054,12.5196 11.2929,12.7071 L13.7929,15.2071 C14.1834,15.5976 14.8166,15.5976 15.2071,15.2071 C15.5976,14.8166 15.5976,14.1834 15.2071,13.7929 L13,11.5858 L13,7 Z" id="形状" fill="#09244B"></path>
            </g>
        </g>
    </g>
</svg>