<?xml version="1.0" encoding="UTF-8"?>
<svg width="24px" height="24px" viewBox="0 0 24 24" version="1.1" xmlns="http://www.w3.org/2000/svg" xmlns:xlink="http://www.w3.org/1999/xlink">
    <title>clock_fill</title>
    <g id="页面-1" stroke="none" stroke-width="1" fill="none" fill-rule="evenodd">
        <g id="Map" transform="translate(-672.000000, -48.000000)">
            <g id="clock_fill" transform="translate(672.000000, 48.000000)">
                <rect id="矩形" fill-rule="nonzero" x="0" y="0" width="24" height="24"></rect>
                <path d="M12,2 C16.9706,2 21,6.02944 21,11 C21,14.0738 19.3241,16.5892 17.5584,18.3945 C16.5896727,19.3848818 15.5596562,20.1973165 14.6817052,20.8113077 L14.2563896,21.1016714 C14.1879449,21.1472775 14.1208032,21.1914819 14.0550879,21.2342726 L13.6789009,21.4739579 L13.6789009,21.4739579 L13.3428744,21.6791459 L13.3428744,21.6791459 L12.9271,21.921 L12.9271,21.921 C12.3479,22.2481 11.6521,22.2481 11.0729,21.921 L10.6571257,21.6791459 L10.6571257,21.6791459 L10.1376557,21.3583918 C10.0749168,21.3184403 10.010628,21.2770633 9.94491277,21.2342726 L9.53449244,20.9606593 C8.61244219,20.3314866 7.49106273,19.4674136 6.44162,18.3945 C4.6759,16.5892 3,14.0738 3,11 C3,6.02944 7.02944,2 12,2 Z M15.0793,7.98261 L10.8348,12.2271 L9.06698,10.4594 C8.67646,10.0689 8.04329,10.0689 7.65277,10.4594 C7.26225,10.8499 7.26225,11.4831 7.65277,11.8736 L10.0569,14.2778 C10.4865,14.7073 11.183,14.7073 11.6126,14.2778 L16.4935,9.39682 C16.884,9.0063 16.884,8.37314 16.4935,7.98261 C16.103,7.59209 15.4698,7.59209 15.0793,7.98261 Z" id="形状" fill="#09244B"></path>
            </g>
        </g>
    </g>
</svg>