<?xml version="1.0" encoding="UTF-8"?>
<svg width="24px" height="24px" viewBox="0 0 24 24" version="1.1" xmlns="http://www.w3.org/2000/svg" xmlns:xlink="http://www.w3.org/1999/xlink">
    <title>clock_2_fill</title>
    <g id="页面-1" stroke="none" stroke-width="1" fill="none" fill-rule="evenodd">
        <g id="Map" transform="translate(-624.000000, -48.000000)">
            <g id="clock_2_fill" transform="translate(624.000000, 48.000000)">
                <rect id="矩形" fill-rule="nonzero" x="0" y="0" width="24" height="24"></rect>
                <path d="M12,2 C16.9706,2 21,6.02944 21,11 C21,14.0738 19.3241,16.5892 17.5584,18.3945 C16.5896727,19.3848818 15.5596562,20.1973165 14.6817052,20.8113077 L14.2563896,21.1016714 C14.1879449,21.1472775 14.1208032,21.1914819 14.0550879,21.2342726 L13.6789009,21.4739579 L13.6789009,21.4739579 L13.3428744,21.6791459 L13.3428744,21.6791459 L12.9271,21.921 L12.9271,21.921 C12.3479,22.2481 11.6521,22.2481 11.0729,21.921 L10.6571257,21.6791459 L10.6571257,21.6791459 L10.1376557,21.3583918 C10.0749168,21.3184403 10.010628,21.2770633 9.94491277,21.2342726 L9.53449244,20.9606593 C8.61244219,20.3314866 7.49106273,19.4674136 6.44162,18.3945 C4.6759,16.5892 3,14.0738 3,11 C3,6.02944 7.02944,2 12,2 Z M12,6 C11.4477,6 11,6.44772 11,7 L11,12 C11,12.2652 11.1054,12.5196 11.2929,12.7071 L13.7929,15.2071 C14.1834,15.5976 14.8166,15.5976 15.2071,15.2071 C15.5976,14.8166 15.5976,14.1834 15.2071,13.7929 L13,11.5858 L13,7 C13,6.44772 12.5523,6 12,6 Z" id="形状" fill="#09244B"></path>
            </g>
        </g>
    </g>
</svg>