<?xml version="1.0" encoding="UTF-8"?>
<svg width="24px" height="24px" viewBox="0 0 24 24" version="1.1" xmlns="http://www.w3.org/2000/svg" xmlns:xlink="http://www.w3.org/1999/xlink">
    <title>clock_line</title>
    <g id="页面-1" stroke="none" stroke-width="1" fill="none" fill-rule="evenodd">
        <g id="Map" transform="translate(-672.000000, 0.000000)">
            <g id="clock_line" transform="translate(672.000000, 0.000000)">
                 <path d="M24,0 L24,24 L0,24 L0,0 L24,0 Z M12.5934901,23.257841 L12.5819402,23.2595131 L12.5108777,23.2950439 L12.4918791,23.2987469 L12.4918791,23.2987469 L12.4767152,23.2950439 L12.4056548,23.2595131 C12.3958229,23.2563662 12.3870493,23.2590235 12.3821421,23.2649074 L12.3780323,23.275831 L12.360941,23.7031097 L12.3658947,23.7234994 L12.3769048,23.7357139 L12.4804777,23.8096931 L12.4953491,23.8136134 L12.4953491,23.8136134 L12.5071152,23.8096931 L12.6106902,23.7357139 L12.6232938,23.7196733 L12.6232938,23.7196733 L12.6266527,23.7031097 L12.609561,23.275831 C12.6075724,23.2657013 12.6010112,23.2592993 12.5934901,23.257841 L12.5934901,23.257841 Z M12.8583906,23.1452862 L12.8445485,23.1473072 L12.6598443,23.2396597 L12.6498822,23.2499052 L12.6498822,23.2499052 L12.6471943,23.2611114 L12.6650943,23.6906389 L12.6699349,23.7034178 L12.6699349,23.7034178 L12.678386,23.7104931 L12.8793402,23.8032389 C12.8914285,23.8068999 12.9022333,23.8029875 12.9078286,23.7952264 L12.9118235,23.7811639 L12.8776777,23.1665331 C12.8752882,23.1545897 12.8674102,23.1470016 12.8583906,23.1452862 L12.8583906,23.1452862 Z M12.1430473,23.1473072 C12.1332178,23.1423925 12.1221763,23.1452606 12.1156365,23.1525954 L12.1099173,23.1665331 L12.0757714,23.7811639 C12.0751323,23.7926639 12.0828099,23.8018602 12.0926481,23.8045676 L12.108256,23.8032389 L12.3092106,23.7104931 L12.3186497,23.7024347 L12.3186497,23.7024347 L12.3225043,23.6906389 L12.340401,23.2611114 L12.337245,23.2485176 L12.337245,23.2485176 L12.3277531,23.2396597 L12.1430473,23.1473072 Z" id="MingCute" fill-rule="nonzero"></path>
                <path d="M5,11 C5,7.13401 8.13401,4 12,4 C15.866,4 19,7.13401 19,11 C19,13.3224 17.728,15.3608 16.1286,16.996 C14.576,18.5834 12.8218,19.6789 12,20.1475 C11.1782,19.6789 9.42404,18.5834 7.87141,16.996 C6.27202,15.3608 5,13.3224 5,11 Z M12,2 C7.02944,2 3,6.02944 3,11 C3,14.0738 4.6759,16.5892 6.44162,18.3945 C8.2176,20.2102 10.1996,21.4278 11.0729,21.921 C11.6521,22.2481 12.3479,22.2481 12.9271,21.921 C13.8004,21.4278 15.7824,20.2102 17.5584,18.3945 C19.3241,16.5892 21,14.0738 21,11 C21,6.02944 16.9706,2 12,2 Z M16.4935,9.39682 C16.884,9.0063 16.884,8.37314 16.4935,7.98261 C16.103,7.59209 15.4698,7.59209 15.0793,7.98261 L10.8348,12.2271 L9.06698,10.4594 C8.67646,10.0689 8.04329,10.0689 7.65277,10.4594 C7.26225,10.8499 7.26225,11.4831 7.65277,11.8736 L10.0569,14.2778 C10.4865,14.7073 11.183,14.7073 11.6126,14.2778 L16.4935,9.39682 Z" id="形状" fill="#09244B"></path>
            </g>
        </g>
    </g>
</svg>