<?xml version="1.0" encoding="UTF-8"?>
<svg width="24px" height="24px" viewBox="0 0 24 24" version="1.1" xmlns="http://www.w3.org/2000/svg" xmlns:xlink="http://www.w3.org/1999/xlink">
    <title>directions_fill</title>
    <g id="页面-1" stroke="none" stroke-width="1" fill="none" fill-rule="evenodd">
        <g id="Map" transform="translate(-720.000000, -48.000000)" fill-rule="nonzero">
            <g id="directions_fill" transform="translate(720.000000, 48.000000)">
                <rect id="矩形" x="0" y="0" width="24" height="24"></rect>
                <path d="M13,3 C13,2.44772 12.5523,2 12,2 C11.4477,2 11,2.44772 11,3 L11,4 L10,4 C8.89543,4 8,4.89543 8,6 L8,8 C8,9.10457 8.89543,10 10,10 L11,10 L11,11 L7.41421,11 C6.88378,11 6.37507,11.2107 6,11.5858 L4.29289,13.2929 C4.10536,13.4804 4,13.7348 4,14 C4,14.2652 4.10536,14.5196 4.29289,14.7071 L6,16.4142 C6.37507,16.7893 6.88378,17 7.41421,17 L11,17 L11,20 L9,20 C8.44772,20 8,20.4477 8,21 C8,21.5523 8.44772,22 9,22 L15,22 C15.5523,22 16,21.5523 16,21 C16,20.4477 15.5523,20 15,20 L13,20 L13,17 L14,17 C15.1046,17 16,16.1046 16,15 L16,13 C16,11.8954 15.1046,11 14,11 L13,11 L13,10 L16.5858,10 C17.1162,10 17.6249,9.78929 18,9.41421 L19.7071,7.70711 C19.8946,7.51957 20,7.26522 20,7 C20,6.73478 19.8946,6.48043 19.7071,6.29289 L18,4.58579 C17.6249,4.21071 17.1162,4 16.5858,4 L13,4 L13,3 Z" id="路径" fill="#09244B"></path>
            </g>
        </g>
    </g>
</svg>