<?xml version="1.0" encoding="UTF-8"?>
<svg width="24px" height="24px" viewBox="0 0 24 24" version="1.1" xmlns="http://www.w3.org/2000/svg" xmlns:xlink="http://www.w3.org/1999/xlink">
    <title>directions_line</title>
    <g id="页面-1" stroke="none" stroke-width="1" fill="none" fill-rule="evenodd">
        <g id="Map" transform="translate(-720.000000, 0.000000)">
            <g id="directions_line" transform="translate(720.000000, 0.000000)">
                 <path d="M24,0 L24,24 L0,24 L0,0 L24,0 Z M12.5934901,23.257841 L12.5819402,23.2595131 L12.5108777,23.2950439 L12.4918791,23.2987469 L12.4918791,23.2987469 L12.4767152,23.2950439 L12.4056548,23.2595131 C12.3958229,23.2563662 12.3870493,23.2590235 12.3821421,23.2649074 L12.3780323,23.275831 L12.360941,23.7031097 L12.3658947,23.7234994 L12.3769048,23.7357139 L12.4804777,23.8096931 L12.4953491,23.8136134 L12.4953491,23.8136134 L12.5071152,23.8096931 L12.6106902,23.7357139 L12.6232938,23.7196733 L12.6232938,23.7196733 L12.6266527,23.7031097 L12.609561,23.275831 C12.6075724,23.2657013 12.6010112,23.2592993 12.5934901,23.257841 L12.5934901,23.257841 Z M12.8583906,23.1452862 L12.8445485,23.1473072 L12.6598443,23.2396597 L12.6498822,23.2499052 L12.6498822,23.2499052 L12.6471943,23.2611114 L12.6650943,23.6906389 L12.6699349,23.7034178 L12.6699349,23.7034178 L12.678386,23.7104931 L12.8793402,23.8032389 C12.8914285,23.8068999 12.9022333,23.8029875 12.9078286,23.7952264 L12.9118235,23.7811639 L12.8776777,23.1665331 C12.8752882,23.1545897 12.8674102,23.1470016 12.8583906,23.1452862 L12.8583906,23.1452862 Z M12.1430473,23.1473072 C12.1332178,23.1423925 12.1221763,23.1452606 12.1156365,23.1525954 L12.1099173,23.1665331 L12.0757714,23.7811639 C12.0751323,23.7926639 12.0828099,23.8018602 12.0926481,23.8045676 L12.108256,23.8032389 L12.3092106,23.7104931 L12.3186497,23.7024347 L12.3186497,23.7024347 L12.3225043,23.6906389 L12.340401,23.2611114 L12.337245,23.2485176 L12.337245,23.2485176 L12.3277531,23.2396597 L12.1430473,23.1473072 Z" id="MingCute" fill-rule="nonzero"></path>
                <path d="M12,2 C12.5523,2 13,2.44772 13,3 L13,4 L16.5858,4 C17.1162,4 17.6249,4.21071 18,4.58579 L19.7071,6.29289 C19.8946,6.48043 20,6.73478 20,7 C20,7.26522 19.8946,7.51957 19.7071,7.70711 L18,9.41421 C17.6249,9.78929 17.1162,10 16.5858,10 L13,10 L13,11 L14,11 C15.1046,11 16,11.8954 16,13 L16,15 C16,16.1046 15.1046,17 14,17 L13,17 L13,20 L15,20 C15.5523,20 16,20.4477 16,21 C16,21.5523 15.5523,22 15,22 L9,22 C8.44772,22 8,21.5523 8,21 C8,20.4477 8.44772,20 9,20 L11,20 L11,17 L7.41421,17 C6.88378,17 6.37507,16.7893 6,16.4142 L4.29289,14.7071 C4.10536,14.5196 4,14.2652 4,14 C4,13.7348 4.10536,13.4804 4.29289,13.2929 L6,11.5858 C6.37507,11.2107 6.88378,11 7.41421,11 L11,11 L11,10 L10,10 C8.89543,10 8,9.10457 8,8 L8,6 C8,4.89543 8.89543,4 10,4 L11,4 L11,3 C11,2.44772 11.4477,2 12,2 Z M14,13 L7.41421,13 L6.41421,14 L7.41421,15 L14,15 L14,13 Z M16.5858,6 L10,6 L10,8 L16.5858,8 L17.5858,7 L16.5858,6 Z" id="形状" fill="#09244B"></path>
            </g>
        </g>
    </g>
</svg>