<?xml version="1.0" encoding="UTF-8"?>
<svg width="24px" height="24px" viewBox="0 0 24 24" version="1.1" xmlns="http://www.w3.org/2000/svg" xmlns:xlink="http://www.w3.org/1999/xlink">
    <title>earth_longitude_line</title>
    <g id="Icon" stroke="none" stroke-width="1" fill="none" fill-rule="evenodd">
        <g id="Map" transform="translate(-576.000000, -96.000000)">
            <g id="earth_longitude_line" transform="translate(576.000000, 96.000000)">
                <path d="M24,0 L24,24 L0,24 L0,0 L24,0 Z M12.5935,23.2578 L12.5819,23.2595 L12.5109,23.295 L12.4919,23.2987 L12.4767,23.295 L12.4057,23.2595 C12.3958,23.2564 12.387,23.259 12.3821,23.2649 L12.378,23.2758 L12.3609,23.7031 L12.3659,23.7235 L12.3769,23.7357 L12.4805,23.8097 L12.4953,23.8136 L12.5071,23.8097 L12.6107,23.7357 L12.6233,23.7197 L12.6267,23.7031 L12.6096,23.2758 C12.6076,23.2657 12.601,23.2593 12.5935,23.2578 Z M12.8584,23.1453 L12.8445,23.1473 L12.6598,23.2397 L12.6499,23.2499 L12.6472,23.2611 L12.6651,23.6906 L12.6699,23.7034 L12.6784,23.7105 L12.8793,23.8032 C12.8914,23.8069 12.9022,23.803 12.9078,23.7952 L12.9118,23.7812 L12.8777,23.1665 C12.8753,23.1546 12.8674,23.147 12.8584,23.1453 Z M12.143,23.1473 C12.1332,23.1424 12.1222,23.1453 12.1156,23.1526 L12.1099,23.1665 L12.0758,23.7812 C12.0751,23.7927 12.0828,23.8019 12.0926,23.8046 L12.1083,23.8032 L12.3092,23.7105 L12.3186,23.7024 L12.3225,23.6906 L12.3404,23.2611 L12.3372,23.2485 L12.3278,23.2397 L12.143,23.1473 Z" id="MingCute" fill-rule="nonzero"></path>
                <path d="M2,12 C2,6.47715 6.47715,2 12,2 C17.5228,2 22,6.47715 22,12 C22,17.5228 17.5228,22 12,22 C6.47715,22 2,17.5228 2,12 Z M4,12 C4,9.2093 5.42894,6.75234 7.59506,5.32088 C6.61961,7.09426 6,9.44415 6,11.9998 C6,14.5906 6.67287,16.962 7.68287,18.7363 C5.46764,17.3137 4,14.8282 4,12 Z M20,12 C20,14.7908 18.5709,17.2479 16.4046,18.6793 C17.3803,16.9058 18,14.5557 18,11.9998 C18,9.44415 17.3804,7.09426 16.4049,5.32088 C18.5711,6.75234 20,9.2093 20,12 Z M11,19.6112 C10.5199,19.2786 9.98761,18.7119 9.4817,17.8518 C8.62006,16.387 8,14.316 8,11.9998 C8,9.67203 8.58738,7.59985 9.42884,6.14025 C9.94032,5.25304 10.49,4.67525 11,4.34819 L11,19.6112 Z M13,19.6515 L13,4.34819 C13.51,4.67525 14.0597,5.25304 14.5712,6.14025 C15.4126,7.59985 16,9.67203 16,11.9998 C16,14.3275 15.4126,16.3997 14.5711,17.8594 C14.0597,18.7467 13.51,19.3245 13,19.6515 Z" id="形状" fill="#09244B"></path>
            </g>
        </g>
    </g>
</svg>