<?xml version="1.0" encoding="UTF-8"?>
<svg width="24px" height="24px" viewBox="0 0 24 24" version="1.1" xmlns="http://www.w3.org/2000/svg" xmlns:xlink="http://www.w3.org/1999/xlink">
    <title>earth_longitude_fill</title>
    <g id="Icon" stroke="none" stroke-width="1" fill="none" fill-rule="evenodd">
        <g id="Map" transform="translate(-576.000000, -144.000000)" fill-rule="nonzero">
            <g id="earth_longitude_fill" transform="translate(576.000000, 144.000000)">
                <path d="M24,0 L24,24 L0,24 L0,0 L24,0 Z M12.5935,23.2578 L12.5819,23.2595 L12.5109,23.295 L12.4919,23.2987 L12.4767,23.295 L12.4057,23.2595 C12.3958,23.2564 12.387,23.259 12.3821,23.2649 L12.378,23.2758 L12.3609,23.7031 L12.3659,23.7235 L12.3769,23.7357 L12.4805,23.8097 L12.4953,23.8136 L12.5071,23.8097 L12.6107,23.7357 L12.6233,23.7197 L12.6267,23.7031 L12.6096,23.2758 C12.6076,23.2657 12.601,23.2593 12.5935,23.2578 Z M12.8584,23.1453 L12.8445,23.1473 L12.6598,23.2397 L12.6499,23.2499 L12.6472,23.2611 L12.6651,23.6906 L12.6699,23.7034 L12.6784,23.7105 L12.8793,23.8032 C12.8914,23.8069 12.9022,23.803 12.9078,23.7952 L12.9118,23.7812 L12.8777,23.1665 C12.8753,23.1546 12.8674,23.147 12.8584,23.1453 Z M12.143,23.1473 C12.1332,23.1424 12.1222,23.1453 12.1156,23.1526 L12.1099,23.1665 L12.0758,23.7812 C12.0751,23.7927 12.0828,23.8019 12.0926,23.8046 L12.1083,23.8032 L12.3092,23.7105 L12.3186,23.7024 L12.3225,23.6906 L12.3404,23.2611 L12.3372,23.2485 L12.3278,23.2397 L12.143,23.1473 Z" id="MingCute"></path>
                <path d="M8.39304,2.67041 C7.88361,3.17171 7.42395,3.76057 7.02573,4.40112 C5.79473,6.38129 5,9.06683 5,12.0002 C5,14.9459 5.84691,17.6325 7.09927,19.6069 C7.51588,20.2636 7.99667,20.8686 8.52601,21.3802 C4.71568,19.9685 2,16.3015 2,12.0001 C2,7.74901 4.65266,4.11746 8.39304,2.67041 Z M11,3.23551 L11,20.7348 C10.2906,20.3812 9.50478,19.6653 8.78815,18.5356 C7.74471,16.8906 7,14.5773 7,12.0002 C7,9.41062 7.70528,7.09617 8.72427,5.45705 C9.38521154,4.39386846 10.1212972,3.69330278 10.8248515,3.32160308 L11,3.23551 Z M15.607,2.67041 C19.3473,4.11746 22,7.74901 22,12.0001 C22,16.2512 19.3474,19.8827 15.607,21.3298 C16.1164,20.8285 16.5761,20.2397 16.9743,19.5992 C18.2053,17.619 19,14.9335 19,12.0002 C19,9.06683 18.2053,6.38129 16.9743,4.40112 C16.5761,3.76057 16.1164,3.17171 15.607,2.67041 Z M13,3.23551 C13.7555,3.57906 14.5597,4.30527 15.2757,5.45705 C16.2947,7.09617 17,9.41062 17,12.0002 C17,14.5897 16.2947,16.9041 15.2757,18.5433 C14.6147769,19.6064077 13.8787012,20.3069592 13.1751483,20.6786964 L13,20.7648 L13,3.23551 Z" id="形状" fill="#09244B"></path>
            </g>
        </g>
    </g>
</svg>