<?xml version="1.0" encoding="UTF-8"?>
<svg width="24px" height="24px" viewBox="0 0 24 24" version="1.1" xmlns="http://www.w3.org/2000/svg" xmlns:xlink="http://www.w3.org/1999/xlink">
    <title>earth_line</title>
    <g id="页面-1" stroke="none" stroke-width="1" fill="none" fill-rule="evenodd">
        <g id="earth_line">
             <path d="M24,0 L24,24 L0,24 L0,0 L24,0 Z M12.5934901,23.257841 L12.5819402,23.2595131 L12.5108777,23.2950439 L12.4918791,23.2987469 L12.4918791,23.2987469 L12.4767152,23.2950439 L12.4056548,23.2595131 C12.3958229,23.2563662 12.3870493,23.2590235 12.3821421,23.2649074 L12.3780323,23.275831 L12.360941,23.7031097 L12.3658947,23.7234994 L12.3769048,23.7357139 L12.4804777,23.8096931 L12.4953491,23.8136134 L12.4953491,23.8136134 L12.5071152,23.8096931 L12.6106902,23.7357139 L12.6232938,23.7196733 L12.6232938,23.7196733 L12.6266527,23.7031097 L12.609561,23.275831 C12.6075724,23.2657013 12.6010112,23.2592993 12.5934901,23.257841 L12.5934901,23.257841 Z M12.8583906,23.1452862 L12.8445485,23.1473072 L12.6598443,23.2396597 L12.6498822,23.2499052 L12.6498822,23.2499052 L12.6471943,23.2611114 L12.6650943,23.6906389 L12.6699349,23.7034178 L12.6699349,23.7034178 L12.678386,23.7104931 L12.8793402,23.8032389 C12.8914285,23.8068999 12.9022333,23.8029875 12.9078286,23.7952264 L12.9118235,23.7811639 L12.8776777,23.1665331 C12.8752882,23.1545897 12.8674102,23.1470016 12.8583906,23.1452862 L12.8583906,23.1452862 Z M12.1430473,23.1473072 C12.1332178,23.1423925 12.1221763,23.1452606 12.1156365,23.1525954 L12.1099173,23.1665331 L12.0757714,23.7811639 C12.0751323,23.7926639 12.0828099,23.8018602 12.0926481,23.8045676 L12.108256,23.8032389 L12.3092106,23.7104931 L12.3186497,23.7024347 L12.3186497,23.7024347 L12.3225043,23.6906389 L12.340401,23.2611114 L12.337245,23.2485176 L12.337245,23.2485176 L12.3277531,23.2396597 L12.1430473,23.1473072 Z" id="MingCute" fill-rule="nonzero"></path>
            <path d="M12,2 C17.5228,2 22,6.47715 22,12 C22,17.5228 17.5228,22 12,22 C6.47715,22 2,17.5228 2,12 C2,6.47715 6.47715,2 12,2 Z M13.6826,15.9496 C12.5869,16.016 11.4131,16.016 10.3174,15.9496 C10.4526,16.7361 10.6259,17.4435 10.8274,18.0478 C11.0794,18.8039 11.3575,19.3437 11.6177,19.6739 C11.7052,19.7849 11.8398,20 12.0019,20 C12.1468,19.987 12.3044,19.7728 12.3823,19.6739 C12.6425,19.3437 12.9206,18.8039 13.1726,18.0478 C13.3741,17.4435 13.5474,16.7361 13.6826,15.9496 Z M19.513,14.7548 C19.2483,14.8687 18.9695,14.9736 18.6803,15.07 C17.8278,15.3542 16.8324,15.5816 15.7405,15.7405 C15.5816,16.8324 15.3542,17.8278 15.07,18.6803 C14.9736,18.9695 14.8687,19.2483 14.7548,19.513 C16.957,18.7053 18.7053,16.957 19.513,14.7548 Z M4.48693,14.7547 C5.29463,16.957 7.04296,18.7053 9.24517,19.513 C9.13131,19.2483 9.02639,18.9695 8.93,18.6803 C8.64583,17.8278 8.41836,16.8324 8.25952,15.7405 C7.16765,15.5816 6.17233,15.3541 5.3199,15.07 C5.03063,14.9736 4.75171,14.8686 4.48693,14.7547 Z M10.0718,10.0718 C9.97457,11.3542 9.97456,12.6458 10.0718,13.9282 C11.3542,14.0254 12.6458,14.0254 13.9282,13.9282 C14.0254,12.6458 14.0254,11.3542 13.9282,10.0718 C12.6458,9.97456 11.3542,9.97456 10.0718,10.0718 Z M15.9496,10.3174 C16.016,11.4131 16.016,12.5869 15.9496,13.6826 C16.7361,13.5474 17.4435,13.3741 18.0478,13.1726 C18.8039,12.9206 19.3437,12.6425 19.6739,12.3823 C19.784,12.2955 20,12.1585 20,11.9981 C19.9869,11.8532 19.7728,11.6956 19.6739,11.6177 C19.3437,11.3575 18.8039,11.0794 18.0478,10.8274 C17.4435,10.6259 16.7361,10.4526 15.9496,10.3174 Z M8.05044,10.3175 C7.26396,10.4527 6.55663,10.6259 5.95236,10.8274 C5.19625,11.0794 4.65651,11.3575 4.32633,11.6177 C4.08682,11.8064 4.01366,11.9502 4.00315,11.9847 C3.95762,12.1341 4.23255,12.3084 4.32633,12.3823 C4.65651,12.6425 5.19625,12.9206 5.95236,13.1726 C6.55663,13.3741 7.26396,13.5473 8.05044,13.6825 C7.98396,12.5869 7.98397,11.4131 8.05044,10.3175 Z M9.24526,4.48693 C7.04301,5.29465 5.29465,7.04301 4.48693,9.24526 C4.75171,9.13137 5.03063,9.02642 5.3199,8.93 C6.17233,8.64585 7.16767,8.41838 8.25955,8.25955 C8.41839,7.16767 8.64585,6.17234 8.93,5.3199 C9.02642,5.03063 9.13137,4.75171 9.24526,4.48693 Z M14.7547,4.48693 C14.8686,4.75171 14.9736,5.03063 15.07,5.3199 C15.3541,6.17233 15.5816,7.16765 15.7404,8.25952 C16.8324,8.41836 17.8278,8.64584 18.6803,8.93 C18.9695,9.0264 19.2483,9.13131 19.513,9.24517 C18.7053,7.04296 16.957,5.29463 14.7547,4.48693 Z M12,4.00008878 C11.8612,3.99965 11.6884,4.23658 11.6177,4.32633 C11.3575,4.65651 11.0794,5.19625 10.8274,5.95236 C10.6259,6.55663 10.4527,7.26396 10.3175,8.05044 C11.4131,7.98397 12.5869,7.98396 13.6825,8.05044 C13.5473,7.26396 13.3741,6.55663 13.1726,5.95236 C12.9206,5.19625 12.6425,4.65651 12.3823,4.32633 C12.3116,4.23658 12.1388,3.99965 12,4.00008878 Z" id="形状结合" fill="#09244B" fill-rule="nonzero"></path>
        </g>
    </g>
</svg>