<svg xmlns="http://www.w3.org/2000/svg" width="24" height="24" viewBox="0 0 24 24"><g fill="none"><path d="M24,0 L24,24 L0,24 L0,0 L24,0 Z M12.5935,23.2578 L12.5819,23.2595 L12.5109,23.295 L12.4919,23.2987 L12.4767,23.295 L12.4057,23.2595 C12.3958,23.2564 12.387,23.259 12.3821,23.2649 L12.378,23.2758 L12.3609,23.7031 L12.3659,23.7235 L12.3769,23.7357 L12.4805,23.8097 L12.4953,23.8136 L12.5071,23.8097 L12.6107,23.7357 L12.6233,23.7197 L12.6267,23.7031 L12.6096,23.2758 C12.6076,23.2657 12.601,23.2593 12.5935,23.2578 Z M12.8584,23.1453 L12.8445,23.1473 L12.6598,23.2397 L12.6499,23.2499 L12.6472,23.2611 L12.6651,23.6906 L12.6699,23.7034 L12.6784,23.7105 L12.8793,23.8032 C12.8914,23.8069 12.9022,23.803 12.9078,23.7952 L12.9118,23.7812 L12.8777,23.1665 C12.8753,23.1546 12.8674,23.147 12.8584,23.1453 Z M12.143,23.1473 C12.1332,23.1424 12.1222,23.1453 12.1156,23.1526 L12.1099,23.1665 L12.0758,23.7812 C12.0751,23.7927 12.0828,23.8019 12.0926,23.8046 L12.1083,23.8032 L12.3092,23.7105 L12.3186,23.7024 L12.3225,23.6906 L12.3404,23.2611 L12.3372,23.2485 L12.3278,23.2397 L12.143,23.1473 Z"/><path fill="#09244B" d="M13.6488,2.13528 C13.1124,2.0463 12.5616,2 12,2 C11.4384,2 10.8876,2.0463 10.3512,2.13528 C10.015,2.59053 9.68737,3.17975 9.38754,3.89933 C9.10595,4.57517 8.85761,5.34489 8.65175,6.19024 C9.72228,6.06576 10.8453,6 12,6 C13.1547,6 14.2777,6.06576 15.3482,6.19024 C15.1424,5.34489 14.8941,4.57517 14.6125,3.89933 C14.3126,3.17975 13.985,2.59053 13.6488,2.13528 Z M15.7424,8.25762 C14.5764,8.09154 13.3177,8 12,8 C10.6823,8 9.42358,8.09154 8.25762,8.25762 C8.09154,9.42358 8,10.6823 8,12 C8,13.3177 8.09154,14.5764 8.25762,15.7424 C9.42358,15.9085 10.6823,16 12,16 C13.3177,16 14.5764,15.9085 15.7424,15.7424 C15.9085,14.5764 16,13.3177 16,12 C16,10.6823 15.9085,9.42358 15.7424,8.25762 Z M17.8098,15.3482 C17.9342,14.2777 18,13.1547 18,12 C18,10.8453 17.9342,9.72228 17.8098,8.65175 C18.6551,8.85761 19.4248,9.10595 20.1007,9.38754 C20.8203,9.68737 21.4095,10.015 21.8647,10.3512 C21.9537,10.8876 22,11.4384 22,12 C22,12.5616 21.9537,13.1124 21.8647,13.6488 C21.4095,13.985 20.8203,14.3126 20.1007,14.6125 C19.4248,14.8941 18.6551,15.1424 17.8098,15.3482 Z M15.3482,17.8098 C14.2777,17.9342 13.1547,18 12,18 C10.8453,18 9.72228,17.9342 8.65175,17.8098 C8.85761,18.6551 9.10595,19.4248 9.38754,20.1007 C9.68737,20.8203 10.015,21.4095 10.3512,21.8647 C10.8876,21.9537 11.4384,22 12,22 C12.5616,22 13.1124,21.9537 13.6488,21.8647 C13.985,21.4095 14.3126,20.8203 14.6125,20.1007 C14.8941,19.4248 15.1424,18.6551 15.3482,17.8098 Z M16.4141,20.9756 L16.4586,20.8699 C16.8737,19.8736 17.2165,18.7269 17.4726,17.4726 C18.5701125,17.2485125 19.5852437,16.9580453 20.4893211,16.6108453 L20.9756,16.4141 L20.9756,16.4141 C20.001,18.392 18.392,20.001 16.4141,20.9756 Z M7.58593,20.9756 L7.54139,20.8699 C7.12627,19.8736 6.78349,18.7269 6.52744,17.4726 C5.42986625,17.2485125 4.41474266,16.9580453 3.51067488,16.6108453 L3.02444,16.4141 L3.02444,16.4141 C3.99898,18.392 5.60805,20.001 7.58593,20.9756 Z M6.19024,15.3482 C6.06576,14.2777 6,13.1547 6,12 C6,10.8453 6.06576,9.72228 6.19024,8.65175 C5.34489,8.85761 4.57517,9.10595 3.89933,9.38754 C3.17975,9.68737 2.59053,10.015 2.13528,10.3512 C2.0463,10.8876 2,11.4384 2,12 C2,12.5616 2.0463,13.1124 2.13528,13.6488 C2.59053,13.985 3.17975,14.3126 3.89933,14.6125 C4.57517,14.8941 5.34489,15.1424 6.19024,15.3482 Z M6.52744,6.52744 C6.75148375,5.42986625 7.04193016,4.41474266 7.38913904,3.51067488 L7.58593,3.02444 L7.58593,3.02444 C5.60805,3.99898 3.99898,5.60805 3.02444,7.58593 L3.1301,7.54139 C4.12639,7.12627 5.27307,6.78349 6.52744,6.52744 Z M17.4726,6.52744 C17.2485125,5.42986625 16.9580453,4.41474266 16.6108453,3.51067488 L16.4141,3.02444 L16.4141,3.02444 C18.392,3.99898 20.001,5.60805 20.9756,7.58593 L20.8699,7.54139 C19.8736,7.12627 18.7269,6.78349 17.4726,6.52744 Z"/></g></svg>