<?xml version="1.0" encoding="UTF-8"?>
<svg width="24px" height="24px" viewBox="0 0 24 24" version="1.1" xmlns="http://www.w3.org/2000/svg" xmlns:xlink="http://www.w3.org/1999/xlink">
    <title>earth_fill</title>
    <g id="页面-1" stroke="none" stroke-width="1" fill="none" fill-rule="evenodd">
        <g id="Map" transform="translate(-96.000000, -48.000000)" fill-rule="nonzero">
            <g id="earth_fill" transform="translate(96.000000, 48.000000)">
                <rect id="矩形" transform="translate(12.000000, 12.000000) scale(-1, 1) translate(-12.000000, -12.000000) " x="0" y="0" width="24" height="24"></rect>
                <path d="M12,2 C17.5228,2 22,6.47715 22,12 C22,17.5228 17.5228,22 12,22 C6.47715,22 2,17.5228 2,12 C2,6.47715 6.47715,2 12,2 Z M12,3 C10.4971,3 9.51337,4.33444 8.94822,5.76964 C8.6672,6.48328 8.44251,7.32683 8.28252,8.28252 C7.32683,8.44251 6.48328,8.6672 5.76965,8.94822 C4.33444,9.51337 3,10.4971 3,12 C3,13.5029 4.33444,14.4866 5.76965,15.0518 C6.48328,15.3328 7.32683,15.5575 8.28252,15.7175 C8.44251,16.6732 8.6672,17.5167 8.94822,18.2304 C9.51337,19.6656 10.4971,21 12,21 C13.5029,21 14.4866,19.6656 15.0518,18.2304 C15.3328,17.5167 15.5575,16.6732 15.7175,15.7175 C16.6732,15.5575 17.5167,15.3328 18.2304,15.0518 C19.6656,14.4866 21,13.5029 21,12 C21,10.4971 19.6656,9.51337 18.2304,8.94822 C17.5167,8.6672 16.6732,8.44251 15.7175,8.28252 C15.5575,7.32683 15.3328,6.48328 15.0518,5.76964 C14.4866,4.33444 13.5029,3 12,3 Z M13.6392,15.9501 C13.5145,16.5446 13.3624,17.0618 13.1909,17.4976 C12.72227,18.68749 12.257285,18.952522 12.0567083,18.9936295 L12,19 L12,19 L11.9432917,18.9936295 C11.742715,18.952522 11.27773,18.68749 10.8091,17.4976 C10.6376,17.0618 10.4855,16.5446 10.3608,15.9501 C11.4515,16.0187 12.5485,16.0187 13.6392,15.9501 Z M10.0757,10.0757 C11.3537,9.97029 12.6463,9.97029 13.9243,10.0757 C14.0297,11.3537 14.0297,12.6463 13.9243,13.9243 C12.6463,14.0297 11.3537,14.0297 10.0757,13.9243 C9.97029,12.6463 9.97029,11.3537 10.0757,10.0757 Z M8.04986,10.3609 C7.98134,11.4515 7.98134,12.5485 8.04986,13.6391 C7.45541,13.5145 6.93816,13.3624 6.50243,13.1909 C5.312495,12.72227 5.0474747,12.257285 5.00636999,12.0567083 L5,12 L5,12 L5.00636999,11.9432917 C5.0474747,11.742715 5.312495,11.27773 6.50243,10.8091 C6.93816,10.6376 7.45541,10.4855 8.04986,10.3609 Z M15.9501,10.3609 C16.5446,10.4855 17.0618,10.6376 17.4976,10.8091 C18.753595,11.303765 18.9791155,11.7943688 18.9985276,11.9742282 L19,12 C19,12.154 18.8197,12.6702 17.4976,13.1909 C17.0618,13.3624 16.5446,13.5145 15.9501,13.6391 C16.0187,12.5485 16.0187,11.4515 15.9501,10.3609 Z M11.9742282,5.0014723 L12,5 C12.154,5 12.6702,5.18028 13.1909,6.50243 C13.3624,6.93816 13.5145,7.45541 13.6392,8.04986 C12.5485,7.98134 11.4515,7.98134 10.3608,8.04986 C10.4855,7.45541 10.6376,6.93816 10.8091,6.50243 C11.303765,5.2463875 11.7943688,5.02088268 11.9742282,5.0014723 L11.9742282,5.0014723 Z" id="形状" fill="#09244B"></path>
            </g>
        </g>
    </g>
</svg>