<?xml version="1.0" encoding="UTF-8"?>
<svg width="24px" height="24px" viewBox="0 0 24 24" version="1.1" xmlns="http://www.w3.org/2000/svg" xmlns:xlink="http://www.w3.org/1999/xlink">
    <title>earth_2_line</title>
    <g id="Icon" stroke="none" stroke-width="1" fill="none" fill-rule="evenodd">
        <g id="Map" transform="translate(-480.000000, -96.000000)">
            <g id="earth_2_line" transform="translate(480.000000, 96.000000)">
                <path d="M24,0 L24,24 L0,24 L0,0 L24,0 Z M12.5935,23.2578 L12.5819,23.2595 L12.5109,23.295 L12.4919,23.2987 L12.4767,23.295 L12.4057,23.2595 C12.3958,23.2564 12.387,23.259 12.3821,23.2649 L12.378,23.2758 L12.3609,23.7031 L12.3659,23.7235 L12.3769,23.7357 L12.4805,23.8097 L12.4953,23.8136 L12.5071,23.8097 L12.6107,23.7357 L12.6233,23.7197 L12.6267,23.7031 L12.6096,23.2758 C12.6076,23.2657 12.601,23.2593 12.5935,23.2578 Z M12.8584,23.1453 L12.8445,23.1473 L12.6598,23.2397 L12.6499,23.2499 L12.6472,23.2611 L12.6651,23.6906 L12.6699,23.7034 L12.6784,23.7105 L12.8793,23.8032 C12.8914,23.8069 12.9022,23.803 12.9078,23.7952 L12.9118,23.7812 L12.8777,23.1665 C12.8753,23.1546 12.8674,23.147 12.8584,23.1453 Z M12.143,23.1473 C12.1332,23.1424 12.1222,23.1453 12.1156,23.1526 L12.1099,23.1665 L12.0758,23.7812 C12.0751,23.7927 12.0828,23.8019 12.0926,23.8046 L12.1083,23.8032 L12.3092,23.7105 L12.3186,23.7024 L12.3225,23.6906 L12.3404,23.2611 L12.3372,23.2485 L12.3278,23.2397 L12.143,23.1473 Z" id="MingCute" fill-rule="nonzero"></path>
                <path d="M12,2 C17.5228,2 22,6.47715 22,12 C22,17.5228 17.5228,22 12,22 C6.47715,22 2,17.5228 2,12 C2,6.47715 6.47715,2 12,2 Z M13.482,16.9397 C12.9932,16.9796 12.4989,16.9999 12,16.9999 C11.5011,16.9999 11.0068,16.9796 10.518,16.9397 C10.6112,17.3366 10.7148,17.7054 10.8272,18.0422 C11.0792,18.7969 11.3571,19.3353 11.6171,19.6645 C11.7447,19.8262 11.8486,19.9125 11.9177,19.9548 L11.9691963,19.9815111 L11.9691963,19.9815111 L11.9999,19.99 L11.9999,19.99 L12.0308037,19.9815111 L12.0308037,19.9815111 L12.0823,19.9548 L12.0823,19.9548 C12.1514,19.9125 12.2553,19.8262 12.3829,19.6645 C12.6429,19.3353 12.9208,18.7969 13.1728,18.0422 C13.2852,17.7054 13.3888,17.3366 13.482,16.9397 Z M4.80654,15.5047 C5.70841,17.3524 7.30116,18.801 9.24845,19.5142 C9.13338,19.2478 9.02742,18.9669 8.93014,18.6755 C8.72645,18.0653 8.55189,17.3818 8.41085,16.6419 C7.15745,16.3882 5.95104,16.0042 4.80654,15.5047 Z M19.1935,15.5047 C18.049,16.0042 16.8425,16.3882 15.5891,16.6419 C15.4481,17.3818 15.2735,18.0653 15.0699,18.6755 C14.9726,18.9669 14.8666,19.2478 14.7515,19.5142 C16.6988,18.801 18.2916,17.3524 19.1935,15.5047 Z M13.9757,10.8709 C13.3291,10.9561 12.6696,11 12,11 C11.3304,11 10.6709,10.9561 10.0243,10.8709 C10.0083,11.2393 10,11.6161 10,11.9998 C10,13.0237 10.0591,13.9985 10.1655,14.896 C10.7674,14.9646 11.3795,14.9999 12,14.9999 C12.6205,14.9999 13.2326,14.9646 13.8345,14.896 C13.9409,13.9985 14,13.0237 14,11.9998 C14,11.6161 13.9917,11.2393 13.9757,10.8709 Z M4.56847,9.03244 C4.20172,9.95005 4,10.9515 4,12 C4,12.3 4.01652,12.5962 4.04869,12.8876 C5.30665,13.6095 6.67199,14.1654 8.11527,14.5253 C8.03978,13.7174 8,12.8703 8,11.9998 C8,11.481 8.01412,10.9706 8.04151,10.4719 C6.81408,10.1369 5.64914,9.64991 4.56847,9.03244 Z M19.4315,9.03241 C18.3508,9.64988 17.1859,10.1369 15.9585,10.4719 C15.9859,10.9706 16,11.481 16,11.9998 C16,12.8703 15.9602,13.7174 15.8847,14.5253 C17.328,14.1654 18.6934,13.6095 19.9513,12.8876 C19.9835,12.5962 20,12.3 20,12 C20,10.9515 19.7983,9.95003 19.4315,9.03241 Z M12.0159,4.0129 L12.0045125,4.01016034 L12.0045125,4.01016034 L11.9841,4.0129 L11.9841,4.0129 L11.9470704,4.02841778 C11.9384889,4.03278333 11.9287,4.03820667 11.9177,4.04494 C11.8486,4.08729 11.7447,4.17358 11.6171,4.33523 C11.3571,4.66441 11.0792,5.20276 10.8272,5.95747 C10.5578,6.7646 10.3386,7.75629 10.1938,8.87564 C10.784,8.95762 11.387,9 12,9 C12.613,9 13.216,8.95762 13.8062,8.87563 C13.6613,7.75628 13.4422,6.7646 13.1728,5.95747 C12.9208,5.20276 12.6429,4.66441 12.3829,4.33523 C12.2553,4.17358 12.1514,4.08729 12.0823,4.04494 L12.0159,4.0129 L12.0159,4.0129 Z M9.24828,4.48582 C7.75087,5.03434 6.46311,6.01768 5.53796,7.28293 C6.38148,7.76717 7.28443,8.15949 8.23335,8.44623 C8.39294,7.2823 8.6299,6.22349 8.93014,5.32414 C9.02738,5.03288 9.13328,4.75216 9.24828,4.48582 Z M14.7517,4.48582 C14.8667,4.75216 14.9726,5.03288 15.0699,5.32414 C15.3701,6.22349 15.6071,7.28229 15.7667,8.44621 C16.7156,8.15946 17.6185,7.76714 18.462,7.2829 C17.5369,6.01767 16.2491,5.03433 14.7517,4.48582 Z" id="形状" fill="#09244B"></path>
            </g>
        </g>
    </g>
</svg>