<svg xmlns="http://www.w3.org/2000/svg" width="24" height="24" viewBox="0 0 24 24"><title>earth_4_fill</title><g fill="none" fill-rule="nonzero"><path d="M24 0v24H0V0zM12.594 23.258l-.012.002-.071.035-.02.004-.014-.004-.071-.036q-.016-.004-.024.006l-.004.01-.017.428.005.02.01.013.104.074.015.004.012-.004.104-.074.012-.016.004-.017-.017-.427q-.004-.016-.016-.018m.264-.113-.014.002-.184.093-.01.01-.003.011.018.43.005.012.008.008.201.092q.019.005.029-.008l.004-.014-.034-.614q-.005-.019-.02-.022m-.715.002a.02.02 0 0 0-.027.006l-.006.014-.034.614q.001.018.017.024l.015-.002.201-.093.01-.008.003-.011.018-.43-.003-.012-.01-.01z"/><path fill="#09244b" d="M14.98 13c-.095 2.533-.546 4.78-1.165 6.426-.352.934-.74 1.626-1.11 2.065-.386.458-.633.509-.705.509l-.05-.006c-.108-.022-.333-.121-.654-.503-.37-.44-.759-1.131-1.11-2.065C9.566 17.78 9.115 15.533 9.02 13zM7.02 13c.096 2.744.582 5.236 1.295 7.13q.283.749.623 1.39C5.217 20.324 2.448 17.012 2.05 13zm14.931 0c-.398 4.012-3.168 7.324-6.887 8.52q.34-.64.622-1.39c.714-1.893 1.2-4.386 1.296-7.13zM8.937 2.48c-.227.425-.435.891-.623 1.39-.713 1.893-1.2 4.386-1.295 7.13h-4.97c.4-4.012 3.168-7.325 6.888-8.52M12 2l.05.006c.108.022.333.121.654.503.37.44.759 1.132 1.11 2.065.62 1.646 1.071 3.893 1.166 6.426H9.02c.095-2.533.546-4.78 1.165-6.426.352-.933.74-1.626 1.11-2.065C11.682 2.05 11.929 2 12 2m3.063.48c3.72 1.195 6.489 4.508 6.887 8.52h-4.969c-.096-2.744-.582-5.237-1.296-7.13a12 12 0 0 0-.623-1.39"/></g></svg>