<?xml version="1.0" encoding="UTF-8"?>
<svg width="24px" height="24px" viewBox="0 0 24 24" version="1.1" xmlns="http://www.w3.org/2000/svg" xmlns:xlink="http://www.w3.org/1999/xlink">
    <title>foot_fill</title>
    <g id="页面-1" stroke="none" stroke-width="1" fill="none" fill-rule="evenodd">
        <g id="Map" transform="translate(-768.000000, -48.000000)" fill-rule="nonzero">
            <g id="foot_fill" transform="translate(768.000000, 48.000000)">
                <rect id="矩形" x="0" y="0" width="24" height="24"></rect>
                <path d="M7.95965,7.25709 C9.35656,6.20969 11.3117,5.74588 13.2081,6.13844 C16.9707,6.91731 18.9332,9.929 18.9989,13.6782 C19.0523,16.7248 17.1181,20.4774 14.1763,21.6909 C12.4161,22.417 10.1297,21.6748 9.41342,19.8177 C9.14612,19.1247 9.1986562,18.4516488 9.31077943,17.7743923 L9.3915,17.322 C9.44945,17.0085 9.50776,16.6931 9.541,16.3732 C9.608425,15.724225 9.23701,15.3203312 8.76829234,14.9854703 L8.52740615,14.8229775 L8.52740615,14.8229775 L7.97239,14.4721 L7.97239,14.4721 L7.7056577,14.2896426 C7.07520406,13.838725 6.4085,13.19665 6.13179,12.0511 C5.64736,10.0455 6.54109,8.32073 7.95965,7.25709 Z M5,3.5 C6.10457,3.5 7,4.39543 7,5.5 C7,6.60457 6.10457,7.5 5,7.5 C3.89543,7.5 3,6.60457 3,5.5 C3,4.39543 3.89543,3.5 5,3.5 Z M18.5,4.5 C19.0523,4.5 19.5,4.94772 19.5,5.5 C19.5,6.05228 19.0523,6.5 18.5,6.5 C17.9477,6.5 17.5,6.05228 17.5,5.5 C17.5,4.94772 17.9477,4.5 18.5,4.5 Z M9.5,2 C10.3284,2 11,2.67157 11,3.5 C11,4.32843 10.3284,5 9.5,5 C8.67157,5 8,4.32843 8,3.5 C8,2.67157 8.67157,2 9.5,2 Z M14.5,2 C15.3284,2 16,2.67157 16,3.5 C16,4.32843 15.3284,5 14.5,5 C13.6716,5 13,4.32843 13,3.5 C13,2.67157 13.6716,2 14.5,2 Z" id="形状" fill="#09244B"></path>
            </g>
        </g>
    </g>
</svg>