<?xml version="1.0" encoding="UTF-8"?>
<svg width="24px" height="24px" viewBox="0 0 24 24" version="1.1" xmlns="http://www.w3.org/2000/svg" xmlns:xlink="http://www.w3.org/1999/xlink">
    <title>lifebuoy_fill</title>
    <g id="页面-1" stroke="none" stroke-width="1" fill="none" fill-rule="evenodd">
        <g id="Map" transform="translate(-816.000000, -48.000000)">
            <g id="lifebuoy_fill" transform="translate(816.000000, 48.000000)">
                <rect id="矩形" fill-rule="nonzero" x="0" y="0" width="24" height="24"></rect>
                <path d="M2,12 C2,6.47715 6.47715,2 12,2 C17.5228,2 22,6.47715 22,12 C22,17.5228 17.5228,22 12,22 C6.47715,22 2,17.5228 2,12 Z M9,12 C9,10.3431 10.3431,9 12,9 C13.6569,9 15,10.3431 15,12 C15,13.6569 13.6569,15 12,15 C10.3431,15 9,13.6569 9,12 Z M16.7678,9.3535425 C16.3773,9.74407 15.7441,9.74407 15.3536,9.3535425 L14.6465,8.64644 C14.2559,8.25591 14.2559,7.62275 14.6465,7.23222 L16.2322,5.64644 C16.6228,5.25591 17.2559,5.25591 17.6465,5.64644 L18.3536,6.3535425 C18.7441,6.74407 18.7441,7.37723 18.3536,7.76776 L16.7678,9.3535425 Z M5.64646,7.76776 C5.25593,7.37723 5.25593,6.74407 5.64646,6.3535425 L6.3535625,5.64644 C6.74409,5.25591 7.37725,5.25591 7.76778,5.64644 L9.3535625,7.23222 C9.74409,7.62275 9.74409,8.25591 9.3535625,8.64644 L8.64645,9.3535425 C8.25593,9.74407 7.62277,9.74407 7.23224,9.3535425 L5.64646,7.76776 Z M16.7678,14.6464 C16.3772,14.2559 15.7441,14.2559 15.3536,14.6464 L14.6464,15.3536 C14.2559,15.7441 14.2559,16.3772 14.6464,16.7678 L16.2322,18.3536 C16.6228,18.7441 17.2559,18.7441 17.6464,18.3536 L18.3536,17.6464 C18.7441,17.2559 18.7441,16.6228 18.3536,16.2322 L16.7678,14.6464 Z M7.23223,14.6464 C7.62276,14.2559 8.25592,14.2559 8.64645,14.6464 L9.3535525,15.3536 C9.74408,15.7441 9.74408,16.3772 9.3535525,16.7678 L7.76777,18.3536 C7.37724,18.7441 6.74408,18.7441 6.3535525,18.3536 L5.64645,17.6464 C5.25592,17.2559 5.25592,16.6228 5.64645,16.2322 L7.23223,14.6464 Z" id="形状" fill="#09244B"></path>
            </g>
        </g>
    </g>
</svg>