<?xml version="1.0" encoding="UTF-8"?>
<svg width="24px" height="24px" viewBox="0 0 24 24" version="1.1" xmlns="http://www.w3.org/2000/svg" xmlns:xlink="http://www.w3.org/1999/xlink">
    <title>lifebuoy_line</title>
    <g id="页面-1" stroke="none" stroke-width="1" fill="none" fill-rule="evenodd">
        <g id="Map" transform="translate(-816.000000, 0.000000)">
            <g id="lifebuoy_line" transform="translate(816.000000, 0.000000)">
                 <path d="M24,0 L24,24 L0,24 L0,0 L24,0 Z M12.5934901,23.257841 L12.5819402,23.2595131 L12.5108777,23.2950439 L12.4918791,23.2987469 L12.4918791,23.2987469 L12.4767152,23.2950439 L12.4056548,23.2595131 C12.3958229,23.2563662 12.3870493,23.2590235 12.3821421,23.2649074 L12.3780323,23.275831 L12.360941,23.7031097 L12.3658947,23.7234994 L12.3769048,23.7357139 L12.4804777,23.8096931 L12.4953491,23.8136134 L12.4953491,23.8136134 L12.5071152,23.8096931 L12.6106902,23.7357139 L12.6232938,23.7196733 L12.6232938,23.7196733 L12.6266527,23.7031097 L12.609561,23.275831 C12.6075724,23.2657013 12.6010112,23.2592993 12.5934901,23.257841 L12.5934901,23.257841 Z M12.8583906,23.1452862 L12.8445485,23.1473072 L12.6598443,23.2396597 L12.6498822,23.2499052 L12.6498822,23.2499052 L12.6471943,23.2611114 L12.6650943,23.6906389 L12.6699349,23.7034178 L12.6699349,23.7034178 L12.678386,23.7104931 L12.8793402,23.8032389 C12.8914285,23.8068999 12.9022333,23.8029875 12.9078286,23.7952264 L12.9118235,23.7811639 L12.8776777,23.1665331 C12.8752882,23.1545897 12.8674102,23.1470016 12.8583906,23.1452862 L12.8583906,23.1452862 Z M12.1430473,23.1473072 C12.1332178,23.1423925 12.1221763,23.1452606 12.1156365,23.1525954 L12.1099173,23.1665331 L12.0757714,23.7811639 C12.0751323,23.7926639 12.0828099,23.8018602 12.0926481,23.8045676 L12.108256,23.8032389 L12.3092106,23.7104931 L12.3186497,23.7024347 L12.3186497,23.7024347 L12.3225043,23.6906389 L12.340401,23.2611114 L12.337245,23.2485176 L12.337245,23.2485176 L12.3277531,23.2396597 L12.1430473,23.1473072 Z" id="MingCute" fill-rule="nonzero"></path>
                <path d="M12,2 C17.5228,2 22,6.47715 22,12 C22,17.5228 17.5228,22 12,22 C6.47715,22 2,17.5228 2,12 C2,6.47715 6.47715,2 12,2 Z M14.3128,16.4341 C13.6212,16.7956 12.8344,17 12,17 C11.2582222,17 10.5542123,16.8384988 9.92120472,16.5487166 L9.68722,16.4341 L7.50357,18.6178 C8.78498,19.4901 10.3329,20 12,20 C13.55596,20 15.0080836,19.5558204 16.2366103,18.7873843 L16.4964,18.6178 L14.3128,16.4341 Z M5.38225,7.50357 C4.5099,8.78498 4,10.3329 4,12 C4,13.6671 4.5099,15.215 5.38225,16.4964 L7.5659,14.3128 C7.20441,13.6212 7,12.8345 7,12 C7,11.1655 7.20441,10.3788 7.5659,9.68722 L5.38225,7.50357 Z M18.6178,7.50357 L16.4341,9.68722 C16.7956,10.3788 17,11.1655 17,12 C17,12.8345 16.7956,13.6212 16.4341,14.3128 L18.6177,16.4964 C19.4901,15.215 20,13.6671 20,12 C20,10.3329 19.4901,8.78498 18.6178,7.50357 Z M12,9 C10.3431,9 9,10.3431 9,12 C9,13.6569 10.3431,15 12,15 C13.6569,15 15,13.6569 15,12 C15,10.3431 13.6569,9 12,9 Z M12,4 C10.44404,4 8.99189902,4.44417956 7.76336181,5.21265636 L7.50357,5.38225 L9.68722,7.5659 C10.3788,7.20441 11.1655,7 12,7 C12.7417778,7 13.4457877,7.16150914 14.0788093,7.45128604 L14.3128,7.5659 L16.4964,5.38225 C15.215,4.5099 13.6671,4 12,4 Z" id="形状" fill="#09244B"></path>
            </g>
        </g>
    </g>
</svg>