<?xml version="1.0" encoding="UTF-8"?>
<svg width="24px" height="24px" viewBox="0 0 24 24" version="1.1" xmlns="http://www.w3.org/2000/svg" xmlns:xlink="http://www.w3.org/1999/xlink">
    <title>lifebuoy_fill</title>
    <g id="页面-1" stroke="none" stroke-width="1" fill="none" fill-rule="evenodd">
        <g id="Map" transform="translate(-816.000000, -48.000000)">
            <g id="lifebuoy_fill" transform="translate(816.000000, 48.000000)">
                <path d="M24,0 L24,24 L0,24 L0,0 L24,0 Z M12.5934901,23.257841 L12.5819402,23.2595131 L12.5108777,23.2950439 L12.4918791,23.2987469 L12.4918791,23.2987469 L12.4767152,23.2950439 L12.4056548,23.2595131 C12.3958229,23.2563662 12.3870493,23.2590235 12.3821421,23.2649074 L12.3780323,23.275831 L12.360941,23.7031097 L12.3658947,23.7234994 L12.3769048,23.7357139 L12.4804777,23.8096931 L12.4953491,23.8136134 L12.4953491,23.8136134 L12.5071152,23.8096931 L12.6106902,23.7357139 L12.6232938,23.7196733 L12.6232938,23.7196733 L12.6266527,23.7031097 L12.609561,23.275831 C12.6075724,23.2657013 12.6010112,23.2592993 12.5934901,23.257841 L12.5934901,23.257841 Z M12.8583906,23.1452862 L12.8445485,23.1473072 L12.6598443,23.2396597 L12.6498822,23.2499052 L12.6498822,23.2499052 L12.6471943,23.2611114 L12.6650943,23.6906389 L12.6699349,23.7034178 L12.6699349,23.7034178 L12.678386,23.7104931 L12.8793402,23.8032389 C12.8914285,23.8068999 12.9022333,23.8029875 12.9078286,23.7952264 L12.9118235,23.7811639 L12.8776777,23.1665331 C12.8752882,23.1545897 12.8674102,23.1470016 12.8583906,23.1452862 L12.8583906,23.1452862 Z M12.1430473,23.1473072 C12.1332178,23.1423925 12.1221763,23.1452606 12.1156365,23.1525954 L12.1099173,23.1665331 L12.0757714,23.7811639 C12.0751323,23.7926639 12.0828099,23.8018602 12.0926481,23.8045676 L12.108256,23.8032389 L12.3092106,23.7104931 L12.3186497,23.7024347 L12.3186497,23.7024347 L12.3225043,23.6906389 L12.340401,23.2611114 L12.337245,23.2485176 L12.337245,23.2485176 L12.3277531,23.2396597 L12.1430473,23.1473072 Z" id="MingCute" fill-rule="nonzero"></path>
                <path d="M2,12 C2,6.47715 6.47715,2 12,2 C17.5228,2 22,6.47715 22,12 C22,17.5228 17.5228,22 12,22 C6.47715,22 2,17.5228 2,12 Z M9,12 C9,10.3431 10.3431,9 12,9 C13.6569,9 15,10.3431 15,12 C15,13.6569 13.6569,15 12,15 C10.3431,15 9,13.6569 9,12 Z M16.7678,9.3535425 C16.3773,9.74407 15.7441,9.74407 15.3536,9.3535425 L14.6465,8.64644 C14.2559,8.25591 14.2559,7.62275 14.6465,7.23222 L16.2322,5.64644 C16.6228,5.25591 17.2559,5.25591 17.6465,5.64644 L18.3536,6.3535425 C18.7441,6.74407 18.7441,7.37723 18.3536,7.76776 L16.7678,9.3535425 Z M5.64646,7.76776 C5.25593,7.37723 5.25593,6.74407 5.64646,6.3535425 L6.3535625,5.64644 C6.74409,5.25591 7.37725,5.25591 7.76778,5.64644 L9.3535625,7.23222 C9.74409,7.62275 9.74409,8.25591 9.3535625,8.64644 L8.64645,9.3535425 C8.25593,9.74407 7.62277,9.74407 7.23224,9.3535425 L5.64646,7.76776 Z M16.7678,14.6464 C16.3772,14.2559 15.7441,14.2559 15.3536,14.6464 L14.6464,15.3536 C14.2559,15.7441 14.2559,16.3772 14.6464,16.7678 L16.2322,18.3536 C16.6228,18.7441 17.2559,18.7441 17.6464,18.3536 L18.3536,17.6464 C18.7441,17.2559 18.7441,16.6228 18.3536,16.2322 L16.7678,14.6464 Z M7.23223,14.6464 C7.62276,14.2559 8.25592,14.2559 8.64645,14.6464 L9.3535525,15.3536 C9.74408,15.7441 9.74408,16.3772 9.3535525,16.7678 L7.76777,18.3536 C7.37724,18.7441 6.74408,18.7441 6.3535525,18.3536 L5.64645,17.6464 C5.25592,17.2559 5.25592,16.6228 5.64645,16.2322 L7.23223,14.6464 Z" id="形状" fill="#09244B"></path>
            </g>
        </g>
    </g>
</svg>