<?xml version="1.0" encoding="UTF-8"?>
<svg width="24px" height="24px" viewBox="0 0 24 24" version="1.1" xmlns="http://www.w3.org/2000/svg" xmlns:xlink="http://www.w3.org/1999/xlink">
    <title>lifebuoy_line</title>
    <g id="页面-1" stroke="none" stroke-width="1" fill="none" fill-rule="evenodd">
        <g id="Map" transform="translate(-816.000000, 0.000000)">
            <g id="lifebuoy_line" transform="translate(816.000000, 0.000000)">
                <rect id="矩形" fill-rule="nonzero" x="0" y="0" width="24" height="24"></rect>
                <path d="M12,2 C17.5228,2 22,6.47715 22,12 C22,17.5228 17.5228,22 12,22 C6.47715,22 2,17.5228 2,12 C2,6.47715 6.47715,2 12,2 Z M14.3128,16.4341 C13.6212,16.7956 12.8344,17 12,17 C11.2582222,17 10.5542123,16.8384988 9.92120472,16.5487166 L9.68722,16.4341 L7.50357,18.6178 C8.78498,19.4901 10.3329,20 12,20 C13.55596,20 15.0080836,19.5558204 16.2366103,18.7873843 L16.4964,18.6178 L14.3128,16.4341 Z M5.38225,7.50357 C4.5099,8.78498 4,10.3329 4,12 C4,13.6671 4.5099,15.215 5.38225,16.4964 L7.5659,14.3128 C7.20441,13.6212 7,12.8345 7,12 C7,11.1655 7.20441,10.3788 7.5659,9.68722 L5.38225,7.50357 Z M18.6178,7.50357 L16.4341,9.68722 C16.7956,10.3788 17,11.1655 17,12 C17,12.8345 16.7956,13.6212 16.4341,14.3128 L18.6177,16.4964 C19.4901,15.215 20,13.6671 20,12 C20,10.3329 19.4901,8.78498 18.6178,7.50357 Z M12,9 C10.3431,9 9,10.3431 9,12 C9,13.6569 10.3431,15 12,15 C13.6569,15 15,13.6569 15,12 C15,10.3431 13.6569,9 12,9 Z M12,4 C10.44404,4 8.99189902,4.44417956 7.76336181,5.21265636 L7.50357,5.38225 L9.68722,7.5659 C10.3788,7.20441 11.1655,7 12,7 C12.7417778,7 13.4457877,7.16150914 14.0788093,7.45128604 L14.3128,7.5659 L16.4964,5.38225 C15.215,4.5099 13.6671,4 12,4 Z" id="形状" fill="#09244B"></path>
            </g>
        </g>
    </g>
</svg>