<svg xmlns="http://www.w3.org/2000/svg" width="24" height="24"><g fill="none"><path d="M24 0v24H0V0zM12.593 23.258l-.011.002-.071.035-.02.004-.014-.004-.071-.035c-.01-.004-.019-.001-.024.005l-.004.01-.017.428.005.02.01.013.104.074.015.004.012-.004.104-.074.012-.016.004-.017-.017-.427c-.002-.01-.009-.017-.017-.018m.265-.113-.013.002-.185.093-.01.01-.003.011.018.43.005.012.008.007.201.093c.012.004.023 0 .029-.008l.004-.014-.034-.614c-.003-.012-.01-.02-.02-.022m-.715.002a.023.023 0 0 0-.027.006l-.006.014-.034.614c0 .012.007.02.017.024l.015-.002.201-.093.01-.008.004-.011.017-.43-.003-.012-.01-.01z"/><path fill="#09244B" d="M4 16a1 1 0 0 1 .993.883L5 17v2h2a1 1 0 0 1 .117 1.993L7 21H5a2 2 0 0 1-1.995-1.85L3 19v-2a1 1 0 0 1 1-1m16 0a1 1 0 0 1 1 1v2a2 2 0 0 1-2 2h-2a1 1 0 1 1 0-2h2v-2a1 1 0 0 1 1-1m-4.358-8.955a1 1 0 0 1 1.357 1.186l-.044.127-4.243 9.9a1 1 0 0 1-1.86-.057l-.034-.112-.92-3.988-3.987-.92a1 1 0 0 1-.273-1.841l.104-.052zM7 3a1 1 0 0 1 0 2H5v2a1 1 0 0 1-2 0V5a2 2 0 0 1 2-2zm12 0a2 2 0 0 1 2 2v2a1 1 0 1 1-2 0V5h-2a1 1 0 1 1 0-2z"/></g></svg>