<?xml version="1.0" encoding="UTF-8"?>
<svg width="24px" height="24px" viewBox="0 0 24 24" version="1.1" xmlns="http://www.w3.org/2000/svg" xmlns:xlink="http://www.w3.org/1999/xlink">
    <title>location_3_line</title>
    <g id="Icon" stroke="none" stroke-width="1" fill="none" fill-rule="evenodd">
        <g id="Map" transform="translate(-288.000000, -96.000000)">
            <g id="location_3_line" transform="translate(288.000000, 96.000000)">
                <path d="M24,0 L24,24 L0,24 L0,0 L24,0 Z M12.5934901,23.257841 L12.5819402,23.2595131 L12.5108777,23.2950439 L12.4918791,23.2987469 L12.4918791,23.2987469 L12.4767152,23.2950439 L12.4056548,23.2595131 C12.3958229,23.2563662 12.3870493,23.2590235 12.3821421,23.2649074 L12.3780323,23.275831 L12.360941,23.7031097 L12.3658947,23.7234994 L12.3769048,23.7357139 L12.4804777,23.8096931 L12.4953491,23.8136134 L12.4953491,23.8136134 L12.5071152,23.8096931 L12.6106902,23.7357139 L12.6232938,23.7196733 L12.6232938,23.7196733 L12.6266527,23.7031097 L12.609561,23.275831 C12.6075724,23.2657013 12.6010112,23.2592993 12.5934901,23.257841 L12.5934901,23.257841 Z M12.8583906,23.1452862 L12.8445485,23.1473072 L12.6598443,23.2396597 L12.6498822,23.2499052 L12.6498822,23.2499052 L12.6471943,23.2611114 L12.6650943,23.6906389 L12.6699349,23.7034178 L12.6699349,23.7034178 L12.678386,23.7104931 L12.8793402,23.8032389 C12.8914285,23.8068999 12.9022333,23.8029875 12.9078286,23.7952264 L12.9118235,23.7811639 L12.8776777,23.1665331 C12.8752882,23.1545897 12.8674102,23.1470016 12.8583906,23.1452862 L12.8583906,23.1452862 Z M12.1430473,23.1473072 C12.1332178,23.1423925 12.1221763,23.1452606 12.1156365,23.1525954 L12.1099173,23.1665331 L12.0757714,23.7811639 C12.0751323,23.7926639 12.0828099,23.8018602 12.0926481,23.8045676 L12.108256,23.8032389 L12.3092106,23.7104931 L12.3186497,23.7024347 L12.3186497,23.7024347 L12.3225043,23.6906389 L12.340401,23.2611114 L12.337245,23.2485176 L12.337245,23.2485176 L12.3277531,23.2396597 L12.1430473,23.1473072 Z" id="MingCute" fill-rule="nonzero"></path>
                <path d="M17.5528,16.1056 C18.0115143,15.8762429 18.5621439,16.0324816 18.8362269,16.4514957 L18.8944,16.5528 L20.8944,20.5528 C21.0494,20.8628 21.0329,21.2309 20.8507,21.5257 C20.6911875,21.78365 20.4248703,21.9533234 20.1285873,21.9917113 L19.9999983,22 L3.99999826,22 C3.65342,22 3.33156,21.8205 3.14935,21.5257 C2.98991625,21.26775 2.95730828,20.9536797 3.05547863,20.6715168 L3.10557,20.5528 L5.10557,16.5528 C5.35256,16.0588 5.95324,15.8586 6.44721,16.1056 C6.90590571,16.3349571 7.11131699,16.8692041 6.94056715,17.3398789 L6.89443,17.4472 L5.61804,20 L18.382,20 L17.1056,17.4472 C16.8586,16.9532 17.0588,16.3526 17.5528,16.1056 Z M12,2 C15.866,2 19,5.13401 19,9 C19,11.3819 17.7113,13.3172 16.3774,14.69 C15.55625,15.5350444 14.6758698,16.2111744 13.9594391,16.6978269 L13.5862597,16.9443589 L13.5862597,16.9443589 L13.2536477,17.1525671 C13.2020401,17.1840336 13.1524582,17.2138724 13.1050697,17.242068 L12.8484,17.3914 L12.8484,17.3914 C12.3197,17.6917 11.6803,17.6917 11.1516,17.3914 L10.89493,17.242068 L10.89493,17.242068 L10.5856195,17.0532999 C10.5301282,17.0185933 10.4727789,16.9822746 10.4137393,16.9443589 L10.0405599,16.6978269 C9.32413003,16.2111744 8.44375556,15.5350444 7.62263,14.69 C6.28868,13.3172 5,11.3819 5,9 C5,5.13401 8.13401,2 12,2 Z M12,4 C9.23858,4 7,6.23858 7,9 C7,10.6357 7.89013,12.0954 9.05699,13.2962 C9.84525733,14.1074133 10.7092922,14.7472907 11.371304,15.1814823 L11.7106963,15.3977091 C11.8160356,15.4628476 11.9130267,15.52098 12,15.5719 L12.2893036,15.3977091 L12.2893036,15.3977091 L12.6286958,15.1814823 C13.2907071,14.7472907 14.15474,14.1074133 14.943,13.2962 C16.1099,12.0954 17,10.6357 17,9 C17,6.23858 14.7614,4 12,4 Z M12,6 C13.6569,6 15,7.34315 15,9 C15,10.6569 13.6569,12 12,12 C10.3431,12 9,10.6569 9,9 C9,7.34315 10.3431,6 12,6 Z M12,8 C11.4477,8 11,8.44772 11,9 C11,9.55228 11.4477,10 12,10 C12.5523,10 13,9.55228 13,9 C13,8.44772 12.5523,8 12,8 Z" id="形状" fill="#09244B"></path>
            </g>
        </g>
    </g>
</svg>