<svg width="24" height="24" viewBox="0 0 24 24" fill="none" xmlns="http://www.w3.org/2000/svg">
<rect width="24" height="24" fill="white" fill-opacity="0.01"/>
<path fill-rule="evenodd" clip-rule="evenodd" d="M12 7C9.79086 7 8 8.79086 8 11C8 13.2091 9.79086 15 12 15C14.2091 15 16 13.2091 16 11C16 8.79086 14.2091 7 12 7ZM10 11C10 9.89543 10.8954 9 12 9C13.1046 9 14 9.89543 14 11C14 12.1046 13.1046 13 12 13C10.8954 13 10 12.1046 10 11Z" fill="#09244B"/>
<path fill-rule="evenodd" clip-rule="evenodd" d="M12 2C7.02944 2 3 6.02944 3 11C3 14.0738 4.6759 16.5892 6.44162 18.3945C8.2176 20.2102 10.1996 21.4278 11.0729 21.921C11.6521 22.2481 12.3479 22.2481 12.9271 21.921C13.8004 21.4278 15.7824 20.2102 17.5584 18.3945C19.3241 16.5892 21 14.0738 21 11C21 6.02944 16.9706 2 12 2ZM5 11C5 7.13401 8.13401 4 12 4C15.866 4 19 7.13401 19 11C19 13.3224 17.728 15.3608 16.1286 16.996C14.576 18.5834 12.8218 19.6789 12 20.1475C11.1782 19.6789 9.42404 18.5834 7.87141 16.996C6.27202 15.3608 5 13.3224 5 11Z" fill="#09244B"/>
</svg>
