<?xml version="1.0" encoding="UTF-8"?>
<svg width="24px" height="24px" viewBox="0 0 24 24" version="1.1" xmlns="http://www.w3.org/2000/svg" xmlns:xlink="http://www.w3.org/1999/xlink">
    <title>location_line</title>
    <g id="页面-1" stroke="none" stroke-width="1" fill="none" fill-rule="evenodd">
        <g id="location_line">
            <rect id="矩形" fill-rule="nonzero" x="0" y="0" width="24" height="24"></rect>
            <path d="M12,2 C16.9706,2 21,6.02944 21,11 C21,14.0738 19.3241,16.5892 17.5584,18.3945 C16.5896727,19.3848818 15.5596562,20.1973165 14.6817052,20.8113077 L14.2563896,21.1016714 C14.1879449,21.1472775 14.1208032,21.1914819 14.0550879,21.2342726 L13.6789009,21.4739579 L13.6789009,21.4739579 L13.3428744,21.6791459 L13.3428744,21.6791459 L12.9271,21.921 L12.9271,21.921 C12.3479,22.2481 11.6521,22.2481 11.0729,21.921 L10.6571257,21.6791459 L10.6571257,21.6791459 L10.1376557,21.3583918 C10.0749168,21.3184403 10.010628,21.2770633 9.94491277,21.2342726 L9.53449244,20.9606593 C8.61244219,20.3314866 7.49106273,19.4674136 6.44162,18.3945 C4.6759,16.5892 3,14.0738 3,11 C3,6.02944 7.02944,2 12,2 Z M12,4 C8.13401,4 5,7.13401 5,11 C5,13.3224 6.27202,15.3608 7.87141,16.996 C8.60686632,17.7479263 9.38754127,18.3894817 10.0929208,18.9063179 L10.5506965,19.232241 C10.6986884,19.3346181 10.8416395,19.4306787 10.9782273,19.5202655 L11.3675782,19.7694466 L11.3675782,19.7694466 L11.7108141,19.9788397 L11.7108141,19.9788397 L12,20.1475 L12,20.1475 L12.4545461,19.8791757 L12.4545461,19.8791757 L12.8218351,19.6497705 C13.016678,19.5251603 13.2273265,19.3858066 13.4493166,19.232241 L13.9070964,18.9063179 C14.6124814,18.3894817 15.3931579,17.7479263 16.1286,16.996 C17.728,15.3608 19,13.3224 19,11 C19,7.13401 15.866,4 12,4 Z M12,7 C14.2091,7 16,8.79086 16,11 C16,13.2091 14.2091,15 12,15 C9.79086,15 8,13.2091 8,11 C8,8.79086 9.79086,7 12,7 Z M12,9 C10.8954,9 10,9.89543 10,11 C10,12.1046 10.8954,13 12,13 C13.1046,13 14,12.1046 14,11 C14,9.89543 13.1046,9 12,9 Z" id="形状" fill="#09244B"></path>
        </g>
    </g>
</svg>