<?xml version="1.0" encoding="UTF-8"?>
<svg width="24px" height="24px" viewBox="0 0 24 24" version="1.1" xmlns="http://www.w3.org/2000/svg" xmlns:xlink="http://www.w3.org/1999/xlink">
    <title>location_2_line</title>
    <g id="页面-1" stroke="none" stroke-width="1" fill="none" fill-rule="evenodd">
        <g id="location_2_line">
            <rect id="矩形" transform="translate(12.000000, 12.000000) scale(-1, 1) translate(-12.000000, -12.000000) " x="0" y="0" width="24" height="24"></rect>
            <path d="M6.72009,16.6398 C7.25029,16.4853 7.80543,16.7897 7.96003,17.32 C8.11462,17.8502 7.81012,18.4053 7.27991,18.5599 C6.77914,18.7059 6.41926,18.8607 6.18866,18.9996 C6.42735,19.1433 6.80251,19.303 7.32497,19.4523 C8.47958,19.7822 10.1328,19.9996 12,19.9996 C13.8672,19.9996 15.5204,19.7822 16.675,19.4523 C17.1975,19.303 17.5726,19.1433 17.8113,18.9996 C17.5807,18.8607 17.2209,18.7059 16.7201,18.5599 C16.1899,18.4053 15.8854,17.8502 16.04,17.32 C16.1946,16.7897 16.7497,16.4853 17.2799,16.6398 C17.948,16.8346 18.5608,17.0847 19.0293,17.4058 C19.4655,17.7048 20,18.2259 20,18.9996 C20,19.7832 19.4522,20.3078 19.0097,20.6067 C18.5322,20.9292 17.9071,21.1803 17.2245,21.3753 C15.8456,21.7693 13.9988,21.9996 12,21.9996 C10.0012,21.9996 8.15442,21.7693 6.77553,21.3753 C6.09289,21.1803 5.46776,20.9292 4.99033,20.6067 C4.54781,20.3078 4,19.7832 4,18.9996 C4,18.2259 4.53454,17.7048 4.97068,17.4058 C5.43918,17.0847 6.05202,16.8346 6.72009,16.6398 Z M12,2 C16.1421,2 19.5,5.3579 19.5,9.5 C19.5,12.0679 18.1005,14.1564 16.6502,15.6391 C16.0352526,16.2678158 15.3907163,16.8089881 14.7970227,17.2550925 C14.2033291,17.7011969 12.8455,18.5365 12.8455,18.5365 C12.3176,18.8347 11.6824,18.8347 11.1545,18.5365 C10.6266,18.2383 9.79665913,17.7011969 9.20296073,17.2550925 C8.60926233,16.8089881 7.96472316,16.2678158 7.34978,15.6391 C5.89953,14.1564 4.5,12.0679 4.5,9.5 C4.5,5.3579 7.85786,2 12,2 Z M12,4 C8.96243,4 6.5,6.4624 6.5,9.5 C6.5,11.3165 7.49565,12.928 8.77956,14.2406 C9.74554125,15.2281938 10.8105063,15.9795176 11.5474563,16.4423284 C11.8202896,16.6080137 11.9711375,16.6992375 12,16.716 L12.45254,16.4423284 C13.1894801,15.9795176 14.2544187,15.2281938 15.2204,14.2406 C16.5044,12.928 17.5,11.3165 17.5,9.5 C17.5,6.4624 15.0376,4 12,4 Z M12,6.5 C13.6569,6.5 15,7.8431 15,9.5 C15,11.1569 13.6569,12.5 12,12.5 C10.3431,12.5 9,11.1569 9,9.5 C9,7.8431 10.3431,6.5 12,6.5 Z M12,8.5 C11.4477,8.5 11,8.9477 11,9.5 C11,10.0523 11.4477,10.5 12,10.5 C12.5523,10.5 13,10.0523 13,9.5 C13,8.9477 12.5523,8.5 12,8.5 Z" id="形状" fill="#09244B" fill-rule="nonzero"></path>
        </g>
    </g>
</svg>