<svg xmlns="http://www.w3.org/2000/svg" width="24" height="24"><g fill="none" fill-rule="evenodd"><path d="M24 0v24H0V0zM12.593 23.258l-.011.002-.071.035-.02.004-.014-.004-.071-.035c-.01-.004-.019-.001-.024.005l-.004.01-.017.428.005.02.01.013.104.074.015.004.012-.004.104-.074.012-.016.004-.017-.017-.427c-.002-.01-.009-.017-.017-.018m.265-.113-.013.002-.185.093-.01.01-.003.011.018.43.005.012.008.007.201.093c.012.004.023 0 .029-.008l.004-.014-.034-.614c-.003-.012-.01-.02-.02-.022m-.715.002a.023.023 0 0 0-.027.006l-.006.014-.034.614c0 .012.007.02.017.024l.015-.002.201-.093.01-.008.004-.011.017-.43-.003-.012-.01-.01z"/><path fill="#09244B" d="M7 7a5 5 0 1 1 6 4.9V17a1 1 0 1 1-2 0v-5.1A5.002 5.002 0 0 1 7 7m2.489 9.1a1 1 0 0 1-.838 1.14c-1.278.195-2.293.489-2.96.815-.335.164-.534.313-.637.422a.685.685 0 0 0-.021.023c.033.039.09.096.19.169.28.207.749.435 1.418.644C7.968 19.728 9.863 20 12 20s4.032-.272 5.359-.687c.67-.209 1.138-.437 1.418-.644.1-.073.157-.13.19-.169a.644.644 0 0 0-.021-.023c-.103-.109-.302-.258-.637-.422-.667-.326-1.682-.62-2.96-.815a1 1 0 1 1 .301-1.977c1.388.21 2.622.547 3.539.996.457.224.884.5 1.208.842.33.347.603.82.603 1.399 0 .811-.524 1.4-1.034 1.777-.53.392-1.233.702-2.01.945-1.57.49-3.674.778-5.956.778-2.282 0-4.387-.288-5.955-.778-.778-.243-1.48-.553-2.01-.945C3.524 19.9 3 19.311 3 18.5c0-.58.273-1.052.603-1.4.325-.342.751-.617 1.208-.84.917-.45 2.152-.786 3.538-.997a1 1 0 0 1 1.14.838Z"/></g></svg>