<?xml version="1.0" encoding="UTF-8"?>
<svg width="24px" height="24px" viewBox="0 0 24 24" version="1.1" xmlns="http://www.w3.org/2000/svg" xmlns:xlink="http://www.w3.org/1999/xlink">
    <title>map_fill</title>
    <g id="页面-1" stroke="none" stroke-width="1" fill="none" fill-rule="evenodd">
        <g id="Map" transform="translate(-144.000000, -48.000000)">
            <g id="map_fill" transform="translate(144.000000, 48.000000)">
                <rect id="矩形" fill-rule="nonzero" transform="translate(12.000000, 12.000000) scale(-1, 1) translate(-12.000000, -12.000000) " x="0" y="0" width="24" height="24"></rect>
                <path d="M9,5.05415 C8.93535,6.69646 9,17.0271 9,17.0271 C9.1602,17.0271 9.32039,17.0528 9.47434,17.1041 L15,18.946 L15,6.97301 C14.8398,6.97301 14.6796,6.94735 14.5257,6.89603 L9,5.05415 Z M8.52566,3.10407 C8.83356,3.00144 9.16644,3.00144 9.47434,3.10407 L15,4.94596 L20.2889,3.18299 C21.1307,2.9024 22,3.52896 22,4.41628 L22,17.6397 C22,18.2853 21.5869,18.8585 20.9743,19.0627 L15.4743,20.896 C15.1664,20.9987 14.8336,20.9987 14.5257,20.896 L9,19.0541 L3.7111,20.8171 C2.86931,21.0977 2,20.4712 2,19.5838 L2,6.36043 C2,5.71479 2.41315,5.14158 3.02566,4.93741 L8.52566,3.10407 Z" id="形状" fill="#09244B"></path>
            </g>
        </g>
    </g>
</svg>