<?xml version="1.0" encoding="UTF-8"?>
<svg width="24px" height="24px" viewBox="0 0 24 24" version="1.1" xmlns="http://www.w3.org/2000/svg" xmlns:xlink="http://www.w3.org/1999/xlink">
    <title>map_pin_line</title>
    <g id="页面-1" stroke="none" stroke-width="1" fill="none" fill-rule="evenodd">
        <g id="Map" transform="translate(-912.000000, 0.000000)">
            <g id="map_pin_line" transform="translate(912.000000, 0.000000)">
                <rect id="矩形" fill-rule="nonzero" x="0" y="0" width="24" height="24"></rect>
                <path d="M12,4 C10.3431,4 9,5.34315 9,7 C9,8.65685 10.3431,10 12,10 C13.6569,10 15,8.65685 15,7 C15,5.34315 13.6569,4 12,4 Z M7,7 C7,4.23858 9.23858,2 12,2 C14.7614,2 17,4.23858 17,7 C17,9.41896 15.2822,11.4367 13,11.9 L13,17 C13,17.5523 12.5523,18 12,18 C11.4477,18 11,17.5523 11,17 L11,11.9 C8.71776,11.4367 7,9.41896 7,7 Z M9.4886,16.1008 C9.57175,16.6468 9.19654,17.1568 8.65055,17.2399 C7.37324,17.4344 6.35762,17.7286 5.69077,18.0552 C4.47156,18.6523 5.89681,19.0806 6.64142,19.3133 C7.9685,19.728 9.86323,20 12,20 C14.1368,20 16.0315,19.728 17.3586,19.3133 C18.1076,19.0792 19.529,18.6526 18.3092,18.0552 C17.6424,17.7286 16.6268,17.4344 15.3495,17.2399 C14.8035,17.1568 14.4283,16.6468 14.5114,16.1008 C14.5945,15.5548 15.1046,15.1796 15.6505,15.2627 C17.0375,15.4739 18.2719,15.8099 19.1889,16.2591 C20.0728,16.6919 21,17.4205 21,18.5 C21,19.3114 20.4757,19.9005 19.9656,20.2774 C17.8169,21.8649 14.5369,22 12,22 C9.71849,22 7.61323,21.7124 6.04487,21.2222 C4.79554,20.8318 3,20.0624 3,18.5 C3,17.4205 3.92723,16.6919 4.81105,16.2591 C5.72815,15.8099 6.96253,15.4739 8.34945,15.2627 C8.89544,15.1796 9.40546,15.5548 9.4886,16.1008 Z" id="形状" fill="#09244B"></path>
            </g>
        </g>
    </g>
</svg>