<?xml version="1.0" encoding="UTF-8"?>
<svg width="24px" height="24px" viewBox="0 0 24 24" version="1.1" xmlns="http://www.w3.org/2000/svg" xmlns:xlink="http://www.w3.org/1999/xlink">
    <title>road_line</title>
    <g id="页面-1" stroke="none" stroke-width="1" fill="none" fill-rule="evenodd">
        <g id="Map" transform="translate(0.000000, -96.000000)" fill-rule="nonzero">
            <g id="road_line" transform="translate(0.000000, 96.000000)">
                <rect id="矩形" x="0" y="0" width="24" height="24"></rect>
                <path d="M8.24253,3.02985 C8.77832,3.1638 9.10408,3.70673 8.97013,4.24253 L4.97013,20.2425 C4.83619,20.7783 4.29325,21.1041 3.75746,20.9701 C3.22166,20.8362 2.8959,20.2933 3.02985,19.7575 L7.02985,3.75746 C7.1638,3.22166 7.70673,2.8959 8.24253,3.02985 Z M16.9701,3.75746 L20.9701,19.7575 C21.1041,20.2933 20.7783,20.8362 20.2425,20.9701 C19.7067,21.1041 19.1638,20.7783 19.0299,20.2425 L15.0299,4.24253 C14.8959,3.70673 15.2217,3.1638 15.7575,3.02985 C16.2933,2.8959 16.8362,3.22166 16.9701,3.75746 Z M12,17 C12.51285,17 12.9355092,17.386027 12.9932725,17.8833761 L13,18 L13,20 C13,20.5523 12.5523,21 12,21 C11.48715,21 11.0644908,20.613973 11.0067275,20.1166239 L11,20 L11,18 C11,17.4477 11.4477,17 12,17 Z M12,9.99999 C12.5523,9.99999 13,10.4477 13,10.99999 L13,12.99999 C13,13.5523 12.5523,13.99999 12,13.99999 C11.4477,13.99999 11,13.5523 11,12.99999 L11,10.99999 C11,10.4477 11.4477,9.99999 12,9.99999 Z M12,2.99999 C12.51285,2.99999 12.9355092,3.38603429 12.9932725,3.88336975 L13,3.99999 L13,5.99999 C13,6.55228 12.5523,6.99999 12,6.99999 C11.48715,6.99999 11.0644908,6.61395434 11.0067275,6.1166121 L11,5.99999 L11,3.99999 C11,3.44771 11.4477,2.99999 12,2.99999 Z" id="形状" fill="#09244B"></path>
            </g>
        </g>
    </g>
</svg>