<?xml version="1.0" encoding="UTF-8"?>
<svg width="24px" height="24px" viewBox="0 0 24 24" version="1.1" xmlns="http://www.w3.org/2000/svg" xmlns:xlink="http://www.w3.org/1999/xlink">
    <title>road_fill</title>
    <g id="页面-1" stroke="none" stroke-width="1" fill="none" fill-rule="evenodd">
        <g id="Map" transform="translate(0.000000, -144.000000)" fill-rule="nonzero">
            <g id="road_fill" transform="translate(0.000000, 144.000000)">
                <rect id="矩形" x="0" y="0" width="24" height="24"></rect>
                <path d="M12.0001,16.5001 C12.7797706,16.5001 13.4205457,17.0950121 13.4932332,17.8556442 L13.5001,18.0001 L13.5001,20.0001 C13.5001,20.8285 12.8285,21.5001 12.0001,21.5001 C11.2204294,21.5001 10.5796543,20.9051879 10.5069668,20.1445558 L10.5001,20.0001 L10.5001,18.0001 C10.5001,17.1717 11.1717,16.5001 12.0001,16.5001 Z M8.36391,2.5449 C9.16761,2.74582 9.65625,3.56022 9.45532,4.36391 L5.45532,20.3639 C5.2544,21.1676 4.44,21.6562 3.63631,21.4553 C2.83261,21.2544 2.34397,20.44 2.5449,19.6363 L6.5449,3.63631 C6.74582,2.83261 7.56022,2.34397 8.36391,2.5449 Z M17.4553,3.63631 L21.4553,19.6363 C21.6562,20.44 21.1676,21.2544 20.3639,21.4553 C19.5602,21.6562 18.7458,21.1676 18.5449,20.3639 L14.5449,4.36391 C14.344,3.56022 14.8326,2.74582 15.6363,2.5449 C16.44,2.34397 17.2544,2.83261 17.4553,3.63631 Z M12.0001,9.50011 C12.8285,9.50011 13.5001,10.1717 13.5001,11.00011 L13.5001,13.00011 C13.5001,13.8285 12.8285,14.50011 12.0001,14.50011 C11.1717,14.50011 10.5001,13.8285 10.5001,13.00011 L10.5001,11.00011 C10.5001,10.1717 11.1717,9.50011 12.0001,9.50011 Z M12.0001,2.50011 C12.7797706,2.50011 13.4205457,3.09499554 13.4932332,3.85564954 L13.5001,4.00011 L13.5001,6.00011 C13.5001,6.82854 12.8285,7.50011 12.0001,7.50011 C11.2204294,7.50011 10.5796543,6.90522446 10.5069668,6.14457046 L10.5001,6.00011 L10.5001,4.00011 C10.5001,3.17168 11.1717,2.50011 12.0001,2.50011 Z" id="形状" fill="#09244B"></path>
            </g>
        </g>
    </g>
</svg>