<?xml version="1.0" encoding="UTF-8"?>
<svg width="24px" height="24px" viewBox="0 0 24 24" version="1.1" xmlns="http://www.w3.org/2000/svg" xmlns:xlink="http://www.w3.org/1999/xlink">
    <title>route_fill</title>
    <g id="页面-1" stroke="none" stroke-width="1" fill="none" fill-rule="evenodd">
        <g id="Map" transform="translate(-288.000000, -48.000000)" fill-rule="nonzero">
            <g id="route_fill" transform="translate(288.000000, 48.000000)">
                <rect id="矩形" transform="translate(12.000000, 12.000000) scale(-1, 1) translate(-12.000000, -12.000000) " x="0" y="0" width="24" height="24"></rect>
                <path d="M18,16 C19.6569,16 21,17.3431 21,19 C21,20.6569 19.6569,22 18,22 C16.3431,22 15,20.6569 15,19 C15,17.3431 16.3431,16 18,16 Z M15.5,4 C17.9853,4 20,6.01472 20,8.5 C20,10.9853 17.9853,13 15.5,13 L8.5,13 C7.11929,13 6,14.1193 6,15.5 C6,16.8807 7.11929,18 8.5,18 L13,18 C13.5523,18 14,18.4477 14,19 C14,19.5523 13.5523,20 13,20 L8.5,20 C6.01472,20 4,17.9853 4,15.5 C4,13.0147 6.01472,11 8.5,11 L15.5,11 C16.8807,11 18,9.88071 18,8.5 C18,7.11929 16.8807,6 15.5,6 L11,6 C10.4477,6 10,5.55228 10,5 C10,4.44772 10.4477,4 11,4 L15.5,4 Z M6,2 C7.65685,2 9,3.34315 9,5 C9,6.65685 7.65685,8 6,8 C4.34315,8 3,6.65685 3,5 C3,3.34315 4.34315,2 6,2 Z" id="形状" fill="#09244B"></path>
            </g>
        </g>
    </g>
</svg>