<?xml version="1.0" encoding="UTF-8"?>
<svg width="24px" height="24px" viewBox="0 0 24 24" version="1.1" xmlns="http://www.w3.org/2000/svg" xmlns:xlink="http://www.w3.org/1999/xlink">
    <title>world_fill</title>
    <g id="页面-1" stroke="none" stroke-width="1" fill="none" fill-rule="evenodd">
        <g id="Map" transform="translate(-384.000000, -48.000000)" fill-rule="nonzero">
            <g id="world_fill" transform="translate(384.000000, 48.000000)">
                <rect id="矩形" transform="translate(12.000000, 12.000000) scale(-1, 1) translate(-12.000000, -12.000000) " x="0" y="0" width="24" height="24"></rect>
                <path d="M21.4305,15.3348 C20.0573,19.218 16.3535,22 12,22 C7.64652,22 3.9428,19.2181 2.56957,15.3349 C5.31202,17.025 8.54212,18 11.9999,18 C15.4578,18 18.688,17.025 21.4305,15.3348 Z M21.126,7.90542 C21.6876,9.15514 22,10.5411 22,12 C22,12.1679 21.9959,12.3347 21.9877,12.5006 C19.2504,14.6905 15.7781,16 11.9999,16 C8.22185,16 4.74961,14.6905 2.01232,12.5006 C2.00414,12.3348 2,12.1679 2,12 C2,10.5411 2.31242,9.15514 2.874,7.90542 C5.40221,9.84631 8.56638,11 12,11 C15.4336,11 18.5978,9.84631 21.126,7.90542 Z M12,2 C15.3412,2 18.2997,3.63867 20.1157,6.15618 C17.8915,7.9358 15.07,9 12,9 C8.92996,9 6.10847,7.9358 3.8843,6.15618 C5.70026,3.63867 8.65876,2 12,2 Z" id="形状" fill="#09244B"></path>
            </g>
        </g>
    </g>
</svg>