<?xml version="1.0" encoding="UTF-8"?>
<svg width="24px" height="24px" viewBox="0 0 24 24" version="1.1" xmlns="http://www.w3.org/2000/svg" xmlns:xlink="http://www.w3.org/1999/xlink">
    <title>world_line</title>
    <g id="页面-1" stroke="none" stroke-width="1" fill="none" fill-rule="evenodd">
        <g id="world_line">
            <rect id="矩形" transform="translate(12.000000, 12.000000) scale(-1, 1) translate(-12.000000, -12.000000) " x="0" y="0" width="24" height="24"></rect>
            <path d="M12,2 C17.5228,2 22,6.47715 22,12 C22,17.5228 17.5228,22 12,22 C6.47715,22 2,17.5228 2,12 C2,6.47715 6.47715,2 12,2 Z M19.1935,15.5047 C16.9897,16.4665 14.5563,16.9999 12,16.9999 C9.44369,16.9999 7.01033,16.4665 4.80654,15.5047 C6.10576,18.1664 8.83875,20 12,20 C15.1613,20 17.8942,18.1664 19.1935,15.5047 Z M19.4315,9.03241 C17.2403,10.2844 14.7026,11 12,11 C9.29735,11 6.75969,10.2844 4.56847,9.03241 C4.20172,9.95005 4,10.9515 4,12 C4,12.3 4.01652,12.5962 4.04869,12.8876 C6.39035,14.2314 9.10411,14.9999 12,14.9999 C14.8959,14.9999 17.6096,14.2314 19.9513,12.8876 C19.9835,12.5962 20,12.3 20,12 C20,10.9515 19.7983,9.95003 19.4315,9.03241 Z M12,4 C9.34564,4 6.99322,5.29272 5.53796,7.28293 C7.441,8.3754 9.64645,9 12,9 C14.3535,9 16.559,8.37539 18.462,7.2829 C17.0068,5.29271 14.6543,4 12,4 Z" id="形状" fill="#09244B" fill-rule="nonzero"></path>
        </g>
    </g>
</svg>