<?xml version="1.0" encoding="UTF-8"?>
<svg width="24px" height="24px" viewBox="0 0 24 24" version="1.1" xmlns="http://www.w3.org/2000/svg" xmlns:xlink="http://www.w3.org/1999/xlink">
    <title>beard_fill</title>
    <g id="页面-1" stroke="none" stroke-width="1" fill="none" fill-rule="evenodd">
        <g id="Part" transform="translate(0.000000, -48.000000)">
            <g id="beard_fill" transform="translate(0.000000, 48.000000)">
                <rect id="矩形" fill-rule="nonzero" x="0" y="0" width="24" height="24"></rect>
                <path d="M11.9805,13.5936 C10.6408,15.3725 8.42808,16.2261 6.32027,15.9484 C3.93653,15.6343 1.77435,13.8979 1.02632,10.6997 C0.93847,10.3241 1.07446,9.93153 1.3758,9.69075 C1.67714,9.44997 2.09009,9.40396 2.43703,9.57252 C4.53024,10.5895 6.47127,9.50939 8.09097,8.2181 C8.81879,7.63785 9.62611,7.35472 10.4297,7.4497 C11.0502,7.52302 11.576,7.81125 11.9805,8.2113 C12.3851,7.81125 12.9108,7.52302 13.5313,7.4497 C14.335,7.35472 15.1423,7.63785 15.8701,8.2181 C17.4898,9.50939 19.4308,10.5895 21.524,9.57252 C21.871,9.40396 22.2839,9.44997 22.5853,9.69075 C22.8866,9.93153 23.0226,10.3241 22.9348,10.6997 C22.1867,13.8979 20.0245,15.6343 17.6408,15.9484 C15.533,16.2261 13.3203,15.3725 11.9805,13.5936 Z" id="路径" fill="#09244B"></path>
            </g>
        </g>
    </g>
</svg>