<?xml version="1.0" encoding="UTF-8"?>
<svg width="24px" height="24px" viewBox="0 0 24 24" version="1.1" xmlns="http://www.w3.org/2000/svg" xmlns:xlink="http://www.w3.org/1999/xlink">
    <title>body_fill</title>
    <g id="页面-1" stroke="none" stroke-width="1" fill="none" fill-rule="evenodd">
        <g id="Part" transform="translate(-48.000000, -48.000000)">
            <g id="body_fill" transform="translate(48.000000, 48.000000)">
                <path d="M24,0 L24,24 L0,24 L0,0 L24,0 Z M12.5934901,23.257841 L12.5819402,23.2595131 L12.5108777,23.2950439 L12.4918791,23.2987469 L12.4918791,23.2987469 L12.4767152,23.2950439 L12.4056548,23.2595131 C12.3958229,23.2563662 12.3870493,23.2590235 12.3821421,23.2649074 L12.3780323,23.275831 L12.360941,23.7031097 L12.3658947,23.7234994 L12.3769048,23.7357139 L12.4804777,23.8096931 L12.4953491,23.8136134 L12.4953491,23.8136134 L12.5071152,23.8096931 L12.6106902,23.7357139 L12.6232938,23.7196733 L12.6232938,23.7196733 L12.6266527,23.7031097 L12.609561,23.275831 C12.6075724,23.2657013 12.6010112,23.2592993 12.5934901,23.257841 L12.5934901,23.257841 Z M12.8583906,23.1452862 L12.8445485,23.1473072 L12.6598443,23.2396597 L12.6498822,23.2499052 L12.6498822,23.2499052 L12.6471943,23.2611114 L12.6650943,23.6906389 L12.6699349,23.7034178 L12.6699349,23.7034178 L12.678386,23.7104931 L12.8793402,23.8032389 C12.8914285,23.8068999 12.9022333,23.8029875 12.9078286,23.7952264 L12.9118235,23.7811639 L12.8776777,23.1665331 C12.8752882,23.1545897 12.8674102,23.1470016 12.8583906,23.1452862 L12.8583906,23.1452862 Z M12.1430473,23.1473072 C12.1332178,23.1423925 12.1221763,23.1452606 12.1156365,23.1525954 L12.1099173,23.1665331 L12.0757714,23.7811639 C12.0751323,23.7926639 12.0828099,23.8018602 12.0926481,23.8045676 L12.108256,23.8032389 L12.3092106,23.7104931 L12.3186497,23.7024347 L12.3186497,23.7024347 L12.3225043,23.6906389 L12.340401,23.2611114 L12.337245,23.2485176 L12.337245,23.2485176 L12.3277531,23.2396597 L12.1430473,23.1473072 Z" id="MingCute" fill-rule="nonzero"></path>
                <path d="M6.13725,4.23726 C6.06385,3.11038 6.92037,2 8.18064,2 L15.8224,2 C17.0827,2 17.9392,3.11038 17.8658,4.23726 C17.7085,6.6526 18.3345,9.15887 19.4167,11.5939 C20.8448,14.807 19.8026,17.9588 18.9073,19.7698 C18.1516,21.2984 16.5616,22 15.0465,22 L8.95652,22 C7.44145,22 5.85143,21.2984 5.09576,19.7698 C4.20049,17.9588 3.1583,14.807 4.58638,11.5939 C5.6686,9.15887 6.2946,6.6526 6.13725,4.23726 Z M6.88864,18.8835 C6.26652,17.6251 5.68069,15.8585 5.95127,14.0077 C6.18266,14.0536 6.74872,14.182 7.3858,14.4313 C8.27467,14.7791 9.17062,15.3085 9.66815,16.0547 C10.4451,17.2201 10.8439,18.6131 10.9683,20 L8.95652,20 C8.00288,20 7.22702,19.568 6.88864,18.8835 Z M15.0465,20 L13.0321,20 C13.1565,18.6131 13.5553,17.2201 14.3323,16.0547 C14.8298,15.3084 15.7257,14.7791 16.6146,14.4313 C17.2541,14.1811 17.822,14.0526 18.0517,14.0072 C18.3225,15.8582 17.7366,17.6249 17.1144,18.8835 C16.776,19.568 16.0002,20 15.0465,20 Z M12.0001,11 C12.5524,11 13.0001,10.5523 13.0001,10 C13.0001,9.44772 12.5524,9 12.0001,9 C11.4478,9 11.0001,9.44772 11.0001,10 C11.0001,10.5523 11.4478,11 12.0001,11 Z" id="形状" fill="#09244B"></path>
            </g>
        </g>
    </g>
</svg>