<?xml version="1.0" encoding="UTF-8"?>
<svg width="24px" height="24px" viewBox="0 0 24 24" version="1.1" xmlns="http://www.w3.org/2000/svg" xmlns:xlink="http://www.w3.org/1999/xlink">
    <title>bow_tie_line</title>
    <g id="Icon" stroke="none" stroke-width="1" fill="none" fill-rule="evenodd">
        <g id="Part" transform="translate(-480.000000, 0.000000)">
            <g id="bow_tie_line" transform="translate(480.000000, 0.000000)">
                <path d="M24,0 L24,24 L0,24 L0,0 L24,0 Z M12.5934901,23.257841 L12.5819402,23.2595131 L12.5108777,23.2950439 L12.4918791,23.2987469 L12.4918791,23.2987469 L12.4767152,23.2950439 L12.4056548,23.2595131 C12.3958229,23.2563662 12.3870493,23.2590235 12.3821421,23.2649074 L12.3780323,23.275831 L12.360941,23.7031097 L12.3658947,23.7234994 L12.3769048,23.7357139 L12.4804777,23.8096931 L12.4953491,23.8136134 L12.4953491,23.8136134 L12.5071152,23.8096931 L12.6106902,23.7357139 L12.6232938,23.7196733 L12.6232938,23.7196733 L12.6266527,23.7031097 L12.609561,23.275831 C12.6075724,23.2657013 12.6010112,23.2592993 12.5934901,23.257841 L12.5934901,23.257841 Z M12.8583906,23.1452862 L12.8445485,23.1473072 L12.6598443,23.2396597 L12.6498822,23.2499052 L12.6498822,23.2499052 L12.6471943,23.2611114 L12.6650943,23.6906389 L12.6699349,23.7034178 L12.6699349,23.7034178 L12.678386,23.7104931 L12.8793402,23.8032389 C12.8914285,23.8068999 12.9022333,23.8029875 12.9078286,23.7952264 L12.9118235,23.7811639 L12.8776777,23.1665331 C12.8752882,23.1545897 12.8674102,23.1470016 12.8583906,23.1452862 L12.8583906,23.1452862 Z M12.1430473,23.1473072 C12.1332178,23.1423925 12.1221763,23.1452606 12.1156365,23.1525954 L12.1099173,23.1665331 L12.0757714,23.7811639 C12.0751323,23.7926639 12.0828099,23.8018602 12.0926481,23.8045676 L12.108256,23.8032389 L12.3092106,23.7104931 L12.3186497,23.7024347 L12.3186497,23.7024347 L12.3225043,23.6906389 L12.340401,23.2611114 L12.337245,23.2485176 L12.337245,23.2485176 L12.3277531,23.2396597 L12.1430473,23.1473072 Z" id="MingCute" fill-rule="nonzero"></path>
                <path d="M19.0733,6.4925 C19.8092,6.55789 20.5279,6.92484 20.9753,7.67197 C21.5366,8.60941 22,9.99714 22,12 C22,14.0028 21.5366,15.3905 20.9753,16.328 C20.528,17.0751 19.8092,17.4421 19.0733,17.5075 C18.3677,17.5701 17.6582,17.3611 17.0734,17.0102 L14.0462,15.1939 C13.5102,15.694 12.7909,16 12,16 C11.2091,16 10.4898,15.694 9.95382,15.1939 L6.92665,17.0102 C6.34176,17.3611 5.63229,17.5701 4.92667,17.5075 C4.1908,17.4421 3.47205,17.0751 3.0247,16.328 C2.4634,15.3905 2,14.0028 2,12 C2,9.99714 2.4634,8.60941 3.0247,7.67197 C3.47205,6.92484 4.1908,6.55789 4.92667,6.4925 C5.63229,6.42981 6.34176,6.63884 6.92665,6.98978 L9.95382,8.80608 C10.4898,8.30599 11.2091,7.99998 12,7.99998 C12.7909,7.99998 13.5102,8.30599 14.0462,8.80608 L17.0734,6.98978 C17.6582,6.63884 18.3677,6.42981 19.0733,6.4925 Z M18.1023,8.70476 L14.9713,10.5834 C14.9902,10.7195 15,10.8586 15,11 L16,11 C16.5523,11 17,11.4477 17,12 C17,12.5523 16.5523,13 16,13 L15,13 C15,13.1413 14.9902,13.2804 14.9713,13.4166 L18.1023,15.2952 C18.397,15.472 18.6888,15.5337 18.8963,15.5153 C19.0736,15.4995 19.1798,15.4334 19.2594,15.3006 C19.614,14.7083 20,13.6836 20,12 C20,10.3164 19.614,9.2917 19.2594,8.6994 C19.1798,8.56652 19.0736,8.50041 18.8963,8.48465 C18.6888,8.46622 18.397,8.52797 18.1023,8.70476 Z M5.19753714,8.48176204 L5.10368,8.48465 C4.92642,8.50041 4.82019,8.56652 4.74062,8.6994 C4.38597,9.2917 4,10.3164 4,12 C4,13.6836 4.38597,14.7083 4.74062,15.3006 C4.82019,15.4334 4.92642,15.4995 5.10368,15.5153 C5.28154571,15.5310714 5.52135347,15.4879939 5.77179224,15.3640265 L5.89766,15.2952 L9.02869,13.4166 L9.00725375,13.2102125 L9.00725375,13.2102125 L9,13 L8,13 C7.44772,13 7,12.5523 7,12 C7,11.48715 7.38604429,11.0644908 7.88337975,11.0067275 L8,11 L9,11 L9.00725375,10.7897125 L9.00725375,10.7897125 L9.02869,10.5834 L5.89766,8.70476 C5.64510286,8.55322571 5.3946249,8.48621061 5.19753714,8.48176204 Z M12,9.99998 C11.4477,9.99998 11,10.4477 11,11 L11,13 C11,13.5523 11.4477,14 12,14 C12.5523,14 13,13.5523 13,13 L13,11 C13,10.4477 12.5523,9.99998 12,9.99998 Z" id="形状" fill="#09244B"></path>
            </g>
        </g>
    </g>
</svg>