<?xml version="1.0" encoding="UTF-8"?>
<svg width="24px" height="24px" viewBox="0 0 24 24" version="1.1" xmlns="http://www.w3.org/2000/svg" xmlns:xlink="http://www.w3.org/1999/xlink">
    <title>brief_line</title>
    <g id="Icon" stroke="none" stroke-width="1" fill="none" fill-rule="evenodd">
        <g id="Part" transform="translate(-528.000000, 0.000000)">
            <g id="brief_line" transform="translate(528.000000, 0.000000)">
                <path d="M24,0 L24,24 L0,24 L0,0 L24,0 Z M12.5934901,23.257841 L12.5819402,23.2595131 L12.5108777,23.2950439 L12.4918791,23.2987469 L12.4918791,23.2987469 L12.4767152,23.2950439 L12.4056548,23.2595131 C12.3958229,23.2563662 12.3870493,23.2590235 12.3821421,23.2649074 L12.3780323,23.275831 L12.360941,23.7031097 L12.3658947,23.7234994 L12.3769048,23.7357139 L12.4804777,23.8096931 L12.4953491,23.8136134 L12.4953491,23.8136134 L12.5071152,23.8096931 L12.6106902,23.7357139 L12.6232938,23.7196733 L12.6232938,23.7196733 L12.6266527,23.7031097 L12.609561,23.275831 C12.6075724,23.2657013 12.6010112,23.2592993 12.5934901,23.257841 L12.5934901,23.257841 Z M12.8583906,23.1452862 L12.8445485,23.1473072 L12.6598443,23.2396597 L12.6498822,23.2499052 L12.6498822,23.2499052 L12.6471943,23.2611114 L12.6650943,23.6906389 L12.6699349,23.7034178 L12.6699349,23.7034178 L12.678386,23.7104931 L12.8793402,23.8032389 C12.8914285,23.8068999 12.9022333,23.8029875 12.9078286,23.7952264 L12.9118235,23.7811639 L12.8776777,23.1665331 C12.8752882,23.1545897 12.8674102,23.1470016 12.8583906,23.1452862 L12.8583906,23.1452862 Z M12.1430473,23.1473072 C12.1332178,23.1423925 12.1221763,23.1452606 12.1156365,23.1525954 L12.1099173,23.1665331 L12.0757714,23.7811639 C12.0751323,23.7926639 12.0828099,23.8018602 12.0926481,23.8045676 L12.108256,23.8032389 L12.3092106,23.7104931 L12.3186497,23.7024347 L12.3186497,23.7024347 L12.3225043,23.6906389 L12.340401,23.2611114 L12.337245,23.2485176 L12.337245,23.2485176 L12.3277531,23.2396597 L12.1430473,23.1473072 Z" id="MingCute" fill-rule="nonzero"></path>
                <path d="M18.4165,4 C19.3902,4 20.4124,4.47896 20.9156,5.46671 C21.6093,6.82861 22,8.37013 22,10 C22,15.5228 17.5228,20 12,20 C6.47715,20 2,15.5228 2,10 C2,8.37013 2.39069,6.82861 3.08441,5.46671 C3.58755,4.47896 4.60984,4 5.5835,4 L18.4165,4 Z M18.4165,6 L5.5835,6 C5.22242,6 4.96922,6.17288 4.86653,6.37448 C4.31272,7.46171 4,8.69289 4,10 C7.86599,10 11,13.134 11,17 L11,17.9381 C11.3276,17.979 11.6613,18 12,18 C12.3387,18 12.6724,17.979 13,17.9381 L13,17 C13,13.134 16.134,10 20,10 C20,8.69288 19.6873,7.46171 19.1335,6.37448 C19.0308,6.17288 18.7776,6 18.4165,6 Z M19.7463,12.0063 C17.1028,12.1384 15,14.3236 15,17 L15,17.4185 C17.3268,16.4766 19.1096,14.4719 19.7463,12.0063 Z M4.25367,12.0063 C4.86683667,14.3805815 6.54273283,16.3274715 8.74373808,17.3095014 L9,17.4185 L9,17 C9,14.3236 6.89722,12.1384 4.25367,12.0063 Z" id="形状" fill="#09244B"></path>
            </g>
        </g>
    </g>
</svg>