<?xml version="1.0" encoding="UTF-8"?>
<svg width="24px" height="24px" viewBox="0 0 24 24" version="1.1" xmlns="http://www.w3.org/2000/svg" xmlns:xlink="http://www.w3.org/1999/xlink">
    <title>christmas_hat_line</title>
    <g id="Icon" stroke="none" stroke-width="1" fill="none" fill-rule="evenodd">
        <g id="Part" transform="translate(-912.000000, -96.000000)">
            <g id="christmas_hat_line" transform="translate(912.000000, 96.000000)">
                <path d="M24,0 L24,24 L0,24 L0,0 L24,0 Z M12.5935,23.2578 L12.5819,23.2595 L12.5109,23.295 L12.4919,23.2987 L12.4767,23.295 L12.4057,23.2595 C12.3958,23.2564 12.387,23.259 12.3821,23.2649 L12.378,23.2758 L12.3609,23.7031 L12.3659,23.7235 L12.3769,23.7357 L12.4805,23.8097 L12.4953,23.8136 L12.5071,23.8097 L12.6107,23.7357 L12.6233,23.7197 L12.6267,23.7031 L12.6096,23.2758 C12.6076,23.2657 12.601,23.2593 12.5935,23.2578 Z M12.8584,23.1453 L12.8445,23.1473 L12.6598,23.2397 L12.6499,23.2499 L12.6472,23.2611 L12.6651,23.6906 L12.6699,23.7034 L12.6784,23.7105 L12.8793,23.8032 C12.8914,23.8069 12.9022,23.803 12.9078,23.7952 L12.9118,23.7812 L12.8777,23.1665 C12.8753,23.1546 12.8674,23.147 12.8584,23.1453 Z M12.143,23.1473 C12.1332,23.1424 12.1222,23.1453 12.1156,23.1526 L12.1099,23.1665 L12.0758,23.7812 C12.0751,23.7927 12.0828,23.8019 12.0926,23.8046 L12.1083,23.8032 L12.3092,23.7105 L12.3186,23.7024 L12.3225,23.6906 L12.3404,23.2611 L12.3372,23.2485 L12.3278,23.2397 L12.143,23.1473 Z" id="MingCute" fill-rule="nonzero"></path>
                <path d="M12.2304,3 C16.0086,3 19.1498,5.90885 19.4396,9.67588 L19.9837,16.7494 C20.6069,17.2991 21,18.1036 21,19 C21,20.6569 19.6569,22 18,22 C16.3431,22 15,20.6569 15,19 L6,19 C4.34315,19 3,17.6569 3,16 C3,14.6938 3.83481,13.5825 5,13.1707 L5,10.2304 C5,6.23717 8.23717,3 12.2304,3 Z M18,18 C17.4477,18 17,18.4477 17,19 C17,19.5523 17.4477,20 18,20 C18.5523,20 19,19.5523 19,19 C19,18.4477 18.5523,18 18,18 Z M15.2792,15 L6,15 C5.44772,15 5,15.4477 5,16 C5,16.51285 5.38604429,16.9355092 5.88337975,16.9932725 L6,17 L15.7639,17 L15.8988,16.8587 L15.2792,15 Z M12.2304,5 C9.4139565,5 7.11742883,7.22611659 7.00436272,10.014804 L7,10.2304 L7,13 L14.6126,13 L14.0513,11.3162 C13.8767,10.7923 14.1598,10.226 14.6838,10.0513 C15.1702786,9.88914357 15.6933163,10.1216884 15.9054286,10.5752801 L15.9487,10.6838 L17.7249,16.0124 L17.9202,16.001 L17.4455,9.82927 C17.2358,7.10423 14.9635,5 12.2304,5 Z" id="形状" fill="#09244B"></path>
            </g>
        </g>
    </g>
</svg>