<svg xmlns="http://www.w3.org/2000/svg" width="24" height="24"><g fill="none"><path d="M24 0v24H0V0zM12.594 23.258l-.012.002-.071.035-.02.004-.014-.004-.071-.036c-.01-.003-.019 0-.024.006l-.004.01-.017.428.005.02.01.013.104.074.015.004.012-.004.104-.074.012-.016.004-.017-.017-.427c-.002-.01-.009-.017-.016-.018m.264-.113-.014.002-.184.093-.01.01-.003.011.018.43.005.012.008.008.201.092c.012.004.023 0 .029-.008l.004-.014-.034-.614c-.003-.012-.01-.02-.02-.022m-.715.002a.023.023 0 0 0-.027.006l-.006.014-.034.614c0 .012.007.02.017.024l.015-.002.201-.093.01-.008.003-.011.018-.43-.003-.012-.01-.01z"/><path fill="#09244B" d="M4 2.5A1.5 1.5 0 0 1 5.5 4c0 .64.206 1.338.567 2.049a6.11 6.11 0 0 1 .872-1.11 1.5 1.5 0 1 1 2.122 2.122c-.488.488-.76 1.118-.937 1.688.198.191.39.364.57.517A7.47 7.47 0 0 1 12 8.5a7.47 7.47 0 0 1 3.305.766c.18-.153.373-.326.57-.517-.177-.57-.448-1.2-.936-1.688a1.5 1.5 0 0 1 2.122-2.122c.35.351.637.73.872 1.11.361-.711.567-1.41.567-2.049a1.5 1.5 0 0 1 3 0c0 1.972-.967 3.79-1.988 5.15a15.048 15.048 0 0 1-1.8 1.99A7.47 7.47 0 0 1 19.5 16c0 1.92-.723 3.674-1.91 5a1.5 1.5 0 1 1-2.235-2 4.5 4.5 0 1 0-6.709 0 1.5 1.5 0 0 1-2.236 2 7.478 7.478 0 0 1-1.91-5 7.47 7.47 0 0 1 1.787-4.86 15.05 15.05 0 0 1-1.8-1.99C3.468 7.79 2.5 5.972 2.5 4A1.5 1.5 0 0 1 4 2.5"/></g></svg>