<?xml version="1.0" encoding="UTF-8"?>
<svg width="24px" height="24px" viewBox="0 0 24 24" version="1.1" xmlns="http://www.w3.org/2000/svg" xmlns:xlink="http://www.w3.org/1999/xlink">
    <title>dress_line</title>
    <g id="Icon" stroke="none" stroke-width="1" fill="none" fill-rule="evenodd">
        <g id="Part" transform="translate(-384.000000, -192.000000)">
            <g id="dress_line" transform="translate(384.000000, 192.000000)">
                <path d="M24,0 L24,24 L0,24 L0,0 L24,0 Z M12.5935,23.2578 L12.5819,23.2595 L12.5109,23.295 L12.4919,23.2987 L12.4767,23.295 L12.4057,23.2595 C12.3958,23.2564 12.387,23.259 12.3821,23.2649 L12.378,23.2758 L12.3609,23.7031 L12.3659,23.7235 L12.3769,23.7357 L12.4805,23.8097 L12.4953,23.8136 L12.5071,23.8097 L12.6107,23.7357 L12.6233,23.7197 L12.6267,23.7031 L12.6096,23.2758 C12.6076,23.2657 12.601,23.2593 12.5935,23.2578 Z M12.8584,23.1453 L12.8445,23.1473 L12.6598,23.2397 L12.6499,23.2499 L12.6472,23.2611 L12.6651,23.6906 L12.6699,23.7034 L12.6784,23.7105 L12.8793,23.8032 C12.8914,23.8069 12.9022,23.803 12.9078,23.7952 L12.9118,23.7812 L12.8777,23.1665 C12.8753,23.1546 12.8674,23.147 12.8584,23.1453 Z M12.143,23.1473 C12.1332,23.1424 12.1222,23.1453 12.1156,23.1526 L12.1099,23.1665 L12.0758,23.7812 C12.0751,23.7927 12.0828,23.8019 12.0926,23.8046 L12.1083,23.8032 L12.3092,23.7105 L12.3186,23.7024 L12.3225,23.6906 L12.3404,23.2611 L12.3372,23.2485 L12.3278,23.2397 L12.143,23.1473 Z" id="MingCute" fill-rule="nonzero"></path>
                <path d="M9,2 C6.23858,2 4,4.23858 4,7 L4,7.5 C4,8.32843 4.67157,9 5.5,9 L8,9 L8,9.94766 C8,10.4018 7.84544,10.8424 7.56174,11.197 L5.53392,13.7318 C4.54097,14.973 4,16.5152 4,18.1047 L4,19 C4,20.6569 5.34315,22 7,22 L17,22 C18.6569,22 20,20.6569 20,19 L20,18.1047 C20,16.5152 19.459,14.973 18.4661,13.7318 L16.4383,11.197 C16.1546,10.8424 16,10.4018 16,9.94766 L16,9 L18.5,9 C19.3284,9 20,8.32843 20,7.5 L20,7 C20,4.23858 17.7614,2 15,2 L14.8293,2 C14.4055,2 14.0277,2.26716 13.8865,2.66675 C13.6114,3.4449 12.8693,4 12,4 C11.1307,4 10.3886,3.4449 10.1135,2.66675 C9.97231,2.26716 9.59452,2 9.17071,2 L9,2 Z M6,7 C6,5.49448 7.10899,4.24798 8.55463,4.03283 C9.25032,5.20953 10.5319,6 12,6 C13.4681,6 14.7497,5.20952 15.4454,4.03283 C16.891,4.24798 18,5.49448 18,7 L16,7 C14.8954,7 14,7.89543 14,9 L14,9.94766 C14,9.96511 14.0001,9.98256 14.0003,10 L9.99966,10 C9.99989,9.98256 10,9.96512 10,9.94766 L10,9 C10,7.89543 9.10457,7 8,7 L6,7 Z M9.43336,12 C9.34073,12.155 9.2373,12.3042 9.12348,12.4464 L7.09566,14.9812 C6.3864,15.8678 6,16.9693 6,18.1047 L6,19 C6,19.5523 6.44772,20 7,20 L17,20 C17.5523,20 18,19.5523 18,19 L18,18.1047 C18,16.9693 17.6136,15.8678 16.9043,14.9812 L14.8765,12.4464 C14.7627,12.3042 14.6593,12.155 14.5666,12 L9.43336,12 Z" id="形状" fill="#09244B"></path>
            </g>
        </g>
    </g>
</svg>