<?xml version="1.0" encoding="UTF-8"?>
<svg width="24px" height="24px" viewBox="0 0 24 24" version="1.1" xmlns="http://www.w3.org/2000/svg" xmlns:xlink="http://www.w3.org/1999/xlink">
    <title>ear_line</title>
    <g id="页面-1" stroke="none" stroke-width="1" fill="none" fill-rule="evenodd">
        <g id="Part" transform="translate(-96.000000, 0.000000)">
            <g id="ear_line" transform="translate(96.000000, 0.000000)">
                <rect id="矩形" fill-rule="nonzero" x="0" y="0" width="24" height="24"></rect>
                <path d="M7,9 C7,6.23858 9.23858,4 12,4 C14.7614,4 17,6.23858 17,9 C17,11.0976 15.6094,12.3761 14.4724,13.9658 C13.7555,14.9682 13.1199,16.1948 13.0023,17.9324 C12.9199,19.1489 12.0467,20 11,20 C9.89543,20 9,19.1046 9,18 C9,16.546 10.0653,15.5284 11.6247,14.2809 C13.0225,13.1626 14.4952,12.1423 14.9701,10.2425 C15.289,8.96697 15.0207,7.8764 14.3641,7.10286 C13.739,6.36643 12.829,6 12,6 C10.6007,6 9.42755,6.95704 9.09457,8.25074 C8.95691,8.78559 9.2789,9.33078 9.81375,9.46844 C10.3486,9.6061 10.8938,9.28411 11.0314,8.74926 C11.1425,8.31774 11.5354,8 12,8 C12.2756,8 12.6156,8.13357 12.8393,8.39714 C13.0316,8.6236 13.211,9.03303 13.0299,9.75746 C12.6966,11.0906 11.3852,11.912 10.3753,12.7191 C8.93467,13.8716 7,15.454 7,18 C7,20.2091 8.79086,22 11,22 C13.267,22 14.8562,20.1572 14.9977,18.0676 C15.0832,16.8052 15.5276,15.9285 16.0992,15.1292 C17.5057,13.1626 19,11.5868 19,9 C19,5.13401 15.866,2 12,2 C8.13401,2 5,5.13401 5,9 C5,9.39638 5.03305,9.78579 5.09674,10.1655 C5.18812,10.7101 5.70374,11.0776 6.24841,10.9862 C6.79309,10.8948 7.16055,10.3792 7.06918,9.83454 C7.02375,9.56379 7,9.28505 7,9 Z" id="路径" fill="#09244B"></path>
            </g>
        </g>
    </g>
</svg>