<?xml version="1.0" encoding="UTF-8"?>
<svg width="24px" height="24px" viewBox="0 0 24 24" version="1.1" xmlns="http://www.w3.org/2000/svg" xmlns:xlink="http://www.w3.org/1999/xlink">
    <title>ear_fill</title>
    <g id="页面-1" stroke="none" stroke-width="1" fill="none" fill-rule="evenodd">
        <g id="Part" transform="translate(-96.000000, -48.000000)">
            <g id="ear_fill" transform="translate(96.000000, 48.000000)">
                 <path d="M24,0 L24,24 L0,24 L0,0 L24,0 Z M12.5934901,23.257841 L12.5819402,23.2595131 L12.5108777,23.2950439 L12.4918791,23.2987469 L12.4918791,23.2987469 L12.4767152,23.2950439 L12.4056548,23.2595131 C12.3958229,23.2563662 12.3870493,23.2590235 12.3821421,23.2649074 L12.3780323,23.275831 L12.360941,23.7031097 L12.3658947,23.7234994 L12.3769048,23.7357139 L12.4804777,23.8096931 L12.4953491,23.8136134 L12.4953491,23.8136134 L12.5071152,23.8096931 L12.6106902,23.7357139 L12.6232938,23.7196733 L12.6232938,23.7196733 L12.6266527,23.7031097 L12.609561,23.275831 C12.6075724,23.2657013 12.6010112,23.2592993 12.5934901,23.257841 L12.5934901,23.257841 Z M12.8583906,23.1452862 L12.8445485,23.1473072 L12.6598443,23.2396597 L12.6498822,23.2499052 L12.6498822,23.2499052 L12.6471943,23.2611114 L12.6650943,23.6906389 L12.6699349,23.7034178 L12.6699349,23.7034178 L12.678386,23.7104931 L12.8793402,23.8032389 C12.8914285,23.8068999 12.9022333,23.8029875 12.9078286,23.7952264 L12.9118235,23.7811639 L12.8776777,23.1665331 C12.8752882,23.1545897 12.8674102,23.1470016 12.8583906,23.1452862 L12.8583906,23.1452862 Z M12.1430473,23.1473072 C12.1332178,23.1423925 12.1221763,23.1452606 12.1156365,23.1525954 L12.1099173,23.1665331 L12.0757714,23.7811639 C12.0751323,23.7926639 12.0828099,23.8018602 12.0926481,23.8045676 L12.108256,23.8032389 L12.3092106,23.7104931 L12.3186497,23.7024347 L12.3186497,23.7024347 L12.3225043,23.6906389 L12.340401,23.2611114 L12.337245,23.2485176 L12.337245,23.2485176 L12.3277531,23.2396597 L12.1430473,23.1473072 Z" id="MingCute" fill-rule="nonzero"></path>
                <path d="M12,2 C15.866,2 19,5.13401 19,9 C19,10.2733 18.6591,11.4701 18.0629,12.5007 C17.7913,12.97022 17.464852,13.39942 17.127332,13.8206072 L16.8728,14.1355 C16.6082,14.4616 16.3434,14.7877 16.0992,15.1292 C15.5715692,15.8670154 15.1523219,16.6707811 15.0236963,17.7829833 L14.9977,18.0676 C14.8562,20.1572 13.267,22 11,22 C8.33466,22 6.27628,19.196 7.22013,16.6837 C7.28153667,16.5202333 7.35270778,16.3657889 7.42658259,16.2154185 L7.53854,15.9923 C7.77336,15.5292 8,15.0822 8,14.5 C8,13.9819167 7.63383333,13.5759861 7.25166204,13.2280995 L6.8634,12.8853 L6.8634,12.8853 C5.66405,11.8124 5,10.6116 5,9 C5,5.13401 8.13401,2 12,2 Z M11.937,6 C10.5377,6 9.36454,6.95704 9.03156,8.25074 C8.8939,8.78559 9.21589,9.33078 9.75074,9.46844 C10.2473957,9.59626714 10.752967,9.32776342 10.9328278,8.86052272 L10.9684,8.74926 C11.0795,8.31774 11.4724,8 11.937,8 C12.2126,8 12.5526,8.13357 12.7763,8.39714 C12.9686,8.6236 13.148,9.03303 12.9668,9.75746 C12.8702667,10.1438067 12.6413877,10.4452625 12.2098595,10.8469902 L11.923025,11.1041625 L11.923025,11.1041625 L11.8,11.2111 C11.31,11.6359 10.6721,12.1891 10.1679,12.9453 C9.86159,13.4048 9.98577,14.0257 10.4453,14.3321 C10.9048,14.6384 11.5257,14.5142 11.832,14.0547 C12.1175833,13.6263667 12.4505278,13.3057417 12.8363889,12.9637162 L13.3673,12.4973 L13.3673,12.4973 C13.9484,11.9807 14.6408,11.3079 14.9071,10.2425 C15.226,8.96697 14.9577,7.8764 14.3011,7.10286 C13.676,6.36643 12.7659,6 11.937,6 Z" id="形状" fill="#09244B"></path>
            </g>
        </g>
    </g>
</svg>