<?xml version="1.0" encoding="UTF-8"?>
<svg width="24px" height="24px" viewBox="0 0 24 24" version="1.1" xmlns="http://www.w3.org/2000/svg" xmlns:xlink="http://www.w3.org/1999/xlink">
    <title>ear_fill</title>
    <g id="页面-1" stroke="none" stroke-width="1" fill="none" fill-rule="evenodd">
        <g id="Part" transform="translate(-96.000000, -48.000000)">
            <g id="ear_fill" transform="translate(96.000000, 48.000000)">
                <rect id="矩形" fill-rule="nonzero" x="0" y="0" width="24" height="24"></rect>
                <path d="M12,2 C15.866,2 19,5.13401 19,9 C19,10.2733 18.6591,11.4701 18.0629,12.5007 C17.7913,12.97022 17.464852,13.39942 17.127332,13.8206072 L16.8728,14.1355 C16.6082,14.4616 16.3434,14.7877 16.0992,15.1292 C15.5715692,15.8670154 15.1523219,16.6707811 15.0236963,17.7829833 L14.9977,18.0676 C14.8562,20.1572 13.267,22 11,22 C8.33466,22 6.27628,19.196 7.22013,16.6837 C7.28153667,16.5202333 7.35270778,16.3657889 7.42658259,16.2154185 L7.53854,15.9923 C7.77336,15.5292 8,15.0822 8,14.5 C8,13.9819167 7.63383333,13.5759861 7.25166204,13.2280995 L6.8634,12.8853 L6.8634,12.8853 C5.66405,11.8124 5,10.6116 5,9 C5,5.13401 8.13401,2 12,2 Z M11.937,6 C10.5377,6 9.36454,6.95704 9.03156,8.25074 C8.8939,8.78559 9.21589,9.33078 9.75074,9.46844 C10.2473957,9.59626714 10.752967,9.32776342 10.9328278,8.86052272 L10.9684,8.74926 C11.0795,8.31774 11.4724,8 11.937,8 C12.2126,8 12.5526,8.13357 12.7763,8.39714 C12.9686,8.6236 13.148,9.03303 12.9668,9.75746 C12.8702667,10.1438067 12.6413877,10.4452625 12.2098595,10.8469902 L11.923025,11.1041625 L11.923025,11.1041625 L11.8,11.2111 C11.31,11.6359 10.6721,12.1891 10.1679,12.9453 C9.86159,13.4048 9.98577,14.0257 10.4453,14.3321 C10.9048,14.6384 11.5257,14.5142 11.832,14.0547 C12.1175833,13.6263667 12.4505278,13.3057417 12.8363889,12.9637162 L13.3673,12.4973 L13.3673,12.4973 C13.9484,11.9807 14.6408,11.3079 14.9071,10.2425 C15.226,8.96697 14.9577,7.8764 14.3011,7.10286 C13.676,6.36643 12.7659,6 11.937,6 Z" id="形状" fill="#09244B"></path>
            </g>
        </g>
    </g>
</svg>