<?xml version="1.0" encoding="UTF-8"?>
<svg width="24px" height="24px" viewBox="0 0 24 24" version="1.1" xmlns="http://www.w3.org/2000/svg" xmlns:xlink="http://www.w3.org/1999/xlink">
    <title>eye_2_fill</title>
    <g id="页面-1" stroke="none" stroke-width="1" fill="none" fill-rule="evenodd">
        <g id="Part" transform="translate(-144.000000, -48.000000)" fill-rule="nonzero">
            <g id="eye_2_fill" transform="translate(144.000000, 48.000000)">
                <rect id="矩形" x="0" y="0" width="24" height="24"></rect>
                <path d="M12,5 C15.6786,5 20.1621,7.41663 21.7292,10.9014 C21.8765,11.229 22,11.6119 22,12 C22,12.3881 21.8765,12.771 21.7292,13.0986 C20.1621,16.5834 15.6786,19 12,19 C8.32138,19 3.83788,16.5834 2.27082,13.0986 C2.12348,12.771 2,12.3881 2,12 C2,11.6119 2.12348,11.229 2.27082,10.9014 C3.83789,7.41663 8.32138,5 12,5 Z M12,8 C9.79086,8 8,9.79086 8,12 C8,14.2091 9.79086,16 12,16 C14.2091,16 16,14.2091 16,12 C16,9.79086 14.2091,8 12,8 Z M12,10 C13.1046,10 14,10.8954 14,12 C14,13.1046 13.1046,14 12,14 C10.8954,14 10,13.1046 10,12 C10,10.8954 10.8954,10 12,10 Z" id="形状" fill="#09244B"></path>
            </g>
        </g>
    </g>
</svg>