<?xml version="1.0" encoding="UTF-8"?>
<svg width="24px" height="24px" viewBox="0 0 24 24" version="1.1" xmlns="http://www.w3.org/2000/svg" xmlns:xlink="http://www.w3.org/1999/xlink">
    <title>eye_2_line</title>
    <g id="页面-1" stroke="none" stroke-width="1" fill="none" fill-rule="evenodd">
        <g id="Part" transform="translate(-144.000000, 0.000000)">
            <g id="eye_2_line" transform="translate(144.000000, 0.000000)">
                <rect id="矩形" fill-rule="nonzero" x="0" y="0" width="24" height="24"></rect>
                <path d="M4.00052,12.0012 L4.00032,12 L4.00052,11.9988 C4.00297,11.9832 4.01691,11.895 4.09488,11.7217 C4.18067,11.5309 4.31982,11.2905 4.51892,11.0138 C4.91667,10.4611 5.5116,9.82208 6.26352,9.21614 C7.77713,7.99636 9.81228,7 12,7 C14.1877,7 16.2229,7.99636 17.7365,9.21614 C18.4884,9.82208 19.0833,10.4611 19.4811,11.0138 C19.6802,11.2905 19.8193,11.5309 19.9051,11.7217 C19.9831,11.895 19.997,11.9832 19.9995,11.9988 L19.9997,12 L19.9995,12.0012 C19.997,12.0168 19.9831,12.105 19.9051,12.2783 C19.8193,12.4691 19.6802,12.7095 19.4811,12.9862 C19.0833,13.5389 18.4884,14.1779 17.7365,14.7839 C16.2229,16.0036 14.1877,17 12,17 C9.81228,17 7.77713,16.0036 6.26352,14.7839 C5.5116,14.1779 4.91667,13.5389 4.51892,12.9862 C4.31982,12.7095 4.18067,12.4691 4.09488,12.2783 C4.01691,12.105 4.00297,12.0168 4.00052,12.0012 Z M12,5 C9.21715,5 6.7523,6.25364 5.00856,7.65886 C4.13179,8.36542 3.40871,9.1326 2.89561,9.84555 C2.63928,10.2017 2.4248,10.559 2.27082,10.9014 C2.12348,11.229 2,11.6119 2,12 C2,12.3881 2.12348,12.771 2.27082,13.0986 C2.4248,13.441 2.63928,13.7983 2.89561,14.1544 C3.40871,14.8674 4.13179,15.6346 5.00856,16.3411 C6.7523,17.7464 9.21715,19 12,19 C14.7828,19 17.2477,17.7464 18.9914,16.3411 C19.8682,15.6346 20.5913,14.8674 21.1044,14.1544 C21.3607,13.7983 21.5752,13.441 21.7292,13.0986 C21.8765,12.771 22,12.3881 22,12 C22,11.6119 21.8765,11.229 21.7292,10.9014 C21.5752,10.559 21.3607,10.2017 21.1044,9.84555 C20.5913,9.1326 19.8682,8.36542 18.9914,7.65886 C17.2477,6.25364 14.7828,5 12,5 Z M11,12 C11,11.4477 11.4477,11 12,11 C12.5523,11 13,11.4477 13,12 C13,12.5523 12.5523,13 12,13 C11.4477,13 11,12.5523 11,12 Z M12,9 C10.3431,9 9,10.3431 9,12 C9,13.6569 10.3431,15 12,15 C13.6569,15 15,13.6569 15,12 C15,10.3431 13.6569,9 12,9 Z" id="形状" fill="#09244B"></path>
            </g>
        </g>
    </g>
</svg>