<?xml version="1.0" encoding="UTF-8"?>
<svg width="24px" height="24px" viewBox="0 0 24 24" version="1.1" xmlns="http://www.w3.org/2000/svg" xmlns:xlink="http://www.w3.org/1999/xlink">
    <title>eyebrow_line</title>
    <g id="页面-1" stroke="none" stroke-width="1" fill="none" fill-rule="evenodd">
        <g id="Part" transform="translate(-192.000000, 0.000000)">
            <g id="eyebrow_line" transform="translate(192.000000, 0.000000)">
                <rect id="矩形" fill-rule="nonzero" x="0" y="0" width="24" height="24"></rect>
                <path d="M7.65839,10.4478 C5.97582,10.8292 4.59689,11.4276 3.71006,12.1548 C3.22513,12.5525 3.04805,12.9509 3.00912,13.2717 C2.96903,13.602 3.06346,13.9463 3.28848,14.2505 C3.7336,14.8522 4.6879,15.2711 5.84877,14.7925 C8.54702,13.6799 13.8165,11.5325 19.4843,11.9603 C19.0818,11.6736 18.6237,11.4145 18.1143,11.1845 C14.9375,9.75047 11.015,9.68694 7.65839,10.4478 Z M18.9372,9.36167 C20.6395,10.1301 22.108,11.2831 22.8998,12.9158 C23.0681,13.2628 23.0219,13.6757 22.781,13.9769 C22.5401,14.278 22.1474,14.4138 21.772,14.3258 C15.8145,12.93 9.78907,15.3311 6.61118,16.6414 C4.618,17.4633 2.68113,16.7923 1.68066,15.44 C1.18289,14.7672 0.915929,13.9186 1.02369,13.0307 C1.1326,12.1333 1.6126,11.2884 2.44183,10.6083 C3.65763,9.6113 5.36699,8.91645 7.21626,8.49728 C10.9972,7.64025 15.3643,7.74879 18.9372,9.36167 Z" id="形状" fill="#09244B"></path>
            </g>
        </g>
    </g>
</svg>