<?xml version="1.0" encoding="UTF-8"?>
<svg width="24px" height="24px" viewBox="0 0 24 24" version="1.1" xmlns="http://www.w3.org/2000/svg" xmlns:xlink="http://www.w3.org/1999/xlink">
    <title>face_fill</title>
    <g id="页面-1" stroke="none" stroke-width="1" fill="none" fill-rule="evenodd">
        <g id="Part" transform="translate(-240.000000, -48.000000)">
            <g id="face_fill" transform="translate(240.000000, 48.000000)">
                 <path d="M24,0 L24,24 L0,24 L0,0 L24,0 Z M12.5934901,23.257841 L12.5819402,23.2595131 L12.5108777,23.2950439 L12.4918791,23.2987469 L12.4918791,23.2987469 L12.4767152,23.2950439 L12.4056548,23.2595131 C12.3958229,23.2563662 12.3870493,23.2590235 12.3821421,23.2649074 L12.3780323,23.275831 L12.360941,23.7031097 L12.3658947,23.7234994 L12.3769048,23.7357139 L12.4804777,23.8096931 L12.4953491,23.8136134 L12.4953491,23.8136134 L12.5071152,23.8096931 L12.6106902,23.7357139 L12.6232938,23.7196733 L12.6232938,23.7196733 L12.6266527,23.7031097 L12.609561,23.275831 C12.6075724,23.2657013 12.6010112,23.2592993 12.5934901,23.257841 L12.5934901,23.257841 Z M12.8583906,23.1452862 L12.8445485,23.1473072 L12.6598443,23.2396597 L12.6498822,23.2499052 L12.6498822,23.2499052 L12.6471943,23.2611114 L12.6650943,23.6906389 L12.6699349,23.7034178 L12.6699349,23.7034178 L12.678386,23.7104931 L12.8793402,23.8032389 C12.8914285,23.8068999 12.9022333,23.8029875 12.9078286,23.7952264 L12.9118235,23.7811639 L12.8776777,23.1665331 C12.8752882,23.1545897 12.8674102,23.1470016 12.8583906,23.1452862 L12.8583906,23.1452862 Z M12.1430473,23.1473072 C12.1332178,23.1423925 12.1221763,23.1452606 12.1156365,23.1525954 L12.1099173,23.1665331 L12.0757714,23.7811639 C12.0751323,23.7926639 12.0828099,23.8018602 12.0926481,23.8045676 L12.108256,23.8032389 L12.3092106,23.7104931 L12.3186497,23.7024347 L12.3186497,23.7024347 L12.3225043,23.6906389 L12.340401,23.2611114 L12.337245,23.2485176 L12.337245,23.2485176 L12.3277531,23.2396597 L12.1430473,23.1473072 Z" id="MingCute" fill-rule="nonzero"></path>
                <path d="M6.35644,4.16376 C7.72691,2.78442 9.62165,2 12,2 C14.3786,2 16.2734,2.78458 17.6439,4.16417 C18.7996,5.32746 19.5237,6.85385 19.8944,8.53712 C19.9489,8.5475 20.0034,8.55995 20.0578,8.57455 C20.9268,8.80739 21.487,9.4907 21.7596,10.2244 C22.0331,10.9607 22.0589,11.8299 21.8329,12.6736 C21.5159,13.8566 20.6679,15.0237 19.4309,15.3392 C18.0793,18.589 15.0863,21 12,21 C8.91331,21 5.92,18.5884 4.56863,15.338 C3.33385,15.0207 2.48774,13.8553 2.17111,12.6736 C1.94504,11.8299 1.97085,10.9607 2.24441,10.2244 C2.51701,9.49071 3.07715,8.8074 3.94612,8.57455 C3.9992,8.56033 4.0523,8.54815 4.10534,8.53792 C4.4761,6.85415 5.20039,5.32729 6.35644,4.16376 Z" id="路径" fill="#09244B"></path>
            </g>
        </g>
    </g>
</svg>