<?xml version="1.0" encoding="UTF-8"?>
<svg width="24px" height="24px" viewBox="0 0 24 24" version="1.1" xmlns="http://www.w3.org/2000/svg" xmlns:xlink="http://www.w3.org/1999/xlink">
    <title>face_fill</title>
    <g id="页面-1" stroke="none" stroke-width="1" fill="none" fill-rule="evenodd">
        <g id="Part" transform="translate(-240.000000, -48.000000)">
            <g id="face_fill" transform="translate(240.000000, 48.000000)">
                <rect id="矩形" fill-rule="nonzero" x="0" y="0" width="24" height="24"></rect>
                <path d="M6.35644,4.16376 C7.72691,2.78442 9.62165,2 12,2 C14.3786,2 16.2734,2.78458 17.6439,4.16417 C18.7996,5.32746 19.5237,6.85385 19.8944,8.53712 C19.9489,8.5475 20.0034,8.55995 20.0578,8.57455 C20.9268,8.80739 21.487,9.4907 21.7596,10.2244 C22.0331,10.9607 22.0589,11.8299 21.8329,12.6736 C21.5159,13.8566 20.6679,15.0237 19.4309,15.3392 C18.0793,18.589 15.0863,21 12,21 C8.91331,21 5.92,18.5884 4.56863,15.338 C3.33385,15.0207 2.48774,13.8553 2.17111,12.6736 C1.94504,11.8299 1.97085,10.9607 2.24441,10.2244 C2.51701,9.49071 3.07715,8.8074 3.94612,8.57455 C3.9992,8.56033 4.0523,8.54815 4.10534,8.53792 C4.4761,6.85415 5.20039,5.32729 6.35644,4.16376 Z" id="路径" fill="#09244B"></path>
            </g>
        </g>
    </g>
</svg>