<svg xmlns="http://www.w3.org/2000/svg" width="24" height="24"><g fill="none" fill-rule="evenodd"><path d="M24 0v24H0V0zM12.593 23.258l-.011.002-.071.035-.02.004-.014-.004-.071-.035c-.01-.004-.019-.001-.024.005l-.004.01-.017.428.005.02.01.013.104.074.015.004.012-.004.104-.074.012-.016.004-.017-.017-.427c-.002-.01-.009-.017-.017-.018m.265-.113-.013.002-.185.093-.01.01-.003.011.018.43.005.012.008.007.201.093c.012.004.023 0 .029-.008l.004-.014-.034-.614c-.003-.012-.01-.02-.02-.022m-.715.002a.023.023 0 0 0-.027.006l-.006.014-.034.614c0 .012.007.02.017.024l.015-.002.201-.093.01-.008.004-.011.017-.43-.003-.012-.01-.01z"/><path fill="#09244B" d="M6.356 4.164C7.726 2.784 9.622 2 12 2c2.379 0 4.273.785 5.644 2.164 1.156 1.163 1.88 2.69 2.25 4.373.055.01.11.023.164.038.869.232 1.429.916 1.702 1.65.273.736.299 1.605.073 2.449-.317 1.183-1.165 2.35-2.402 2.665C18.079 18.59 15.086 21 12 21c-3.087 0-6.08-2.412-7.431-5.662-1.235-.317-2.081-1.483-2.398-2.664-.226-.844-.2-1.713.073-2.45.273-.733.833-1.417 1.702-1.65.053-.014.106-.026.16-.036.37-1.684 1.094-3.21 2.25-4.374"/></g></svg>