<svg xmlns="http://www.w3.org/2000/svg" width="24" height="24" viewBox="0 0 24 24"><title>finger_love_line</title><g fill="none" fill-rule="nonzero"><path d="M24 0v24H0V0zM12.594 23.258l-.012.002-.071.035-.02.004-.014-.004-.071-.036q-.016-.004-.024.006l-.004.01-.017.428.005.02.01.013.104.074.015.004.012-.004.104-.074.012-.016.004-.017-.017-.427q-.004-.016-.016-.018m.264-.113-.014.002-.184.093-.01.01-.003.011.018.43.005.012.008.008.201.092q.019.005.029-.008l.004-.014-.034-.614q-.005-.019-.02-.022m-.715.002a.02.02 0 0 0-.027.006l-.006.014-.034.614q.001.018.017.024l.015-.002.201-.093.01-.008.003-.011.018-.43-.003-.012-.01-.01z"/><path fill="#09244b" d="M13.473 3.076a2.5 2.5 0 0 1 3.536 3.535l-1.096 1.096q.206.136.39.318c.628.629.848 1.509.667 2.317a2.49 2.49 0 0 1 1.415 2.829c.27.12.524.29.746.511a2.5 2.5 0 0 1 0 3.536l-2.475 2.475a7.001 7.001 0 0 1-9.9-9.9l.075-.075-1.643-4.45c-.233-.632-.023-1.418.649-1.795 1.153-.647 2.419-.805 3.575-.16.746.415 1.343 1.112 1.813 2.01zm2.121 1.414a.5.5 0 0 0-.707 0c-2.238 2.239-4.483 4.479-6.716 6.718a5 5 0 1 0 7.07 7.07l2.476-2.474a.5.5 0 0 0-.707-.707l-.354.353a1.001 1.001 0 0 1-1.415-1.414l1.061-1.06a.5.5 0 0 0-.705-.71l-1.063 1.063a1 1 0 0 1-1.414-1.414l1.767-1.768a.5.5 0 0 0-.707-.707l-2.474 2.475a1 1 0 0 1-1.414-1.414l5.302-5.304a.5.5 0 0 0 0-.707m-7.156.57c-.311-.174-.697-.226-1.208-.035l1.157 3.136L9.718 6.83c-.413-1.026-.88-1.548-1.28-1.77"/></g></svg>