<?xml version="1.0" encoding="UTF-8"?>
<svg width="24px" height="24px" viewBox="0 0 24 24" version="1.1" xmlns="http://www.w3.org/2000/svg" xmlns:xlink="http://www.w3.org/1999/xlink">
    <title>finger_press_line</title>
    <g id="Icon" stroke="none" stroke-width="1" fill="none" fill-rule="evenodd">
        <g id="Part" transform="translate(-672.000000, 0.000000)" fill-rule="nonzero">
            <g id="finger_press_line" transform="translate(672.000000, 0.000000)">
                <path d="M24,0 L24,24 L0,24 L0,0 L24,0 Z M12.5934901,23.257841 L12.5819402,23.2595131 L12.5108777,23.2950439 L12.4918791,23.2987469 L12.4918791,23.2987469 L12.4767152,23.2950439 L12.4056548,23.2595131 C12.3958229,23.2563662 12.3870493,23.2590235 12.3821421,23.2649074 L12.3780323,23.275831 L12.360941,23.7031097 L12.3658947,23.7234994 L12.3769048,23.7357139 L12.4804777,23.8096931 L12.4953491,23.8136134 L12.4953491,23.8136134 L12.5071152,23.8096931 L12.6106902,23.7357139 L12.6232938,23.7196733 L12.6232938,23.7196733 L12.6266527,23.7031097 L12.609561,23.275831 C12.6075724,23.2657013 12.6010112,23.2592993 12.5934901,23.257841 L12.5934901,23.257841 Z M12.8583906,23.1452862 L12.8445485,23.1473072 L12.6598443,23.2396597 L12.6498822,23.2499052 L12.6498822,23.2499052 L12.6471943,23.2611114 L12.6650943,23.6906389 L12.6699349,23.7034178 L12.6699349,23.7034178 L12.678386,23.7104931 L12.8793402,23.8032389 C12.8914285,23.8068999 12.9022333,23.8029875 12.9078286,23.7952264 L12.9118235,23.7811639 L12.8776777,23.1665331 C12.8752882,23.1545897 12.8674102,23.1470016 12.8583906,23.1452862 L12.8583906,23.1452862 Z M12.1430473,23.1473072 C12.1332178,23.1423925 12.1221763,23.1452606 12.1156365,23.1525954 L12.1099173,23.1665331 L12.0757714,23.7811639 C12.0751323,23.7926639 12.0828099,23.8018602 12.0926481,23.8045676 L12.108256,23.8032389 L12.3092106,23.7104931 L12.3186497,23.7024347 L12.3186497,23.7024347 L12.3225043,23.6906389 L12.340401,23.2611114 L12.337245,23.2485176 L12.337245,23.2485176 L12.3277531,23.2396597 L12.1430473,23.1473072 Z" id="MingCute"></path>
                <path d="M10.5,6 C11.825472,6 12.9100378,7.03153766 12.9946823,8.33562452 L13,8.5 L13,13.105 L17.4549,13.7111 C19.4067933,13.9344 20.8977252,15.5389958 20.9949519,17.4828447 L21,17.6851 L21,18 C21,19.2251 20.7239,20.3886 20.2297,21.4291 C19.9927,21.9279 19.3962,22.1402 18.8973,21.9033 C18.3985,21.6663 18.1862,21.0698 18.4231,20.5709 C18.7516333,19.8793444 18.9519296,19.1144654 18.992384,18.3054097 L19,18 L19,17.6851 C19,16.7196368 18.3123302,15.9004673 17.3787057,15.721258 L17.1964,15.6943 L12.7649,15.0911 C11.8120368,14.9783632 11.0805886,14.2070357 11.0062336,13.2637271 L11,13.105 L11,8.5 C11,8.22386 10.7762,8 10.5,8 C10.2545778,8 10.0504,8.17687704 10.0080571,8.41012499 L10,8.5 L10,17 C10,17.4247 9.73179,17.8031 9.33104,17.9436 C8.93029,18.0842 8.48446,17.9563 8.21916,17.6247 L7.88762949,17.2184646 L7.88762949,17.2184646 L7.58476281,16.8644984 C7.00596813,16.206725 6.58363,15.843575 6.22459,15.6611 C6.01238714,15.5532714 5.80160959,15.4973122 5.53067531,15.5235758 L5.38991,15.5437 L7.89446,20.5528 C8.14145,21.0468 7.94122,21.6474 7.44725,21.8944 C6.98855429,22.1237571 6.43785704,21.9675184 6.16377227,21.5485043 L6.1056,21.4472 L3.32921,15.8944 C2.96875,15.1735 3.23578,14.2109 4.07624,13.8664 C5.11856,13.4391 6.10996,13.3595 7.13061,13.8781 C7.35282,13.99105 7.57027688,14.1298188 7.78548234,14.291875 L8.00003,14.4616 L8.00003,8.5 C8.00003,7.11929 9.11932,6 10.5,6 Z M10.50001,2 C14.0899,2 17.00001,4.91015 17.00001,8.5 C17.00001,9.11294 16.9149,9.70765 16.7552,10.2722 C16.6049,10.8036 16.0523,11.1126 15.5208,10.9623 C14.9894,10.8119 14.6804,10.2593 14.8307,9.72784 C14.9408,9.33869 15.00001,8.92709 15.00001,8.5 C15.00001,6.01472 12.9853,4 10.50001,4 C8.01472,4 6.00001,6.01472 6.00001,8.5 C6.00001,9.23833 6.17705,9.9324 6.49012,10.5448 C6.7415,11.0366 6.54664,11.639 6.05489,11.8904 C5.56313,12.1418 4.9607,11.9469 4.70931,11.4552 C4.25552,10.5675 4.00001,9.56212 4.00001,8.5 C4.00001,4.91015 6.91016,2 10.50001,2 Z" id="形状" fill="#09244B"></path>
            </g>
        </g>
    </g>
</svg>