<svg xmlns="http://www.w3.org/2000/svg" width="24" height="24"><g fill="none"><path d="M24 0v24H0V0zM12.593 23.258l-.011.002-.071.035-.02.004-.014-.004-.071-.035c-.01-.004-.019-.001-.024.005l-.004.01-.017.428.005.02.01.013.104.074.015.004.012-.004.104-.074.012-.016.004-.017-.017-.427c-.002-.01-.009-.017-.017-.018m.265-.113-.013.002-.185.093-.01.01-.003.011.018.43.005.012.008.007.201.093c.012.004.023 0 .029-.008l.004-.014-.034-.614c-.003-.012-.01-.02-.02-.022m-.715.002a.023.023 0 0 0-.027.006l-.006.014-.034.614c0 .012.007.02.017.024l.015-.002.201-.093.01-.008.004-.011.017-.43-.003-.012-.01-.01z"/><path fill="#09244B" d="M9.5 2a2.5 2.5 0 0 1 2.495 2.336L12 4.5v4.605l5.442.605a4 4 0 0 1 3.553 3.772l.005.203V14a8 8 0 0 1-7.75 7.996L13 22h-.674a8 8 0 0 1-7.024-4.171l-.131-.251-2.842-5.684c-.36-.72-.093-1.683.747-2.028 1.043-.427 2.034-.507 3.055.012.222.113.44.252.654.414l.215.17V4.5A2.5 2.5 0 0 1 9.5 2M4.488 3.45a1 1 0 1 1 1.023 1.72c-.6.357-1.039.729-1.322 1.004a4.97 4.97 0 0 0-.263.274l-.121.145a1 1 0 0 1-1.394.215 1.01 1.01 0 0 1-.218-1.398 5.41 5.41 0 0 1 .6-.669 9.21 9.21 0 0 1 1.695-1.29Zm9.91-.57a9.56 9.56 0 0 1 2.532 1.604c.315.28.628.584.878.927a1 1 0 0 1-.219 1.397c-.41.3-.971.23-1.314-.122l-.147-.175-.097-.11-.14-.147a5.785 5.785 0 0 0-.085-.085l-.204-.19A7.56 7.56 0 0 0 13.6 4.716a1 1 0 1 1 .798-1.834Z"/></g></svg>