<svg xmlns="http://www.w3.org/2000/svg" width="24" height="24" viewBox="0 0 24 24"><title>finger_victory_fill</title><g fill="none" fill-rule="nonzero"><path d="M24 0v24H0V0zM12.594 23.258l-.012.002-.071.035-.02.004-.014-.004-.071-.036q-.016-.004-.024.006l-.004.01-.017.428.005.02.01.013.104.074.015.004.012-.004.104-.074.012-.016.004-.017-.017-.427q-.004-.016-.016-.018m.264-.113-.014.002-.184.093-.01.01-.003.011.018.43.005.012.008.008.201.092q.019.005.029-.008l.004-.014-.034-.614q-.005-.019-.02-.022m-.715.002a.02.02 0 0 0-.027.006l-.006.014-.034.614q.001.018.017.024l.015-.002.201-.093.01-.008.003-.011.018-.43-.003-.012-.01-.01z"/><path fill="#09244b" d="M10.327 1.128a1.98 1.98 0 0 1 2.429 1.424l1.28 5.54 1.19-4.623a1.97 1.97 0 1 1 3.76 1.169l-1.777 5.827-5.812-.645a2.59 2.59 0 0 0-2.877 2.574 2.16 2.16 0 0 0 1.539 2.067l3.233.971a.2.2 0 0 1 .122.281l-.394.787 1.182-.886a.5.5 0 0 0-.169-.883l-3.26-.889a1.393 1.393 0 0 1 .493-2.728l7.24.658a2 2 0 0 1 1.785 1.622c.05.42.011.861-.134 1.296l-.712 2.137a7.567 7.567 0 0 1-14.564-.751c-.247-1.11-.459-2.237-.754-3.335l-.647-2.415a1.749 1.749 0 0 1 3.344-1.022l-.215-.803A1.75 1.75 0 0 1 9.828 7.2l-.891-3.617a1.98 1.98 0 0 1 1.39-2.454"/></g></svg>