<svg xmlns="http://www.w3.org/2000/svg" width="24" height="24" viewBox="0 0 24 24"><title>finger_victory_line</title><g fill="none" fill-rule="nonzero"><path d="M24 0v24H0V0zM12.594 23.258l-.012.002-.071.035-.02.004-.014-.004-.071-.036q-.016-.004-.024.006l-.004.01-.017.428.005.02.01.013.104.074.015.004.012-.004.104-.074.012-.016.004-.017-.017-.427q-.004-.016-.016-.018m.264-.113-.014.002-.184.093-.01.01-.003.011.018.43.005.012.008.008.201.092q.019.005.029-.008l.004-.014-.034-.614q-.005-.019-.02-.022m-.715.002a.02.02 0 0 0-.027.006l-.006.014-.034.614q.001.018.017.024l.015-.002.201-.093.01-.008.003-.011.018-.43-.003-.012-.01-.01z"/><path fill="#09244b" d="M9.746 1.13a2.533 2.533 0 0 1 3.058 1.642l.777 2.322.586-1.471a2.538 2.538 0 0 1 4.766 1.742L17.15 10.71l.459.046a3 3 0 0 1 2.547 3.933l-.712 2.137a7.566 7.566 0 0 1-14.564-.75l-.824-3.714c-.18-.417-.266-.875-.383-1.312a2.5 2.5 0 0 1 2.798-3.116A2.49 2.49 0 0 1 8.57 6.388l-.603-2.115a2.533 2.533 0 0 1 1.78-3.142m1.269 11a.386.386 0 0 0-.004.745l4.252 1.16a1 1 0 0 1 .57 1.52l-1 1.5a1 1 0 0 1-1.665-1.11l.23-.345-2.913-.795a2.38 2.38 0 0 1-1.631-1.54 2.5 2.5 0 0 1-.658-.218 2.49 2.49 0 0 1-1.758.818l.395 1.777a5.567 5.567 0 0 0 10.715.551l.712-2.136a1 1 0 0 0-.849-1.311l-6.26-.626a.4.4 0 0 0-.136.01M5.959 9.92a.5.5 0 0 0-.353.612c.1.377.192.752.329 1.115a.498.498 0 0 0 .895-.408l-.295-1.06a.5.5 0 0 0-.576-.26m2.696-1.527a.5.5 0 0 0-.353.613l.517 1.931a.5.5 0 0 0 .261.316c.174-.282.403-.522.67-.708-.174-.647-.36-1.291-.545-1.936a.5.5 0 0 0-.55-.216m1.609-5.33a.533.533 0 0 0-.374.66c.613 2.148 1.25 4.283 1.828 6.438v.005l3.392.34 1.925-5.774a.538.538 0 0 0-1.01-.369L14.43 8.37a1 1 0 0 1-1.877-.053l-1.645-4.909a.533.533 0 0 0-.643-.346"/></g></svg>