<?xml version="1.0" encoding="UTF-8"?>
<svg width="24px" height="24px" viewBox="0 0 24 24" version="1.1" xmlns="http://www.w3.org/2000/svg" xmlns:xlink="http://www.w3.org/1999/xlink">
    <title>hair_2_fill</title>
    <g id="页面-1" stroke="none" stroke-width="1" fill="none" fill-rule="evenodd">
        <g id="Part" transform="translate(-288.000000, -48.000000)" fill-rule="nonzero">
            <g id="hair_2_fill" transform="translate(288.000000, 48.000000)">
                 <path d="M24,0 L24,24 L0,24 L0,0 L24,0 Z M12.5934901,23.257841 L12.5819402,23.2595131 L12.5108777,23.2950439 L12.4918791,23.2987469 L12.4918791,23.2987469 L12.4767152,23.2950439 L12.4056548,23.2595131 C12.3958229,23.2563662 12.3870493,23.2590235 12.3821421,23.2649074 L12.3780323,23.275831 L12.360941,23.7031097 L12.3658947,23.7234994 L12.3769048,23.7357139 L12.4804777,23.8096931 L12.4953491,23.8136134 L12.4953491,23.8136134 L12.5071152,23.8096931 L12.6106902,23.7357139 L12.6232938,23.7196733 L12.6232938,23.7196733 L12.6266527,23.7031097 L12.609561,23.275831 C12.6075724,23.2657013 12.6010112,23.2592993 12.5934901,23.257841 L12.5934901,23.257841 Z M12.8583906,23.1452862 L12.8445485,23.1473072 L12.6598443,23.2396597 L12.6498822,23.2499052 L12.6498822,23.2499052 L12.6471943,23.2611114 L12.6650943,23.6906389 L12.6699349,23.7034178 L12.6699349,23.7034178 L12.678386,23.7104931 L12.8793402,23.8032389 C12.8914285,23.8068999 12.9022333,23.8029875 12.9078286,23.7952264 L12.9118235,23.7811639 L12.8776777,23.1665331 C12.8752882,23.1545897 12.8674102,23.1470016 12.8583906,23.1452862 L12.8583906,23.1452862 Z M12.1430473,23.1473072 C12.1332178,23.1423925 12.1221763,23.1452606 12.1156365,23.1525954 L12.1099173,23.1665331 L12.0757714,23.7811639 C12.0751323,23.7926639 12.0828099,23.8018602 12.0926481,23.8045676 L12.108256,23.8032389 L12.3092106,23.7104931 L12.3186497,23.7024347 L12.3186497,23.7024347 L12.3225043,23.6906389 L12.340401,23.2611114 L12.337245,23.2485176 L12.337245,23.2485176 L12.3277531,23.2396597 L12.1430473,23.1473072 Z" id="MingCute" fill-rule="nonzero"></path>
                <path d="M18.7999,6.39998 C16.9156,3.88761 14.5206,2.5 11.9999,2.5 C9.4791,2.5 7.08416,3.8876 5.19986,6.39998 C3.78336,8.28864 2.07418,10.8406 1.83823,13.5244 C1.71656,14.9082 1.98533,16.325 2.85681,17.6731 C3.71823,19.0055 5.12544,20.2052 7.17171,21.2535 C8.43101,21.8987 9.80284,21.0342 9.98053,19.771 C9.57716,19.5018 9.18071,19.1645 8.81878,18.7696 C7.80612,17.6649 6.99988,16.0473 6.99988,13.9999 C6.99988,10.5715 8.76982,8.26538 10.8989,7.65648 C11.1813,7.57573 11.4994,7.78814 11.5331,8.0799 C11.8183,10.5517 13.9073,12.4748 16.4498,12.4997 C17.1239,12.5063 16.9999,13.5609 16.9999,13.9999 C16.9999,16.0473 16.1936,17.6649 15.1809,18.7696 C14.8179,19.1656 14.4202,19.5038 14.0156,19.7734 C14.1758,21.0407 15.5338,21.9121 16.7942,21.3041 C18.9591,20.2597 20.4375,19.0607 21.3316,17.7191 C22.2393,16.3572 22.4949,14.9222 22.3392,13.525 C22.0394,10.8344 20.2008,8.26785 18.7999,6.39998 Z" id="路径" fill="#09244B"></path>
            </g>
        </g>
    </g>
</svg>