<?xml version="1.0" encoding="UTF-8"?>
<svg width="24px" height="24px" viewBox="0 0 24 24" version="1.1" xmlns="http://www.w3.org/2000/svg" xmlns:xlink="http://www.w3.org/1999/xlink">
    <title>hair_2_fill</title>
    <g id="页面-1" stroke="none" stroke-width="1" fill="none" fill-rule="evenodd">
        <g id="Part" transform="translate(-288.000000, -48.000000)" fill-rule="nonzero">
            <g id="hair_2_fill" transform="translate(288.000000, 48.000000)">
                <rect id="矩形" x="0" y="0" width="24" height="24"></rect>
                <path d="M18.7999,6.39998 C16.9156,3.88761 14.5206,2.5 11.9999,2.5 C9.4791,2.5 7.08416,3.8876 5.19986,6.39998 C3.78336,8.28864 2.07418,10.8406 1.83823,13.5244 C1.71656,14.9082 1.98533,16.325 2.85681,17.6731 C3.71823,19.0055 5.12544,20.2052 7.17171,21.2535 C8.43101,21.8987 9.80284,21.0342 9.98053,19.771 C9.57716,19.5018 9.18071,19.1645 8.81878,18.7696 C7.80612,17.6649 6.99988,16.0473 6.99988,13.9999 C6.99988,10.5715 8.76982,8.26538 10.8989,7.65648 C11.1813,7.57573 11.4994,7.78814 11.5331,8.0799 C11.8183,10.5517 13.9073,12.4748 16.4498,12.4997 C17.1239,12.5063 16.9999,13.5609 16.9999,13.9999 C16.9999,16.0473 16.1936,17.6649 15.1809,18.7696 C14.8179,19.1656 14.4202,19.5038 14.0156,19.7734 C14.1758,21.0407 15.5338,21.9121 16.7942,21.3041 C18.9591,20.2597 20.4375,19.0607 21.3316,17.7191 C22.2393,16.3572 22.4949,14.9222 22.3392,13.525 C22.0394,10.8344 20.2008,8.26785 18.7999,6.39998 Z" id="路径" fill="#09244B"></path>
            </g>
        </g>
    </g>
</svg>