<svg xmlns="http://www.w3.org/2000/svg" width="24" height="24"><g fill="none"><path d="M24 0v24H0V0zM12.593 23.258l-.011.002-.071.035-.02.004-.014-.004-.071-.035c-.01-.004-.019-.001-.024.005l-.004.01-.017.428.005.02.01.013.104.074.015.004.012-.004.104-.074.012-.016.004-.017-.017-.427c-.002-.01-.009-.017-.017-.018m.265-.113-.013.002-.185.093-.01.01-.003.011.018.43.005.012.008.007.201.093c.012.004.023 0 .029-.008l.004-.014-.034-.614c-.003-.012-.01-.02-.02-.022m-.715.002a.023.023 0 0 0-.027.006l-.006.014-.034.614c0 .012.007.02.017.024l.015-.002.201-.093.01-.008.004-.011.017-.43-.003-.012-.01-.01z"/><path fill="#09244B" d="M12 3a9 9 0 0 0-9 9v6a3 3 0 0 0 3 3h1.382a2 2 0 0 0 1.789-1.106l.175-.35a6.6 6.6 0 0 1-.904-.76C7.343 17.678 6.5 16.054 6.5 14c0-.735.124-1.466.349-2.157.1-.307.377-.343.651-.343 1.69 0 3.185-.839 4.091-2.125a.5.5 0 0 1 .818 0A4.993 4.993 0 0 0 16.5 11.5c.274 0 .552.036.651.343A7 7 0 0 1 17.5 14c0 2.055-.843 3.678-1.942 4.784-.285.287-.59.541-.904.76l.175.35A2 2 0 0 0 16.618 21H18a3 3 0 0 0 3-3v-6a9 9 0 0 0-9-9"/></g></svg>