<?xml version="1.0" encoding="UTF-8"?>
<svg width="24px" height="24px" viewBox="0 0 24 24" version="1.1" xmlns="http://www.w3.org/2000/svg" xmlns:xlink="http://www.w3.org/1999/xlink">
    <title>hair_fill</title>
    <g id="页面-1" stroke="none" stroke-width="1" fill="none" fill-rule="evenodd">
        <g id="Part" transform="translate(-336.000000, -48.000000)" fill-rule="nonzero">
            <g id="hair_fill" transform="translate(336.000000, 48.000000)">
                <rect id="矩形" x="0" y="0" width="24" height="24"></rect>
                <path d="M12,3 C7.02944,3 3,7.02944 3,12 L3,18 C3,19.6569 4.34315,21 6,21 L7.38197,21 C8.13951,21 8.83204,20.572 9.17082,19.8944 L9.34564,19.5448 C9.03131,19.3254 8.72677,19.0709 8.44209,18.7842 C7.34335,17.6778 6.5,16.0546 6.5,14 C6.5,13.265 6.62409,12.5336 6.84885,11.8426 C6.94857,11.536 7.22583,11.5 7.5,11.5 C9.19063,11.5 10.6854,10.6614 11.5912,9.3752 C11.6848,9.24221 11.8373,9.16308 12,9.16309 C12.1626,9.16309 12.3151,9.24221 12.4088,9.37521 C13.3145,10.6614 14.8093,11.5 16.5,11.5 C16.7742,11.5 17.0515,11.536 17.1512,11.8426 C17.3759,12.5337 17.5,13.265 17.5,14 C17.5,16.0546 16.6567,17.6778 15.5579,18.7842 C15.2732,19.0709 14.9687,19.3254 14.6544,19.5448 L14.8292,19.8944 C15.168,20.572 15.8605,21 16.618,21 L18,21 C19.6569,21 21,19.6569 21,18 L21,12 C21,7.02944 16.9706,3 12,3 Z" id="路径" fill="#09244B"></path>
            </g>
        </g>
    </g>
</svg>