<svg xmlns="http://www.w3.org/2000/svg" width="24" height="24"><g fill="none" fill-rule="evenodd"><path d="M24 0v24H0V0zM12.593 23.258l-.011.002-.071.035-.02.004-.014-.004-.071-.035c-.01-.004-.019-.001-.024.005l-.004.01-.017.428.005.02.01.013.104.074.015.004.012-.004.104-.074.012-.016.004-.017-.017-.427c-.002-.01-.009-.017-.017-.018m.265-.113-.013.002-.185.093-.01.01-.003.011.018.43.005.012.008.007.201.093c.012.004.023 0 .029-.008l.004-.014-.034-.614c-.003-.012-.01-.02-.02-.022m-.715.002a.023.023 0 0 0-.027.006l-.006.014-.034.614c0 .012.007.02.017.024l.015-.002.201-.093.01-.008.004-.011.017-.43-.003-.012-.01-.01z"/><path fill="#09244B" d="M10.2 3c0-1.105.696-2 1.8-2 1.105 0 1.8.895 1.8 2l.2 8c0-.364.5-5.66.5-6 0-1 .595-2 1.7-2s1.8.895 1.8 2v7.268c.083-.048.3-3.846.3-4.268 0-1 .263-2 1.2-2 .938 0 1.5.895 1.5 2v6a8 8 0 0 1-8 8h-.674a8 8 0 0 1-7.155-4.422l-2.842-5.684c-.364-.728-.084-1.668.72-2.024.423-.187.897-.292 1.343-.15 1.108.353.944.86 1.608 1.49V5c0-1.105.695-2 1.8-2 1 0 1.609 1.315 1.7 2 .125.938.5 5.634.5 5.998z"/></g></svg>