<svg xmlns="http://www.w3.org/2000/svg" width="24" height="24"><g fill="none" fill-rule="evenodd"><path d="M24 0v24H0V0zM12.594 23.258l-.012.002-.071.035-.02.004-.014-.004-.071-.036c-.01-.003-.019 0-.024.006l-.004.01-.017.428.005.02.01.013.104.074.015.004.012-.004.104-.074.012-.016.004-.017-.017-.427c-.002-.01-.009-.017-.016-.018m.264-.113-.014.002-.184.093-.01.01-.003.011.018.43.005.012.008.008.201.092c.012.004.023 0 .029-.008l.004-.014-.034-.614c-.003-.012-.01-.02-.02-.022m-.715.002a.023.023 0 0 0-.027.006l-.006.014-.034.614c0 .012.007.02.017.024l.015-.002.201-.093.01-.008.003-.011.018-.43-.003-.012-.01-.01z"/><path fill="#09244B" d="M9.402 3.596a2.5 2.5 0 0 1 3.762.45l.091.146.69 1.197c.047-.065.098-.129.15-.19.574-.675 1.404-1.102 2.337-1.258.833-.14 1.463.439 1.651 1.05.205.668.578 1.48 1.05 2.348 1.578 2.913 1.355 6.59-.76 9.037-.42 1.912-1.545 3.643-3.4 4.714a7.036 7.036 0 0 1-9.48-2.36l-.3-.5-.172-.286c-.181-.296-.363-.593-.525-.897l-.154-.307-1.175-1.959a2.487 2.487 0 0 1 1.184-3.58l.151-.056-.774-1.34a2.5 2.5 0 0 1 1.45-3.647 2.5 2.5 0 0 1 4.224-2.562m6.92 2.432a1.66 1.66 0 0 0-.703.466 1.183 1.183 0 0 0-.282.674c.579.107 1 .567 1.148 1.048.205.668.578 1.48 1.049 2.348.244.45.445.92.603 1.4a6.473 6.473 0 0 0-.763-3.671c-.412-.76-.786-1.537-1.052-2.265m-5.482-1.02a.5.5 0 0 0-.222.6l.038.082.93 1.612.07.114.691 1.197c.163-.224.353-.424.565-.6l.163-.127-1.553-2.695a.5.5 0 0 0-.683-.183Zm-3.6-.232a.5.5 0 0 0-.183.683l.773 1.338a2.512 2.512 0 0 1 .865-.502L7.924 4.96a.5.5 0 0 0-.683-.183Zm14.124-.778a1 1 0 0 1-.266 1.303L21 5.365l-.84.487a1 1 0 0 1-1.1-1.666l.097-.064.84-.487a1 1 0 0 1 1.367.363M18.633 1.09a1 1 0 0 1 .731 1.11l-.024.115-.129.483a1 1 0 0 1-1.956-.404l.024-.114.13-.483a1 1 0 0 1 1.224-.707m-3.647 0a1 1 0 0 1 1.188.596l.037.111.13.483a1 1 0 0 1-1.896.629l-.036-.111-.13-.483a1 1 0 0 1 .707-1.225"/></g></svg>