<svg xmlns="http://www.w3.org/2000/svg" width="24" height="24" viewBox="0 0 24 24"><g fill="none" fill-rule="evenodd"><path d="M24,0 L24,24 L0,24 L0,0 L24,0 Z M12.5935,23.2578 L12.5819,23.2595 L12.5109,23.295 L12.4919,23.2987 L12.4767,23.295 L12.4057,23.2595 C12.3958,23.2564 12.387,23.259 12.3821,23.2649 L12.378,23.2758 L12.3609,23.7031 L12.3659,23.7235 L12.3769,23.7357 L12.4805,23.8097 L12.4953,23.8136 L12.5071,23.8097 L12.6107,23.7357 L12.6233,23.7197 L12.6267,23.7031 L12.6096,23.2758 C12.6076,23.2657 12.601,23.2593 12.5935,23.2578 Z M12.8584,23.1453 L12.8445,23.1473 L12.6598,23.2397 L12.6499,23.2499 L12.6472,23.2611 L12.6651,23.6906 L12.6699,23.7034 L12.6784,23.7105 L12.8793,23.8032 C12.8914,23.8069 12.9022,23.803 12.9078,23.7952 L12.9118,23.7812 L12.8777,23.1665 C12.8753,23.1546 12.8674,23.147 12.8584,23.1453 Z M12.143,23.1473 C12.1332,23.1424 12.1222,23.1453 12.1156,23.1526 L12.1099,23.1665 L12.0758,23.7812 C12.0751,23.7927 12.0828,23.8019 12.0926,23.8046 L12.1083,23.8032 L12.3092,23.7105 L12.3186,23.7024 L12.3225,23.6906 L12.3404,23.2611 L12.3372,23.2485 L12.3278,23.2397 L12.143,23.1473 Z"/><path fill="#09244B" d="M12.0000003,4.33872 C14.0719,2.65344 16.5339,2.65956 18.4938,3.80149 C20.5893,5.02239 22.0628,7.50113 21.9979,10.3933 C21.9190225,13.9121725 19.2460795,17.0274096 14.6747716,19.8171456 L13.9537392,20.2484488 C13.7526,20.366704 13.52994,20.4937 13.3125,20.6041 C12.907,20.8101 12.4627,21.0002 12.0000003,21.0002 C11.5373,21.0002 11.093,20.8101 10.6874,20.6041 C10.54248,20.5305 10.395216,20.449524 10.2535453,20.3686792 L9.68057,20.0311 L9.68057,20.0311 C4.89274,17.1869 2.083,14.0024 2.00206,10.3933 C1.9372,7.50113 3.41065,5.02239 5.50615,3.80149 C7.46612,2.65956 9.92814,2.65344 12.0000003,4.33872 Z M6.51299,5.52958 C5.06856,6.37114 3.95242,8.15771 4.00156,10.3485 C4.05789,12.8604 6.04114,15.5428 10.702,18.3116 C11.0036,18.4907 11.3059,18.6751 11.5932,18.821 C11.9294,18.9917 12.0706,18.9917 12.4068,18.821 C12.5983333,18.7237333 12.7965333,18.6093556 12.9967481,18.4908444 L13.298,18.3116 C15.6491,16.9149 17.3189,15.5402 18.4037,14.1983 C17.3295,14.1794 16.2657,13.7574 15.4551,12.9468 L14.2651,11.7568 L13.5029,12.5189 C11.9237,14.0982 9.36321,14.0982 7.78397,12.5189 C6.68043,11.4154 6.68018,9.62627 7.78341,8.52243 L10.5552,5.74906 C9.19937,4.75327 7.72456,4.82368 6.51299,5.52958 Z M13.0112532,6.10849628 L12.8195,6.29462 C12.7886,6.33752 12.7538,6.37851 12.7152,6.41714 L9.19802,9.93625 C8.87546,10.259 8.87554,10.7821 9.19818,11.1047 C9.99637,11.9029 11.2905,11.9029 12.0887,11.1047 L12.9544,10.239 C13.6783,9.51516 14.8519,9.51516 15.5758,10.239 L16.8694,11.5326 C17.6439,12.3071 18.8528,12.415 19.7483,11.8113 C19.906,11.3179 19.9876,10.83 19.9984,10.3485 C20.0476,8.15771 18.9314,6.37114 17.487,5.52958 C16.1449185,4.74764444 14.4798593,4.7454735 13.0112532,6.10849628 L13.0112532,6.10849628 Z"/></g></svg>