<?xml version="1.0" encoding="UTF-8"?>
<svg width="24px" height="24px" viewBox="0 0 24 24" version="1.1" xmlns="http://www.w3.org/2000/svg" xmlns:xlink="http://www.w3.org/1999/xlink">
    <title>incognito_mode_fill</title>
    <g id="Icon" stroke="none" stroke-width="1" fill="none" fill-rule="evenodd">
        <g id="Part" transform="translate(-144.000000, -240.000000)">
            <g id="incognito_mode_fill" transform="translate(144.000000, 240.000000)">
                <path d="M24,0 L24,24 L0,24 L0,0 L24,0 Z M12.5935,23.2578 L12.5819,23.2595 L12.5109,23.295 L12.4919,23.2987 L12.4767,23.295 L12.4057,23.2595 C12.3958,23.2564 12.387,23.259 12.3821,23.2649 L12.378,23.2758 L12.3609,23.7031 L12.3659,23.7235 L12.3769,23.7357 L12.4805,23.8097 L12.4953,23.8136 L12.5071,23.8097 L12.6107,23.7357 L12.6233,23.7197 L12.6267,23.7031 L12.6096,23.2758 C12.6076,23.2657 12.601,23.2593 12.5935,23.2578 Z M12.8584,23.1453 L12.8445,23.1473 L12.6598,23.2397 L12.6499,23.2499 L12.6472,23.2611 L12.6651,23.6906 L12.6699,23.7034 L12.6784,23.7105 L12.8793,23.8032 C12.8914,23.8069 12.9022,23.803 12.9078,23.7952 L12.9118,23.7812 L12.8777,23.1665 C12.8753,23.1546 12.8674,23.147 12.8584,23.1453 Z M12.143,23.1473 C12.1332,23.1424 12.1222,23.1453 12.1156,23.1526 L12.1099,23.1665 L12.0758,23.7812 C12.0751,23.7927 12.0828,23.8019 12.0926,23.8046 L12.1083,23.8032 L12.3092,23.7105 L12.3186,23.7024 L12.3225,23.6906 L12.3404,23.2611 L12.3372,23.2485 L12.3278,23.2397 L12.143,23.1473 Z" id="MingCute" fill-rule="nonzero"></path>
                <path d="M5.01361,9.8356 C5.0044,9.89084 4.99991,9.94578 4.99984,10 L4,10 C3.44772,10 3,10.4477 3,11 C3,11.5523 3.44772,12 4,12 L20,12 C20.5523,12 21,11.5523 21,11 C21,10.4477 20.5523,10 20,10 L19.0002,10 C19.0001,9.94578 18.9956,9.89084 18.9864,9.8356 L18.2649,5.5068 C18.0238,4.06024 16.7723,3 15.3057,3 L8.69425,3 C7.22774,3 5.97617,4.06024 5.73507,5.5068 L5.01361,9.8356 Z M7,13 C8.86384,13 10.4299,14.2748 10.874,16 L13.126,16 C13.5701,14.2748 15.1362,13 17,13 C19.2091,13 21,14.7909 21,17 C21,19.2091 19.2091,21 17,21 C15.1362,21 13.5701,19.7252 13.126,18 L10.874,18 C10.4299,19.7252 8.86384,21 7,21 C4.79086,21 3,19.2091 3,17 C3,14.7909 4.79086,13 7,13 Z" id="形状" fill="#09244B"></path>
            </g>
        </g>
    </g>
</svg>