<svg xmlns="http://www.w3.org/2000/svg" width="24" height="24" viewBox="0 0 24 24"><g fill="none"><path d="M24,0 L24,24 L0,24 L0,0 L24,0 Z M12.5935,23.2578 L12.5819,23.2595 L12.5109,23.295 L12.4919,23.2987 L12.4767,23.295 L12.4057,23.2595 C12.3958,23.2564 12.387,23.259 12.3821,23.2649 L12.378,23.2758 L12.3609,23.7031 L12.3659,23.7235 L12.3769,23.7357 L12.4805,23.8097 L12.4953,23.8136 L12.5071,23.8097 L12.6107,23.7357 L12.6233,23.7197 L12.6267,23.7031 L12.6096,23.2758 C12.6076,23.2657 12.601,23.2593 12.5935,23.2578 Z M12.8584,23.1453 L12.8445,23.1473 L12.6598,23.2397 L12.6499,23.2499 L12.6472,23.2611 L12.6651,23.6906 L12.6699,23.7034 L12.6784,23.7105 L12.8793,23.8032 C12.8914,23.8069 12.9022,23.803 12.9078,23.7952 L12.9118,23.7812 L12.8777,23.1665 C12.8753,23.1546 12.8674,23.147 12.8584,23.1453 Z M12.143,23.1473 C12.1332,23.1424 12.1222,23.1453 12.1156,23.1526 L12.1099,23.1665 L12.0758,23.7812 C12.0751,23.7927 12.0828,23.8019 12.0926,23.8046 L12.1083,23.8032 L12.3092,23.7105 L12.3186,23.7024 L12.3225,23.6906 L12.3404,23.2611 L12.3372,23.2485 L12.3278,23.2397 L12.143,23.1473 Z"/><path fill="#09244B" d="M10.1366,6.73963 L10.3049,8.9281 L10.5546,8.76168 C10.8328,8.57622 10.9999,8.26399 10.9999,7.92963 L10.9999,4 C10.9999,3.44772 11.4476,3 11.9999,3 C12.5522,3 12.9999,3.44772 12.9999,4 L12.9999,7.92963 C12.9999,8.26399 13.167,8.57622 13.4452,8.76168 L13.6948,8.9281 L13.8632,6.73963 C13.9842,5.16611 15.7947,4.34611 17.0573,5.29302 L17.6419,5.73148 C19.1062,6.82974 20.0821,8.45791 20.3605,10.2671 L21.4403,17.2859 C21.7984,19.6134 19.4579,21.4271 17.2934,20.4995 L16.2382,20.0472 C14.2708,19.2041 13.0583,17.2022 13.2225,15.068 L13.5189,11.2146 L12.3358,10.4258 C12.2169,10.3465 12.1048,10.2595 11.9999,10.1658 C11.895,10.2595 11.7829,10.3465 11.664,10.4258 L10.4808,11.2146 L10.7772,15.068 C10.9414,17.2022 9.72894,19.2041 7.76157,20.0472 L6.70635,20.4995 C4.54187,21.4271 2.2014,19.6134 2.55947,17.2859 L3.63929,10.2671 C3.91762,8.45791 4.89353,6.82974 6.35789,5.73148 L6.94249,5.29302 C8.20504,4.34611 10.0156,5.16611 10.1366,6.73963 Z"/></g></svg>