<?xml version="1.0" encoding="UTF-8"?>
<svg width="24px" height="24px" viewBox="0 0 24 24" version="1.1" xmlns="http://www.w3.org/2000/svg" xmlns:xlink="http://www.w3.org/1999/xlink">
    <title>mouth_fill</title>
    <g id="页面-1" stroke="none" stroke-width="1" fill="none" fill-rule="evenodd">
        <g id="Part" transform="translate(-384.000000, -48.000000)">
            <g id="mouth_fill" transform="translate(384.000000, 48.000000)">
                <rect id="矩形" fill-rule="nonzero" x="0" y="0" width="24" height="24"></rect>
                <path d="M20.3143,8.03775 C18.9074,7.07308 16.9416,6.0781 14.9267,6.00193 C14.1207,5.97146 13.4445,6.30726 12.7598,6.64733 C12.5678,6.74269 12.3752,6.83838 12.1788,6.92644 C12.0236,6.99598 11.9764,6.99598 11.8212,6.92644 C11.6248,6.83839 11.4322,6.7427 11.2402,6.64735 C10.5555,6.30728 9.87934,5.97148 9.07333,6.00196 C7.05843,6.07815 5.09261,7.07311 3.68571,8.03777 C2.76327,8.67025 1,9.6837 1,11.0007 C1,12.4522 2.9368,14.1171 3.91411,14.9494 C5.72969,16.4957 8.45115,18.000002 12,18.000002 C15.5489,18.000002 18.2703,16.4957 20.0859,14.9494 C21.1019,14.0841 23,12.513 23,11.0007 C23,9.72309 21.206,8.64915 20.3143,8.03775 Z M12,13 C15.1535,13 18.1821,12.5101 21,11.6088 C19.5309,11.2126 17.976,11 16.3668,11 C14.8546,11 13.3902,11.1878 12,11.5392 C10.6098,11.1878 9.14543,11 7.6332,11 C6.02404,11 4.46909,11.2126 3,11.6088 C5.81791,12.5101 8.8465,13 12,13 Z" id="形状" fill="#09244B"></path>
            </g>
        </g>
    </g>
</svg>