<?xml version="1.0" encoding="UTF-8"?>
<svg width="24px" height="24px" viewBox="0 0 24 24" version="1.1" xmlns="http://www.w3.org/2000/svg" xmlns:xlink="http://www.w3.org/1999/xlink">
    <title>mouth_line</title>
    <g id="页面-1" stroke="none" stroke-width="1" fill="none" fill-rule="evenodd">
        <g id="Part" transform="translate(-384.000000, 0.000000)">
            <g id="mouth_line" transform="translate(384.000000, 0.000000)">
                <path d="M24,0 L24,24 L0,24 L0,0 L24,0 Z M12.5934901,23.257841 L12.5819402,23.2595131 L12.5108777,23.2950439 L12.4918791,23.2987469 L12.4918791,23.2987469 L12.4767152,23.2950439 L12.4056548,23.2595131 C12.3958229,23.2563662 12.3870493,23.2590235 12.3821421,23.2649074 L12.3780323,23.275831 L12.360941,23.7031097 L12.3658947,23.7234994 L12.3769048,23.7357139 L12.4804777,23.8096931 L12.4953491,23.8136134 L12.4953491,23.8136134 L12.5071152,23.8096931 L12.6106902,23.7357139 L12.6232938,23.7196733 L12.6232938,23.7196733 L12.6266527,23.7031097 L12.609561,23.275831 C12.6075724,23.2657013 12.6010112,23.2592993 12.5934901,23.257841 L12.5934901,23.257841 Z M12.8583906,23.1452862 L12.8445485,23.1473072 L12.6598443,23.2396597 L12.6498822,23.2499052 L12.6498822,23.2499052 L12.6471943,23.2611114 L12.6650943,23.6906389 L12.6699349,23.7034178 L12.6699349,23.7034178 L12.678386,23.7104931 L12.8793402,23.8032389 C12.8914285,23.8068999 12.9022333,23.8029875 12.9078286,23.7952264 L12.9118235,23.7811639 L12.8776777,23.1665331 C12.8752882,23.1545897 12.8674102,23.1470016 12.8583906,23.1452862 L12.8583906,23.1452862 Z M12.1430473,23.1473072 C12.1332178,23.1423925 12.1221763,23.1452606 12.1156365,23.1525954 L12.1099173,23.1665331 L12.0757714,23.7811639 C12.0751323,23.7926639 12.0828099,23.8018602 12.0926481,23.8045676 L12.108256,23.8032389 L12.3092106,23.7104931 L12.3186497,23.7024347 L12.3186497,23.7024347 L12.3225043,23.6906389 L12.340401,23.2611114 L12.337245,23.2485176 L12.337245,23.2485176 L12.3277531,23.2396597 L12.1430473,23.1473072 Z" id="MingCute" fill-rule="nonzero"></path>
                <path d="M20.3143,8.03775 C18.9074,7.07308 16.9416,6.0781 14.9267,6.00193 C14.1207,5.97146 13.4445,6.30726 12.7598,6.64733 C12.5678,6.74269 12.3752,6.83838 12.1788,6.92644 C12.0236,6.99598 11.9764,6.99598 11.8212,6.92644 C11.6248,6.83839 11.4322,6.7427 11.2402,6.64735 C10.5555,6.30728 9.87934,5.97148 9.07333,6.00196 C7.05843,6.07815 5.09261,7.07311 3.68571,8.03777 C2.76327,8.67025 1,9.6837 1,11.0007 C1,12.4522 2.9368,14.1171 3.91411,14.9494 C5.72969,16.4957 8.45115,18.000002 12,18.000002 C15.5489,18.000002 18.2703,16.4957 20.0859,14.9494 C21.1019,14.0841 23,12.513 23,11.0007 C23,9.72309 21.206,8.64915 20.3143,8.03775 Z M12.9969,8.75151 C12.7546,8.86017 12.3952,9.00115 12,9.00115 C11.6049,9.00115 11.2455,8.86017 11.0031,8.75151 C10.4188,8.48958 9.81105,7.97557 9.14892,8.0006 C7.23673,8.07291 5.40709,9.14268 3.95508,10.333 C5.81813,11.0831 8.84528,11.5 12,11.5 C15.1548,11.5 18.1819,11.0831 20.045,10.333 C18.593,9.14266 16.7633,8.07286 14.8511,8.00057 C14.2021,7.97604 13.5691,8.49501 12.9969,8.75151 Z M4.30096,12.5648 C6.46268,13.2051 9.27679,13.5 12,13.5 C14.7233,13.5 17.5374,13.2051 19.6991,12.5648 C17.6986,14.6733 14.9328,16 12,16 C9.06722,16 6.30142,14.6733 4.30096,12.5648 Z" id="形状" fill="#09244B"></path>
            </g>
        </g>
    </g>
</svg>