<svg xmlns="http://www.w3.org/2000/svg" width="24" height="24"><g fill="none"><path d="M24 0v24H0V0zM12.593 23.258l-.011.002-.071.035-.02.004-.014-.004-.071-.035c-.01-.004-.019-.001-.024.005l-.004.01-.017.428.005.02.01.013.104.074.015.004.012-.004.104-.074.012-.016.004-.017-.017-.427c-.002-.01-.009-.017-.017-.018m.265-.113-.013.002-.185.093-.01.01-.003.011.018.43.005.012.008.007.201.093c.012.004.023 0 .029-.008l.004-.014-.034-.614c-.003-.012-.01-.02-.02-.022m-.715.002a.023.023 0 0 0-.027.006l-.006.014-.034.614c0 .012.007.02.017.024l.015-.002.201-.093.01-.008.004-.011.017-.43-.003-.012-.01-.01z"/><path fill="#09244B" d="M7.27 7.267C7.745 5.096 10 2 12 2c2 0 4.255 3.096 4.73 5.267.25 1.14.642 2.241 1.164 3.286C18.907 12.577 21 14.043 21 16.5a3.5 3.5 0 0 1-3.5 3.5c-.576 0-1.52-.372-2.053-.106-.395.198-.662.667-.957.98C13.97 21.424 13.226 22 12 22c-1.226 0-1.97-.576-2.49-1.126-.295-.313-.562-.782-.957-.98C8.02 19.628 7.076 20 6.5 20A3.5 3.5 0 0 1 3 16.5c0-2.457 2.093-3.922 3.106-5.947A14.056 14.056 0 0 0 7.27 7.267"/></g></svg>