<svg xmlns="http://www.w3.org/2000/svg" width="24" height="24"><g fill="none" fill-rule="evenodd"><path d="M24 0v24H0V0zM12.594 23.258l-.012.002-.071.035-.02.004-.014-.004-.071-.036c-.01-.003-.019 0-.024.006l-.004.01-.017.428.005.02.01.013.104.074.015.004.012-.004.104-.074.012-.016.004-.017-.017-.427c-.002-.01-.009-.017-.016-.018m.264-.113-.014.002-.184.093-.01.01-.003.011.018.43.005.012.008.008.201.092c.012.004.023 0 .029-.008l.004-.014-.034-.614c-.003-.012-.01-.02-.02-.022m-.715.002a.023.023 0 0 0-.027.006l-.006.014-.034.614c0 .012.007.02.017.024l.015-.002.201-.093.01-.008.003-.011.018-.43-.003-.012-.01-.01z"/><path fill="#09244B" d="M8.843 4.687A2.099 2.099 0 0 1 12 3.31a2.099 2.099 0 0 1 3.157 1.377l1.451 7.255a2 2 0 0 0 1.476 1.548l1.696.424a1.5 1.5 0 0 1 1.107 1.75l-.694 3.469a2 2 0 0 1-2.51 1.53l-3.057-.873A4.993 4.993 0 0 1 12 17.983a4.994 4.994 0 0 1-2.626 1.807l-3.057.874a2 2 0 0 1-2.51-1.531l-.694-3.47a1.5 1.5 0 0 1 1.107-1.749l1.696-.424a2 2 0 0 0 1.476-1.548zm-2.65 10.795-1.025.257.6 3.002 1.081-.31zm11.613 0-.655 2.95 1.081.309.6-3.002z"/></g></svg>