<svg xmlns="http://www.w3.org/2000/svg" width="24" height="24"><g fill="none"><path d="M24 0v24H0V0zM12.593 23.258l-.011.002-.071.035-.02.004-.014-.004-.071-.035c-.01-.004-.019-.001-.024.005l-.004.01-.017.428.005.02.01.013.104.074.015.004.012-.004.104-.074.012-.016.004-.017-.017-.427c-.002-.01-.009-.017-.017-.018m.265-.113-.013.002-.185.093-.01.01-.003.011.018.43.005.012.008.007.201.093c.012.004.023 0 .029-.008l.004-.014-.034-.614c-.003-.012-.01-.02-.02-.022m-.715.002a.023.023 0 0 0-.027.006l-.006.014-.034.614c0 .012.007.02.017.024l.015-.002.201-.093.01-.008.004-.011.017-.43-.003-.012-.01-.01z"/><path fill="#09244B" d="M8.828 3a3 3 0 0 0-2.12.879l-3.001 3a3 3 0 0 0 0 4.242l1.465 1.465a1 1 0 0 0 1.414 0l4-4a1 1 0 0 0 0-1.414L8.478 5.064A1 1 0 0 1 8.828 5h6.344a1 1 0 0 1 .35.064l-7.23 7.229a3.817 3.817 0 0 0-1.12 2.73 3.812 3.812 0 0 0 1.121 2.685 3.821 3.821 0 0 0 3.101 1.1l1.399 1.4a1 1 0 0 0 1.414-1.415l-.809-.809c.107-.086.21-.178.31-.277l.292-.293 1.293 1.293a1 1 0 0 0 1.414-1.414L15.414 16l.586-.586 1.793 1.793a1 1 0 0 0 1.414-1.414L17.414 14l2.879-2.879a3 3 0 0 0 0-4.242l-3-3A3 3 0 0 0 15.172 3z"/></g></svg>