<svg xmlns="http://www.w3.org/2000/svg" width="24" height="24"><g fill="none"><path d="M24 0v24H0V0zM12.593 23.258l-.011.002-.071.035-.02.004-.014-.004-.071-.035c-.01-.004-.019-.001-.024.005l-.004.01-.017.428.005.02.01.013.104.074.015.004.012-.004.104-.074.012-.016.004-.017-.017-.427c-.002-.01-.009-.017-.017-.018m.265-.113-.013.002-.185.093-.01.01-.003.011.018.43.005.012.008.007.201.093c.012.004.023 0 .029-.008l.004-.014-.034-.614c-.003-.012-.01-.02-.02-.022m-.715.002a.023.023 0 0 0-.027.006l-.006.014-.034.614c0 .012.007.02.017.024l.015-.002.201-.093.01-.008.004-.011.017-.43-.003-.012-.01-.01z"/><path fill="#09244B" d="M18.026 3.902a1 1 0 0 0-.717-.489c-.41 0-.853.324-1.327.673-.117.086-.236.173-.357.258-.542.377-1.164.72-1.696.828-.83.17-1.783-.069-2.547-.41-.87-.401-1.373.522-1.762 1.236-.073.133-.142.26-.208.369-.29.473-.655 1.037-1.07 1.606a1 1 0 0 0-1.04 1.313c-.308.378-.6.74-.877 1.087A1 1 0 0 0 5.29 11.84c-1.072 1.433-1.81 2.598-2.236 3.635-.36.88-.514 1.703-.447 2.542.067.827.342 1.597.727 2.376.522 1.055 1.802 1.344 2.739.803l14.722-8.5a2 2 0 0 0 .732-2.732l-.5-.866-6.062 3.5a1 1 0 0 1-1-1.732l6.062-3.5z"/></g></svg>