<svg xmlns="http://www.w3.org/2000/svg" width="24" height="24"><g fill="none"><path d="M24 0v24H0V0zM12.593 23.258l-.011.002-.071.035-.02.004-.014-.004-.071-.035c-.01-.004-.019-.001-.024.005l-.004.01-.017.428.005.02.01.013.104.074.015.004.012-.004.104-.074.012-.016.004-.017-.017-.427c-.002-.01-.009-.017-.017-.018m.265-.113-.013.002-.185.093-.01.01-.003.011.018.43.005.012.008.007.201.093c.012.004.023 0 .029-.008l.004-.014-.034-.614c-.003-.012-.01-.02-.02-.022m-.715.002a.023.023 0 0 0-.027.006l-.006.014-.034.614c0 .012.007.02.017.024l.015-.002.201-.093.01-.008.004-.011.017-.43-.003-.012-.01-.01z"/><path fill="#09244B" d="M7.93 19.09A6.01 6.01 0 0 1 6.82 19c-2.07-.37-5.06-2.32-4.88-4.39C2.18 12 6.56 12 8 12c1.92 0 3.89-2.07 6.62-4.94.81-.86 1.7-1.79 2.67-2.77a1 1 0 0 1 1.16-.18 6.1 6.1 0 0 1 3.4 4 5.39 5.39 0 0 1-1.05 4.49A10.14 10.14 0 0 0 19 18a1.005 1.005 0 0 1-2 .2 18.322 18.322 0 0 0-1.22-4 21.62 21.62 0 0 0-3.59 3.06 6 6 0 0 1-4.26 1.83"/></g></svg>