<?xml version="1.0" encoding="UTF-8"?>
<svg width="24px" height="24px" viewBox="0 0 24 24" version="1.1" xmlns="http://www.w3.org/2000/svg" xmlns:xlink="http://www.w3.org/1999/xlink">
    <title>shorts_fill</title>
    <g id="Icon" stroke="none" stroke-width="1" fill="none" fill-rule="evenodd">
        <g id="Part" transform="translate(-576.000000, -144.000000)" fill-rule="nonzero">
            <g id="shorts_fill" transform="translate(576.000000, 144.000000)">
                <path d="M24,0 L24,24 L0,24 L0,0 L24,0 Z M12.5934901,23.257841 L12.5819402,23.2595131 L12.5108777,23.2950439 L12.4918791,23.2987469 L12.4918791,23.2987469 L12.4767152,23.2950439 L12.4056548,23.2595131 C12.3958229,23.2563662 12.3870493,23.2590235 12.3821421,23.2649074 L12.3780323,23.275831 L12.360941,23.7031097 L12.3658947,23.7234994 L12.3769048,23.7357139 L12.4804777,23.8096931 L12.4953491,23.8136134 L12.4953491,23.8136134 L12.5071152,23.8096931 L12.6106902,23.7357139 L12.6232938,23.7196733 L12.6232938,23.7196733 L12.6266527,23.7031097 L12.609561,23.275831 C12.6075724,23.2657013 12.6010112,23.2592993 12.5934901,23.257841 L12.5934901,23.257841 Z M12.8583906,23.1452862 L12.8445485,23.1473072 L12.6598443,23.2396597 L12.6498822,23.2499052 L12.6498822,23.2499052 L12.6471943,23.2611114 L12.6650943,23.6906389 L12.6699349,23.7034178 L12.6699349,23.7034178 L12.678386,23.7104931 L12.8793402,23.8032389 C12.8914285,23.8068999 12.9022333,23.8029875 12.9078286,23.7952264 L12.9118235,23.7811639 L12.8776777,23.1665331 C12.8752882,23.1545897 12.8674102,23.1470016 12.8583906,23.1452862 L12.8583906,23.1452862 Z M12.1430473,23.1473072 C12.1332178,23.1423925 12.1221763,23.1452606 12.1156365,23.1525954 L12.1099173,23.1665331 L12.0757714,23.7811639 C12.0751323,23.7926639 12.0828099,23.8018602 12.0926481,23.8045676 L12.108256,23.8032389 L12.3092106,23.7104931 L12.3186497,23.7024347 L12.3186497,23.7024347 L12.3225043,23.6906389 L12.340401,23.2611114 L12.337245,23.2485176 L12.337245,23.2485176 L12.3277531,23.2396597 L12.1430473,23.1473072 Z" id="MingCute"></path>
                <path d="M5.84709,5 C4.86942,5 4.03503,5.70682 3.87431,6.6712 L3.81671,7.01675 C3.87612,7.00575 3.93737,7 3.99997,7 L20,7 C20.0626,7 20.1238,7.00575 20.1832,7.01675 L20.1256,6.6712 C19.9649,5.70683 19.1305,5 18.1528,5 L5.84709,5 Z M20.4922,8.87066 C20.3469,8.953 20.1789,9 20,9 L3.99997,9 C3.82102,9 3.65305,8.953 3.50773,8.87066 L2.20764,16.6712 C2.00446,17.8903 2.94455,19 4.18043,19 L9.46478,19 C10.1335,19 10.758,18.6658 11.1289,18.1094 L12,15.8028 L12.871,18.1094 C13.242,18.6658 13.8664,19 14.5351,19 L19.8195,19 C21.0554,19 21.9955,17.8903 21.7923,16.6712 L20.4922,8.87066 Z" id="形状" fill="#09244B"></path>
            </g>
        </g>
    </g>
</svg>