<?xml version="1.0" encoding="UTF-8"?>
<svg width="24px" height="24px" viewBox="0 0 24 24" version="1.1" xmlns="http://www.w3.org/2000/svg" xmlns:xlink="http://www.w3.org/1999/xlink">
    <title>skirt_line</title>
    <g id="Icon" stroke="none" stroke-width="1" fill="none" fill-rule="evenodd">
        <g id="Part" transform="translate(-624.000000, -96.000000)">
            <g id="skirt_line" transform="translate(624.000000, 96.000000)">
                <path d="M24,0 L24,24 L0,24 L0,0 L24,0 Z M12.5934901,23.257841 L12.5819402,23.2595131 L12.5108777,23.2950439 L12.4918791,23.2987469 L12.4918791,23.2987469 L12.4767152,23.2950439 L12.4056548,23.2595131 C12.3958229,23.2563662 12.3870493,23.2590235 12.3821421,23.2649074 L12.3780323,23.275831 L12.360941,23.7031097 L12.3658947,23.7234994 L12.3769048,23.7357139 L12.4804777,23.8096931 L12.4953491,23.8136134 L12.4953491,23.8136134 L12.5071152,23.8096931 L12.6106902,23.7357139 L12.6232938,23.7196733 L12.6232938,23.7196733 L12.6266527,23.7031097 L12.609561,23.275831 C12.6075724,23.2657013 12.6010112,23.2592993 12.5934901,23.257841 L12.5934901,23.257841 Z M12.8583906,23.1452862 L12.8445485,23.1473072 L12.6598443,23.2396597 L12.6498822,23.2499052 L12.6498822,23.2499052 L12.6471943,23.2611114 L12.6650943,23.6906389 L12.6699349,23.7034178 L12.6699349,23.7034178 L12.678386,23.7104931 L12.8793402,23.8032389 C12.8914285,23.8068999 12.9022333,23.8029875 12.9078286,23.7952264 L12.9118235,23.7811639 L12.8776777,23.1665331 C12.8752882,23.1545897 12.8674102,23.1470016 12.8583906,23.1452862 L12.8583906,23.1452862 Z M12.1430473,23.1473072 C12.1332178,23.1423925 12.1221763,23.1452606 12.1156365,23.1525954 L12.1099173,23.1665331 L12.0757714,23.7811639 C12.0751323,23.7926639 12.0828099,23.8018602 12.0926481,23.8045676 L12.108256,23.8032389 L12.3092106,23.7104931 L12.3186497,23.7024347 L12.3186497,23.7024347 L12.3225043,23.6906389 L12.340401,23.2611114 L12.337245,23.2485176 L12.337245,23.2485176 L12.3277531,23.2396597 L12.1430473,23.1473072 Z" id="MingCute" fill-rule="nonzero"></path>
                <path d="M7.49291,2.13815 C7.88513,1.90737 8.38364,1.97054 8.70589,2.29167 C9.03947,2.62083 9.41532,2.90836 9.80474,3.16797 C10.5049,3.63477 11.3006,4.00002 12,4.00002 C12.6995,4.00002 13.4951,3.63477 14.1953,3.16797 C14.5832,2.9094 14.9585,2.61885 15.2928,2.29302 C15.615,1.97109 16.1146,1.90714 16.5072,2.13815 C16.8999,2.36924 17.0867,2.8366 16.9616,3.27474 L15.1472,9.62485 C15.7972,10.1971 16.3383,10.9179 16.785,11.668 C17.8363,13.4328 18.5207,15.4685 18.8864,17.4857 C18.9958,18.0891 19.1872,18.8619 18.8946,19.4472 C18.4326,20.3712 16.9906,20.4555 16.0965,20.5562 C14.9378,20.6868 13.4604,20.75 12.0001,20.75 C10.5398,20.75 9.06241,20.6868 7.90375,20.5563 C7.00423,20.4549 5.57917,20.3944 5.10566,19.4472 C4.81892,18.8736 5.0053,18.0843 5.11385,17.4857 C5.47961,15.4685 6.16399,13.4328 7.21521,11.668 C7.66194,10.918 8.20302,10.1972 8.85287,9.62498 L7.03851,3.27474 C6.91333,2.8366 7.10017,2.36924 7.49291,2.13815 Z M10.6562,8.65672 C11.1012,8.54749 11.5644,8.50003 12.0001,8.50002 C12.4358,8.50002 12.8989,8.54747 13.3438,8.65667 L14.2662,5.42846 C13.6004,5.74816 12.8193,6.00002 12,6.00002 C11.1808,6.00002 10.3997,5.74816 9.73389,5.42846 L10.6562,8.65672 Z M10.5548,10.8321 C10.8315,10.6476 11.3621,10.5 12.0001,10.5 C12.6381,10.5 13.1687,10.6476 13.4454,10.8321 C14.0245,11.2181 14.5726,11.8619 15.0668,12.6915 C15.9958,14.2511 16.5954,16.0604 16.9185,17.8425 C17.057,18.6062 16.5895,18.488 15.8725,18.5688 C14.8124,18.6883 13.4148,18.75 12.0001,18.75 C10.5854,18.75 9.18776,18.6883 8.12768,18.5688 C7.41067,18.488 6.94328,18.6062 7.08176,17.8425 C7.4049,16.0604 8.00447,14.2512 8.93349,12.6915 C9.42764,11.8619 9.9758,11.2181 10.5548,10.8321 Z" id="形状" fill="#09244B"></path>
            </g>
        </g>
    </g>
</svg>