<?xml version="1.0" encoding="UTF-8"?>
<svg width="24px" height="24px" viewBox="0 0 24 24" version="1.1" xmlns="http://www.w3.org/2000/svg" xmlns:xlink="http://www.w3.org/1999/xlink">
    <title>skull_fill</title>
    <g id="Icon" stroke="none" stroke-width="1" fill="none" fill-rule="evenodd">
        <g id="Part" transform="translate(-192.000000, -240.000000)">
            <g id="skull_fill" transform="translate(192.000000, 240.000000)">
                <path d="M24,0 L24,24 L0,24 L0,0 L24,0 Z M12.5935,23.2578 L12.5819,23.2595 L12.5109,23.295 L12.4919,23.2987 L12.4767,23.295 L12.4057,23.2595 C12.3958,23.2564 12.387,23.259 12.3821,23.2649 L12.378,23.2758 L12.3609,23.7031 L12.3659,23.7235 L12.3769,23.7357 L12.4805,23.8097 L12.4953,23.8136 L12.5071,23.8097 L12.6107,23.7357 L12.6233,23.7197 L12.6267,23.7031 L12.6096,23.2758 C12.6076,23.2657 12.601,23.2593 12.5935,23.2578 Z M12.8584,23.1453 L12.8445,23.1473 L12.6598,23.2397 L12.6499,23.2499 L12.6472,23.2611 L12.6651,23.6906 L12.6699,23.7034 L12.6784,23.7105 L12.8793,23.8032 C12.8914,23.8069 12.9022,23.803 12.9078,23.7952 L12.9118,23.7812 L12.8777,23.1665 C12.8753,23.1546 12.8674,23.147 12.8584,23.1453 Z M12.143,23.1473 C12.1332,23.1424 12.1222,23.1453 12.1156,23.1526 L12.1099,23.1665 L12.0758,23.7812 C12.0751,23.7927 12.0828,23.8019 12.0926,23.8046 L12.1083,23.8032 L12.3092,23.7105 L12.3186,23.7024 L12.3225,23.6906 L12.3404,23.2611 L12.3372,23.2485 L12.3278,23.2397 L12.143,23.1473 Z" id="MingCute" fill-rule="nonzero"></path>
                <path d="M12,2 C16.9706,2 21,6.02944 21,11 C21,13.9004 19.6269,16.4805 17.4995,18.1248 C17.1607,18.3866 17,18.7156 17,19 C17,20.1046 16.1046,21 15,21 L15,20 C15,19.4477 14.5523,19 14,19 C13.4477,19 13,19.4477 13,20 L13,21 L11,21 L11,20 C11,19.4477 10.5523,19 10,19 C9.44772,19 9,19.4477 9,20 L9,21 C7.89543,21 7,20.1046 7,19 C7,18.7156 6.83927,18.3866 6.50052,18.1248 C4.37306,16.4805 3,13.9004 3,11 C3,6.02944 7.02944,2 12,2 Z M8.5,9 C7.11929,9 6,10.1193 6,11.5 C6,12.8807 7.11929,14 8.5,14 C9.88071,14 11,12.8807 11,11.5 C11,10.1193 9.88071,9 8.5,9 Z M15.5,9 C14.1193,9 13,10.1193 13,11.5 C13,12.8807 14.1193,14 15.5,14 C16.8807,14 18,12.8807 18,11.5 C18,10.1193 16.8807,9 15.5,9 Z" id="形状" fill="#09244B"></path>
            </g>
        </g>
    </g>
</svg>