<?xml version="1.0" encoding="UTF-8"?>
<svg width="24px" height="24px" viewBox="0 0 24 24" version="1.1" xmlns="http://www.w3.org/2000/svg" xmlns:xlink="http://www.w3.org/1999/xlink">
    <title>celsius_line</title>
    <g id="Icon" stroke="none" stroke-width="1" fill="none" fill-rule="evenodd">
        <g id="Weather" transform="translate(-1.000000, -96.000000)">
            <g id="celsius_line" transform="translate(1.000000, 96.000000)">
                <path d="M24,0 L24,24 L0,24 L0,0 L24,0 Z M12.5935,23.2578 L12.5819,23.2595 L12.5109,23.295 L12.4919,23.2987 L12.4767,23.295 L12.4057,23.2595 C12.3958,23.2564 12.387,23.259 12.3821,23.2649 L12.378,23.2758 L12.3609,23.7031 L12.3659,23.7235 L12.3769,23.7357 L12.4805,23.8097 L12.4953,23.8136 L12.5071,23.8097 L12.6107,23.7357 L12.6233,23.7197 L12.6267,23.7031 L12.6096,23.2758 C12.6076,23.2657 12.601,23.2593 12.5935,23.2578 Z M12.8584,23.1453 L12.8445,23.1473 L12.6598,23.2397 L12.6499,23.2499 L12.6472,23.2611 L12.6651,23.6906 L12.6699,23.7034 L12.6784,23.7105 L12.8793,23.8032 C12.8914,23.8069 12.9022,23.803 12.9078,23.7952 L12.9118,23.7812 L12.8777,23.1665 C12.8753,23.1546 12.8674,23.147 12.8584,23.1453 Z M12.143,23.1473 C12.1332,23.1424 12.1222,23.1453 12.1156,23.1526 L12.1099,23.1665 L12.0758,23.7812 C12.0751,23.7927 12.0828,23.8019 12.0926,23.8046 L12.1083,23.8032 L12.3092,23.7105 L12.3186,23.7024 L12.3225,23.6906 L12.3404,23.2611 L12.3372,23.2485 L12.3278,23.2397 L12.143,23.1473 Z" id="MingCute" fill-rule="nonzero"></path>
                <path d="M6,4 C4.34315,4 3,5.34315 3,7 C3,8.65685 4.34315,10 6,10 C7.65685,10 9,8.65685 9,7 C9,5.34315 7.65685,4 6,4 Z M5,7 C5,6.44772 5.44772,6 6,6 C6.55228,6 7,6.44772 7,7 C7,7.55228 6.55228,8 6,8 C5.44772,8 5,7.55228 5,7 Z M15.5,4 C13.0147,4 11,6.01472 11,8.5 L11,15.5 C11,17.9853 13.0147,20 15.5,20 L16.5,20 C18.9853,20 21,17.9853 21,15.5 L21,15 C21,14.4477 20.5523,14 20,14 C19.4477,14 19,14.4477 19,15 L19,15.5 C19,16.8807 17.8807,18 16.5,18 L15.5,18 C14.1193,18 13,16.8807 13,15.5 L13,8.5 C13,7.11929 14.1193,6 15.5,6 L16.5,6 C17.8807,6 19,7.11929 19,8.5 L19,9 C19,9.55228 19.4477,10 20,10 C20.5523,10 21,9.55228 21,9 L21,8.5 C21,6.01472 18.9853,4 16.5,4 L15.5,4 Z" id="形状" fill="#09244B"></path>
            </g>
        </g>
    </g>
</svg>