<?xml version="1.0" encoding="UTF-8"?>
<svg width="24px" height="24px" viewBox="0 0 24 24" version="1.1" xmlns="http://www.w3.org/2000/svg" xmlns:xlink="http://www.w3.org/1999/xlink">
    <title>cloud_lightning_fill</title>
    <g id="页面-1" stroke="none" stroke-width="1" fill="none" fill-rule="evenodd">
        <g id="Weather" transform="translate(-193.000000, -48.000000)" fill-rule="nonzero">
            <g id="cloud_lightning_fill" transform="translate(193.000000, 48.000000)">
                <rect id="矩形" x="0" y="0" width="24" height="24"></rect>
                <path d="M11.1318,13.0039 C11.4058,12.5243 12.0166,12.3577 12.4961,12.6318 C12.9414429,12.8862286 13.1169031,13.4310612 12.9202368,13.8915109 L12.8682,13.9961 L11.7232,16 L13.8277,16 C14.6339091,16 15.1530126,16.8313397 14.8340297,17.5447839 L14.7827,17.6458 L12.8682,20.9961 C12.5942,21.4757 11.9834,21.6423 11.5039,21.3682 C11.0585571,21.1137714 10.8830969,20.5689388 11.0797632,20.1084891 L11.1318,20.0039 L12.2768,18 L10.1723,18 C9.36611,18 8.84699824,17.1686603 9.16592813,16.4552161 L9.21725,16.3542 L11.1318,13.0039 Z M11.5,2 C14.2856,2 16.66,3.75154 17.5856,6.21198 C20.13,6.90766 22,9.23462 22,12 C22,15.0379 19.7423,17.5484 16.8133,17.9453 C17.2617,16.3904 16.4022,14.7467 14.9194,14.194 C15.2201,12.9319 14.6719,11.5716 13.4884,10.8953 C12.0499,10.0733 10.2173,10.5731 9.39528,12.0116 L7.48078,15.362 C6.98583,16.2282 6.96044,17.183 7.2732,18 L7,18 C4.23858,18 2,15.7614 2,13 C2,10.9486 3.23468,9.18749 5.00053,8.41614 C5.04543,4.86494 7.93814,2 11.5,2 Z" id="形状" fill="#09244B"></path>
            </g>
        </g>
    </g>
</svg>