<svg xmlns="http://www.w3.org/2000/svg" width="24" height="24"><g fill="none"><path d="M24 0v24H0V0zM12.593 23.258l-.011.002-.071.035-.02.004-.014-.004-.071-.035c-.01-.004-.019-.001-.024.005l-.004.01-.017.428.005.02.01.013.104.074.015.004.012-.004.104-.074.012-.016.004-.017-.017-.427c-.002-.01-.009-.017-.017-.018m.265-.113-.013.002-.185.093-.01.01-.003.011.018.43.005.012.008.007.201.093c.012.004.023 0 .029-.008l.004-.014-.034-.614c-.003-.012-.01-.02-.02-.022m-.715.002a.023.023 0 0 0-.027.006l-.006.014-.034.614c0 .012.007.02.017.024l.015-.002.201-.093.01-.008.004-.011.017-.43-.003-.012-.01-.01z"/><path fill="#09244B" d="M14.5 19a1.5 1.5 0 1 1 0 3 1.5 1.5 0 0 1 0-3m-4-2a1.5 1.5 0 1 1 0 3 1.5 1.5 0 0 1 0-3m1-15a6.502 6.502 0 0 1 6.086 4.212 6.002 6.002 0 0 1 .19 11.52A3.5 3.5 0 0 0 14.5 13a1.52 1.52 0 0 1-1.199-.599 3.5 3.5 0 0 0-6.012 3.492 1.54 1.54 0 0 1 0 1.216c-.122.28-.208.58-.253.892H7a5 5 0 0 1-2-9.584A6.5 6.5 0 0 1 11.5 2m3 13a1.5 1.5 0 1 1 0 3 1.5 1.5 0 0 1 0-3m-4-2a1.5 1.5 0 1 1 0 3 1.5 1.5 0 0 1 0-3"/></g></svg>