<?xml version="1.0" encoding="UTF-8"?>
<svg width="24px" height="24px" viewBox="0 0 24 24" version="1.1" xmlns="http://www.w3.org/2000/svg" xmlns:xlink="http://www.w3.org/1999/xlink">
    <title>cloud_snow_fill</title>
    <g id="页面-1" stroke="none" stroke-width="1" fill="none" fill-rule="evenodd">
        <g id="Weather" transform="translate(-241.000000, -48.000000)" fill-rule="nonzero">
            <g id="cloud_snow_fill" transform="translate(241.000000, 48.000000)">
                <rect id="矩形" x="0" y="0" width="24" height="24"></rect>
                <path d="M14.5,19 C15.3284,19 16,19.6716 16,20.5 C16,21.3284 15.3284,22 14.5,22 C13.6716,22 13,21.3284 13,20.5 C13,19.6716 13.6716,19 14.5,19 Z M10.5,17 C11.3284,17 12,17.6716 12,18.5 C12,19.3284 11.3284,20 10.5,20 C9.67157,20 9,19.3284 9,18.5 C9,17.6716 9.67157,17 10.5,17 Z M11.5,2 C14.2856,2 16.66,3.75154 17.5856,6.21198 C20.13,6.90766 22,9.23462 22,12 C22,14.6951 20.223,16.9752 17.7768,17.7326 C17.9211,17.3492 18,16.9338 18,16.5 C18,14.567 16.433,13 14.5,13 C14.0347,13 13.5797,12.772 13.3002,12.4 C12.6617,11.5499 11.6451,11 10.5,11 C8.567,11 7,12.567 7,14.5 C7,14.9947 7.10263,15.4654 7.28777,15.892 C7.45459,16.2765 7.45459,16.7235 7.28777,17.108 C7.16616,17.3882 7.08015,17.6874 7.03544,18 L7,18 C4.23858,18 2,15.7614 2,13 C2,10.9486 3.23468,9.18749 5.00053,8.41614 C5.04543,4.86494 7.93814,2 11.5,2 Z M14.5,15 C15.3284,15 16,15.6716 16,16.5 C16,17.3284 15.3284,18 14.5,18 C13.6716,18 13,17.3284 13,16.5 C13,15.6716 13.6716,15 14.5,15 Z M10.5,13 C11.3284,13 12,13.6716 12,14.5 C12,15.3284 11.3284,16 10.5,16 C9.67157,16 9,15.3284 9,14.5 C9,13.6716 9.67157,13 10.5,13 Z" id="形状结合" fill="#09244B"></path>
            </g>
        </g>
    </g>
</svg>