<?xml version="1.0" encoding="UTF-8"?>
<svg width="24px" height="24px" viewBox="0 0 24 24" version="1.1" xmlns="http://www.w3.org/2000/svg" xmlns:xlink="http://www.w3.org/1999/xlink">
    <title>cloud_snow_fill</title>
    <g id="页面-1" stroke="none" stroke-width="1" fill="none" fill-rule="evenodd">
        <g id="Weather" transform="translate(-241.000000, -48.000000)" fill-rule="nonzero">
            <g id="cloud_snow_fill" transform="translate(241.000000, 48.000000)">
                 <path d="M24,0 L24,24 L0,24 L0,0 L24,0 Z M12.5934901,23.257841 L12.5819402,23.2595131 L12.5108777,23.2950439 L12.4918791,23.2987469 L12.4918791,23.2987469 L12.4767152,23.2950439 L12.4056548,23.2595131 C12.3958229,23.2563662 12.3870493,23.2590235 12.3821421,23.2649074 L12.3780323,23.275831 L12.360941,23.7031097 L12.3658947,23.7234994 L12.3769048,23.7357139 L12.4804777,23.8096931 L12.4953491,23.8136134 L12.4953491,23.8136134 L12.5071152,23.8096931 L12.6106902,23.7357139 L12.6232938,23.7196733 L12.6232938,23.7196733 L12.6266527,23.7031097 L12.609561,23.275831 C12.6075724,23.2657013 12.6010112,23.2592993 12.5934901,23.257841 L12.5934901,23.257841 Z M12.8583906,23.1452862 L12.8445485,23.1473072 L12.6598443,23.2396597 L12.6498822,23.2499052 L12.6498822,23.2499052 L12.6471943,23.2611114 L12.6650943,23.6906389 L12.6699349,23.7034178 L12.6699349,23.7034178 L12.678386,23.7104931 L12.8793402,23.8032389 C12.8914285,23.8068999 12.9022333,23.8029875 12.9078286,23.7952264 L12.9118235,23.7811639 L12.8776777,23.1665331 C12.8752882,23.1545897 12.8674102,23.1470016 12.8583906,23.1452862 L12.8583906,23.1452862 Z M12.1430473,23.1473072 C12.1332178,23.1423925 12.1221763,23.1452606 12.1156365,23.1525954 L12.1099173,23.1665331 L12.0757714,23.7811639 C12.0751323,23.7926639 12.0828099,23.8018602 12.0926481,23.8045676 L12.108256,23.8032389 L12.3092106,23.7104931 L12.3186497,23.7024347 L12.3186497,23.7024347 L12.3225043,23.6906389 L12.340401,23.2611114 L12.337245,23.2485176 L12.337245,23.2485176 L12.3277531,23.2396597 L12.1430473,23.1473072 Z" id="MingCute" fill-rule="nonzero"></path>
                <path d="M14.5,19 C15.3284,19 16,19.6716 16,20.5 C16,21.3284 15.3284,22 14.5,22 C13.6716,22 13,21.3284 13,20.5 C13,19.6716 13.6716,19 14.5,19 Z M10.5,17 C11.3284,17 12,17.6716 12,18.5 C12,19.3284 11.3284,20 10.5,20 C9.67157,20 9,19.3284 9,18.5 C9,17.6716 9.67157,17 10.5,17 Z M11.5,2 C14.2856,2 16.66,3.75154 17.5856,6.21198 C20.13,6.90766 22,9.23462 22,12 C22,14.6951 20.223,16.9752 17.7768,17.7326 C17.9211,17.3492 18,16.9338 18,16.5 C18,14.567 16.433,13 14.5,13 C14.0347,13 13.5797,12.772 13.3002,12.4 C12.6617,11.5499 11.6451,11 10.5,11 C8.567,11 7,12.567 7,14.5 C7,14.9947 7.10263,15.4654 7.28777,15.892 C7.45459,16.2765 7.45459,16.7235 7.28777,17.108 C7.16616,17.3882 7.08015,17.6874 7.03544,18 L7,18 C4.23858,18 2,15.7614 2,13 C2,10.9486 3.23468,9.18749 5.00053,8.41614 C5.04543,4.86494 7.93814,2 11.5,2 Z M14.5,15 C15.3284,15 16,15.6716 16,16.5 C16,17.3284 15.3284,18 14.5,18 C13.6716,18 13,17.3284 13,16.5 C13,15.6716 13.6716,15 14.5,15 Z M10.5,13 C11.3284,13 12,13.6716 12,14.5 C12,15.3284 11.3284,16 10.5,16 C9.67157,16 9,15.3284 9,14.5 C9,13.6716 9.67157,13 10.5,13 Z" id="形状结合" fill="#09244B"></path>
            </g>
        </g>
    </g>
</svg>