<?xml version="1.0" encoding="UTF-8"?>
<svg width="24px" height="24px" viewBox="0 0 24 24" version="1.1" xmlns="http://www.w3.org/2000/svg" xmlns:xlink="http://www.w3.org/1999/xlink">
    <title>cloud_line</title>
    <g id="页面-1" stroke="none" stroke-width="1" fill="none" fill-rule="evenodd">
        <g id="cloud_line">
            <rect id="矩形" fill-rule="nonzero" x="0" y="0" width="24" height="24"></rect>
            <path d="M5.00053,10.4161 C5.04543,6.86494 7.93814,4 11.5,4 C14.2856,4 16.66,5.75154 17.5856,8.21198 C20.13,8.90766 22,11.2346 22,14 C22,17.3137 19.3137,20 16,20 L7,20 C4.23858,20 2,17.7614 2,15 C2,12.9486 3.23468,11.1875 5.00053,10.4161 Z M11.5,6 C9.01472,6 7,8.01472 7,10.5 C7,10.6691 7.00928,10.8356 7.02729,10.9992 C7.08294,11.5047 6.75512,11.9678 6.26851,12.0896 C4.96468,12.4159 4,13.5965 4,15 C4,16.6569 5.34315,18 7,18 L16,18 C18.2091,18 20,16.2091 20,14 C20,12.0145 18.5524,10.3652 16.6552,10.0532 C16.2654,9.98915 15.9477,9.70337 15.8441,9.32051 C15.326,7.40663 13.576,6 11.5,6 Z" id="形状" fill="#09244B"></path>
        </g>
    </g>
</svg>