<?xml version="1.0" encoding="UTF-8"?>
<svg width="24px" height="24px" viewBox="0 0 24 24" version="1.1" xmlns="http://www.w3.org/2000/svg" xmlns:xlink="http://www.w3.org/1999/xlink">
    <title>drizzle_line</title>
    <g id="Icon" stroke="none" stroke-width="1" fill="none" fill-rule="evenodd">
        <g id="Weather" transform="translate(-97.000000, -96.000000)" fill-rule="nonzero">
            <g id="drizzle_line" transform="translate(97.000000, 96.000000)">
                <path d="M24,0 L24,24 L0,24 L0,0 L24,0 Z M12.5935,23.2578 L12.5819,23.2595 L12.5109,23.295 L12.4919,23.2987 L12.4767,23.295 L12.4057,23.2595 C12.3958,23.2564 12.387,23.259 12.3821,23.2649 L12.378,23.2758 L12.3609,23.7031 L12.3659,23.7235 L12.3769,23.7357 L12.4805,23.8097 L12.4953,23.8136 L12.5071,23.8097 L12.6107,23.7357 L12.6233,23.7197 L12.6267,23.7031 L12.6096,23.2758 C12.6076,23.2657 12.601,23.2593 12.5935,23.2578 Z M12.8584,23.1453 L12.8445,23.1473 L12.6598,23.2397 L12.6499,23.2499 L12.6472,23.2611 L12.6651,23.6906 L12.6699,23.7034 L12.6784,23.7105 L12.8793,23.8032 C12.8914,23.8069 12.9022,23.803 12.9078,23.7952 L12.9118,23.7812 L12.8777,23.1665 C12.8753,23.1546 12.8674,23.147 12.8584,23.1453 Z M12.143,23.1473 C12.1332,23.1424 12.1222,23.1453 12.1156,23.1526 L12.1099,23.1665 L12.0758,23.7812 C12.0751,23.7927 12.0828,23.8019 12.0926,23.8046 L12.1083,23.8032 L12.3092,23.7105 L12.3186,23.7024 L12.3225,23.6906 L12.3404,23.2611 L12.3372,23.2485 L12.3278,23.2397 L12.143,23.1473 Z" id="MingCute"></path>
                <path d="M10.9241,15.7922 C11.0671,15.2587 11.6154,14.9422 12.1489,15.0851 C12.6823,15.228 12.9989,15.7764 12.856,16.3098 L12.5972,17.2758 C12.4542,17.8092 11.9059,18.1258 11.3724,17.9829 C10.8389,17.8399 10.5224,17.2916 10.6653,16.7581 L10.9241,15.7922 Z M11.5,2 C14.2856,2 16.6599,3.75153 17.5856,6.21198 C20.13,6.90766 22,9.23463 22,12 C22,14.9039 19.938,17.324 17.1989,17.88 C16.6577,17.9899 16.1299,17.6402 16.02,17.0989 C15.9101,16.5577 16.2598,16.0298 16.8011,15.92 C18.6264,15.5494 20,13.934 20,12 C20,10.0127 18.5498,8.36228 16.6501,8.0524 C16.2624,7.98917 15.9477,7.70486 15.8455,7.32561 C15.3291,5.40914 13.5778,4 11.5,4 C9.01472,4 7,6.01472 7,8.5 C7,8.67155 7.00955,8.84048 7.02808,9.00636 C7.08375,9.50475 6.76165,9.96731 6.27489,10.088 C4.96785,10.412 4,11.5942 4,13 C4,14.3446783 4.88551871,15.4847773 6.10638176,15.8649244 L6.27489,15.912 C6.81095,16.0449 7.13778,16.5872 7.00488,17.1233 C6.87198,17.6593 6.32969,17.9862 5.79363,17.8533 C3.6155,17.3133 2,15.3465 2,13 C2,10.9486 3.23466,9.1875 5.00053,8.41614 C5.04543,4.86494 7.93814,2 11.5,2 Z M11.8207,20.1736 C11.9636,19.6401 11.6471,19.0917 11.1136,18.9488 C10.5801,18.8059 10.0318,19.1224 9.88884,19.6559 L9.63003,20.6218 C9.48708,21.1553 9.80367,21.7036 10.3371,21.8466 C10.8706,21.9895 11.4189,21.6729 11.5619,21.1395 L11.8207,20.1736 Z" id="形状" fill="#09244B"></path>
            </g>
        </g>
    </g>
</svg>