<?xml version="1.0" encoding="UTF-8"?>
<svg width="24px" height="24px" viewBox="0 0 24 24" version="1.1" xmlns="http://www.w3.org/2000/svg" xmlns:xlink="http://www.w3.org/1999/xlink">
    <title>fog_fill</title>
    <g id="Icon" stroke="none" stroke-width="1" fill="none" fill-rule="evenodd">
        <g id="Weather" transform="translate(-241.000000, -144.000000)" fill-rule="nonzero">
            <g id="fog_fill" transform="translate(241.000000, 144.000000)">
                <path d="M24,0 L24,24 L0,24 L0,0 L24,0 Z M12.5935,23.2578 L12.5819,23.2595 L12.5109,23.295 L12.4919,23.2987 L12.4767,23.295 L12.4057,23.2595 C12.3958,23.2564 12.387,23.259 12.3821,23.2649 L12.378,23.2758 L12.3609,23.7031 L12.3659,23.7235 L12.3769,23.7357 L12.4805,23.8097 L12.4953,23.8136 L12.5071,23.8097 L12.6107,23.7357 L12.6233,23.7197 L12.6267,23.7031 L12.6096,23.2758 C12.6076,23.2657 12.601,23.2593 12.5935,23.2578 Z M12.8584,23.1453 L12.8445,23.1473 L12.6598,23.2397 L12.6499,23.2499 L12.6472,23.2611 L12.6651,23.6906 L12.6699,23.7034 L12.6784,23.7105 L12.8793,23.8032 C12.8914,23.8069 12.9022,23.803 12.9078,23.7952 L12.9118,23.7812 L12.8777,23.1665 C12.8753,23.1546 12.8674,23.147 12.8584,23.1453 Z M12.143,23.1473 C12.1332,23.1424 12.1222,23.1453 12.1156,23.1526 L12.1099,23.1665 L12.0758,23.7812 C12.0751,23.7927 12.0828,23.8019 12.0926,23.8046 L12.1083,23.8032 L12.3092,23.7105 L12.3186,23.7024 L12.3225,23.6906 L12.3404,23.2611 L12.3372,23.2485 L12.3278,23.2397 L12.143,23.1473 Z" id="MingCute"></path>
                <path d="M5.0006,8.41609 C5.04552,4.86491 7.93822,2 11.5001,2 C14.2857,2 16.66,3.75154 17.5856,6.21198 C20.1301,6.90766 22.0001,9.23462 22.0001,12 C22.0001,12.2018 21.9901,12.4016 21.9705,12.5988 C21.9197,13.1103 21.4894,13.5 20.9754,13.5 L3.0310077,13.5 C2.74423,13.5 2.47125,13.3769 2.28143,13.1619 C2.09161,12.9469 2.00321,12.6608 2.0387,12.3763 C2.26076,10.5955 3.41661,9.10784 5.0006,8.41609 Z M3,16 C3,15.4477 3.44772,15 4,15 L20,15 C20.5523,15 21,15.4477 21,16 C21,16.5523 20.5523,17 20,17 L4,17 C3.44772,17 3,16.5523 3,16 Z M8,19 C7.44772,19 7,19.4477 7,20 C7,20.5523 7.44772,21 8,21 L17,21 C17.5523,21 18,20.5523 18,20 C18,19.4477 17.5523,19 17,19 L8,19 Z" id="形状" fill="#09244B"></path>
            </g>
        </g>
    </g>
</svg>