<svg xmlns="http://www.w3.org/2000/svg" width="24" height="24"><g fill="none"><path d="M24 0v24H0V0zM12.594 23.258l-.012.002-.071.035-.02.004-.014-.004-.071-.036c-.01-.003-.019 0-.024.006l-.004.01-.017.428.005.02.01.013.104.074.015.004.012-.004.104-.074.012-.016.004-.017-.017-.427c-.002-.01-.009-.017-.016-.018m.264-.113-.014.002-.184.093-.01.01-.003.011.018.43.005.012.008.008.201.092c.012.004.023 0 .029-.008l.004-.014-.034-.614c-.003-.012-.01-.02-.02-.022m-.715.002a.023.023 0 0 0-.027.006l-.006.014-.034.614c0 .012.007.02.017.024l.015-.002.201-.093.01-.008.003-.011.018-.43-.003-.012-.01-.01z"/><path fill="#09244B" d="M14 18a2 2 0 1 1 0 4 2 2 0 0 1 0-4m-4.5-1a1.5 1.5 0 1 1 0 3 1.5 1.5 0 0 1 0-3m2-15a6.502 6.502 0 0 1 6.086 4.212 6.002 6.002 0 0 1-.217 11.631 4.004 4.004 0 0 0-.12-.177 3.5 3.5 0 0 0-3.71-5.533 4 4 0 1 0-6.788 4.2c-.355.45-.602.988-.701 1.577A5.002 5.002 0 0 1 5 8.416 6.5 6.5 0 0 1 11.5 2m3 12a1.5 1.5 0 1 1 0 3 1.5 1.5 0 0 1 0-3M10 12a2 2 0 1 1 0 4 2 2 0 0 1 0-4"/></g></svg>