<?xml version="1.0" encoding="UTF-8"?>
<svg width="24px" height="24px" viewBox="0 0 24 24" version="1.1" xmlns="http://www.w3.org/2000/svg" xmlns:xlink="http://www.w3.org/1999/xlink">
    <title>haze_fill</title>
    <g id="Icon" stroke="none" stroke-width="1" fill="none" fill-rule="evenodd">
        <g id="Weather" transform="translate(-337.000000, -144.000000)" fill-rule="nonzero">
            <g id="haze_fill" transform="translate(337.000000, 144.000000)">
                <path d="M24,0 L24,24 L0,24 L0,0 L24,0 Z M12.5935,23.2578 L12.5819,23.2595 L12.5109,23.295 L12.4919,23.2987 L12.4767,23.295 L12.4057,23.2595 C12.3958,23.2564 12.387,23.259 12.3821,23.2649 L12.378,23.2758 L12.3609,23.7031 L12.3659,23.7235 L12.3769,23.7357 L12.4805,23.8097 L12.4953,23.8136 L12.5071,23.8097 L12.6107,23.7357 L12.6233,23.7197 L12.6267,23.7031 L12.6096,23.2758 C12.6076,23.2657 12.601,23.2593 12.5935,23.2578 Z M12.8584,23.1453 L12.8445,23.1473 L12.6598,23.2397 L12.6499,23.2499 L12.6472,23.2611 L12.6651,23.6906 L12.6699,23.7034 L12.6784,23.7105 L12.8793,23.8032 C12.8914,23.8069 12.9022,23.803 12.9078,23.7952 L12.9118,23.7812 L12.8777,23.1665 C12.8753,23.1546 12.8674,23.147 12.8584,23.1453 Z M12.143,23.1473 C12.1332,23.1424 12.1222,23.1453 12.1156,23.1526 L12.1099,23.1665 L12.0758,23.7812 C12.0751,23.7927 12.0828,23.8019 12.0926,23.8046 L12.1083,23.8032 L12.3092,23.7105 L12.3186,23.7024 L12.3225,23.6906 L12.3404,23.2611 L12.3372,23.2485 L12.3278,23.2397 L12.143,23.1473 Z" id="MingCute"></path>
                <path d="M5.49999,3 C4.67156,3 3.99999,3.67157 3.99999,4.5 C3.99999,5.32843 4.67156,6 5.49999,6 C6.32842,6 6.99999,5.32843 6.99999,4.5 C6.99999,3.67157 6.32842,3 5.49999,3 Z M12,3 C11.1716,3 10.5,3.67157 10.5,4.5 C10.5,5.32843 11.1716,6 12,6 C12.8284,6 13.5,5.32843 13.5,4.5 C13.5,3.67157 12.8284,3 12,3 Z M17,4.5 C17,3.67157 17.6716,3 18.5,3 C19.3284,3 20,3.67157 20,4.5 C20,5.32843 19.3284,6 18.5,6 C17.6716,6 17,5.32843 17,4.5 Z M5.49999,18 C4.67156,18 3.99999,18.6716 3.99999,19.5 C3.99999,20.3284 4.67156,21 5.49999,21 C6.32842,21 6.99999,20.3284 6.99999,19.5 C6.99999,18.6716 6.32842,18 5.49999,18 Z M10.5,19.5 C10.5,18.6716 11.1716,18 12,18 C12.8284,18 13.5,18.6716 13.5,19.5 C13.5,20.3284 12.8284,21 12,21 C11.1716,21 10.5,20.3284 10.5,19.5 Z M18.5,18 C17.6716,18 17,18.6716 17,19.5 C17,20.3284 17.6716,21 18.5,21 C19.3284,21 20,20.3284 20,19.5 C20,18.6716 19.3284,18 18.5,18 Z M3.90474,15.2687 C2.09946,13.4635 2.09946,10.5365 3.90474,8.73125 C5.60651,7.02948 8.32929,6.91811 10.1644,8.47522 L12,10.0328 L13.8356,8.47522 C15.6706,6.91811 18.3934,7.02948 20.0952,8.73125 C21.9005,10.5365 21.9005,13.4635 20.0952,15.2687 C18.3934,16.9705 15.6706,17.0819 13.8356,15.5248 L12,13.9672 L10.1644,15.5248 C8.32929,17.0819 5.60651,16.9705 3.90474,15.2687 Z M6.02606,10.8526 C5.39235,11.4863 5.39235,12.5137 6.02606,13.1474 C6.62344,13.7448 7.57921,13.7839 8.22337,13.2373 L9.68155,12 L8.22337,10.7627 C7.57921,10.2161 6.62343,10.2552 6.02606,10.8526 Z M14.3184,12 L15.7766,13.2373 C16.4207,13.7839 17.3765,13.7448 17.9739,13.1474 C18.6076,12.5137 18.6076,11.4863 17.9739,10.8526 C17.3765,10.2552 16.4207,10.2161 15.7766,10.7627 L14.3184,12 Z" id="形状" fill="#09244B"></path>
            </g>
        </g>
    </g>
</svg>