<svg xmlns="http://www.w3.org/2000/svg" width="24" height="24"><g fill="none"><path d="M24 0v24H0V0zM12.594 23.258l-.012.002-.071.035-.02.004-.014-.004-.071-.036c-.01-.003-.019 0-.024.006l-.004.01-.017.428.005.02.01.013.104.074.015.004.012-.004.104-.074.012-.016.004-.017-.017-.427c-.002-.01-.009-.017-.016-.018m.264-.113-.014.002-.184.093-.01.01-.003.011.018.43.005.012.008.008.201.092c.012.004.023 0 .029-.008l.004-.014-.034-.614c-.003-.012-.01-.02-.02-.022m-.715.002a.023.023 0 0 0-.027.006l-.006.014-.034.614c0 .012.007.02.017.024l.015-.002.201-.093.01-.008.003-.011.018-.43-.003-.012-.01-.01z"/><path fill="#09244B" d="M5.5 3a1.5 1.5 0 1 0 0 3 1.5 1.5 0 0 0 0-3M12 3a1.5 1.5 0 1 0 0 3 1.5 1.5 0 0 0 0-3m5 1.5a1.5 1.5 0 1 1 3 0 1.5 1.5 0 0 1-3 0M5.5 18a1.5 1.5 0 1 0 0 3 1.5 1.5 0 0 0 0-3m5 1.5a1.5 1.5 0 1 1 3 0 1.5 1.5 0 0 1-3 0m8-1.5a1.5 1.5 0 1 0 0 3 1.5 1.5 0 0 0 0-3M3.905 15.269a4.623 4.623 0 0 1 6.26-6.794L12 10.033l1.836-1.558a4.623 4.623 0 1 1 0 7.05L12 13.967l-1.836 1.558a4.623 4.623 0 0 1-6.26-.256Zm2.121-4.416a1.623 1.623 0 0 0 2.197 2.384L9.682 12l-1.459-1.237a1.623 1.623 0 0 0-2.197.09M14.318 12l1.459 1.237a1.623 1.623 0 1 0 0-2.474z"/></g></svg>