<?xml version="1.0" encoding="UTF-8"?>
<svg width="24px" height="24px" viewBox="0 0 24 24" version="1.1" xmlns="http://www.w3.org/2000/svg" xmlns:xlink="http://www.w3.org/1999/xlink">
    <title>heavy_rainstom_fill</title>
    <g id="Icon" stroke="none" stroke-width="1" fill="none" fill-rule="evenodd">
        <g id="Weather" transform="translate(-289.000000, -240.000000)" fill-rule="nonzero">
            <g id="heavy_rainstom_fill" transform="translate(289.000000, 240.000000)">
                <path d="M24,0 L24,24 L0,24 L0,0 L24,0 Z M12.5935,23.2578 L12.5819,23.2595 L12.5109,23.295 L12.4919,23.2987 L12.4767,23.295 L12.4057,23.2595 C12.3958,23.2564 12.387,23.259 12.3821,23.2649 L12.378,23.2758 L12.3609,23.7031 L12.3659,23.7235 L12.3769,23.7357 L12.4805,23.8097 L12.4953,23.8136 L12.5071,23.8097 L12.6107,23.7357 L12.6233,23.7197 L12.6267,23.7031 L12.6096,23.2758 C12.6076,23.2657 12.601,23.2593 12.5935,23.2578 Z M12.8584,23.1453 L12.8445,23.1473 L12.6598,23.2397 L12.6499,23.2499 L12.6472,23.2611 L12.6651,23.6906 L12.6699,23.7034 L12.6784,23.7105 L12.8793,23.8032 C12.8914,23.8069 12.9022,23.803 12.9078,23.7952 L12.9118,23.7812 L12.8777,23.1665 C12.8753,23.1546 12.8674,23.147 12.8584,23.1453 Z M12.143,23.1473 C12.1332,23.1424 12.1222,23.1453 12.1156,23.1526 L12.1099,23.1665 L12.0758,23.7812 C12.0751,23.7927 12.0828,23.8019 12.0926,23.8046 L12.1083,23.8032 L12.3092,23.7105 L12.3186,23.7024 L12.3225,23.6906 L12.3404,23.2611 L12.3372,23.2485 L12.3278,23.2397 L12.143,23.1473 Z" id="MingCute"></path>
                <path d="M7.03198,14.1364 C7.56545,14.2793 7.88203,14.8277 7.73909,15.3611 L6.18618,21.1567 C6.04323,21.6901 5.4949,22.0067 4.96143,21.8638 C4.42796,21.7208 4.11138,21.1725 4.25432,20.639 L5.80724,14.8435 C5.95018,14.31 6.49852,13.9934 7.03198,14.1364 Z M17.532,14.1364 C18.0655,14.2793 18.3821,14.8277 18.2391,15.3611 L16.6862,21.1567 C16.5433,21.6902 15.9949,22.0067 15.4615,21.8638 C14.928,21.7209 14.6114,21.1725 14.7544,20.6391 L16.3073,14.8435 C16.4502,14.31 16.9985,13.9935 17.532,14.1364 Z M10.532,14.1365 C11.0655,14.2794 11.3821,14.8277 11.2391,15.3612 L9.6862,21.1568 C9.54326,21.6902 8.99492,22.0068 8.46146,21.8639 C7.92799,21.7209 7.61141,21.1726 7.75435,20.6391 L9.30727,14.8436 C9.45021,14.3101 9.99854,13.9935 10.532,14.1365 Z M12.8072,14.8435 C12.9502,14.31 13.4985,13.9935 14.032,14.1364 C14.5273,14.2690929 14.8356653,14.751426 14.7627767,15.2467237 L14.7391,15.3611 L13.1862,21.1567 C13.0432,21.6902 12.4949,22.0067 11.9614,21.8638 C11.4661,21.7311071 11.1577347,21.248774 11.2306233,20.7534763 L11.2543,20.6391 L12.8072,14.8435 Z M11.5,2 C14.2856,2 16.66,3.75154 17.5856,6.21198 C20.13,6.90766 22,9.23462 22,12 C22,13.7694 21.2341,15.3599 20.0157,16.4581 L20.171,15.8787 C20.5998,14.2783 19.6501,12.6333 18.0497,12.2044 C17.1463,11.9624 16.2288,12.1595 15.5238,12.665 C15.2376,12.4593 14.9101,12.301 14.5496,12.2044 C13.6463,11.9624 12.7288,12.1595 12.0238,12.665 C11.7376,12.4594 11.4101,12.3011 11.0497,12.2045 C10.1464,11.9625 9.22888,12.1596 8.52386,12.665 C8.23769,12.4593 7.91017,12.301 7.54963,12.2044 C5.94923,11.7756 4.30422,12.7253 3.87539,14.3257 L3.32281,16.388 C2.5016,15.4971 2,14.3071 2,13 C2,10.9486 3.23468,9.18749 5.00053,8.41614 C5.04543,4.86494 7.93814,2 11.5,2 Z" id="形状" fill="#09244B"></path>
            </g>
        </g>
    </g>
</svg>