<svg xmlns="http://www.w3.org/2000/svg" width="24" height="24"><g fill="none"><path d="M24 0v24H0V0zM12.594 23.258l-.012.002-.071.035-.02.004-.014-.004-.071-.036c-.01-.003-.019 0-.024.006l-.004.01-.017.428.005.02.01.013.104.074.015.004.012-.004.104-.074.012-.016.004-.017-.017-.427c-.002-.01-.009-.017-.016-.018m.264-.113-.014.002-.184.093-.01.01-.003.011.018.43.005.012.008.008.201.092c.012.004.023 0 .029-.008l.004-.014-.034-.614c-.003-.012-.01-.02-.02-.022m-.715.002a.023.023 0 0 0-.027.006l-.006.014-.034.614c0 .012.007.02.017.024l.015-.002.201-.093.01-.008.003-.011.018-.43-.003-.012-.01-.01z"/><path fill="#09244B" d="M11.5 2a6.502 6.502 0 0 1 6.086 4.212 6.002 6.002 0 0 1 2.308 10.353 2.98 2.98 0 0 0-.88-.471 3.013 3.013 0 0 0-.146-1.594A3 3 0 0 0 15 10.632a3.002 3.002 0 0 0-3 .518 3.002 3.002 0 0 0-3-.518A3 3 0 0 0 5.132 14.5a3.012 3.012 0 0 0-.138 1.63 3.012 3.012 0 0 0-1.94-.058A5 5 0 0 1 5 8.416 6.5 6.5 0 0 1 11.5 2M7.232 12.732a1 1 0 0 1 1.32-.083l.094.083.354.354.354-.354a1 1 0 0 1 1.497 1.32l-.083.094-.354.354.354.354a1 1 0 0 1-1.32 1.497l-.094-.083L9 15.914l-.354.354a1 1 0 0 1-1.497-1.32l.083-.095.354-.353-.354-.354a1 1 0 0 1 0-1.414m7.414 0 .354.354.354-.354a1 1 0 0 1 1.414 1.414l-.354.354.354.354a1 1 0 0 1-1.415 1.414L15 15.914l-.354.354a1 1 0 0 1-1.414-1.415l.354-.353-.354-.354a1 1 0 0 1 1.414-1.414m-7.878 6.914a1 1 0 1 0-1.414-1.414L5 18.586l-.354-.354a1 1 0 0 0-1.414 1.414l.354.354-.354.354a1 1 0 0 0 1.414 1.414L5 21.414l.354.354a1 1 0 0 0 1.414-1.415L6.414 20zm12-1.414a1 1 0 0 1 0 1.414l-.354.354.354.354a1 1 0 0 1-1.415 1.414L17 21.414l-.354.354a1 1 0 0 1-1.414-1.415l.354-.353-.354-.354a1 1 0 0 1 1.414-1.414l.354.354.354-.354a1 1 0 0 1 1.414 0m-6 1.414a1 1 0 0 0-1.415-1.414l-.353.354-.354-.354a1 1 0 0 0-1.414 1.414l.354.354-.354.354a1 1 0 0 0 1.414 1.414l.354-.354.354.354a1 1 0 0 0 1.414-1.415L12.414 20z"/></g></svg>