<?xml version="1.0" encoding="UTF-8"?>
<svg width="24px" height="24px" viewBox="0 0 24 24" version="1.1" xmlns="http://www.w3.org/2000/svg" xmlns:xlink="http://www.w3.org/1999/xlink">
    <title>high_temperature_fill</title>
    <g id="Icon" stroke="none" stroke-width="1" fill="none" fill-rule="evenodd">
        <g id="Weather" transform="translate(-385.000000, -240.000000)" fill-rule="nonzero">
            <g id="high_temperature_fill" transform="translate(385.000000, 240.000000)">
                <path d="M24,0 L24,24 L0,24 L0,0 L24,0 Z M12.5935,23.2578 L12.5819,23.2595 L12.5109,23.295 L12.4919,23.2987 L12.4767,23.295 L12.4057,23.2595 C12.3958,23.2564 12.387,23.259 12.3821,23.2649 L12.378,23.2758 L12.3609,23.7031 L12.3659,23.7235 L12.3769,23.7357 L12.4805,23.8097 L12.4953,23.8136 L12.5071,23.8097 L12.6107,23.7357 L12.6233,23.7197 L12.6267,23.7031 L12.6096,23.2758 C12.6076,23.2657 12.601,23.2593 12.5935,23.2578 Z M12.8584,23.1453 L12.8445,23.1473 L12.6598,23.2397 L12.6499,23.2499 L12.6472,23.2611 L12.6651,23.6906 L12.6699,23.7034 L12.6784,23.7105 L12.8793,23.8032 C12.8914,23.8069 12.9022,23.803 12.9078,23.7952 L12.9118,23.7812 L12.8777,23.1665 C12.8753,23.1546 12.8674,23.147 12.8584,23.1453 Z M12.143,23.1473 C12.1332,23.1424 12.1222,23.1453 12.1156,23.1526 L12.1099,23.1665 L12.0758,23.7812 C12.0751,23.7927 12.0828,23.8019 12.0926,23.8046 L12.1083,23.8032 L12.3092,23.7105 L12.3186,23.7024 L12.3225,23.6906 L12.3404,23.2611 L12.3372,23.2485 L12.3278,23.2397 L12.143,23.1473 Z" id="MingCute"></path>
                <path d="M9,2 C10.597725,2 11.903664,3.24892392 11.9949075,4.82372764 L12,5 L12,5.5682 C12.33903,5.392043 12.757845,5.4231893 13.0686546,5.66166077 L13.168,5.74883 C13.5656,6.14642 13.5656,6.77959 13.1751,7.17011 C12.88881,7.456427 12.472029,7.5328244 12.1161195,7.39930949 L12,7.34703 L12,9.85796 C12.0066,9.90436 12.01,9.95178 12.01,10 L12.007475,10.071675 L12,10.142 L12,12.6467 C12.3789,12.442 12.8621,12.4997 13.1822,12.8199 C13.5426615,13.1803615 13.5703893,13.7476207 13.2653834,14.1398973 L13.1723,14.244 C13.695,15.0338 14,15.9814 14,17 C14,19.7614 11.7614,22 9,22 C6.23858,22 4,19.7614 4,17 C4,15.4072 4.74591,13.988 5.90349,13.074 C5.93425,13.0497333 5.95677,13.0256444 5.97235667,13.0050222 L6,12.9559 L6,5 C6,3.34315 7.34315,2 9,2 Z M16,13.99 C16.51285,13.99 16.9355092,14.376027 16.9932725,14.8733761 L17,15 C17,15.5523 16.5523,16 16,16 C15.48715,16 15.0644908,15.613973 15.0067275,15.1166239 L15,14.99 C15,14.4377 15.4477,13.99 16,13.99 Z M20.2391,12.8199 C20.6367,13.2175 20.6367,13.8506 20.2462,14.2412 C19.8856462,14.6016615 19.3184651,14.6293893 18.9262011,14.3243834 L18.8249,14.2341 C18.4344,13.8436 18.4344,13.2104 18.8249,12.8199 C19.2154,12.4293 19.8486,12.4293 20.2391,12.8199 Z M16,7 C17.6569,7 19,8.34315 19,10 C19,11.6569 17.6569,13 16,13 C14.3431,13 13,11.6569 13,10 C13,8.34315 14.3431,7 16,7 Z M21,9 C21.5523,9 22,9.44772 22,10 C22,10.51285 21.613973,10.9355092 21.1166239,10.9932725 L20.99,11 C20.4377,11 19.99,10.5523 19.99,10 C19.99,9.48715929 20.376027,9.06449214 20.8733761,9.00672766 L21,9 Z M20.2462,5.75591 C20.6066615,6.11639 20.6343893,6.68362503 20.3293834,7.0759135 L20.2391,7.17719 C19.8486,7.56772 19.2154,7.56771 18.8249,7.17719 C18.4644385,6.81670077 18.4367107,6.24947355 18.7417166,5.85717848 L18.832,5.7559 C19.2225,5.36538 19.8556,5.36538 20.2462,5.75591 Z M16,3.98999 C16.51285,3.98999 16.9355092,4.37603429 16.9932725,4.87336975 L17,4.99999 C17,5.55227 16.5523,5.99999 16,5.99999 C15.48715,5.99999 15.0644908,5.61394571 15.0067275,5.11661025 L15,4.98999 C15,4.43771 15.4477,3.98999 16,3.98999 Z" id="形状" fill="#09244B"></path>
            </g>
        </g>
    </g>
</svg>