<svg xmlns="http://www.w3.org/2000/svg" width="24" height="24"><g fill="none"><path d="M24 0v24H0V0zM12.594 23.258l-.012.002-.071.035-.02.004-.014-.004-.071-.036c-.01-.003-.019 0-.024.006l-.004.01-.017.428.005.02.01.013.104.074.015.004.012-.004.104-.074.012-.016.004-.017-.017-.427c-.002-.01-.009-.017-.016-.018m.264-.113-.014.002-.184.093-.01.01-.003.011.018.43.005.012.008.008.201.092c.012.004.023 0 .029-.008l.004-.014-.034-.614c-.003-.012-.01-.02-.02-.022m-.715.002a.023.023 0 0 0-.027.006l-.006.014-.034.614c0 .012.007.02.017.024l.015-.002.201-.093.01-.008.003-.011.018-.43-.003-.012-.01-.01z"/><path fill="#09244B" d="M9 2a3 3 0 0 1 2.995 2.824L12 5v.568a1.001 1.001 0 0 1 1.069.094l.099.087a1 1 0 0 1-1.052 1.65L12 7.347v2.511a.95.95 0 0 1 .01.142l-.003.072-.007.07v2.505a1 1 0 0 1 1.265 1.493l-.093.104a5 5 0 1 1-7.269-1.17.385.385 0 0 0 .07-.069l.027-.05V5a3 3 0 0 1 3-3m7 11.99a1 1 0 0 1 .993.883L17 15a1 1 0 0 1-1.993.117L15 14.99a1 1 0 0 1 1-1m4.24-1.17a1 1 0 0 1-1.313 1.504l-.102-.09a1 1 0 0 1 1.414-1.414ZM16 7a3 3 0 1 1 0 6 3 3 0 0 1 0-6m5 2a1 1 0 0 1 .117 1.993L20.99 11a1 1 0 0 1-.117-1.993zm-.754-3.244a1 1 0 0 1 .083 1.32l-.09.101a1 1 0 0 1-1.497-1.32l.09-.101a1 1 0 0 1 1.414 0M16 3.99a1 1 0 0 1 .993.883L17 5a1 1 0 0 1-1.993.117L15 4.99a1 1 0 0 1 1-1"/></g></svg>