<?xml version="1.0" encoding="UTF-8"?>
<svg width="24px" height="24px" viewBox="0 0 24 24" version="1.1" xmlns="http://www.w3.org/2000/svg" xmlns:xlink="http://www.w3.org/1999/xlink">
    <title>high_temperature_line</title>
    <g id="Icon" stroke="none" stroke-width="1" fill="none" fill-rule="evenodd">
        <g id="Weather" transform="translate(-385.000000, -192.000000)">
            <g id="high_temperature_line" transform="translate(385.000000, 192.000000)">
                <path d="M24,0 L24,24 L0,24 L0,0 L24,0 Z M12.5935,23.2578 L12.5819,23.2595 L12.5109,23.295 L12.4919,23.2987 L12.4767,23.295 L12.4057,23.2595 C12.3958,23.2564 12.387,23.259 12.3821,23.2649 L12.378,23.2758 L12.3609,23.7031 L12.3659,23.7235 L12.3769,23.7357 L12.4805,23.8097 L12.4953,23.8136 L12.5071,23.8097 L12.6107,23.7357 L12.6233,23.7197 L12.6267,23.7031 L12.6096,23.2758 C12.6076,23.2657 12.601,23.2593 12.5935,23.2578 Z M12.8584,23.1453 L12.8445,23.1473 L12.6598,23.2397 L12.6499,23.2499 L12.6472,23.2611 L12.6651,23.6906 L12.6699,23.7034 L12.6784,23.7105 L12.8793,23.8032 C12.8914,23.8069 12.9022,23.803 12.9078,23.7952 L12.9118,23.7812 L12.8777,23.1665 C12.8753,23.1546 12.8674,23.147 12.8584,23.1453 Z M12.143,23.1473 C12.1332,23.1424 12.1222,23.1453 12.1156,23.1526 L12.1099,23.1665 L12.0758,23.7812 C12.0751,23.7927 12.0828,23.8019 12.0926,23.8046 L12.1083,23.8032 L12.3092,23.7105 L12.3186,23.7024 L12.3225,23.6906 L12.3404,23.2611 L12.3372,23.2485 L12.3278,23.2397 L12.143,23.1473 Z" id="MingCute" fill-rule="nonzero"></path>
                <path d="M9,2 C10.597725,2 11.903664,3.24892392 11.9949075,4.82372764 L12,5 L12,5.56844 C12.33903,5.392283 12.757845,5.4234374 13.0686546,5.6619032 L13.168,5.74907 C13.5656,6.14667 13.5656,6.77983 13.1751,7.17035 C12.88881,7.456676 12.472029,7.5330743 12.1161195,7.39955219 L12,7.34727 L12,9.85821 C12.0066,9.9046 12.01,9.95203 12.01,10.0002 L12.007475,10.0719625 L12,10.1423 L12,12.647 C12.3789,12.4423 12.8621,12.5 13.1822,12.8201 C13.5426615,13.1805615 13.5703893,13.7478207 13.2653834,14.1400973 L13.1724,14.2441 C13.695,15.034 14,15.9815 14,17 C14,19.7614 11.7614,22 9,22 C6.23858,22 4,19.7614 4,17 C4,15.4072 4.74591,13.988 5.90349,13.074 C5.93425,13.0497333 5.95677,13.0256444 5.97235667,13.0050222 L6,12.9559 L6,5 C6,3.34315 7.34315,2 9,2 Z M9,4 C8.48716857,4 8.06449347,4.38604429 8.0067278,4.88337975 L8,5 L8,12.9583 C8,13.6330583 7.6633091,14.1841278 7.25563433,14.5488866 L7.14289,14.6437 C6.44499,15.1948 6,16.0451 6,17 C6,18.6569 7.34315,20 9,20 C10.6569,20 12,18.6569 12,17 C12,16.1133071 11.616301,15.3168051 11.0027091,14.7663015 L10.8571,14.6437 C10.4387333,14.3133333 10.0671701,13.7909632 10.0081483,13.1392113 L10,12.9583 L10,5 C10,4.44772 9.55228,4 9,4 Z M16,13.9902 C16.51285,13.9902 16.9355092,14.376227 16.9932725,14.8735761 L17,15.0002 C17,15.5525 16.5523,16.0002 16,16.0002 C15.48715,16.0002 15.0644908,15.614173 15.0067275,15.1168239 L15,14.9902 C15,14.4379 15.4477,13.9902 16,13.9902 Z M20.2391,12.8201 C20.6367,13.2177 20.6367,13.8509 20.2462,14.2414 C19.8856462,14.6018615 19.3184651,14.6295893 18.9262011,14.3245834 L18.8249,14.2343 C18.4344,13.8438 18.4344,13.2106 18.8249,12.8201 C19.2154,12.4296 19.8486,12.4296 20.2391,12.8201 Z M16,7.00024 C17.6569,7.00024 19,8.34339 19,10.0002 C19,11.6571 17.6569,13.0002 16,13.0002 C14.3431,13.0002 13,11.6571 13,10.0002 C13,8.34339 14.3431,7.00024 16,7.00024 Z M16,9.00024 C15.4477,9.00024 15,9.44796 15,10.0002 C15,10.5525 15.4477,11.0002 16,11.0002 C16.5523,11.0002 17,10.5525 17,10.0002 C17,9.44796 16.5523,9.00024 16,9.00024 Z M21,9.00024 C21.5523,9.00024 22,9.44796 22,10.0002 C22,10.51305 21.613973,10.9357092 21.1166239,10.9934725 L20.99,11.0002 C20.4377,11.0002 19.99,10.5525 19.99,10.0002 C19.99,9.48740571 20.376027,9.06473327 20.8733761,9.00696778 L21,9.00024 Z M20.2462,5.75615 C20.6066615,6.11663923 20.6343893,6.68386645 20.3293834,7.07616152 L20.2391,7.17744 C19.8486,7.56796 19.2154,7.56796 18.8249,7.17743 C18.4644385,6.81695 18.4367107,6.24971497 18.7417166,5.8574265 L18.832,5.75615 C19.2225,5.36562 19.8556,5.36563 20.2462,5.75615 Z M16,3.99023 C16.51285,3.99023 16.9355092,4.37627429 16.9932725,4.87360975 L17,5.00023 C17,5.55252 16.5523,6.00023 16,6.00023 C15.48715,6.00023 15.0644908,5.61419434 15.0067275,5.1168521 L15,4.99023 C15,4.43795 15.4477,3.99023 16,3.99023 Z" id="形状" fill="#09244B"></path>
            </g>
        </g>
    </g>
</svg>