<svg width="24" height="24" viewBox="0 0 24 24" fill="none" xmlns="http://www.w3.org/2000/svg">
<rect width="24" height="24" transform="matrix(-1 0 0 1 24 0)" fill="white" fill-opacity="0.01"/>
<path fill-rule="evenodd" clip-rule="evenodd" d="M9.64989 4L6.53878 11H9.98615C10.6755 11 11.1623 11.6754 10.9443 12.3294L9.28827 17.2975L16.5858 10H14.0162C13.2654 10 12.7771 9.20987 13.1128 8.53831L15.382 4H9.64989ZM8.08357 2.5998C8.24569 2.23504 8.60741 2 9.00652 2H16.9838C17.7346 2 18.223 2.79011 17.8872 3.46169L15.6181 8H18.9759C19.8757 8 20.3263 9.08789 19.6901 9.72418L7.73708 21.6772C6.98345 22.4308 5.72771 21.6546 6.06473 20.6436L8.6126 13H5.01541C4.2845 13 3.79562 12.2477 4.09246 11.5798L8.08357 2.5998Z" fill="#09244B"/>
</svg>
