<?xml version="1.0" encoding="UTF-8"?>
<svg width="24px" height="24px" viewBox="0 0 24 24" version="1.1" xmlns="http://www.w3.org/2000/svg" xmlns:xlink="http://www.w3.org/1999/xlink">
    <title>light_sonw_line</title>
    <g id="Icon" stroke="none" stroke-width="1" fill="none" fill-rule="evenodd">
        <g id="Weather" transform="translate(-481.000000, -96.000000)" fill-rule="nonzero">
            <g id="light_sonw_line" transform="translate(481.000000, 96.000000)">
                <path d="M24,0 L24,24 L0,24 L0,0 L24,0 Z M12.5935,23.2578 L12.5819,23.2595 L12.5109,23.295 L12.4919,23.2987 L12.4767,23.295 L12.4057,23.2595 C12.3958,23.2564 12.387,23.259 12.3821,23.2649 L12.378,23.2758 L12.3609,23.7031 L12.3659,23.7235 L12.3769,23.7357 L12.4805,23.8097 L12.4953,23.8136 L12.5071,23.8097 L12.6107,23.7357 L12.6233,23.7197 L12.6267,23.7031 L12.6096,23.2758 C12.6076,23.2657 12.601,23.2593 12.5935,23.2578 Z M12.8584,23.1453 L12.8445,23.1473 L12.6598,23.2397 L12.6499,23.2499 L12.6472,23.2611 L12.6651,23.6906 L12.6699,23.7034 L12.6784,23.7105 L12.8793,23.8032 C12.8914,23.8069 12.9022,23.803 12.9078,23.7952 L12.9118,23.7812 L12.8777,23.1665 C12.8753,23.1546 12.8674,23.147 12.8584,23.1453 Z M12.143,23.1473 C12.1332,23.1424 12.1222,23.1453 12.1156,23.1526 L12.1099,23.1665 L12.0758,23.7812 C12.0751,23.7927 12.0828,23.8019 12.0926,23.8046 L12.1083,23.8032 L12.3092,23.7105 L12.3186,23.7024 L12.3225,23.6906 L12.3404,23.2611 L12.3372,23.2485 L12.3278,23.2397 L12.143,23.1473 Z" id="MingCute"></path>
                <path d="M11.9999,13 C12.5522,13 12.9999,13.4477 12.9999,14 L12.9999,15.2679 L14.098,14.634 C14.5763,14.3578 15.1879,14.5217 15.464,15 C15.7402,15.4783 15.5763,16.0899 15.098,16.366 L13.9999,17 L15.098,17.634 C15.5763,17.9101 15.7402,18.5217 15.4641,19 C15.1879,19.4783 14.5763,19.6422 14.098,19.366 L12.9999,18.732 L12.9999,20 C12.9999,20.5523 12.5522,21 11.9999,21 C11.4477,21 10.9999,20.5523 10.9999,20 L10.9999,18.732 L9.90186,19.366 C9.42356,19.6422 8.81197,19.4783 8.53583,19 C8.25969,18.5217 8.42356,17.9101 8.90186,17.634 L9.99995,17 L8.90189,16.366 C8.42359,16.0899 8.25972,15.4783 8.53586,15 C8.812,14.5217 9.42359,14.3578 9.90189,14.634 L10.9999,15.2679 L10.9999,14 C10.9999,13.4477 11.4477,13 11.9999,13 Z M11.5,2 C14.2856,2 16.66,3.75154 17.5856,6.21198 C20.13,6.90766 22,9.23462 22,12 C22,13.9637 21.0555,15.7067 19.6006,16.7995 C19.159,17.1312 18.5322,17.0422 18.2005,16.6006 C17.8688,16.159 17.9578,15.5322 18.3994,15.2005 C19.3732,14.4689 20,13.3078 20,12 C20,10.0145 18.5524,8.36524 16.6552,8.05324 C16.2654,7.98914 15.9477,7.7033 15.8441,7.32051 C15.326,5.40663 13.576,4 11.5,4 C9.01472,4 7,6.01472 7,8.5 C7,8.66909 7.00928,8.83564 7.02729,8.99923 C7.08294,9.50471 6.75509,9.9678 6.26851,10.0896 C4.96468,10.4159 4,11.5965 4,13 C4,13.8959 4.39144,14.6991 5.01591,15.2503 C5.42998,15.6157 5.46938,16.2477 5.10391,16.6617 C4.73845,17.0758 4.10651,17.1152 3.69244,16.7497 C2.65607,15.835 2,14.4935 2,13 C2,10.9486 3.23468,9.18749 5.00053,8.41614 C5.04543,4.86494 7.93814,2 11.5,2 Z" id="形状" fill="#09244B"></path>
            </g>
        </g>
    </g>
</svg>