<?xml version="1.0" encoding="UTF-8"?>
<svg width="24px" height="24px" viewBox="0 0 24 24" version="1.1" xmlns="http://www.w3.org/2000/svg" xmlns:xlink="http://www.w3.org/1999/xlink">
    <title>lightning_line</title>
    <g id="页面-1" stroke="none" stroke-width="1" fill="none" fill-rule="evenodd">
        <g id="Weather" transform="translate(-48.000000, 0.000000)">
            <g id="lightning_line" transform="translate(48.000000, 0.000000)">
                <rect id="矩形" fill-rule="nonzero" transform="translate(12.000000, 12.000000) scale(-1, 1) translate(-12.000000, -12.000000) " x="0" y="0" width="24" height="24"></rect>
                <path d="M9.64989,4 L6.53878,11 L9.98615,11 C10.6755,11 11.1623,11.6754 10.9443,12.3294 L9.28827,17.2975 L16.5858,10 L14.0162,10 C13.2654,10 12.7771,9.20987 13.1128,8.53831 L15.382,4 L9.64989,4 Z M8.08357,2.5998 C8.24569,2.23504 8.60741,2 9.00652,2 L16.9838,2 C17.7346,2 18.223,2.79011 17.8872,3.46169 L15.6181,8 L18.9759,8 C19.8757,8 20.3263,9.08789 19.6901,9.72418 L7.73708,21.6772 C6.98345,22.4308 5.72771,21.6546 6.06473,20.6436 L8.6126,13 L5.01541,13 C4.2845,13 3.79562,12.2477 4.09246,11.5798 L8.08357,2.5998 Z" id="形状" fill="#09244B"></path>
            </g>
        </g>
    </g>
</svg>