<?xml version="1.0" encoding="UTF-8"?>
<svg width="24px" height="24px" viewBox="0 0 24 24" version="1.1" xmlns="http://www.w3.org/2000/svg" xmlns:xlink="http://www.w3.org/1999/xlink">
    <title>low_temperature_line</title>
    <g id="Icon" stroke="none" stroke-width="1" fill="none" fill-rule="evenodd">
        <g id="Weather" transform="translate(-433.000000, -192.000000)" fill-rule="nonzero">
            <g id="low_temperature_line" transform="translate(433.000000, 192.000000)">
                <path d="M24,0 L24,24 L0,24 L0,0 L24,0 Z M12.5935,23.2578 L12.5819,23.2595 L12.5109,23.295 L12.4919,23.2987 L12.4767,23.295 L12.4057,23.2595 C12.3958,23.2564 12.387,23.259 12.3821,23.2649 L12.378,23.2758 L12.3609,23.7031 L12.3659,23.7235 L12.3769,23.7357 L12.4805,23.8097 L12.4953,23.8136 L12.5071,23.8097 L12.6107,23.7357 L12.6233,23.7197 L12.6267,23.7031 L12.6096,23.2758 C12.6076,23.2657 12.601,23.2593 12.5935,23.2578 Z M12.8584,23.1453 L12.8445,23.1473 L12.6598,23.2397 L12.6499,23.2499 L12.6472,23.2611 L12.6651,23.6906 L12.6699,23.7034 L12.6784,23.7105 L12.8793,23.8032 C12.8914,23.8069 12.9022,23.803 12.9078,23.7952 L12.9118,23.7812 L12.8777,23.1665 C12.8753,23.1546 12.8674,23.147 12.8584,23.1453 Z M12.143,23.1473 C12.1332,23.1424 12.1222,23.1453 12.1156,23.1526 L12.1099,23.1665 L12.0758,23.7812 C12.0751,23.7927 12.0828,23.8019 12.0926,23.8046 L12.1083,23.8032 L12.3092,23.7105 L12.3186,23.7024 L12.3225,23.6906 L12.3404,23.2611 L12.3372,23.2485 L12.3278,23.2397 L12.143,23.1473 Z" id="MingCute"></path>
                <path d="M9,2 C10.6569,2 12,3.34315 12,5 L12,12.9559 L12.0093,12.9771 L12.0093,12.9771 C12.0228,13.0016 12.0504,13.0376 12.0965,13.074 C13.2541,13.988 14,15.4072 14,17 C14,19.7614 11.7614,22 9,22 C6.23858,22 4,19.7614 4,17 C4,15.4072 4.74591,13.988 5.90349,13.074 C5.93425,13.0497333 5.95677,13.0256444 5.97235667,13.0050222 L6,12.9559 L6,12.9559 L6,5 C6,3.34315 7.34315,2 9,2 Z M9,4 C8.44772,4 8,4.44772 8,5 L8,12.9583 C8,13.6330583 7.6633091,14.1841278 7.25563433,14.5488866 L7.14289,14.6437 C6.44499,15.1948 6,16.0451 6,17 C6,18.6569 7.34315,20 9,20 C10.6569,20 12,18.6569 12,17 C12,16.1133071 11.616301,15.3168051 11.0027091,14.7663015 L10.8571,14.6437 C10.4007,14.2833 10,13.6944 10,12.9583 L10,5 C10,4.44772 9.55228,4 9,4 Z M11,17 C11,18.1046 10.1046,19 9,19 C7.89543,19 7,18.1046 7,17 L11,17 Z M16.9999,6 C17.51275,6 17.9354092,6.38604429 17.9931725,6.88337975 L17.9999,7 L17.9999,8.26799 L19.0981,7.63397 C19.5764,7.35783 20.188,7.52171 20.4641,8 C20.7204786,8.44412643 20.5975556,9.0031901 20.1957334,9.30189154 L20.0981,9.36603 L18.9999,10 L20.0979,10.634 C20.5762,10.9101 20.7401,11.5217 20.464,12 C20.2075286,12.4441357 19.6618602,12.6171816 19.2022624,12.4184953 L19.0979,12.366 L17.9999,11.7321 L17.9999,13 C17.9999,13.5523 17.5522,14 16.9999,14 C16.48705,14 16.0643908,13.613973 16.0066275,13.1166239 L15.9999,13 L15.9999,11.7321 L14.9019,12.366 C14.4236,12.6422 13.812,12.4783 13.5359,12 C13.2794286,11.5558643 13.4024311,10.9967913 13.8042652,10.6981286 L13.9019,10.634 L14.9999,10 L13.9018,9.36603 C13.4235,9.08988 13.2596,8.47829 13.5358,8 C13.7921786,7.55587357 14.3378403,7.38284556 14.7974377,7.58148637 L14.9018,7.63397 L15.9999,8.26799 L15.9999,7 C15.9999,6.44772 16.4476,6 16.9999,6 Z" id="形状" fill="#09244B"></path>
            </g>
        </g>
    </g>
</svg>