<svg xmlns="http://www.w3.org/2000/svg" width="24" height="24"><g fill="none"><path d="M24 0v24H0V0zM12.594 23.258l-.012.002-.071.035-.02.004-.014-.004-.071-.036c-.01-.003-.019 0-.024.006l-.004.01-.017.428.005.02.01.013.104.074.015.004.012-.004.104-.074.012-.016.004-.017-.017-.427c-.002-.01-.009-.017-.016-.018m.264-.113-.014.002-.184.093-.01.01-.003.011.018.43.005.012.008.008.201.092c.012.004.023 0 .029-.008l.004-.014-.034-.614c-.003-.012-.01-.02-.02-.022m-.715.002a.023.023 0 0 0-.027.006l-.006.014-.034.614c0 .012.007.02.017.024l.015-.002.201-.093.01-.008.003-.011.018-.43-.003-.012-.01-.01z"/><path fill="#09244B" d="M9 16a1 1 0 0 1 1 1v.268l.232-.134a1 1 0 1 1 1 1.732L11 19l.232.134a1 1 0 0 1-1 1.732L10 20.732V21a1 1 0 1 1-2 0v-.268l-.232.134a1 1 0 1 1-1-1.732L7 19l-.232-.134a1 1 0 1 1 1-1.732l.232.134V17a1 1 0 0 1 1-1m2.5-14a6.502 6.502 0 0 1 6.086 4.212 6.002 6.002 0 0 1-1.346 11.783l.04-.046a2.993 2.993 0 0 0 2.05-1.449c.456-.79.512-1.702.23-2.5a2.993 2.993 0 0 0-.23-2.5 2.993 2.993 0 0 0-2.05-1.45A2.993 2.993 0 0 0 14 9c-.913 0-1.73.407-2.28 1.05a2.994 2.994 0 0 0-2.05 1.45 2.993 2.993 0 0 0-.23 2.5l-.011.03a2.993 2.993 0 0 0-2.71 1.02 2.993 2.993 0 0 0-2.356 2.199A5 5 0 0 1 5 8.416 6.5 6.5 0 0 1 11.5 2m2.5 9a1 1 0 0 1 1 1v.268l.232-.134a1 1 0 1 1 1 1.732L16 14l.232.134a1 1 0 0 1-1 1.732L15 15.732V16a1 1 0 1 1-2 0v-.268l-.232.134a1 1 0 1 1-1-1.732L12 14l-.232-.134a1 1 0 1 1 1-1.732l.232.134V12a1 1 0 0 1 1-1"/></g></svg>