<svg width="24" height="24" viewBox="0 0 24 24" fill="none" xmlns="http://www.w3.org/2000/svg">
<rect width="24" height="24" transform="matrix(-1 0 0 1 24 0)" fill="white" fill-opacity="0.01"/>
<path fill-rule="evenodd" clip-rule="evenodd" d="M13.574 3.13729C12.7837 2.99779 12.1416 3.79855 12.4769 4.54557C12.8127 5.29352 13 6.12352 13 6.99996C13 10.3137 10.3137 13 7 13C6.12356 13 5.29356 12.8127 4.54561 12.4769C3.79866 12.1416 2.99783 12.7836 3.13734 13.5739C3.8823 17.7941 7.56575 21 12 21C16.9706 21 21 16.9705 21 12C21 7.5657 17.7942 3.88225 13.574 3.13729ZM14.8809 5.61808C17.3098 6.71634 19 9.16146 19 12C19 15.8659 15.866 19 12 19C9.1615 19 6.71639 17.3098 5.61813 14.8809C6.06734 14.9592 6.52913 15 7 15C11.4183 15 15 11.4182 15 6.99996C15 6.52909 14.9592 6.0673 14.8809 5.61808Z" fill="#09244B"/>
</svg>
