<?xml version="1.0" encoding="UTF-8"?>
<svg width="24px" height="24px" viewBox="0 0 24 24" version="1.1" xmlns="http://www.w3.org/2000/svg" xmlns:xlink="http://www.w3.org/1999/xlink">
    <title>moon_line</title>
    <g id="页面-1" stroke="none" stroke-width="1" fill="none" fill-rule="evenodd">
        <g id="Weather" transform="translate(-96.000000, 0.000000)">
            <g id="moon_line" transform="translate(96.000000, 0.000000)">
                <rect id="矩形" fill-rule="nonzero" transform="translate(12.000000, 12.000000) scale(-1, 1) translate(-12.000000, -12.000000) " x="0" y="0" width="24" height="24"></rect>
                <path d="M13.574,3.13729 C12.7837,2.99779 12.1416,3.79855 12.4769,4.54557 C12.8127,5.29352 13,6.12352 13,6.99996 C13,10.3137 10.3137,13 7,13 C6.12356,13 5.29356,12.8127 4.54561,12.4769 C3.79866,12.1416 2.99783,12.7836 3.13734,13.5739 C3.8823,17.7941 7.56575,21 12,21 C16.9706,21 21,16.9705 21,12 C21,7.5657 17.7942,3.88225 13.574,3.13729 Z M14.8809,5.61808 C17.3098,6.71634 19,9.16146 19,12 C19,15.8659 15.866,19 12,19 C9.1615,19 6.71639,17.3098 5.61813,14.8809 C6.06734,14.9592 6.52913,15 7,15 C11.4183,15 15,11.4182 15,6.99996 C15,6.52909 14.9592,6.0673 14.8809,5.61808 Z" id="形状" fill="#09244B"></path>
            </g>
        </g>
    </g>
</svg>