<svg width="24" height="24" viewBox="0 0 24 24" fill="none" xmlns="http://www.w3.org/2000/svg">
<rect width="24" height="24" transform="matrix(-1 0 0 1 24 0)" fill="white" fill-opacity="0.01"/>
<path fill-rule="evenodd" clip-rule="evenodd" d="M13.574 3.13754C12.7837 2.99804 12.1416 3.7988 12.4769 4.54581C12.8127 5.29376 13 6.12377 13 7.0002C13 10.3139 10.3137 13.0002 7 13.0002C6.12356 13.0002 5.29356 12.8129 4.54561 12.4771C3.79866 12.1418 2.99783 12.7838 3.13734 13.5742C3.8823 17.7944 7.56575 21.0002 12 21.0002C16.9706 21.0002 21 16.9708 21 12.0002C21 7.56595 17.7942 3.88249 13.574 3.13754Z" fill="#09244B"/>
</svg>
