<svg xmlns="http://www.w3.org/2000/svg" width="24" height="24"><g fill="none" fill-rule="evenodd"><path d="M24 0v24H0V0zM12.594 23.258l-.012.002-.071.035-.02.004-.014-.004-.071-.036c-.01-.003-.019 0-.024.006l-.004.01-.017.428.005.02.01.013.104.074.015.004.012-.004.104-.074.012-.016.004-.017-.017-.427c-.002-.01-.009-.017-.016-.018m.264-.113-.014.002-.184.093-.01.01-.003.011.018.43.005.012.008.008.201.092c.012.004.023 0 .029-.008l.004-.014-.034-.614c-.003-.012-.01-.02-.02-.022m-.715.002a.023.023 0 0 0-.027.006l-.006.014-.034.614c0 .012.007.02.017.024l.015-.002.201-.093.01-.008.003-.011.018-.43-.003-.012-.01-.01z"/><path fill="#09244B" d="M1.5 6A1.5 1.5 0 0 1 3 4.5h.5a1.5 1.5 0 0 1 1.302.756L6.5 8.226V6a1.5 1.5 0 1 1 3 0v7A1.5 1.5 0 0 1 8 14.5h-.5a1.5 1.5 0 0 1-1.302-.756L4.5 10.774V13a1.5 1.5 0 0 1-3 0zm13.67.658a1.5 1.5 0 0 1 .672 2.013l-4 8a1.5 1.5 0 1 1-2.684-1.342l4-8a1.5 1.5 0 0 1 2.013-.67Zm.917 3.837A1.5 1.5 0 0 1 17.5 9.5h1a1.5 1.5 0 0 1 1.413.995l1.952 5.468c.009.021.016.043.024.065l.524 1.468a1.5 1.5 0 1 1-2.826 1.009l-.18-.505h-2.814l-.18.505a1.5 1.5 0 1 1-2.826-1.01l.524-1.467c.008-.022.015-.044.024-.065zM17.664 15h.672L18 14.06z"/></g></svg>