<?xml version="1.0" encoding="UTF-8"?>
<svg width="24px" height="24px" viewBox="0 0 24 24" version="1.1" xmlns="http://www.w3.org/2000/svg" xmlns:xlink="http://www.w3.org/1999/xlink">
    <title>na_fill</title>
    <g id="Icon" stroke="none" stroke-width="1" fill="none" fill-rule="evenodd">
        <g id="Weather" transform="translate(-625.000000, -144.000000)">
            <g id="na_fill" transform="translate(625.000000, 144.000000)">
                <path d="M24,0 L24,24 L0,24 L0,0 L24,0 Z M12.5935,23.2578 L12.5819,23.2595 L12.5109,23.295 L12.4919,23.2987 L12.4767,23.295 L12.4057,23.2595 C12.3958,23.2564 12.387,23.259 12.3821,23.2649 L12.378,23.2758 L12.3609,23.7031 L12.3659,23.7235 L12.3769,23.7357 L12.4805,23.8097 L12.4953,23.8136 L12.5071,23.8097 L12.6107,23.7357 L12.6233,23.7197 L12.6267,23.7031 L12.6096,23.2758 C12.6076,23.2657 12.601,23.2593 12.5935,23.2578 Z M12.8584,23.1453 L12.8445,23.1473 L12.6598,23.2397 L12.6499,23.2499 L12.6472,23.2611 L12.6651,23.6906 L12.6699,23.7034 L12.6784,23.7105 L12.8793,23.8032 C12.8914,23.8069 12.9022,23.803 12.9078,23.7952 L12.9118,23.7812 L12.8777,23.1665 C12.8753,23.1546 12.8674,23.147 12.8584,23.1453 Z M12.143,23.1473 C12.1332,23.1424 12.1222,23.1453 12.1156,23.1526 L12.1099,23.1665 L12.0758,23.7812 C12.0751,23.7927 12.0828,23.8019 12.0926,23.8046 L12.1083,23.8032 L12.3092,23.7105 L12.3186,23.7024 L12.3225,23.6906 L12.3404,23.2611 L12.3372,23.2485 L12.3278,23.2397 L12.143,23.1473 Z" id="MingCute" fill-rule="nonzero"></path>
                <path d="M1.5,6 C1.5,5.17157 2.17157,4.5 3,4.5 L3.5,4.5 C4.03829,4.5 4.5353,4.78843 4.80236,5.25579 L6.5,8.22665 L6.5,6 C6.5,5.17157 7.17157,4.5 8,4.5 C8.82843,4.5 9.5,5.17157 9.5,6 L9.5,13 C9.5,13.8284 8.82843,14.5 8,14.5 L7.5,14.5 C6.96171,14.5 6.4647,14.2116 6.19764,13.7442 L4.5,10.7733 L4.5,13 C4.5,13.8284 3.82843,14.5 3,14.5 C2.17157,14.5 1.5,13.8284 1.5,13 L1.5,6 Z M15.1708,6.65836 C15.9118,7.02884 16.2121,7.92985 15.8416,8.67082 L11.8416,16.6708 C11.4712,17.4118 10.5701,17.7121 9.82918,17.3416 C9.08821,16.9712 8.78788,16.0701 9.15836,15.3292 L13.1584,7.32918 C13.5288,6.58821 14.4299,6.28788 15.1708,6.65836 Z M16.0874,10.4955 C16.3006,9.89851 16.8661,9.5 17.5,9.5 L18.5,9.5 C19.1339,9.5 19.6994,9.89851 19.9126,10.4955 L21.8652,15.9627 C21.8735,15.9844 21.8813,16.0062 21.8886,16.0284 L22.4126,17.4955 C22.6912,18.2757 22.2847,19.134 21.5045,19.4126 C20.7243,19.6912 19.866,19.2847 19.5874,18.5045 L19.4072,18 L16.5928,18 L16.4126,18.5045 C16.134,19.2847 15.2757,19.6912 14.4955,19.4126 C13.7153,19.134 13.3088,18.2757 13.5874,17.4955 L14.1114,16.0284 C14.1187,16.0063 14.1265,15.9843 14.1348,15.9627 L16.0874,10.4955 Z M17.6642,15 L18.3358,15 L18,14.0598 L17.6642,15 Z" id="形状" fill="#09244B"></path>
            </g>
        </g>
    </g>
</svg>