<svg xmlns="http://www.w3.org/2000/svg" width="24" height="24"><g fill="none" fill-rule="evenodd"><path d="M24 0v24H0V0zM12.594 23.258l-.012.002-.071.035-.02.004-.014-.004-.071-.036c-.01-.003-.019 0-.024.006l-.004.01-.017.428.005.02.01.013.104.074.015.004.012-.004.104-.074.012-.016.004-.017-.017-.427c-.002-.01-.009-.017-.016-.018m.264-.113-.014.002-.184.093-.01.01-.003.011.018.43.005.012.008.008.201.092c.012.004.023 0 .029-.008l.004-.014-.034-.614c-.003-.012-.01-.02-.02-.022m-.715.002a.023.023 0 0 0-.027.006l-.006.014-.034.614c0 .012.007.02.017.024l.015-.002.201-.093.01-.008.003-.011.018-.43-.003-.012-.01-.01z"/><path fill="#09244B" d="M7.25 13c1.27 0 2.34.862 2.656 2.033a2.5 2.5 0 0 1-.242 4.962L9.5 20H5a2 2 0 0 1-.483-3.941A2.75 2.75 0 0 1 7.25 13M12 4c1.569 0 3.032.452 4.267 1.232a2.526 2.526 0 0 1 4.313.204 2.388 2.388 0 0 1-.83 4.569 8.002 8.002 0 0 1-6.437 9.888 4.499 4.499 0 0 0-1.926-6.48A4.746 4.746 0 0 0 7.249 11a4.734 4.734 0 0 0-3.245 1.281L4 12a8 8 0 0 1 8-8m6.361 2.12a.528.528 0 0 0-.516.418c.333.356.634.743.899 1.156l.19.315h.677a.389.389 0 0 0 .064-.773 1 1 0 0 1-.762-.604l-.042-.123a.528.528 0 0 0-.51-.389"/></g></svg>