<?xml version="1.0" encoding="UTF-8"?>
<svg width="24px" height="24px" viewBox="0 0 24 24" version="1.1" xmlns="http://www.w3.org/2000/svg" xmlns:xlink="http://www.w3.org/1999/xlink">
    <title>rain_fill</title>
    <g id="页面-1" stroke="none" stroke-width="1" fill="none" fill-rule="evenodd">
        <g id="Weather" transform="translate(-289.000000, -48.000000)" fill-rule="nonzero">
            <g id="rain_fill" transform="translate(289.000000, 48.000000)">
                <rect id="矩形" x="0" y="0" width="24" height="24"></rect>
                <path d="M12,19 C12.5523,19 13,19.4477 13,20 L13,21 C13,21.5523 12.5523,22 12,22 C11.4477,22 11,21.5523 11,21 L11,20 C11,19.4477 11.4477,19 12,19 Z M15,17 C15.51285,17 15.9355092,17.386027 15.9932725,17.8833761 L16,18 L16,19 C16,19.5523 15.5523,20 15,20 C14.48715,20 14.0644908,19.613973 14.0067275,19.1166239 L14,19 L14,18 C14,17.4477 14.4477,17 15,17 Z M9,17 C9.55228,17 10,17.4477 10,18 L10,19 C10,19.5523 9.55228,20 9,20 C8.44772,20 8,19.5523 8,19 L8,18 C8,17.4477 8.44772,17 9,17 Z M12,15 C12.5523,15 13,15.4477 13,16 L13,17 C13,17.5523 12.5523,18 12,18 C11.4477,18 11,17.5523 11,17 L11,16 C11,15.4477 11.4477,15 12,15 Z M11.5,2 C14.2856,2 16.66,3.75154 17.5856,6.21198 C20.13,6.90766 22,9.23462 22,12 C22,14.528129 20.4363788,16.6911072 18.2234259,17.5745543 L18,17.6586 L18,14.5 C18,12.567 16.433,11 14.5,11 C13.8868,11 13.3105,11.1577 12.8093,11.4347 C12.319,11.7057 11.681,11.7057 11.1907,11.4347 C10.6895,11.1577 10.1132,11 9.5,11 C7.63143333,11 6.10487333,12.4642744 6.00517885,14.3079645 L6,14.5 L6,17.9 C3.71776,17.4367 2,15.419 2,13 C2,10.9486 3.23468,9.18749 5.00053,8.41614 C5.04543,4.86494 7.93814,2 11.5,2 Z M9,13 C9.55228,13 10,13.4477 10,14 L10,15 C10,15.5523 9.55228,16 9,16 C8.44772,16 8,15.5523 8,15 L8,14 C8,13.4477 8.44772,13 9,13 Z M15,13 C15.51285,13 15.9355092,13.386027 15.9932725,13.8833761 L16,14 L16,15 C16,15.5523 15.5523,16 15,16 C14.48715,16 14.0644908,15.613973 14.0067275,15.1166239 L14,15 L14,14 C14,13.4477 14.4477,13 15,13 Z" id="形状" fill="#09244B"></path>
            </g>
        </g>
    </g>
</svg>