<?xml version="1.0" encoding="UTF-8"?>
<svg width="24px" height="24px" viewBox="0 0 24 24" version="1.1" xmlns="http://www.w3.org/2000/svg" xmlns:xlink="http://www.w3.org/1999/xlink">
    <title>rainbow_line</title>
    <g id="Icon" stroke="none" stroke-width="1" fill="none" fill-rule="evenodd">
        <g id="Weather" transform="translate(-673.000000, -96.000000)" fill-rule="nonzero">
            <g id="rainbow_line" transform="translate(673.000000, 96.000000)">
                <path d="M24,0 L24,24 L0,24 L0,0 L24,0 Z M12.5935,23.2578 L12.5819,23.2595 L12.5109,23.295 L12.4919,23.2987 L12.4767,23.295 L12.4057,23.2595 C12.3958,23.2564 12.387,23.259 12.3821,23.2649 L12.378,23.2758 L12.3609,23.7031 L12.3659,23.7235 L12.3769,23.7357 L12.4805,23.8097 L12.4953,23.8136 L12.5071,23.8097 L12.6107,23.7357 L12.6233,23.7197 L12.6267,23.7031 L12.6096,23.2758 C12.6076,23.2657 12.601,23.2593 12.5935,23.2578 Z M12.8584,23.1453 L12.8445,23.1473 L12.6598,23.2397 L12.6499,23.2499 L12.6472,23.2611 L12.6651,23.6906 L12.6699,23.7034 L12.6784,23.7105 L12.8793,23.8032 C12.8914,23.8069 12.9022,23.803 12.9078,23.7952 L12.9118,23.7812 L12.8777,23.1665 C12.8753,23.1546 12.8674,23.147 12.8584,23.1453 Z M12.143,23.1473 C12.1332,23.1424 12.1222,23.1453 12.1156,23.1526 L12.1099,23.1665 L12.0758,23.7812 C12.0751,23.7927 12.0828,23.8019 12.0926,23.8046 L12.1083,23.8032 L12.3092,23.7105 L12.3186,23.7024 L12.3225,23.6906 L12.3404,23.2611 L12.3372,23.2485 L12.3278,23.2397 L12.143,23.1473 Z" id="MingCute"></path>
                <path d="M12,5 C18.0751,5 23,9.92487 23,16 L23,17 C23,17.5523 22.5523,18 22,18 C21.4477,18 21,17.5523 21,17 L21,16 C21,11.0294 16.9706,7 12,7 C7.02944,7 3,11.0294 3,16 L3,17 C3,17.5523 2.55228,18 2,18 C1.44772,18 1,17.5523 1,17 L1,16 C1,9.92487 5.92487,5 12,5 Z M12,9 C15.866,9 19,12.134 19,16 L19,17 C19,17.5523 18.5523,18 18,18 C17.4477,18 17,17.5523 17,17 L17,16 C17,13.2386 14.7614,11 12,11 C9.23858,11 7,13.2386 7,16 L7,17 C7,17.5523 6.55228,18 6,18 C5.44772,18 5,17.5523 5,17 L5,16 C5,12.134 8.13401,9 12,9 Z M12,13 C13.6569,13 15,14.3431 15,16 L15,17 C15,17.5523 14.5523,18 14,18 C13.4477,18 13,17.5523 13,17 L13,16 C13,15.4477 12.5523,15 12,15 C11.4477,15 11,15.4477 11,16 L11,17 C11,17.5523 10.5523,18 10,18 C9.44771,18 9,17.5523 9,17 L9,16 C9,14.3431 10.3431,13 12,13 Z" id="形状" fill="#09244B"></path>
            </g>
        </g>
    </g>
</svg>