<?xml version="1.0" encoding="UTF-8"?>
<svg width="24px" height="24px" viewBox="0 0 24 24" version="1.1" xmlns="http://www.w3.org/2000/svg" xmlns:xlink="http://www.w3.org/1999/xlink">
    <title>rainbow_fill</title>
    <g id="Icon" stroke="none" stroke-width="1" fill="none" fill-rule="evenodd">
        <g id="Weather" transform="translate(-673.000000, -144.000000)">
            <g id="rainbow_fill" transform="translate(673.000000, 144.000000)">
                <path d="M24,0 L24,24 L0,24 L0,0 L24,0 Z M12.5935,23.2578 L12.5819,23.2595 L12.5109,23.295 L12.4919,23.2987 L12.4767,23.295 L12.4057,23.2595 C12.3958,23.2564 12.387,23.259 12.3821,23.2649 L12.378,23.2758 L12.3609,23.7031 L12.3659,23.7235 L12.3769,23.7357 L12.4805,23.8097 L12.4953,23.8136 L12.5071,23.8097 L12.6107,23.7357 L12.6233,23.7197 L12.6267,23.7031 L12.6096,23.2758 C12.6076,23.2657 12.601,23.2593 12.5935,23.2578 Z M12.8584,23.1453 L12.8445,23.1473 L12.6598,23.2397 L12.6499,23.2499 L12.6472,23.2611 L12.6651,23.6906 L12.6699,23.7034 L12.6784,23.7105 L12.8793,23.8032 C12.8914,23.8069 12.9022,23.803 12.9078,23.7952 L12.9118,23.7812 L12.8777,23.1665 C12.8753,23.1546 12.8674,23.147 12.8584,23.1453 Z M12.143,23.1473 C12.1332,23.1424 12.1222,23.1453 12.1156,23.1526 L12.1099,23.1665 L12.0758,23.7812 C12.0751,23.7927 12.0828,23.8019 12.0926,23.8046 L12.1083,23.8032 L12.3092,23.7105 L12.3186,23.7024 L12.3225,23.6906 L12.3404,23.2611 L12.3372,23.2485 L12.3278,23.2397 L12.143,23.1473 Z" id="MingCute" fill-rule="nonzero"></path>
                <path d="M12,7.5 C7.30558,7.5 3.5,11.3056 3.5,16 L3.5,17 C3.5,17.8284 2.82843,18.5 2,18.5 C1.17157,18.5 0.5,17.8284 0.5,17 L0.5,16 C0.5,9.64873 5.64873,4.5 12,4.5 C18.3513,4.5 23.5,9.64873 23.5,16 L23.5,17 C23.5,17.8284 22.8284,18.5 22,18.5 C21.1716,18.5 20.5,17.8284 20.5,17 L20.5,16 C20.5,11.3056 16.6944,7.5 12,7.5 Z M12,11.5 C9.51472,11.5 7.5,13.5147 7.5,16 L7.5,17 C7.5,17.8284 6.82843,18.5 6,18.5 C5.17157,18.5 4.5,17.8284 4.5,17 L4.5,16 C4.5,11.8579 7.85786,8.5 12,8.5 C16.1421,8.5 19.5,11.8579 19.5,16 L19.5,17 C19.5,17.8284 18.8284,18.5 18,18.5 C17.1716,18.5 16.5,17.8284 16.5,17 L16.5,16 C16.5,13.5147 14.4853,11.5 12,11.5 Z M11.5,16 C11.5,15.7239 11.7239,15.5 12,15.5 C12.2761,15.5 12.5,15.7239 12.5,16 L12.5,17 C12.5,17.8284 13.1716,18.5 14,18.5 C14.8284,18.5 15.5,17.8284 15.5,17 L15.5,16 C15.5,14.067 13.933,12.5 12,12.5 C10.067,12.5 8.5,14.067 8.5,16 L8.5,17 C8.5,17.8284 9.17157,18.5 10,18.5 C10.8284,18.5 11.5,17.8284 11.5,17 L11.5,16 Z" id="形状" fill="#09244B"></path>
            </g>
        </g>
    </g>
</svg>