<?xml version="1.0" encoding="UTF-8"?>
<svg width="24px" height="24px" viewBox="0 0 24 24" version="1.1" xmlns="http://www.w3.org/2000/svg" xmlns:xlink="http://www.w3.org/1999/xlink">
    <title>sandstorm_line</title>
    <g id="Icon" stroke="none" stroke-width="1" fill="none" fill-rule="evenodd">
        <g id="Weather" transform="translate(-721.000000, -96.000000)" fill-rule="nonzero">
            <g id="sandstorm_line" transform="translate(721.000000, 96.000000)">
                <path d="M24,0 L24,24 L0,24 L0,0 L24,0 Z M12.5935,23.2578 L12.5819,23.2595 L12.5109,23.295 L12.4919,23.2987 L12.4767,23.295 L12.4057,23.2595 C12.3958,23.2564 12.387,23.259 12.3821,23.2649 L12.378,23.2758 L12.3609,23.7031 L12.3659,23.7235 L12.3769,23.7357 L12.4805,23.8097 L12.4953,23.8136 L12.5071,23.8097 L12.6107,23.7357 L12.6233,23.7197 L12.6267,23.7031 L12.6096,23.2758 C12.6076,23.2657 12.601,23.2593 12.5935,23.2578 Z M12.8584,23.1453 L12.8445,23.1473 L12.6598,23.2397 L12.6499,23.2499 L12.6472,23.2611 L12.6651,23.6906 L12.6699,23.7034 L12.6784,23.7105 L12.8793,23.8032 C12.8914,23.8069 12.9022,23.803 12.9078,23.7952 L12.9118,23.7812 L12.8777,23.1665 C12.8753,23.1546 12.8674,23.147 12.8584,23.1453 Z M12.143,23.1473 C12.1332,23.1424 12.1222,23.1453 12.1156,23.1526 L12.1099,23.1665 L12.0758,23.7812 C12.0751,23.7927 12.0828,23.8019 12.0926,23.8046 L12.1083,23.8032 L12.3092,23.7105 L12.3186,23.7024 L12.3225,23.6906 L12.3404,23.2611 L12.3372,23.2485 L12.3278,23.2397 L12.143,23.1473 Z" id="MingCute"></path>
                <path d="M18.5,6 C20.433,6 22,7.567 22,9.5 C22,11.433 20.433,13 18.5,13 L3,13 C2.44772,13 2,12.5523 2,12 C2,11.4477 2.44772,11 3,11 L18.5,11 C19.3284,11 20,10.3284 20,9.5 C20,8.67157 19.3284,8 18.5,8 C17.8238,8 17.250304,8.44834347 17.0639124,9.06444319 L17.03,9.19893 C16.9202,9.74018 16.3923,10.0899 15.8511,9.98001 C15.3098,9.87015 14.9601,9.34231 15.07,8.80107 C15.3944,7.20308 16.8056,6 18.5,6 Z M11,3 C12.6569,3 14,4.34315 14,6 C14,7.65685 12.6569,9 11,9 L5,9 C4.44772,9 4,8.55228 4,8 C4,7.44772 4.44772,7 5,7 L11,7 C11.5523,7 12,6.55228 12,6 C12,5.44772 11.5523,5 11,5 C10.6720889,5 10.3800494,5.1574084 10.1967133,5.40414815 L10.1332,5.50073 C9.85664,5.97879 9.24491,6.14215 8.76685,5.86561 C8.28879,5.58906 8.12543,4.97733 8.40197,4.49927 C8.91917,3.60518 9.88833,3 11,3 Z M5,3 C5.55228,3 6,3.44772 6,4 C6,4.55228 5.55228,5 5,5 C4.44772,5 4,4.55228 4,4 C4,3.44772 4.44772,3 5,3 Z M17,3 C17.5523,3 18,3.44772 18,4 C18,4.55228 17.5523,5 17,5 C16.4477,5 16,4.55228 16,4 C16,3.44772 16.4477,3 17,3 Z M9,19 C9.55228,19 10,19.4477 10,20 C10,20.5523 9.55228,21 9,21 C8.44772,21 8,20.5523 8,20 C8,19.4477 8.44772,19 9,19 Z M14.5,15 C15.8807,15 17,16.1193 17,17.5 C17,18.8807 15.8807,20 14.5,20 C13.8603,20 13.2747,19.7585 12.8331,19.3632 C12.4216,18.9949 12.3865,18.3627 12.7549,17.9511 C13.0948692,17.5712538 13.6597,17.5122124 14.0682413,17.7950547 L14.1669,17.8729 C14.256,17.9527 14.3713,18 14.5,18 C14.7761,18 15,17.7761 15,17.5 C15,17.2239 14.7761,17 14.5,17 L7,17 C6.44772,17 6,16.5523 6,16 C6,15.4477 6.44772,15 7,15 L14.5,15 Z M21,17 C21,17.5523 20.5523,18 20,18 C19.4477,18 19,17.5523 19,17 C19,16.4477 19.4477,16 20,16 C20.5523,16 21,16.4477 21,17 Z" id="形状" fill="#09244B"></path>
            </g>
        </g>
    </g>
</svg>