<svg xmlns="http://www.w3.org/2000/svg" width="24" height="24"><g fill="none"><path d="M24 0v24H0V0zM12.594 23.258l-.012.002-.071.035-.02.004-.014-.004-.071-.036c-.01-.003-.019 0-.024.006l-.004.01-.017.428.005.02.01.013.104.074.015.004.012-.004.104-.074.012-.016.004-.017-.017-.427c-.002-.01-.009-.017-.016-.018m.264-.113-.014.002-.184.093-.01.01-.003.011.018.43.005.012.008.008.201.092c.012.004.023 0 .029-.008l.004-.014-.034-.614c-.003-.012-.01-.02-.02-.022m-.715.002a.023.023 0 0 0-.027.006l-.006.014-.034.614c0 .012.007.02.017.024l.015-.002.201-.093.01-.008.003-.011.018-.43-.003-.012-.01-.01z"/><path fill="#09244B" d="M18.5 5.5a4 4 0 0 1 0 8H3a1.5 1.5 0 0 1 0-3h15.5a1 1 0 1 0-.727-1.687L17.7 8.9a1.5 1.5 0 1 1-2.398-1.802A3.996 3.996 0 0 1 18.5 5.5m-7.5-3a3.5 3.5 0 1 1 0 7H5a1.5 1.5 0 1 1 0-3h6a.5.5 0 1 0-.249-.934A1.5 1.5 0 1 1 9.25 2.969 3.49 3.49 0 0 1 11 2.5M5 3a1 1 0 1 1 0 2 1 1 0 0 1 0-2m12 0a1 1 0 1 1 0 2 1 1 0 0 1 0-2M9 19a1 1 0 1 1 0 2 1 1 0 0 1 0-2m5.5-4.5a3 3 0 1 1-1 5.829 1.5 1.5 0 0 1 .001-2.829H7a1.5 1.5 0 0 1 0-3zM21 17a1 1 0 1 1-2 0 1 1 0 0 1 2 0"/></g></svg>