<?xml version="1.0" encoding="UTF-8"?>
<svg width="24px" height="24px" viewBox="0 0 24 24" version="1.1" xmlns="http://www.w3.org/2000/svg" xmlns:xlink="http://www.w3.org/1999/xlink">
    <title>snow_line</title>
    <g id="页面-1" stroke="none" stroke-width="1" fill="none" fill-rule="evenodd">
        <g id="Weather" transform="translate(-336.000000, 0.000000)">
            <g id="snow_line" transform="translate(336.000000, 0.000000)">
                 <path d="M24,0 L24,24 L0,24 L0,0 L24,0 Z M12.5934901,23.257841 L12.5819402,23.2595131 L12.5108777,23.2950439 L12.4918791,23.2987469 L12.4918791,23.2987469 L12.4767152,23.2950439 L12.4056548,23.2595131 C12.3958229,23.2563662 12.3870493,23.2590235 12.3821421,23.2649074 L12.3780323,23.275831 L12.360941,23.7031097 L12.3658947,23.7234994 L12.3769048,23.7357139 L12.4804777,23.8096931 L12.4953491,23.8136134 L12.4953491,23.8136134 L12.5071152,23.8096931 L12.6106902,23.7357139 L12.6232938,23.7196733 L12.6232938,23.7196733 L12.6266527,23.7031097 L12.609561,23.275831 C12.6075724,23.2657013 12.6010112,23.2592993 12.5934901,23.257841 L12.5934901,23.257841 Z M12.8583906,23.1452862 L12.8445485,23.1473072 L12.6598443,23.2396597 L12.6498822,23.2499052 L12.6498822,23.2499052 L12.6471943,23.2611114 L12.6650943,23.6906389 L12.6699349,23.7034178 L12.6699349,23.7034178 L12.678386,23.7104931 L12.8793402,23.8032389 C12.8914285,23.8068999 12.9022333,23.8029875 12.9078286,23.7952264 L12.9118235,23.7811639 L12.8776777,23.1665331 C12.8752882,23.1545897 12.8674102,23.1470016 12.8583906,23.1452862 L12.8583906,23.1452862 Z M12.1430473,23.1473072 C12.1332178,23.1423925 12.1221763,23.1452606 12.1156365,23.1525954 L12.1099173,23.1665331 L12.0757714,23.7811639 C12.0751323,23.7926639 12.0828099,23.8018602 12.0926481,23.8045676 L12.108256,23.8032389 L12.3092106,23.7104931 L12.3186497,23.7024347 L12.3186497,23.7024347 L12.3225043,23.6906389 L12.340401,23.2611114 L12.337245,23.2485176 L12.337245,23.2485176 L12.3277531,23.2396597 L12.1430473,23.1473072 Z" id="MingCute" fill-rule="nonzero"></path>
                <path d="M12,2 C12.5523,2 13,2.44772 13,3 L13,3.9616 L13.654,3.6159 C14.1423,3.3578 14.7473,3.54439 15.0054,4.03266 C15.2635,4.52093 15.0769,5.12597 14.5887,5.38407 L13,6.22382 L13,8.126 C13.7149,8.30999 14.3525,8.68665 14.854,9.19732 L16.5023,8.24569 L16.4352,6.45001 C16.4146,5.89811 16.8453,5.434 17.3972,5.41338 C17.9491,5.39276 18.4132,5.82345 18.4338,6.37535 L18.4614,7.11458 L19.2942,6.63378 C19.7725,6.35764 20.3841,6.52152 20.6602,6.99981 C20.9364,7.4781 20.7725,8.08969 20.2942,8.36583 L19.4614,8.84663 L20.0878,9.24016 C20.5555,9.53396 20.6964,10.1512 20.4026,10.6189 C20.1088,11.0865 19.4915,11.2275 19.0238,10.9337 L17.5023,9.97774 L15.855,10.9288 C15.9496,11.2697 16.0001,11.629 16.0001,12 C16.0001,12.371 15.9496,12.7303 15.855,13.0712 L17.5023,14.0223 L19.0239,13.0663 C19.4915,12.7725 20.1088,12.9135 20.4026,13.3811 C20.6964,13.8488 20.5555,14.466 20.0879,14.7598 L19.4615,15.1534 L20.2942,15.6342 C20.7725,15.9103 20.9364,16.5219 20.6603,17.0002 C20.3841,17.4785 19.7725,17.6424 19.2942,17.3662 L18.4615,16.8854 L18.4339,17.6246 C18.4132,18.1765 17.9491,18.6072 17.3972,18.5866 C16.8453,18.566 16.4146,18.1019 16.4353,17.55 L16.5023,15.7543 L14.854,14.8027 C14.3525,15.3133 13.7149,15.69 13,15.874 L13,17.7762 L14.5887,18.6159 C15.0769,18.874 15.2635,19.4791 15.0054,19.9673 C14.7473,20.4556 14.1423,20.6422 13.654,20.3841 L13,20.0384 L13,21 C13,21.5523 12.5523,22 12,22 C11.4477,22 11,21.5523 11,21 L11,20.0384 L10.346,20.3841 C9.85775,20.6422 9.25271,20.4556 8.99461,19.9673 C8.73651,19.4791 8.9231,18.874 9.41137,18.6159 L11,17.7762 L11,15.874 C10.285,15.6899 9.64739,15.3132 9.14581,14.8024 L7.49764,15.7539 L7.56472,17.5496 C7.58534,18.1015 7.15464,18.5656 6.60274,18.5862 C6.05085,18.6069 5.58673,18.1762 5.56611,17.6243 L5.5385,16.885 L4.70573,17.3658 C4.22744,17.642 3.61585,17.4781 3.33971,16.9998 C3.06357,16.5215 3.22744,15.9099 3.70573,15.6338 L4.5385,15.153 L3.91212,14.7595 C3.44447,14.4657 3.30353,13.8484 3.59734,13.3807 C3.89114,12.9131 4.50842,12.7721 4.97608,13.0659 L6.49764,14.0219 L8.14501,13.0708 C8.05055,12.73 8.00008,12.3709 8.00008,12 C8.00008,11.6291 8.05056,11.27 8.14501,10.9292 L6.49769,9.97813 L4.97613,10.9341 C4.50847,11.2279 3.89119,11.0869 3.59739,10.6193 C3.30358,10.1516 3.44451,9.53435 3.91217,9.24054 L4.53855,8.84701 L3.70578,8.36622 C3.22749,8.09007 3.06361,7.47848 3.33976,7.00019 C3.6159,6.5219 4.22749,6.35802 4.70578,6.63417 L5.53855,7.11496 L5.56616,6.37574 C5.58678,5.82384 6.05089,5.39315 6.60279,5.41376 C7.15469,5.43438 7.58538,5.89849 7.56477,6.45039 L7.49769,8.24608 L9.14583,9.19763 C9.6474,8.68683 10.285,8.31007 11,8.12603 L11,6.22382 L9.41137,5.38407 C8.9231,5.12597 8.73651,4.52093 8.99461,4.03266 C9.25271,3.54439 9.85775,3.3578 10.346,3.6159 L11,3.9616 L11,3 C11,2.44772 11.4477,2 12,2 Z M12,14 C13.1046,14 14,13.1046 14,12 C14,10.8954 13.1046,10 12,10 C10.8954,10 10,10.8954 10,12 C10,13.1046 10.8954,14 12,14 Z" id="形状" fill="#09244B"></path>
            </g>
        </g>
    </g>
</svg>