<?xml version="1.0" encoding="UTF-8"?>
<svg width="24px" height="24px" viewBox="0 0 24 24" version="1.1" xmlns="http://www.w3.org/2000/svg" xmlns:xlink="http://www.w3.org/1999/xlink">
    <title>sparkles_fill</title>
    <g id="页面-1" stroke="none" stroke-width="1" fill="none" fill-rule="evenodd">
        <g id="Weather" transform="translate(-816.000000, -48.000000)" fill-rule="nonzero">
            <g id="sparkles_fill" transform="translate(816.000000, 48.000000)">
                <rect id="矩形" x="0" y="0" width="24" height="24"></rect>
                <path d="M6.17296,13.0036 L6.34297,13.3752 L6.34297,13.3752 C7.07036,14.88 8.21624,16.1431 9.6428,17.0133 L9.90768,17.1685 L9.90768,17.1685 C10.0308,17.2377 10.0308,17.4149 9.90768,17.4842 C9.81836,17.5344 9.73005,17.5862 9.6428,17.6394 C8.21624,18.5095 7.07036,19.7727 6.34297,21.2775 L6.17296,21.649 L6.17296,21.649 C6.10635,21.7989 5.89365,21.7989 5.82704,21.649 L5.65703,21.2775 L5.65703,21.2775 C4.92964,19.7727 3.78376,18.5095 2.3572,17.6394 C2.26995,17.5862 2.18164,17.5344 2.09232,17.4842 C1.96923,17.4149 1.96923,17.2377 2.09232,17.1685 L2.3572,17.0133 L2.3572,17.0133 C3.78376,16.1431 4.92964,14.88 5.65703,13.3752 L5.82704,13.0036 L5.82704,13.0036 C5.89365,12.8538 6.10635,12.8538 6.17296,13.0036 Z M15.0779,2.72991 C15.1747,2.94774 15.2716,3.16544 15.3754,3.38009 C16.6483,6.01348 18.6536,8.22403 21.1501,9.74673 C21.3028,9.83987 21.4573,9.93043 21.6137,10.0184 C21.8291,10.1395 21.8291,10.4497 21.6137,10.5708 C21.4573,10.6588 21.3028,10.7493 21.1501,10.8425 C18.6536,12.3651 16.6483,14.5757 15.3754,17.2091 C15.2716,17.4237 15.1747,17.6414 15.0779,17.8593 C14.9613,18.1215 14.5891,18.1215 14.4725,17.8593 C14.3757,17.6414 14.2788,17.4237 14.175,17.2091 C12.9021,14.5757 10.8968,12.3651 8.40031,10.8425 C8.24761,10.7493 8.09308,10.6588 7.93676,10.5708 C7.72136,10.4497 7.72136,10.1395 7.93676,10.0184 C8.09308,9.93043 8.24761,9.83987 8.40031,9.74673 C10.8968,8.22403 12.9021,6.01348 14.175,3.38009 C14.2786,3.16578 14.3757,2.94781 14.4725,2.72991 C14.5891,2.46764 14.9613,2.46764 15.0779,2.72991 Z" id="形状" fill="#09244B"></path>
            </g>
        </g>
    </g>
</svg>