<svg xmlns="http://www.w3.org/2000/svg" width="24" height="24"><g fill="none"><path d="M24 0v24H0V0zM12.593 23.258l-.011.002-.071.035-.02.004-.014-.004-.071-.035c-.01-.004-.019-.001-.024.005l-.004.01-.017.428.005.02.01.013.104.074.015.004.012-.004.104-.074.012-.016.004-.017-.017-.427c-.002-.01-.009-.017-.017-.018m.265-.113-.013.002-.185.093-.01.01-.003.011.018.43.005.012.008.007.201.093c.012.004.023 0 .029-.008l.004-.014-.034-.614c-.003-.012-.01-.02-.02-.022m-.715.002a.023.023 0 0 0-.027.006l-.006.014-.034.614c0 .012.007.02.017.024l.015-.002.201-.093.01-.008.004-.011.017-.43-.003-.012-.01-.01z"/><path fill="#09244B" d="m6.173 13.004.17.371a8.694 8.694 0 0 0 3.3 3.638l.265.155a.181.181 0 0 1 0 .316 8.693 8.693 0 0 0-3.565 3.793l-.17.372a.19.19 0 0 1-.346 0l-.17-.372a8.693 8.693 0 0 0-3.565-3.793.181.181 0 0 1 0-.316l.265-.155a8.694 8.694 0 0 0 3.3-3.638l.17-.371a.19.19 0 0 1 .346 0M15.078 2.73a15.213 15.213 0 0 0 6.536 7.288.317.317 0 0 1 0 .553 15.212 15.212 0 0 0-6.536 7.289.331.331 0 0 1-.605 0 15.212 15.212 0 0 0-6.536-7.289.317.317 0 0 1 0-.553 15.213 15.213 0 0 0 6.536-7.288.331.331 0 0 1 .605 0"/></g></svg>