<?xml version="1.0" encoding="UTF-8"?>
<svg width="24px" height="24px" viewBox="0 0 24 24" version="1.1" xmlns="http://www.w3.org/2000/svg" xmlns:xlink="http://www.w3.org/1999/xlink">
    <title>sparkles_line</title>
    <g id="页面-1" stroke="none" stroke-width="1" fill="none" fill-rule="evenodd">
        <g id="Weather" transform="translate(-816.000000, 0.000000)">
            <g id="sparkles_line" transform="translate(816.000000, 0.000000)">
                <rect id="矩形" fill-rule="nonzero" x="0" y="0" width="24" height="24"></rect>
                <path d="M5.82704,13.0035 C5.89365,12.8536 6.10635,12.8536 6.17296,13.0035 L6.34297,13.375 L6.34297,13.375 C7.07036,14.8798 8.21624,16.143 9.6428,17.0131 L9.90768,17.1683 L9.90768,17.1683 C10.0308,17.2376 10.0308,17.4148 9.90768,17.484 L9.6428,17.6393 L9.6428,17.6393 C8.21624,18.5094 7.07036,19.7725 6.34297,21.2773 L6.17296,21.6489 L6.17296,21.6489 C6.10635,21.7987 5.89365,21.7987 5.82704,21.6489 L5.65703,21.2773 L5.65703,21.2773 C4.92964,19.7725 3.78376,18.5094 2.3572,17.6393 L2.09232,17.484 L2.09232,17.484 C1.96923,17.4148 1.96923,17.2376 2.09232,17.1683 L2.3572,17.0131 L2.3572,17.0131 C3.78376,16.143 4.92964,14.8798 5.65703,13.375 C5.71623,13.2526 5.7717,13.128 5.82704,13.0035 Z M5.99696,16.49 L5.82182,16.696 C5.69727333,16.8362 5.56905111,16.9731111 5.43728667,17.1065852 L5.237,17.3042 L5.20996,17.328 L5.4373,17.551 L5.63226875,17.7537875 L5.63226875,17.7537875 L5.82183,17.9616 L5.99696,18.167 L6.17249,17.9616 C6.29704333,17.8214 6.42526778,17.6844889 6.55703296,17.5510148 L6.78396,17.328 L6.75733,17.3042 C6.62205667,17.1742 6.49025889,17.0406889 6.36207,16.9038148 L6.17251,16.696 L5.99696,16.49 Z M14.4727,2.72991 C14.5893,2.46764 14.9615,2.46764 15.0781,2.72991 L15.2286,3.06587 L15.2286,3.06587 L15.3756,3.38009 L15.3756,3.38009 L15.5713875,3.77069625 L15.5713875,3.77069625 L15.7973,4.18954 L15.9094,4.38643 L15.9094,4.38643 C16.9063143,6.10680357 18.2301056,7.61382327 19.8041512,8.8230519 L20.2313,9.13951 C20.5295,9.35247 20.836,9.55505 21.1503,9.74673 C21.303,9.83987 21.4575,9.93043 21.6138,10.0184 C21.8292,10.1395 21.8292,10.4497 21.6138,10.5708 C21.4575,10.6588 21.303,10.7493 21.1503,10.8425 C20.9407667,10.9702333 20.7347,11.1028556 20.5322481,11.2401889 L20.1718,11.4924 C18.4357,12.7448 16.983,14.35 15.9094,16.2028 L15.7779,16.4344 C15.6367,16.6882 15.5025,16.9466 15.3756,17.2091 L15.2286,17.5233 L15.2286,17.5233 L15.0781,17.8593 L15.0781,17.8593 C14.9615,18.1215 14.5893,18.1215 14.4727,17.8593 L14.3222,17.5233 L14.3222,17.5233 L14.1752,17.2091 L14.1752,17.2091 L13.9794125,16.8184875 L13.9794125,16.8184875 L13.7535,16.3996 L13.6414,16.2028 L13.6414,16.2028 C12.6444857,14.4823429 11.3206082,12.9753776 9.74662231,11.7661331 L9.31946,11.4497 C9.02124,11.2367 8.71476,11.0341 8.4005,10.8425 C8.2478,10.7493 8.09326,10.6588 7.93694,10.5708 C7.72154,10.4497 7.72154,10.1395 7.93694,10.0184 C8.09326,9.93043 8.2478,9.83987 8.4005,9.74673 C8.61000667,9.61894333 8.81605556,9.48631222 9.01850444,9.34899074 L9.37899,9.09679 C11.115,7.84441 12.5678,6.23914 13.6414,4.38643 L13.7729,4.1548 C13.9141,3.90094 14.0483,3.64262 14.1752,3.38009 L14.3222,3.06587 L14.4727,2.72991 Z M14.7754,6.34496 C13.7697,7.84494 12.5335,9.1781 11.1124,10.2946 C12.5335,11.4111 13.7697,12.7442 14.7754,14.2442 C15.7811,12.7442 17.0172,11.4111 18.4384,10.2946 C17.0172,9.1781 15.7811,7.84494 14.7754,6.34496 Z" id="形状" fill="#09244B"></path>
            </g>
        </g>
    </g>
</svg>