<?xml version="1.0" encoding="UTF-8"?>
<svg width="24px" height="24px" viewBox="0 0 24 24" version="1.1" xmlns="http://www.w3.org/2000/svg" xmlns:xlink="http://www.w3.org/1999/xlink">
    <title>sun_line</title>
    <g id="页面-1" stroke="none" stroke-width="1" fill="none" fill-rule="evenodd">
        <g id="Weather" transform="translate(-144.000000, 0.000000)" fill-rule="nonzero">
            <g id="sun_line" transform="translate(144.000000, 0.000000)">
                <rect id="矩形" transform="translate(12.000000, 12.000000) scale(-1, 1) translate(-12.000000, -12.000000) " x="0" y="0" width="24" height="24"></rect>
                <path d="M12,19 C12.5523,19 13,19.4477 13,20 L13,21 C13,21.5523 12.5523,22 12,22 C11.4477,22 11,21.5523 11,21 L11,20 C11,19.4477 11.4477,19 12,19 Z M18.364,16.9498 L19.0711,17.6569 C19.4616,18.0474 19.4616,18.6805 19.0711,19.0711 C18.6806,19.4616 18.0474,19.4616 17.6569,19.0711 L16.9498,18.364 C16.5593,17.9734 16.5593,17.3403 16.9498,16.9498 C17.3403,16.5592 17.9735,16.5592 18.364,16.9498 Z M5.6359825,16.9498 C6.02651,16.5592 6.65968,16.5592 7.0502,16.9498 C7.41068,17.3102615 7.43840923,17.8775207 7.13338769,18.2697973 L7.0502,18.364 L6.34309,19.0711 C5.95257,19.4616 5.3194,19.4616 4.92888,19.0711 C4.56839077,18.7106385 4.54066083,18.1433793 4.84569018,17.7511027 L4.92888,17.6569 L5.6359825,16.9498 Z M12,6 C15.3137,6 18,8.68629 18,12 C18,15.3137 15.3137,18 12,18 C8.68629,18 6,15.3137 6,12 C6,8.68629 8.68629,6 12,6 Z M12,8 C9.79086,8 8,9.79086 8,12 C8,14.2091 9.79086,16 12,16 C14.2091,16 16,14.2091 16,12 C16,9.79086 14.2091,8 12,8 Z M4,11 C4.55228,11 5,11.4477 5,12 C5,12.51285 4.61395571,12.9355092 4.11662025,12.9932725 L4,13 L3,13 C2.44772,13 2,12.5523 2,12 C2,11.48715 2.38604429,11.0644908 2.88337975,11.0067275 L3,11 L4,11 Z M21,11 C21.5523,11 22,11.4477 22,12 C22,12.5523 21.5523,13 21,13 L20,13 C19.4477,13 19,12.5523 19,12 C19,11.4477 19.4477,11 20,11 L21,11 Z M4.92891,4.92888 C5.28939,4.5684 5.85662503,4.54067077 6.2489135,4.84569231 L6.34312,4.92888 L7.05023,5.63599 C7.44075,6.02651 7.44075,6.65968 7.05023,7.0502 C6.68974077,7.41068 6.12251355,7.43840923 5.73022044,7.13338769 L5.6360125,7.0502 L4.92891,6.34309 C4.53838,5.95257 4.53838,5.3194 4.92891,4.92888 Z M19.0711,4.9289 C19.4616,5.31942 19.4616,5.95259 19.0711,6.34311 L18.364,7.05022 C17.9734,7.44074 17.3403,7.44074 16.9498,7.05022 C16.5592,6.65969 16.5592,6.02653 16.9498,5.6360025 L17.6569,4.9289 C18.0474,4.53837 18.6805,4.53837 19.0711,4.9289 Z M12,2 C12.5523,2 13,2.44772 13,3 L13,4 C13,4.55228 12.5523,5 12,5 C11.4477,5 11,4.55228 11,4 L11,3 C11,2.44772 11.4477,2 12,2 Z" id="形状" fill="#09244B"></path>
            </g>
        </g>
    </g>
</svg>