<?xml version="1.0" encoding="UTF-8"?>
<svg width="24px" height="24px" viewBox="0 0 24 24" version="1.1" xmlns="http://www.w3.org/2000/svg" xmlns:xlink="http://www.w3.org/1999/xlink">
    <title>sun_cloudy_line</title>
    <g id="页面-1" stroke="none" stroke-width="1" fill="none" fill-rule="evenodd">
        <g id="Weather" transform="translate(-576.000000, 0.000000)">
            <g id="sun_cloudy_line" transform="translate(576.000000, 0.000000)">
                <rect id="矩形" fill-rule="nonzero" x="0" y="0" width="24" height="24"></rect>
                <path d="M16,3 C19.3137,3 22,5.68629 22,9 C22,10.5614 21.4036,11.9836 20.4261,13.051 C20.7934,13.7884 21,14.62 21,15.5 C21,18.4635122 18.6562522,20.8795407 15.7212095,20.9956329 L15.5,21 L6.5,21 C4.01472,21 2,18.9853 2,16.5 C2,14.5384 3.2545,12.8708 5.00531,12.2544 C5.00178,12.17 5,12.0852 5,12 C5,8.75294 7.57931,6.10832 10.8008,6.00325 C11.8378,4.20805 13.7778,3 16,3 Z M11,8 C8.79086,8 7,9.79086 7,12 C7,12.1856667 7.01258222,12.3679111 7.03684296,12.5460519 L7.08188,12.8101 C7.20253,13.3974 6.7903,13.9494 6.20847,14.0167 C4.96556,14.1604 4,15.2182 4,16.5 C4,17.825472 5.03153766,18.9100378 6.33562452,18.9946823 L6.5,19 L15.5,19 C17.433,19 19,17.433 19,15.5 C19,13.6753 17.603,12.1758 15.8209,12.0144 C15.3767,11.9742 15.0099,11.6469 14.9217,11.2073 C14.5544,9.37778 12.937,8 11,8 Z M16,5 C14.81,5 13.7414,5.51965 13.0087,6.34441 C14.7533,6.96402 16.1258,8.36804 16.7033,10.1322 C17.6449,10.3424 18.4954,10.7939 19.1864,11.4183 C19.697,10.7467 20,9.90873 20,9 C20,6.79086 18.2091,5 16,5 Z" id="形状" fill="#09244B"></path>
            </g>
        </g>
    </g>
</svg>