<?xml version="1.0" encoding="UTF-8"?>
<svg width="24px" height="24px" viewBox="0 0 24 24" version="1.1" xmlns="http://www.w3.org/2000/svg" xmlns:xlink="http://www.w3.org/1999/xlink">
    <title>sunrise_line</title>
    <g id="页面-1" stroke="none" stroke-width="1" fill="none" fill-rule="evenodd">
        <g id="Weather" transform="translate(-720.000000, 0.000000)" fill-rule="nonzero">
            <g id="sunrise_line" transform="translate(720.000000, 0.000000)">
                <rect id="矩形" x="0" y="0" width="24" height="24"></rect>
                <path d="M12,9.99988 C15.3137,9.99988 18,12.6862 18,15.9999 C18,17.0928 17.7074,18.1176 17.1971,18.9999 L20,18.9999 C20.5523,18.9999 21,19.4476 21,19.9999 C21,20.5522 20.5523,20.9999 20,20.9999 L4,20.9999 C3.44772,20.9999 3,20.5522 3,19.9999 C3,19.4476 3.44772,18.9999 4,18.9999 L6.80311,18.9999 C6.29267,18.1176 6,17.0929 6,15.9999 C6,12.6862 8.68629,9.99988 12,9.99988 Z M12,11.9999 C9.79086,11.9999 8,13.7907 8,15.9999 C8,17.1143 8.45513813,18.1222502 9.19232695,18.8486225 L9.35455,18.9999 L14.6459,18.9999 C15.4777,18.2657 16,17.1939 16,15.9999 C16,13.7907 14.2091,11.9999 12,11.9999 Z M21,14.9999 C21.5523,14.9999 22,15.4476 22,15.9999 C22,16.5522 21.5523,16.9999 21,16.9999 L20,16.9999 C19.4477,16.9999 19,16.5522 19,15.9999 C19,15.4476 19.4477,14.9999 20,14.9999 L21,14.9999 Z M4,14.9999 C4.55228,14.9999 5,15.4476 5,15.9999 C5,16.5522 4.55228,16.9999 4,16.9999 L3,16.9999 C2.44772,16.9999 2,16.5522 2,15.9999 C2,15.4476 2.44772,14.9999 3,14.9999 L4,14.9999 Z M4.92891,8.92876 C5.28939,8.56827077 5.85662503,8.54054083 6.2489135,8.84557018 L6.34312,8.92876 L7.05023,9.6358625 C7.44075,10.0264 7.44075,10.6596 7.05023,11.0501 C6.68974077,11.4105615 6.12251355,11.4382893 5.73022044,11.1332834 L5.6360125,11.0501 L4.92891,10.343 C4.53838,9.95245 4.53838,9.31928 4.92891,8.92876 Z M19.0711,8.92877 C19.4616,9.3193 19.4616,9.95246 19.0711,10.343 L18.364,11.0501 C17.9734,11.4406 17.3403,11.4406 16.9498,11.0501 C16.5592,10.6596 16.5592,10.0264 16.9498,9.63588 L17.6569,8.92877 C18.0474,8.53825 18.6805,8.53825 19.0711,8.92877 Z M12.7071,2.17278 L14.8284,4.2941 C15.219,4.68462 15.219,5.31779 14.8284,5.70831 C14.4379,6.09883 13.8047,6.09883 13.4142,5.70831 L13,5.2941 L13,7.99988 C13,8.55216 12.5523,8.99988 12,8.99988 C11.4477,8.99988 11,8.55216 11,7.99988 L11,5.2941 L10.5858,5.70831 C10.1953,6.09883 9.5621,6.09883 9.17157,5.70831 C8.78105,5.31779 8.78105,4.68462 9.17157,4.2941 L11.2929,2.17278 C11.6834,1.78225 12.3166,1.78225 12.7071,2.17278 Z" id="形状" fill="#09244B"></path>
            </g>
        </g>
    </g>
</svg>