<?xml version="1.0" encoding="UTF-8"?>
<svg width="24px" height="24px" viewBox="0 0 24 24" version="1.1" xmlns="http://www.w3.org/2000/svg" xmlns:xlink="http://www.w3.org/1999/xlink">
    <title>sunrise_fill</title>
    <g id="页面-1" stroke="none" stroke-width="1" fill="none" fill-rule="evenodd">
        <g id="Weather" transform="translate(-720.000000, -48.000000)" fill-rule="nonzero">
            <g id="sunrise_fill" transform="translate(720.000000, 48.000000)">
                <rect id="矩形" x="0" y="0" width="24" height="24"></rect>
                <path d="M12,9.99988 C15.3137,9.99988 18,12.6862 18,15.9999 C18,17.0928 17.7074,18.1176 17.1971,18.9999 L20,18.9999 C20.5523,18.9999 21,19.4476 21,19.9999 C21,20.5522 20.5523,20.9999 20,20.9999 L4,20.9999 C3.44772,20.9999 3,20.5522 3,19.9999 C3,19.4476 3.44772,18.9999 4,18.9999 L6.80311,18.9999 C6.29267,18.1176 6,17.0929 6,15.9999 C6,12.6862 8.68629,9.99988 12,9.99988 Z M21,14.9999 C21.5523,14.9999 22,15.4476 22,15.9999 C22,16.51275 21.613973,16.9354092 21.1166239,16.9931725 L21,16.9999 L20,16.9999 C19.4477,16.9999 19,16.5522 19,15.9999 C19,15.48705 19.386027,15.0643908 19.8833761,15.0066275 L20,14.9999 L21,14.9999 Z M4,14.9999 C4.55228,14.9999 5,15.4476 5,15.9999 C5,16.51275 4.61395571,16.9354092 4.11662025,16.9931725 L4,16.9999 L3,16.9999 C2.44772,16.9999 2,16.5522 2,15.9999 C2,15.48705 2.38604429,15.0643908 2.88337975,15.0066275 L3,14.9999 L4,14.9999 Z M6.34312,8.92876 L7.05023,9.6358625 C7.44075,10.0264 7.44075,10.6596 7.05023,11.0501 C6.6597,11.4406 6.02654,11.4406 5.6360125,11.0501 L4.92891,10.343 C4.53838,9.95245 4.53838,9.31928 4.92891,8.92876 C5.31943,8.53823 5.9526,8.53823 6.34312,8.92876 Z M17.6569,8.92877 C18.0474,8.53825 18.6805,8.53825 19.0711,8.92877 C19.4315615,9.28925923 19.4592893,9.85648645 19.1542834,10.2487894 L19.0711,10.343 L18.364,11.0501 C17.9734,11.4406 17.3403,11.4406 16.9498,11.0501 C16.5892462,10.6896385 16.5615112,10.1223793 16.8665953,9.730087 L16.9498,9.63588 L17.6569,8.92877 Z M12.7071,2.17278 L14.8284,4.2941 C15.219,4.68462 15.219,5.31779 14.8284,5.70831 C14.4379,6.09883 13.8047,6.09883 13.4142,5.70831 L13,5.2941 L13,7.99988 C13,8.55216 12.5523,8.99988 12,8.99988 C11.4477,8.99988 11,8.55216 11,7.99988 L11,5.2941 L10.5858,5.70831 C10.1953,6.09883 9.5621,6.09883 9.17157,5.70831 C8.78105,5.31779 8.78105,4.68462 9.17157,4.2941 L11.2929,2.17278 C11.6834,1.78225 12.3166,1.78225 12.7071,2.17278 Z" id="形状" fill="#09244B"></path>
            </g>
        </g>
    </g>
</svg>