<?xml version="1.0" encoding="UTF-8"?>
<svg width="24px" height="24px" viewBox="0 0 24 24" version="1.1" xmlns="http://www.w3.org/2000/svg" xmlns:xlink="http://www.w3.org/1999/xlink">
    <title>sunset_fill</title>
    <g id="页面-1" stroke="none" stroke-width="1" fill="none" fill-rule="evenodd">
        <g id="Weather" transform="translate(-768.000000, -48.000000)" fill-rule="nonzero">
            <g id="sunset_fill" transform="translate(768.000000, 48.000000)">
                <rect id="矩形" x="0" y="0" width="24" height="24"></rect>
                <path d="M12,9.99988 C15.3137,9.99988 18,12.6862 18,15.9999 C18,16.9934455 17.7581818,17.9307099 17.3308189,18.7557956 L17.1971,18.9999 L20,18.9999 C20.5523,18.9999 21,19.4476 21,19.9999 C21,20.51275 20.613973,20.9354092 20.1166239,20.9931725 L20,20.9999 L4,20.9999 C3.44772,20.9999 3,20.5522 3,19.9999 C3,19.48705 3.38604429,19.0643908 3.88337975,19.0066275 L4,18.9999 L6.80311,18.9999 C6.29267,18.1176 6,17.0929 6,15.9999 C6,12.6862 8.68629,9.99988 12,9.99988 Z M21,14.9999 C21.5523,14.9999 22,15.4476 22,15.9999 C22,16.5522 21.5523,16.9999 21,16.9999 L20,16.9999 C19.4477,16.9999 19,16.5522 19,15.9999 C19,15.4476 19.4477,14.9999 20,14.9999 L21,14.9999 Z M4,14.9999 C4.55228,14.9999 5,15.4476 5,15.9999 C5,16.5522 4.55228,16.9999 4,16.9999 L3,16.9999 C2.44772,16.9999 2,16.5522 2,15.9999 C2,15.4476 2.44772,14.9999 3,14.9999 L4,14.9999 Z M4.92891,8.92876 C5.28939,8.56827077 5.85662503,8.54054083 6.2489135,8.84557018 L6.34312,8.92876 L7.05023,9.6358625 C7.44075,10.0264 7.44075,10.6596 7.05023,11.0501 C6.68974077,11.4105615 6.12251355,11.4382893 5.73022044,11.1332834 L5.6360125,11.0501 L4.92891,10.343 C4.53838,9.95245 4.53838,9.31928 4.92891,8.92876 Z M19.0711,8.92877 C19.4616,9.3193 19.4616,9.95246 19.0711,10.343 L18.364,11.0501 C17.9734,11.4406 17.3403,11.4406 16.9498,11.0501 C16.5592,10.6596 16.5592,10.0264 16.9498,9.63588 L17.6569,8.92877 C18.0474,8.53825 18.6805,8.53825 19.0711,8.92877 Z M12,1.87988 C12.5523,1.87988 13,2.3276 13,2.87988 L13,5.58566 L13.4142,5.17145 C13.8047,4.78093 14.4379,4.78093 14.8284,5.17145 C15.2189,5.56198 15.2189,6.19514 14.8284,6.58566 L12.7071,8.70698 C12.3166,9.09751 11.6834,9.09751 11.2929,8.70698 L9.17156,6.58566 C8.78103,6.19514 8.78103,5.56198 9.17156,5.17145 C9.56208,4.78093 10.1952,4.78093 10.5858,5.17145 L11,5.58566 L11,2.87988 C11,2.3276 11.4477,1.87988 12,1.87988 Z" id="形状" fill="#09244B"></path>
            </g>
        </g>
    </g>
</svg>