<?xml version="1.0" encoding="UTF-8"?>
<svg width="24px" height="24px" viewBox="0 0 24 24" version="1.1" xmlns="http://www.w3.org/2000/svg" xmlns:xlink="http://www.w3.org/1999/xlink">
    <title>sunset_line</title>
    <g id="页面-1" stroke="none" stroke-width="1" fill="none" fill-rule="evenodd">
        <g id="Weather" transform="translate(-768.000000, 0.000000)" fill-rule="nonzero">
            <g id="sunset_line" transform="translate(768.000000, 0.000000)">
                <rect id="矩形" x="0" y="0" width="24" height="24"></rect>
                <path d="M12,9.99988 C15.3137,9.99988 18,12.6862 18,15.9999 C18,17.0928 17.7074,18.1176 17.1971,18.9999 L20,18.9999 C20.5523,18.9999 21,19.4476 21,19.9999 C21,20.5522 20.5523,20.9999 20,20.9999 L4,20.9999 C3.44772,20.9999 3,20.5522 3,19.9999 C3,19.4476 3.44772,18.9999 4,18.9999 L6.80311,18.9999 C6.29267,18.1176 6,17.0929 6,15.9999 C6,12.6862 8.68629,9.99988 12,9.99988 Z M12,11.9999 C9.79086,11.9999 8,13.7907 8,15.9999 C8,17.1143 8.45513813,18.1222502 9.19232695,18.8486225 L9.35455,18.9999 L14.6459,18.9999 C15.4777,18.2657 16,17.1939 16,15.9999 C16,13.7907 14.2091,11.9999 12,11.9999 Z M21,14.9999 C21.5523,14.9999 22,15.4476 22,15.9999 C22,16.51275 21.613973,16.9354092 21.1166239,16.9931725 L21,16.9999 L20,16.9999 C19.4477,16.9999 19,16.5522 19,15.9999 C19,15.48705 19.386027,15.0643908 19.8833761,15.0066275 L20,14.9999 L21,14.9999 Z M4,14.9999 C4.55228,14.9999 5,15.4476 5,15.9999 C5,16.51275 4.61395571,16.9354092 4.11662025,16.9931725 L4,16.9999 L3,16.9999 C2.44772,16.9999 2,16.5522 2,15.9999 C2,15.48705 2.38604429,15.0643908 2.88337975,15.0066275 L3,14.9999 L4,14.9999 Z M6.34312,8.92876 L7.05023,9.6358625 C7.44075,10.0264 7.44075,10.6596 7.05023,11.0501 C6.6597,11.4406 6.02654,11.4406 5.6360125,11.0501 L4.92891,10.343 C4.53838,9.95245 4.53838,9.31928 4.92891,8.92876 C5.31943,8.53823 5.9526,8.53823 6.34312,8.92876 Z M17.6569,8.92877 C18.0474,8.53825 18.6805,8.53825 19.0711,8.92877 C19.4315615,9.28925923 19.4592893,9.85648645 19.1542834,10.2487894 L19.0711,10.343 L18.364,11.0501 C17.9734,11.4406 17.3403,11.4406 16.9498,11.0501 C16.5892462,10.6896385 16.5615112,10.1223793 16.8665953,9.730087 L16.9498,9.63588 L17.6569,8.92877 Z M12,1.87988 C12.51285,1.87988 12.9355092,2.26592429 12.9932725,2.76325975 L13,2.87988 L13,5.58566 L13.4142,5.17145 C13.8047,4.78093 14.4379,4.78093 14.8284,5.17145 C15.1888615,5.53193923 15.2165893,6.09916645 14.9115834,6.49145366 L14.8284,6.58566 L12.7071,8.70698 C12.3466385,9.06746923 11.7793793,9.09519917 11.3871027,8.79016982 L11.2929,8.70698 L9.17156,6.58566 C8.78103,6.19514 8.78103,5.56198 9.17156,5.17145 C9.53204,4.81097 10.0992324,4.78324077 10.4915773,5.08826231 L10.5858,5.17145 L11,5.58566 L11,2.87988 C11,2.3276 11.4477,1.87988 12,1.87988 Z" id="形状" fill="#09244B"></path>
            </g>
        </g>
    </g>
</svg>