<?xml version="1.0" encoding="UTF-8"?>
<svg width="24px" height="24px" viewBox="0 0 24 24" version="1.1" xmlns="http://www.w3.org/2000/svg" xmlns:xlink="http://www.w3.org/1999/xlink">
    <title>thunderstorm_line</title>
    <g id="Icon" stroke="none" stroke-width="1" fill="none" fill-rule="evenodd">
        <g id="Weather" transform="translate(-1.000000, -192.000000)" fill-rule="nonzero">
            <g id="thunderstorm_line" transform="translate(1.000000, 192.000000)">
                <path d="M24,0 L24,24 L0,24 L0,0 L24,0 Z M12.5935,23.2578 L12.5819,23.2595 L12.5109,23.295 L12.4919,23.2987 L12.4767,23.295 L12.4057,23.2595 C12.3958,23.2564 12.387,23.259 12.3821,23.2649 L12.378,23.2758 L12.3609,23.7031 L12.3659,23.7235 L12.3769,23.7357 L12.4805,23.8097 L12.4953,23.8136 L12.5071,23.8097 L12.6107,23.7357 L12.6233,23.7197 L12.6267,23.7031 L12.6096,23.2758 C12.6076,23.2657 12.601,23.2593 12.5935,23.2578 Z M12.8584,23.1453 L12.8445,23.1473 L12.6598,23.2397 L12.6499,23.2499 L12.6472,23.2611 L12.6651,23.6906 L12.6699,23.7034 L12.6784,23.7105 L12.8793,23.8032 C12.8914,23.8069 12.9022,23.803 12.9078,23.7952 L12.9118,23.7812 L12.8777,23.1665 C12.8753,23.1546 12.8674,23.147 12.8584,23.1453 Z M12.143,23.1473 C12.1332,23.1424 12.1222,23.1453 12.1156,23.1526 L12.1099,23.1665 L12.0758,23.7812 C12.0751,23.7927 12.0828,23.8019 12.0926,23.8046 L12.1083,23.8032 L12.3092,23.7105 L12.3186,23.7024 L12.3225,23.6906 L12.3404,23.2611 L12.3372,23.2485 L12.3278,23.2397 L12.143,23.1473 Z" id="MingCute"></path>
                <path d="M12.4961,12.6318 C12.9757,12.9058 13.1423,13.5166 12.8682,13.9961 L11.7232,16 L12.8277,16 C13.6723,16 14.2018,16.9124 13.7827,17.6458 L11.8682,20.9961 C11.5942,21.4757 10.9834,21.6423 10.5039,21.3682 C10.0243,21.0942 9.85775,20.4834 10.1318,20.0039 L11.2768,18 L10.1723,18 C9.32772,18 8.79821,17.0876 9.21725,16.3542 L11.1318,13.0039 C11.4058,12.5243 12.0166,12.3577 12.4961,12.6318 Z M14.9987,18.5006 C15.1416,17.9672 15.69,17.6506 16.2234,17.7935 C16.7569,17.9365 17.0735,18.4848 16.9305,19.0183 L16.6717,19.9842 C16.5288,20.5177 15.9804,20.8343 15.447,20.6913 C14.9135,20.5484 14.5969,20 14.7399,19.4666 L14.9987,18.5006 Z M5.21868,18.5006 C5.36162,17.9672 5.90996,17.6506 6.44342,17.7935 C6.97689,17.9365 7.29347,18.4848 7.15053,19.0183 L6.89171,19.9842 C6.74877,20.5177 6.20043,20.8343 5.66697,20.6913 C5.1335,20.5484 4.81692,20 4.95986,19.4666 L5.21868,18.5006 Z M17.2587,13.9298 C17.7922,14.0728 18.1087,14.6211 17.9658,15.1546 L17.707,16.1205 C17.564,16.654 17.0157,16.9705 16.4822,16.8276 C15.9488,16.6847 15.6322,16.1363 15.7751,15.6029 L16.034,14.6369 C16.1769,14.1035 16.7252,13.7869 17.2587,13.9298 Z M7.4787,13.9298 C8.01217,14.0728 8.32875,14.6211 8.18581,15.1546 L7.92699,16.1205 C7.78405,16.654 7.23571,16.9706 6.70224,16.8276 C6.16878,16.6847 5.85219,16.1363 5.99514,15.6029 L6.25395,14.6369 C6.3969,14.1035 6.94523,13.7869 7.4787,13.9298 Z M11.5,2 C14.2856,2 16.66,3.75154 17.5856,6.21198 C20.13,6.90766 22,9.23462 22,12 C22,13.3497 21.553,14.5978 20.7996,15.6007 C20.4678,16.0422 19.841,16.1312 19.3994,15.7995 C18.9579,15.4677 18.8689,14.8409 19.2006,14.3993 C19.7028,13.7309 20,12.9016 20,12 C20,10.0145 18.5524,8.36524 16.6552,8.05324 C16.2654,7.98914 15.9477,7.7033 15.8441,7.32051 C15.326,5.40663 13.576,4 11.5,4 C9.01472,4 7,6.01472 7,8.5 C7,8.66909 7.00928,8.83564 7.02729,8.99923 C7.08294,9.50471 6.75509,9.9678 6.26851,10.0896 C4.96468,10.4159 4,11.5965 4,13 C4,13.4698 4.10731673,13.9122694 4.29834764,14.3063749 L4.40073,14.4993 C4.67728,14.9773 4.51392,15.5891 4.03585,15.8656 C3.55779,16.1421 2.94607,15.9788 2.66952,15.5007 C2.24351,14.7643 2,13.9091 2,13 C2,10.9486 3.23468,9.18749 5.00053,8.41614 C5.04543,4.86494 7.93814,2 11.5,2 Z" id="形状" fill="#09244B"></path>
            </g>
        </g>
    </g>
</svg>