<?xml version="1.0" encoding="UTF-8"?>
<svg width="24px" height="24px" viewBox="0 0 24 24" version="1.1" xmlns="http://www.w3.org/2000/svg" xmlns:xlink="http://www.w3.org/1999/xlink">
    <title>tornado_line</title>
    <g id="Icon" stroke="none" stroke-width="1" fill="none" fill-rule="evenodd">
        <g id="Weather" transform="translate(-97.000000, -192.000000)">
            <g id="tornado_line" transform="translate(97.000000, 192.000000)">
                <path d="M24,0 L24,24 L0,24 L0,0 L24,0 Z M12.5935,23.2578 L12.5819,23.2595 L12.5109,23.295 L12.4919,23.2987 L12.4767,23.295 L12.4057,23.2595 C12.3958,23.2564 12.387,23.259 12.3821,23.2649 L12.378,23.2758 L12.3609,23.7031 L12.3659,23.7235 L12.3769,23.7357 L12.4805,23.8097 L12.4953,23.8136 L12.5071,23.8097 L12.6107,23.7357 L12.6233,23.7197 L12.6267,23.7031 L12.6096,23.2758 C12.6076,23.2657 12.601,23.2593 12.5935,23.2578 Z M12.8584,23.1453 L12.8445,23.1473 L12.6598,23.2397 L12.6499,23.2499 L12.6472,23.2611 L12.6651,23.6906 L12.6699,23.7034 L12.6784,23.7105 L12.8793,23.8032 C12.8914,23.8069 12.9022,23.803 12.9078,23.7952 L12.9118,23.7812 L12.8777,23.1665 C12.8753,23.1546 12.8674,23.147 12.8584,23.1453 Z M12.143,23.1473 C12.1332,23.1424 12.1222,23.1453 12.1156,23.1526 L12.1099,23.1665 L12.0758,23.7812 C12.0751,23.7927 12.0828,23.8019 12.0926,23.8046 L12.1083,23.8032 L12.3092,23.7105 L12.3186,23.7024 L12.3225,23.6906 L12.3404,23.2611 L12.3372,23.2485 L12.3278,23.2397 L12.143,23.1473 Z" id="MingCute" fill-rule="nonzero"></path>
                <path d="M12,3 C14.5917,3 16.9861,3.46489 18.7701,4.25776 C19.6608,4.65364 20.4435,5.15092 21.0171,5.75363 C21.5956,6.3615 22,7.12233 22,8 C22,9.36489 21.0596,10.4214 19.8496,11.1745 C19.9451,11.4302 20,11.7059 20,12 C20,12.8469 19.5465,13.5379 18.9773,14.0452 C18.6671,14.3216 18.2993,14.5664 17.8912,14.7807 C17.961,15.0069 18,15.2472 18,15.5 C18,16.5042 17.3947,17.2947 16.6681,17.8237 C16.1947,18.1683 15.6233,18.4412 14.995,18.6369 C14.9275,19.5553 14.1875,20.1456 13.5685,20.4551 C12.8595,20.8096 11.95,21 11,21 C10.05,21 9.14048,20.8096 8.43147,20.4551 C7.78227,20.1305 7,19.497 7,18.5 C7,17.927 7.27085,17.4641 7.59939,17.1317 C7.23735,16.6793 7,16.1337 7,15.5 C7,15.3936 7.00697,15.2892 7.0203,15.1869 C6.37135,14.9418 5.79038,14.6409 5.31584,14.2846 C4.60768,13.7529 4,12.985 4,12 C4,11.7059 4.05493,11.4302 4.15041,11.1745 C2.94044,10.4214 2,9.36489 2,8 C2,7.12233 2.40438,6.3615 2.98287,5.75363 C3.55645,5.15092 4.33918,4.65364 5.2299,4.25776 C7.01386,3.46489 9.40829,3 12,3 Z M9.27247,18.3615 C9.18132,18.4108 9.1117,18.4588 9.06166,18.5011 C9.11178,18.5434 9.19378,18.6002 9.32589,18.6662 C9.70267,18.8546 10.2932,19 11,19 C11.225,19 11.4381,18.9853 11.6364,18.9591 C10.7739,18.8767 9.96541,18.6714 9.27247,18.3615 Z M16,15.502 C14.8209,15.8218 13.4494,16 12,16 C10.9683,16 9.97822,15.9097 9.07016,15.7433 C9.16388,15.9209 9.37017,16.1511 9.7951,16.3888 C10.4345,16.7466 11.3894,17 12.5,17 C12.8823,17 13.2494,16.9699 13.5935,16.9146 C14.417,16.7823 15.0705,16.5129 15.491,16.2068 C15.9172,15.8965 15.9992,15.6377 16,15.502 Z M17.9952,12.0523 C16.319,12.6551 14.2323,13 12,13 C9.76777,13 7.68122,12.6551 6.00501,12.0524 C6.02628,12.1707 6.12679,12.3925 6.51674,12.6853 C6.96291,13.0203 7.6639,13.3449 8.58751,13.5888 C9.56253,13.8464 10.7323,14 12,14 C13.6015,14 15.0401,13.755 16.1262,13.3697 C16.8274,13.1209 17.334,12.8307 17.6467,12.552 C17.9057,12.3212 17.978,12.1513 17.9952,12.0523 Z M12,5 C9.62114,5 7.51558,5.43054 6.04218,6.08538 C5.30422,6.41337 4.76892,6.77801 4.43166,7.1324 C4.0993,7.48164 4,7.7731 4,8 C4,8.45314 4.45672,9.19753 5.99158,9.89193 C7.46652,10.5592 9.59292,11 12,11 C14.4071,11 16.5335,10.5592 18.0084,9.89193 C19.5433,9.19753 20,8.45314 20,8 C20,7.7731 19.9007,7.48164 19.5683,7.1324 C19.2311,6.77801 18.6958,6.41337 17.9578,6.08538 C16.4844,5.43054 14.3789,5 12,5 Z" id="形状" fill="#09244B"></path>
            </g>
        </g>
    </g>
</svg>