<?xml version="1.0" encoding="UTF-8"?>
<svg width="24px" height="24px" viewBox="0 0 24 24" version="1.1" xmlns="http://www.w3.org/2000/svg" xmlns:xlink="http://www.w3.org/1999/xlink">
    <title>tornado_2_line</title>
    <g id="Icon" stroke="none" stroke-width="1" fill="none" fill-rule="evenodd">
        <g id="Weather" transform="translate(-49.000000, -192.000000)">
            <g id="tornado_2_line" transform="translate(49.000000, 192.000000)">
                <path d="M24,0 L24,24 L0,24 L0,0 L24,0 Z M12.5935,23.2578 L12.5819,23.2595 L12.5109,23.295 L12.4919,23.2987 L12.4767,23.295 L12.4057,23.2595 C12.3958,23.2564 12.387,23.259 12.3821,23.2649 L12.378,23.2758 L12.3609,23.7031 L12.3659,23.7235 L12.3769,23.7357 L12.4805,23.8097 L12.4953,23.8136 L12.5071,23.8097 L12.6107,23.7357 L12.6233,23.7197 L12.6267,23.7031 L12.6096,23.2758 C12.6076,23.2657 12.601,23.2593 12.5935,23.2578 Z M12.8584,23.1453 L12.8445,23.1473 L12.6598,23.2397 L12.6499,23.2499 L12.6472,23.2611 L12.6651,23.6906 L12.6699,23.7034 L12.6784,23.7105 L12.8793,23.8032 C12.8914,23.8069 12.9022,23.803 12.9078,23.7952 L12.9118,23.7812 L12.8777,23.1665 C12.8753,23.1546 12.8674,23.147 12.8584,23.1453 Z M12.143,23.1473 C12.1332,23.1424 12.1222,23.1453 12.1156,23.1526 L12.1099,23.1665 L12.0758,23.7812 C12.0751,23.7927 12.0828,23.8019 12.0926,23.8046 L12.1083,23.8032 L12.3092,23.7105 L12.3186,23.7024 L12.3225,23.6906 L12.3404,23.2611 L12.3372,23.2485 L12.3278,23.2397 L12.143,23.1473 Z" id="MingCute" fill-rule="nonzero"></path>
                <path d="M3,4 C3,3.44772 3.44772,3 4,3 L20,3 C20.5523,3 21,3.44772 21,4 C21,4.55228 20.5523,5 20,5 L4,5 C3.44772,5 3,4.55228 3,4 Z M4,8 C4,7.44772 4.44772,7 5,7 L17,7 C17.5523,7 18,7.44772 18,8 C18,8.55228 17.5523,9 17,9 L5,9 C4.44772,9 4,8.55228 4,8 Z M8,12 C8,11.4477 8.44772,11 9,11 L19,11 C19.5523,11 20,11.4477 20,12 C20,12.5523 19.5523,13 19,13 L9,13 C8.44772,13 8,12.5523 8,12 Z M11,16 C11,15.4477 11.4477,15 12,15 L17,15 C17.5523,15 18,15.4477 18,16 C18,16.5523 17.5523,17 17,17 L12,17 C11.4477,17 11,16.5523 11,16 Z M10,20 C10,19.4477 10.4477,19 11,19 L14,19 C14.5523,19 15,19.4477 15,20 C15,20.5523 14.5523,21 14,21 L11,21 C10.4477,21 10,20.5523 10,20 Z" id="形状" fill="#09244B"></path>
            </g>
        </g>
    </g>
</svg>