<?xml version="1.0" encoding="UTF-8"?>
<svg width="24px" height="24px" viewBox="0 0 24 24" version="1.1" xmlns="http://www.w3.org/2000/svg" xmlns:xlink="http://www.w3.org/1999/xlink">
    <title>typhoon_fill</title>
    <g id="页面-1" stroke="none" stroke-width="1" fill="none" fill-rule="evenodd">
        <g id="Weather" transform="translate(-385.000000, -48.000000)">
            <g id="typhoon_fill" transform="translate(385.000000, 48.000000)">
                <rect id="矩形" fill-rule="nonzero" x="0" y="0" width="24" height="24"></rect>
                <path d="M20.0002,12 C20.0002,17.5228 15.523,22 10.0002,22 C7.60412,22 5.40099,21.1555 3.67828,19.7485 L2.69302,18.9438 C2.23833,18.5724 2.53249,17.8364 3.11788,17.8808 L4.38638,17.9769 C5.10667,18.0314 5.85021,17.987 6.54477,17.8512 C4.97998,16.3916 4.00018,14.3107 4.00018,12 C4.00018,6.47706 8.47804,2 14.0008,2 C16.3969,2 18.6,2.84447 20.3227,4.25151 L21.308,5.05624 C21.7626,5.42761 21.4685,6.16356 20.8831,6.11922 L19.6146,6.02315 C18.8943,5.96859 18.1507,6.01304 17.4561,6.14881 C19.0208,7.60847 20.0002,9.68943 20.0002,12 Z M12,15 C13.6569,15 15,13.6569 15,12 C15,10.3431 13.6569,9 12,9 C10.3431,9 9,10.3431 9,12 C9,13.6569 10.3431,15 12,15 Z" id="形状" fill="#09244B"></path>
            </g>
        </g>
    </g>
</svg>