<?xml version="1.0" encoding="UTF-8"?>
<svg width="24px" height="24px" viewBox="0 0 24 24" version="1.1" xmlns="http://www.w3.org/2000/svg" xmlns:xlink="http://www.w3.org/1999/xlink">
    <title>typhoon_line</title>
    <g id="页面-1" stroke="none" stroke-width="1" fill="none" fill-rule="evenodd">
        <g id="Weather" transform="translate(-384.000000, 0.000000)">
            <g id="typhoon_line" transform="translate(384.000000, 0.000000)">
                <rect id="矩形" fill-rule="nonzero" x="0" y="0" width="24" height="24"></rect>
                <path d="M14.0008,2 C16.3969,2 18.6,2.84447 20.3227,4.25151 L21.308,5.05624 C21.7626,5.42761 21.4685,6.16356 20.8831,6.11922 L19.6146,6.02315 C18.8943,5.96859 18.1507,6.01304 17.4561,6.14881 C19.0208,7.60847 20.0002,9.68943 20.0002,12 C20.0002,17.5228 15.523,22 10.0002,22 C7.60412,22 5.40099,21.1555 3.67828,19.7485 L2.69302,18.9438 C2.23833,18.5724 2.53249,17.8364 3.11788,17.8808 L4.38638,17.9769 C5.10667,18.0314 5.85021,17.987 6.54477,17.8512 C4.97998,16.3916 4.00018,14.3107 4.00018,12 C4.00018,6.47706 8.47804,2 14.0008,2 Z M14.0008,4 C9.58243,4 6.00018,7.58181 6.00018,12 C6.00018,14.3007 7.29477,16.3006 9.19992,17.3081 L9.91854,17.6881 C10.3587,17.9209 10.343,18.5638 9.89128,18.7733 C9.15956,19.1126 8.41903,19.4347 7.64205,19.6471 C8.38709,19.8765 9.17883,20 10.0002,20 C14.4185,20 18.0002,16.4183 18.0002,12 C18.0002,9.69917 16.7061,7.69936 14.8011,6.69195 L14.0824,6.31192 C13.6422,6.07914 13.6579,5.43618 14.1097,5.2267 C14.8414,4.8874 15.5819,4.56528 16.3589,4.35294 C15.6139,4.12351 14.8221,4 14.0008,4 Z M12,9 C13.6569,9 15,10.3431 15,12 C15,13.6569 13.6569,15 12,15 C10.3431,15 9,13.6569 9,12 C9,10.3431 10.3431,9 12,9 Z M12,11 C11.4477,11 11,11.4477 11,12 C11,12.5523 11.4477,13 12,13 C12.5523,13 13,12.5523 13,12 C13,11.4477 12.5523,11 12,11 Z" id="形状" fill="#09244B"></path>
            </g>
        </g>
    </g>
</svg>