<?xml version="1.0" encoding="UTF-8"?>
<svg width="24px" height="24px" viewBox="0 0 24 24" version="1.1" xmlns="http://www.w3.org/2000/svg" xmlns:xlink="http://www.w3.org/1999/xlink">
    <title>umbrella_line</title>
    <g id="页面-1" stroke="none" stroke-width="1" fill="none" fill-rule="evenodd">
        <g id="Weather" transform="translate(-672.000000, 0.000000)">
            <g id="umbrella_line" transform="translate(672.000000, 0.000000)">
                <rect id="矩形" fill-rule="nonzero" x="0" y="0" width="24" height="24"></rect>
                <path d="M12.9999,3 C12.9999,2.44772 12.5522,2 11.9999,2 C11.4476,2 10.9999,2.44772 10.9999,3 L10.9999,3.0557 C8.98088,3.28137 7.08637,4.18561 5.63594,5.63604 C4.01452,7.25746 3.07566,9.43384 3.00429,11.7188 C2.98172,12.4413 3.5678,13 4.2499,13 L10.9999,13 L10.9999,19 C10.9999,20.6569 12.343,22 13.9999,22 C15.6568,22 16.9999,20.6569 16.9999,19 L16.9999,18 C16.9999,17.4477 16.5522,17 15.9999,17 C15.4476,17 14.9999,17.4477 14.9999,18 L14.9999,19 C14.9999,19.5523 14.5522,20 13.9999,20 C13.4476,20 12.9999,19.5523 12.9999,19 L12.9999,13 L19.7499,13 C20.432,13 21.0181,12.4413 20.9955,11.7188 C20.9241,9.43384 19.9853,7.25747 18.3639,5.63604 C16.9134,4.18561 15.0189,3.28137 12.9999,3.0557 L12.9999,3 Z M18.9281,11 L5.07167,11 C5.28625,9.51322 5.97542,8.12499 7.05016,7.05025 C8.36291,5.7375 10.1434,5 11.9999,5 C13.8564,5 15.6369,5.7375 16.9497,7.05025 C18.0244,8.12499 18.7136,9.51322 18.9281,11 Z" id="形状" fill="#09244B"></path>
            </g>
        </g>
    </g>
</svg>