<svg xmlns="http://www.w3.org/2000/svg" width="24" height="24"><g fill="none"><path d="M24 0v24H0V0zM12.594 23.258l-.012.002-.071.035-.02.004-.014-.004-.071-.036c-.01-.003-.019 0-.024.006l-.004.01-.017.428.005.02.01.013.104.074.015.004.012-.004.104-.074.012-.016.004-.017-.017-.427c-.002-.01-.009-.017-.016-.018m.264-.113-.014.002-.184.093-.01.01-.003.011.018.43.005.012.008.008.201.092c.012.004.023 0 .029-.008l.004-.014-.034-.614c-.003-.012-.01-.02-.02-.022m-.715.002a.023.023 0 0 0-.027.006l-.006.014-.034.614c0 .012.007.02.017.024l.015-.002.201-.093.01-.008.003-.011.018-.43-.003-.012-.01-.01z"/><path fill="#09244B" d="M18.147 6.733a10.578 10.578 0 0 0-5.244.528l-.346.132a13.606 13.606 0 0 1-7.16.84c-1.038-.16-2.12-.418-3.068-.891a1.5 1.5 0 0 1 1.202-2.745l.132.058c.682.32 1.45.499 2.19.613 1.344.206 3.183.22 5.244-.529l.346-.132a13.606 13.606 0 0 1 7.16-.84c1.038.16 2.119.419 3.066.89a1.514 1.514 0 0 1 .672 2.014c-.369.738-1.122.907-2.005.674l-2.19-.612Zm0 6a10.578 10.578 0 0 0-5.244.528l-.346.132a13.606 13.606 0 0 1-7.16.84c-1.038-.16-2.12-.418-3.068-.891a1.5 1.5 0 0 1 1.202-2.745l.132.058c.682.32 1.45.499 2.19.613 1.344.206 3.183.22 5.244-.529l.346-.132a13.606 13.606 0 0 1 7.16-.84c1.038.16 2.119.419 3.066.89a1.514 1.514 0 0 1 .672 2.014c-.369.739-1.122.907-2.005.674l-2.19-.612Zm-5.954 6.8.364-.14a10.607 10.607 0 0 1 5.59-.66l2.19.612c.882.233 1.635.065 2.005-.674a1.514 1.514 0 0 0-.673-2.013c-.947-.472-2.028-.73-3.066-.89a13.583 13.583 0 0 0-6.797.7l-.363.14c-2.202.88-4.172.878-5.59.66-.634-.098-1.29-.243-1.893-.484l-.297-.13a1.5 1.5 0 0 0-1.334 2.688c.947.473 2.03.731 3.068.89 1.752.27 4.143.28 6.796-.7Z"/></g></svg>