<?xml version="1.0" encoding="UTF-8"?>
<svg width="24px" height="24px" viewBox="0 0 24 24" version="1.1" xmlns="http://www.w3.org/2000/svg" xmlns:xlink="http://www.w3.org/1999/xlink">
    <title>wind_line</title>
    <g id="页面-1" stroke="none" stroke-width="1" fill="none" fill-rule="evenodd">
        <g id="Weather" transform="translate(-432.000000, 0.000000)">
            <g id="wind_line" transform="translate(432.000000, 0.000000)">
                <rect id="矩形" fill-rule="nonzero" x="0" y="0" width="24" height="24"></rect>
                <path d="M10.5,4 C9.77548,4 9.16892,4.51468 9.03002,5.19893 C8.92015,5.74018 8.39232,6.08988 7.85108,5.98001 C7.30983,5.87015 6.96013,5.34231 7.07,4.80107 C7.39437,3.20308 8.80557,2 10.5,2 C12.433,2 14,3.567 14,5.5 C14,7.433 12.433,9 10.5,9 L5,9 C4.44772,9 4,8.55228 4,8 C4,7.44772 4.44772,7 5,7 L10.5,7 C11.3284,7 12,6.32843 12,5.5 C12,4.67157 11.3284,4 10.5,4 Z M18.5,8 C17.7755,8 17.1689,8.51468 17.03,9.19893 C16.9202,9.74018 16.3923,10.0899 15.8511,9.98001 C15.3098,9.87015 14.9601,9.34231 15.07,8.80107 C15.3944,7.20308 16.8056,6 18.5,6 C20.433,6 22,7.567 22,9.5 C22,11.433 20.433,13 18.5,13 L3,13 C2.44772,13 2,12.5523 2,12 C2,11.4477 2.44772,11 3,11 L18.5,11 C19.3284,11 20,10.3284 20,9.5 C20,8.67157 19.3284,8 18.5,8 Z M13.03,18.8011 C13.1689,19.4853 13.7755,20 14.5,20 C15.3284,20 16,19.3284 16,18.5 C16,17.6716 15.3284,17 14.5,17 L8,17 C7.44772,17 7,16.5523 7,16 C7,15.4477 7.44772,15 8,15 L14.5,15 C16.433,15 18,16.567 18,18.5 C18,20.433 16.433,22 14.5,22 C12.8056,22 11.3944,20.7969 11.07,19.1989 C10.9601,18.6577 11.3098,18.1299 11.8511,18.02 C12.3923,17.9101 12.9202,18.2598 13.03,18.8011 Z" id="形状" fill="#09244B"></path>
            </g>
        </g>
    </g>
</svg>