<?xml version="1.0" encoding="UTF-8"?>
<svg width="24px" height="24px" viewBox="0 0 24 24" version="1.1" xmlns="http://www.w3.org/2000/svg" xmlns:xlink="http://www.w3.org/1999/xlink">
    <title>wind_fill</title>
    <g id="页面-1" stroke="none" stroke-width="1" fill="none" fill-rule="evenodd">
        <g id="Weather" transform="translate(-433.000000, -48.000000)">
            <g id="wind_fill" transform="translate(433.000000, 48.000000)">
                <rect id="矩形" fill-rule="nonzero" x="0" y="0" width="24" height="24"></rect>
                <path d="M10.5,4.5 C10.0923,4.5 9.73823,4.74424 9.58255,5.10056 C9.25087,5.85969 8.3666,6.20621 7.60746,5.87453 C6.84833,5.54285 6.50181,4.65857 6.83349,3.89944 C7.44937,2.48986 8.85741,1.5 10.5,1.5 C12.7091,1.5 14.5,3.29086 14.5,5.5 C14.5,7.70914 12.7091,9.5 10.5,9.5 L5,9.5 C4.17157,9.5 3.5,8.82843 3.5,8 C3.5,7.17157 4.17157,6.5 5,6.5 L10.5,6.5 C11.0523,6.5 11.5,6.05228 11.5,5.5 C11.5,4.94772 11.0523,4.5 10.5,4.5 Z M18.5,8.5 C18.0923,8.5 17.7382,8.74424 17.5826,9.10056 C17.2509,9.85969 16.3666,10.2062 15.6075,9.87453 C14.8483,9.54285 14.5018,8.65857 14.8335,7.89944 C15.4494,6.48986 16.8574,5.5 18.5,5.5 C20.7091,5.5 22.5,7.29086 22.5,9.5 C22.5,11.7091 20.7091,13.5 18.5,13.5 L3,13.5 C2.17157,13.5 1.5,12.8284 1.5,12 C1.5,11.1716 2.17157,10.5 3,10.5 L18.5,10.5 C19.0523,10.5 19.5,10.0523 19.5,9.5 C19.5,8.94772 19.0523,8.5 18.5,8.5 Z M13.5826,18.8994 C13.7382,19.2558 14.0923,19.5 14.5,19.5 C15.0523,19.5 15.5,19.0523 15.5,18.5 C15.5,17.9477 15.0523,17.5 14.5,17.5 L8,17.5 C7.17157,17.5 6.5,16.8284 6.5,16 C6.5,15.1716 7.17157,14.5 8,14.5 L14.5,14.5 C16.7091,14.5 18.5,16.2909 18.5,18.5 C18.5,20.7091 16.7091,22.5 14.5,22.5 C12.8574,22.5 11.4494,21.5101 10.8335,20.1006 C10.5018,19.3414 10.8483,18.4571 11.6075,18.1255 C12.3666,17.7938 13.2509,18.1403 13.5826,18.8994 Z" id="形状" fill="#09244B"></path>
            </g>
        </g>
    </g>
</svg>