<?xml version="1.0" encoding="UTF-8"?>
<svg width="24px" height="24px" viewBox="0 0 24 24" version="1.1" xmlns="http://www.w3.org/2000/svg" xmlns:xlink="http://www.w3.org/1999/xlink">
    <title>balloon_2_fill</title>
    <g id="Icon" stroke="none" stroke-width="1" fill="none" fill-rule="evenodd">
        <g id="Business" transform="translate(-48.000000, -528.000000)">
            <g id="balloon_2_fill" transform="translate(48.000000, 528.000000)">
                <path d="M24,0 L24,24 L0,24 L0,0 L24,0 Z M12.5935,23.2578 L12.5819,23.2595 L12.5109,23.295 L12.4919,23.2987 L12.4767,23.295 L12.4057,23.2595 C12.3958,23.2564 12.387,23.259 12.3821,23.2649 L12.378,23.2758 L12.3609,23.7031 L12.3659,23.7235 L12.3769,23.7357 L12.4805,23.8097 L12.4953,23.8136 L12.5071,23.8097 L12.6107,23.7357 L12.6233,23.7197 L12.6267,23.7031 L12.6096,23.2758 C12.6076,23.2657 12.601,23.2593 12.5935,23.2578 Z M12.8584,23.1453 L12.8445,23.1473 L12.6598,23.2397 L12.6499,23.2499 L12.6472,23.2611 L12.6651,23.6906 L12.6699,23.7034 L12.6784,23.7105 L12.8793,23.8032 C12.8914,23.8069 12.9022,23.803 12.9078,23.7952 L12.9118,23.7812 L12.8777,23.1665 C12.8753,23.1546 12.8674,23.147 12.8584,23.1453 Z M12.143,23.1473 C12.1332,23.1424 12.1222,23.1453 12.1156,23.1526 L12.1099,23.1665 L12.0758,23.7812 C12.0751,23.7927 12.0828,23.8019 12.0926,23.8046 L12.1083,23.8032 L12.3092,23.7105 L12.3186,23.7024 L12.3225,23.6906 L12.3404,23.2611 L12.3372,23.2485 L12.3278,23.2397 L12.143,23.1473 Z" id="MingCute" fill-rule="nonzero"></path>
                <path d="M4,10.0588 C4,5.65929 7.57022,2 12,2 C16.4298,2 20,5.65929 20,10.0588 C20,12.5641 18.8819,15.016 17.3989,16.8282 C16.3187,18.1481 14.9306,19.2613 13.4898,19.7435 L13.8944,20.5528 C14.0494,20.8628 14.0329,21.2309 13.8507,21.5257 C13.6684,21.8205 13.3466,22 13,22 L11,22 C10.6534,22 10.3316,21.8205 10.1493,21.5257 C9.96714,21.2309 9.95058,20.8628 10.1056,20.5528 L10.5102,19.7435 C9.06937,19.2613 7.68134,18.1481 6.60112,16.8282 C5.11806,15.016 4,12.5641 4,10.0588 Z M12.0395,5.86359 C12.1931,5.3331 12.7476,5.02757 13.2781,5.18118 C14.9319,5.66003 16.1988,7.02074 16.7264,8.70028 C16.892,9.22717 16.599,9.78849 16.0721,9.95403 C15.5452,10.1196 14.9839,9.82662 14.8184,9.29972 C14.4656,8.17668 13.6531,7.37191 12.7219,7.10227 C12.1914,6.94866 11.8858,6.39409 12.0395,5.86359 Z" id="形状" fill="#09244B"></path>
            </g>
        </g>
    </g>
</svg>