<svg xmlns="http://www.w3.org/2000/svg" width="24" height="24"><g fill="none"><path d="M24 0v24H0V0zM12.594 23.258l-.012.002-.071.035-.02.004-.014-.004-.071-.036c-.01-.003-.019 0-.024.006l-.004.01-.017.428.005.02.01.013.104.074.015.004.012-.004.104-.074.012-.016.004-.017-.017-.427c-.002-.01-.009-.017-.016-.018m.264-.113-.014.002-.184.093-.01.01-.003.011.018.43.005.012.008.008.201.092c.012.004.023 0 .029-.008l.004-.014-.034-.614c-.003-.012-.01-.02-.02-.022m-.715.002a.023.023 0 0 0-.027.006l-.006.014-.034.614c0 .012.007.02.017.024l.015-.002.201-.093.01-.008.003-.011.018-.43-.003-.012-.01-.01z"/><path fill="#09244B" d="M16.75 1.272a1 1 0 0 1 1 1v1a1 1 0 1 1-2 0v-1a1 1 0 0 1 1-1m-3.897 2.25a1 1 0 0 1 1.366-.366l.866.5a1 1 0 0 1-1 1.732l-.866-.5a1 1 0 0 1-.366-1.366m7.428 1.366a1 1 0 1 0-1-1.732l-.866.5a1 1 0 1 0 1 1.732zM15.41 6.096a1 1 0 0 1 1.784.895l-.052.105-.275.476.866.5a1 1 0 0 1 .497.94l-.017.126-.121.59c1.874 2.426 2.274 5.783.676 8.55-2.142 3.71-6.98 4.837-10.767 2.65-3.788-2.187-5.231-6.94-3.089-10.65 1.55-2.684 4.518-4.018 7.466-3.721l.277.032.45-.4a1 1 0 0 1 1.05-.174l.114.057.866.5zM11.502 9.53a3.963 3.963 0 0 0-3.432 1.982 1 1 0 0 0 1.668 1.098l.064-.098c.335-.58.922-.926 1.546-.976l.156-.006a1 1 0 0 0-.002-2m7.913-3.375.866.5a1 1 0 1 1-1 1.732l-.866-.5a1 1 0 1 1 1-1.732"/></g></svg>