<?xml version="1.0" encoding="UTF-8"?>
<svg width="24px" height="24px" viewBox="0 0 24 24" version="1.1" xmlns="http://www.w3.org/2000/svg" xmlns:xlink="http://www.w3.org/1999/xlink">
    <title>capsule_line</title>
    <g id="Icon" stroke="none" stroke-width="1" fill="none" fill-rule="evenodd">
        <g id="Other" transform="translate(-194.000000, -96.000000)">
            <g id="capsule_line" transform="translate(194.000000, 96.000000)">
                <path d="M24,0 L24,24 L0,24 L0,0 L24,0 Z M12.5935,23.2578 L12.5819,23.2595 L12.5109,23.295 L12.4919,23.2987 L12.4767,23.295 L12.4057,23.2595 C12.3958,23.2564 12.387,23.259 12.3821,23.2649 L12.378,23.2758 L12.3609,23.7031 L12.3659,23.7235 L12.3769,23.7357 L12.4805,23.8097 L12.4953,23.8136 L12.5071,23.8097 L12.6107,23.7357 L12.6233,23.7197 L12.6267,23.7031 L12.6096,23.2758 C12.6076,23.2657 12.601,23.2593 12.5935,23.2578 Z M12.8584,23.1453 L12.8445,23.1473 L12.6598,23.2397 L12.6499,23.2499 L12.6472,23.2611 L12.6651,23.6906 L12.6699,23.7034 L12.6784,23.7105 L12.8793,23.8032 C12.8914,23.8069 12.9022,23.803 12.9078,23.7952 L12.9118,23.7812 L12.8777,23.1665 C12.8753,23.1546 12.8674,23.147 12.8584,23.1453 Z M12.143,23.1473 C12.1332,23.1424 12.1222,23.1453 12.1156,23.1526 L12.1099,23.1665 L12.0758,23.7812 C12.0751,23.7927 12.0828,23.8019 12.0926,23.8046 L12.1083,23.8032 L12.3092,23.7105 L12.3186,23.7024 L12.3225,23.6906 L12.3404,23.2611 L12.3372,23.2485 L12.3278,23.2397 L12.143,23.1473 Z" id="MingCute" fill-rule="nonzero"></path>
                <path d="M12.707,4.2222 C10.3639,1.87906 6.56486,1.87906 4.22171,4.2222 C1.87857,6.56535 1.87857,10.3643 4.22171,12.7075 L11.2928,19.7786 C13.6359,22.1217 17.4349,22.1217 19.7781,19.7786 C22.1212,17.4354 22.1212,13.6364 19.7781,11.2933 L18.364,9.87894 C18.3532,9.86813 18.3423,9.85736 18.3314,9.84664 L12.707,4.2222 Z M13.7872,8.13084 L11.2928,5.63642 C9.73069,4.07432 7.19802,4.07432 5.63593,5.63642 C4.07383,7.19851 4.07383,9.73117 5.63593,11.2933 L8.13057,13.7879 C8.20931,12.3654 8.79202,10.9656 9.8787,9.87894 C10.9653,8.79238 12.3649,8.20968 13.7872,8.13084 Z M12.707,18.3643 C14.2691,19.9264 16.8018,19.9264 18.3639,18.3643 C19.9259,16.8022 19.9259,14.2696 18.3639,12.7075 L16.9231,11.2667 C15.359,9.73111 12.8461,9.73992 11.2929,11.2932 C9.73081,12.8553 9.73081,15.3879 11.2929,16.95 L12.707,18.3643 Z" id="形状" fill="#09244B"></path>
            </g>
        </g>
    </g>
</svg>