<svg xmlns="http://www.w3.org/2000/svg" width="24" height="24"><g fill="none" fill-rule="evenodd"><path d="M24 0v24H0V0zM12.594 23.258l-.012.002-.071.035-.02.004-.014-.004-.071-.036c-.01-.003-.019 0-.024.006l-.004.01-.017.428.005.02.01.013.104.074.015.004.012-.004.104-.074.012-.016.004-.017-.017-.427c-.002-.01-.009-.017-.016-.018m.264-.113-.014.002-.184.093-.01.01-.003.011.018.43.005.012.008.008.201.092c.012.004.023 0 .029-.008l.004-.014-.034-.614c-.003-.012-.01-.02-.02-.022m-.715.002a.023.023 0 0 0-.027.006l-.006.014-.034.614c0 .012.007.02.017.024l.015-.002.201-.093.01-.008.003-.011.018-.43-.003-.012-.01-.01z"/><path fill="#09244B" d="M11 7.5a1 1 0 1 1 1.389.922c-.572.242-1.42.804-1.75 1.746l-8.463 6.77C.7 18.12 1.535 20.5 3.426 20.5h17.149c1.89 0 2.725-2.38 1.249-3.562L14.2 10.84A4 4 0 1 0 8 7.5a1.5 1.5 0 1 0 3 0m1 5.42 5.724 4.58H6.276z"/></g></svg>