<?xml version="1.0" encoding="UTF-8"?>
<svg width="24px" height="24px" viewBox="0 0 24 24" version="1.1" xmlns="http://www.w3.org/2000/svg" xmlns:xlink="http://www.w3.org/1999/xlink">
    <title>coathanger_fill</title>
    <g id="Icon" stroke="none" stroke-width="1" fill="none" fill-rule="evenodd">
        <g id="Business" transform="translate(-528.000000, -528.000000)">
            <g id="coathanger_fill" transform="translate(528.000000, 528.000000)">
                <path d="M24,0 L24,24 L0,24 L0,0 L24,0 Z M12.5935,23.2578 L12.5819,23.2595 L12.5109,23.295 L12.4919,23.2987 L12.4767,23.295 L12.4057,23.2595 C12.3958,23.2564 12.387,23.259 12.3821,23.2649 L12.378,23.2758 L12.3609,23.7031 L12.3659,23.7235 L12.3769,23.7357 L12.4805,23.8097 L12.4953,23.8136 L12.5071,23.8097 L12.6107,23.7357 L12.6233,23.7197 L12.6267,23.7031 L12.6096,23.2758 C12.6076,23.2657 12.601,23.2593 12.5935,23.2578 Z M12.8584,23.1453 L12.8445,23.1473 L12.6598,23.2397 L12.6499,23.2499 L12.6472,23.2611 L12.6651,23.6906 L12.6699,23.7034 L12.6784,23.7105 L12.8793,23.8032 C12.8914,23.8069 12.9022,23.803 12.9078,23.7952 L12.9118,23.7812 L12.8777,23.1665 C12.8753,23.1546 12.8674,23.147 12.8584,23.1453 Z M12.143,23.1473 C12.1332,23.1424 12.1222,23.1453 12.1156,23.1526 L12.1099,23.1665 L12.0758,23.7812 C12.0751,23.7927 12.0828,23.8019 12.0926,23.8046 L12.1083,23.8032 L12.3092,23.7105 L12.3186,23.7024 L12.3225,23.6906 L12.3404,23.2611 L12.3372,23.2485 L12.3278,23.2397 L12.143,23.1473 Z" id="MingCute" fill-rule="nonzero"></path>
                <path d="M10.9999,7.5 C10.9999,6.94772 11.4477,6.5 11.9999,6.5 C12.5522,6.5 12.9999,6.94772 12.9999,7.5 C12.9999,7.91177 12.7508,8.26879 12.389,8.42193 C11.8166,8.66419 10.9695,9.22607 10.6391,10.1678 L2.17595,16.9383 C0.699675,18.1193 1.53478,20.5 3.42534,20.5 L20.5746,20.5 C22.4651,20.5 23.3002,18.1193 21.8239,16.9383 L14.2011,10.84 C15.2834,10.1254 15.9999,8.89763 15.9999,7.5 C15.9999,5.29086 14.2091,3.5 11.9999,3.5 C9.79081,3.5 7.99995,5.29086 7.99995,7.5 C7.99995,8.32843 8.67152,9 9.49995,9 C10.3284,9 10.9999,8.32843 10.9999,7.5 Z M11.9999,12.9209 L17.7238,17.5 L6.27612,17.5 L11.9999,12.9209 Z" id="形状" fill="#09244B"></path>
            </g>
        </g>
    </g>
</svg>