<?xml version="1.0" encoding="UTF-8"?>
<svg width="24px" height="24px" viewBox="0 0 24 24" version="1.1" xmlns="http://www.w3.org/2000/svg" xmlns:xlink="http://www.w3.org/1999/xlink">
    <title>firework_fill</title>
    <g id="Icon" stroke="none" stroke-width="1" fill="none" fill-rule="evenodd">
        <g id="Business" transform="translate(-337.000000, -528.000000)" fill-rule="nonzero">
            <g id="firework_fill" transform="translate(337.000000, 528.000000)">
                <path d="M24,0 L24,24 L0,24 L0,0 L24,0 Z M12.5935,23.2578 L12.5819,23.2595 L12.5109,23.295 L12.4919,23.2987 L12.4767,23.295 L12.4057,23.2595 C12.3958,23.2564 12.387,23.259 12.3821,23.2649 L12.378,23.2758 L12.3609,23.7031 L12.3659,23.7235 L12.3769,23.7357 L12.4805,23.8097 L12.4953,23.8136 L12.5071,23.8097 L12.6107,23.7357 L12.6233,23.7197 L12.6267,23.7031 L12.6096,23.2758 C12.6076,23.2657 12.601,23.2593 12.5935,23.2578 Z M12.8584,23.1453 L12.8445,23.1473 L12.6598,23.2397 L12.6499,23.2499 L12.6472,23.2611 L12.6651,23.6906 L12.6699,23.7034 L12.6784,23.7105 L12.8793,23.8032 C12.8914,23.8069 12.9022,23.803 12.9078,23.7952 L12.9118,23.7812 L12.8777,23.1665 C12.8753,23.1546 12.8674,23.147 12.8584,23.1453 Z M12.143,23.1473 C12.1332,23.1424 12.1222,23.1453 12.1156,23.1526 L12.1099,23.1665 L12.0758,23.7812 C12.0751,23.7927 12.0828,23.8019 12.0926,23.8046 L12.1083,23.8032 L12.3092,23.7105 L12.3186,23.7024 L12.3225,23.6906 L12.3404,23.2611 L12.3372,23.2485 L12.3278,23.2397 L12.143,23.1473 Z" id="MingCute"></path>
                <path d="M13.7422,16.2015 C13.5152091,15.5957455 14.2630651,15.1304913 14.7061183,15.5444954 L14.7672,15.6097 L17.6164,19.0706 C18.1454,19.7133 17.9708,20.6772 17.2499,21.0934 C16.56905,21.4864778 15.7087346,21.2133392 15.3691741,20.52511 L15.3148,20.3994 L13.7422,16.2015 Z M14.3838986,12.7163662 L14.4694,12.7423 L18.6672,14.3149 C19.4468,14.607 19.7775,15.5291 19.3613,16.25 C18.9695824,16.9284941 18.0926163,17.1230685 17.454976,16.7025812 L17.3384,16.6165 L13.8776,13.7674 C13.3780864,13.3561818 13.7931921,12.5793163 14.3838986,12.7163662 Z M22.4999,12.0002 C22.4999,12.7887895 21.8291033,13.3985956 21.0602517,13.3442843 L20.9313,13.329 L16.5096,12.592 C15.8782389,12.4867889 15.8431633,11.623934 16.4043731,11.4344559 L16.5096,11.4083 L20.9313,10.6714 C21.7525,10.5345 22.4999,11.1677 22.4999,12.0002 Z M19.3612,7.75 C19.7542778,8.43085944 19.4811392,9.29119324 18.7928258,9.63070513 L18.6671,9.68507 L14.4693,11.2577 C13.8635455,11.4846909 13.3982002,10.7368349 13.812196,10.2936947 L13.8774,10.2326 L17.3383,7.38352 C17.981,6.85444 18.945,7.02908 19.3612,7.75 Z M17.25,2.90683 C17.9284941,3.29856647 18.1230685,4.17548052 17.7025812,4.81309788 L17.6165,4.92967 L14.7674,8.39056 C14.3561818,8.88999727 13.5793163,8.47494269 13.7163662,7.88422365 L13.7423,7.79872 L15.3149,3.60087 C15.607,2.82134 16.5291,2.49061 17.25,2.90683 Z M9.23258,15.6096 C9.64372182,15.1101818 10.4205838,15.5252008 10.2836208,16.1159862 L10.2577,16.2015 L8.68501,20.3993 C8.39297,21.1788 7.47086,21.5096 6.74994,21.0934 C6.07142706,20.7015882 5.87682498,19.8247052 6.29737585,19.1870751 L6.38347,19.0705 L9.23258,15.6096 Z M10.1877046,13.7063053 L10.1225,13.7674 L6.66161,16.6165 C6.01892,17.1456 5.05499,16.9709 4.63877,16.25 C4.24566389,15.56915 4.51882765,14.7088346 5.20709344,14.3692741 L5.33281,14.3149 L9.53066,12.7423 C10.1364527,12.5153091 10.6017086,13.2631651 10.1877046,13.7063053 Z M2.93965118,10.6560157 L3.06859,10.6713 L7.49036,11.4083 C8.12170222,11.5135111 8.15677679,12.376366 7.5955837,12.5658441 L7.49036,12.592 L3.06859,13.3289 C2.24748,13.4658 1.5,12.8326 1.5,12.0001 C1.5,11.2115105 2.17086848,10.6017044 2.93965118,10.6560157 Z M6.54508788,7.29743595 L6.66166,7.38353 L10.1225,10.2326 C10.6220136,10.6438182 10.2069079,11.4206837 9.6162101,11.2836338 L9.53071,11.2577 L5.33286,9.68507 C4.55333,9.39303 4.2226,8.47092 4.63882,7.75 C5.03055647,7.07149647 5.90747052,6.87688609 6.54508788,7.29743595 Z M8.63070513,3.47516344 L8.68507,3.60088 L10.2577,7.79872 C10.4846909,8.40451273 9.73678936,8.86977771 9.29371456,8.4557658 L9.23263,8.39056 L6.38352,4.92967 C5.85445,4.28699 6.02908,3.32305 6.75,2.90683 C7.43085944,2.51373333 8.29119324,2.78689762 8.63070513,3.47516344 Z M12,3.5 C11.1676,3.5 10.5344,4.24748 10.6712,5.06859 L11.4082,9.49036 C11.5196,10.1588 12.4805,10.1588 12.5919,9.49036 L13.3288,5.06859 C13.4657,4.24748 12.8325,3.5 12,3.5 Z M12.5919,14.5096 C12.4805,13.8412 11.5196,13.8412 11.4082,14.5096 L10.6712,18.9314 C10.5344,19.7525 11.1676,20.5 12,20.5 C12.8325,20.5 13.4657,19.7525 13.3288,18.9314 L12.5919,14.5096 Z" id="形状" fill="#09244B"></path>
            </g>
        </g>
    </g>
</svg>