<?xml version="1.0" encoding="UTF-8"?>
<svg width="24px" height="24px" viewBox="0 0 24 24" version="1.1" xmlns="http://www.w3.org/2000/svg" xmlns:xlink="http://www.w3.org/1999/xlink">
    <title>kite_line</title>
    <g id="Icon" stroke="none" stroke-width="1" fill="none" fill-rule="evenodd">
        <g id="Other" transform="translate(-386.000000, -96.000000)">
            <g id="kite_line" transform="translate(386.000000, 96.000000)">
                <path d="M24,0 L24,24 L0,24 L0,0 L24,0 Z M12.5935,23.2578 L12.5819,23.2595 L12.5109,23.295 L12.4919,23.2987 L12.4767,23.295 L12.4057,23.2595 C12.3958,23.2564 12.387,23.259 12.3821,23.2649 L12.378,23.2758 L12.3609,23.7031 L12.3659,23.7235 L12.3769,23.7357 L12.4805,23.8097 L12.4953,23.8136 L12.5071,23.8097 L12.6107,23.7357 L12.6233,23.7197 L12.6267,23.7031 L12.6096,23.2758 C12.6076,23.2657 12.601,23.2593 12.5935,23.2578 Z M12.8584,23.1453 L12.8445,23.1473 L12.6598,23.2397 L12.6499,23.2499 L12.6472,23.2611 L12.6651,23.6906 L12.6699,23.7034 L12.6784,23.7105 L12.8793,23.8032 C12.8914,23.8069 12.9022,23.803 12.9078,23.7952 L12.9118,23.7812 L12.8777,23.1665 C12.8753,23.1546 12.8674,23.147 12.8584,23.1453 Z M12.143,23.1473 C12.1332,23.1424 12.1222,23.1453 12.1156,23.1526 L12.1099,23.1665 L12.0758,23.7812 C12.0751,23.7927 12.0828,23.8019 12.0926,23.8046 L12.1083,23.8032 L12.3092,23.7105 L12.3186,23.7024 L12.3225,23.6906 L12.3404,23.2611 L12.3372,23.2485 L12.3278,23.2397 L12.143,23.1473 Z" id="MingCute" fill-rule="nonzero"></path>
                <path d="M9.00000206,2 C9.2427,2 9.46521,2.08646 9.6384,2.23027 L9.70121375,2.28660125 L9.70121375,2.28660125 L9.86650289,2.46213526 L9.86650289,2.46213526 L10.0253545,2.61825913 L10.0253545,2.61825913 L10.1705539,2.75301043 L10.1705539,2.75301043 L10.4471365,2.99392954 C10.4817799,3.02298402 10.517726,3.05274031 10.5549734,3.08313832 L10.7940624,3.27274619 C10.8365094,3.30547069 10.8802551,3.33871672 10.9252979,3.3724242 L11.2111102,3.57972565 C11.3115625,3.65035142 11.4171925,3.72234224 11.5279894,3.79521737 L11.87587,4.016015 L11.87587,4.016015 L12.2546863,4.23923418 C13.6346042,5.02137393 15.5817609,5.79500957 18.0835,6.00364 C18.4485,6.03364 18.7685,6.26264 18.9165,6.59864 C19.0635,6.93464 19.0145,7.32464 18.7895,7.61364 C17.4703659,9.30946636 16.7622537,11.6609477 16.3864767,13.8559699 L16.2879143,14.4781602 C16.2429139,14.7864251 16.2041542,15.0899186 16.1708226,15.3862728 L16.1111564,15.9687609 L16.1111564,15.9687609 L16.0645209,16.528002 L16.0645209,16.528002 L16.0294718,17.0597868 L16.0294718,17.0597868 L16.0045644,17.5599063 L16.0045644,17.5599063 L15.9883545,18.0241511 L15.9883545,18.0241511 L15.9793975,18.4483121 L15.9793975,18.4483121 L15.9764017,19.0001888 L15.9764017,19.0001888 L15.9816,19.4382 L15.9816,19.4382 C16.0674,19.4899 16.1559,19.5353 16.2464,19.5715 C16.4315,19.6456 16.5849,19.6631 16.7193,19.6398 C16.8282429,19.6208571 16.9867776,19.5645184 17.1884808,19.3902402 L17.2929,19.2929 C18.1234,18.4624 19.0725,18.237 19.9232,18.3755 C20.7118,18.5039 21.344,18.9297 21.7071,19.2929 C22.0976,19.6834 22.0976,20.3166 21.7071,20.7071 C21.3166,21.0976 20.6834,21.0976 20.2929,20.7071 C20.156,20.5702 19.8882,20.3961 19.6018,20.3495 C19.39993,20.31665 19.136014,20.333291 18.815884,20.6063132 L18.7071,20.7071 C18.209,21.2052 17.6536,21.5073 17.062,21.6102 C16.4776,21.7118 15.9435,21.6044 15.5036,21.4285 C15.1698,21.2949 14.8688,21.1123 14.6123,20.9258 L14.2569779,20.8012666 L14.2569779,20.8012666 L13.6757594,20.5761637 L13.6757594,20.5761637 L13.2319775,20.3897775 L13.2319775,20.3897775 L12.9008066,20.2431568 L12.9008066,20.2431568 L12.5437843,20.0780981 L12.5437843,20.0780981 L12.1629688,19.8941317 L12.1629688,19.8941317 L11.7604185,19.6907883 L11.7604185,19.6907883 L11.3381918,19.4675986 L11.3381918,19.4675986 L10.8983471,19.2240931 L10.8983471,19.2240931 L10.4429428,18.9598023 L10.4429428,18.9598023 L9.97403722,18.6742569 C9.89487554,18.6248687 9.81523707,18.5745754 9.7351647,18.5233671 L9.24986667,18.2050596 C9.0049573,18.0403379 8.75691468,17.8672057 8.50689666,17.6853989 L8.0045698,17.3101409 C5.98747138,15.7622186 3.89334803,13.6478561 2.31501265,10.8318632 L2.10603,10.4485 C2.04386,10.3245 2.00987,10.1931 2.00186,10.0621 C1.97932,9.69311 2.16276,9.32634 2.50349,9.13164 C3.84490143,8.36559857 5.04178571,7.09449735 5.98139936,5.87270458 L6.28492071,5.46802701 C6.33386796,5.40113861 6.3819825,5.3345925 6.429245,5.26848375 L6.70244086,4.87783997 L6.70244086,4.87783997 L6.9542598,4.50225541 L6.9542598,4.50225541 L7.18377391,4.1462928 L7.18377391,4.1462928 L7.39005524,3.81451481 L7.39005524,3.81451481 L7.57217588,3.51148417 L7.57217588,3.51148417 L7.79802568,3.12082037 L7.79802568,3.12082037 L8.04049283,2.67808899 L8.04049283,2.67808899 L8.1005,2.56257 C8.11336,2.53616 8.12735,2.51041 8.14241,2.48537 C8.21161,2.37001 8.30254,2.27123 8.40868,2.19348 C8.5743,2.07185 8.77876,2 9.00000206,2 Z M9.42353,11.7441 C8.48291,11.9043 7.62304,11.9565 6.85001,11.9372 C6.29285,11.9233 5.78461,11.8722 5.32768,11.7993 C7.34731,14.4972 9.87661,16.3207 11.8826,17.4636 C11.3408,16.4978 10.7796,15.3466 10.2604,14.0623 C9.9669,13.3363 9.684,12.5609 9.42353,11.7441 Z M15.5049,9.47439 C14.0224,10.3142 12.6422,10.8941 11.375,11.2796 C11.606,11.992 11.8555,12.6717 12.1146,13.3127 C12.7508,14.8863 13.4306,16.1912 14.0167,17.1518 C14.1253,15.037 14.4773,12.1003 15.5049,9.47439 Z M8.20164,6.2277 C7.6561,7.00545 6.99345,7.85563 6.23467,8.65202 C5.8797,9.02459 5.50368,9.38539 5.10878,9.72149 C5.59865,9.83244 6.1979,9.92026 6.89999,9.93781 C7.48182,9.95236 8.14051,9.91876 8.87216,9.80715 C8.58667,8.66803 8.35447,7.46903 8.20164,6.2277 Z M10.1079,5.2586 C10.2421,6.68287 10.4942,8.05936 10.8213,9.35746 C12.0536,8.98009 13.4329,8.38662 14.9472,7.48571 C14.6271,7.40044 14.3185,7.30779 14.0215,7.20924 C12.3564,6.65691 11.0527,5.91937 10.1079,5.2586 Z" id="形状" fill="#09244B"></path>
            </g>
        </g>
    </g>
</svg>