<svg xmlns="http://www.w3.org/2000/svg" width="24" height="24"><g fill="none" fill-rule="evenodd"><path d="M24 0v24H0V0zM12.594 23.258l-.012.002-.071.035-.02.004-.014-.004-.071-.036c-.01-.003-.019 0-.024.006l-.004.01-.017.428.005.02.01.013.104.074.015.004.012-.004.104-.074.012-.016.004-.017-.017-.427c-.002-.01-.009-.017-.016-.018m.264-.113-.014.002-.184.093-.01.01-.003.011.018.43.005.012.008.008.201.092c.012.004.023 0 .029-.008l.004-.014-.034-.614c-.003-.012-.01-.02-.02-.022m-.715.002a.023.023 0 0 0-.027.006l-.006.014-.034.614c0 .012.007.02.017.024l.015-.002.201-.093.01-.008.003-.011.018-.43-.003-.012-.01-.01z"/><path fill="#09244B" d="M9.556 2c.75 0 1.367.573 1.437 1.305l.007.14v6.823a2 2 0 0 1 .993 1.563L12 12v9a1 1 0 0 1-.883.993L11 22H5a1 1 0 0 1-.993-.883L4 21v-9c0-.683.343-1.287.866-1.647L5 10.268V6.556A4.556 4.556 0 0 1 9.556 2M10 13H6v2h4zM9 4.06a2.557 2.557 0 0 0-1.994 2.323L7 6.556V10h2zM17 10a4 4 0 0 0-4 4v7a1 1 0 0 0 1 1h6a1 1 0 0 0 1-1v-7a4 4 0 0 0-4-4"/></g></svg>