<svg xmlns="http://www.w3.org/2000/svg" width="24" height="24" viewBox="0 0 24 24"><g fill="none" fill-rule="evenodd"><path d="M24,0 L24,24 L0,24 L0,0 L24,0 Z M12.5935,23.2578 L12.5819,23.2595 L12.5109,23.295 L12.4919,23.2987 L12.4767,23.295 L12.4057,23.2595 C12.3958,23.2564 12.387,23.259 12.3821,23.2649 L12.378,23.2758 L12.3609,23.7031 L12.3659,23.7235 L12.3769,23.7357 L12.4805,23.8097 L12.4953,23.8136 L12.5071,23.8097 L12.6107,23.7357 L12.6233,23.7197 L12.6267,23.7031 L12.6096,23.2758 C12.6076,23.2657 12.601,23.2593 12.5935,23.2578 Z M12.8584,23.1453 L12.8445,23.1473 L12.6598,23.2397 L12.6499,23.2499 L12.6472,23.2611 L12.6651,23.6906 L12.6699,23.7034 L12.6784,23.7105 L12.8793,23.8032 C12.8914,23.8069 12.9022,23.803 12.9078,23.7952 L12.9118,23.7812 L12.8777,23.1665 C12.8753,23.1546 12.8674,23.147 12.8584,23.1453 Z M12.143,23.1473 C12.1332,23.1424 12.1222,23.1453 12.1156,23.1526 L12.1099,23.1665 L12.0758,23.7812 C12.0751,23.7927 12.0828,23.8019 12.0926,23.8046 L12.1083,23.8032 L12.3092,23.7105 L12.3186,23.7024 L12.3225,23.6906 L12.3404,23.2611 L12.3372,23.2485 L12.3278,23.2397 L12.143,23.1473 Z"/><path fill="#09244B" d="M8.37868,12.5 L7.5,12.5 L7.5,17 C7.5,17.8284 6.82843,18.5 6,18.5 C5.17157,18.5 4.5,17.8284 4.5,17 L4.5,5 C4.5,3.61929 5.61929,2.5 7,2.5 L11.5,2.5 C14.2614,2.5 16.5,4.73858 16.5,7.5 C16.5,9.91271 14.7911,11.9263 12.5177,12.3964 L15,14.8787 L16.9393,12.9393 C17.5251,12.3536 18.4749,12.3536 19.0607,12.9393 C19.6464,13.5251 19.6464,14.4749 19.0607,15.0607 L17.1213,17 L19.0607,18.9393 C19.6464,19.5251 19.6464,20.4749 19.0607,21.0607 C18.4749,21.6464 17.5251,21.6464 16.9393,21.0607 L15,19.1213 L13.0607,21.0607 C12.4749,21.6464 11.5251,21.6464 10.9393,21.0607 C10.3536,20.4749 10.3536,19.5251 10.9393,18.9393 L12.8787,17 L8.37868,12.5 Z M7.5,9.5 L7.5,5.5 L11.5,5.5 C12.6046,5.5 13.5,6.39543 13.5,7.5 C13.5,8.60457 12.6046,9.5 11.5,9.5 L7.5,9.5 Z"/></g></svg>