<svg xmlns="http://www.w3.org/2000/svg" width="24" height="24" viewBox="0 0 24 24"><g fill="none" fill-rule="evenodd"><path d="M24,0 L24,24 L0,24 L0,0 L24,0 Z M12.5935,23.2578 L12.5819,23.2595 L12.5109,23.295 L12.4919,23.2987 L12.4767,23.295 L12.4057,23.2595 C12.3958,23.2564 12.387,23.259 12.3821,23.2649 L12.378,23.2758 L12.3609,23.7031 L12.3659,23.7235 L12.3769,23.7357 L12.4805,23.8097 L12.4953,23.8136 L12.5071,23.8097 L12.6107,23.7357 L12.6233,23.7197 L12.6267,23.7031 L12.6096,23.2758 C12.6076,23.2657 12.601,23.2593 12.5935,23.2578 Z M12.8584,23.1453 L12.8445,23.1473 L12.6598,23.2397 L12.6499,23.2499 L12.6472,23.2611 L12.6651,23.6906 L12.6699,23.7034 L12.6784,23.7105 L12.8793,23.8032 C12.8914,23.8069 12.9022,23.803 12.9078,23.7952 L12.9118,23.7812 L12.8777,23.1665 C12.8753,23.1546 12.8674,23.147 12.8584,23.1453 Z M12.143,23.1473 C12.1332,23.1424 12.1222,23.1453 12.1156,23.1526 L12.1099,23.1665 L12.0758,23.7812 C12.0751,23.7927 12.0828,23.8019 12.0926,23.8046 L12.1083,23.8032 L12.3092,23.7105 L12.3186,23.7024 L12.3225,23.6906 L12.3404,23.2611 L12.3372,23.2485 L12.3278,23.2397 L12.143,23.1473 Z"/><path fill="#09244B" d="M18,3 C19.6569,3 21,4.34315 21,6 L21,18 C21,19.6569 19.6569,21 18,21 L6,21 C4.34315,21 3,19.6569 3,18 L3,6 C3,4.34315 4.34315,3 6,3 L18,3 Z M18,5 L6,5 C5.44772,5 5,5.44772 5,6 L5,18 C5,18.5523 5.44772,19 6,19 L18,19 C18.5523,19 19,18.5523 19,18 L19,6 C19,5.44772 18.5523,5 18,5 Z M8.5,14 C9.27969882,14 9.920449,14.5949121 9.99313345,15.3555442 L10,15.51 C10,16.3384 9.32843,17.01 8.5,17.01 C7.72030118,17.01 7.079551,16.4150879 7.00686655,15.6544558 L7,15.5 C7,14.6716 7.67157,14 8.5,14 Z M15.5,14 C16.2796706,14 16.9204457,14.5949121 16.9931332,15.3555442 L17,15.51 C17,16.3384 16.3284,17.01 15.5,17.01 C14.7203294,17.01 14.0795543,16.4150879 14.0068668,15.6544558 L14,15.5 C14,14.6716 14.6716,14 15.5,14 Z M12,10.5 C12.7796706,10.5 13.4204457,11.0949121 13.4931332,11.8555442 L13.5,12.01 C13.5,12.8384 12.8284,13.51 12,13.51 C11.2203294,13.51 10.5795543,12.9150879 10.5068668,12.1544558 L10.5,12 C10.5,11.1716 11.1716,10.5 12,10.5 Z M8.5,7 C9.27969882,7 9.920449,7.59488554 9.99313345,8.35553954 L10,8.51 C10,9.33843 9.32843,10.01 8.5,10.01 C7.72030118,10.01 7.079551,9.41511446 7.00686655,8.65446046 L7,8.5 C7,7.67157 7.67157,7 8.5,7 Z M15.5,7 C16.2796706,7 16.9204457,7.59488554 16.9931332,8.35553954 L17,8.51 C17,9.33843 16.3284,10.01 15.5,10.01 C14.7203294,10.01 14.0795543,9.41511446 14.0068668,8.65446046 L14,8.5 C14,7.67157 14.6716,7 15.5,7 Z"/></g></svg>