<?xml version="1.0" encoding="UTF-8"?>
<svg width="24px" height="24px" viewBox="0 0 24 24" version="1.1" xmlns="http://www.w3.org/2000/svg" xmlns:xlink="http://www.w3.org/1999/xlink">
    <title>shovel_line</title>
    <g id="Icon" stroke="none" stroke-width="1" fill="none" fill-rule="evenodd">
        <g id="Other" transform="translate(-48.000000, -96.000000)">
            <g id="shovel_line" transform="translate(48.000000, 96.000000)">
                <path d="M24,0 L24,24 L0,24 L0,0 L24,0 Z M12.5935,23.2578 L12.5819,23.2595 L12.5109,23.295 L12.4919,23.2987 L12.4767,23.295 L12.4057,23.2595 C12.3958,23.2564 12.387,23.259 12.3821,23.2649 L12.378,23.2758 L12.3609,23.7031 L12.3659,23.7235 L12.3769,23.7357 L12.4805,23.8097 L12.4953,23.8136 L12.5071,23.8097 L12.6107,23.7357 L12.6233,23.7197 L12.6267,23.7031 L12.6096,23.2758 C12.6076,23.2657 12.601,23.2593 12.5935,23.2578 Z M12.8584,23.1453 L12.8445,23.1473 L12.6598,23.2397 L12.6499,23.2499 L12.6472,23.2611 L12.6651,23.6906 L12.6699,23.7034 L12.6784,23.7105 L12.8793,23.8032 C12.8914,23.8069 12.9022,23.803 12.9078,23.7952 L12.9118,23.7812 L12.8777,23.1665 C12.8753,23.1546 12.8674,23.147 12.8584,23.1453 Z M12.143,23.1473 C12.1332,23.1424 12.1222,23.1453 12.1156,23.1526 L12.1099,23.1665 L12.0758,23.7812 C12.0751,23.7927 12.0828,23.8019 12.0926,23.8046 L12.1083,23.8032 L12.3092,23.7105 L12.3186,23.7024 L12.3225,23.6906 L12.3404,23.2611 L12.3372,23.2485 L12.3278,23.2397 L12.143,23.1473 Z" id="MingCute" fill-rule="nonzero"></path>
                <path d="M16.2427,3.51457 C16.6332,3.12405 17.2664,3.12405 17.6569,3.51457 L20.4853,6.343 C20.8759,6.73352 20.8759,7.36669 20.4853,7.75721 C20.0948,8.14774 19.4617,8.14774 19.0711,7.75721 L18.3642,7.05032 L13.4146,12 L14.8286,13.414 C15.6096,14.1951 15.6096,15.4614 14.8286,16.2425 L12.334,18.737 C10.9948,20.0762 9.01401,20.5438 7.21734,19.9449 L6.26865,19.6287 C5.37284,19.3301 4.66989,18.6271 4.37129,17.7313 L4.05506,16.7826 C3.45617,14.986 3.92378,13.0051 5.26294,11.666 L7.75752,9.17139 C8.53857,8.39034 9.8049,8.39034 10.5859,9.17139 L12.0003,10.5858 L16.95,5.63611 L16.2427,4.92879 C15.8522,4.53826 15.8522,3.9051 16.2427,3.51457 Z M10.5861,12 L9.17173,10.5856 L6.67716,13.0802 C5.87366,13.8837 5.59309,15.0722 5.95243,16.1502 L6.26865,17.0989 C6.36819,17.3975 6.6025,17.6318 6.90111,17.7313 L7.84979,18.0475 C8.9278,18.4069 10.1163,18.1263 10.9198,17.3228 L13.4144,14.8282 L12.0003,13.4142 L11.293,14.1215 C10.9025,14.512 10.2694,14.512 9.87883,14.1215 C9.48831,13.731 9.48831,13.0978 9.87883,12.7073 L10.5861,12 Z" id="形状" fill="#09244B"></path>
            </g>
        </g>
    </g>
</svg>