<svg xmlns="http://www.w3.org/2000/svg" width="24" height="24"><g fill="none" fill-rule="evenodd"><path d="M24 0v24H0V0zM12.594 23.258l-.012.002-.071.035-.02.004-.014-.004-.071-.036c-.01-.003-.019 0-.024.006l-.004.01-.017.428.005.02.01.013.104.074.015.004.012-.004.104-.074.012-.016.004-.017-.017-.427c-.002-.01-.009-.017-.016-.018m.264-.113-.014.002-.184.093-.01.01-.003.011.018.43.005.012.008.008.201.092c.012.004.023 0 .029-.008l.004-.014-.034-.614c-.003-.012-.01-.02-.02-.022m-.715.002a.023.023 0 0 0-.027.006l-.006.014-.034.614c0 .012.007.02.017.024l.015-.002.201-.093.01-.008.003-.011.018-.43-.003-.012-.01-.01z"/><path fill="#09244B" d="M12.864 1.497a1 1 0 0 0-1.728 0L9.095 5 5.13 5.86a1 1 0 0 0-.534 1.643l2.702 3.024-.408 4.035a1 1 0 0 0 1.398 1.016l1.042-.459-1.305 5.656A1 1 0 0 0 9 22h6a1 1 0 0 0 .974-1.225L14.67 15.12l1.042.46a1 1 0 0 0 1.398-1.017l-.408-4.035 2.702-3.024a1 1 0 0 0-.534-1.643L14.905 5zm-1.248 12.615.384-.17.384.17L13.743 20h-3.486z"/></g></svg>