<?xml version="1.0" encoding="UTF-8"?>
<svg width="24px" height="24px" viewBox="0 0 24 24" version="1.1" xmlns="http://www.w3.org/2000/svg" xmlns:xlink="http://www.w3.org/1999/xlink">
    <title>moonlight_fill</title>
    <g id="Icon" stroke="none" stroke-width="1" fill="none" fill-rule="evenodd">
        <g id="Other" transform="translate(-242.000000, -144.000000)" fill-rule="nonzero">
            <g id="moonlight_fill" transform="translate(242.000000, 144.000000)">
                <path d="M24,0 L24,24 L0,24 L0,0 L24,0 Z M12.5935,23.2578 L12.5819,23.2595 L12.5109,23.295 L12.4919,23.2987 L12.4767,23.295 L12.4057,23.2595 C12.3958,23.2564 12.387,23.259 12.3821,23.2649 L12.378,23.2758 L12.3609,23.7031 L12.3659,23.7235 L12.3769,23.7357 L12.4805,23.8097 L12.4953,23.8136 L12.5071,23.8097 L12.6107,23.7357 L12.6233,23.7197 L12.6267,23.7031 L12.6096,23.2758 C12.6076,23.2657 12.601,23.2593 12.5935,23.2578 Z M12.8584,23.1453 L12.8445,23.1473 L12.6598,23.2397 L12.6499,23.2499 L12.6472,23.2611 L12.6651,23.6906 L12.6699,23.7034 L12.6784,23.7105 L12.8793,23.8032 C12.8914,23.8069 12.9022,23.803 12.9078,23.7952 L12.9118,23.7812 L12.8777,23.1665 C12.8753,23.1546 12.8674,23.147 12.8584,23.1453 Z M12.143,23.1473 C12.1332,23.1424 12.1222,23.1453 12.1156,23.1526 L12.1099,23.1665 L12.0758,23.7812 C12.0751,23.7927 12.0828,23.8019 12.0926,23.8046 L12.1083,23.8032 L12.3092,23.7105 L12.3186,23.7024 L12.3225,23.6906 L12.3404,23.2611 L12.3372,23.2485 L12.3278,23.2397 L12.143,23.1473 Z" id="MingCute"></path>
                <path d="M12.6325,2.10754 C13.4226,2.04867 14.0838,2.49666 14.4155,3.09765 L15.6362,5.30871 C17.3782,5.1956 18.7182,5.84017 19.684,6.70615 C20.7429,7.65559 21.3357,8.85004 21.6141,9.53022 C21.9143,10.2634 21.6925,11.0307 21.2235,11.532 L19.4979,13.376 C20.1438,14.9979 19.9449,16.4714 19.4197,17.6576 C18.844,18.958 17.8912,19.8909 17.3303,20.3659 C16.7257,20.8779 15.9275,20.9042 15.3058,20.613 L13.0187,19.5417 C11.6759,20.6572 10.213,20.9233 8.92257,20.7904 C7.50784,20.6446 6.32615,20.0268 5.70111,19.6402 C5.02733,19.2234 4.75574,18.4723 4.84056,17.7911 L5.15264,15.2848 C3.67679,14.3524 2.97163,13.0433 2.69928,11.775 C2.40068,10.3845 2.62314,9.06973 2.79769,8.35581 C2.98586,7.58619 3.61626,7.09579 4.29037,6.96597 L6.7703,6.48839 C7.20105,4.79664 8.22814,3.72147 9.35019,3.07053 C10.5804,2.35686 11.8996,2.16214 12.6325,2.10754 Z" id="路径" fill="#09244B"></path>
            </g>
        </g>
    </g>
</svg>