<svg xmlns="http://www.w3.org/2000/svg" width="24" height="24"><g fill="none" fill-rule="evenodd"><path d="M24 0v24H0V0zM12.594 23.258l-.012.002-.071.035-.02.004-.014-.004-.071-.036c-.01-.003-.019 0-.024.006l-.004.01-.017.428.005.02.01.013.104.074.015.004.012-.004.104-.074.012-.016.004-.017-.017-.427c-.002-.01-.009-.017-.016-.018m.264-.113-.014.002-.184.093-.01.01-.003.011.018.43.005.012.008.008.201.092c.012.004.023 0 .029-.008l.004-.014-.034-.614c-.003-.012-.01-.02-.02-.022m-.715.002a.023.023 0 0 0-.027.006l-.006.014-.034.614c0 .012.007.02.017.024l.015-.002.201-.093.01-.008.003-.011.018-.43-.003-.012-.01-.01z"/><path fill="#09244B" d="M18 2a1 1 0 0 1 .993.884L19 3v2.5a1 1 0 0 1-.883.993L18 6.5h-1.63c.24.69.576 1.229 1 1.545l.145.098a1 1 0 0 1-1.03 1.715c-.893-.536-1.47-1.39-1.841-2.276l-.09-.223-.554.555v1.679a1 1 0 0 0 .254.666l.088.086 2.633 2.305a3 3 0 0 1 1.018 2.059l.007.199V19a3 3 0 0 1-2.824 2.995L15 22H8a3 3 0 0 1-2.995-2.824L5 19v-4.092a3 3 0 0 1 .88-2.122l.144-.136 2.635-2.305a1 1 0 0 0 .333-.63L9 9.593V8.054l-.972-.607c-1.815-1.135-1.854-3.765-.073-4.952.423-.282.912-.45 1.417-.487L9.59 2zm-6 6.5h-1v1.093a3 3 0 0 1-1.024 2.257L7.34 14.155a1 1 0 0 0-.34.708c.961-.07 1.779.013 2.511.2.764.194 1.406.495 1.97.791l.497.268c.696.38 1.28.694 2.002.878.539.137 1.184.207 2.019.13v-2.222a1 1 0 0 0-.341-.753l-2.635-2.305A3 3 0 0 1 12 9.593zM17 4h-1.047l.013.327.011.173H17z"/></g></svg>