<?xml version="1.0" encoding="UTF-8"?>
<svg width="24px" height="24px" viewBox="0 0 24 24" version="1.1" xmlns="http://www.w3.org/2000/svg" xmlns:xlink="http://www.w3.org/1999/xlink">
    <title>airplane_fill</title>
    <g id="页面-1" stroke="none" stroke-width="1" fill="none" fill-rule="evenodd">
        <g id="Transport" transform="translate(-48.000000, -48.000000)" fill-rule="nonzero">
            <g id="airplane_fill" transform="translate(48.000000, 48.000000)">
                <rect id="矩形" x="0" y="0" width="24" height="24"></rect>
                <path d="M19.71,2.83697 C20.4433,2.98362 21.0164,3.55678 21.1631,4.29004 C21.3759,5.35398 21.0914,6.45687 20.3905,7.28516 L17.6387,10.5373 L19.5834,17.668 C19.7015,18.1008 19.5786,18.5636 19.2614,18.8808 L17.9591,20.1831 C17.4846,20.6576 16.6879,20.546 16.362,19.9594 L13.3689,14.5718 L10.1109,16.8273 L10.1109,17.614 C10.1109,17.9455 9.97921,18.2635 9.74479,18.4979 L8.06168,20.181 C7.53077,20.7119 6.62676,20.4985 6.38934,19.7862 L5.84546,18.1546 L4.21383,17.6107 C3.50154,17.3733 3.28814,16.4693 3.81904,15.9384 L5.50215,14.2553 C5.73657,14.0208 6.05451,13.8891 6.38603,13.8891 L7.17274,13.8891 L9.42828,10.6311 L4.04066,7.63801 C3.45409,7.31214 3.34248,6.51543 3.81698,6.04093 L5.11923,4.73868 C5.43642,4.42149 5.89924,4.29858 6.33201,4.41661 L13.4627,6.36135 L16.7149,3.60951 C17.5432,2.90865 18.6461,2.62418 19.71,2.83697 Z" id="路径" fill="#09244B"></path>
            </g>
        </g>
    </g>
</svg>