<?xml version="1.0" encoding="UTF-8"?>
<svg width="24px" height="24px" viewBox="0 0 24 24" version="1.1" xmlns="http://www.w3.org/2000/svg" xmlns:xlink="http://www.w3.org/1999/xlink">
    <title>baby_carriage_line</title>
    <g id="页面-1" stroke="none" stroke-width="1" fill="none" fill-rule="evenodd">
        <g id="Transport" transform="translate(-480.000000, 0.000000)">
            <g id="baby_carriage_line" transform="translate(480.000000, 0.000000)">
                <path d="M24,0 L24,24 L0,24 L0,0 L24,0 Z M12.5934901,23.257841 L12.5819402,23.2595131 L12.5108777,23.2950439 L12.4918791,23.2987469 L12.4918791,23.2987469 L12.4767152,23.2950439 L12.4056548,23.2595131 C12.3958229,23.2563662 12.3870493,23.2590235 12.3821421,23.2649074 L12.3780323,23.275831 L12.360941,23.7031097 L12.3658947,23.7234994 L12.3769048,23.7357139 L12.4804777,23.8096931 L12.4953491,23.8136134 L12.4953491,23.8136134 L12.5071152,23.8096931 L12.6106902,23.7357139 L12.6232938,23.7196733 L12.6232938,23.7196733 L12.6266527,23.7031097 L12.609561,23.275831 C12.6075724,23.2657013 12.6010112,23.2592993 12.5934901,23.257841 L12.5934901,23.257841 Z M12.8583906,23.1452862 L12.8445485,23.1473072 L12.6598443,23.2396597 L12.6498822,23.2499052 L12.6498822,23.2499052 L12.6471943,23.2611114 L12.6650943,23.6906389 L12.6699349,23.7034178 L12.6699349,23.7034178 L12.678386,23.7104931 L12.8793402,23.8032389 C12.8914285,23.8068999 12.9022333,23.8029875 12.9078286,23.7952264 L12.9118235,23.7811639 L12.8776777,23.1665331 C12.8752882,23.1545897 12.8674102,23.1470016 12.8583906,23.1452862 L12.8583906,23.1452862 Z M12.1430473,23.1473072 C12.1332178,23.1423925 12.1221763,23.1452606 12.1156365,23.1525954 L12.1099173,23.1665331 L12.0757714,23.7811639 C12.0751323,23.7926639 12.0828099,23.8018602 12.0926481,23.8045676 L12.108256,23.8032389 L12.3092106,23.7104931 L12.3186497,23.7024347 L12.3186497,23.7024347 L12.3225043,23.6906389 L12.340401,23.2611114 L12.337245,23.2485176 L12.337245,23.2485176 L12.3277531,23.2396597 L12.1430473,23.1473072 Z" id="MingCute" fill-rule="nonzero"></path>
                <path d="M9.62279,3.3823 C9.31233,2.70198 8.50988,2.31278 7.74618,2.60891 C6.35973,3.14652 5.12548,4.02041 4.15635,5.15511 C3.07839,6.41723 2.37046,7.95286 2.11081,9.59223 C1.85116,11.2316 2.04991,12.9108 2.68509,14.4443 C3.112,15.4749 3.72487,16.4127 4.48857,17.2131 C3.61173,17.6015 3.00000125,18.4794 3.00000125,19.5001 C3.00000125,20.8808 4.11929,22.0001 5.50000125,22.0001 C6.88071,22.0001 8.00000125,20.8808 8.00000125,19.5001 L7.99996,19.4854 C8.73664,19.7459 9.50755,19.9105 10.2939,19.9724 C11.5541,20.0716 12.8165,19.9039 14.0000012,19.4854 L14.0000012,19.5001 C14.0000012,20.8808 15.1193,22.0001 16.5000012,22.0001 C17.8807,22.0001 19.0000012,20.8808 19.0000012,19.5001 C19.0000012,18.4794 18.3883,17.6015 17.5114,17.2131 C17.9493,16.7542 18.3394,16.2483 18.6738,15.7026 C19.541,14.2874 20.0000012,12.6599 20.0000012,11.0001 L20.0000012,8.50009 C20.0000012,8.22394 20.2239,8.00009 20.5000012,8.00009 L21.0000012,8.00009 C21.5523,8.00009 22.0000012,7.55237 22.0000012,7.00009 C22.0000012,6.4478 21.5523,6.00009 21.0000012,6.00009 L20.5000012,6.00009 C19.1193,6.00009 18.0000012,7.11937 18.0000012,8.50009 L18.0000012,10.0001 L12.6429,10.0001 L9.62279,3.3823 Z M5.67716,6.454 C6.32261,5.69828 7.11927,5.09129 8.01198,4.66991 L10.4444,10.0001 L4.07181,10.0001 C4.26064,8.69188 4.81795,7.46002 5.67716,6.454 Z M4.07179,12.0001 C4.15463,12.574 4.30885,13.1381 4.53285,13.6789 C5.02688,14.8716 5.8411,15.9045 6.88551,16.6633 C7.92991,17.4221 9.16381,17.8773 10.4508,17.9786 C11.7378,18.0798 13.0277,17.8233 14.1779,17.2372 C15.3282,16.6511 16.294,15.7584 16.9685,14.6576 C17.4675,13.8433 17.7928,12.9386 17.9282,12.0001 C13.3094,12.0001 8.6906,12.0001 4.07179,12.0001 Z M5.5,19.0001 C5.22386,19.0001 5,19.2239 5,19.5001 C5,19.7762 5.22386,20.0001 5.5,20.0001 C5.77614,20.0001 6,19.7762 6,19.5001 C6,19.2239 5.77614,19.0001 5.5,19.0001 Z M16.5,19.0001 C16.2239,19.0001 16,19.2239 16,19.5001 C16,19.7762 16.2239,20.0001 16.5,20.0001 C16.7761,20.0001 17,19.7762 17,19.5001 C17,19.2239 16.7761,19.0001 16.5,19.0001 Z" id="形状" fill="#09244B"></path>
            </g>
        </g>
    </g>
</svg>