<?xml version="1.0" encoding="UTF-8"?>
<svg width="24px" height="24px" viewBox="0 0 24 24" version="1.1" xmlns="http://www.w3.org/2000/svg" xmlns:xlink="http://www.w3.org/1999/xlink">
    <title>bike_fill</title>
    <g id="页面-1" stroke="none" stroke-width="1" fill="none" fill-rule="evenodd">
        <g id="Transport" transform="translate(-96.000000, -48.000000)" fill-rule="nonzero">
            <g id="bike_fill" transform="translate(96.000000, 48.000000)">
                <rect id="矩形" x="0" y="0" width="24" height="24"></rect>
                <path d="M10,5 C10,4.44772 10.4477,4 11,4 L13.614,4 C14.8645,4 15.9839,4.77572 16.423,5.94663 L18.717,12.0641 C20.584,12.402 22,14.0356 22,16 C22,18.2091 20.2091,20 18,20 C15.7909,20 14,18.2091 14,16 C14,14.2664 15.1028,12.7904 16.6452,12.2353 L16.1819,10.9998 L9.21074,13.614 C9.70657,14.2801 10,15.1058 10,16 C10,18.2091 8.20914,20 6,20 C3.79086,20 2,18.2091 2,16 C2,13.7909 3.79086,12 6,12 L6.02274,12.0001 L4.9116,10 L4,10 C3.44772,10 3,9.55228 3,9 C3,8.44772 3.44772,8 4,8 L5.48002,8 C5.49275,7.99976 5.50547,7.99976 5.51817,8 L8,8 C8.55228,8 9,8.44772 9,9 C9,9.55228 8.55228,10 8,10 L7.19951,10 L8.2258,11.8473 L15.4797,9.12712 L14.5503,6.64888 C14.404,6.25857 14.0308,6 13.614,6 L11,6 C10.4477,6 10,5.55228 10,5 Z" id="路径" fill="#09244B"></path>
            </g>
        </g>
    </g>
</svg>