<?xml version="1.0" encoding="UTF-8"?>
<svg width="24px" height="24px" viewBox="0 0 24 24" version="1.1" xmlns="http://www.w3.org/2000/svg" xmlns:xlink="http://www.w3.org/1999/xlink">
    <title>bike_line</title>
    <g id="页面-1" stroke="none" stroke-width="1" fill="none" fill-rule="evenodd">
        <g id="bike_line">
            <rect id="矩形" x="0" y="0" width="24" height="24"></rect>
            <path d="M13.614,4 C14.8645,4 15.9839,4.77572 16.423,5.94663 L18.717,12.0641 C20.584,12.402 22,14.0356 22,16 C22,18.2091 20.2091,20 18,20 C15.7909,20 14,18.2091 14,16 C14,14.2664 15.1028,12.7904 16.6452,12.2353 L16.1819,10.9998 L9.21074,13.614 C9.70657,14.2801 10,15.1058 10,16 C10,18.2091 8.20914,20 6,20 C3.79086,20 2,18.2091 2,16 C2,13.8578424 3.68396753,12.1089234 5.80035957,12.0048954 L6.02274,12.0001 L4.9116,10 L4,10 C3.44772,10 3,9.55228 3,9 C3,8.44772 3.44772,8 4,8 L8,8 C8.55228,8 9,8.44772 9,9 C9,9.55228 8.55228,10 8,10 L7.19951,10 L8.2258,11.8473 L15.4797,9.12712 L14.5503,6.64888 C14.404,6.25857 14.0308,6 13.614,6 L11,6 C10.4477,6 10,5.55228 10,5 C10,4.44772 10.4477,4 11,4 L13.614,4 Z M18.1671579,14.0069026 L17.9811,14.0001 C16.8852,14.0102 16,14.9017 16,16 C16,17.1046 16.8954,18 18,18 C19.1046,18 20,17.1046 20,16 C20,14.9517182 19.1935349,14.0918636 18.1671579,14.0069026 L18.1671579,14.0069026 Z M6,14 C4.89543,14 4,14.8954 4,16 C4,17.1046 4.89543,18 6,18 C7.10457,18 8,17.1046 8,16 C8,14.8954 7.10457,14 6,14 Z" id="形状" fill="#09244B" fill-rule="nonzero"></path>
        </g>
    </g>
</svg>