<?xml version="1.0" encoding="UTF-8"?>
<svg width="24px" height="24px" viewBox="0 0 24 24" version="1.1" xmlns="http://www.w3.org/2000/svg" xmlns:xlink="http://www.w3.org/1999/xlink">
    <title>bus_2_line</title>
    <g id="页面-1" stroke="none" stroke-width="1" fill="none" fill-rule="evenodd">
        <g id="Transport" transform="translate(-144.000000, 0.000000)">
            <g id="bus_2_line" transform="translate(144.000000, 0.000000)">
                <rect id="矩形" fill-rule="nonzero" x="0" y="0" width="24" height="24"></rect>
                <path d="M4,5 C2.34315,5 1,6.34315 1,8 L1,16 C1,17.1046 1.89543,18 3,18 L3.17071,18 C3.58254,19.1652 4.69378,20 6,20 C7.30622,20 8.41746,19.1652 8.82929,18 L15.1707,18 C15.5825,19.1652 16.6938,20 18,20 C19.3062,20 20.4175,19.1652 20.8293,18 L21,18 C22.1046,18 23,17.1046 23,16 L23,9.60555 C23,9.01328 22.8247,8.43425 22.4962,7.94145 L21.4258,6.3359 C20.8694,5.5013 19.9327,5 18.9296,5 L4,5 Z M3,8 C3,7.44772 3.44772,7 4,7 L6,7 L6,10 L3,10 L3,8 Z M11,7 L8,7 L8,10 L11,10 L11,7 Z M13,10 L16,10 L16,7 L13,7 L13,10 Z M3,12 L3,16 L3.17071,16 C3.58254,14.8348 4.69378,14 6,14 C7.30622,14 8.41746,14.8348 8.82929,16 L15.1707,16 C15.5825,14.8348 16.6938,14 18,14 C19.3062,14 20.4175,14.8348 20.8293,16 L21,16 L21,13 L18,13 C17.2597,13 16.6134,12.5978 16.2676,12 L3,12 Z M21,11 L21,9.60555 C21,9.40813 20.9416,9.21512 20.8321,9.05085 L19.7617,7.4453 C19.5762,7.1671 19.264,7 18.9296,7 L18,7 L18,11 L21,11 Z M18,16 C18.5523,16 19,16.4477 19,17 C19,17.5523 18.5523,18 18,18 C17.4477,18 17,17.5523 17,17 C17,16.4477 17.4477,16 18,16 Z M7,17 C7,16.4477 6.55228,16 6,16 C5.44772,16 5,16.4477 5,17 C5,17.5523 5.44772,18 6,18 C6.55228,18 7,17.5523 7,17 Z" id="形状" fill="#09244B"></path>
            </g>
        </g>
    </g>
</svg>