<?xml version="1.0" encoding="UTF-8"?>
<svg width="24px" height="24px" viewBox="0 0 24 24" version="1.1" xmlns="http://www.w3.org/2000/svg" xmlns:xlink="http://www.w3.org/1999/xlink">
    <title>bus_line</title>
    <g id="页面-1" stroke="none" stroke-width="1" fill="none" fill-rule="evenodd">
        <g id="Transport" transform="translate(-192.000000, 0.000000)" fill-rule="nonzero">
            <g id="bus_line" transform="translate(192.000000, 0.000000)">
                 <path d="M24,0 L24,24 L0,24 L0,0 L24,0 Z M12.5934901,23.257841 L12.5819402,23.2595131 L12.5108777,23.2950439 L12.4918791,23.2987469 L12.4918791,23.2987469 L12.4767152,23.2950439 L12.4056548,23.2595131 C12.3958229,23.2563662 12.3870493,23.2590235 12.3821421,23.2649074 L12.3780323,23.275831 L12.360941,23.7031097 L12.3658947,23.7234994 L12.3769048,23.7357139 L12.4804777,23.8096931 L12.4953491,23.8136134 L12.4953491,23.8136134 L12.5071152,23.8096931 L12.6106902,23.7357139 L12.6232938,23.7196733 L12.6232938,23.7196733 L12.6266527,23.7031097 L12.609561,23.275831 C12.6075724,23.2657013 12.6010112,23.2592993 12.5934901,23.257841 L12.5934901,23.257841 Z M12.8583906,23.1452862 L12.8445485,23.1473072 L12.6598443,23.2396597 L12.6498822,23.2499052 L12.6498822,23.2499052 L12.6471943,23.2611114 L12.6650943,23.6906389 L12.6699349,23.7034178 L12.6699349,23.7034178 L12.678386,23.7104931 L12.8793402,23.8032389 C12.8914285,23.8068999 12.9022333,23.8029875 12.9078286,23.7952264 L12.9118235,23.7811639 L12.8776777,23.1665331 C12.8752882,23.1545897 12.8674102,23.1470016 12.8583906,23.1452862 L12.8583906,23.1452862 Z M12.1430473,23.1473072 C12.1332178,23.1423925 12.1221763,23.1452606 12.1156365,23.1525954 L12.1099173,23.1665331 L12.0757714,23.7811639 C12.0751323,23.7926639 12.0828099,23.8018602 12.0926481,23.8045676 L12.108256,23.8032389 L12.3092106,23.7104931 L12.3186497,23.7024347 L12.3186497,23.7024347 L12.3225043,23.6906389 L12.340401,23.2611114 L12.337245,23.2485176 L12.337245,23.2485176 L12.3277531,23.2396597 L12.1430473,23.1473072 Z" id="MingCute" fill-rule="nonzero"></path>
                <path d="M18,2.99997 C19.6569,2.99997 21,4.34312 21,5.99997 C21.51285,5.99997 21.9355092,6.38601429 21.9932725,6.88335776 L22,6.99997 L22,8.99998 C22,9.51281143 21.613973,9.93548653 21.1166239,9.9932522 L21,9.99998 L21,17 C21,17.6833538 20.657297,18.286613 20.1343876,18.6473597 L20,18.7324 L20,19.5 C20,20.3284 19.3284,21 18.5,21 C17.7203294,21 17.0795543,20.4050879 17.0068668,19.6444558 L17,19.5 L17,19 L7,19 L7,19.5 C7,20.3284 6.32843,21 5.5,21 C4.72030118,21 4.079551,20.4050879 4.00686655,19.6444558 L4,19.5 L4,18.7324 C3.44818462,18.4132 3.06303432,17.8379527 3.00704561,17.1690758 L3,17 L3,9.99998 C2.48716857,9.99998 2.06449347,9.61393571 2.0067278,9.11660025 L2,8.99998 L2,6.99997 C2,6.44769 2.44772,5.99997 3,5.99997 C3,4.40229321 4.24892392,3.09630941 5.82372764,3.00506271 L6,2.99997 L18,2.99997 Z M19,13 L5,13 L5,17 L19,17 L19,13 Z M8,14 C8.55228,14 9,14.4477 9,15 C9,15.5523 8.55228,16 8,16 L7,16 C6.44772,16 6,15.5523 6,15 C6,14.4477 6.44772,14 7,14 L8,14 Z M17,14 C17.5523,14 18,14.4477 18,15 C18,15.51285 17.613973,15.9355092 17.1166239,15.9932725 L17,16 L16,16 C15.4477,16 15,15.5523 15,15 C15,14.48715 15.386027,14.0644908 15.8833761,14.0067275 L16,14 L17,14 Z M9.38197,4.99997 L6,4.99997 C5.44772,4.99997 5,5.44769 5,5.99997 L5,11 L19,11 L19,5.99997 C19,5.44769 18.5523,4.99997 18,4.99997 L16.618,4.99997 L14.8944,8.44719 C14.6474,8.94117 14.0468,9.14139 13.5528,8.8944 C13.0588,8.64741 12.8586,8.04674 13.1056,7.55276 L14.382,4.99997 L11.618,4.99997 L9.89443,8.44719 C9.64744,8.94117 9.04676,9.14139 8.55279,8.8944 C8.05881,8.64741 7.85858,8.04674 8.10557,7.55276 L9.38197,4.99997 Z" id="形状" fill="#09244B"></path>
            </g>
        </g>
    </g>
</svg>