<?xml version="1.0" encoding="UTF-8"?>
<svg width="24px" height="24px" viewBox="0 0 24 24" version="1.1" xmlns="http://www.w3.org/2000/svg" xmlns:xlink="http://www.w3.org/1999/xlink">
    <title>bus_line</title>
    <g id="页面-1" stroke="none" stroke-width="1" fill="none" fill-rule="evenodd">
        <g id="Transport" transform="translate(-192.000000, 0.000000)" fill-rule="nonzero">
            <g id="bus_line" transform="translate(192.000000, 0.000000)">
                <rect id="矩形" x="0" y="0" width="24" height="24"></rect>
                <path d="M18,2.99997 C19.6569,2.99997 21,4.34312 21,5.99997 C21.51285,5.99997 21.9355092,6.38601429 21.9932725,6.88335776 L22,6.99997 L22,8.99998 C22,9.51281143 21.613973,9.93548653 21.1166239,9.9932522 L21,9.99998 L21,17 C21,17.6833538 20.657297,18.286613 20.1343876,18.6473597 L20,18.7324 L20,19.5 C20,20.3284 19.3284,21 18.5,21 C17.7203294,21 17.0795543,20.4050879 17.0068668,19.6444558 L17,19.5 L17,19 L7,19 L7,19.5 C7,20.3284 6.32843,21 5.5,21 C4.72030118,21 4.079551,20.4050879 4.00686655,19.6444558 L4,19.5 L4,18.7324 C3.44818462,18.4132 3.06303432,17.8379527 3.00704561,17.1690758 L3,17 L3,9.99998 C2.48716857,9.99998 2.06449347,9.61393571 2.0067278,9.11660025 L2,8.99998 L2,6.99997 C2,6.44769 2.44772,5.99997 3,5.99997 C3,4.40229321 4.24892392,3.09630941 5.82372764,3.00506271 L6,2.99997 L18,2.99997 Z M19,13 L5,13 L5,17 L19,17 L19,13 Z M8,14 C8.55228,14 9,14.4477 9,15 C9,15.5523 8.55228,16 8,16 L7,16 C6.44772,16 6,15.5523 6,15 C6,14.4477 6.44772,14 7,14 L8,14 Z M17,14 C17.5523,14 18,14.4477 18,15 C18,15.51285 17.613973,15.9355092 17.1166239,15.9932725 L17,16 L16,16 C15.4477,16 15,15.5523 15,15 C15,14.48715 15.386027,14.0644908 15.8833761,14.0067275 L16,14 L17,14 Z M9.38197,4.99997 L6,4.99997 C5.44772,4.99997 5,5.44769 5,5.99997 L5,11 L19,11 L19,5.99997 C19,5.44769 18.5523,4.99997 18,4.99997 L16.618,4.99997 L14.8944,8.44719 C14.6474,8.94117 14.0468,9.14139 13.5528,8.8944 C13.0588,8.64741 12.8586,8.04674 13.1056,7.55276 L14.382,4.99997 L11.618,4.99997 L9.89443,8.44719 C9.64744,8.94117 9.04676,9.14139 8.55279,8.8944 C8.05881,8.64741 7.85858,8.04674 8.10557,7.55276 L9.38197,4.99997 Z" id="形状" fill="#09244B"></path>
            </g>
        </g>
    </g>
</svg>