<?xml version="1.0" encoding="UTF-8"?>
<svg width="24px" height="24px" viewBox="0 0 24 24" version="1.1" xmlns="http://www.w3.org/2000/svg" xmlns:xlink="http://www.w3.org/1999/xlink">
    <title>car_2_fill</title>
    <g id="页面-1" stroke="none" stroke-width="1" fill="none" fill-rule="evenodd">
        <g id="Transport" transform="translate(-240.000000, -48.000000)">
            <g id="car_2_fill" transform="translate(240.000000, 48.000000)">
                <rect id="矩形" fill-rule="nonzero" x="0" y="0" width="24" height="24"></rect>
                <path d="M7.58032,4 C6.86261,4 6.19992,4.38457 5.84384,5.00772 L2.26351,11.2733 C2.09083,11.5755 2,11.9175 2,12.2656 L2,16.7639 C2,17.0744 2.07229,17.3806 2.21115,17.6584 L3.32918,19.8944 C3.66796,20.572 4.36049,21 5.11803,21 L6,21 C7.10457,21 8,20.1046 8,19 L16,19 C16,20.1046 16.8954,21 18,21 L18.882,21 C19.6395,21 20.332,20.572 20.6708,19.8944 L21.7889,17.6584 C21.9277,17.3806 22,17.0744 22,16.7639 L22,12.2656 C22,11.9175 21.9092,11.5755 21.7365,11.2733 L18.1562,5.00772 C17.8001,4.38457 17.1374,4 16.4197,4 L7.58032,4 Z M12,12 C10.4027,12 8.9281,11.6573 7.44669,11.1053 C6.95281,10.8587 6.35244,11.059 6.10555,11.5528 C5.85856,12.0467 6.05878,12.6474 6.55276,12.8944 C7.04674,13.1414 9.55958,14 12,14 C13.8542,14 15.7681,13.7263 17.4447,12.8956 C17.9334,12.652 18.1389,12.0418 17.8944,11.5528 C17.6475,11.0589 17.0471,10.8587 16.5533,11.1053 C15.1885,11.7868 13.496,12 12,12 Z" id="形状" fill="#09244B"></path>
            </g>
        </g>
    </g>
</svg>