<?xml version="1.0" encoding="UTF-8"?>
<svg width="24px" height="24px" viewBox="0 0 24 24" version="1.1" xmlns="http://www.w3.org/2000/svg" xmlns:xlink="http://www.w3.org/1999/xlink">
    <title>car_fill</title>
    <g id="页面-1" stroke="none" stroke-width="1" fill="none" fill-rule="evenodd">
        <g id="Transport" transform="translate(-288.000000, -48.000000)">
            <g id="car_fill" transform="translate(288.000000, 48.000000)">
                <rect id="矩形" fill-rule="nonzero" x="0" y="0" width="24" height="24"></rect>
                <path d="M5.55279,5.65836 C6.06096,4.64201 7.09975,4 8.23607,4 L15.7639,4 C16.9002,4 17.939,4.64201 18.4472,5.65836 L19.8326,8.4292 C20.0766,8.32868 20.3173,8.22126 20.5532,8.10535 C21.0471,7.85867 21.6475,8.05891 21.8944,8.55276 C22.1414,9.04674 21.9412,9.64741 21.4472,9.8944 C21.2061,10.0018 20.9645,10.1063 20.7217,10.2073 L21.6833,12.1305 C21.8916,12.5471 22,13.0064 22,13.4721 L22,16 C22,16.8885 21.6137,17.6868 21,18.2361 L21,19.5 C21,20.3284 20.3284,21 19.5,21 C18.6716,21 18,20.3284 18,19.5 L18,19 L6,19 L6,19.5 C6,20.3284 5.32843,21 4.5,21 C3.67157,21 3,20.3284 3,19.5 L3,18.2361 C2.38625,17.6868 2,16.8885 2,16 L2,13.4721 C2,13.0064 2.10844,12.5471 2.31672,12.1305 L3.27037,10.2232 C3.02889,10.1209 2.79023,10.0122 2.55528,9.89564 C2.06661,9.65198 1.86107,9.04179 2.10558,8.55276 C2.3525,8.05891 2.95292,7.85866 3.44683,8.10535 C3.68313,8.22152 3.92369,8.32893 4.1673,8.42934 L5.55279,5.65836 Z M9,14.5 C9,15.3284 8.32843,16 7.5,16 C6.67157,16 6,15.3284 6,14.5 C6,13.6716 6.67157,13 7.5,13 C8.32843,13 9,13.6716 9,14.5 Z M16.5,16 C17.3284,16 18,15.3284 18,14.5 C18,13.6716 17.3284,13 16.5,13 C15.6716,13 15,13.6716 15,14.5 C15,15.3284 15.6716,16 16.5,16 Z M7.34166,6.55279 C7.51105,6.214 7.85731,6 8.23608,6 L15.7639,6 C16.1427,6 16.489,6.214 16.6584,6.55279 L17.9274,9.09084 C16.3801,9.55496 14.295,9.99998 12,9.99998 C9.70508,9.99998 7.61997,9.55495 6.07263,9.09084 L7.34166,6.55279 Z" id="形状" fill="#09244B"></path>
            </g>
        </g>
    </g>
</svg>