<svg xmlns="http://www.w3.org/2000/svg" width="24" height="24"><g fill="none" fill-rule="evenodd"><path d="M24 0v24H0V0zM12.593 23.258l-.011.002-.071.035-.02.004-.014-.004-.071-.035c-.01-.004-.019-.001-.024.005l-.004.01-.017.428.005.02.01.013.104.074.015.004.012-.004.104-.074.012-.016.004-.017-.017-.427c-.002-.01-.009-.017-.017-.018m.265-.113-.013.002-.185.093-.01.01-.003.011.018.43.005.012.008.007.201.093c.012.004.023 0 .029-.008l.004-.014-.034-.614c-.003-.012-.01-.02-.02-.022m-.715.002a.023.023 0 0 0-.027.006l-.006.014-.034.614c0 .012.007.02.017.024l.015-.002.201-.093.01-.008.004-.011.017-.43-.003-.012-.01-.01z"/><path fill="#09244B" d="M8.16 4a3 3 0 0 0-2.604 1.512L3.563 9H2.4a.4.4 0 0 0-.4.4v.475a.8.8 0 0 0 .606.777l.024.005a5 5 0 0 0-.457 2.79l.725 5.801A2 2 0 0 0 4.883 21H5a2 2 0 0 0 2-2h10a2 2 0 0 0 2 2h.117a2 2 0 0 0 1.985-1.752l.725-5.8a5 5 0 0 0-.457-2.79l.024-.006A.8.8 0 0 0 22 9.875V9.4a.4.4 0 0 0-.4-.4h-1.163l-1.993-3.488A3 3 0 0 0 15.84 4zm10.262 5.504-1.714-3A1 1 0 0 0 15.839 6H8.161a1 1 0 0 0-.869.504l-1.714 3A1 1 0 0 0 6.446 11h11.108a1 1 0 0 0 .868-1.496M5 15.039v-.7a.5.5 0 0 1 .738-.44l2.742 1.48c.373.202.218.769-.206.752l-2.314-.093A1 1 0 0 1 5 15.04Zm14-.7v.7a1 1 0 0 1-.96 1l-2.314.092c-.424.017-.58-.55-.206-.752l2.742-1.48a.5.5 0 0 1 .738.44"/></g></svg>