<?xml version="1.0" encoding="UTF-8"?>
<svg width="24px" height="24px" viewBox="0 0 24 24" version="1.1" xmlns="http://www.w3.org/2000/svg" xmlns:xlink="http://www.w3.org/1999/xlink">
    <title>charging_pilen_fill</title>
    <g id="页面-1" stroke="none" stroke-width="1" fill="none" fill-rule="evenodd">
        <g id="Transport" transform="translate(-528.000000, -48.000000)">
            <g id="charging_pilen_fill" transform="translate(528.000000, 48.000000)">
                <rect id="矩形" fill-rule="nonzero" x="0" y="0" width="24" height="24"></rect>
                <path d="M3,5 C3,3.89543 3.89543,3 5,3 L13,3 C14.1046,3 15,3.89543 15,5 L15,12 L16,12 C17.1046,12 18,12.8954 18,14 L18,16.5 C18,16.7761 18.2239,17 18.5,17 C18.7761,17 19,16.7761 19,16.5 L19,10.4142 L17.75,9.16421 L17.7071,9.20711 C17.3166,9.59763 16.6834,9.59763 16.2929,9.20711 C15.9024,8.81658 15.9024,8.18342 16.2929,7.79289 L16.3358,7.75 L16.2929,7.70711 C15.9024,7.31658 15.9024,6.68342 16.2929,6.29289 C16.6834,5.90237 17.3166,5.90237 17.7071,6.29289 L20.4142,9 C20.7893,9.37507 21,9.88378 21,10.4142 L21,16.5 C21,17.8807 19.8807,19 18.5,19 C17.1193,19 16,17.8807 16,16.5 L16,14 L15,14 L15,19 C15.5523,19 16,19.4477 16,20 C16,20.5523 15.5523,21 15,21 L3,21 C2.44772,21 2,20.5523 2,20 C2,19.4477 2.44772,19 3,19 L3,5 Z M9.89443,8.44721 C10.1414,7.95324 9.94119,7.35256 9.44721,7.10557 C8.95324,6.85858 8.35256,7.05881 8.10557,7.55279 L6.11281,11.5383 C5.77704,12.2098 6.26534,13 7.01618,13 L9.38197,13 L8.10557,15.5528 C7.85858,16.0468 8.05881,16.6474 8.55279,16.8944 C9.04676,17.1414 9.64744,16.9412 9.89443,16.4472 L11.8872,12.4617 C12.223,11.7901 11.7346,11 10.9838,11 L8.61803,11 L9.89443,8.44721 Z" id="形状" fill="#09244B"></path>
            </g>
        </g>
    </g>
</svg>