<?xml version="1.0" encoding="UTF-8"?>
<svg width="24px" height="24px" viewBox="0 0 24 24" version="1.1" xmlns="http://www.w3.org/2000/svg" xmlns:xlink="http://www.w3.org/1999/xlink">
    <title>fan_direction_front_line</title>
    <g id="页面-1" stroke="none" stroke-width="1" fill="none" fill-rule="evenodd">
        <g id="Transport" transform="translate(-624.000000, -96.000000)" fill-rule="nonzero">
            <g id="fan_direction_front_line" transform="translate(624.000000, 96.000000)">
                 <path d="M24,0 L24,24 L0,24 L0,0 L24,0 Z M12.5934901,23.257841 L12.5819402,23.2595131 L12.5108777,23.2950439 L12.4918791,23.2987469 L12.4918791,23.2987469 L12.4767152,23.2950439 L12.4056548,23.2595131 C12.3958229,23.2563662 12.3870493,23.2590235 12.3821421,23.2649074 L12.3780323,23.275831 L12.360941,23.7031097 L12.3658947,23.7234994 L12.3769048,23.7357139 L12.4804777,23.8096931 L12.4953491,23.8136134 L12.4953491,23.8136134 L12.5071152,23.8096931 L12.6106902,23.7357139 L12.6232938,23.7196733 L12.6232938,23.7196733 L12.6266527,23.7031097 L12.609561,23.275831 C12.6075724,23.2657013 12.6010112,23.2592993 12.5934901,23.257841 L12.5934901,23.257841 Z M12.8583906,23.1452862 L12.8445485,23.1473072 L12.6598443,23.2396597 L12.6498822,23.2499052 L12.6498822,23.2499052 L12.6471943,23.2611114 L12.6650943,23.6906389 L12.6699349,23.7034178 L12.6699349,23.7034178 L12.678386,23.7104931 L12.8793402,23.8032389 C12.8914285,23.8068999 12.9022333,23.8029875 12.9078286,23.7952264 L12.9118235,23.7811639 L12.8776777,23.1665331 C12.8752882,23.1545897 12.8674102,23.1470016 12.8583906,23.1452862 L12.8583906,23.1452862 Z M12.1430473,23.1473072 C12.1332178,23.1423925 12.1221763,23.1452606 12.1156365,23.1525954 L12.1099173,23.1665331 L12.0757714,23.7811639 C12.0751323,23.7926639 12.0828099,23.8018602 12.0926481,23.8045676 L12.108256,23.8032389 L12.3092106,23.7104931 L12.3186497,23.7024347 L12.3186497,23.7024347 L12.3225043,23.6906389 L12.340401,23.2611114 L12.337245,23.2485176 L12.337245,23.2485176 L12.3277531,23.2396597 L12.1430473,23.1473072 Z" id="MingCute" fill-rule="nonzero"></path>
                <path d="M17.9829,8.05132 C18.5068,8.22596 18.79,8.79228 18.6153,9.31623 L18.0883,10.8974 C17.2716,13.3474 14.9788,15 12.3962,15 L9.85408,15 C9.09653,15 8.40401,15.428 8.06522,16.1056 L5.8944,20.4472 C5.64741,20.9412 5.04674,21.1414 4.55276,20.8944 C4.05878,20.6474 3.85856,20.0468 4.10555,19.5528 L6.27637,15.2111 C6.95394,13.856 8.33899,13 9.85408,13 L12.3962,13 C14.1179,13 15.6465,11.8983 16.1909,10.2649 L16.718,8.68377 C16.8926,8.15983 17.4589,7.87667 17.9829,8.05132 Z M7.61167153,4.08838231 L7.70588,4.17157 L9.8272,6.29289 C10.0147,6.48043 10.1201,6.73478 10.1201,7 C10.1201,7.22101667 10.0469056,7.43448472 9.91400046,7.60803148 L9.8272,7.70711 L7.70588,9.82843 C7.31535,10.219 6.68219,10.219 6.29167,9.82843 C5.93118077,9.46794077 5.90345083,8.90071355 6.20848018,8.50841848 L6.29167,8.41421 L7.70588,7 L6.29167,5.58579 C5.90114,5.19526 5.90114,4.5621 6.29167,4.17157 C6.65215,3.81109 7.21937651,3.78336077 7.61167153,4.08838231 Z M18.5,3 C19.3284,3 20,3.67157 20,4.5 C20,5.32843 19.3284,6 18.5,6 C17.6715,6 17,5.32843 17,4.5 C17,3.67157 17.6715,3 18.5,3 Z" id="形状" fill="#09244B"></path>
            </g>
        </g>
    </g>
</svg>