<?xml version="1.0" encoding="UTF-8"?>
<svg width="24px" height="24px" viewBox="0 0 24 24" version="1.1" xmlns="http://www.w3.org/2000/svg" xmlns:xlink="http://www.w3.org/1999/xlink">
    <title>flight_land_fill</title>
    <g id="页面-1" stroke="none" stroke-width="1" fill="none" fill-rule="evenodd">
        <g id="Transport" transform="translate(-576.000000, -48.000000)" fill-rule="nonzero">
            <g id="flight_land_fill" transform="translate(576.000000, 48.000000)">
                <rect id="矩形" x="0" y="0" width="24" height="24"></rect>
                <path d="M21,20.0001 C21.5523,20.0001 22,20.4478 22,21.0001 C22,21.5524 21.5523,22.0001 21,22.0001 L21,22.0001 L3,22.0001 C2.44772,22.0001 2,21.5524 2,21.0001 C2,20.4478 2.44772,20.0001 3,20.0001 L3,20.0001 Z M9.73792,2.10608 L11.6273,2.61232 C12.0933,2.73719 12.4708,3.07858 12.6417,3.52973 L15.6425,11.4496 C15.6436,11.4524 15.6458,11.4545 15.6486,11.4555 L20.0323,12.9991 C21.1105,13.3788 21.8792,14.3382 22.0147,15.4732 C22.0635,15.8817 22.1229,16.2805 21.8232,16.6185 C21.0913,17.4439 19.9558,17.7849 18.8902,17.4994 L3.77109,13.4482 C3.16326,13.2853 2.7217,12.7604 2.66534,12.1337 L2.25099,7.52583 C2.21986,7.17966 2.54267,6.90813 2.87839,6.99808 L4.50241,7.43324 C4.98685,7.56304 5.37436,7.92637 5.53508,8.40145 L5.85358,9.34295 C5.85477,9.34649 5.85785,9.34907 5.86154,9.34963 L10.3181,10.0284 C10.3248,10.0294 10.3306,10.0236 10.3295,10.0169 L9.11521,2.67058 C9.05594,2.31202 9.38688,2.01202 9.73792,2.10608 Z" id="形状结合" fill="#09244B"></path>
            </g>
        </g>
    </g>
</svg>