<?xml version="1.0" encoding="UTF-8"?>
<svg width="24px" height="24px" viewBox="0 0 24 24" version="1.1" xmlns="http://www.w3.org/2000/svg" xmlns:xlink="http://www.w3.org/1999/xlink">
    <title>flight_takeoff_line</title>
    <g id="页面-1" stroke="none" stroke-width="1" fill="none" fill-rule="evenodd">
        <g id="Transport" transform="translate(-624.000000, 0.000000)">
            <g id="flight_takeoff_line" transform="translate(624.000000, 0.000000)">
                <rect id="矩形" fill-rule="nonzero" x="0" y="0" width="24" height="24"></rect>
                <path d="M20.9999,20 C21.5522,20 21.9999,20.4477 21.9999,21 C21.9999,21.51285 21.613873,21.9355092 21.1165239,21.9932725 L20.9999,22 L2.99988,22 C2.44759,22 1.99988,21.5523 1.99988,21 C1.99988,20.48715 2.38591566,20.0644908 2.8832579,20.0067275 L2.99988,20 L20.9999,20 Z M7.26152,3.77234 C7.60270875,3.68092 7.96415594,3.73859781 8.25798121,3.92633426 L8.37951,4.0147 L14.564,9.10597 L18.3962,8.41394 C19.7562,8.16834 21.1459,8.64954 22.0628,9.68357 C22.5196,10.1987 22.7144,10.8812 22.4884,11.5492 C22.1394625,12.580825 21.3287477,13.3849891 20.3041894,13.729249 L20.0965,13.7919 L5.02028,17.8315 C4.629257,17.93626 4.216283,17.817298 3.94116938,17.5298722 L3.85479,17.4279 L0.678249,13.1819 C0.275408529,12.6434529 0.504260903,11.8823125 1.10803202,11.640394 L1.22557,11.6013 L3.49688,10.9927 C3.85572444,10.8966111 4.23617877,10.9655 4.53678409,11.1757683 L4.64557,11.2612 L5.44206,11.9612 L7.83692,11.0255 L3.97034,6.11174 C3.54687,5.57357667 3.77335565,4.79203787 4.38986791,4.54876405 L4.50266,4.51158 L7.26152,3.77234 Z M7.40635,5.80409 L6.47052,6.05484 L10.2339,10.8375 C10.6268063,11.3368125 10.463277,12.0589277 9.92111759,12.3504338 L9.80769,12.4028 L5.60866,14.0433 C5.29604667,14.1654333 4.9460763,14.123537 4.67296914,13.9376276 L4.57438,13.8612 L3.6268,13.0285 L3.15564,13.1547 L5.09121,15.7419 L19.5789,11.86 C20.0227,11.7411 20.3838,11.4227 20.5587,11.0018 C20.142625,10.53815 19.5333701,10.3022153 18.9191086,10.3592364 L18.7516,10.3821 L14.4682,11.1556 C14.218,11.2007714 13.9615551,11.149698 13.7491184,11.0154781 L13.6468,10.9415 L7.40635,5.80409 Z" id="形状" fill="#09244B"></path>
            </g>
        </g>
    </g>
</svg>