<?xml version="1.0" encoding="UTF-8"?>
<svg width="24px" height="24px" viewBox="0 0 24 24" version="1.1" xmlns="http://www.w3.org/2000/svg" xmlns:xlink="http://www.w3.org/1999/xlink">
    <title>flight_land_line</title>
    <g id="页面-1" stroke="none" stroke-width="1" fill="none" fill-rule="evenodd">
        <g id="Transport" transform="translate(-576.000000, 0.000000)">
            <g id="flight_land_line" transform="translate(576.000000, 0.000000)">
                <rect id="矩形" fill-rule="nonzero" x="0" y="0" width="24" height="24"></rect>
                <path d="M20.99989,20.0001 C21.5522,20.0001 21.99989,20.4478 21.99989,21.0001 C21.99989,21.51295 21.6138716,21.9356092 21.1165158,21.9933725 L20.99989,22.0001 L2.99989,22.0001 C2.4476,22.0001 1.99989,21.5524 1.99989,21.0001 C1.99989,20.48725 2.38592566,20.0645908 2.8832679,20.0068275 L2.99989,20.0001 L20.99989,20.0001 Z M8.10346,3.20538 C8.00550211,2.52548211 8.59636283,1.96050997 9.25436746,2.06249271 L9.36455,2.08576 L12.1234,2.82499 C12.4699778,2.91787 12.7577704,3.15444975 12.9168957,3.47137892 L12.9704,3.59387 L15.7807,11.0953 L19.4455,12.4121 C20.7461,12.8794 21.709,13.991 21.9861,15.3449 C22.1241,16.0194 21.9516,16.7079 21.4218,17.1734 C20.6038313,17.8923687 19.4996906,18.183398 18.4402863,17.9692815 L18.2291,17.9197 L3.15287,13.8799 C2.75789727,13.7740818 2.45767661,13.459338 2.36633273,13.0674492 L2.34531,12.9477 L1.71732,7.68232 C1.63740111,7.01225556 2.22049639,6.4660062 2.86699575,6.56318572 L2.98162,6.58712 L5.25293,7.19571 C5.61177444,7.29186111 5.90680062,7.54177815 6.06199513,7.87418144 L6.11349,8.00256 L6.45329,9.00701 L8.99512,9.39414 L8.10346,3.20538 Z M10.2971,4.4062 L11.165,10.4298 C11.2559176,11.0610471 10.7489114,11.6064588 10.1303657,11.5834026 L10.0132,11.5723 L5.5565,10.8935 C5.22469556,10.8429222 4.94258198,10.6316333 4.79900425,10.3341508 L4.75183,10.2187 L4.34758,9.02368 L3.87642,8.89743 L4.25907,12.1058 L18.7467,15.9878 C19.1906,16.1067 19.6625,16.0115 20.0243,15.7345 C19.8949769,15.1206538 19.4803805,14.6088858 18.9139056,14.3528832 L18.7692,14.2943 L14.673,12.8225 C14.4336857,12.7364429 14.2371306,12.5639857 14.1203003,12.3415274 L14.0687,12.2263 L11.233,4.65695 L10.2971,4.4062 Z" id="形状" fill="#09244B"></path>
            </g>
        </g>
    </g>
</svg>