<?xml version="1.0" encoding="UTF-8"?>
<svg width="24px" height="24px" viewBox="0 0 24 24" version="1.1" xmlns="http://www.w3.org/2000/svg" xmlns:xlink="http://www.w3.org/1999/xlink">
    <title>flight_takeoff_fill</title>
    <g id="页面-1" stroke="none" stroke-width="1" fill="none" fill-rule="evenodd">
        <g id="Transport" transform="translate(-624.000000, -48.000000)" fill-rule="nonzero">
            <g id="flight_takeoff_fill" transform="translate(624.000000, 48.000000)">
                <rect id="矩形" x="0" y="0" width="24" height="24"></rect>
                <path d="M21.0001,20 C21.5524,20 22.0001,20.4477 22.0001,21 C22.0001,21.51285 21.614073,21.9355092 21.1167239,21.9932725 L21.0001,22 L3.00008,22 C2.44779,22 2.00008,21.5523 2.00008,21 C2.00008,20.48715 2.38611566,20.0644908 2.8834579,20.0067275 L3.00008,20 L21.0001,20 Z M7.93041,4.17678 L14.492975,9.53711375 L14.492975,9.53711375 L19.0655,8.68222 C20.1891,8.47192 21.3346,8.91842 22.0194,9.83365 L22.1805778,10.0527357 C22.3605123,10.3095728 22.4965889,10.5770333 22.4262,10.9212 C22.205,12.002 21.3922,12.8651 20.3266,13.1506 L5.20745,17.2017 C4.59963,17.3646 3.95476,17.1308 3.59258,16.6162 L0.929819,12.8329 C0.72978,12.5486 0.873576,12.1521 1.20929,12.0621 L2.83331,11.627 C3.31775,11.4972 3.83501,11.6181 4.21174,11.9491 L4.95832,12.6052 L4.96856,12.607 L4.96856,12.607 L9.16743,10.9666 C9.17376,10.9641 9.17583,10.9562 9.17152,10.9509 L4.44679,5.19599 C4.21618,4.9151 4.35278,4.48982 4.70382,4.39576 L6.59315,3.88951 C7.05916,3.76464 7.55679,3.87154 7.93041,4.17678 Z" id="形状" fill="#09244B"></path>
            </g>
        </g>
    </g>
</svg>