<?xml version="1.0" encoding="UTF-8"?>
<svg width="24px" height="24px" viewBox="0 0 24 24" version="1.1" xmlns="http://www.w3.org/2000/svg" xmlns:xlink="http://www.w3.org/1999/xlink">
    <title>front_windshield_defroster_line</title>
    <g id="页面-1" stroke="none" stroke-width="1" fill="none" fill-rule="evenodd">
        <g id="Transport" transform="translate(-864.000000, -96.000000)" fill-rule="nonzero">
            <g id="front_windshield_defroster_line" transform="translate(864.000000, 96.000000)">
                 <path d="M24,0 L24,24 L0,24 L0,0 L24,0 Z M12.5934901,23.257841 L12.5819402,23.2595131 L12.5108777,23.2950439 L12.4918791,23.2987469 L12.4918791,23.2987469 L12.4767152,23.2950439 L12.4056548,23.2595131 C12.3958229,23.2563662 12.3870493,23.2590235 12.3821421,23.2649074 L12.3780323,23.275831 L12.360941,23.7031097 L12.3658947,23.7234994 L12.3769048,23.7357139 L12.4804777,23.8096931 L12.4953491,23.8136134 L12.4953491,23.8136134 L12.5071152,23.8096931 L12.6106902,23.7357139 L12.6232938,23.7196733 L12.6232938,23.7196733 L12.6266527,23.7031097 L12.609561,23.275831 C12.6075724,23.2657013 12.6010112,23.2592993 12.5934901,23.257841 L12.5934901,23.257841 Z M12.8583906,23.1452862 L12.8445485,23.1473072 L12.6598443,23.2396597 L12.6498822,23.2499052 L12.6498822,23.2499052 L12.6471943,23.2611114 L12.6650943,23.6906389 L12.6699349,23.7034178 L12.6699349,23.7034178 L12.678386,23.7104931 L12.8793402,23.8032389 C12.8914285,23.8068999 12.9022333,23.8029875 12.9078286,23.7952264 L12.9118235,23.7811639 L12.8776777,23.1665331 C12.8752882,23.1545897 12.8674102,23.1470016 12.8583906,23.1452862 L12.8583906,23.1452862 Z M12.1430473,23.1473072 C12.1332178,23.1423925 12.1221763,23.1452606 12.1156365,23.1525954 L12.1099173,23.1665331 L12.0757714,23.7811639 C12.0751323,23.7926639 12.0828099,23.8018602 12.0926481,23.8045676 L12.108256,23.8032389 L12.3092106,23.7104931 L12.3186497,23.7024347 L12.3186497,23.7024347 L12.3225043,23.6906389 L12.340401,23.2611114 L12.337245,23.2485176 L12.337245,23.2485176 L12.3277531,23.2396597 L12.1430473,23.1473072 Z" id="MingCute" fill-rule="nonzero"></path>
                <path d="M10.6246,10.2191 C11.0559,10.5641 11.1258,11.1934 10.7808,11.6247 L10.5477,11.9161 C9.89832833,12.7277556 9.92345948,13.8780941 10.5838703,14.6590608 L10.707,14.7929 C12.206,16.2918 12.3381,18.6781 11.0139,20.3333 L10.7808,20.6247 C10.4358,21.056 9.80651,21.1259 9.37525,20.7809 C8.94398,20.4359 8.87406,19.8066 9.21907,19.3753 L9.45217,19.0839 C10.1015983,18.2722444 10.076399,17.1219059 9.41597198,16.3409392 L9.29284,16.2071 C7.79393,14.7082 7.66176,12.3219 8.98598,10.6667 L9.21907,10.3753 C9.56408,9.94404 10.1934,9.87412 10.6246,10.2191 Z M13.2191,10.3753 C13.5641,9.94404 14.1934,9.87412 14.6246,10.2191 C15.0227231,10.5375615 15.1129077,11.0982669 14.8530746,11.521874 L14.7808,11.6247 L14.5477,11.9161 C13.8983,12.7277556 13.9235009,13.8780941 14.5838775,14.6590608 L14.707,14.7929 C16.1543103,16.2401138 16.3273643,18.5145828 15.145695,20.1595308 L15.0139,20.3333 L14.7808,20.6247 C14.4358,21.056 13.8065,21.1259 13.3752,20.7809 C12.9771692,20.4624385 12.8869917,19.9017331 13.1468253,19.478126 L13.2191,19.3753 L13.4522,19.0839 C14.1016,18.2722444 14.0763991,17.1219059 13.4159383,16.3409392 L13.2928,16.2071 C11.8455862,14.7598862 11.6725356,12.4854172 12.854205,10.8404692 L12.986,10.6667 L13.2191,10.3753 Z M11.9999,4 C15.2271667,4 17.5339889,4.47804444 19.0815815,4.99278519 L19.4849494,5.13374726 L19.4849494,5.13374726 L19.8513964,5.27453943 C19.9094345,5.29788011 19.9659645,5.3211308 20.0210016,5.34425008 L20.3334296,5.481057 C20.3825554,5.50348477 20.4302186,5.52569822 20.4764342,5.5476559 L20.7364785,5.67600109 C20.7769646,5.69676988 20.8160333,5.7172 20.8537,5.73725 C21.7486,6.21358 21.9805,7.23309 21.6817,8.03011 L18.9363,15.3511 C18.7424,15.8682 18.1659,16.1302 17.6488,15.9363 C17.1317,15.7424 16.8697,15.166 17.0636,14.6489 L19.7711,7.42885 L19.5616523,7.32755328 L19.5616523,7.32755328 L19.3188061,7.21892955 L19.3188061,7.21892955 L19.0418251,7.10489155 L19.0418251,7.10489155 L18.7299734,6.98735203 C18.6750514,6.96757658 18.6186457,6.94773493 18.560741,6.92786694 L18.1952031,6.80866154 L18.1952031,6.80866154 L17.7929541,6.69073651 C17.7228125,6.67129529 17.6511106,6.65198713 17.577833,6.63285185 L17.1191375,6.52043375 C17.0394961,6.50214945 16.9582484,6.48411775 16.875379,6.46637849 L16.3585807,6.363771 C15.1961569,6.15043971 13.7544938,6 11.9999,6 C9.840455,6 8.154995,6.227885 6.88073375,6.52043375 L6.42203809,6.63285185 C6.34876043,6.65198713 6.27705836,6.67129529 6.20691654,6.69073651 L5.80466613,6.80866154 L5.80466613,6.80866154 L5.43912616,6.92786694 L5.43912616,6.92786694 L5.10956085,7.04643993 C5.05759031,7.06604314 5.00708806,7.08554029 4.95803877,7.10489155 L4.68105588,7.21892955 L4.68105588,7.21892955 L4.43820822,7.32755328 L4.43820822,7.32755328 L4.22876,7.42885 L4.22876,7.42885 L6.93627,14.6489 C7.13019,15.166 6.86819,15.7424 6.35107,15.9363 C5.83395,16.1302 5.25753,15.8682 5.06361,15.3511 L2.31823,8.03011 C2.01935,7.23309 2.25132,6.21358 3.14614,5.73726 L3.38908708,5.61272845 C3.43242295,5.5913235 3.47719126,5.56962134 3.52340714,5.54766341 L3.81819432,5.41317827 C3.92232771,5.36754789 4.03237245,5.32122605 4.14844962,5.27454432 L4.51489949,5.1337511 L4.51489949,5.1337511 L4.91827037,4.99278815 C6.46587333,4.47804444 8.7727,4 11.9999,4 Z" id="形状" fill="#09244B"></path>
            </g>
        </g>
    </g>
</svg>