<?xml version="1.0" encoding="UTF-8"?>
<svg width="24px" height="24px" viewBox="0 0 24 24" version="1.1" xmlns="http://www.w3.org/2000/svg" xmlns:xlink="http://www.w3.org/1999/xlink">
    <title>gas_station_line</title>
    <g id="页面-1" stroke="none" stroke-width="1" fill="none" fill-rule="evenodd">
        <g id="Transport" transform="translate(-672.000000, 0.000000)">
            <g id="gas_station_line" transform="translate(672.000000, 0.000000)">
                <rect id="矩形" fill-rule="nonzero" x="0" y="0" width="24" height="24"></rect>
                <path d="M5,3 C3.89543,3 3,3.89543 3,5 L3,19 C2.44772,19 2,19.4477 2,20 C2,20.5523 2.44772,21 3,21 L15,21 C15.5523,21 16,20.5523 16,20 C16,19.4477 15.5523,19 15,19 L15,14 L16,14 L16,16.5 C16,17.8807 17.1193,19 18.5,19 C19.8807,19 21,17.8807 21,16.5 L21,10.4142 C21,9.88378 20.7893,9.37507 20.4142,9 L17.7071,6.29289 C17.3166,5.90237 16.6834,5.90237 16.2929,6.29289 C15.9024,6.68342 15.9024,7.31658 16.2929,7.70711 L17.3939,8.80814 C17.3676,8.84359 17.3424,8.87996 17.3185,8.91722 C17.1313,9.20781 17.0227,9.54194 17.0032,9.88702 C16.9837,10.2321 17.0539,10.5764 17.2071,10.8862 C17.3602,11.196 17.591,11.4609 17.877,11.655 C18.1631,11.849 18.4945,11.9657 18.839,11.9935 C18.8927,11.9978 18.9464,12 19,12 L19,16.5 C19,16.7761 18.7761,17 18.5,17 C18.2239,17 18,16.7761 18,16.5 L18,14 C18,12.8954 17.1046,12 16,12 L15,12 L15,5 C15,3.89543 14.1046,3 13,3 L5,3 Z M13,11 L13,5 L5,5 L5,11 L13,11 Z M5,13 L13,13 L13,19 L5,19 L5,13 Z" id="形状" fill="#09244B"></path>
            </g>
        </g>
    </g>
</svg>