<?xml version="1.0" encoding="UTF-8"?>
<svg width="24px" height="24px" viewBox="0 0 24 24" version="1.1" xmlns="http://www.w3.org/2000/svg" xmlns:xlink="http://www.w3.org/1999/xlink">
    <title>jeep_fill</title>
    <g id="页面-1" stroke="none" stroke-width="1" fill="none" fill-rule="evenodd">
        <g id="Transport" transform="translate(0.000000, -240.000000)">
            <g id="jeep_fill" transform="translate(0.000000, 240.000000)">
                 <path d="M24,0 L24,24 L0,24 L0,0 L24,0 Z M12.5934901,23.257841 L12.5819402,23.2595131 L12.5108777,23.2950439 L12.4918791,23.2987469 L12.4918791,23.2987469 L12.4767152,23.2950439 L12.4056548,23.2595131 C12.3958229,23.2563662 12.3870493,23.2590235 12.3821421,23.2649074 L12.3780323,23.275831 L12.360941,23.7031097 L12.3658947,23.7234994 L12.3769048,23.7357139 L12.4804777,23.8096931 L12.4953491,23.8136134 L12.4953491,23.8136134 L12.5071152,23.8096931 L12.6106902,23.7357139 L12.6232938,23.7196733 L12.6232938,23.7196733 L12.6266527,23.7031097 L12.609561,23.275831 C12.6075724,23.2657013 12.6010112,23.2592993 12.5934901,23.257841 L12.5934901,23.257841 Z M12.8583906,23.1452862 L12.8445485,23.1473072 L12.6598443,23.2396597 L12.6498822,23.2499052 L12.6498822,23.2499052 L12.6471943,23.2611114 L12.6650943,23.6906389 L12.6699349,23.7034178 L12.6699349,23.7034178 L12.678386,23.7104931 L12.8793402,23.8032389 C12.8914285,23.8068999 12.9022333,23.8029875 12.9078286,23.7952264 L12.9118235,23.7811639 L12.8776777,23.1665331 C12.8752882,23.1545897 12.8674102,23.1470016 12.8583906,23.1452862 L12.8583906,23.1452862 Z M12.1430473,23.1473072 C12.1332178,23.1423925 12.1221763,23.1452606 12.1156365,23.1525954 L12.1099173,23.1665331 L12.0757714,23.7811639 C12.0751323,23.7926639 12.0828099,23.8018602 12.0926481,23.8045676 L12.108256,23.8032389 L12.3092106,23.7104931 L12.3186497,23.7024347 L12.3186497,23.7024347 L12.3225043,23.6906389 L12.340401,23.2611114 L12.337245,23.2485176 L12.337245,23.2485176 L12.3277531,23.2396597 L12.1430473,23.1473072 Z" id="MingCute" fill-rule="nonzero"></path>
                <path d="M13,6 C13.9443,6 14.8334,6.44458 15.4,7.2 L17.5453,10.0604 L20.2481,10.3982 C21.2489,10.5233 22,11.3741 22,12.3828 L22,15 C22,16.6569 20.6569,18 19,18 L18.8293,18 C18.4175,19.1652 17.3062,20 16,20 C14.6938,20 13.5825,19.1652 13.1707,18 L9.82929,18 C9.41746,19.1652 8.30622,20 7,20 C5.64623,20 4.5019,19.1033 4.12854,17.8715 C2.89669,17.4981 2,16.3538 2,15 L2,11.2361 C2,10.9256 2.07229,10.6194 2.21115,10.3416 L3.55279,7.65836 C4.06096,6.64201 5.09975,6 6.23607,6 L13,6 Z M7,16 C6.44772,16 6,16.4477 6,17 C6,17.5523 6.44772,18 7,18 C7.55228,18 8,17.5523 8,17 C8,16.4477 7.55228,16 7,16 Z M16,16 C15.4477,16 15,16.4477 15,17 C15,17.5523 15.4477,18 16,18 C16.5523,18 17,17.5523 17,17 C17,16.4477 16.5523,16 16,16 Z M9,8 L6.23607,8 C5.8573,8 5.51103,8.214 5.34164,8.55279 L4.61803,10 L9,10 L9,8 Z M13,8 L11,8 L11,10 L15,10 L13.8,8.4 C13.6111,8.14819 13.3148,8 13,8 Z" id="形状" fill="#09244B"></path>
            </g>
        </g>
    </g>
</svg>