<svg xmlns="http://www.w3.org/2000/svg" width="24" height="24" viewBox="0 0 24 24"><g fill="none" fill-rule="evenodd"><rect width="24" height="24"/><path fill="#09244B" d="M12.8676,5 C13.9214,5 14.8979,5.5529 15.4401,6.45651 L17.607,10.0681 L20.2481,10.3982 C21.2489,10.5233 22,11.3741 22,12.3828 L22,15 C22,16.3538 21.1033,17.4981 19.8715,17.8715 C19.4981,19.1033 18.3538,20 17,20 C15.6938,20 14.5825,19.1652 14.1707,18 L9.82929,18 C9.41746,19.1652 8.30622,20 7,20 C5.64623,20 4.5019,19.1033 4.12854,17.8715 C2.89669,17.4981 2,16.3538 2,15 L2,11.1926 C2,10.9381 2.04855,10.686 2.14305,10.4498 L3.56864,6.88583 C4.02423,5.74685 5.12735,5 6.35407,5 L12.8676,5 Z M17,16 C16.4477,16 16,16.4477 16,17 C16,17.5523 16.4477,18 17,18 C17.5523,18 18,17.5523 18,17 C18,16.4477 17.5523,16 17,16 Z M7,16 C6.44772,16 6,16.4477 6,17 C6,17.5523 6.44772,18 7,18 C7.55228,18 8,17.5523 8,17 C8,16.4477 7.55228,16 7,16 Z M17,11.9738 L17,12 L4,12 L4,15 C4,15.2759 4.11171,15.5257 4.29237,15.7066 C4.77542,14.6972 5.80629,14 7,14 C8.240909,14 9.30584855,14.753407 9.76233298,15.827761 L9.82929,16 L14.1707,16 C14.5825,14.8348 15.6938,14 17,14 C18.1937,14 19.2246,14.6972 19.7076,15.7066 C19.8581833,15.55585 19.96085,15.3572528 19.9908894,15.1355769 L20,15 L20,12.3828 L17.359,12.0527 C17.2770667,12.0424333 17.1963778,12.0271889 17.1173185,12.0072333 L17,11.9738 Z M12.8676,7 L11,7 L11,10 L15.2338,10 L13.7251,7.4855 C13.5444,7.1843 13.2189,7 12.8676,7 Z M9,7 L6.35407,7 C5.94516,7 5.57745,7.24895 5.42559,7.62861 L4.47703,10 L9,10 L9,7 Z"/></g></svg>