<?xml version="1.0" encoding="UTF-8"?>
<svg width="24px" height="24px" viewBox="0 0 24 24" version="1.1" xmlns="http://www.w3.org/2000/svg" xmlns:xlink="http://www.w3.org/1999/xlink">
    <title>jeep_line</title>
    <g id="页面-1" stroke="none" stroke-width="1" fill="none" fill-rule="evenodd">
        <g id="Transport" transform="translate(0.000000, -192.000000)">
            <g id="jeep_line" transform="translate(0.000000, 192.000000)">
                 <path d="M24,0 L24,24 L0,24 L0,0 L24,0 Z M12.5934901,23.257841 L12.5819402,23.2595131 L12.5108777,23.2950439 L12.4918791,23.2987469 L12.4918791,23.2987469 L12.4767152,23.2950439 L12.4056548,23.2595131 C12.3958229,23.2563662 12.3870493,23.2590235 12.3821421,23.2649074 L12.3780323,23.275831 L12.360941,23.7031097 L12.3658947,23.7234994 L12.3769048,23.7357139 L12.4804777,23.8096931 L12.4953491,23.8136134 L12.4953491,23.8136134 L12.5071152,23.8096931 L12.6106902,23.7357139 L12.6232938,23.7196733 L12.6232938,23.7196733 L12.6266527,23.7031097 L12.609561,23.275831 C12.6075724,23.2657013 12.6010112,23.2592993 12.5934901,23.257841 L12.5934901,23.257841 Z M12.8583906,23.1452862 L12.8445485,23.1473072 L12.6598443,23.2396597 L12.6498822,23.2499052 L12.6498822,23.2499052 L12.6471943,23.2611114 L12.6650943,23.6906389 L12.6699349,23.7034178 L12.6699349,23.7034178 L12.678386,23.7104931 L12.8793402,23.8032389 C12.8914285,23.8068999 12.9022333,23.8029875 12.9078286,23.7952264 L12.9118235,23.7811639 L12.8776777,23.1665331 C12.8752882,23.1545897 12.8674102,23.1470016 12.8583906,23.1452862 L12.8583906,23.1452862 Z M12.1430473,23.1473072 C12.1332178,23.1423925 12.1221763,23.1452606 12.1156365,23.1525954 L12.1099173,23.1665331 L12.0757714,23.7811639 C12.0751323,23.7926639 12.0828099,23.8018602 12.0926481,23.8045676 L12.108256,23.8032389 L12.3092106,23.7104931 L12.3186497,23.7024347 L12.3186497,23.7024347 L12.3225043,23.6906389 L12.340401,23.2611114 L12.337245,23.2485176 L12.337245,23.2485176 L12.3277531,23.2396597 L12.1430473,23.1473072 Z" id="MingCute" fill-rule="nonzero"></path>
                <path d="M13,6 C13.87685,6 14.7061041,6.38333684 15.2737469,7.04293078 L15.4,7.2 L17.5453,10.0604 L20.2481,10.3982 C21.1962263,10.5167158 21.9202452,11.2865524 21.9938313,12.2249265 L22,12.3828 L22,15 C22,16.597725 20.7511226,17.903664 19.1762773,17.9949075 L19,18 L18.8293,18 C18.4175,19.1652 17.3062,20 16,20 C14.75911,20 13.6941172,19.246593 13.2376532,18.172239 L13.1707,18 L9.82929,18 C9.41746,19.1652 8.30622,20 7,20 C5.64623,20 4.5019,19.1033 4.12854,17.8715 C2.95268318,17.5150727 2.08220975,16.4562345 2.00550526,15.1832578 L2,15 L2,11.2361 C2,10.9877 2.0462656,10.742052 2.13586816,10.5114952 L2.21115,10.3416 L3.55279,7.65836 C4.03106765,6.70179529 4.97937547,6.07682588 6.03664352,6.00660998 L6.23607,6 L13,6 Z M7,16 C6.44772,16 6,16.4477 6,17 C6,17.5523 6.44772,18 7,18 C7.55228,18 8,17.5523 8,17 C8,16.4477 7.55228,16 7,16 Z M16,16 C15.4477,16 15,16.4477 15,17 C15,17.5523 15.4477,18 16,18 C16.5523,18 17,17.5523 17,17 C17,16.4477 16.5523,16 16,16 Z M17,11.9846 L17,12 L4,12 L4,15 C4,15.2759 4.11171,15.5257 4.29237,15.7066 C4.77542,14.6972 5.80629,14 7,14 C8.240909,14 9.30584855,14.753407 9.76233298,15.827761 L9.82929,16 L13.1707,16 C13.5825,14.8348 14.6938,14 16,14 C17.24089,14 18.3058827,14.753407 18.7623468,15.827761 L18.8293,16 L19,16 C19.51285,16 19.9355092,15.613973 19.9932725,15.1166239 L20,15 L20,12.3828 L17.2972,12.0449 L17.1469875,12.0203 L17.1469875,12.0203 L17,11.9846 Z M9,8 L6.23607,8 C5.8573,8 5.51103,8.214 5.34164,8.55279 L4.61803,10 L9,10 L9,8 Z M13,8 L11,8 L11,10 L15,10 L13.8,8.4 C13.6111,8.14819 13.3148,8 13,8 Z" id="形状" fill="#09244B"></path>
            </g>
        </g>
    </g>
</svg>