<?xml version="1.0" encoding="UTF-8"?>
<svg width="24px" height="24px" viewBox="0 0 24 24" version="1.1" xmlns="http://www.w3.org/2000/svg" xmlns:xlink="http://www.w3.org/1999/xlink">
    <title>low_beam_headlights_line</title>
    <g id="页面-1" stroke="none" stroke-width="1" fill="none" fill-rule="evenodd">
        <g id="Transport" transform="translate(-48.000000, -192.000000)">
            <g id="low_beam_headlights_line" transform="translate(48.000000, 192.000000)">
                 <path d="M24,0 L24,24 L0,24 L0,0 L24,0 Z M12.5934901,23.257841 L12.5819402,23.2595131 L12.5108777,23.2950439 L12.4918791,23.2987469 L12.4918791,23.2987469 L12.4767152,23.2950439 L12.4056548,23.2595131 C12.3958229,23.2563662 12.3870493,23.2590235 12.3821421,23.2649074 L12.3780323,23.275831 L12.360941,23.7031097 L12.3658947,23.7234994 L12.3769048,23.7357139 L12.4804777,23.8096931 L12.4953491,23.8136134 L12.4953491,23.8136134 L12.5071152,23.8096931 L12.6106902,23.7357139 L12.6232938,23.7196733 L12.6232938,23.7196733 L12.6266527,23.7031097 L12.609561,23.275831 C12.6075724,23.2657013 12.6010112,23.2592993 12.5934901,23.257841 L12.5934901,23.257841 Z M12.8583906,23.1452862 L12.8445485,23.1473072 L12.6598443,23.2396597 L12.6498822,23.2499052 L12.6498822,23.2499052 L12.6471943,23.2611114 L12.6650943,23.6906389 L12.6699349,23.7034178 L12.6699349,23.7034178 L12.678386,23.7104931 L12.8793402,23.8032389 C12.8914285,23.8068999 12.9022333,23.8029875 12.9078286,23.7952264 L12.9118235,23.7811639 L12.8776777,23.1665331 C12.8752882,23.1545897 12.8674102,23.1470016 12.8583906,23.1452862 L12.8583906,23.1452862 Z M12.1430473,23.1473072 C12.1332178,23.1423925 12.1221763,23.1452606 12.1156365,23.1525954 L12.1099173,23.1665331 L12.0757714,23.7811639 C12.0751323,23.7926639 12.0828099,23.8018602 12.0926481,23.8045676 L12.108256,23.8032389 L12.3092106,23.7104931 L12.3186497,23.7024347 L12.3186497,23.7024347 L12.3225043,23.6906389 L12.340401,23.2611114 L12.337245,23.2485176 L12.337245,23.2485176 L12.3277531,23.2396597 L12.1430473,23.1473072 Z" id="MingCute" fill-rule="nonzero"></path>
                <path d="M16.6123,3.95558 C13.865,2.73456 10.5614,4.2344 10.2314,7.42932 C10.0969,8.73095 10,10.2693 10,12 C10,13.7307 10.0969,15.269 10.2314,16.5707 C10.5614,19.7656 13.865,21.2654 16.6123,20.0444 L16.8371,19.9445 C19.9767,18.5491 22,15.4357 22,12 C22,8.5643 19.9767,5.45086 16.8371,4.05549 L16.6123,3.95558 Z M12.2208,7.63481 C12.3903,5.99343 14.1044,5.02957 15.8,5.78321 L16.0248,5.88312 C18.4421,6.95748 20,9.35468 20,12 C20,14.6453 18.4421,17.0425 16.0248,18.1169 L15.8,18.2168 C14.1044,18.9704 12.3903,18.0066 12.2208,16.3652 C12.0928,15.1258 12,13.6563 12,12 C12,10.3437 12.0928,8.87417 12.2208,7.63481 Z M8.37141,6.92847 C8.8842,6.72336 9.13361,6.14139 8.9285,5.62861 C8.72339,5.11582 8.14141,4.86641 7.62863,5.07152 L2.62863,7.07152 C2.11585,7.27663 1.86643,7.8586 2.07155,8.37139 C2.27666,8.88417 2.85863,9.13359 3.37141,8.92847 L8.37141,6.92847 Z M8.9285,10.6286 C9.13361,11.1414 8.8842,11.7234 8.37141,11.9285 L3.37141,13.9285 C2.85863,14.1336 2.27666,13.8842 2.07155,13.3714 C1.86643,12.8586 2.11585,12.2766 2.62863,12.0715 L7.62863,10.0715 C8.14141,9.86641 8.72339,10.1158 8.9285,10.6286 Z M8.37141,16.9285 C8.8842,16.7234 9.13361,16.1414 8.9285,15.6286 C8.72339,15.1158 8.14141,14.8664 7.62863,15.0715 L2.62863,17.0715 C2.11585,17.2766 1.86643,17.8586 2.07155,18.3714 C2.27666,18.8842 2.85863,19.1336 3.37141,18.9285 L8.37141,16.9285 Z" id="形状" fill="#09244B"></path>
            </g>
        </g>
    </g>
</svg>