<?xml version="1.0" encoding="UTF-8"?>
<svg width="24px" height="24px" viewBox="0 0 24 24" version="1.1" xmlns="http://www.w3.org/2000/svg" xmlns:xlink="http://www.w3.org/1999/xlink">
    <title>rocket_2_line</title>
    <g id="页面-1" stroke="none" stroke-width="1" fill="none" fill-rule="evenodd">
        <g id="Transport" transform="translate(0.000000, -96.000000)">
            <g id="rocket_2_line" transform="translate(0.000000, 96.000000)">
                 <path d="M24,0 L24,24 L0,24 L0,0 L24,0 Z M12.5934901,23.257841 L12.5819402,23.2595131 L12.5108777,23.2950439 L12.4918791,23.2987469 L12.4918791,23.2987469 L12.4767152,23.2950439 L12.4056548,23.2595131 C12.3958229,23.2563662 12.3870493,23.2590235 12.3821421,23.2649074 L12.3780323,23.275831 L12.360941,23.7031097 L12.3658947,23.7234994 L12.3769048,23.7357139 L12.4804777,23.8096931 L12.4953491,23.8136134 L12.4953491,23.8136134 L12.5071152,23.8096931 L12.6106902,23.7357139 L12.6232938,23.7196733 L12.6232938,23.7196733 L12.6266527,23.7031097 L12.609561,23.275831 C12.6075724,23.2657013 12.6010112,23.2592993 12.5934901,23.257841 L12.5934901,23.257841 Z M12.8583906,23.1452862 L12.8445485,23.1473072 L12.6598443,23.2396597 L12.6498822,23.2499052 L12.6498822,23.2499052 L12.6471943,23.2611114 L12.6650943,23.6906389 L12.6699349,23.7034178 L12.6699349,23.7034178 L12.678386,23.7104931 L12.8793402,23.8032389 C12.8914285,23.8068999 12.9022333,23.8029875 12.9078286,23.7952264 L12.9118235,23.7811639 L12.8776777,23.1665331 C12.8752882,23.1545897 12.8674102,23.1470016 12.8583906,23.1452862 L12.8583906,23.1452862 Z M12.1430473,23.1473072 C12.1332178,23.1423925 12.1221763,23.1452606 12.1156365,23.1525954 L12.1099173,23.1665331 L12.0757714,23.7811639 C12.0751323,23.7926639 12.0828099,23.8018602 12.0926481,23.8045676 L12.108256,23.8032389 L12.3092106,23.7104931 L12.3186497,23.7024347 L12.3186497,23.7024347 L12.3225043,23.6906389 L12.340401,23.2611114 L12.337245,23.2485176 L12.337245,23.2485176 L12.3277531,23.2396597 L12.1430473,23.1473072 Z" id="MingCute" fill-rule="nonzero"></path>
                <path d="M17.6682,11.9886 L18.2876,11.3693 C18.9284,10.7285 19.3829,9.92556 19.6027,9.0464 L20.7078,4.62609 C20.9092,3.82047 20.1795,3.09074 19.3739,3.29215 L14.9536,4.39722 C14.0744,4.61701 13.2715,5.07161 12.6307,5.7124 L8.05017,10.2929 L5.84306,10.2929 C5.44524,10.2929 5.06371,10.451 4.7824,10.7323 L3.05279,12.4619 C2.45409,13.0606 2.61069,14.0638 3.35319,14.4569 C3.83529,14.7122 4.74119,15.2147 5.60207,15.7987 C5.35699,15.8963 5.12731,16.0443 4.92893,16.2426 C4.14788,17.0237 3.33794,20.3085 3.51472,20.4853 C3.69149,20.6621 6.97631,19.8521 7.75736,19.0711 C7.95573,18.8727 8.10372,18.643 8.20132,18.3979 C8.78527,19.2588 9.28776,20.1647 9.54301,20.6468 C9.93614,21.3893 10.9394,21.5459 11.5381,20.9472 L13.2677,19.2176 C13.549,18.9362 13.707,18.5547 13.707,18.1569 L13.707,15.9498 L17.6452,12.0116 C17.653,12.004 17.6607,11.9964 17.6682,11.9886 Z M18.4037,5.59623 L15.4386,6.33751 C15.1846,6.40101 14.9412,6.49718 14.7142,6.62276 C15.197,6.87533 15.7231,7.23803 16.2426,7.75753 C16.762,8.27693 17.1247,8.80293 17.3772,9.28569 C17.5028,9.05868 17.599,8.8153 17.6624,8.56133 L18.4037,5.59623 Z M15.8875,10.9409 C15.787,10.5428 15.5276,9.87093 14.8284,9.17174 C14.129,8.47238 13.457,8.21306 13.0589,8.1126 L9.31794,11.8536 C9.03663,12.1349 8.6551,12.2929 8.25728,12.2929 L6.05017,12.2929 L5.16816,13.1749 C6.15238,13.7409 7.55143,14.6226 8.46438,15.5356 C9.37734,16.4485 10.2591,17.8476 10.825,18.8318 L11.707,17.9498 L11.707,15.7427 C11.707,15.3449 11.8651,14.9633 12.1464,14.682 L15.8875,10.9409 Z" id="形状" fill="#09244B"></path>
            </g>
        </g>
    </g>
</svg>