<?xml version="1.0" encoding="UTF-8"?>
<svg width="24px" height="24px" viewBox="0 0 24 24" version="1.1" xmlns="http://www.w3.org/2000/svg" xmlns:xlink="http://www.w3.org/1999/xlink">
    <title>rocket_fill</title>
    <g id="页面-1" stroke="none" stroke-width="1" fill="none" fill-rule="evenodd">
        <g id="Transport" transform="translate(-48.000000, -144.000000)">
            <g id="rocket_fill" transform="translate(48.000000, 144.000000)">
                 <path d="M24,0 L24,24 L0,24 L0,0 L24,0 Z M12.5934901,23.257841 L12.5819402,23.2595131 L12.5108777,23.2950439 L12.4918791,23.2987469 L12.4918791,23.2987469 L12.4767152,23.2950439 L12.4056548,23.2595131 C12.3958229,23.2563662 12.3870493,23.2590235 12.3821421,23.2649074 L12.3780323,23.275831 L12.360941,23.7031097 L12.3658947,23.7234994 L12.3769048,23.7357139 L12.4804777,23.8096931 L12.4953491,23.8136134 L12.4953491,23.8136134 L12.5071152,23.8096931 L12.6106902,23.7357139 L12.6232938,23.7196733 L12.6232938,23.7196733 L12.6266527,23.7031097 L12.609561,23.275831 C12.6075724,23.2657013 12.6010112,23.2592993 12.5934901,23.257841 L12.5934901,23.257841 Z M12.8583906,23.1452862 L12.8445485,23.1473072 L12.6598443,23.2396597 L12.6498822,23.2499052 L12.6498822,23.2499052 L12.6471943,23.2611114 L12.6650943,23.6906389 L12.6699349,23.7034178 L12.6699349,23.7034178 L12.678386,23.7104931 L12.8793402,23.8032389 C12.8914285,23.8068999 12.9022333,23.8029875 12.9078286,23.7952264 L12.9118235,23.7811639 L12.8776777,23.1665331 C12.8752882,23.1545897 12.8674102,23.1470016 12.8583906,23.1452862 L12.8583906,23.1452862 Z M12.1430473,23.1473072 C12.1332178,23.1423925 12.1221763,23.1452606 12.1156365,23.1525954 L12.1099173,23.1665331 L12.0757714,23.7811639 C12.0751323,23.7926639 12.0828099,23.8018602 12.0926481,23.8045676 L12.108256,23.8032389 L12.3092106,23.7104931 L12.3186497,23.7024347 L12.3186497,23.7024347 L12.3225043,23.6906389 L12.340401,23.2611114 L12.337245,23.2485176 L12.337245,23.2485176 L12.3277531,23.2396597 L12.1430473,23.1473072 Z" id="MingCute" fill-rule="nonzero"></path>
                <path d="M18.1653005,2.7652192 L18.4204,2.79712 C19.0944,2.89032 19.9858,3.01518 20.4914,3.52074 C20.9049909,3.93438 21.0638,4.60628281 21.1589228,5.20610353 L21.215,5.59168 L21.215,5.59168 C21.3408,6.50179 21.3737,7.69437 21.159,9.0182 C20.7351,11.6313 19.3441,14.749 15.8506,17.1629 C15.8320667,17.3511667 15.8306444,17.5406778 15.8349259,17.7305444 L15.8442,18.0155 C15.8607,18.4523 15.8771,18.8885 15.7548,19.3132 C15.56464,19.9736 14.888464,20.408208 14.2558336,20.7203968 L13.9455989,20.8667682 L13.9455989,20.8667682 L13.545635,21.0433141 C12.7974102,21.3607668 11.7872947,21.6867053 11.154,21.0535 C10.7747111,20.6742111 10.617921,20.1180926 10.4908395,19.5647307 L10.4442,19.3577 C10.3837,19.0864 10.3245,18.8212 10.2436,18.5837 C10.1939,18.4379 10.1403,18.2893 10.0822,18.1391 C10.0189,18.2166 9.95104,18.2917 9.87877,18.3639 C9.53364,18.7091 9.01887,18.95 8.59472,19.1185 C8.1317,19.3023 7.60807,19.4625 7.12313,19.5941 L6.87444635,19.6600076 L6.87444635,19.6600076 L6.39745928,19.7785902 L6.39745928,19.7785902 L5.96543922,19.8781687 L5.96543922,19.8781687 L5.44842987,19.9883318 L5.44842987,19.9883318 L5.12525,20.0517 L5.12525,20.0517 C4.83688,20.1054 4.48851,20.0354 4.22659,19.7735 C3.96467,19.5115 3.89463,19.1632 3.94836,18.8748 L4.03389551,18.44386 L4.03389551,18.44386 L4.18768127,17.745936 L4.18768127,17.745936 L4.31155691,17.2368342 L4.31155691,17.2368342 L4.406,16.8769 L4.406,16.8769 C4.53754,16.392 4.69775,15.8684 4.88161,15.4053 C5.05003,14.9812 5.291,14.4664 5.63613,14.1213 L5.7165,14.0438 L5.7165,14.0438 L5.65199,14.0185 C5.49005,13.9551667 5.31495,13.8973 5.13312259,13.8405444 L4.85614,13.7557 C4.16241,13.5451 3.42035,13.3198 2.95865,12.8581 C2.39991579,12.2993895 2.5879572,11.4471817 2.85797944,10.7403891 L2.96878484,10.4664679 L2.96878484,10.4664679 L3.14531419,10.066505 L3.14531419,10.066505 L3.291692,9.75627688 C3.6038952,9.123658 4.038524,8.447482 4.6989,8.25729 C5.049025,8.15645667 5.41317083,8.15076222 5.77899954,8.16090111 L5.9986,8.16825 C6.28457,8.17864 6.57006,8.18901 6.84917,8.16154 C9.26314,4.66797 12.3808,3.277 14.9939,2.85315 C16.1973545,2.65794091 17.2923793,2.66734339 18.1653005,2.7652192 L18.1653005,2.7652192 Z M8.35317918,15.439293 C8.03017449,15.199134 7.59517832,15.1788974 7.25334023,15.3786717 L7.14312591,15.4534117 L7.05034,15.5355 L6.92532128,15.6941428 C6.66497332,16.0697011 6.51710086,16.5897889 6.40169054,17.0758494 L6.29413748,17.5439542 C6.2770276,17.6178769 6.26007859,17.689201 6.24292,17.7571 L6.43407054,17.7109996 L6.43407054,17.7109996 L6.85171171,17.6153585 C7.43036752,17.480462 8.07059364,17.3045545 8.46479,16.9495 C8.82329462,16.5909769 8.85249083,16.0282124 8.55273258,15.636144 L8.47094,15.5419 L8.44742,15.5188 L8.35317918,15.439293 Z M15.5357,8.46453 C14.7546,7.68348 13.4883,7.68348 12.7072,8.46453 C11.9262,9.24558 11.9262,10.5119 12.7072,11.293 C13.4883,12.074 14.7546,12.074 15.5357,11.293 C16.3167,10.5119 16.3167,9.24558 15.5357,8.46453 Z" id="形状" fill="#09244B"></path>
            </g>
        </g>
    </g>
</svg>