<?xml version="1.0" encoding="UTF-8"?>
<svg width="24px" height="24px" viewBox="0 0 24 24" version="1.1" xmlns="http://www.w3.org/2000/svg" xmlns:xlink="http://www.w3.org/1999/xlink">
    <title>rocket_2_fill</title>
    <g id="页面-1" stroke="none" stroke-width="1" fill="none" fill-rule="evenodd">
        <g id="Transport" transform="translate(0.000000, -144.000000)">
            <g id="rocket_2_fill" transform="translate(0.000000, 144.000000)">
                 <path d="M24,0 L24,24 L0,24 L0,0 L24,0 Z M12.5934901,23.257841 L12.5819402,23.2595131 L12.5108777,23.2950439 L12.4918791,23.2987469 L12.4918791,23.2987469 L12.4767152,23.2950439 L12.4056548,23.2595131 C12.3958229,23.2563662 12.3870493,23.2590235 12.3821421,23.2649074 L12.3780323,23.275831 L12.360941,23.7031097 L12.3658947,23.7234994 L12.3769048,23.7357139 L12.4804777,23.8096931 L12.4953491,23.8136134 L12.4953491,23.8136134 L12.5071152,23.8096931 L12.6106902,23.7357139 L12.6232938,23.7196733 L12.6232938,23.7196733 L12.6266527,23.7031097 L12.609561,23.275831 C12.6075724,23.2657013 12.6010112,23.2592993 12.5934901,23.257841 L12.5934901,23.257841 Z M12.8583906,23.1452862 L12.8445485,23.1473072 L12.6598443,23.2396597 L12.6498822,23.2499052 L12.6498822,23.2499052 L12.6471943,23.2611114 L12.6650943,23.6906389 L12.6699349,23.7034178 L12.6699349,23.7034178 L12.678386,23.7104931 L12.8793402,23.8032389 C12.8914285,23.8068999 12.9022333,23.8029875 12.9078286,23.7952264 L12.9118235,23.7811639 L12.8776777,23.1665331 C12.8752882,23.1545897 12.8674102,23.1470016 12.8583906,23.1452862 L12.8583906,23.1452862 Z M12.1430473,23.1473072 C12.1332178,23.1423925 12.1221763,23.1452606 12.1156365,23.1525954 L12.1099173,23.1665331 L12.0757714,23.7811639 C12.0751323,23.7926639 12.0828099,23.8018602 12.0926481,23.8045676 L12.108256,23.8032389 L12.3092106,23.7104931 L12.3186497,23.7024347 L12.3186497,23.7024347 L12.3225043,23.6906389 L12.340401,23.2611114 L12.337245,23.2485176 L12.337245,23.2485176 L12.3277531,23.2396597 L12.1430473,23.1473072 Z" id="MingCute" fill-rule="nonzero"></path>
                <path d="M19.3739,3.29215 C20.1795,3.09074 20.9092,3.82047 20.7078,4.62609 L19.6027,9.0464 C19.3829,9.92556 18.9284,10.7285 18.2876,11.3693 L13.707,15.9498 L13.707,18.1569 C13.707,18.5547 13.549,18.9362 13.2677,19.2176 L11.5381,20.9472 C10.9394,21.5459 9.93614,21.3893 9.54301,20.6468 C9.28775,20.1647 8.78526,19.2588 8.20129,18.3979 C8.10369,18.643 7.95568,18.8727 7.75728,19.0711 C6.97623,19.8522 3.69141,20.6621 3.51464,20.4853 C3.33786,20.3086 4.1478,17.0238 4.92885,16.2427 C5.12726,16.0443 5.35698,15.8963 5.6021,15.7987 C4.74122,15.2147 3.8353,14.7122 3.35319,14.4569 C2.61069,14.0638 2.45409,13.0606 3.05279,12.4619 L4.7824,10.7323 C5.06371,10.451 5.44524,10.2929 5.84306,10.2929 L8.05017,10.2929 L12.6307,5.7124 C13.2715,5.07161 14.0744,4.61701 14.9536,4.39722 L19.3739,3.29215 Z M17.3772,9.28575 C17.1247,8.80297 16.762,8.27693 16.2425,7.7575 C15.7231,7.23804 15.197,6.87535 14.7142,6.62278 C14.4697,6.75799 14.2443,6.92731 14.0449,7.12665 L13.059,8.1126 C13.4571,8.21308 14.129,8.47241 14.8283,9.17171 C15.5276,9.87096 15.7869,10.5429 15.8874,10.941 L16.8733,9.95508 C17.0727,9.75573 17.242,9.53022 17.3772,9.28575 Z" id="形状" fill="#09244B"></path>
            </g>
        </g>
    </g>
</svg>