<svg xmlns="http://www.w3.org/2000/svg" width="24" height="24"><g fill="none" fill-rule="evenodd"><path d="M24 0v24H0V0zM12.594 23.258l-.012.002-.071.035-.02.004-.014-.004-.071-.036c-.01-.003-.019 0-.024.006l-.004.01-.017.428.005.02.01.013.104.074.015.004.012-.004.104-.074.012-.016.004-.017-.017-.427c-.002-.01-.009-.017-.016-.018m.264-.113-.014.002-.184.093-.01.01-.003.011.018.43.005.012.008.008.201.092c.012.004.023 0 .029-.008l.004-.014-.034-.614c-.003-.012-.01-.02-.02-.022m-.715.002a.023.023 0 0 0-.027.006l-.006.014-.034.614c0 .012.007.02.017.024l.015-.002.201-.093.01-.008.003-.011.018-.43-.003-.012-.01-.01z"/><path fill="#09244B" d="M12 2a1 1 0 0 1 .993.883L13 3v1.062a7.957 7.957 0 0 1 3.646 1.425l.26.193.75-.751a1 1 0 0 1 1.498 1.32l-.083.094-.751.751a7.963 7.963 0 0 1 1.57 3.571l.048.335H21a1 1 0 0 1 .117 1.993L21 13h-1.062a7.956 7.956 0 0 1-1.425 3.646l-.193.26.751.75a1 1 0 0 1-1.32 1.498l-.094-.083-.751-.751a7.963 7.963 0 0 1-3.571 1.57l-.335.048V21a1 1 0 0 1-1.993.117L11 21v-1.062a7.956 7.956 0 0 1-3.646-1.425l-.26-.193-.75.751a1 1 0 0 1-1.498-1.32l.083-.094.751-.751a7.963 7.963 0 0 1-1.57-3.571L4.063 13H3a1 1 0 0 1-.117-1.993L3 11h1.062a7.956 7.956 0 0 1 1.425-3.646l.193-.26-.751-.75a1 1 0 0 1 1.32-1.498l.094.083.751.751a7.963 7.963 0 0 1 3.571-1.57L11 4.063V3a1 1 0 0 1 1-1m-1.293 12.708L8.523 16.89A5.968 5.968 0 0 0 11 17.917v-3.088a2.963 2.963 0 0 1-.293-.121m2.586 0-.144.064-.149.057v3.088a5.962 5.962 0 0 0 2.231-.86l.246-.166zM9.171 13H6.083a5.968 5.968 0 0 0 1.026 2.477l2.183-2.184A2.972 2.972 0 0 1 9.171 13m8.746 0h-3.088c-.035.1-.076.198-.121.293l2.183 2.184A5.967 5.967 0 0 0 17.917 13m-1.026-4.477-2.183 2.184.064.144.057.149h3.088a5.963 5.963 0 0 0-.86-2.231zm-9.782 0A5.968 5.968 0 0 0 6.083 11h3.088c.035-.1.076-.198.121-.293L7.11 8.523ZM13 6.083v3.088c.1.035.198.076.293.121l2.184-2.183A5.968 5.968 0 0 0 13 6.083m-2 0a5.968 5.968 0 0 0-2.477 1.026l2.184 2.183c.095-.045.193-.086.293-.121z"/></g></svg>