<?xml version="1.0" encoding="UTF-8"?>
<svg width="24px" height="24px" viewBox="0 0 24 24" version="1.1" xmlns="http://www.w3.org/2000/svg" xmlns:xlink="http://www.w3.org/1999/xlink">
    <title>sailboat_fill</title>
    <g id="Icon" stroke="none" stroke-width="1" fill="none" fill-rule="evenodd">
        <g id="Transport" transform="translate(0.000000, -336.000000)" fill-rule="nonzero">
            <g id="sailboat_fill" transform="translate(0.000000, 336.000000)">
                <path d="M24,0 L24,24 L0,24 L0,0 L24,0 Z M12.5935,23.2578 L12.5819,23.2595 L12.5109,23.295 L12.4919,23.2987 L12.4767,23.295 L12.4057,23.2595 C12.3958,23.2564 12.387,23.259 12.3821,23.2649 L12.378,23.2758 L12.3609,23.7031 L12.3659,23.7235 L12.3769,23.7357 L12.4805,23.8097 L12.4953,23.8136 L12.5071,23.8097 L12.6107,23.7357 L12.6233,23.7197 L12.6267,23.7031 L12.6096,23.2758 C12.6076,23.2657 12.601,23.2593 12.5935,23.2578 Z M12.8584,23.1453 L12.8445,23.1473 L12.6598,23.2397 L12.6499,23.2499 L12.6472,23.2611 L12.6651,23.6906 L12.6699,23.7034 L12.6784,23.7105 L12.8793,23.8032 C12.8914,23.8069 12.9022,23.803 12.9078,23.7952 L12.9118,23.7812 L12.8777,23.1665 C12.8753,23.1546 12.8674,23.147 12.8584,23.1453 Z M12.143,23.1473 C12.1332,23.1424 12.1222,23.1453 12.1156,23.1526 L12.1099,23.1665 L12.0758,23.7812 C12.0751,23.7927 12.0828,23.8019 12.0926,23.8046 L12.1083,23.8032 L12.3092,23.7105 L12.3186,23.7024 L12.3225,23.6906 L12.3404,23.2611 L12.3372,23.2485 L12.3278,23.2397 L12.143,23.1473 Z" id="MingCute"></path>
                <path d="M12.7204,2.03996 C13.1472,1.91566 13.6049,2.08811 13.8436,2.46321 L20.8436,13.4632 C21.0396,13.7711 21.0522,14.1613 20.8765,14.4813 C20.7009,14.8012 20.3649,15.0001 19.9999,15.0001 L12.9999,15.0001 C12.4477,15.0001 11.9999,14.5524 11.9999,14.0001 L11.9999,3.00008 C11.9999,2.55548 12.2935,2.16427 12.7204,2.03996 Z M3.18871,16.4154 C3.37666,16.1546 3.67851,16.0001 3.99995,16.0001 L20,16.0001 C20.3214,16.0001 20.6232,16.1546 20.8112,16.4154 C20.9984,16.6752 21.0491,17.0157 20.9477,17.3191 C20.7414,17.9298 20.4386,18.5199 20.082,19.0548 C19.5417,19.8652 18.5308,21.0001 17,21.0001 L6.99995,21.0001 C5.46909,21.0001 4.45817,19.8652 3.9179,19.0548 C3.56091,18.5193 3.26006,17.9297 3.0522,17.3191 C2.951,17.0173 3.00249,16.6738 3.18871,16.4154 Z M9.15194,5.47009 C9.38838,5.09178 9.8468,4.91585 10.2756,5.03884 C10.7044,5.16182 10.9999,5.55397 10.9999,6.00008 L10.9999,14.0001 C10.9999,14.5524 10.5522,15.0001 9.99993765,15.0001 L4.99993765,15.0001 C4.63641,15.0001 4.30152,14.8028 4.1253,14.4849 C3.94907,14.1669 3.95927,13.7784 4.15194,13.4701 L9.15194,5.47009 Z" id="形状" fill="#09244B"></path>
            </g>
        </g>
    </g>
</svg>