<?xml version="1.0" encoding="UTF-8"?>
<svg width="24px" height="24px" viewBox="0 0 24 24" version="1.1" xmlns="http://www.w3.org/2000/svg" xmlns:xlink="http://www.w3.org/1999/xlink">
    <title>ship_fill</title>
    <g id="页面-1" stroke="none" stroke-width="1" fill="none" fill-rule="evenodd">
        <g id="Transport" transform="translate(-384.000000, -48.000000)">
            <g id="ship_fill" transform="translate(384.000000, 48.000000)">
                <rect id="矩形" fill-rule="nonzero" x="0" y="0" width="24" height="24"></rect>
                <path d="M14.211,17.7763 C15.2667188,17.2483938 16.4976914,17.2153996 17.5753169,17.6773176 L17.7887,17.7763 L20.4471,19.1055 C20.941,19.3525 21.1413,19.9531 20.8943,20.4471 C20.6649429,20.9058143 20.1306097,21.111201 19.6599225,20.9404396 L19.5526,20.8943 L16.8943,19.5651 C16.38751,19.31175 15.800044,19.286415 15.2771188,19.489095 L15.1054,19.5651 L13.7887,20.2235 C12.7329813,20.7514063 11.5020086,20.7844004 10.4243831,20.3224824 L10.211,20.2235 L8.89428,19.5651 C8.387526,19.31175 7.8000312,19.286415 7.27713633,19.489095 L7.10543,19.5651 L4.44707,20.8943 C3.95309,21.1413 3.35241,20.9411 3.10543,20.4471 C2.87608214,19.9883857 3.03233883,19.4377561 3.45133939,19.1636731 L3.55264,19.1055 L6.211,17.7763 C7.26672813,17.2483938 8.49769258,17.2153996 9.57532524,17.6773176 L9.78871,17.7763 L11.1054,18.4347 C11.61219,18.68805 12.199656,18.713385 12.7225812,18.510705 L12.8943,18.4347 L14.211,17.7763 Z M12.9999,2 C13.5522,2 13.9999,2.44772 13.9999,3 L13.9999,4.31954 L17.3287,4.87434 C18.2931,5.03507 18.9999,5.86945 18.9999,6.84713 L18.9999,10.2792 L21.0584,10.9654 C21.7521,11.1967 22.1001,11.9715 21.812,12.6437 L19.6434,17.7037 L17.7887,16.7763 C16.6626,16.2132 15.3371,16.2132 14.211,16.7763 L12.8943,17.4347 C12.3312,17.7162 11.6685,17.7162 11.1054,17.4347 L9.78871,16.7763 C8.6626,16.2132 7.33711,16.2132 6.211,16.7763 L4.94046,17.4116 L2.28294,12.7609 C1.89158,12.076 2.22463,11.2043 2.97296,10.9549 L4.99988,10.2792 L4.99988,6.84713 C4.99988,5.86945 5.70671,5.03507 6.67109,4.87434 L9.99988,4.31954 L9.99988,3 C9.99988,2.44772 10.4476,2 10.9999,2 L12.9999,2 Z M11.9999,6.01379 L6.99988,6.84713 L6.99988,9.61257 L11.3674,8.15673 C11.778,8.01988 12.2218,8.01988 12.6323,8.15673 L16.9999,9.61257 L16.9999,6.84713 L11.9999,6.01379 Z" id="形状" fill="#09244B"></path>
            </g>
        </g>
    </g>
</svg>