<svg xmlns="http://www.w3.org/2000/svg" width="24" height="24"><g fill="none" fill-rule="evenodd"><path d="M24 0v24H0V0zM12.593 23.258l-.011.002-.071.035-.02.004-.014-.004-.071-.035c-.01-.004-.019-.001-.024.005l-.004.01-.017.428.005.02.01.013.104.074.015.004.012-.004.104-.074.012-.016.004-.017-.017-.427c-.002-.01-.009-.017-.017-.018m.265-.113-.013.002-.185.093-.01.01-.003.011.018.43.005.012.008.007.201.093c.012.004.023 0 .029-.008l.004-.014-.034-.614c-.003-.012-.01-.02-.02-.022m-.715.002a.023.023 0 0 0-.027.006l-.006.014-.034.614c0 .012.007.02.017.024l.015-.002.201-.093.01-.008.004-.011.017-.43-.003-.012-.01-.01z"/><path fill="#09244B" d="M14.211 17.776a4 4 0 0 1 3.364-.099l.214.1 2.658 1.328a1 1 0 0 1-.787 1.835l-.107-.046-2.659-1.329a2 2 0 0 0-1.617-.076l-.172.076-1.316.659a4 4 0 0 1-3.365.098l-.213-.098-1.317-.659a2 2 0 0 0-1.617-.076l-.172.076-2.658 1.33a1 1 0 0 1-.996-1.731l.102-.059 2.658-1.329a4 4 0 0 1 3.364-.099l.214.1 1.316.658a2 2 0 0 0 1.618.076l.171-.076zM13 2a1 1 0 0 1 1 1v1.32l3.329.554a2 2 0 0 1 1.67 1.973v3.432l2.06.686a1.25 1.25 0 0 1 .753 1.679l-2.169 5.06-1.854-.928a4 4 0 0 0-3.578 0l-1.317.659a2 2 0 0 1-1.789 0l-1.316-.659a4 4 0 0 0-3.578 0l-1.27.636-2.658-4.651a1.25 1.25 0 0 1 .69-1.806L5 10.279V6.847a2 2 0 0 1 1.67-1.973L10 4.32V3a1 1 0 0 1 1-1zm-1 4.014-5 .833v2.766l4.367-1.456a2 2 0 0 1 1.265 0L17 9.613V6.847z"/></g></svg>