<?xml version="1.0" encoding="UTF-8"?>
<svg width="24px" height="24px" viewBox="0 0 24 24" version="1.1" xmlns="http://www.w3.org/2000/svg" xmlns:xlink="http://www.w3.org/1999/xlink">
    <title>train_line</title>
    <g id="页面-1" stroke="none" stroke-width="1" fill="none" fill-rule="evenodd">
        <g id="Transport" transform="translate(-432.000000, 0.000000)">
            <g id="train_line" transform="translate(432.000000, 0.000000)">
                <rect id="矩形" fill-rule="nonzero" x="0" y="0" width="24" height="24"></rect>
                <path d="M21,18 C21.5523,18 22,18.4477 22,19 C22,19.5523 21.5523,20 21,20 L2,20 C1.44772,20 1,19.5523 1,19 C1,18.4477 1.44772,18 2,18 L21,18 Z M12,5 C15.2244,5 17.9419,6.07548 19.8678,7.58868 C21.7592,9.07478 23,11.0853 23,13 C23,13.8416 22.7418,14.5605 22.2869,15.1406 C21.8436,15.7058 21.2528,16.0903 20.6508,16.3537 C19.4652,16.8724 18.0539,17 17,17 L2.99376,17 C1.88106,17 1,16.0964 1,15 L1,7 C1,5.89867 1.88971,5 2.99752,5 L12,5 Z M20.817,12 L3,12 L3,15 L17,15 C17.9461,15 19.0348,14.8776 19.8492,14.5213 C20.2472,14.3472 20.5314,14.138 20.7131,13.9063 C20.8832,13.6895 21,13.4084 21,13 C21,12.6941 20.9397,12.356 20.817,12 Z M7,7 L3,7 L3,10 L7,10 L7,7 Z M12,7 L9,7 L9,10 L13,10 L13,7.04071 C12.6744,7.01395 12.3409,7 12,7 L12,7 Z M15,7.38297 L15,10 L19.5514,10 C19.2835,9.7142 18.9774,9.43256 18.6322,9.16132 C17.6698,8.40519 16.4427,7.76577 15,7.38297 Z" id="形状结合" fill="#09244B"></path>
            </g>
        </g>
    </g>
</svg>