<svg xmlns="http://www.w3.org/2000/svg" width="24" height="24"><g fill="none"><path d="M24 0v24H0V0zM12.593 23.258l-.011.002-.071.035-.02.004-.014-.004-.071-.035c-.01-.004-.019-.001-.024.005l-.004.01-.017.428.005.02.01.013.104.074.015.004.012-.004.104-.074.012-.016.004-.017-.017-.427c-.002-.01-.009-.017-.017-.018m.265-.113-.013.002-.185.093-.01.01-.003.011.018.43.005.012.008.007.201.093c.012.004.023 0 .029-.008l.004-.014-.034-.614c-.003-.012-.01-.02-.02-.022m-.715.002a.023.023 0 0 0-.027.006l-.006.014-.034.614c0 .012.007.02.017.024l.015-.002.201-.093.01-.008.004-.011.017-.43-.003-.012-.01-.01z"/><path fill="#09244B" d="M17 2a4 4 0 0 1 4 4v9a4.002 4.002 0 0 1-3.127 3.904L19.6 20.2a1 1 0 0 1-1.2 1.6L14.667 19H9.333L5.6 21.8a1 1 0 1 1-1.2-1.6l1.727-1.296A4.001 4.001 0 0 1 3 15V6a4 4 0 0 1 4-4zM8.25 13.25a1.25 1.25 0 1 0 0 2.5 1.25 1.25 0 0 0 0-2.5m7.5 0a1.25 1.25 0 1 0 0 2.5 1.25 1.25 0 0 0 0-2.5M16.5 5h-9a1.5 1.5 0 0 0-1.493 1.356L6 6.5v3a1.5 1.5 0 0 0 1.356 1.493L7.5 11h9a1.5 1.5 0 0 0 1.493-1.356L18 9.5v-3a1.5 1.5 0 0 0-1.356-1.493zM16 7v2H8V7z"/></g></svg>