<?xml version="1.0" encoding="UTF-8"?>
<svg width="24px" height="24px" viewBox="0 0 24 24" version="1.1" xmlns="http://www.w3.org/2000/svg" xmlns:xlink="http://www.w3.org/1999/xlink">
    <title>train_3_line</title>
    <g id="Icon" stroke="none" stroke-width="1" fill="none" fill-rule="evenodd">
        <g id="Transport" transform="translate(-48.000000, -288.000000)">
            <g id="train_3_line" transform="translate(48.000000, 288.000000)">
                <path d="M24,0 L24,24 L0,24 L0,0 L24,0 Z M12.5935,23.2578 L12.5819,23.2595 L12.5109,23.295 L12.4919,23.2987 L12.4767,23.295 L12.4057,23.2595 C12.3958,23.2564 12.387,23.259 12.3821,23.2649 L12.378,23.2758 L12.3609,23.7031 L12.3659,23.7235 L12.3769,23.7357 L12.4805,23.8097 L12.4953,23.8136 L12.5071,23.8097 L12.6107,23.7357 L12.6233,23.7197 L12.6267,23.7031 L12.6096,23.2758 C12.6076,23.2657 12.601,23.2593 12.5935,23.2578 Z M12.8584,23.1453 L12.8445,23.1473 L12.6598,23.2397 L12.6499,23.2499 L12.6472,23.2611 L12.6651,23.6906 L12.6699,23.7034 L12.6784,23.7105 L12.8793,23.8032 C12.8914,23.8069 12.9022,23.803 12.9078,23.7952 L12.9118,23.7812 L12.8777,23.1665 C12.8753,23.1546 12.8674,23.147 12.8584,23.1453 Z M12.143,23.1473 C12.1332,23.1424 12.1222,23.1453 12.1156,23.1526 L12.1099,23.1665 L12.0758,23.7812 C12.0751,23.7927 12.0828,23.8019 12.0926,23.8046 L12.1083,23.8032 L12.3092,23.7105 L12.3186,23.7024 L12.3225,23.6906 L12.3404,23.2611 L12.3372,23.2485 L12.3278,23.2397 L12.143,23.1473 Z" id="MingCute" fill-rule="nonzero"></path>
                <path d="M14.7207,2 C17.0296188,2 19.0276202,3.57879912 19.5751768,5.80226477 L19.6236,6.01942 L21.0236,13.0194 C21.5199879,15.5013394 20.0953179,17.8499425 17.8834356,18.6818904 L17.6738,18.7554 L19.5999,20.2 C20.0418,20.5314 20.1313,21.1582 19.7999,21.6 C19.4940846,22.0078154 18.9364822,22.1155314 18.5049405,21.8690349 L18.3999,21.8 L14.6666,19 L9.33326,19 L5.59992,21.8 C5.1581,22.1314 4.5313,22.0418 4.19992,21.6 C3.89404,21.1921846 3.94681373,20.6267361 4.3042461,20.281502 L4.39992,20.2 L6.32602,18.7554 C4.06606364,18.0195939 2.55785868,15.7239039 2.93529628,13.251649 L2.97624,13.0194 L4.37624,6.01942 C4.82905313,3.755335 6.76902313,2.10578322 9.05670428,2.00489726 L9.27914,2 L14.7207,2 Z M14.7207,4 L9.27914,4 C7.8491,4 6.61785,5.00938 6.3374,6.41165 L4.9374,13.4117 C4.56612,15.268 5.986,17 7.87914,17 L16.1207,17 C18.0138,17 19.4337,15.268 19.0625,13.4117 L17.6625,6.41165 C17.382,5.00938 16.1508,4 14.7207,4 Z M8.24992,13.25 C8.94028,13.25 9.49992,13.8096 9.49992,14.5 C9.49992,15.1904 8.94028,15.75 8.24992,15.75 C7.55957,15.75 6.99992,15.1904 6.99992,14.5 C6.99992,13.8096 7.55957,13.25 8.24992,13.25 Z M15.7499,13.25 C16.4403,13.25 16.9999,13.8096 16.9999,14.5 C16.9999,15.1904 16.4403,15.75 15.7499,15.75 C15.0596,15.75 14.4999,15.1904 14.4999,14.5 C14.4999,13.8096 15.0596,13.25 15.7499,13.25 Z M14.6095,6 C15.2519133,6 15.8174076,6.408072 16.0257288,7.00538708 L16.0648,7.1362 L16.8148,10.1362 C17.0406455,11.0398682 16.3985227,11.9165661 15.4909013,11.9943988 L15.3595,12 L8.64031,12 C7.70881682,12 7.01405134,11.1643779 7.15866567,10.2650286 L7.1851,10.1362 L7.9351,7.1362 C8.09091067,6.51296667 8.62393858,6.06334578 9.25392987,6.00616625 L9.39031,6 L14.6095,6 Z M14.2191,8 L9.7807,8 L9.2807,10 L14.7191,10 L14.2191,8 Z" id="形状" fill="#09244B"></path>
            </g>
        </g>
    </g>
</svg>