<?xml version="1.0" encoding="UTF-8"?>
<svg width="24px" height="24px" viewBox="0 0 24 24" version="1.1" xmlns="http://www.w3.org/2000/svg" xmlns:xlink="http://www.w3.org/1999/xlink">
    <title>truck_fill</title>
    <g id="页面-1" stroke="none" stroke-width="1" fill="none" fill-rule="evenodd">
        <g id="Transport" transform="translate(0.000000, -48.000000)" fill-rule="nonzero">
            <g id="truck_fill" transform="translate(0.000000, 48.000000)">
                 <path d="M24,0 L24,24 L0,24 L0,0 L24,0 Z M12.5934901,23.257841 L12.5819402,23.2595131 L12.5108777,23.2950439 L12.4918791,23.2987469 L12.4918791,23.2987469 L12.4767152,23.2950439 L12.4056548,23.2595131 C12.3958229,23.2563662 12.3870493,23.2590235 12.3821421,23.2649074 L12.3780323,23.275831 L12.360941,23.7031097 L12.3658947,23.7234994 L12.3769048,23.7357139 L12.4804777,23.8096931 L12.4953491,23.8136134 L12.4953491,23.8136134 L12.5071152,23.8096931 L12.6106902,23.7357139 L12.6232938,23.7196733 L12.6232938,23.7196733 L12.6266527,23.7031097 L12.609561,23.275831 C12.6075724,23.2657013 12.6010112,23.2592993 12.5934901,23.257841 L12.5934901,23.257841 Z M12.8583906,23.1452862 L12.8445485,23.1473072 L12.6598443,23.2396597 L12.6498822,23.2499052 L12.6498822,23.2499052 L12.6471943,23.2611114 L12.6650943,23.6906389 L12.6699349,23.7034178 L12.6699349,23.7034178 L12.678386,23.7104931 L12.8793402,23.8032389 C12.8914285,23.8068999 12.9022333,23.8029875 12.9078286,23.7952264 L12.9118235,23.7811639 L12.8776777,23.1665331 C12.8752882,23.1545897 12.8674102,23.1470016 12.8583906,23.1452862 L12.8583906,23.1452862 Z M12.1430473,23.1473072 C12.1332178,23.1423925 12.1221763,23.1452606 12.1156365,23.1525954 L12.1099173,23.1665331 L12.0757714,23.7811639 C12.0751323,23.7926639 12.0828099,23.8018602 12.0926481,23.8045676 L12.108256,23.8032389 L12.3092106,23.7104931 L12.3186497,23.7024347 L12.3186497,23.7024347 L12.3225043,23.6906389 L12.340401,23.2611114 L12.337245,23.2485176 L12.337245,23.2485176 L12.3277531,23.2396597 L12.1430473,23.1473072 Z" id="MingCute" fill-rule="nonzero"></path>
                <path d="M15,4 C16.1046,4 17,4.89543 17,6 L17,7 L18.5194,7 C19.1269,7 19.7016,7.27618 20.0811,7.75061 L21.5617,9.6014 C21.8454,9.956 22,10.3966 22,10.8508 L22,15 C22,16.1046 21.1046,17 20,17 L19,17 C19,18.6569 17.6569,20 16,20 C14.3431,20 13,18.6569 13,17 L10,17 C10,18.6569 8.65685,20 7,20 C5.34315,20 4,18.6569 4,17 C2.89543,17 2,16.1046 2,15 L2,6 C2,4.89543 2.89543,4 4,4 L15,4 Z M7,16 C6.44772,16 6,16.4477 6,17 C6,17.5523 6.44772,18 7,18 C7.55228,18 8,17.5523 8,17 C8,16.4477 7.55228,16 7,16 Z M16,16 C15.4477,16 15,16.4477 15,17 C15,17.5523 15.4477,18 16,18 C16.5523,18 17,17.5523 17,17 C17,16.4477 16.5523,16 16,16 Z M18.5194,9 L17,9 L17,13 L20,13 L20,10.8508 L18.5194,9 Z" id="形状" fill="#09244B"></path>
            </g>
        </g>
    </g>
</svg>