<?xml version="1.0" encoding="UTF-8"?>
<svg width="24px" height="24px" viewBox="0 0 24 24" version="1.1" xmlns="http://www.w3.org/2000/svg" xmlns:xlink="http://www.w3.org/1999/xlink">
    <title>UFO_line</title>
    <g id="页面-1" stroke="none" stroke-width="1" fill="none" fill-rule="evenodd">
        <g id="Transport" transform="translate(-96.000000, -96.000000)">
            <g id="UFO_line" transform="translate(96.000000, 96.000000)">
                 <path d="M24,0 L24,24 L0,24 L0,0 L24,0 Z M12.5934901,23.257841 L12.5819402,23.2595131 L12.5108777,23.2950439 L12.4918791,23.2987469 L12.4918791,23.2987469 L12.4767152,23.2950439 L12.4056548,23.2595131 C12.3958229,23.2563662 12.3870493,23.2590235 12.3821421,23.2649074 L12.3780323,23.275831 L12.360941,23.7031097 L12.3658947,23.7234994 L12.3769048,23.7357139 L12.4804777,23.8096931 L12.4953491,23.8136134 L12.4953491,23.8136134 L12.5071152,23.8096931 L12.6106902,23.7357139 L12.6232938,23.7196733 L12.6232938,23.7196733 L12.6266527,23.7031097 L12.609561,23.275831 C12.6075724,23.2657013 12.6010112,23.2592993 12.5934901,23.257841 L12.5934901,23.257841 Z M12.8583906,23.1452862 L12.8445485,23.1473072 L12.6598443,23.2396597 L12.6498822,23.2499052 L12.6498822,23.2499052 L12.6471943,23.2611114 L12.6650943,23.6906389 L12.6699349,23.7034178 L12.6699349,23.7034178 L12.678386,23.7104931 L12.8793402,23.8032389 C12.8914285,23.8068999 12.9022333,23.8029875 12.9078286,23.7952264 L12.9118235,23.7811639 L12.8776777,23.1665331 C12.8752882,23.1545897 12.8674102,23.1470016 12.8583906,23.1452862 L12.8583906,23.1452862 Z M12.1430473,23.1473072 C12.1332178,23.1423925 12.1221763,23.1452606 12.1156365,23.1525954 L12.1099173,23.1665331 L12.0757714,23.7811639 C12.0751323,23.7926639 12.0828099,23.8018602 12.0926481,23.8045676 L12.108256,23.8032389 L12.3092106,23.7104931 L12.3186497,23.7024347 L12.3186497,23.7024347 L12.3225043,23.6906389 L12.340401,23.2611114 L12.337245,23.2485176 L12.337245,23.2485176 L12.3277531,23.2396597 L12.1430473,23.1473072 Z" id="MingCute" fill-rule="nonzero"></path>
                <path d="M13,5.61805 C13.3069,5.34339 13.5,4.94425 13.5,4.5 C13.5,3.67157 12.8284,3 12,3 C11.1716,3 10.5,3.67157 10.5,4.5 C10.5,4.94425 10.6931,5.34339 11,5.61805 L11,7.07089 C7.87315,7.51815 5.41291,10.0318 5.04703,13.1842 C3.66412,13.7583 2,14.8084 2,16.5001 C2,18.2797 3.82256,19.3427 5.27359,19.9069 C7.04448,20.5956 9.42296,21.0001 12,21.0001 C14.577,21.0001 16.9555,20.5956 18.7264,19.9069 C20.1774,19.3427 22,18.2797 22,16.5001 C22,14.8084 20.3359,13.7583 18.953,13.1842 C18.5871,10.0318 16.1268,7.51815 13,7.07089 L13,5.61805 Z M18.2203,15.0456 C17.4116,15.5198 15.3253,16.5 12,16.5 C8.67472,16.5 6.58836,15.5198 5.77971,15.0456 C5.26598,15.2616 4,15.7805 4,16.5001 C4,17.285 5.44655,17.8283 5.99849,18.0429 C7.48496,18.621 9.60648,19.0001 12,19.0001 C14.3935,19.0001 16.515,18.621 18.0015,18.0429 C18.5534,17.8283 20,17.285 20,16.5001 C20,15.7805 18.734,15.2616 18.2203,15.0456 Z M7.02973,13.4516 C7.30283,10.9482 9.42391,9 12,9 C14.5761,9 16.6972,10.9482 16.9703,13.4516 C16.2399,13.8307 14.5927,14.5 12,14.5 C9.40733,14.5 7.76014,13.8307 7.02973,13.4516 Z" id="形状" fill="#09244B"></path>
            </g>
        </g>
    </g>
</svg>