<svg xmlns="http://www.w3.org/2000/svg" width="24" height="24"><g fill="none"><path d="M24 0v24H0V0zM12.593 23.258l-.011.002-.071.035-.02.004-.014-.004-.071-.035c-.01-.004-.019-.001-.024.005l-.004.01-.017.428.005.02.01.013.104.074.015.004.012-.004.104-.074.012-.016.004-.017-.017-.427c-.002-.01-.009-.017-.017-.018m.265-.113-.013.002-.185.093-.01.01-.003.011.018.43.005.012.008.007.201.093c.012.004.023 0 .029-.008l.004-.014-.034-.614c-.003-.012-.01-.02-.02-.022m-.715.002a.023.023 0 0 0-.027.006l-.006.014-.034.614c0 .012.007.02.017.024l.015-.002.201-.093.01-.008.004-.011.017-.43-.003-.012-.01-.01z"/><path fill="#09244B" d="M20.214 13.829c.933.591 1.786 1.5 1.786 2.671 0 1.574-1.426 2.588-2.76 3.191l-.345.149-.169.067C16.956 20.596 14.577 21 12 21s-4.956-.404-6.726-1.093l-.17-.067-.344-.149C3.426 19.088 2 18.074 2 16.5c0-1.172.853-2.08 1.786-2.671.295.182.634.374 1.017.565C6.425 15.206 8.827 16 12 16s5.575-.794 7.197-1.606c.383-.19.722-.383 1.017-.565M12 3a1.5 1.5 0 0 1 1 2.618v1.453a7.007 7.007 0 0 1 5.802 5.27l-.356.192C17.071 13.245 14.927 14 12 14c-2.927 0-5.07-.755-6.446-1.467l-.356-.193A7.007 7.007 0 0 1 11 7.07V5.619A1.5 1.5 0 0 1 12 3"/></g></svg>