<?xml version="1.0" encoding="UTF-8"?>
<svg width="24px" height="24px" viewBox="0 0 24 24" version="1.1" xmlns="http://www.w3.org/2000/svg" xmlns:xlink="http://www.w3.org/1999/xlink">
    <title>walk_line</title>
    <g id="页面-1" stroke="none" stroke-width="1" fill="none" fill-rule="evenodd">
        <g id="Transport" transform="translate(-768.000000, 0.000000)">
            <g id="walk_line" transform="translate(768.000000, 0.000000)">
                 <path d="M24,0 L24,24 L0,24 L0,0 L24,0 Z M12.5934901,23.257841 L12.5819402,23.2595131 L12.5108777,23.2950439 L12.4918791,23.2987469 L12.4918791,23.2987469 L12.4767152,23.2950439 L12.4056548,23.2595131 C12.3958229,23.2563662 12.3870493,23.2590235 12.3821421,23.2649074 L12.3780323,23.275831 L12.360941,23.7031097 L12.3658947,23.7234994 L12.3769048,23.7357139 L12.4804777,23.8096931 L12.4953491,23.8136134 L12.4953491,23.8136134 L12.5071152,23.8096931 L12.6106902,23.7357139 L12.6232938,23.7196733 L12.6232938,23.7196733 L12.6266527,23.7031097 L12.609561,23.275831 C12.6075724,23.2657013 12.6010112,23.2592993 12.5934901,23.257841 L12.5934901,23.257841 Z M12.8583906,23.1452862 L12.8445485,23.1473072 L12.6598443,23.2396597 L12.6498822,23.2499052 L12.6498822,23.2499052 L12.6471943,23.2611114 L12.6650943,23.6906389 L12.6699349,23.7034178 L12.6699349,23.7034178 L12.678386,23.7104931 L12.8793402,23.8032389 C12.8914285,23.8068999 12.9022333,23.8029875 12.9078286,23.7952264 L12.9118235,23.7811639 L12.8776777,23.1665331 C12.8752882,23.1545897 12.8674102,23.1470016 12.8583906,23.1452862 L12.8583906,23.1452862 Z M12.1430473,23.1473072 C12.1332178,23.1423925 12.1221763,23.1452606 12.1156365,23.1525954 L12.1099173,23.1665331 L12.0757714,23.7811639 C12.0751323,23.7926639 12.0828099,23.8018602 12.0926481,23.8045676 L12.108256,23.8032389 L12.3092106,23.7104931 L12.3186497,23.7024347 L12.3186497,23.7024347 L12.3225043,23.6906389 L12.340401,23.2611114 L12.337245,23.2485176 L12.337245,23.2485176 L12.3277531,23.2396597 L12.1430473,23.1473072 Z" id="MingCute" fill-rule="nonzero"></path>
                <path d="M11.9999,2 C13.6567,2 14.9999,3.34315 14.9999,5 C14.9999,6.35584087 14.1004285,7.50160378 12.8656975,7.87317315 L12.6953,7.91899 L15.123,10.6935 L16.9471,11.6056 C17.4411,11.8526 17.6413,12.4532 17.3943,12.9472 C17.1649429,13.4059143 16.6306959,13.611301 16.1600211,13.4405396 L16.0527,13.3944 L14.2286,12.4824 C14.054375,12.39525 13.8941563,12.28335 13.7527531,12.1503703 L13.6178,12.0105 L12.5997,10.847 L11.9402,13.4851 C11.87836,13.73238 11.772936,13.957324 11.634168,14.153788 L11.524,14.2957 L13.4524,16.0587 C13.7008857,16.2859286 13.8873633,16.5716388 13.9955854,16.8886889 L14.0431,17.0497 L14.7807,20 L14.9999,20 C15.5522,20 15.9999,20.4477 15.9999,21 C15.9999,21.51285 15.613873,21.9355092 15.1165239,21.9932725 L14.9999,22 L14.078,22 C13.6152667,22 13.2069833,21.7113646 13.0478704,21.286065 L13.0108,21.1668 L12.1028,17.5348 L9.0933,14.7832 C8.32760588,14.3947765 7.88328478,13.5453758 8.02593056,12.6776961 L8.05962,12.5149 L8.5727,10.4626 L8.25039,10.6928 L6.8574,13.0145 C6.57325,13.4881 5.95899,13.6416 5.48541,13.3575 C5.04565714,13.0936 4.8818399,12.5451592 5.08817946,12.0889663 L5.14241,11.9855 L6.53541,9.66385 C6.648338,9.475626 6.7912884,9.3076068 6.95826568,9.16627432 L7.08791,9.06538 L9.85005,7.09242 C9.32393,6.55197 8.99988,5.81383 8.99988,5 C8.99988,3.34315 10.343,2 11.9999,2 Z M8.05122,16.1838 C8.22587,15.6598 8.79219,15.3767 9.31613,15.5513 C9.802655,15.7135214 10.0815256,16.213398 9.9790794,16.7034449 L9.94859,16.8162 L9.52324,18.0923 C9.444696,18.3279 9.3231184,18.546348 9.16521952,18.7366872 L9.04009,18.874 L7.38331,20.5308 C7.58424,20.9088 7.52548,21.3886 7.20701,21.7071 C6.84653,22.0675615 6.27929497,22.0952893 5.8870065,21.7902834 L5.7928,21.7071 L5.29987,21.2142 C4.93578077,20.8501385 4.90777391,20.2772343 5.21584941,19.8809645 L5.29987,19.7858 L7.62587,17.4598 L8.05122,16.1838 Z M11.9999,4 C11.4476,4 10.9999,4.44772 10.9999,5 C10.9999,5.55228 11.4476,6 11.9999,6 C12.5522,6 12.9999,5.55228 12.9999,5 C12.9999,4.44772 12.5522,4 11.9999,4 Z" id="形状" fill="#09244B"></path>
            </g>
        </g>
    </g>
</svg>