<?xml version="1.0" encoding="UTF-8"?>
<svg width="24px" height="24px" viewBox="0 0 24 24" version="1.1" xmlns="http://www.w3.org/2000/svg" xmlns:xlink="http://www.w3.org/1999/xlink">
    <title>wheel_fill</title>
    <g id="页面-1" stroke="none" stroke-width="1" fill="none" fill-rule="evenodd">
        <g id="Transport" transform="translate(-624.000000, -240.000000)">
            <g id="wheel_fill" transform="translate(624.000000, 240.000000)">
                 <path d="M24,0 L24,24 L0,24 L0,0 L24,0 Z M12.5934901,23.257841 L12.5819402,23.2595131 L12.5108777,23.2950439 L12.4918791,23.2987469 L12.4918791,23.2987469 L12.4767152,23.2950439 L12.4056548,23.2595131 C12.3958229,23.2563662 12.3870493,23.2590235 12.3821421,23.2649074 L12.3780323,23.275831 L12.360941,23.7031097 L12.3658947,23.7234994 L12.3769048,23.7357139 L12.4804777,23.8096931 L12.4953491,23.8136134 L12.4953491,23.8136134 L12.5071152,23.8096931 L12.6106902,23.7357139 L12.6232938,23.7196733 L12.6232938,23.7196733 L12.6266527,23.7031097 L12.609561,23.275831 C12.6075724,23.2657013 12.6010112,23.2592993 12.5934901,23.257841 L12.5934901,23.257841 Z M12.8583906,23.1452862 L12.8445485,23.1473072 L12.6598443,23.2396597 L12.6498822,23.2499052 L12.6498822,23.2499052 L12.6471943,23.2611114 L12.6650943,23.6906389 L12.6699349,23.7034178 L12.6699349,23.7034178 L12.678386,23.7104931 L12.8793402,23.8032389 C12.8914285,23.8068999 12.9022333,23.8029875 12.9078286,23.7952264 L12.9118235,23.7811639 L12.8776777,23.1665331 C12.8752882,23.1545897 12.8674102,23.1470016 12.8583906,23.1452862 L12.8583906,23.1452862 Z M12.1430473,23.1473072 C12.1332178,23.1423925 12.1221763,23.1452606 12.1156365,23.1525954 L12.1099173,23.1665331 L12.0757714,23.7811639 C12.0751323,23.7926639 12.0828099,23.8018602 12.0926481,23.8045676 L12.108256,23.8032389 L12.3092106,23.7104931 L12.3186497,23.7024347 L12.3186497,23.7024347 L12.3225043,23.6906389 L12.340401,23.2611114 L12.337245,23.2485176 L12.337245,23.2485176 L12.3277531,23.2396597 L12.1430473,23.1473072 Z" id="MingCute" fill-rule="nonzero"></path>
                <path d="M12,2 C17.5228,2 22,6.47715 22,12 C22,17.5228 17.5228,22 12,22 C6.47715,22 2,17.5228 2,12 C2,6.47715 6.47715,2 12,2 Z M10.53,15.1968 L9.78258,16.3179 C9.46581,16.7931 9.28053,17.6813 9.97855,18.2913 C10.3942,18.6545 11.0536,19.0012 12.0000082,19.0012 C12.9464,19.0012 13.6058,18.6545 14.0215,18.2913 C14.7195,17.6813 14.5342,16.7931 14.2174,16.3179 L13.47,15.1968 C12.7707,14.1478 11.2293,14.1478 10.53,15.1968 Z M16.7917,11.2255 L15.4946,11.5899 C14.2808,11.9308 13.8045,13.3968 14.5861,14.386 L15.4213,15.4433 C15.7753,15.8914 16.5629,16.3421 17.3586,15.8667 C17.8325,15.5836 18.3661,15.0636 18.6585,14.1636 C18.951,13.2635 18.825,12.5292 18.608,12.0217 C18.2436,11.1693 17.3415,11.071 16.7917,11.2255 Z M7.20825,11.2254 C6.65845,11.071 5.75641,11.1692 5.39202,12.0216 C5.17502,12.5291 5.04903,13.2634 5.34147,14.1635 C5.63392,15.0635 6.16746,15.5835 6.64135,15.8666 C7.39032882,16.3140353 8.13199083,15.941119 8.51180233,15.5221144 L8.57869,15.4432 L9.41395,14.386 C10.1654404,13.43475 9.75394075,12.0427641 8.64215593,11.6340365 L8.50541,11.5898 L7.20825,11.2254 Z M7.88481,6.33599 C7.11918,6.89225 6.78951,7.56037 6.66672,8.09855 C6.46053,9.00229 7.13253,9.612 7.6681,9.81022 L8.9317,10.2779 C10.114,10.7155 11.3611,9.80946 11.3103,8.54975 L11.256,7.20348 C11.233,6.63287 10.8607,5.80535 9.93752,5.72218 C9.38774,5.67265 8.65044,5.77973 7.88481,6.33599 Z M16.1152,6.33591 C15.3495,5.77965 14.6122,5.67256 14.0625,5.72209 C13.1935118,5.80037706 12.8126952,6.53801028 12.7517248,7.10024103 L12.744,7.2034 L12.6897,8.54967 C12.6407815,9.76271444 13.7953099,10.6478015 14.9367256,10.3209432 L15.0683,10.2778 L16.3319,9.81014 C16.8674,9.61192 17.5394,9.0022 17.3333,8.09847 C17.2105,7.56029 16.8808,6.89217 16.1152,6.33591 Z" id="形状" fill="#09244B"></path>
            </g>
        </g>
    </g>
</svg>