<svg xmlns="http://www.w3.org/2000/svg" width="24" height="24"><g fill="none" fill-rule="evenodd"><path d="M24 0v24H0V0zM12.594 23.258l-.012.002-.071.035-.02.004-.014-.004-.071-.036c-.01-.003-.019 0-.024.006l-.004.01-.017.428.005.02.01.013.104.074.015.004.012-.004.104-.074.012-.016.004-.017-.017-.427c-.002-.01-.009-.017-.016-.018m.264-.113-.014.002-.184.093-.01.01-.003.011.018.43.005.012.008.008.201.092c.012.004.023 0 .029-.008l.004-.014-.034-.614c-.003-.012-.01-.02-.02-.022m-.715.002a.023.023 0 0 0-.027.006l-.006.014-.034.614c0 .012.007.02.017.024l.015-.002.201-.093.01-.008.003-.011.018-.43-.003-.012-.01-.01z"/><path fill="#09244B" d="M18 2a4 4 0 0 1 4 4v12a4 4 0 0 1-4 4H6a4 4 0 0 1-4-4V6a4 4 0 0 1 4-4zm-2.6 10.669-1.339 1.507-.555-1.249a1 1 0 0 0-1.66-.258l-1.34 1.507-.555-1.249a1 1 0 0 0-1.661-.258l-2.37 2.667a1 1 0 1 0 1.494 1.328l1.34-1.506.554 1.248a1 1 0 0 0 1.662.258l1.339-1.506.555 1.248a1 1 0 0 0 1.661.258l1.34-1.506.554 1.248a1 1 0 1 0 1.828-.812l-1.185-2.667a1 1 0 0 0-1.661-.258m.902-5.657a1 1 0 0 0-.812.235l-.09.089-1.339 1.506-.555-1.248a1 1 0 0 0-1.571-.347l-.09.089-1.34 1.506-.554-1.248a1 1 0 0 0-1.572-.347l-.09.089-2.37 2.666a1 1 0 0 0 1.406 1.418l.09-.089 1.338-1.507.555 1.249a1 1 0 0 0 1.572.347l.09-.089 1.339-1.507.555 1.249a1 1 0 0 0 1.571.347l.09-.089 1.34-1.507.554 1.249a1 1 0 0 0 1.87-.703l-.042-.11-1.185-2.666a1 1 0 0 0-.76-.582"/></g></svg>