<svg xmlns="http://www.w3.org/2000/svg" width="24" height="24"><g fill="none" fill-rule="nonzero"><path d="M24 0v24H0V0zM12.594 23.258l-.012.002-.071.035-.02.004-.014-.004-.071-.036c-.01-.003-.019 0-.024.006l-.004.01-.017.428.005.02.01.013.104.074.015.004.012-.004.104-.074.012-.016.004-.017-.017-.427c-.002-.01-.009-.017-.016-.018m.264-.113-.014.002-.184.093-.01.01-.003.011.018.43.005.012.008.008.201.092c.012.004.023 0 .029-.008l.004-.014-.034-.614c-.003-.012-.01-.02-.02-.022m-.715.002a.023.023 0 0 0-.027.006l-.006.014-.034.614c0 .012.007.02.017.024l.015-.002.201-.093.01-.008.003-.011.018-.43-.003-.012-.01-.01z"/><path fill="#09244B" d="M10.47 7.758c-.25-1.001-.59-2.173-1.235-3.093C8.544 3.68 7.501 2.983 5.993 3A4 4 0 0 0 6 11a1 1 0 1 0 0-2 2 2 0 1 1 0-4h.013c.765-.01 1.22.293 1.584.813.411.587.683 1.43.933 2.43.243.973.863 3.946 1.428 6.708a1357.31 1357.31 0 0 1 1.058 5.23 1 1 0 0 0 1.964.016 1461.07 1461.07 0 0 1 1.068-5.268c.566-2.77 1.186-5.741 1.422-6.686.25-1 .522-1.843.933-2.43.364-.52.82-.823 1.584-.813H18a2 2 0 1 1 0 4 1 1 0 1 0 0 2 4 4 0 0 0 .007-8c-1.508-.017-2.55.679-3.242 1.665-.645.92-.985 2.092-1.235 3.093-.25.998-.88 4.026-1.442 6.77l-.087.43-.084-.408c-.56-2.738-1.19-5.766-1.447-6.792"/></g></svg>