<svg xmlns="http://www.w3.org/2000/svg" width="24" height="24"><g fill="none" fill-rule="evenodd"><path d="M24 0v24H0V0zM12.594 23.258l-.012.002-.071.035-.02.004-.014-.004-.071-.036c-.01-.003-.019 0-.024.006l-.004.01-.017.428.005.02.01.013.104.074.015.004.012-.004.104-.074.012-.016.004-.017-.017-.427c-.002-.01-.009-.017-.016-.018m.264-.113-.014.002-.184.093-.01.01-.003.011.018.43.005.012.008.008.201.092c.012.004.023 0 .029-.008l.004-.014-.034-.614c-.003-.012-.01-.02-.02-.022m-.715.002a.023.023 0 0 0-.027.006l-.006.014-.034.614c0 .012.007.02.017.024l.015-.002.201-.093.01-.008.003-.011.018-.43-.003-.012-.01-.01z"/><path fill="#09244B" d="M17 10a4 4 0 0 1 4 4c0 1.942-.835 3.497-2.147 4.595-1.289 1.079-3.005 1.695-4.803 1.899-3.568.404-7.811-.79-10.324-3.86a1 1 0 0 1 1.548-1.267c1.987 2.43 5.494 3.486 8.551 3.14a8.314 8.314 0 0 0 2.332-.596 4.001 4.001 0 0 1 .843-7.91m0 2a2 2 0 1 0 0 4 2 2 0 0 0 0-4m3.274-4.633a1 1 0 0 1-1.548 1.267c-1.987-2.43-5.494-3.486-8.551-3.14-.853.097-1.642.3-2.332.595A4.001 4.001 0 0 1 7 14a4 4 0 0 1-4-4c0-1.941.835-3.497 2.147-4.595C6.436 4.327 8.152 3.71 9.95 3.507c3.568-.404 7.811.79 10.324 3.86M7 8a2 2 0 1 0 0 4 2 2 0 0 0 0-4"/></g></svg>