<svg xmlns="http://www.w3.org/2000/svg" width="24" height="24"><g fill="none" fill-rule="evenodd"><path d="M24 0v24H0V0zM12.594 23.258l-.012.002-.071.035-.02.004-.014-.004-.071-.036c-.01-.003-.019 0-.024.006l-.004.01-.017.428.005.02.01.013.104.074.015.004.012-.004.104-.074.012-.016.004-.017-.017-.427c-.002-.01-.009-.017-.016-.018m.264-.113-.014.002-.184.093-.01.01-.003.011.018.43.005.012.008.008.201.092c.012.004.023 0 .029-.008l.004-.014-.034-.614c-.003-.012-.01-.02-.02-.022m-.715.002a.023.023 0 0 0-.027.006l-.006.014-.034.614c0 .012.007.02.017.024l.015-.002.201-.093.01-.008.003-.011.018-.43-.003-.012-.01-.01z"/><path fill="#09244B" d="M13.5 5A3.5 3.5 0 0 0 10 8.5c0 .223.058.515.185.94.057.193.123.395.196.62l.018.056c.08.243.165.509.248.79.328 1.116.615 2.506.352 4.18a4 4 0 1 1-2.298-3.707 29.936 29.936 0 0 0-.223-.704c-.072-.22-.145-.445-.21-.663C8.13 9.548 8 9.027 8 8.5a5.5 5.5 0 1 1 11 0c0 .957-.315 1.92-.713 2.808-.401.894-.93 1.8-1.427 2.64l-.133.224c-.459.773-.88 1.484-1.202 2.147C15.165 17.061 15 17.61 15 18a2 2 0 1 0 4 0 1 1 0 1 1 2 0 4 4 0 0 1-8 0c0-.86.335-1.749.725-2.553.36-.744.827-1.53 1.276-2.285l.139-.234c.502-.848.974-1.662 1.323-2.439.352-.785.537-1.446.537-1.989C17 6.563 15.434 5 13.5 5M7 13a2 2 0 1 0 0 4 2 2 0 0 0 0-4"/></g></svg>