<svg xmlns="http://www.w3.org/2000/svg" width="24" height="24"><g fill="none" fill-rule="evenodd"><path d="M24 0v24H0V0zM12.594 23.258l-.012.002-.071.035-.02.004-.014-.004-.071-.036c-.01-.003-.019 0-.024.006l-.004.01-.017.428.005.02.01.013.104.074.015.004.012-.004.104-.074.012-.016.004-.017-.017-.427c-.002-.01-.009-.017-.016-.018m.264-.113-.014.002-.184.093-.01.01-.003.011.018.43.005.012.008.008.201.092c.012.004.023 0 .029-.008l.004-.014-.034-.614c-.003-.012-.01-.02-.02-.022m-.715.002a.023.023 0 0 0-.027.006l-.006.014-.034.614c0 .012.007.02.017.024l.015-.002.201-.093.01-.008.003-.011.018-.43-.003-.012-.01-.01z"/><path fill="#09244B" d="M2 6a4 4 0 0 1 4-4h12a4 4 0 0 1 4 4v12a4 4 0 0 1-4 4H6a4 4 0 0 1-4-4zm3.667.667a1 1 0 0 1 1-1h.666c.496 0 .956.155 1.334.418A2.323 2.323 0 0 1 10 5.667c.496 0 .956.155 1.333.418A2.333 2.333 0 0 1 15 8v6.667a1 1 0 0 0 .48.854 1 1 0 0 1 1.56-1.228l1.667 1.667a1 1 0 0 1 0 1.414l-1.666 1.667a1 1 0 0 1-1.43-1.399 3 3 0 0 1-2.61-2.975V8a.333.333 0 0 0-.668 0v6a1 1 0 1 1-2 0V8a.333.333 0 1 0-.666 0v6a1 1 0 1 1-2 0V8a.333.333 0 0 0-.334-.333h-.666a1 1 0 0 1-1-1"/></g></svg>