<svg xmlns="http://www.w3.org/2000/svg" width="24" height="24"><g fill="none" fill-rule="evenodd"><path d="M24 0v24H0V0zM12.594 23.258l-.012.002-.071.035-.02.004-.014-.004-.071-.036c-.01-.003-.019 0-.024.006l-.004.01-.017.428.005.02.01.013.104.074.015.004.012-.004.104-.074.012-.016.004-.017-.017-.427c-.002-.01-.009-.017-.016-.018m.264-.113-.014.002-.184.093-.01.01-.003.011.018.43.005.012.008.008.201.092c.012.004.023 0 .029-.008l.004-.014-.034-.614c-.003-.012-.01-.02-.02-.022m-.715.002a.023.023 0 0 0-.027.006l-.006.014-.034.614c0 .012.007.02.017.024l.015-.002.201-.093.01-.008.003-.011.018-.43-.003-.012-.01-.01z"/><path fill="#09244B" d="M18 2a4 4 0 0 1 4 4v12a4 4 0 0 1-4 4H6a4 4 0 0 1-4-4V6a4 4 0 0 1 4-4zm0 3.667c-.757 0-1.358.273-1.854.576-.16.098-.318.204-.468.308l-.22.154c-.227.161-.435.308-.659.45l-.075.045-.17.087c-.46.214-1.201.38-2.554.38-1.353 0-2.095-.166-2.555-.38l-.17-.087a2.044 2.044 0 0 1-.074-.046l-.328-.216-.326-.228c-.218-.155-.452-.32-.693-.467C7.358 5.94 6.757 5.667 6 5.667a1 1 0 0 0-.117 1.993L6 7.667c.243 0 .476.077.812.283l.133.084.286.195.518.363c.121.083.25.169.384.253.126.08.258.154.397.222a5 5 0 1 0 6.94 0c.139-.068.27-.142.397-.222.134-.084.263-.17.384-.253l.665-.465c.096-.065.184-.124.272-.177.288-.176.5-.259.708-.278L18 7.667a1 1 0 1 0 0-2m-6 4a3 3 0 1 1 0 6 3 3 0 0 1 0-6"/></g></svg>