<svg xmlns="http://www.w3.org/2000/svg" width="24" height="24"><g fill="none" fill-rule="evenodd"><path d="M24 0v24H0V0zM12.594 23.258l-.012.002-.071.035-.02.004-.014-.004-.071-.036c-.01-.003-.019 0-.024.006l-.004.01-.017.428.005.02.01.013.104.074.015.004.012-.004.104-.074.012-.016.004-.017-.017-.427c-.002-.01-.009-.017-.016-.018m.264-.113-.014.002-.184.093-.01.01-.003.011.018.43.005.012.008.008.201.092c.012.004.023 0 .029-.008l.004-.014-.034-.614c-.003-.012-.01-.02-.02-.022m-.715.002a.023.023 0 0 0-.027.006l-.006.014-.034.614c0 .012.007.02.017.024l.015-.002.201-.093.01-.008.003-.011.018-.43-.003-.012-.01-.01z"/><path fill="#09244B" d="M12 2c-2.017 0-3.886.29-5.286.79-.696.249-1.33.568-1.81.973C4.43 4.163 4 4.746 4 5.5v13c0 .754.43 1.337.905 1.737.479.405 1.113.724 1.809.973 1.4.5 3.27.79 5.286.79 2.017 0 3.886-.29 5.286-.79.696-.249 1.33-.568 1.81-.973.474-.4.904-.983.904-1.737v-13c0-.754-.43-1.337-.905-1.737-.479-.405-1.113-.724-1.809-.973-1.4-.5-3.27-.79-5.286-.79M6.195 5.29c-.211.18-.211.24 0 .42.23.193.62.412 1.192.616C8.52 6.731 10.15 7 12 7c1.85 0 3.48-.27 4.613-.674.571-.204.962-.423 1.192-.617.211-.179.211-.24 0-.418-.23-.194-.62-.413-1.192-.617C15.48 4.269 13.85 4 12 4c-1.85 0-3.48.27-4.613.674-.571.204-.962.423-1.192.617"/></g></svg>