<?xml version="1.0" encoding="UTF-8"?>
<svg width="24px" height="24px" viewBox="0 0 24 24" version="1.1" xmlns="http://www.w3.org/2000/svg" xmlns:xlink="http://www.w3.org/1999/xlink">
    <title>heart_crack_line</title>
    <g id="Icon" stroke="none" stroke-width="1" fill="none" fill-rule="evenodd">
        <g id="Shape" transform="translate(-672.000000, 0.000000)">
            <g id="heart_crack_line" transform="translate(672.000000, 0.000000)">
                <path d="M24,0 L24,24 L0,24 L0,0 L24,0 Z M12.5935,23.2578 L12.5819,23.2595 L12.5109,23.295 L12.4919,23.2987 L12.4767,23.295 L12.4057,23.2595 C12.3958,23.2564 12.387,23.259 12.3821,23.2649 L12.378,23.2758 L12.3609,23.7031 L12.3659,23.7235 L12.3769,23.7357 L12.4805,23.8097 L12.4953,23.8136 L12.5071,23.8097 L12.6107,23.7357 L12.6233,23.7197 L12.6267,23.7031 L12.6096,23.2758 C12.6076,23.2657 12.601,23.2593 12.5935,23.2578 Z M12.8584,23.1453 L12.8445,23.1473 L12.6598,23.2397 L12.6499,23.2499 L12.6472,23.2611 L12.6651,23.6906 L12.6699,23.7034 L12.6784,23.7105 L12.8793,23.8032 C12.8914,23.8069 12.9022,23.803 12.9078,23.7952 L12.9118,23.7812 L12.8777,23.1665 C12.8753,23.1546 12.8674,23.147 12.8584,23.1453 Z M12.143,23.1473 C12.1332,23.1424 12.1222,23.1453 12.1156,23.1526 L12.1099,23.1665 L12.0758,23.7812 C12.0751,23.7927 12.0828,23.8019 12.0926,23.8046 L12.1083,23.8032 L12.3092,23.7105 L12.3186,23.7024 L12.3225,23.6906 L12.3404,23.2611 L12.3372,23.2485 L12.3278,23.2397 L12.143,23.1473 Z" id="MingCute" fill-rule="nonzero"></path>
                <path d="M21.9979,10.3933 C22.0628,7.50113 20.5893,5.02239 18.4938,3.80149 C16.5339,2.65956 14.0719,2.65344 12.0000003,4.33872 C9.92814,2.65344 7.46612,2.65956 5.50615,3.80149 C3.41065,5.02239 1.9372,7.50113 2.00206,10.3933 C2.083,14.0024 4.89274,17.1869 9.68057,20.031 C10.3746,20.4433 11.1551,21.0002 12.0000003,21.0002 C12.8612,21.0002 13.6095,20.4528 14.3194,20.031 C19.1073,17.1869 21.917,14.0024 21.9979,10.3933 Z M12.8427,6.27186 C14.3513,4.74646 16.0933,4.71757 17.487,5.52958 C18.9314,6.37114 20.0476,8.1577 19.9984,10.3485 C19.9421,12.8604 17.9589,15.5428 13.298,18.3116 C12.8901,18.5539 12.4638,18.8654 11.9999979,18.9942 C11.5362,18.8654 11.1099,18.5539 10.702,18.3116 C6.04114,15.5428 4.05789,12.8604 4.00156,10.3485 C3.95242,8.1577 5.06856,6.37114 6.51299,5.52958 C7.73954,4.81495 9.23588,4.75162 10.6055,5.78649 L9.24682,7.34214 C8.90074,7.7384 8.92088,8.33504 9.2929,8.70706 L11.7132,11.1274 L10.168,13.4453 C9.8616,13.9048 9.98577,14.5257 10.4453,14.832 C10.9048,15.1384 11.5257,15.0142 11.8321,14.5547 L13.8321,11.5547 C14.0965,11.158 14.0442,10.6299 13.7071,10.2928 L11.368,7.95377 L12.7532,6.36778 C12.7822,6.33455 12.8117,6.3032 12.8427,6.27186 Z" id="形状" fill="#09244B"></path>
            </g>
        </g>
    </g>
</svg>