<?xml version="1.0" encoding="UTF-8"?>
<svg width="24px" height="24px" viewBox="0 0 24 24" version="1.1" xmlns="http://www.w3.org/2000/svg" xmlns:xlink="http://www.w3.org/1999/xlink">
    <title>pentagon_line</title>
    <g id="页面-1" stroke="none" stroke-width="1" fill="none" fill-rule="evenodd">
        <g id="Shape" transform="translate(-96.000000, 0.000000)">
            <g id="pentagon_line" transform="translate(96.000000, 0.000000)">
                <rect id="矩形" fill-rule="nonzero" x="0" y="0" width="24" height="24"></rect>
                <path d="M10.8244,2.61805 C11.5254,2.10876 12.4746,2.10876 13.1756,2.61805 L21.035,8.32829 C21.736,8.83757 22.0293,9.74031 21.7616,10.5644 L18.7595,19.8037 C18.4918,20.6278 17.7239,21.1857 16.8574,21.1857 L7.14257,21.1857 C6.27611,21.1857 5.5082,20.6278 5.24045,19.8037 L2.2384,10.5644 C1.97066,9.74031 2.26397,8.83757 2.96495,8.32829 L10.8244,2.61805 Z M19.8595,9.94632 L12,4.23608 L4.14052,9.94632 L7.14257,19.1857 L16.8574,19.1857 L19.8595,9.94632 Z" id="形状" fill="#09244B"></path>
            </g>
        </g>
    </g>
</svg>