<?xml version="1.0" encoding="UTF-8"?>
<svg width="24px" height="24px" viewBox="0 0 24 24" version="1.1" xmlns="http://www.w3.org/2000/svg" xmlns:xlink="http://www.w3.org/1999/xlink">
    <title>spade_fill</title>
    <g id="Icon" stroke="none" stroke-width="1" fill="none" fill-rule="evenodd">
        <g id="Shape" transform="translate(-576.000000, -48.000000)">
            <g id="spade_fill" transform="translate(576.000000, 48.000000)">
                <path d="M24,0 L24,24 L0,24 L0,0 L24,0 Z M12.5935,23.2578 L12.5819,23.2595 L12.5109,23.295 L12.4919,23.2987 L12.4767,23.295 L12.4057,23.2595 C12.3958,23.2564 12.387,23.259 12.3821,23.2649 L12.378,23.2758 L12.3609,23.7031 L12.3659,23.7235 L12.3769,23.7357 L12.4805,23.8097 L12.4953,23.8136 L12.5071,23.8097 L12.6107,23.7357 L12.6233,23.7197 L12.6267,23.7031 L12.6096,23.2758 C12.6076,23.2657 12.601,23.2593 12.5935,23.2578 Z M12.8584,23.1453 L12.8445,23.1473 L12.6598,23.2397 L12.6499,23.2499 L12.6472,23.2611 L12.6651,23.6906 L12.6699,23.7034 L12.6784,23.7105 L12.8793,23.8032 C12.8914,23.8069 12.9022,23.803 12.9078,23.7952 L12.9118,23.7812 L12.8777,23.1665 C12.8753,23.1546 12.8674,23.147 12.8584,23.1453 Z M12.143,23.1473 C12.1332,23.1424 12.1222,23.1453 12.1156,23.1526 L12.1099,23.1665 L12.0758,23.7812 C12.0751,23.7927 12.0828,23.8019 12.0926,23.8046 L12.1083,23.8032 L12.3092,23.7105 L12.3186,23.7024 L12.3225,23.6906 L12.3404,23.2611 L12.3372,23.2485 L12.3278,23.2397 L12.143,23.1473 Z" id="MingCute" fill-rule="nonzero"></path>
                <path d="M9.8362,18.8891 C8.44548,19.1891 7.04139,18.8646 5.88185,18.1036 C4.14379,16.9628 2.9461,14.8507 3.00187,12.4029 C3.07552,9.17011 5.62095,6.34234 9.88968,3.86077 C10.2873,3.62959 10.559,3.45029 10.7813,3.30352 C11.1533,3.05792 11.5354,2.80632 12.000001,2.80632 C12.4645,2.80632 12.8467,3.05792 13.2187,3.30352 C13.441,3.45028 13.7126,3.62959 14.1103,3.86077 C18.3791,6.34234 20.9245,9.17011 20.9981,12.4029 C21.0539,14.8507 19.8562,16.9628 18.1182,18.1036 C16.9586,18.8646 15.5545,19.1891 14.1638,18.8891 C14.3697,19.5079 14.6012,20.0584 14.8575,20.4855 C15.0429,20.7944 15.0477,21.1792 14.8702,21.4927 C14.6927,21.8062 14.3603,22 14.000001,22 L10.000001,22 C9.63973,22 9.30731,21.8062 9.1298,21.4927 C8.95229,21.1792 8.95715,20.7944 9.14251,20.4855 C9.39878,20.0584 9.63026,19.5079 9.8362,18.8891 Z" id="路径" fill="#09244B"></path>
            </g>
        </g>
    </g>
</svg>