<svg xmlns="http://www.w3.org/2000/svg" width="24" height="24"><g fill="none" fill-rule="evenodd"><path d="M24 0v24H0V0zM12.594 23.258l-.012.002-.071.035-.02.004-.014-.004-.071-.036c-.01-.003-.019 0-.024.006l-.004.01-.017.428.005.02.01.013.104.074.015.004.012-.004.104-.074.012-.016.004-.017-.017-.427c-.002-.01-.009-.017-.016-.018m.264-.113-.014.002-.184.093-.01.01-.003.011.018.43.005.012.008.008.201.092c.012.004.023 0 .029-.008l.004-.014-.034-.614c-.003-.012-.01-.02-.02-.022m-.715.002a.023.023 0 0 0-.027.006l-.006.014-.034.614c0 .012.007.02.017.024l.015-.002.201-.093.01-.008.003-.011.018-.43-.003-.012-.01-.01z"/><path fill="#09244B" d="M9.836 18.89c-1.39.3-2.795-.025-3.954-.786-1.738-1.141-2.936-3.253-2.88-5.701C3.076 9.17 5.62 6.343 9.89 3.86c.397-.231.669-.41.891-.557.372-.246.754-.498 1.219-.498.464 0 .847.252 1.219.498.222.146.494.326.891.557 4.27 2.481 6.814 5.31 6.888 8.542.056 2.448-1.142 4.56-2.88 5.7-1.16.762-2.563 1.086-3.954.786.206.619.437 1.17.694 1.596A1 1 0 0 1 14 22h-4a1 1 0 0 1-.857-1.515c.256-.427.487-.977.693-1.596Z"/></g></svg>