<?xml version="1.0" encoding="UTF-8"?>
<svg width="24px" height="24px" viewBox="0 0 24 24" version="1.1" xmlns="http://www.w3.org/2000/svg" xmlns:xlink="http://www.w3.org/1999/xlink">
    <title>star_fill</title>
    <g id="页面-1" stroke="none" stroke-width="1" fill="none" fill-rule="evenodd">
        <g id="Shape" transform="translate(-240.000000, -48.000000)" fill-rule="nonzero">
            <g id="star_fill" transform="translate(240.000000, 48.000000)">
                <rect id="矩形" x="0" y="0" width="24" height="24"></rect>
                <path d="M10.9198,2.8677 C11.402,2.03987 12.598,2.03987 13.0801,2.8677 L15.8751,7.66643 L21.3027,8.84175 C22.239,9.0445 22.6086,10.1819 21.9703,10.8963 L18.2701,15.0374 L18.8295,20.5625 C18.926,21.5156 17.9585,22.2186 17.0818,21.8323 L12,19.5929 L6.91816,21.8323 C6.04149,22.2186 5.07395,21.5156 5.17046,20.5625 L5.72987,15.0374 L2.02972,10.8963 C1.3914,10.1819 1.76097,9.0445 2.69728,8.84175 L8.12484,7.66643 L10.9198,2.8677 Z" id="路径" fill="#09244B"></path>
            </g>
        </g>
    </g>
</svg>