<?xml version="1.0" encoding="UTF-8"?>
<svg width="24px" height="24px" viewBox="0 0 24 24" version="1.1" xmlns="http://www.w3.org/2000/svg" xmlns:xlink="http://www.w3.org/1999/xlink">
    <title>star_half_fill</title>
    <g id="Icon" stroke="none" stroke-width="1" fill="none" fill-rule="evenodd">
        <g id="Shape" transform="translate(-624.000000, -48.000000)">
            <g id="star_half_fill" transform="translate(624.000000, 48.000000)">
                <path d="M24,0 L24,24 L0,24 L0,0 L24,0 Z M12.5935,23.2578 L12.5819,23.2595 L12.5109,23.295 L12.4919,23.2987 L12.4767,23.295 L12.4057,23.2595 C12.3958,23.2564 12.387,23.259 12.3821,23.2649 L12.378,23.2758 L12.3609,23.7031 L12.3659,23.7235 L12.3769,23.7357 L12.4805,23.8097 L12.4953,23.8136 L12.5071,23.8097 L12.6107,23.7357 L12.6233,23.7197 L12.6267,23.7031 L12.6096,23.2758 C12.6076,23.2657 12.601,23.2593 12.5935,23.2578 Z M12.8584,23.1453 L12.8445,23.1473 L12.6598,23.2397 L12.6499,23.2499 L12.6472,23.2611 L12.6651,23.6906 L12.6699,23.7034 L12.6784,23.7105 L12.8793,23.8032 C12.8914,23.8069 12.9022,23.803 12.9078,23.7952 L12.9118,23.7812 L12.8777,23.1665 C12.8753,23.1546 12.8674,23.147 12.8584,23.1453 Z M12.143,23.1473 C12.1332,23.1424 12.1222,23.1453 12.1156,23.1526 L12.1099,23.1665 L12.0758,23.7812 C12.0751,23.7927 12.0828,23.8019 12.0926,23.8046 L12.1083,23.8032 L12.3092,23.7105 L12.3186,23.7024 L12.3225,23.6906 L12.3404,23.2611 L12.3372,23.2485 L12.3278,23.2397 L12.143,23.1473 Z" id="MingCute" fill-rule="nonzero"></path>
                <path d="M13.0802,2.86759 C12.5981,2.03976 11.4021,2.03976 10.92,2.86759 L8.12558,7.66527 L2.69716,8.84164 C1.76084,9.0444 1.39128,10.1818 2.0296,10.8962 L5.72975,15.0373 L5.17034,20.5624 C5.1646,20.619 5.16263,20.6712 5.16416,20.7192 C5.18161,21.5905 6.09046,22.197 6.91828,21.8322 L12.0001,19.5928 L17.0819,21.8322 C17.9586,22.2185 18.9261,21.5155 18.8296,20.5624 L18.2702,15.0373 L21.9704,10.8962 C22.6087,10.1818 22.2391,9.04439 21.3028,8.84164 L15.8753,7.66632 L13.0802,2.86759 Z M11.9999,17.5232 C12.1717,17.5232 12.3435,17.5585 12.5042,17.6293 L16.7101,19.4827 L16.2471,14.9099 C16.2118,14.5608 16.3248,14.2128 16.5586,13.9511 L19.621,10.5238 L15.129,9.55107 C14.786,9.47679 14.49,9.26176 14.3134,8.95851 L12.0001,4.98689 L11.9999,17.5232 Z" id="形状" fill="#09244B"></path>
            </g>
        </g>
    </g>
</svg>