<svg xmlns="http://www.w3.org/2000/svg" width="24" height="24"><g fill="none" fill-rule="evenodd"><path d="M24 0v24H0V0zM12.594 23.258l-.012.002-.071.035-.02.004-.014-.004-.071-.036c-.01-.003-.019 0-.024.006l-.004.01-.017.428.005.02.01.013.104.074.015.004.012-.004.104-.074.012-.016.004-.017-.017-.427c-.002-.01-.009-.017-.016-.018m.264-.113-.014.002-.184.093-.01.01-.003.011.018.43.005.012.008.008.201.092c.012.004.023 0 .029-.008l.004-.014-.034-.614c-.003-.012-.01-.02-.02-.022m-.715.002a.023.023 0 0 0-.027.006l-.006.014-.034.614c0 .012.007.02.017.024l.015-.002.201-.093.01-.008.003-.011.018-.43-.003-.012-.01-.01z"/><path fill="#09244B" d="M13.08 2.868a1.25 1.25 0 0 0-2.16 0L8.126 7.665 2.697 8.842a1.25 1.25 0 0 0-.667 2.054l3.7 4.141-.56 5.525a1.25 1.25 0 0 0 1.748 1.27L12 19.592l5.082 2.24a1.25 1.25 0 0 0 1.748-1.27l-.56-5.525 3.7-4.14a1.25 1.25 0 0 0-.667-2.055l-5.428-1.176zM12 17.523c.172 0 .344.035.504.106l4.206 1.854-.463-4.573a1.25 1.25 0 0 1 .312-.959l3.062-3.427-4.492-.973a1.25 1.25 0 0 1-.816-.592L12 4.987z"/></g></svg>