<?xml version="1.0" encoding="UTF-8"?>
<svg width="24px" height="24px" viewBox="0 0 24 24" version="1.1" xmlns="http://www.w3.org/2000/svg" xmlns:xlink="http://www.w3.org/1999/xlink">
    <title>bone_fill</title>
    <g id="Icon" stroke="none" stroke-width="1" fill="none" fill-rule="evenodd">
        <g id="Food" transform="translate(-432.000000, -145.000000)">
            <g id="bone_fill" transform="translate(432.000000, 145.000000)">
                <path d="M24,0 L24,24 L0,24 L0,0 L24,0 Z M12.5935,23.2578 L12.5819,23.2595 L12.5109,23.295 L12.4919,23.2987 L12.4767,23.295 L12.4057,23.2595 C12.3958,23.2564 12.387,23.259 12.3821,23.2649 L12.378,23.2758 L12.3609,23.7031 L12.3659,23.7235 L12.3769,23.7357 L12.4805,23.8097 L12.4953,23.8136 L12.5071,23.8097 L12.6107,23.7357 L12.6233,23.7197 L12.6267,23.7031 L12.6096,23.2758 C12.6076,23.2657 12.601,23.2593 12.5935,23.2578 Z M12.8584,23.1453 L12.8445,23.1473 L12.6598,23.2397 L12.6499,23.2499 L12.6472,23.2611 L12.6651,23.6906 L12.6699,23.7034 L12.6784,23.7105 L12.8793,23.8032 C12.8914,23.8069 12.9022,23.803 12.9078,23.7952 L12.9118,23.7812 L12.8777,23.1665 C12.8753,23.1546 12.8674,23.147 12.8584,23.1453 Z M12.143,23.1473 C12.1332,23.1424 12.1222,23.1453 12.1156,23.1526 L12.1099,23.1665 L12.0758,23.7812 C12.0751,23.7927 12.0828,23.8019 12.0926,23.8046 L12.1083,23.8032 L12.3092,23.7105 L12.3186,23.7024 L12.3225,23.6906 L12.3404,23.2611 L12.3372,23.2485 L12.3278,23.2397 L12.143,23.1473 Z" id="MingCute" fill-rule="nonzero"></path>
                <path d="M17.657,3.51483 C18.1717,4.02958 18.5171,4.65093 18.6926,5.3076 C19.3493,5.48311 19.9706,5.82851 20.4854,6.3432625 C22.0475,7.90536 22.0475,10.438 20.4854,12.0001 C19.1675,13.318 17.1587,13.524 15.6248,12.6181 L12.6181,15.6248 C13.524,17.1587 13.3181,19.1675 12.0001,20.4854 C10.438,22.0475 7.90536,22.0475 6.3432625,20.4854 C5.82851,19.9706 5.48311,19.3493 5.30761,18.6926 C4.65094,18.5171 4.02958,18.1717 3.51483,17.657 C1.95274,16.0949 1.95274,13.5622 3.51483,12.0001 C4.83277,10.6822 6.84157,10.4762 8.37547,11.3821 L11.3821,8.37547 C10.4762,6.84157 10.6822,4.83277 12.0001,3.51483 C13.5622,1.95274 16.0949,1.95274 17.657,3.51483 Z" id="路径" fill="#09244B"></path>
            </g>
        </g>
    </g>
</svg>