<?xml version="1.0" encoding="UTF-8"?>
<svg width="24px" height="24px" viewBox="0 0 24 24" version="1.1" xmlns="http://www.w3.org/2000/svg" xmlns:xlink="http://www.w3.org/1999/xlink">
    <title>bowl_line</title>
    <g id="页面-1" stroke="none" stroke-width="1" fill="none" fill-rule="evenodd">
        <g id="bowl_line">
            <rect id="矩形" fill-rule="nonzero" x="0" y="0" width="24" height="24"></rect>
            <path d="M20.1538,5 C21.1735,5 22,5.82655 22,6.84615 L22,9 C22,12.9187 19.4955,16.2524 15.9999,17.4879 C16,17.4919 16,17.496 16,17.5 L16,18.5 C16,19.3284 15.3284,20 14.5,20 L9.5,20 C8.67157,20 8,19.3284 8,18.5 L8,17.5 C8,17.496 8.00003,17.4919 8.00007,17.4879 C4.50446,16.2524 2,12.9187 2,9 L2,6.84615 C2,5.82655 2.82655,5 3.84615,5 L20.1538,5 Z M20,9 L20,7 L4,7 L4,9 C4,12.866 7.13401,16 11,16 L13,16 C16.866,16 20,12.866 20,9 Z" id="形状" fill="#09244B"></path>
        </g>
    </g>
</svg>