<svg xmlns="http://www.w3.org/2000/svg" width="24" height="24"><g fill="none" fill-rule="evenodd"><path d="M24 0v24H0V0zM12.594 23.258l-.012.002-.071.035-.02.004-.014-.004-.071-.036c-.01-.003-.019 0-.024.006l-.004.01-.017.428.005.02.01.013.104.074.015.004.012-.004.104-.074.012-.016.004-.017-.017-.427c-.002-.01-.009-.017-.016-.018m.264-.113-.014.002-.184.093-.01.01-.003.011.018.43.005.012.008.008.201.092c.012.004.023 0 .029-.008l.004-.014-.034-.614c-.003-.012-.01-.02-.02-.022m-.715.002a.023.023 0 0 0-.027.006l-.006.014-.034.614c0 .012.007.02.017.024l.015-.002.201-.093.01-.008.003-.011.018-.43-.003-.012-.01-.01z"/><path fill="#09244B" d="M8.316 2.551a1 1 0 1 0-.632 1.897c.15.05.214.228.13.363L6.99 6.129a2.245 2.245 0 0 0 1.194 3.32 1 1 0 0 0 .632-1.898.245.245 0 0 1-.13-.362l.824-1.318a2.245 2.245 0 0 0-1.194-3.32m4 0a1 1 0 0 0-.632 1.897c.15.05.214.228.13.363l-.824 1.318a2.245 2.245 0 0 0 1.194 3.32 1 1 0 0 0 .632-1.898.245.245 0 0 1-.13-.362l.824-1.318a2.245 2.245 0 0 0-1.194-3.32m4 0a1 1 0 0 0-.632 1.897c.15.05.214.228.13.363l-.824 1.318a2.245 2.245 0 0 0 1.194 3.32 1 1 0 0 0 .632-1.898.245.245 0 0 1-.13-.362l.824-1.318a2.245 2.245 0 0 0-1.194-3.32M4 10a1 1 0 0 0-1 1v1a8.003 8.003 0 0 0 5.715 7.669c.356.106.34.286.313.58-.006.065-.012.134-.016.21A1.483 1.483 0 0 0 10.5 22h3c.821 0 1.523-.674 1.488-1.541-.003-.076-.01-.145-.016-.21-.027-.294-.043-.474.313-.58A8.003 8.003 0 0 0 21 12v-1a1 1 0 0 0-1-1z"/></g></svg>