<svg xmlns="http://www.w3.org/2000/svg" width="24" height="24"><g fill="none" fill-rule="evenodd"><path d="M24 0v24H0V0zM12.593 23.258l-.011.002-.071.035-.02.004-.014-.004-.071-.035c-.01-.004-.019-.001-.024.005l-.004.01-.017.428.005.02.01.013.104.074.015.004.012-.004.104-.074.012-.016.004-.017-.017-.427c-.002-.01-.009-.017-.017-.018m.265-.113-.013.002-.185.093-.01.01-.003.011.018.43.005.012.008.007.201.093c.012.004.023 0 .029-.008l.004-.014-.034-.614c-.003-.012-.01-.02-.02-.022m-.715.002a.023.023 0 0 0-.027.006l-.006.014-.034.614c0 .012.007.02.017.024l.015-.002.201-.093.01-.008.004-.011.017-.43-.003-.012-.01-.01z"/><path fill="#09244B" d="M14.194 2.885c2.3-.299 4.458.21 5.645 1.397.79.791 1.18 1.711 1.16 2.72-.017.961-.405 1.894-.938 2.764-.762 1.245-1.952 2.563-3.27 3.915l-.729.74-1.616 1.617-.691.682c-1.378 1.346-2.722 2.566-3.989 3.341-.87.533-1.803.92-2.764.939-1.009.02-1.929-.37-2.72-1.161-1.187-1.187-1.696-3.344-1.397-5.645.307-2.36 1.471-5.035 3.872-7.437 2.402-2.4 5.078-3.565 7.437-3.872m-8.503 8.78a9.822 9.822 0 0 0-.742 2.283c.42.36.919.638 1.492.83a1 1 0 0 0 .633-1.898c-.667-.222-1.112-.612-1.383-1.216Zm3-3.986a13.829 13.829 0 0 0-1.406 1.468c.194.251.406.489.621.704.585.584 1.333 1.145 2.07 1.39a1 1 0 0 0 .742-1.854l-.109-.043c-.323-.107-.812-.43-1.288-.907a5.096 5.096 0 0 1-.63-.758m4.42-2.53c-.618.178-1.259.43-1.907.768.52.847 1.299 1.452 2.308 1.789a1 1 0 1 0 .633-1.897c-.434-.145-.774-.36-1.034-.66"/></g></svg>