<?xml version="1.0" encoding="UTF-8"?>
<svg width="24px" height="24px" viewBox="0 0 24 24" version="1.1" xmlns="http://www.w3.org/2000/svg" xmlns:xlink="http://www.w3.org/1999/xlink">
    <title>cake_fill</title>
    <g id="页面-1" stroke="none" stroke-width="1" fill="none" fill-rule="evenodd">
        <g id="Food" transform="translate(-96.000000, -48.000000)" fill-rule="nonzero">
            <g id="cake_fill" transform="translate(96.000000, 48.000000)">
                <rect id="矩形" x="0" y="0" width="24" height="24"></rect>
                <path d="M17.7071,15.7071 C17.8689,15.5453 18.1311,15.5453 18.2929,15.7071 C19.0249,16.4391 20.1101,16.6028 21,16.1981 L21,16.1981 L21,20 C21.5523,20 22,20.4477 22,21 C22,21.5523 21.5523,22 21,22 L21,22 L3,22 C2.44772,22 2,21.5523 2,21 C2,20.4477 2.44772,20 3,20 L3,20 L3,16.1981 C3.88993,16.6028 4.97508,16.4391 5.70711,15.7071 C5.86887,15.5453 6.13113,15.5453 6.29289,15.7071 C7.2357,16.6499 8.7643,16.6499 9.70711,15.7071 C9.86887,15.5453 10.1311,15.5453 10.2929,15.7071 C11.2357,16.6499 12.7643,16.6499 13.7071,15.7071 C13.8689,15.5453 14.1311,15.5453 14.2929,15.7071 C15.2357,16.6499 16.7643,16.6499 17.7071,15.7071 Z M16,6 C16.5523,6 17,6.44772 17,7 L17,7 L17,9 L18,9 C19.6569,9 21,10.3431 21,12 L21,12 L21,13.5858 L20.2929,14.2929 C20.1311,14.4547 19.8689,14.4547 19.7071,14.2929 C18.7643,13.3501 17.2357,13.3501 16.2929,14.2929 C16.1311,14.4547 15.8689,14.4547 15.7071,14.2929 C14.7643,13.3501 13.2357,13.3501 12.2929,14.2929 C12.1311,14.4547 11.8689,14.4547 11.7071,14.2929 C10.7643,13.3501 9.2357,13.3501 8.29289,14.2929 C8.13113,14.4547 7.86887,14.4547 7.70711,14.2929 C6.7643,13.3501 5.2357,13.3501 4.29289,14.2929 C4.13113,14.4547 3.86887,14.4547 3.70711,14.2929 L3.70711,14.2929 L3,13.5858 L3,12 C3,10.3431 4.34315,9 6,9 L6,9 L7,9 L7,7 C7,6.44772 7.44772,6 8,6 C8.55228,6 9,6.44772 9,7 L9,7 L9,9 L11,9 L11,7 C11,6.44772 11.4477,6 12,6 C12.5523,6 13,6.44772 13,7 L13,7 L13,9 L15,9 L15,7 C15,6.44772 15.4477,6 16,6 Z M12.5,2 C12.1812,2.63761 12.4722,3.05069 12.725,3.40951 C12.8687,3.61345 13,3.79986 13,4 C13,4.55228 12.5523,5 12,5 C11.4477,5 11,4.55228 11,4 C11,3.44772 11.5,2.5 12.5,2 Z M8.5,2 C8.18119,2.63761 8.47221,3.05069 8.725,3.40951 C8.86867,3.61345 9,3.79986 9,4 C9,4.55228 8.55228,5 8,5 C7.44772,5 7,4.55228 7,4 C7,3.44772 7.5,2.5 8.5,2 Z M16.5,2 C16.1812,2.63761 16.4722,3.05069 16.725,3.40951 C16.8687,3.61345 17,3.79986 17,4 C17,4.55228 16.5523,5 16,5 C15.4477,5 15,4.55228 15,4 C15,3.44772 15.5,2.5 16.5,2 Z" id="形状结合" fill="#09244B"></path>
            </g>
        </g>
    </g>
</svg>