<?xml version="1.0" encoding="UTF-8"?>
<svg width="24px" height="24px" viewBox="0 0 24 24" version="1.1" xmlns="http://www.w3.org/2000/svg" xmlns:xlink="http://www.w3.org/1999/xlink">
    <title>cake_line</title>
    <g id="页面-1" stroke="none" stroke-width="1" fill="none" fill-rule="evenodd">
        <g id="Food" transform="translate(-96.000000, 0.000000)">
            <g id="cake_line" transform="translate(96.000000, 0.000000)">
                <rect id="矩形" fill-rule="nonzero" x="0" y="0" width="24" height="24"></rect>
                <path d="M16,6 C16.5523,6 17,6.44772 17,7 L17,9 L18,9 C19.6569,9 21,10.3431 21,12 L21,20 C21.5523,20 22,20.4477 22,21 C22,21.5523 21.5523,22 21,22 L3,22 C2.44772,22 2,21.5523 2,21 C2,20.4477 2.44772,20 3,20 L3,12 C3,10.3431 4.34315,9 6,9 L7,9 L7,7 C7,6.44772 7.44772,6 8,6 C8.55228,6 9,6.44772 9,7 L9,9 L11,9 L11,7 C11,6.44772 11.4477,6 12,6 C12.5523,6 13,6.44772 13,7 L13,9 L15,9 L15,7 C15,6.44772 15.4477,6 16,6 Z M17.7071,15.7071 C16.7643,16.6499 15.2357,16.6499 14.2929,15.7071 C14.1311,15.5453 13.8689,15.5453 13.7071,15.7071 C12.7643,16.6499 11.2357,16.6499 10.2929,15.7071 C10.1311,15.5453 9.86887,15.5453 9.70711,15.7071 C8.7643,16.6499 7.2357,16.6499 6.29289,15.7071 C6.13113,15.5453 5.86887,15.5453 5.70711,15.7071 L5,16.4142 L5,20 L19,20 L19,16.4142 L18.2929,15.7071 C18.1311,15.5453 17.8689,15.5453 17.7071,15.7071 Z M18,11 L6,11 C5.48716857,11 5.06449347,11.386027 5.0067278,11.8833761 L5,12 L5,13.8019 C5.88993,13.3972 6.97508,13.5609 7.70711,14.2929 C7.86887,14.4547 8.13113,14.4547 8.29289,14.2929 C9.2357,13.3501 10.7643,13.3501 11.7071,14.2929 C11.8689,14.4547 12.1311,14.4547 12.2929,14.2929 C13.2357,13.3501 14.7643,13.3501 15.7071,14.2929 C15.8689,14.4547 16.1311,14.4547 16.2929,14.2929 C16.97915,13.60665 17.9758297,13.4198824 18.830989,13.7326797 L19,13.8019 L19,12 C19,11.48715 18.613973,11.0644908 18.1166239,11.0067275 L18,11 Z M12.5,2 C12.2495143,2.50097929 12.3754867,2.86334566 12.5635996,3.16969001 L12.67048,3.33172744 L12.67048,3.33172744 L12.725,3.40951 C12.8687,3.61345 13,3.79986 13,4 C13,4.55228 12.5523,5 12,5 C11.4477,5 11,4.55228 11,4 C11,3.44772 11.5,2.5 12.5,2 Z M8.5,2 C8.24950643,2.50097929 8.37548954,2.86334566 8.56360245,3.16969001 L8.67048173,3.33172744 L8.67048173,3.33172744 L8.725,3.40951 C8.86867,3.61345 9,3.79986 9,4 C9,4.55228 8.55228,5 8,5 C7.44772,5 7,4.55228 7,4 C7,3.44772 7.5,2.5 8.5,2 Z M16.5,2 C16.2495143,2.50097929 16.3754867,2.86334566 16.5635996,3.16969001 L16.67048,3.33172744 L16.67048,3.33172744 L16.725,3.40951 C16.8687,3.61345 17,3.79986 17,4 C17,4.55228 16.5523,5 16,5 C15.4477,5 15,4.55228 15,4 C15,3.44772 15.5,2.5 16.5,2 Z" id="形状" fill="#09244B"></path>
            </g>
        </g>
    </g>
</svg>