<?xml version="1.0" encoding="UTF-8"?>
<svg width="24px" height="24px" viewBox="0 0 24 24" version="1.1" xmlns="http://www.w3.org/2000/svg" xmlns:xlink="http://www.w3.org/1999/xlink">
    <title>cake_line</title>
    <g id="页面-1" stroke="none" stroke-width="1" fill="none" fill-rule="evenodd">
        <g id="Food" transform="translate(-96.000000, 0.000000)">
            <g id="cake_line" transform="translate(96.000000, 0.000000)">
                 <path d="M24,0 L24,24 L0,24 L0,0 L24,0 Z M12.5934901,23.257841 L12.5819402,23.2595131 L12.5108777,23.2950439 L12.4918791,23.2987469 L12.4918791,23.2987469 L12.4767152,23.2950439 L12.4056548,23.2595131 C12.3958229,23.2563662 12.3870493,23.2590235 12.3821421,23.2649074 L12.3780323,23.275831 L12.360941,23.7031097 L12.3658947,23.7234994 L12.3769048,23.7357139 L12.4804777,23.8096931 L12.4953491,23.8136134 L12.4953491,23.8136134 L12.5071152,23.8096931 L12.6106902,23.7357139 L12.6232938,23.7196733 L12.6232938,23.7196733 L12.6266527,23.7031097 L12.609561,23.275831 C12.6075724,23.2657013 12.6010112,23.2592993 12.5934901,23.257841 L12.5934901,23.257841 Z M12.8583906,23.1452862 L12.8445485,23.1473072 L12.6598443,23.2396597 L12.6498822,23.2499052 L12.6498822,23.2499052 L12.6471943,23.2611114 L12.6650943,23.6906389 L12.6699349,23.7034178 L12.6699349,23.7034178 L12.678386,23.7104931 L12.8793402,23.8032389 C12.8914285,23.8068999 12.9022333,23.8029875 12.9078286,23.7952264 L12.9118235,23.7811639 L12.8776777,23.1665331 C12.8752882,23.1545897 12.8674102,23.1470016 12.8583906,23.1452862 L12.8583906,23.1452862 Z M12.1430473,23.1473072 C12.1332178,23.1423925 12.1221763,23.1452606 12.1156365,23.1525954 L12.1099173,23.1665331 L12.0757714,23.7811639 C12.0751323,23.7926639 12.0828099,23.8018602 12.0926481,23.8045676 L12.108256,23.8032389 L12.3092106,23.7104931 L12.3186497,23.7024347 L12.3186497,23.7024347 L12.3225043,23.6906389 L12.340401,23.2611114 L12.337245,23.2485176 L12.337245,23.2485176 L12.3277531,23.2396597 L12.1430473,23.1473072 Z" id="MingCute" fill-rule="nonzero"></path>
                <path d="M16,6 C16.5523,6 17,6.44772 17,7 L17,9 L18,9 C19.6569,9 21,10.3431 21,12 L21,20 C21.5523,20 22,20.4477 22,21 C22,21.5523 21.5523,22 21,22 L3,22 C2.44772,22 2,21.5523 2,21 C2,20.4477 2.44772,20 3,20 L3,12 C3,10.3431 4.34315,9 6,9 L7,9 L7,7 C7,6.44772 7.44772,6 8,6 C8.55228,6 9,6.44772 9,7 L9,9 L11,9 L11,7 C11,6.44772 11.4477,6 12,6 C12.5523,6 13,6.44772 13,7 L13,9 L15,9 L15,7 C15,6.44772 15.4477,6 16,6 Z M17.7071,15.7071 C16.7643,16.6499 15.2357,16.6499 14.2929,15.7071 C14.1311,15.5453 13.8689,15.5453 13.7071,15.7071 C12.7643,16.6499 11.2357,16.6499 10.2929,15.7071 C10.1311,15.5453 9.86887,15.5453 9.70711,15.7071 C8.7643,16.6499 7.2357,16.6499 6.29289,15.7071 C6.13113,15.5453 5.86887,15.5453 5.70711,15.7071 L5,16.4142 L5,20 L19,20 L19,16.4142 L18.2929,15.7071 C18.1311,15.5453 17.8689,15.5453 17.7071,15.7071 Z M18,11 L6,11 C5.48716857,11 5.06449347,11.386027 5.0067278,11.8833761 L5,12 L5,13.8019 C5.88993,13.3972 6.97508,13.5609 7.70711,14.2929 C7.86887,14.4547 8.13113,14.4547 8.29289,14.2929 C9.2357,13.3501 10.7643,13.3501 11.7071,14.2929 C11.8689,14.4547 12.1311,14.4547 12.2929,14.2929 C13.2357,13.3501 14.7643,13.3501 15.7071,14.2929 C15.8689,14.4547 16.1311,14.4547 16.2929,14.2929 C16.97915,13.60665 17.9758297,13.4198824 18.830989,13.7326797 L19,13.8019 L19,12 C19,11.48715 18.613973,11.0644908 18.1166239,11.0067275 L18,11 Z M12.5,2 C12.2495143,2.50097929 12.3754867,2.86334566 12.5635996,3.16969001 L12.67048,3.33172744 L12.67048,3.33172744 L12.725,3.40951 C12.8687,3.61345 13,3.79986 13,4 C13,4.55228 12.5523,5 12,5 C11.4477,5 11,4.55228 11,4 C11,3.44772 11.5,2.5 12.5,2 Z M8.5,2 C8.24950643,2.50097929 8.37548954,2.86334566 8.56360245,3.16969001 L8.67048173,3.33172744 L8.67048173,3.33172744 L8.725,3.40951 C8.86867,3.61345 9,3.79986 9,4 C9,4.55228 8.55228,5 8,5 C7.44772,5 7,4.55228 7,4 C7,3.44772 7.5,2.5 8.5,2 Z M16.5,2 C16.2495143,2.50097929 16.3754867,2.86334566 16.5635996,3.16969001 L16.67048,3.33172744 L16.67048,3.33172744 L16.725,3.40951 C16.8687,3.61345 17,3.79986 17,4 C17,4.55228 16.5523,5 16,5 C15.4477,5 15,4.55228 15,4 C15,3.44772 15.5,2.5 16.5,2 Z" id="形状" fill="#09244B"></path>
            </g>
        </g>
    </g>
</svg>