<svg xmlns="http://www.w3.org/2000/svg" width="24" height="24"><g fill="none" fill-rule="evenodd"><path d="M24 0v24H0V0zM12.594 23.258l-.012.002-.071.035-.02.004-.014-.004-.071-.036c-.01-.003-.019 0-.024.006l-.004.01-.017.428.005.02.01.013.104.074.015.004.012-.004.104-.074.012-.016.004-.017-.017-.427c-.002-.01-.009-.017-.016-.018m.264-.113-.014.002-.184.093-.01.01-.003.011.018.43.005.012.008.008.201.092c.012.004.023 0 .029-.008l.004-.014-.034-.614c-.003-.012-.01-.02-.02-.022m-.715.002a.023.023 0 0 0-.027.006l-.006.014-.034.614c0 .012.007.02.017.024l.015-.002.201-.093.01-.008.003-.011.018-.43-.003-.012-.01-.01z"/><path fill="#09244B" d="M17.657 2.515a1 1 0 0 1 .993.883l.007.117v.414l.414-.414a1 1 0 0 1 1.497 1.32l-.083.094-.414.414h.414a1 1 0 0 1 .117 1.993l-.117.007h-2.057c1.265 2.176.654 5.066-1.553 6.5l-.205.126-11.01 6.423c-1.293.754-2.74-.634-2.114-1.934l.062-.118 6.423-11.01c1.344-2.304 4.209-3.02 6.426-1.868l.2.11V3.515a1 1 0 0 1 1-1m-4.95 10.192a1 1 0 0 0-1.497 1.32l.083.094 1.06 1.06a1 1 0 0 0 1.498-1.32l-.083-.093zm-2.121-4.95a1 1 0 0 0 0 1.414L12 10.586a1 1 0 0 0 1.414-1.415L12 7.757a1 1 0 0 0-1.414 0"/></g></svg>