<?xml version="1.0" encoding="UTF-8"?>
<svg width="24px" height="24px" viewBox="0 0 24 24" version="1.1" xmlns="http://www.w3.org/2000/svg" xmlns:xlink="http://www.w3.org/1999/xlink">
    <title>cupcake_line</title>
    <g id="Icon" stroke="none" stroke-width="1" fill="none" fill-rule="evenodd">
        <g id="Food" transform="translate(-768.000000, 0.000000)">
            <g id="cupcake_line" transform="translate(768.000000, 0.000000)">
                <path d="M24,0 L24,24 L0,24 L0,0 L24,0 Z M12.5935,23.2578 L12.5819,23.2595 L12.5109,23.295 L12.4919,23.2987 L12.4767,23.295 L12.4057,23.2595 C12.3958,23.2564 12.387,23.259 12.3821,23.2649 L12.378,23.2758 L12.3609,23.7031 L12.3659,23.7235 L12.3769,23.7357 L12.4805,23.8097 L12.4953,23.8136 L12.5071,23.8097 L12.6107,23.7357 L12.6233,23.7197 L12.6267,23.7031 L12.6096,23.2758 C12.6076,23.2657 12.601,23.2593 12.5935,23.2578 Z M12.8584,23.1453 L12.8445,23.1473 L12.6598,23.2397 L12.6499,23.2499 L12.6472,23.2611 L12.6651,23.6906 L12.6699,23.7034 L12.6784,23.7105 L12.8793,23.8032 C12.8914,23.8069 12.9022,23.803 12.9078,23.7952 L12.9118,23.7812 L12.8777,23.1665 C12.8753,23.1546 12.8674,23.147 12.8584,23.1453 Z M12.143,23.1473 C12.1332,23.1424 12.1222,23.1453 12.1156,23.1526 L12.1099,23.1665 L12.0758,23.7812 C12.0751,23.7927 12.0828,23.8019 12.0926,23.8046 L12.1083,23.8032 L12.3092,23.7105 L12.3186,23.7024 L12.3225,23.6906 L12.3404,23.2611 L12.3372,23.2485 L12.3278,23.2397 L12.143,23.1473 Z" id="MingCute" fill-rule="nonzero"></path>
                <path d="M12,3 C9.36551,3 7.12925,4.69709 6.3218,7.05726 C4.43567,7.37938 3,9.02203 3,11 C3,12.0213 3.38275,12.9532 4.01264,13.6601 C4.02687,13.7476 4.05308,13.8346 4.09204,13.9191 L6.55579,19.2572 C7.04615,20.3196 8.10951,21 9.27966,21 L14.7203,21 C15.8905,21 16.9539,20.3196 17.4442,19.2572 L19.908,13.9191 C19.9469,13.8346 19.9731,13.7476 19.9874,13.6601 C20.6172,12.9532 21,12.0213 21,11 C21,9.02203 19.5643,7.37938 17.6782,7.05726 C16.8708,4.69709 14.6345,3 12,3 Z M8.07977,8.20023 C8.44979,6.37422 10.0655,5 12,5 C13.9345,5 15.5502,6.37422 15.9202,8.20023 C16.0172,8.67854 16.4452,9.01702 16.9329,9.0011 C16.9552,9.00037 16.9776,9 17,9 C18.1046,9 19,9.89543 19,11 C19,12.1046 18.1046,13 17,13 L7,13 C5.89543,13 5,12.1046 5,11 C5,9.89543 5.89543,9 7,9 C7.02241,9 7.04476,9.00037 7.06706,9.0011 C7.55482,9.01702 7.98284,8.67854 8.07977,8.20023 Z M17,15 L7,15 C6.69084,15 8.13605,17.9085 8.37171,18.4191 C8.53516,18.7732 8.88961,19 9.27966,19 L14.7203,19 C15.1104,19 15.4648,18.7732 15.6283,18.4191 C15.8639,17.9085 17.3092,15 17,15 Z" id="形状" fill="#09244B"></path>
            </g>
        </g>
    </g>
</svg>