<svg xmlns="http://www.w3.org/2000/svg" width="24" height="24" viewBox="0 0 24 24"><g fill="none" fill-rule="evenodd"><path d="M24,0 L24,24 L0,24 L0,0 L24,0 Z M12.5935,23.2578 L12.5819,23.2595 L12.5109,23.295 L12.4919,23.2987 L12.4767,23.295 L12.4057,23.2595 C12.3958,23.2564 12.387,23.259 12.3821,23.2649 L12.378,23.2758 L12.3609,23.7031 L12.3659,23.7235 L12.3769,23.7357 L12.4805,23.8097 L12.4953,23.8136 L12.5071,23.8097 L12.6107,23.7357 L12.6233,23.7197 L12.6267,23.7031 L12.6096,23.2758 C12.6076,23.2657 12.601,23.2593 12.5935,23.2578 Z M12.8584,23.1453 L12.8445,23.1473 L12.6598,23.2397 L12.6499,23.2499 L12.6472,23.2611 L12.6651,23.6906 L12.6699,23.7034 L12.6784,23.7105 L12.8793,23.8032 C12.8914,23.8069 12.9022,23.803 12.9078,23.7952 L12.9118,23.7812 L12.8777,23.1665 C12.8753,23.1546 12.8674,23.147 12.8584,23.1453 Z M12.143,23.1473 C12.1332,23.1424 12.1222,23.1453 12.1156,23.1526 L12.1099,23.1665 L12.0758,23.7812 C12.0751,23.7927 12.0828,23.8019 12.0926,23.8046 L12.1083,23.8032 L12.3092,23.7105 L12.3186,23.7024 L12.3225,23.6906 L12.3404,23.2611 L12.3372,23.2485 L12.3278,23.2397 L12.143,23.1473 Z"/><path fill="#09244B" d="M9,4 C9,3.44772 9.44772,3 10,3 L14,3 C14.5523,3 15,3.44772 15,4 C15,4.55228 14.5523,5 14,5 L13,5 L13,6.03451 C18.44,6.52538 22.0104,12.1667 19.9285,17.3714 C19.7766,17.751 19.4089,18 19,18 L5,18 C4.5911,18 4.22339,17.751 4.07152,17.3714 C1.98964,12.1667 5.56,6.52538 11,6.03451 L11,5 L10,5 C9.44772,5 9,4.55228 9,4 Z M11.7703,8 C7.54396,8 4.58649,12.0529 5.71344,16 L18.2866,16 C19.4135,12.0529 16.456,8 12.2297,8 L11.7703,8 Z M3,20 C3,19.4477 3.44772,19 4,19 L20,19 C20.5523,19 21,19.4477 21,20 C21,20.5523 20.5523,21 20,21 L4,21 C3.44772,21 3,20.5523 3,20 Z"/></g></svg>