<svg xmlns="http://www.w3.org/2000/svg" width="24" height="24" viewBox="0 0 24 24"><g fill="none" fill-rule="evenodd"><path d="M24,0 L24,24 L0,24 L0,0 L24,0 Z M12.5935,23.2578 L12.5819,23.2595 L12.5109,23.295 L12.4919,23.2987 L12.4767,23.295 L12.4057,23.2595 C12.3958,23.2564 12.387,23.259 12.3821,23.2649 L12.378,23.2758 L12.3609,23.7031 L12.3659,23.7235 L12.3769,23.7357 L12.4805,23.8097 L12.4953,23.8136 L12.5071,23.8097 L12.6107,23.7357 L12.6233,23.7197 L12.6267,23.7031 L12.6096,23.2758 C12.6076,23.2657 12.601,23.2593 12.5935,23.2578 Z M12.8584,23.1453 L12.8445,23.1473 L12.6598,23.2397 L12.6499,23.2499 L12.6472,23.2611 L12.6651,23.6906 L12.6699,23.7034 L12.6784,23.7105 L12.8793,23.8032 C12.8914,23.8069 12.9022,23.803 12.9078,23.7952 L12.9118,23.7812 L12.8777,23.1665 C12.8753,23.1546 12.8674,23.147 12.8584,23.1453 Z M12.143,23.1473 C12.1332,23.1424 12.1222,23.1453 12.1156,23.1526 L12.1099,23.1665 L12.0758,23.7812 C12.0751,23.7927 12.0828,23.8019 12.0926,23.8046 L12.1083,23.8032 L12.3092,23.7105 L12.3186,23.7024 L12.3225,23.6906 L12.3404,23.2611 L12.3372,23.2485 L12.3278,23.2397 L12.143,23.1473 Z"/><path fill="#09244B" d="M12,2 C17.5228,2 22,6.47715 22,12 C22,17.5228 17.5228,22 12,22 C6.47715,22 2,17.5228 2,12 C2,6.47715 6.47715,2 12,2 Z M11.1838,16.5513 L9.68377,17.0513 C9.15983,17.226 8.87667,17.7923 9.05132,18.3162 C9.22596,18.8402 9.79228,19.1233 10.3162,18.9487 L11.8162,18.4487 C12.3402,18.274 12.6233,17.7077 12.4487,17.1838 C12.274,16.6598 11.7077,16.3767 11.1838,16.5513 Z M16.2071,15.7929 C15.8166,15.4024 15.1834,15.4024 14.7929,15.7929 C14.4324385,16.1533615 14.4047107,16.7206207 14.7097166,17.1128973 L14.7929,17.2071 L15.2929,17.7071 C15.6834,18.0976 16.3166,18.0976 16.7071,17.7071 C17.0675615,17.3466385 17.0952893,16.7793793 16.7902834,16.3871027 L16.7071,16.2929 L16.2071,15.7929 Z M6.89443,12.5528 C6.64744,12.0588 6.04676,11.8586 5.55279,12.1056 C5.09409429,12.3349571 4.88868301,12.8692041 5.05943285,13.3398789 L5.10557,13.4472 L5.60557,14.4472 C5.85256,14.9412 6.45324,15.1414 6.94721,14.8944 C7.40590571,14.6650429 7.61131699,14.1307959 7.44056715,13.6601211 L7.39443,13.5528 L6.89443,12.5528 Z M12,9 C10.3431,9 9,10.3431 9,12 C9,13.6569 10.3431,15 12,15 C13.6569,15 15,13.6569 15,12 C15,10.3431 13.6569,9 12,9 Z M16.7929,12.7929 C16.4024,13.1834 16.4024,13.8166 16.7929,14.2071 L17.2929,14.7071 C17.6834,15.0976 18.3166,15.0976 18.7071,14.7071 C19.0976,14.3166 19.0976,13.6834 18.7071,13.2929 L18.2071,12.7929 C17.8166,12.4024 17.1834,12.4024 16.7929,12.7929 Z M6.70711,8.29289 C6.31658,7.90237 5.68342,7.90237 5.29289,8.29289 C4.93241,8.65337923 4.90468077,9.22060645 5.20970231,9.61290152 L5.29289,9.70711 L5.79289,10.2071 C6.18342,10.5976 6.81658,10.5976 7.20711,10.2071 C7.56759,9.84662 7.59531923,9.27939349 7.29029769,8.88709847 L7.20711,8.79289 L6.70711,8.29289 Z M15.2929,6.29289 L14.7929,6.79289 C14.4024,7.18342 14.4024,7.81658 14.7929,8.20711 C15.1834,8.59763 15.8166,8.59763 16.2071,8.20711 L16.7071,7.70711 C17.0976,7.31658 17.0976,6.68342 16.7071,6.29289 C16.3166,5.90237 15.6834,5.90237 15.2929,6.29289 Z M10.0513,5.18377 C9.87665,5.70772 10.1598,6.27404 10.6838,6.44868 L12.1838,6.94868 C12.7077,7.12333 13.274,6.84017 13.4487,6.31623 C13.6233,5.79228 13.3402,5.22596 12.8162,5.05132 L11.3162,4.55132 C10.7923,4.37667 10.2259,4.65983 10.0513,5.18377 Z"/></g></svg>