<svg xmlns="http://www.w3.org/2000/svg" width="24" height="24"><g fill="none" fill-rule="evenodd"><path d="M24 0v24H0V0zM12.594 23.258l-.012.002-.071.035-.02.004-.014-.004-.071-.036c-.01-.003-.019 0-.024.006l-.004.01-.017.428.005.02.01.013.104.074.015.004.012-.004.104-.074.012-.016.004-.017-.017-.427c-.002-.01-.009-.017-.016-.018m.264-.113-.014.002-.184.093-.01.01-.003.011.018.43.005.012.008.008.201.092c.012.004.023 0 .029-.008l.004-.014-.034-.614c-.003-.012-.01-.02-.02-.022m-.715.002a.023.023 0 0 0-.027.006l-.006.014-.034.614c0 .012.007.02.017.024l.015-.002.201-.093.01-.008.003-.011.018-.43-.003-.012-.01-.01z"/><path fill="#09244B" d="M12 2c5.523 0 10 4.477 10 10s-4.477 10-10 10S2 17.523 2 12 6.477 2 12 2m-.816 14.551-1.5.5a1 1 0 0 0 .632 1.898l1.5-.5a1 1 0 0 0-.632-1.898m5.023-.758a1 1 0 0 0-1.497 1.32l.083.094.5.5a1 1 0 0 0 1.497-1.32l-.083-.094zm-9.313-3.24a1 1 0 0 0-1.835.787l.047.107.5 1a1 1 0 0 0 1.835-.787l-.047-.107zM12 9a3 3 0 1 0 0 6 3 3 0 0 0 0-6m4.793 3.793a1 1 0 0 0 0 1.414l.5.5a1 1 0 0 0 1.414-1.414l-.5-.5a1 1 0 0 0-1.414 0m-10.086-4.5a1 1 0 0 0-1.497 1.32l.083.094.5.5a1 1 0 0 0 1.497-1.32l-.083-.094zm8.586-2-.5.5a1 1 0 0 0 1.414 1.414l.5-.5a1 1 0 0 0-1.414-1.414m-5.242-1.11a1 1 0 0 0 .633 1.266l1.5.5a1 1 0 0 0 .632-1.898l-1.5-.5a1 1 0 0 0-1.265.633"/></g></svg>