<?xml version="1.0" encoding="UTF-8"?>
<svg width="24px" height="24px" viewBox="0 0 24 24" version="1.1" xmlns="http://www.w3.org/2000/svg" xmlns:xlink="http://www.w3.org/1999/xlink">
    <title>drink_fill</title>
    <g id="页面-1" stroke="none" stroke-width="1" fill="none" fill-rule="evenodd">
        <g id="Food" transform="translate(-144.000000, -48.000000)">
            <g id="drink_fill" transform="translate(144.000000, 48.000000)">
                <rect id="矩形" fill-rule="nonzero" x="0" y="0" width="24" height="24"></rect>
                <path d="M13.8154,3.57896 C14.1351,3.12862 14.0292,2.50437 13.5789,2.18467 C13.1285,1.86496 12.5043,1.97086 12.1846,2.4212 L11.1846,3.82981 C11.1459,3.8843 11.1135,3.94133 11.0871,4.00006 L7.5,4.00006 C6.67157,4.00006 6,4.67164 6,5.50006 L6,7.00006 C6,7.0284 6.00118,7.05645 6.00349,7.08419 C5.41907,7.28912 5,7.84565 5,8.50006 L5,10.0001 C5,10.5507 5.44502,10.9974 5.99501,11.0001 L6.91491,20.1991 C7.01715,21.2215 7.87748,22.0001 8.90499,22.0001 L15.095,22.0001 C16.1225,22.0001 16.9828,21.2215 17.0851,20.1991 L18.005,11.0001 C18.555,10.9974 19,10.5507 19,10.0001 L19,8.50006 C19,7.84565 18.5809,7.28912 17.9965,7.08419 C17.9988,7.05646 18,7.0284 18,7.00006 L18,5.50006 C18,4.67164 17.3284,4.00006 16.5,4.00006 L13.5165,4.00006 L13.8154,3.57896 Z M8,7.00006 L8,6.00006 L16,6.00006 L16,7.00006 L8,7.00006 Z" id="形状" fill="#09244B"></path>
            </g>
        </g>
    </g>
</svg>