<svg xmlns="http://www.w3.org/2000/svg" width="24" height="24"><g fill="none"><path d="M24 0v24H0V0zM12.594 23.258l-.012.002-.071.035-.02.004-.014-.004-.071-.036c-.01-.003-.019 0-.024.006l-.004.01-.017.428.005.02.01.013.104.074.015.004.012-.004.104-.074.012-.016.004-.017-.017-.427c-.002-.01-.009-.017-.016-.018m.264-.113-.014.002-.184.093-.01.01-.003.011.018.43.005.012.008.008.201.092c.012.004.023 0 .029-.008l.004-.014-.034-.614c-.003-.012-.01-.02-.02-.022m-.715.002a.023.023 0 0 0-.027.006l-.006.014-.034.614c0 .012.007.02.017.024l.015-.002.201-.093.01-.008.003-.011.018-.43-.003-.012-.01-.01z"/><path fill="#09244B" d="M14.724 2.969C13.89 2.394 12.956 2 12 2c-1.046 0-2.066.472-2.957 1.136-.903.673-1.757 1.603-2.492 2.672C5.088 7.936 4 10.755 4 13.5c0 2.476.829 4.608 2.276 6.127C7.725 21.148 9.74 22 12 22c2.259 0 4.275-.852 5.724-2.373C19.171 18.107 20 15.977 20 13.5c0-2.745-1.088-5.564-2.551-7.692a13.014 13.014 0 0 0-1.219-1.523l-3.524 4.23 1.61.536a1 1 0 0 1 .633 1.265l-1 3a1 1 0 0 1-1.898-.632l.684-2.051-2.051-.684a1 1 0 0 1-.452-1.59z"/></g></svg>