<svg xmlns="http://www.w3.org/2000/svg" width="24" height="24" viewBox="0 0 24 24"><g fill="none" fill-rule="evenodd"><path d="M24,0 L24,24 L0,24 L0,0 L24,0 Z M12.5935,23.2578 L12.5819,23.2595 L12.5109,23.295 L12.4919,23.2987 L12.4767,23.295 L12.4057,23.2595 C12.3958,23.2564 12.387,23.259 12.3821,23.2649 L12.378,23.2758 L12.3609,23.7031 L12.3659,23.7235 L12.3769,23.7357 L12.4805,23.8097 L12.4953,23.8136 L12.5071,23.8097 L12.6107,23.7357 L12.6233,23.7197 L12.6267,23.7031 L12.6096,23.2758 C12.6076,23.2657 12.601,23.2593 12.5935,23.2578 Z M12.8584,23.1453 L12.8445,23.1473 L12.6598,23.2397 L12.6499,23.2499 L12.6472,23.2611 L12.6651,23.6906 L12.6699,23.7034 L12.6784,23.7105 L12.8793,23.8032 C12.8914,23.8069 12.9022,23.803 12.9078,23.7952 L12.9118,23.7812 L12.8777,23.1665 C12.8753,23.1546 12.8674,23.147 12.8584,23.1453 Z M12.143,23.1473 C12.1332,23.1424 12.1222,23.1453 12.1156,23.1526 L12.1099,23.1665 L12.0758,23.7812 C12.0751,23.7927 12.0828,23.8019 12.0926,23.8046 L12.1083,23.8032 L12.3092,23.7105 L12.3186,23.7024 L12.3225,23.6906 L12.3404,23.2611 L12.3372,23.2485 L12.3278,23.2397 L12.143,23.1473 Z"/><path fill="#09244B" d="M9,5 C9,3.34315 10.3431,2 12,2 C13.6569,2 15,3.34315 15,5 L16,5 C18.2091,5 20,6.79086 20,9 L21,9 C21.5523,9 22,9.44772 22,10 C22,10.5523 21.5523,11 21,11 L20,11 L20,19 C20,20.6569 18.6569,22 17,22 L7,22 C5.34315,22 4,20.6569 4,19 L4,11 L3,11 C2.44772,11 2,10.5523 2,10 C2,9.44772 2.44772,9 3,9 L4,9 C4,6.79086 5.79086,5 8,5 L9,5 Z M11,5 L13,5 C13,4.44772 12.5523,4 12,4 C11.4477,4 11,4.44772 11,5 Z M8,7 C6.89543,7 6,7.89543 6,9 L18,9 C18,7.89543 17.1046,7 16,7 L8,7 Z M18,11 L6,11 L6,19 C6,19.5523 6.44772,20 7,20 L17,20 C17.5523,20 18,19.5523 18,19 L18,11 Z M12,14 C11.4477,14 11,14.4477 11,15 C11,15.5523 11.4477,16 12,16 C12.5523,16 13,15.5523 13,15 C13,14.4477 12.5523,14 12,14 Z M9,15 C9,13.3431 10.3431,12 12,12 C13.6569,12 15,13.3431 15,15 C15,16.6569 13.6569,18 12,18 C10.3431,18 9,16.6569 9,15 Z"/></g></svg>