<?xml version="1.0" encoding="UTF-8"?>
<svg width="24px" height="24px" viewBox="0 0 24 24" version="1.1" xmlns="http://www.w3.org/2000/svg" xmlns:xlink="http://www.w3.org/1999/xlink">
    <title>fish_fill</title>
    <g id="页面-1" stroke="none" stroke-width="1" fill="none" fill-rule="evenodd">
        <g id="Food" transform="translate(-192.000000, -48.000000)">
            <g id="fish_fill" transform="translate(192.000000, 48.000000)">
                <rect id="矩形" fill-rule="nonzero" x="0" y="0" width="24" height="24"></rect>
                <path d="M16.2017,2.07372 C17.2419,2.12325 18.1599,2.34574 18.8753,2.60933 C19.5501,2.85794 20.1547,3.184 20.4852,3.51453 C20.8157,3.84505 21.1418,4.4496 21.3904,5.12441 C21.654,5.83986 21.8765,6.75787 21.926,7.79799 C22.0113,9.58816 21.5809,11.7254 20.0069,13.7666 L19.98755,13.81425 L19.98755,13.81425 L18.5513,16.6897 C18.3043,17.1837 17.7036,17.3839 17.2096,17.137 C16.95,17.0071 16.7715,16.7796 16.6964,16.5212 C15.4367,17.1577 14.0095,17.5606 12.5559,17.6991 L12.0455822,17.7414704 L12.0455822,17.7414704 L11.4627739,17.7800152 L11.4627739,17.7800152 L10.486586,17.8330009 L10.486586,17.8330009 L9.43458,17.8834 C8.93163,17.9071 8.42071,17.9311 7.9266,17.9571 C7.87765,18.5742 7.81835,19.1446 7.74282,19.6104 C7.68832,19.9465 7.61668,20.2861 7.51155,20.5623 C7.3207,21.0637 6.91519,21.4851 6.34307,21.4851 C5.590686,21.4851 4.9066604,20.954156 4.34963256,20.4282296 L4.08197327,20.1681658 L4.08197327,20.1681658 L3.70255125,19.7866439 C3.13777929,19.2065831 2.51465,18.4717133 2.51465,17.6567 C2.51465,17.1964 2.78223,16.8992 2.95106,16.7602 C3.2482925,16.5154 3.63240313,16.399525 4.01310219,16.3232641 L4.38932,16.2569 L4.38932,16.2569 C4.85514,16.1814 5.42557,16.1221 6.04262,16.0731 L6.18393288,13.1769328 L6.18393288,13.1769328 L6.21972592,12.5370952 L6.21972592,12.5370952 L6.25827464,11.9542384 C6.2717036,11.771176 6.285772,11.6002 6.30066,11.4439 C6.43911,9.99022 6.84205,8.56309 7.47853,7.30339 C7.22018,7.22832 6.99268,7.04985 6.86287,6.79024 C6.61588,6.29626 6.81611,5.69558 7.31009,5.44859 L10.1385,4.03438 C10.1695,4.01887 10.201,4.00513 10.2327,3.9931 C12.274,2.4189 14.4115,1.98846 16.2017,2.07372 Z M16.9497,7.05012 C16.3639,6.46433 15.4142,6.46433 14.8284,7.05012 C14.2426,7.63591 14.2426,8.58566 14.8284,9.17144 C15.4142,9.75723 16.3639,9.75723 16.9497,9.17144 C17.5355,8.58566 17.5355,7.63591 16.9497,7.05012 Z" id="形状" fill="#09244B"></path>
            </g>
        </g>
    </g>
</svg>