<svg xmlns="http://www.w3.org/2000/svg" width="24" height="24"><g fill="none"><path d="M24 0v24H0V0zM12.594 23.258l-.012.002-.071.035-.02.004-.014-.004-.071-.036c-.01-.003-.019 0-.024.006l-.004.01-.017.428.005.02.01.013.104.074.015.004.012-.004.104-.074.012-.016.004-.017-.017-.427c-.002-.01-.009-.017-.016-.018m.264-.113-.014.002-.184.093-.01.01-.003.011.018.43.005.012.008.008.201.092c.012.004.023 0 .029-.008l.004-.014-.034-.614c-.003-.012-.01-.02-.02-.022m-.715.002a.023.023 0 0 0-.027.006l-.006.014-.034.614c0 .012.007.02.017.024l.015-.002.201-.093.01-.008.003-.011.018-.43-.003-.012-.01-.01z"/><path fill="#09244B" d="M17.015 3.055a1 1 0 0 1 1.26 1.548l-.098.079-2.101 1.501a1.963 1.963 0 0 0-.794 1.937l.032.152 3.343-3.343a1 1 0 0 1 1.497 1.32l-.083.094-3.343 3.343c.705.18 1.485-.04 1.986-.63l.103-.132 1.501-2.101a1 1 0 0 1 1.694 1.055l-.067.107-1.5 2.102a3.968 3.968 0 0 1-5.054 1.216l-.18-.1-2.297 2.296 4.157 4.158a1 1 0 0 1 .083 1.32l-.083.094a1 1 0 0 1-1.32.083l-.094-.083-4.157-4.158-4.157 4.158a1 1 0 0 1-1.32.083l-.094-.083a1 1 0 0 1-.083-1.32l.083-.094 4.157-4.158-1.61-1.61a4.52 4.52 0 0 1-1.355.473l-.25.037a3.891 3.891 0 0 1-3.279-1.15C2.663 10.319 2.132 9.15 2 8.027c-.13-1.105.12-2.289.93-3.098.809-.81 1.992-1.06 3.097-.93 1.123.133 2.293.664 3.222 1.593a3.891 3.891 0 0 1 1.15 3.278c-.06.505-.207.984-.406 1.401l-.104.204 1.61 1.61 2.298-2.296a3.968 3.968 0 0 1 .944-5.103l.172-.13z"/></g></svg>