<svg xmlns="http://www.w3.org/2000/svg" width="24" height="24" viewBox="0 0 24 24"><g fill="none" fill-rule="evenodd"><path d="M24,0 L24,24 L0,24 L0,0 L24,0 Z M12.5935,23.2578 L12.5819,23.2595 L12.5109,23.295 L12.4919,23.2987 L12.4767,23.295 L12.4057,23.2595 C12.3958,23.2564 12.387,23.259 12.3821,23.2649 L12.378,23.2758 L12.3609,23.7031 L12.3659,23.7235 L12.3769,23.7357 L12.4805,23.8097 L12.4953,23.8136 L12.5071,23.8097 L12.6107,23.7357 L12.6233,23.7197 L12.6267,23.7031 L12.6096,23.2758 C12.6076,23.2657 12.601,23.2593 12.5935,23.2578 Z M12.8584,23.1453 L12.8445,23.1473 L12.6598,23.2397 L12.6499,23.2499 L12.6472,23.2611 L12.6651,23.6906 L12.6699,23.7034 L12.6784,23.7105 L12.8793,23.8032 C12.8914,23.8069 12.9022,23.803 12.9078,23.7952 L12.9118,23.7812 L12.8777,23.1665 C12.8753,23.1546 12.8674,23.147 12.8584,23.1453 Z M12.143,23.1473 C12.1332,23.1424 12.1222,23.1453 12.1156,23.1526 L12.1099,23.1665 L12.0758,23.7812 C12.0751,23.7927 12.0828,23.8019 12.0926,23.8046 L12.1083,23.8032 L12.3092,23.7105 L12.3186,23.7024 L12.3225,23.6906 L12.3404,23.2611 L12.3372,23.2485 L12.3278,23.2397 L12.143,23.1473 Z"/><path fill="#09244B" d="M14.0001,2 C15.1047,2 16.0001,2.89543 16.0001,4 L17.0001,4 C18.1047,4 19.0001,4.89543 19.0001,6 L19.0001,9.00269 C20.1325,9.06093 20.9995,10.0567 20.8853,11.199 L20.1753,18.2985 C20.022,19.8321 18.7315,21 17.1902,21 L6.81016,21 C5.26891,21 3.97841,19.8321 3.82505,18.2985 L3.1151,11.199 C3.00087,10.0567 3.86775,9.06103 5.0001,9.0027 L5.0001,5 C5.0001,3.89543 5.89553,3 7.0001,3 L8.0001,3 C9.10467,3 10.0001,3.89543 10.0001,5 L11.0001,5 L11.0001,4 C11.0001,2.89543 11.8955,2 13.0001,2 L14.0001,2 Z M6.76009,11 L5.10518,11 L5.81513,18.0995 L5.83352096,18.2151836 C5.92463957,18.63053 6.2708699,18.9438718 6.69322063,18.9932111 L6.81016,19 L17.1902,19 L17.3071491,18.9932111 C17.729529,18.9438718 18.0757236,18.63053 18.1668929,18.2151836 L18.1853,18.0995 L18.8952,11 L17.2402,11 L17.221,11.0095 C17.1987,11.0236 17.167,11.0522 17.1396,11.0977 C16.0906,12.8349 14.1819,14 12.0002,14 C9.8184,14 7.90971,12.8349 6.86078,11.0977 C6.83331,11.0522 6.80168,11.0236 6.7793,11.0095 L6.76009,11 Z M14.0001,4 L13.0001,4 L13.0001,11.8741 L13.2624516,11.7968625 C13.4348297,11.7396 13.6020141,11.6709375 13.7631172,11.591725 L14.0001,11.4651 L14.0001,4 Z M11.0001,7 L10.0001,7 L10.0001,11.465 L10.2370828,11.5916391 C10.3981859,11.6708672 10.5653703,11.7395516 10.7377484,11.7968047 L11.0001,11.874 L11.0001,7 Z M17.0001,6 L16.0001,6 L16.0001,9.42508 L16.1447227,9.32386676 C16.3438912,9.1961938 16.5680449,9.09878898 16.812769,9.04552491 L17.0001,9.01407 L17.0001,6 Z M8.0001,5 L7.0001,5 L7.0001,9.01405 C7.31851667,9.05194167 7.6065375,9.16420833 7.85548773,9.32377245 L8.0001,9.42497 L8.0001,5 Z"/></g></svg>