<?xml version="1.0" encoding="UTF-8"?>
<svg width="24px" height="24px" viewBox="0 0 24 24" version="1.1" xmlns="http://www.w3.org/2000/svg" xmlns:xlink="http://www.w3.org/1999/xlink">
    <title>glass_cup_fill</title>
    <g id="页面-1" stroke="none" stroke-width="1" fill="none" fill-rule="evenodd">
        <g id="Food" transform="translate(-240.000000, -48.000000)">
            <g id="glass_cup_fill" transform="translate(240.000000, 48.000000)">
                <rect id="矩形" fill-rule="nonzero" x="0" y="0" width="24" height="24"></rect>
                <path d="M17.8829,2 C19.0749,2 20.0023,3.03613 19.8707,4.22086 L18.0929,20.2209 C17.9803,21.2337 17.1242,22 16.1051,22 L7.8952,22 C6.87611,22 6.01998,21.2337 5.90743,20.2209 L4.12966,4.22086 C3.99802,3.03613 4.9254,2 6.11742,2 L17.8829,2 Z M13.0001,15 C12.4478,15 12.0001,15.4477 12.0001,16 C12.0001,16.5523 12.4478,17 13.0001,17 C13.5524,17 14.0001,16.5523 14.0001,16 C14.0001,15.4477 13.5524,15 13.0001,15 Z M10.0001,12 C9.44784,12 9.00012,12.4477 9.00012,13 C9.00012,13.5523 9.44784,14 10.0001,14 C10.5524,14 11.0001,13.5523 11.0001,13 C11.0001,12.4477 10.5524,12 10.0001,12 Z M17.8829,4 L6.11742,4 L6.54222,7.82312 L6.7290328,7.78953544 C6.9886664,7.7461348 7.290124,7.709138 7.6289,7.68921 C8.75735176,7.62282882 10.2918071,7.74656972 12.0598056,8.4433791 L12.394,8.58084 C13.88575,9.22015875 15.1590918,9.35318355 16.0754329,9.32242418 L17.2992,9.25366 L17.8829,4 Z" id="形状" fill="#09244B"></path>
            </g>
        </g>
    </g>
</svg>