<svg xmlns="http://www.w3.org/2000/svg" width="24" height="24" viewBox="0 0 24 24"><g fill="none"><path d="M24,0 L24,24 L0,24 L0,0 L24,0 Z M12.5935,23.2578 L12.5819,23.2595 L12.5109,23.295 L12.4919,23.2987 L12.4767,23.295 L12.4057,23.2595 C12.3958,23.2564 12.387,23.259 12.3821,23.2649 L12.378,23.2758 L12.3609,23.7031 L12.3659,23.7235 L12.3769,23.7357 L12.4805,23.8097 L12.4953,23.8136 L12.5071,23.8097 L12.6107,23.7357 L12.6233,23.7197 L12.6267,23.7031 L12.6096,23.2758 C12.6076,23.2657 12.601,23.2593 12.5935,23.2578 Z M12.8584,23.1453 L12.8445,23.1473 L12.6598,23.2397 L12.6499,23.2499 L12.6472,23.2611 L12.6651,23.6906 L12.6699,23.7034 L12.6784,23.7105 L12.8793,23.8032 C12.8914,23.8069 12.9022,23.803 12.9078,23.7952 L12.9118,23.7812 L12.8777,23.1665 C12.8753,23.1546 12.8674,23.147 12.8584,23.1453 Z M12.143,23.1473 C12.1332,23.1424 12.1222,23.1453 12.1156,23.1526 L12.1099,23.1665 L12.0758,23.7812 C12.0751,23.7927 12.0828,23.8019 12.0926,23.8046 L12.1083,23.8032 L12.3092,23.7105 L12.3186,23.7024 L12.3225,23.6906 L12.3404,23.2611 L12.3372,23.2485 L12.3278,23.2397 L12.143,23.1473 Z"/><path fill="#09244B" d="M5.8436,4.56647 C7.4459,3.6426 9.6186,3 12,3 C14.3813,3 16.554,3.6426 18.1563,4.56647 C18.9568,5.028 19.644,5.57662 20.1426,6.18073 C20.6336,6.77575 21,7.49879 21,8.28571 C21,9.07751 20.6206,9.69777 20.0102,10.1072 C19.4664,10.472 18.7596,10.6599 18.0289,10.7738 C17.44814,10.86432 16.769956,10.918616 16.0101816,10.951184 L15.2237968,10.9770462 L15.2237968,10.9770462 L14.386537,10.9916444 L14.386537,10.9916444 L13.5019208,10.9982 L13.5019208,10.9982 L10.4980657,10.9982 L10.4980657,10.9982 L9.61343815,10.9916444 L9.61343815,10.9916444 L8.77616457,10.9770462 L8.77616457,10.9770462 L7.98976296,10.951184 C7.22997,10.918616 6.551762,10.86432 5.97097,10.7738 C5.2403,10.6599 4.53351,10.472 3.98975,10.1072 C3.37933,9.69777 2.99996,9.07751 2.99996,8.28571 C2.99996,7.49879 3.36632,6.77575 3.85736,6.18073 C4.3559,5.57662 5.04315,5.028 5.8436,4.56647 Z M4.33586,11.9075 C5.34356,11.2357 6.65636,11.2357 7.66406,11.9075 L8.44526,12.4283 C8.78116,12.6523 9.21876,12.6523 9.55466,12.4283 L10.3359,11.9075 C11.3436,11.2357 12.6564,11.2357 13.6641,11.9075 L14.4453,12.4283 C14.7812,12.6523 15.2188,12.6523 15.5547,12.4283 L16.3359,11.9075 C17.3436,11.2357 18.6564,11.2357 19.6641,11.9075 L20.5889,12.5241 C21.0485,12.8305 21.1727,13.4513 20.8663,13.9109 C20.5599,14.3704 19.9391,14.4946 19.4795,14.1882 L18.5547,13.5716 C18.2188,13.3477 17.7812,13.3477 17.4453,13.5716 L16.6641,14.0924 C15.6564,14.7642 14.3436,14.7642 13.3359,14.0924 L12.5547,13.5716 C12.2188,13.3477 11.7812,13.3477 11.4453,13.5716 L10.6641,14.0924 C9.65636,14.7642 8.34356,14.7642 7.33586,14.0924 L6.55466,13.5716 C6.21876,13.3477 5.78116,13.3477 5.44526,13.5716 L5.08824207,13.8184362 C4.89890551,13.9483837 4.67850143,14.0933143 4.46629,14.2052 C3.97773,14.4627 3.37289,14.2755 3.11535,13.7869 C2.8578,13.2984 3.04507,12.6935 3.53363,12.436 C3.60578429,12.3979429 3.67161776,12.3588816 3.73758872,12.3166706 L4.33586,11.9075 L4.33586,11.9075 Z M3.99996,15 C3.44767,15 2.99996,15.4477 2.99996,16 L2.99996,17 C2.99996,19.2091 4.79082,21 6.99996,21 L17,21 C19.2091,21 21,19.2091 21,17 L21,16 C21,15.4477 20.5522,15 20,15 L3.99996,15 Z"/></g></svg>