<svg xmlns="http://www.w3.org/2000/svg" width="24" height="24"><g fill="none" fill-rule="evenodd"><path d="M24 0v24H0V0zM12.594 23.258l-.012.002-.071.035-.02.004-.014-.004-.071-.036c-.01-.003-.019 0-.024.006l-.004.01-.017.428.005.02.01.013.104.074.015.004.012-.004.104-.074.012-.016.004-.017-.017-.427c-.002-.01-.009-.017-.016-.018m.264-.113-.014.002-.184.093-.01.01-.003.011.018.43.005.012.008.008.201.092c.012.004.023 0 .029-.008l.004-.014-.034-.614c-.003-.012-.01-.02-.02-.022m-.715.002a.023.023 0 0 0-.027.006l-.006.014-.034.614c0 .012.007.02.017.024l.015-.002.201-.093.01-.008.003-.011.018-.43-.003-.012-.01-.01z"/><path fill="#09244B" d="M11.5 4.719a5.5 5.5 0 0 1 7.953 7.596l-.174.182-6.717 6.718a2 2 0 0 1-2.702.116l-.127-.116-1.768-1.768-2.12 2.121a1 1 0 0 1-1.498-1.32l.083-.094 2.121-2.122-1.768-1.767a2 2 0 0 1-.116-2.701l.116-.128 6.718-6.717Zm3.89 4.596-4.243 4.243a1 1 0 1 0 1.415 1.414l4.242-4.243a1 1 0 0 0-1.414-1.414m-.707-2.121a1 1 0 0 0-1.32-.084l-.094.084-4.243 4.242a1 1 0 0 0 1.32 1.498l.094-.083 4.243-4.243a1 1 0 0 0 0-1.414"/></g></svg>