<svg xmlns="http://www.w3.org/2000/svg" width="24" height="24"><g fill="none" fill-rule="evenodd"><path d="M24 0v24H0V0zM12.594 23.258l-.012.002-.071.035-.02.004-.014-.004-.071-.036c-.01-.003-.019 0-.024.006l-.004.01-.017.428.005.02.01.013.104.074.015.004.012-.004.104-.074.012-.016.004-.017-.017-.427c-.002-.01-.009-.017-.016-.018m.264-.113-.014.002-.184.093-.01.01-.003.011.018.43.005.012.008.008.201.092c.012.004.023 0 .029-.008l.004-.014-.034-.614c-.003-.012-.01-.02-.02-.022m-.715.002a.023.023 0 0 0-.027.006l-.006.014-.034.614c0 .012.007.02.017.024l.015-.002.201-.093.01-.008.003-.011.018-.43-.003-.012-.01-.01z"/><path fill="#09244B" d="M12 2a5 5 0 0 0-4.645 3.147 4.502 4.502 0 0 0-3.31 4.995c.032.219.149.46.26.652l5.967 10.23c.772 1.322 2.684 1.322 3.456 0l5.967-10.23c.111-.192.228-.434.26-.652a4.502 4.502 0 0 0-3.31-4.995A5 5 0 0 0 12 2m0 2c-.956 0-1.81.448-2.359 1.146.942.246 1.764.79 2.359 1.525a4.502 4.502 0 0 1 2.359-1.525A2.996 2.996 0 0 0 12 4m5.995 5.347A2.5 2.5 0 0 0 13 9.5v.967a16.764 16.764 0 0 0 4.995-1.12M11 10.467V9.5a2.5 2.5 0 0 0-4.995-.153c.884.353 2.716.972 4.995 1.12"/></g></svg>