<?xml version="1.0" encoding="UTF-8"?>
<svg width="24px" height="24px" viewBox="0 0 24 24" version="1.1" xmlns="http://www.w3.org/2000/svg" xmlns:xlink="http://www.w3.org/1999/xlink">
    <title>ice_cream_line</title>
    <g id="Icon" stroke="none" stroke-width="1" fill="none" fill-rule="evenodd">
        <g id="Food" transform="translate(-384.000000, -97.000000)">
            <g id="ice_cream_line" transform="translate(384.000000, 97.000000)">
                <path d="M24,0 L24,24 L0,24 L0,0 L24,0 Z M12.5935,23.2578 L12.5819,23.2595 L12.5109,23.295 L12.4919,23.2987 L12.4767,23.295 L12.4057,23.2595 C12.3958,23.2564 12.387,23.259 12.3821,23.2649 L12.378,23.2758 L12.3609,23.7031 L12.3659,23.7235 L12.3769,23.7357 L12.4805,23.8097 L12.4953,23.8136 L12.5071,23.8097 L12.6107,23.7357 L12.6233,23.7197 L12.6267,23.7031 L12.6096,23.2758 C12.6076,23.2657 12.601,23.2593 12.5935,23.2578 Z M12.8584,23.1453 L12.8445,23.1473 L12.6598,23.2397 L12.6499,23.2499 L12.6472,23.2611 L12.6651,23.6906 L12.6699,23.7034 L12.6784,23.7105 L12.8793,23.8032 C12.8914,23.8069 12.9022,23.803 12.9078,23.7952 L12.9118,23.7812 L12.8777,23.1665 C12.8753,23.1546 12.8674,23.147 12.8584,23.1453 Z M12.143,23.1473 C12.1332,23.1424 12.1222,23.1453 12.1156,23.1526 L12.1099,23.1665 L12.0758,23.7812 C12.0751,23.7927 12.0828,23.8019 12.0926,23.8046 L12.1083,23.8032 L12.3092,23.7105 L12.3186,23.7024 L12.3225,23.6906 L12.3404,23.2611 L12.3372,23.2485 L12.3278,23.2397 L12.143,23.1473 Z" id="MingCute" fill-rule="nonzero"></path>
                <path d="M12,2 C14.1077,2 15.9089,3.30337 16.6451,5.14698 C18.5758,5.65347 20,7.41041 20,9.5 C20,9.71728 19.9845,9.93154 19.9545,10.1416 C19.92946,10.31672 19.8497,10.506496 19.761556,10.6734496 L19.6946,10.7938 L13.7276,21.0231 C12.9833643,22.29885 11.179289,22.3444125 10.3593505,21.1597875 L10.2724,21.0231 L4.30536,10.7938 C4.19361,10.6023 4.07683,10.3605 4.04552,10.1416 C4.01547,9.93154 4,9.71728 4,9.5 C4,7.41042 5.42423,5.65349 7.35492,5.14699 C8.09109,3.30337 9.8923,2 12,2 Z M16.7584,11.8582 C15.49,12.1989 13.847,12.5 12,12.5 C10.2950769,12.5 8.76395077,12.2434414 7.54090531,11.9360011 L7.24164,11.8582 L12,20.0154 L16.7584,11.8582 Z M15.5,7 C14.1193,7 13,8.11929 13,9.5 L13,10.4672 C14.6794842,10.3576316 16.1162216,9.99314371 17.109703,9.66760724 L17.507758,9.53133315 L17.507758,9.53133315 L17.8480293,9.40496922 C17.899731,9.38502 17.9488789,9.36569789 17.9954,9.34711 C17.9164,8.0376 16.8294,7 15.5,7 Z M8.5,7 C7.17063,7 6.0836,8.0376 6.0046,9.34711 L6.31466864,9.46659113 L6.31466864,9.46659113 L6.68427156,9.59855271 C7.67977452,9.93977341 9.20053684,10.3498053 11,10.4672 L11,9.5 C11,8.11929 9.88071,7 8.5,7 Z M12,4 C11.0436,4 10.1907,4.44794 9.64108,5.14594 C10.5833,5.39219 11.4051,5.93617 12,6.67134 C12.5949,5.93617 13.4167,5.39219 14.3589,5.14595 C13.8093,4.44794 12.9564,4 12,4 Z" id="形状" fill="#09244B"></path>
            </g>
        </g>
    </g>
</svg>