<svg xmlns="http://www.w3.org/2000/svg" width="24" height="24"><g fill="none"><path d="M24 0v24H0V0zM12.593 23.258l-.011.002-.071.035-.02.004-.014-.004-.071-.035c-.01-.004-.019-.001-.024.005l-.004.01-.017.428.005.02.01.013.104.074.015.004.012-.004.104-.074.012-.016.004-.017-.017-.427c-.002-.01-.009-.017-.017-.018m.265-.113-.013.002-.185.093-.01.01-.003.011.018.43.005.012.008.007.201.093c.012.004.023 0 .029-.008l.004-.014-.034-.614c-.003-.012-.01-.02-.02-.022m-.715.002a.023.023 0 0 0-.027.006l-.006.014-.034.614c0 .012.007.02.017.024l.015-.002.201-.093.01-.008.004-.011.017-.43-.003-.012-.01-.01z"/><path fill="#09244B" d="M2 11a9 9 0 0 1 17.03-4.067c.235.462.297.993.2 1.502-.54 2.831-1.83 4.996-3.338 6.198-1.35 1.078-3.166 1.673-4.693 1.5a4.703 4.703 0 0 1-4.145-5.203 3.564 3.564 0 0 1 3.94-3.143 2.65 2.65 0 0 1 2.338 2.93 1.921 1.921 0 0 1-2.124 1.694 1.335 1.335 0 0 1-.899-.493l-.087-.123a1.333 1.333 0 0 1-.196-.558l-.002-.019.034.12A1 1 0 0 0 11 12c1.249 0 2.08-.842 1.994-1.946-.073-.935-.803-1.76-1.783-1.87a2.87 2.87 0 0 0-3.173 2.528 3.334 3.334 0 0 0 2.95 3.687 3.92 3.92 0 0 0 4.331-3.459 4.65 4.65 0 0 0-4.102-5.14 5.563 5.563 0 0 0-6.15 4.906 6.702 6.702 0 0 0 5.908 7.415c2.082.235 4.417-.53 6.164-1.924 1.017-.812 1.938-1.944 2.669-3.337a8.966 8.966 0 0 1-1.776 3.758l3.675 3.675a1 1 0 0 1-1.414 1.414l-3.675-3.675A9 9 0 0 1 2 11"/></g></svg>