<?xml version="1.0" encoding="UTF-8"?>
<svg width="24px" height="24px" viewBox="0 0 24 24" version="1.1" xmlns="http://www.w3.org/2000/svg" xmlns:xlink="http://www.w3.org/1999/xlink">
    <title>spoon_line</title>
    <g id="Icon" stroke="none" stroke-width="1" fill="none" fill-rule="evenodd">
        <g id="Food" transform="translate(0.000000, -97.000000)">
            <g id="spoon_line" transform="translate(0.000000, 97.000000)">
                <path d="M24,0 L24,24 L0,24 L0,0 L24,0 Z M12.5935,23.2578 L12.5819,23.2595 L12.5109,23.295 L12.4919,23.2987 L12.4767,23.295 L12.4057,23.2595 C12.3958,23.2564 12.387,23.259 12.3821,23.2649 L12.378,23.2758 L12.3609,23.7031 L12.3659,23.7235 L12.3769,23.7357 L12.4805,23.8097 L12.4953,23.8136 L12.5071,23.8097 L12.6107,23.7357 L12.6233,23.7197 L12.6267,23.7031 L12.6096,23.2758 C12.6076,23.2657 12.601,23.2593 12.5935,23.2578 Z M12.8584,23.1453 L12.8445,23.1473 L12.6598,23.2397 L12.6499,23.2499 L12.6472,23.2611 L12.6651,23.6906 L12.6699,23.7034 L12.6784,23.7105 L12.8793,23.8032 C12.8914,23.8069 12.9022,23.803 12.9078,23.7952 L12.9118,23.7812 L12.8777,23.1665 C12.8753,23.1546 12.8674,23.147 12.8584,23.1453 Z M12.143,23.1473 C12.1332,23.1424 12.1222,23.1453 12.1156,23.1526 L12.1099,23.1665 L12.0758,23.7812 C12.0751,23.7927 12.0828,23.8019 12.0926,23.8046 L12.1083,23.8032 L12.3092,23.7105 L12.3186,23.7024 L12.3225,23.6906 L12.3404,23.2611 L12.3372,23.2485 L12.3278,23.2397 L12.143,23.1473 Z" id="MingCute" fill-rule="nonzero"></path>
                <path d="M7.7052,4.4219 L13.7388,12.0295 C15.046,11.4588 17.0386,11.3815 18.7175,13.0604 C19.7334,14.0763 20.365,15.3185 20.5812,16.5005 C20.7914,17.6499 20.6297,18.9264 19.7782,19.7779 C18.9267,20.6295 17.6502,20.7912 16.5008,20.5809 C15.3187,20.3647 14.0765,19.7331 13.0607,18.7173 C11.3818,17.0384 11.4591,15.0458 12.0297,13.7386 L4.42214,7.70495 C3.32779,6.83702 3.23419,5.20925 4.22184,4.2216 C5.20949,3.23395 6.83726,3.32754 7.7052,4.4219 Z M17.3033,14.4746 C16.1030115,13.2744077 14.7305707,13.6531725 14.2119682,14.0440383 L14.1196,14.1194 L14.1196,14.1194 L14.0912,14.1536 C13.6863,14.6202 13.2266,16.0548 14.4749,17.3031 C15.2164,18.0446 16.0955,18.4736 16.8606,18.6136 C17.6584,18.7595 18.1548,18.5729 18.364,18.3637 C18.5731,18.1546 18.7597,17.6581 18.6138,16.8604 C18.4739,16.0953 18.0449,15.2162 17.3033,14.4746 Z M5.63605,5.63581 C5.49368,5.77819 5.50717,6.01284 5.66493,6.13796 L7.95242,7.95217 L6.1382,5.66469 C6.01308,5.50693 5.77843,5.49343 5.63605,5.63581 Z" id="形状" fill="#09244B"></path>
            </g>
        </g>
    </g>
</svg>