<?xml version="1.0" encoding="UTF-8"?>
<svg width="24px" height="24px" viewBox="0 0 24 24" version="1.1" xmlns="http://www.w3.org/2000/svg" xmlns:xlink="http://www.w3.org/1999/xlink">
    <title>teacup_fill</title>
    <g id="页面-1" stroke="none" stroke-width="1" fill="none" fill-rule="evenodd">
        <g id="teacup_fill">
            <rect id="矩形" x="0" y="0" width="24" height="24"></rect>
            <path d="M17,4 C18.1046,4 19,4.89543 19,6 L19,8.03544 C20.6961,8.27806 22,9.73676 22,11.5 C22,13.433 20.433,15 18.5,15 L17.7124,15 C16.9252,16.259 15.8175,17.2971 14.5036,18 L17,18 C17.5523,18 18,18.4477 18,19 C18,19.5523 17.5523,20 17,20 L4,20 C3.44772,20 3,19.5523 3,19 C3,18.4477 3.44772,18 4,18 L6.49645,18 C3.8205,16.5686 2,13.7469 2,10.5 L2,6 C2,4.89543 2.89543,4 4,4 L17,4 Z M19,10.0854 L19,10.5 C19,11.3681 18.8699,12.2058 18.6281,12.9946 C19.3965,12.9296 20,12.2853 20,11.5 C20,10.8971385 19.6443456,10.3773538 19.1313988,10.1390083 L19,10.0854 Z" id="形状" fill="#09244B" fill-rule="nonzero"></path>
        </g>
    </g>
</svg>