<?xml version="1.0" encoding="UTF-8"?>
<svg width="24px" height="24px" viewBox="0 0 24 24" version="1.1" xmlns="http://www.w3.org/2000/svg" xmlns:xlink="http://www.w3.org/1999/xlink">
    <title>wineglass_line</title>
    <g id="页面-1" stroke="none" stroke-width="1" fill="none" fill-rule="evenodd">
        <g id="Food" transform="translate(-432.000000, 0.000000)">
            <g id="wineglass_line" transform="translate(432.000000, 0.000000)">
                <rect id="矩形" fill-rule="nonzero" x="0" y="0" width="24" height="24"></rect>
                <path d="M5.84715,3.54887 C6.05638,2.64223 6.8637,2 7.79416,2 L16.206,2 C17.1365,2 17.9438,2.64223 18.153,3.54887 L19.1756,7.98001 C20.1642,12.2638 17.2146,16.3676 12.9979,16.9337 C12.9994,16.9556 13.0001,16.9777 13.0001,17 L13.0001,20 L16.0001,20 C16.5524,20 17.0001,20.4477 17.0001,21 C17.0001,21.5523 16.5524,22 16.0001,22 L12.0001,22 L8.0001,22 C7.44781,22 7.0001,21.5523 7.0001,21 C7.0001,20.4477 7.44781,20 8.0001,20 L11.0001,20 L11.0001,17 C11.0001,16.9777 11.0008,16.9556 11.0023,16.9337 C6.78556,16.3676 3.83601,12.2638 4.82458,7.98001 L5.84715,3.54887 Z M7.79561,4 L6.77336,8.42973 C5.99769,11.791 8.55052,15 12.0001,15 C15.4497,15 18.0025,11.791 17.2268,8.42973 L16.2046,4 L7.79561,4 Z" id="形状" fill="#09244B"></path>
            </g>
        </g>
    </g>
</svg>