<svg xmlns="http://www.w3.org/2000/svg" width="24" height="24" viewBox="0 0 24 24"><title>add_circle_dash_fill</title><g fill="none" fill-rule="nonzero"><path d="M24 0v24H0V0zM12.594 23.258l-.012.002-.071.035-.02.004-.014-.004-.071-.036q-.016-.004-.024.006l-.004.01-.017.428.005.02.01.013.104.074.015.004.012-.004.104-.074.012-.016.004-.017-.017-.427q-.004-.016-.016-.018m.264-.113-.014.002-.184.093-.01.01-.003.011.018.43.005.012.008.008.201.092q.019.005.029-.008l.004-.014-.034-.614q-.005-.019-.02-.022m-.715.002a.02.02 0 0 0-.027.006l-.006.014-.034.614q.001.018.017.024l.015-.002.201-.093.01-.008.003-.011.018-.43-.003-.012-.01-.01z"/><path fill="#09244b" d="M6.342 19.161a1.5 1.5 0 0 1 2.036-.593 7.6 7.6 0 0 0 1.544.64 1.5 1.5 0 0 1-.835 2.881 10.6 10.6 0 0 1-2.153-.89 1.5 1.5 0 0 1-.592-2.038m9.285-.596a1.5 1.5 0 0 1 1.448 2.628 10.6 10.6 0 0 1-2.153.893 1.5 1.5 0 0 1-.838-2.88 7.6 7.6 0 0 0 1.543-.64M2.935 13.064a1.5 1.5 0 0 1 1.86 1.021 7.6 7.6 0 0 0 .639 1.543 1.5 1.5 0 1 1-2.628 1.447 10.6 10.6 0 0 1-.893-2.152 1.5 1.5 0 0 1 1.022-1.86m16.272 1.014a1.5 1.5 0 0 1 2.882.835 10.6 10.6 0 0 1-.89 2.153 1.5 1.5 0 0 1-2.63-1.444 7.6 7.6 0 0 0 .638-1.544M10.5 16v-2.5H8a1.5 1.5 0 0 1 0-3h2.5V8a1.5 1.5 0 1 1 3 0v2.5H16a1.5 1.5 0 0 1 0 3h-2.5V16a1.5 1.5 0 0 1-3 0M2.802 6.934a1.5 1.5 0 0 1 2.629 1.444 7.6 7.6 0 0 0-.639 1.544 1.5 1.5 0 0 1-2.88-.835 10.6 10.6 0 0 1 .89-2.153m16.354-.599a1.5 1.5 0 0 1 2.038.59 10.6 10.6 0 0 1 .892 2.152 1.5 1.5 0 0 1-2.88.838 7.6 7.6 0 0 0-.64-1.543 1.5 1.5 0 0 1 .59-2.037M9.078 1.913a1.5 1.5 0 0 1 .837 2.881 7.6 7.6 0 0 0-1.543.64 1.5 1.5 0 0 1-1.446-2.628 10.6 10.6 0 0 1 2.152-.893m3.976 1.02a1.5 1.5 0 0 1 1.858-1.022 10.6 10.6 0 0 1 2.154.89 1.5 1.5 0 0 1-1.444 2.63 7.6 7.6 0 0 0-1.544-.639 1.5 1.5 0 0 1-1.024-1.858"/></g></svg>