<?xml version="1.0" encoding="UTF-8"?>
<svg width="24px" height="24px" viewBox="0 0 24 24" version="1.1" xmlns="http://www.w3.org/2000/svg" xmlns:xlink="http://www.w3.org/1999/xlink">
    <title>alert_line</title>
    <g id="页面-1" stroke="none" stroke-width="1" fill="none" fill-rule="evenodd">
        <g id="System" transform="translate(-286.000000, -192.000000)" fill-rule="nonzero">
            <g id="alert_line" transform="translate(286.000000, 192.000000)">
                <rect id="矩形" x="0" y="0" width="24" height="24"></rect>
                <path d="M15.3137,2 C15.8441,2 16.3529,2.21071 16.7279,2.58579 L21.4142,7.27208 C21.7893,7.64715 22,8.15586 22,8.68629 L22,15.3137 C22,15.8441 21.7893,16.3529 21.4142,16.7279 L16.7279,21.4142 C16.3528,21.7893 15.8441,22 15.3137,22 L8.68629,22 C8.15586,22 7.64715,21.7893 7.27208,21.4142 L2.58579,16.7279 C2.21071,16.3528 2,15.8441 2,15.3137 L2,8.68629 C2,8.15586 2.21071,7.64715 2.58579,7.27208 L7.27208,2.58579 C7.64715,2.21071 8.15586,2 8.68629,2 L15.3137,2 Z M15.3137,4 L8.68629,4 L4,8.68629 L4,15.3137 L8.68629,20 L15.3137,20 L20,15.3137 L20,8.68629 L15.3137,4 Z M12,15 C12.5523,15 13,15.4477 13,16 C13,16.5523 12.5523,17 12,17 C11.4477,17 11,16.5523 11,16 C11,15.4477 11.4477,15 12,15 Z M12,6 C12.5523,6 13,6.44772 13,7 L13,13 C13,13.5523 12.5523,14 12,14 C11.4477,14 11,13.5523 11,13 L11,7 C11,6.44772 11.4477,6 12,6 Z" id="形状" fill="#09244B"></path>
            </g>
        </g>
    </g>
</svg>