<?xml version="1.0" encoding="UTF-8"?>
<svg width="24px" height="24px" viewBox="0 0 24 24" version="1.1" xmlns="http://www.w3.org/2000/svg" xmlns:xlink="http://www.w3.org/1999/xlink">
    <title>alert_fill</title>
    <g id="页面-1" stroke="none" stroke-width="1" fill="none" fill-rule="evenodd">
        <g id="System" transform="translate(-286.000000, -240.000000)">
            <g id="alert_fill" transform="translate(286.000000, 240.000000)">
                <rect id="矩形" fill-rule="nonzero" x="0" y="0" width="24" height="24"></rect>
                <path d="M15.3137,2 C15.8441,2 16.3529,2.21071 16.7279,2.58579 L21.4142,7.27208 C21.7893,7.64715 22,8.15586 22,8.68629 L22,15.3137 C22,15.8441 21.7893,16.3529 21.4142,16.7279 L16.7279,21.4142 C16.3528,21.7893 15.8441,22 15.3137,22 L8.68629,22 C8.15586,22 7.64715,21.7893 7.27208,21.4142 L2.58579,16.7279 C2.21071,16.3528 2,15.8441 2,15.3137 L2,8.68629 C2,8.15586 2.21071,7.64715 2.58579,7.27208 L7.27208,2.58579 C7.64715,2.21071 8.15586,2 8.68629,2 L15.3137,2 Z M12,15 C11.4477,15 11,15.4477 11,16 C11,16.5523 11.4477,17 12,17 C12.5523,17 13,16.5523 13,16 C13,15.4477 12.5523,15 12,15 Z M12,6 C11.48715,6 11.0644908,6.38604429 11.0067275,6.88337975 L11,7 L11,13 C11,13.5523 11.4477,14 12,14 C12.51285,14 12.9355092,13.613973 12.9932725,13.1166239 L13,13 L13,7 C13,6.44772 12.5523,6 12,6 Z" id="形状" fill="#09244B"></path>
            </g>
        </g>
    </g>
</svg>