<svg width="24" height="24" viewBox="0 0 24 24" fill="none" xmlns="http://www.w3.org/2000/svg">
<rect width="24" height="24" fill="white" fill-opacity="0.01"/>
<path d="M12 8C12.5523 8 13 8.44772 13 9V13C13 13.5523 12.5523 14 12 14C11.4477 14 11 13.5523 11 13V9C11 8.44772 11.4477 8 12 8Z" fill="#09244B"/>
<path d="M12 17C12.5523 17 13 16.5523 13 16C13 15.4477 12.5523 15 12 15C11.4477 15 11 15.4477 11 16C11 16.5523 11.4477 17 12 17Z" fill="#09244B"/>
<path fill-rule="evenodd" clip-rule="evenodd" d="M10.7009 3.14771C11.2783 2.14771 12.7217 2.1477 13.299 3.1477L21.933 18.1022C22.5103 19.1022 21.7887 20.3522 20.634 20.3522H3.36601C2.21131 20.3522 1.48962 19.1022 2.06697 18.1022L10.7009 3.14771ZM12 4.8977L4.23203 18.3522H19.7679L12 4.8977Z" fill="#09244B"/>
</svg>
