<?xml version="1.0" encoding="UTF-8"?>
<svg width="24px" height="24px" viewBox="0 0 24 24" version="1.1" xmlns="http://www.w3.org/2000/svg" xmlns:xlink="http://www.w3.org/1999/xlink">
    <title>broom_fill</title>
    <g id="Icon" stroke="none" stroke-width="1" fill="none" fill-rule="evenodd">
        <g id="System" transform="translate(-336.000000, -432.000000)">
            <g id="broom_fill" transform="translate(336.000000, 432.000000)">
                <path d="M24,0 L24,24 L0,24 L0,0 L24,0 Z M12.5935,23.2578 L12.5819,23.2595 L12.5109,23.295 L12.4919,23.2987 L12.4767,23.295 L12.4057,23.2595 C12.3958,23.2564 12.387,23.259 12.3821,23.2649 L12.378,23.2758 L12.3609,23.7031 L12.3659,23.7235 L12.3769,23.7357 L12.4805,23.8097 L12.4953,23.8136 L12.5071,23.8097 L12.6107,23.7357 L12.6233,23.7197 L12.6267,23.7031 L12.6096,23.2758 C12.6076,23.2657 12.601,23.2593 12.5935,23.2578 Z M12.8584,23.1453 L12.8445,23.1473 L12.6598,23.2397 L12.6499,23.2499 L12.6472,23.2611 L12.6651,23.6906 L12.6699,23.7034 L12.6784,23.7105 L12.8793,23.8032 C12.8914,23.8069 12.9022,23.803 12.9078,23.7952 L12.9118,23.7812 L12.8777,23.1665 C12.8753,23.1546 12.8674,23.147 12.8584,23.1453 Z M12.143,23.1473 C12.1332,23.1424 12.1222,23.1453 12.1156,23.1526 L12.1099,23.1665 L12.0758,23.7812 C12.0751,23.7927 12.0828,23.8019 12.0926,23.8046 L12.1083,23.8032 L12.3092,23.7105 L12.3186,23.7024 L12.3225,23.6906 L12.3404,23.2611 L12.3372,23.2485 L12.3278,23.2397 L12.143,23.1473 Z" id="MingCute" fill-rule="nonzero"></path>
                <path d="M17.2776,2.6129 C17.4856,2.10128 18.0689,1.85515 18.5806,2.06315 C19.0556571,2.25629286 19.3017883,2.77309658 19.1679897,3.25557187 L19.1303,3.36614 L16.5206,9.78516 L17.1774,9.96115 C18.2272,10.2424 19.1006,11.0947 19.2665,12.2592 C19.4088,13.2586 19.5423,14.7786 19.3589,16.3447 C19.1772,17.8968 18.6689,19.6226 17.4122,20.8905 C16.9502,21.3566 16.2866,21.431 15.8386,21.4386 C15.3279,21.4473 14.7386,21.3689 14.1343,21.2488 C12.9177,21.0072 11.4594,20.5593 10.0803,20.0825 L9.66590567,19.937549 L9.66590567,19.937549 L8.85269469,19.644137 L8.85269469,19.644137 L8.07236875,19.352525 L8.07236875,19.352525 L7.33946561,19.070489 L7.33946561,19.070489 L6.36083,18.6824 L6.36083,18.6824 C5.80922,18.46 5.25873,18.2346 4.71299,17.9981 C4.38972,17.8579 4.16409,17.558 4.11906,17.2085 C4.07402,16.859 4.21624,16.5116 4.49341,16.2941 C5.87057174,15.2131087 7.16382422,13.9717302 8.25518282,12.8251099 L8.78349141,12.2608774 C8.86855669,12.1685485 8.95208336,12.077173 9.03400317,11.9868984 L9.50569326,11.4596443 C9.58091245,11.3743643 9.6543882,11.2904807 9.72605225,11.208141 L10.320269,10.5127577 L10.320269,10.5127577 L10.6566,10.1073 L10.6566,10.1073 C11.3706,9.23672056 12.5139077,8.79811583 13.6384394,9.01993359 L13.8366,9.06598 L14.5737,9.2635 L17.2776,2.6129 Z M13.319,10.9978 C12.9258,10.8925 12.4843,11.0327 12.203,11.3756 L11.9604,11.669 L17.3581,13.1153 L17.3113,12.7229519 C17.3031222,12.6606889 17.2948,12.6000667 17.2864,12.5412 C17.2504,12.2882222 17.0709926,12.0499407 16.7758497,11.9315649 L16.6598,11.893 L13.319,10.9978 Z M5.56486,7.71598 L5.62861,7.8553 C5.90138,8.4196 6.33109,8.89329 6.86605,9.21958 L6.96538,9.27779 L6.96538,9.27779 C7.01154,9.30375 7.01154,9.37021 6.96538,9.39618 L6.86605,9.45438 L6.86605,9.45438 C6.33109,9.78067 5.90138,10.2544 5.62861,10.8187 L5.56486,10.958 L5.56486,10.958 C5.53988,11.0142 5.46012,11.0142 5.43514,10.958 L5.37139,10.8187 L5.37139,10.8187 C5.09862,10.2544 4.66891,9.78067 4.13395,9.45438 L4.03462,9.39618 L4.03462,9.39618 C3.98846,9.37021 3.98846,9.30375 4.03462,9.27779 L4.13395,9.21958 L4.13395,9.21958 C4.66891,8.89329 5.09862,8.4196 5.37139,7.8553 L5.43514,7.71598 C5.46012,7.65978 5.53988,7.65978 5.56486,7.71598 Z M8.39667,2.85713 C8.43643,2.76767 8.56339,2.76767 8.60315,2.85713 L8.70463,3.0789 L8.70463,3.0789 C9.13881,3.97711 9.82278,4.7311 10.6743,5.25047 L10.8324,5.34312 L10.8324,5.34312 C10.9059,5.38445 10.9059,5.49023 10.8324,5.53156 L10.6743,5.62421 L10.6743,5.62421 C9.82278,6.14358 9.13881,6.89757 8.70463,7.79578 L8.60315,8.01755 L8.60315,8.01755 C8.56339,8.10701 8.43643,8.10701 8.39667,8.01755 L8.29519,7.79578 L8.29519,7.79578 C7.86101,6.89757 7.17703,6.14358 6.32552,5.62421 L6.16741,5.53156 L6.16741,5.53156 C6.09394,5.49023 6.09394,5.38445 6.16741,5.34312 L6.32552,5.25047 L6.32552,5.25047 C7.17703,4.7311 7.86101,3.97711 8.29519,3.0789 L8.39667,2.85713 L8.39667,2.85713 Z" id="形状" fill="#09244B"></path>
            </g>
        </g>
    </g>
</svg>