<svg xmlns="http://www.w3.org/2000/svg" width="24" height="24" viewBox="0 0 24 24"><title>brush_3_ai_line</title><g fill="none" fill-rule="nonzero"><path d="M24 0v24H0V0zM12.594 23.258l-.012.002-.071.035-.02.004-.014-.004-.071-.036q-.016-.004-.024.006l-.004.01-.017.428.005.02.01.013.104.074.015.004.012-.004.104-.074.012-.016.004-.017-.017-.427q-.004-.016-.016-.018m.264-.113-.014.002-.184.093-.01.01-.003.011.018.43.005.012.008.008.201.092q.019.005.029-.008l.004-.014-.034-.614q-.005-.019-.02-.022m-.715.002a.02.02 0 0 0-.027.006l-.006.014-.034.614q.001.018.017.024l.015-.002.201-.093.01-.008.003-.011.018-.43-.003-.012-.01-.01z"/><path fill="#09244b" d="M14.33 2.307a3 3 0 0 1 2.12 3.674l-1.035 3.864 1.358.364c1.654.443 2.51 2.119 2.278 3.655-.11.73-.154 1.447-.065 1.968.114.67.531 1.537.985 2.306l.218.357c.14.225.271.42.375.572l.223.315c.227.308.281.719.107 1.066A1 1 0 0 1 20 21H5.5c-.584 0-.884-.48-1.138-.933l-.063-.112a11 11 0 0 1-.737-1.616c-.5-1.364-.917-3.293-.548-5.503a11.6 11.6 0 0 1 1.428-3.993c.655-1.109 1.931-1.42 2.991-1.137l2.187.586 1.035-3.864a3 3 0 0 1 3.674-2.12M4.965 13.291c-.26 1.724.067 3.248.474 4.36.178.488.37.89.529 1.188l.088.161h1.7c-.377-.792-.763-1.866-.77-2.993a1 1 0 1 1 1.999-.014c.005.776.307 1.614.656 2.308.138.276.277.515.392.7h8.125c-.403-.7-.86-1.61-1.075-2.496zm7.621-8.345-1.294 4.83a1 1 0 0 1-1.225.707l-3.152-.845c-.383-.103-.646.043-.751.221a9 9 0 0 0-.703 1.495l11.51 3.053c.025-.294.061-.578.101-.842.105-.691-.297-1.285-.818-1.424l-2.323-.623a1 1 0 0 1-.707-1.225l1.294-4.83a1 1 0 0 0-1.932-.517M21.499 6c.364 0 .602.187.7.28.138.13.216.295.304.46.167.307.44.583.801.78.153.083.299.157.42.286a1.015 1.015 0 0 1 0 1.387c-.122.13-.266.204-.42.287a1.97 1.97 0 0 0-.8.78c-.09.167-.166.329-.305.46a1.02 1.02 0 0 1-1.399 0c-.14-.132-.214-.293-.304-.46a1.97 1.97 0 0 0-.801-.78c-.15-.08-.302-.16-.421-.287a1.015 1.015 0 0 1 0-1.387c.12-.127.27-.207.42-.286.362-.197.635-.473.802-.78.09-.168.164-.328.304-.46.098-.093.337-.28.7-.28M5 2c.362 0 .599.187.695.277.116.11.198.25.268.391a1 1 0 0 0 .4.386c.134.073.258.142.364.256a1.01 1.01 0 0 1 0 1.38 1.4 1.4 0 0 1-.364.256 1 1 0 0 0-.4.386c-.077.144-.147.276-.268.39a1.01 1.01 0 0 1-1.39 0c-.118-.112-.19-.249-.267-.39a1 1 0 0 0-.4-.386 1.3 1.3 0 0 1-.364-.256 1.01 1.01 0 0 1 0-1.38c.105-.111.232-.186.364-.256a1 1 0 0 0 .4-.386c.077-.143.147-.277.267-.39C4.4 2.186 4.638 2 5 2"/></g></svg>