<?xml version="1.0" encoding="UTF-8"?>
<svg width="24px" height="24px" viewBox="0 0 24 24" version="1.1" xmlns="http://www.w3.org/2000/svg" xmlns:xlink="http://www.w3.org/1999/xlink">
    <title>certificate_line</title>
    <g id="页面-1" stroke="none" stroke-width="1" fill="none" fill-rule="evenodd">
        <g id="System" transform="translate(-334.000000, -192.000000)" fill-rule="nonzero">
            <g id="certificate_line" transform="translate(334.000000, 192.000000)">
                <rect id="矩形" x="0" y="0" width="24" height="24"></rect>
                <path d="M10.5857,2.10056 C11.3256895,1.36061789 12.5011493,1.32167357 13.2868927,1.98372704 L13.4141,2.10056 L15.3136,4.00005 L17.9999,4.00005 C19.0542909,4.00005 19.9180678,4.81592733 19.9944144,5.85078759 L19.9999,6.00005 L19.9999,8.68632 L21.8994,10.5858 C22.6393895,11.3257895 22.6783363,12.5012493 22.0162404,13.2870778 L21.8994,13.4143 L19.9999,15.3138 L19.9999,18.0001 C19.9999,19.0543955 19.18405,19.9182591 18.1491661,19.9946139 L17.9999,20.0001 L15.3136,20.0001 L13.4141,21.8995 C12.6742053,22.6394895 11.4987504,22.6784363 10.7129222,22.0163404 L10.5857,21.8995 L8.68622,20.0001 L5.99991,20.0001 C4.94554773,20.0001 4.08174483,19.1841589 4.00539573,18.1493537 L3.99991,18.0001 L3.99991,15.3137 L2.10043,13.4143 C1.36049737,12.6743105 1.32155355,11.4988507 1.98360703,10.7130222 L2.10044,10.5858 L3.99991,8.68636 L3.99991,6.00005 C3.99991,4.94568773 4.81578733,4.08188483 5.85064759,4.00553573 L5.99991,4.00005 L8.68622,4.00005 L10.5857,2.10056 Z M11.9999,3.51477 L10.1004,5.41426 C9.76703111,5.74766444 9.32804642,5.9511963 8.86207199,5.99230949 L8.68622,6.00005 L5.99991,6.00005 L5.99991,8.68636 C5.99991,9.15786222 5.83342309,9.61218716 5.53299532,9.97077196 L5.41412,10.1006 L3.51465,12.0001 L5.41412,13.8995 C5.74752444,14.2329222 5.9510563,14.6719049 5.99216949,15.1378572 L5.99991,15.3137 L5.99991,18.0001 L8.68622,18.0001 C9.15772222,18.0001 9.61204716,18.166579 9.97058982,18.4669488 L10.1004,18.5858 L11.9999,20.4853 L13.8994,18.5858 C14.2328222,18.2524667 14.6718049,18.0489506 15.1377572,18.0078401 L15.3136,18.0001 L17.9999,18.0001 L17.9999,15.3138 C17.9999,14.8422444 18.166379,14.3879136 18.4668191,14.0293984 L18.5857,13.8996 L20.4852,12.0001 L18.5857,10.1005 C18.2522778,9.76714 18.0487519,9.3281563 18.0076402,8.86217495 L17.9999,8.68632 L17.9999,6.00005 L15.3136,6.00005 C14.8421333,6.00005 14.3878123,5.83356309 14.029228,5.53313532 L13.8994,5.41426 L11.9999,3.51477 Z M15.0793,8.98261 C15.4698,8.59209 16.103,8.59209 16.4935,8.98261 C16.8540538,9.34309923 16.8817888,9.91032645 16.5767047,10.3025979 L16.4935,10.3968 L11.6126,15.2778 C11.2136857,15.6766214 10.5846383,15.7051087 10.1529279,15.3632617 L10.057,15.2778 L7.6528,12.8736 C7.26228,12.4831 7.26228,11.8499 7.6528,11.4594 C8.01328,11.0989385 8.58051503,11.0712107 8.9728035,11.3762166 L9.06701,11.4594 L10.8348,13.2271 L15.0793,8.98261 Z" id="形状" fill="#09244B"></path>
            </g>
        </g>
    </g>
</svg>