<?xml version="1.0" encoding="UTF-8"?>
<svg width="24px" height="24px" viewBox="0 0 24 24" version="1.1" xmlns="http://www.w3.org/2000/svg" xmlns:xlink="http://www.w3.org/1999/xlink">
    <title>check_circle_fill</title>
    <g id="页面-1" stroke="none" stroke-width="1" fill="none" fill-rule="evenodd">
        <g id="check_circle_fill">
            <rect id="矩形" fill-opacity="0.01" fill="#FFFFFF" fill-rule="nonzero" x="0" y="0" width="24" height="24"></rect>
            <path d="M12,2 C17.5228,2 22,6.47715 22,12 C22,17.5228 17.5228,22 12,22 C6.47715,22 2,17.5228 2,12 C2,6.47715 6.47715,2 12,2 Z M15.5354,8.38136 L10.5856,13.3311 L8.46431,11.2098 C8.07379,10.8193 7.44063,10.8193 7.0501,11.2098 C6.65958,11.6003 6.65958,12.2335 7.0501,12.624 L9.80782,15.3817 C10.2374,15.8113 10.9339,15.8113 11.3635,15.3817 L16.9496,9.79557 C17.3401,9.40505 17.3401,8.77188 16.9496,8.38136 C16.5591,7.99083 15.9259,7.99083 15.5354,8.38136 Z" id="形状" fill="#09244B"></path>
        </g>
    </g>
</svg>