<?xml version="1.0" encoding="UTF-8"?>
<svg width="24px" height="24px" viewBox="0 0 24 24" version="1.1" xmlns="http://www.w3.org/2000/svg" xmlns:xlink="http://www.w3.org/1999/xlink">
    <title>choice_line</title>
    <g id="Icon" stroke="none" stroke-width="1" fill="none" fill-rule="evenodd">
        <g id="System" transform="translate(-336.000000, -480.000000)">
            <g id="choice_line" transform="translate(336.000000, 480.000000)">
                <path d="M24,0 L24,24 L0,24 L0,0 L24,0 Z M12.5935,23.2578 L12.5819,23.2595 L12.5109,23.295 L12.4919,23.2987 L12.4767,23.295 L12.4057,23.2595 C12.3958,23.2564 12.387,23.259 12.3821,23.2649 L12.378,23.2758 L12.3609,23.7031 L12.3659,23.7235 L12.3769,23.7357 L12.4805,23.8097 L12.4953,23.8136 L12.5071,23.8097 L12.6107,23.7357 L12.6233,23.7197 L12.6267,23.7031 L12.6096,23.2758 C12.6076,23.2657 12.601,23.2593 12.5935,23.2578 Z M12.8584,23.1453 L12.8445,23.1473 L12.6598,23.2397 L12.6499,23.2499 L12.6472,23.2611 L12.6651,23.6906 L12.6699,23.7034 L12.6784,23.7105 L12.8793,23.8032 C12.8914,23.8069 12.9022,23.803 12.9078,23.7952 L12.9118,23.7812 L12.8777,23.1665 C12.8753,23.1546 12.8674,23.147 12.8584,23.1453 Z M12.143,23.1473 C12.1332,23.1424 12.1222,23.1453 12.1156,23.1526 L12.1099,23.1665 L12.0758,23.7812 C12.0751,23.7927 12.0828,23.8019 12.0926,23.8046 L12.1083,23.8032 L12.3092,23.7105 L12.3186,23.7024 L12.3225,23.6906 L12.3404,23.2611 L12.3372,23.2485 L12.3278,23.2397 L12.143,23.1473 Z" id="MingCute" fill-rule="nonzero"></path>
                <path d="M6,3 C4.34315,3 3,4.34315 3,6 L3,18 C3,19.6569 4.34315,21 6,21 L18,21 C19.6569,21 21,19.6569 21,18 L21,13 C21,12.4477 20.5523,12 20,12 C19.4477,12 19,12.4477 19,13 L19,18 C19,18.5523 18.5523,19 18,19 L6,19 C5.44772,19 5,18.5523 5,18 L5,6 C5,5.44772 5.44772,5 6,5 L14,5 C14.5523,5 15,4.55228 15,4 C15,3.44772 14.5523,3 14,3 L6,3 Z M21.3577,6.04512 C21.8375,5.77231 22.0058,5.16211 21.7333,4.68201 C21.4639,4.20731 20.8431,4.03716 20.3689,4.30666 C20.0161,4.50754 19.6753,4.73091 19.3383,4.95692 C18.7132,5.37633 17.848,5.99601 16.8763,6.80403 C15.2339,8.16989 13.2624,10.0945 11.6373,12.5223 C11.0198,11.7181 10.4109,11.1422 9.89138,10.7375 C9.46449,10.4049 8.98934,10.0778 8.47568,9.89208 L8.47468,9.89172 C7.95508,9.70453 7.38212,9.97399 7.19493,10.4936 C7.00901,11.0097 7.27357,11.5784 7.78627,11.7695 C7.81054,11.7792 8.15599,11.9208 8.66217,12.3152 C9.24004,12.7654 10.0382,13.5536 10.8076,14.8721 C10.9879,15.1811 11.3195,15.3702 11.6772,15.368019 C12.035,15.3659 12.3643,15.1728 12.5409,14.8617 C14.1253,12.0706 16.3276,9.86158 18.1551,8.34177 C19.0655,7.58468 19.8743,7.00574 20.4526,6.61781 C20.7484,6.41931 21.0477,6.22372 21.3566,6.04576 L21.3577,6.04512 Z" id="形状" fill="#09244B"></path>
            </g>
        </g>
    </g>
</svg>