<svg xmlns="http://www.w3.org/2000/svg" width="24" height="24" viewBox="0 0 24 24"><title>classify_3_ai_line</title><g fill="none" fill-rule="nonzero"><path d="M24 0v24H0V0zM12.594 23.258l-.012.002-.071.035-.02.004-.014-.004-.071-.036q-.016-.004-.024.006l-.004.01-.017.428.005.02.01.013.104.074.015.004.012-.004.104-.074.012-.016.004-.017-.017-.427q-.004-.016-.016-.018m.264-.113-.014.002-.184.093-.01.01-.003.011.018.43.005.012.008.008.201.092q.019.005.029-.008l.004-.014-.034-.614q-.005-.019-.02-.022m-.715.002a.02.02 0 0 0-.027.006l-.006.014-.034.614q.001.018.017.024l.015-.002.201-.093.01-.008.003-.011.018-.43-.003-.012-.01-.01z"/><path fill="#09244b" d="M9 15H7a2 2 0 1 0 2 2zm10 2a2 2 0 0 0-2-2h-2v2a2 2 0 1 0 4 0M9 7a2 2 0 1 0-2 2h2zm8-4a1 1 0 0 1 .946.677l.13.378c.3.879.99 1.57 1.87 1.87l.377.129a1 1 0 0 1 0 1.892l-.378.13c-.879.3-1.57.99-1.87 1.87l-.129.377a1 1 0 0 1-1.892 0l-.13-.378a3 3 0 0 0-1.87-1.87l-.377-.129a1 1 0 0 1 0-1.892l.378-.13c.879-.3 1.57-.99 1.87-1.87l.129-.377.062-.146A1 1 0 0 1 17 3m0 3.196a5 5 0 0 1-.804.804q.449.355.804.803.356-.447.803-.803A5 5 0 0 1 17 6.196M11 17a4 4 0 1 1-4-4h3a1 1 0 0 1 1 1zm10 0a4 4 0 0 1-8 0v-3a1 1 0 0 1 1-1h3a4 4 0 0 1 4 4m-10-7a1 1 0 0 1-1 1H7a4 4 0 1 1 4-4z"/></g></svg>