<?xml version="1.0" encoding="UTF-8"?>
<svg width="24px" height="24px" viewBox="0 0 24 24" version="1.1" xmlns="http://www.w3.org/2000/svg" xmlns:xlink="http://www.w3.org/1999/xlink">
    <title>classify_add_fill</title>
    <g id="Icon" stroke="none" stroke-width="1" fill="none" fill-rule="evenodd">
        <g id="System" transform="translate(-432.000000, -528.000000)" fill-rule="nonzero">
            <g id="classify_add_fill" transform="translate(432.000000, 528.000000)">
                <path d="M24,0 L24,24 L0,24 L0,0 L24,0 Z M12.5935,23.2578 L12.5819,23.2595 L12.5109,23.295 L12.4919,23.2987 L12.4767,23.295 L12.4057,23.2595 C12.3958,23.2564 12.387,23.259 12.3821,23.2649 L12.378,23.2758 L12.3609,23.7031 L12.3659,23.7235 L12.3769,23.7357 L12.4805,23.8097 L12.4953,23.8136 L12.5071,23.8097 L12.6107,23.7357 L12.6233,23.7197 L12.6267,23.7031 L12.6096,23.2758 C12.6076,23.2657 12.601,23.2593 12.5935,23.2578 Z M12.8584,23.1453 L12.8445,23.1473 L12.6598,23.2397 L12.6499,23.2499 L12.6472,23.2611 L12.6651,23.6906 L12.6699,23.7034 L12.6784,23.7105 L12.8793,23.8032 C12.8914,23.8069 12.9022,23.803 12.9078,23.7952 L12.9118,23.7812 L12.8777,23.1665 C12.8753,23.1546 12.8674,23.147 12.8584,23.1453 Z M12.143,23.1473 C12.1332,23.1424 12.1222,23.1453 12.1156,23.1526 L12.1099,23.1665 L12.0758,23.7812 C12.0751,23.7927 12.0828,23.8019 12.0926,23.8046 L12.1083,23.8032 L12.3092,23.7105 L12.3186,23.7024 L12.3225,23.6906 L12.3404,23.2611 L12.3372,23.2485 L12.3278,23.2397 L12.143,23.1473 Z" id="MingCute"></path>
                <path d="M3,7 C3,4.79086 4.79086,3 7,3 C9.20914,3 11,4.79086 11,7 C11,9.20914 9.20914,11 7,11 C4.79086,11 3,9.20914 3,7 Z M3,17 C3,14.7909 4.79086,13 7,13 C9.20914,13 11,14.7909 11,17 C11,19.2091 9.20914,21 7,21 C4.79086,21 3,19.2091 3,17 Z M17,3 C14.7909,3 13,4.79086 13,7 C13,9.20914 14.7909,11 17,11 C19.2091,11 21,9.20914 21,7 C21,4.79086 19.2091,3 17,3 Z M13,17 C13,16.4477 13.4477,16 14,16 L16,16 L16,14 C16,13.4477 16.4477,13 17,13 C17.5523,13 18,13.4477 18,14 L18,16 L20,16 C20.5523,16 21,16.4477 21,17 C21,17.5523 20.5523,18 20,18 L18,18 L18,20 C18,20.5523 17.5523,21 17,21 C16.4477,21 16,20.5523 16,20 L16,18 L14,18 C13.4477,18 13,17.5523 13,17 Z" id="形状" fill="#09244B"></path>
            </g>
        </g>
    </g>
</svg>