<svg width="24" height="24" viewBox="0 0 24 24" fill="none" xmlns="http://www.w3.org/2000/svg">
<rect width="24" height="24" fill="white" fill-opacity="0.01"/>
<path d="M8.46452 8.46443C8.85505 8.07391 9.48821 8.07391 9.87874 8.46443L12 10.5857L14.1213 8.46441C14.5118 8.07388 15.145 8.07388 15.5355 8.46441C15.926 8.85493 15.926 9.4881 15.5355 9.87862L13.4142 11.9999L15.5356 14.1213C15.9261 14.5118 15.9261 15.145 15.5356 15.5355C15.1451 15.926 14.5119 15.926 14.1214 15.5355L12 13.4141L9.87864 15.5355C9.48812 15.926 8.85496 15.926 8.46443 15.5355C8.07391 15.145 8.07391 14.5118 8.46443 14.1213L10.5858 11.9999L8.46452 9.87864C8.074 9.48812 8.074 8.85496 8.46452 8.46443Z" fill="#09244B"/>
<path fill-rule="evenodd" clip-rule="evenodd" d="M2 12C2 6.47715 6.47715 2 12 2C17.5228 2 22 6.47715 22 12C22 17.5228 17.5228 22 12 22C6.47715 22 2 17.5228 2 12ZM12 4C7.58172 4 4 7.58172 4 12C4 16.4183 7.58172 20 12 20C16.4183 20 20 16.4183 20 12C20 7.58172 16.4183 4 12 4Z" fill="#09244B"/>
</svg>
