<?xml version="1.0" encoding="UTF-8"?>
<svg width="24px" height="24px" viewBox="0 0 24 24" version="1.1" xmlns="http://www.w3.org/2000/svg" xmlns:xlink="http://www.w3.org/1999/xlink">
    <title>close_fill</title>
    <g id="页面-1" stroke="none" stroke-width="1" fill="none" fill-rule="evenodd">
        <g id="System" transform="translate(-288.000000, -48.000000)" fill-rule="nonzero">
            <g id="close_fill" transform="translate(288.000000, 48.000000)">
                <rect id="矩形" x="0" y="0" width="24" height="24"></rect>
                <path d="M12.0001,14.1212 L16.5963,18.7174 C17.1821,19.3032 18.1319,19.3032 18.7176,18.7174 C19.3034,18.1316 19.3034,17.1819 18.7176,16.5961 L14.1215,11.9999 L18.7176,7.40371 C19.3034,6.81792 19.3034,5.86817 18.7176,5.28239 C18.1318,4.6966 17.1821,4.6966 16.5963,5.28239 L12.0001,9.87856 L7.40394,5.28236 C6.81815,4.69657 5.86841,4.69657 5.28262,5.28236 C4.69683,5.86814 4.69683,6.81789 5.28262,7.40368 L9.87882,11.9999 L5.2826,16.5961 C4.69682,17.1819 4.69682,18.1316 5.2826,18.7174 C5.86839,19.3032 6.81814,19.3032 7.40392,18.7174 L12.0001,14.1212 Z" id="路径" fill="#09244B"></path>
            </g>
        </g>
    </g>
</svg>