<?xml version="1.0" encoding="UTF-8"?>
<svg width="24px" height="24px" viewBox="0 0 24 24" version="1.1" xmlns="http://www.w3.org/2000/svg" xmlns:xlink="http://www.w3.org/1999/xlink">
    <title>close_line</title>
    <g id="页面-1" stroke="none" stroke-width="1" fill="none" fill-rule="evenodd">
        <g id="System" transform="translate(-288.000000, 0.000000)" fill-rule="nonzero">
            <g id="close_line" transform="translate(288.000000, 0.000000)">
                <rect id="矩形" x="0" y="0" width="24" height="24"></rect>
                <path d="M13.4143,12 L18.3642,7.05012 C18.7548,6.6596 18.7548,6.02643 18.3642,5.63591 C17.9737,5.24539 17.3405,5.24539 16.95,5.63591 L12.0001,10.5858 L7.05037,5.63605 C6.65984,5.24552 6.02668,5.24552 5.63616,5.63605 C5.24563,6.02657 5.24563,6.65974 5.63616,7.05026 L10.5859,12 L5.63631,16.9496 C5.24578,17.3401 5.24578,17.9733 5.63631,18.3638 C6.02683,18.7544 6.66,18.7544 7.05052,18.3638 L12.0001,13.4142 L16.9499,18.364 C17.3404,18.7545 17.9736,18.7545 18.3641,18.364 C18.7546,17.9734 18.7546,17.3403 18.3641,16.9498 L13.4143,12 Z" id="路径" fill="#09244B"></path>
            </g>
        </g>
    </g>
</svg>