<?xml version="1.0" encoding="UTF-8"?>
<svg width="24px" height="24px" viewBox="0 0 24 24" version="1.1" xmlns="http://www.w3.org/2000/svg" xmlns:xlink="http://www.w3.org/1999/xlink">
    <title>close_circle_fill</title>
    <g id="页面-1" stroke="none" stroke-width="1" fill="none" fill-rule="evenodd">
        <g id="close_circle_fill">
            <rect id="矩形" fill-opacity="0.01" fill="#FFFFFF" fill-rule="nonzero" x="0" y="0" width="24" height="24"></rect>
            <path d="M12,2 C17.5228,2 22,6.47715 22,12 C22,17.5228 17.5228,22 12,22 C6.47715,22 2,17.5228 2,12 C2,6.47715 6.47715,2 12,2 Z M9.87874,8.46443 C9.48821,8.07391 8.85505,8.07391 8.46452,8.46443 C8.10404,8.82491923 8.07631077,9.39214645 8.38133231,9.78443366 L8.46452,9.87864 L10.5858,11.9999 L8.46443,14.1213 C8.07391,14.5118 8.07391,15.145 8.46443,15.5355 C8.82491923,15.8959615 9.39214645,15.9236893 9.78443366,15.6186834 L9.87864,15.5355 L12,13.4141 L14.1214,15.5355 C14.5119,15.926 15.1451,15.926 15.5356,15.5355 C15.8960615,15.1750385 15.9237893,14.6077793 15.6187834,14.2155027 L15.5356,14.1213 L13.4142,11.9999 L15.5355,9.87862 C15.926,9.4881 15.926,8.85493 15.5355,8.46441 C15.1750385,8.10392077 14.6077793,8.07619083 14.2155027,8.38122018 L14.1213,8.46441 L12,10.5857 L9.87874,8.46443 Z" id="形状" fill="#09244B"></path>
        </g>
    </g>
</svg>