<svg width="24" height="24" viewBox="0 0 24 24" fill="none" xmlns="http://www.w3.org/2000/svg">
<rect width="24" height="24" fill="white" fill-opacity="0.01"/>
<path d="M12.0001 14.1212L16.5963 18.7174C17.1821 19.3032 18.1319 19.3032 18.7176 18.7174C19.3034 18.1316 19.3034 17.1819 18.7176 16.5961L14.1215 11.9999L18.7176 7.40371C19.3034 6.81792 19.3034 5.86817 18.7176 5.28239C18.1318 4.6966 17.1821 4.6966 16.5963 5.28239L12.0001 9.87856L7.40394 5.28236C6.81815 4.69657 5.86841 4.69657 5.28262 5.28236C4.69683 5.86814 4.69683 6.81789 5.28262 7.40368L9.87882 11.9999L5.2826 16.5961C4.69682 17.1819 4.69682 18.1316 5.2826 18.7174C5.86839 19.3032 6.81814 19.3032 7.40392 18.7174L12.0001 14.1212Z" fill="#09244B"/>
</svg>
