<?xml version="1.0" encoding="UTF-8"?>
<svg width="24px" height="24px" viewBox="0 0 24 24" version="1.1" xmlns="http://www.w3.org/2000/svg" xmlns:xlink="http://www.w3.org/1999/xlink">
    <title>close_circle_line</title>
    <g id="页面-1" stroke="none" stroke-width="1" fill="none" fill-rule="evenodd">
        <g id="System" transform="translate(-240.000000, 0.000000)" fill-rule="nonzero">
            <g id="close_circle_line" transform="translate(240.000000, 0.000000)">
                <rect id="矩形" x="0" y="0" width="24" height="24"></rect>
                <path d="M12,2 C17.5228,2 22,6.47715 22,12 C22,17.5228 17.5228,22 12,22 C6.47715,22 2,17.5228 2,12 C2,6.47715 6.47715,2 12,2 Z M12,4 C7.58172,4 4,7.58172 4,12 C4,16.4183 7.58172,20 12,20 C16.4183,20 20,16.4183 20,12 C20,7.58172 16.4183,4 12,4 Z M9.87874,8.46443 L12,10.5857 L14.1213,8.46441 C14.5118,8.07388 15.145,8.07388 15.5355,8.46441 C15.926,8.85493 15.926,9.4881 15.5355,9.87862 L13.4142,11.9999 L15.5356,14.1213 C15.9261,14.5118 15.9261,15.145 15.5356,15.5355 C15.1451,15.926 14.5119,15.926 14.1214,15.5355 L12,13.4141 L9.87864,15.5355 C9.48812,15.926 8.85496,15.926 8.46443,15.5355 C8.07391,15.145 8.07391,14.5118 8.46443,14.1213 L10.5858,11.9999 L8.46452,9.87864 C8.074,9.48812 8.074,8.85496 8.46452,8.46443 C8.85505,8.07391 9.48821,8.07391 9.87874,8.46443 Z" id="形状" fill="#09244B"></path>
            </g>
        </g>
    </g>
</svg>