<svg width="24" height="24" viewBox="0 0 24 24" fill="none" xmlns="http://www.w3.org/2000/svg">
<rect width="24" height="24" fill="white" fill-opacity="0.01"/>
<path d="M13.4143 12L18.3642 7.05012C18.7548 6.6596 18.7548 6.02643 18.3642 5.63591C17.9737 5.24539 17.3405 5.24539 16.95 5.63591L12.0001 10.5858L7.05037 5.63605C6.65984 5.24552 6.02668 5.24552 5.63616 5.63605C5.24563 6.02657 5.24563 6.65974 5.63616 7.05026L10.5859 12L5.63631 16.9496C5.24578 17.3401 5.24578 17.9733 5.63631 18.3638C6.02683 18.7544 6.66 18.7544 7.05052 18.3638L12.0001 13.4142L16.9499 18.364C17.3404 18.7545 17.9736 18.7545 18.3641 18.364C18.7546 17.9734 18.7546 17.3403 18.3641 16.9498L13.4143 12Z" fill="#09244B"/>
</svg>
