<svg xmlns="http://www.w3.org/2000/svg" width="24" height="24" viewBox="0 0 24 24"><title>close_small_fill</title><g fill="none" fill-rule="nonzero"><path d="M24 0v24H0V0zM12.594 23.258l-.012.002-.071.035-.02.004-.014-.004-.071-.036q-.016-.004-.024.006l-.004.01-.017.428.005.02.01.013.104.074.015.004.012-.004.104-.074.012-.016.004-.017-.017-.427q-.004-.016-.016-.018m.264-.113-.014.002-.184.093-.01.01-.003.011.018.43.005.012.008.008.201.092q.019.005.029-.008l.004-.014-.034-.614q-.005-.019-.02-.022m-.715.002a.02.02 0 0 0-.027.006l-.006.014-.034.614q.001.018.017.024l.015-.002.201-.093.01-.008.003-.011.018-.43-.003-.012-.01-.01z"/><path fill="#09244b" d="M13.768 8.111a1.5 1.5 0 0 1 2.121 2.121L14.121 12l1.768 1.768a1.5 1.5 0 0 1-2.12 2.121l-1.77-1.768-1.767 1.768a1.5 1.5 0 0 1-2.12-2.12l1.767-1.77-1.768-1.766a1.5 1.5 0 0 1 2.121-2.12L12 9.878z"/></g></svg>