<?xml version="1.0" encoding="UTF-8"?>
<svg width="24px" height="24px" viewBox="0 0 24 24" version="1.1" xmlns="http://www.w3.org/2000/svg" xmlns:xlink="http://www.w3.org/1999/xlink">
    <title>close_fill</title>
    <g id="页面-1" stroke="none" stroke-width="1" fill="none" fill-rule="evenodd">
        <g id="System" transform="translate(-288.000000, -48.000000)">
            <g id="close_fill" transform="translate(288.000000, 48.000000)">
                <rect id="矩形" fill-rule="nonzero" x="0" y="0" width="24" height="24"></rect>
                <path d="M12,14.1215 L17.3032,19.4248 C17.889,20.0106 18.8388,20.0106 19.4246,19.4248 C20.0104,18.839 20.0104,17.8893 19.4246,17.3035 L14.1213,12.0002 L19.4246,6.6969 C20.0104,6.11112 20.0104,5.16137 19.4246,4.57558 C18.8388,3.9898 17.889,3.9898 17.3032,4.57558 L12,9.87888 L6.69665,4.57557 C6.11086,3.98978 5.16111,3.98978 4.57533,4.57557 C3.98954,5.16136 3.98954,6.1111 4.57533,6.69689 L9.87863,12.0002 L4.57533,17.3035 C3.98954,17.8893 3.98954,18.839 4.57533,19.4248 C5.16111,20.0106 6.11086,20.0106 6.69665,19.4248 L12,14.1215 Z" id="路径" fill="#09244B"></path>
            </g>
        </g>
    </g>
</svg>