<?xml version="1.0" encoding="UTF-8"?>
<svg width="24px" height="24px" viewBox="0 0 24 24" version="1.1" xmlns="http://www.w3.org/2000/svg" xmlns:xlink="http://www.w3.org/1999/xlink">
    <title>crutch_line</title>
    <g id="Icon" stroke="none" stroke-width="1" fill="none" fill-rule="evenodd">
        <g id="System" transform="translate(-384.000000, -384.000000)">
            <g id="crutch_line" transform="translate(384.000000, 384.000000)">
                <path d="M24,0 L24,24 L0,24 L0,0 L24,0 Z M12.5935,23.2578 L12.5819,23.2595 L12.5109,23.295 L12.4919,23.2987 L12.4767,23.295 L12.4057,23.2595 C12.3958,23.2564 12.387,23.259 12.3821,23.2649 L12.378,23.2758 L12.3609,23.7031 L12.3659,23.7235 L12.3769,23.7357 L12.4805,23.8097 L12.4953,23.8136 L12.5071,23.8097 L12.6107,23.7357 L12.6233,23.7197 L12.6267,23.7031 L12.6096,23.2758 C12.6076,23.2657 12.601,23.2593 12.5935,23.2578 Z M12.8584,23.1453 L12.8445,23.1473 L12.6598,23.2397 L12.6499,23.2499 L12.6472,23.2611 L12.6651,23.6906 L12.6699,23.7034 L12.6784,23.7105 L12.8793,23.8032 C12.8914,23.8069 12.9022,23.803 12.9078,23.7952 L12.9118,23.7812 L12.8777,23.1665 C12.8753,23.1546 12.8674,23.147 12.8584,23.1453 Z M12.143,23.1473 C12.1332,23.1424 12.1222,23.1453 12.1156,23.1526 L12.1099,23.1665 L12.0758,23.7812 C12.0751,23.7927 12.0828,23.8019 12.0926,23.8046 L12.1083,23.8032 L12.3092,23.7105 L12.3186,23.7024 L12.3225,23.6906 L12.3404,23.2611 L12.3372,23.2485 L12.3278,23.2397 L12.143,23.1473 Z" id="MingCute" fill-rule="nonzero"></path>
                <path d="M12,4 C9.79086,4 8,5.79086 8,8 L8,9.5 C8,9.77614 8.22386,10 8.5,10 C8.77614,10 9,9.77614 9,9.5 L9,8 C9,6.34315 10.3431,5 12,5 C13.6569,5 15,6.34315 15,8 L15,19.5 C15,19.7761 15.2239,20 15.5,20 C15.7761,20 16,19.7761 16,19.5 L16,8 C16,5.79086 14.2091,4 12,4 Z M6,8 C6,4.68629 8.68629,2 12,2 C15.3137,2 18,4.68629 18,8 L18,19.5 C18,20.8807 16.8807,22 15.5,22 C14.1193,22 13,20.8807 13,19.5 L13,8 C13,7.44772 12.5523,7 12,7 C11.4477,7 11,7.44772 11,8 L11,9.5 C11,10.8807 9.88071,12 8.5,12 C7.11929,12 6,10.8807 6,9.5 L6,8 Z" id="形状" fill="#09244B"></path>
            </g>
        </g>
    </g>
</svg>