<svg xmlns="http://www.w3.org/2000/svg" width="24" height="24"><g fill="none" fill-rule="evenodd"><path d="M24 0v24H0V0zM12.594 23.258l-.012.002-.071.035-.02.004-.014-.004-.071-.036c-.01-.003-.019 0-.024.006l-.004.01-.017.428.005.02.01.013.104.074.015.004.012-.004.104-.074.012-.016.004-.017-.017-.427c-.002-.01-.009-.017-.016-.018m.264-.113-.014.002-.184.093-.01.01-.003.011.018.43.005.012.008.008.201.092c.012.004.023 0 .029-.008l.004-.014-.034-.614c-.003-.012-.01-.02-.02-.022m-.715.002a.023.023 0 0 0-.027.006l-.006.014-.034.614c0 .012.007.02.017.024l.015-.002.201-.093.01-.008.003-.011.018-.43-.003-.012-.01-.01z"/><path fill="#09244B" d="M11 2.423a2 2 0 0 1 1.842-.082l.158.082 3.33 1.922a2 2 0 0 1 .993 1.569l.007.163v3.846l3.33 1.922a2 2 0 0 1 .993 1.569l.007.163v3.846a2 2 0 0 1-.861 1.644l-.139.088-3.33 1.922a2 2 0 0 1-1.843.082l-.157-.082L12 19.155l-3.33 1.922a2 2 0 0 1-1.843.082l-.157-.082-3.33-1.922a2 2 0 0 1-.993-1.568l-.007-.164v-3.846a2 2 0 0 1 .861-1.644l.139-.088 3.33-1.922V6.077a2 2 0 0 1 .861-1.644l.139-.088zm5.33 9.232L13.134 13.5l3.196 1.845 3.196-1.845zm-8.66 0L4.474 13.5l3.196 1.845 3.196-1.845zm4.33-7.5L8.804 6 12 7.845 15.196 6z"/></g></svg>