<?xml version="1.0" encoding="UTF-8"?>
<svg width="24px" height="24px" viewBox="0 0 24 24" version="1.1" xmlns="http://www.w3.org/2000/svg" xmlns:xlink="http://www.w3.org/1999/xlink">
    <title>delete_2_line</title>
    <g id="页面-1" stroke="none" stroke-width="1" fill="none" fill-rule="evenodd">
        <g id="System" transform="translate(-576.000000, -192.000000)" fill-rule="nonzero">
            <g id="delete_2_line" transform="translate(576.000000, 192.000000)">
                <rect id="矩形" x="0" y="0" width="24" height="24"></rect>
                <path d="M14.2792,2 C15.1401,2 15.9044,2.55086 16.1766,3.36754 L16.7208,5 L20,5 C20.5523,5 21,5.44772 21,6 C21,6.55227 20.5523,6.99998 20,7 L19.9975,7.07125 L19.9975,7.07125 L19.1301,19.2137 C19.018,20.7837 17.7117,22 16.1378,22 L7.86224,22 C6.28832,22 4.982,20.7837 4.86986,19.2137 L4.00254,7.07125 C4.00083,7.04735 3.99998,7.02359 3.99996,7 C3.44769,6.99998 3,6.55227 3,6 C3,5.44772 3.44772,5 4,5 L7.27924,5 L7.82339,3.36754 C8.09562,2.55086 8.8599,2 9.72076,2 L14.2792,2 Z M17.9975,7 L6.00255,7 L6.86478,19.0712 C6.90216,19.5946 7.3376,20 7.86224,20 L16.1378,20 C16.6624,20 17.0978,19.5946 17.1352,19.0712 L17.9975,7 Z M10,10 C10.51285,10 10.9355092,10.386027 10.9932725,10.8833761 L11,11 L11,16 C11,16.5523 10.5523,17 10,17 C9.48715929,17 9.06449214,16.613973 9.00672766,16.1166239 L9,16 L9,11 C9,10.4477 9.44771,10 10,10 Z M14,10 C14.5523,10 15,10.4477 15,11 L15,16 C15,16.5523 14.5523,17 14,17 C13.4477,17 13,16.5523 13,16 L13,11 C13,10.4477 13.4477,10 14,10 Z M14.2792,4 L9.72076,4 L9.38743,5 L14.6126,5 L14.2792,4 Z" id="形状" fill="#09244B"></path>
            </g>
        </g>
    </g>
</svg>