<?xml version="1.0" encoding="UTF-8"?>
<svg width="24px" height="24px" viewBox="0 0 24 24" version="1.1" xmlns="http://www.w3.org/2000/svg" xmlns:xlink="http://www.w3.org/1999/xlink">
    <title>delete_back_fill</title>
    <g id="页面-1" stroke="none" stroke-width="1" fill="none" fill-rule="evenodd">
        <g id="System" transform="translate(-382.000000, -240.000000)">
            <g id="delete_back_fill" transform="translate(382.000000, 240.000000)">
                <rect id="矩形" fill-rule="nonzero" x="0" y="0" width="24" height="24"></rect>
                <path d="M8.10845,3 C7.07408,3 6.11267,3.53286 5.56445,4.41 L1.4832,10.94 C1.07787,11.5885 1.07786,12.4115 1.4832,13.06 L5.56445,19.59 C6.11267,20.4671 7.07408,21 8.10845,21 L19,21 C20.6568,21 22,19.6569 22,18 L22,6 C22,4.34315 20.6568,3 19,3 L8.10845,3 Z M16.5355,15.5355 C16.145,15.9261 15.5118,15.9261 15.1213,15.5355 L13,13.4142 L10.8786,15.5355 C10.4881,15.9261 9.85495,15.9261 9.46443,15.5355 C9.0739,15.145 9.0739,14.5118 9.46443,14.1213 L11.5857,12 L9.46443,9.87868 C9.0739,9.48815 9.0739,8.85499 9.46443,8.46447 C9.85495,8.07394 10.4881,8.07394 10.8786,8.46447 L13,10.5858 L15.1213,8.46447 C15.5118,8.07394 16.145,8.07394 16.5355,8.46447 C16.926,8.85499 16.926,9.48815 16.5355,9.87868 L14.4142,12 L16.5355,14.1213 C16.926,14.5118 16.926,15.145 16.5355,15.5355 Z" id="形状" fill="#09244B"></path>
            </g>
        </g>
    </g>
</svg>