<?xml version="1.0" encoding="UTF-8"?>
<svg width="24px" height="24px" viewBox="0 0 24 24" version="1.1" xmlns="http://www.w3.org/2000/svg" xmlns:xlink="http://www.w3.org/1999/xlink">
    <title>delete_back_line</title>
    <g id="页面-1" stroke="none" stroke-width="1" fill="none" fill-rule="evenodd">
        <g id="System" transform="translate(-382.000000, -192.000000)" fill-rule="nonzero">
            <g id="delete_back_line" transform="translate(382.000000, 192.000000)">
                <rect id="矩形" x="0" y="0" width="24" height="24"></rect>
                <path d="M19,3 C20.5976286,3 21.9036571,4.24892392 21.9949071,5.82372764 L22,6 L22,18 C22,19.597725 20.7510296,20.903664 19.1762674,20.9949075 L19,21 L8.10845,21 C7.13872812,21 6.23313125,20.5316309 5.67200026,19.7503766 L5.56445,19.59 L1.4832,13.06 C1.10904,12.4613846 1.08026698,11.7140828 1.39685735,11.0925926 L1.4832,10.94 L5.56445,4.41 C6.07840625,3.58768125 6.95551777,3.06795234 7.91544369,3.00619841 L8.10845,3 L19,3 Z M19,5 L8.10845,5 C7.80675875,5 7.5236875,5.13599031 7.33521209,5.36585965 L7.26045,5.47 L3.1792,12 L7.26045,18.53 C7.4203475,18.78585 7.68569453,18.9538062 7.98051525,18.9917977 L8.10845,19 L19,19 C19.5127571,19 19.9354959,18.613973 19.9932711,18.1166239 L20,18 L20,6 C20,5.48716857 19.6138867,5.06449347 19.1166055,5.0067278 L19,5 Z M10.8786,8.46447 L12.9999,10.5858 L15.1213,8.46447 C15.5118,8.07394 16.145,8.07394 16.5355,8.46447 C16.926,8.85499 16.926,9.48815 16.5355,9.87868 L14.4142,12 L16.5355,14.1213 C16.926,14.5118 16.926,15.145 16.5355,15.5355 C16.145,15.9261 15.5118,15.9261 15.1213,15.5355 L12.9999,13.4142 L10.8786,15.5355 C10.4881,15.9261 9.85493,15.9261 9.46441,15.5355 C9.07389,15.145 9.07389,14.5118 9.46441,14.1213 L11.5857,12 L9.46441,9.87868 C9.07389,9.48815 9.07389,8.85499 9.46441,8.46447 C9.85493,8.07394 10.4881,8.07394 10.8786,8.46447 Z" id="形状" fill="#09244B"></path>
            </g>
        </g>
    </g>
</svg>