<svg width="24" height="24" viewBox="0 0 24 24" fill="none" xmlns="http://www.w3.org/2000/svg">
<rect width="24" height="24" transform="matrix(-1 0 0 1 24 0)" fill="white" fill-opacity="0.01"/>
<path d="M9 3C9 2.44772 9.44772 2 10 2H14C14.5523 2 15 2.44772 15 3C15 3.55228 14.5523 4 14 4H10C9.44772 4 9 3.55228 9 3Z" fill="#09244B"/>
<path fill-rule="evenodd" clip-rule="evenodd" d="M3 6C3 5.44772 3.44772 5 4 5H20C20.5523 5 21 5.44772 21 6C21 6.55228 20.5523 7 20 7H19.0001C19.0001 7.02361 18.9992 7.04738 18.9975 7.07129L18.0638 20.1425C17.9891 21.1891 17.1182 22 16.0689 22H7.93116C6.88189 22 6.011 21.1891 5.93624 20.1425L5.00258 7.07129C5.00088 7.04738 5.00002 7.02361 5 7H4C3.44772 7 3 6.55228 3 6Z" fill="#09244B"/>
</svg>
