<svg xmlns="http://www.w3.org/2000/svg" width="24" height="24" viewBox="0 0 24 24"><title>dropdown_line</title><g fill="none" fill-rule="nonzero"><path d="M24 0v24H0V0zM12.594 23.258l-.012.002-.071.035-.02.004-.014-.004-.071-.036q-.016-.004-.024.006l-.004.01-.017.428.005.02.01.013.104.074.015.004.012-.004.104-.074.012-.016.004-.017-.017-.427q-.004-.016-.016-.018m.264-.113-.014.002-.184.093-.01.01-.003.011.018.43.005.012.008.008.201.092q.019.005.029-.008l.004-.014-.034-.614q-.005-.019-.02-.022m-.715.002a.02.02 0 0 0-.027.006l-.006.014-.034.614q.001.018.017.024l.015-.002.201-.093.01-.008.003-.011.018-.43-.003-.012-.01-.01z"/><path fill="#09244b" d="M19 3a2 2 0 0 1 2 2v5a2 2 0 0 1-2 2h-5v7a2 2 0 0 1-2 2H5a2 2 0 0 1-2-2V5a2 2 0 0 1 2-2zm-7 9H5v7h7zm-2 4a1 1 0 1 1 0 2H7a1 1 0 1 1 0-2zm0-3a1 1 0 1 1 0 2H7a1 1 0 1 1 0-2zm2-8H5v5h7zm7 0h-5v5h5zm-2.48 1.17c.563 0 1.015.028 1.3.053.167.014.27.173.2.31l-.12.228c-.117.215-.276.488-.478.799-.294.452-.556.794-.72.998-.093.113-.277.108-.374-.011l-.162-.207a12.7 12.7 0 0 1-1.155-1.822c-.068-.135.019-.278.176-.292l.39-.03c.258-.014.577-.026.943-.026"/></g></svg>