<svg xmlns="http://www.w3.org/2000/svg" width="24" height="24" viewBox="0 0 24 24"><title>dropdown_fill</title><g fill="none" fill-rule="evenodd"><path d="M24 0v24H0V0zM12.594 23.258l-.012.002-.071.035-.02.004-.014-.004-.071-.036q-.016-.004-.024.006l-.004.01-.017.428.005.02.01.013.104.074.015.004.012-.004.104-.074.012-.016.004-.017-.017-.427q-.004-.016-.016-.018m.264-.113-.014.002-.184.093-.01.01-.003.011.018.43.005.012.008.008.201.092q.019.005.029-.008l.004-.014-.034-.614q-.005-.019-.02-.022m-.715.002a.02.02 0 0 0-.027.006l-.006.014-.034.614q.001.018.017.024l.015-.002.201-.093.01-.008.003-.011.018-.43-.003-.012-.01-.01z"/><path fill="#09244b" d="M19 3a2 2 0 0 1 2 2v5a2 2 0 0 1-2 2h-5v7a2 2 0 0 1-2 2H5a2 2 0 0 1-2-2V5a2 2 0 0 1 2-2zM7 16a1 1 0 1 0 0 2h3a1 1 0 1 0 0-2zm0-4a1 1 0 1 0 0 2h3a1 1 0 1 0 0-2zm9.52-5.83c-.586 0-1.051.03-1.333.056-.157.014-.245.158-.176.293.116.228.316.593.606 1.04s.547.784.711.988c.097.12.281.124.373.01.165-.203.427-.545.72-.997.284-.436.482-.797.6-1.028.07-.136-.033-.294-.2-.308a15 15 0 0 0-1.302-.054"/></g></svg>