<?xml version="1.0" encoding="UTF-8"?>
<svg width="24px" height="24px" viewBox="0 0 24 24" version="1.1" xmlns="http://www.w3.org/2000/svg" xmlns:xlink="http://www.w3.org/1999/xlink">
    <title>exit_fill</title>
    <g id="页面-1" stroke="none" stroke-width="1" fill="none" fill-rule="evenodd">
        <g id="System" transform="translate(-720.000000, -144.000000)" fill-rule="nonzero">
            <g id="exit_fill" transform="translate(720.000000, 144.000000)">
                <rect id="矩形" x="0" y="0" width="24" height="24"></rect>
                <path d="M12,2.5 C12.8284,2.5 13.5,3.17157 13.5,4 C13.5,4.77969882 12.9050879,5.420449 12.1444558,5.49313345 L12,5.5 L7,5.5 C6.75454222,5.5 6.5503921,5.67687704 6.50805575,5.91012499 L6.5,6 L6.5,18 C6.5,18.2454222 6.67687704,18.4496 6.91012499,18.4919429 L7,18.5 L11.5,18.5 C12.3284,18.5 13,19.1716 13,20 C13,20.7796706 12.4050879,21.4204457 11.6444558,21.4931332 L11.5,21.5 L7,21.5 C5.13143333,21.5 3.60487333,20.0357256 3.50517885,18.1920355 L3.5,18 L3.5,6 C3.5,4.13143333 4.96427444,2.60487333 6.80796448,2.50517885 L7,2.5 L12,2.5 Z M13.9393,8.11091 C14.5251,7.52513 15.4748,7.52513 16.0606,8.11091 C16.6097875,8.66008813 16.6441117,9.52915297 16.1635727,10.118284 L16.0606,10.2322 L15.7928,10.5 L20,10.5 C20.8284,10.5 21.5,11.1716 21.5,12 C21.5,12.7796706 20.9050879,13.4204457 20.1444558,13.4931332 L20,13.5 L15.7928,13.5 L16.0606,13.7678 C16.6464,14.3536 16.6464,15.3033 16.0606,15.8891 C15.5114125,16.4382875 14.642391,16.4726117 14.0532243,15.9920727 L13.9393,15.8891 L11.1108,13.0607 C10.5617062,12.5115125 10.5273879,11.6424031 11.0078449,11.0532254 L11.1108,10.9393 L13.9393,8.11091 Z" id="形状" fill="#09244B"></path>
            </g>
        </g>
    </g>
</svg>