<?xml version="1.0" encoding="UTF-8"?>
<svg width="24px" height="24px" viewBox="0 0 24 24" version="1.1" xmlns="http://www.w3.org/2000/svg" xmlns:xlink="http://www.w3.org/1999/xlink">
    <title>exit_door_line</title>
    <g id="页面-1" stroke="none" stroke-width="1" fill="none" fill-rule="evenodd">
        <g id="System" transform="translate(-912.000000, -192.000000)" fill-rule="nonzero">
            <g id="exit_door_line" transform="translate(912.000000, 192.000000)">
                 <path d="M24,0 L24,24 L0,24 L0,0 L24,0 Z M12.5934901,23.257841 L12.5819402,23.2595131 L12.5108777,23.2950439 L12.4918791,23.2987469 L12.4918791,23.2987469 L12.4767152,23.2950439 L12.4056548,23.2595131 C12.3958229,23.2563662 12.3870493,23.2590235 12.3821421,23.2649074 L12.3780323,23.275831 L12.360941,23.7031097 L12.3658947,23.7234994 L12.3769048,23.7357139 L12.4804777,23.8096931 L12.4953491,23.8136134 L12.4953491,23.8136134 L12.5071152,23.8096931 L12.6106902,23.7357139 L12.6232938,23.7196733 L12.6232938,23.7196733 L12.6266527,23.7031097 L12.609561,23.275831 C12.6075724,23.2657013 12.6010112,23.2592993 12.5934901,23.257841 L12.5934901,23.257841 Z M12.8583906,23.1452862 L12.8445485,23.1473072 L12.6598443,23.2396597 L12.6498822,23.2499052 L12.6498822,23.2499052 L12.6471943,23.2611114 L12.6650943,23.6906389 L12.6699349,23.7034178 L12.6699349,23.7034178 L12.678386,23.7104931 L12.8793402,23.8032389 C12.8914285,23.8068999 12.9022333,23.8029875 12.9078286,23.7952264 L12.9118235,23.7811639 L12.8776777,23.1665331 C12.8752882,23.1545897 12.8674102,23.1470016 12.8583906,23.1452862 L12.8583906,23.1452862 Z M12.1430473,23.1473072 C12.1332178,23.1423925 12.1221763,23.1452606 12.1156365,23.1525954 L12.1099173,23.1665331 L12.0757714,23.7811639 C12.0751323,23.7926639 12.0828099,23.8018602 12.0926481,23.8045676 L12.108256,23.8032389 L12.3092106,23.7104931 L12.3186497,23.7024347 L12.3186497,23.7024347 L12.3225043,23.6906389 L12.340401,23.2611114 L12.337245,23.2485176 L12.337245,23.2485176 L12.3277531,23.2396597 L12.1430473,23.1473072 Z" id="MingCute" fill-rule="nonzero"></path>
                <path d="M11.5,3 C12.0523,3 12.5,3.44772 12.5,4 C12.5,4.51284071 12.113973,4.93550786 11.6166239,4.99327234 L11.5,5 L6,5 L6,19 L16,19 L16,12.5 C16,11.9477 16.4477,11.5 17,11.5 C17.51285,11.5 17.9355092,11.886027 17.9932725,12.3833761 L18,12.5 L18,19 L20,19 C20.5523,19 21,19.4477 21,20 C21,20.51285 20.613973,20.9355092 20.1166239,20.9932725 L20,21 L4,21 C3.44772,21 3,20.5523 3,20 C3,19.48715 3.38604429,19.0644908 3.88337975,19.0067275 L4,19 L4,5 C4,3.94563773 4.81587733,3.08183483 5.85073759,3.00548573 L6,3 L11.5,3 Z M13.5,11 C14.3284,11 15,11.6716 15,12.5 C15,13.3284 14.3284,14 13.5,14 C12.6716,14 12,13.3284 12,12.5 C12,11.6716 12.6716,11 13.5,11 Z M18.5871,4.17156 L20.7071,6.29149 C21.0974,6.68184 21.0976,7.31465 20.7075,7.70525 L18.5876,9.82799 C18.1973,10.2188 17.5641,10.2192 17.1733,9.82891 C16.7826,9.43864 16.7822,8.80548 17.1724,8.4147 L17.5883,7.99827 L14.38,7.99827 C13.8277,7.99827 13.38,7.55056 13.38,6.99827 C13.38,6.44599 13.8277,5.99827 14.38,5.99827 L17.5854,5.99827 L17.1729,5.58577 C16.7824,5.19524 16.7824,4.56208 17.1729,4.17156 C17.5634,3.78103 18.1966,3.78103 18.5871,4.17156 Z" id="形状" fill="#09244B"></path>
            </g>
        </g>
    </g>
</svg>