<?xml version="1.0" encoding="UTF-8"?>
<svg width="24px" height="24px" viewBox="0 0 24 24" version="1.1" xmlns="http://www.w3.org/2000/svg" xmlns:xlink="http://www.w3.org/1999/xlink">
    <title>entrance_fill</title>
    <g id="页面-1" stroke="none" stroke-width="1" fill="none" fill-rule="evenodd">
        <g id="System" transform="translate(-672.000000, -144.000000)" fill-rule="nonzero">
            <g id="entrance_fill" transform="translate(672.000000, 144.000000)">
                <rect id="矩形" x="0" y="0" width="24" height="24"></rect>
                <path d="M12,2.5 C12.8284,2.5 13.5,3.17157 13.5,4 C13.5,4.82843 12.8284,5.5 12,5.5 L12,5.5 L7,5.5 C6.72386,5.5 6.5,5.72386 6.5,6 L6.5,6 L6.5,18 C6.5,18.2761 6.72386,18.5 7,18.5 L7,18.5 L11.5,18.5 C12.3284,18.5 13,19.1716 13,20 C13,20.8284 12.3284,21.5 11.5,21.5 L11.5,21.5 L7,21.5 C5.067,21.5 3.5,19.933 3.5,18 L3.5,18 L3.5,6 C3.5,4.067 5.067,2.5 7,2.5 L7,2.5 Z M18.0606,8.11091 L20.889,10.9393 C21.4748,11.5251 21.4748,12.4749 20.889,13.0607 L18.0606,15.8891 C17.4748,16.4749 16.5251,16.4749 15.9393,15.8891 C15.3535,15.3033 15.3535,14.3536 15.9393,13.7678 L16.207,13.5 L12,13.5 C11.1716,13.5 10.5,12.8284 10.5,12 C10.5,11.1716 11.1716,10.5 12,10.5 L16.207,10.5 L15.9393,10.2322 C15.3535,9.64645 15.3535,8.6967 15.9393,8.11091 C16.5251,7.52513 17.4748,7.52513 18.0606,8.11091 Z" id="形状结合" fill="#09244B"></path>
            </g>
        </g>
    </g>
</svg>