<?xml version="1.0" encoding="UTF-8"?>
<svg width="24px" height="24px" viewBox="0 0 24 24" version="1.1" xmlns="http://www.w3.org/2000/svg" xmlns:xlink="http://www.w3.org/1999/xlink">
    <title>entrance_line</title>
    <g id="页面-1" stroke="none" stroke-width="1" fill="none" fill-rule="evenodd">
        <g id="System" transform="translate(-672.000000, -96.000000)" fill-rule="nonzero">
            <g id="entrance_line" transform="translate(672.000000, 96.000000)">
                <rect id="矩形" x="0" y="0" width="24" height="24"></rect>
                <path d="M12,3 C12.5523,3 13,3.44772 13,4 C13,4.51283143 12.613973,4.93550653 12.1166239,4.9932722 L12,5 L7,5 C6.48716857,5 6.06449347,5.38604429 6.0067278,5.88337975 L6,6 L6,18 C6,18.51285 6.38604429,18.9355092 6.88337975,18.9932725 L7,19 L11.5,19 C12.0523,19 12.5,19.4477 12.5,20 C12.5,20.51285 12.113973,20.9355092 11.6166239,20.9932725 L11.5,21 L7,21 C5.40232321,21 4.09633941,19.7511226 4.00509271,18.1762773 L4,18 L4,6 C4,4.40232321 5.24892392,3.09633941 6.82372764,3.00509271 L7,3 L12,3 Z M17.707,8.46447 L20.5355,11.2929 C20.926,11.6834 20.926,12.3166 20.5355,12.7071 L17.707,15.5355 C17.3165,15.9261 16.6834,15.9261 16.2928,15.5355 C15.9023,15.145 15.9023,14.5118 16.2928,14.1213 L17.4142,13 L12,13 C11.4477,13 11,12.5523 11,12 C11,11.4477 11.4477,11 12,11 L17.4142,11 L16.2928,9.87868 C15.9023,9.48816 15.9023,8.85499 16.2928,8.46447 C16.6834,8.07394 17.3165,8.07394 17.707,8.46447 Z" id="形状" fill="#09244B"></path>
            </g>
        </g>
    </g>
</svg>