<?xml version="1.0" encoding="UTF-8"?>
<svg width="24px" height="24px" viewBox="0 0 24 24" version="1.1" xmlns="http://www.w3.org/2000/svg" xmlns:xlink="http://www.w3.org/1999/xlink">
    <title>exit_door_fill</title>
    <g id="页面-1" stroke="none" stroke-width="1" fill="none" fill-rule="evenodd">
        <g id="System" transform="translate(-912.000000, -240.000000)">
            <g id="exit_door_fill" transform="translate(912.000000, 240.000000)">
                <rect id="矩形" fill-rule="nonzero" x="0" y="0" width="24" height="24"></rect>
                <path d="M15.5409,3 C15.2969,3.30307 15.1204,3.64255 15.0116,3.99827 L14.3801,3.99827 C12.7233,3.99827 11.3801,5.34142 11.3801,6.99827 C11.3801,8.65513 12.7233,9.99827 14.3801,9.99827 L15.0105,9.99827 C15.1494,10.4543 15.3993,10.8837 15.7602,11.244 C16.3764,11.8594 17.1934,12.151 18,12.119 L18,19 L20,19 C20.5523,19 21,19.4477 21,20 C21,20.5523 20.5523,21 20,21 L4,21 C3.44772,21 3,20.5523 3,20 C3,19.4477 3.44772,19 4,19 L4,5 C4,3.89543 4.89543,3 6,3 L15.5409,3 Z M13.5,13 C12.6716,13 12,13.6716 12,14.5 C12,15.3284 12.6716,16 13.5,16 C14.3284,16 15,15.3284 15,14.5 C15,13.6716 14.3284,13 13.5,13 Z M18.5873,4.17156 L20.7072,6.29149 C21.0975,6.68184 21.0977,7.31465 20.7077,7.70525 L18.5877,9.82799 C18.1974,10.2188 17.5642,10.2192 17.1735,9.82891 C16.7827,9.43864 16.7823,8.80548 17.1725,8.4147 L17.5884,7.99827 L14.3801,7.99827 C13.8278,7.99827 13.3801,7.55056 13.3801,6.99827 C13.3801,6.44599 13.8278,5.99827 14.3801,5.99827 L17.5855,5.99827 L17.173,5.58577 C16.7825,5.19524 16.7825,4.56208 17.173,4.17156 C17.5636,3.78103 18.1967,3.78103 18.5873,4.17156 Z" id="形状" fill="#09244B"></path>
            </g>
        </g>
    </g>
</svg>