<svg width="24" height="24" viewBox="0 0 24 24" fill="none" xmlns="http://www.w3.org/2000/svg">
<rect width="24" height="24" fill="white" fill-opacity="0.01"/>
<path fill-rule="evenodd" clip-rule="evenodd" d="M2.5 9C2.5 8.17157 3.17157 7.5 4 7.5C4.68898 7.5 5.26828 7.96407 5.44478 8.59579C7.39172 15.0976 16.6031 15.0993 18.5538 8.60092C18.7286 7.96656 19.3092 7.5 20 7.5C20.8284 7.5 21.5 8.17157 21.5 9C21.5 9.15661 21.4758 9.30851 21.4307 9.45166C21.0603 10.6908 20.5038 11.7702 19.8082 12.6868L20.7678 13.6464C21.3536 14.2322 21.3536 15.182 20.7678 15.7677C20.1821 16.3535 19.2323 16.3535 18.6465 15.7677L17.6358 14.757C17.1072 15.1193 16.5474 15.4241 15.9665 15.6715L16.2094 16.5777C16.4238 17.3779 15.9489 18.2004 15.1487 18.4148C14.3485 18.6292 13.526 18.1543 13.3116 17.3542L13.0609 16.4187C12.356 16.4917 11.644 16.4917 10.9391 16.4187L10.6884 17.3542C10.474 18.1543 9.65149 18.6292 8.85129 18.4148C8.05109 18.2004 7.57622 17.3779 7.79063 16.5777L8.03347 15.6714C7.45272 15.4241 6.89298 15.1194 6.3644 14.7571L5.35372 15.7677C4.76794 16.3535 3.81819 16.3535 3.2324 15.7677C2.64662 15.182 2.64662 14.2322 3.2324 13.6464L4.19194 12.6869C3.4975 11.7718 2.94165 10.6944 2.57129 9.45781C2.52487 9.31287 2.5 9.15886 2.5 9Z" fill="#09244B"/>
</svg>
