<?xml version="1.0" encoding="UTF-8"?>
<svg width="24px" height="24px" viewBox="0 0 24 24" version="1.1" xmlns="http://www.w3.org/2000/svg" xmlns:xlink="http://www.w3.org/1999/xlink">
    <title>eye_fill</title>
    <g id="页面-1" stroke="none" stroke-width="1" fill="none" fill-rule="evenodd">
        <g id="System" transform="translate(-432.000000, -48.000000)">
            <g id="eye_fill" transform="translate(432.000000, 48.000000)">
                <rect id="矩形" fill-rule="nonzero" x="0" y="0" width="24" height="24"></rect>
                <path d="M12,4 C9.21333,4 6.73725,5.25676 4.97431,6.81276 C4.08915,7.59401 3.35973,8.47094 2.84556,9.34416 C2.34075,10.2015 2,11.1299 2,12 C2,12.8701 2.34075,13.7985 2.84556,14.6558 C3.35973,15.5291 4.08915,16.406 4.97431,17.1872 C6.73725,18.7432 9.21333,20 12,20 C14.7867,20 17.2628,18.7432 19.0257,17.1872 C19.9108,16.406 20.6403,15.5291 21.1544,14.6558 C21.6593,13.7985 22,12.8701 22,12 C22,11.1299 21.6593,10.2015 21.1544,9.34416 C20.6403,8.47094 19.9108,7.59401 19.0257,6.81276 C17.2628,5.25676 14.7867,4 12,4 Z M14,12 C14.3597,12 14.6972,11.9051 14.9888,11.7389 C14.9962,11.8249 15,11.912 15,12 C15,13.6569 13.6569,15 12,15 C10.3431,15 9,13.6569 9,12 C9,10.3431 10.3431,9 12,9 C12.088,9 12.1751,9.00379 12.2611,9.01121 C12.0949,9.30283 12,9.64033 12,10 C12,11.1046 12.8954,12 14,12 Z" id="形状" fill="#09244B"></path>
            </g>
        </g>
    </g>
</svg>