<?xml version="1.0" encoding="UTF-8"?>
<svg width="24px" height="24px" viewBox="0 0 24 24" version="1.1" xmlns="http://www.w3.org/2000/svg" xmlns:xlink="http://www.w3.org/1999/xlink">
    <title>faceid_line</title>
    <g id="页面-1" stroke="none" stroke-width="1" fill="none" fill-rule="evenodd">
        <g id="System" transform="translate(0.000000, -288.000000)" fill-rule="nonzero">
            <g id="faceid_line" transform="translate(0.000000, 288.000000)">
                <rect id="矩形" x="0" y="0" width="24" height="24"></rect>
                <path d="M4,16 C4.51283143,16 4.93550653,16.386027 4.9932722,16.8833761 L5,17 L5,19 L7,19 C7.55228,19 8,19.4477 8,20 C8,20.51285 7.61395571,20.9355092 7.11662025,20.9932725 L7,21 L5,21 C3.94563773,21 3.08183483,20.18415 3.00548573,19.1492661 L3,19 L3,17 C3,16.4477 3.44772,16 4,16 Z M20,16 C20.5523,16 21,16.4477 21,17 L21,19 C21,20.1046 20.1046,21 19,21 L17,21 C16.4477,21 16,20.5523 16,20 C16,19.4477 16.4477,19 17,19 L19,19 L19,17 C19,16.4477 19.4477,16 20,16 Z M14.8,13.8567 C15.1943,13.4701 15.8275,13.4764 16.2141,13.8708 C16.6007,14.2651 16.5944,14.8983 16.2,15.2849 C15.1188,16.3448 13.6349,17.0001 12.0000015,17.0001 C10.3651,17.0001 8.88118,16.3448 7.79996,15.2849 C7.40557,14.8983 7.39928,14.2651 7.7859,13.8708 C8.17252,13.4764 8.80566,13.4701 9.20004,13.8567 C9.92257,14.565 10.9095,15.0001 12.0000015,15.0001 C13.0905,15.0001 14.0774,14.565 14.8,13.8567 Z M8.5,8 C9.32843,8 10,8.67157 10,9.5 C10,10.3284 9.32843,11 8.5,11 C7.67157,11 7,10.3284 7,9.5 C7,8.67157 7.67157,8 8.5,8 Z M15.5,8 C16.3284,8 17,8.67157 17,9.5 C17,10.3284 16.3284,11 15.5,11 C14.6716,11 14,10.3284 14,9.5 C14,8.67157 14.6716,8 15.5,8 Z M7,3 C7.55228,3 8,3.44772 8,4 C8,4.55228 7.55228,5 7,5 L5,5 L5,7 C5,7.55228 4.55228,8 4,8 C3.44772,8 3,7.55228 3,7 L3,5 C3,3.89543 3.89543,3 5,3 L7,3 Z M19,3 C20.1046,3 21,3.89543 21,5 L21,7 C21,7.55228 20.5523,8 20,8 C19.4477,8 19,7.55228 19,7 L19,5 L17,5 C16.4477,5 16,4.55228 16,4 C16,3.44772 16.4477,3 17,3 L19,3 Z" id="形状" fill="#09244B"></path>
            </g>
        </g>
    </g>
</svg>