<?xml version="1.0" encoding="UTF-8"?>
<svg width="24px" height="24px" viewBox="0 0 24 24" version="1.1" xmlns="http://www.w3.org/2000/svg" xmlns:xlink="http://www.w3.org/1999/xlink">
    <title>faceid_line</title>
    <g id="页面-1" stroke="none" stroke-width="1" fill="none" fill-rule="evenodd">
        <g id="System" transform="translate(0.000000, -288.000000)" fill-rule="nonzero">
            <g id="faceid_line" transform="translate(0.000000, 288.000000)">
                 <path d="M24,0 L24,24 L0,24 L0,0 L24,0 Z M12.5934901,23.257841 L12.5819402,23.2595131 L12.5108777,23.2950439 L12.4918791,23.2987469 L12.4918791,23.2987469 L12.4767152,23.2950439 L12.4056548,23.2595131 C12.3958229,23.2563662 12.3870493,23.2590235 12.3821421,23.2649074 L12.3780323,23.275831 L12.360941,23.7031097 L12.3658947,23.7234994 L12.3769048,23.7357139 L12.4804777,23.8096931 L12.4953491,23.8136134 L12.4953491,23.8136134 L12.5071152,23.8096931 L12.6106902,23.7357139 L12.6232938,23.7196733 L12.6232938,23.7196733 L12.6266527,23.7031097 L12.609561,23.275831 C12.6075724,23.2657013 12.6010112,23.2592993 12.5934901,23.257841 L12.5934901,23.257841 Z M12.8583906,23.1452862 L12.8445485,23.1473072 L12.6598443,23.2396597 L12.6498822,23.2499052 L12.6498822,23.2499052 L12.6471943,23.2611114 L12.6650943,23.6906389 L12.6699349,23.7034178 L12.6699349,23.7034178 L12.678386,23.7104931 L12.8793402,23.8032389 C12.8914285,23.8068999 12.9022333,23.8029875 12.9078286,23.7952264 L12.9118235,23.7811639 L12.8776777,23.1665331 C12.8752882,23.1545897 12.8674102,23.1470016 12.8583906,23.1452862 L12.8583906,23.1452862 Z M12.1430473,23.1473072 C12.1332178,23.1423925 12.1221763,23.1452606 12.1156365,23.1525954 L12.1099173,23.1665331 L12.0757714,23.7811639 C12.0751323,23.7926639 12.0828099,23.8018602 12.0926481,23.8045676 L12.108256,23.8032389 L12.3092106,23.7104931 L12.3186497,23.7024347 L12.3186497,23.7024347 L12.3225043,23.6906389 L12.340401,23.2611114 L12.337245,23.2485176 L12.337245,23.2485176 L12.3277531,23.2396597 L12.1430473,23.1473072 Z" id="MingCute" fill-rule="nonzero"></path>
                <path d="M4,16 C4.51283143,16 4.93550653,16.386027 4.9932722,16.8833761 L5,17 L5,19 L7,19 C7.55228,19 8,19.4477 8,20 C8,20.51285 7.61395571,20.9355092 7.11662025,20.9932725 L7,21 L5,21 C3.94563773,21 3.08183483,20.18415 3.00548573,19.1492661 L3,19 L3,17 C3,16.4477 3.44772,16 4,16 Z M20,16 C20.5523,16 21,16.4477 21,17 L21,19 C21,20.1046 20.1046,21 19,21 L17,21 C16.4477,21 16,20.5523 16,20 C16,19.4477 16.4477,19 17,19 L19,19 L19,17 C19,16.4477 19.4477,16 20,16 Z M14.8,13.8567 C15.1943,13.4701 15.8275,13.4764 16.2141,13.8708 C16.6007,14.2651 16.5944,14.8983 16.2,15.2849 C15.1188,16.3448 13.6349,17.0001 12.0000015,17.0001 C10.3651,17.0001 8.88118,16.3448 7.79996,15.2849 C7.40557,14.8983 7.39928,14.2651 7.7859,13.8708 C8.17252,13.4764 8.80566,13.4701 9.20004,13.8567 C9.92257,14.565 10.9095,15.0001 12.0000015,15.0001 C13.0905,15.0001 14.0774,14.565 14.8,13.8567 Z M8.5,8 C9.32843,8 10,8.67157 10,9.5 C10,10.3284 9.32843,11 8.5,11 C7.67157,11 7,10.3284 7,9.5 C7,8.67157 7.67157,8 8.5,8 Z M15.5,8 C16.3284,8 17,8.67157 17,9.5 C17,10.3284 16.3284,11 15.5,11 C14.6716,11 14,10.3284 14,9.5 C14,8.67157 14.6716,8 15.5,8 Z M7,3 C7.55228,3 8,3.44772 8,4 C8,4.55228 7.55228,5 7,5 L5,5 L5,7 C5,7.55228 4.55228,8 4,8 C3.44772,8 3,7.55228 3,7 L3,5 C3,3.89543 3.89543,3 5,3 L7,3 Z M19,3 C20.1046,3 21,3.89543 21,5 L21,7 C21,7.55228 20.5523,8 20,8 C19.4477,8 19,7.55228 19,7 L19,5 L17,5 C16.4477,5 16,4.55228 16,4 C16,3.44772 16.4477,3 17,3 L19,3 Z" id="形状" fill="#09244B"></path>
            </g>
        </g>
    </g>
</svg>