<?xml version="1.0" encoding="UTF-8"?>
<svg width="24px" height="24px" viewBox="0 0 24 24" version="1.1" xmlns="http://www.w3.org/2000/svg" xmlns:xlink="http://www.w3.org/1999/xlink">
    <title>fliter_2_fill</title>
    <g id="页面-1" stroke="none" stroke-width="1" fill="none" fill-rule="evenodd">
        <g id="System" transform="translate(-528.000000, -240.000000)" fill-rule="nonzero">
            <g id="fliter_2_fill" transform="translate(528.000000, 240.000000)">
                <rect id="矩形" x="0" y="0" width="24" height="24"></rect>
                <path d="M14,16.5 C14.8284,16.5 15.5,17.1716 15.5,18 C15.5,18.7796706 14.9050879,19.4204457 14.1444558,19.4931332 L14,19.5 L10,19.5 C9.17157,19.5 8.5,18.8284 8.5,18 C8.5,17.2203294 9.09488554,16.5795543 9.85553954,16.5068668 L10,16.5 L14,16.5 Z M17,10.5 C17.8284,10.5 18.5,11.1716 18.5,12 C18.5,12.8284 17.8284,13.5 17,13.5 L7,13.5 C6.17157,13.5 5.5,12.8284 5.5,12 C5.5,11.1716 6.17157,10.5 7,10.5 L17,10.5 Z M20,4.5 C20.8284,4.5 21.5,5.17157 21.5,6 C21.5,6.82843 20.8284,7.5 20,7.5 L4,7.5 C3.17157,7.5 2.5,6.82843 2.5,6 C2.5,5.17157 3.17157,4.5 4,4.5 L20,4.5 Z" id="形状" fill="#09244B"></path>
            </g>
        </g>
    </g>
</svg>