<svg xmlns="http://www.w3.org/2000/svg" width="24" height="24" viewBox="0 0 24 24"><g fill="none" fill-rule="evenodd"><path d="M24,0 L24,24 L0,24 L0,0 L24,0 Z M12.5935,23.2578 L12.5819,23.2595 L12.5109,23.295 L12.4919,23.2987 L12.4767,23.295 L12.4057,23.2595 C12.3958,23.2564 12.387,23.259 12.3821,23.2649 L12.378,23.2758 L12.3609,23.7031 L12.3659,23.7235 L12.3769,23.7357 L12.4805,23.8097 L12.4953,23.8136 L12.5071,23.8097 L12.6107,23.7357 L12.6233,23.7197 L12.6267,23.7031 L12.6096,23.2758 C12.6076,23.2657 12.601,23.2593 12.5935,23.2578 Z M12.8584,23.1453 L12.8445,23.1473 L12.6598,23.2397 L12.6499,23.2499 L12.6472,23.2611 L12.6651,23.6906 L12.6699,23.7034 L12.6784,23.7105 L12.8793,23.8032 C12.8914,23.8069 12.9022,23.803 12.9078,23.7952 L12.9118,23.7812 L12.8777,23.1665 C12.8753,23.1546 12.8674,23.147 12.8584,23.1453 Z M12.143,23.1473 C12.1332,23.1424 12.1222,23.1453 12.1156,23.1526 L12.1099,23.1665 L12.0758,23.7812 C12.0751,23.7927 12.0828,23.8019 12.0926,23.8046 L12.1083,23.8032 L12.3092,23.7105 L12.3186,23.7024 L12.3225,23.6906 L12.3404,23.2611 L12.3372,23.2485 L12.3278,23.2397 L12.143,23.1473 Z"/><path fill="#09244B" d="M12,22 C17.5228,22 22,17.5228 22,12 C22,6.47715 17.5228,2 12,2 C6.47715,2 2,6.47715 2,12 C2,17.5228 6.47715,22 12,22 Z M4.5,12 C4.5,7.85786 7.85786,4.5 12,4.5 C16.1421,4.5 19.5,7.85786 19.5,12 C19.5,13.1966 18.53,14.1667 17.3333,14.1667 C16.2954,14.1667 15.4096,13.4163 15.239,12.3925 L15.0808,11.4431 C14.8298,9.93713 13.5268,8.83333 12,8.83333 C10.2511,8.83333 8.83333,10.2511 8.83333,12 C8.83333,15.7139 11.2149,18.8703 14.5326,20.0277 C14.7934,20.1186 15.0785,19.981 15.1694,19.7202 C15.2604,19.4595 15.1228,19.1744 14.862,19.0835 C11.9334,18.0618 9.83333,15.2755 9.83333,12 C9.83333,10.8034 10.8034,9.83333 12,9.83333 C13.0379,9.83333 13.9237,10.5837 14.0944,11.6075 L14.2526,12.5569 C14.5036,14.0629 15.8066,15.1667 17.3333,15.1667 C19.0822,15.1667 20.5,13.7489 20.5,12 C20.5,7.30558 16.6944,3.5 12,3.5 C7.30558,3.5 3.5,7.30558 3.5,12 C3.5,13.6159 3.77728,15.1682 4.28727,16.6111 C4.3793,16.8714 4.66496,17.0079 4.92532,16.9159 C5.18567,16.8238 5.32214,16.5382 5.23011,16.2778 C4.75742,14.9405 4.5,13.5008 4.5,12 Z M7.16667,12 C7.16667,9.33062 9.33062,7.16667 12,7.16667 C14.6694,7.16667 16.8333,9.33062 16.8333,12 C16.8333,12.2761 17.0572,12.5 17.3333,12.5 C17.6095,12.5 17.8333,12.2761 17.8333,12 C17.8333,8.77834 15.2217,6.16667 12,6.16667 C8.77834,6.16667 6.16667,8.77834 6.16667,12 C6.16667,15.3353 7.62951,18.3295 9.94693,20.3749 C10.154,20.5576 10.4699,20.5379 10.6527,20.3309 C10.8354,20.1238 10.8157,19.8079 10.6087,19.6251 C8.49719,17.7615 7.16667,15.0364 7.16667,12 Z M12.5,12 C12.5,11.7239 12.2761,11.5 12,11.5 C11.7239,11.5 11.5,11.7239 11.5,12 C11.5,15.2217 14.1117,17.8333 17.3333,17.8333 C17.664,17.8333 17.9886,17.8058 18.305,17.7527 C18.5773,17.707 18.761,17.4492 18.7153,17.1769 C18.6696,16.9045 18.4118,16.7208 18.1395,16.7665 C17.8776,16.8104 17.6084,16.8333 17.3333,16.8333 C14.664,16.8333 12.5,14.6694 12.5,12 Z"/></g></svg>