<?xml version="1.0" encoding="UTF-8"?>
<svg width="24px" height="24px" viewBox="0 0 24 24" version="1.1" xmlns="http://www.w3.org/2000/svg" xmlns:xlink="http://www.w3.org/1999/xlink">
    <title>fingerprint_fill</title>
    <g id="页面-1" stroke="none" stroke-width="1" fill="none" fill-rule="evenodd">
        <g id="System" transform="translate(-48.000000, -336.000000)" fill-rule="nonzero">
            <g id="fingerprint_fill" transform="translate(48.000000, 336.000000)">
                <rect id="矩形" x="0" y="0" width="24" height="24"></rect>
                <path d="M12,5.5 C15.0376,5.5 17.5000503,7.96243 17.5000503,11 L17.4987349,12.8513567 L17.4987349,12.8513567 L17.4930876,13.3324652 L17.4930876,13.3324652 L17.4802773,13.8282441 C17.477386,13.9119873 17.4740767,13.9962599 17.4702896,14.0810209 L17.441356,14.5951208 L17.441356,14.5951208 L17.3980877,15.1189782 C17.1668243,17.4953432 16.4130077,20.1084 13.9603,22.1523 C13.3239,22.6827 12.378,22.5967 11.8477,21.9603 C11.3173,21.3239 11.4033,20.378 12.0397,19.8477 C13.8906419,18.3051968 14.3502532,16.3026128 14.4634427,14.0405494 L14.4851276,13.4697439 L14.4851276,13.4697439 L14.4960065,12.8888232 L14.4960065,12.8888232 L14.4997075,12.2984839 L14.4997075,12.2984839 L14.5,11 C14.5,9.61929 13.3807,8.5 12,8.5 C10.6193,8.5 9.5,9.61929 9.5,11 L9.5,12 C9.5,13.0355 9.16938,14.2762 8.57353,15.3934 C7.97298,16.5194 7.02504,17.6645 5.67082,18.3416 C4.92985,18.7121 4.02884,18.4118 3.65836,17.6708 C3.30967294,16.9734824 3.5551982,16.1342574 4.20304156,15.7291331 L4.32918,15.6584 C4.97496,15.3355 5.52702,14.7306 5.92647,13.9816 C6.33062,13.2238 6.5,12.4645 6.5,12 L6.5,11 C6.5,7.96243 8.96243,5.5 12,5.5 Z M12,1.5 C17.2467,1.5 21.5,5.7533 21.5,11 L21.5,14.0012 L21.492325,14.4067 L21.492325,14.4067 L21.4640025,15.0014922 L21.4640025,15.0014922 L21.4345623,15.4274578 C21.4286383,15.5032031 21.4221719,15.581175 21.4151125,15.66115 L21.3652359,16.16325 C21.3459688,16.3374375 21.323925,16.51785 21.2987,16.7027 C21.1092,18.0924 20.7016,20.0645 19.7,21.4 C19.2029,22.0627 18.2627,22.1971 17.6,21.7 C16.9762824,21.2321412 16.8205398,20.3717785 17.2188108,19.719681 L17.3,19.6 C17.7984,18.9355 18.1408,17.6576 18.3263,16.2973 C18.3757857,15.9341 18.4112959,15.5885327 18.4367303,15.2800778 L18.4678125,14.847665 C18.4718959,14.7810469 18.4754714,14.7173571 18.4786,14.6569 C18.4898,14.4398 18.4981,14.2224 18.5,14.005 L18.5,11 C18.5,7.41015 15.5899,4.5 12,4.5 C8.41015,4.5 5.5,7.41015 5.5,11 L5.5,13 C5.5,13.8284 4.82843,14.5 4,14.5 C3.17157,14.5 2.5,13.8284 2.5,13 L2.5,11 C2.5,5.75329 6.75329,1.5 12,1.5 Z M12,10 C12.8284,10 13.5,10.6716 13.5,11.5 L13.4911207,12.0970388 C13.4537878,13.3428347 13.2881143,14.8791286 12.798,16.3493 C12.2249,18.0687 11.1521,19.851 9.17082,20.8416 C8.42985,21.2121 7.52884,20.9118 7.15836,20.1708 C6.80967294,19.4734824 7.0551982,18.6342574 7.70304156,18.2291331 L7.82918,18.1584 C8.84786,17.649 9.52509,16.6813 9.95197,15.4007 C10.3802,14.1159 10.5,12.6711 10.5,11.5 C10.5,10.6716 11.1716,10 12,10 Z" id="形状" fill="#09244B"></path>
            </g>
        </g>
    </g>
</svg>