<?xml version="1.0" encoding="UTF-8"?>
<svg width="24px" height="24px" viewBox="0 0 24 24" version="1.1" xmlns="http://www.w3.org/2000/svg" xmlns:xlink="http://www.w3.org/1999/xlink">
    <title>fingerprint_line</title>
    <g id="页面-1" stroke="none" stroke-width="1" fill="none" fill-rule="evenodd">
        <g id="System" transform="translate(-48.000000, -288.000000)">
            <g id="fingerprint_line" transform="translate(48.000000, 288.000000)">
                <rect id="矩形" fill-rule="nonzero" x="0" y="0" width="24" height="24"></rect>
                <path d="M12,4 C8.13401,4 5,7.13401 5,11 L5,13 C5,13.5523 4.55228,14 4,14 C3.44772,14 3,13.5523 3,13 L3,11 C3,6.02944 7.02944,2 12,2 C16.9706,2 21,6.02944 21,11 L21,14 C20.9998,14.2621 20.9888,14.5244 20.9752,14.786 C20.9508,15.2591 20.9018,15.913 20.8033,16.6351 C20.6145,18.0199 20.2178,19.8763 19.3,21.1 C18.9686,21.5418 18.3418,21.6314 17.9,21.3 C17.4582,20.9686 17.3686,20.3418 17.7,19.9 C18.2822,19.1237 18.6355,17.7301 18.8217,16.3649 C18.9107,15.712 18.9555,15.1159 18.9779,14.6827 C18.9897,14.4553 18.9996,14.2273 19,13.9996 L19,11 C19,7.13401 15.866,4 12,4 Z M12,8 C10.3431,8 9,9.34315 9,11 L9,12 C9,12.9403 8.69626,14.1008 8.13235,15.1581 C7.56532,16.2213 6.68336,17.2764 5.44721,17.8944 C4.95324,18.1414 4.35256,17.9412 4.10557,17.4472 C3.85858,16.9532 4.05881,16.3526 4.55279,16.1056 C5.31664,15.7236 5.93468,15.0287 6.36765,14.2169 C6.80374,13.3992 7,12.5597 7,12 L7,11 C7,8.23858 9.23858,6 12,6 C14.7614,6 17.0000161,8.23858 17.0000161,11 L17.0000161,12 L17.0000161,12.1166 C17.0006,15.0415 17.0014,18.9672 13.6402,21.7682 C13.2159,22.1218 12.5853,22.0645 12.2318,21.6402 C11.8782,21.2159 11.9355,20.5853 12.3598,20.2318 C14.9537,18.0702 15,15.0635 15,12 L15,11 C15,9.34315 13.6569,8 12,8 Z M13,11.5 C13,10.9477 12.5523,10.5 12,10.5 C11.4477,10.5 11,10.9477 11,11.5 C11,12.6974 10.8785,14.2023 10.4263,15.5588 C9.97506,16.9125 9.2319,18.016 8.05279,18.6056 C7.55881,18.8526 7.35858,19.4532 7.60557,19.9472 C7.85256,20.4412 8.45324,20.6414 8.94721,20.3944 C10.7681,19.484 11.7749,17.8375 12.3237,16.1912 C12.8715,14.5477 13,12.8026 13,11.5 Z" id="形状" fill="#09244B"></path>
            </g>
        </g>
    </g>
</svg>