<svg width="24" height="24" viewBox="0 0 24 24" fill="none" xmlns="http://www.w3.org/2000/svg">
<rect width="24" height="24" transform="matrix(-1 0 0 1 24 0)" fill="white" fill-opacity="0.01"/>
<path d="M11.5144 2.14236L10.2549 1.38672L10.0135 2.83553C9.63231 5.12379 8.06881 7.25037 6.34517 8.74417C2.96986 11.6694 2.23067 14.8487 3.27601 17.4753C4.27565 19.987 6.81362 21.7075 9.3895 21.9938L9.98632 22.0601C8.51202 21.1585 7.56557 19.0535 7.89655 17.4813C8.22199 15.9355 9.33405 14.4869 11.4701 13.1519L12.5472 12.4787L12.9488 13.6836C13.1863 14.3963 13.5962 14.968 14.0129 15.5492C14.2138 15.8294 14.4162 16.1118 14.6018 16.4132C15.2447 17.4581 15.415 18.6196 14.9999 19.7722C14.6222 20.8211 13.9985 21.6446 13.1401 22.1016L14.1105 21.9938C16.5278 21.7252 18.3031 20.8982 19.4557 19.515C20.5986 18.1436 20.9999 16.379 20.9999 14.4999C20.9999 12.7494 20.2812 10.946 19.433 9.44531C18.4392 7.68697 17.1418 6.22748 15.726 4.8117C15.481 5.30173 15.5 5.5 14.9953 6.28698C14.4118 4.73216 13.2963 3.21139 11.5144 2.14236Z" fill="#09244B"/>
</svg>
