<?xml version="1.0" encoding="UTF-8"?>
<svg width="24px" height="24px" viewBox="0 0 24 24" version="1.1" xmlns="http://www.w3.org/2000/svg" xmlns:xlink="http://www.w3.org/1999/xlink">
    <title>fire_line</title>
    <g id="页面-1" stroke="none" stroke-width="1" fill="none" fill-rule="evenodd">
        <g id="System" transform="translate(-480.000000, 0.000000)">
            <g id="fire_line" transform="translate(480.000000, 0.000000)">
                <rect id="矩形" fill-rule="nonzero" transform="translate(12.000000, 12.000000) scale(-1, 1) translate(-12.000000, -12.000000) " x="0" y="0" width="24" height="24"></rect>
                <path d="M10.2549,1.38696 L11.5144,2.1426 C13.2963,3.21163 14.4118,4.73241 14.9953,6.28723 C15.2173,5.78612 15.481,5.30197 15.726,4.81195 L16.707,5.79301 C18.9091,7.99508 20.9999,11.2954 20.9999,14.5001 C20.9999,18.7984 18.3501,21.5229 14.1105,21.994 L12.7206,22.1484 L13.0239,20.7832 C13.2612,19.7152 13.3031,19.0168 13.2548,18.5281 C13.194,17.9126 12.9015,17.4302 12.5383,16.95 C12.1898,16.4892 11.8453,16.0286 11.5695,15.5192 C10.4338,16.4167 9.99385,17.227 9.85349,17.8936 C9.67355,18.7484 9.92843,19.621 10.3944,20.5529 L11.2164,22.197 L9.3895,21.994 C6.81362,21.7078 4.27565,19.9872 3.27601,17.4755 C2.23067,14.8489 2.96986,11.6697 6.34517,8.74442 C8.5855,6.80282 9.77193,4.28597 10.2549,1.38696 Z M11.587,4.68781 C10.825,6.82703 9.36239,8.77611 7.65502,10.2558 C4.74378,12.7788 4.48299,15.0996 5.13425,16.7359 C5.61965,17.9556 6.66682,18.9589 7.90774,19.5279 C7.77608,18.8896 7.7448,18.2016 7.89639,17.4816 C8.22184,15.9358 9.33388,14.4872 11.47,13.1521 L12.547,12.479 L12.9487,13.6839 C13.3007,14.74 14.0312,15.4866 14.6016,16.4135 C15.2296,17.434 15.3497,18.6034 15.2229,19.7725 C17.841,19.1162 18.9999,17.1295 18.9999,14.5001 C18.9999,12.2784 17.6598,10.0983 16.3292,8.39425 C15.7823,9.6221 14.6265,10.0549 13.4999,10.6181 L13.4999,9.00011 C13.4999,7.63116 12.9432,5.96245 11.587,4.68781 Z" id="形状" fill="#09244B"></path>
            </g>
        </g>
    </g>
</svg>