<svg width="24" height="24" viewBox="0 0 24 24" fill="none" xmlns="http://www.w3.org/2000/svg">
<rect width="24" height="24" transform="matrix(-1 0 0 1 24 0)" fill="white" fill-opacity="0.01"/>
<path fill-rule="evenodd" clip-rule="evenodd" d="M10.2549 1.38696L11.5144 2.1426C13.2963 3.21163 14.4118 4.73241 14.9953 6.28723C15.2173 5.78612 15.481 5.30197 15.726 4.81195L16.707 5.79301C18.9091 7.99508 20.9999 11.2954 20.9999 14.5001C20.9999 18.7984 18.3501 21.5229 14.1105 21.994L12.7206 22.1484L13.0239 20.7832C13.2612 19.7152 13.3031 19.0168 13.2548 18.5281C13.194 17.9126 12.9015 17.4302 12.5383 16.95C12.1898 16.4892 11.8453 16.0286 11.5695 15.5192C10.4338 16.4167 9.99385 17.227 9.85349 17.8936C9.67355 18.7484 9.92843 19.621 10.3944 20.5529L11.2164 22.197L9.3895 21.994C6.81362 21.7078 4.27565 19.9872 3.27601 17.4755C2.23067 14.8489 2.96986 11.6697 6.34517 8.74442C8.5855 6.80282 9.77193 4.28597 10.2549 1.38696ZM11.587 4.68781C10.825 6.82703 9.36239 8.77611 7.65502 10.2558C4.74378 12.7788 4.48299 15.0996 5.13425 16.7359C5.61965 17.9556 6.66682 18.9589 7.90774 19.5279C7.77608 18.8896 7.7448 18.2016 7.89639 17.4816C8.22184 15.9358 9.33388 14.4872 11.47 13.1521L12.547 12.479L12.9487 13.6839C13.3007 14.74 14.0312 15.4866 14.6016 16.4135C15.2296 17.434 15.3497 18.6034 15.2229 19.7725C17.841 19.1162 18.9999 17.1295 18.9999 14.5001C18.9999 12.2784 17.6598 10.0983 16.3292 8.39425C15.7823 9.6221 14.6265 10.0549 13.4999 10.6181V9.00011C13.4999 7.63116 12.9432 5.96245 11.587 4.68781Z" fill="#09244B"/>
</svg>
