<?xml version="1.0" encoding="UTF-8"?>
<svg width="24px" height="24px" viewBox="0 0 24 24" version="1.1" xmlns="http://www.w3.org/2000/svg" xmlns:xlink="http://www.w3.org/1999/xlink">
    <title>flower_2_fill</title>
    <g id="页面-1" stroke="none" stroke-width="1" fill="none" fill-rule="evenodd">
        <g id="System" transform="translate(-624.000000, -240.000000)" fill-rule="nonzero">
            <g id="flower_2_fill" transform="translate(624.000000, 240.000000)">
                <rect id="矩形" x="0" y="0" width="24" height="24"></rect>
                <path d="M10.2405,3.2087 C10.901,3.47732 11.5234,3.90704 12.0592,4.46335 C12.6092,3.93285 13.224,3.51734 13.8646,3.25218 C14.8617,2.83954 16.0059,2.76582 17,3.33978 C17.9942,3.91374 18.5025,4.94158 18.6436,6.01136 C18.7343,6.6988 18.6818,7.43896 18.4974,8.18057 C19.2471,8.36644 19.9304,8.69058 20.4933,9.12826 C21.3725,9.81194 22,10.8157 22,12.0001 C22,13.1781 21.3792,14.1776 20.5074,14.8609 C19.9623,15.2881 19.303,15.6082 18.5794,15.7986 C18.7763,16.5205 18.8287,17.2515 18.7313,17.9372 C18.5754,19.0338 18.0202,20.0713 17.0001,20.6602 C15.9743,21.2525 14.7913,21.2108 13.7596,20.7913 C13.0991,20.5226 12.4768,20.0929 11.941,19.5366 C11.3909,20.0672 10.7762,20.4827 10.1355,20.7479 C9.13845,21.1605 7.99416,21.2342 7.00003,20.6603 C6.00591,20.0863 5.49762,19.0585 5.35647,17.9888 C5.26576,17.3013 5.31823,16.5612 5.50264,15.8196 C4.75297,15.6337 4.06963,15.3096 3.50676,14.8719 C2.62755,14.1882 2,13.1845 2,12.0001 C2,10.8221 2.6209,9.82253 3.49268,9.13924 C4.0378,8.71198 4.6971,8.39187 5.42074,8.20148 C5.2238,7.47959 5.17137,6.74856 5.26883,6.06284 C5.42469,4.96621 5.97986,3.92872 7.00005,3.33972 C8.0258,2.7475 9.20882,2.78912 10.2405,3.2087 Z M12,8 C9.79086,8 8,9.79086 8,12 C8,14.2091 9.79086,16 12,16 C14.2091,16 16,14.2091 16,12 C16,9.79086 14.2091,8 12,8 Z M12,10 C13.1046,10 14,10.8954 14,12 C14,13.1046 13.1046,14 12,14 C10.8954,14 10,13.1046 10,12 C10,10.8954 10.8954,10 12,10 Z" id="形状" fill="#09244B"></path>
            </g>
        </g>
    </g>
</svg>