<?xml version="1.0" encoding="UTF-8"?>
<svg width="24px" height="24px" viewBox="0 0 24 24" version="1.1" xmlns="http://www.w3.org/2000/svg" xmlns:xlink="http://www.w3.org/1999/xlink">
    <title>flower_2_line</title>
    <g id="页面-1" stroke="none" stroke-width="1" fill="none" fill-rule="evenodd">
        <g id="System" transform="translate(-624.000000, -192.000000)">
            <g id="flower_2_line" transform="translate(624.000000, 192.000000)">
                 <path d="M24,0 L24,24 L0,24 L0,0 L24,0 Z M12.5934901,23.257841 L12.5819402,23.2595131 L12.5108777,23.2950439 L12.4918791,23.2987469 L12.4918791,23.2987469 L12.4767152,23.2950439 L12.4056548,23.2595131 C12.3958229,23.2563662 12.3870493,23.2590235 12.3821421,23.2649074 L12.3780323,23.275831 L12.360941,23.7031097 L12.3658947,23.7234994 L12.3769048,23.7357139 L12.4804777,23.8096931 L12.4953491,23.8136134 L12.4953491,23.8136134 L12.5071152,23.8096931 L12.6106902,23.7357139 L12.6232938,23.7196733 L12.6232938,23.7196733 L12.6266527,23.7031097 L12.609561,23.275831 C12.6075724,23.2657013 12.6010112,23.2592993 12.5934901,23.257841 L12.5934901,23.257841 Z M12.8583906,23.1452862 L12.8445485,23.1473072 L12.6598443,23.2396597 L12.6498822,23.2499052 L12.6498822,23.2499052 L12.6471943,23.2611114 L12.6650943,23.6906389 L12.6699349,23.7034178 L12.6699349,23.7034178 L12.678386,23.7104931 L12.8793402,23.8032389 C12.8914285,23.8068999 12.9022333,23.8029875 12.9078286,23.7952264 L12.9118235,23.7811639 L12.8776777,23.1665331 C12.8752882,23.1545897 12.8674102,23.1470016 12.8583906,23.1452862 L12.8583906,23.1452862 Z M12.1430473,23.1473072 C12.1332178,23.1423925 12.1221763,23.1452606 12.1156365,23.1525954 L12.1099173,23.1665331 L12.0757714,23.7811639 C12.0751323,23.7926639 12.0828099,23.8018602 12.0926481,23.8045676 L12.108256,23.8032389 L12.3092106,23.7104931 L12.3186497,23.7024347 L12.3186497,23.7024347 L12.3225043,23.6906389 L12.340401,23.2611114 L12.337245,23.2485176 L12.337245,23.2485176 L12.3277531,23.2396597 L12.1430473,23.1473072 Z" id="MingCute" fill-rule="nonzero"></path>
                <path d="M7.00004,3.33972 C8.0258,2.7475 9.20882,2.78912 10.2405,3.2087 C10.901,3.47732 11.5234,3.90704 12.0592,4.46335 C12.6092,3.93284 13.224,3.51734 13.8646,3.25218 C14.8617,2.83954 16.0059,2.76582 17,3.33978 C17.9942,3.91374 18.5025,4.94158 18.6436,6.01136 C18.7343,6.6988 18.6818,7.43896 18.4974,8.18058 C19.2471,8.36644 19.9304,8.69058 20.4933,9.12826 C21.3725,9.81194 22,10.8157 22,12.0001 C22,13.1781 21.3792,14.1776 20.5074,14.8609 C19.9623,15.2881 19.303,15.6082 18.5794,15.7986 C18.7763,16.5205 18.8287,17.2515 18.7313,17.9372 C18.5754,19.0338 18.0202,20.0713 17.0001,20.6602 C15.9743,21.2525 14.7913,21.2108 13.7596,20.7913 C13.0991,20.5226 12.4768,20.0929 11.941,19.5366 C11.3909,20.0672 10.7762,20.4827 10.1355,20.7479 C9.13845,21.1605 7.99416,21.2342 7.00003,20.6603 C6.00591,20.0863 5.49762,19.0585 5.35646,17.9888 C5.26576,17.3013 5.31823,16.5612 5.50264,15.8196 C4.75296,15.6337 4.06963,15.3096 3.50676,14.8719 C2.62755,14.1882 2,13.1845 2,12.0001 C2,10.8221 2.6209,9.82253 3.49268,9.13924 C4.0378,8.71198 4.6971,8.39187 5.42075,8.20149 C5.2238,7.47959 5.17137,6.74856 5.26883,6.06284 C5.42469,4.96621 5.97986,3.92872 7.00004,3.33972 Z M9.48704,5.06135 C8.89036,4.81868 8.3752,4.85518 8.00005,5.07177 C7.62678,5.28728 7.33884,5.71167 7.24893,6.34427 C7.167804,6.915086 7.2609414,7.6088762 7.57852656,8.30292074 L7.69277,8.53411 L8.44346,9.94664 L6.84483,10.0028 C5.97389,10.0334 5.23065,10.3182 4.72645,10.7133 C4.22357,11.1075 4,11.5691 4,12.0001 C4,12.4333 4.22597,12.8976 4.73447,13.2931 C5.19777909,13.6533727 5.86025347,13.920505 6.63640103,13.9850301 L6.87257,13.9982 L8.37223,14.0414 L7.75533,15.409 C7.37146,16.26 7.25436,17.0836 7.33928,17.7271 C7.42432,18.3716 7.69158,18.7501 8.00003,18.9282 C8.30848,19.1063 8.76993,19.1485 9.37062,18.8999 C9.91044,18.67643 10.4947128,18.238391 11.0035471,17.6005088 L11.1702,17.3805 L12.0461,16.1624 L12.8333,17.4396 C13.2941,18.1871 13.9151,18.6954 14.5131,18.9386 C15.1098,19.1813 15.6249,19.1448 16.0001,18.9282 C16.3733,18.7127 16.6613,18.2883 16.7512,17.6558 C16.83229,17.08493 16.73923,16.391183 16.4216461,15.6971768 L16.3074,15.466 L15.5569,14.0536 L17.1553,13.9974 C18.0262,13.9667 18.7694,13.682 19.2736,13.2868 C19.7765,12.8926 20,12.4311 20,12.0001 C20,11.5669 19.774,11.1025 19.2656,10.7071 C18.8022364,10.3468273 18.1397818,10.079695 17.3636609,10.0150947 L17.1275,10.0019 L15.6278,9.95872 L16.2447,8.59113 C16.6286,7.74014 16.7457,6.91653 16.6608,6.27297 C16.5758,5.62844 16.3085,5.24991 16,5.07183 C15.6916,4.89388974 15.2302,4.85155 14.6295,5.10016 C14.08968,5.323567 13.505391,5.7616078 12.9966264,6.39951286 L12.83,6.61953 L11.954,7.83757 L11.1668,6.56042 C10.706,5.81283 10.0851,5.30456 9.48704,5.06135 Z M12,7.99994 C14.2092,7.99994 16,9.7908 16,11.9999 C16,14.2091 14.2092,15.9999 12,15.9999 C9.7909,15.9999 8.00004,14.2091 8.00004,11.9999 C8.00004,9.7908 9.7909,7.99994 12,7.99994 Z M12,9.99994 C10.8955,9.99994 10,10.8954 10,11.9999 C10,13.1045 10.8955,13.9999 12,13.9999 C13.1046,13.9999 14,13.1045 14,11.9999 C14,10.8954 13.1046,9.99994 12,9.99994 Z" id="形状" fill="#09244B"></path>
            </g>
        </g>
    </g>
</svg>