<?xml version="1.0" encoding="UTF-8"?>
<svg width="24px" height="24px" viewBox="0 0 24 24" version="1.1" xmlns="http://www.w3.org/2000/svg" xmlns:xlink="http://www.w3.org/1999/xlink">
    <title>forbid_circle_fill</title>
    <g id="页面-1" stroke="none" stroke-width="1" fill="none" fill-rule="evenodd">
        <g id="System" transform="translate(-528.000000, -48.000000)" fill-rule="nonzero">
            <g id="forbid_circle_fill" transform="translate(528.000000, 48.000000)">
                <rect id="矩形" x="0" y="0" width="24" height="24"></rect>
                <path d="M12,2 C17.5228,2 22,6.47715 22,12 C22,17.5228 17.5228,22 12,22 C6.47715,22 2,17.5228 2,12 C2,6.47715 6.47715,2 12,2 Z M14.8285,7.75735 L7.7574,14.8284 C7.36688,15.2189 7.36688,15.8521 7.7574,16.2426 C8.14792,16.6332 8.78109,16.6332 9.17161,16.2426 L16.2427,9.17156 C16.6332,8.78104 16.6332,8.14787 16.2427,7.75735 C15.8522,7.36682 15.219,7.36682 14.8285,7.75735 Z" id="形状" fill="#09244B"></path>
            </g>
        </g>
    </g>
</svg>