<?xml version="1.0" encoding="UTF-8"?>
<svg width="24px" height="24px" viewBox="0 0 24 24" version="1.1" xmlns="http://www.w3.org/2000/svg" xmlns:xlink="http://www.w3.org/1999/xlink">
    <title>forbid_circle_line</title>
    <g id="页面-1" stroke="none" stroke-width="1" fill="none" fill-rule="evenodd">
        <g id="System" transform="translate(-528.000000, 0.000000)" fill-rule="nonzero">
            <g id="forbid_circle_line" transform="translate(528.000000, 0.000000)">
                <rect id="矩形" x="0" y="0" width="24" height="24"></rect>
                <path d="M12,2 C17.5228,2 22,6.47715 22,12 C22,17.5228 17.5228,22 12,22 C6.47715,22 2,17.5228 2,12 C2,6.47715 6.47715,2 12,2 Z M12,4 C7.58172,4 4,7.58172 4,12 C4,16.4183 7.58172,20 12,20 C16.4183,20 20,16.4183 20,12 C20,7.58172 16.4183,4 12,4 Z M14.8285,7.75747 C15.219,7.36695 15.8522,7.36695 16.2427,7.75747 C16.6031615,8.11795 16.6308893,8.68518503 16.3258834,9.0774735 L16.2427,9.17168 L9.17161,16.2428 C8.78109,16.6333 8.14792,16.6333 7.7574,16.2428 C7.39692,15.8822462 7.36919077,15.3150651 7.67421231,14.9227224 L7.7574,14.8285 L14.8285,7.75747 Z" id="形状" fill="#09244B"></path>
            </g>
        </g>
    </g>
</svg>