<svg width="24" height="24" viewBox="0 0 24 24" fill="none" xmlns="http://www.w3.org/2000/svg">
<rect width="24" height="24" fill="white" fill-opacity="0.01"/>
<path d="M7.7574 14.8285C7.36688 15.2191 7.36688 15.8522 7.7574 16.2428C8.14792 16.6333 8.78109 16.6333 9.17161 16.2428L16.2427 9.17168C16.6332 8.78116 16.6332 8.14799 16.2427 7.75747C15.8522 7.36695 15.219 7.36695 14.8285 7.75747L7.7574 14.8285Z" fill="#09244B"/>
<path fill-rule="evenodd" clip-rule="evenodd" d="M12 2C6.47715 2 2 6.47715 2 12C2 17.5228 6.47715 22 12 22C17.5228 22 22 17.5228 22 12C22 6.47715 17.5228 2 12 2ZM4 12C4 7.58172 7.58172 4 12 4C16.4183 4 20 7.58172 20 12C20 16.4183 16.4183 20 12 20C7.58172 20 4 16.4183 4 12Z" fill="#09244B"/>
</svg>
