<?xml version="1.0" encoding="UTF-8"?>
<svg width="24px" height="24px" viewBox="0 0 24 24" version="1.1" xmlns="http://www.w3.org/2000/svg" xmlns:xlink="http://www.w3.org/1999/xlink">
    <title>ghost_line</title>
    <g id="页面-1" stroke="none" stroke-width="1" fill="none" fill-rule="evenodd">
        <g id="System" transform="translate(-720.000000, -192.000000)">
            <g id="ghost_line" transform="translate(720.000000, 192.000000)">
                <rect id="矩形" fill-rule="nonzero" x="0" y="0" width="24" height="24"></rect>
                <path d="M12,4 C8.13401,4 5,7.13401 5,11 L5,19.6207 C5,19.9257 5.32764,20.1185 5.59426,19.9703 L6.53669,19.4468 C7.75977,18.7673 9.249,18.7762 10.4638,19.4704 L11.0077,19.7812 C11.6226,20.1326 12.3774,20.1326 12.9923,19.7812 L13.5362,19.4704 C14.751,18.7762 16.2402,18.7673 17.4633,19.4468 L18.4057,19.9703 C18.6724,20.1185 19,19.9257 19,19.6207 L19,11 C19,7.13401 15.866,4 12,4 Z M3,11 C3,6.02944 7.02944,2 12,2 C16.9706,2 21,6.02944 21,11 L21,19.6207 C21,21.4506 19.0341,22.6074 17.4345,21.7187 L16.492,21.1951 C15.8805,20.8553 15.1359,20.8598 14.5285,21.2069 L13.9846,21.5177 C12.7548,22.2204 11.2452,22.2204 10.0154,21.5177 L9.47154,21.2069 C8.86413,20.8598 8.11951,20.8553 7.50797,21.1951 L6.56554,21.7187 C4.96587,22.6074 3,21.4506 3,19.6207 L3,11 Z M10.5,10.5 C10.5,11.3284 9.82843,12 9,12 C8.17157,12 7.5,11.3284 7.5,10.5 C7.5,9.67157 8.17157,9 9,9 C9.82843,9 10.5,9.67157 10.5,10.5 Z M15,12 C15.8284,12 16.5,11.3284 16.5,10.5 C16.5,9.67157 15.8284,9 15,9 C14.1716,9 13.5,9.67157 13.5,10.5 C13.5,11.3284 14.1716,12 15,12 Z" id="形状" fill="#09244B"></path>
            </g>
        </g>
    </g>
</svg>