<?xml version="1.0" encoding="UTF-8"?>
<svg width="24px" height="24px" viewBox="0 0 24 24" version="1.1" xmlns="http://www.w3.org/2000/svg" xmlns:xlink="http://www.w3.org/1999/xlink">
    <title>grid_2_line</title>
    <g id="页面-1" stroke="none" stroke-width="1" fill="none" fill-rule="evenodd">
        <g id="System" transform="translate(-768.000000, -96.000000)">
            <g id="grid_2_line" transform="translate(768.000000, 96.000000)">
                <rect id="矩形" fill-rule="nonzero" x="0" y="0" width="24" height="24"></rect>
                <path d="M19,11 C20.0543909,11 20.9181678,11.81585 20.9945144,12.8507339 L21,13 L21,19 C21,20.0543909 20.18415,20.9181678 19.1492661,20.9945144 L19,21 L15,21 C13.9456091,21 13.0818322,20.18415 13.0054856,19.1492661 L13,19 L13,13 C13,11.9456091 13.81585,11.0818322 14.8507339,11.0054856 L15,11 L19,11 Z M9,15 C10.1046,15 11,15.8954 11,17 L11,19 C11,20.1046 10.1046,21 9,21 L5,21 C3.89543,21 3,20.1046 3,19 L3,17 C3,15.8954 3.89543,15 5,15 L9,15 Z M19,13 L15,13 L15,19 L19,19 L19,13 Z M9,17 L5,17 L5,19 L9,19 L9,17 Z M9,3 C10.1046,3 11,3.89543 11,5 L11,11 C11,12.1046 10.1046,13 9,13 L5,13 C3.89543,13 3,12.1046 3,11 L3,5 C3,3.89543 3.89543,3 5,3 L9,3 Z M9,5 L5,5 L5,11 L9,11 L9,5 Z M19,3 C20.1046,3 21,3.89543 21,5 L21,7 C21,8.10457 20.1046,9 19,9 L15,9 C13.8954,9 13,8.10457 13,7 L13,5 C13,3.89543 13.8954,3 15,3 L19,3 Z M19,5 L15,5 L15,7 L19,7 L19,5 Z" id="形状" fill="#09244B"></path>
            </g>
        </g>
    </g>
</svg>