<?xml version="1.0" encoding="UTF-8"?>
<svg width="24px" height="24px" viewBox="0 0 24 24" version="1.1" xmlns="http://www.w3.org/2000/svg" xmlns:xlink="http://www.w3.org/1999/xlink">
    <title>history_fill</title>
    <g id="页面-1" stroke="none" stroke-width="1" fill="none" fill-rule="evenodd">
        <g id="System" transform="translate(-624.000000, -48.000000)" fill-rule="nonzero">
            <g id="history_fill" transform="translate(624.000000, 48.000000)">
                <rect id="矩形" x="0" y="0" width="24" height="24"></rect>
                <path d="M2.90678,6.75004 C5.80627,1.72797 12.228,0.00728261 17.25,2.90678 C21.0199,5.08329 22.9267,9.24252 22.4214,13.3013 C22.3657,13.7492 22.2806,14.196 22.1654,14.639 C21.8468519,15.8635037 20.3543449,16.2084656 19.5070928,15.3851938 L19.4123,15.285 L17.1609,12.6977 C16.1582824,11.5455147 17.185199,9.8077093 18.6387302,10.0697929 L18.772,10.0992 L19.2895,10.2343 C18.8228,8.30914 17.599,6.57234 15.75,5.50485 C12.1629,3.43379 7.57592,4.66285 5.50485,8.25004 C3.43379,11.8372 4.66285,16.4242 8.25004,18.4952 C11.2343,20.2182 14.9141,19.6578 17.2583,17.3512 C17.8488,16.7701 18.7986,16.7778 19.3796,17.3683 C19.9606,17.9588 19.953,18.9085 19.3625,19.4895 C16.0818,22.7177 10.9324,23.508 6.75004,21.0933 C1.72797,18.1938 0.00728226,11.7721 2.90678,6.75004 Z M12,5.49992 C12.7796706,5.49992 13.4204457,6.09481439 13.4931332,6.8554611 L13.5,6.99992 L13.5,11.3786 L15.5606,13.4393 C16.1464,14.0251 16.1464,14.9748 15.5606,15.5606 C15.0114125,16.1097875 14.142391,16.1441117 13.5532243,15.6635727 L13.4393,15.5606 L10.9393,13.0606 C10.6931625,12.8144625 10.5414266,12.4915328 10.5073385,12.1481514 L10.5,11.9999 L10.5,6.99992 C10.5,6.1715 11.1715,5.49992 12,5.49992 Z" id="形状" fill="#09244B"></path>
            </g>
        </g>
    </g>
</svg>