<?xml version="1.0" encoding="UTF-8"?>
<svg width="24px" height="24px" viewBox="0 0 24 24" version="1.1" xmlns="http://www.w3.org/2000/svg" xmlns:xlink="http://www.w3.org/1999/xlink">
    <title>history_line</title>
    <g id="页面-1" stroke="none" stroke-width="1" fill="none" fill-rule="evenodd">
        <g id="System" transform="translate(-624.000000, 0.000000)" fill-rule="nonzero">
            <g id="history_line" transform="translate(624.000000, 0.000000)">
                <rect id="矩形" x="0" y="0" width="24" height="24"></rect>
                <path d="M3.33995,7.0002 C6.10138,2.21728 12.2173,0.578527 17.0002,3.33995 C20.5899,5.41249 22.4067,9.37327 21.9254,13.2397 C21.8724,13.6662 21.7913,14.0916 21.6816,14.5132 C21.465219,15.3451048 20.4599039,15.5867147 19.8741632,15.0441848 L19.7896,14.9569 L17.5383,12.3696 C16.8534643,11.5826464 17.5459179,10.3982763 18.5348531,10.5596437 L18.6459,10.5832 L19.9272,10.9176 C19.6024,8.55192 18.2265,6.35734 16.0002,5.072 C12.1739,2.86286 7.28114,4.17386 5.072,8.0002 C2.86286,11.8265 4.17386,16.7193 8.0002,18.9284 C11.2963,20.8314 15.3861,20.1225 17.8674,17.4415 C18.2425,17.0362 18.8752,17.0117 19.2805,17.3868 C19.6859,17.762 19.7103,18.3947 19.3352,18.8 C16.2333,22.1515 11.1228,23.0406 7.0002,20.6605 C2.21728,17.899 0.578528,11.7831 3.33995,7.0002 Z M12,5.99999 C12.51285,5.99999 12.9355092,6.38602566 12.9932725,6.8833679 L13,6.99999 L13,11.5858 L15.7071,14.2929 C16.0976,14.6834 16.0976,15.3166 15.7071,15.7071 C15.3466385,16.0675615 14.7793793,16.0952893 14.3871027,15.7902834 L14.2929,15.7071 L11.2929,12.7071 C11.1365667,12.55085 11.0373861,12.3481417 11.0086685,12.1314345 L11,11.99999 L11,6.99999 C11,6.4477 11.4477,5.99999 12,5.99999 Z" id="形状" fill="#09244B"></path>
            </g>
        </g>
    </g>
</svg>