<svg width="24" height="24" viewBox="0 0 24 24" fill="none" xmlns="http://www.w3.org/2000/svg">
<rect width="24" height="24" fill="white" fill-opacity="0.01"/>
<path d="M17.8674 17.4415C15.3861 20.1225 11.2963 20.8314 8.0002 18.9284C4.17386 16.7193 2.86286 11.8265 5.072 8.0002C7.28114 4.17386 12.1739 2.86286 16.0002 5.072C18.2265 6.35734 19.6024 8.55192 19.9272 10.9176L18.6459 10.5832C17.5991 10.31 16.8281 11.5535 17.5383 12.3696L19.7896 14.9569C20.3574 15.6094 21.4544 15.3867 21.6816 14.5132C21.7913 14.0916 21.8724 13.6662 21.9254 13.2397C22.4067 9.37327 20.5899 5.41249 17.0002 3.33995C12.2173 0.578527 6.10138 2.21728 3.33995 7.0002C0.578528 11.7831 2.21728 17.899 7.0002 20.6605C11.1228 23.0406 16.2333 22.1515 19.3352 18.8C19.7103 18.3947 19.6859 17.762 19.2805 17.3868C18.8752 17.0117 18.2425 17.0362 17.8674 17.4415Z" fill="#09244B"/>
<path d="M13 6.99999C13 6.4477 12.5523 5.99999 12 5.99999C11.4477 5.99999 11 6.4477 11 6.99999V12C11 12.2652 11.1053 12.5196 11.2929 12.7071L14.2929 15.7071C14.6834 16.0976 15.3166 16.0976 15.7071 15.7071C16.0976 15.3166 16.0976 14.6834 15.7071 14.2929L13 11.5858V6.99999Z" fill="#09244B"/>
</svg>
