<svg xmlns="http://www.w3.org/2000/svg" width="24" height="24" viewBox="0 0 24 24"><title>key_3_fill</title><g fill="none" fill-rule="evenodd"><path d="M24 0v24H0V0zM12.594 23.258l-.012.002-.071.035-.02.004-.014-.004-.071-.036q-.016-.004-.024.006l-.004.01-.017.428.005.02.01.013.104.074.015.004.012-.004.104-.074.012-.016.004-.017-.017-.427q-.004-.016-.016-.018m.264-.113-.014.002-.184.093-.01.01-.003.011.018.43.005.012.008.008.201.092q.019.005.029-.008l.004-.014-.034-.614q-.005-.019-.02-.022m-.715.002a.02.02 0 0 0-.027.006l-.006.014-.034.614q.001.018.017.024l.015-.002.201-.093.01-.008.003-.011.018-.43-.003-.012-.01-.01z"/><path fill="#09244b" d="M10.75 2a3.75 3.75 0 0 1 3.718 3.269 4.5 4.5 0 0 1 3.93 2.249l2 3.463a4.5 4.5 0 0 1-7.796 4.5l-.59-1.022A5.98 5.98 0 0 0 14 10a5.97 5.97 0 0 0-.839-3.06 1 1 0 0 1-.66-.905l-.002-.297a1.75 1.75 0 0 0-3.383-.612 5.001 5.001 0 0 1 1.263 9.272l.09.36.02.087a1 1 0 0 1-.095.602l-.276.553.277.553a1 1 0 0 1 0 .894l-.395.79V19a2 2 0 1 1-4 0v-4.418a4.999 4.999 0 0 1 1.059-9.493A3.75 3.75 0 0 1 10.75 2M8 9a1 1 0 1 0 0 2 1 1 0 0 0 0-2"/></g></svg>