<?xml version="1.0" encoding="UTF-8"?>
<svg width="24px" height="24px" viewBox="0 0 24 24" version="1.1" xmlns="http://www.w3.org/2000/svg" xmlns:xlink="http://www.w3.org/1999/xlink">
    <title>key_2_fill</title>
    <g id="页面-1" stroke="none" stroke-width="1" fill="none" fill-rule="evenodd">
        <g id="System" transform="translate(-768.000000, -48.000000)" fill-rule="nonzero">
            <g id="key_2_fill" transform="translate(768.000000, 48.000000)">
                 <path d="M24,0 L24,24 L0,24 L0,0 L24,0 Z M12.5934901,23.257841 L12.5819402,23.2595131 L12.5108777,23.2950439 L12.4918791,23.2987469 L12.4918791,23.2987469 L12.4767152,23.2950439 L12.4056548,23.2595131 C12.3958229,23.2563662 12.3870493,23.2590235 12.3821421,23.2649074 L12.3780323,23.275831 L12.360941,23.7031097 L12.3658947,23.7234994 L12.3769048,23.7357139 L12.4804777,23.8096931 L12.4953491,23.8136134 L12.4953491,23.8136134 L12.5071152,23.8096931 L12.6106902,23.7357139 L12.6232938,23.7196733 L12.6232938,23.7196733 L12.6266527,23.7031097 L12.609561,23.275831 C12.6075724,23.2657013 12.6010112,23.2592993 12.5934901,23.257841 L12.5934901,23.257841 Z M12.8583906,23.1452862 L12.8445485,23.1473072 L12.6598443,23.2396597 L12.6498822,23.2499052 L12.6498822,23.2499052 L12.6471943,23.2611114 L12.6650943,23.6906389 L12.6699349,23.7034178 L12.6699349,23.7034178 L12.678386,23.7104931 L12.8793402,23.8032389 C12.8914285,23.8068999 12.9022333,23.8029875 12.9078286,23.7952264 L12.9118235,23.7811639 L12.8776777,23.1665331 C12.8752882,23.1545897 12.8674102,23.1470016 12.8583906,23.1452862 L12.8583906,23.1452862 Z M12.1430473,23.1473072 C12.1332178,23.1423925 12.1221763,23.1452606 12.1156365,23.1525954 L12.1099173,23.1665331 L12.0757714,23.7811639 C12.0751323,23.7926639 12.0828099,23.8018602 12.0926481,23.8045676 L12.108256,23.8032389 L12.3092106,23.7104931 L12.3186497,23.7024347 L12.3186497,23.7024347 L12.3225043,23.6906389 L12.340401,23.2611114 L12.337245,23.2485176 L12.337245,23.2485176 L12.3277531,23.2396597 L12.1430473,23.1473072 Z" id="MingCute" fill-rule="nonzero"></path>
                <path d="M10.4377,4.36767 C12.9761,1.82927 17.0917,1.82927 19.6301,4.36767 C22.1685,6.90608 22.1685,11.0217 19.6301,13.5601 C17.7528448,15.4373552 15.0146812,15.9249447 12.6904795,15.0281791 L12.4212926,14.9184444 L12.4212926,14.9184444 L12.4015,14.9136 L11.7913,14.9136 L11.7913,16.492 C11.7913,17.13925 11.2993762,17.6715391 10.669096,17.7355469 L10.5413,17.742 L8.96286,17.742 L8.96286,19.3205 C8.96286,19.9676562 8.47098012,20.5000273 7.84066426,20.5640458 L7.71286,20.5705 L3.73022,20.5705 C3.20968133,20.5705 2.78098391,20.1765836 2.72613776,19.6706306 L2.72021,19.5606 L2.72021,16.9492 C2.72021,16.6010375 2.84120937,16.2654312 3.05991494,15.9985207 L3.15956,15.8885 L8.6602,10.3878 L8.66937125,10.3505375 C8.671955,10.3299 8.67242,10.302 8.66583,10.2697 C8.24427,8.20574 8.83365,5.97175 10.4377,4.36767 Z M14.6804,7.19615 C14.0946,7.78194 14.0946,8.73169 14.6804,9.31747 C15.2662,9.90326 16.216,9.90326 16.8017,9.31747 C17.3875,8.73169 17.3875,7.78194 16.8017,7.19615 C16.216,6.61037 15.2662,6.61037 14.6804,7.19615 Z" id="形状" fill="#09244B"></path>
            </g>
        </g>
    </g>
</svg>