<svg xmlns="http://www.w3.org/2000/svg" width="24" height="24" viewBox="0 0 24 24"><title>key_3_line</title><g fill="none" fill-rule="evenodd"><path d="M24 0v24H0V0zM12.594 23.258l-.012.002-.071.035-.02.004-.014-.004-.071-.036q-.016-.004-.024.006l-.004.01-.017.428.005.02.01.013.104.074.015.004.012-.004.104-.074.012-.016.004-.017-.017-.427q-.004-.016-.016-.018m.264-.113-.014.002-.184.093-.01.01-.003.011.018.43.005.012.008.008.201.092q.019.005.029-.008l.004-.014-.034-.614q-.005-.019-.02-.022m-.715.002a.02.02 0 0 0-.027.006l-.006.014-.034.614q.001.018.017.024l.015-.002.201-.093.01-.008.003-.011.018-.43-.003-.012-.01-.01z"/><path fill="#09244b" d="M10.75 2a3.75 3.75 0 0 1 3.718 3.269 4.5 4.5 0 0 1 3.93 2.25l2 3.463a4.5 4.5 0 0 1-7.796 4.5l-1.105-1.915a5 5 0 0 1-.684.563l.157.628a1 1 0 0 1-.075.69l-.277.552.277.553a1 1 0 0 1 0 .894l-.395.79v.263a2.5 2.5 0 0 1-5 0v-4.17a5.001 5.001 0 0 1 1.559-9.24 3.75 3.75 0 0 1 3.691-3.09M9 9a1 1 0 0 1-2 0V7.174a2.999 2.999 0 0 0-.125 5.608 1 1 0 0 1 .625.927V18.5a.5.5 0 0 0 1 0V18a1 1 0 0 1 .105-.447L8.882 17l-.277-.553a1 1 0 0 1 0-.894l.334-.67-.25-1a1 1 0 0 1 .555-1.152A2.998 2.998 0 0 0 9 7.173zm7.665-.481a2.5 2.5 0 0 0-4.036-.41 4.98 4.98 0 0 1 .081 3.56l1.625 2.813a2.5 2.5 0 0 0 4.33-2.5zM10.75 4a1.75 1.75 0 0 0-1.634 1.126 5 5 0 0 1 2.375 1.297 4.5 4.5 0 0 1 1.008-.685A1.75 1.75 0 0 0 10.75 4"/></g></svg>