<?xml version="1.0" encoding="UTF-8"?>
<svg width="24px" height="24px" viewBox="0 0 24 24" version="1.1" xmlns="http://www.w3.org/2000/svg" xmlns:xlink="http://www.w3.org/1999/xlink">
    <title>key_2_line</title>
    <g id="页面-1" stroke="none" stroke-width="1" fill="none" fill-rule="evenodd">
        <g id="System" transform="translate(-768.000000, 0.000000)">
            <g id="key_2_line" transform="translate(768.000000, 0.000000)">
                <rect id="矩形" fill-rule="nonzero" x="0" y="0" width="24" height="24"></rect>
                <path d="M11.852,5.78189 C13.6093,4.02453 16.4586,4.02453 18.2159,5.78189 C19.9733,7.53925 19.9733,10.3885 18.2159,12.1459 C16.8717,13.49 14.8868,13.8075 13.2397,13.0923 C12.9957,12.9863 12.7116,12.9136 12.4028,12.9136 L11.0413,12.9136 C10.3509,12.9136 9.79129,13.4733 9.7913,14.1636 L9.7913,15.742 L8.21287,15.742 C7.52251,15.742 6.96287,16.3017 6.96287,16.992 L6.96287,18.5705 L4.72023,18.5705 L4.72023,17.1563 L10.0756,11.8009 C10.62,11.2565 10.7551,10.5046 10.6254,9.8695 C10.3325,8.43555 10.7426,6.89123 11.852,5.78189 Z M19.6301,4.36768 C17.0917,1.82927 12.9761,1.82927 10.4377,4.36768 C8.83366,5.97176 8.24428,8.20575 8.66584,10.2697 C8.67902,10.3343 8.66399,10.3813 8.66021,10.3878 L3.15957,15.8885 C2.87827,16.1698 2.72023,16.5513 2.72023,16.9492 L2.72023,19.5605 C2.72023,20.1182 3.17239,20.5705 3.7301,20.5705 L7.71287,20.5705 C8.40322,20.5705 8.96287,20.0108 8.96287,19.3205 L8.96287,17.742 L10.5413,17.742 C11.2317,17.742 11.7913,17.1824 11.7913,16.492 L11.7913,14.9136 L12.4015,14.9136 C12.4035,14.9138 12.4173,14.9156 12.4431,14.9268 C14.8181,15.958 17.6858,15.5044 19.6301,13.5601 C22.1685,11.0217 22.1685,6.90609 19.6301,4.36768 Z M14.6804,9.31743 C15.2662,9.90321 16.2159,9.90321 16.8017,9.31743 C17.3875,8.73164 17.3875,7.78189 16.8017,7.19611 C16.2159,6.61032 15.2662,6.61032 14.6804,7.19611 C14.0946,7.78189 14.0946,8.73164 14.6804,9.31743 Z" id="形状" fill="#09244B"></path>
            </g>
        </g>
    </g>
</svg>