<svg width="24" height="24" viewBox="0 0 24 24" fill="none" xmlns="http://www.w3.org/2000/svg">
<rect width="24" height="24" fill="white" fill-opacity="0.01"/>
<path fill-rule="evenodd" clip-rule="evenodd" d="M11.852 5.78189C13.6093 4.02453 16.4586 4.02453 18.2159 5.78189C19.9733 7.53925 19.9733 10.3885 18.2159 12.1459C16.8717 13.49 14.8868 13.8075 13.2397 13.0923C12.9957 12.9863 12.7116 12.9136 12.4028 12.9136H11.0413C10.3509 12.9136 9.79129 13.4733 9.7913 14.1636V15.742L8.21287 15.742C7.52251 15.742 6.96287 16.3017 6.96287 16.992V18.5705L4.72023 18.5705V17.1563L10.0756 11.8009C10.62 11.2565 10.7551 10.5046 10.6254 9.8695C10.3325 8.43555 10.7426 6.89123 11.852 5.78189ZM19.6301 4.36768C17.0917 1.82927 12.9761 1.82927 10.4377 4.36768C8.83366 5.97176 8.24428 8.20575 8.66584 10.2697C8.67902 10.3343 8.66399 10.3813 8.66021 10.3878L3.15957 15.8885C2.87827 16.1698 2.72023 16.5513 2.72023 16.9492L2.72023 19.5605C2.72029 20.1182 3.17239 20.5704 3.7301 20.5705H7.71287C8.40322 20.5705 8.96287 20.0108 8.96287 19.3205L8.96287 17.742H10.5413C11.2317 17.742 11.7913 17.1824 11.7913 16.492L11.7913 14.9136L12.4015 14.9136C12.4035 14.9138 12.4173 14.9156 12.4431 14.9268C14.8181 15.958 17.6858 15.5044 19.6301 13.5601C22.1685 11.0217 22.1685 6.90609 19.6301 4.36768ZM14.6804 9.31743C15.2662 9.90321 16.2159 9.90321 16.8017 9.31743C17.3875 8.73164 17.3875 7.78189 16.8017 7.19611C16.2159 6.61032 15.2662 6.61032 14.6804 7.19611C14.0946 7.78189 14.0946 8.73164 14.6804 9.31743Z" fill="#09244B"/>
</svg>
