<?xml version="1.0" encoding="UTF-8"?>
<svg width="24px" height="24px" viewBox="0 0 24 24" version="1.1" xmlns="http://www.w3.org/2000/svg" xmlns:xlink="http://www.w3.org/1999/xlink">
    <title>keyhole_line</title>
    <g id="Icon" stroke="none" stroke-width="1" fill="none" fill-rule="evenodd">
        <g id="System" transform="translate(-816.000000, -384.000000)">
            <g id="keyhole_line" transform="translate(816.000000, 384.000000)">
                <path d="M24,0 L24,24 L0,24 L0,0 L24,0 Z M12.5935,23.2578 L12.5819,23.2595 L12.5109,23.295 L12.4919,23.2987 L12.4767,23.295 L12.4057,23.2595 C12.3958,23.2564 12.387,23.259 12.3821,23.2649 L12.378,23.2758 L12.3609,23.7031 L12.3659,23.7235 L12.3769,23.7357 L12.4805,23.8097 L12.4953,23.8136 L12.5071,23.8097 L12.6107,23.7357 L12.6233,23.7197 L12.6267,23.7031 L12.6096,23.2758 C12.6076,23.2657 12.601,23.2593 12.5935,23.2578 Z M12.8584,23.1453 L12.8445,23.1473 L12.6598,23.2397 L12.6499,23.2499 L12.6472,23.2611 L12.6651,23.6906 L12.6699,23.7034 L12.6784,23.7105 L12.8793,23.8032 C12.8914,23.8069 12.9022,23.803 12.9078,23.7952 L12.9118,23.7812 L12.8777,23.1665 C12.8753,23.1546 12.8674,23.147 12.8584,23.1453 Z M12.143,23.1473 C12.1332,23.1424 12.1222,23.1453 12.1156,23.1526 L12.1099,23.1665 L12.0758,23.7812 C12.0751,23.7927 12.0828,23.8019 12.0926,23.8046 L12.1083,23.8032 L12.3092,23.7105 L12.3186,23.7024 L12.3225,23.6906 L12.3404,23.2611 L12.3372,23.2485 L12.3278,23.2397 L12.143,23.1473 Z" id="MingCute" fill-rule="nonzero"></path>
                <path d="M4,12 C4,7.58172 7.58172,4 12,4 C16.4183,4 20,7.58172 20,12 C20,16.4183 16.4183,20 12,20 C7.58172,20 4,16.4183 4,12 Z M12,2 C6.47715,2 2,6.47715 2,12 C2,17.5228 6.47715,22 12,22 C17.5228,22 22,17.5228 22,12 C22,6.47715 17.5228,2 12,2 Z M10.5,10.5 C10.5,9.67157 11.1716,9 12,9 C12.8284,9 13.5,9.67157 13.5,10.5 C13.5,11.0096 13.2468,11.4603 12.8547,11.7329 C12.5375,11.9535 12.3757,12.3372 12.4393,12.7183 L12.8195,15 L11.1805,15 L11.5608,12.7183 C11.6243,12.3372 11.4625,11.9535 11.1453,11.7329 C10.7532,11.4603 10.5,11.0096 10.5,10.5 Z M12,7 C10.067,7 8.5,8.567 8.5,10.5 C8.5,11.4518 8.88052,12.3146 9.49544,12.9447 L9.01362,15.8356 C8.9653,16.1256 9.04699,16.4221 9.237,16.6464 C9.427,16.8707 9.70606,17 10,17 L14,17 C14.2939,17 14.573,16.8707 14.763,16.6464 C14.953,16.4221 15.0347,16.1256 14.9864,15.8356 L14.5046,12.9447 C15.1195,12.3146 15.5,11.4518 15.5,10.5 C15.5,8.567 13.933,7 12,7 Z" id="形状" fill="#09244B"></path>
            </g>
        </g>
    </g>
</svg>