<svg xmlns="http://www.w3.org/2000/svg" width="24" height="24"><g fill="none" fill-rule="nonzero"><path d="M24 0v24H0V0zM12.593 23.258l-.011.002-.071.035-.02.004-.014-.004-.071-.035c-.01-.004-.019-.001-.024.005l-.004.01-.017.428.005.02.01.013.104.074.015.004.012-.004.104-.074.012-.016.004-.017-.017-.427c-.002-.01-.009-.017-.017-.018m.265-.113-.013.002-.185.093-.01.01-.003.011.018.43.005.012.008.007.201.093c.012.004.023 0 .029-.008l.004-.014-.034-.614c-.003-.012-.01-.02-.02-.022m-.715.002a.023.023 0 0 0-.027.006l-.006.014-.034.614c0 .012.007.02.017.024l.015-.002.201-.093.01-.008.004-.011.017-.43-.003-.012-.01-.01z"/><path fill="#09244B" d="M13 21a1 1 0 1 1-2 0v-3a1 1 0 1 1 2 0zm0-15a1 1 0 1 1-2 0V3a1 1 0 1 1 2 0zm9 6a1 1 0 0 0-1-1h-3a1 1 0 1 0 0 2h3a1 1 0 0 0 1-1M6 11a1 1 0 1 1 0 2H3a1 1 0 1 1 0-2zm13.071 8.071a1 1 0 0 0 0-1.414l-2.121-2.121a1 1 0 0 0-1.414 1.414l2.12 2.121a1 1 0 0 0 1.415 0M8.464 7.051A1 1 0 1 1 7.05 8.463L4.93 6.344a1 1 0 1 1 1.414-1.415zm10.607-2.122a1 1 0 0 0-1.414 0L15.536 7.05a1 1 0 0 0 1.414 1.414l2.121-2.12a1 1 0 0 0 0-1.415M7.051 15.536a1 1 0 1 1 1.413 1.414l-2.12 2.121a1 1 0 0 1-1.415-1.414z"/></g></svg>