<svg xmlns="http://www.w3.org/2000/svg" width="24" height="24"><g fill="none" fill-rule="nonzero"><path d="M24 0v24H0V0zM12.593 23.258l-.011.002-.071.035-.02.004-.014-.004-.071-.035c-.01-.004-.019-.001-.024.005l-.004.01-.017.428.005.02.01.013.104.074.015.004.012-.004.104-.074.012-.016.004-.017-.017-.427c-.002-.01-.009-.017-.017-.018m.265-.113-.013.002-.185.093-.01.01-.003.011.018.43.005.012.008.007.201.093c.012.004.023 0 .029-.008l.004-.014-.034-.614c-.003-.012-.01-.02-.02-.022m-.715.002a.023.023 0 0 0-.027.006l-.006.014-.034.614c0 .012.007.02.017.024l.015-.002.201-.093.01-.008.004-.011.017-.43-.003-.012-.01-.01z"/><path fill="#09244B" d="M12 6a2 2 0 1 0 0-4 2 2 0 0 0 0 4M5.01 7.626a2 2 0 1 1-1.236 3.804A2 2 0 0 1 5.01 7.626M6.122 3.91a2 2 0 1 1 2.351 3.236 2 2 0 0 1-2.35-3.236m2.351 12.944a2 2 0 1 1-2.35 3.236 2 2 0 0 1 2.35-3.236m-4.7-4.284a2 2 0 1 1 1.237 3.804 2 2 0 0 1-1.236-3.804M12 18a2 2 0 1 0 0 4 2 2 0 0 0 0-4m6.32-.704a2 2 0 1 1-3.235 2.352 2 2 0 0 1 3.235-2.352m-.614-3.442a2 2 0 1 1 3.805 1.236 2 2 0 0 1-3.805-1.236m3.805-4.944a2 2 0 1 1-3.805 1.236 2 2 0 0 1 3.805-1.236m-6.427-4.558a2 2 0 1 1 3.236 2.351 2 2 0 0 1-3.236-2.35"/></g></svg>