<?xml version="1.0" encoding="UTF-8"?>
<svg width="24px" height="24px" viewBox="0 0 24 24" version="1.1" xmlns="http://www.w3.org/2000/svg" xmlns:xlink="http://www.w3.org/1999/xlink">
    <title>lock_line</title>
    <g id="页面-1" stroke="none" stroke-width="1" fill="none" fill-rule="evenodd">
        <g id="lock_line">
            <rect id="矩形" fill-opacity="0.01" fill="#FFFFFF" fill-rule="nonzero" x="0" y="0" width="24" height="24"></rect>
            <path d="M12,2 C15.3137,2 18,4.68629 18,8 L19,8 C20.1046,8 21,8.89543 21,10 L21,20 C21,21.1046 20.1046,22 19,22 L5,22 C3.89543,22 3,21.1046 3,20 L3,10 C3,8.89543 3.89543,8 5,8 L6,8 C6,4.68629 8.68629,2 12,2 Z M19,10 L5,10 L5,20 L19,20 L19,10 Z M12,12 C12.51285,12 12.9355092,12.386027 12.9932725,12.8833761 L13,13 L13,17 C13,17.5523 12.5523,18 12,18 C11.48715,18 11.0644908,17.613973 11.0067275,17.1166239 L11,17 L11,13 C11,12.4477 11.4477,12 12,12 Z M12,4 C9.85780364,4 8.10892107,5.68396753 8.0048953,7.80035957 L8,8 L16,8 C16,5.79086 14.2091,4 12,4 Z" id="形状" fill="#09244B"></path>
        </g>
    </g>
</svg>