<?xml version="1.0" encoding="UTF-8"?>
<svg width="24px" height="24px" viewBox="0 0 24 24" version="1.1" xmlns="http://www.w3.org/2000/svg" xmlns:xlink="http://www.w3.org/1999/xlink">
    <title>lock_line</title>
    <g id="页面-1" stroke="none" stroke-width="1" fill="none" fill-rule="evenodd">
        <g id="System" transform="translate(-816.000000, 0.000000)" fill-rule="nonzero">
            <g id="lock_line" transform="translate(816.000000, 0.000000)">
                <rect id="矩形" x="0" y="0" width="24" height="24"></rect>
                <path d="M12,2 C15.2383886,2 17.8775714,4.56557346 17.9958615,7.77506164 L18,8 L19,8 C20.0543909,8 20.9181678,8.81587733 20.9945144,9.85073759 L21,10 L21,20 C21,21.0543909 20.18415,21.9181678 19.1492661,21.9945144 L19,22 L5,22 C3.94563773,22 3.08183483,21.18415 3.00548573,20.1492661 L3,20 L3,10 C3,8.94563773 3.81587733,8.08183483 4.85073759,8.00548573 L5,8 L6,8 C6,4.68629 8.68629,2 12,2 Z M19,10 L5,10 L5,20 L19,20 L19,10 Z M12,12 C13.1046,12 14,12.8954 14,14 C14,14.6833538 13.657297,15.286613 13.1343876,15.6473597 L13,15.7324 L13,17 C13,17.5523 12.5523,18 12,18 C11.48715,18 11.0644908,17.613973 11.0067275,17.1166239 L11,17 L11,15.7324 C10.4022,15.3866 10,14.7403 10,14 C10,12.8954 10.8954,12 12,12 Z M12,4 C9.79086,4 8,5.79086 8,8 L16,8 C16,5.79086 14.2091,4 12,4 Z" id="形状" fill="#09244B"></path>
            </g>
        </g>
    </g>
</svg>