<svg xmlns="http://www.w3.org/2000/svg" width="24" height="24" viewBox="0 0 24 24"><g fill="none" fill-rule="evenodd"><path d="M24,0 L24,24 L0,24 L0,0 L24,0 Z M12.5935,23.2578 L12.5819,23.2595 L12.5109,23.295 L12.4919,23.2987 L12.4767,23.295 L12.4057,23.2595 C12.3958,23.2564 12.387,23.259 12.3821,23.2649 L12.378,23.2758 L12.3609,23.7031 L12.3659,23.7235 L12.3769,23.7357 L12.4805,23.8097 L12.4953,23.8136 L12.5071,23.8097 L12.6107,23.7357 L12.6233,23.7197 L12.6267,23.7031 L12.6096,23.2758 C12.6076,23.2657 12.601,23.2593 12.5935,23.2578 Z M12.8584,23.1453 L12.8445,23.1473 L12.6598,23.2397 L12.6499,23.2499 L12.6472,23.2611 L12.6651,23.6906 L12.6699,23.7034 L12.6784,23.7105 L12.8793,23.8032 C12.8914,23.8069 12.9022,23.803 12.9078,23.7952 L12.9118,23.7812 L12.8777,23.1665 C12.8753,23.1546 12.8674,23.147 12.8584,23.1453 Z M12.143,23.1473 C12.1332,23.1424 12.1222,23.1453 12.1156,23.1526 L12.1099,23.1665 L12.0758,23.7812 C12.0751,23.7927 12.0828,23.8019 12.0926,23.8046 L12.1083,23.8032 L12.3092,23.7105 L12.3186,23.7024 L12.3225,23.6906 L12.3404,23.2611 L12.3372,23.2485 L12.3278,23.2397 L12.143,23.1473 Z"/><path fill="#09244B" d="M11,5 C11,3.34315 12.3431,2 14,2 C15.6569,2 17,3.34315 17,5 C17,6.63874 15.6861,7.97059 14.0542,7.99952 L13.8363,8.65325 C14.86,9.27634 15.6154,10.2966 15.8885,11.5 L17.208,11.5 C17.5938,10.617 18.4748,10 19.5,10 C20.8807,10 22,11.1193 22,12.5 C22,13.8807 20.8807,15 19.5,15 C18.4748,15 17.5938,14.383 17.208,13.5 L15.8885,13.5 C15.72,14.2426 15.3679,14.9154 14.8824,15.4682 L15.5864,16.1722 C15.8694,16.061 16.1776,16 16.5,16 C17.8807,16 19,17.1193 19,18.5 C19,19.8807 17.8807,21 16.5,21 C15.1193,21 14,19.8807 14,18.5 C14,18.1776 14.061,17.8694 14.1722,17.5864 L13.2379,16.6521 C12.7032,16.8762 12.1161,17 11.5,17 C10.7886,17 10.1157,16.8349 9.51759,16.5409 L8.6466,17.5861 C8.87212,18.0074 9,18.4888 9,19 C9,20.6569 7.65685,22 6,22 C4.34315,22 3,20.6569 3,19 C3,17.3431 4.34315,16 6,16 C6.41443,16 6.80923,16.084 7.1683,16.236 L7.96301,15.2823 C7.35986,14.5167 7,13.5504 7,12.5 C7,11.7652 7.17614,11.0714 7.48851,10.4588 L6.6205,9.73545 C6.28346,9.90471 5.90286,10 5.5,10 C4.11929,10 3,8.88071 3,7.5 C3,6.11929 4.11929,5 5.5,5 C6.88071,5 8,6.11929 8,7.5 C8,7.74265 7.96543,7.97723 7.90095,8.19907 L8.76945,8.92282 C9.52671,8.34391 10.4732,8 11.5,8 C11.6481,8 11.7945,8.00715 11.9389,8.02113 L12.1568,7.36718 C11.4528,6.81819 11,5.96197 11,5 Z"/></g></svg>