<?xml version="1.0" encoding="UTF-8"?>
<svg width="24px" height="24px" viewBox="0 0 24 24" version="1.1" xmlns="http://www.w3.org/2000/svg" xmlns:xlink="http://www.w3.org/1999/xlink">
    <title>minus_circle_line</title>
    <g id="页面-1" stroke="none" stroke-width="1" fill="none" fill-rule="evenodd">
        <g id="System" transform="translate(-864.000000, 0.000000)" fill-rule="nonzero">
            <g id="minus_circle_line" transform="translate(864.000000, 0.000000)">
                <rect id="矩形" x="0" y="0" width="24" height="24"></rect>
                <path d="M12,2 C17.5228,2 22,6.47715 22,12 C22,17.5228 17.5228,22 12,22 C6.47715,22 2,17.5228 2,12 C2,6.47715 6.47715,2 12,2 Z M12,4 C7.58172,4 4,7.58172 4,12 C4,16.4183 7.58172,20 12,20 C16.4183,20 20,16.4183 20,12 C20,7.58172 16.4183,4 12,4 Z M16,11 C16.5523,11 17,11.4477 17,12 C17,12.51285 16.613973,12.9355092 16.1166239,12.9932725 L16,13 L8,13 C7.44772,13 7,12.5523 7,12 C7,11.48715 7.38604429,11.0644908 7.88337975,11.0067275 L8,11 L16,11 Z" id="形状" fill="#09244B"></path>
            </g>
        </g>
    </g>
</svg>