<?xml version="1.0" encoding="UTF-8"?>
<svg width="24px" height="24px" viewBox="0 0 24 24" version="1.1" xmlns="http://www.w3.org/2000/svg" xmlns:xlink="http://www.w3.org/1999/xlink">
    <title>more_2_fill</title>
    <g id="页面-1" stroke="none" stroke-width="1" fill="none" fill-rule="evenodd">
        <g id="System" transform="translate(-144.000000, -336.000000)" fill-rule="nonzero">
            <g id="more_2_fill" transform="translate(144.000000, 336.000000)">
                <rect id="矩形" x="0" y="0" width="24" height="24"></rect>
                <path d="M12,17 C13.1046,17 14,17.8954 14,19 C14,20.1046 13.1046,21 12,21 C10.8954,21 10,20.1046 10,19 C10,17.8954 10.8954,17 12,17 Z M12,10 C13.1046,10 14,10.8954 14,12 C14,13.1046 13.1046,14 12,14 C10.8954,14 10,13.1046 10,12 C10,10.8954 10.8954,10 12,10 Z M12,3 C13.1046,3 14,3.89543 14,5 C14,6.10457 13.1046,7 12,7 C10.8954,7 10,6.10457 10,5 C10,3.89543 10.8954,3 12,3 Z" id="形状" fill="#09244B"></path>
            </g>
        </g>
    </g>
</svg>