<?xml version="1.0" encoding="UTF-8"?>
<svg width="24px" height="24px" viewBox="0 0 24 24" version="1.1" xmlns="http://www.w3.org/2000/svg" xmlns:xlink="http://www.w3.org/1999/xlink">
    <title>more_2_line</title>
    <g id="页面-1" stroke="none" stroke-width="1" fill="none" fill-rule="evenodd">
        <g id="System" transform="translate(-144.000000, -288.000000)" fill-rule="nonzero">
            <g id="more_2_line" transform="translate(144.000000, 288.000000)">
                <rect id="矩形" x="0" y="0" width="24" height="24"></rect>
                <path d="M12,16.5 C12.8284,16.5 13.5,17.1716 13.5,18 C13.5,18.8284 12.8284,19.5 12,19.5 C11.1716,19.5 10.5,18.8284 10.5,18 C10.5,17.1716 11.1716,16.5 12,16.5 Z M12,10.5 C12.8284,10.5 13.5,11.1716 13.5,12 C13.5,12.8284 12.8284,13.5 12,13.5 C11.1716,13.5 10.5,12.8284 10.5,12 C10.5,11.1716 11.1716,10.5 12,10.5 Z M12,4.5 C12.8284,4.5 13.5,5.17157 13.5,6 C13.5,6.82843 12.8284,7.5 12,7.5 C11.1716,7.5 10.5,6.82843 10.5,6 C10.5,5.17157 11.1716,4.5 12,4.5 Z" id="形状" fill="#09244B"></path>
            </g>
        </g>
    </g>
</svg>