<?xml version="1.0" encoding="UTF-8"?>
<svg width="24px" height="24px" viewBox="0 0 24 24" version="1.1" xmlns="http://www.w3.org/2000/svg" xmlns:xlink="http://www.w3.org/1999/xlink">
    <title>more_1_line</title>
    <g id="页面-1" stroke="none" stroke-width="1" fill="none" fill-rule="evenodd">
        <g id="System" transform="translate(-96.000000, -288.000000)" fill-rule="nonzero">
            <g id="more_1_line" transform="translate(96.000000, 288.000000)">
                <rect id="矩形" x="0" y="0" width="24" height="24"></rect>
                <path d="M6,10.5 C6.82843,10.5 7.5,11.1716 7.5,12 C7.5,12.8284 6.82843,13.5 6,13.5 C5.17157,13.5 4.5,12.8284 4.5,12 C4.5,11.1716 5.17157,10.5 6,10.5 Z M12,10.5 C12.8284,10.5 13.5,11.1716 13.5,12 C13.5,12.8284 12.8284,13.5 12,13.5 C11.1716,13.5 10.5,12.8284 10.5,12 C10.5,11.1716 11.1716,10.5 12,10.5 Z M18,10.5 C18.8284,10.5 19.5,11.1716 19.5,12 C19.5,12.8284 18.8284,13.5 18,13.5 C17.1716,13.5 16.5,12.8284 16.5,12 C16.5,11.1716 17.1716,10.5 18,10.5 Z" id="形状" fill="#09244B"></path>
            </g>
        </g>
    </g>
</svg>