<?xml version="1.0" encoding="UTF-8"?>
<svg width="24px" height="24px" viewBox="0 0 24 24" version="1.1" xmlns="http://www.w3.org/2000/svg" xmlns:xlink="http://www.w3.org/1999/xlink">
    <title>more_4_fill</title>
    <g id="页面-1" stroke="none" stroke-width="1" fill="none" fill-rule="evenodd">
        <g id="System" transform="translate(-240.000000, -336.000000)">
            <g id="more_4_fill" transform="translate(240.000000, 336.000000)">
                <rect id="矩形" fill-rule="nonzero" x="0" y="0" width="24" height="24"></rect>
                <path d="M12,2 C17.5228,2 22,6.47715 22,12 C22,17.5228 17.5228,22 12,22 C6.47715,22 2,17.5228 2,12 C2,6.47715 6.47715,2 12,2 Z M12,15 C11.1716,15 10.5,15.6716 10.5,16.5 C10.5,17.3284 11.1716,18 12,18 C12.8284,18 13.5,17.3284 13.5,16.5 C13.5,15.6716 12.8284,15 12,15 Z M12,10.5 C11.1716,10.5 10.5,11.1716 10.5,12 C10.5,12.8284 11.1716,13.5 12,13.5 C12.8284,13.5 13.5,12.8284 13.5,12 C13.5,11.1716 12.8284,10.5 12,10.5 Z M12,6 C11.1716,6 10.5,6.67157 10.5,7.5 C10.5,8.32843 11.1716,9 12,9 C12.8284,9 13.5,8.32843 13.5,7.5 C13.5,6.67157 12.8284,6 12,6 Z" id="形状" fill="#09244B"></path>
            </g>
        </g>
    </g>
</svg>