<?xml version="1.0" encoding="UTF-8"?>
<svg width="24px" height="24px" viewBox="0 0 24 24" version="1.1" xmlns="http://www.w3.org/2000/svg" xmlns:xlink="http://www.w3.org/1999/xlink">
    <title>open_door_fill</title>
    <g id="页面-1" stroke="none" stroke-width="1" fill="none" fill-rule="evenodd">
        <g id="System" transform="translate(-816.000000, -144.000000)">
            <g id="open_door_fill" transform="translate(816.000000, 144.000000)">
                <rect id="矩形" fill-rule="nonzero" x="0" y="0" width="24" height="24"></rect>
                <path d="M16,3.77063 L16,20.2293 C16,21.1562 15.1677,21.8612 14.2534,21.7088 L5.6712,20.2785 C4.70683,20.1177 4,19.2834 4,18.3057 L4,5.6942 C4,4.71652 4.70683,3.88214 5.6712,3.72141 L14.2534,2.29104 C15.1677,2.13866 16,2.84373 16,3.77063 Z M18,5 C19.0543909,5 19.9181678,5.81587733 19.9945144,6.85073759 L20,7 L20,17 C20,18.0543909 19.18415,18.9181678 18.1492661,18.9945144 L18,19 L17,19 L17,5 L18,5 Z M11.5,10.5 C10.6716,10.5 10,11.1716 10,12 C10,12.8284 10.6716,13.5 11.5,13.5 C12.3284,13.5 13,12.8284 13,12 C13,11.1716 12.3284,10.5 11.5,10.5 Z" id="形状" fill="#09244B"></path>
            </g>
        </g>
    </g>
</svg>