<svg width="24" height="24" viewBox="0 0 24 24" fill="none" xmlns="http://www.w3.org/2000/svg">
<rect width="24" height="24" fill="white" fill-opacity="0.01"/>
<path d="M13 3C13 2.44772 12.5523 2 12 2C11.4477 2 11 2.44772 11 3V13C11 13.5523 11.4477 14 12 14C12.5523 14 13 13.5523 13 13V3Z" fill="#09244B"/>
<path d="M7.57702 5.3326C8.03693 5.02682 8.16187 4.4061 7.85608 3.94619C7.5503 3.48629 6.92959 3.36134 6.46968 3.66713C3.77769 5.45698 2 8.52062 2 11.9999C2 17.5227 6.47715 21.9999 12 21.9999C17.5228 21.9999 22 17.5227 22 11.9999C22 8.52062 20.2223 5.45698 17.5303 3.66713C17.0704 3.36134 16.4497 3.48629 16.1439 3.94619C15.8381 4.4061 15.9631 5.02682 16.423 5.3326C18.5811 6.76751 20 9.21822 20 11.9999C20 16.4182 16.4183 19.9999 12 19.9999C7.58172 19.9999 4 16.4182 4 11.9999C4 9.21822 5.41887 6.76751 7.57702 5.3326Z" fill="#09244B"/>
</svg>
