<svg width="24" height="24" viewBox="0 0 24 24" fill="none" xmlns="http://www.w3.org/2000/svg">
<rect width="24" height="24" fill="white" fill-opacity="0.01"/>
<path fill-rule="evenodd" clip-rule="evenodd" d="M13.5 3C13.5 2.17157 12.8284 1.5 12 1.5C11.1716 1.5 10.5 2.17157 10.5 3V13C10.5 13.8284 11.1716 14.5 12 14.5C12.8284 14.5 13.5 13.8284 13.5 13V3ZM7.85385 5.7491C8.54371 5.29043 8.73113 4.35936 8.27245 3.6695C7.81378 2.97963 6.8827 2.79222 6.19284 3.2509C3.36739 5.12948 1.5 8.34635 1.5 12C1.5 17.799 6.20101 22.5 12 22.5C17.799 22.5 22.5 17.799 22.5 12C22.5 8.34635 20.6326 5.12948 17.8072 3.2509C17.1173 2.79222 16.1862 2.97963 15.7275 3.6695C15.2689 4.35936 15.4563 5.29043 16.1461 5.7491C18.1708 7.09528 19.5 9.39275 19.5 12C19.5 16.1422 16.1421 19.5 12 19.5C7.85786 19.5 4.5 16.1422 4.5 12C4.5 9.39275 5.82917 7.09528 7.85385 5.7491Z" fill="#09244B"/>
</svg>
