<svg width="24" height="24" viewBox="0 0 24 24" fill="none" xmlns="http://www.w3.org/2000/svg">
<rect width="24" height="24" fill="white" fill-opacity="0.01"/>
<path d="M20.01 13.2548C21.0529 13.9575 22.5117 13.2322 22.502 11.9182C22.4987 11.4606 22.4653 11.007 22.4032 10.5599C21.8407 6.50864 18.9224 2.98466 14.7177 1.85801C10.0218 0.599762 5.22 2.73217 2.90375 6.75109C2.49008 7.46884 2.73659 8.38604 3.45434 8.79971C4.17209 9.21338 5.08929 8.96687 5.50296 8.24911C7.15788 5.37769 10.5905 3.85797 13.9412 4.75579C16.0727 5.32692 17.7442 6.76159 18.6775 8.58449L18.5688 8.56065C16.8449 8.18261 15.8684 10.4643 17.332 11.4504L20.01 13.2548Z" fill="#09244B"/>
<path d="M3.98994 10.7457C2.94699 10.0429 1.48823 10.7682 1.49785 12.0822C1.5012 12.5399 1.53464 12.9935 1.59671 13.4406C2.15918 17.4918 5.0775 21.0158 9.2822 22.1425C13.9782 23.4007 18.7802 21.2682 21.0963 17.249C21.51 16.5312 21.2634 15.6141 20.5457 15.2004C19.8279 14.7868 18.9107 15.0333 18.4971 15.7511C16.8422 18.6227 13.4095 20.1425 10.0587 19.2447C7.92713 18.6735 6.25566 17.2388 5.32236 15.4159L5.43084 15.4397C7.15477 15.8179 8.13141 13.5361 6.66778 12.55L3.98994 10.7457Z" fill="#09244B"/>
</svg>
