<svg xmlns="http://www.w3.org/2000/svg" width="24" height="24"><g fill="none"><path d="M24 0v24H0V0zM12.594 23.258l-.012.002-.071.035-.02.004-.014-.004-.071-.036c-.01-.003-.019 0-.024.006l-.004.01-.017.428.005.02.01.013.104.074.015.004.012-.004.104-.074.012-.016.004-.017-.017-.427c-.002-.01-.009-.017-.016-.018m.264-.113-.014.002-.184.093-.01.01-.003.011.018.43.005.012.008.008.201.092c.012.004.023 0 .029-.008l.004-.014-.034-.614c-.003-.012-.01-.02-.02-.022m-.715.002a.023.023 0 0 0-.027.006l-.006.014-.034.614c0 .012.007.02.017.024l.015-.002.201-.093.01-.008.003-.011.018-.43-.003-.012-.01-.01z"/><path fill="#09244B" d="M20 9.5a1.5 1.5 0 0 1 1.5 1.5 8.5 8.5 0 0 1-8.5 8.5h-2.382a1.5 1.5 0 0 1-2.179 2.06l-2.494-2.494a1.495 1.495 0 0 1-.445-1.052v-.028c.003-.371.142-.71.368-.97l.071-.077 2.5-2.5a1.5 1.5 0 0 1 2.18 2.061H13a5.5 5.5 0 0 0 5.5-5.5A1.5 1.5 0 0 1 20 9.5m-4.44-7.06 2.5 2.5a1.5 1.5 0 0 1 0 2.12l-2.5 2.5a1.5 1.5 0 0 1-2.178-2.06H11A5.5 5.5 0 0 0 5.5 13a1.5 1.5 0 1 1-3 0A8.5 8.5 0 0 1 11 4.5h2.382a1.5 1.5 0 0 1 2.179-2.06Z"/></g></svg>