<svg width="24" height="24" viewBox="0 0 24 24" fill="none" xmlns="http://www.w3.org/2000/svg">
<rect width="24" height="24" fill="white" fill-opacity="0.01"/>
<path fill-rule="evenodd" clip-rule="evenodd" d="M10.7003 19.3744C13.947 19.9469 17.0776 18.338 18.581 15.5956C18.9792 14.8692 19.8909 14.6032 20.6174 15.0014C21.3438 15.3996 21.6098 16.3114 21.2116 17.0378C19.1091 20.8731 14.7302 23.1312 10.1794 22.3288C4.46849 21.3218 0.655218 15.8759 1.6622 10.165C2.66919 4.45413 8.1151 0.640862 13.826 1.64785C18.1129 2.40374 21.3272 5.65997 22.2407 9.64677C22.3415 10.0867 22.4143 10.5357 22.4575 10.9913C22.5816 12.2995 21.1916 13.1492 20.0914 12.54L17.271 10.9785C15.7242 10.122 16.5044 7.75941 18.2571 7.99269L18.3586 8.0062C17.2701 6.27027 15.4793 4.98565 13.305 4.60227C9.22584 3.88299 5.3359 6.60676 4.61662 10.686C3.89735 14.7652 6.62111 18.6551 10.7003 19.3744Z" fill="#09244B"/>
</svg>
