<?xml version="1.0" encoding="UTF-8"?>
<svg width="24px" height="24px" viewBox="0 0 24 24" version="1.1" xmlns="http://www.w3.org/2000/svg" xmlns:xlink="http://www.w3.org/1999/xlink">
    <title>refresh_4_fill</title>
    <g id="Icon" stroke="none" stroke-width="1" fill="none" fill-rule="evenodd">
        <g id="System" transform="translate(-432.000000, -432.000000)" fill-rule="nonzero">
            <g id="refresh_4_fill" transform="translate(432.000000, 432.000000)">
                <path d="M24,0 L24,24 L0,24 L0,0 L24,0 Z M12.5935,23.2578 L12.5819,23.2595 L12.5109,23.295 L12.4919,23.2987 L12.4767,23.295 L12.4057,23.2595 C12.3958,23.2564 12.387,23.259 12.3821,23.2649 L12.378,23.2758 L12.3609,23.7031 L12.3659,23.7235 L12.3769,23.7357 L12.4805,23.8097 L12.4953,23.8136 L12.5071,23.8097 L12.6107,23.7357 L12.6233,23.7197 L12.6267,23.7031 L12.6096,23.2758 C12.6076,23.2657 12.601,23.2593 12.5935,23.2578 Z M12.8584,23.1453 L12.8445,23.1473 L12.6598,23.2397 L12.6499,23.2499 L12.6472,23.2611 L12.6651,23.6906 L12.6699,23.7034 L12.6784,23.7105 L12.8793,23.8032 C12.8914,23.8069 12.9022,23.803 12.9078,23.7952 L12.9118,23.7812 L12.8777,23.1665 C12.8753,23.1546 12.8674,23.147 12.8584,23.1453 Z M12.143,23.1473 C12.1332,23.1424 12.1222,23.1453 12.1156,23.1526 L12.1099,23.1665 L12.0758,23.7812 C12.0751,23.7927 12.0828,23.8019 12.0926,23.8046 L12.1083,23.8032 L12.3092,23.7105 L12.3186,23.7024 L12.3225,23.6906 L12.3404,23.2611 L12.3372,23.2485 L12.3278,23.2397 L12.143,23.1473 Z" id="MingCute"></path>
                <path d="M4,9.50002 C4.82843,9.50002 5.5,10.1716 5.5,11 C5.5,13.9635122 7.84377632,16.3795407 10.7787926,16.4956329 L11,16.5 L13.3819,16.5 C12.8542,15.9111 12.8734,15.0053 13.4393,14.4393 C13.9884875,13.8902063 14.8575969,13.8558879 15.4467746,14.3363449 L15.5607,14.4393 L18.0607,16.9393 C18.0855,16.9642 18.1094,16.9898 18.1323,17.0162 C18.3261857,17.2391429 18.4552714,17.5198327 18.4904003,17.8289866 L18.5,17.9858 L18.5,18.0142 C18.4965875,18.3740875 18.3665406,18.7037328 18.1521984,18.9605289 L18.0553,19.066 L15.5607,21.5607 C14.9749,22.1464 14.0251,22.1464 13.4393,21.5607 C12.9087688,21.030075 12.8587355,20.2008855 13.2893652,19.6139886 L13.3819,19.5 L11,19.5 C6.30558,19.5 2.5,15.6944 2.5,11 C2.5,10.1716 3.17157,9.50002 4,9.50002 Z M8.43934,2.43934 C9.02513,1.85355 9.97487,1.85355 10.5607,2.43934 C11.0912313,2.96994625 11.1412645,3.79917848 10.7106348,4.38603967 L10.6181,4.50002 L12.9999975,4.50002 C17.6944,4.50002 21.4999975,8.3056 21.4999975,12.9999975 C21.4999975,13.8285 20.8284,14.4999975 19.9999975,14.4999975 C19.1716,14.4999975 18.4999975,13.8285 18.4999975,12.9999975 C18.4999975,10.0365463 16.1562521,7.62048114 13.2212072,7.50438721 L12.9999975,7.50002 L10.6181,7.50002 C11.1458,8.08898 11.1266,8.99469 10.5607,9.56066 C10.0114844,10.1097913 9.14242598,10.144112 8.55326296,9.66362211 L8.43934,9.56066 L5.93934,7.06066 C5.39016188,6.51148188 5.35583824,5.64242582 5.8363691,5.05326295 L5.93934,4.93934 L8.43934,2.43934 Z" id="形状" fill="#09244B"></path>
            </g>
        </g>
    </g>
</svg>