<svg width="24" height="24" viewBox="0 0 24 24" fill="none" xmlns="http://www.w3.org/2000/svg">
<rect width="24" height="24" fill="white" fill-opacity="0.01"/>
<path fill-rule="evenodd" clip-rule="evenodd" d="M9.92954 19.7276C13.6059 20.7126 17.3728 18.9694 19.0757 15.7375C19.3331 15.2489 19.9379 15.0615 20.4265 15.319C20.9151 15.5764 21.1025 16.1812 20.8451 16.6698C18.7163 20.71 14.01 22.8915 9.41191 21.6594C4.07724 20.23 0.911422 14.7466 2.34084 9.41197C3.77026 4.07731 9.25363 0.911481 14.5883 2.3409C18.5921 3.41372 21.3721 6.76933 21.9079 10.6286C21.967 11.0542 21.9989 11.4861 22.0021 11.9218C22.0087 12.8243 21.0066 13.3234 20.2894 12.8401L17.6158 11.0387C16.6077 10.3594 17.2837 8.78804 18.4701 9.05283L19.5276 9.28886C18.6682 6.90945 16.6973 4.97657 14.0707 4.27275C9.80292 3.12922 5.41623 5.66188 4.27269 9.9296C3.12916 14.1973 5.66182 18.584 9.92954 19.7276Z" fill="#09244B"/>
</svg>
