<?xml version="1.0" encoding="UTF-8"?>
<svg width="24px" height="24px" viewBox="0 0 24 24" version="1.1" xmlns="http://www.w3.org/2000/svg" xmlns:xlink="http://www.w3.org/1999/xlink">
    <title>refresh_1_line</title>
    <g id="页面-1" stroke="none" stroke-width="1" fill="none" fill-rule="evenodd">
        <g id="System" transform="translate(-1008.000000, 0.000000)">
            <g id="refresh_1_line" transform="translate(1008.000000, 0.000000)">
                <rect id="矩形" fill-rule="nonzero" x="0" y="0" width="24" height="24"></rect>
                <path d="M9.92954,19.7276 C13.6059,20.7126 17.3728,18.9694 19.0757,15.7375 C19.3331,15.2489 19.9379,15.0615 20.4265,15.319 C20.9151,15.5764 21.1025,16.1812 20.8451,16.6698 C18.7163,20.71 14.01,22.8915 9.41191,21.6594 C4.07724,20.23 0.911422,14.7466 2.34084,9.41197 C3.77026,4.07731 9.25363,0.911481 14.5883,2.3409 C18.5921,3.41372 21.3721,6.76933 21.9079,10.6286 C21.967,11.0542 21.9989,11.4861 22.0021324,11.9218 C22.0087,12.8243 21.0066,13.3234 20.2894,12.8401 L17.6158,11.0387 C16.6077,10.3594 17.2837,8.78804 18.4701,9.05283 L19.5276,9.28886 C18.6682,6.90945 16.6973,4.97657 14.0707,4.27275 C9.80292,3.12922 5.41623,5.66188 4.27269,9.9296 C3.12916,14.1973 5.66182,18.584 9.92954,19.7276 Z" id="路径" fill="#09244B"></path>
            </g>
        </g>
    </g>
</svg>