<?xml version="1.0" encoding="UTF-8"?>
<svg width="24px" height="24px" viewBox="0 0 24 24" version="1.1" xmlns="http://www.w3.org/2000/svg" xmlns:xlink="http://www.w3.org/1999/xlink">
    <title>refresh_3_line</title>
    <g id="Icon" stroke="none" stroke-width="1" fill="none" fill-rule="evenodd">
        <g id="System" transform="translate(-480.000000, -384.000000)" fill-rule="nonzero">
            <g id="refresh_3_line" transform="translate(480.000000, 384.000000)">
                <path d="M24,0 L24,24 L0,24 L0,0 L24,0 Z M12.5935,23.2578 L12.5819,23.2595 L12.5109,23.295 L12.4919,23.2987 L12.4767,23.295 L12.4057,23.2595 C12.3958,23.2564 12.387,23.259 12.3821,23.2649 L12.378,23.2758 L12.3609,23.7031 L12.3659,23.7235 L12.3769,23.7357 L12.4805,23.8097 L12.4953,23.8136 L12.5071,23.8097 L12.6107,23.7357 L12.6233,23.7197 L12.6267,23.7031 L12.6096,23.2758 C12.6076,23.2657 12.601,23.2593 12.5935,23.2578 Z M12.8584,23.1453 L12.8445,23.1473 L12.6598,23.2397 L12.6499,23.2499 L12.6472,23.2611 L12.6651,23.6906 L12.6699,23.7034 L12.6784,23.7105 L12.8793,23.8032 C12.8914,23.8069 12.9022,23.803 12.9078,23.7952 L12.9118,23.7812 L12.8777,23.1665 C12.8753,23.1546 12.8674,23.147 12.8584,23.1453 Z M12.143,23.1473 C12.1332,23.1424 12.1222,23.1453 12.1156,23.1526 L12.1099,23.1665 L12.0758,23.7812 C12.0751,23.7927 12.0828,23.8019 12.0926,23.8046 L12.1083,23.8032 L12.3092,23.7105 L12.3186,23.7024 L12.3225,23.6906 L12.3404,23.2611 L12.3372,23.2485 L12.3278,23.2397 L12.143,23.1473 Z" id="MingCute"></path>
                <path d="M20,9.00002 C20.5523,9.00002 21,9.44774 21,10 L21,11 C21,15.4183 17.4183,19 13,19 L9.41424,19 L10.2071,19.7929 C10.5976,20.1834 10.5976,20.8166 10.2071,21.2071 C9.81658,21.5976 9.18342,21.5976 8.79289,21.2071 L6.29719,18.7114 C6.146015,18.5620667 6.04220806,18.3648167 6.01031199,18.1443606 L6,17.9906 C6.0023,17.7477 6.09114,17.5255 6.23718,17.3534 L6.29289,17.2929 L6.29289,17.2929 L8.79289,14.7929 C9.18342,14.4024 9.81658,14.4024 10.2071,14.7929 C10.5976,15.1834 10.5976,15.8166 10.2071,16.2071 L9.41419,17 L13,17 C16.3137,17 19,14.3137 19,11 L19,10 C19,9.44774 19.4477,9.00002 20,9.00002 Z M15.2071,2.79289 L17.7071,5.29289 C18.0976,5.68342 18.0976,6.31658 17.7071,6.70711 L15.2071,9.20711 C14.8166,9.59763 14.1834,9.59763 13.7929,9.20711 C13.4024,8.81658 13.4024,8.18342 13.7929,7.79289 L14.5858,7.00002 L11,7.00002 C7.68629,7.00002 5,9.68632 5,13 L5,14 C5,14.5523 4.55229,15 4,15 C3.44772,15 3,14.5523 3,14 L3,13 C3,8.58175 6.58172,5.00003 11,5.00003 L14.5858,5.00003 L13.7929,4.20711 C13.4024,3.81658 13.4024,3.18342 13.7929,2.79289 C14.1834,2.40237 14.8166,2.40237 15.2071,2.79289 Z" id="形状" fill="#09244B"></path>
            </g>
        </g>
    </g>
</svg>