<?xml version="1.0" encoding="UTF-8"?>
<svg width="24px" height="24px" viewBox="0 0 24 24" version="1.1" xmlns="http://www.w3.org/2000/svg" xmlns:xlink="http://www.w3.org/1999/xlink">
    <title>refresh_anticlockwise_1_line</title>
    <g id="Icon" stroke="none" stroke-width="1" fill="none" fill-rule="evenodd">
        <g id="System" transform="translate(-192.000000, -480.000000)">
            <g id="refresh_anticlockwise_1_line" transform="translate(192.000000, 480.000000)">
                <path d="M24,0 L24,24 L0,24 L0,0 L24,0 Z M12.5935,23.2578 L12.5819,23.2595 L12.5109,23.295 L12.4919,23.2987 L12.4767,23.295 L12.4057,23.2595 C12.3958,23.2564 12.387,23.259 12.3821,23.2649 L12.378,23.2758 L12.3609,23.7031 L12.3659,23.7235 L12.3769,23.7357 L12.4805,23.8097 L12.4953,23.8136 L12.5071,23.8097 L12.6107,23.7357 L12.6233,23.7197 L12.6267,23.7031 L12.6096,23.2758 C12.6076,23.2657 12.601,23.2593 12.5935,23.2578 Z M12.8584,23.1453 L12.8445,23.1473 L12.6598,23.2397 L12.6499,23.2499 L12.6472,23.2611 L12.6651,23.6906 L12.6699,23.7034 L12.6784,23.7105 L12.8793,23.8032 C12.8914,23.8069 12.9022,23.803 12.9078,23.7952 L12.9118,23.7812 L12.8777,23.1665 C12.8753,23.1546 12.8674,23.147 12.8584,23.1453 Z M12.143,23.1473 C12.1332,23.1424 12.1222,23.1453 12.1156,23.1526 L12.1099,23.1665 L12.0758,23.7812 C12.0751,23.7927 12.0828,23.8019 12.0926,23.8046 L12.1083,23.8032 L12.3092,23.7105 L12.3186,23.7024 L12.3225,23.6906 L12.3404,23.2611 L12.3372,23.2485 L12.3278,23.2397 L12.143,23.1473 Z" id="MingCute" fill-rule="nonzero"></path>
                <path d="M14.0704,19.7274 C10.394,20.7125 6.6271,18.9693 4.92423,15.7374 C4.66679,15.2488 4.06199,15.0614 3.57338,15.3188 C3.08477,15.5763 2.89737,16.1811 3.15482,16.6697 C5.28357,20.7099 9.98985,22.8914 14.588,21.6593 C19.9227,20.2299 23.0885,14.7465 21.6591,9.41185 C20.2296,4.07719 14.7463,0.911364 9.41161,2.34078 C5.40778,3.41361 2.62777,6.76921 2.09196,10.6284 C2.03286,11.0541 2.00102,11.486 1.99780747,11.9217 C1.99123,12.8242 2.99327,13.3232 3.71054,12.8399 L6.38409,11.0385 C7.39219,10.3593 6.71624,8.78792 5.52982,9.05272 L4.47229,9.28874 C5.33173,6.90934 7.30258,4.97645 9.92925,4.27263 C14.197,3.1291 18.5837,5.66176 19.7272,9.92949 C20.8707,14.1972 18.3381,18.5839 14.0704,19.7274 Z" id="路径" fill="#09244B"></path>
            </g>
        </g>
    </g>
</svg>