<?xml version="1.0" encoding="UTF-8"?>
<svg width="24px" height="24px" viewBox="0 0 24 24" version="1.1" xmlns="http://www.w3.org/2000/svg" xmlns:xlink="http://www.w3.org/1999/xlink">
    <title>restore_line</title>
    <g id="页面-1" stroke="none" stroke-width="1" fill="none" fill-rule="evenodd">
        <g id="System" transform="translate(-240.000000, -192.000000)">
            <g id="restore_line" transform="translate(240.000000, 192.000000)">
                <rect id="矩形" fill-rule="nonzero" x="0" y="0" width="24" height="24"></rect>
                <path d="M19,3 C20.0543909,3 20.9181678,3.81587733 20.9945144,4.85073759 L21,5 L21,15 C21,16.0543909 20.18415,16.9181678 19.1492661,16.9945144 L19,17 L17,17 L17,19 C17,20.0543909 16.18415,20.9181678 15.1492661,20.9945144 L15,21 L5,21 C3.94563773,21 3.08183483,20.18415 3.00548573,19.1492661 L3,19 L3,9 C3,7.94563773 3.81587733,7.08183483 4.85073759,7.00548573 L5,7 L7,7 L7,5 C7,3.94563773 7.81587733,3.08183483 8.85073759,3.00548573 L9,3 L19,3 Z M15,9 L5,9 L5,19 L15,19 L15,9 Z M19,5 L9,5 L9,7 L15,7 L15.1492661,7.00548573 C16.1324058,7.07801738 16.9178674,7.86122607 16.9939557,8.84334947 L17,9 L17,15 L19,15 L19,5 Z" id="形状" fill="#09244B"></path>
            </g>
        </g>
    </g>
</svg>