<?xml version="1.0" encoding="UTF-8"?>
<svg width="24px" height="24px" viewBox="0 0 24 24" version="1.1" xmlns="http://www.w3.org/2000/svg" xmlns:xlink="http://www.w3.org/1999/xlink">
    <title>restore_fill</title>
    <g id="页面-1" stroke="none" stroke-width="1" fill="none" fill-rule="evenodd">
        <g id="System" transform="translate(-240.000000, -240.000000)">
            <g id="restore_fill" transform="translate(240.000000, 240.000000)">
                <rect id="矩形" fill-rule="nonzero" x="0" y="0" width="24" height="24"></rect>
                <path d="M19,2.5 C20.325472,2.5 21.4100378,3.53153766 21.4946823,4.83562452 L21.5,5 L21.5,15 C21.5,16.325472 20.4684531,17.4100378 19.1643744,17.4946823 L19,17.5 L17.5,17.5 L17.5,19 C17.5,20.325472 16.4684531,21.4100378 15.1643744,21.4946823 L15,21.5 L5,21.5 C3.6745184,21.5 2.58996147,20.4684531 2.50531769,19.1643744 L2.5,19 L2.5,9 C2.5,7.6745184 3.53153766,6.58996147 4.83562452,6.50531769 L5,6.5 L6.5,6.5 L6.5,5 C6.5,3.6745184 7.53153766,2.58996147 8.83562452,2.50531769 L9,2.5 L19,2.5 Z M14.5,9.5 L5.5,9.5 L5.5,18.5 L14.5,18.5 L14.5,9.5 Z M18.5,5.5 L9.5,5.5 L9.5,6.5 L15,6.5 L15.1643744,6.50531769 C16.4141165,6.58643465 17.4135646,7.58587462 17.4946823,8.83562452 L17.5,9 L17.5,14.5 L18.5,14.5 L18.5,5.5 Z" id="形状" fill="#09244B"></path>
            </g>
        </g>
    </g>
</svg>