<?xml version="1.0" encoding="UTF-8"?>
<svg width="24px" height="24px" viewBox="0 0 24 24" version="1.1" xmlns="http://www.w3.org/2000/svg" xmlns:xlink="http://www.w3.org/1999/xlink">
    <title>safe_alert_fill</title>
    <g id="页面-1" stroke="none" stroke-width="1" fill="none" fill-rule="evenodd">
        <g id="System" transform="translate(-288.000000, -336.000000)">
            <g id="safe_alert_fill" transform="translate(288.000000, 336.000000)">
                <rect id="矩形" fill-rule="nonzero" x="0" y="0" width="24" height="24"></rect>
                <path d="M12.7022,2.19521 L19.7022,4.82021 C20.4829,5.11294 21,5.85918 21,6.69287 L21,12.0556 C21,15.4645 19.074,18.5809 16.0249,20.1054 L12.6708,21.7825 C12.2485,21.9936 11.7515,21.9936 11.3292,21.7825 L7.97508,20.1054 C4.92602,18.5809 3,15.4645 3,12.0556 L3,6.69287 C3,5.85918 3.51715,5.11294 4.29775,4.82021 L11.2978,2.19521 C11.7505,2.02542 12.2495,2.02542 12.7022,2.19521 Z M12,14 C11.4477,14 11,14.4477 11,15 C11,15.5523 11.4477,16 12,16 C12.5523,16 13,15.5523 13,15 C13,14.4477 12.5523,14 12,14 Z M12,7 C11.48715,7 11.0644908,7.38604429 11.0067275,7.88337975 L11,8 L11,12 C11,12.5523 11.4477,13 12,13 C12.51285,13 12.9355092,12.613973 12.9932725,12.1166239 L13,12 L13,8 C13,7.44772 12.5523,7 12,7 Z" id="形状" fill="#09244B"></path>
            </g>
        </g>
    </g>
</svg>