<?xml version="1.0" encoding="UTF-8"?>
<svg width="24px" height="24px" viewBox="0 0 24 24" version="1.1" xmlns="http://www.w3.org/2000/svg" xmlns:xlink="http://www.w3.org/1999/xlink">
    <title>safe_flash_line</title>
    <g id="页面-1" stroke="none" stroke-width="1" fill="none" fill-rule="evenodd">
        <g id="System" transform="translate(-336.000000, -288.000000)" fill-rule="nonzero">
            <g id="safe_flash_line" transform="translate(336.000000, 288.000000)">
                 <path d="M24,0 L24,24 L0,24 L0,0 L24,0 Z M12.5934901,23.257841 L12.5819402,23.2595131 L12.5108777,23.2950439 L12.4918791,23.2987469 L12.4918791,23.2987469 L12.4767152,23.2950439 L12.4056548,23.2595131 C12.3958229,23.2563662 12.3870493,23.2590235 12.3821421,23.2649074 L12.3780323,23.275831 L12.360941,23.7031097 L12.3658947,23.7234994 L12.3769048,23.7357139 L12.4804777,23.8096931 L12.4953491,23.8136134 L12.4953491,23.8136134 L12.5071152,23.8096931 L12.6106902,23.7357139 L12.6232938,23.7196733 L12.6232938,23.7196733 L12.6266527,23.7031097 L12.609561,23.275831 C12.6075724,23.2657013 12.6010112,23.2592993 12.5934901,23.257841 L12.5934901,23.257841 Z M12.8583906,23.1452862 L12.8445485,23.1473072 L12.6598443,23.2396597 L12.6498822,23.2499052 L12.6498822,23.2499052 L12.6471943,23.2611114 L12.6650943,23.6906389 L12.6699349,23.7034178 L12.6699349,23.7034178 L12.678386,23.7104931 L12.8793402,23.8032389 C12.8914285,23.8068999 12.9022333,23.8029875 12.9078286,23.7952264 L12.9118235,23.7811639 L12.8776777,23.1665331 C12.8752882,23.1545897 12.8674102,23.1470016 12.8583906,23.1452862 L12.8583906,23.1452862 Z M12.1430473,23.1473072 C12.1332178,23.1423925 12.1221763,23.1452606 12.1156365,23.1525954 L12.1099173,23.1665331 L12.0757714,23.7811639 C12.0751323,23.7926639 12.0828099,23.8018602 12.0926481,23.8045676 L12.108256,23.8032389 L12.3092106,23.7104931 L12.3186497,23.7024347 L12.3186497,23.7024347 L12.3225043,23.6906389 L12.340401,23.2611114 L12.337245,23.2485176 L12.337245,23.2485176 L12.3277531,23.2396597 L12.1430473,23.1473072 Z" id="MingCute" fill-rule="nonzero"></path>
                <path d="M11.2978,2.19546 C11.6939125,2.04689375 12.1254734,2.02832297 12.530448,2.13974766 L12.7022,2.19546 L19.7022,4.82046 C20.4308533,5.09366533 20.9298818,5.76194569 20.9931804,6.52765634 L21,6.69312 L21,12.0558 C21,15.3645353 19.185628,18.3976292 16.2910032,19.9670871 L16.0249,20.1057 L12.6708,21.7827 C12.2954222,21.9704333 11.8610222,21.9912926 11.4725284,21.8452778 L11.3292,21.7827 L7.97508,20.1057 C5.01569824,18.6260382 3.11426678,15.6467406 3.00497789,12.3558017 L3,12.0558 L3,6.69312 C3,5.91500933 3.45049511,5.21306862 4.14521784,4.8849426 L4.29775,4.82046 L11.2978,2.19546 Z M12,4.06812 L5,6.69312 L5,12.0558 C5,14.61882 6.39981647,16.9692539 8.63528667,18.1941401 L8.8695,18.3168 L12,19.8821 L15.1305,18.3168 C17.42295,17.1706233 18.8991628,14.8674176 18.9950298,12.3201442 L19,12.0558 L19,6.69312 L12,4.06812 Z M11.1425,8.15231 C11.4267,7.67873 12.0409,7.52516 12.5145,7.80931 C12.9542714,8.07316357 13.1180383,8.62165281 12.9117234,9.07783688 L12.8575,9.1813 L11.7662,11.0001 L13.9823,11.0001 C14.728145,11.0001 15.2030595,11.7730912 14.9023926,12.4275752 L14.8484,12.5298 L12.8575,15.848 C12.5733,16.3215 11.9591,16.4751 11.4855,16.191 C11.0457286,15.9271 10.8819617,15.3786592 11.0882766,14.9224663 L11.1425,14.819 L12.2338,13.0001 L10.0177,13.0001 C9.271855,13.0001 8.79692245,12.227199 9.09759614,11.572724 L9.15159,11.4705 L11.1425,8.15231 Z" id="形状" fill="#09244B"></path>
            </g>
        </g>
    </g>
</svg>