<?xml version="1.0" encoding="UTF-8"?>
<svg width="24px" height="24px" viewBox="0 0 24 24" version="1.1" xmlns="http://www.w3.org/2000/svg" xmlns:xlink="http://www.w3.org/1999/xlink">
    <title>safe_shield_2_line</title>
    <g id="页面-1" stroke="none" stroke-width="1" fill="none" fill-rule="evenodd">
        <g id="System" transform="translate(-432.000000, -288.000000)">
            <g id="safe_shield_2_line" transform="translate(432.000000, 288.000000)">
                <rect id="矩形" fill-rule="nonzero" x="0" y="0" width="24" height="24"></rect>
                <path d="M12.7022,2.19546 C12.2495,2.02567 11.7505,2.02567 11.2978,2.19546 L4.29775,4.82046 C3.51715,5.11318 3,5.85943 3,6.69312 L3,12.0558 C3,15.4648 4.92602,18.5812 7.97508,20.1057 L11.3292,21.7827 C11.7515,21.9939 12.2485,21.9939 12.6708,21.7827 L16.0249,20.1057 C19.074,18.5812 21,15.4648 21,12.0558 L21,6.69312 C21,5.85943 20.4829,5.11318 19.7022,4.82046 L12.7022,2.19546 Z M11,4.44312 L5,6.69312 L5,12.0558 C5,14.7072 6.49802,17.1311 8.8695,18.3168 L11,19.3821 L11,4.44312 Z M13,19.3821 L15.1305,18.3168 C17.502,17.1311 19,14.7072 19,12.0558 L19,6.69312 L13,4.44312 L13,19.3821 Z" id="形状" fill="#09244B"></path>
            </g>
        </g>
    </g>
</svg>