<?xml version="1.0" encoding="UTF-8"?>
<svg width="24px" height="24px" viewBox="0 0 24 24" version="1.1" xmlns="http://www.w3.org/2000/svg" xmlns:xlink="http://www.w3.org/1999/xlink">
    <title>safe_shield_fill</title>
    <g id="页面-1" stroke="none" stroke-width="1" fill="none" fill-rule="evenodd">
        <g id="System" transform="translate(-480.000000, -336.000000)">
            <g id="safe_shield_fill" transform="translate(480.000000, 336.000000)">
                 <path d="M24,0 L24,24 L0,24 L0,0 L24,0 Z M12.5934901,23.257841 L12.5819402,23.2595131 L12.5108777,23.2950439 L12.4918791,23.2987469 L12.4918791,23.2987469 L12.4767152,23.2950439 L12.4056548,23.2595131 C12.3958229,23.2563662 12.3870493,23.2590235 12.3821421,23.2649074 L12.3780323,23.275831 L12.360941,23.7031097 L12.3658947,23.7234994 L12.3769048,23.7357139 L12.4804777,23.8096931 L12.4953491,23.8136134 L12.4953491,23.8136134 L12.5071152,23.8096931 L12.6106902,23.7357139 L12.6232938,23.7196733 L12.6232938,23.7196733 L12.6266527,23.7031097 L12.609561,23.275831 C12.6075724,23.2657013 12.6010112,23.2592993 12.5934901,23.257841 L12.5934901,23.257841 Z M12.8583906,23.1452862 L12.8445485,23.1473072 L12.6598443,23.2396597 L12.6498822,23.2499052 L12.6498822,23.2499052 L12.6471943,23.2611114 L12.6650943,23.6906389 L12.6699349,23.7034178 L12.6699349,23.7034178 L12.678386,23.7104931 L12.8793402,23.8032389 C12.8914285,23.8068999 12.9022333,23.8029875 12.9078286,23.7952264 L12.9118235,23.7811639 L12.8776777,23.1665331 C12.8752882,23.1545897 12.8674102,23.1470016 12.8583906,23.1452862 L12.8583906,23.1452862 Z M12.1430473,23.1473072 C12.1332178,23.1423925 12.1221763,23.1452606 12.1156365,23.1525954 L12.1099173,23.1665331 L12.0757714,23.7811639 C12.0751323,23.7926639 12.0828099,23.8018602 12.0926481,23.8045676 L12.108256,23.8032389 L12.3092106,23.7104931 L12.3186497,23.7024347 L12.3186497,23.7024347 L12.3225043,23.6906389 L12.340401,23.2611114 L12.337245,23.2485176 L12.337245,23.2485176 L12.3277531,23.2396597 L12.1430473,23.1473072 Z" id="MingCute" fill-rule="nonzero"></path>
                <path d="M8.99988,9.693 L11.9999,8.568 L14.9999,9.693 L14.9999,12.0279 C14.9999,13.1642 14.3579,14.203 13.3415,14.7111 L11.9999,15.382 L10.6582,14.7111 C9.64188,14.203 8.99988,13.1642 8.99988,12.0279 L8.99988,9.693 Z" id="路径" fill="#09244B" fill-rule="nonzero"></path>
                <path d="M12.7022,2.19521 C12.2495,2.02542 11.7505,2.02542 11.2978,2.19521 L4.29775,4.82021 C3.51715,5.11294 3,5.85918 3,6.69287 L3,12.0556 C3,15.4645 4.92602,18.5809 7.97508,20.1054 L11.3292,21.7825 C11.7515,21.9936 12.2485,21.9936 12.6708,21.7825 L16.0249,20.1054 C19.074,18.5809 21,15.4645 21,12.0556 L21,6.69287 C21,5.85918 20.4829,5.11294 19.7022,4.82021 L12.7022,2.19521 Z M12.5266,6.62951 C12.187,6.50216 11.8128,6.50216 11.4732,6.62951 L7.97319,7.94201 C7.38774,8.16155 6.99988,8.72123 6.99988,9.3465 L6.99988,12.0279 C6.99988,13.9217 8.06989,15.653 9.76381,16.5 L11.4409,17.3385 C11.7928,17.5145 12.207,17.5145 12.5589,17.3385 L14.2359,16.5 C15.9299,15.653 16.9999,13.9217 16.9999,12.0279 L16.9999,9.3465 C16.9999,8.72123 16.612,8.16155 16.0266,7.94201 L12.5266,6.62951 Z" id="形状" fill="#09244B"></path>
            </g>
        </g>
    </g>
</svg>