<?xml version="1.0" encoding="UTF-8"?>
<svg width="24px" height="24px" viewBox="0 0 24 24" version="1.1" xmlns="http://www.w3.org/2000/svg" xmlns:xlink="http://www.w3.org/1999/xlink">
    <title>safe_shield_fill</title>
    <g id="页面-1" stroke="none" stroke-width="1" fill="none" fill-rule="evenodd">
        <g id="System" transform="translate(-480.000000, -336.000000)">
            <g id="safe_shield_fill" transform="translate(480.000000, 336.000000)">
                <rect id="矩形" fill-rule="nonzero" x="0" y="0" width="24" height="24"></rect>
                <path d="M8.99988,9.693 L11.9999,8.568 L14.9999,9.693 L14.9999,12.0279 C14.9999,13.1642 14.3579,14.203 13.3415,14.7111 L11.9999,15.382 L10.6582,14.7111 C9.64188,14.203 8.99988,13.1642 8.99988,12.0279 L8.99988,9.693 Z" id="路径" fill="#09244B" fill-rule="nonzero"></path>
                <path d="M12.7022,2.19521 C12.2495,2.02542 11.7505,2.02542 11.2978,2.19521 L4.29775,4.82021 C3.51715,5.11294 3,5.85918 3,6.69287 L3,12.0556 C3,15.4645 4.92602,18.5809 7.97508,20.1054 L11.3292,21.7825 C11.7515,21.9936 12.2485,21.9936 12.6708,21.7825 L16.0249,20.1054 C19.074,18.5809 21,15.4645 21,12.0556 L21,6.69287 C21,5.85918 20.4829,5.11294 19.7022,4.82021 L12.7022,2.19521 Z M12.5266,6.62951 C12.187,6.50216 11.8128,6.50216 11.4732,6.62951 L7.97319,7.94201 C7.38774,8.16155 6.99988,8.72123 6.99988,9.3465 L6.99988,12.0279 C6.99988,13.9217 8.06989,15.653 9.76381,16.5 L11.4409,17.3385 C11.7928,17.5145 12.207,17.5145 12.5589,17.3385 L14.2359,16.5 C15.9299,15.653 16.9999,13.9217 16.9999,12.0279 L16.9999,9.3465 C16.9999,8.72123 16.612,8.16155 16.0266,7.94201 L12.5266,6.62951 Z" id="形状" fill="#09244B"></path>
            </g>
        </g>
    </g>
</svg>