<svg xmlns="http://www.w3.org/2000/svg" width="24" height="24" viewBox="0 0 24 24"><title>scrollable_list_line</title><g fill="none" fill-rule="nonzero"><path d="M24 0v24H0V0zM12.594 23.258l-.012.002-.071.035-.02.004-.014-.004-.071-.036q-.016-.004-.024.006l-.004.01-.017.428.005.02.01.013.104.074.015.004.012-.004.104-.074.012-.016.004-.017-.017-.427q-.004-.016-.016-.018m.264-.113-.014.002-.184.093-.01.01-.003.011.018.43.005.012.008.008.201.092q.019.005.029-.008l.004-.014-.034-.614q-.005-.019-.02-.022m-.715.002a.02.02 0 0 0-.027.006l-.006.014-.034.614q.001.018.017.024l.015-.002.201-.093.01-.008.003-.011.018-.43-.003-.012-.01-.01z"/><path fill="#09244b" d="M19 3a2 2 0 0 1 2 2v14a2 2 0 0 1-2 2H5a2 2 0 0 1-2-2V5a2 2 0 0 1 2-2zm-7 2H5v14h7zm7 0h-5v14h5zm-9 10a1 1 0 1 1 0 2H7a1 1 0 1 1 0-2zm6.306-1.999.213-.001c.565 0 1.017.028 1.301.053.168.014.27.173.2.31-.117.23-.315.591-.598 1.027-.294.452-.556.794-.72.998-.093.113-.277.109-.374-.011l-.162-.207a13 13 0 0 1-1.155-1.822c-.068-.134.019-.278.176-.292l.244-.02c.232-.016.528-.03.875-.035M10 11a1 1 0 1 1 0 2H7a1 1 0 1 1 0-2zm6.701-2.39.164.207a12.5 12.5 0 0 1 1.156 1.818c.07.136-.033.295-.2.31l-.284.02c-.269.018-.615.032-1.017.032l-.416-.005c-.391-.01-.706-.032-.917-.05-.157-.015-.244-.159-.176-.293l.196-.364a12.6 12.6 0 0 1 1.121-1.665c.097-.12.281-.124.373-.01M10 7a1 1 0 1 1 0 2H7a1 1 0 0 1 0-2z"/></g></svg>