<svg xmlns="http://www.w3.org/2000/svg" width="24" height="24" viewBox="0 0 24 24"><title>semicircle_dash_line</title><g fill="none" fill-rule="nonzero"><path d="M24 0v24H0V0zM12.594 23.258l-.012.002-.071.035-.02.004-.014-.004-.071-.036q-.016-.004-.024.006l-.004.01-.017.428.005.02.01.013.104.074.015.004.012-.004.104-.074.012-.016.004-.017-.017-.427q-.004-.016-.016-.018m.264-.113-.014.002-.184.093-.01.01-.003.011.018.43.005.012.008.008.201.092q.019.005.029-.008l.004-.014-.034-.614q-.005-.019-.02-.022m-.715.002a.02.02 0 0 0-.027.006l-.006.014-.034.614q.001.018.017.024l.015-.002.201-.093.01-.008.003-.011.018-.43-.003-.012-.01-.01z"/><path fill="#09244b" d="M2 12c0-4.7 3.243-8.642 7.612-9.713a1.001 1.001 0 0 1 .477 1.943 8.004 8.004 0 0 0 0 15.541 1 1 0 1 1-.477 1.942C5.242 20.644 2 16.702 2 12.002m14.145 6.844a1 1 0 0 1 1.033 1.713 10 10 0 0 1-2.788 1.155 1 1 0 0 1-.48-1.942 8 8 0 0 0 2.235-.926m3.625-4.934a1 1 0 1 1 1.942.48 10 10 0 0 1-1.155 2.788 1 1 0 0 1-1.712-1.034 8 8 0 0 0 .925-2.234m-.586-7.427a1 1 0 0 1 1.373.34 10 10 0 0 1 1.155 2.788 1 1 0 0 1-1.942.48 8 8 0 0 0-.925-2.235 1 1 0 0 1 .339-1.373M13.179 3.02a1 1 0 0 1 1.21-.73 10 10 0 0 1 2.789 1.155 1 1 0 1 1-1.033 1.712 8 8 0 0 0-2.236-.926 1 1 0 0 1-.73-1.21"/></g></svg>