<svg xmlns="http://www.w3.org/2000/svg" width="24" height="24" viewBox="0 0 24 24"><title>semicircle_dash_fill</title><g fill="none" fill-rule="nonzero"><path d="M24 0v24H0V0zM12.594 23.258l-.012.002-.071.035-.02.004-.014-.004-.071-.036q-.016-.004-.024.006l-.004.01-.017.428.005.02.01.013.104.074.015.004.012-.004.104-.074.012-.016.004-.017-.017-.427q-.004-.016-.016-.018m.264-.113-.014.002-.184.093-.01.01-.003.011.018.43.005.012.008.008.201.092q.019.005.029-.008l.004-.014-.034-.614q-.005-.019-.02-.022m-.715.002a.02.02 0 0 0-.027.006l-.006.014-.034.614q.001.018.017.024l.015-.002.201-.093.01-.008.003-.011.018-.43-.003-.012-.01-.01z"/><path fill="#09244b" d="M1.5 12C1.5 7.21 4.704 3.175 9.081 1.91a1.5 1.5 0 1 1 .832 2.882 7.504 7.504 0 0 0 .007 14.415 1.5 1.5 0 1 1-.831 2.883C4.707 20.829 1.5 16.791 1.5 11.999m14.127 6.566a1.5 1.5 0 1 1 1.447 2.628 10.6 10.6 0 0 1-2.152.892 1.5 1.5 0 0 1-.838-2.88 7.6 7.6 0 0 0 1.543-.64m3.58-4.489a1.5 1.5 0 0 1 2.882.835 10.6 10.6 0 0 1-.89 2.154 1.5 1.5 0 0 1-2.63-1.445 7.6 7.6 0 0 0 .638-1.544m-.05-7.742a1.5 1.5 0 0 1 2.036.59 10.6 10.6 0 0 1 .893 2.152 1.5 1.5 0 0 1-2.88.838 7.6 7.6 0 0 0-.64-1.543 1.5 1.5 0 0 1 .59-2.037m-6.102-3.401a1.5 1.5 0 0 1 1.858-1.023 10.6 10.6 0 0 1 2.152.89 1.5 1.5 0 1 1-1.444 2.63 7.6 7.6 0 0 0-1.544-.639 1.5 1.5 0 0 1-1.022-1.858"/></g></svg>