<?xml version="1.0" encoding="UTF-8"?>
<svg width="24px" height="24px" viewBox="0 0 24 24" version="1.1" xmlns="http://www.w3.org/2000/svg" xmlns:xlink="http://www.w3.org/1999/xlink">
    <title>send_plane_fill</title>
    <g id="页面-1" stroke="none" stroke-width="1" fill="none" fill-rule="evenodd">
        <g id="System" transform="translate(-1104.000000, -48.000000)" fill-rule="nonzero">
            <g id="send_plane_fill" transform="translate(1104.000000, 48.000000)">
                <rect id="矩形" transform="translate(12.000000, 12.000000) scale(-1, 1) translate(-12.000000, -12.000000) " x="0" y="0" width="24" height="24"></rect>
                <path d="M21.4325,4.86103 L15.4325,20.361 C15.175,21.0261 14.324,21.2156 13.8087,20.7227 L10.4266,17.4876 L8.35348,19.5607 C8.0385,19.8757 7.49993,19.6526 7.49993,19.2072 L7.49993,14.6882 L2.30868,9.72268 C1.74196,9.1806 1.99133,8.22685 2.75086,8.03155 L20.2509,3.53155 C21.0389,3.32889 21.7262,4.10218 21.4325,4.86103 Z M19,6.00006 L8.03159,13.1534 L9.76704,14.8134 L19,6.00006 Z" id="形状" fill="#09244B"></path>
            </g>
        </g>
    </g>
</svg>