<?xml version="1.0" encoding="UTF-8"?>
<svg width="24px" height="24px" viewBox="0 0 24 24" version="1.1" xmlns="http://www.w3.org/2000/svg" xmlns:xlink="http://www.w3.org/1999/xlink">
    <title>setting_4_fill</title>
    <g id="页面-1" stroke="none" stroke-width="1" fill="none" fill-rule="evenodd">
        <g id="System" transform="translate(-864.000000, -144.000000)">
            <g id="setting_4_fill" transform="translate(864.000000, 144.000000)">
                <rect id="矩形" fill-rule="nonzero" x="0" y="0" width="24" height="24"></rect>
                <path d="M10.5857,2.10056 C11.3256895,1.36061789 12.5011493,1.32167357 13.2868927,1.98372704 L13.4141,2.10056 L15.3136,4.00005 L17.9999,4.00005 C19.0542909,4.00005 19.9180678,4.81592733 19.9944144,5.85078759 L19.9999,6.00005 L19.9999,8.68632 L21.8994,10.5858 C22.6393895,11.3257895 22.6783363,12.5012493 22.0162404,13.2870778 L21.8994,13.4143 L19.9999,15.3138 L19.9999,18.0001 C19.9999,19.0543955 19.18405,19.9182591 18.1491661,19.9946139 L17.9999,20.0001 L15.3136,20.0001 L13.4141,21.8995 C12.6742053,22.6394895 11.4987504,22.6784363 10.7129222,22.0163404 L10.5857,21.8995 L8.68622,20.0001 L5.99991,20.0001 C4.94554773,20.0001 4.08174483,19.1841589 4.00539573,18.1493537 L3.99991,18.0001 L3.99991,15.3137 L2.10043,13.4143 C1.36049737,12.6743105 1.32155355,11.4988507 1.98359853,10.7130222 L2.10043,10.5858 L3.99991,8.68636 L3.99991,6.00005 C3.99991,4.94568773 4.81578733,4.08188483 5.85064759,4.00553573 L5.99991,4.00005 L8.68622,4.00005 L10.5857,2.10056 Z M11.9999,9 C10.3431,9 8.99994,10.3431 8.99994,12 C8.99994,13.6569 10.3431,15 11.9999,15 C13.6568,15 14.9999,13.6569 14.9999,12 C14.9999,10.3431 13.6568,9 11.9999,9 Z" id="形状" fill="#09244B"></path>
            </g>
        </g>
    </g>
</svg>