<svg width="24" height="24" viewBox="0 0 24 24" fill="none" xmlns="http://www.w3.org/2000/svg">
<rect width="24" height="24" fill="white" fill-opacity="0.01"/>
<path fill-rule="evenodd" clip-rule="evenodd" d="M12 8C9.79086 8 8 9.79086 8 12C8 14.2091 9.79086 16 12 16C14.2091 16 16 14.2091 16 12C16 9.79086 14.2091 8 12 8ZM10 12C10 10.8954 10.8954 10 12 10C13.1046 10 14 10.8954 14 12C14 13.1046 13.1046 14 12 14C10.8954 14 10 13.1046 10 12Z" fill="#09244B"/>
<path fill-rule="evenodd" clip-rule="evenodd" d="M9.96478 2.80881C9.59589 2.54328 9.07558 2.4191 8.56387 2.60633C7.4666 3.0078 6.46004 3.59559 5.5823 4.3308C5.16522 4.68015 5.01268 5.19203 5.05794 5.64391C5.13333 6.39671 5.00046 7.12356 4.63874 7.75007C4.27685 8.37689 3.71344 8.85555 3.02334 9.16664C2.60859 9.35361 2.24074 9.74273 2.14751 10.2801C2.05047 10.8396 2 11.4143 2 12.0001C2 12.5858 2.05047 13.1606 2.14752 13.72C2.24075 14.2574 2.6086 14.6465 3.02335 14.8335C3.71344 15.1446 4.27685 15.6233 4.63874 16.2501C5.00045 16.8766 5.13332 17.6034 5.05794 18.3562C5.01269 18.8081 5.16523 19.32 5.5823 19.6693C6.46002 20.4045 7.46655 20.9923 8.56378 21.3937C9.07552 21.581 9.59585 21.4568 9.96474 21.1912C10.5794 20.7488 11.2759 20.5 12 20.5C12.7241 20.5 13.4206 20.7488 14.0353 21.1912C14.4042 21.4568 14.9245 21.581 15.4362 21.3937C16.5334 20.9923 17.5399 20.4045 18.4176 19.6694C18.8347 19.32 18.9872 18.8081 18.942 18.3562C18.8666 17.6034 18.9994 16.8766 19.3611 16.2501C19.723 15.6233 20.2865 15.1446 20.9766 14.8335C21.3914 14.6465 21.7593 14.2574 21.8525 13.72C21.9495 13.1606 22 12.5858 22 12.0001C22 11.4144 21.9495 10.8397 21.8525 10.2803C21.7593 9.74288 21.3914 9.35374 20.9766 9.16678C20.2865 8.85569 19.723 8.37702 19.3611 7.7502C18.9994 7.12366 18.8666 6.39677 18.942 5.64392C18.9873 5.19202 18.8347 4.6801 18.4176 4.33073C17.5399 3.59556 16.5334 3.00779 15.4361 2.60633C14.9244 2.41911 14.4041 2.54328 14.0352 2.80881C13.4206 3.25123 12.7241 3.50003 12 3.50003C11.2759 3.50003 10.5794 3.25123 9.96478 2.80881ZM7.0682 5.70056C7.65502 5.24042 8.30727 4.8608 9.00832 4.57792C9.87388 5.14715 10.8947 5.50003 12 5.50003C13.1053 5.50003 14.1261 5.14715 14.9917 4.57792C15.6927 4.86079 16.3449 5.24039 16.9317 5.7005C16.8719 6.734 17.0769 7.79371 17.6291 8.7502C18.1815 9.70693 18.997 10.4144 19.9222 10.8794C19.9735 11.2451 20 11.6192 20 12.0001C20 12.381 19.9735 12.7551 19.9222 13.1209C18.997 13.5859 18.1815 14.2933 17.6291 15.2501C17.0769 16.2065 16.872 17.2662 16.9317 18.2996C16.3449 18.7597 15.6927 19.1393 14.9918 19.4222C14.1262 18.8529 13.1053 18.5 12 18.5C10.8947 18.5 9.87381 18.8529 9.00824 19.4222C8.30722 19.1393 7.655 18.7597 7.0682 18.2995C7.12793 17.2661 6.92298 16.2065 6.37079 15.2501C5.81845 14.2934 5.00295 13.586 4.07778 13.121C4.02655 12.7551 4 12.381 4 12.0001C4 11.6192 4.02655 11.245 4.07778 10.8792C5.00295 10.4142 5.81845 9.70677 6.37079 8.75007C6.92299 7.79365 7.12793 6.734 7.0682 5.70056Z" fill="#09244B"/>
</svg>
