<?xml version="1.0" encoding="UTF-8"?>
<svg width="24px" height="24px" viewBox="0 0 24 24" version="1.1" xmlns="http://www.w3.org/2000/svg" xmlns:xlink="http://www.w3.org/1999/xlink">
    <title>settings_2_fill</title>
    <g id="页面-1" stroke="none" stroke-width="1" fill="none" fill-rule="evenodd">
        <g id="System" transform="translate(-1200.000000, -48.000000)">
            <g id="settings_2_fill" transform="translate(1200.000000, 48.000000)">
                <rect id="矩形" fill-rule="nonzero" x="0" y="0" width="24" height="24"></rect>
                <path d="M18.5,4 C18.5,3.17157 17.8284,2.5 17,2.5 C16.1716,2.5 15.5,3.17157 15.5,4 L15.5,4.5 L4,4.5 C3.17157,4.5 2.5,5.17157 2.5,6 C2.5,6.82843 3.17157,7.5 4,7.5 L15.5,7.5 L15.5,8 C15.5,8.82843 16.1716,9.5 17,9.5 C17.8284,9.5 18.5,8.82843 18.5,8 L18.5,7.5 L20,7.5 C20.8284,7.5 21.5,6.82843 21.5,6 C21.5,5.17157 20.8284,4.5 20,4.5 L18.5,4.5 L18.5,4 Z M4,10.5 C3.17157,10.5 2.5,11.1716 2.5,12 C2.5,12.8284 3.17157,13.5 4,13.5 L5.5,13.5 L5.5,14 C5.5,14.8284 6.17157,15.5 7,15.5 C7.82843,15.5 8.5,14.8284 8.5,14 L8.5,13.5 L20,13.5 C20.8284,13.5 21.5,12.8284 21.5,12 C21.5,11.1716 20.8284,10.5 20,10.5 L8.5,10.5 L8.5,10 C8.5,9.17157 7.82843,8.5 7,8.5 C6.17157,8.5 5.5,9.17157 5.5,10 L5.5,10.5 L4,10.5 Z M2.5,18 C2.5,17.1716 3.17157,16.5 4,16.5 L15.5,16.5 L15.5,16 C15.5,15.1716 16.1716,14.5 17,14.5 C17.8284,14.5 18.5,15.1716 18.5,16 L18.5,16.5 L20,16.5 C20.8284,16.5 21.5,17.1716 21.5,18 C21.5,18.8284 20.8284,19.5 20,19.5 L18.5,19.5 L18.5,20 C18.5,20.8284 17.8284,21.5 17,21.5 C16.1716,21.5 15.5,20.8284 15.5,20 L15.5,19.5 L4,19.5 C3.17157,19.5 2.5,18.8284 2.5,18 Z" id="形状" fill="#09244B"></path>
            </g>
        </g>
    </g>
</svg>