<?xml version="1.0" encoding="UTF-8"?>
<svg width="24px" height="24px" viewBox="0 0 24 24" version="1.1" xmlns="http://www.w3.org/2000/svg" xmlns:xlink="http://www.w3.org/1999/xlink">
    <title>setting_4_line</title>
    <g id="页面-1" stroke="none" stroke-width="1" fill="none" fill-rule="evenodd">
        <g id="System" transform="translate(-864.000000, -96.000000)">
            <g id="setting_4_line" transform="translate(864.000000, 96.000000)">
                 <path d="M24,0 L24,24 L0,24 L0,0 L24,0 Z M12.5934901,23.257841 L12.5819402,23.2595131 L12.5108777,23.2950439 L12.4918791,23.2987469 L12.4918791,23.2987469 L12.4767152,23.2950439 L12.4056548,23.2595131 C12.3958229,23.2563662 12.3870493,23.2590235 12.3821421,23.2649074 L12.3780323,23.275831 L12.360941,23.7031097 L12.3658947,23.7234994 L12.3769048,23.7357139 L12.4804777,23.8096931 L12.4953491,23.8136134 L12.4953491,23.8136134 L12.5071152,23.8096931 L12.6106902,23.7357139 L12.6232938,23.7196733 L12.6232938,23.7196733 L12.6266527,23.7031097 L12.609561,23.275831 C12.6075724,23.2657013 12.6010112,23.2592993 12.5934901,23.257841 L12.5934901,23.257841 Z M12.8583906,23.1452862 L12.8445485,23.1473072 L12.6598443,23.2396597 L12.6498822,23.2499052 L12.6498822,23.2499052 L12.6471943,23.2611114 L12.6650943,23.6906389 L12.6699349,23.7034178 L12.6699349,23.7034178 L12.678386,23.7104931 L12.8793402,23.8032389 C12.8914285,23.8068999 12.9022333,23.8029875 12.9078286,23.7952264 L12.9118235,23.7811639 L12.8776777,23.1665331 C12.8752882,23.1545897 12.8674102,23.1470016 12.8583906,23.1452862 L12.8583906,23.1452862 Z M12.1430473,23.1473072 C12.1332178,23.1423925 12.1221763,23.1452606 12.1156365,23.1525954 L12.1099173,23.1665331 L12.0757714,23.7811639 C12.0751323,23.7926639 12.0828099,23.8018602 12.0926481,23.8045676 L12.108256,23.8032389 L12.3092106,23.7104931 L12.3186497,23.7024347 L12.3186497,23.7024347 L12.3225043,23.6906389 L12.340401,23.2611114 L12.337245,23.2485176 L12.337245,23.2485176 L12.3277531,23.2396597 L12.1430473,23.1473072 Z" id="MingCute" fill-rule="nonzero"></path>
                <path d="M13.4141,2.10056 C12.6331,1.31951 11.3668,1.31951 10.5857,2.10056 L8.68622,4.00005 L5.99991,4.00005 C4.89534,4.00005 3.99991,4.89548 3.99991,6.00005 L3.99991,8.68636 L2.10044,10.5858 C1.31939,11.3669 1.31939,12.6332 2.10043,13.4143 L3.99991,15.3137 L3.99991,18.0001 C3.99991,19.1046 4.89534,20.0001 5.99991,20.0001 L8.68622,20.0001 L10.5857,21.8995 C11.3668,22.6806 12.6331,22.6806 13.4141,21.8995 L15.3136,20.0001 L17.9999,20.0001 C19.1045,20.0001 19.9999,19.1046 19.9999,18.0001 L19.9999,15.3138 L21.8994,13.4143 C22.6805,12.6332 22.6805,11.3669 21.8994,10.5858 L19.9999,8.68632 L19.9999,6.00005 C19.9999,4.89548 19.1045,4.00005 17.9999,4.00005 L15.3136,4.00005 L13.4141,2.10056 Z M11.9999,3.51477 L13.8994,5.41426 C14.2745,5.78934 14.7832,6.00005 15.3136,6.00005 L17.9999,6.00005 L17.9999,8.68632 C17.9999,9.21676 18.2106,9.72547 18.5857,10.1005 L20.4852,12.0001 L18.5857,13.8996 C18.2106,14.2746 17.9999,14.7833 17.9999,15.3138 L17.9999,18.0001 L15.3136,18.0001 C14.7832,18.0001 14.2745,18.2108 13.8994,18.5858 L11.9999,20.4853 L10.1004,18.5858 C9.72536,18.2108 9.21666,18.0001 8.68622,18.0001 L5.99991,18.0001 L5.99991,15.3137 C5.99991,14.7833 5.7892,14.2746 5.41412,13.8995 L3.51465,12.0001 L5.41412,10.1006 C5.7892,9.7255 5.99991,9.2168 5.99991,8.68636 L5.99991,6.00005 L8.68622,6.00005 C9.21665,6.00005 9.72536,5.78934 10.1004,5.41426 L11.9999,3.51477 Z M9.99994,12 C9.99994,10.8954 10.8954,10 11.9999,10 C13.1045,10 13.9999,10.8954 13.9999,12 C13.9999,13.1046 13.1045,14 11.9999,14 C10.8954,14 9.99994,13.1046 9.99994,12 Z M11.9999,8 C9.7908,8 7.99994,9.79086 7.99994,12 C7.99994,14.2091 9.7908,16 11.9999,16 C14.2091,16 15.9999,14.2091 15.9999,12 C15.9999,9.79086 14.2091,8 11.9999,8 Z" id="形状" fill="#09244B"></path>
            </g>
        </g>
    </g>
</svg>