<?xml version="1.0" encoding="UTF-8"?>
<svg width="24px" height="24px" viewBox="0 0 24 24" version="1.1" xmlns="http://www.w3.org/2000/svg" xmlns:xlink="http://www.w3.org/1999/xlink">
    <title>settings_3_line</title>
    <g id="页面-1" stroke="none" stroke-width="1" fill="none" fill-rule="evenodd">
        <g id="System" transform="translate(-1248.000000, 0.000000)">
            <g id="settings_3_line" transform="translate(1248.000000, 0.000000)">
                 <path d="M24,0 L24,24 L0,24 L0,0 L24,0 Z M12.5934901,23.257841 L12.5819402,23.2595131 L12.5108777,23.2950439 L12.4918791,23.2987469 L12.4918791,23.2987469 L12.4767152,23.2950439 L12.4056548,23.2595131 C12.3958229,23.2563662 12.3870493,23.2590235 12.3821421,23.2649074 L12.3780323,23.275831 L12.360941,23.7031097 L12.3658947,23.7234994 L12.3769048,23.7357139 L12.4804777,23.8096931 L12.4953491,23.8136134 L12.4953491,23.8136134 L12.5071152,23.8096931 L12.6106902,23.7357139 L12.6232938,23.7196733 L12.6232938,23.7196733 L12.6266527,23.7031097 L12.609561,23.275831 C12.6075724,23.2657013 12.6010112,23.2592993 12.5934901,23.257841 L12.5934901,23.257841 Z M12.8583906,23.1452862 L12.8445485,23.1473072 L12.6598443,23.2396597 L12.6498822,23.2499052 L12.6498822,23.2499052 L12.6471943,23.2611114 L12.6650943,23.6906389 L12.6699349,23.7034178 L12.6699349,23.7034178 L12.678386,23.7104931 L12.8793402,23.8032389 C12.8914285,23.8068999 12.9022333,23.8029875 12.9078286,23.7952264 L12.9118235,23.7811639 L12.8776777,23.1665331 C12.8752882,23.1545897 12.8674102,23.1470016 12.8583906,23.1452862 L12.8583906,23.1452862 Z M12.1430473,23.1473072 C12.1332178,23.1423925 12.1221763,23.1452606 12.1156365,23.1525954 L12.1099173,23.1665331 L12.0757714,23.7811639 C12.0751323,23.7926639 12.0828099,23.8018602 12.0926481,23.8045676 L12.108256,23.8032389 L12.3092106,23.7104931 L12.3186497,23.7024347 L12.3186497,23.7024347 L12.3225043,23.6906389 L12.340401,23.2611114 L12.337245,23.2485176 L12.337245,23.2485176 L12.3277531,23.2396597 L12.1430473,23.1473072 Z" id="MingCute" fill-rule="nonzero"></path>
                <path d="M14.0352,2.80881 C14.4041,2.54328 14.9244,2.41911 15.4361,2.60633 C16.5334,3.00779 17.5399,3.59556 18.4176,4.33073 C18.8347,4.6801 18.9873,5.19202 18.942,5.64392 C18.8666,6.39677 18.9994,7.12366 19.3611,7.7502 C19.6827889,8.30737333 20.1637667,8.74748988 20.7513584,9.05690332 L20.9766,9.16678 C21.3914,9.35374 21.7593,9.74288 21.8525,10.2803 C21.9495,10.8397 22,11.4144 22,12.0001 C22,12.5858 21.9495,13.1606 21.8525,13.72 C21.76862,14.20366 21.462233,14.567197 21.0994052,14.7713908 L20.9766,14.8335 C20.2865,15.1446 19.723,15.6233 19.3611,16.2501 C18.9994,16.8766 18.8666,17.6034 18.942,18.3562 C18.9872,18.8081 18.8347,19.32 18.4176,19.6694 C17.5399,20.4045 16.5334,20.9923 15.4362,21.3937 C14.9245,21.581 14.4042,21.4568 14.0353,21.1912 C13.4206,20.7488 12.7241,20.5 12,20.5 C11.2759,20.5 10.5794,20.7488 9.96474,21.1912 C9.59585,21.4568 9.07552,21.581 8.56378,21.3937 C7.46655,20.9923 6.46002,20.4045 5.5823,19.6693 C5.16523,19.32 5.01269,18.8081 5.05794,18.3562 C5.13332,17.6034 5.00045,16.8766 4.63874,16.2501 C4.31706,15.6929444 3.83615432,15.2528062 3.24858549,14.9433807 L3.02335,14.8335 C2.6086,14.6465 2.24075,14.2574 2.14752,13.72 C2.05047,13.1606 2,12.5858 2,12.0001 C2,11.4143 2.05047,10.8396 2.14751,10.2801 C2.231417,9.796467 2.5377662,9.4329165 2.90054972,9.2287416 L3.02334,9.16664 C3.71344,8.85555 4.27685,8.37689 4.63874,7.75007 C5.00046,7.12356 5.13333,6.39671 5.05794,5.64391 C5.01268,5.19203 5.16522,4.68015 5.5823,4.3308 C6.46004,3.59559 7.4666,3.0078 8.56387,2.60633 C9.07558,2.4191 9.59589,2.54328 9.96478,2.80881 C10.5794,3.25123 11.2759,3.50003 12,3.50003 C12.7241,3.50003 13.4206,3.25123 14.0352,2.80881 Z M14.9917,4.57792 C14.1261,5.14715 13.1053,5.50003 12,5.50003 C10.8947,5.50003 9.87388,5.14715 9.00832,4.57792 C8.30727,4.8608 7.65502,5.24042 7.0682,5.70056 C7.12793,6.734 6.92299,7.79365 6.37079,8.75007 C5.81845,9.70677 5.00295,10.4142 4.07778,10.8792 C4.02655,11.245 4,11.6192 4,12.0001 C4,12.381 4.02655,12.7551 4.07778,13.121 C5.00295,13.586 5.81845,14.2934 6.37079,15.2501 C6.92298,16.2065 7.12793,17.2661 7.0682,18.2995 C7.655,18.7597 8.30722,19.1393 9.00824,19.4222 C9.87381,18.8529 10.8947,18.5 12,18.5 C13.1053,18.5 14.1262,18.8529 14.9918,19.4222 C15.6927,19.1393 16.3449,18.7597 16.9317,18.2996 C16.872,17.2662 17.0769,16.2065 17.6291,15.2501 C18.1815,14.2933 18.997,13.5859 19.9222,13.1209 C19.9735,12.7551 20,12.381 20,12.0001 C20,11.6192 19.9735,11.2451 19.9222,10.8794 C18.997,10.4144 18.1815,9.70693 17.6291,8.7502 C17.0769,7.79371 16.8719,6.734 16.9317,5.7005 C16.3449,5.24039 15.6927,4.86079 14.9917,4.57792 Z M12,8 C14.2091,8 16,9.79086 16,12 C16,14.2091 14.2091,16 12,16 C9.79086,16 8,14.2091 8,12 C8,9.79086 9.79086,8 12,8 Z M12,10 C10.8954,10 10,10.8954 10,12 C10,13.1046 10.8954,14 12,14 C13.1046,14 14,13.1046 14,12 C14,10.8954 13.1046,10 12,10 Z" id="形状" fill="#09244B"></path>
            </g>
        </g>
    </g>
</svg>