<svg width="24" height="24" viewBox="0 0 24 24" fill="none" xmlns="http://www.w3.org/2000/svg">
<rect width="24" height="24" fill="white" fill-opacity="0.01"/>
<path fill-rule="evenodd" clip-rule="evenodd" d="M12 8C9.79086 8 8 9.79086 8 12C8 14.2091 9.79086 16 12 16C14.2091 16 16 14.2091 16 12C16 9.79086 14.2091 8 12 8ZM10 12C10 10.8954 10.8954 10 12 10C13.1046 10 14 10.8954 14 12C14 13.1046 13.1046 14 12 14C10.8954 14 10 13.1046 10 12Z" fill="#09244B"/>
<path fill-rule="evenodd" clip-rule="evenodd" d="M13.25 2.56687C12.4765 2.12029 11.5235 2.12029 10.75 2.56687L4.45581 6.20084C3.68231 6.64743 3.20581 7.47274 3.20581 8.36591V15.6339C3.20581 16.527 3.68231 17.3523 4.45581 17.7989L10.75 21.4329C11.5235 21.8795 12.4765 21.8795 13.25 21.4329L19.5443 17.7989C20.3178 17.3523 20.7943 16.527 20.7943 15.6339V8.36591C20.7943 7.47274 20.3178 6.64743 19.5443 6.20084L13.25 2.56687ZM11.75 4.29892C11.9047 4.2096 12.0953 4.2096 12.25 4.29892L18.5443 7.9329C18.699 8.02221 18.7943 8.18727 18.7943 8.36591V15.6339C18.7943 15.8125 18.699 15.9776 18.5443 16.0669L12.25 19.7008C12.0953 19.7902 11.9047 19.7902 11.75 19.7008L5.45581 16.0669C5.30111 15.9776 5.20581 15.8125 5.20581 15.6339V8.36591C5.20581 8.18728 5.30111 8.02221 5.45581 7.9329L11.75 4.29892Z" fill="#09244B"/>
</svg>
