<?xml version="1.0" encoding="UTF-8"?>
<svg width="24px" height="24px" viewBox="0 0 24 24" version="1.1" xmlns="http://www.w3.org/2000/svg" xmlns:xlink="http://www.w3.org/1999/xlink">
    <title>settings_3_fill</title>
    <g id="页面-1" stroke="none" stroke-width="1" fill="none" fill-rule="evenodd">
        <g id="System" transform="translate(-1248.000000, -48.000000)">
            <g id="settings_3_fill" transform="translate(1248.000000, 48.000000)">
                 <path d="M24,0 L24,24 L0,24 L0,0 L24,0 Z M12.5934901,23.257841 L12.5819402,23.2595131 L12.5108777,23.2950439 L12.4918791,23.2987469 L12.4918791,23.2987469 L12.4767152,23.2950439 L12.4056548,23.2595131 C12.3958229,23.2563662 12.3870493,23.2590235 12.3821421,23.2649074 L12.3780323,23.275831 L12.360941,23.7031097 L12.3658947,23.7234994 L12.3769048,23.7357139 L12.4804777,23.8096931 L12.4953491,23.8136134 L12.4953491,23.8136134 L12.5071152,23.8096931 L12.6106902,23.7357139 L12.6232938,23.7196733 L12.6232938,23.7196733 L12.6266527,23.7031097 L12.609561,23.275831 C12.6075724,23.2657013 12.6010112,23.2592993 12.5934901,23.257841 L12.5934901,23.257841 Z M12.8583906,23.1452862 L12.8445485,23.1473072 L12.6598443,23.2396597 L12.6498822,23.2499052 L12.6498822,23.2499052 L12.6471943,23.2611114 L12.6650943,23.6906389 L12.6699349,23.7034178 L12.6699349,23.7034178 L12.678386,23.7104931 L12.8793402,23.8032389 C12.8914285,23.8068999 12.9022333,23.8029875 12.9078286,23.7952264 L12.9118235,23.7811639 L12.8776777,23.1665331 C12.8752882,23.1545897 12.8674102,23.1470016 12.8583906,23.1452862 L12.8583906,23.1452862 Z M12.1430473,23.1473072 C12.1332178,23.1423925 12.1221763,23.1452606 12.1156365,23.1525954 L12.1099173,23.1665331 L12.0757714,23.7811639 C12.0751323,23.7926639 12.0828099,23.8018602 12.0926481,23.8045676 L12.108256,23.8032389 L12.3092106,23.7104931 L12.3186497,23.7024347 L12.3186497,23.7024347 L12.3225043,23.6906389 L12.340401,23.2611114 L12.337245,23.2485176 L12.337245,23.2485176 L12.3277531,23.2396597 L12.1430473,23.1473072 Z" id="MingCute" fill-rule="nonzero"></path>
                <path d="M9.96478,2.80881 C9.59589,2.54328 9.07558,2.4191 8.56387,2.60633 C7.4666,3.0078 6.46004,3.59559 5.5823,4.3308 C5.16522,4.68015 5.01268,5.19204 5.05794,5.64391 C5.13333,6.39671 5.00046,7.12356 4.63874,7.75007 C4.27685,8.37689 3.71344,8.85555 3.02334,9.16664 C2.60859,9.35361 2.24074,9.74273 2.14751,10.2801 C2.05047,10.8396 2,11.4143 2,12.0001 C2,12.5858 2.05047,13.1606 2.14752,13.72 C2.24075,14.2574 2.6086,14.6465 3.02335,14.8335 C3.71344,15.1446 4.27685,15.6233 4.63874,16.2501 C5.00045,16.8766 5.13332,17.6034 5.05794,18.3562 C5.01269,18.8081 5.16523,19.32 5.5823,19.6693 C6.46002,20.4045 7.46655,20.9923 8.56378,21.3937 C9.07552,21.581 9.59585,21.4568 9.96474,21.1912 C10.5794,20.7488 11.2759,20.5 12,20.5 C12.7241,20.5 13.4206,20.7488 14.0353,21.1912 C14.4042,21.4568 14.9245,21.581 15.4362,21.3937 C16.5334,20.9923 17.5399,20.4045 18.4176,19.6694 C18.8347,19.32 18.9872,18.8081 18.942,18.3562 C18.8666,17.6034 18.9994,16.8766 19.3611,16.2501 C19.723,15.6233 20.2865,15.1446 20.9766,14.8335 C21.3914,14.6465 21.7593,14.2574 21.8525,13.72 C21.9495,13.1606 22,12.5858 22,12.0001 C22,11.4144 21.9495,10.8397 21.8525,10.2803 C21.7593,9.74288 21.3914,9.35374 20.9766,9.16678 C20.2865,8.85569 19.723,8.37702 19.3611,7.7502 C18.9994,7.12366 18.8666,6.39677 18.942,5.64392 C18.9873,5.19202 18.8347,4.6801 18.4176,4.33073 C17.5399,3.59556 16.5334,3.00779 15.4361,2.60633 C14.9244,2.41911 14.4041,2.54328 14.0352,2.80881 C13.4206,3.25123 12.7241,3.50003 12,3.50003 C11.2759,3.50003 10.5794,3.25123 9.96478,2.80881 Z M9,12 C9,10.3431 10.3431,9 12,9 C13.6569,9 15,10.3431 15,12 C15,13.6569 13.6569,15 12,15 C10.3431,15 9,13.6569 9,12 Z" id="形状" fill="#09244B"></path>
            </g>
        </g>
    </g>
</svg>