<?xml version="1.0" encoding="UTF-8"?>
<svg width="24px" height="24px" viewBox="0 0 24 24" version="1.1" xmlns="http://www.w3.org/2000/svg" xmlns:xlink="http://www.w3.org/1999/xlink">
    <title>share_3_line</title>
    <g id="页面-1" stroke="none" stroke-width="1" fill="none" fill-rule="evenodd">
        <g id="System" transform="translate(-960.000000, -96.000000)" fill-rule="nonzero">
            <g id="share_3_line" transform="translate(960.000000, 96.000000)">
                <rect id="矩形" x="0" y="0" width="24" height="24"></rect>
                <path d="M9,3 C9.55228,3 10,3.44772 10,4 C10,4.51283143 9.61395571,4.93550653 9.11662025,4.9932722 L9,5 L5,5 L5,19 L19,19 L19,10 C19,9.44772 19.4477,9 20,9 C20.51285,9 20.9355092,9.38604429 20.9932725,9.88337975 L21,10 L21,19 C21,20.0543909 20.18415,20.9181678 19.1492661,20.9945144 L19,21 L5,21 C3.94563773,21 3.08183483,20.18415 3.00548573,19.1492661 L3,19 L3,5 C3,3.94563773 3.81587733,3.08183483 4.85073759,3.00548573 L5,3 L9,3 Z M19.5128,3 C20.1351,3 20.4967,3.46833 20.5878,3.85625 C20.6791,4.24461 20.5633,4.82708 20.0029,5.10302 L19.5889579,5.31428293 C19.53627,5.3420676 19.4814802,5.37128802 19.424718,5.40194298 L19.0615142,5.60307716 L19.0615142,5.60307716 L18.657194,5.83858068 L18.657194,5.83858068 L18.2179767,6.10839419 C17.5360875,6.53881729 16.7574105,7.08483632 15.9764,7.74555 C14.3223,9.14484 12.7183,11.0073 11.9487,13.3162 C11.774,13.8402 11.2077,14.1233 10.6838,13.9487 C10.1598,13.774 9.87667,13.2077 10.0513,12.6838 C10.9792,9.90024 12.8736,7.75071 14.6847,6.21863 C15.11622,5.853542 15.546524,5.5205948 15.962812,5.21968088 L16.2722,5 L14,5 C13.4477,5 13,4.55228 13,4 C13,3.48716857 13.386027,3.06449347 13.8833761,3.0067278 L14,3 L19.5128,3 Z" id="形状" fill="#09244B"></path>
            </g>
        </g>
    </g>
</svg>