<?xml version="1.0" encoding="UTF-8"?>
<svg width="24px" height="24px" viewBox="0 0 24 24" version="1.1" xmlns="http://www.w3.org/2000/svg" xmlns:xlink="http://www.w3.org/1999/xlink">
    <title>share_3_fill</title>
    <g id="页面-1" stroke="none" stroke-width="1" fill="none" fill-rule="evenodd">
        <g id="System" transform="translate(-960.000000, -144.000000)" fill-rule="nonzero">
            <g id="share_3_fill" transform="translate(960.000000, 144.000000)">
                <rect id="矩形" x="0" y="0" width="24" height="24"></rect>
                <path d="M11.1707,3 C11.0602,3.31278 11,3.64936 11,4 C11,4.82424 11.3324,5.57084 11.8705,6.11307 C10.3843,7.64956 8.96368,9.62212 8.15395,12.0513 C7.63001,13.6231 8.47949,15.3221 10.0513,15.8461 C11.5669643,16.3512893 13.2009051,15.5794268 13.7855203,14.1143136 L13.8461,13.9487 C14.4575,12.1143 15.771,10.539 17.2681,9.27246 C18.0910444,8.57627667 18.914637,8.01988654 19.5962337,7.60765005 L19.9870111,7.37764148 L19.9870111,7.37764148 L20.3368626,7.18243908 L20.3368626,7.18243908 L20.6389412,7.02225215 L20.6389412,7.02225215 L21,6.83872 L21,19 C21,20.0543909 20.18415,20.9181678 19.1492661,20.9945144 L19,21 L5,21 C3.94563773,21 3.08183483,20.18415 3.00548573,19.1492661 L3,19 L3,5 C3,3.94563773 3.81587733,3.08183483 4.85073759,3.00548573 L5,3 L11.1707,3 Z M19.5128,3 C20.1351,3 20.4967,3.46833 20.5878,3.85625 C20.6791,4.24461 20.5633,4.82708 20.0029,5.10302 L19.5889579,5.31428293 C19.53627,5.3420676 19.4814802,5.37128802 19.424718,5.40194298 L19.0615142,5.60307716 L19.0615142,5.60307716 L18.657194,5.83858068 L18.657194,5.83858068 L18.2179767,6.10839419 C17.5360875,6.53881729 16.7574105,7.08483632 15.9764,7.74555 C14.3223,9.14484 12.7183,11.0073 11.9487,13.3162 C11.774,13.8402 11.2077,14.1233 10.6838,13.9487 C10.1598,13.774 9.87667,13.2077 10.0513,12.6838 C10.9792,9.90024 12.8736,7.75071 14.6847,6.21863 C15.11622,5.853542 15.546524,5.5205948 15.962812,5.21968088 L16.2722,5 L14,5 C13.4477,5 13,4.55228 13,4 C13,3.48716857 13.386027,3.06449347 13.8833761,3.0067278 L14,3 L19.5128,3 Z" id="形状" fill="#09244B"></path>
            </g>
        </g>
    </g>
</svg>