<?xml version="1.0" encoding="UTF-8"?>
<svg width="24px" height="24px" viewBox="0 0 24 24" version="1.1" xmlns="http://www.w3.org/2000/svg" xmlns:xlink="http://www.w3.org/1999/xlink">
    <title>share_2_fill</title>
    <g id="页面-1" stroke="none" stroke-width="1" fill="none" fill-rule="evenodd">
        <g id="System" transform="translate(-912.000000, -144.000000)">
            <g id="share_2_fill" transform="translate(912.000000, 144.000000)">
                <rect id="矩形" fill-rule="nonzero" x="0" y="0" width="24" height="24"></rect>
                <path d="M15,5.5 C15,3.567 16.567,2 18.5,2 C20.433,2 22,3.567 22,5.5 C22,7.433 20.433,9 18.5,9 C17.5174,9 16.6293,8.59506 15.9936,7.94296 L11.6699,10.2095 C11.8831,10.7654 12,11.3691 12,12 C12,12.6309 11.8831,13.2346 11.6699,13.7905 L15.9936,16.057 C16.6293,15.4049 17.5174,15 18.5,15 C20.433,15 22,16.567 22,18.5 C22,20.433 20.433,22 18.5,22 C16.567,22 15,20.433 15,18.5 C15,18.2702 15.0221,18.0455 15.0644,17.8281 L10.5885,15.4817 C9.67983,16.4181 8.40787,17 7,17 C4.23858,17 2,14.7614 2,12 C2,9.23858 4.23858,7 7,7 C8.40786,7 9.67982,7.58187 10.5885,8.51824 L15.0644,6.17191 C15.0222,5.95446 15,5.72982 15,5.5 Z" id="路径" fill="#09244B"></path>
            </g>
        </g>
    </g>
</svg>