<?xml version="1.0" encoding="UTF-8"?>
<svg width="24px" height="24px" viewBox="0 0 24 24" version="1.1" xmlns="http://www.w3.org/2000/svg" xmlns:xlink="http://www.w3.org/1999/xlink">
    <title>share_forward_line</title>
    <g id="页面-1" stroke="none" stroke-width="1" fill="none" fill-rule="evenodd">
        <g id="System" transform="translate(-1296.000000, 0.000000)" fill-rule="nonzero">
            <g id="share_forward_line" transform="translate(1296.000000, 0.000000)">
                 <path d="M24,0 L24,24 L0,24 L0,0 L24,0 Z M12.5934901,23.257841 L12.5819402,23.2595131 L12.5108777,23.2950439 L12.4918791,23.2987469 L12.4918791,23.2987469 L12.4767152,23.2950439 L12.4056548,23.2595131 C12.3958229,23.2563662 12.3870493,23.2590235 12.3821421,23.2649074 L12.3780323,23.275831 L12.360941,23.7031097 L12.3658947,23.7234994 L12.3769048,23.7357139 L12.4804777,23.8096931 L12.4953491,23.8136134 L12.4953491,23.8136134 L12.5071152,23.8096931 L12.6106902,23.7357139 L12.6232938,23.7196733 L12.6232938,23.7196733 L12.6266527,23.7031097 L12.609561,23.275831 C12.6075724,23.2657013 12.6010112,23.2592993 12.5934901,23.257841 L12.5934901,23.257841 Z M12.8583906,23.1452862 L12.8445485,23.1473072 L12.6598443,23.2396597 L12.6498822,23.2499052 L12.6498822,23.2499052 L12.6471943,23.2611114 L12.6650943,23.6906389 L12.6699349,23.7034178 L12.6699349,23.7034178 L12.678386,23.7104931 L12.8793402,23.8032389 C12.8914285,23.8068999 12.9022333,23.8029875 12.9078286,23.7952264 L12.9118235,23.7811639 L12.8776777,23.1665331 C12.8752882,23.1545897 12.8674102,23.1470016 12.8583906,23.1452862 L12.8583906,23.1452862 Z M12.1430473,23.1473072 C12.1332178,23.1423925 12.1221763,23.1452606 12.1156365,23.1525954 L12.1099173,23.1665331 L12.0757714,23.7811639 C12.0751323,23.7926639 12.0828099,23.8018602 12.0926481,23.8045676 L12.108256,23.8032389 L12.3092106,23.7104931 L12.3186497,23.7024347 L12.3186497,23.7024347 L12.3225043,23.6906389 L12.340401,23.2611114 L12.337245,23.2485176 L12.337245,23.2485176 L12.3277531,23.2396597 L12.1430473,23.1473072 Z" id="MingCute" fill-rule="nonzero"></path>
                <path d="M10.1141,4.49112 C10.1902,3.69599 11.0203,3.04172 11.8571,3.51856 C13.597,4.53773 15.2394,5.69825 16.8271,6.94049 C18.7862,8.48751 20.3603,9.94706 21.4737,11.1124 C21.9575,11.6189 21.9118,12.42 21.4496,12.9037 C20.3535,14.0504 19.1732,15.1172 17.9553,16.1321 C16.0168,17.7188 14.0104,19.257 11.8253,20.4902 C11.0837762,20.9083905 10.2812093,20.430073 10.1379535,19.6890453 L10.1215,19.576 L9.894,16.002 C8.07832,16.0402 6.31999,16.6644 4.91368,17.8247 L4.64911145,18.0472562 C4.60595411,18.0827127 4.56326828,18.1173356 4.52105815,18.1511013 L4.27353932,18.3432217 C4.23324877,18.3734649 4.19344231,18.402804 4.15412413,18.4312156 L3.92410804,18.590367 C3.84941152,18.6395822 3.77670169,18.6848995 3.70601211,18.7261315 L3.50003767,18.8373832 C2.53411255,19.3140465 2,18.8922854 2,17 C2,12.5958558 5.24520922,8.67741751 9.6316723,8.08306642 L9.891,8.05196 L10.1141,4.49112 Z M12.0229,5.96524 L11.8314,9.43709 C11.8178,9.68226 11.6283,9.88133 11.3841,9.90684 L10.0227,10.0491 C6.95767,10.4148 4.52633,12.8111 4.0752,15.9432 C5.5649625,14.845575 7.33483242,14.1777352 9.21039082,14.0308121 L9.60656,14.0076 L11.311,13.9716 C11.5806,13.966 11.8061,14.175 11.8208,14.4442 L12.0177,18.0397 C13.6209,17.0186 15.1491,15.8442 16.6817,14.5901 C17.6714,13.765 18.6261,12.9036 19.5391,11.9946 L19.2812448,11.7394025 L19.2812448,11.7394025 L18.7253219,11.2059158 C17.8516938,10.3839369 16.800625,9.4681175 15.5911,8.51285 C14.4254,7.60097 13.2427,6.74514 12.0229,5.96524 Z" id="形状" fill="#09244B"></path>
            </g>
        </g>
    </g>
</svg>