<svg xmlns="http://www.w3.org/2000/svg" width="24" height="24"><g fill="none"><path d="M24 0v24H0V0zM12.593 23.258l-.011.002-.071.035-.02.004-.014-.004-.071-.035c-.01-.004-.019-.001-.024.005l-.004.01-.017.428.005.02.01.013.104.074.015.004.012-.004.104-.074.012-.016.004-.017-.017-.427c-.002-.01-.009-.017-.017-.018m.265-.113-.013.002-.185.093-.01.01-.003.011.018.43.005.012.008.007.201.093c.012.004.023 0 .029-.008l.004-.014-.034-.614c-.003-.012-.01-.02-.02-.022m-.715.002a.023.023 0 0 0-.027.006l-.006.014-.034.614c0 .012.007.02.017.024l.015-.002.201-.093.01-.008.004-.011.017-.43-.003-.012-.01-.01z"/><path fill="#09244B" d="m10.114 4.491-.203 3.144-.02.417-.09.01C5.363 8.582 2 12.366 2 17c0 .457.034.91.102 1.357.279 1.845.489 2.024 1.772.498a8.953 8.953 0 0 1 1.04-1.03 7.958 7.958 0 0 1 4.754-1.818l.226-.005.061 1.229.166 2.345c.08.804.926 1.353 1.704.914.352-.198.695-.41 1.04-.62 1.787-1.118 3.46-2.403 5.09-3.738.96-.8 1.8-1.558 2.516-2.248.33-.323.66-.646.979-.98.462-.484.508-1.285.024-1.792-1.114-1.165-2.688-2.624-4.647-4.172-1.588-1.242-3.23-2.402-4.97-3.421-.837-.477-1.667.177-1.743.972"/></g></svg>