<svg width="24" height="24" viewBox="0 0 24 24" fill="none" xmlns="http://www.w3.org/2000/svg">
<rect width="24" height="24" fill="white" fill-opacity="0.01"/>
<path d="M8 12C8 11.4477 8.44772 11 9 11H11V9C11 8.44772 11.4477 8 12 8C12.5523 8 13 8.44772 13 9V11H15C15.5523 11 16 11.4477 16 12C16 12.5523 15.5523 13 15 13H13V15C13 15.5523 12.5523 16 12 16C11.4477 16 11 15.5523 11 15V13H9C8.44772 13 8 12.5523 8 12Z" fill="#09244B"/>
<path fill-rule="evenodd" clip-rule="evenodd" d="M11.2978 2.19546C11.7505 2.02567 12.2495 2.02567 12.7022 2.19546L19.7022 4.82046C20.4829 5.11318 21 5.85943 21 6.69312V12.0558C21 15.4648 19.074 18.5812 16.0249 20.1057L12.6708 21.7827C12.2485 21.9939 11.7515 21.9939 11.3292 21.7827L7.97508 20.1057C4.92602 18.5812 3 15.4648 3 12.0558V6.69312C3 5.85943 3.51715 5.11318 4.29775 4.82046L11.2978 2.19546ZM12 4.06812L5 6.69312V12.0558C5 14.7072 6.49802 17.1311 8.8695 18.3168L12 19.8821L15.1305 18.3168C17.502 17.1311 19 14.7072 19 12.0558V6.69312L12 4.06812Z" fill="#09244B"/>
</svg>
