<?xml version="1.0" encoding="UTF-8"?>
<svg width="24px" height="24px" viewBox="0 0 24 24" version="1.1" xmlns="http://www.w3.org/2000/svg" xmlns:xlink="http://www.w3.org/1999/xlink">
    <title>t_shirt_fill</title>
    <g id="页面-1" stroke="none" stroke-width="1" fill="none" fill-rule="evenodd">
        <g id="System" transform="translate(-1392.000000, -48.000000)">
            <g id="t_shirt_fill" transform="translate(1392.000000, 48.000000)">
                <rect id="矩形" fill-rule="nonzero" x="0" y="0" width="24" height="24"></rect>
                <path d="M5.70708,3.87879 C6.26969,3.31618 7.03275,3.00011 7.8284,3.00011 C8.6172,3.00011 9.77575,2.78054 10.1297,3.71099 C10.417,4.46619 11.1474,5.00011 12,5.00011 C12.8526,5.00011 13.5829,4.46619 13.8702,3.71099 C14.2242,2.78054 15.3827,3.00011 16.1715,3.00011 C16.9672,3.00011 17.7303,3.31618 18.2929,3.87879 L22,7.5859 C22.781,8.36695 22.781,9.63328 22,10.4143 L20.5224,11.8919 C20.0021,12.4122 19.2762,12.581 18.6221,12.418 L18.8937,17.8503 C18.9794,19.5638 17.6132,21.0001 15.8975,21.0001 L8.10247,21.0001 C6.38678,21.0001 5.02053,19.5639 5.10621,17.8503 L5.37783,12.418 C4.72371,12.581 3.99782,12.4122 3.47756,11.8919 L1.99997,10.4143 C1.21892,9.63328 1.21892,8.36695 1.99997,7.5859 L5.70708,3.87879 Z" id="路径" fill="#09244B"></path>
            </g>
        </g>
    </g>
</svg>