<svg width="24" height="24" viewBox="0 0 24 24" fill="none" xmlns="http://www.w3.org/2000/svg">
<rect width="24" height="24" fill="white" fill-opacity="0.01"/>
<path fill-rule="evenodd" clip-rule="evenodd" d="M7.12129 5.29289L3.41418 9L4.89178 10.4776L5.68035 9.42616C6.27819 8.62904 7.54684 9.08742 7.49709 10.0826L7.10372 17.9501C7.07516 18.5212 7.53057 19 8.10247 19H15.8975C16.4694 19 16.9248 18.5212 16.8962 17.9501L16.5029 10.0826C16.4531 9.08745 17.7218 8.62905 18.3196 9.42616L19.1082 10.4776L20.5858 9L16.8787 5.29289C16.5013 4.91549 15.9512 5 15.4646 5C14.7735 6.19463 13.4817 7 12 7C10.5182 7 9.22643 6.19463 8.53538 5C8.04871 5 7.49869 4.91549 7.12129 5.29289ZM5.70708 3.87868C6.26969 3.31607 7.03275 3 7.8284 3H9.09996C9.57173 3 9.97219 3.29681 10.1297 3.71088C10.417 4.46607 11.1474 5 12 5C12.8526 5 13.5829 4.46607 13.8702 3.71088C14.0278 3.29681 14.4282 3 14.9 3H16.1715C16.9672 3 17.7303 3.31607 18.2929 3.87868L22 7.58579C22.781 8.36684 22.781 9.63317 22 10.4142L20.5224 11.8918C20.0021 12.4121 19.2762 12.5809 18.6221 12.4179L18.8937 17.8502C18.9794 19.5637 17.6132 21 15.8975 21H8.10247C6.38678 21 5.02053 19.5637 5.10621 17.8502L5.37783 12.4179C4.72371 12.5809 3.99782 12.4121 3.47756 11.8918L1.99997 10.4142C1.21892 9.63317 1.21892 8.36684 1.99997 7.58579L5.70708 3.87868Z" fill="#09244B"/>
</svg>
