<svg xmlns="http://www.w3.org/2000/svg" width="24" height="24" viewBox="0 0 24 24"><title>three_quarters_circle_dash_fill</title><g fill="none" fill-rule="nonzero"><path d="M24 0v24H0V0zM12.594 23.258l-.012.002-.071.035-.02.004-.014-.004-.071-.036q-.016-.004-.024.006l-.004.01-.017.428.005.02.01.013.104.074.015.004.012-.004.104-.074.012-.016.004-.017-.017-.427q-.004-.016-.016-.018m.264-.113-.014.002-.184.093-.01.01-.003.011.018.43.005.012.008.008.201.092q.019.005.029-.008l.004-.014-.034-.614q-.005-.019-.02-.022m-.715.002a.02.02 0 0 0-.027.006l-.006.014-.034.614q.001.018.017.024l.015-.002.201-.093.01-.008.003-.011.018-.43-.003-.012-.01-.01z"/><path fill="#09244b" d="M1.5 12c0-4.788 3.205-8.826 7.584-10.09a1.5 1.5 0 0 1 .831 2.883 7.5 7.5 0 1 0 9.293 9.287 1.5 1.5 0 0 1 2.883.83C20.829 19.294 16.79 22.5 12 22.5 6.201 22.5 1.5 17.8 1.5 12m17.656-5.665a1.5 1.5 0 0 1 2.037.591 10.6 10.6 0 0 1 .893 2.152 1.5 1.5 0 0 1-2.88.838 7.6 7.6 0 0 0-.64-1.543 1.5 1.5 0 0 1 .59-2.038m-6.101-3.4a1.5 1.5 0 0 1 1.858-1.023 10.6 10.6 0 0 1 2.152.89 1.5 1.5 0 1 1-1.444 2.63 7.6 7.6 0 0 0-1.544-.64 1.5 1.5 0 0 1-1.022-1.858"/></g></svg>