<?xml version="1.0" encoding="UTF-8"?>
<svg width="24px" height="24px" viewBox="0 0 24 24" version="1.1" xmlns="http://www.w3.org/2000/svg" xmlns:xlink="http://www.w3.org/1999/xlink">
    <title>thumb_down_fill</title>
    <g id="页面-1" stroke="none" stroke-width="1" fill="none" fill-rule="evenodd">
        <g id="System" transform="translate(-528.000000, -144.000000)">
            <g id="thumb_down_fill" transform="translate(528.000000, 144.000000)">
                <rect id="矩形" fill-rule="nonzero" x="0" y="0" width="24" height="24"></rect>
                <path d="M9.50003,21.5 C10.8556,21.5 11.7941,20.6479 12.3945,19.4472 C12.9168,18.4025 12.9661,17.1474 12.9915,16 L17.8264,16 C19.5815,16 20.9618,14.4999 20.8161,12.7509 L20.455,8.41868 C20.1527,4.79064 17.1199,2 13.4792,2 L11.9667,2 C9.99963,2 8.17139,2.81832 6.89975,4.17854 C6.45237,4.06181 5.98314,3.99988 5.5,3.99988 C4.39178,3.99988 3.47158,4.62092 2.87596,5.60831 C2.2969,6.56825 2,7.89344 2,9.49988 C2,11.1063 2.2969,12.4315 2.87596,13.3914 C3.47158,14.3788 4.39178,14.9999 5.5,14.9999 C5.78149,14.9999 6.07864,14.9504 6.37732,14.8664 C6.83483,16.0656 7.16111,17.3027 7.00687,18.6008 C6.83517,20.0458 8.01551,21.5 9.50003,21.5 Z" id="路径" fill="#09244B"></path>
            </g>
        </g>
    </g>
</svg>