<?xml version="1.0" encoding="UTF-8"?>
<svg width="24px" height="24px" viewBox="0 0 24 24" version="1.1" xmlns="http://www.w3.org/2000/svg" xmlns:xlink="http://www.w3.org/1999/xlink">
    <title>thumb_up_fill</title>
    <g id="页面-1" stroke="none" stroke-width="1" fill="none" fill-rule="evenodd">
        <g id="System" transform="translate(-576.000000, -144.000000)">
            <g id="thumb_up_fill" transform="translate(576.000000, 144.000000)">
                <rect id="矩形" fill-rule="nonzero" x="0" y="0" width="24" height="24"></rect>
                <path d="M9.50003,2.5 C10.8556,2.5 11.7941,3.35208 12.3945,4.55279 C12.9168,5.59751 12.9661,6.85257 12.9915,8 L17.8264,8 C19.5815,8 20.9618,9.50008 20.8161,11.2491 L20.455,15.5813 C20.1527,19.2094 17.1199,22 13.4792,22 L11.9667,22 C10.2095,22 8.56303,21.347 7.32521,20.2379 C7.0519,19.9931 6.67949,19.8866 6.31648,19.9403 C6.0499,19.9797 5.77724,20.0001 5.5,20.0001 C4.39178,20.0001 3.47158,19.3791 2.87596,18.3917 C2.2969,17.4317 2,16.1066 2,14.5001 C2,12.8937 2.2969,11.5685 2.87596,10.6086 C3.47158,9.62116 4.39178,9.00012 5.5,9.00012 C5.78149,9.00012 6.07864,9.04963 6.37732,9.13358 C6.83483,7.9344 7.16111,6.69732 7.00687,5.39924 C6.83517,3.95421 8.01551,2.5 9.50003,2.5 Z" id="路径" fill="#09244B"></path>
            </g>
        </g>
    </g>
</svg>