<svg xmlns="http://www.w3.org/2000/svg" width="24" height="24"><g fill="none" fill-rule="evenodd"><path d="M24 0v24H0V0zM12.594 23.258l-.012.002-.071.035-.02.004-.014-.004-.071-.036c-.01-.003-.019 0-.024.006l-.004.01-.017.428.005.02.01.013.104.074.015.004.012-.004.104-.074.012-.016.004-.017-.017-.427c-.002-.01-.009-.017-.016-.018m.264-.113-.014.002-.184.093-.01.01-.003.011.018.43.005.012.008.008.201.092c.012.004.023 0 .029-.008l.004-.014-.034-.614c-.003-.012-.01-.02-.02-.022m-.715.002a.023.023 0 0 0-.027.006l-.006.014-.034.614c0 .012.007.02.017.024l.015-.002.201-.093.01-.008.003-.011.018-.43-.003-.012-.01-.01z"/><path fill="#09244B" d="M11.463 2.891a1.5 1.5 0 0 1-1.131 1.795c-.185.042-.367.09-.546.146A1.5 1.5 0 1 1 8.9 1.965c.252-.078.508-.146.767-.205a1.5 1.5 0 0 1 1.795 1.131m1.074 0a1.5 1.5 0 0 1 1.795-1.13C19.008 2.82 22.5 7 22.5 12c0 5.799-4.701 10.5-10.5 10.5-4.999 0-9.179-3.492-10.24-8.168a1.5 1.5 0 0 1 2.926-.664 7.5 7.5 0 1 0 8.982-8.982 1.5 1.5 0 0 1-1.13-1.795M6.98 4.381A1.5 1.5 0 0 1 6.9 6.5a7.555 7.555 0 0 0-.4.4 1.5 1.5 0 1 1-2.2-2.04c.18-.194.367-.38.56-.56a1.5 1.5 0 0 1 2.12.08M12 5.5A1.5 1.5 0 0 1 13.5 7v4.379l2.56 2.56a1.5 1.5 0 1 1-2.12 2.122l-3-3A1.5 1.5 0 0 1 10.5 12V7A1.5 1.5 0 0 1 12 5.5M3.84 7.91a1.5 1.5 0 0 1 .992 1.876c-.055.179-.104.361-.146.546a1.5 1.5 0 0 1-2.926-.664c.059-.26.127-.515.205-.767a1.5 1.5 0 0 1 1.876-.991"/></g></svg>