<?xml version="1.0" encoding="UTF-8"?>
<svg width="24px" height="24px" viewBox="0 0 24 24" version="1.1" xmlns="http://www.w3.org/2000/svg" xmlns:xlink="http://www.w3.org/1999/xlink">
    <title>time_line</title>
    <g id="页面-1" stroke="none" stroke-width="1" fill="none" fill-rule="evenodd">
        <g id="System" transform="translate(-1440.000000, 0.000000)" fill-rule="nonzero">
            <g id="time_line" transform="translate(1440.000000, 0.000000)">
                <rect id="矩形" x="0" y="0" width="24" height="24"></rect>
                <path d="M12,2 C17.5228,2 22,6.47715 22,12 C22,17.5228 17.5228,22 12,22 C6.47715,22 2,17.5228 2,12 C2,6.47715 6.47715,2 12,2 Z M12,4 C7.58172,4 4,7.58172 4,12 C4,16.4183 7.58172,20 12,20 C16.4183,20 20,16.4183 20,12 C20,7.58172 16.4183,4 12,4 Z M12,6 C12.51285,6 12.9355092,6.38604429 12.9932725,6.88337975 L13,7 L13,11.5858 L15.7071,14.2929 C16.0976,14.6834 16.0976,15.3166 15.7071,15.7071 C15.3466385,16.0675615 14.7793793,16.0952893 14.3871027,15.7902834 L14.2929,15.7071 L11.2929,12.7071 C11.13665,12.55085 11.0374139,12.3481417 11.0086755,12.1314403 L11,12 L11,7 C11,6.44772 11.4477,6 12,6 Z" id="形状" fill="#09244B"></path>
            </g>
        </g>
    </g>
</svg>