<?xml version="1.0" encoding="UTF-8"?>
<svg width="24px" height="24px" viewBox="0 0 24 24" version="1.1" xmlns="http://www.w3.org/2000/svg" xmlns:xlink="http://www.w3.org/1999/xlink">
    <title>tool_line</title>
    <g id="页面-1" stroke="none" stroke-width="1" fill="none" fill-rule="evenodd">
        <g id="System" transform="translate(-1008.000000, -96.000000)">
            <g id="tool_line" transform="translate(1008.000000, 96.000000)">
                <rect id="矩形" fill-rule="nonzero" x="0" y="0" width="24" height="24"></rect>
                <path d="M6.79772,2.88434 C9.31766,1.87546 12.3088,2.38988 14.3524,4.43351 C16.2521,6.33317 16.8304,9.05158 16.0921,11.4491 L20.4864,15.1673 C22.1658,16.5884 22.272,19.1413 20.7164,20.697 C19.1607,22.2526 16.6078,22.1464 15.1867,20.467 L11.4685,16.0727 C9.07099,16.811 6.35258,16.2327 4.45292,14.333 C2.40914,12.2892 1.8948,9.2978 2.90398,6.77775 C3.26192,5.88393 4.38341,5.77096 4.96734,6.40525 L8.1686,9.88261 L9.61513,9.59504 L9.90431,8.14649 L6.42572,4.94827 C5.79081,4.36453 5.90344,3.24238 6.79772,2.88434 Z M8.80475,4.41872 L11.5684,6.95959 C11.8896,7.25497 12.0336,7.69652 11.9482,8.1245 L11.4784,10.4777 C11.3795,10.9732 10.9919,11.3605 10.4963,11.459 L8.14567,11.9263 C7.71826,12.0113 7.27745,11.8675 6.9823,11.5469 L4.43834,8.78355 C4.26156,10.2558 4.73873,11.7904 5.86713,12.9188 C7.31902,14.3707 9.44333,14.7444 11.2422,14.0342 C11.7261,13.8431 12.304,13.9638 12.6638,14.3891 L16.7135,19.1751 C17.3788,19.9613 18.5739,20.011 19.3022,19.2827 C20.0304,18.5545 19.9807,17.3594 19.1945,16.6941 L14.4085,12.6444 C13.9832,12.2846 13.8625,11.7067 14.0536,11.2228 C14.7639,9.42392 14.3901,7.29961 12.9382,5.84772 C11.8103,4.71978 10.2765,4.24253 8.80475,4.41872 Z" id="形状" fill="#09244B"></path>
            </g>
        </g>
    </g>
</svg>