<?xml version="1.0" encoding="UTF-8"?>
<svg width="24px" height="24px" viewBox="0 0 24 24" version="1.1" xmlns="http://www.w3.org/2000/svg" xmlns:xlink="http://www.w3.org/1999/xlink">
    <title>unlock_fill</title>
    <g id="页面-1" stroke="none" stroke-width="1" fill="none" fill-rule="evenodd">
        <g id="System" transform="translate(-478.000000, -240.000000)">
            <g id="unlock_fill" transform="translate(478.000000, 240.000000)">
                <rect id="矩形" fill-rule="nonzero" x="0" y="0" width="24" height="24"></rect>
                <path d="M12,2 C13.0914,2 14.1174,2.29247 15.0008,2.80367 C15.4789,3.08027 15.6421,3.69202 15.3655,4.17005 C15.0889,4.64807 14.4772,4.81136 13.9992,4.53476 C13.4118,4.19488 12.7302,4 12,4 C9.79086,4 8,5.79086 8,8 L19,8 C20.1046,8 21,8.89543 21,10 L21,20 C21,21.1046 20.1046,22 19,22 L5,22 C3.89543,22 3,21.1046 3,20 L3,10 C3,8.89543 3.89543,8 5,8 L6,8 C6,4.68629 8.68629,2 12,2 Z M12,12 C10.8954,12 10,12.8954 10,14 C10,14.7403 10.4022,15.3866 11,15.7324 L11,17 C11,17.5523 11.4477,18 12,18 C12.5523,18 13,17.5523 13,17 L13,15.7324 C13.5978,15.3866 14,14.7403 14,14 C14,12.8954 13.1046,12 12,12 Z M19.9182,5.02123 L20.8842,5.28005 C21.4176,5.42299 21.7342,5.97133 21.5913,6.50479 C21.4483,7.03826 20.9,7.35484 20.3665,7.2119 L19.4006,6.95308 C18.8671,6.81014 18.5506,6.2618 18.6935,5.72833 C18.8364,5.19487 19.3848,4.87829 19.9182,5.02123 Z M18.6334,2.08878 C19.1669,2.23172 19.4835,2.78005 19.3405,3.31352 L19.2111,3.79648 C19.0682,4.32995 18.5199,4.64653 17.9864,4.50359 C17.4529,4.36065 17.1363,3.81231 17.2793,3.27884 L17.4087,2.79588 C17.5516,2.26242 18.1,1.94583 18.6334,2.08878 Z" id="形状" fill="#09244B"></path>
            </g>
        </g>
    </g>
</svg>