<?xml version="1.0" encoding="UTF-8"?>
<svg width="24px" height="24px" viewBox="0 0 24 24" version="1.1" xmlns="http://www.w3.org/2000/svg" xmlns:xlink="http://www.w3.org/1999/xlink">
    <title>version_fill</title>
    <g id="页面-1" stroke="none" stroke-width="1" fill="none" fill-rule="evenodd">
        <g id="System" transform="translate(-1488.000000, -48.000000)" fill-rule="nonzero">
            <g id="version_fill" transform="translate(1488.000000, 48.000000)">
                <rect id="矩形" x="0" y="0" width="24" height="24"></rect>
                <path d="M20.2451,14.75 C21.18,15.3637 21.1371,16.7868 20.1165,17.3263 L12.9348,21.1225 C12.35,21.4316 11.6503,21.4316 11.0655,21.1225 L3.88381,17.3263 C2.86325,16.7868 2.82034,15.3638 3.75508,14.75 L3.817995,14.7892 L3.817995,14.7892 L11.0654,18.6222 C11.6502,18.9313 12.35,18.9313 12.9347,18.6222 L20.1164,14.826 C20.1612,14.8023 20.2041,14.7769 20.2451,14.75 Z M20.2451,10.75 C21.1393522,11.3370174 21.138982,12.6645822 20.2440771,13.2510586 L20.1165,13.3263 L12.9348,17.1225 C12.4031636,17.4035 11.7765686,17.4290455 11.227667,17.1991364 L11.0655,17.1225 L3.88381,13.3263 C2.86325,12.7868 2.82034,11.3638 3.75508,10.75 L3.817995,10.7892 L3.817995,10.7892 L11.0654,14.6222 C11.5970364,14.9032 12.223714,14.9287455 12.7725555,14.6988364 L12.9347,14.6222 L20.1164,10.826 C20.1612,10.8023 20.2041,10.7769 20.2451,10.75 Z M12.9347,2.87782 L20.1164,6.67404 C21.1818,7.23718 21.1818,8.76316 20.1164,9.32629 L12.9347,13.1225 C12.35,13.4316 11.6502,13.4316 11.0654,13.1225 L3.88373,9.32629 C2.81838,8.76315 2.81838,7.23718 3.88373,6.67404 L11.0654,2.87782 C11.6502,2.56872 12.35,2.56872 12.9347,2.87782 Z" id="形状" fill="#09244B"></path>
            </g>
        </g>
    </g>
</svg>