<?xml version="1.0" encoding="UTF-8"?>
<svg width="24px" height="24px" viewBox="0 0 24 24" version="1.1" xmlns="http://www.w3.org/2000/svg" xmlns:xlink="http://www.w3.org/1999/xlink">
    <title>warning_fill</title>
    <g id="页面-1" stroke="none" stroke-width="1" fill="none" fill-rule="evenodd">
        <g id="System" transform="translate(-1488.000000, -48.000000)" fill-rule="nonzero">
            <g id="warning_fill" transform="translate(1488.000000, 48.000000)">
                <rect id="矩形" x="0" y="0" width="24" height="24"></rect>
                <path d="M12,2 C17.5228,2 22,6.47715 22,12 C22,17.5228 17.5228,22 12,22 C6.47715,22 2,17.5228 2,12 C2,6.47715 6.47715,2 12,2 Z M12,15 C11.4477,15 11,15.4477 11,16 C11,16.5523 11.4477,17 12,17 C12.5523,17 13,16.5523 13,16 C13,15.4477 12.5523,15 12,15 Z M12,6 C11.48715,6 11.0644908,6.38604429 11.0067275,6.88337975 L11,7 L11,13 C11,13.5523 11.4477,14 12,14 C12.51285,14 12.9355092,13.613973 12.9932725,13.1166239 L13,13 L13,7 C13,6.44772 12.5523,6 12,6 Z" id="形状" fill="#09244B"></path>
            </g>
        </g>
    </g>
</svg>