<?xml version="1.0" encoding="UTF-8"?>
<svg width="24px" height="24px" viewBox="0 0 24 24" version="1.1" xmlns="http://www.w3.org/2000/svg" xmlns:xlink="http://www.w3.org/1999/xlink">
    <title>wastebasket_line</title>
    <g id="页面-1" stroke="none" stroke-width="1" fill="none" fill-rule="evenodd">
        <g id="System" transform="translate(-816.000000, -192.000000)">
            <g id="wastebasket_line" transform="translate(816.000000, 192.000000)">
                <rect id="矩形" fill-rule="nonzero" x="0" y="0" width="24" height="24"></rect>
                <path d="M12.0001,3 C9.71855,3 7.61329,3.28764 6.04493,3.77775 C5.26671,4.02095 4.56418,4.33126 4.0345,4.7226 C3.25009,5.30215 2.86335,6.18785 3.01169,7.15206 L4.54744,17.1344 C4.88566,19.3329 6.45072,21.2947 8.79429,21.7012 C9.75615,21.868 10.871,22 12.0001,22 C13.1291,22 14.244,21.868 15.2058,21.7012 C17.5494,21.2947 19.1145,19.3329 19.4527,17.1344 L20.9884,7.15206 C21.1368,6.18785 20.75,5.30215 19.9656,4.7226 C19.4359,4.33126 18.7334,4.02095 17.9552,3.77775 C16.3868,3.28764 14.2816,3 12.0001,3 Z M6.64148,7.31329 C7.96856,7.728 9.86329,8 12.0001,8 C14.1368,8 16.0316,7.728 17.3586,7.31329 C19.0011,6.80002 19.1441,6.24468 17.3586,5.68671 C16.0316,5.272 14.1368,5 12.0001,5 C9.86329,5 7.96856,5.272 6.64148,5.68671 C4.85599,6.24468 4.99901,6.80002 6.64148,7.31329 Z M18.6862,8.96356 C16.5938,9.80266 14.2317,10 12.0001,10 C9.76843,10 7.40629,9.80266 5.31391,8.96356 L6.52418,16.8303 C6.75602,18.3373 7.78583,19.4964 9.13611,19.7306 C10.0235,19.8846 11.0189,20 12.0001,20 C12.9813,20 13.9767,19.8846 14.864,19.7306 C16.2143,19.4964 17.2441,18.3373 17.4759,16.8303 L18.6862,8.96356 Z" id="形状" fill="#09244B"></path>
            </g>
        </g>
    </g>
</svg>