<svg xmlns="http://www.w3.org/2000/svg" width="24" height="24" viewBox="0 0 24 24"><g fill="none" fill-rule="evenodd"><path d="M24,0 L24,24 L0,24 L0,0 L24,0 Z M12.5935,23.2578 L12.5819,23.2595 L12.5109,23.295 L12.4919,23.2987 L12.4767,23.295 L12.4057,23.2595 C12.3958,23.2564 12.387,23.259 12.3821,23.2649 L12.378,23.2758 L12.3609,23.7031 L12.3659,23.7235 L12.3769,23.7357 L12.4805,23.8097 L12.4953,23.8136 L12.5071,23.8097 L12.6107,23.7357 L12.6233,23.7197 L12.6267,23.7031 L12.6096,23.2758 C12.6076,23.2657 12.601,23.2593 12.5935,23.2578 Z M12.8584,23.1453 L12.8445,23.1473 L12.6598,23.2397 L12.6499,23.2499 L12.6472,23.2611 L12.6651,23.6906 L12.6699,23.7034 L12.6784,23.7105 L12.8793,23.8032 C12.8914,23.8069 12.9022,23.803 12.9078,23.7952 L12.9118,23.7812 L12.8777,23.1665 C12.8753,23.1546 12.8674,23.147 12.8584,23.1453 Z M12.143,23.1473 C12.1332,23.1424 12.1222,23.1453 12.1156,23.1526 L12.1099,23.1665 L12.0758,23.7812 C12.0751,23.7927 12.0828,23.8019 12.0926,23.8046 L12.1083,23.8032 L12.3092,23.7105 L12.3186,23.7024 L12.3225,23.6906 L12.3404,23.2611 L12.3372,23.2485 L12.3278,23.2397 L12.143,23.1473 Z"/><path fill="#09244B" d="M15.1532,9.46147 C15.6838,8.78274 16,7.9283 16,7 C16,4.79086 14.2091,3 12,3 C9.79086,3 8,4.79086 8,7 C8,7.9283 8.31622,8.78273 8.84682,9.46147 L6.76199,13.0725 C6.51532,13.0249 6.26057,13 6,13 C3.79086,13 2,14.7909 2,17 C2,19.2091 3.79086,21 6,21 C7.48056,21 8.77325,20.1956 9.46487,19 L14.5351,19 C15.2267,20.1956 16.5194,21 18,21 C20.2091,21 22,19.2091 22,17 C22,14.7909 20.2091,13 18,13 C17.7394,13 17.4847,13.0249 17.238,13.0725 L15.1532,9.46147 Z M15.4276,13.9368 L13.5518,10.6878 C13.0746,10.8889 12.5503,11 12,11 C11.4497,11 10.9254,10.8889 10.4482,10.6878 L8.57241,13.9368 C9.44526,14.6705 10,15.7705 10,17 L14,17 C14,15.7705 14.5547,14.6705 15.4276,13.9368 Z"/></g></svg>