<?xml version="1.0" encoding="UTF-8"?>
<svg width="24px" height="24px" viewBox="0 0 24 24" version="1.1" xmlns="http://www.w3.org/2000/svg" xmlns:xlink="http://www.w3.org/1999/xlink">
    <title>air_balloon_fill</title>
    <g id="Icon" stroke="none" stroke-width="1" fill="none" fill-rule="evenodd">
        <g id="Sport" transform="translate(-144.000000, -48.000000)">
            <g id="air_balloon_fill" transform="translate(144.000000, 48.000000)">
                <path d="M24,0 L24,24 L0,24 L0,0 L24,0 Z M12.5935,23.2578 L12.5819,23.2595 L12.5109,23.295 L12.4919,23.2987 L12.4767,23.295 L12.4057,23.2595 C12.3958,23.2564 12.387,23.259 12.3821,23.2649 L12.378,23.2758 L12.3609,23.7031 L12.3659,23.7235 L12.3769,23.7357 L12.4805,23.8097 L12.4953,23.8136 L12.5071,23.8097 L12.6107,23.7357 L12.6233,23.7197 L12.6267,23.7031 L12.6096,23.2758 C12.6076,23.2657 12.601,23.2593 12.5935,23.2578 Z M12.8584,23.1453 L12.8445,23.1473 L12.6598,23.2397 L12.6499,23.2499 L12.6472,23.2611 L12.6651,23.6906 L12.6699,23.7034 L12.6784,23.7105 L12.8793,23.8032 C12.8914,23.8069 12.9022,23.803 12.9078,23.7952 L12.9118,23.7812 L12.8777,23.1665 C12.8753,23.1546 12.8674,23.147 12.8584,23.1453 Z M12.143,23.1473 C12.1332,23.1424 12.1222,23.1453 12.1156,23.1526 L12.1099,23.1665 L12.0758,23.7812 C12.0751,23.7927 12.0828,23.8019 12.0926,23.8046 L12.1083,23.8032 L12.3092,23.7105 L12.3186,23.7024 L12.3225,23.6906 L12.3404,23.2611 L12.3372,23.2485 L12.3278,23.2397 L12.143,23.1473 Z" id="MingCute" fill-rule="nonzero"></path>
                <path d="M13,19 C13.5523,19 14,19.4477 14,20 L14,21 C14,21.5523 13.5523,22 13,22 L11,22 C10.4477,22 10,21.5523 10,21 L10,20 C10,19.4477 10.4477,19 11,19 L13,19 Z M12,2 C16.4183,2 20,5.58172 20,10 C20,12.8561 18.569,15.1058 16.9257,16.6122 C16.1024,17.3668 15.2077,17.9534 14.3696,18.3549 C13.5522,18.7466 12.7097,19 12,19 C11.2903,19 10.4478,18.7466 9.63038,18.3549 C8.79229,17.9534 7.89756,17.3668 7.07428,16.6122 C5.43103,15.1058 4,12.8561 4,10 C4,5.58172 7.58172,2 12,2 Z M12,3 C11.1076,3 10.2542,3.16699 9.46935,3.47144 C9.2755,3.79426 9.06107,4.18335 8.84714,4.63259 C8.17618,6.0416 7.5,8.06443 7.5,10.5 C7.5,12.7923294 8.09896913,14.7190837 8.7288198,16.1125212 L8.84714,16.3675 L8.94326519,16.5653444 L9.13402,16.9363 L9.38744065,17.0916989 C10.2296912,17.5900591 11.0417579,17.8913901 11.6635929,17.975629 L11.8442764,17.9943678 L12.0001,18 L12.1559022,17.9943678 L12.3365629,17.975629 C12.9583225,17.8913901 13.7703245,17.5900591 14.6125768,17.0916989 L14.866,16.9363 L15.0567407,16.5653444 L15.1529,16.3675 L15.2712104,16.1125212 C15.9010131,14.7190837 16.5,12.7923294 16.5,10.5 C16.5,8.06443 15.8238,6.0416 15.1529,4.63259 C14.9389,4.18335 14.7245,3.79426 14.5307,3.47144 C13.7458,3.16699 12.8924,3 12,3 Z M12,3.00767 C12.00096,3.141452 12.028632,3.2755364 12.0837936,3.4013156 L12.1481472,3.5240076 L12.3570281,3.80455109 L12.5586,4.09379 L12.7305719,4.36114875 L12.8444896,4.54873944 C13.000852,4.8121692 13.17376,5.128416 13.3471,5.49246 C13.9262,6.70845 14.5,8.43562 14.5,10.5 C14.5,12.5644 13.9262,14.2916 13.3471,15.5076 C13.20265,15.81095 13.0585,16.081125 12.923975,16.3152125 L12.8250316,16.4839662 L12.5992013,16.8448526 L12.5586,16.9063 L12.3570281,17.1954953 L12.1629178,17.4528697 C12.1004263,17.5482791 12.0561612,17.6513977 12.0297134,17.7576359 L12.0091896,17.864744 L12,17.994 L11.9909896,17.864744 L11.9634328,17.731144 C11.9470627,17.6724293 11.92518,17.6147956 11.8977222,17.5590296 L11.8523464,17.47688 L11.6429719,17.1954953 L11.4414,16.9063 L11.2694281,16.6389141 L11.1555104,16.4513112 C10.999148,16.187868 10.82624,15.87162 10.6529,15.5076 C10.0738,14.2916 9.5,12.5644 9.5,10.5 C9.5,8.43562 10.0738,6.70845 10.6529,5.49246 C10.79735,5.18909 10.9415,4.9189125 11.076025,4.6848325 L11.1749684,4.51608617 L11.4007987,4.15523007 L11.4414,4.09379 L11.6429719,3.80455109 L11.769,3.63925 L11.8518528,3.5240076 C11.949952,3.3649596 11.99872,3.186046 12,3.00767 Z" id="形状" fill="#09244B"></path>
            </g>
        </g>
    </g>
</svg>