<?xml version="1.0" encoding="UTF-8"?>
<svg width="24px" height="24px" viewBox="0 0 24 24" version="1.1" xmlns="http://www.w3.org/2000/svg" xmlns:xlink="http://www.w3.org/1999/xlink">
    <title>air_balloon_line</title>
    <g id="Icon" stroke="none" stroke-width="1" fill="none" fill-rule="evenodd">
        <g id="Sport" transform="translate(-144.000000, 0.000000)">
            <g id="air_balloon_line" transform="translate(144.000000, 0.000000)">
                <path d="M24,0 L24,24 L0,24 L0,0 L24,0 Z M12.5935,23.2578 L12.5819,23.2595 L12.5109,23.295 L12.4919,23.2987 L12.4767,23.295 L12.4057,23.2595 C12.3958,23.2564 12.387,23.259 12.3821,23.2649 L12.378,23.2758 L12.3609,23.7031 L12.3659,23.7235 L12.3769,23.7357 L12.4805,23.8097 L12.4953,23.8136 L12.5071,23.8097 L12.6107,23.7357 L12.6233,23.7197 L12.6267,23.7031 L12.6096,23.2758 C12.6076,23.2657 12.601,23.2593 12.5935,23.2578 Z M12.8584,23.1453 L12.8445,23.1473 L12.6598,23.2397 L12.6499,23.2499 L12.6472,23.2611 L12.6651,23.6906 L12.6699,23.7034 L12.6784,23.7105 L12.8793,23.8032 C12.8914,23.8069 12.9022,23.803 12.9078,23.7952 L12.9118,23.7812 L12.8777,23.1665 C12.8753,23.1546 12.8674,23.147 12.8584,23.1453 Z M12.143,23.1473 C12.1332,23.1424 12.1222,23.1453 12.1156,23.1526 L12.1099,23.1665 L12.0758,23.7812 C12.0751,23.7927 12.0828,23.8019 12.0926,23.8046 L12.1083,23.8032 L12.3092,23.7105 L12.3186,23.7024 L12.3225,23.6906 L12.3404,23.2611 L12.3372,23.2485 L12.3278,23.2397 L12.143,23.1473 Z" id="MingCute" fill-rule="nonzero"></path>
                <path d="M13,19 C13.5523,19 14,19.4477 14,20 L14,20 L14,21 C14,21.5523 13.5523,22 13,22 L13,22 L11,22 C10.4477,22 10,21.5523 10,21 L10,21 L10,20 C10,19.4477 10.4477,19 11,19 L11,19 Z M12,2 C16.4183,2 20,5.58172 20,10 C20,12.8561 18.569,15.1058 16.9257,16.6122 C16.1024,17.3668 15.2077,17.9534 14.3696,18.3549 C13.5522,18.7466 12.7097,19 12,19 L12,19 L11.7587314,18.9907727 C11.1033874,18.9419815 10.3569756,18.7030778 9.63038,18.3549 C8.79229,17.9534 7.89756,17.3668 7.07428,16.6122 C5.43103,15.1058 4,12.8561 4,10 C4,5.58172 7.58172,2 12,2 Z M12,4.81918 C11.3367,6.01003 10.5,8.00823 10.5,10.5001 C10.5,12.992 11.3367,14.9902 12,16.181 C12.6633,14.9902 13.5,12.992 13.5,10.5001 C13.5,8.00823 12.6633,6.01003 12,4.81918 Z M9.98784,4.34572 C7.66381,5.17282 6,7.39211 6,10 C6,12.1439 7.06897,13.8942 8.42572,15.1378 C8.85247,15.529 9.30051,15.8628 9.73928,16.1356 C9.10288,14.7344 8.5,12.8007 8.5,10.5001 C8.5,7.90053 9.26975,5.7694 9.98784,4.34572 Z M14.0122,4.34572 C14.7302,5.7694 15.5,7.90053 15.5,10.5001 C15.5,12.8007 14.8971,14.7344 14.2607,16.1356 C14.6995,15.8628 15.1475,15.529 15.5743,15.1378 C16.931,13.8942 18,12.1439 18,10 C18,7.39211 16.3362,5.17282 14.0122,4.34572 Z" id="形状结合" fill="#09244B"></path>
            </g>
        </g>
    </g>
</svg>