<svg xmlns="http://www.w3.org/2000/svg" width="24" height="24"><g fill="none" fill-rule="evenodd"><path d="M24 0v24H0V0zM12.594 23.258l-.012.002-.071.035-.02.004-.014-.004-.071-.036c-.01-.003-.019 0-.024.006l-.004.01-.017.428.005.02.01.013.104.074.015.004.012-.004.104-.074.012-.016.004-.017-.017-.427c-.002-.01-.009-.017-.016-.018m.264-.113-.014.002-.184.093-.01.01-.003.011.018.43.005.012.008.008.201.092c.012.004.023 0 .029-.008l.004-.014-.034-.614c-.003-.012-.01-.02-.02-.022m-.715.002a.023.023 0 0 0-.027.006l-.006.014-.034.614c0 .012.007.02.017.024l.015-.002.201-.093.01-.008.003-.011.018-.43-.003-.012-.01-.01z"/><path fill="#09244B" d="M7.457 5.027c.225-.293.46-.57.7-.829A4.99 4.99 0 0 0 12 6a4.99 4.99 0 0 0 3.844-1.802c.24.258.474.536.7.83C17.896 6.79 19 9.25 19 12s-1.103 5.209-2.457 6.973c-.225.293-.46.57-.7.829A4.99 4.99 0 0 0 12 18a4.99 4.99 0 0 0-3.844 1.802c-.24-.258-.474-.536-.7-.83C6.104 17.21 5 14.75 5 12s1.103-5.209 2.457-6.973M13 9a1 1 0 1 0-2 0 1 1 0 1 0 0 2v2a1 1 0 1 0 0 2 1 1 0 1 0 2 0 1 1 0 1 0 0-2v-2a1 1 0 1 0 0-2M9.66 21.122c.723.5 1.547.878 2.34.878.793 0 1.617-.378 2.34-.878A2.994 2.994 0 0 0 12 20c-.946 0-1.79.438-2.34 1.122M12 2c.793 0 1.617.378 2.34.878A2.994 2.994 0 0 1 12 4c-.946 0-1.79-.438-2.34-1.122C10.383 2.378 11.207 2 12 2"/></g></svg>