<?xml version="1.0" encoding="UTF-8"?>
<svg width="24px" height="24px" viewBox="0 0 24 24" version="1.1" xmlns="http://www.w3.org/2000/svg" xmlns:xlink="http://www.w3.org/1999/xlink">
    <title>badminton_line</title>
    <g id="Icon" stroke="none" stroke-width="1" fill="none" fill-rule="evenodd">
        <g id="Sport" transform="translate(-288.000000, 0.000000)">
            <g id="badminton_line" transform="translate(288.000000, 0.000000)">
                <path d="M24,0 L24,24 L0,24 L0,0 L24,0 Z M12.5935,23.2578 L12.5819,23.2595 L12.5109,23.295 L12.4919,23.2987 L12.4767,23.295 L12.4057,23.2595 C12.3958,23.2564 12.387,23.259 12.3821,23.2649 L12.378,23.2758 L12.3609,23.7031 L12.3659,23.7235 L12.3769,23.7357 L12.4805,23.8097 L12.4953,23.8136 L12.5071,23.8097 L12.6107,23.7357 L12.6233,23.7197 L12.6267,23.7031 L12.6096,23.2758 C12.6076,23.2657 12.601,23.2593 12.5935,23.2578 Z M12.8584,23.1453 L12.8445,23.1473 L12.6598,23.2397 L12.6499,23.2499 L12.6472,23.2611 L12.6651,23.6906 L12.6699,23.7034 L12.6784,23.7105 L12.8793,23.8032 C12.8914,23.8069 12.9022,23.803 12.9078,23.7952 L12.9118,23.7812 L12.8777,23.1665 C12.8753,23.1546 12.8674,23.147 12.8584,23.1453 Z M12.143,23.1473 C12.1332,23.1424 12.1222,23.1453 12.1156,23.1526 L12.1099,23.1665 L12.0758,23.7812 C12.0751,23.7927 12.0828,23.8019 12.0926,23.8046 L12.1083,23.8032 L12.3092,23.7105 L12.3186,23.7024 L12.3225,23.6906 L12.3404,23.2611 L12.3372,23.2485 L12.3278,23.2397 L12.143,23.1473 Z" id="MingCute" fill-rule="nonzero"></path>
                <path d="M3.90491,5.7067 C3.25976,3.9003 4.59893,2 6.51709,2 C7.20804,2 7.84795,2.25468 8.33873,2.68202 C8.8291,2.25914 9.46899,2 10.1787,2 C10.8729,2 11.5086,2.25075 12.0001,2.66663 C12.4916,2.25075 13.1273,2 13.8215,2 C14.5312,2 15.1711,2.25913 15.6614,2.682 C16.1522,2.25467 16.7921,2 17.483,2 C19.4012,2 20.7404,3.90029 20.0952,5.7067 L16.0001,17.1731 L16.0001,18 C16.0001,20.2091 14.2092,22 12.0001,22 C9.79095,22 8.00009,20.2091 8.00009,18 L8.00009,17.1732 L3.90491,5.7067 Z M10.0001,17.0232 C10.0003,17.0155 10.0004,17.0078 10.0004,17 L13.9998,17 C13.9998,17.0084 13.9999,17.0168 14.0001,17.0252 L14.0001,18 C14.0001,19.1046 13.1047,20 12.0001,20 C10.8955,20 10.0001,19.1046 10.0001,18 L10.0001,17.0232 Z M14.6525,15 L9.34767,15 L5.78839,5.03403 C5.60842,4.53011 5.982,4 6.51709,4 C6.89156,4 7.21229,4.26815 7.27863,4.6367 L8.81591,13.1772 C8.91375,13.7207 9.43369,14.082 9.97724,13.9842 C10.5208,13.8863 10.8821,13.3664 10.7843,12.8228 L9.37021,4.96695 C9.28017,4.4635 9.66706,4 10.1787,4 C10.6323,4 11.0001,4.36777 11.0001,4.82143 L11.0001,13 C11.0001,13.5523 11.4478,14 12.0001,14 C12.5524,14 13.0001,13.5523 13.0001,13 L13.0001,4.82143 C13.0001,4.36777 13.3679,4 13.8215,4 C14.3304,4 14.7161,4.45774 14.6315,4.95812 L13.2159,12.8228 C13.118,13.3664 13.4793,13.8863 14.0229,13.9842 C14.0569,13.9903 14.0908,13.9946 14.1245,13.9972 C14.1989,14.003 14.2725,14.0003 14.344,13.9899 C14.7581,13.9297 15.1061,13.6116 15.1843,13.1772 L16.5983,5.32126 L16.6012,5.30489 L16.7215,4.6367 C16.7878,4.26815 17.1086,4 17.483,4 C18.0181,4 18.3917,4.53011 18.2117,5.03403 L14.6525,15 Z" id="形状" fill="#09244B"></path>
            </g>
        </g>
    </g>
</svg>