<?xml version="1.0" encoding="UTF-8"?>
<svg width="24px" height="24px" viewBox="0 0 24 24" version="1.1" xmlns="http://www.w3.org/2000/svg" xmlns:xlink="http://www.w3.org/1999/xlink">
    <title>badminton_fill</title>
    <g id="Icon" stroke="none" stroke-width="1" fill="none" fill-rule="evenodd">
        <g id="Sport" transform="translate(-288.000000, -48.000000)" fill-rule="nonzero">
            <g id="badminton_fill" transform="translate(288.000000, 48.000000)">
                <path d="M24,0 L24,24 L0,24 L0,0 L24,0 Z M12.5935,23.2578 L12.5819,23.2595 L12.5109,23.295 L12.4919,23.2987 L12.4767,23.295 L12.4057,23.2595 C12.3958,23.2564 12.387,23.259 12.3821,23.2649 L12.378,23.2758 L12.3609,23.7031 L12.3659,23.7235 L12.3769,23.7357 L12.4805,23.8097 L12.4953,23.8136 L12.5071,23.8097 L12.6107,23.7357 L12.6233,23.7197 L12.6267,23.7031 L12.6096,23.2758 C12.6076,23.2657 12.601,23.2593 12.5935,23.2578 Z M12.8584,23.1453 L12.8445,23.1473 L12.6598,23.2397 L12.6499,23.2499 L12.6472,23.2611 L12.6651,23.6906 L12.6699,23.7034 L12.6784,23.7105 L12.8793,23.8032 C12.8914,23.8069 12.9022,23.803 12.9078,23.7952 L12.9118,23.7812 L12.8777,23.1665 C12.8753,23.1546 12.8674,23.147 12.8584,23.1453 Z M12.143,23.1473 C12.1332,23.1424 12.1222,23.1453 12.1156,23.1526 L12.1099,23.1665 L12.0758,23.7812 C12.0751,23.7927 12.0828,23.8019 12.0926,23.8046 L12.1083,23.8032 L12.3092,23.7105 L12.3186,23.7024 L12.3225,23.6906 L12.3404,23.2611 L12.3372,23.2485 L12.3278,23.2397 L12.143,23.1473 Z" id="MingCute"></path>
                <path d="M6.51709,2 C4.59893,2 3.25976,3.9003 3.90491,5.7067 L7.22394,15 L16.7763,15 L20.0953,5.7067 C20.7404,3.90029 19.4013,2 17.4831,2 C16.7922,2 16.1522,2.25468 15.6615,2.68202 C15.1711,2.25914 14.5312,2 13.8215,2 C13.1273,2 12.4916,2.25075 12.0001,2.66663 C11.5086,2.25075 10.8729,2 10.1787,2 C9.46899,2 8.8291,2.25914 8.33873,2.68202 C7.84795,2.25468 7.20804,2 6.51709,2 Z M16.062,17 L7.93823,17 L8.00009,17.1732 L8.00009,18 C8.00009,20.2091 9.79095,22 12.0001,22 C14.2092,22 16.0001,20.2091 16.0001,18 L16.0001,17.1732 L16.062,17 Z" id="形状" fill="#09244B"></path>
            </g>
        </g>
    </g>
</svg>