<?xml version="1.0" encoding="UTF-8"?>
<svg width="24px" height="24px" viewBox="0 0 24 24" version="1.1" xmlns="http://www.w3.org/2000/svg" xmlns:xlink="http://www.w3.org/1999/xlink">
    <title>barbell_line</title>
    <g id="Icon" stroke="none" stroke-width="1" fill="none" fill-rule="evenodd">
        <g id="Sport" transform="translate(-336.000000, 0.000000)">
            <g id="barbell_line" transform="translate(336.000000, 0.000000)">
                <path d="M24,0 L24,24 L0,24 L0,0 L24,0 Z M12.5935,23.2578 L12.5819,23.2595 L12.5109,23.295 L12.4919,23.2987 L12.4767,23.295 L12.4057,23.2595 C12.3958,23.2564 12.387,23.259 12.3821,23.2649 L12.378,23.2758 L12.3609,23.7031 L12.3659,23.7235 L12.3769,23.7357 L12.4805,23.8097 L12.4953,23.8136 L12.5071,23.8097 L12.6107,23.7357 L12.6233,23.7197 L12.6267,23.7031 L12.6096,23.2758 C12.6076,23.2657 12.601,23.2593 12.5935,23.2578 Z M12.8584,23.1453 L12.8445,23.1473 L12.6598,23.2397 L12.6499,23.2499 L12.6472,23.2611 L12.6651,23.6906 L12.6699,23.7034 L12.6784,23.7105 L12.8793,23.8032 C12.8914,23.8069 12.9022,23.803 12.9078,23.7952 L12.9118,23.7812 L12.8777,23.1665 C12.8753,23.1546 12.8674,23.147 12.8584,23.1453 Z M12.143,23.1473 C12.1332,23.1424 12.1222,23.1453 12.1156,23.1526 L12.1099,23.1665 L12.0758,23.7812 C12.0751,23.7927 12.0828,23.8019 12.0926,23.8046 L12.1083,23.8032 L12.3092,23.7105 L12.3186,23.7024 L12.3225,23.6906 L12.3404,23.2611 L12.3372,23.2485 L12.3278,23.2397 L12.143,23.1473 Z" id="MingCute" fill-rule="nonzero"></path>
                <path d="M16,5 C17.3406,5 18.4759,5.87936 18.8604,7.09276 C20.5918714,7.47229321 21.903424,8.97348219 21.9948978,10.796194 L22,11 L22,13 C22,14.9138 20.656,16.5136 18.8604,16.9072 C18.4759,18.1206 17.3406,19 16,19 C14.9456091,19 14.0818322,18.18415 14.0054856,17.1492661 L14,17 L14,13 L10,13 L10,17 C10,18.1046 9.10457,19 8,19 C6.65937,19 5.52413,18.1206 5.13963,16.9072 C3.40812964,16.5276571 2.09657606,15.0265329 2.00510221,13.2038078 L2,13 L2,11 C2,9.08622 3.344,7.48635 5.13963,7.09276 C5.52413,5.87937 6.65937,5 8,5 C9.05436227,5 9.91816517,5.81587733 9.99451427,6.85073759 L10,7 L10,11 L14,11 L14,7 C14,5.89543 14.8954,5 16,5 Z M16,7 L16,17 C16.5523,17 17,16.5523 17,16 L17,8 C17,7.44772 16.5523,7 16,7 Z M8,7 C7.44772,7 7,7.44772 7,8 L7,16 C7,16.5523 7.44772,17 8,17 L8,7 Z M5,9.26756 C4.44818462,9.58676923 4.06303432,10.1620428 4.00704561,10.8309237 L4,11 L4,13 C4,13.6833538 4.34270296,14.286613 4.86561238,14.6473597 L5,14.7324 L5,9.26756 Z M19,9.26756 L19,14.7324 C19.5518154,14.4132 19.9369657,13.8379527 19.9929544,13.1690758 L20,13 L20,11 C20,10.3166462 19.657297,9.71336142 19.1343876,9.35260297 L19,9.26756 Z" id="形状" fill="#09244B"></path>
            </g>
        </g>
    </g>
</svg>