<?xml version="1.0" encoding="UTF-8"?>
<svg width="24px" height="24px" viewBox="0 0 24 24" version="1.1" xmlns="http://www.w3.org/2000/svg" xmlns:xlink="http://www.w3.org/1999/xlink">
    <title>baseball_fill</title>
    <g id="Icon" stroke="none" stroke-width="1" fill="none" fill-rule="evenodd">
        <g id="Sport" transform="translate(-384.000000, -48.000000)" fill-rule="nonzero">
            <g id="baseball_fill" transform="translate(384.000000, 48.000000)">
                <path d="M24,0 L24,24 L0,24 L0,0 L24,0 Z M12.5935,23.2578 L12.5819,23.2595 L12.5109,23.295 L12.4919,23.2987 L12.4767,23.295 L12.4057,23.2595 C12.3958,23.2564 12.387,23.259 12.3821,23.2649 L12.378,23.2758 L12.3609,23.7031 L12.3659,23.7235 L12.3769,23.7357 L12.4805,23.8097 L12.4953,23.8136 L12.5071,23.8097 L12.6107,23.7357 L12.6233,23.7197 L12.6267,23.7031 L12.6096,23.2758 C12.6076,23.2657 12.601,23.2593 12.5935,23.2578 Z M12.8584,23.1453 L12.8445,23.1473 L12.6598,23.2397 L12.6499,23.2499 L12.6472,23.2611 L12.6651,23.6906 L12.6699,23.7034 L12.6784,23.7105 L12.8793,23.8032 C12.8914,23.8069 12.9022,23.803 12.9078,23.7952 L12.9118,23.7812 L12.8777,23.1665 C12.8753,23.1546 12.8674,23.147 12.8584,23.1453 Z M12.143,23.1473 C12.1332,23.1424 12.1222,23.1453 12.1156,23.1526 L12.1099,23.1665 L12.0758,23.7812 C12.0751,23.7927 12.0828,23.8019 12.0926,23.8046 L12.1083,23.8032 L12.3092,23.7105 L12.3186,23.7024 L12.3225,23.6906 L12.3404,23.2611 L12.3372,23.2485 L12.3278,23.2397 L12.143,23.1473 Z" id="MingCute"></path>
                <path d="M12,2 C14.4815,2 16.752,2.9039 18.5,4.40041 C17.6734,5.10807 16.9636,5.94824 16.4036,6.88801 L16.3596,6.86749 C15.859,6.63408 15.2641,6.85064 15.0307,7.35118 C14.7972,7.85172 15.0138,8.4467 15.5143,8.68011 L15.5573,8.70012 C15.3016,9.4317 15.1286,10.2021 15.0494,11 L15,11 C14.4477,11 14,11.4477 14,12 C14,12.5523 14.4477,13 15,13 L15.0494,13 C15.1286,13.7979 15.3016,14.5683 15.5572,15.2998 L15.5143,15.3198 C15.0138,15.5532 14.7972,16.1482 15.0307,16.6487 C15.2641,17.1493 15.859,17.3658 16.3596,17.1324 L16.4035,17.1119 C16.9636,18.0517 17.6734,18.8919 18.5,19.5996 C16.752,21.0961 14.4815,22 12,22 C9.51846,22 7.24803,21.0961 5.5,19.5996 C6.32661,18.8919 7.0364,18.0517 7.59646,17.1119 L7.64042,17.1324 C8.14096,17.3658 8.73594,17.1493 8.96935,16.6487 C9.20275,16.1482 8.9862,15.5532 8.48566,15.3198 L8.44276,15.2998 C8.69839,14.5683 8.8714,13.7979 8.95062,13 L9,13 C9.55228,13 10,12.5523 10,12 C10,11.4477 9.55228,11 9,11 L8.95063,11 C8.8714,10.2021 8.69838,9.4317 8.44274,8.70012 L8.48566,8.68011 C8.9862,8.4467 9.20275,7.85172 8.96935,7.35118 C8.73594,6.85064 8.14096,6.63408 7.64042,6.86749 L7.59642,6.88801 C7.03637,5.94824 6.32659,5.10807 5.5,4.40041 C7.24803,2.9039 9.51846,2 12,2 Z M4.11517,5.84871 C4.76192,6.38712 5.32243,7.0256 5.77291,7.74037 C5.31171,7.99045 5.11943,8.55981 5.34411,9.04165 C5.56896,9.52384 6.12935,9.74248 6.61762,9.54921 C6.76774,10.0162 6.87611,10.5019 6.93834,11.0019 C6.41477,11.0337 6,11.4684 6,12 C6,12.5316 6.41477,12.9663 6.93834,12.9981 C6.87611,13.4981 6.76775,13.9838 6.61764,14.4507 C6.12937,14.2574 5.56896,14.4761 5.34411,14.9583 C5.11942,15.4401 5.31173,16.0095 5.77295,16.2596 C5.32246,16.9744 4.76194,17.6129 4.11517,18.1513 C2.78981,16.4548 2,14.3196 2,12 C2,9.68035 2.78981,7.54518 4.11517,5.84871 Z M19.8848,5.84871 C21.2102,7.54518 22,9.68035 22,12 C22,14.3196 21.2102,16.4548 19.8848,18.1513 C19.2381,17.6129 18.6775,16.9744 18.227,16.2596 C18.6883,16.0095 18.8806,15.4401 18.6559,14.9583 C18.431,14.4761 17.8706,14.2574 17.3824,14.4507 C17.2323,13.9838 17.1239,13.4981 17.0617,12.9981 C17.5852,12.9663 18,12.5316 18,12 C18,11.4684 17.5852,11.0337 17.0617,11.0019 C17.1239,10.5019 17.2323,10.0162 17.3824,9.54921 C17.8707,9.74248 18.431,9.52384 18.6559,9.04165 C18.8806,8.55981 18.6883,7.99045 18.2271,7.74038 C18.6776,7.0256 19.2381,6.38712 19.8848,5.84871 Z" id="形状" fill="#09244B"></path>
            </g>
        </g>
    </g>
</svg>