<?xml version="1.0" encoding="UTF-8"?>
<svg width="24px" height="24px" viewBox="0 0 24 24" version="1.1" xmlns="http://www.w3.org/2000/svg" xmlns:xlink="http://www.w3.org/1999/xlink">
    <title>basketball_line</title>
    <g id="Icon" stroke="none" stroke-width="1" fill="none" fill-rule="evenodd">
        <g id="Sport" transform="translate(-432.000000, 0.000000)">
            <g id="basketball_line" transform="translate(432.000000, 0.000000)">
                <path d="M24,0 L24,24 L0,24 L0,0 L24,0 Z M12.5935,23.2578 L12.5819,23.2595 L12.5109,23.295 L12.4919,23.2987 L12.4767,23.295 L12.4057,23.2595 C12.3958,23.2564 12.387,23.259 12.3821,23.2649 L12.378,23.2758 L12.3609,23.7031 L12.3659,23.7235 L12.3769,23.7357 L12.4805,23.8097 L12.4953,23.8136 L12.5071,23.8097 L12.6107,23.7357 L12.6233,23.7197 L12.6267,23.7031 L12.6096,23.2758 C12.6076,23.2657 12.601,23.2593 12.5935,23.2578 Z M12.8584,23.1453 L12.8445,23.1473 L12.6598,23.2397 L12.6499,23.2499 L12.6472,23.2611 L12.6651,23.6906 L12.6699,23.7034 L12.6784,23.7105 L12.8793,23.8032 C12.8914,23.8069 12.9022,23.803 12.9078,23.7952 L12.9118,23.7812 L12.8777,23.1665 C12.8753,23.1546 12.8674,23.147 12.8584,23.1453 Z M12.143,23.1473 C12.1332,23.1424 12.1222,23.1453 12.1156,23.1526 L12.1099,23.1665 L12.0758,23.7812 C12.0751,23.7927 12.0828,23.8019 12.0926,23.8046 L12.1083,23.8032 L12.3092,23.7105 L12.3186,23.7024 L12.3225,23.6906 L12.3404,23.2611 L12.3372,23.2485 L12.3278,23.2397 L12.143,23.1473 Z" id="MingCute" fill-rule="nonzero"></path>
                <path d="M19.0711,4.92893 C22.9763,8.83417 22.9763,15.1658 19.0711,19.0711 C15.1658,22.9763 8.83417,22.9763 4.92893,19.0711 C1.02369,15.1658 1.02369,8.83417 4.92893,4.92893 C8.83417,1.02369 15.1658,1.02369 19.0711,4.92893 Z M12,13.4142 L7.09402,18.3202 C8.47244,19.393 10.1212,19.9519 11.7813,19.997 C11.7323,18.1923 12.2908,16.3722 13.458,14.8722 L12,13.4142 Z M14.8871,16.3013 C14.1434,17.3446 13.7734,18.5726 13.7782,19.801 C14.8921,19.5482 15.9624,19.0546 16.906,18.3202 L14.8871,16.3013 Z M9.12778,10.542 C7.62775,11.7092 5.80772,12.2677 4.00297,12.2187 C4.04509133,13.7681267 4.53479827,15.3077098 5.47209893,16.6267914 L5.6798,16.906 L10.5858,12 L9.12778,10.542 Z M19.801,13.7781 C18.6670923,13.7737615 17.5335254,14.0886089 16.5452563,14.7220128 L16.3013,14.887 L18.3202,16.906 C19.0546,15.9623 19.5482,14.892 19.801,13.7781 Z M18.3202,7.09402 L13.4142,12 L14.8722,13.458 C16.3722,12.2907 18.1923,11.7322 19.997,11.7812 C19.9549067,10.2317733 19.4651493,8.69229476 18.5278906,7.37322703 L18.3202,7.09402 Z M12.2188,4.00297 C12.2649176,5.70156765 11.7729038,7.41370052 10.7416747,8.85982683 L10.542,9.12779 L12,10.5858 L16.906,5.6798 C15.5276,4.60706 13.8789,4.04812 12.2188,4.00297 Z M5.6798,7.09402 C4.94543,8.03764 4.45184,9.10793 4.19905,10.2218 C5.33287462,10.2262308 6.46646917,9.91133941 7.45476661,9.27793604 L7.69873,9.11295 L5.6798,7.09402 Z M10.2219,4.19903 C9.10797,4.45182 8.03766,4.94541 7.09402,5.6798 L9.11296,7.69875 C9.85668,6.65541 10.2266,5.42736 10.2219,4.19903 Z" id="形状" fill="#09244B"></path>
            </g>
        </g>
    </g>
</svg>