<svg xmlns="http://www.w3.org/2000/svg" width="24" height="24" viewBox="0 0 24 24"><g fill="none" fill-rule="evenodd"><path d="M24,0 L24,24 L0,24 L0,0 L24,0 Z M12.5935,23.2578 L12.5819,23.2595 L12.5109,23.295 L12.4919,23.2987 L12.4767,23.295 L12.4057,23.2595 C12.3958,23.2564 12.387,23.259 12.3821,23.2649 L12.378,23.2758 L12.3609,23.7031 L12.3659,23.7235 L12.3769,23.7357 L12.4805,23.8097 L12.4953,23.8136 L12.5071,23.8097 L12.6107,23.7357 L12.6233,23.7197 L12.6267,23.7031 L12.6096,23.2758 C12.6076,23.2657 12.601,23.2593 12.5935,23.2578 Z M12.8584,23.1453 L12.8445,23.1473 L12.6598,23.2397 L12.6499,23.2499 L12.6472,23.2611 L12.6651,23.6906 L12.6699,23.7034 L12.6784,23.7105 L12.8793,23.8032 C12.8914,23.8069 12.9022,23.803 12.9078,23.7952 L12.9118,23.7812 L12.8777,23.1665 C12.8753,23.1546 12.8674,23.147 12.8584,23.1453 Z M12.143,23.1473 C12.1332,23.1424 12.1222,23.1453 12.1156,23.1526 L12.1099,23.1665 L12.0758,23.7812 C12.0751,23.7927 12.0828,23.8019 12.0926,23.8046 L12.1083,23.8032 L12.3092,23.7105 L12.3186,23.7024 L12.3225,23.6906 L12.3404,23.2611 L12.3372,23.2485 L12.3278,23.2397 L12.143,23.1473 Z"/><path fill="#09244B" d="M12,2 C17.5228,2 22,6.47715 22,12 C22,14.6463417 20.9720318,17.0526128 19.2935856,18.8413232 L19.024,19.1178 C17.2182,20.9 14.7376,22 12,22 C6.47715,22 2,17.5228 2,12 C2,6.47715 6.47715,2 12,2 Z M6.34309,12.7069 C4.97626,14.0738 4.97626,16.2898 6.34309,17.6567 C7.79082,19.1045 9.7908,20 12,20 C12.1675,20 12.3337,19.9949 12.4987,19.9847 C12.0666,19.743 11.6603,19.4385 11.293,19.0712 C9.41479,17.193 9.17897,14.2944 10.5855,12.1599 C9.24472,11.3744 7.49324,11.5568 6.34309,12.7069 Z M19.9847,11.5012 C19.743,11.9333 19.4384,12.3398 19.071,12.7073 C17.1929,14.5854 14.2944,14.8213 12.16,13.4149 C11.3748,14.7557 11.5572,16.507 12.7072,17.657 C14.0629,19.0127 16.2541,19.0237 17.6234,17.6901 C19.0908,16.2398 20,14.2261 20,12 C20,11.8325 19.9949,11.6661 19.9847,11.5012 Z M11.2928,6.34334 C9.92601,4.9765 7.70986,4.97643 6.34302,6.34327 C4.89538,7.79097 4,9.79092 4,12 C4,12.1674 4.00514,12.3337 4.01528,12.4986 C4.25698,12.0665 4.56152,11.6601 4.92888,11.2927 C6.80707,9.41451 9.70571,9.17868 11.8402,10.5852 C12.6253,9.24449 12.4428,7.49333 11.2928,6.34334 Z M12,4 C11.8324,4 11.6659,4.00516 11.5008,4.01532 C11.9331,4.25705 12.3396,4.56165 12.7071,4.92912 C14.5852,6.80727 14.8211,9.7058 13.4146,11.8402 C14.7554,12.6255 16.5067,12.4431 17.6568,11.293 C19.0236,9.92621 19.0236,7.71013 17.6568,6.34329 C16.209,4.89556 14.2092,4 12,4 Z"/></g></svg>