<svg xmlns="http://www.w3.org/2000/svg" width="24" height="24"><g fill="none"><path d="M24 0v24H0V0zM12.594 23.258l-.012.002-.071.035-.02.004-.014-.004-.071-.036c-.01-.003-.019 0-.024.006l-.004.01-.017.428.005.02.01.013.104.074.015.004.012-.004.104-.074.012-.016.004-.017-.017-.427c-.002-.01-.009-.017-.016-.018m.264-.113-.014.002-.184.093-.01.01-.003.011.018.43.005.012.008.008.201.092c.012.004.023 0 .029-.008l.004-.014-.034-.614c-.003-.012-.01-.02-.02-.022m-.715.002a.023.023 0 0 0-.027.006l-.006.014-.034.614c0 .012.007.02.017.024l.015-.002.201-.093.01-.008.003-.011.018-.43-.003-.012-.01-.01z"/><path fill="#09244B" d="M5.353 14.513a4.501 4.501 0 0 1 5.314-2.022 6.502 6.502 0 0 0 5.263 8.707A10.02 10.02 0 0 1 7 20.66a4.5 4.5 0 0 1-1.647-6.147M21.198 8.07A10.02 10.02 0 0 1 20.66 17a4.5 4.5 0 0 1-8.169-3.667 6.502 6.502 0 0 0 8.707-5.263M9.487 5.353a4.502 4.502 0 0 1 2.022 5.314 6.502 6.502 0 0 0-8.707 5.263A10.02 10.02 0 0 1 3.34 7a4.5 4.5 0 0 1 6.147-1.647M12 2c1.752 0 3.483.464 5 1.34a4.5 4.5 0 0 1-3.667 8.169A6.502 6.502 0 0 0 8.07 2.802 9.968 9.968 0 0 1 12 2"/></g></svg>