<svg xmlns="http://www.w3.org/2000/svg" width="24" height="24" viewBox="0 0 24 24"><title>cooldown_line</title><g fill="none" fill-rule="nonzero"><path d="M24 0v24H0V0zM12.594 23.258l-.012.002-.071.035-.02.004-.014-.004-.071-.036q-.016-.004-.024.006l-.004.01-.017.428.005.02.01.013.104.074.015.004.012-.004.104-.074.012-.016.004-.017-.017-.427q-.004-.016-.016-.018m.264-.113-.014.002-.184.093-.01.01-.003.011.018.43.005.012.008.008.201.092q.019.005.029-.008l.004-.014-.034-.614q-.005-.019-.02-.022m-.715.002a.02.02 0 0 0-.027.006l-.006.014-.034.614q.001.018.017.024l.015-.002.201-.093.01-.008.003-.011.018-.43-.003-.012-.01-.01z"/><path fill="#09244b" d="M13.15 1.063a1 1 0 0 1 1.286.585l1.233 3.285a2 2 0 0 1-.702 2.325l-1.33.959 1.223 3.352c.726 1.99 1.087 4.13 1.35 6.224.114.907.185 1.694.23 2.255.025.335.059.672.059 1.009a1 1 0 0 1-1.998-.011c0-.28-.034-.564-.056-.843-.042-.536-.11-1.29-.22-2.16a37 37 0 0 0-.588-3.437c-.186.091-.386.164-.6.206q-.046.009-.093.015a1 1 0 0 1-.093.197l-4 6.5a1 1 0 0 1-1.703-1.049l3.818-6.205q-.152-.129-.284-.284L8.783 11.73l-.003-.004-1.027.742 1.801 1.2a1 1 0 1 1-1.109 1.665l-2.4-1.6a1.5 1.5 0 0 1-.046-2.465l7.797-5.63-1.233-3.286a1 1 0 0 1 .586-1.288m-2.745 9.488 1.808 2.148a.451.451 0 0 0 .768-.445l-1.029-2.82zM10 5a1 1 0 1 0-2 0 1 1 0 0 0 2 0m2 0a3 3 0 1 1-6 0 3 3 0 0 1 6 0"/></g></svg>