<svg xmlns="http://www.w3.org/2000/svg" width="24" height="24" viewBox="0 0 24 24"><g fill="none" fill-rule="evenodd"><path d="M24,0 L24,24 L0,24 L0,0 L24,0 Z M12.5935,23.2578 L12.5819,23.2595 L12.5109,23.295 L12.4919,23.2987 L12.4767,23.295 L12.4057,23.2595 C12.3958,23.2564 12.387,23.259 12.3821,23.2649 L12.378,23.2758 L12.3609,23.7031 L12.3659,23.7235 L12.3769,23.7357 L12.4805,23.8097 L12.4953,23.8136 L12.5071,23.8097 L12.6107,23.7357 L12.6233,23.7197 L12.6267,23.7031 L12.6096,23.2758 C12.6076,23.2657 12.601,23.2593 12.5935,23.2578 Z M12.8584,23.1453 L12.8445,23.1473 L12.6598,23.2397 L12.6499,23.2499 L12.6472,23.2611 L12.6651,23.6906 L12.6699,23.7034 L12.6784,23.7105 L12.8793,23.8032 C12.8914,23.8069 12.9022,23.803 12.9078,23.7952 L12.9118,23.7812 L12.8777,23.1665 C12.8753,23.1546 12.8674,23.147 12.8584,23.1453 Z M12.143,23.1473 C12.1332,23.1424 12.1222,23.1453 12.1156,23.1526 L12.1099,23.1665 L12.0758,23.7812 C12.0751,23.7927 12.0828,23.8019 12.0926,23.8046 L12.1083,23.8032 L12.3092,23.7105 L12.3186,23.7024 L12.3225,23.6906 L12.3404,23.2611 L12.3372,23.2485 L12.3278,23.2397 L12.143,23.1473 Z"/><path fill="#09244B" d="M15,4 C14.4477,4 14,4.44772 14,5 C14,5.55228 14.4477,6 15,6 C15.5523,6 16,5.55228 16,5 C16,4.44772 15.5523,4 15,4 Z M12,5 C12,3.34315 13.3431,2 15,2 C16.6569,2 18,3.34315 18,5 C18,6.60461 16.7402,7.91499 15.1558,7.99603 L12.8354,13.2996 C12.6909,13.6299 12.9329,14 13.2935,14 L15.5991,14 C16.8607,14 17.9874,14.7892 18.4185,15.9748 L19.8036,19.7838 L20.4472,20.1056 C20.9412,20.3526 21.1414,20.9532 20.8944,21.4472 C20.6474,21.9412 20.0468,22.1414 19.5528,21.8944 L18.5528,21.3944 C18.3239,21.28 18.1476,21.0822 18.0602,20.8417 L16.5389,16.6583 C16.3952,16.2631 16.0197,16 15.5991,16 L13.2935,16 C11.4906,16 10.2805,14.1497 11.0031,12.498 L12.0364,10.1362 L10,9.11803 L6.44721,10.8944 C5.95324,11.1414 5.35256,10.9412 5.10557,10.4472 C4.85858,9.95324 5.05881,9.35256 5.55279,9.10557 L9.10557,7.32918 C9.66863,7.04765 10.3314,7.04765 10.8944,7.32918 L12.8391,8.3015 L13.2252,7.41894 C12.4822,6.87289 12,5.99276 12,5 Z M5.81762,12.9127 C5.30239,13.6443 5,14.5354 5,15.5 C5,17.9853 7.01472,20 9.5,20 C11.2473,20 12.7638,19.0044 13.5099,17.5448 L15.2907,18.4552 C14.2161,20.5573 12.0274,22 9.5,22 C5.91015,22 3,19.0899 3,15.5 C3,14.1098 3.43755,12.8189 4.18238,11.7612 L5.81762,12.9127 Z"/></g></svg>