<svg xmlns="http://www.w3.org/2000/svg" width="24" height="24" viewBox="0 0 24 24"><title>figure_fill</title><g fill="none" fill-rule="nonzero"><path d="M24 0v24H0V0zM12.594 23.258l-.012.002-.071.035-.02.004-.014-.004-.071-.036q-.016-.004-.024.006l-.004.01-.017.428.005.02.01.013.104.074.015.004.012-.004.104-.074.012-.016.004-.017-.017-.427q-.004-.016-.016-.018m.264-.113-.014.002-.184.093-.01.01-.003.011.018.43.005.012.008.008.201.092q.019.005.029-.008l.004-.014-.034-.614q-.005-.019-.02-.022m-.715.002a.02.02 0 0 0-.027.006l-.006.014-.034.614q.001.018.017.024l.015-.002.201-.093.01-.008.003-.011.018-.43-.003-.012-.01-.01z"/><path fill="#09244b" d="M4.143 5.985a1 1 0 0 1 1.372-.342L8.8 7.613a6.22 6.22 0 0 0 6.4 0l3.285-1.97a1 1 0 0 1 1.03 1.714L16.23 9.328q-.61.365-1.267.618l-.343 3.78a2.5 2.5 0 0 1-.545 1.34l1.873 5.618a1 1 0 1 1-1.896.632l-1.775-5.324q-.276.016-.554 0l-1.775 5.324a1 1 0 0 1-1.896-.632l1.872-5.619a2.5 2.5 0 0 1-.544-1.338l-.344-3.78a8 8 0 0 1-1.265-.619l-3.286-1.97a1 1 0 0 1-.342-1.373M12 2a3 3 0 1 1 0 6 3 3 0 0 1 0-6"/></g></svg>