<svg xmlns="http://www.w3.org/2000/svg" width="24" height="24"><g fill="none" fill-rule="evenodd"><path d="M24 0v24H0V0zM12.594 23.258l-.012.002-.071.035-.02.004-.014-.004-.071-.036c-.01-.003-.019 0-.024.006l-.004.01-.017.428.005.02.01.013.104.074.015.004.012-.004.104-.074.012-.016.004-.017-.017-.427c-.002-.01-.009-.017-.016-.018m.264-.113-.014.002-.184.093-.01.01-.003.011.018.43.005.012.008.008.201.092c.012.004.023 0 .029-.008l.004-.014-.034-.614c-.003-.012-.01-.02-.02-.022m-.715.002a.023.023 0 0 0-.027.006l-.006.014-.034.614c0 .012.007.02.017.024l.015-.002.201-.093.01-.008.003-.011.018-.43-.003-.012-.01-.01z"/><path fill="#09244B" d="M13.362 3.536c.484.093 1.191.335 1.532 1.017.747 1.494.13 2.914-.532 3.797-.432.576-.988 1.118-1.635 1.45-.135.07-.41.2-.727.2-.591 0-1.17-.269-1.645-.605-.09.306-.177.642-.252.998a10.597 10.597 0 0 0-.24 2.078c1.053-.34 2.13-.304 3.058.22a6.467 6.467 0 0 1 2.357-1.173c1.3-.341 2.86-.294 4.277.65 1.015.677 1.784 1.952 1.939 3.347.162 1.454-.343 3.044-1.87 4.266-1.078.862-2.721 1.195-4.233 1.316-1.565.126-3.218.04-4.501-.103-2.378-.264-4.204-.928-5.48-1.613-.837-.45-1.982-1.072-2.345-2.025-.245-.646-.181-1.43-.121-2.102.08-.881.276-1.981.643-3.173.732-2.379 2.165-5.194 4.776-7.352.803-.664 2.147-1.076 3.272-1.214.58-.071 1.19-.081 1.727.021"/></g></svg>