<?xml version="1.0" encoding="UTF-8"?>
<svg width="24px" height="24px" viewBox="0 0 24 24" version="1.1" xmlns="http://www.w3.org/2000/svg" xmlns:xlink="http://www.w3.org/1999/xlink">
    <title>football_line</title>
    <g id="Icon" stroke="none" stroke-width="1" fill="none" fill-rule="evenodd">
        <g id="Sport" transform="translate(-528.000000, 0.000000)">
            <g id="football_line" transform="translate(528.000000, 0.000000)">
                <path d="M24,0 L24,24 L0,24 L0,0 L24,0 Z M12.5935,23.2578 L12.5819,23.2595 L12.5109,23.295 L12.4919,23.2987 L12.4767,23.295 L12.4057,23.2595 C12.3958,23.2564 12.387,23.259 12.3821,23.2649 L12.378,23.2758 L12.3609,23.7031 L12.3659,23.7235 L12.3769,23.7357 L12.4805,23.8097 L12.4953,23.8136 L12.5071,23.8097 L12.6107,23.7357 L12.6233,23.7197 L12.6267,23.7031 L12.6096,23.2758 C12.6076,23.2657 12.601,23.2593 12.5935,23.2578 Z M12.8584,23.1453 L12.8445,23.1473 L12.6598,23.2397 L12.6499,23.2499 L12.6472,23.2611 L12.6651,23.6906 L12.6699,23.7034 L12.6784,23.7105 L12.8793,23.8032 C12.8914,23.8069 12.9022,23.803 12.9078,23.7952 L12.9118,23.7812 L12.8777,23.1665 C12.8753,23.1546 12.8674,23.147 12.8584,23.1453 Z M12.143,23.1473 C12.1332,23.1424 12.1222,23.1453 12.1156,23.1526 L12.1099,23.1665 L12.0758,23.7812 C12.0751,23.7927 12.0828,23.8019 12.0926,23.8046 L12.1083,23.8032 L12.3092,23.7105 L12.3186,23.7024 L12.3225,23.6906 L12.3404,23.2611 L12.3372,23.2485 L12.3278,23.2397 L12.143,23.1473 Z" id="MingCute" fill-rule="nonzero"></path>
                <path d="M12,2 C17.5228,2 22,6.47715 22,12 C22,17.5228 17.5228,22 12,22 C6.47715,22 2,17.5228 2,12 C2,6.47715 6.47715,2 12,2 Z M13.254,15.4271 L10.7462,15.4271 L9.58191,17.0296 L10.5015,19.8599 C10.9869,19.9519 11.4879,20 12,20 C12.5122,20 13.0131,19.9519 13.4985,19.8599 L14.4182,17.0294 L13.254,15.4271 Z M7.74693,17.8542 L6.54758,17.8542 C7.02113,18.2954 7.54827,18.6799 8.11818,18.9968 L7.74693,17.8542 Z M17.4528,17.8538 L16.2532,17.8538 L15.8819,18.9967 C16.4519,18.6798 16.9792,18.2952 17.4528,17.8538 Z M6.46966,11.2541 L4.06229,13.0032 C4.19027,14.0261 4.51137,14.989 4.98794,15.8542 L7.96372,15.8542 L9.12814,14.2515 L8.35308,11.8661 L6.46966,11.2541 Z M17.5307,11.2541 L15.6469,11.8662 L14.8719,14.2513 L16.0362,15.8538 L19.0123,15.8538 C19.4888,14.9886 19.8098,14.0258 19.9377,13.0029 L17.5307,11.2541 Z M12,10.2361 L10.3224,11.4549 L10.9632,13.4271 L13.0368,13.4271 L13.6776,11.4549 L12,10.2361 Z M4.74673,8.62056 C4.47517,9.20241 4.27156,9.82234 4.14612,10.4702 L5.11822,9.76388 L4.74673,8.62056 Z M19.2533,8.6207 L18.882,9.76369 L19.8538,10.4698 C19.7284,9.82216 19.5248,9.2024 19.2533,8.6207 Z M8.59218,4.76004 C7.67547,5.19229 6.85412,5.79351 6.16829,6.52354 L7.08728,9.35189 L8.97164,9.96416 L11,8.49047 L11,6.50942 L8.59218,4.76004 Z M15.408,4.76012 L13,6.50963 L13,8.49047 L15.0284,9.96422 L16.9128,9.35194 L17.8318,6.52363 C17.146,5.7936 16.3247,5.19238 15.408,4.76012 Z M12,4 C11.7808667,4 11.5638222,4.00880889 11.349163,4.02609185 L11.029,4.05833 L12.0001,4.76393 L12.9713,4.05836 C12.6529,4.01983 12.3288,4 12,4 Z" id="形状" fill="#09244B"></path>
            </g>
        </g>
    </g>
</svg>