<svg xmlns="http://www.w3.org/2000/svg" width="24" height="24" viewBox="0 0 24 24"><title>high_knees_fill</title><g fill="none" fill-rule="nonzero"><path d="M24 0v24H0V0zM12.594 23.258l-.012.002-.071.035-.02.004-.014-.004-.071-.036q-.016-.004-.024.006l-.004.01-.017.428.005.02.01.013.104.074.015.004.012-.004.104-.074.012-.016.004-.017-.017-.427q-.004-.016-.016-.018m.264-.113-.014.002-.184.093-.01.01-.003.011.018.43.005.012.008.008.201.092q.019.005.029-.008l.004-.014-.034-.614q-.005-.019-.02-.022m-.715.002a.02.02 0 0 0-.027.006l-.006.014-.034.614q.001.018.017.024l.015-.002.201-.093.01-.008.003-.011.018-.43-.003-.012-.01-.01z"/><path fill="#09244b" d="M18.555 6.668a1 1 0 0 1 .277 1.387l-2 3a1 1 0 0 1-1.346.302l-1.574-.944q.087.28.088.587v2h.41a1.5 1.5 0 0 1 1.48 1.747l-.403 2.417a1 1 0 0 1-1.973-.328L13.82 15H12.44l-.417 2.917a2 2 0 0 1-.317.826l-1.874 2.812a1 1 0 0 1-1.664-1.11l1.874-2.811.4-2.804A1 1 0 0 1 10 14v-3q0-.145.022-.285l-.705.141-.347 1.386a1 1 0 0 1-1.94-.484l.423-1.693.03-.104a1.5 1.5 0 0 1 1.132-1.004l3.931-.786a3 3 0 0 1 2.132.369l1.018.611 1.472-2.206a1 1 0 0 1 1.387-.277M12 2a3 3 0 1 1 0 6 3 3 0 0 1 0-6"/></g></svg>