<svg xmlns="http://www.w3.org/2000/svg" width="24" height="24" viewBox="0 0 24 24"><title>hop_fill</title><g fill="none" fill-rule="nonzero"><path d="M24 0v24H0V0zM12.594 23.258l-.012.002-.071.035-.02.004-.014-.004-.071-.036q-.016-.004-.024.006l-.004.01-.017.428.005.02.01.013.104.074.015.004.012-.004.104-.074.012-.016.004-.017-.017-.427q-.004-.016-.016-.018m.264-.113-.014.002-.184.093-.01.01-.003.011.018.43.005.012.008.008.201.092q.019.005.029-.008l.004-.014-.034-.614q-.005-.019-.02-.022m-.715.002a.02.02 0 0 0-.027.006l-.006.014-.034.614q.001.018.017.024l.015-.002.201-.093.01-.008.003-.011.018-.43-.003-.012-.01-.01z"/><path fill="#09244b" d="M19.994 8.893a1 1 0 0 1-.887 1.101h-.002l-.002.001a145.006 145.006 0 0 1-2.637.251c-.492.042-1.023.083-1.557.121l-.267 2.41c-.04.36-.157.694-.332.99l1.378 1.103a1.5 1.5 0 0 1 .124 2.233l-1.605 1.604a1 1 0 0 1-1.414-1.414l1.21-1.211-1.405-1.123a2.5 2.5 0 0 1-.44.041H12v6a1 1 0 0 1-2 0v-6.812a2.5 2.5 0 0 1-.643-1.412l-.267-2.409a110 110 0 0 1-3.426-.294c-.208-.02-.557-.042-.77-.079h-.001a1 1 0 0 1 .214-1.988l.754.077c.47.047 1.12.109 1.843.17C9.161 8.38 10.872 8.5 12 8.5s2.839-.121 4.296-.246c.722-.062 1.373-.124 1.843-.171.435-.043.717-.074.75-.077.368-.04 1.042.3 1.105.887M12 2a3 3 0 1 1 0 6 3 3 0 0 1 0-6"/></g></svg>