<?xml version="1.0" encoding="UTF-8"?>
<svg width="24px" height="24px" viewBox="0 0 24 24" version="1.1" xmlns="http://www.w3.org/2000/svg" xmlns:xlink="http://www.w3.org/1999/xlink">
    <title>parachute_line</title>
    <g id="Icon" stroke="none" stroke-width="1" fill="none" fill-rule="evenodd">
        <g id="Sport" transform="translate(-576.000000, 0.000000)">
            <g id="parachute_line" transform="translate(576.000000, 0.000000)">
                <path d="M24,0 L24,24 L0,24 L0,0 L24,0 Z M12.5935,23.2578 L12.5819,23.2595 L12.5109,23.295 L12.4919,23.2987 L12.4767,23.295 L12.4057,23.2595 C12.3958,23.2564 12.387,23.259 12.3821,23.2649 L12.378,23.2758 L12.3609,23.7031 L12.3659,23.7235 L12.3769,23.7357 L12.4805,23.8097 L12.4953,23.8136 L12.5071,23.8097 L12.6107,23.7357 L12.6233,23.7197 L12.6267,23.7031 L12.6096,23.2758 C12.6076,23.2657 12.601,23.2593 12.5935,23.2578 Z M12.8584,23.1453 L12.8445,23.1473 L12.6598,23.2397 L12.6499,23.2499 L12.6472,23.2611 L12.6651,23.6906 L12.6699,23.7034 L12.6784,23.7105 L12.8793,23.8032 C12.8914,23.8069 12.9022,23.803 12.9078,23.7952 L12.9118,23.7812 L12.8777,23.1665 C12.8753,23.1546 12.8674,23.147 12.8584,23.1453 Z M12.143,23.1473 C12.1332,23.1424 12.1222,23.1453 12.1156,23.1526 L12.1099,23.1665 L12.0758,23.7812 C12.0751,23.7927 12.0828,23.8019 12.0926,23.8046 L12.1083,23.8032 L12.3092,23.7105 L12.3186,23.7024 L12.3225,23.6906 L12.3404,23.2611 L12.3372,23.2485 L12.3278,23.2397 L12.143,23.1473 Z" id="MingCute" fill-rule="nonzero"></path>
                <path d="M3.65579,14.0362 C3.60008,13.9487 3.55761,13.852 3.53119,13.7488 C3.19816,12.9325 3,12.0187 3,11 C3,6.02944 7.02944,2 12,2 C16.9706,2 21,6.02944 21,11 C21,12.0187 20.8018,12.9325 20.4688,13.7488 C20.4424,13.852 20.3999,13.9487 20.3442,14.0362 C19.4965,15.882 17.9593,17.2047 16.53,18.098 C15.5578,18.7056 14.5921,19.1444 13.8302,19.4423 C13.9374,19.6017 14,19.7935 14,20 L14,21 C14,21.5523 13.5523,22 13,22 L11,22 C10.4477,22 10,21.5523 10,21 L10,20 C10,19.7935 10.0626,19.6017 10.1698,19.4423 C9.40788,19.1444 8.44224,18.7056 7.47,18.098 C6.0407,17.2047 4.50345,15.882 3.65579,14.0362 Z M12,4 C8.26139,4 5.20733,6.93088 5.01012,10.6203 C5.57511,10.2292 6.2608,10 7,10 C7.97934,10 8.86474,10.4022 9.5,11.0505 C10.1353,10.4022 11.0207,10 12,10 C12.9793,10 13.8647,10.4022 14.5,11.0505 C15.1353,10.4022 16.0207,10 17,10 C17.7392,10 18.4249,10.2292 18.9899,10.6203 C18.7927,6.93088 15.7386,4 12,4 Z M15.47,16.402 C16.7132,15.625 17.8533,14.6046 18.4847,13.2847 C18.3803,12.5583 17.7553,12 17,12 C16.1716,12 15.5,12.6716 15.5,13.5 C15.5,14.0523 15.0523,14.5 14.5,14.5 C13.9477,14.5 13.5,14.0523 13.5,13.5 C13.5,12.6716 12.8284,12 12,12 C11.1716,12 10.5,12.6716 10.5,13.5 C10.5,14.0523 10.0523,14.5 9.5,14.5 C8.94772,14.5 8.5,14.0523 8.5,13.5 C8.5,12.6716 7.82843,12 7,12 C6.24467,12 5.61973,12.5583 5.51533,13.2847 C6.14671,14.6046 7.28677,15.625 8.53,16.402 C9.45747,16.9817 10.393,17.3919 11.1011,17.6574 C11.4536,17.7896 11.7456,17.8844 11.9467,17.9455 L12,17.9615 L12.0533,17.9455 C12.2544,17.8844 12.5464,17.7896 12.8989,17.6574 C13.607,17.3919 14.5425,16.9817 15.47,16.402 Z" id="形状" fill="#09244B"></path>
            </g>
        </g>
    </g>
</svg>