<?xml version="1.0" encoding="UTF-8"?>
<svg width="24px" height="24px" viewBox="0 0 24 24" version="1.1" xmlns="http://www.w3.org/2000/svg" xmlns:xlink="http://www.w3.org/1999/xlink">
    <title>parachute_fill</title>
    <g id="Icon" stroke="none" stroke-width="1" fill="none" fill-rule="evenodd">
        <g id="Sport" transform="translate(-576.000000, -48.000000)">
            <g id="parachute_fill" transform="translate(576.000000, 48.000000)">
                <path d="M24,0 L24,24 L0,24 L0,0 L24,0 Z M12.5935,23.2578 L12.5819,23.2595 L12.5109,23.295 L12.4919,23.2987 L12.4767,23.295 L12.4057,23.2595 C12.3958,23.2564 12.387,23.259 12.3821,23.2649 L12.378,23.2758 L12.3609,23.7031 L12.3659,23.7235 L12.3769,23.7357 L12.4805,23.8097 L12.4953,23.8136 L12.5071,23.8097 L12.6107,23.7357 L12.6233,23.7197 L12.6267,23.7031 L12.6096,23.2758 C12.6076,23.2657 12.601,23.2593 12.5935,23.2578 Z M12.8584,23.1453 L12.8445,23.1473 L12.6598,23.2397 L12.6499,23.2499 L12.6472,23.2611 L12.6651,23.6906 L12.6699,23.7034 L12.6784,23.7105 L12.8793,23.8032 C12.8914,23.8069 12.9022,23.803 12.9078,23.7952 L12.9118,23.7812 L12.8777,23.1665 C12.8753,23.1546 12.8674,23.147 12.8584,23.1453 Z M12.143,23.1473 C12.1332,23.1424 12.1222,23.1453 12.1156,23.1526 L12.1099,23.1665 L12.0758,23.7812 C12.0751,23.7927 12.0828,23.8019 12.0926,23.8046 L12.1083,23.8032 L12.3092,23.7105 L12.3186,23.7024 L12.3225,23.6906 L12.3404,23.2611 L12.3372,23.2485 L12.3278,23.2397 L12.143,23.1473 Z" id="MingCute" fill-rule="nonzero"></path>
                <path d="M10.1698,19.4423 C9.40788,19.1444 8.44224,18.7056 7.47,18.098 C5.35337,16.7751 3,14.5107 3,11 C3,6.02944 7.02944,2 12,2 C16.9706,2 21,6.02944 21,11 C21,14.5107 18.6466,16.7751 16.53,18.098 C15.5578,18.7056 14.5921,19.1444 13.8302,19.4423 C13.9374,19.6017 14,19.7935 14,20 L14,21 C14,21.5523 13.5523,22 13,22 L11,22 C10.4477,22 10,21.5523 10,21 L10,20 C10,19.7935 10.0626,19.6017 10.1698,19.4423 Z M18.4495,13.357 C18.5944,13.0652 18.5601,12.707 18.3146,12.4927 C17.9631,12.1859 17.5032,12 17,12 C16.0663,12 15.282,12.6399 15.0617,13.5051 C14.9936,13.7727 14.7761,14 14.5,14 C14.2239,14 14.0064,13.7727 13.9383,13.5051 C13.718,12.6399 12.9337,12 12,12 C11.0663,12 10.282,12.6399 10.0617,13.5051 C9.99359,13.7727 9.77615,14 9.50001,14 C9.22386,14 9.00642,13.7727 8.93829,13.5051 C8.71804,12.6399 7.93375,12 7.00001,12 C6.49677,12 6.03693,12.1859 5.68542,12.4927 C5.43995,12.707 5.40566,13.0652 5.55056,13.357 C6.18853,14.6419 7.30956,15.6392 8.53001,16.402 C9.45748,16.9817 10.393,17.3919 11.1011,17.6574 C11.3357,17.7454 11.5436,17.8168 11.7156,17.8728 C11.9005,17.9329 12.0995,17.9329 12.2844,17.8728 C12.4564,17.8168 12.6643,17.7454 12.8989,17.6574 C13.607,17.3919 14.5425,16.9817 15.47,16.402 C16.6905,15.6392 17.8115,14.6419 18.4495,13.357 Z" id="形状" fill="#09244B"></path>
            </g>
        </g>
    </g>
</svg>