<svg xmlns="http://www.w3.org/2000/svg" width="24" height="24" viewBox="0 0 24 24"><title>play_football_line</title><g fill="none" fill-rule="nonzero"><path d="M24 0v24H0V0zM12.594 23.258l-.012.002-.071.035-.02.004-.014-.004-.071-.036q-.016-.004-.024.006l-.004.01-.017.428.005.02.01.013.104.074.015.004.012-.004.104-.074.012-.016.004-.017-.017-.427q-.004-.016-.016-.018m.264-.113-.014.002-.184.093-.01.01-.003.011.018.43.005.012.008.008.201.092q.019.005.029-.008l.004-.014-.034-.614q-.005-.019-.02-.022m-.715.002a.02.02 0 0 0-.027.006l-.006.014-.034.614q.001.018.017.024l.015-.002.201-.093.01-.008.003-.011.018-.43-.003-.012-.01-.01z"/><path fill="#09244b" d="M10 18a2 2 0 1 1 0 4 2 2 0 0 1 0-4m2-16a3 3 0 0 1 .03 6h2.619l2.226-1.781a1 1 0 0 1 1.25 1.562l-2.5 2A1 1 0 0 1 15 10h-1.105q0 .096-.01.193l-.39 3.907 1.373 2.404c.04.083.08.163.102.254l.821 3.285a1 1 0 0 1-.29 1.957H15a1 1 0 0 1-.97-.758l-.967-3.865L11.705 15h-.723L9.63 16.689a1.5 1.5 0 0 1-2.232.123l-.43-.43a1 1 0 0 1-1.175-1.589l.576-.568a1 1 0 0 1 1.338.068l.71.709 1.117-1.397.324-3.235-.377.064-.774.773a1 1 0 0 1-1.414-1.414l1-1c.161-.137.329-.244.543-.28l2.404-.4c.25-.088.493-.094.751-.112A3 3 0 0 1 9.001 5a3 3 0 0 1 3-3m0 2a1 1 0 1 0 0 2 1 1 0 0 0 0-2"/></g></svg>