<svg xmlns="http://www.w3.org/2000/svg" width="24" height="24" viewBox="0 0 24 24"><title>play_football_fill</title><g fill="none" fill-rule="nonzero"><path d="M24 0v24H0V0zM12.594 23.258l-.012.002-.071.035-.02.004-.014-.004-.071-.036q-.016-.004-.024.006l-.004.01-.017.428.005.02.01.013.104.074.015.004.012-.004.104-.074.012-.016.004-.017-.017-.427q-.004-.016-.016-.018m.264-.113-.014.002-.184.093-.01.01-.003.011.018.43.005.012.008.008.201.092q.019.005.029-.008l.004-.014-.034-.614q-.005-.019-.02-.022m-.715.002a.02.02 0 0 0-.027.006l-.006.014-.034.614q.001.018.017.024l.015-.002.201-.093.01-.008.003-.011.018-.43-.003-.012-.01-.01z"/><path fill="#09244b" d="M10 18a2 2 0 1 1 0 4 2 2 0 0 1 0-4m6.875-11.781a1 1 0 0 1 1.25 1.562l-2.5 2A1 1 0 0 1 15 10h-1.105q0 .096-.01.193l-.39 3.907 1.373 2.404c.04.083.08.163.102.254l.821 3.285A1 1 0 0 1 15.5 22H15a1 1 0 0 1-.97-.758l-.967-3.865L11.705 15h-.724L9.63 16.689a1.5 1.5 0 0 1-2.233.123l-.43-.43a1 1 0 0 1-1.174-1.589l.5-.5.076-.068a1 1 0 0 1 1.338.068l.71.709 1.117-1.397.323-3.235-.377.064-.773.773a1 1 0 1 1-1.414-1.414l1-1 .118-.1a1 1 0 0 1 .425-.18l2.404-.4c.252-.09.498-.094.76-.113h2.648zM12 2a3 3 0 1 1 0 6 3 3 0 0 1 0-6"/></g></svg>