<svg xmlns="http://www.w3.org/2000/svg" width="24" height="24" viewBox="0 0 24 24"><title>run_treadmill_fill</title><g fill="none" fill-rule="nonzero"><path d="M24 0v24H0V0zM12.594 23.258l-.012.002-.071.035-.02.004-.014-.004-.071-.036q-.016-.004-.024.006l-.004.01-.017.428.005.02.01.013.104.074.015.004.012-.004.104-.074.012-.016.004-.017-.017-.427q-.004-.016-.016-.018m.264-.113-.014.002-.184.093-.01.01-.003.011.018.43.005.012.008.008.201.092q.019.005.029-.008l.004-.014-.034-.614q-.005-.019-.02-.022m-.715.002a.02.02 0 0 0-.027.006l-.006.014-.034.614q.001.018.017.024l.015-.002.201-.093.01-.008.003-.011.018-.43-.003-.012-.01-.01z"/><path fill="#09244b" d="M18.106 4.053a1 1 0 0 1 1.341-.448l1 .5a1 1 0 0 1 .534 1.091L18.22 19H19a1 1 0 0 1 0 2H4a1 1 0 1 1 0-2h12.18l2.69-13.447-.317-.158a1 1 0 0 1-.448-1.342M11.5 2a2.5 2.5 0 0 1 .807 4.864l1.931 1.545 1.52-.379a1 1 0 1 1 .484 1.94l-1.76.44a1.5 1.5 0 0 1-1.3-.284l-.408-.325-.189 1.902c-.04.395-.194.751-.426 1.042l.813.813a2 2 0 0 1 .565 1.13l.453 3.17a1 1 0 0 1-1.98.284l-.452-3.17-1.568-1.568a1.995 1.995 0 0 1-1.376-2.097l.246-2.47-.705.089-.76 1.521a1 1 0 0 1-1.79-.894l.761-1.522a2 2 0 0 1 1.541-1.09l2.2-.274q.045-.019.091-.036A2.5 2.5 0 0 1 9 4.5 2.5 2.5 0 0 1 11.5 2M8.105 14.053a1 1 0 0 1 1.79.894l-.898 1.794a1.5 1.5 0 0 1-.977.785l-1.778.444a1 1 0 1 1-.484-1.94l1.552-.388z"/></g></svg>