<svg xmlns="http://www.w3.org/2000/svg" width="24" height="24"><g fill="none" fill-rule="evenodd"><path d="M24 0v24H0V0zM12.594 23.258l-.012.002-.071.035-.02.004-.014-.004-.071-.036c-.01-.003-.019 0-.024.006l-.004.01-.017.428.005.02.01.013.104.074.015.004.012-.004.104-.074.012-.016.004-.017-.017-.427c-.002-.01-.009-.017-.016-.018m.264-.113-.014.002-.184.093-.01.01-.003.011.018.43.005.012.008.008.201.092c.012.004.023 0 .029-.008l.004-.014-.034-.614c-.003-.012-.01-.02-.02-.022m-.715.002a.023.023 0 0 0-.027.006l-.006.014-.034.614c0 .012.007.02.017.024l.015-.002.201-.093.01-.008.003-.011.018-.43-.003-.012-.01-.01z"/><path fill="#09244B" d="M13.457 3.604a5.002 5.002 0 0 1 6.939 6.939 2.501 2.501 0 0 1-.132 3.082l-.132.143-.707.707c-.81.81-2.039.948-2.991.413l-.156-.095-1.485 1.485a2.5 2.5 0 0 1-.19 3.008l-.128.139-.707.707a2.5 2.5 0 0 1-3.225.264 5.002 5.002 0 0 1-6.939-6.939 2.501 2.501 0 0 1 .132-3.082l.132-.143.707-.707a2.501 2.501 0 0 1 2.99-.413l.157.095 1.485-1.485a2.501 2.501 0 0 1 .19-3.008l.128-.139.707-.707a2.5 2.5 0 0 1 3.225-.264m-.396 13.7a.5.5 0 0 0-.638-.059l-.07.058-.707.707a.5.5 0 0 0 .638.765l.07-.057.707-.708a.5.5 0 0 0 0-.707Zm4.95-5.657-.708.707a.5.5 0 1 0 .707.707l.707-.707a.5.5 0 1 0-.707-.707Zm-11.314-.708a.5.5 0 0 0-.638-.057l-.07.057-.707.707a.5.5 0 0 0 .638.765l.07-.057.707-.707a.5.5 0 0 0 0-.708m4.95-5.656-.708.707a.5.5 0 0 0 .707.707l.708-.707a.5.5 0 0 0-.708-.707Z"/></g></svg>