<svg xmlns="http://www.w3.org/2000/svg" width="24" height="24" viewBox="0 0 24 24"><title>skateboarding_fill</title><g fill="none" fill-rule="nonzero"><path d="M24 0v24H0V0zM12.594 23.258l-.012.002-.071.035-.02.004-.014-.004-.071-.036q-.016-.004-.024.006l-.004.01-.017.428.005.02.01.013.104.074.015.004.012-.004.104-.074.012-.016.004-.017-.017-.427q-.004-.016-.016-.018m.264-.113-.014.002-.184.093-.01.01-.003.011.018.43.005.012.008.008.201.092q.019.005.029-.008l.004-.014-.034-.614q-.005-.019-.02-.022m-.715.002a.02.02 0 0 0-.027.006l-.006.014-.034.614q.001.018.017.024l.015-.002.201-.093.01-.008.003-.011.018-.43-.003-.012-.01-.01z"/><path fill="#09244b" d="M10.713 6c.375 0 .743.105 1.06.304l7.757 4.848a1 1 0 0 1-1.06 1.696l-3.955-2.472q-.094.167-.22.315L13.175 12h1.891c1.198 0 1.913 1.335 1.248 2.332l-1.481 2.223a1 1 0 0 1-1.664-1.11L14.13 14h-2.596l-1.703 2.555a1 1 0 1 1-1.664-1.11L9.23 13.85c-1.141-.47-1.652-1.954-.83-3.05l1.977-2.636q.065-.085.134-.163H7a1 1 0 0 1 0-2zM19 20.5a1.5 1.5 0 1 1-2.913-.5H7.913A1.495 1.495 0 0 1 6.5 22a1.5 1.5 0 0 1-1.35-2.153 4 4 0 0 1-1.736-1.019l-.121-.121a1 1 0 1 1 1.414-1.414l.121.121c.375.375.884.586 1.414.586h11.516c.53 0 1.039-.211 1.414-.586l.12-.121a1 1 0 1 1 1.415 1.414l-.121.121a4 4 0 0 1-1.737 1.019c.096.197.15.418.15.653M19 5a3 3 0 1 1-6 0 3 3 0 0 1 6 0"/></g></svg>