<svg xmlns="http://www.w3.org/2000/svg" width="24" height="24" viewBox="0 0 24 24"><title>squats_line</title><g fill="none" fill-rule="nonzero"><path d="M24 0v24H0V0zM12.594 23.258l-.012.002-.071.035-.02.004-.014-.004-.071-.036q-.016-.004-.024.006l-.004.01-.017.428.005.02.01.013.104.074.015.004.012-.004.104-.074.012-.016.004-.017-.017-.427q-.004-.016-.016-.018m.264-.113-.014.002-.184.093-.01.01-.003.011.018.43.005.012.008.008.201.092q.019.005.029-.008l.004-.014-.034-.614q-.005-.019-.02-.022m-.715.002a.02.02 0 0 0-.027.006l-.006.014-.034.614q.001.018.017.024l.015-.002.201-.093.01-.008.003-.011.018-.43-.003-.012-.01-.01z"/><path fill="#09244b" d="M7.67 8.993a2 2 0 0 1 2.664-.973l.706.33a2 2 0 0 1 .217.12q.017.004.034.009l3.287.999 3.28-.468a1 1 0 0 1 .284 1.98l-3.5.5a1 1 0 0 1-.433-.033l-2.117-.645-.85 3.488 1.278.092a2 2 0 0 1 1.613 2.952l-1.552 2.843A1 1 0 0 1 12 22h-1a1 1 0 0 1-.878-1.479l2.255-4.134-3.094-.222a1 1 0 0 1-.201-.035l-.14-.006c-2.134-.09-3.493-2.315-2.598-4.254zm.49 3.715a1 1 0 0 0 .865 1.418l.198.009.97-3.974-.706-.33zM12 5a1 1 0 1 0-2 0 1 1 0 0 0 2 0m2 0a3 3 0 1 1-6 0 3 3 0 0 1 6 0"/></g></svg>