<svg xmlns="http://www.w3.org/2000/svg" width="24" height="24" viewBox="0 0 24 24"><title>swimming_fill</title><g fill="none" fill-rule="nonzero"><path d="M24 0v24H0V0zM12.594 23.258l-.012.002-.071.035-.02.004-.014-.004-.071-.036q-.016-.004-.024.006l-.004.01-.017.428.005.02.01.013.104.074.015.004.012-.004.104-.074.012-.016.004-.017-.017-.427q-.004-.016-.016-.018m.264-.113-.014.002-.184.093-.01.01-.003.011.018.43.005.012.008.008.201.092q.019.005.029-.008l.004-.014-.034-.614q-.005-.019-.02-.022m-.715.002a.02.02 0 0 0-.027.006l-.006.014-.034.614q.001.018.017.024l.015-.002.201-.093.01-.008.003-.011.018-.43-.003-.012-.01-.01z"/><path fill="#09244b" d="M18.421 18.94a1 1 0 0 1-.884 1.104c-.637.07-1.331.092-2.062.031a1 1 0 1 1 .166-1.993 8.7 8.7 0 0 0 1.676-.026 1 1 0 0 1 1.104.883m-6.87-2.272q.31.132.623.292l.312.166q.375.207.746.364a1 1 0 0 1-.783 1.841 10 10 0 0 1-.623-.291l-.311-.166q-.376-.208-.747-.365a1 1 0 0 1 .783-1.841m10.323.846a1 1 0 0 1-.302 1.305l-.118.07a3 3 0 0 1-.146.077l-.1.049c-.165.079-.402.185-.698.3a1 1 0 0 1-.723-1.866l.26-.105a6 6 0 0 0 .466-.217c.487-.244 1.087-.106 1.361.387m-17.09-.257a1 1 0 0 1-.571 1.293l-.266.108-.112.049-.18.083c-.544.26-1.187.312-1.529-.305-.345-.622.04-1.16.566-1.45l.1-.05c.166-.08.402-.185.698-.3a1 1 0 0 1 1.294.572m3.741-1.333a1 1 0 0 1-.166 1.993 8.7 8.7 0 0 0-1.676.026 1 1 0 0 1-.22-1.987c.637-.07 1.331-.093 2.062-.032m2.94-8.504 2.176 1.811c.286.24.537.533.8.796a3 3 0 0 1 .273 3.924c1.2.244 2.336.181 3.292.004a10 10 0 0 0 1.676-.464l.176-.068c.67-.266 1.53-.783 2.016.092a1 1 0 0 1-.302 1.305c-.303.191-.645.33-.976.462l-.393.148c-.495.175-1.118.36-1.834.492-1.765.327-4.143.347-6.553-.886l-.301-.161c-1.988-1.104-3.985-1.113-5.52-.828-.672.124-1.245.303-1.676.464l-.176.068q-.268.107-.432.185l-.075.035c-.536.258-1.174.291-1.51-.313-.358-.645.074-1.215.643-1.489l.21-.098q.182-.082.425-.18l.393-.147c.495-.175 1.118-.36 1.834-.492.648-.12 1.38-.198 2.164-.188l3.059-2.38-.668-.556a1 1 0 0 0-.928-.19l-3.97 1.192a1 1 0 0 1-.575-1.916l3.97-1.191a3 3 0 0 1 2.783.569M17 5a3 3 0 1 1 0 6 3 3 0 0 1 0-6"/></g></svg>