<?xml version="1.0" encoding="UTF-8"?>
<svg width="24px" height="24px" viewBox="0 0 24 24" version="1.1" xmlns="http://www.w3.org/2000/svg" xmlns:xlink="http://www.w3.org/1999/xlink">
    <title>sword_line</title>
    <g id="Icon" stroke="none" stroke-width="1" fill="none" fill-rule="evenodd">
        <g id="Sport" transform="translate(0.000000, -96.000000)">
            <g id="sword_line" transform="translate(0.000000, 96.000000)">
                <path d="M24,0 L24,24 L0,24 L0,0 L24,0 Z M12.5935,23.2578 L12.5819,23.2595 L12.5109,23.295 L12.4919,23.2987 L12.4767,23.295 L12.4057,23.2595 C12.3958,23.2564 12.387,23.259 12.3821,23.2649 L12.378,23.2758 L12.3609,23.7031 L12.3659,23.7235 L12.3769,23.7357 L12.4805,23.8097 L12.4953,23.8136 L12.5071,23.8097 L12.6107,23.7357 L12.6233,23.7197 L12.6267,23.7031 L12.6096,23.2758 C12.6076,23.2657 12.601,23.2593 12.5935,23.2578 Z M12.8584,23.1453 L12.8445,23.1473 L12.6598,23.2397 L12.6499,23.2499 L12.6472,23.2611 L12.6651,23.6906 L12.6699,23.7034 L12.6784,23.7105 L12.8793,23.8032 C12.8914,23.8069 12.9022,23.803 12.9078,23.7952 L12.9118,23.7812 L12.8777,23.1665 C12.8753,23.1546 12.8674,23.147 12.8584,23.1453 Z M12.143,23.1473 C12.1332,23.1424 12.1222,23.1453 12.1156,23.1526 L12.1099,23.1665 L12.0758,23.7812 C12.0751,23.7927 12.0828,23.8019 12.0926,23.8046 L12.1083,23.8032 L12.3092,23.7105 L12.3186,23.7024 L12.3225,23.6906 L12.3404,23.2611 L12.3372,23.2485 L12.3278,23.2397 L12.143,23.1473 Z" id="MingCute" fill-rule="nonzero"></path>
                <path d="M19.0712,3.9292 C19.58405,3.9292 20.0067092,4.31523566 20.0644725,4.8125779 L20.0712,4.9292 L20.0712,10.5861 C20.0712,10.86365 19.9559734,11.1268062 19.7562697,11.3145389 L19.6656,11.3902 L12.4677,16.7104 L13.4144,17.6571 C13.7748615,18.0175615 13.8025893,18.5848207 13.4975834,18.9770973 L13.4144,19.0713 L12.0002,20.4855 C11.72624,20.75946 11.322194,20.848011 10.9635323,20.7226491 L10.8459,20.6729 L8.66209,19.581 L7.05043,21.1927 C6.68994077,21.5531615 6.12271355,21.5808893 5.73041848,21.2758834 L5.63621,21.1927 L2.80779,18.3642 C2.44730077,18.0037385 2.41957083,17.4364793 2.72460018,17.0442027 L2.80779,16.95 L4.41945,15.3383 L3.32757,13.1546 C3.154329,12.8081 3.1981194,12.3968 3.43049015,12.0961703 L3.5148925,12.0003 L4.92911,10.5861 C5.28959,10.2255462 5.85682503,10.1978112 6.2491135,10.5028953 L6.34332,10.5861 L7.29,11.5327 L12.6102,4.33481 C12.775225,4.1115975 13.0243156,3.96846172 13.296509,3.93616547 L13.4144,3.9292 L19.0712,3.9292 Z M5.63621,12.7074 L5.43876,12.9048 L6.53064,15.0886 C6.72313,15.4736 6.64768,15.9385 6.34332,16.2429 L4.92911,17.6571 L6.34332,19.0713 L7.75753,17.6571 C8.06189,17.3528 8.52686,17.2773 8.91185,17.4698 L11.0956,18.5617 L11.2931,18.3642 L5.63621,12.7074 Z M18.0712,5.9292 L13.9188,5.9292 L8.72011,12.9627 L11.0378,15.2803 L18.0712,10.0817 L18.0712,5.9292 Z" id="形状" fill="#09244B"></path>
            </g>
        </g>
    </g>
</svg>