<svg xmlns="http://www.w3.org/2000/svg" width="24" height="24"><g fill="none" fill-rule="evenodd"><path d="M24 0v24H0V0zM12.594 23.258l-.012.002-.071.035-.02.004-.014-.004-.071-.036c-.01-.003-.019 0-.024.006l-.004.01-.017.428.005.02.01.013.104.074.015.004.012-.004.104-.074.012-.016.004-.017-.017-.427c-.002-.01-.009-.017-.016-.018m.264-.113-.014.002-.184.093-.01.01-.003.011.018.43.005.012.008.008.201.092c.012.004.023 0 .029-.008l.004-.014-.034-.614c-.003-.012-.01-.02-.02-.022m-.715.002a.023.023 0 0 0-.027.006l-.006.014-.034.614c0 .012.007.02.017.024l.015-.002.201-.093.01-.008.003-.011.018-.43-.003-.012-.01-.01z"/><path fill="#09244B" d="M11.06 1.94a1.5 1.5 0 0 0-2.12 2.12l.156.157L5.169 10.5H5a1.5 1.5 0 0 0 0 3h.169l3.927 6.283-.157.156a1.5 1.5 0 0 0 2.122 2.122l.895-.895 1.734-1.157a5.5 5.5 0 0 0 2.167-2.837l1.224-3.672h.505a1.5 1.5 0 0 0 2.475.56l1-1a1.5 1.5 0 0 0 0-2.12l-1-1a1.5 1.5 0 0 0-2.475.56h-.505l-1.224-3.672A5.5 5.5 0 0 0 13.69 3.99l-1.734-1.157-.895-.895ZM8.707 10.5l2.747-4.395.573.382a2.5 2.5 0 0 1 .985 1.29l.908 2.723H8.706Zm2.747 7.395L8.706 13.5h5.213l-.908 2.724a2.5 2.5 0 0 1-.985 1.29z"/></g></svg>