<?xml version="1.0" encoding="UTF-8"?>
<svg width="24px" height="24px" viewBox="0 0 24 24" version="1.1" xmlns="http://www.w3.org/2000/svg" xmlns:xlink="http://www.w3.org/1999/xlink">
    <title>volleyball_fill</title>
    <g id="Icon" stroke="none" stroke-width="1" fill="none" fill-rule="evenodd">
        <g id="Sport" transform="translate(-912.000000, -48.000000)" fill-rule="nonzero">
            <g id="volleyball_fill" transform="translate(912.000000, 48.000000)">
                <path d="M24,0 L24,24 L0,24 L0,0 L24,0 Z M12.5935,23.2578 L12.5819,23.2595 L12.5109,23.295 L12.4919,23.2987 L12.4767,23.295 L12.4057,23.2595 C12.3958,23.2564 12.387,23.259 12.3821,23.2649 L12.378,23.2758 L12.3609,23.7031 L12.3659,23.7235 L12.3769,23.7357 L12.4805,23.8097 L12.4953,23.8136 L12.5071,23.8097 L12.6107,23.7357 L12.6233,23.7197 L12.6267,23.7031 L12.6096,23.2758 C12.6076,23.2657 12.601,23.2593 12.5935,23.2578 Z M12.8584,23.1453 L12.8445,23.1473 L12.6598,23.2397 L12.6499,23.2499 L12.6472,23.2611 L12.6651,23.6906 L12.6699,23.7034 L12.6784,23.7105 L12.8793,23.8032 C12.8914,23.8069 12.9022,23.803 12.9078,23.7952 L12.9118,23.7812 L12.8777,23.1665 C12.8753,23.1546 12.8674,23.147 12.8584,23.1453 Z M12.143,23.1473 C12.1332,23.1424 12.1222,23.1453 12.1156,23.1526 L12.1099,23.1665 L12.0758,23.7812 C12.0751,23.7927 12.0828,23.8019 12.0926,23.8046 L12.1083,23.8032 L12.3092,23.7105 L12.3186,23.7024 L12.3225,23.6906 L12.3404,23.2611 L12.3372,23.2485 L12.3278,23.2397 L12.143,23.1473 Z" id="MingCute"></path>
                <path d="M17.6808,14.1745 C18.9246,15.2209 19.6618,16.7075 19.7921,18.2681 C17.9591,20.5439 15.1496,22 12,22 C11.4586,22 10.9273,21.9569 10.4093,21.8741 C11.1356,21.6395 11.8484,21.3252 12.5359,20.9282 C15.1907,19.3955 16.9649,16.922 17.6808,14.1745 Z M15.8697,13.1246 C15.3873,15.592 13.8819,17.8417 11.5359,19.1962 C9.96726,20.1018 8.2403,20.4818 6.5572,20.3904 C5.6072,19.7729 4.76863,18.9984 4.07825,18.1037 C5.79865,18.357 7.61431,18.0539 9.23825,17.1163 C10.9581,16.1234 12.1703,14.5867 12.7823,12.8506 C13.7976,12.6731 14.8615,12.755 15.8697,13.1246 Z M4.24358,5.68774 C4.08401,6.43332 4,7.20687 4,7.99992 C4,11.0654 5.25499,13.8387 7.27652,15.8324 C5.74716,16.3868 4.08979,16.2814 2.67245,15.6125 C2.23819,14.4921 2,13.2738 2,12 C2,9.60635 2.84098,7.40916 4.24358,5.68774 Z M18.4641,8.80382 C20.0322,9.70914 21.2244,11.0141 21.9869,12.5167 C21.9278,13.6783 21.6704,14.7875 21.248,15.8113 C20.6074,14.1937 19.4367,12.7717 17.8118,11.8336 C16.092,10.8406 14.1551,10.5591 12.3455,10.8972 C11.6841,10.1067 11.2231,9.14434 11.0391,8.08649 C13.4171,7.27048 16.1182,7.44936 18.4641,8.80382 Z M10.6754,2.08691 C9.59558,3.45031 8.95001,5.17452 8.95001,7.05002 C8.95001,9.0359 9.67467,10.8541 10.8722,12.2522 C10.5183,13.2202 9.91541,14.1006 9.09131,14.7889 C7.1956,13.1375 6,10.7088 6,7.99992 C6,6.18792 6.53481,4.50176 7.45614,3.08953 C8.44532,2.58409 9.52978,2.23853 10.6754,2.08691 Z M13.5336,2.11683 C17.1271,2.66991 20.0897,5.13597 21.3486,8.44231 C20.7817,7.92993 20.1525,7.4692 19.4641,7.07177 C16.8094,5.53903 13.7801,5.23925 11.0428,5.99309 C11.3272,4.39207 12.2466,3.00992 13.5336,2.11683 Z" id="形状" fill="#09244B"></path>
            </g>
        </g>
    </g>
</svg>