<svg xmlns="http://www.w3.org/2000/svg" width="24" height="24" viewBox="0 0 24 24"><title>warm_up_fill</title><g fill="none" fill-rule="evenodd"><path d="M24 0v24H0V0zM12.594 23.258l-.012.002-.071.035-.02.004-.014-.004-.071-.036q-.016-.004-.024.006l-.004.01-.017.428.005.02.01.013.104.074.015.004.012-.004.104-.074.012-.016.004-.017-.017-.427q-.004-.016-.016-.018m.264-.113-.014.002-.184.093-.01.01-.003.011.018.43.005.012.008.008.201.092q.019.005.029-.008l.004-.014-.034-.614q-.005-.019-.02-.022m-.715.002a.02.02 0 0 0-.027.006l-.006.014-.034.614q.001.018.017.024l.015-.002.201-.093.01-.008.003-.011.018-.43-.003-.012-.01-.01z"/><path fill="#09244b" d="M12 8a2 2 0 0 1 2 2v5h2.5a1.5 1.5 0 0 1 1.5 1.5V21a1 1 0 1 1-2 0v-4l-5.055-.003-.882 2.06c-.186.435-.521.79-.944 1.002l-3.672 1.835a1 1 0 0 1-.895-1.788l3.673-1.837 1.356-3.163q.037-.087.09-.164a1 1 0 0 1-.167-.074L6.78 13.312a1.5 1.5 0 0 1 .026-2.619l3.694-2.015c.345-.391.84-.645 1.396-.673zm-2 3.229-1.45.79 1.45.829zM12 2a3 3 0 1 1 0 6 3 3 0 0 1 0-6"/></g></svg>