<svg xmlns="http://www.w3.org/2000/svg" width="24" height="24" viewBox="0 0 24 24"><title>warm_up_2_fill</title><g fill="none" fill-rule="nonzero"><path d="M24 0v24H0V0zM12.594 23.258l-.012.002-.071.035-.02.004-.014-.004-.071-.036q-.016-.004-.024.006l-.004.01-.017.428.005.02.01.013.104.074.015.004.012-.004.104-.074.012-.016.004-.017-.017-.427q-.004-.016-.016-.018m.264-.113-.014.002-.184.093-.01.01-.003.011.018.43.005.012.008.008.201.092q.019.005.029-.008l.004-.014-.034-.614q-.005-.019-.02-.022m-.715.002a.02.02 0 0 0-.027.006l-.006.014-.034.614q.001.018.017.024l.015-.002.201-.093.01-.008.003-.011.018-.43-.003-.012-.01-.01z"/><path fill="#09244b" d="M9.952 8.1c.418.047.837.089 1.254.142l5.922.766a1.001 1.001 0 0 1-.256 1.984l-3.94-.51c-.17 1.299-.47 2.592-.707 3.88l1.858-.209a2.5 2.5 0 0 1 2.706 1.878l1.18 4.727a1 1 0 1 1-1.939.484l-1.181-4.725a.5.5 0 0 0-.541-.376c-1.645.185-3.29.364-4.932.57q-.02.002-.04.003l-.744 2.603a2 2 0 0 1-1.135 1.29l-3.063 1.312a1 1 0 1 1-.788-1.838L6.67 18.77l.757-2.653a2.49 2.49 0 0 1-.764-2.573l1.144-4.005a2 2 0 0 1 2.146-1.437M14 5a3 3 0 1 1-6 0 3 3 0 0 1 6 0"/></g></svg>