<svg xmlns="http://www.w3.org/2000/svg" width="24" height="24" viewBox="0 0 24 24"><title>warm_up_3_fill</title><g fill="none" fill-rule="nonzero"><path d="M24 0v24H0V0zM12.594 23.258l-.012.002-.071.035-.02.004-.014-.004-.071-.036q-.016-.004-.024.006l-.004.01-.017.428.005.02.01.013.104.074.015.004.012-.004.104-.074.012-.016.004-.017-.017-.427q-.004-.016-.016-.018m.264-.113-.014.002-.184.093-.01.01-.003.011.018.43.005.012.008.008.201.092q.019.005.029-.008l.004-.014-.034-.614q-.005-.019-.02-.022m-.715.002a.02.02 0 0 0-.027.006l-.006.014-.034.614q.001.018.017.024l.015-.002.201-.093.01-.008.003-.011.018-.43-.003-.012-.01-.01z"/><path fill="#09244b" d="M14.472 2a1 1 0 0 1 1.028.972l.5 17.5a1 1 0 0 1-2 .056l-.18-6.304-3.036-.117.982 1.717a2 2 0 0 1 .25.772l.478 4.294a1 1 0 0 1-1.988.22l-.477-4.294-1.763-3.087-.096-.058-3.248 7.717a1 1 0 0 1-1.844-.776l3.943-9.365A2.5 2.5 0 0 1 9.595 9.06l4.082.158-.177-6.19A1 1 0 0 1 14.472 2M19 9a3 3 0 1 1 0 6 3 3 0 0 1 0-6"/></g></svg>