<svg xmlns="http://www.w3.org/2000/svg" width="24" height="24" viewBox="0 0 24 24"><title>weightlifting_line</title><g fill="none" fill-rule="nonzero"><path d="M24 0v24H0V0zM12.594 23.258l-.012.002-.071.035-.02.004-.014-.004-.071-.036q-.016-.004-.024.006l-.004.01-.017.428.005.02.01.013.104.074.015.004.012-.004.104-.074.012-.016.004-.017-.017-.427q-.004-.016-.016-.018m.264-.113-.014.002-.184.093-.01.01-.003.011.018.43.005.012.008.008.201.092q.019.005.029-.008l.004-.014-.034-.614q-.005-.019-.02-.022m-.715.002a.02.02 0 0 0-.027.006l-.006.014-.034.614q.001.018.017.024l.015-.002.201-.093.01-.008.003-.011.018-.43-.003-.012-.01-.01z"/><path fill="#09244b" d="M19 16v-1.002c-.69 0-1.413-.184-2.1-.253a50 50 0 0 0-2.016-.16c-.098.394-.224.768-.45 1.108l1.391.835c.373.224.594.58.7.992l.456 2.284a1 1 0 0 1-1.962.392l-.414-2.066-1.995-1.197A3 3 0 0 1 12 17q-.314-.002-.611-.067L9.394 18.13l-.414 2.066a1 1 0 0 1-1.96-.392l.456-2.283c.083-.415.337-.775.699-.993l1.39-.835c-.226-.34-.35-.715-.45-1.107-.762.045-1.442.102-2.015.16-.687.068-1.41.251-2.1.252V16a1 1 0 1 1-2 0v-4a1 1 0 1 1 2 0v.987c.22-.033.656-.094 1.263-.163l2.38-2.776A3 3 0 0 1 10.92 9h2.252a3 3 0 0 1 2.121.879l2.914 2.914q.045.046.084.098c.322.04.563.074.709.096V12a1 1 0 1 1 2 0v4a1 1 0 1 1-2 0m-7-1.5q-.414 0-.812.008a.918.918 0 0 0 1.624 0A48 48 0 0 0 12 14.5M10.92 11c-.292 0-.57.128-.76.35l-1.058 1.234c.876-.05 1.853-.084 2.898-.084 1.162 0 2.24.044 3.19.104l-1.311-1.311a1 1 0 0 0-.707-.293zM13 6a1 1 0 1 0-2 0 1 1 0 0 0 2 0m2 0a3 3 0 1 1-6 0 3 3 0 0 1 6 0"/></g></svg>