<svg xmlns="http://www.w3.org/2000/svg" width="24" height="24" viewBox="0 0 24 24"><g fill="none"><path d="M24,0 L24,24 L0,24 L0,0 L24,0 Z M12.5935,23.2578 L12.5819,23.2595 L12.5109,23.295 L12.4919,23.2987 L12.4767,23.295 L12.4057,23.2595 C12.3958,23.2564 12.387,23.259 12.3821,23.2649 L12.378,23.2758 L12.3609,23.7031 L12.3659,23.7235 L12.3769,23.7357 L12.4805,23.8097 L12.4953,23.8136 L12.5071,23.8097 L12.6107,23.7357 L12.6233,23.7197 L12.6267,23.7031 L12.6096,23.2758 C12.6076,23.2657 12.601,23.2593 12.5935,23.2578 Z M12.8584,23.1453 L12.8445,23.1473 L12.6598,23.2397 L12.6499,23.2499 L12.6472,23.2611 L12.6651,23.6906 L12.6699,23.7034 L12.6784,23.7105 L12.8793,23.8032 C12.8914,23.8069 12.9022,23.803 12.9078,23.7952 L12.9118,23.7812 L12.8777,23.1665 C12.8753,23.1546 12.8674,23.147 12.8584,23.1453 Z M12.143,23.1473 C12.1332,23.1424 12.1222,23.1453 12.1156,23.1526 L12.1099,23.1665 L12.0758,23.7812 C12.0751,23.7927 12.0828,23.8019 12.0926,23.8046 L12.1083,23.8032 L12.3092,23.7105 L12.3186,23.7024 L12.3225,23.6906 L12.3404,23.2611 L12.3372,23.2485 L12.3278,23.2397 L12.143,23.1473 Z"/><path fill="#09244B" d="M2.63775,4.92901 C3.61406,3.9527 5.19697,3.9527 6.17328,4.92901 C6.44287,5.1986 6.63802,5.51443 6.75872,5.85098 C9.19482633,4.87957667 12.0663464,5.33087434 14.0978891,7.20485497 L14.305,7.40379 L22.0832,15.182 C22.4386769,15.5374769 22.4660213,16.1134698 22.1652331,16.5029509 L22.0832,16.5962 L19.9618,18.7175 C19.6511636,19.0281364 19.178957,19.0964587 18.797096,18.899627 L18.6855,18.8326 L15.1022,16.3518 C14.8688,16.6866 14.603,17.0053 14.305,17.3033 C11.5713,20.037 7.13916,20.037 4.40549,17.3033 C2.13327,15.0311 1.74971,11.5854 3.25483,8.91698 C3.03266,8.80175 2.82415,8.65094 2.63775,8.46454 C1.66144,7.48823 1.66144,5.90532 2.63775,4.92901 Z M11.8301,9.88568 C10.4633,8.51884 8.24722,8.51884 6.88038,9.88568 C5.51355,11.2525 5.51355,13.4686 6.88038,14.8354 C8.24722,16.2023 10.4633,16.2023 11.8301,14.8354 C13.197,13.4686 13.197,11.2525 11.8301,9.88568 Z M8.29459,11.2999 C8.88038,10.7141 9.83013,10.7141 10.4159,11.2999 C11.0017,11.8857 11.0017,12.8354 10.4159,13.4212 C9.83013,14.007 8.88038,14.007 8.29459,13.4212 C7.70881,12.8354 7.70881,11.8857 8.29459,11.2999 Z M4.75907,6.34322 C4.56381,6.14796 4.24723,6.14796 4.05196,6.34322 C3.8567,6.53849 3.8567,6.85507 4.05196,7.05033 C4.24723,7.24559 4.56381,7.24559 4.75907,7.05033 C4.95433,6.85507 4.95433,6.53849 4.75907,6.34322 Z"/></g></svg>