<svg xmlns="http://www.w3.org/2000/svg" width="24" height="24" viewBox="0 0 24 24"><title>zazen_fill</title><g fill="none" fill-rule="nonzero"><path d="M24 0v24H0V0zM12.594 23.258l-.012.002-.071.035-.02.004-.014-.004-.071-.036q-.016-.004-.024.006l-.004.01-.017.428.005.02.01.013.104.074.015.004.012-.004.104-.074.012-.016.004-.017-.017-.427q-.004-.016-.016-.018m.264-.113-.014.002-.184.093-.01.01-.003.011.018.43.005.012.008.008.201.092q.019.005.029-.008l.004-.014-.034-.614q-.005-.019-.02-.022m-.715.002a.02.02 0 0 0-.027.006l-.006.014-.034.614q.001.018.017.024l.015-.002.201-.093.01-.008.003-.011.018-.43-.003-.012-.01-.01z"/><path fill="#09244b" d="M12 2a3 3 0 0 1 .43 5.97c.334.014.656.048.935.101.885.168 1.697.63 2.293 1.325l1.576 1.84c.26.304.58.552.936.73l2.278 1.14a1 1 0 0 1-.895 1.789l-2.277-1.14a5 5 0 0 1-1.56-1.218l-.382-.445.489 3.177c.052.336.271.623.582.761l1.647.732a2.796 2.796 0 0 1 1.262 3.992 2.2 2.2 0 0 1-2.416 1l-2.252-.562a5 5 0 0 1-1.862-.91l.96-.8c.99-.12 1.757-.96 1.757-1.982 0-1-.896-1.5-2-1.5l-.254.005c-1.297.052-1.629.495.254.495a1 1 0 0 1 0 2 .38.38 0 0 0-.245.088l-1.914 1.595a5 5 0 0 1-1.988 1.01l-2.252.562a2.2 2.2 0 0 1-2.416-1.001 2.796 2.796 0 0 1 1.262-3.992l1.647-.732a1 1 0 0 0 .582-.761l.489-3.177-.381.445c-.434.506-.965.92-1.56 1.219l-2.278 1.139a1 1 0 0 1-.895-1.79l2.278-1.138c.357-.179.676-.427.936-.73l1.576-1.84a4 4 0 0 1 2.3-1.328c.28-.053.6-.087.93-.102A2.996 2.996 0 0 1 9 5a3 3 0 0 1 3-3"/></g></svg>