<svg xmlns="http://www.w3.org/2000/svg" width="24" height="24" viewBox="0 0 24 24"><title>apple_fruit_fill</title><g fill="none" fill-rule="nonzero"><path d="M24 0v24H0V0zM12.594 23.258l-.012.002-.071.035-.02.004-.014-.004-.071-.036q-.016-.004-.024.006l-.004.01-.017.428.005.02.01.013.104.074.015.004.012-.004.104-.074.012-.016.004-.017-.017-.427q-.004-.016-.016-.018m.264-.113-.014.002-.184.093-.01.01-.003.011.018.43.005.012.008.008.201.092q.019.005.029-.008l.004-.014-.034-.614q-.005-.019-.02-.022m-.715.002a.02.02 0 0 0-.027.006l-.006.014-.034.614q.001.018.017.024l.015-.002.201-.093.01-.008.003-.011.018-.43-.003-.012-.01-.01z"/><path fill="#09244b" d="M15.6 3a.9.9 0 0 1 0 1.8c-1 0-1.739.625-2.232 1.666 1.259-.53 2.607-.713 3.814-.39 1.652.443 2.912 1.38 3.507 2.97.569 1.52.47 3.485-.172 5.884-.515 1.923-1.446 3.596-2.71 4.695-1.287 1.118-2.922 1.633-4.691 1.16a5.7 5.7 0 0 1-1.117-.434c-.353.181-.725.329-1.116.434-1.769.473-3.404-.042-4.69-1.16-1.265-1.1-2.195-2.772-2.71-4.695-.643-2.399-.741-4.365-.173-5.883.596-1.59 1.856-2.528 3.508-2.97.732-.196 1.515-.207 2.3-.066C8.29 5.246 7.97 4.189 8.077 4c.131-.225 1.663-.544 2.909.175.445.257.793.613 1.05.973C12.749 3.976 13.899 3 15.6 3"/></g></svg>