<?xml version="1.0" encoding="UTF-8"?>
<svg width="24px" height="24px" viewBox="0 0 24 24" version="1.1" xmlns="http://www.w3.org/2000/svg" xmlns:xlink="http://www.w3.org/1999/xlink">
    <title>butterfly_fill</title>
    <g id="Icon" stroke="none" stroke-width="1" fill="none" fill-rule="evenodd">
        <g id="Nature" transform="translate(0.000000, -144.000000)" fill-rule="nonzero">
            <g id="butterfly_fill" transform="translate(0.000000, 144.000000)">
                <path d="M24,0 L24,24 L0,24 L0,0 L24,0 Z M12.5935,23.2578 L12.5819,23.2595 L12.5109,23.295 L12.4919,23.2987 L12.4767,23.295 L12.4057,23.2595 C12.3958,23.2564 12.387,23.259 12.3821,23.2649 L12.378,23.2758 L12.3609,23.7031 L12.3659,23.7235 L12.3769,23.7357 L12.4805,23.8097 L12.4953,23.8136 L12.5071,23.8097 L12.6107,23.7357 L12.6233,23.7197 L12.6267,23.7031 L12.6096,23.2758 C12.6076,23.2657 12.601,23.2593 12.5935,23.2578 Z M12.8584,23.1453 L12.8445,23.1473 L12.6598,23.2397 L12.6499,23.2499 L12.6472,23.2611 L12.6651,23.6906 L12.6699,23.7034 L12.6784,23.7105 L12.8793,23.8032 C12.8914,23.8069 12.9022,23.803 12.9078,23.7952 L12.9118,23.7812 L12.8777,23.1665 C12.8753,23.1546 12.8674,23.147 12.8584,23.1453 Z M12.143,23.1473 C12.1332,23.1424 12.1222,23.1453 12.1156,23.1526 L12.1099,23.1665 L12.0758,23.7812 C12.0751,23.7927 12.0828,23.8019 12.0926,23.8046 L12.1083,23.8032 L12.3092,23.7105 L12.3186,23.7024 L12.3225,23.6906 L12.3404,23.2611 L12.3372,23.2485 L12.3278,23.2397 L12.143,23.1473 Z" id="MingCute"></path>
                <path d="M9.24253,3.03009 C8.70673,2.89615 8.1638,3.22191 8.02985,3.7577 C7.8959,4.2935 8.22166,4.83643 8.75746,4.97038 C9.09176,5.05396 9.46314,5.33108 9.84162,5.82641 C10.0542,6.1046 10.2423,6.41688 10.4039,6.72706 C9.7643,6.29416 8.9739,6.00024 8,6.00024 C6.46373,6.00024 5.1844,6.63302 4.30476,7.67217 C3.43856,8.69544 3,10.061 3,11.5002 C3,13.7475 4.34717,15.679 6.27808,16.5327 C6.0987,16.9872 6,17.4825 6,18.0002 C6,20.2094 7.79086,22.0002 10,22.0002 C10.728,22.0002 11.4116,21.8051 12,21.4649 C12.5884,21.8051 13.272,22.0002 14,22.0002 C16.2091,22.0002 18,20.2094 18,18.0002 C18,17.4825 17.9013,16.9872 17.7219,16.5327 C19.6528,15.679 21,13.7475 21,11.5002 C21,10.061 20.5614,8.69544 19.6952,7.67217 C18.8156,6.63302 17.5363,6.00024 16,6.00024 C15.0261,6.00024 14.2357,6.29417 13.5961,6.72707 C13.7577,6.41689 13.9458,6.1046 14.1584,5.82641 C14.5368,5.33108 14.9082,5.05396 15.2425,4.97038 C15.7783,4.83643 16.1041,4.2935 15.9701,3.7577 C15.8362,3.22191 15.2933,2.89615 14.7575,3.03009 C13.7887,3.27228 13.0693,3.95764 12.5692,4.61212 C12.3553,4.89198 12.1659,5.18678 12,5.4773 C11.8341,5.18678 11.6446,4.89198 11.4308,4.61212 C10.9307,3.95764 10.2113,3.27228 9.24253,3.03009 Z" id="路径" fill="#09244B"></path>
            </g>
        </g>
    </g>
</svg>