<svg xmlns="http://www.w3.org/2000/svg" width="24" height="24"><g fill="none"><path d="M24 0v24H0V0zM12.594 23.258l-.012.002-.071.035-.02.004-.014-.004-.071-.036c-.01-.003-.019 0-.024.006l-.004.01-.017.428.005.02.01.013.104.074.015.004.012-.004.104-.074.012-.016.004-.017-.017-.427c-.002-.01-.009-.017-.016-.018m.264-.113-.014.002-.184.093-.01.01-.003.011.018.43.005.012.008.008.201.092c.012.004.023 0 .029-.008l.004-.014-.034-.614c-.003-.012-.01-.02-.02-.022m-.715.002a.023.023 0 0 0-.027.006l-.006.014-.034.614c0 .012.007.02.017.024l.015-.002.201-.093.01-.008.003-.011.018-.43-.003-.012-.01-.01z"/><path fill="#09244B" d="M9.243 3.03a1 1 0 0 0-.486 1.94c.335.084.706.361 1.085.856.212.279.4.59.562.901A4.196 4.196 0 0 0 8 6c-1.536 0-2.816.633-3.695 1.672C3.439 8.695 3 10.061 3 11.5a5.5 5.5 0 0 0 3.278 5.033A4 4 0 0 0 12 21.465a4 4 0 0 0 5.722-4.932A5.5 5.5 0 0 0 21 11.5c0-1.439-.439-2.805-1.305-3.828C18.815 6.633 17.536 6 16 6c-.974 0-1.764.294-2.404.727.162-.31.35-.622.562-.9.379-.496.75-.773 1.085-.857a1 1 0 1 0-.486-1.94c-.968.242-1.688.928-2.188 1.582-.214.28-.403.575-.569.865a7.8 7.8 0 0 0-.57-.865c-.5-.654-1.219-1.34-2.187-1.582"/></g></svg>