<svg xmlns="http://www.w3.org/2000/svg" width="24" height="24"><g fill="none" fill-rule="evenodd"><path d="M24 0v24H0V0zM12.594 23.258l-.012.002-.071.035-.02.004-.014-.004-.071-.036c-.01-.003-.019 0-.024.006l-.004.01-.017.428.005.02.01.013.104.074.015.004.012-.004.104-.074.012-.016.004-.017-.017-.427c-.002-.01-.009-.017-.016-.018m.264-.113-.014.002-.184.093-.01.01-.003.011.018.43.005.012.008.008.201.092c.012.004.023 0 .029-.008l.004-.014-.034-.614c-.003-.012-.01-.02-.02-.022m-.715.002a.023.023 0 0 0-.027.006l-.006.014-.034.614c0 .012.007.02.017.024l.015-.002.201-.093.01-.008.003-.011.018-.43-.003-.012-.01-.01z"/><path fill="#09244B" d="M18.296 3.045a1 1 0 0 1 .687.77l1.341 7.155c.13.687.171 1.367.136 2.03H21a1 1 0 1 1 0 2h-.894a8.56 8.56 0 0 1-.551 1.363l1.07.856a1 1 0 1 1-1.25 1.562l-.936-.749A8.427 8.427 0 0 1 12 21a8.427 8.427 0 0 1-6.44-2.968l-.935.749a1 1 0 1 1-1.25-1.562l1.07-.856A8.442 8.442 0 0 1 3.895 15H3a1 1 0 1 1 0-2h.54a8.52 8.52 0 0 1 .136-2.03l1.341-7.154a1 1 0 0 1 1.69-.523l2.414 2.414A1 1 0 0 0 9.828 6h4.344a1 1 0 0 0 .707-.293l2.414-2.414a1 1 0 0 1 1.003-.248m-5.743 11.56-.553.277-.553-.276a1 1 0 1 0-.894 1.788l.553.277a2 2 0 0 0 1.788 0l.553-.277a1 1 0 1 0-.894-1.788ZM9.5 10a1.5 1.5 0 1 0 0 3 1.5 1.5 0 0 0 0-3m5 0a1.5 1.5 0 1 0 0 3 1.5 1.5 0 0 0 0-3"/></g></svg>