<?xml version="1.0" encoding="UTF-8"?>
<svg width="24px" height="24px" viewBox="0 0 24 24" version="1.1" xmlns="http://www.w3.org/2000/svg" xmlns:xlink="http://www.w3.org/1999/xlink">
    <title>chess_fill</title>
    <g id="Icon" stroke="none" stroke-width="1" fill="none" fill-rule="evenodd">
        <g id="Nature" transform="translate(-384.000000, -146.000000)">
            <g id="chess_fill" transform="translate(384.000000, 146.000000)">
                <path d="M24,0 L24,24 L0,24 L0,0 L24,0 Z M12.5935,23.2578 L12.5819,23.2595 L12.5109,23.295 L12.4919,23.2987 L12.4767,23.295 L12.4057,23.2595 C12.3958,23.2564 12.387,23.259 12.3821,23.2649 L12.378,23.2758 L12.3609,23.7031 L12.3659,23.7235 L12.3769,23.7357 L12.4805,23.8097 L12.4953,23.8136 L12.5071,23.8097 L12.6107,23.7357 L12.6233,23.7197 L12.6267,23.7031 L12.6096,23.2758 C12.6076,23.2657 12.601,23.2593 12.5935,23.2578 Z M12.8584,23.1453 L12.8445,23.1473 L12.6598,23.2397 L12.6499,23.2499 L12.6472,23.2611 L12.6651,23.6906 L12.6699,23.7034 L12.6784,23.7105 L12.8793,23.8032 C12.8914,23.8069 12.9022,23.803 12.9078,23.7952 L12.9118,23.7812 L12.8777,23.1665 C12.8753,23.1546 12.8674,23.147 12.8584,23.1453 Z M12.143,23.1473 C12.1332,23.1424 12.1222,23.1453 12.1156,23.1526 L12.1099,23.1665 L12.0758,23.7812 C12.0751,23.7927 12.0828,23.8019 12.0926,23.8046 L12.1083,23.8032 L12.3092,23.7105 L12.3186,23.7024 L12.3225,23.6906 L12.3404,23.2611 L12.3372,23.2485 L12.3278,23.2397 L12.143,23.1473 Z" id="MingCute" fill-rule="nonzero"></path>
                <path d="M6.99993,2 L9.99994,2 C12.2221,2 15.7566,3.10766 16.9486,6.68377 C17.4939,8.31966 17.2713,9.7308 17.0449,11.1651 C17.0259,11.2856 17.0069,11.4062 16.9883,11.5271 C16.7709,12.9405 16.5584,14.6049 16.8633,17 L17.9999,17 C18.5522,17 18.9999,17.4477 18.9999,18 L18.9999,21 C18.9999,21.5523 18.5522,22 17.9999,22 L5.99994,22 C5.44765,22 4.99994,21.5523 4.99994,21 L4.99994,18 C4.99994,17.4477 5.44765,17 5.99994,17 L7.10649,17 C7.33769,15.8559 8.00521,14.2819 9.66964,12.6441 C9.85219,12.4645 9.95971,12.2574 10.0047,12.0524 C8.63823,12.9175 7.28653,13.5358 6.70044,13.7899 C6.12677,14.0387 5.48075,13.895 5.0597,13.474 L3.58268,11.997 C3.07708,11.4914 2.99864,10.6992 3.39526,10.1043 L6.84598,4.92816 L6.10551,3.44722 C5.95052,3.13724 5.96708,2.7691 6.14929,2.47428 C6.33149,2.17946 6.65336,2 6.99993,2 Z M8.99994,9 C9.55222,9 9.99994,8.55228 9.99994,8 C9.99994,7.44772 9.55222,7 8.99994,7 C8.44765,7 7.99994,7.44772 7.99994,8 C7.99994,8.55228 8.44765,9 8.99994,9 Z" id="形状" fill="#09244B"></path>
            </g>
        </g>
    </g>
</svg>