<svg xmlns="http://www.w3.org/2000/svg" width="24" height="24"><g fill="none" fill-rule="evenodd"><path d="M24 0v24H0V0zM12.594 23.258l-.012.002-.071.035-.02.004-.014-.004-.071-.036c-.01-.003-.019 0-.024.006l-.004.01-.017.428.005.02.01.013.104.074.015.004.012-.004.104-.074.012-.016.004-.017-.017-.427c-.002-.01-.009-.017-.016-.018m.264-.113-.014.002-.184.093-.01.01-.003.011.018.43.005.012.008.008.201.092c.012.004.023 0 .029-.008l.004-.014-.034-.614c-.003-.012-.01-.02-.02-.022m-.715.002a.023.023 0 0 0-.027.006l-.006.014-.034.614c0 .012.007.02.017.024l.015-.002.201-.093.01-.008.003-.011.018-.43-.003-.012-.01-.01z"/><path fill="#09244B" d="M7 2h3c2.222 0 5.757 1.108 6.949 4.684.545 1.636.322 3.047.096 4.481-.02.12-.038.241-.057.362-.217 1.414-.43 3.078-.125 5.473H18a1 1 0 0 1 1 1v3a1 1 0 0 1-1 1H6a1 1 0 0 1-1-1v-3a1 1 0 0 1 1-1h1.106c.232-1.144.9-2.718 2.564-4.356.182-.18.29-.387.335-.592A25.191 25.191 0 0 1 6.7 13.79a1.484 1.484 0 0 1-1.64-.316l-1.477-1.477a1.5 1.5 0 0 1-.188-1.893l3.451-5.176-.74-1.48A1 1 0 0 1 7 2m2 7a1 1 0 1 0 0-2 1 1 0 0 0 0 2"/></g></svg>