<?xml version="1.0" encoding="UTF-8"?>
<svg width="24px" height="24px" viewBox="0 0 24 24" version="1.1" xmlns="http://www.w3.org/2000/svg" xmlns:xlink="http://www.w3.org/1999/xlink">
    <title>chess_line</title>
    <g id="Icon" stroke="none" stroke-width="1" fill="none" fill-rule="evenodd">
        <g id="Nature" transform="translate(-384.000000, -98.000000)">
            <g id="chess_line" transform="translate(384.000000, 98.000000)">
                <path d="M24,0 L24,24 L0,24 L0,0 L24,0 Z M12.5935,23.2578 L12.5819,23.2595 L12.5109,23.295 L12.4919,23.2987 L12.4767,23.295 L12.4057,23.2595 C12.3958,23.2564 12.387,23.259 12.3821,23.2649 L12.378,23.2758 L12.3609,23.7031 L12.3659,23.7235 L12.3769,23.7357 L12.4805,23.8097 L12.4953,23.8136 L12.5071,23.8097 L12.6107,23.7357 L12.6233,23.7197 L12.6267,23.7031 L12.6096,23.2758 C12.6076,23.2657 12.601,23.2593 12.5935,23.2578 Z M12.8584,23.1453 L12.8445,23.1473 L12.6598,23.2397 L12.6499,23.2499 L12.6472,23.2611 L12.6651,23.6906 L12.6699,23.7034 L12.6784,23.7105 L12.8793,23.8032 C12.8914,23.8069 12.9022,23.803 12.9078,23.7952 L12.9118,23.7812 L12.8777,23.1665 C12.8753,23.1546 12.8674,23.147 12.8584,23.1453 Z M12.143,23.1473 C12.1332,23.1424 12.1222,23.1453 12.1156,23.1526 L12.1099,23.1665 L12.0758,23.7812 C12.0751,23.7927 12.0828,23.8019 12.0926,23.8046 L12.1083,23.8032 L12.3092,23.7105 L12.3186,23.7024 L12.3225,23.6906 L12.3404,23.2611 L12.3372,23.2485 L12.3278,23.2397 L12.143,23.1473 Z" id="MingCute" fill-rule="nonzero"></path>
                <path d="M9.99994,2 C12.2221,2 15.7566,3.10766 16.9486,6.68377 C17.38484,7.992482 17.329624,9.1571044 17.1742224,10.3050126 L16.9126086,12.0371503 C16.7280612,13.342237 16.5942706,14.8866765 16.8633,17 L17.9999,17 C18.5522,17 18.9999,17.4477 18.9999,18 L18.9999,21 C18.9999,21.5523 18.5522,22 17.9999,22 L5.99994,22 C5.44765,22 4.99994,21.5523 4.99994,21 L4.99994,18 C4.99994,17.4477 5.44765,17 5.99994,17 L7.10649,17 C7.33769,15.8559 8.00521,14.2819 9.66964,12.6441 C9.85219,12.4645 9.95971,12.2574 10.0047,12.0524 C9.6630825,12.268675 9.32238813,12.469525 8.99434875,12.6531156 L8.51324742,12.9153277 L8.51324742,12.9153277 L8.0599275,13.150275 L8.0599275,13.150275 L7.64318789,13.3565816 L7.64318789,13.3565816 L7.10591417,13.6093309 L7.10591417,13.6093309 L6.81912056,13.7380169 C6.77669191,13.7567148 6.73707063,13.7740187 6.70044,13.7899 C6.12677,14.0387 5.48075,13.895 5.0597,13.474 L3.58268,11.997 C3.07708,11.4914 2.99864,10.6992 3.39526,10.1043 L6.84598,4.92816 L6.10551,3.44722 C5.95052,3.13724 5.96708,2.7691 6.14929,2.47428 C6.33149,2.17946 6.65336,2 6.99993,2 L9.99994,2 Z M16.9999,19 L6.99994,19 L6.99994,20 L16.9999,20 L16.9999,19 Z M9.99994,4 L8.61797,4 L8.89436,4.55278 C9.03478875,4.8336375 9.03412047,5.16148141 8.89840455,5.43908596 L8.83199,5.5547 L5.28673,10.8726 L6.22635,11.8122 L6.59627071,11.6404391 C6.66335968,11.6085977 6.73298179,11.5751819 6.80486008,11.5402408 L7.26098852,11.3126852 C8.05894111,10.9042333 9.02712333,10.3531 9.88859,9.7085 C10.2808,9.40475 10.847,9.43289 11.207,9.79289 C12.4121481,10.9979515 12.1999218,12.8360698 11.1921737,13.9450536 L11.0724,14.0697 C9.98800312,15.1366688 9.46240605,16.1168895 9.21332333,16.8555373 L9.16711,17 L14.8486,17 C14.6084588,14.9251176 14.7218637,13.3411848 14.8949781,12.0302117 L14.971969,11.4844424 L14.971969,11.4844424 L15.1426798,10.3679278 C15.3201458,9.16706253 15.3860067,8.320558 15.0513,7.31623 C14.2433,4.89234 11.7778,4 9.99994,4 Z M8.99994,7 C9.55222,7 9.99994,7.44772 9.99994,8 C9.99994,8.55228 9.55222,9 8.99994,9 C8.44765,9 7.99994,8.55228 7.99994,8 C7.99994,7.44772 8.44765,7 8.99994,7 Z" id="形状" fill="#09244B"></path>
            </g>
        </g>
    </g>
</svg>