<svg xmlns="http://www.w3.org/2000/svg" width="24" height="24"><g fill="none" fill-rule="evenodd"><path d="M24 0v24H0V0zM12.594 23.258l-.012.002-.071.035-.02.004-.014-.004-.071-.036c-.01-.003-.019 0-.024.006l-.004.01-.017.428.005.02.01.013.104.074.015.004.012-.004.104-.074.012-.016.004-.017-.017-.427c-.002-.01-.009-.017-.016-.018m.264-.113-.014.002-.184.093-.01.01-.003.011.018.43.005.012.008.008.201.092c.012.004.023 0 .029-.008l.004-.014-.034-.614c-.003-.012-.01-.02-.02-.022m-.715.002a.023.023 0 0 0-.027.006l-.006.014-.034.614c0 .012.007.02.017.024l.015-.002.201-.093.01-.008.003-.011.018-.43-.003-.012-.01-.01z"/><path fill="#09244B" d="m20.293 4.884 1.669 5.841a1 1 0 0 1-1.278 1.223l-1.557-.518c.1 3.378-1.126 5.78-2.336 7.311l-.268.326a6.883 6.883 0 0 1-.133.152l-.26.284-.253.255-.122.117-.233.213-.216.187c-.642.536-1.425.725-2.137.725h-2.338c-.712 0-1.495-.189-2.137-.725l-.114-.097-.243-.217c-1.344-1.24-3.423-3.837-3.469-8.005l-1.313.876a1 1 0 0 1-1.525-1.075l1.698-6.79a2 2 0 0 1 2.834-1.304l2.463 1.231A1 1 0 0 0 9.472 5h5.056a1 1 0 0 0 .447-.106l2.5-1.25a2 2 0 0 1 2.818 1.24M12 13.5a1 1 0 0 0-1 1 .5.5 0 0 1-.5.5 1 1 0 1 0 0 2 2.49 2.49 0 0 0 1.5-.5c.418.314.937.5 1.5.5a1 1 0 0 0 0-2 .5.5 0 0 1-.5-.5 1 1 0 0 0-1-1M9.5 9a1.5 1.5 0 1 0 0 3 1.5 1.5 0 0 0 0-3m5 0a1.5 1.5 0 1 0 0 3 1.5 1.5 0 0 0 0-3"/></g></svg>