<?xml version="1.0" encoding="UTF-8"?>
<svg width="24px" height="24px" viewBox="0 0 24 24" version="1.1" xmlns="http://www.w3.org/2000/svg" xmlns:xlink="http://www.w3.org/1999/xlink">
    <title>flowerpot_line</title>
    <g id="Icon" stroke="none" stroke-width="1" fill="none" fill-rule="evenodd">
        <g id="Nature" transform="translate(-336.000000, -2.000000)">
            <g id="flowerpot_line" transform="translate(336.000000, 2.000000)">
                <path d="M24,0 L24,24 L0,24 L0,0 L24,0 Z M12.5935,23.2578 L12.5819,23.2595 L12.5109,23.295 L12.4919,23.2987 L12.4767,23.295 L12.4057,23.2595 C12.3958,23.2564 12.387,23.259 12.3821,23.2649 L12.378,23.2758 L12.3609,23.7031 L12.3659,23.7235 L12.3769,23.7357 L12.4805,23.8097 L12.4953,23.8136 L12.5071,23.8097 L12.6107,23.7357 L12.6233,23.7197 L12.6267,23.7031 L12.6096,23.2758 C12.6076,23.2657 12.601,23.2593 12.5935,23.2578 Z M12.8584,23.1453 L12.8445,23.1473 L12.6598,23.2397 L12.6499,23.2499 L12.6472,23.2611 L12.6651,23.6906 L12.6699,23.7034 L12.6784,23.7105 L12.8793,23.8032 C12.8914,23.8069 12.9022,23.803 12.9078,23.7952 L12.9118,23.7812 L12.8777,23.1665 C12.8753,23.1546 12.8674,23.147 12.8584,23.1453 Z M12.143,23.1473 C12.1332,23.1424 12.1222,23.1453 12.1156,23.1526 L12.1099,23.1665 L12.0758,23.7812 C12.0751,23.7927 12.0828,23.8019 12.0926,23.8046 L12.1083,23.8032 L12.3092,23.7105 L12.3186,23.7024 L12.3225,23.6906 L12.3404,23.2611 L12.3372,23.2485 L12.3278,23.2397 L12.143,23.1473 Z" id="MingCute" fill-rule="nonzero"></path>
                <path d="M7.04696,2.02563 C6.47767,2.0132 6.01292,2.47795 6.02536,3.04724 C6.04078,3.75293 6.21166,4.74717 6.69152,5.76399 C6.95861,6.32995 7.30188,6.83768 7.73223,7.26803 C8.01215,7.54794 8.32479,7.79101 8.66491,8.00024 L6,8.00024 C4.89543,8.00024 4,8.89567 4,10.0002 L4,12.0002 C4,12.7463 4.40847,13.3969 5.01396,13.7407 C5.15257,17.4047 6.28862,19.958 6.85066,21.0102 C7.20121,21.6664 7.87415,22.0002 8.53518,22.0002 L15.4648,22.0002 C16.1259,22.0002 16.7988,21.6664 17.1493,21.0102 C17.7114,19.958 18.8474,17.4047 18.986,13.7407 C19.5915,13.3969 20,12.7463 20,12.0002 L20,10.0002 C20,8.89567 19.1046,8.00024 18,8.00024 L16.1025,8.00024 C16.3186,7.77251 16.5076,7.52309 16.665,7.2503 C16.8769,6.88346 17.0246,6.48459 17.1157,6.06149 C17.2875,5.26297 17.2523,4.44286 17.094,3.65951 L16.9502,3.09059 C16.7914,2.60627 16.2936,2.31892 15.7948,2.42352 C15.297,2.5279 14.6036,2.76695 13.8967,3.20154 C13.2409,3.60477 12.7024,4.11398 12.335,4.75032 C12.2855,4.83594 12.2396,4.9233 12.1971,5.0123 C11.9479,4.53596 11.6405,4.10521 11.2678,3.73249 C10.8374,3.30215 10.3297,2.95889 9.76378,2.69181 C8.74694,2.21193 7.75267,2.04105 7.04696,2.02563 Z M8.25,4.25024 C8.4755,4.31967 8.69652,4.39967 8.9102,4.50051 C9.27802,4.67409 9.59584,4.88896 9.85359,5.14671 C10.1113,5.40447 10.3262,5.72229 10.4998,6.09012 C10.5938,6.30681 10.6804,6.52276 10.749,6.74924 C10.5236,6.68101 10.3032,6.60069 10.0899,6.50005 C9.72205,6.32646 9.40422,6.11159 9.14645,5.85382 C8.88868,5.59605 8.67381,5.27824 8.50023,4.91042 C8.39939,4.69674 8.31937,4.47574 8.25,4.25024 Z M15.222,4.75026 L15.2283,4.97979 C15.2271,5.20785 15.2057,5.4305 15.1605,5.64066 C15.1115,5.86807 15.036,6.07189 14.933,6.25028 C14.7482,6.5704 14.4481,6.85411 14.0558,7.09535 L13.777,7.24926 L13.7717,7.02083 C13.7729,6.79277 13.7943,6.57012 13.8396,6.35995 C13.8885,6.13254 13.964,5.92873 14.067,5.75034 C14.2518,5.43023 14.5519,5.14652 14.9443,4.90528 L15.222,4.75026 Z M7.02848,14.0002 L16.9715,14.0002 C16.7984,17.0233 15.8792,19.1246 15.421,20.0002 L8.57902,20.0002 C8.12083,19.1246 7.20164,17.0233 7.02848,14.0002 Z M18,12.0002 L6,12.0002 L6,10.0002 L18,10.0002 L18,12.0002 Z" id="形状" fill="#09244B"></path>
            </g>
        </g>
    </g>
</svg>