<svg xmlns="http://www.w3.org/2000/svg" width="24" height="24"><g fill="none"><path d="M24 0v24H0V0zM12.594 23.258l-.012.002-.071.035-.02.004-.014-.004-.071-.036c-.01-.003-.019 0-.024.006l-.004.01-.017.428.005.02.01.013.104.074.015.004.012-.004.104-.074.012-.016.004-.017-.017-.427c-.002-.01-.009-.017-.016-.018m.264-.113-.014.002-.184.093-.01.01-.003.011.018.43.005.012.008.008.201.092c.012.004.023 0 .029-.008l.004-.014-.034-.614c-.003-.012-.01-.02-.02-.022m-.715.002a.023.023 0 0 0-.027.006l-.006.014-.034.614c0 .012.007.02.017.024l.015-.002.201-.093.01-.008.003-.011.018-.43-.003-.012-.01-.01z"/><path fill="#09244B" d="M10.499 2.601C10.89 2.299 11.42 2 12 2c.58 0 1.11.299 1.501.601.424.327.836.773 1.197 1.295.183.265.357.557.516.87a7.105 7.105 0 0 1 2.945-.786C19.287 3.927 20 4.876 20 5.798V8a8.001 8.001 0 0 1-7 7.938v3.07c1.076-.669 2.662-1.454 4.758-1.978a1 1 0 1 1 .485 1.94c-3.218.805-5.036 2.29-5.45 2.658-.233.208-.464.372-.793.372-.325 0-.556-.16-.787-.367-.401-.358-2.22-1.854-5.456-2.663a1 1 0 1 1 .486-1.94c2.095.524 3.68 1.31 4.757 1.978v-3.07A8.001 8.001 0 0 1 4 8V5.784c0-.909.692-1.85 1.807-1.82.734.02 1.854.168 3 .763.152-.298.32-.577.495-.83.36-.523.773-.97 1.197-1.296"/></g></svg>