<svg xmlns="http://www.w3.org/2000/svg" width="24" height="24"><g fill="none" fill-rule="evenodd"><path d="M24 0v24H0V0zM12.594 23.258l-.012.002-.071.035-.02.004-.014-.004-.071-.036c-.01-.003-.019 0-.024.006l-.004.01-.017.428.005.02.01.013.104.074.015.004.012-.004.104-.074.012-.016.004-.017-.017-.427c-.002-.01-.009-.017-.016-.018m.264-.113-.014.002-.184.093-.01.01-.003.011.018.43.005.012.008.008.201.092c.012.004.023 0 .029-.008l.004-.014-.034-.614c-.003-.012-.01-.02-.02-.022m-.715.002a.023.023 0 0 0-.027.006l-.006.014-.034.614c0 .012.007.02.017.024l.015-.002.201-.093.01-.008.003-.011.018-.43-.003-.012-.01-.01z"/><path fill="#09244B" d="M17.11 3.006a1 1 0 0 1 .736.46c3.2 5.067 2.717 10.446.044 13.834-1.335 1.691-3.21 2.871-5.397 3.22-1.908.303-3.993-.036-6.094-1.136-.193.609-.33 1.2-.409 1.757a1 1 0 0 1-1.98-.282 13.45 13.45 0 0 1 .702-2.718c-1.537-1.69-1.957-3.828-1.77-5.738.206-2.107 1.167-4.128 2.418-5.171 1.672-1.393 3.428-1.965 4.952-2.245a23.836 23.836 0 0 1 2.01-.261c.479-.048.968-.08 1.436-.196a6.829 6.829 0 0 0 1.962-.816c.442-.276.819-.772 1.39-.708M7.15 17.518c1.112-2.267 2.93-4.44 5.297-5.624a1 1 0 1 0-.894-1.789c-2.608 1.304-4.606 3.559-5.905 5.964a4.9 4.9 0 0 0 .95 1.125c.185.116.37.223.553.324Z"/></g></svg>