<?xml version="1.0" encoding="UTF-8"?>
<svg width="24px" height="24px" viewBox="0 0 24 24" version="1.1" xmlns="http://www.w3.org/2000/svg" xmlns:xlink="http://www.w3.org/1999/xlink">
    <title>leaf_fill</title>
    <g id="Icon" stroke="none" stroke-width="1" fill="none" fill-rule="evenodd">
        <g id="Nature" transform="translate(-528.000000, -50.000000)">
            <g id="leaf_fill" transform="translate(528.000000, 50.000000)">
                <path d="M24,0 L24,24 L0,24 L0,0 L24,0 Z M12.5935,23.2578 L12.5819,23.2595 L12.5109,23.295 L12.4919,23.2987 L12.4767,23.295 L12.4057,23.2595 C12.3958,23.2564 12.387,23.259 12.3821,23.2649 L12.378,23.2758 L12.3609,23.7031 L12.3659,23.7235 L12.3769,23.7357 L12.4805,23.8097 L12.4953,23.8136 L12.5071,23.8097 L12.6107,23.7357 L12.6233,23.7197 L12.6267,23.7031 L12.6096,23.2758 C12.6076,23.2657 12.601,23.2593 12.5935,23.2578 Z M12.8584,23.1453 L12.8445,23.1473 L12.6598,23.2397 L12.6499,23.2499 L12.6472,23.2611 L12.6651,23.6906 L12.6699,23.7034 L12.6784,23.7105 L12.8793,23.8032 C12.8914,23.8069 12.9022,23.803 12.9078,23.7952 L12.9118,23.7812 L12.8777,23.1665 C12.8753,23.1546 12.8674,23.147 12.8584,23.1453 Z M12.143,23.1473 C12.1332,23.1424 12.1222,23.1453 12.1156,23.1526 L12.1099,23.1665 L12.0758,23.7812 C12.0751,23.7927 12.0828,23.8019 12.0926,23.8046 L12.1083,23.8032 L12.3092,23.7105 L12.3186,23.7024 L12.3225,23.6906 L12.3404,23.2611 L12.3372,23.2485 L12.3278,23.2397 L12.143,23.1473 Z" id="MingCute" fill-rule="nonzero"></path>
                <path d="M17.1109,3.0061 C17.413,3.03977 17.6833,3.20899 17.8456,3.46595 C21.0461,8.53338 20.5629,13.9124 17.8896,17.3004 C16.5553,18.9914 14.6799,20.1713 12.4935,20.5193 C10.5851,20.8231 8.50013,20.4839 6.3993,19.3841 C6.20624,19.9928 6.06959,20.5847 5.99007,21.1414 C5.91197,21.6881 5.40543,22.068 4.8587,21.9899 C4.31197,21.9118 3.93207,21.4053 4.01017,20.8585 C4.13524,19.983 4.37251,19.0629 4.71163,18.1407 C3.17496,16.4505 2.75547,14.3132 2.94238,12.4026 C3.14844,10.2963 4.10858,8.27454 5.35994,7.23172 C7.03176,5.83852 8.78779,5.26703 10.3116,4.98712 C11.049,4.85164 11.7407,4.78324 12.3226,4.72571 C12.8006,4.67845 13.2902,4.64666 13.7576,4.5298 C14.6425,4.30856 15.2964,3.97927 15.7201,3.71444 C16.1619,3.43836 16.5386,2.94228 17.1109,3.0061 Z M7.15056,17.5178 C8.2625,15.2512 10.0805,13.0777 12.4473,11.8943 C12.9413,11.6474 13.1415,11.0467 12.8945,10.5527 C12.6476,10.0587 12.0469,9.8585 11.5529,10.1055 C8.94535,11.4093 6.9468,13.6636 5.64838,16.0693 C5.89523,16.4732 6.20881,16.8519 6.59724,17.194 C6.78273,17.3096 6.96721,17.4174 7.15056,17.5178 Z" id="形状" fill="#09244B"></path>
            </g>
        </g>
    </g>
</svg>