<svg xmlns="http://www.w3.org/2000/svg" width="24" height="24"><g fill="none" fill-rule="evenodd"><path d="M24 0v24H0V0zM12.594 23.258l-.012.002-.071.035-.02.004-.014-.004-.071-.036c-.01-.003-.019 0-.024.006l-.004.01-.017.428.005.02.01.013.104.074.015.004.012-.004.104-.074.012-.016.004-.017-.017-.427c-.002-.01-.009-.017-.016-.018m.264-.113-.014.002-.184.093-.01.01-.003.011.018.43.005.012.008.008.201.092c.012.004.023 0 .029-.008l.004-.014-.034-.614c-.003-.012-.01-.02-.02-.022m-.715.002a.023.023 0 0 0-.027.006l-.006.014-.034.614c0 .012.007.02.017.024l.015-.002.201-.093.01-.008.003-.011.018-.43-.003-.012-.01-.01z"/><path fill="#09244B" d="M11.553 3.106a1 1 0 0 1 .894 0c.71.354 1.58 1.18 2.267 2.237.42.647.798 1.42 1.033 2.289.723-.448 1.507-.77 2.437-1.08a1 1 0 0 1 1.297.752c.257 1.285.412 2.558.191 3.807a6.143 6.143 0 0 1-.833 2.184 7.517 7.517 0 0 1 1.716.873 1 1 0 0 1 .374 1.203c-.29.724-1.022 1.504-2.37 2.155-1.215.587-2.99 1.099-5.563 1.383A.91.91 0 0 1 13 19v2a1 1 0 1 1-2 0v-2c0-.03.002-.061.004-.091-2.574-.284-4.348-.796-5.564-1.383-1.347-.651-2.079-1.43-2.368-2.155a1 1 0 0 1 .373-1.203 7.516 7.516 0 0 1 1.716-.873 6.148 6.148 0 0 1-.833-2.184c-.22-1.25-.065-2.522.192-3.807a1 1 0 0 1 1.296-.753c.93.31 1.715.633 2.437 1.08a8.154 8.154 0 0 1 1.033-2.288c.687-1.057 1.558-1.883 2.267-2.237M13 16.895V14a1 1 0 1 0-2 0v2.895c.318.038.65.071 1 .101.35-.03.683-.063 1-.101"/></g></svg>