<svg xmlns="http://www.w3.org/2000/svg" width="24" height="24"><g fill="none"><path d="M24 0v24H0V0zM12.594 23.258l-.012.002-.071.035-.02.004-.014-.004-.071-.036c-.01-.003-.019 0-.024.006l-.004.01-.017.428.005.02.01.013.104.074.015.004.012-.004.104-.074.012-.016.004-.017-.017-.427c-.002-.01-.009-.017-.016-.018m.264-.113-.014.002-.184.093-.01.01-.003.011.018.43.005.012.008.008.201.092c.012.004.023 0 .029-.008l.004-.014-.034-.614c-.003-.012-.01-.02-.02-.022m-.715.002a.023.023 0 0 0-.027.006l-.006.014-.034.614c0 .012.007.02.017.024l.015-.002.201-.093.01-.008.003-.011.018-.43-.003-.012-.01-.01z"/><path fill="#09244B" d="M12 2.657a7.39 7.39 0 0 1 2.317.376 4 4 0 1 0 6.001 5.201c.173.247.341.493.505.739 1 1.5.851 3.207.004 4.467-.836 1.244-2.349 2.056-4.074 1.907a85.659 85.659 0 0 0-1.59-.123l-.787-.05.857 3.002a3 3 0 0 1-2.705 3.819l-.18.005h-.697a3 3 0 0 1-2.928-3.65l.044-.174.857-3.001c-.78.043-1.585.103-2.377.172-1.725.15-3.238-.663-4.074-1.907-.847-1.26-.996-2.968.004-4.467a31.607 31.607 0 0 1 1.978-2.677C7.108 3.952 9.495 2.657 12 2.657m4.433 1.425c.855.575 1.665 1.318 2.412 2.214l.11.132a2 2 0 1 1-2.522-2.346"/></g></svg>