<?xml version="1.0" encoding="UTF-8"?>
<svg width="24px" height="24px" viewBox="0 0 24 24" version="1.1" xmlns="http://www.w3.org/2000/svg" xmlns:xlink="http://www.w3.org/1999/xlink">
    <title>paw_fill</title>
    <g id="Icon" stroke="none" stroke-width="1" fill="none" fill-rule="evenodd">
        <g id="Nature" transform="translate(-528.000000, -146.000000)">
            <g id="paw_fill" transform="translate(528.000000, 146.000000)">
                <path d="M24,0 L24,24 L0,24 L0,0 L24,0 Z M12.5935,23.2578 L12.5819,23.2595 L12.5109,23.295 L12.4919,23.2987 L12.4767,23.295 L12.4057,23.2595 C12.3958,23.2564 12.387,23.259 12.3821,23.2649 L12.378,23.2758 L12.3609,23.7031 L12.3659,23.7235 L12.3769,23.7357 L12.4805,23.8097 L12.4953,23.8136 L12.5071,23.8097 L12.6107,23.7357 L12.6233,23.7197 L12.6267,23.7031 L12.6096,23.2758 C12.6076,23.2657 12.601,23.2593 12.5935,23.2578 Z M12.8584,23.1453 L12.8445,23.1473 L12.6598,23.2397 L12.6499,23.2499 L12.6472,23.2611 L12.6651,23.6906 L12.6699,23.7034 L12.6784,23.7105 L12.8793,23.8032 C12.8914,23.8069 12.9022,23.803 12.9078,23.7952 L12.9118,23.7812 L12.8777,23.1665 C12.8753,23.1546 12.8674,23.147 12.8584,23.1453 Z M12.143,23.1473 C12.1332,23.1424 12.1222,23.1453 12.1156,23.1526 L12.1099,23.1665 L12.0758,23.7812 C12.0751,23.7927 12.0828,23.8019 12.0926,23.8046 L12.1083,23.8032 L12.3092,23.7105 L12.3186,23.7024 L12.3225,23.6906 L12.3404,23.2611 L12.3372,23.2485 L12.3278,23.2397 L12.143,23.1473 Z" id="MingCute" fill-rule="nonzero"></path>
                <path d="M12,3 C12.5523,3 13,3.44768 13,3.99997 L13,4.18986 C14.257,4.69371 15,6.12069 15,7.5 C15,9.21323 13.8536,11 12,11 C10.1465,11 9.00005,9.21323 9.00005,7.5 C9.00005,6.12071 9.74313,4.69376 11,4.18988 L11,4.00003 C11,3.44775 11.4477,3 12,3 Z M18.5995,6.543 C18.2096,6.55931 17.8344,6.67497 17.5066,6.85026 C16.8991,7.17502 16.3919,7.72789 16.0759,8.40556 C15.7599,9.08324 15.6624,9.82718 15.8041,10.5013 C15.9458,11.1757 16.3492,11.8431 17.0738,12.181 C17.7984,12.5189 18.5689,12.3989 19.1767,12.074 C19.7842,11.7492 20.2914,11.1963 20.6074,10.5187 C20.9234,9.84098 21.0209,9.09704 20.8792,8.42296 C20.8027,8.05913 20.6502,7.69735 20.4121,7.38823 C20.6424,6.88856 20.4256,6.29622 19.9265,6.06346 C19.4273,5.83069 18.8342,6.04541 18.5995,6.543 Z M3.58801,7.39195 C3.34993,7.70107 3.19734,8.06285 3.12087,8.42668 C2.97919,9.10076 3.07667,9.8447 3.39267,10.5224 C3.70868,11.2001 4.21591,11.7529 4.82336,12.0777 C5.43114,12.4026 6.20167,12.5227 6.9263,12.1848 C7.65093,11.8469 8.05426,11.1794 8.19602,10.505 C8.3377,9.8309 8.24022,9.08696 7.92421,8.40929 C7.60821,7.73161 7.10098,7.17874 6.49353,6.85399 C6.16567,6.6787 5.79044,6.56304 5.40061,6.54673 C5.16587,6.04913 4.57279,5.83442 4.07363,6.06717 C3.57447,6.29993 3.35773,6.89228 3.58801,7.39195 Z M7.15111,13.6188 C8.40037,12.6663 10.111,12 12,12 C13.8891,12 15.5997,12.6663 16.849,13.6188 C18.0619,14.5436 19,15.8735 19,17.2778 C19,18.6851 17.8162,19.6134 16.6513,20.1349 C15.4062,20.6924 13.7596,21 12,21 C10.2405,21 8.59388,20.6924 7.34879,20.1349 C6.18386,19.6134 5.00005,18.6851 5.00005,17.2778 C5.00005,15.8735 5.93816,14.5436 7.15111,13.6188 Z" id="形状" fill="#09244B"></path>
            </g>
        </g>
    </g>
</svg>