<?xml version="1.0" encoding="UTF-8"?>
<svg width="24px" height="24px" viewBox="0 0 24 24" version="1.1" xmlns="http://www.w3.org/2000/svg" xmlns:xlink="http://www.w3.org/1999/xlink">
    <title>pumpkin_line</title>
    <g id="Icon" stroke="none" stroke-width="1" fill="none" fill-rule="evenodd">
        <g id="Nature" transform="translate(-672.000000, -2.000000)">
            <g id="pumpkin_line" transform="translate(672.000000, 2.000000)">
                <path d="M24,0 L24,24 L0,24 L0,0 L24,0 Z M12.5935,23.2578 L12.5819,23.2595 L12.5109,23.295 L12.4919,23.2987 L12.4767,23.295 L12.4057,23.2595 C12.3958,23.2564 12.387,23.259 12.3821,23.2649 L12.378,23.2758 L12.3609,23.7031 L12.3659,23.7235 L12.3769,23.7357 L12.4805,23.8097 L12.4953,23.8136 L12.5071,23.8097 L12.6107,23.7357 L12.6233,23.7197 L12.6267,23.7031 L12.6096,23.2758 C12.6076,23.2657 12.601,23.2593 12.5935,23.2578 Z M12.8584,23.1453 L12.8445,23.1473 L12.6598,23.2397 L12.6499,23.2499 L12.6472,23.2611 L12.6651,23.6906 L12.6699,23.7034 L12.6784,23.7105 L12.8793,23.8032 C12.8914,23.8069 12.9022,23.803 12.9078,23.7952 L12.9118,23.7812 L12.8777,23.1665 C12.8753,23.1546 12.8674,23.147 12.8584,23.1453 Z M12.143,23.1473 C12.1332,23.1424 12.1222,23.1453 12.1156,23.1526 L12.1099,23.1665 L12.0758,23.7812 C12.0751,23.7927 12.0828,23.8019 12.0926,23.8046 L12.1083,23.8032 L12.3092,23.7105 L12.3186,23.7024 L12.3225,23.6906 L12.3404,23.2611 L12.3372,23.2485 L12.3278,23.2397 L12.143,23.1473 Z" id="MingCute" fill-rule="nonzero"></path>
                <path d="M14,2 C14.5522,2 15,2.44772 15,3 C15,3.53932 14.573,3.97892 14.0387,3.99926 L13.99595,4.02491125 L13.99595,4.02491125 L13.9205,4.08381 L13.9205,4.08381 C13.79,4.19693 13.6348,4.38559 13.4824,4.6395 C13.3658,4.83391 13.2703,5.03274 13.196,5.21934 C13.5085,5.33701 13.803,5.49813 14.0778,5.69312 C14.216,5.79102 14.3497,5.89739 14.4785,6.01213 C15.4761,5.28988 16.6541,4.90372 17.8892,5.1215 C19.5617,5.4164 20.7538,6.71247 21.4155,8.29149 C22.0821,9.88223 22.2804,11.8911 21.9165,13.955 C21.5525,16.0189 20.6791,17.8388 19.5086,19.1057 C18.3468,20.3632 16.7833,21.1733 15.1108,20.8784 C14.6688,20.8005 14.2559,20.6502 13.8765,20.4413 C13.3198,20.7894 12.6877,21 12,21 C11.3122,21 10.6801,20.7894 10.1235,20.4413 C9.74411,20.6503 9.33124,20.8005 8.88918,20.8784 C7.21672,21.1733 5.65318,20.3632 4.49137,19.1057 C3.32093,17.8389 2.44747,16.019 2.08355,13.9551 C1.71963,11.8911 1.91797,9.88225 2.58454,8.29151 C3.2462,6.71249 4.43835,5.41642 6.11081,5.12152 C7.34589,4.90374 8.52383,5.28988 9.52149,6.0121 C9.65023,5.89737 9.78373,5.79067 9.92191,5.69278 C10.2896,5.43186 10.6928,5.23193 11.127,5.11526 C11.2637,4.59453 11.498,4.05965 11.7675,3.6105 C11.9901,3.23941 12.2724,2.86557 12.6107,2.57244 C12.939,2.28788 13.4142,2 14,2 Z M12,7 C11.7149,7 11.401,7.09678 11.078,7.32479 C10.5539,7.69606 10.0279,8.39635 9.63113,9.40743 C9.23925,10.4061 8.99996,11.6441 8.99996,13 C8.99996,14.3559 9.23925,15.5938 9.63113,16.5925 C10.0279,17.6036 10.5539,18.3039 11.078,18.6751 C11.4005,18.9038 11.7111,19 12,19 C12.2888,19 12.5994,18.9038 12.9219,18.6751 C13.446,18.3039 13.972,17.6036 14.3688,16.5925 C14.7607,15.5938 15,14.3559 15,13 C15,11.6441 14.7607,10.4061 14.3688,9.40743 C13.972,8.39635 13.4462,7.69577 12.9221,7.32451 C12.5991,7.09649 12.285,7 12,7 Z M6.4581,7.09114 C5.68303,7.22781 4.93148,7.86564 4.42914,9.06445 C3.93171,10.2515 3.74576,11.8644 4.05316,13.6078 C4.36057,15.3511 5.08693,16.8031 5.96036,17.7485 C6.78730063,18.6435312 7.65142777,19.0003203 8.39485143,18.9287854 L8.58554,18.9006 L8.58554,18.9006 C8.26496,18.4249 7.99227,17.8912 7.76934,17.3231 C7.27771,16.0702 6.99996,14.5818 6.99996,13 C6.99996,11.4182 7.27771,9.92974 7.76934,8.67686 C7.9191,8.29522 8.09131,7.92911 8.28541,7.58566 C7.64582,7.14072 7.01467,6.993 6.4581,7.09114 Z M15.7145,7.5857 C15.9086,7.92913 16.0808,8.29524 16.2306,8.67686 C16.7222,9.92974 17,11.4182 17,13 C17,14.5818 16.7222,16.0702 16.2306,17.3231 C16.0076,17.8912 15.735,18.4249 15.4144,18.9006 L15.4581,18.9088 C16.2332,19.0455 17.1576,18.7031 18.0397,17.7484 C18.9131,16.8031 19.6395,15.3511 19.9469,13.6077 C20.2543,11.8644 20.0683,10.2515 19.5709,9.06443 C19.0685,7.86562 18.317,7.22778 17.5419,7.09112 C16.9853,6.99297 16.3541,7.14071 15.7145,7.5857 Z" id="形状" fill="#09244B"></path>
            </g>
        </g>
    </g>
</svg>