<?xml version="1.0" encoding="UTF-8"?>
<svg width="24px" height="24px" viewBox="0 0 24 24" version="1.1" xmlns="http://www.w3.org/2000/svg" xmlns:xlink="http://www.w3.org/1999/xlink">
    <title>toy_horse_fill</title>
    <g id="Icon" stroke="none" stroke-width="1" fill="none" fill-rule="evenodd">
        <g id="Nature" transform="translate(-480.000000, -146.000000)">
            <g id="toy_horse_fill" transform="translate(480.000000, 146.000000)">
                <path d="M24,0 L24,24 L0,24 L0,0 L24,0 Z M12.5935,23.2578 L12.5819,23.2595 L12.5109,23.295 L12.4919,23.2987 L12.4767,23.295 L12.4057,23.2595 C12.3958,23.2564 12.387,23.259 12.3821,23.2649 L12.378,23.2758 L12.3609,23.7031 L12.3659,23.7235 L12.3769,23.7357 L12.4805,23.8097 L12.4953,23.8136 L12.5071,23.8097 L12.6107,23.7357 L12.6233,23.7197 L12.6267,23.7031 L12.6096,23.2758 C12.6076,23.2657 12.601,23.2593 12.5935,23.2578 Z M12.8584,23.1453 L12.8445,23.1473 L12.6598,23.2397 L12.6499,23.2499 L12.6472,23.2611 L12.6651,23.6906 L12.6699,23.7034 L12.6784,23.7105 L12.8793,23.8032 C12.8914,23.8069 12.9022,23.803 12.9078,23.7952 L12.9118,23.7812 L12.8777,23.1665 C12.8753,23.1546 12.8674,23.147 12.8584,23.1453 Z M12.143,23.1473 C12.1332,23.1424 12.1222,23.1453 12.1156,23.1526 L12.1099,23.1665 L12.0758,23.7812 C12.0751,23.7927 12.0828,23.8019 12.0926,23.8046 L12.1083,23.8032 L12.3092,23.7105 L12.3186,23.7024 L12.3225,23.6906 L12.3404,23.2611 L12.3372,23.2485 L12.3278,23.2397 L12.143,23.1473 Z" id="MingCute" fill-rule="nonzero"></path>
                <path d="M3.60559,3.44711 L3.83632,3.90857 L1.68628,6.91862 C1.40215,7.31641 1.44724,7.8613 1.79291,8.20697 L3.29291,9.70697 C3.59727,10.0113 4.06224,10.0868 4.44723,9.89429 L5.70076,9.26752 L6.39282,10.1903 L4.32224,16.8161 C4.26125,16.7704 4.20488,16.7267 4.15313,16.6856 C4.00445,16.5676 3.85782,16.4449 3.72385,16.31 C3.3443,15.9118 2.71378,15.8948 2.31338,16.273 C1.91186,16.6522 1.89378,17.2851 2.27299,17.6866 L2.90937,18.2519 C3.30564,18.5665 3.88806,18.9766 4.65711,19.3838 C6.19876,20.2 8.48316,21 11.4999997,21 C14.5168,21 16.8012,20.2 18.3429,19.3838 C19.1119,18.9766 19.6944,18.5665 20.0906,18.2519 C20.2451,18.1292 20.7462,17.6697 20.727,17.6866 C21.1062,17.2851 21.0881,16.6522 20.6866,16.273 C20.3433,15.9488 19.8309,15.915 19.4524,16.163 L18.4222,11.0117 C18.9445,11.5007 19.5105,12.257 20.1056,13.4472 C20.3526,13.9412 20.9532,14.1414 21.4472,13.8944 C21.9412,13.6474 22.1414,13.0468 21.8944,12.5528 C20.8378,10.4396 19.7081,9.23599 18.4472,8.60557 C17.3903,8.07712 16.3394,8.00957 15.4486,8.00114 C15.4193,8.00029 15.3899,7.99986 15.3604,7.99986 L11.7577,7.99986 C11.6741,7.7458 11.5633,7.44218 11.4192,7.10595 C11.0104,6.15209 10.3223,4.90799 9.20712,3.79277 C8.04844,2.63409 6.85365,2.17003 5.91441,2.01349 C5.45074,1.93622 5.05821,1.93515 4.77251,1.95556 C4.65993,1.9636 4.32251,2.01349 4.25747,2.02975 C3.96321,2.10332 3.71824,2.30647 3.5915,2.58204 C3.46475,2.85761 3.46994,3.17582 3.60559,3.44711 Z M14.3253,18.7155 L13.307,16 L10.693,16 L9.61435,18.8764 C10.1989,18.9549 10.8274,19 11.5,19 C12.5487,19 13.4903,18.8904 14.3253,18.7155 Z" id="形状" fill="#09244B"></path>
            </g>
        </g>
    </g>
</svg>