<?xml version="1.0" encoding="UTF-8"?>
<svg width="24px" height="24px" viewBox="0 0 24 24" version="1.1" xmlns="http://www.w3.org/2000/svg" xmlns:xlink="http://www.w3.org/1999/xlink">
    <title>tree_4_fill</title>
    <g id="Icon" stroke="none" stroke-width="1" fill="none" fill-rule="evenodd">
        <g id="Nature" transform="translate(-816.000000, -50.000000)" fill-rule="nonzero">
            <g id="tree_4_fill" transform="translate(816.000000, 50.000000)">
                <path d="M24,0 L24,24 L0,24 L0,0 L24,0 Z M12.5935,23.2578 L12.5819,23.2595 L12.5109,23.295 L12.4919,23.2987 L12.4767,23.295 L12.4057,23.2595 C12.3958,23.2564 12.387,23.259 12.3821,23.2649 L12.378,23.2758 L12.3609,23.7031 L12.3659,23.7235 L12.3769,23.7357 L12.4805,23.8097 L12.4953,23.8136 L12.5071,23.8097 L12.6107,23.7357 L12.6233,23.7197 L12.6267,23.7031 L12.6096,23.2758 C12.6076,23.2657 12.601,23.2593 12.5935,23.2578 Z M12.8584,23.1453 L12.8445,23.1473 L12.6598,23.2397 L12.6499,23.2499 L12.6472,23.2611 L12.6651,23.6906 L12.6699,23.7034 L12.6784,23.7105 L12.8793,23.8032 C12.8914,23.8069 12.9022,23.803 12.9078,23.7952 L12.9118,23.7812 L12.8777,23.1665 C12.8753,23.1546 12.8674,23.147 12.8584,23.1453 Z M12.143,23.1473 C12.1332,23.1424 12.1222,23.1453 12.1156,23.1526 L12.1099,23.1665 L12.0758,23.7812 C12.0751,23.7927 12.0828,23.8019 12.0926,23.8046 L12.1083,23.8032 L12.3092,23.7105 L12.3186,23.7024 L12.3225,23.6906 L12.3404,23.2611 L12.3372,23.2485 L12.3278,23.2397 L12.143,23.1473 Z" id="MingCute"></path>
                <path d="M12.6183,5.00397 C12.7116,5.16739 12.7926,5.33737 12.8609,5.51329 C14.2459,4.7768 15.7773,4.6796 17.109,5.19181 C19.2396,6.01128 20.565,8.2743 19.9806,11.1963 C19.9223,11.4876 19.7376,11.7379 19.4763,11.8795 C19.2151,12.021 18.9045,12.039 18.6286,11.9286 L13.9047,10.0391 C14.5403,12.3076 14.6052,14.6174 14.4983,16.4339 C14.4229,17.7153 14.2421,18.9805 13.9722,20.2344 C13.8642,20.6723 13.4524,21.0001 13,21.0001 L10.5,21.0001 C10.1535,21.0001 9.83159,20.8207 9.64938,20.5259 C9.46744,20.2315 9.45066,19.864 9.60494,19.5543 C10.0592,18.644 10.3587,17.6335 10.5887,16.6479 C10.9687,15.0194 11.1849,12.9489 10.6973,10.8687 L5.28033,14.3484 C4.99341,14.5327 4.63233,14.5581 4.32244,14.4158 C4.01255,14.2734 3.79656,13.983 3.74945,13.6452 C3.37379,10.952 4.46575,8.55394 6.31946,7.2928 C6.40496,7.23463 6.4918,7.17908 6.57989,7.1262 L4.66369,6.44183 C4.34087,6.32654 4.0996,6.05392 4.0244,5.71948 C3.94919,5.38504 4.05053,5.03538 4.29292,4.79299 C6.04601,3.03988 8.43756,2.55018 10.3162,3.17642 C11.2624,3.49182 12.103,4.10232 12.6183,5.00397 Z" id="路径" fill="#09244B"></path>
            </g>
        </g>
    </g>
</svg>