<svg xmlns="http://www.w3.org/2000/svg" width="24" height="24"><g fill="none"><path d="M24 0v24H0V0zM12.594 23.258l-.012.002-.071.035-.02.004-.014-.004-.071-.036c-.01-.003-.019 0-.024.006l-.004.01-.017.428.005.02.01.013.104.074.015.004.012-.004.104-.074.012-.016.004-.017-.017-.427c-.002-.01-.009-.017-.016-.018m.264-.113-.014.002-.184.093-.01.01-.003.011.018.43.005.012.008.008.201.092c.012.004.023 0 .029-.008l.004-.014-.034-.614c-.003-.012-.01-.02-.02-.022m-.715.002a.023.023 0 0 0-.027.006l-.006.014-.034.614c0 .012.007.02.017.024l.015-.002.201-.093.01-.008.003-.011.018-.43-.003-.012-.01-.01z"/><path fill="#09244B" d="M12.707 2.293a1 1 0 0 0-1.414 0l-4 4a1 1 0 0 0-.175 1.178c.247.463.633.775 1.01.987l-2.835 2.835a1 1 0 0 0 0 1.414c.478.478 1.082.77 1.634.952l-2.634 2.634a1 1 0 0 0 .396 1.657c.69.227 1.403.388 2.115.53.78.157 1.746.312 2.845.412l-.598 1.792A1 1 0 0 0 10 22h4a1 1 0 0 0 .949-1.316l-.598-1.792c1.1-.1 2.066-.255 2.845-.411.712-.143 1.43-.304 2.12-.532a1 1 0 0 0 .391-1.656l-2.634-2.634c.552-.181 1.156-.474 1.634-.952a1 1 0 0 0 0-1.414l-2.835-2.835c.377-.212.763-.524 1.01-.987a1 1 0 0 0-.175-1.178z"/></g></svg>