<svg xmlns="http://www.w3.org/2000/svg" width="24" height="24" viewBox="0 0 24 24"><title>wreath_line</title><g fill="none" fill-rule="evenodd"><path d="M24 0v24H0V0zM12.594 23.258l-.012.002-.071.035-.02.004-.014-.004-.071-.036q-.016-.004-.024.006l-.004.01-.017.428.005.02.01.013.104.074.015.004.012-.004.104-.074.012-.016.004-.017-.017-.427q-.004-.016-.016-.018m.264-.113-.014.002-.184.093-.01.01-.003.011.018.43.005.012.008.008.201.092q.019.005.029-.008l.004-.014-.034-.614q-.005-.019-.02-.022m-.715.002a.02.02 0 0 0-.027.006l-.006.014-.034.614q.001.018.017.024l.015-.002.201-.093.01-.008.003-.011.018-.43-.003-.012-.01-.01z"/><path fill="#09244b" fill-rule="nonzero" d="m9.262 3.01.143-.113a4 4 0 0 1 5.021-.136l.169.136c.319.275.707.454 1.121.518l.179.02a4 4 0 0 1 3.669 3.67q.059.739.539 1.3a4 4 0 0 1 0 5.189q-.42.492-.517 1.118l-.021.182a4 4 0 0 1-3.469 3.649l-.201.021c-.454.036-.879.179-1.23.479l-.152.127a1 1 0 0 0 .378.624q.192.157.42.255c.509.199.818.727.638 1.267a1 1 0 0 1-1.265.632 3.4 3.4 0 0 1-1.074-.617 3.07 3.07 0 0 1-.942-1.329 4 4 0 0 1-1.336 0 3.1 3.1 0 0 1-.942 1.329 3.4 3.4 0 0 1-1.072.617 1.01 1.01 0 0 1-1.267-.632 1 1 0 0 1 .623-1.262c.156-.06.306-.152.436-.26.185-.154.334-.348.377-.624l-.152-.127a2.05 2.05 0 0 0-1.061-.46l-.169-.019a4 4 0 0 1-3.648-3.468l-.021-.201a2.2 2.2 0 0 0-.426-1.157l-.113-.143a4 4 0 0 1-.136-5.021l.136-.169c.276-.318.455-.707.518-1.121l.02-.179a4 4 0 0 1 3.469-3.648l.201-.021a2.2 2.2 0 0 0 1.157-.426m5.106 11.772c-.2.073-.41.119-.622.136a.37.37 0 0 0-.21.087 2.37 2.37 0 0 1-3.072 0 .37.37 0 0 0-.21-.087 2.4 2.4 0 0 1-.622-.136l-1.425 1.425a1 1 0 0 1-.444.258c.129.045.26.072.392.091l.201.022c.879.07 1.68.435 2.347 1.003a2 2 0 0 0 2.594 0 4.16 4.16 0 0 1 2.086-.973l.261-.03a2.4 2.4 0 0 0 .593-.113 1 1 0 0 1-.444-.258zm3.097-8.019a1 1 0 0 1-.257.444l-1.425 1.424q.11.302.135.623c.006.077.037.15.087.21a2.37 2.37 0 0 1 0 3.071.37.37 0 0 0-.087.21 2.4 2.4 0 0 1-.135.623l1.424 1.425a1 1 0 0 1 .258.444 2 2 0 0 0 .091-.392l.022-.201a4 4 0 0 1 .786-2.08l.157-.197c.652-.765.732-1.875.06-2.664a4.16 4.16 0 0 1-.973-2.086l-.03-.261a2.3 2.3 0 0 0-.113-.593m-10.93 0a2 2 0 0 0-.091.392l-.022.201a4 4 0 0 1-.786 2.08l-.157.196a2.07 2.07 0 0 0-.114 2.593l.114.142a4 4 0 0 1 .915 2.027l.028.25q.018.304.113.593a1 1 0 0 1 .258-.445l1.424-1.425a2.4 2.4 0 0 1-.135-.622.38.38 0 0 0-.087-.21 2.37 2.37 0 0 1 0-3.072c.05-.06.08-.133.087-.21q.026-.32.135-.623L6.793 7.207a1 1 0 0 1-.258-.444m5.704 1.754a.37.37 0 0 0-.478 0 2.37 2.37 0 0 1-1.347.558.37.37 0 0 0-.338.338 2.36 2.36 0 0 1-.559 1.348.37.37 0 0 0 0 .478c.323.379.519.85.559 1.347.014.18.158.324.338.338.497.04.968.235 1.347.558.138.118.34.118.478 0a2.37 2.37 0 0 1 1.348-.558.37.37 0 0 0 .337-.338c.04-.497.235-.968.559-1.347a.37.37 0 0 0 0-.478 2.37 2.37 0 0 1-.559-1.348.37.37 0 0 0-.337-.338 2.37 2.37 0 0 1-1.348-.558m1.326-3.88-.197-.158a2.07 2.07 0 0 0-2.593-.114l-.142.114a4 4 0 0 1-2.027.915l-.25.028c-.203.016-.4.045-.593.113a1 1 0 0 1 .444.258l1.425 1.424c.2-.073.41-.118.622-.135a.37.37 0 0 0 .21-.087 2.37 2.37 0 0 1 3.072 0c.06.05.133.08.21.087q.32.026.623.135l1.424-1.424a1 1 0 0 1 .444-.258 2 2 0 0 0-.392-.092l-.201-.021a4 4 0 0 1-2.08-.786"/></g></svg>