<?xml version="1.0" encoding="UTF-8"?>
<svg width="24px" height="24px" viewBox="0 0 24 24" version="1.1" xmlns="http://www.w3.org/2000/svg" xmlns:xlink="http://www.w3.org/1999/xlink">
    <title>album_fill</title>
    <g id="页面-1" stroke="none" stroke-width="1" fill="none" fill-rule="evenodd">
        <g id="File" transform="translate(-240.000000, -240.000000)" fill-rule="nonzero">
            <g id="album_fill" transform="translate(240.000000, 240.000000)">
                <rect id="矩形" x="0" y="0" width="24" height="24"></rect>
                <path d="M19.8195,6 C21.0554,6 21.9955,7.10974 21.7923,8.3288 L21.7923,8.3288 L20.1256,18.3288 C19.9649,19.2932 19.1305,20 18.1528,20 L18.1528,20 L5.84709,20 C4.86942,20 4.03503,19.2932 3.87431,18.3288 L3.87431,18.3288 L2.20764,8.3288 C2.00446,7.10974 2.94455,6 4.18043,6 L4.18043,6 Z M18,3 C18.5523,3 19,3.44772 19,4 C19,4.55228 18.5523,5 18,5 L18,5 L6,5 C5.44772,5 5,4.55228 5,4 C5,3.44772 5.44772,3 6,3 L6,3 Z" id="形状结合" fill="#09244B"></path>
            </g>
        </g>
    </g>
</svg>