<?xml version="1.0" encoding="UTF-8"?>
<svg width="24px" height="24px" viewBox="0 0 24 24" version="1.1" xmlns="http://www.w3.org/2000/svg" xmlns:xlink="http://www.w3.org/1999/xlink">
    <title>archive_line</title>
    <g id="Icon" stroke="none" stroke-width="1" fill="none" fill-rule="evenodd">
        <g id="File" transform="translate(-480.000000, -384.000000)">
            <g id="archive_line" transform="translate(480.000000, 384.000000)">
                <path d="M24,0 L24,24 L0,24 L0,0 L24,0 Z M12.5935,23.2578 L12.5819,23.2595 L12.5109,23.295 L12.4919,23.2987 L12.4767,23.295 L12.4057,23.2595 C12.3958,23.2564 12.387,23.259 12.3821,23.2649 L12.378,23.2758 L12.3609,23.7031 L12.3659,23.7235 L12.3769,23.7357 L12.4805,23.8097 L12.4953,23.8136 L12.5071,23.8097 L12.6107,23.7357 L12.6233,23.7197 L12.6267,23.7031 L12.6096,23.2758 C12.6076,23.2657 12.601,23.2593 12.5935,23.2578 Z M12.8584,23.1453 L12.8445,23.1473 L12.6598,23.2397 L12.6499,23.2499 L12.6472,23.2611 L12.6651,23.6906 L12.6699,23.7034 L12.6784,23.7105 L12.8793,23.8032 C12.8914,23.8069 12.9022,23.803 12.9078,23.7952 L12.9118,23.7812 L12.8777,23.1665 C12.8753,23.1546 12.8674,23.147 12.8584,23.1453 Z M12.143,23.1473 C12.1332,23.1424 12.1222,23.1453 12.1156,23.1526 L12.1099,23.1665 L12.0758,23.7812 C12.0751,23.7927 12.0828,23.8019 12.0926,23.8046 L12.1083,23.8032 L12.3092,23.7105 L12.3186,23.7024 L12.3225,23.6906 L12.3404,23.2611 L12.3372,23.2485 L12.3278,23.2397 L12.143,23.1473 Z" id="MingCute" fill-rule="nonzero"></path>
                <path d="M16.5858,3 C17.1162,3 17.6249,3.21071 18,3.58579 L20.4142,6 C20.7893,6.37507 21,6.88378 21,7.41421 L21,19 C21,20.1046 20.1046,21 19,21 L5,21 C3.89543,21 3,20.1046 3,19 L3,7.41421 C3,6.88378 3.21071,6.37507 3.58579,6 L6,3.58579 C6.37507,3.21071 6.88378,3 7.41421,3 L16.5858,3 Z M19,9 L5,9 L5,19 L19,19 L19,9 Z M12,10 C12.5523,10 13,10.4477 13,11 L13,14.1858 L13.4142,13.7716 C13.8047,13.381 14.4379,13.381 14.8284,13.7716 C15.219,14.1621 15.219,14.7953 14.8284,15.1858 L12.7071,17.3071 C12.5196,17.4946 12.2652,17.6 12,17.6 C11.7348,17.6 11.4804,17.4946 11.2929,17.3071 L9.17157,15.1858 C8.78105,14.7953 8.78105,14.1621 9.17157,13.7716 C9.5621,13.381 10.1953,13.381 10.5858,13.7716 L11,14.1858 L11,11 C11,10.4477 11.4477,10 12,10 Z M16.5858,5 L7.41421,5 L5.41421,7 L18.5858,7 L16.5858,5 Z" id="形状" fill="#09244B"></path>
            </g>
        </g>
    </g>
</svg>