<svg width="24" height="24" viewBox="0 0 24 24" fill="none" xmlns="http://www.w3.org/2000/svg">
<rect width="24" height="24" fill="white" fill-opacity="0.01"/>
<path d="M5.98969 10.2322C4.81812 9.06059 4.81812 7.16109 5.98969 5.98952C7.16127 4.81795 9.06076 4.81795 10.2323 5.98952L18.0105 13.7677C19.1821 14.9393 19.1821 16.8388 18.0105 18.0103C16.8389 19.1819 14.9394 19.1819 13.7679 18.0103L10.4091 14.6516C10.1162 14.3587 10.1162 13.8838 10.4091 13.5909C10.702 13.298 11.1769 13.298 11.4698 13.5909L14.475 16.5961C15.0608 17.1819 16.0105 17.1819 16.5963 16.5961C17.1821 16.0103 17.1821 15.0606 16.5963 14.4748L13.5911 11.4696C12.1266 10.0051 9.75226 10.0051 8.28779 11.4696C6.82332 12.9341 6.82332 15.3084 8.28779 16.7729L11.6465 20.1317C13.9897 22.4748 17.7887 22.4748 20.1318 20.1317C22.475 17.7885 22.475 13.9895 20.1318 11.6464L12.3537 3.8682C10.0105 1.52505 6.21152 1.52505 3.86837 3.8682C1.64779 6.08878 1.53164 9.6169 3.51993 11.9743L3.5148 11.9999L3.86837 12.3535C4.45414 12.9392 5.40389 12.9392 5.98967 12.3535C6.57545 11.7677 6.57546 10.8179 5.98969 10.2322Z" fill="#09244B"/>
</svg>
