<svg width="24" height="24" viewBox="0 0 24 24" fill="none" xmlns="http://www.w3.org/2000/svg">
<rect width="24" height="24" fill="white" fill-opacity="0.01"/>
<path fill-rule="evenodd" clip-rule="evenodd" d="M18.7145 19.2175C20.0814 17.8507 20.0814 15.6346 18.7145 14.2678L10.5828 6.13607C10.1923 5.74555 10.1923 5.11238 10.5828 4.72186C10.9733 4.33134 11.6065 4.33134 11.997 4.72186L20.1287 12.8536C22.2766 15.0015 22.2766 18.4839 20.1287 20.6318C17.9809 22.7796 14.4984 22.7796 12.3506 20.6318L2.80462 11.0858C1.24252 9.52372 1.24252 6.99106 2.80462 5.42897C4.36672 3.86687 6.89938 3.86687 8.46147 5.42897L17.6539 14.6214C18.6302 15.5977 18.6302 17.1806 17.6539 18.1569C16.6776 19.1332 15.0946 19.1332 14.1183 18.1569L5.63305 9.67161C5.24252 9.28108 5.24252 8.64792 5.63305 8.25739C6.02357 7.86687 6.65674 7.86687 7.04726 8.25739L15.5325 16.7427C15.7278 16.9379 16.0444 16.9379 16.2396 16.7427C16.4349 16.5474 16.4349 16.2308 16.2396 16.0356L7.04726 6.84318C6.26621 6.06213 4.99988 6.06213 4.21883 6.84318C3.43778 7.62423 3.43778 8.89056 4.21883 9.67161L13.7648 19.2175C15.1316 20.5844 17.3477 20.5844 18.7145 19.2175Z" fill="#09244B"/>
</svg>
