<svg xmlns="http://www.w3.org/2000/svg" width="24" height="24"><g fill="none" fill-rule="evenodd"><path d="M24 0v24H0V0zM12.594 23.258l-.012.002-.071.035-.02.004-.014-.004-.071-.036c-.01-.003-.019 0-.024.006l-.004.01-.017.428.005.02.01.013.104.074.015.004.012-.004.104-.074.012-.016.004-.017-.017-.427c-.002-.01-.009-.017-.016-.018m.264-.113-.014.002-.184.093-.01.01-.003.011.018.43.005.012.008.008.201.092c.012.004.023 0 .029-.008l.004-.014-.034-.614c-.003-.012-.01-.02-.02-.022m-.715.002a.023.023 0 0 0-.027.006l-.006.014-.034.614c0 .012.007.02.017.024l.015-.002.201-.093.01-.008.003-.011.018-.43-.003-.012-.01-.01z"/><path fill="#09244B" d="M18 3a3 3 0 0 1 2.995 2.824L21 6v14a1 1 0 0 1-1.405.914l-.12-.062-2.725-1.678-2.726 1.678a1 1 0 0 1-.938.058l-.11-.058-2.726-1.678-2.726 1.678a1 1 0 0 1-1.517-.732L6 20v-6H4a1 1 0 0 1-.993-.883L3 13V5.5a2.5 2.5 0 0 1 2.336-2.495L5.5 3zm-3 9h-4a1 1 0 1 0 0 2h4a1 1 0 1 0 0-2M5.5 5a.5.5 0 0 0-.5.5V12h1V5.5a.5.5 0 0 0-.5-.5M16 8h-5a1 1 0 0 0-.117 1.993L11 10h5a1 1 0 0 0 .117-1.993z"/></g></svg>