<svg width="24" height="24" viewBox="0 0 24 24" fill="none" xmlns="http://www.w3.org/2000/svg">
<rect width="24" height="24" fill="white" fill-opacity="0.01"/>
<path d="M2 5C2 3.89543 2.89543 3 4 3H20C21.1046 3 22 3.89543 22 5V8H2V5Z" fill="#09244B"/>
<path fill-rule="evenodd" clip-rule="evenodd" d="M3 10H21V19C21 20.1046 20.1046 21 19 21H5C3.89543 21 3 20.1046 3 19V10ZM10 13C9.44772 13 9 13.4477 9 14C9 14.5523 9.44772 15 10 15H14C14.5523 15 15 14.5523 15 14C15 13.4477 14.5523 13 14 13H10Z" fill="#09244B"/>
</svg>
