<svg xmlns="http://www.w3.org/2000/svg" width="24" height="24" viewBox="0 0 24 24"><title>box_4_line</title><g fill="none" fill-rule="nonzero"><path d="M24 0v24H0V0zM12.594 23.258l-.012.002-.071.035-.02.004-.014-.004-.071-.036q-.016-.004-.024.006l-.004.01-.017.428.005.02.01.013.104.074.015.004.012-.004.104-.074.012-.016.004-.017-.017-.427q-.004-.016-.016-.018m.264-.113-.014.002-.184.093-.01.01-.003.011.018.43.005.012.008.008.201.092q.019.005.029-.008l.004-.014-.034-.614q-.005-.019-.02-.022m-.715.002a.02.02 0 0 0-.027.006l-.006.014-.034.614q.001.018.017.024l.015-.002.201-.093.01-.008.003-.011.018-.43-.003-.012-.01-.01z"/><path fill="#09244b" d="M19 12H5v6a1 1 0 0 0 1 1h12a1 1 0 0 0 1-1zm-4-2h2V5h-2zM7 6.414V10h2V6.414l-1-1zM21 18a3 3 0 0 1-3 3H6a3 3 0 0 1-3-3v-7a1 1 0 0 1 1-1h1V6l.005-.099a1 1 0 0 1 .288-.608l2-2 .076-.068a1 1 0 0 1 1.338.068l2 2A1 1 0 0 1 11 6v4h2V4a1 1 0 0 1 1-1h4a1 1 0 0 1 1 1v6h1a1 1 0 0 1 1 1z"/></g></svg>