<?xml version="1.0" encoding="UTF-8"?>
<svg width="24px" height="24px" viewBox="0 0 24 24" version="1.1" xmlns="http://www.w3.org/2000/svg" xmlns:xlink="http://www.w3.org/1999/xlink">
    <title>box_fill</title>
    <g id="页面-1" stroke="none" stroke-width="1" fill="none" fill-rule="evenodd">
        <g id="File" transform="translate(-144.000000, -48.000000)" fill-rule="nonzero">
            <g id="box_fill" transform="translate(144.000000, 48.000000)">
                <rect id="矩形" x="0" y="0" width="24" height="24"></rect>
                <path d="M16.4338,3 C17.0822615,3 17.6868414,3.31407337 18.0603462,3.83620413 L18.1488,3.97101 L20.5725,8.01048 C20.8122429,8.41012286 20.9550796,8.85918122 20.9909974,9.32173487 L21,9.55397 L21,19 C21,20.0543909 20.18415,20.9181678 19.1492661,20.9945144 L19,21 L5,21 C3.94563773,21 3.08183483,20.18415 3.00548573,19.1492661 L3,19 L3,9.55397 C3,9.08791571 3.10856571,8.62937 3.31575359,8.21425309 L3.42752,8.01048 L5.8512,3.97101 C6.18484615,3.41493923 6.76521799,3.05809118 7.4050906,3.00648184 L7.56619,3 L16.4338,3 Z M16.4338,5 L13,5 L13,9 L18.8338,9 L16.4338,5 Z M11,5 L7.56619,5 L5.16619,9 L11,9 L11,5 Z" id="形状" fill="#09244B"></path>
            </g>
        </g>
    </g>
</svg>