<?xml version="1.0" encoding="UTF-8"?>
<svg width="24px" height="24px" viewBox="0 0 24 24" version="1.1" xmlns="http://www.w3.org/2000/svg" xmlns:xlink="http://www.w3.org/1999/xlink">
    <title>box_3_line</title>
    <g id="页面-1" stroke="none" stroke-width="1" fill="none" fill-rule="evenodd">
        <g id="File" transform="translate(-144.000000, -192.000000)">
            <g id="box_3_line" transform="translate(144.000000, 192.000000)">
                <rect id="矩形" fill-rule="nonzero" x="0" y="0" width="24" height="24"></rect>
                <path d="M13.25,2.56699 L19.5442,6.20097 C20.3177,6.64755 20.7942,7.47287 20.7942,8.36603 L20.7942,15.634 C20.7942,16.5271 20.3177,17.3525 19.5442,17.799 L13.25,21.433 C12.4765,21.8796 11.5235,21.8796 10.75,21.433 L4.45573,17.799 C3.68223,17.3525 3.20573,16.5271 3.20573,15.634 L3.20573,8.36603 C3.20573,7.47287 3.68223,6.64755 4.45573,6.20097 L10.75,2.56699 C11.5235,2.12041 12.4765,2.12041 13.25,2.56699 Z M5.20573,9.23206 L5.20573,15.634 C5.20573,15.8126 5.30103,15.9777 5.45573,16.067 L10.9999,19.2679 L10.9999,12.5593 L5.20573,9.23206 Z M18.7942,9.23206 L12.9999,12.5593 L12.9999,19.268 L18.5442,16.067 C18.6731167,15.9925833 18.7607833,15.8655278 18.7864245,15.7218866 L18.7942,15.634 L18.7942,9.23206 Z M11.75,4.29904 L6.20573,7.5 L11.75,10.701 C11.9047,10.7903 12.0953,10.7903 12.25,10.701 L17.7942,7.5 L12.25,4.29904 C12.0953,4.20973 11.9047,4.20973 11.75,4.29904 Z" id="形状" fill="#09244B"></path>
            </g>
        </g>
    </g>
</svg>