<?xml version="1.0" encoding="UTF-8"?>
<svg width="24px" height="24px" viewBox="0 0 24 24" version="1.1" xmlns="http://www.w3.org/2000/svg" xmlns:xlink="http://www.w3.org/1999/xlink">
    <title>clipboard_fill</title>
    <g id="页面-1" stroke="none" stroke-width="1" fill="none" fill-rule="evenodd">
        <g id="File" transform="translate(-192.000000, -48.000000)" fill-rule="nonzero">
            <g id="clipboard_fill" transform="translate(192.000000, 48.000000)">
                <rect id="矩形" x="0" y="0" width="24" height="24"></rect>
                <path d="M7,3 L7,4 C7,5.10457 7.89543,6 9,6 L15,6 C16.1046,6 17,5.10457 17,4 L17,3 L18,3 C19.1046,3 20,3.89543 20,5 L20,16 C20,19.3137 17.3137,22 14,22 L6,22 C4.89543,22 4,21.1046 4,20 L4,5 C4,3.89543 4.89543,3 6,3 L7,3 Z M12,14 L9,14 C8.44772,14 8,14.4477 8,15 C8,15.5523 8.44772,16 9,16 L12,16 C12.5523,16 13,15.5523 13,15 C13,14.4477 12.5523,14 12,14 Z M15,10 L9,10 C8.44772,10 8,10.4477 8,11 C8,11.51285 8.38604429,11.9355092 8.88337975,11.9932725 L9,12 L15,12 C15.5523,12 16,11.5523 16,11 C16,10.4477 15.5523,10 15,10 Z M14,2 C14.5523,2 15,2.44772 15,3 C15,3.51283143 14.613973,3.93550653 14.1166239,3.9932722 L14,4 L10,4 C9.44772,4 9,3.55228 9,3 C9,2.48716857 9.38604429,2.06449347 9.88337975,2.0067278 L10,2 L14,2 Z" id="形状" fill="#09244B"></path>
            </g>
        </g>
    </g>
</svg>