<?xml version="1.0" encoding="UTF-8"?>
<svg width="24px" height="24px" viewBox="0 0 24 24" version="1.1" xmlns="http://www.w3.org/2000/svg" xmlns:xlink="http://www.w3.org/1999/xlink">
    <title>clipboard_line</title>
    <g id="页面-1" stroke="none" stroke-width="1" fill="none" fill-rule="evenodd">
        <g id="clipboard_line">
            <rect id="矩形" fill-opacity="0.01" fill="#FFFFFF" fill-rule="nonzero" x="0" y="0" width="24" height="24"></rect>
            <path d="M15,2 C15.6833538,2 16.286613,2.34270296 16.6473597,2.86561238 L16.7324,3 L18,3 C19.0543909,3 19.9181678,3.81587733 19.9945144,4.85073759 L20,5 L20,17 C20,19.6887316 17.8776708,21.8818169 15.2168878,21.9953804 L15,22 L6,22 C4.94563773,22 4.08183483,21.18415 4.00548573,20.1492661 L4,20 L4,5 C4,3.94563773 4.81587733,3.08183483 5.85073759,3.00548573 L6,3 L7.26756,3 C7.58676923,2.44818462 8.16205988,2.06303432 8.83092759,2.00704561 L9,2 L15,2 Z M7,5 L6,5 L6,20 L15,20 C16.6569,20 18,18.6569 18,17 L18,5 L17,5 C17,6.10457 16.1046,7 15,7 L9,7 C7.89543,7 7,6.10457 7,5 Z M12,14 C12.5523,14 13,14.4477 13,15 C13,15.51285 12.613973,15.9355092 12.1166239,15.9932725 L12,16 L9,16 C8.44772,16 8,15.5523 8,15 C8,14.48715 8.38604429,14.0644908 8.88337975,14.0067275 L9,14 L12,14 Z M15,10 C15.5523,10 16,10.4477 16,11 C16,11.5523 15.5523,12 15,12 L9,12 C8.44772,12 8,11.5523 8,11 C8,10.4477 8.44772,10 9,10 L15,10 Z M15,4 L9,4 L9,5 L15,5 L15,4 Z" id="形状" fill="#09244B"></path>
        </g>
    </g>
</svg>