<?xml version="1.0" encoding="UTF-8"?>
<svg width="24px" height="24px" viewBox="0 0 24 24" version="1.1" xmlns="http://www.w3.org/2000/svg" xmlns:xlink="http://www.w3.org/1999/xlink">
    <title>copy_line</title>
    <g id="页面-1" stroke="none" stroke-width="1" fill="none" fill-rule="evenodd">
        <g id="File" transform="translate(-240.000000, 0.000000)" fill-rule="nonzero">
            <g id="copy_line" transform="translate(240.000000, 0.000000)">
                 <path d="M24,0 L24,24 L0,24 L0,0 L24,0 Z M12.5934901,23.257841 L12.5819402,23.2595131 L12.5108777,23.2950439 L12.4918791,23.2987469 L12.4918791,23.2987469 L12.4767152,23.2950439 L12.4056548,23.2595131 C12.3958229,23.2563662 12.3870493,23.2590235 12.3821421,23.2649074 L12.3780323,23.275831 L12.360941,23.7031097 L12.3658947,23.7234994 L12.3769048,23.7357139 L12.4804777,23.8096931 L12.4953491,23.8136134 L12.4953491,23.8136134 L12.5071152,23.8096931 L12.6106902,23.7357139 L12.6232938,23.7196733 L12.6232938,23.7196733 L12.6266527,23.7031097 L12.609561,23.275831 C12.6075724,23.2657013 12.6010112,23.2592993 12.5934901,23.257841 L12.5934901,23.257841 Z M12.8583906,23.1452862 L12.8445485,23.1473072 L12.6598443,23.2396597 L12.6498822,23.2499052 L12.6498822,23.2499052 L12.6471943,23.2611114 L12.6650943,23.6906389 L12.6699349,23.7034178 L12.6699349,23.7034178 L12.678386,23.7104931 L12.8793402,23.8032389 C12.8914285,23.8068999 12.9022333,23.8029875 12.9078286,23.7952264 L12.9118235,23.7811639 L12.8776777,23.1665331 C12.8752882,23.1545897 12.8674102,23.1470016 12.8583906,23.1452862 L12.8583906,23.1452862 Z M12.1430473,23.1473072 C12.1332178,23.1423925 12.1221763,23.1452606 12.1156365,23.1525954 L12.1099173,23.1665331 L12.0757714,23.7811639 C12.0751323,23.7926639 12.0828099,23.8018602 12.0926481,23.8045676 L12.108256,23.8032389 L12.3092106,23.7104931 L12.3186497,23.7024347 L12.3186497,23.7024347 L12.3225043,23.6906389 L12.340401,23.2611114 L12.337245,23.2485176 L12.337245,23.2485176 L12.3277531,23.2396597 L12.1430473,23.1473072 Z" id="MingCute" fill-rule="nonzero"></path>
                <path d="M19,2 C20.1046,2 21,2.89543 21,4 L21,16 C21,17.1046 20.1046,18 19,18 L17,18 L17,20 C17,21.1046 16.1046,22 15,22 L5,22 C3.89543,22 3,21.1046 3,20 L3,8 C3,6.89543 3.89543,6 5,6 L7,6 L7,4 C7,2.89543 7.89543,2 9,2 L19,2 Z M15,8 L5,8 L5,20 L15,20 L15,8 Z M10,15 C10.5523,15 11,15.4477 11,16 C11,16.5523 10.5523,17 10,17 L8,17 C7.44772,17 7,16.5523 7,16 C7,15.4477 7.44772,15 8,15 L10,15 Z M19,4 L9,4 L9,6 L15,6 C16.1046,6 17,6.89543 17,8 L17,16 L19,16 L19,4 Z M12,11 C12.5523,11 13,11.4477 13,12 C13,12.51285 12.613973,12.9355092 12.1166239,12.9932725 L12,13 L8,13 C7.44772,13 7,12.5523 7,12 C7,11.48715 7.38604429,11.0644908 7.88337975,11.0067275 L8,11 L12,11 Z" id="形状" fill="#09244B"></path>
            </g>
        </g>
    </g>
</svg>