<?xml version="1.0" encoding="UTF-8"?>
<svg width="24px" height="24px" viewBox="0 0 24 24" version="1.1" xmlns="http://www.w3.org/2000/svg" xmlns:xlink="http://www.w3.org/1999/xlink">
    <title>copy_line</title>
    <g id="页面-1" stroke="none" stroke-width="1" fill="none" fill-rule="evenodd">
        <g id="File" transform="translate(-240.000000, 0.000000)" fill-rule="nonzero">
            <g id="copy_line" transform="translate(240.000000, 0.000000)">
                <rect id="矩形" x="0" y="0" width="24" height="24"></rect>
                <path d="M19,2 C20.1046,2 21,2.89543 21,4 L21,16 C21,17.1046 20.1046,18 19,18 L17,18 L17,20 C17,21.1046 16.1046,22 15,22 L5,22 C3.89543,22 3,21.1046 3,20 L3,8 C3,6.89543 3.89543,6 5,6 L7,6 L7,4 C7,2.89543 7.89543,2 9,2 L19,2 Z M15,8 L5,8 L5,20 L15,20 L15,8 Z M10,15 C10.5523,15 11,15.4477 11,16 C11,16.5523 10.5523,17 10,17 L8,17 C7.44772,17 7,16.5523 7,16 C7,15.4477 7.44772,15 8,15 L10,15 Z M19,4 L9,4 L9,6 L15,6 C16.1046,6 17,6.89543 17,8 L17,16 L19,16 L19,4 Z M12,11 C12.5523,11 13,11.4477 13,12 C13,12.51285 12.613973,12.9355092 12.1166239,12.9932725 L12,13 L8,13 C7.44772,13 7,12.5523 7,12 C7,11.48715 7.38604429,11.0644908 7.88337975,11.0067275 L8,11 L12,11 Z" id="形状" fill="#09244B"></path>
            </g>
        </g>
    </g>
</svg>