<?xml version="1.0" encoding="UTF-8"?>
<svg width="24px" height="24px" viewBox="0 0 24 24" version="1.1" xmlns="http://www.w3.org/2000/svg" xmlns:xlink="http://www.w3.org/1999/xlink">
    <title>doc_line</title>
    <g id="页面-1" stroke="none" stroke-width="1" fill="none" fill-rule="evenodd">
        <g id="File" transform="translate(-96.000000, -96.000000)" fill-rule="nonzero">
            <g id="doc_line" transform="translate(96.000000, 96.000000)">
                <rect id="矩形" x="0" y="0" width="24" height="24"></rect>
                <path d="M13.5858,2 C14.1162,2 14.6249,2.21071 15,2.58579 L19.4142,7 C19.7893,7.37507 20,7.88378 20,8.41421 L20,20 C20,21.1046 19.1046,22 18,22 L6,22 C4.89543,22 4,21.1046 4,20 L4,4 C4,2.89543 4.89543,2 6,2 L13.5858,2 Z M12,4 L6,4 L6,20 L18,20 L18,10 L13.5,10 C12.7203294,10 12.0795543,9.40511446 12.0068668,8.64446046 L12,8.5 L12,4 Z M14.0637,12.6489 C14.2576,12.1318 14.834,11.8698 15.3511,12.0637 C15.8312643,12.24375 16.0914699,12.7536087 15.9709451,13.2395462 L15.9363,13.3511 L14.53,17.1014 C14.1886174,18.0117217 12.9420907,18.0513009 12.522,17.2201376 L12.47,17.1014 L12,15.848 L11.53,17.1014 C11.1886174,18.0117217 9.94210904,18.0513009 9.52203734,17.2201376 L9.47004,17.1014 L8.06367,13.3511 C7.86975,12.834 8.13176,12.2576 8.64888,12.0637 C9.12906286,11.88365 9.66036821,12.0966974 9.88908227,12.5420706 L9.93633,12.6489 L10.5,14.152 L10.97,12.8986 C11.3113826,11.9882783 12.5579093,11.9486991 12.978,12.7798624 L13.03,12.8986 L13.5,14.152 L14.0637,12.6489 Z M14,4.41421 L14,8 L17.5858,8 L14,4.41421 Z" id="形状" fill="#09244B"></path>
            </g>
        </g>
    </g>
</svg>