<?xml version="1.0" encoding="UTF-8"?>
<svg width="24px" height="24px" viewBox="0 0 24 24" version="1.1" xmlns="http://www.w3.org/2000/svg" xmlns:xlink="http://www.w3.org/1999/xlink">
    <title>doc_fill</title>
    <g id="页面-1" stroke="none" stroke-width="1" fill="none" fill-rule="evenodd">
        <g id="File" transform="translate(-96.000000, -144.000000)">
            <g id="doc_fill" transform="translate(96.000000, 144.000000)">
                <rect id="矩形" fill-rule="nonzero" x="0" y="0" width="24" height="24"></rect>
                <path d="M12,2 L12,8.5 C12,9.32843 12.6716,10 13.5,10 L20,10 L20,20 C20,21.1046 19.1046,22 18,22 L6,22 C4.89543,22 4,21.1046 4,20 L4,4 C4,2.89543 4.89543,2 6,2 L12,2 Z M14.0637,12.6489 L13.5,14.152 L13.03,12.8986 C12.6731,11.9469 11.3269,11.9469 10.97,12.8986 L10.5,14.152 L9.93633,12.6489 C9.74241,12.1318 9.166,11.8698 8.64888,12.0637 C8.13176,12.2576 7.86975,12.834 8.06367,13.3511 L9.47004,17.1014 C9.82692,18.0531 11.1731,18.0531 11.53,17.1014 L12,15.848 L12.47,17.1014 C12.8269,18.0531 14.1731,18.0531 14.53,17.1014 L15.9363,13.3511 C16.1302,12.834 15.8682,12.2576 15.3511,12.0637 C14.834,11.8698 14.2576,12.1318 14.0637,12.6489 Z M14,2.04336 C14.3759,2.12295 14.7241,2.30991 15,2.58579 L19.4142,7 C19.6901,7.27588 19.8771,7.62406 19.9566,8 L14,8 L14,2.04336 Z" id="形状" fill="#09244B"></path>
            </g>
        </g>
    </g>
</svg>