<?xml version="1.0" encoding="UTF-8"?>
<svg width="24px" height="24px" viewBox="0 0 24 24" version="1.1" xmlns="http://www.w3.org/2000/svg" xmlns:xlink="http://www.w3.org/1999/xlink">
    <title>docment_line</title>
    <g id="页面-1" stroke="none" stroke-width="1" fill="none" fill-rule="evenodd">
        <g id="File" transform="translate(-288.000000, 0.000000)">
            <g id="docment_line" transform="translate(288.000000, 0.000000)">
                <rect id="矩形" fill-rule="nonzero" x="0" y="0" width="24" height="24"></rect>
                <path d="M4,4 C4,2.89543 4.89543,2 6,2 L18,2 C19.1046,2 20,2.89543 20,4 L20,20 C20,21.1046 19.1046,22 18,22 L6,22 C4.89543,22 4,21.1046 4,20 L4,4 Z M18,4 L6,4 L6,20 L18,20 L18,4 Z M8,9 C8,8.44772 8.44772,8 9,8 L15,8 C15.5523,8 16,8.44772 16,9 C16,9.55228 15.5523,10 15,10 L9,10 C8.44772,10 8,9.55228 8,9 Z M9,13 C8.44772,13 8,13.4477 8,14 C8,14.5523 8.44772,15 9,15 L12,15 C12.5523,15 13,14.5523 13,14 C13,13.4477 12.5523,13 12,13 L9,13 Z" id="形状" fill="#09244B"></path>
            </g>
        </g>
    </g>
</svg>