<?xml version="1.0" encoding="UTF-8"?>
<svg width="24px" height="24px" viewBox="0 0 24 24" version="1.1" xmlns="http://www.w3.org/2000/svg" xmlns:xlink="http://www.w3.org/1999/xlink">
    <title>document_3_fill</title>
    <g id="页面-1" stroke="none" stroke-width="1" fill="none" fill-rule="evenodd">
        <g id="File" transform="translate(-384.000000, -240.000000)">
            <g id="document_3_fill" transform="translate(384.000000, 240.000000)">
                <rect id="矩形" fill-rule="nonzero" x="0" y="0" width="24" height="24"></rect>
                <path d="M18,2 C19.1046,2 20,2.89543 20,4 L20,14 L13.5,14 C12.6716,14 12,14.6716 12,15.5 L12,22 L6,22 C4.89543,22 4,21.1046 4,20 L4,4 C4,2.89543 4.89543,2 6,2 L18,2 Z M19.9566,16 C19.8771,16.3759 19.6901,16.7241 19.4142,17 L15,21.4142 C14.7241,21.6901 14.3759,21.8771 14,21.9566 L14,16 L19.9566,16 Z M10,11 L9,11 C8.44772,11 8,11.4477 8,12 C8,12.5523 8.44772,13 9,13 L9,13 L10,13 C10.5523,13 11,12.5523 11,12 C11,11.4477 10.5523,11 10,11 L10,11 Z M15,7 L9,7 C8.44772,7 8,7.44772 8,8 C8,8.55229 8.44772,9 9,9 L15,9 C15.5523,9 16,8.55229 16,8 C16,7.44772 15.5523,7 15,7 Z" id="形状结合" fill="#09244B"></path>
            </g>
        </g>
    </g>
</svg>