<?xml version="1.0" encoding="UTF-8"?>
<svg width="24px" height="24px" viewBox="0 0 24 24" version="1.1" xmlns="http://www.w3.org/2000/svg" xmlns:xlink="http://www.w3.org/1999/xlink">
    <title>document_3_line</title>
    <g id="页面-1" stroke="none" stroke-width="1" fill="none" fill-rule="evenodd">
        <g id="File" transform="translate(-384.000000, -192.000000)" fill-rule="nonzero">
            <g id="document_3_line" transform="translate(384.000000, 192.000000)">
                <rect id="矩形" x="0" y="0" width="24" height="24"></rect>
                <path d="M18,2 C19.1046,2 20,2.89543 20,4 L20,15.5858 C20,16.1162 19.7893,16.6249 19.4142,17 L15,21.4142 C14.6249,21.7893 14.1162,22 13.5858,22 L6,22 C4.89543,22 4,21.1046 4,20 L4,4 C4,2.89543 4.89543,2 6,2 L18,2 Z M18,4 L6,4 L6,20 L12,20 L12,15.5 C12,14.6716 12.6716,14 13.5,14 L18,14 L18,4 Z M17.5858,16 L14,16 L14,19.5858 L17.5858,16 Z M10,11 C10.5523,11 11,11.4477 11,12 C11,12.5523 10.5523,13 10,13 L9,13 C8.44772,13 8,12.5523 8,12 C8,11.4477 8.44772,11 9,11 L10,11 Z M15,7 C15.5523,7 16,7.44771 16,8 C16,8.55229 15.5523,9 15,9 L15,9 L9,9 C8.44772,9 8,8.55229 8,8 C8,7.44771 8.44772,7 9,7 L9,7 Z" id="形状结合" fill="#09244B"></path>
            </g>
        </g>
    </g>
</svg>