<?xml version="1.0" encoding="UTF-8"?>
<svg width="24px" height="24px" viewBox="0 0 24 24" version="1.1" xmlns="http://www.w3.org/2000/svg" xmlns:xlink="http://www.w3.org/1999/xlink">
    <title>document_2_line</title>
    <g id="页面-1" stroke="none" stroke-width="1" fill="none" fill-rule="evenodd">
        <g id="File" transform="translate(-336.000000, -192.000000)" fill-rule="nonzero">
            <g id="document_2_line" transform="translate(336.000000, 192.000000)">
                <rect id="矩形" x="0" y="0" width="24" height="24"></rect>
                <path d="M13.5858,2 C14.1162,2 14.6249,2.21071 15,2.58579 L15,2.58579 L19.4142,7 C19.7893,7.37507 20,7.88378 20,8.41421 L20,8.41421 L20,20 C20,21.1046 19.1046,22 18,22 L18,22 L6,22 C4.89543,22 4,21.1046 4,20 L4,20 L4,4 C4,2.89543 4.89543,2 6,2 L6,2 Z M12,4 L6,4 L6,20 L18,20 L18,10 L13.5,10 C12.6716,10 12,9.32843 12,8.5 L12,4 Z M15,14 C15.5523,14 16,14.4477 16,15 C16,15.5523 15.5523,16 15,16 L9,16 C8.44772,16 8,15.5523 8,15 C8,14.4477 8.44772,14 9,14 L15,14 Z M10,10 C10.5523,10 11,10.4477 11,11 C11,11.5523 10.5523,12 10,12 L10,12 L9,12 C8.44772,12 8,11.5523 8,11 C8,10.4477 8.44772,10 9,10 L9,10 Z M14,4.41421 L14,8 L17.5858,8 L14,4.41421 Z" id="形状结合" fill="#09244B"></path>
            </g>
        </g>
    </g>
</svg>