<svg width="24" height="24" viewBox="0 0 24 24" fill="none" xmlns="http://www.w3.org/2000/svg">
<rect width="24" height="24" fill="white" fill-opacity="0.01"/>
<path d="M12 2C12.8284 2 13.5 2.67157 13.5 3.5V11H16.2604C16.9286 11 17.2632 11.8079 16.7907 12.2803L12.7071 16.364C12.3166 16.7545 11.6834 16.7545 11.2929 16.364L7.20927 12.2803C6.73679 11.8079 7.07142 11 7.7396 11H10.5V3.5C10.5 2.67157 11.1716 2 12 2Z" fill="#09244B"/>
<path d="M4 14C4.82843 14 5.5 14.6716 5.5 15.5V19H18.5V15.5C18.5 14.6716 19.1716 14 20 14C20.8284 14 21.5 14.6716 21.5 15.5V19.5C21.5 20.8807 20.3807 22 19 22H5C3.61929 22 2.5 20.8807 2.5 19.5V15.5C2.5 14.6716 3.17157 14 4 14Z" fill="#09244B"/>
</svg>
