<?xml version="1.0" encoding="UTF-8"?>
<svg width="24px" height="24px" viewBox="0 0 24 24" version="1.1" xmlns="http://www.w3.org/2000/svg" xmlns:xlink="http://www.w3.org/1999/xlink">
    <title>download_2_line</title>
    <g id="页面-1" stroke="none" stroke-width="1" fill="none" fill-rule="evenodd">
        <g id="download_2_line" fill-rule="nonzero">
            <rect id="矩形" x="0" y="0" width="24" height="24"></rect>
            <path d="M20,15 C20.5523,15 21,15.4477 21,16 L21,20 C21,21.1046 20.1046,22 19,22 L5,22 C3.89543,22 3,21.1046 3,20 L3,16 C3,15.4477 3.44772,15 4,15 C4.55228,15 5,15.4477 5,16 L5,20 L19,20 L19,16 C19,15.4477 19.4477,15 20,15 Z M12,2 C12.5523,2 13,2.44772 13,3 L13,13.2426 L15.5355,10.7071 C15.9261,10.3165 16.5592,10.3165 16.9497,10.7071 C17.3403,11.0976 17.3403,11.7308 16.9497,12.1213 L12.8839,16.1871 C12.3957,16.6753 11.6043,16.6753 11.1161,16.1871 L7.05025,12.1213 C6.65973,11.7308 6.65973,11.0976 7.05025,10.7071 C7.44078,10.3165 8.07394,10.3165 8.46447,10.7071 L11,13.2426 L11,3 C11,2.44772 11.4477,2 12,2 Z" id="形状结合" fill="#09244B"></path>
        </g>
    </g>
</svg>