<?xml version="1.0" encoding="UTF-8"?>
<svg width="24px" height="24px" viewBox="0 0 24 24" version="1.1" xmlns="http://www.w3.org/2000/svg" xmlns:xlink="http://www.w3.org/1999/xlink">
    <title>download_3_fill</title>
    <g id="页面-1" stroke="none" stroke-width="1" fill="none" fill-rule="evenodd">
        <g id="File" transform="translate(-912.000000, -144.000000)" fill-rule="nonzero">
            <g id="download_3_fill" transform="translate(912.000000, 144.000000)">
                <rect id="矩形" x="0" y="0" width="24" height="24"></rect>
                <path d="M12.0000009,11 C12.5523,11 13.0000009,11.4477 13.0000009,12 L13.0000009,18.5838 L14.2934,17.2923 C14.6843,16.9021 15.3174,16.9026 15.7077,17.2934 C16.0979,17.6843 16.0974,18.3174 15.7066,18.7077 L12.8832,21.5266 C12.6301,21.7793 12.3839,22 12.0000009,22 C11.6640876,22 11.4336016,21.8310266 11.2116715,21.6194939 L8.29345,18.7077 C7.90262,18.3174 7.90212,17.6843 8.29234,17.2934 C8.68256,16.9026 9.31572,16.9021 9.70655,17.2923 L11.0000009,18.5838 L11.0000009,12 C11.0000009,11.4477 11.4477,11 12.0000009,11 Z M11.5,2 C14.2845,2 16.6601,3.7509 17.5858,6.2118 C20.13,6.90722 22,9.23523 22,12 C22,14.6194 20.3215,16.8468 17.9814,17.6651 C17.9086,17.0132 17.6225,16.3806 17.123,15.8803 C16.5903636,15.3468455 15.9068182,15.0557876 15.2094786,15.0072767 L15,15 L15,12 C15,10.3431 13.6569,9 12,9 C10.402275,9 9.09633597,10.2488774 9.00509252,11.8237227 L9,12 L9,15 C8.23145,15 7.46294,15.2935 6.87701,15.8803 C6.31762,16.4406 6.02588,17.1669 6.00165,17.9003 C3.71859,17.4377 2,15.4195 2,13 C2,10.9495 3.23434,9.18724 5.00053,8.41581 C5.04561,4.86476 7.93825,2 11.5,2 Z" id="形状" fill="#09244B"></path>
            </g>
        </g>
    </g>
</svg>