<?xml version="1.0" encoding="UTF-8"?>
<svg width="24px" height="24px" viewBox="0 0 24 24" version="1.1" xmlns="http://www.w3.org/2000/svg" xmlns:xlink="http://www.w3.org/1999/xlink">
    <title>download_3_line</title>
    <g id="页面-1" stroke="none" stroke-width="1" fill="none" fill-rule="evenodd">
        <g id="File" transform="translate(-912.000000, -96.000000)">
            <g id="download_3_line" transform="translate(912.000000, 96.000000)">
                 <path d="M24,0 L24,24 L0,24 L0,0 L24,0 Z M12.5934901,23.257841 L12.5819402,23.2595131 L12.5108777,23.2950439 L12.4918791,23.2987469 L12.4918791,23.2987469 L12.4767152,23.2950439 L12.4056548,23.2595131 C12.3958229,23.2563662 12.3870493,23.2590235 12.3821421,23.2649074 L12.3780323,23.275831 L12.360941,23.7031097 L12.3658947,23.7234994 L12.3769048,23.7357139 L12.4804777,23.8096931 L12.4953491,23.8136134 L12.4953491,23.8136134 L12.5071152,23.8096931 L12.6106902,23.7357139 L12.6232938,23.7196733 L12.6232938,23.7196733 L12.6266527,23.7031097 L12.609561,23.275831 C12.6075724,23.2657013 12.6010112,23.2592993 12.5934901,23.257841 L12.5934901,23.257841 Z M12.8583906,23.1452862 L12.8445485,23.1473072 L12.6598443,23.2396597 L12.6498822,23.2499052 L12.6498822,23.2499052 L12.6471943,23.2611114 L12.6650943,23.6906389 L12.6699349,23.7034178 L12.6699349,23.7034178 L12.678386,23.7104931 L12.8793402,23.8032389 C12.8914285,23.8068999 12.9022333,23.8029875 12.9078286,23.7952264 L12.9118235,23.7811639 L12.8776777,23.1665331 C12.8752882,23.1545897 12.8674102,23.1470016 12.8583906,23.1452862 L12.8583906,23.1452862 Z M12.1430473,23.1473072 C12.1332178,23.1423925 12.1221763,23.1452606 12.1156365,23.1525954 L12.1099173,23.1665331 L12.0757714,23.7811639 C12.0751323,23.7926639 12.0828099,23.8018602 12.0926481,23.8045676 L12.108256,23.8032389 L12.3092106,23.7104931 L12.3186497,23.7024347 L12.3186497,23.7024347 L12.3225043,23.6906389 L12.340401,23.2611114 L12.337245,23.2485176 L12.337245,23.2485176 L12.3277531,23.2396597 L12.1430473,23.1473072 Z" id="MingCute" fill-rule="nonzero"></path>
                <path d="M11.5,4 C13.576,4 15.326,5.40663 15.8441,7.32051 C15.9477,7.70323 16.2653,7.98913 16.6552,8.05324 C18.5524,8.36524 20,10.0145 20,12 C20,13.4793 19.1975,14.7724 17.9993,15.4655 C17.5212,15.742 17.3579,16.3538 17.6344,16.8318 C17.9109,17.3099 18.5227,17.4732 19.0007,17.1967 C20.7915,16.1608 22,14.2221 22,12 C22,9.23462 20.13,6.90766 17.5856,6.21198 C16.66,3.75154 14.2856,2 11.5,2 C7.93814,2 5.04543,4.86494 5.00053,8.41614 C3.23468,9.18749 2,10.9486 2,13 C2,15.0999 3.29423,16.8952 5.12478,17.6362 C5.63672,17.8434 6.21971,17.5964 6.42694,17.0845 C6.63416,16.5725 6.38715,15.9895 5.87522,15.7823 C4.77394,15.3365 4,14.2574 4,13 C4,11.5965 4.96468,10.4159 6.26851,10.0896 C6.75509,9.9678 7.08294,9.50471 7.02729,8.99923 C6.73903,6.38087 8.85134,4 11.5,4 Z M12.0000009,11 C12.5523,11 13.0000009,11.4477 13.0000009,12 L13.0000009,18.5838 L14.2934,17.2923 C14.6843,16.9021 15.3174,16.9026 15.7077,17.2934 C16.0979,17.6843 16.0974,18.3174 15.7066,18.7077 L12.8832,21.5266 C12.6301,21.7793 12.3839,22 12.0000009,22 C11.6161,22 11.3699,21.7793 11.1168,21.5266 L8.29345,18.7077 C7.90262,18.3174 7.90212,17.6843 8.29234,17.2934 C8.68256,16.9026 9.31572,16.9021 9.70655,17.2923 L11.0000009,18.5838 L11.0000009,12 C11.0000009,11.4477 11.4477,11 12.0000009,11 Z" id="形状" fill="#09244B"></path>
            </g>
        </g>
    </g>
</svg>