<?xml version="1.0" encoding="UTF-8"?>
<svg width="24px" height="24px" viewBox="0 0 24 24" version="1.1" xmlns="http://www.w3.org/2000/svg" xmlns:xlink="http://www.w3.org/1999/xlink">
    <title>download_2_fill</title>
    <g id="页面-1" stroke="none" stroke-width="1" fill="none" fill-rule="evenodd">
        <g id="File" transform="translate(-336.000000, -48.000000)" fill-rule="nonzero">
            <g id="download_2_fill" transform="translate(336.000000, 48.000000)">
                <rect id="矩形" x="0" y="0" width="24" height="24"></rect>
                <path d="M20,14 C20.8284,14 21.5,14.6716 21.5,15.5 L21.5,19.5 C21.5,20.8807 20.3807,22 19,22 L5,22 C3.61929,22 2.5,20.8807 2.5,19.5 L2.5,15.5 C2.5,14.6716 3.17157,14 4,14 C4.82843,14 5.5,14.6716 5.5,15.5 L5.5,19 L18.5,19 L18.5,15.5 C18.5,14.6716 19.1716,14 20,14 Z M12,2 C12.8284,2 13.5,2.67157 13.5,3.5 L13.5,11 L16.2604,11 C16.9286,11 17.2632,11.8079 16.7907,12.2803 L12.7071,16.364 C12.3166,16.7545 11.6834,16.7545 11.2929,16.364 L7.20927,12.2803 C6.73679,11.8079 7.07142,11 7.7396,11 L10.5,11 L10.5,3.5 C10.5,2.67157 11.1716,2 12,2 Z" id="形状" fill="#09244B"></path>
            </g>
        </g>
    </g>
</svg>