<?xml version="1.0" encoding="UTF-8"?>
<svg width="24px" height="24px" viewBox="0 0 24 24" version="1.1" xmlns="http://www.w3.org/2000/svg" xmlns:xlink="http://www.w3.org/1999/xlink">
    <title>download_line</title>
    <g id="页面-1" stroke="none" stroke-width="1" fill="none" fill-rule="evenodd">
        <g id="File" transform="translate(-384.000000, 0.000000)" fill-rule="nonzero">
            <g id="download_line" transform="translate(384.000000, 0.000000)">
                <rect id="矩形" x="0" y="0" width="24" height="24"></rect>
                <path d="M8,5 L8,7 L5,7 L5,20 L19,20 L19,7 L16,7 L16,5 L19,5 C20.1046,5 21,5.89543 21,7 L21,20 C21,21.1046 20.1046,22 19,22 L5,22 C3.89543,22 3,21.1046 3,20 L3,7 C3,5.89543 3.89543,5 5,5 L8,5 Z M12,2 C12.5523,2 13,2.44772 13,3 L13,13.8284 L14.8284,12 C15.219,11.6094 15.8521,11.6094 16.2426,12 C16.6332,12.3905 16.6332,13.0237 16.2426,13.4142 L12.8839,16.7729 C12.3957,17.2611 11.6043,17.2611 11.1161,16.7729 L7.75736,13.4142 C7.36684,13.0237 7.36684,12.3905 7.75736,12 C8.14788,11.6094 8.78105,11.6094 9.17157,12 L11,13.8284 L11,3 C11,2.44772 11.4477,2 12,2 Z" id="形状" fill="#09244B"></path>
            </g>
        </g>
    </g>
</svg>