<svg xmlns="http://www.w3.org/2000/svg" width="24" height="24"><g fill="none" fill-rule="evenodd"><path d="M24 0v24H0V0zM12.594 23.258l-.012.002-.071.035-.02.004-.014-.004-.071-.036c-.01-.003-.019 0-.024.006l-.004.01-.017.428.005.02.01.013.104.074.015.004.012-.004.104-.074.012-.016.004-.017-.017-.427c-.002-.01-.009-.017-.016-.018m.264-.113-.014.002-.184.093-.01.01-.003.011.018.43.005.012.008.008.201.092c.012.004.023 0 .029-.008l.004-.014-.034-.614c-.003-.012-.01-.02-.02-.022m-.715.002a.023.023 0 0 0-.027.006l-.006.014-.034.614c0 .012.007.02.017.024l.015-.002.201-.093.01-.008.003-.011.018-.43-.003-.012-.01-.01z"/><path fill="#09244B" d="M12.916 3.244a3 3 0 0 0-1.832 0L4.55 5.34a.998.998 0 0 0-.556.45L1.757 9.654a1 1 0 0 0 .56 1.453l7.14 2.292a1 1 0 0 0 1.171-.451l.372-.642v2.317a1 1 0 0 1-1.306.952l-5.838-1.873v3.278a2 2 0 0 0 1.388 1.905l5.84 1.872a3 3 0 0 0 1.832 0l5.84-1.872a2 2 0 0 0 1.389-1.905l-.002-3.278-5.837 1.873A1 1 0 0 1 13 14.622v-2.317l.371.642a1 1 0 0 0 1.171.45l7.141-2.29a1 1 0 0 0 .56-1.454L20.006 5.79a.998.998 0 0 0-.556-.45V5.34zm2.953 3.048L12 7.533 8.13 6.292l3.564-1.144a1 1 0 0 1 .611 0z"/></g></svg>