<svg xmlns="http://www.w3.org/2000/svg" width="24" height="24"><g fill="none" fill-rule="evenodd"><path d="M24 0v24H0V0zM12.594 23.258l-.012.002-.071.035-.02.004-.014-.004-.071-.036c-.01-.003-.019 0-.024.006l-.004.01-.017.428.005.02.01.013.104.074.015.004.012-.004.104-.074.012-.016.004-.017-.017-.427c-.002-.01-.009-.017-.016-.018m.264-.113-.014.002-.184.093-.01.01-.003.011.018.43.005.012.008.008.201.092c.012.004.023 0 .029-.008l.004-.014-.034-.614c-.003-.012-.01-.02-.02-.022m-.715.002a.023.023 0 0 0-.027.006l-.006.014-.034.614c0 .012.007.02.017.024l.015-.002.201-.093.01-.008.003-.011.018-.43-.003-.012-.01-.01z"/><path fill="#09244B" d="M11.084 3.244a3 3 0 0 1 1.607-.063l.225.063L19.45 5.34c.19.063.361.181.486.346l.07.105 2.75 4.747a1 1 0 0 1-.44 1.407l-.12.047-2.051.658v4.33a2 2 0 0 1-1.237 1.848l-.152.056-5.84 1.872a3 3 0 0 1-1.607.063l-.225-.062-5.84-1.873a2 2 0 0 1-1.382-1.743l-.007-.162V12.65l-2.051-.658a1 1 0 0 1-.617-1.338l.057-.116 2.75-4.747a.998.998 0 0 1 .445-.406l.11-.045zM13 12.305v6.324l5.145-1.65v-3.687l-3.09.991a1 1 0 0 1-1.106-.353l-.064-.098zm-2 0-.885 1.527a1 1 0 0 1-1.17.451l-3.09-.991v3.687L11 18.63zM5.32 7.49l-1.723 2.977 5.191 1.666 1.725-2.977zm13.36 0-5.193 1.666 1.724 2.977 5.192-1.666zm-6.375-2.342a1 1 0 0 0-.49-.03l-.12.03L8.13 6.292 12 7.533l3.87-1.241z"/></g></svg>