<?xml version="1.0" encoding="UTF-8"?>
<svg width="24px" height="24px" viewBox="0 0 24 24" version="1.1" xmlns="http://www.w3.org/2000/svg" xmlns:xlink="http://www.w3.org/1999/xlink">
    <title>file_check_fill</title>
    <g id="页面-1" stroke="none" stroke-width="1" fill="none" fill-rule="evenodd">
        <g id="File" transform="translate(-576.000000, -240.000000)">
            <g id="file_check_fill" transform="translate(576.000000, 240.000000)">
                <rect id="矩形" fill-rule="nonzero" x="0" y="0" width="24" height="24"></rect>
                <path d="M12,2 L12,8.5 C12,9.32843 12.6716,10 13.5,10 L20,10 L20,20 C20,21.1046 19.1046,22 18,22 L6,22 C4.89543,22 4,21.1046 4,20 L4,4 C4,2.89543 4.89543,2 6,2 L12,2 Z M13.591,13.6571 L11.1161,16.1319 L10.409,15.4248 C10.0185,15.0343 9.38535,15.0343 8.99482,15.4248 C8.6043,15.8153 8.6043,16.4485 8.99482,16.839 L10.3383,18.1825 C10.7679,18.6121 11.4644,18.6121 11.894,18.1825 L15.0052,15.0713 C15.3958,14.6807 15.3958,14.0476 15.0052,13.6571 C14.6147,13.2665 13.9815,13.2665 13.591,13.6571 Z M14,2.04336 C14.3759,2.12295 14.7241,2.30991 15,2.58579 L19.4142,7 C19.6901,7.27588 19.8771,7.62406 19.9566,8 L14,8 L14,2.04336 Z" id="形状结合" fill="#09244B"></path>
            </g>
        </g>
    </g>
</svg>