<?xml version="1.0" encoding="UTF-8"?>
<svg width="24px" height="24px" viewBox="0 0 24 24" version="1.1" xmlns="http://www.w3.org/2000/svg" xmlns:xlink="http://www.w3.org/1999/xlink">
    <title>file_new_fill</title>
    <g id="页面-1" stroke="none" stroke-width="1" fill="none" fill-rule="evenodd">
        <g id="File" transform="translate(-336.000000, -144.000000)">
            <g id="file_new_fill" transform="translate(336.000000, 144.000000)">
                <rect id="矩形" fill-rule="nonzero" x="0" y="0" width="24" height="24"></rect>
                <path d="M12,2 L12,8.5 C12,9.27969882 12.5949121,9.920449 13.3555442,9.99313345 L13.5,10 L20,10 L20,20 C20,21.0543909 19.18415,21.9181678 18.1492661,21.9945144 L18,22 L6,22 C4.94563773,22 4.08183483,21.18415 4.00548573,20.1492661 L4,20 L4,4 C4,2.94563773 4.81587733,2.08183483 5.85073759,2.00548573 L6,2 L12,2 Z M12,11.5 C11.48715,11.5 11.0644908,11.886027 11.0067275,12.3833761 L11,12.5 L11,14 L9.5,14 C8.94772,14 8.5,14.4477 8.5,15 C8.5,15.51285 8.88604429,15.9355092 9.38337975,15.9932725 L9.5,16 L11,16 L11,17.5 C11,18.0523 11.4477,18.5 12,18.5 C12.51285,18.5 12.9355092,18.113973 12.9932725,17.6166239 L13,17.5 L13,16 L14.5,16 C15.0523,16 15.5,15.5523 15.5,15 C15.5,14.48715 15.113973,14.0644908 14.6166239,14.0067275 L14.5,14 L13,14 L13,12.5 C13,11.9477 12.5523,11.5 12,11.5 Z M14,2.04336 C14.3222,2.11158 14.624049,2.25868408 14.8774606,2.47305359 L15,2.58579 L19.4142,7 C19.6506857,7.23646857 19.8218571,7.52605551 19.9160012,7.8407123 L19.9566,8 L14,8 L14,2.04336 Z" id="形状" fill="#09244B"></path>
            </g>
        </g>
    </g>
</svg>