<?xml version="1.0" encoding="UTF-8"?>
<svg width="24px" height="24px" viewBox="0 0 24 24" version="1.1" xmlns="http://www.w3.org/2000/svg" xmlns:xlink="http://www.w3.org/1999/xlink">
    <title>file_search_line</title>
    <g id="页面-1" stroke="none" stroke-width="1" fill="none" fill-rule="evenodd">
        <g id="File" transform="translate(-768.000000, -192.000000)">
            <g id="file_search_line" transform="translate(768.000000, 192.000000)">
                <rect id="矩形" fill-rule="nonzero" x="0" y="0" width="24" height="24"></rect>
                <path d="M13.5858,2 C14.1162,2 14.6249,2.21071 15,2.58579 L15,2.58579 L19.4142,7 C19.7893,7.37507 20,7.88378 20,8.41421 L20,8.41421 L20,20 C20,21.1046 19.1046,22 18,22 L18,22 L6,22 C4.89543,22 4,21.1046 4,20 L4,20 L4,4 C4,2.89543 4.89543,2 6,2 L6,2 Z M12,4 L6,4 L6,20 L18,20 L18,10 L13.5,10 C12.6716,10 12,9.32843 12,8.5 L12,4 Z M12,12 C13.6569,12 15,13.3431 15,15 C15,15.4632 14.895,15.9018 14.7076,16.2934 L15.4142,17.0001 C15.8048,17.3906 15.8047,18.0238 15.4142,18.4143 C15.0237,18.8048 14.3905,18.8048 14,18.4143 L13.2934,17.7076 C12.9018,17.8951 12.4631,18 12,18 C10.3431,18 9,16.6569 9,15 C9,13.3431 10.3431,12 12,12 Z M12,14 C11.4477,14 11,14.4477 11,15 C11,15.5523 11.4477,16 12,16 C12.5523,16 13,15.5523 13,15 C13,14.4477 12.5523,14 12,14 Z M14,4.41421 L14,8 L17.5858,8 L14,4.41421 Z" id="形状结合" fill="#09244B"></path>
            </g>
        </g>
    </g>
</svg>