<?xml version="1.0" encoding="UTF-8"?>
<svg width="24px" height="24px" viewBox="0 0 24 24" version="1.1" xmlns="http://www.w3.org/2000/svg" xmlns:xlink="http://www.w3.org/1999/xlink">
    <title>file_warning _line</title>
    <g id="页面-1" stroke="none" stroke-width="1" fill="none" fill-rule="evenodd">
        <g id="File" transform="translate(-912.000000, -192.000000)" fill-rule="nonzero">
            <g id="file_warning-_line" transform="translate(912.000000, 192.000000)">
                <rect id="矩形" x="0" y="0" width="24" height="24"></rect>
                <path d="M13.5858,2 C14.1162,2 14.6249,2.21071 15,2.58579 L15,2.58579 L19.4142,7 C19.7893,7.37507 20,7.88378 20,8.41421 L20,8.41421 L20,20 C20,21.1046 19.1046,22 18,22 L18,22 L6,22 C4.89543,22 4,21.1046 4,20 L4,20 L4,4 C4,2.89543 4.89543,2 6,2 L6,2 Z M12,4 L6,4 L6,20 L18,20 L18,10 L13.5,10 C12.6716,10 12,9.32843 12,8.5 L12,4 Z M12,16 C12.5523,16 13,16.4477 13,17 C13,17.5523 12.5523,18 12,18 C11.4477,18 11,17.5523 11,17 C11,16.4477 11.4477,16 12,16 Z M12,11 C12.5523,11 13,11.4477 13,12 L13,12 L13,14 C13,14.5523 12.5523,15 12,15 C11.4477,15 11,14.5523 11,14 L11,14 L11,12 C11,11.4477 11.4477,11 12,11 Z M14,4.41421 L14,8 L17.5858,8 L14,4.41421 Z" id="形状结合" fill="#09244B"></path>
            </g>
        </g>
    </g>
</svg>