<?xml version="1.0" encoding="UTF-8"?>
<svg width="24px" height="24px" viewBox="0 0 24 24" version="1.1" xmlns="http://www.w3.org/2000/svg" xmlns:xlink="http://www.w3.org/1999/xlink">
    <title>file_new_line</title>
    <g id="页面-1" stroke="none" stroke-width="1" fill="none" fill-rule="evenodd">
        <g id="File" transform="translate(-336.000000, -96.000000)" fill-rule="nonzero">
            <g id="file_new_line" transform="translate(336.000000, 96.000000)">
                <rect id="矩形" x="0" y="0" width="24" height="24"></rect>
                <path d="M13.5858,2 C14.0572667,2 14.5115877,2.16648691 14.870172,2.46691468 L15,2.58579 L19.4142,7 C19.7476222,7.33339556 19.9511481,7.77238321 19.9922598,8.23835797 L20,8.41421 L20,20 C20,21.0543909 19.18415,21.9181678 18.1492661,21.9945144 L18,22 L6,22 C4.94563773,22 4.08183483,21.18415 4.00548573,20.1492661 L4,20 L4,4 C4,2.94563773 4.81587733,2.08183483 5.85073759,2.00548573 L6,2 L13.5858,2 Z M12,4 L6,4 L6,20 L18,20 L18,10 L13.5,10 C12.6716,10 12,9.32843 12,8.5 L12,4 Z M12,11.5 C12.5523,11.5 13,11.9477 13,12.5 L13,14 L14.5,14 C15.0523,14 15.5,14.4477 15.5,15 C15.5,15.5523 15.0523,16 14.5,16 L13,16 L13,17.5 C13,18.0523 12.5523,18.5 12,18.5 C11.4477,18.5 11,18.0523 11,17.5 L11,16 L9.5,16 C8.94772,16 8.5,15.5523 8.5,15 C8.5,14.4477 8.94772,14 9.5,14 L11,14 L11,12.5 C11,11.9477 11.4477,11.5 12,11.5 Z M14,4.41421 L14,8 L17.5858,8 L14,4.41421 Z" id="形状" fill="#09244B"></path>
            </g>
        </g>
    </g>
</svg>