<?xml version="1.0" encoding="UTF-8"?>
<svg width="24px" height="24px" viewBox="0 0 24 24" version="1.1" xmlns="http://www.w3.org/2000/svg" xmlns:xlink="http://www.w3.org/1999/xlink">
    <title>file_code_fill</title>
    <g id="页面-1" stroke="none" stroke-width="1" fill="none" fill-rule="evenodd">
        <g id="File" transform="translate(-624.000000, -240.000000)">
            <g id="file_code_fill" transform="translate(624.000000, 240.000000)">
                <rect id="矩形" fill-rule="nonzero" x="0" y="0" width="24" height="24"></rect>
                <path d="M12,2 L12,8.5 C12,9.32843 12.6716,10 13.5,10 L13.5,10 L20,10 L20,20 C20,21.1046 19.1046,22 18,22 L18,22 L6,22 C4.89543,22 4,21.1046 4,20 L4,20 L4,4 C4,2.89543 4.89543,2 6,2 L6,2 L12,2 Z M11.2071,12.1729 C10.8166,11.7824 10.1834,11.7824 9.79289,12.1729 L9.79289,12.1729 L7.67157,14.2942 C7.28105,14.6847 7.28105,15.3179 7.67157,15.7084 L7.67157,15.7084 L9.79289,17.8298 C10.1834,18.2203 10.8166,18.2203 11.2071,17.8298 C11.5976,17.4392 11.5976,16.8061 11.2071,16.4155 L11.2071,16.4155 L9.79289,15.0013 L11.2071,13.5871 C11.5976,13.1966 11.5976,12.5634 11.2071,12.1729 Z M14.2071,12.1729 C13.8166,11.7824 13.1834,11.7824 12.7929,12.1729 C12.4024,12.5634 12.4024,13.1966 12.7929,13.5871 L12.7929,13.5871 L14.2071,15.0013 L12.7929,16.4155 C12.4024,16.8061 12.4024,17.4392 12.7929,17.8298 C13.1834,18.2203 13.8166,18.2203 14.2071,17.8298 L14.2071,17.8298 L16.3284,15.7084 C16.719,15.3179 16.719,14.6847 16.3284,14.2942 L16.3284,14.2942 Z M14,2.04336 C14.3759,2.12295 14.7241,2.30991 15,2.58579 L15,2.58579 L19.4142,7 C19.6901,7.27588 19.8771,7.62406 19.9566,8 L19.9566,8 L14,8 Z" id="形状结合" fill="#09244B"></path>
            </g>
        </g>
    </g>
</svg>