<?xml version="1.0" encoding="UTF-8"?>
<svg width="24px" height="24px" viewBox="0 0 24 24" version="1.1" xmlns="http://www.w3.org/2000/svg" xmlns:xlink="http://www.w3.org/1999/xlink">
    <title>file_certificate_fill</title>
    <g id="页面-1" stroke="none" stroke-width="1" fill="none" fill-rule="evenodd">
        <g id="File" transform="translate(-528.000000, -240.000000)" fill-rule="nonzero">
            <g id="file_certificate_fill" transform="translate(528.000000, 240.000000)">
                <rect id="矩形" x="0" y="0" width="24" height="24"></rect>
                <path d="M12,2 L12,8.5 C12,9.32843 12.6716,10 13.5,10 L13.5,10 L20,10 L20,20 C20,21.1046 19.1046,22 18,22 L18,22 L10.8685,22 C10.9534,21.7492 11,21.4778 11,21.191 L11,21.191 L11,17.0001 C11.6267,16.1652 12,15.1254 12,14 C12,11.2386 9.76142,9 7,9 C5.87439,9 4.83566,9.37194 4,9.99963 L4,9.99963 L4,4 C4,2.89543 4.89543,2 6,2 L6,2 L12,2 Z M7,11 C8.65685,11 10,12.3431 10,14 C10,14.8885 9.61375,15.6868 9,16.2361 L9,21.191 C9,21.5627 8.60884,21.8044 8.27639,21.6382 L7,21 L5.72361,21.6382 C5.39116,21.8044 5,21.5627 5,21.191 L5,16.2361 C4.38625,15.6868 4,14.8885 4,14 C4,12.3431 5.34315,11 7,11 Z M14,2.04336 C14.3759,2.12295 14.7241,2.30991 15,2.58579 L15,2.58579 L19.4142,7 C19.6901,7.27588 19.8771,7.62406 19.9566,8 L19.9566,8 L14,8 Z" id="形状结合" fill="#09244B"></path>
            </g>
        </g>
    </g>
</svg>