<?xml version="1.0" encoding="UTF-8"?>
<svg width="24px" height="24px" viewBox="0 0 24 24" version="1.1" xmlns="http://www.w3.org/2000/svg" xmlns:xlink="http://www.w3.org/1999/xlink">
    <title>file_download_fill</title>
    <g id="页面-1" stroke="none" stroke-width="1" fill="none" fill-rule="evenodd">
        <g id="File" transform="translate(-144.000000, -144.000000)">
            <g id="file_download_fill" transform="translate(144.000000, 144.000000)">
                <rect id="矩形" fill-rule="nonzero" x="0" y="0" width="24" height="24"></rect>
                <path d="M12,2 L12,8.5 C12,9.32843 12.6716,10 13.5,10 L13.5,10 L20,10 L20,20 C20,21.1046 19.1046,22 18,22 L18,22 L6,22 C4.89543,22 4,21.1046 4,20 L4,20 L4,4 C4,2.89543 4.89543,2 6,2 L6,2 L12,2 Z M12,11 C11.4477,11 11,11.4477 11,12 L11,12 L11,14.7084 L10.5858,14.2942 C10.1953,13.9037 9.5621,13.9037 9.17157,14.2942 C8.78105,14.6847 8.78105,15.3179 9.17157,15.7084 L9.17157,15.7084 L11.2929,17.8298 C11.6834,18.2203 12.3166,18.2203 12.7071,17.8298 L12.7071,17.8298 L14.8284,15.7084 C15.219,15.3179 15.219,14.6847 14.8284,14.2942 C14.4379,13.9037 13.8047,13.9037 13.4142,14.2942 L13.4142,14.2942 L13,14.7084 L13,12 C13,11.4477 12.5523,11 12,11 Z M14,2.04336 C14.3759,2.12295 14.7241,2.30991 15,2.58579 L15,2.58579 L19.4142,7 C19.6901,7.27588 19.8771,7.62406 19.9566,8 L19.9566,8 L14,8 Z" id="形状结合" fill="#09244B"></path>
            </g>
        </g>
    </g>
</svg>