<?xml version="1.0" encoding="UTF-8"?>
<svg width="24px" height="24px" viewBox="0 0 24 24" version="1.1" xmlns="http://www.w3.org/2000/svg" xmlns:xlink="http://www.w3.org/1999/xlink">
    <title>file_upload_line</title>
    <g id="页面-1" stroke="none" stroke-width="1" fill="none" fill-rule="evenodd">
        <g id="File" transform="translate(-384.000000, -96.000000)" fill-rule="nonzero">
            <g id="file_upload_line" transform="translate(384.000000, 96.000000)">
                <rect id="矩形" x="0" y="0" width="24" height="24"></rect>
                <path d="M13.5858,2 C14.0572667,2 14.5115877,2.16648691 14.870172,2.46691468 L15,2.58579 L19.4142,7 C19.7476222,7.33339556 19.9511481,7.77238321 19.9922598,8.23835797 L20,8.41421 L20,20 C20,21.0543909 19.18415,21.9181678 18.1492661,21.9945144 L18,22 L6,22 C4.94563773,22 4.08183483,21.18415 4.00548573,20.1492661 L4,20 L4,4 C4,2.94563773 4.81587733,2.08183483 5.85073759,2.00548573 L6,2 L13.5858,2 Z M12,4 L6,4 L6,20 L18,20 L18,10 L13.5,10 C12.6716,10 12,9.32843 12,8.5 L12,4 Z M11.2929,11.1729 C11.6533615,10.8124385 12.2206207,10.7847107 12.6128973,11.0897166 L12.7071,11.1729 L14.8284,13.2942 C15.219,13.6847 15.219,14.3179 14.8284,14.7084 C14.4679385,15.0689538 13.9006793,15.0966888 13.5084027,14.7916047 L13.4142,14.7084 L13,14.2942 L13,17 C13,17.5523 12.5523,18 12,18 C11.48715,18 11.0644908,17.613973 11.0067275,17.1166239 L11,17 L11,14.2942 L10.5858,14.7084 C10.1953,15.099 9.5621,15.099 9.17157,14.7084 C8.81109,14.3479385 8.78336077,13.7806793 9.08838231,13.3884027 L9.17157,13.2942 L11.2929,11.1729 Z M14,4.41421 L14,8 L17.5858,8 L14,4.41421 Z" id="形状" fill="#09244B"></path>
            </g>
        </g>
    </g>
</svg>