<?xml version="1.0" encoding="UTF-8"?>
<svg width="24px" height="24px" viewBox="0 0 24 24" version="1.1" xmlns="http://www.w3.org/2000/svg" xmlns:xlink="http://www.w3.org/1999/xlink">
    <title>file_zip_line</title>
    <g id="页面-1" stroke="none" stroke-width="1" fill="none" fill-rule="evenodd">
        <g id="File" transform="translate(-768.000000, -96.000000)">
            <g id="file_zip_line" transform="translate(768.000000, 96.000000)">
                <rect id="矩形" fill-rule="nonzero" x="0" y="0" width="24" height="24"></rect>
                <path d="M13.5858,2 C14.0572667,2 14.5115877,2.16648691 14.870172,2.46691468 L15,2.58579 L19.4142,7 C19.7476222,7.33339556 19.9511481,7.77238321 19.9922598,8.23835797 L20,8.41421 L20,20 C20,21.0543909 19.18415,21.9181678 18.1492661,21.9945144 L18,22 L6,22 C4.94563773,22 4.08183483,21.18415 4.00548573,20.1492661 L4,20 L4,4 C4,2.94563773 4.81587733,2.08183483 5.85073759,2.00548573 L6,2 L13.5858,2 Z M13.5858,4 L6,4 L6,20 L9,20 L9,17.5 C9,16.7203294 9.59488554,16.0795543 10.3555395,16.0068668 L10.5,16 L13.5,16 C14.2796706,16 14.9204457,16.5949121 14.9931332,17.3555442 L15,17.5 L15,20 L18,20 L18,8.41421 L13.5858,4 Z M13,18 L11,18 L11,20 L13,20 L13,18 Z M11,13 C11.5523,13 12,13.4477 12,14 C12,14.5523 11.5523,15 11,15 L10,15 C9.44772,15 9,14.5523 9,14 C9,13.4477 9.44772,13 10,13 L11,13 Z M14,11 C14.5523,11 15,11.4477 15,12 C15,12.5523 14.5523,13 14,13 L13,13 C12.4477,13 12,12.5523 12,12 C12,11.4477 12.4477,11 13,11 L14,11 Z M11,9 C11.5523,9 12,9.44772 12,10 C12,10.51285 11.613973,10.9355092 11.1166239,10.9932725 L11,11 L10,11 C9.44772,11 9,10.5523 9,10 C9,9.48716857 9.38604429,9.06449347 9.88337975,9.0067278 L10,9 L11,9 Z M14,7 C14.5523,7 15,7.44772 15,8 C15,8.51283143 14.613973,8.93550653 14.1166239,8.9932722 L14,9 L13,9 C12.4477,9 12,8.55228 12,8 C12,7.48716857 12.386027,7.06449347 12.8833761,7.0067278 L13,7 L14,7 Z" id="形状" fill="#09244B"></path>
            </g>
        </g>
    </g>
</svg>