<?xml version="1.0" encoding="UTF-8"?>
<svg width="24px" height="24px" viewBox="0 0 24 24" version="1.1" xmlns="http://www.w3.org/2000/svg" xmlns:xlink="http://www.w3.org/1999/xlink">
    <title>file_zip_fill</title>
    <g id="页面-1" stroke="none" stroke-width="1" fill="none" fill-rule="evenodd">
        <g id="File" transform="translate(-768.000000, -144.000000)">
            <g id="file_zip_fill" transform="translate(768.000000, 144.000000)">
                <rect id="矩形" fill-rule="nonzero" x="0" y="0" width="24" height="24"></rect>
                <path d="M13.5858,2 C14.0572667,2 14.5115877,2.16648691 14.870172,2.46691468 L15,2.58579 L19.4142,7 C19.7476222,7.33339556 19.9511481,7.77238321 19.9922598,8.23835797 L20,8.41421 L20,20 C20,21.0543909 19.18415,21.9181678 18.1492661,21.9945144 L18,22 L15,22 L15,18.5 C15,17.7203294 14.4050879,17.0795543 13.6444558,17.0068668 L13.5,17 L10.5,17 C9.72030118,17 9.079551,17.5949121 9.00686655,18.3555442 L9,18.5 L9,22 L6,22 C4.94563773,22 4.08183483,21.18415 4.00548573,20.1492661 L4,20 L4,4 C4,2.94563773 4.81587733,2.08183483 5.85073759,2.00548573 L6,2 L13.5858,2 Z M13,19 L13,22 L11,22 L11,19 L13,19 Z M11,13 L10,13 C9.44772,13 9,13.4477 9,14 C9,14.51285 9.38604429,14.9355092 9.88337975,14.9932725 L10,15 L11,15 C11.5523,15 12,14.5523 12,14 C12,13.48715 11.613973,13.0644908 11.1166239,13.0067275 L11,13 Z M14,11 L13,11 C12.4477,11 12,11.4477 12,12 C12,12.51285 12.386027,12.9355092 12.8833761,12.9932725 L13,13 L14,13 C14.5523,13 15,12.5523 15,12 C15,11.48715 14.613973,11.0644908 14.1166239,11.0067275 L14,11 Z M11,9 L10,9 C9.44772,9 9,9.44772 9,10 C9,10.5523 9.44772,11 10,11 L11,11 C11.5523,11 12,10.5523 12,10 C12,9.44772 11.5523,9 11,9 Z M14,7 L13,7 C12.4477,7 12,7.44772 12,8 C12,8.55228 12.4477,9 13,9 L14,9 C14.5523,9 15,8.55228 15,8 C15,7.44772 14.5523,7 14,7 Z" id="形状" fill="#09244B"></path>
            </g>
        </g>
    </g>
</svg>