<?xml version="1.0" encoding="UTF-8"?>
<svg width="24px" height="24px" viewBox="0 0 24 24" version="1.1" xmlns="http://www.w3.org/2000/svg" xmlns:xlink="http://www.w3.org/1999/xlink">
    <title>file_check_line</title>
    <g id="页面-1" stroke="none" stroke-width="1" fill="none" fill-rule="evenodd">
        <g id="File" transform="translate(-576.000000, -192.000000)" fill-rule="nonzero">
            <g id="file_check_line" transform="translate(576.000000, 192.000000)">
                <rect id="矩形" x="0" y="0" width="24" height="24"></rect>
                <path d="M13.5858,2 C14.1162,2 14.6249,2.21071 15,2.58579 L19.4142,7 C19.7893,7.37507 20,7.88378 20,8.41421 L20,20 C20,21.1046 19.1046,22 18,22 L6,22 C4.89543,22 4,21.1046 4,20 L4,4 C4,2.89543 4.89543,2 6,2 L13.5858,2 Z M12,4 L6,4 L6,20 L18,20 L18,10 L13.5,10 C12.6716,10 12,9.32843 12,8.5 L12,8.5 L12,4 Z M13.5909,12.6571 C13.9814,12.2666 14.6146,12.2666 15.0051,12.6571 C15.3956,13.0476 15.3956,13.6808 15.0051,14.0713 L15.0051,14.0713 L11.8938,17.1826 C11.4643,17.6122 10.7678,17.6122 10.3382,17.1826 L10.3382,17.1826 L8.9947,15.8391 C8.60418,15.4486 8.60418,14.8154 8.9947,14.4249 C9.38523,14.0344 10.0184,14.0344 10.4089,14.4249 L10.4089,14.4249 L11.116,15.132 Z M14,4.41421 L14,8 L17.5858,8 L14,4.41421 Z" id="形状结合" fill="#09244B"></path>
            </g>
        </g>
    </g>
</svg>