<?xml version="1.0" encoding="UTF-8"?>
<svg width="24px" height="24px" viewBox="0 0 24 24" version="1.1" xmlns="http://www.w3.org/2000/svg" xmlns:xlink="http://www.w3.org/1999/xlink">
    <title>file_star_fill</title>
    <g id="页面-1" stroke="none" stroke-width="1" fill="none" fill-rule="evenodd">
        <g id="File" transform="translate(-816.000000, -240.000000)">
            <g id="file_star_fill" transform="translate(816.000000, 240.000000)">
                <rect id="矩形" fill-rule="nonzero" x="0" y="0" width="24" height="24"></rect>
                <path d="M12,2 L12,8.5 C12,9.32843 12.6716,10 13.5,10 L20,10 L20,20 C20,21.1046 19.1046,22 18,22 L6,22 C4.89543,22 4,21.1046 4,20 L4,4 C4,2.89543 4.89543,2 6,2 L12,2 Z M11.6543,11.6987 L10.7599,13.2343 L9.02313,13.6104 C8.72351,13.6753 8.60525,14.0392 8.80951,14.2678 L9.99356,15.593 L9.81454,17.361 C9.78366,17.666 10.0933,17.891 10.3738,17.7673 L12,17.0507 L13.6262,17.7673 C13.9067,17.891 14.2163,17.666 14.1854,17.361 L14.0064,15.593 L15.1905,14.2678 C15.3947,14.0392 15.2765,13.6753 14.9769,13.6104 L13.24,13.2343 L12.3456,11.6987 C12.1913,11.4338 11.8086,11.4338 11.6543,11.6987 Z M14,2.04336 C14.3759,2.12295 14.7241,2.30991 15,2.58579 L19.4142,7 C19.6901,7.27588 19.8771,7.62406 19.9566,8 L14,8 L14,2.04336 Z" id="形状结合" fill="#09244B"></path>
            </g>
        </g>
    </g>
</svg>