<?xml version="1.0" encoding="UTF-8"?>
<svg width="24px" height="24px" viewBox="0 0 24 24" version="1.1" xmlns="http://www.w3.org/2000/svg" xmlns:xlink="http://www.w3.org/1999/xlink">
    <title>file_music_fill</title>
    <g id="页面-1" stroke="none" stroke-width="1" fill="none" fill-rule="evenodd">
        <g id="File" transform="translate(-288.000000, -144.000000)">
            <g id="file_music_fill" transform="translate(288.000000, 144.000000)">
                <rect id="矩形" fill-rule="nonzero" x="0" y="0" width="24" height="24"></rect>
                <path d="M12,2 L12,8.5 C12,9.27969882 12.5949121,9.920449 13.3555442,9.99313345 L13.5,10 L20,10 L20,20 C20,21.0543909 19.18415,21.9181678 18.1492661,21.9945144 L18,22 L6,22 C4.94563773,22 4.08183483,21.18415 4.00548573,20.1492661 L4,20 L4,4 C4,2.94563773 4.81587733,2.08183483 5.85073759,2.00548573 L6,2 L12,2 Z M14.4487,11.6838 C14.2864786,11.1972286 13.786602,10.9183719 13.2965551,11.0208123 L13.1838,11.0513 L12.0257,11.4374 C11.4568571,11.6269214 11.0600321,12.1346974 11.0062451,12.7232535 L11,12.8604 L11,14 C9.89543,14 9,14.8954 9,16 C9,17.1046 9.89543,18 11,18 C12.0543909,18 12.9181678,17.18415 12.9945144,16.1492661 L13,16 L13,13.2208 L13.8162,12.9487 C14.3402,12.774 14.6233,12.2077 14.4487,11.6838 Z M14,2.04336 C14.3222,2.11158 14.624049,2.25868408 14.8774606,2.47305359 L15,2.58579 L19.4142,7 C19.6506857,7.23646857 19.8218571,7.52605551 19.9160012,7.8407123 L19.9566,8 L14,8 L14,2.04336 Z" id="形状" fill="#09244B"></path>
            </g>
        </g>
    </g>
</svg>