<?xml version="1.0" encoding="UTF-8"?>
<svg width="24px" height="24px" viewBox="0 0 24 24" version="1.1" xmlns="http://www.w3.org/2000/svg" xmlns:xlink="http://www.w3.org/1999/xlink">
    <title>file_download_line</title>
    <g id="页面-1" stroke="none" stroke-width="1" fill="none" fill-rule="evenodd">
        <g id="File" transform="translate(-144.000000, -96.000000)" fill-rule="nonzero">
            <g id="file_download_line" transform="translate(144.000000, 96.000000)">
                <rect id="矩形" x="0" y="0" width="24" height="24"></rect>
                <path d="M13.5858,2 C14.0572667,2 14.5115877,2.16648691 14.870172,2.46691468 L15,2.58579 L19.4142,7 C19.7476222,7.33339556 19.9511481,7.77238321 19.9922598,8.23835797 L20,8.41421 L20,20 C20,21.0543909 19.18415,21.9181678 18.1492661,21.9945144 L18,22 L6,22 C4.94563773,22 4.08183483,21.18415 4.00548573,20.1492661 L4,20 L4,4 C4,2.94563773 4.81587733,2.08183483 5.85073759,2.00548573 L6,2 L13.5858,2 Z M12,4 L6,4 L6,20 L18,20 L18,10 L13.5,10 C12.6716,10 12,9.32843 12,8.5 L12,4 Z M12,11 C12.5523,11 13,11.4477 13,12 L13,14.7084 L13.4142,14.2942 C13.8047,13.9037 14.4379,13.9037 14.8284,14.2942 C15.219,14.6847 15.219,15.3179 14.8284,15.7084 L12.7071,17.8298 C12.3166,18.2203 11.6834,18.2203 11.2929,17.8298 L9.17157,15.7084 C8.78105,15.3179 8.78105,14.6847 9.17157,14.2942 C9.5621,13.9037 10.1953,13.9037 10.5858,14.2942 L11,14.7084 L11,12 C11,11.4477 11.4477,11 12,11 Z M14,4.41421 L14,8 L17.5858,8 L14,4.41421 Z" id="形状" fill="#09244B"></path>
            </g>
        </g>
    </g>
</svg>