<?xml version="1.0" encoding="UTF-8"?>
<svg width="24px" height="24px" viewBox="0 0 24 24" version="1.1" xmlns="http://www.w3.org/2000/svg" xmlns:xlink="http://www.w3.org/1999/xlink">
    <title>file_certificate _line</title>
    <g id="页面-1" stroke="none" stroke-width="1" fill="none" fill-rule="evenodd">
        <g id="File" transform="translate(-528.000000, -192.000000)">
            <g id="file_certificate-_line" transform="translate(528.000000, 192.000000)">
                <rect id="矩形" fill-rule="nonzero" x="0" y="0" width="24" height="24"></rect>
                <path d="M13.5858,2 C14.1162,2 14.6249,2.21071 15,2.58579 L19.4142,7 C19.7893,7.37507 20,7.88378 20,8.41421 L20,20 C20,21.1046 19.1046,22 18,22 L13,22 C12.4477,22 12,21.5523 12,21 C12,20.4477 12.4477,20 13,20 L18,20 L18,10 L13.5,10 C12.6716,10 12,9.32843 12,8.5 L12,4 L6,4 L6,8 C6,8.55228 5.55228,9 5,9 C4.44772,9 4,8.55228 4,8 L4,4 C4,2.89543 4.89543,2 6,2 L13.5858,2 Z M7,10 C9.20914,10 11,11.7909 11,14 C11,15.0144 10.6224,15.9407 10,16.6458 L10,20.8382 C10,21.6559 9.13946,22.1878 8.40806,21.8221 L7,21.118 L5.59193,21.8221 C4.86054,22.1878 4,21.6559 4,20.8382 L4,16.6458 C3.37764,15.9407 3,15.0144 3,14 C3,11.7909 4.79086,10 7,10 Z M8,17.874 C7.68038,17.9562 7.3453,18 7,18 C6.6547,18 6.31962,17.9562 6,17.874 L6,19.382 L6.55279,19.1056 C6.83431,18.9648 7.16569,18.9648 7.44721,19.1056 L8,19.382 L8,17.874 Z M7,12 C5.89543,12 5,12.8954 5,14 C5,15.1046 5.89543,16 7,16 C8.10457,16 9,15.1046 9,14 C9,12.8954 8.10457,12 7,12 Z M14,4.41421 L14,8 L17.5858,8 L14,4.41421 Z" id="形状结合" fill="#09244B"></path>
            </g>
        </g>
    </g>
</svg>