<?xml version="1.0" encoding="UTF-8"?>
<svg width="24px" height="24px" viewBox="0 0 24 24" version="1.1" xmlns="http://www.w3.org/2000/svg" xmlns:xlink="http://www.w3.org/1999/xlink">
    <title>file_import_fill</title>
    <g id="页面-1" stroke="none" stroke-width="1" fill="none" fill-rule="evenodd">
        <g id="File" transform="translate(-240.000000, -144.000000)" fill-rule="nonzero">
            <g id="file_import_fill" transform="translate(240.000000, 144.000000)">
                <rect id="矩形" x="0" y="0" width="24" height="24"></rect>
                <path d="M12,2 L12,8.5 C12,9.32843 12.6716,10 13.5,10 L20,10 L20,20 C20,21.1046 19.1046,22 18,22 L6,22 C4.89543,22 4,21.1046 4,20 L4,19 L7.41416,19 L6.29284,20.1213 C5.90231,20.5118 5.90231,21.145 6.29284,21.5355 C6.68336,21.9261 7.31652,21.9261 7.70705,21.5355 L10.5355,18.7071 C10.926,18.3166 10.926,17.6834 10.5355,17.2929 L7.70705,14.4645 C7.31652,14.0739 6.68336,14.0739 6.29284,14.4645 C5.90231,14.855 5.90231,15.4882 6.29284,15.8787 L7.41416,17 L4,17 L4,4 C4,2.89543 4.89543,2 6,2 L12,2 Z M4,17 L4,19 L3,19 C2.44772,19 2,18.5523 2,18 C2,17.4477 2.44772,17 3,17 L4,17 Z M14,2.04336 C14.3759,2.12295 14.7241,2.30991 15,2.58579 L19.4142,7 C19.6901,7.27588 19.8771,7.62406 19.9566,8 L14,8 L14,2.04336 Z" id="形状" fill="#09244B"></path>
            </g>
        </g>
    </g>
</svg>