<?xml version="1.0" encoding="UTF-8"?>
<svg width="24px" height="24px" viewBox="0 0 24 24" version="1.1" xmlns="http://www.w3.org/2000/svg" xmlns:xlink="http://www.w3.org/1999/xlink">
    <title>file_search_fill</title>
    <g id="页面-1" stroke="none" stroke-width="1" fill="none" fill-rule="evenodd">
        <g id="File" transform="translate(-768.000000, -240.000000)" fill-rule="nonzero">
            <g id="file_search_fill" transform="translate(768.000000, 240.000000)">
                <rect id="矩形" x="0" y="0" width="24" height="24"></rect>
                <path d="M12,2 L12,8.5 C12,9.32843 12.6716,10 13.5,10 L13.5,10 L20,10 L20,20 C20,21.1046 19.1046,22 18,22 L18,22 L6,22 C4.89543,22 4,21.1046 4,20 L4,20 L4,4 C4,2.89543 4.89543,2 6,2 L6,2 L12,2 Z M12,12 C10.3431,12 9,13.3431 9,15 C9,16.6569 10.3431,18 12,18 C12.4631,18 12.9018,17.8951 13.2934,17.7076 L13.2934,17.7076 L14,18.4143 C14.3905,18.8048 15.0237,18.8048 15.4142,18.4143 C15.8047,18.0238 15.8048,17.3906 15.4142,17.0001 L15.4142,17.0001 L14.7076,16.2934 C14.895,15.9018 15,15.4632 15,15 C15,13.3431 13.6569,12 12,12 Z M12,14 C12.5523,14 13,14.4477 13,15 C13,15.5523 12.5523,16 12,16 C11.4477,16 11,15.5523 11,15 C11,14.4477 11.4477,14 12,14 Z M14,2.04336 C14.3759,2.12295 14.7241,2.30991 15,2.58579 L15,2.58579 L19.4142,7 C19.6901,7.27588 19.8771,7.62406 19.9566,8 L19.9566,8 L14,8 Z" id="形状结合" fill="#09244B"></path>
            </g>
        </g>
    </g>
</svg>