<?xml version="1.0" encoding="UTF-8"?>
<svg width="24px" height="24px" viewBox="0 0 24 24" version="1.1" xmlns="http://www.w3.org/2000/svg" xmlns:xlink="http://www.w3.org/1999/xlink">
    <title>file_unknown_line</title>
    <g id="页面-1" stroke="none" stroke-width="1" fill="none" fill-rule="evenodd">
        <g id="File" transform="translate(-864.000000, -192.000000)" fill-rule="nonzero">
            <g id="file_unknown_line" transform="translate(864.000000, 192.000000)">
                <rect id="矩形" x="0" y="0" width="24" height="24"></rect>
                <path d="M13.5858,2 C14.1162,2 14.6249,2.21071 15,2.58579 L19.4142,7 C19.7893,7.37507 20,7.88378 20,8.41421 L20,20 C20,21.1046 19.1046,22 18,22 L6,22 C4.89543,22 4,21.1046 4,20 L4,4 C4,2.89543 4.89543,2 6,2 L13.5858,2 Z M12,4 L6,4 L6,20 L18,20 L18,10 L13.5,10 C12.6716,10 12,9.32843 12,8.5 L12,8.5 L12,4 Z M12,17 C12.5523,17 13,17.4477 13,18 C13,18.5523 12.5523,19 12,19 C11.4477,19 11,18.5523 11,18 C11,17.4477 11.4477,17 12,17 Z M12,11 C13.3807,11 14.5,12.1193 14.5,13.5 C14.5,14.2976 14.1254,15.0083 13.5464,15.4644 C13.4521,15.5387 13.3543,15.6209 13.2543,15.705 C12.8466,16.0478 12.4015,16.4219 12,16.4219 C11.375,16.4219 11.1406,15.9324 11.1406,15.5781 C11.1406,15.2239 11.351,14.844 11.5252,14.6297 C11.7792,14.3172 12.0896,14.0661 12.3087,13.8934 C12.427,13.8002 12.5,13.6589 12.5,13.5 C12.5,13.2239 12.2761,13 12,13 C11.7239,13 11.5,13.2239 11.5,13.5 C11.5,14.0523 11.0523,14.5 10.5,14.5 C9.94772,14.5 9.5,14.0523 9.5,13.5 C9.5,12.1193 10.6193,11 12,11 Z M14,4.41421 L14,8 L17.5858,8 L14,4.41421 Z" id="形状结合" fill="#09244B"></path>
            </g>
        </g>
    </g>
</svg>