<?xml version="1.0" encoding="UTF-8"?>
<svg width="24px" height="24px" viewBox="0 0 24 24" version="1.1" xmlns="http://www.w3.org/2000/svg" xmlns:xlink="http://www.w3.org/1999/xlink">
    <title>file_locked_fill</title>
    <g id="页面-1" stroke="none" stroke-width="1" fill="none" fill-rule="evenodd">
        <g id="File" transform="translate(-528.000000, -336.000000)" fill-rule="nonzero">
            <g id="file_locked_fill" transform="translate(528.000000, 336.000000)">
                 <path d="M24,0 L24,24 L0,24 L0,0 L24,0 Z M12.5934901,23.257841 L12.5819402,23.2595131 L12.5108777,23.2950439 L12.4918791,23.2987469 L12.4918791,23.2987469 L12.4767152,23.2950439 L12.4056548,23.2595131 C12.3958229,23.2563662 12.3870493,23.2590235 12.3821421,23.2649074 L12.3780323,23.275831 L12.360941,23.7031097 L12.3658947,23.7234994 L12.3769048,23.7357139 L12.4804777,23.8096931 L12.4953491,23.8136134 L12.4953491,23.8136134 L12.5071152,23.8096931 L12.6106902,23.7357139 L12.6232938,23.7196733 L12.6232938,23.7196733 L12.6266527,23.7031097 L12.609561,23.275831 C12.6075724,23.2657013 12.6010112,23.2592993 12.5934901,23.257841 L12.5934901,23.257841 Z M12.8583906,23.1452862 L12.8445485,23.1473072 L12.6598443,23.2396597 L12.6498822,23.2499052 L12.6498822,23.2499052 L12.6471943,23.2611114 L12.6650943,23.6906389 L12.6699349,23.7034178 L12.6699349,23.7034178 L12.678386,23.7104931 L12.8793402,23.8032389 C12.8914285,23.8068999 12.9022333,23.8029875 12.9078286,23.7952264 L12.9118235,23.7811639 L12.8776777,23.1665331 C12.8752882,23.1545897 12.8674102,23.1470016 12.8583906,23.1452862 L12.8583906,23.1452862 Z M12.1430473,23.1473072 C12.1332178,23.1423925 12.1221763,23.1452606 12.1156365,23.1525954 L12.1099173,23.1665331 L12.0757714,23.7811639 C12.0751323,23.7926639 12.0828099,23.8018602 12.0926481,23.8045676 L12.108256,23.8032389 L12.3092106,23.7104931 L12.3186497,23.7024347 L12.3186497,23.7024347 L12.3225043,23.6906389 L12.340401,23.2611114 L12.337245,23.2485176 L12.337245,23.2485176 L12.3277531,23.2396597 L12.1430473,23.1473072 Z" id="MingCute" fill-rule="nonzero"></path>
                <path d="M12,2 L12,8.5 C12,9.27969882 12.5949121,9.920449 13.3555442,9.99313345 L13.5,10 L20,10 L20,11.7578 C19.285,11.2791 18.4251,11 17.5,11 C15.2868,11 13.4467,12.5978 13.0704,14.7028 C12.4662462,15.2107692 12.0653964,15.9527172 12.0073021,16.7890352 L12,17 L12,21 C12,21.28048 12.038528,21.552 12.1105152,21.8095424 L12.1707,22 L6,22 C4.94563773,22 4.08183483,21.18415 4.00548573,20.1492661 L4,20 L4,4 C4,2.94563773 4.81587733,2.08183483 5.85073759,2.00548573 L6,2 L12,2 Z M17.5,13 C18.825472,13 19.9100378,14.0315469 19.9946823,15.3356256 L20,15.5 L20,16 C20.51285,16 20.9355092,16.386027 20.9932725,16.8833761 L21,17 L21,21 C21,21.51285 20.613973,21.9355092 20.1166239,21.9932725 L20,22 L15,22 C14.48715,22 14.0644908,21.613973 14.0067275,21.1166239 L14,21 L14,17 C14,16.48715 14.386027,16.0644908 14.8833761,16.0067275 L15,16 L15,15.5 C15,14.1193 16.1193,13 17.5,13 Z M17.5,15 C17.2239,15 17,15.2239 17,15.5 L17,16 L18,16 L18,15.5 C18,15.2239 17.7761,15 17.5,15 Z M14,2.04336 C14.3222,2.11158 14.624049,2.25868408 14.8774606,2.47305359 L15,2.58579 L19.4142,7 C19.6506857,7.23646857 19.8218571,7.52605551 19.9160012,7.8407123 L19.9566,8 L14,8 L14,2.04336 Z" id="形状" fill="#09244B"></path>
            </g>
        </g>
    </g>
</svg>