<svg width="24" height="24" viewBox="0 0 24 24" fill="none" xmlns="http://www.w3.org/2000/svg">
<rect width="24" height="24" fill="white" fill-opacity="0.01"/>
<path d="M4 3C2.89543 3 2 3.89543 2 5V16.3714L3.87055 10.1378C4.25129 8.86891 5.41921 8 6.74397 8H21V7.5C21 6.39543 20.1046 5.5 19 5.5H12.4806L11.0811 3.75061C10.7016 3.27618 10.1269 3 9.51938 3H4Z" fill="#09244B"/>
<path d="M4 21H17.9589C18.4006 21 18.79 20.7102 18.9168 20.2871L21.8071 10.6435C21.9032 10.3228 21.663 10 21.3282 10H6.74397C6.30238 10 5.91308 10.2896 5.78616 10.7126L2.89236 20.3563C2.85963 20.4654 2.8658 20.5747 2.90138 20.6715C3.21668 20.8792 3.59423 21 4 21Z" fill="#09244B"/>
</svg>
