<?xml version="1.0" encoding="UTF-8"?>
<svg width="24px" height="24px" viewBox="0 0 24 24" version="1.1" xmlns="http://www.w3.org/2000/svg" xmlns:xlink="http://www.w3.org/1999/xlink">
    <title>folder_open_line</title>
    <g id="页面-1" stroke="none" stroke-width="1" fill="none" fill-rule="evenodd">
        <g id="folder_open_line">
            <rect id="矩形" fill-opacity="0.01" fill="#FFFFFF" fill-rule="nonzero" x="0" y="0" width="24" height="24"></rect>
            <path d="M9.51938,3 C10.066148,3 10.5863318,3.2237058 10.9615564,3.61430643 L11.0811,3.75061 L12.4806,5.5 L19,5.5 C20.0543909,5.5 20.9181678,6.31587733 20.9945144,7.35073759 L21,7.5 L21,9.02907 C22.1062042,9.21881042 22.8580885,10.3078968 22.6098093,11.4284357 L22.5717,11.5747 L20.1717,19.5747 C19.9337625,20.367825 19.2344871,20.9265457 18.4202728,20.9932876 L18.256,21 L4,21 C2.94563773,21 2.08183483,20.18415 2.00548573,19.1492661 L2,19 L2,5 C2,3.94563773 2.81587733,3.08183483 3.85073759,3.00548573 L4,3 L9.51938,3 Z M20.656,11 L6.74408,11 L4.34408,19 L18.256,19 L20.656,11 Z M9.51938,5 L4,5 L4,13.1867 L4.82843,10.4253 C5.08222,9.57934 5.86087,9 6.74408,9 L19,9 L19,7.5 L12.4806,7.5 C11.8731,7.5 11.2984,7.22382 10.9189,6.74939 L9.51938,5 Z" id="形状" fill="#09244B"></path>
        </g>
    </g>
</svg>