<?xml version="1.0" encoding="UTF-8"?>
<svg width="24px" height="24px" viewBox="0 0 24 24" version="1.1" xmlns="http://www.w3.org/2000/svg" xmlns:xlink="http://www.w3.org/1999/xlink">
    <title>inbox_2_fill</title>
    <g id="页面-1" stroke="none" stroke-width="1" fill="none" fill-rule="evenodd">
        <g id="File" transform="translate(-192.000000, -240.000000)">
            <g id="inbox_2_fill" transform="translate(192.000000, 240.000000)">
                <rect id="矩形" fill-rule="nonzero" x="0" y="0" width="24" height="24"></rect>
                <path d="M3,6 C3,4.34315 4.34315,3 6,3 L18,3 C19.6569,3 21,4.34315 21,6 L21,18 C21,19.6569 19.6569,21 18,21 L6,21 C4.34315,21 3,19.6569 3,18 L3,6 Z M14,14 C14,13.4477 14.4477,13 15,13 L19,13 L19,6 C19,5.44772 18.5523,5 18,5 L6,5 C5.44772,5 5,5.44772 5,6 L5,13 L9,13 C9.55228,13 10,13.4477 10,14 C10,15.1046 10.8954,16 12,16 C13.1046,16 14,15.1046 14,14 Z" id="形状" fill="#09244B"></path>
            </g>
        </g>
    </g>
</svg>