<svg width="24" height="24" viewBox="0 0 24 24" fill="none" xmlns="http://www.w3.org/2000/svg">
<rect width="24" height="24" fill="white" fill-opacity="0.01"/>
<path fill-rule="evenodd" clip-rule="evenodd" d="M5.82918 5.10557C6.16796 4.428 6.86049 4 7.61803 4H16.382C17.1395 4 17.832 4.428 18.1708 5.10557L21.6833 12.1305C21.8916 12.5471 22 13.0064 22 13.4721V19C22 20.1046 21.1046 21 20 21H4C2.89543 21 2 20.1046 2 19V13.4721C2 13.0064 2.10844 12.5471 2.31672 12.1305L5.82918 5.10557ZM16.382 6H7.61803L4.12 13H7.5C8.32843 13 9 13.6716 9 14.5V15.5C9 15.7761 9.22386 16 9.5 16H14.5C14.7761 16 15 15.7761 15 15.5V14.5C15 13.6716 15.6716 13 16.5 13H19.88L16.382 6Z" fill="#09244B"/>
</svg>
