<?xml version="1.0" encoding="UTF-8"?>
<svg width="24px" height="24px" viewBox="0 0 24 24" version="1.1" xmlns="http://www.w3.org/2000/svg" xmlns:xlink="http://www.w3.org/1999/xlink">
    <title>inbox_line</title>
    <g id="页面-1" stroke="none" stroke-width="1" fill="none" fill-rule="evenodd">
        <g id="inbox_line">
            <rect id="矩形" fill-opacity="0.01" fill="#FFFFFF" fill-rule="nonzero" x="0" y="0" width="24" height="24"></rect>
            <path d="M16.382,4 C17.0853929,4 17.7327398,4.36904082 18.0928914,4.9642614 L18.1708,5.10557 L21.6833,12.1305 C21.8568833,12.4776667 21.9610917,12.8544861 21.991006,13.2399514 L22,13.4721 L22,19 C22,20.0543909 21.18415,20.9181678 20.1492661,20.9945144 L20,21 L4,21 C2.94563773,21 2.08183483,20.18415 2.00548573,19.1492661 L2,19 L2,13.4721 C2,13.0840167 2.07530556,12.7003778 2.22093981,12.3421903 L2.31672,12.1305 L5.82918,5.10557 C6.14376143,4.47639786 6.76336199,4.06241617 7.45680028,4.00648599 L7.61803,4 L16.382,4 Z M8,14 L4,14 L4,19 L20,19 L20,14 L16,14 L16,14.5 C16,15.3284 15.3284,16 14.5,16 L9.5,16 C8.67157,16 8,15.3284 8,14.5 L8,14 Z M16.382,6 L7.61803,6 L4.61803,12 L8.5,12 C9.27969882,12 9.920449,12.5949121 9.99313345,13.3555442 L10,13.5 L10,14 L14,14 L14,13.5 C14,12.7203294 14.5949121,12.0795543 15.3555442,12.0068668 L15.5,12 L19.382,12 L16.382,6 Z" id="形状" fill="#09244B"></path>
        </g>
    </g>
</svg>