<?xml version="1.0" encoding="UTF-8"?>
<svg width="24px" height="24px" viewBox="0 0 24 24" version="1.1" xmlns="http://www.w3.org/2000/svg" xmlns:xlink="http://www.w3.org/1999/xlink">
    <title>inventory_fill</title>
    <g id="Icon" stroke="none" stroke-width="1" fill="none" fill-rule="evenodd">
        <g id="File" transform="translate(-528.000000, -432.000000)">
            <g id="inventory_fill" transform="translate(528.000000, 432.000000)">
                <path d="M24,0 L24,24 L0,24 L0,0 L24,0 Z M12.5935,23.2578 L12.5819,23.2595 L12.5109,23.295 L12.4919,23.2987 L12.4767,23.295 L12.4057,23.2595 C12.3958,23.2564 12.387,23.259 12.3821,23.2649 L12.378,23.2758 L12.3609,23.7031 L12.3659,23.7235 L12.3769,23.7357 L12.4805,23.8097 L12.4953,23.8136 L12.5071,23.8097 L12.6107,23.7357 L12.6233,23.7197 L12.6267,23.7031 L12.6096,23.2758 C12.6076,23.2657 12.601,23.2593 12.5935,23.2578 Z M12.8584,23.1453 L12.8445,23.1473 L12.6598,23.2397 L12.6499,23.2499 L12.6472,23.2611 L12.6651,23.6906 L12.6699,23.7034 L12.6784,23.7105 L12.8793,23.8032 C12.8914,23.8069 12.9022,23.803 12.9078,23.7952 L12.9118,23.7812 L12.8777,23.1665 C12.8753,23.1546 12.8674,23.147 12.8584,23.1453 Z M12.143,23.1473 C12.1332,23.1424 12.1222,23.1453 12.1156,23.1526 L12.1099,23.1665 L12.0758,23.7812 C12.0751,23.7927 12.0828,23.8019 12.0926,23.8046 L12.1083,23.8032 L12.3092,23.7105 L12.3186,23.7024 L12.3225,23.6906 L12.3404,23.2611 L12.3372,23.2485 L12.3278,23.2397 L12.143,23.1473 Z" id="MingCute" fill-rule="nonzero"></path>
                <polygon id="路径" fill="#09244B" fill-rule="nonzero" points="9 15 9 14 10 14 10 15"></polygon>
                <path d="M18,2 C19.1046,2 20,2.89543 20,4 L20,20 C20,21.1046 19.1046,22 18,22 L6,22 C4.89543,22 4,21.1046 4,20 L4,4 C4,2.89543 4.89543,2 6,2 L18,2 Z M10.5,12 L8.5,12 C7.67157,12 7,12.6716 7,13.5 L7,15.5 C7,16.3284 7.67157,17 8.5,17 L10.5,17 C11.3284,17 12,16.3284 12,15.5 L12,13.5 C12,12.6716 11.3284,12 10.5,12 Z M15.9999,13.5 L13.9999,13.5 C13.4477,13.5 12.9999,13.9477 12.9999,14.5 C12.9999,15.01285 13.3860133,15.4355092 13.8832945,15.4932725 L13.9999,15.5 L15.9999,15.5 C16.5522,15.5 16.9999,15.0523 16.9999,14.5 C16.9999,13.98715 16.613873,13.5644908 16.1165239,13.5067275 L15.9999,13.5 Z M10.1339,6.76261 L8.71963,8.17682 L8.36607,7.82326 C7.97555,7.43273 7.34238,7.43273 6.95186,7.82326 C6.56134,8.21378 6.56134,8.84695 6.95186,9.23747 L7.83574,10.1214 C8.3239,10.6095 9.11535,10.6095 9.6035,10.1214 L11.5481,8.17684 C11.9386,7.78632 11.9386,7.15316 11.5481,6.76263 C11.1576,6.3721 10.5244,6.37209 10.1339,6.76261 Z M15.9999,8.00012 L13.9999,8.00012 C13.4477,8.00012 12.9999,8.44784 12.9999,9.00012 C12.9999,9.51296071 13.3860133,9.93561061 13.8832945,9.99337263 L13.9999,10.0001 L15.9999,10.0001 C16.5522,10.0001 16.9999,9.55241 16.9999,9.00012 C16.9999,8.48728857 16.613873,8.06461347 16.1165239,8.0068478 L15.9999,8.00012 Z" id="形状" fill="#09244B"></path>
            </g>
        </g>
    </g>
</svg>