<?xml version="1.0" encoding="UTF-8"?>
<svg width="24px" height="24px" viewBox="0 0 24 24" version="1.1" xmlns="http://www.w3.org/2000/svg" xmlns:xlink="http://www.w3.org/1999/xlink">
    <title>link_line</title>
    <g id="页面-1" stroke="none" stroke-width="1" fill="none" fill-rule="evenodd">
        <g id="File" transform="translate(-720.000000, 0.000000)" fill-rule="nonzero">
            <g id="link_line" transform="translate(720.000000, 0.000000)">
                <rect id="矩形" x="0" y="0" width="24" height="24"></rect>
                <path d="M10.232,10.2313 C12.1255273,8.33780182 15.1597473,8.28042309 17.1223163,10.0591638 L17.3031,10.2313 L20.1315,13.0597 C22.0842,15.0123 22.0842,18.1781 20.1315,20.1307 C18.2380697,22.0242273 15.2038526,22.0816069 13.2412837,20.3028388 L13.0605,20.1307 L10.9392,18.0094 C10.5486,17.6189 10.5486,16.9857 10.9392,16.5952 C11.2996615,16.2347385 11.8668355,16.2070107 12.2591776,16.5120166 L12.3534,16.5952 L14.4747,18.7165 C15.6463,19.8881 17.5458,19.8881 18.7173,18.7165 C19.842036,17.59186 19.8870254,15.7962952 18.8522683,14.6178927 L18.7173,14.4739 L15.8889,11.6455 C14.7173,10.4739 12.8179,10.4739 11.6464,11.6455 C11.2558,12.036 10.6227,12.036 10.2321,11.6455 C9.84163,11.255 9.84157,10.6218 10.232,10.2313 Z M3.86803,3.8673 C5.7614797,1.9738503 8.79572557,1.91647304 10.7583144,3.69516821 L10.9391,3.8673 L13.0604,5.98862 C13.4509,6.37914 13.4509,7.01231 13.0604,7.402835 C12.6999385,7.76331962 12.1326793,7.7910492 11.7404027,7.48602376 L11.6462,7.402835 L9.52488,5.28151 C8.35331,4.10994 6.45382,4.10994 5.28224,5.28151 C4.1575328,6.4062172 4.11254451,8.20178469 5.14727514,9.38016071 L5.28224,9.52415 L8.11067,12.3526 C9.28224,13.5242 11.1818,13.5241 12.3533,12.3526 C12.7438,11.962 13.377,11.962 13.7675,12.3526 C14.1581,12.7431 14.158,13.3763 13.7675,13.7668 C11.8740697,15.6602303 8.83983381,15.717607 6.87724554,13.93893 L6.69646,13.7668 L3.86803,10.9384 C1.91541,8.98574 1.91541,5.81992 3.86803,3.8673 Z" id="形状" fill="#09244B"></path>
            </g>
        </g>
    </g>
</svg>