<?xml version="1.0" encoding="UTF-8"?>
<svg width="24px" height="24px" viewBox="0 0 24 24" version="1.1" xmlns="http://www.w3.org/2000/svg" xmlns:xlink="http://www.w3.org/1999/xlink">
    <title>link_2_fill</title>
    <g id="页面-1" stroke="none" stroke-width="1" fill="none" fill-rule="evenodd">
        <g id="File" transform="translate(-672.000000, -48.000000)" fill-rule="nonzero">
            <g id="link_2_fill" transform="translate(672.000000, 48.000000)">
                <rect id="矩形" x="0" y="0" width="24" height="24"></rect>
                <path d="M15.889,9.52505 C16.4381875,8.97588125 17.307209,8.9415582 17.8963757,9.42208086 L18.0103,9.52505 L20.1317,11.6464 C22.4748,13.9895 22.4748,17.7885 20.1317,20.1317 C17.8485821,22.4147205 14.1833634,22.4732595 11.829461,20.307317 L11.6464,20.1317 L9.52505,18.0103 C8.93927,17.4245 8.93927,16.4748 9.52505,15.889 C10.0741906,15.3398125 10.9432971,15.3054883 11.5324746,15.7860273 L11.6464,15.889 L13.7677,18.0103 C14.9393,19.1819 16.8388,19.1819 18.0103,18.0103 C19.135036,16.88566 19.1800254,15.0900952 18.1452683,13.9116927 L18.0103,13.7677 L15.889,11.6464 C15.3032,11.0606 15.3032,10.1108 15.889,9.52505 Z M8.81781,8.81794 C9.36698813,8.26876187 10.236009,8.23443824 10.8251757,8.7149691 L10.9391,8.81794 L15.1818,13.0606 C15.7676,13.6464 15.7676,14.5961 15.1818,15.1819 C14.6326125,15.7310875 13.7635031,15.7654117 13.1743254,15.2848727 L13.0604,15.1819 L8.81781,10.9393 C8.23202,10.3535 8.23202,9.40373 8.81781,8.81794 Z M3.8682,3.8682 C6.15125949,1.58513077 9.81643869,1.52659053 12.1704316,3.69257929 L12.3535,3.8682 L14.4748,5.98952 C15.0606,6.57531 15.0606,7.52505 14.4748,8.1108375 C13.9256125,8.66001797 13.056591,8.69434175 12.4674243,8.21380884 L12.3535,8.1108375 L10.2322,5.98952 C9.06059,4.81795 7.16109,4.81795 5.98952,5.98952 C4.8648128,7.1142272 4.81982451,8.90979469 5.85455514,10.0882061 L5.98952,10.2322 L8.1108375,12.3535 C8.69663,12.9393 8.69663,13.889 8.1108375,14.4748 C7.56166172,15.0239875 6.69260581,15.0583117 6.10344295,14.5777727 L5.98952,14.4748 L3.8682,12.3535 C1.52505,10.0103 1.52505,6.21134 3.8682,3.8682 Z" id="形状" fill="#09244B"></path>
            </g>
        </g>
    </g>
</svg>