<svg width="24" height="24" viewBox="0 0 24 24" fill="none" xmlns="http://www.w3.org/2000/svg">
<rect width="24" height="24" fill="white" fill-opacity="0.01"/>
<path d="M3.86827 3.8673C1.91565 5.81992 1.91565 8.98574 3.86827 10.9384L6.6967 13.7668C8.64932 15.7194 11.8151 15.7194 13.7678 13.7668C14.1582 13.3763 14.1581 12.7431 13.7676 12.3526C13.3771 11.9621 12.7439 11.9621 12.3534 12.3526C11.1818 13.5241 9.28246 13.5241 8.11091 12.3526L5.28249 9.52415C4.11092 8.35258 4.11092 6.45308 5.28249 5.28151C6.45406 4.10994 8.35356 4.10994 9.52513 5.28151L12 7.75639C12.3905 8.14691 13.0237 8.14691 13.4142 7.75639C13.8047 7.36586 13.8047 6.7327 13.4142 6.34217L10.9393 3.8673C8.98672 1.91468 5.8209 1.91468 3.86827 3.8673Z" fill="#09244B"/>
<path d="M17.3031 10.2311C15.3505 8.27845 12.1847 8.27845 10.232 10.2311C9.84158 10.6216 9.84173 11.2548 10.2322 11.6453C10.6228 12.0359 11.2559 12.0359 11.6464 11.6453C12.818 10.4738 14.7173 10.4737 15.8889 11.6453L18.7173 14.4737C19.8889 15.6453 19.8889 17.5448 18.7173 18.7163C17.5458 19.8879 15.6463 19.8879 14.4747 18.7163L11.9998 16.2415C11.6093 15.851 10.9761 15.851 10.5856 16.2415C10.1951 16.632 10.1951 17.2652 10.5856 17.6557L13.0605 20.1306C15.0131 22.0832 18.1789 22.0832 20.1315 20.1306C22.0842 18.1779 22.0842 15.0121 20.1315 13.0595L17.3031 10.2311Z" fill="#09244B"/>
</svg>
