<?xml version="1.0" encoding="UTF-8"?>
<svg width="24px" height="24px" viewBox="0 0 24 24" version="1.1" xmlns="http://www.w3.org/2000/svg" xmlns:xlink="http://www.w3.org/1999/xlink">
    <title>link_2_line</title>
    <g id="页面-1" stroke="none" stroke-width="1" fill="none" fill-rule="evenodd">
        <g id="File" transform="translate(-672.000000, 0.000000)" fill-rule="nonzero">
            <g id="link_2_line" transform="translate(672.000000, 0.000000)">
                <rect id="矩形" x="0" y="0" width="24" height="24"></rect>
                <path d="M16.2426,9.87845 C16.6030615,9.51797 17.1703207,9.49024077 17.5625973,9.79526231 L17.6568,9.87845 L19.7781,11.9998 C21.926,14.1477 21.926,17.6301 19.7781,19.7779 C17.6898639,21.8661361 14.340237,21.9241427 12.1819236,19.9519197 L11.9999,19.7779 L9.87861,17.6566 C9.48808,17.2661 9.48808,16.6329 9.87861,16.2424 C10.2390623,15.8819385 10.8063208,15.8542107 11.1985973,16.1592166 L11.2928,16.2424 L13.4141,18.3637 C14.781,19.7306 16.9971,19.7306 18.3639,18.3637 C19.6818857,17.0457143 19.7289566,14.9380096 18.5051128,13.5636154 L18.3639,13.414 L16.2426,11.2927 C15.852,10.9021 15.852,10.269 16.2426,9.87845 Z M9.17136,9.17134 C9.53184923,8.81086 10.0991191,8.78313077 10.4913971,9.08815231 L10.5856,9.17134 L14.8282,13.414 C15.2187,13.8045 15.2187,14.4377 14.8282,14.8282 C14.4677385,15.1886615 13.9004793,15.2163893 13.5082027,14.9113834 L13.414,14.8282 L9.17136,10.5856 C8.78084,10.195 8.78084,9.56187 9.17136,9.17134 Z M4.22175,4.2216 C6.30997639,2.13338333 9.65960305,2.07537731 11.8178797,4.04758194 L11.9999,4.2216 L14.1212,6.34292 C14.5118,6.73344 14.5118,7.36661 14.1212,7.75713 C13.7607385,8.11761923 13.1935645,8.14534917 12.8012224,7.84031982 L12.707,7.75713 L10.5857,5.63581 C9.21888,4.26898 7.0028,4.26898 5.63597,5.63581 C4.31794571,6.95383429 4.27087342,9.06152179 5.49475311,10.4359775 L5.63597,10.5856 L7.75729,12.7069 C8.14781,13.0974 8.14781,13.7306 7.75729,14.1211 C7.39680077,14.4815615 6.82957355,14.5092893 6.43727848,14.2042834 L6.34307,14.1211 L4.22175,11.9998 C2.07387,9.85189 2.07387,6.36948 4.22175,4.2216 Z" id="形状" fill="#09244B"></path>
            </g>
        </g>
    </g>
</svg>