<?xml version="1.0" encoding="UTF-8"?>
<svg width="24px" height="24px" viewBox="0 0 24 24" version="1.1" xmlns="http://www.w3.org/2000/svg" xmlns:xlink="http://www.w3.org/1999/xlink">
    <title>link_line</title>
    <g id="页面-1" stroke="none" stroke-width="1" fill="none" fill-rule="evenodd">
        <g id="File" transform="translate(-720.000000, 0.000000)" fill-rule="nonzero">
            <g id="link_line" transform="translate(720.000000, 0.000000)">
                <rect id="矩形" x="0" y="0" width="24" height="24"></rect>
                <path d="M10.232,10.2311 C12.1255273,8.33762121 15.1597473,8.28024307 17.1223163,10.0589656 L17.3031,10.2311 L20.1315,13.0595 C22.0842,15.0121 22.0842,18.1779 20.1315,20.1306 C18.2380697,22.0240303 15.2038526,22.081407 13.2412837,20.30273 L13.0605,20.1306 L10.5856,17.6557 C10.1951,17.2652 10.1951,16.632 10.5856,16.2415 C10.9460615,15.8810385 11.5133207,15.8533107 11.9055973,16.1583166 L11.9998,16.2415 L14.4747,18.7163 C15.6463,19.8879 17.5458,19.8879 18.7173,18.7163 C19.842036,17.59166 19.8870254,15.7960952 18.8522683,14.6176927 L18.7173,14.4737 L15.8889,11.6453 C14.7173,10.4737 12.818,10.4738 11.6464,11.6453 C11.2559,12.0359 10.6228,12.0359 10.2322,11.6453 C9.84173,11.2548 9.84158,10.6216 10.232,10.2311 Z M3.86827,3.8673 C5.76172939,1.9738503 8.79596616,1.91647304 10.758518,3.69516821 L10.9393,3.8673 L13.4142,6.34217 C13.8047,6.7327 13.8047,7.36586 13.4142,7.75639 C13.0537385,8.11687 12.4864793,8.14459923 12.0942027,7.83957769 L12,7.75639 L9.52513,5.28151 C8.35356,4.10994 6.45406,4.10994 5.28249,5.28151 C4.1577828,6.4062172 4.11279451,8.20178469 5.14752514,9.38016071 L5.28249,9.52415 L8.11091,12.3526 C9.28246,13.5241 11.1818,13.5241 12.3534,12.3526 C12.7439,11.9621 13.3771,11.9621 13.7676,12.3526 C14.1581,12.7431 14.1582,13.3763 13.7678,13.7668 C11.8742727,15.6602303 8.84007152,15.717607 6.87748543,13.93893 L6.6967,13.7668 L3.86827,10.9384 C1.91565,8.98574 1.91565,5.81992 3.86827,3.8673 Z" id="形状" fill="#09244B"></path>
            </g>
        </g>
    </g>
</svg>