<?xml version="1.0" encoding="UTF-8"?>
<svg width="24px" height="24px" viewBox="0 0 24 24" version="1.1" xmlns="http://www.w3.org/2000/svg" xmlns:xlink="http://www.w3.org/1999/xlink">
    <title>link_fill</title>
    <g id="页面-1" stroke="none" stroke-width="1" fill="none" fill-rule="evenodd">
        <g id="File" transform="translate(-720.000000, -48.000000)" fill-rule="nonzero">
            <g id="link_fill" transform="translate(720.000000, 48.000000)">
                <rect id="矩形" x="0" y="0" width="24" height="24"></rect>
                <path d="M17.3034,9.52412 L20.4854,12.7061 C22.6333,14.854 22.6333,18.3364 20.4854,20.4843 C18.3375,22.6322 14.8551,22.6322 12.7072,20.4843 L11.6466,19.4236 C11.0608,18.8378 11.0608,17.8881 11.6466,17.3023 C12.2323,16.7165 13.1821,16.7165 13.7679,17.3023 L14.8285,18.363 C15.8048,19.3393 17.3878,19.3393 18.3641,18.363 C19.3404,17.3866 19.3404,15.8037 18.3641,14.8274 L15.1821,11.6454 C14.4572,10.9205 13.3978,10.7339 12.5007,11.0854 C12.3394333,11.1486 12.1888778,11.2154 12.0467815,11.2810889 L11.5834169,11.4976131 C10.9633037,11.7781699 10.4855812,11.8986941 9.87869,11.2919 C9.00659,10.4198 9.2329,9.61462 10.2964,8.88115 C12.4392,7.40338 15.397,7.6177 17.3034,9.52412 Z M11.2929,3.51374 L12.3536,4.57441 C12.9393,5.16019 12.9393,6.10994 12.3536,6.69573 C11.7678,7.28151 10.818,7.28151 10.2322,6.69573 L9.17158,5.63507 C8.19526,4.65875 6.61235,4.65875 5.63604,5.63507 C4.65973,6.61138 4.65973,8.19429 5.63604,9.1706 L8.81802,12.3526 C9.54291,13.0775 10.6023,13.2642 11.4994,12.9126 C11.6606667,12.8494 11.8112222,12.7826444 11.9533185,12.7169852 L12.4166831,12.5004558 C13.0367962,12.2198315 13.5145176,12.0993176 14.1214,12.7062 C14.9935,13.5782 14.7672,14.3834 13.7037,15.1169 C11.5609,16.5946 8.60312,16.3803 6.6967,14.4739 L3.51472,11.2919 C1.36684,9.14404 1.36684,5.66163 3.51472,3.51374 C5.6626,1.36586 9.14501,1.36586 11.2929,3.51374 Z" id="形状" fill="#09244B"></path>
            </g>
        </g>
    </g>
</svg>