<svg width="24" height="24" viewBox="0 0 24 24" fill="none" xmlns="http://www.w3.org/2000/svg">
<rect width="24" height="24" fill="white" fill-opacity="0.01"/>
<path d="M3.8682 3.8682C1.52505 6.21134 1.52505 10.0103 3.8682 12.3535L5.98952 14.4748C6.57531 15.0606 7.52505 15.0606 8.11084 14.4748C8.69663 13.889 8.69663 12.9393 8.11084 12.3535L5.98952 10.2322C4.81795 9.06059 4.81795 7.16109 5.98952 5.98952C7.16109 4.81795 9.06059 4.81795 10.2322 5.98952L12.3535 8.11084C12.9393 8.69663 13.889 8.69663 14.4748 8.11084C15.0606 7.52505 15.0606 6.57531 14.4748 5.98952L12.3535 3.8682C10.0103 1.52505 6.21134 1.52505 3.8682 3.8682Z" fill="#09244B"/>
<path d="M11.6464 15.889C11.0606 15.3032 10.1108 15.3032 9.52505 15.889C8.93927 16.4748 8.93927 17.4245 9.52505 18.0103L11.6464 20.1317C13.9895 22.4748 17.7885 22.4748 20.1317 20.1317C22.4748 17.7885 22.4748 13.9895 20.1317 11.6464L18.0103 9.52505C17.4245 8.93927 16.4748 8.93927 15.889 9.52505C15.3032 10.1108 15.3032 11.0606 15.889 11.6464L18.0103 13.7677C19.1819 14.9393 19.1819 16.8388 18.0103 18.0103C16.8388 19.1819 14.9393 19.1819 13.7677 18.0103L11.6464 15.889Z" fill="#09244B"/>
<path d="M10.9391 8.81794C10.3533 8.23215 9.4036 8.23215 8.81781 8.81794C8.23202 9.40373 8.23202 10.3535 8.81781 10.9393L13.0604 15.1819C13.6462 15.7677 14.596 15.7677 15.1818 15.1819C15.7676 14.5961 15.7676 13.6464 15.1818 13.0606L10.9391 8.81794Z" fill="#09244B"/>
</svg>
