<svg xmlns="http://www.w3.org/2000/svg" width="24" height="24" viewBox="0 0 24 24"><g fill="none" fill-rule="evenodd"><path d="M24,0 L24,24 L0,24 L0,0 L24,0 Z M12.5935,23.2578 L12.5819,23.2595 L12.5109,23.295 L12.4919,23.2987 L12.4767,23.295 L12.4057,23.2595 C12.3958,23.2564 12.387,23.259 12.3821,23.2649 L12.378,23.2758 L12.3609,23.7031 L12.3659,23.7235 L12.3769,23.7357 L12.4805,23.8097 L12.4953,23.8136 L12.5071,23.8097 L12.6107,23.7357 L12.6233,23.7197 L12.6267,23.7031 L12.6096,23.2758 C12.6076,23.2657 12.601,23.2593 12.5935,23.2578 Z M12.8584,23.1453 L12.8445,23.1473 L12.6598,23.2397 L12.6499,23.2499 L12.6472,23.2611 L12.6651,23.6906 L12.6699,23.7034 L12.6784,23.7105 L12.8793,23.8032 C12.8914,23.8069 12.9022,23.803 12.9078,23.7952 L12.9118,23.7812 L12.8777,23.1665 C12.8753,23.1546 12.8674,23.147 12.8584,23.1453 Z M12.143,23.1473 C12.1332,23.1424 12.1222,23.1453 12.1156,23.1526 L12.1099,23.1665 L12.0758,23.7812 C12.0751,23.7927 12.0828,23.8019 12.0926,23.8046 L12.1083,23.8032 L12.3092,23.7105 L12.3186,23.7024 L12.3225,23.6906 L12.3404,23.2611 L12.3372,23.2485 L12.3278,23.2397 L12.143,23.1473 Z"/><path fill="#09244B" d="M6,4 C6,3.44772 6.44772,3 7,3 L20,3 C20.5523,3 21,3.44772 21,4 L21,18 C21,19.6569 19.6569,21 18,21 L5.5,21 C4.11929,21 3,19.8807 3,18.5 L3,11 C3,10.4477 3.44772,10 4,10 L6,10 L6,4 Z M6,12 L5,12 L5,18.5 C5,18.7761 5.22386,19 5.5,19 C5.77614,19 6,18.7761 6,18.5 L6,12 Z M7.94999,19 L18,19 C18.5523,19 19,18.5523 19,18 L19,5 L8,5 L8,18.5 C8,18.6712 7.98279,18.8384 7.94999,19 Z M10,8 C10,7.44772 10.4477,7 11,7 L16,7 C16.5523,7 17,7.44772 17,8 L17,11 C17,11.5523 16.5523,12 16,12 L11,12 C10.4477,12 10,11.5523 10,11 L10,8 Z M12,9 L12,10 L15,10 L15,9 L12,9 Z M10,15 C10,14.4477 10.4477,14 11,14 L15,14 C15.5523,14 16,14.4477 16,15 C16,15.5523 15.5523,16 15,16 L11,16 C10.4477,16 10,15.5523 10,15 Z"/></g></svg>