<?xml version="1.0" encoding="UTF-8"?>
<svg width="24px" height="24px" viewBox="0 0 24 24" version="1.1" xmlns="http://www.w3.org/2000/svg" xmlns:xlink="http://www.w3.org/1999/xlink">
    <title>pdf_fill</title>
    <g id="页面-1" stroke="none" stroke-width="1" fill="none" fill-rule="evenodd">
        <g id="File" transform="translate(-480.000000, -144.000000)">
            <g id="pdf_fill" transform="translate(480.000000, 144.000000)">
                <rect id="矩形" fill-rule="nonzero" x="0" y="0" width="24" height="24"></rect>
                <path d="M12,2 L12,8.5 C12,9.32843 12.6716,10 13.5,10 L20,10 L20,20 C20,21.1046 19.1046,22 18,22 L6,22 C4.89543,22 4,21.1046 4,20 L4,4 C4,2.89543 4.89543,2 6,2 L12,2 Z M11.0113,11.8481 C10.7715,13.3709 9.975,14.7506 8.776,15.7196 C7.88908,16.4365 8.69984,17.8414 9.76438,17.4317 C11.2031,16.8779 12.7962,16.8779 14.235,17.4317 C15.2992,17.8413 16.1105,16.4367 15.2234,15.7197 C14.0245,14.7506 13.2279,13.3709 12.9881,11.848 C12.8108,10.722 11.1887,10.7207 11.0113,11.8481 Z M11.9986,14.3028 L12.805,15.6972 L11.195,15.6972 L11.9986,14.3028 Z M14,2.04336 C14.3759,2.12295 14.7241,2.30991 15,2.58579 L19.4142,7 C19.6901,7.27588 19.8771,7.62406 19.9566,8 L14,8 L14,2.04336 Z" id="形状" fill="#09244B"></path>
            </g>
        </g>
    </g>
</svg>