<?xml version="1.0" encoding="UTF-8"?>
<svg width="24px" height="24px" viewBox="0 0 24 24" version="1.1" xmlns="http://www.w3.org/2000/svg" xmlns:xlink="http://www.w3.org/1999/xlink">
    <title>pdf_line</title>
    <g id="页面-1" stroke="none" stroke-width="1" fill="none" fill-rule="evenodd">
        <g id="File" transform="translate(-480.000000, -96.000000)">
            <g id="pdf_line" transform="translate(480.000000, 96.000000)">
                <rect id="矩形" fill-rule="nonzero" x="0" y="0" width="24" height="24"></rect>
                <path d="M13.5858,2 C14.0572667,2 14.5115877,2.16648691 14.870172,2.46691468 L15,2.58579 L19.4142,7 C19.7476222,7.33339556 19.9511481,7.77238321 19.9922598,8.23835797 L20,8.41421 L20,20 C20,21.0543909 19.18415,21.9181678 18.1492661,21.9945144 L18,22 L6,22 C4.94563773,22 4.08183483,21.18415 4.00548573,20.1492661 L4,20 L4,4 C4,2.94563773 4.81587733,2.08183483 5.85073759,2.00548573 L6,2 L13.5858,2 Z M12,4 L6,4 L6,20 L18,20 L18,10 L13.5,10 C12.7203294,10 12.0795543,9.40511446 12.0068668,8.64446046 L12,8.5 L12,4 Z M12.9881,11.848 C13.2279,13.3709 14.0245,14.7506 15.2234,15.7197 C16.1105,16.4367 15.2992,17.8413 14.235,17.4317 C12.7962,16.8779 11.2031,16.8779 9.76438,17.4317 C8.69984,17.8414 7.88908,16.4365 8.776,15.7196 C9.975,14.7506 10.7715,13.3709 11.0113,11.8481 C11.1887,10.7207 12.8108,10.722 12.9881,11.848 Z M11.9988,14.1524 L11.31,15.3476 L12.69,15.3476 L11.9988,14.1524 Z M14,4.41421 L14,8 L17.5858,8 L14,4.41421 Z" id="形状" fill="#09244B"></path>
            </g>
        </g>
    </g>
</svg>