<?xml version="1.0" encoding="UTF-8"?>
<svg width="24px" height="24px" viewBox="0 0 24 24" version="1.1" xmlns="http://www.w3.org/2000/svg" xmlns:xlink="http://www.w3.org/1999/xlink">
    <title>pic_line</title>
    <g id="页面-1" stroke="none" stroke-width="1" fill="none" fill-rule="evenodd">
        <g id="File" transform="translate(-912.000000, 0.000000)" fill-rule="nonzero">
            <g id="pic_line" transform="translate(912.000000, 0.000000)">
                <rect id="矩形" x="0" y="0" width="24" height="24"></rect>
                <path d="M20,3 C21.1046,3 22,3.89543 22,5 L22,19 C22,20.1046 21.1046,21 20,21 L4,21 C2.89543,21 2,20.1046 2,19 L2,5 C2,3.89543 2.89543,3 4,3 L20,3 Z M9.87852,12.0503 L4.22166,17.7071 C4.15418,17.7746 4.07946,17.8304 4,17.8746 L4,19 L20,19 L20,17.8747 C19.9204,17.8306 19.8456,17.7747 19.778,17.7071 L16.9496,14.8787 L15.7121,16.1161 C15.224,16.6043 14.4325,16.6043 13.9444,16.1161 L9.87852,12.0503 Z M20,5 L4,5 L4,15.1003 L8.99463,10.1057 C9.48279,9.61755 10.2742,9.61755 10.7624,10.1057 L14.8283,14.1716 L16.0657,12.9341 C16.5539,12.446 17.3453,12.446 17.8335,12.9341 L20,15.1007 L20,5 Z M15.5,7 C16.3284,7 17,7.67157 17,8.5 C17,9.32843 16.3284,10 15.5,10 C14.6716,10 14,9.32843 14,8.5 C14,7.67157 14.6716,7 15.5,7 Z" id="形状" fill="#09244B"></path>
            </g>
        </g>
    </g>
</svg>