<?xml version="1.0" encoding="UTF-8"?>
<svg width="24px" height="24px" viewBox="0 0 24 24" version="1.1" xmlns="http://www.w3.org/2000/svg" xmlns:xlink="http://www.w3.org/1999/xlink">
    <title>pin_line</title>
    <g id="页面-1" stroke="none" stroke-width="1" fill="none" fill-rule="evenodd">
        <g id="File" transform="translate(-1008.000000, 0.000000)">
            <g id="pin_line" transform="translate(1008.000000, 0.000000)">
                <rect id="矩形" fill-rule="nonzero" transform="translate(12.000000, 12.000000) scale(-1, 1) translate(-12.000000, -12.000000) " x="0" y="0" width="24" height="24"></rect>
                <path d="M16.7345,2.83508 C16.0307,2.13129 14.9165,2.05211 14.1203,2.64929 L11.2068,4.83437 C9.99663,5.74202 8.57717,6.32998 7.07962,6.54392 L4.90332,6.85482 C4.17295,6.95916 3.63773,7.7455 3.99012,8.51567 C4.32112,9.23907 5.37502,11.1446 8.34975,14.236 L4.17168,18.4141 C3.78115,18.8046 3.78115,19.4378 4.17168,19.8283 C4.5622,20.2188 5.19537,20.2188 5.58589,19.8283 L9.76397,15.6502 C12.8553,18.6249 14.7608,19.6788 15.4842,20.0098 C16.2544,20.3622 17.0407,19.8269 17.1451,19.0966 L17.456,16.9203 C17.6699,15.4227 18.2579,14.0033 19.1655,12.7931 L21.3506,9.8796 C21.9478,9.08336 21.8686,7.96917 21.1648,7.26539 L16.7345,2.83508 Z M15.3203,4.24929 L19.7506,8.6796 L17.5655,11.5931 C16.4562,13.0722 15.7375,14.8071 15.4761,16.6374 L15.3331,17.6383 C14.3534,17.0136 12.73,15.8011 10.4644,13.5355 C8.19874,11.2699 6.98625,9.64652 6.36157,8.6668 L7.36247,8.52382 C9.1928,8.26234 10.9277,7.54372 12.4068,6.43437 L15.3203,4.24929 Z" id="形状" fill="#09244B"></path>
            </g>
        </g>
    </g>
</svg>