<?xml version="1.0" encoding="UTF-8"?>
<svg width="24px" height="24px" viewBox="0 0 24 24" version="1.1" xmlns="http://www.w3.org/2000/svg" xmlns:xlink="http://www.w3.org/1999/xlink">
    <title>ppt_fill</title>
    <g id="页面-1" stroke="none" stroke-width="1" fill="none" fill-rule="evenodd">
        <g id="File" transform="translate(-528.000000, -144.000000)" fill-rule="nonzero">
            <g id="ppt_fill" transform="translate(528.000000, 144.000000)">
                <rect id="矩形" x="0" y="0" width="24" height="24"></rect>
                <path d="M12,2 L12,8.5 C12,9.32843 12.6716,10 13.5,10 L20,10 L20,20 C20,21.1046 19.1046,22 18,22 L6,22 C4.89543,22 4,21.1046 4,20 L4,4 C4,2.89543 4.89543,2 6,2 L12,2 Z M12.5,11 L10.1,11 C9.53299067,11 9.06617653,11.4290222 9.00645469,11.9801452 L9,12.1 L9,17 C9,17.5523 9.44772,18 10,18 C10.51285,18 10.9355092,17.613973 10.9932725,17.1166239 L11,17 L11,16 L12.5,16 C13.8807,16 15,14.8807 15,13.5 C15,12.174528 13.9684531,11.0899622 12.6643744,11.0053177 L12.5,11 Z M12.5,13 C12.7761,13 13,13.2239 13,13.5 C13,13.7761 12.7761,14 12.5,14 L11,14 L11,13 L12.5,13 Z M14,2.04336 C14.3759,2.12295 14.7241,2.30991 15,2.58579 L19.4142,7 C19.6901,7.27588 19.8771,7.62406 19.9566,8 L14,8 L14,2.04336 Z" id="形状" fill="#09244B"></path>
            </g>
        </g>
    </g>
</svg>