<?xml version="1.0" encoding="UTF-8"?>
<svg width="24px" height="24px" viewBox="0 0 24 24" version="1.1" xmlns="http://www.w3.org/2000/svg" xmlns:xlink="http://www.w3.org/1999/xlink">
    <title>ppt_line</title>
    <g id="页面-1" stroke="none" stroke-width="1" fill="none" fill-rule="evenodd">
        <g id="File" transform="translate(-528.000000, -96.000000)">
            <g id="ppt_line" transform="translate(528.000000, 96.000000)">
                <rect id="矩形" fill-rule="nonzero" x="0" y="0" width="24" height="24"></rect>
                <path d="M13.5858,2 C14.0572667,2 14.5115877,2.16648691 14.870172,2.46691468 L15,2.58579 L19.4142,7 C19.7476222,7.33339556 19.9511481,7.77238321 19.9922598,8.23835797 L20,8.41421 L20,20 C20,21.0543909 19.18415,21.9181678 18.1492661,21.9945144 L18,22 L6,22 C4.94563773,22 4.08183483,21.18415 4.00548573,20.1492661 L4,20 L4,4 C4,2.94563773 4.81587733,2.08183483 5.85073759,2.00548573 L6,2 L13.5858,2 Z M12,4 L6,4 L6,20 L18,20 L18,10 L13.5,10 C12.7203294,10 12.0795543,9.40511446 12.0068668,8.64446046 L12,8.5 L12,4 Z M12.5,11 C13.8807,11 15,12.1193 15,13.5 C15,14.8807 13.8807,16 12.5,16 L11,16 L11,17 C11,17.5523 10.5523,18 10,18 C9.44772,18 9,17.5523 9,17 L9,12.1 C9,11.4925 9.49249,11 10.1,11 L12.5,11 Z M12.5,13 L11,13 L11,14 L12.5,14 C12.7761,14 13,13.7761 13,13.5 C13,13.2545778 12.8230914,13.0504 12.5898645,13.0080571 L12.5,13 Z M14,4.41421 L14,8 L17.5858,8 L14,4.41421 Z" id="形状" fill="#09244B"></path>
            </g>
        </g>
    </g>
</svg>