<?xml version="1.0" encoding="UTF-8"?>
<svg width="24px" height="24px" viewBox="0 0 24 24" version="1.1" xmlns="http://www.w3.org/2000/svg" xmlns:xlink="http://www.w3.org/1999/xlink">
    <title>profile_fill</title>
    <g id="页面-1" stroke="none" stroke-width="1" fill="none" fill-rule="evenodd">
        <g id="File" transform="translate(0.000000, -336.000000)" fill-rule="nonzero">
            <g id="profile_fill" transform="translate(0.000000, 336.000000)">
                <rect id="矩形" x="0" y="0" width="24" height="24"></rect>
                <path d="M20,3 C21.1046,3 22,3.89543 22,5 L22,19 C22,20.1046 21.1046,21 20,21 L4,21 C2.89543,21 2,20.1046 2,19 L2,5 C2,3.89543 2.89543,3 4,3 L20,3 Z M17,15 L7,15 C6.44772,15 6,15.4477 6,16 C6,16.5523 6.44772,17 7,17 L17,17 C17.5523,17 18,16.5523 18,16 C18,15.4477 17.5523,15 17,15 Z M10,7 L8,7 C6.94563773,7 6.08183483,7.81587733 6.00548573,8.85073759 L6,9 L6,11 C6,12.0543909 6.81587733,12.9181678 7.85073759,12.9945144 L8,13 L10,13 C11.0543909,13 11.9181678,12.18415 11.9945144,11.1492661 L12,11 L12,9 C12,7.94563773 11.18415,7.08183483 10.1492661,7.00548573 L10,7 Z M17,11 L14,11 C13.4477,11 13,11.4477 13,12 C13,12.51285 13.386027,12.9355092 13.8833761,12.9932725 L14,13 L17,13 C17.5523,13 18,12.5523 18,12 C18,11.48715 17.613973,11.0644908 17.1166239,11.0067275 L17,11 Z M10,9 L10,11 L8,11 L8,9 L10,9 Z M17,7 L14,7 C13.4477,7 13,7.44772 13,8 C13,8.55228 13.4477,9 14,9 L17,9 C17.5523,9 18,8.55228 18,8 C18,7.44772 17.5523,7 17,7 Z" id="形状" fill="#09244B"></path>
            </g>
        </g>
    </g>
</svg>