<?xml version="1.0" encoding="UTF-8"?>
<svg width="24px" height="24px" viewBox="0 0 24 24" version="1.1" xmlns="http://www.w3.org/2000/svg" xmlns:xlink="http://www.w3.org/1999/xlink">
    <title>save_line</title>
    <g id="页面-1" stroke="none" stroke-width="1" fill="none" fill-rule="evenodd">
        <g id="File" transform="translate(-576.000000, -96.000000)">
            <g id="save_line" transform="translate(576.000000, 96.000000)">
                <rect id="矩形" fill-rule="nonzero" x="0" y="0" width="24" height="24"></rect>
                <path d="M6,2 C4.89543,2 4,2.89543 4,4 L4,20 C4,21.1046 4.89543,22 6,22 L18,22 C19.1046,22 20,21.1046 20,20 L20,6.41421 C20,5.88378 19.7893,5.37507 19.4142,5 L17,2.58579 C16.6249,2.21071 16.1162,2 15.5858,2 L6,2 Z M6,4 L15.5858,4 L18,6.41421 L18,20 L6,20 L6,4 Z M16.2383,10.793 C16.6289,10.4025 16.6289,9.76934 16.2383,9.37881 C15.8478,8.98829 15.2147,8.98829 14.8241,9.37881 L10.5815,13.6215 L9.16727,12.2072 C8.77675,11.8167 8.14358,11.8167 7.75306,12.2072 C7.36253,12.5978 7.36253,13.2309 7.75306,13.6215 L9.80367,15.6721 C10.2332,16.1016 10.9297,16.1016 11.3593,15.6721 L16.2383,10.793 Z" id="形状" fill="#09244B"></path>
            </g>
        </g>
    </g>
</svg>