<svg xmlns="http://www.w3.org/2000/svg" width="24" height="24" viewBox="0 0 24 24"><title>search_2_none_line</title><g fill="none" fill-rule="nonzero"><path d="M24 0v24H0V0zM12.594 23.258l-.012.002-.071.035-.02.004-.014-.004-.071-.036q-.016-.004-.024.006l-.004.01-.017.428.005.02.01.013.104.074.015.004.012-.004.104-.074.012-.016.004-.017-.017-.427q-.004-.016-.016-.018m.264-.113-.014.002-.184.093-.01.01-.003.011.018.43.005.012.008.008.201.092q.019.005.029-.008l.004-.014-.034-.614q-.005-.019-.02-.022m-.715.002a.02.02 0 0 0-.027.006l-.006.014-.034.614q.001.018.017.024l.015-.002.201-.093.01-.008.003-.011.018-.43-.003-.012-.01-.01z"/><path fill="#09244b" d="M15 10a5 5 0 1 0-10 0 5 5 0 0 0 10 0m-3.94-2.475a1 1 0 1 1 1.415 1.414L11.415 10l1.06 1.06a1 1 0 1 1-1.415 1.415L10 11.415l-1.06 1.06a1 1 0 1 1-1.415-1.415L8.585 10l-1.06-1.06A1 1 0 1 1 8.94 7.524L10 8.585zM17 10c0 1.572-.52 3.023-1.395 4.191l5.102 5.102a1 1 0 1 1-1.414 1.414l-5.102-5.102A7 7 0 1 1 17 10"/></g></svg>