<svg xmlns="http://www.w3.org/2000/svg" width="24" height="24" viewBox="0 0 24 24"><title>search_3_ai_fill</title><g fill="none" fill-rule="nonzero"><path d="M24 0v24H0V0zM12.594 23.258l-.012.002-.071.035-.02.004-.014-.004-.071-.036q-.016-.004-.024.006l-.004.01-.017.428.005.02.01.013.104.074.015.004.012-.004.104-.074.012-.016.004-.017-.017-.427q-.004-.016-.016-.018m.264-.113-.014.002-.184.093-.01.01-.003.011.018.43.005.012.008.008.201.092q.019.005.029-.008l.004-.014-.034-.614q-.005-.019-.02-.022m-.715.002a.02.02 0 0 0-.027.006l-.006.014-.034.614q.001.018.017.024l.015-.002.201-.093.01-.008.003-.011.018-.43-.003-.012-.01-.01z"/><path fill="#09244b" d="M10 2.5a7.5 7.5 0 0 1 6.256 11.635l4.805 4.805a1.5 1.5 0 0 1-2.122 2.121l-4.804-4.805A7.5 7.5 0 1 1 10 2.5m0 3a4.5 4.5 0 1 0 0 9 4.5 4.5 0 0 0 0-9m.049 1.568.166.363a5.64 5.64 0 0 0 2.133 2.365l.274.162c.068.048.034.068-.102.145l-.172.1a5.64 5.64 0 0 0-2.133 2.366l-.166.362c-.046.092-.067.092-.113 0l-.165-.362a5.64 5.64 0 0 0-2.133-2.365l-.274-.162c-.046-.032-.045-.052 0-.084l.274-.162A5.64 5.64 0 0 0 9.77 7.431l.165-.363c.046-.09.067-.09.113 0m7.985-5.036.05.094q.04.081.083.162c.353.652.91 1.2 1.602 1.577l.129.067c.116.059.133.067.05.111l-.178.092a3.96 3.96 0 0 0-1.603 1.577l-.133.256c-.026.043-.042.043-.068 0l-.133-.256a3.96 3.96 0 0 0-1.602-1.577l-.129-.066c-.116-.059-.133-.067-.05-.111l.178-.093a3.96 3.96 0 0 0 1.603-1.577l.133-.256c.026-.043.042-.043.068 0"/></g></svg>