<?xml version="1.0" encoding="UTF-8"?>
<svg width="24px" height="24px" viewBox="0 0 24 24" version="1.1" xmlns="http://www.w3.org/2000/svg" xmlns:xlink="http://www.w3.org/1999/xlink">
    <title>unarchive_line</title>
    <g id="Icon" stroke="none" stroke-width="1" fill="none" fill-rule="evenodd">
        <g id="File" transform="translate(-864.000000, -384.000000)">
            <g id="unarchive_line" transform="translate(864.000000, 384.000000)">
                <path d="M24,0 L24,24 L0,24 L0,0 L24,0 Z M12.5935,23.2578 L12.5819,23.2595 L12.5109,23.295 L12.4919,23.2987 L12.4767,23.295 L12.4057,23.2595 C12.3958,23.2564 12.387,23.259 12.3821,23.2649 L12.378,23.2758 L12.3609,23.7031 L12.3659,23.7235 L12.3769,23.7357 L12.4805,23.8097 L12.4953,23.8136 L12.5071,23.8097 L12.6107,23.7357 L12.6233,23.7197 L12.6267,23.7031 L12.6096,23.2758 C12.6076,23.2657 12.601,23.2593 12.5935,23.2578 Z M12.8584,23.1453 L12.8445,23.1473 L12.6598,23.2397 L12.6499,23.2499 L12.6472,23.2611 L12.6651,23.6906 L12.6699,23.7034 L12.6784,23.7105 L12.8793,23.8032 C12.8914,23.8069 12.9022,23.803 12.9078,23.7952 L12.9118,23.7812 L12.8777,23.1665 C12.8753,23.1546 12.8674,23.147 12.8584,23.1453 Z M12.143,23.1473 C12.1332,23.1424 12.1222,23.1453 12.1156,23.1526 L12.1099,23.1665 L12.0758,23.7812 C12.0751,23.7927 12.0828,23.8019 12.0926,23.8046 L12.1083,23.8032 L12.3092,23.7105 L12.3186,23.7024 L12.3225,23.6906 L12.3404,23.2611 L12.3372,23.2485 L12.3278,23.2397 L12.143,23.1473 Z" id="MingCute" fill-rule="nonzero"></path>
                <path d="M16.5858,3 C17.0572667,3 17.5115877,3.16648691 17.870172,3.46691468 L18,3.58579 L20.4142,6 C20.7476222,6.33339556 20.9511481,6.77238321 20.9922598,7.23835797 L21,7.41421 L21,19 C21,20.0543909 20.18415,20.9181678 19.1492661,20.9945144 L19,21 L5,21 C3.94563773,21 3.08183483,20.18415 3.00548573,19.1492661 L3,19 L3,7.41421 C3,6.94271667 3.16648691,6.48838481 3.46691468,6.12981944 L3.58579,6 L6,3.58579 C6.33339556,3.25238556 6.77238321,3.0488537 7.23835797,3.00774051 L7.41421,3 L16.5858,3 Z M19,9 L5,9 L5,19 L19,19 L19,9 Z M12,10.4 C12.221,10.4 12.4345,10.4731944 12.6080347,10.6060995 L12.7071,10.6929 L14.8284,12.8142 C15.2189,13.2047 15.2189,13.8379 14.8284,14.2284 C14.4679385,14.5889538 13.9006793,14.6166888 13.5084027,14.3116047 L13.4142,14.2284 L13,13.8142 L13,17 C13,17.5523 12.5523,18 12,18 C11.48715,18 11.0644908,17.613973 11.0067275,17.1166239 L11,17 L11,13.8142 L10.5858,14.2284 C10.1952,14.619 9.56208,14.619 9.17156,14.2284 C8.81108,13.8679385 8.78335077,13.3006793 9.08837231,12.9084027 L9.17156,12.8142 L11.2929,10.6929 C11.4804,10.5054 11.7348,10.4 12,10.4 Z M16.5858,5 L7.41421,5 L5.41421,7 L18.5858,7 L16.5858,5 Z" id="形状" fill="#09244B"></path>
            </g>
        </g>
    </g>
</svg>