<svg xmlns="http://www.w3.org/2000/svg" width="24" height="24"><g fill="none"><path d="M24 0v24H0V0zM12.593 23.258l-.011.002-.071.035-.02.004-.014-.004-.071-.035c-.01-.004-.019-.001-.024.005l-.004.01-.017.428.005.02.01.013.104.074.015.004.012-.004.104-.074.012-.016.004-.017-.017-.427c-.002-.01-.009-.017-.017-.018m.265-.113-.013.002-.185.093-.01.01-.003.011.018.43.005.012.008.007.201.093c.012.004.023 0 .029-.008l.004-.014-.034-.614c-.003-.012-.01-.02-.02-.022m-.715.002a.023.023 0 0 0-.027.006l-.006.014-.034.614c0 .012.007.02.017.024l.015-.002.201-.093.01-.008.004-.011.017-.43-.003-.012-.01-.01z"/><path fill="#09244B" d="M8 17.5a1.5 1.5 0 0 1 1.493 1.356L9.5 19v2a1.5 1.5 0 0 1-2.993.144L6.5 21v-2A1.5 1.5 0 0 1 8 17.5m8.245-7.62a1.5 1.5 0 0 1 2.007-.102l.114.102 1.766 1.766a6 6 0 0 1-8.302 8.661l-.183-.175-1.766-1.766a1.5 1.5 0 0 1 2.007-2.225l.114.103 1.766 1.766a3 3 0 0 0 4.378-4.098l-.135-.144-1.766-1.766a1.5 1.5 0 0 1 0-2.122M5 15.5a1.5 1.5 0 0 1 .145 2.993L5 18.5H4a1.5 1.5 0 0 1-.144-2.993L4 15.5zm3.818-6.682a1.5 1.5 0 0 1 2.007-.103l.114.103 4.243 4.243a1.5 1.5 0 0 1-2.007 2.224l-.114-.103-4.243-4.243a1.5 1.5 0 0 1 0-2.121m-4.95-4.95a6 6 0 0 1 8.303-.175l.183.175 1.77 1.77a1.5 1.5 0 0 1-2.008 2.224l-.114-.103-1.77-1.77a3 3 0 0 0-4.377 4.1l.135.143 1.77 1.77a1.5 1.5 0 0 1-2.008 2.224l-.114-.103-1.77-1.77a6 6 0 0 1 0-8.485M20 5.5a1.5 1.5 0 0 1 0 3h-1a1.5 1.5 0 1 1 0-3zm-4-4a1.5 1.5 0 0 1 1.493 1.356L17.5 3v2a1.5 1.5 0 0 1-2.993.144L14.5 5V3A1.5 1.5 0 0 1 16 1.5"/></g></svg>