<?xml version="1.0" encoding="UTF-8"?>
<svg width="24px" height="24px" viewBox="0 0 24 24" version="1.1" xmlns="http://www.w3.org/2000/svg" xmlns:xlink="http://www.w3.org/1999/xlink">
    <title>unlink_2_fill</title>
    <g id="页面-1" stroke="none" stroke-width="1" fill="none" fill-rule="evenodd">
        <g id="File" transform="translate(-672.000000, -144.000000)" fill-rule="nonzero">
            <g id="unlink_2_fill" transform="translate(672.000000, 144.000000)">
                <rect id="矩形" x="0" y="0" width="24" height="24"></rect>
                <path d="M8.00007,17.5 C8.77976882,17.5 9.420519,18.0949121 9.49320345,18.8555442 L9.50007,19 L9.50007,21 C9.50007,21.8284 8.8285,22.5 8.00007,22.5 C7.22037118,22.5 6.579621,21.9050879 6.50693655,21.1444558 L6.50007,21 L6.50007,19 C6.50007,18.1716 7.17164,17.5 8.00007,17.5 Z M16.2447,9.88048 C16.7938875,9.33130187 17.662909,9.29697824 18.2520757,9.7775091 L18.366,9.88048 L20.1319,11.6464 C22.475,13.9895 22.475,17.7885 20.1319,20.1317 C17.8488795,22.4147205 14.1836633,22.4732595 11.8296685,20.307317 L11.6466,20.1317 L9.88072,18.3658 C9.29493,17.78 9.29493,16.8302 9.88072,16.2444 C10.4298887,15.6952125 11.298997,15.6608883 11.8880922,16.1414273 L12.002,16.2444 L13.7679,18.0103 C14.9395,19.1819 16.839,19.1819 18.0106,18.0103 C19.135336,16.88566 19.1803254,15.0900952 18.1455683,13.9116927 L18.0106,13.7677 L16.2447,12.0018 C15.6589,11.416 15.6589,10.4663 16.2447,9.88048 Z M5.00007,15.5 C5.8285,15.5 6.50007,16.1716 6.50007,17 C6.50007,17.7796706 5.90518446,18.4204457 5.14453046,18.4931332 L5.00007,18.5 L4.00007,18.5 C3.17164,18.5 2.50007,17.8284 2.50007,17 C2.50007,16.2203294 3.09495554,15.5795543 3.85560954,15.5068668 L4.00007,15.5 L5.00007,15.5 Z M8.81804,8.81794 C9.36721812,8.26877125 10.2363005,8.2344482 10.8254749,8.71497086 L10.9394,8.81794 L15.182,13.0606 C15.7678,13.6464 15.7678,14.5961 15.182,15.1819 C14.6328125,15.7310875 13.763791,15.7654117 13.1746243,15.2848727 L13.0607,15.1819 L8.81804,10.9393 C8.23226,10.3535 8.23226,9.40373 8.81804,8.81794 Z M3.86844,3.8682 C6.15150923,1.58513077 9.81673615,1.52659053 12.170639,3.69257929 L12.3537,3.8682 L14.1234,5.63783 C14.7091,6.22362 14.7091,7.17337 14.1234,7.75916 C13.5742125,8.30832875 12.7051031,8.3426518 12.1159254,7.8621209 L12.002,7.75915 L10.2324,5.98952 C9.06083,4.81795 7.16134,4.81795 5.98976,5.98952 C4.8650528,7.1142272 4.82006451,8.90979469 5.85479514,10.0882061 L5.98976,10.2322 L7.7594,12.0018 C8.34518,12.5876 8.34518,13.5373 7.7594,14.1231 C7.21022187,14.6722875 6.34115703,14.7066117 5.75200131,14.2260727 L5.63808,14.1231 L3.86844,12.3535 C1.5253,10.0103 1.5253,6.21134 3.86844,3.8682 Z M20.0001,5.5 C20.8285,5.5 21.5001,6.17157 21.5001,7 C21.5001,7.82843 20.8285,8.5 20.0001,8.5 L19.0001,8.5 C18.1716,8.5 17.5001,7.82843 17.5001,7 C17.5001,6.17157 18.1716,5.5 19.0001,5.5 L20.0001,5.5 Z M16.0001,1.5 C16.7797706,1.5 17.4205457,2.09488554 17.4932332,2.85553954 L17.5001,3 L17.5001,5 C17.5001,5.82843 16.8285,6.5 16.0001,6.5 C15.2203353,6.5 14.5796433,5.90511446 14.5069659,5.14446046 L14.5001,5 L14.5001,3 C14.5001,2.17157 15.1716,1.5 16.0001,1.5 Z" id="形状" fill="#09244B"></path>
            </g>
        </g>
    </g>
</svg>