<?xml version="1.0" encoding="UTF-8"?>
<svg width="24px" height="24px" viewBox="0 0 24 24" version="1.1" xmlns="http://www.w3.org/2000/svg" xmlns:xlink="http://www.w3.org/1999/xlink">
    <title>upload_3_fill</title>
    <g id="页面-1" stroke="none" stroke-width="1" fill="none" fill-rule="evenodd">
        <g id="File" transform="translate(-48.000000, -240.000000)" fill-rule="nonzero">
            <g id="upload_3_fill" transform="translate(48.000000, 240.000000)">
                <rect id="矩形" x="0" y="0" width="24" height="24"></rect>
                <path d="M11.1168,9.47345 C11.5722667,9.018702 12.2911573,8.98839418 12.7817472,9.38250214 L12.8832,9.47345 L15.7066,12.2924 C16.0974,12.6826 16.0979,13.3158 15.7077,13.7066 C15.3474231,14.0673385 14.7802633,14.0955136 14.3876863,13.7908108 L14.2934,13.7077 L13.0000009,12.4163 L13.0000009,21 C13.0000009,21.5523 12.5523,22 12.0000009,22 C11.4871501,22 11.0644916,21.613973 11.0067284,21.1166239 L11.0000009,21 L11.0000009,12.4163 L9.70655,13.7077 C9.31572,14.0979 8.68256,14.0974 8.29234,13.7066 C7.93213692,13.3458615 7.90485503,12.7785811 8.21018757,12.3865388 L8.29345,12.2924 L11.1168,9.47345 Z M11.5,2 C14.2845,2 16.6601,3.7509 17.5858,6.2118 C20.13,6.90722 22,9.23523 22,12 C22,15.2383886 19.434417,17.8775714 16.2249377,17.9958615 L16,18 L15,18 L15,16 C15.7686,16 16.5371,15.7065 17.123,15.1197 C18.246776,13.9941 18.2903446,12.1984968 17.2547676,11.0209775 L17.1197,10.8771 L14.2963,8.05813 C13.0744926,6.83825815 11.1236438,6.79306844 9.84784221,7.92258765 L9.70371,8.05813 L6.88035,10.8771 C5.70785,12.0477 5.70636,13.9472 6.87701,15.1197 C7.40967364,15.6531545 8.09322983,15.9442124 8.79053359,15.9927233 L9,16 L9,18 L7,18 C4.23858,18 2,15.7614 2,13 C2,10.9495 3.23434,9.18724 5.00053,8.41581 C5.04561,4.86476 7.93825,2 11.5,2 Z" id="形状" fill="#09244B"></path>
            </g>
        </g>
    </g>
</svg>