<?xml version="1.0" encoding="UTF-8"?>
<svg width="24px" height="24px" viewBox="0 0 24 24" version="1.1" xmlns="http://www.w3.org/2000/svg" xmlns:xlink="http://www.w3.org/1999/xlink">
    <title>upload_fill</title>
    <g id="页面-1" stroke="none" stroke-width="1" fill="none" fill-rule="evenodd">
        <g id="File" transform="translate(-96.000000, -240.000000)" fill-rule="nonzero">
            <g id="upload_fill" transform="translate(96.000000, 240.000000)">
                <rect id="矩形" x="0" y="0" width="24" height="24"></rect>
                <path d="M11,8.99998 L11,15 C11,15.5523 11.4477,16 12,16 C12.51285,16 12.9355092,15.613973 12.9932725,15.1166239 L13,15 L13,8.99998 L19,8.99998 C20.0543909,8.99998 20.9181678,9.81586645 20.9945144,10.8507362 L21,11 L21,20 C21,21.0543909 20.18415,21.9181678 19.1492661,21.9945144 L19,22 L5,22 C3.94563773,22 3.08183483,21.18415 3.00548573,20.1492661 L3,20 L3,11 C3,9.94562818 3.81587733,9.08181574 4.85073759,9.00546579 L5,8.99998 L11,8.99998 Z M12.8839,2.46853 L16.2426,5.82729 C16.6332,6.21782 16.6332,6.85098 16.2426,7.2415 C15.8521,7.63203 15.219,7.63203 14.8284,7.2415 L13,5.41308 L13,8.99998 L11,8.99998 L11,5.41308 L9.17157,7.2415 C8.78105,7.63203 8.14788,7.63203 7.75736,7.2415 C7.36684,6.85098 7.36684,6.21782 7.75736,5.82729 L11.1161,2.46853 C11.6043,1.98038 12.3957,1.98038 12.8839,2.46853 Z" id="形状" fill="#09244B"></path>
            </g>
        </g>
    </g>
</svg>