<?xml version="1.0" encoding="UTF-8"?>
<svg width="24px" height="24px" viewBox="0 0 24 24" version="1.1" xmlns="http://www.w3.org/2000/svg" xmlns:xlink="http://www.w3.org/1999/xlink">
    <title>upload_2_fill</title>
    <g id="页面-1" stroke="none" stroke-width="1" fill="none" fill-rule="evenodd">
        <g id="File" transform="translate(0.000000, -240.000000)" fill-rule="nonzero">
            <g id="upload_2_fill" transform="translate(0.000000, 240.000000)">
                <rect id="矩形" x="0" y="0" width="24" height="24"></rect>
                <path d="M20,14.5 C20.8284,14.5 21.5,15.1716 21.5,16 L21.5,20 C21.5,21.3807 20.3807,22.5 19,22.5 L5,22.5 C3.61929,22.5 2.5,21.3807 2.5,20 L2.5,16 C2.5,15.1716 3.17157,14.5 4,14.5 C4.82843,14.5 5.5,15.1716 5.5,16 L5.5,19.5 L18.5,19.5 L18.5,16 C18.5,15.1716 19.1716,14.5 20,14.5 Z M13.2374,3.12084 L17.3033,7.1867 C17.8891,7.77249 17.8891,8.72224 17.3033,9.30802 C16.7175,9.89381 15.7678,9.89381 15.182,9.30802 L13.5,7.62604 L13.5,16 C13.5,16.8284 12.8284,17.5 12,17.5 C11.1716,17.5 10.5,16.8284 10.5,16 L10.5,7.62604 L8.81802,9.30802 C8.23223,9.89381 7.28249,9.89381 6.6967,9.30802 C6.11091,8.72224 6.11091,7.77249 6.6967,7.1867 L10.7626,3.12084 C11.446,2.43742 12.554,2.43742 13.2374,3.12084 Z" id="形状" fill="#09244B"></path>
            </g>
        </g>
    </g>
</svg>