<?xml version="1.0" encoding="UTF-8"?>
<svg width="24px" height="24px" viewBox="0 0 24 24" version="1.1" xmlns="http://www.w3.org/2000/svg" xmlns:xlink="http://www.w3.org/1999/xlink">
    <title>upload_line</title>
    <g id="页面-1" stroke="none" stroke-width="1" fill="none" fill-rule="evenodd">
        <g id="File" transform="translate(-96.000000, -192.000000)" fill-rule="nonzero">
            <g id="upload_line" transform="translate(96.000000, 192.000000)">
                 <path d="M24,0 L24,24 L0,24 L0,0 L24,0 Z M12.5934901,23.257841 L12.5819402,23.2595131 L12.5108777,23.2950439 L12.4918791,23.2987469 L12.4918791,23.2987469 L12.4767152,23.2950439 L12.4056548,23.2595131 C12.3958229,23.2563662 12.3870493,23.2590235 12.3821421,23.2649074 L12.3780323,23.275831 L12.360941,23.7031097 L12.3658947,23.7234994 L12.3769048,23.7357139 L12.4804777,23.8096931 L12.4953491,23.8136134 L12.4953491,23.8136134 L12.5071152,23.8096931 L12.6106902,23.7357139 L12.6232938,23.7196733 L12.6232938,23.7196733 L12.6266527,23.7031097 L12.609561,23.275831 C12.6075724,23.2657013 12.6010112,23.2592993 12.5934901,23.257841 L12.5934901,23.257841 Z M12.8583906,23.1452862 L12.8445485,23.1473072 L12.6598443,23.2396597 L12.6498822,23.2499052 L12.6498822,23.2499052 L12.6471943,23.2611114 L12.6650943,23.6906389 L12.6699349,23.7034178 L12.6699349,23.7034178 L12.678386,23.7104931 L12.8793402,23.8032389 C12.8914285,23.8068999 12.9022333,23.8029875 12.9078286,23.7952264 L12.9118235,23.7811639 L12.8776777,23.1665331 C12.8752882,23.1545897 12.8674102,23.1470016 12.8583906,23.1452862 L12.8583906,23.1452862 Z M12.1430473,23.1473072 C12.1332178,23.1423925 12.1221763,23.1452606 12.1156365,23.1525954 L12.1099173,23.1665331 L12.0757714,23.7811639 C12.0751323,23.7926639 12.0828099,23.8018602 12.0926481,23.8045676 L12.108256,23.8032389 L12.3092106,23.7104931 L12.3186497,23.7024347 L12.3186497,23.7024347 L12.3225043,23.6906389 L12.340401,23.2611114 L12.337245,23.2485176 L12.337245,23.2485176 L12.3277531,23.2396597 L12.1430473,23.1473072 Z" id="MingCute" fill-rule="nonzero"></path>
                <path d="M8,8.99999 L8,10.99999 L5,10.99999 L5,19.99999 L19,19.99999 L19,10.99999 L16,10.99999 L16,8.99999 L19,8.99999 C20.1046,8.99999 21,9.89542 21,10.99999 L21,19.99999 C21,21.1046 20.1046,21.99999 19,21.99999 L5,21.99999 C3.89543,21.99999 3,21.1046 3,19.99999 L3,10.99999 C3,9.89541 3.89543,8.99999 5,8.99999 L8,8.99999 Z M12.8839,2.46853 L16.2426,5.82729 C16.6332,6.21782 16.6332,6.85098 16.2426,7.2415 C15.8521,7.63203 15.219,7.63203 14.8284,7.2415 L13,5.41308 L13,15 C13,15.5523 12.5523,16 12,16 C11.4477,16 11,15.5523 11,15 L11,5.41308 L9.17157,7.2415 C8.78105,7.63203 8.14788,7.63203 7.75736,7.2415 C7.36684,6.85098 7.36684,6.21782 7.75736,5.82729 L11.1161,2.46853 C11.6043,1.98038 12.3957,1.98038 12.8839,2.46853 Z" id="形状" fill="#09244B"></path>
            </g>
        </g>
    </g>
</svg>