<svg xmlns="http://www.w3.org/2000/svg" width="24" height="24"><g fill="none"><path d="M24 0v24H0V0zM12.593 23.258l-.011.002-.071.035-.02.004-.014-.004-.071-.035c-.01-.004-.019-.001-.024.005l-.004.01-.017.428.005.02.01.013.104.074.015.004.012-.004.104-.074.012-.016.004-.017-.017-.427c-.002-.01-.009-.017-.017-.018m.265-.113-.013.002-.185.093-.01.01-.003.011.018.43.005.012.008.007.201.093c.012.004.023 0 .029-.008l.004-.014-.034-.614c-.003-.012-.01-.02-.02-.022m-.715.002a.023.023 0 0 0-.027.006l-.006.014-.034.614c0 .012.007.02.017.024l.015-.002.201-.093.01-.008.004-.011.017-.43-.003-.012-.01-.01z"/><path fill="#09244B" d="M11.117 9.473a1.25 1.25 0 0 1 1.665-.09l.101.09 2.824 2.82a1 1 0 0 1-1.32 1.498l-.094-.083L13 12.416V21a1 1 0 0 1-1.993.117L11 21v-8.584l-1.293 1.292a1 1 0 0 1-1.497-1.321l.083-.095zM11.5 2c2.784 0 5.16 1.75 6.086 4.212a6 6 0 0 1-1.36 11.784L16 18h-1v-2a3 3 0 0 0 2.255-4.979l-.135-.144-2.824-2.819a3.25 3.25 0 0 0-4.448-.135l-.144.135-2.824 2.82a3 3 0 0 0 1.91 5.115L9 16v2H7a5 5 0 0 1-2-9.584A6.5 6.5 0 0 1 11.5 2"/></g></svg>