<?xml version="1.0" encoding="UTF-8"?>
<svg width="24px" height="24px" viewBox="0 0 24 24" version="1.1" xmlns="http://www.w3.org/2000/svg" xmlns:xlink="http://www.w3.org/1999/xlink">
    <title>xls_line</title>
    <g id="页面-1" stroke="none" stroke-width="1" fill="none" fill-rule="evenodd">
        <g id="File" transform="translate(-624.000000, -96.000000)" fill-rule="nonzero">
            <g id="xls_line" transform="translate(624.000000, 96.000000)">
                <rect id="矩形" x="0" y="0" width="24" height="24"></rect>
                <path d="M13.5858,2 C14.1162,2 14.6249,2.21071 15,2.58579 L19.4142,7 C19.7893,7.37507 20,7.88378 20,8.41421 L20,20 C20,21.1046 19.1046,22 18,22 L6,22 C4.89543,22 4,21.1046 4,20 L4,4 C4,2.89543 4.89543,2 6,2 L13.5858,2 Z M12,4 L6,4 L6,20 L18,20 L18,10 L13.5,10 C12.6716,10 12,9.32843 12,8.5 L12,4 Z M10.9393,12.5251 L12,13.5858 L13.0607,12.5251 C13.4512,12.1346 14.0844,12.1346 14.4749,12.5251 C14.8655,12.9157 14.8655,13.5488 14.4749,13.9393 L13.4142,15.0001 L14.4748,16.0607 C14.8653,16.4512 14.8653,17.0844 14.4748,17.4749 C14.0843,17.8654 13.4511,17.8654 13.0606,17.4749 L12,16.4143 L10.9394,17.4749 C10.5489,17.8654 9.91571,17.8654 9.52518,17.4749 C9.13466,17.0844 9.13466,16.4512 9.52518,16.0607 L10.5858,15.0001 L9.52507,13.9393 C9.13455,13.5488 9.13455,12.9157 9.52507,12.5251 C9.9156,12.1346 10.5488,12.1346 10.9393,12.5251 Z M14,4.41421 L14,8 L17.5858,8 L14,4.41421 Z" id="形状" fill="#09244B"></path>
            </g>
        </g>
    </g>
</svg>