<?xml version="1.0" encoding="UTF-8"?>
<svg width="24px" height="24px" viewBox="0 0 24 24" version="1.1" xmlns="http://www.w3.org/2000/svg" xmlns:xlink="http://www.w3.org/1999/xlink">
    <title>zoom_out_line</title>
    <g id="页面-1" stroke="none" stroke-width="1" fill="none" fill-rule="evenodd">
        <g id="File" transform="translate(-864.000000, -96.000000)" fill-rule="nonzero">
            <g id="zoom_out_line" transform="translate(864.000000, 96.000000)">
                <rect id="矩形" x="0" y="0" width="24" height="24"></rect>
                <path d="M10.5,2 C15.1944,2 19,5.80558 19,10.5 C19,12.4869 18.3183,14.3145 17.176,15.7618 L20.8284,19.4142 C21.2189,19.8047 21.2189,20.4379 20.8284,20.8284 C20.4379,21.2189 19.8047,21.2189 19.4142,20.8284 L15.7618,17.176 C14.3145,18.3183 12.4869,19 10.5,19 C5.80558,19 2,15.1944 2,10.5 C2,5.80558 5.80558,2 10.5,2 Z M10.5,4 C6.91015,4 4,6.91015 4,10.5 C4,14.0899 6.91015,17 10.5,17 C14.0899,17 17,14.0899 17,10.5 C17,6.91015 14.0899,4 10.5,4 Z M14,9.5 C14.5523,9.5 15,9.94772 15,10.5 C15,11.0523 14.5523,11.5 14,11.5 L7,11.5 C6.44772,11.5 6,11.0523 6,10.5 C6,9.94772 6.44772,9.5 7,9.5 L14,9.5 Z" id="形状" fill="#09244B"></path>
            </g>
        </g>
    </g>
</svg>