<?xml version="1.0" encoding="UTF-8"?>
<svg width="24px" height="24px" viewBox="0 0 24 24" version="1.1" xmlns="http://www.w3.org/2000/svg" xmlns:xlink="http://www.w3.org/1999/xlink">
    <title>airplay_fill</title>
    <g id="页面-1" stroke="none" stroke-width="1" fill="none" fill-rule="evenodd">
        <g id="airplay_fill" fill-rule="nonzero">
            <rect id="矩形" x="0" y="0" width="24" height="24"></rect>
            <path d="M11.5142,16.9027 C11.7535,16.5679 12.251,16.5679 12.4903,16.9027 L12.4903,16.9027 L15.256,20.771 C15.5399,21.1681 15.256,21.72 14.7679,21.72 L14.7679,21.72 L9.2366,21.72 C8.74846,21.72 8.46462,21.1681 8.74851,20.771 L8.74851,20.771 Z M20,4 C21.1046,4 22,4.89543 22,6 L22,17 C22,18.1046 21.1046,19 20,19 L16.2895,19 L13.1388,14.593 C12.5804,13.8119 11.4194,13.8119 10.861,14.593 L7.71025,19 L4,19 C2.89543,19 2,18.1046 2,17 L2,6 C2,4.89543 2.89543,4 4,4 L20,4 Z" id="形状结合" fill="#09244B"></path>
        </g>
    </g>
</svg>