<?xml version="1.0" encoding="UTF-8"?>
<svg width="24px" height="24px" viewBox="0 0 24 24" version="1.1" xmlns="http://www.w3.org/2000/svg" xmlns:xlink="http://www.w3.org/1999/xlink">
    <title>airplay_line</title>
    <g id="页面-1" stroke="none" stroke-width="1" fill="none" fill-rule="evenodd">
        <g id="Device" fill-rule="nonzero">
            <g id="airplay_line">
                <rect id="矩形" x="0" y="0" width="24" height="24"></rect>
                <path d="M11.1784,15.9565 C11.5561188,15.4283125 12.3158102,15.3953008 12.7411931,15.8574648 L12.8216,15.9565 L15.8022,20.1255 C16.2583773,20.7636136 15.8436707,21.6389926 15.0904485,21.717254 L14.9806,21.7229 L9.01947,21.7229 C8.23508182,21.7229 7.76411343,20.8764351 8.13855049,20.218149 L8.19785,20.1255 L11.1784,15.9565 Z M12,18.2462 L10.9443,19.7229 L13.0558,19.7229 L12,18.2462 Z M20,4 C21.0543909,4 21.9181678,4.81587733 21.9945144,5.85073759 L22,6 L22,17 C22,18.0543909 21.18415,18.9181678 20.1492661,18.9945144 L20,19 L16,19 L16,17 L20,17 L20,6 L4,6 L4,17 L8,17 L8,19 L4,19 C2.94563773,19 2.08183483,18.18415 2.00548573,17.1492661 L2,17 L2,6 C2,4.94563773 2.81587733,4.08183483 3.85073759,4.00548573 L4,4 L20,4 Z" id="形状" fill="#09244B"></path>
            </g>
        </g>
    </g>
</svg>