<svg width="24" height="24" viewBox="0 0 24 24" fill="none" xmlns="http://www.w3.org/2000/svg">
<rect width="24" height="24" fill="white" fill-opacity="0.01"/>
<path d="M2 6C2 4.89543 2.89543 4 4 4H20C21.1046 4 22 4.89543 22 6V17C22 18.1046 21.1046 19 20 19H17.2474L13.627 13.936C12.8293 12.8202 11.1707 12.8202 10.373 13.936L6.75259 19H4C2.89543 19 2 18.1046 2 17V6Z" fill="#09244B"/>
<path d="M12.8135 15.9453C12.4146 15.3874 11.5854 15.3874 11.1865 15.9453L8.18653 20.1414C7.71336 20.8032 8.18644 21.723 9.00001 21.723H15C15.8136 21.723 16.2867 20.8032 15.8135 20.1414L12.8135 15.9453Z" fill="#09244B"/>
</svg>
