<svg width="24" height="24" viewBox="0 0 24 24" fill="none" xmlns="http://www.w3.org/2000/svg">
<rect width="24" height="24" fill="white" fill-opacity="0.01"/>
<path d="M4 4C2.89543 4 2 4.89543 2 6V17C2 18.1046 2.89543 19 4 19H8V17H4V6H20V17H16V19H20C21.1046 19 22 18.1046 22 17V6C22 4.89543 21.1046 4 20 4H4Z" fill="#09244B"/>
<path fill-rule="evenodd" clip-rule="evenodd" d="M12.8216 15.9565C12.4188 15.3931 11.5813 15.3931 11.1784 15.9565L8.19785 20.1255C7.71997 20.7939 8.19773 21.7229 9.01947 21.7229H14.9806C15.8022 21.7229 16.2801 20.794 15.8022 20.1255L12.8216 15.9565ZM10.9443 19.7229L12 18.2462L13.0558 19.7229H10.9443Z" fill="#09244B"/>
</svg>
