<?xml version="1.0" encoding="UTF-8"?>
<svg width="24px" height="24px" viewBox="0 0 24 24" version="1.1" xmlns="http://www.w3.org/2000/svg" xmlns:xlink="http://www.w3.org/1999/xlink">
    <title>airplay_fill</title>
    <g id="页面-1" stroke="none" stroke-width="1" fill="none" fill-rule="evenodd">
        <g id="Device" transform="translate(0.000000, -48.000000)" fill-rule="nonzero">
            <g id="airplay_fill" transform="translate(0.000000, 48.000000)">
                <rect id="矩形" x="0" y="0" width="24" height="24"></rect>
                <path d="M11.1865,15.9453 C11.5604687,15.4222687 12.3126309,15.3895793 12.7338738,15.8472316 L12.8135,15.9453 L15.8135,20.1414 C16.2641667,20.7716857 15.8565113,21.635985 15.1138468,21.71687 L15,21.723 L9.00001,21.723 C8.22518143,21.723 7.75918732,20.8887143 8.12530595,20.2375708 L8.18653,20.1414 L11.1865,15.9453 Z M20,4 C21.1046,4 22,4.89543 22,6 L22,17 C22,18.1046 21.1046,19 20,19 L17.2474,19 L13.627,13.936 C12.8293,12.8202 11.1707,12.8202 10.373,13.936 L6.75259,19 L4,19 C2.89543,19 2,18.1046 2,17 L2,6 C2,4.89543 2.89543,4 4,4 L20,4 Z" id="形状" fill="#09244B"></path>
            </g>
        </g>
    </g>
</svg>