<?xml version="1.0" encoding="UTF-8"?>
<svg width="24px" height="24px" viewBox="0 0 24 24" version="1.1" xmlns="http://www.w3.org/2000/svg" xmlns:xlink="http://www.w3.org/1999/xlink">
    <title>alarm_1_line</title>
    <g id="页面-1" stroke="none" stroke-width="1" fill="none" fill-rule="evenodd">
        <g id="alarm_1_line">
            <rect id="矩形" fill-opacity="0.01" fill="#FFFFFF" fill-rule="nonzero" x="0" y="0" width="24" height="24"></rect>
            <path d="M17.4999,3 C19.4329,3 21,4.567 21,6.5 C21,7.44104 20.6286,8.2944 20.0256,8.92274 C20.6487,10.1468 21,11.5324 21,13 C21,15.5245375 19.9605517,17.8063411 18.2863417,19.4407244 L18.0644,19.6502 L18.7071,20.2929 C19.0976,20.6834 19.0976,21.3166 18.7071,21.7071 C18.3466385,22.0675615 17.7793793,22.0952893 17.3871027,21.7902834 L17.2929,21.7071 L16.4248,20.839 C15.1181,21.5781 13.6083,22 12,22 C10.5154154,22 9.11472568,21.6405112 7.88031173,21.0038831 L7.57522,20.839 L6.70711,21.7071 C6.31658,22.0976 5.68342,22.0976 5.29289,21.7071 C4.93241,21.3466385 4.90468077,20.7793793 5.20970231,20.3871027 L5.29289,20.2929 L5.93563,19.6502 C4.13179,18.0043 3,15.6343 3,13 C3,11.5324 3.35129,10.1468 3.97437,8.92277 C3.37198,8.29481 3,7.44083 3,6.5 C3,4.567 4.567,3 6.5,3 C7.65054,3 8.67018,3.55535 9.30735,4.40972 C10.1575,4.14349 11.062,4 12,4 C12.938,4 13.8424,4.14349 14.6926,4.40972 C15.3302,3.5548 16.3495,3 17.4999,3 Z M12,6 C8.13401,6 5,9.13401 5,13 C5,16.866 8.13401,20 12,20 C15.866,20 19,16.866 19,13 C19,9.13401 15.866,6 12,6 Z M12,8 C12.5523,8 13,8.44772 13,9 L13,12.5859 L14.8125,14.3983 C15.203,14.7889 15.203,15.422 14.8125,15.8125 C14.4219,16.2031 13.7888,16.2031 13.3982,15.8125 L11.2928,13.7071 C11.0941,13.5084 10.9965,13.2468 11,12.9863 L11,9 C11,8.44772 11.4477,8 12,8 Z M6.5,5 C5.67157,5 5,5.67157 5,6.5 C5,6.73657 5.05454,6.96034 5.15223,7.15953 C5.78405,6.41945 6.53375,5.78303 7.37225,5.27935 C7.12608,5.10316 6.82483,5 6.5,5 Z M17.4999,5 C17.1751,5 16.8739,5.10331 16.6278,5.27935 C17.4662,5.783 18.2159,6.41936 18.8476,7.15938 C18.9452,6.96015 18.9999,6.7363 18.9999,6.5 C18.9999,5.67157 18.3283,5 17.4999,5 Z" id="形状" fill="#09244B"></path>
        </g>
    </g>
</svg>