<?xml version="1.0" encoding="UTF-8"?>
<svg width="24px" height="24px" viewBox="0 0 24 24" version="1.1" xmlns="http://www.w3.org/2000/svg" xmlns:xlink="http://www.w3.org/1999/xlink">
    <title>alarm_2_fill</title>
    <g id="页面-1" stroke="none" stroke-width="1" fill="none" fill-rule="evenodd">
        <g id="Device" transform="translate(-96.000000, -48.000000)" fill-rule="nonzero">
            <g id="alarm_2_fill" transform="translate(96.000000, 48.000000)">
                <rect id="矩形" x="0" y="0" width="24" height="24"></rect>
                <path d="M12,4 C16.9706,4 21,8.02944 21,13 C21,17.9706 16.9706,22 12,22 C7.02944,22 3,17.9706 3,13 C3,8.02944 7.02944,4 12,4 Z M12.0001,8 C11.48725,8 11.0645908,8.38604429 11.0068275,8.88337975 L11.0001,9 L11.0001,12.9863 C10.9971833,13.2033833 11.064475,13.4212306 11.201975,13.6028046 L11.2929,13.7071 L13.3983,15.8125 C13.7889,16.2031 14.422,16.2031 14.8125,15.8125 C15.1730538,15.4520385 15.2007888,14.8848645 14.8957047,14.4925224 L14.8125,14.3983 L13.0001,12.5859 L13.0001,9 C13.0001,8.44772 12.5524,8 12.0001,8 Z M18.0008,2.606 C19.252,3.3298 20.3599,4.27272 21.2724,5.38217 C21.6232,5.80873 21.5618,6.43891 21.1352,6.78972 C20.7087,7.14054 20.0785,7.07914 19.7277,6.65258 C18.9663,5.72685 18.0421,4.94042 16.9993,4.33721 C16.5212,4.06066 16.3579,3.44894 16.6344,2.97088 C16.911,2.49281 17.5227,2.32945 18.0008,2.606 Z M7.36563,2.97088 C7.64218,3.44894 7.47882,4.06066 7.00075,4.33721 C5.95799,4.94042 5.03373,5.72685 4.27237,6.65258 C3.92156,7.07914 3.29138,7.14054 2.86482,6.78972 C2.43827,6.43891 2.37687,5.80873 2.72769,5.38217 C3.64015,4.27272 4.74805,3.3298 5.9993,2.606 C6.47736,2.32945 7.08909,2.49282 7.36563,2.97088 Z" id="形状" fill="#09244B"></path>
            </g>
        </g>
    </g>
</svg>