<?xml version="1.0" encoding="UTF-8"?>
<svg width="24px" height="24px" viewBox="0 0 24 24" version="1.1" xmlns="http://www.w3.org/2000/svg" xmlns:xlink="http://www.w3.org/1999/xlink">
    <title>alarm_2_line</title>
    <g id="页面-1" stroke="none" stroke-width="1" fill="none" fill-rule="evenodd">
        <g id="Device" transform="translate(-96.000000, 0.000000)" fill-rule="nonzero">
            <g id="alarm_2_line" transform="translate(96.000000, 0.000000)">
                <rect id="矩形" x="0" y="0" width="24" height="24"></rect>
                <path d="M12,4 C16.9706,4 21,8.02944 21,13 C21,17.9706 16.9706,22 12,22 C7.02944,22 3,17.9706 3,13 C3,8.02944 7.02944,4 12,4 Z M12,6 C8.13401,6 5,9.13401 5,13 C5,16.866 8.13401,20 12,20 C15.866,20 19,16.866 19,13 C19,9.13401 15.866,6 12,6 Z M12,8 C12.51285,8 12.9355092,8.38604429 12.9932725,8.88337975 L13,9 L13,12.5859 L14.8125,14.3983 C15.203,14.7889 15.203,15.422 14.8125,15.8125 C14.4519462,16.1730538 13.8847651,16.2007888 13.4924224,15.8957047 L13.3982,15.8125 L11.2928,13.7071 C11.1272167,13.5415167 11.0318417,13.3322528 11.006675,13.1163454 L11,12.9863 L11,9 C11,8.44772 11.4477,8 12,8 Z M16.6344,2.97088 C16.911,2.49281 17.5227,2.32945 18.0008,2.606 C19.252,3.3298 20.3599,4.27272 21.2724,5.38217 C21.6232,5.80873 21.5618,6.43891 21.1352,6.78972 C20.7087,7.14054 20.0785,7.07914 19.7277,6.65258 C18.9663,5.72685 18.0421,4.94042 16.9993,4.33721 C16.5212,4.06066 16.3579,3.44894 16.6344,2.97088 Z M5.9993,2.606 C6.47736,2.32945 7.08909,2.49282 7.36563,2.97088 C7.64218,3.44894 7.47882,4.06066 7.00075,4.33721 C5.95799,4.94042 5.03373,5.72685 4.27237,6.65258 C3.92156,7.07914 3.29138,7.14054 2.86482,6.78972 C2.43827,6.43891 2.37687,5.80873 2.72769,5.38217 C3.64015,4.27272 4.74805,3.3298 5.9993,2.606 Z" id="形状" fill="#09244B"></path>
            </g>
        </g>
    </g>
</svg>