<?xml version="1.0" encoding="UTF-8"?>
<svg width="24px" height="24px" viewBox="0 0 24 24" version="1.1" xmlns="http://www.w3.org/2000/svg" xmlns:xlink="http://www.w3.org/1999/xlink">
    <title>barcode_line</title>
    <g id="Icon" stroke="none" stroke-width="1" fill="none" fill-rule="evenodd">
        <g id="Device" transform="translate(-816.000000, -288.000000)">
            <g id="barcode_line" transform="translate(816.000000, 288.000000)">
                <path d="M24,0 L24,24 L0,24 L0,0 L24,0 Z M12.5935,23.2578 L12.5819,23.2595 L12.5109,23.295 L12.4919,23.2987 L12.4767,23.295 L12.4057,23.2595 C12.3958,23.2564 12.387,23.259 12.3821,23.2649 L12.378,23.2758 L12.3609,23.7031 L12.3659,23.7235 L12.3769,23.7357 L12.4805,23.8097 L12.4953,23.8136 L12.5071,23.8097 L12.6107,23.7357 L12.6233,23.7197 L12.6267,23.7031 L12.6096,23.2758 C12.6076,23.2657 12.601,23.2593 12.5935,23.2578 Z M12.8584,23.1453 L12.8445,23.1473 L12.6598,23.2397 L12.6499,23.2499 L12.6472,23.2611 L12.6651,23.6906 L12.6699,23.7034 L12.6784,23.7105 L12.8793,23.8032 C12.8914,23.8069 12.9022,23.803 12.9078,23.7952 L12.9118,23.7812 L12.8777,23.1665 C12.8753,23.1546 12.8674,23.147 12.8584,23.1453 Z M12.143,23.1473 C12.1332,23.1424 12.1222,23.1453 12.1156,23.1526 L12.1099,23.1665 L12.0758,23.7812 C12.0751,23.7927 12.0828,23.8019 12.0926,23.8046 L12.1083,23.8032 L12.3092,23.7105 L12.3186,23.7024 L12.3225,23.6906 L12.3404,23.2611 L12.3372,23.2485 L12.3278,23.2397 L12.143,23.1473 Z" id="MingCute" fill-rule="nonzero"></path>
                <path d="M2,7 C2,5.89543 2.89543,5 4,5 L20,5 C21.1046,5 22,5.89543 22,7 L22,17 C22,18.1046 21.1046,19 20,19 L4,19 C2.89543,19 2,18.1046 2,17 L2,7 Z M20,7 L4,7 L4,17 L20,17 L20,7 Z M6,8 C6.55228,8 7,8.44772 7,9 L7,15 C7,15.5523 6.55228,16 6,16 C5.44772,16 5,15.5523 5,15 L5,9 C5,8.44772 5.44772,8 6,8 Z M10,8 C10.5523,8 11,8.44772 11,9 C11,8.44772 11.4477,8 12,8 C12.5523,8 13,8.44772 13,9 L13,15 C13,15.5523 12.5523,16 12,16 C11.4477,16 11,15.5523 11,15 C11,15.5523 10.5523,16 10,16 C9.44772,16 9,15.5523 9,15 L9,9 C9,8.44772 9.44772,8 10,8 Z M15,8 C15.5523,8 16,8.44772 16,9 L16,15 C16,15.5523 15.5523,16 15,16 C14.4477,16 14,15.5523 14,15 L14,9 C14,8.44772 14.4477,8 15,8 Z M18,8 C18.5523,8 19,8.44772 19,9 L19,15 C19,15.5523 18.5523,16 18,16 C17.4477,16 17,15.5523 17,15 L17,9 C17,8.44772 17.4477,8 18,8 Z" id="形状" fill="#09244B"></path>
            </g>
        </g>
    </g>
</svg>