<svg xmlns="http://www.w3.org/2000/svg" width="24" height="24"><g fill="none"><path d="M24 0v24H0V0zM12.594 23.258l-.012.002-.071.035-.02.004-.014-.004-.071-.036c-.01-.003-.019 0-.024.006l-.004.01-.017.428.005.02.01.013.104.074.015.004.012-.004.104-.074.012-.016.004-.017-.017-.427c-.002-.01-.009-.017-.016-.018m.264-.113-.014.002-.184.093-.01.01-.003.011.018.43.005.012.008.008.201.092c.012.004.023 0 .029-.008l.004-.014-.034-.614c-.003-.012-.01-.02-.02-.022m-.715.002a.023.023 0 0 0-.027.006l-.006.014-.034.614c0 .012.007.02.017.024l.015-.002.201-.093.01-.008.003-.011.018-.43-.003-.012-.01-.01z"/><path fill="#09244B" d="M12 8.5a1.5 1.5 0 0 1 1.5 1.5v8.5H15a1.5 1.5 0 0 1 0 3H9a1.5 1.5 0 0 1 0-3h1.5V10A1.5 1.5 0 0 1 12 8.5M7.404 3.282a1.5 1.5 0 0 1 0 2.122A6.475 6.475 0 0 0 5.5 10c0 1.795.726 3.418 1.904 4.596a1.5 1.5 0 1 1-2.122 2.122A9.475 9.475 0 0 1 2.5 10c0-2.623 1.065-5 2.782-6.718a1.5 1.5 0 0 1 2.122 0m11.314 0A9.475 9.475 0 0 1 21.5 10c0 2.623-1.065 5-2.782 6.718a1.5 1.5 0 1 1-2.122-2.122A6.475 6.475 0 0 0 18.5 10a6.475 6.475 0 0 0-1.904-4.596 1.5 1.5 0 1 1 2.122-2.122m-8.486 2.829a1.5 1.5 0 0 1 .103 2.007l-.103.114A2.488 2.488 0 0 0 9.5 10c0 .392.09.76.248 1.088l.086.16a1.5 1.5 0 1 1-2.597 1.503A5.482 5.482 0 0 1 6.5 10c0-1.518.617-2.895 1.61-3.89a1.5 1.5 0 0 1 2.122 0Zm5.657 0A5.488 5.488 0 0 1 17.5 10c0 1-.268 1.94-.737 2.751a1.5 1.5 0 0 1-2.663-1.374l.066-.128A2.48 2.48 0 0 0 14.5 10c0-.622-.225-1.188-.601-1.627l-.131-.14a1.5 1.5 0 1 1 2.121-2.122"/></g></svg>