<?xml version="1.0" encoding="UTF-8"?>
<svg width="24px" height="24px" viewBox="0 0 24 24" version="1.1" xmlns="http://www.w3.org/2000/svg" xmlns:xlink="http://www.w3.org/1999/xlink">
    <title>battery_charging_line</title>
    <g id="页面-1" stroke="none" stroke-width="1" fill="none" fill-rule="evenodd">
        <g id="Device" transform="translate(-96.000000, -96.000000)" fill-rule="nonzero">
            <g id="battery_charging_line" transform="translate(96.000000, 96.000000)">
                 <path d="M24,0 L24,24 L0,24 L0,0 L24,0 Z M12.5934901,23.257841 L12.5819402,23.2595131 L12.5108777,23.2950439 L12.4918791,23.2987469 L12.4918791,23.2987469 L12.4767152,23.2950439 L12.4056548,23.2595131 C12.3958229,23.2563662 12.3870493,23.2590235 12.3821421,23.2649074 L12.3780323,23.275831 L12.360941,23.7031097 L12.3658947,23.7234994 L12.3769048,23.7357139 L12.4804777,23.8096931 L12.4953491,23.8136134 L12.4953491,23.8136134 L12.5071152,23.8096931 L12.6106902,23.7357139 L12.6232938,23.7196733 L12.6232938,23.7196733 L12.6266527,23.7031097 L12.609561,23.275831 C12.6075724,23.2657013 12.6010112,23.2592993 12.5934901,23.257841 L12.5934901,23.257841 Z M12.8583906,23.1452862 L12.8445485,23.1473072 L12.6598443,23.2396597 L12.6498822,23.2499052 L12.6498822,23.2499052 L12.6471943,23.2611114 L12.6650943,23.6906389 L12.6699349,23.7034178 L12.6699349,23.7034178 L12.678386,23.7104931 L12.8793402,23.8032389 C12.8914285,23.8068999 12.9022333,23.8029875 12.9078286,23.7952264 L12.9118235,23.7811639 L12.8776777,23.1665331 C12.8752882,23.1545897 12.8674102,23.1470016 12.8583906,23.1452862 L12.8583906,23.1452862 Z M12.1430473,23.1473072 C12.1332178,23.1423925 12.1221763,23.1452606 12.1156365,23.1525954 L12.1099173,23.1665331 L12.0757714,23.7811639 C12.0751323,23.7926639 12.0828099,23.8018602 12.0926481,23.8045676 L12.108256,23.8032389 L12.3092106,23.7104931 L12.3186497,23.7024347 L12.3186497,23.7024347 L12.3225043,23.6906389 L12.340401,23.2611114 L12.337245,23.2485176 L12.337245,23.2485176 L12.3277531,23.2396597 L12.1430473,23.1473072 Z" id="MingCute" fill-rule="nonzero"></path>
                <path d="M8,6.00003 C8.55228,6.00003 9,6.44774 9,7.00003 C9,7.55231 8.55228,8.00003 8,8.00003 L4,8.00003 L4,16 L7,16 C7.55228,16 8,16.4477 8,17 C8,17.5523 7.55228,18 7,18 L4,18 C2.89543,18 2,17.1046 2,16 L2,8.00003 C2,6.89546 2.89543,6.00003 4,6.00003 L8,6.00003 Z M18,6.00003 C19.1046,6.00003 20,6.89546 20,8.00003 L20,9.00003 C21.1046,9.00003 22,9.89546 22,11 L22,13 C22,14.1046 21.1046,15 20,15 L20,16 C20,17.1046 19.1046,18 18,18 L14,18 C13.4477,18 13,17.5523 13,17 C13,16.4477 13.4477,16 14,16 L18,16 L18,8.00003 L15,8.00003 C14.4477,8.00003 14,7.55231 14,7.00003 C14,6.44774 14.4477,6.00003 15,6.00003 L18,6.00003 Z M12.5145,6.14254 C12.9881,6.42668 13.1416,7.04094 12.8575,7.51452 L10.7662,11 L12.9823,11 C13.7674,11 14.2523,11.8565 13.8484,12.5297 L10.8575,17.5145 C10.5733,17.9881 9.95908,18.1417 9.4855,17.8575 C9.01192,17.5734 8.85836,16.9591 9.14251,16.4855 L11.2338,13 L9.01766,13 C8.2326,13 7.74768,12.1436 8.15159,11.4704 L11.1425,6.48553 C11.4267,6.01195 12.0409,5.85839 12.5145,6.14254 Z" id="形状" fill="#09244B"></path>
            </g>
        </g>
    </g>
</svg>