<?xml version="1.0" encoding="UTF-8"?>
<svg width="24px" height="24px" viewBox="0 0 24 24" version="1.1" xmlns="http://www.w3.org/2000/svg" xmlns:xlink="http://www.w3.org/1999/xlink">
    <title>battery_charging_line</title>
    <g id="页面-1" stroke="none" stroke-width="1" fill="none" fill-rule="evenodd">
        <g id="Device" transform="translate(-96.000000, -96.000000)" fill-rule="nonzero">
            <g id="battery_charging_line" transform="translate(96.000000, 96.000000)">
                <rect id="矩形" transform="translate(12.000000, 12.000000) scale(-1, 1) translate(-12.000000, -12.000000) " x="0" y="0" width="24" height="24"></rect>
                <path d="M8,6.00003 C8.55228,6.00003 9,6.44774 9,7.00003 C9,7.55231 8.55228,8.00003 8,8.00003 L4,8.00003 L4,16 L7,16 C7.55228,16 8,16.4477 8,17 C8,17.5523 7.55228,18 7,18 L4,18 C2.89543,18 2,17.1046 2,16 L2,8.00003 C2,6.89546 2.89543,6.00003 4,6.00003 L8,6.00003 Z M18,6.00003 C19.1046,6.00003 20,6.89546 20,8.00003 L20,9.00003 C21.1046,9.00003 22,9.89546 22,11 L22,13 C22,14.1046 21.1046,15 20,15 L20,16 C20,17.1046 19.1046,18 18,18 L14,18 C13.4477,18 13,17.5523 13,17 C13,16.4477 13.4477,16 14,16 L18,16 L18,8.00003 L15,8.00003 C14.4477,8.00003 14,7.55231 14,7.00003 C14,6.44774 14.4477,6.00003 15,6.00003 L18,6.00003 Z M12.5145,6.14254 C12.9881,6.42668 13.1416,7.04094 12.8575,7.51452 L10.7662,11 L12.9823,11 C13.7674,11 14.2523,11.8565 13.8484,12.5297 L10.8575,17.5145 C10.5733,17.9881 9.95908,18.1417 9.4855,17.8575 C9.01192,17.5734 8.85836,16.9591 9.14251,16.4855 L11.2338,13 L9.01766,13 C8.2326,13 7.74768,12.1436 8.15159,11.4704 L11.1425,6.48553 C11.4267,6.01195 12.0409,5.85839 12.5145,6.14254 Z" id="形状" fill="#09244B"></path>
            </g>
        </g>
    </g>
</svg>