<?xml version="1.0" encoding="UTF-8"?>
<svg width="24px" height="24px" viewBox="0 0 24 24" version="1.1" xmlns="http://www.w3.org/2000/svg" xmlns:xlink="http://www.w3.org/1999/xlink">
    <title>battery_charging_fill</title>
    <g id="页面-1" stroke="none" stroke-width="1" fill="none" fill-rule="evenodd">
        <g id="Device" transform="translate(-96.000000, -144.000000)" fill-rule="nonzero">
            <g id="battery_charging_fill" transform="translate(96.000000, 144.000000)">
                <rect id="矩形" transform="translate(12.000000, 12.000000) scale(-1, 1) translate(-12.000000, -12.000000) " x="0" y="0" width="24" height="24"></rect>
                <path d="M18,6.00003 C19.1046,6.00003 20,6.89546 20,8.00003 L20,9.00003 C21.1046,9.00003 22,9.89546 22,11 L22,13 C22,14.1046 21.1046,15 20,15 L20,16 C20,17.1046 19.1046,18 18,18 L12.8986,18 L15.5634,13.5587 C16.5485,11.9168 15.7596,9.90919 14.1581,9.23406 L14.5725,8.54352 C15.0513,7.74541 15.1158,6.81413 14.8285,6.00003 L18,6.00003 Z M9.10143,6.00003 L6.43661,10.4414 C5.484337,12.0284733 6.18980582,13.9574599 7.68445191,14.6941109 L7.84185,14.766 L7.42752,15.4565 C6.98549538,16.1932077 6.89655195,17.0434112 7.11146097,17.8101643 L7.17149,18 L4,18 C2.94563773,18 2.08183483,17.18415 2.00548573,16.1492661 L2,16 L2,8.00003 C2,6.94566773 2.81587733,6.08186483 3.85073759,6.00551573 L4,6.00003 L9.10143,6.00003 Z M11.1425,6.48553 C11.4267,6.01195 12.0409,5.85839 12.5145,6.14254 C12.9542714,6.40638429 13.1180383,6.95487286 12.9117234,7.41105688 L12.8575,7.51452 L10.7662,11 L12.9823,11 C13.728145,11 14.2030595,11.7729913 13.9023926,12.4274752 L13.8484,12.5297 L10.8575,17.5145 C10.5733,17.9881 9.95908,18.1417 9.4855,17.8575 C9.04574714,17.5936929 8.8819299,17.0451724 9.08827747,16.5889677 L9.14251,16.4855 L11.2338,13 L9.01766,13 C8.271853,13 7.79692235,12.227099 8.09759614,11.5726241 L8.15159,11.4704 L11.1425,6.48553 Z" id="形状" fill="#09244B"></path>
            </g>
        </g>
    </g>
</svg>