<?xml version="1.0" encoding="UTF-8"?>
<svg width="24px" height="24px" viewBox="0 0 24 24" version="1.1" xmlns="http://www.w3.org/2000/svg" xmlns:xlink="http://www.w3.org/1999/xlink">
    <title>bluetooth_line</title>
    <g id="页面-1" stroke="none" stroke-width="1" fill="none" fill-rule="evenodd">
        <g id="Device" transform="translate(-192.000000, -96.000000)">
            <g id="bluetooth_line" transform="translate(192.000000, 96.000000)">
                <rect id="矩形" fill-rule="nonzero" x="0" y="0" width="24" height="24"></rect>
                <path d="M12.6161,2.21201 L18.4934,6.62001 C19.0801,7.06002 19.0801,7.94002 18.4934,8.38001 L13.6667,12 L18.4934,15.62 C19.0801,16.06 19.0801,16.94 18.4934,17.38 L12.6161,21.788 C11.9501,22.2875 11.0001,21.8122 11.0001,20.98 L11.0001,14 L6.60006,17.3 C6.15823,17.6314 5.53143,17.5418 5.20006,17.1 C4.86869,16.6582 4.95823,16.0314 5.40006,15.7 L10.3334,12 L5.40006,8.30001 C4.95823,7.96864 4.86869,7.34184 5.20006,6.90001 C5.53143,6.45819 6.15823,6.36864 6.60006,6.70001 L11.0001,10 L11.0001,3.02001 C11.0001,2.18775 11.9502,1.71263 12.6161,2.21201 Z M13.0001,14 L13.0001,19 L16.3334,16.5 L13.0001,14 Z M13.0001,5.00001 L13.0001,10.00001 L16.3334,7.50001 L13.0001,5.00001 Z" id="形状" fill="#09244B"></path>
            </g>
        </g>
    </g>
</svg>