<?xml version="1.0" encoding="UTF-8"?>
<svg width="24px" height="24px" viewBox="0 0 24 24" version="1.1" xmlns="http://www.w3.org/2000/svg" xmlns:xlink="http://www.w3.org/1999/xlink">
    <title>bulb_fill</title>
    <g id="页面-1" stroke="none" stroke-width="1" fill="none" fill-rule="evenodd">
        <g id="Device" transform="translate(-144.000000, -48.000000)" fill-rule="nonzero">
            <g id="bulb_fill" transform="translate(144.000000, 48.000000)">
                <rect id="矩形" x="0" y="0" width="24" height="24"></rect>
                <path d="M13,20 C13.5523,20 14,20.4477 14,21 C14,21.51285 13.613973,21.9355092 13.1166239,21.9932725 L13,22 L11,22 C10.4477,22 10,21.5523 10,21 C10,20.48715 10.386027,20.0644908 10.8833761,20.0067275 L11,20 L13,20 Z M12,2 C16.4092,2 20,5.54287 20,9.93333 C20,12.9387767 18.4784,15.1285478 17.2208,16.4266937 L16.9360838,16.7104036 L16.9360838,16.7104036 L16.6656168,16.9622508 L16.6656168,16.9622508 L16.4142755,17.1820277 L16.4142755,17.1820277 L16.0837915,17.4511079 L16.0837915,17.4511079 L15.7556,17.6957 L15.7556,17.6957 C15.5149333,17.8660333 15.3529472,18.1149083 15.2058106,18.3736329 L15.0014274,18.7382064 C14.7625592,19.1485224 14.4838286,19.5 13.893,19.5 L10.107,19.5 C9.51621429,19.5 9.2374751,19.1485224 8.99857207,18.7382694 L8.88118,18.5296 C8.70869,18.2176 8.53317,17.9001 8.24444,17.6957 L8.01156537,17.5245415 L8.01156537,17.5245415 L7.81310475,17.3695271 L7.81310475,17.3695271 L7.58576476,17.1820277 L7.58576476,17.1820277 L7.33442194,16.9622508 L7.33442194,16.9622508 L7.06395286,16.7104036 L7.06395286,16.7104036 L6.77923407,16.4266937 C5.52162222,15.1285478 4,12.9387767 4,9.93333 C4,5.54287 7.59076,2 12,2 Z M13.7071,6.29289 C13.3466385,5.93241 12.7793793,5.90468077 12.3871027,6.20970231 L12.2929,6.29289 L10.3,8.28582 C9.93587385,8.64991846 9.90787266,9.22281692 10.2159729,9.6190306 L10.3,9.71418 L11.5858,11 L10.2929,12.2929 C9.90237,12.6834 9.90237,13.3166 10.2929,13.7071 C10.6533615,14.0675615 11.2206207,14.0952893 11.6128973,13.7902834 L11.7071,13.7071 L13.7,11.7142 C14.0641538,11.3501385 14.0921657,10.7772343 13.7840355,10.3809645 L13.7,10.2858 L12.4142,9 L13.7071,7.70711 C14.0976,7.31658 14.0976,6.68342 13.7071,6.29289 Z" id="形状" fill="#09244B"></path>
            </g>
        </g>
    </g>
</svg>