<svg xmlns="http://www.w3.org/2000/svg" width="24" height="24" viewBox="0 0 24 24"><title>bulb_ai_line</title><g fill="none" fill-rule="nonzero"><path d="M24 0v24H0V0zM12.594 23.258l-.012.002-.071.035-.02.004-.014-.004-.071-.036q-.016-.004-.024.006l-.004.01-.017.428.005.02.01.013.104.074.015.004.012-.004.104-.074.012-.016.004-.017-.017-.427q-.004-.016-.016-.018m.264-.113-.014.002-.184.093-.01.01-.003.011.018.43.005.012.008.008.201.092q.019.005.029-.008l.004-.014-.034-.614q-.005-.019-.02-.022m-.715.002a.02.02 0 0 0-.027.006l-.006.014-.034.614q.001.018.017.024l.015-.002.201-.093.01-.008.003-.011.018-.43-.003-.012-.01-.01z"/><path fill="#09244b" d="M14 20a1 1 0 1 1 0 2h-4a1 1 0 1 1 0-2zm2-3a1 1 0 1 1 0 2H8a1 1 0 1 1 0-2zM12 2c.775 0 1.53.098 2.249.283a1 1 0 0 1-.498 1.938 7 7 0 0 0-7.216 11.154 1 1 0 0 1-1.56 1.25A9 9 0 0 1 12 2m0 5a1 1 0 0 1 .946.677l.13.378c.3.879.99 1.57 1.87 1.87l.377.129a1 1 0 0 1 0 1.892l-.378.13c-.879.3-1.57.99-1.87 1.87l-.129.377a1 1 0 0 1-1.892 0l-.13-.378a3 3 0 0 0-1.87-1.87l-.377-.129a1 1 0 0 1 0-1.892l.378-.13c.879-.3 1.57-.99 1.87-1.87l.129-.377C11.222 7.285 11.552 7 12 7m0 3.196a5 5 0 0 1-.804.804q.448.355.804.803.356-.447.803-.803a5 5 0 0 1-.803-.804m7.499-2.165a1 1 0 0 1 1.218.72c.185.72.283 1.474.283 2.249 0 2.127-.74 4.084-1.975 5.625a1 1 0 1 1-1.56-1.25A6.97 6.97 0 0 0 19 11c0-.606-.077-1.192-.22-1.751a1 1 0 0 1 .719-1.218M19 2c.361 0 .598.187.694.277.116.11.198.25.269.391a1 1 0 0 0 .4.386c.133.073.257.142.364.256a1.01 1.01 0 0 1 0 1.38c-.107.114-.23.183-.365.256a1 1 0 0 0-.4.386c-.077.144-.147.276-.268.39a1.01 1.01 0 0 1-1.39 0c-.12-.113-.19-.247-.267-.39a1 1 0 0 0-.4-.386 1.3 1.3 0 0 1-.364-.256 1.01 1.01 0 0 1 .001-1.38 1.3 1.3 0 0 1 .364-.256 1 1 0 0 0 .4-.386c.076-.143.147-.277.267-.39C18.4 2.186 18.638 2 19 2"/></g></svg>