<?xml version="1.0" encoding="UTF-8"?>
<svg width="24px" height="24px" viewBox="0 0 24 24" version="1.1" xmlns="http://www.w3.org/2000/svg" xmlns:xlink="http://www.w3.org/1999/xlink">
    <title>bulb_line</title>
    <g id="页面-1" stroke="none" stroke-width="1" fill="none" fill-rule="evenodd">
        <g id="Device" transform="translate(-144.000000, 0.000000)" fill-rule="nonzero">
            <g id="bulb_line" transform="translate(144.000000, 0.000000)">
                <rect id="矩形" x="0" y="0" width="24" height="24"></rect>
                <path d="M13,20 C13.5523,20 14,20.4477 14,21 C14,21.5523 13.5523,22 13,22 L11,22 C10.4477,22 10,21.5523 10,21 C10,20.4477 10.4477,20 11,20 L13,20 Z M12,2 C16.4092,2 20,5.54287 20,9.93333 C20,12.9387767 18.4784,15.1285478 17.2208,16.4266937 L16.9360838,16.7104036 L16.9360838,16.7104036 L16.6656168,16.9622508 L16.6656168,16.9622508 L16.4142755,17.1820277 L16.4142755,17.1820277 L16.0837915,17.4511079 L16.0837915,17.4511079 L15.7556,17.6957 L15.7556,17.6957 C15.5597579,17.8343579 15.4160003,18.0249895 15.2899508,18.2306378 L15.1449912,18.4822586 L15.1449912,18.4822586 L15.0038309,18.7341041 C14.7643961,19.1461496 14.4857895,19.5 13.893,19.5 L10.107,19.5 C9.51422105,19.5 9.23560277,19.1461496 8.99616629,18.7341041 L8.78382812,18.3555332 C8.63942283,18.1033211 8.47942526,17.8620895 8.24444,17.6957 L8.01156537,17.5245415 L8.01156537,17.5245415 L7.81310475,17.3695271 L7.81310475,17.3695271 L7.58576476,17.1820277 L7.58576476,17.1820277 L7.33442194,16.9622508 L7.33442194,16.9622508 L7.06395286,16.7104036 L7.06395286,16.7104036 L6.77923407,16.4266937 C5.52162222,15.1285478 4,12.9387767 4,9.93333 C4,5.54287 7.59076,2 12,2 Z M12,4 C8.67725,4 6,6.66544 6,9.93333 C6,12.5572467 7.53289715,14.4273353 8.59324617,15.4044069 L8.83763022,15.621687 L8.83763022,15.621687 L9.05770769,15.8042475 L9.05770769,15.8042475 L9.32877248,16.0120541 C9.35431229,16.0306969 9.37819758,16.0478485 9.4003,16.0635 C9.71504375,16.286375 9.9486625,16.5952656 10.1615005,16.9184189 L10.5352,17.5 L10.5352,17.5 L13.4648,17.5 L13.8384969,16.9184189 C14.0513328,16.5952656 14.28495,16.286375 14.5997,16.0635 L14.8432983,15.8823744 L14.8432983,15.8823744 L15.0489142,15.7173339 L15.0489142,15.7173339 L15.2819164,15.5173602 C16.3420309,14.5757362 18,12.6622033 18,9.93333 C18,6.66544 15.3228,4 12,4 Z M12.2929,6.29289 C12.6834,5.90237 13.3166,5.90237 13.7071,6.29289 C14.0675615,6.65337923 14.0952893,7.22060645 13.7902834,7.61290152 L13.7071,7.70711 L12.4142,9 L13.7,10.2858 C14.0641538,10.6499538 14.0921657,11.2228651 13.7840355,11.6190568 L13.7,11.7142 L11.7071,13.7071 C11.3166,14.0976 10.6834,14.0976 10.2929,13.7071 C9.93241077,13.3466385 9.90468083,12.7793793 10.2097102,12.3871027 L10.2929,12.2929 L11.5858,11 L10.3,9.71418 C9.93588308,9.35009077 9.90786556,8.77719302 10.2159711,8.38097153 L10.3,8.28582 L12.2929,6.29289 Z" id="形状" fill="#09244B"></path>
            </g>
        </g>
    </g>
</svg>