<svg xmlns="http://www.w3.org/2000/svg" width="24" height="24" viewBox="0 0 24 24"><title>bulb_2_ai_fill</title><g fill="none" fill-rule="evenodd"><path d="M24 0v24H0V0zM12.594 23.258l-.012.002-.071.035-.02.004-.014-.004-.071-.036q-.016-.004-.024.006l-.004.01-.017.428.005.02.01.013.104.074.015.004.012-.004.104-.074.012-.016.004-.017-.017-.427q-.004-.016-.016-.018m.264-.113-.014.002-.184.093-.01.01-.003.011.018.43.005.012.008.008.201.092q.019.005.029-.008l.004-.014-.034-.614q-.005-.019-.02-.022m-.715.002a.02.02 0 0 0-.027.006l-.006.014-.034.614q.001.018.017.024l.015-.002.201-.093.01-.008.003-.011.018-.43-.003-.012-.01-.01z"/><path fill="#09244b" d="M12 2c.883 0 1.734.134 2.534.384a3 3 0 0 0 .496 5.455l.378.129c.293.1.524.33.624.624l.13.378a3 3 0 0 0 4.336 1.627 8.49 8.49 0 0 1-3.606 6.855l-1.445 2.89A3 3 0 0 1 12.764 22h-1.528a3 3 0 0 1-2.683-1.658l-1.445-2.89A8.5 8.5 0 0 1 12 2m2 16.764A8.5 8.5 0 0 1 12 19a8.5 8.5 0 0 1-2-.236l.342.683a1 1 0 0 0 .894.553h1.528a1 1 0 0 0 .894-.553zM19 1a1 1 0 0 1 .946.677l.13.378c.3.879.99 1.57 1.87 1.87l.377.129a1 1 0 0 1 0 1.892l-.378.13c-.879.3-1.57.99-1.87 1.87l-.129.377a1 1 0 0 1-1.892 0l-.13-.378a3 3 0 0 0-1.87-1.87l-.377-.129a1 1 0 0 1 0-1.892l.378-.13c.879-.3 1.57-.99 1.87-1.87l.129-.377A1 1 0 0 1 19 1"/></g></svg>