<?xml version="1.0" encoding="UTF-8"?>
<svg width="24px" height="24px" viewBox="0 0 24 24" version="1.1" xmlns="http://www.w3.org/2000/svg" xmlns:xlink="http://www.w3.org/1999/xlink">
    <title>cardboard_vr_line</title>
    <g id="Icon" stroke="none" stroke-width="1" fill="none" fill-rule="evenodd">
        <g id="Device" transform="translate(-912.000000, -288.000000)">
            <g id="cardboard_vr_line" transform="translate(912.000000, 288.000000)">
                <path d="M24,0 L24,24 L0,24 L0,0 L24,0 Z M12.5935,23.2578 L12.5819,23.2595 L12.5109,23.295 L12.4919,23.2987 L12.4767,23.295 L12.4057,23.2595 C12.3958,23.2564 12.387,23.259 12.3821,23.2649 L12.378,23.2758 L12.3609,23.7031 L12.3659,23.7235 L12.3769,23.7357 L12.4805,23.8097 L12.4953,23.8136 L12.5071,23.8097 L12.6107,23.7357 L12.6233,23.7197 L12.6267,23.7031 L12.6096,23.2758 C12.6076,23.2657 12.601,23.2593 12.5935,23.2578 Z M12.8584,23.1453 L12.8445,23.1473 L12.6598,23.2397 L12.6499,23.2499 L12.6472,23.2611 L12.6651,23.6906 L12.6699,23.7034 L12.6784,23.7105 L12.8793,23.8032 C12.8914,23.8069 12.9022,23.803 12.9078,23.7952 L12.9118,23.7812 L12.8777,23.1665 C12.8753,23.1546 12.8674,23.147 12.8584,23.1453 Z M12.143,23.1473 C12.1332,23.1424 12.1222,23.1453 12.1156,23.1526 L12.1099,23.1665 L12.0758,23.7812 C12.0751,23.7927 12.0828,23.8019 12.0926,23.8046 L12.1083,23.8032 L12.3092,23.7105 L12.3186,23.7024 L12.3225,23.6906 L12.3404,23.2611 L12.3372,23.2485 L12.3278,23.2397 L12.143,23.1473 Z" id="MingCute" fill-rule="nonzero"></path>
                <path d="M2,8 C2,6.34315 3.34315,5 5,5 L19,5 C20.6569,5 22,6.34315 22,8 L22,16 C22,17.6569 20.6569,19 19,19 L16.8284,19 C16.0328,19 15.2697,18.6839 14.7071,18.1213 L12.8787,16.2929 C12.6911,16.1054 12.4368,16 12.1716,16 L11.8284,16 C11.5632,16 11.3089,16.1054 11.1213,16.2929 L9.29289,18.1213 C8.73028,18.6839 7.96722,19 7.17157,19 L5,19 C3.34315,19 2,17.6569 2,16 L2,8 Z M5,7 C4.44772,7 4,7.44772 4,8 L4,16 C4,16.5523 4.44772,17 5,17 L7.17157,17 C7.43679,17 7.69114,16.8946 7.87868,16.7071 L9.70711,14.8787 C10.2697,14.3161 11.0328,14 11.8284,14 L12.1716,14 C12.9672,14 13.7303,14.3161 14.2929,14.8787 L16.1213,16.7071 C16.3089,16.8946 16.5632,17 16.8284,17 L19,17 C19.5523,17 20,16.5523 20,16 L20,8 C20,7.44772 19.5523,7 19,7 L5,7 Z M6,11 C6,9.89543 6.89543,9 8,9 C9.10457,9 10,9.89543 10,11 C10,12.1046 9.10457,13 8,13 C6.89543,13 6,12.1046 6,11 Z M14,11 C14,9.89543 14.8954,9 16,9 C17.1046,9 18,9.89543 18,11 C18,12.1046 17.1046,13 16,13 C14.8954,13 14,12.1046 14,11 Z" id="形状" fill="#09244B"></path>
            </g>
        </g>
    </g>
</svg>