<?xml version="1.0" encoding="UTF-8"?>
<svg width="24px" height="24px" viewBox="0 0 24 24" version="1.1" xmlns="http://www.w3.org/2000/svg" xmlns:xlink="http://www.w3.org/1999/xlink">
    <title>ceiling_lamp_line</title>
    <g id="页面-1" stroke="none" stroke-width="1" fill="none" fill-rule="evenodd">
        <g id="Device" transform="translate(-288.000000, -96.000000)">
            <g id="ceiling_lamp_line" transform="translate(288.000000, 96.000000)">
                <rect id="矩形" fill-rule="nonzero" transform="translate(12.000000, 12.000000) scale(-1, 1) translate(-12.000000, -12.000000) " x="0" y="0" width="24" height="24"></rect>
                <path d="M11.9999,19 C12.5522,19 12.9999,19.4477 12.9999,20 L12.9999,21 C12.9999,21.5523 12.5522,22 11.9999,22 C11.4476,22 10.9999,21.5523 10.9999,21 L10.9999,20 C10.9999,19.4477 11.4476,19 11.9999,19 Z M16.9497,16.9498 C17.3101615,16.5892462 17.8774207,16.5615112 18.2696973,16.8665953 L18.3639,16.9498 L19.071,17.6569 C19.4616,18.0474 19.4616,18.6805 19.071,19.0711 C18.7105385,19.4315615 18.1432793,19.4592893 17.7510027,19.1542834 L17.6568,19.0711 L16.9497,18.364 C16.5592,17.9734 16.5592,17.3403 16.9497,16.9498 Z M7.05013,16.9498 C7.44065,17.3403 7.44065,17.9735 7.05013,18.364 L6.34302,19.0711 C5.9525,19.4616 5.31933,19.4616 4.92881,19.0711 C4.53828,18.6806 4.53828,18.0474 4.92881,17.6569 L5.6359125,16.9498 C6.02644,16.5592 6.6596,16.5592 7.05013,16.9498 Z M11.9999,2 C12.51275,2 12.9354092,2.38604429 12.9931725,2.88337975 L12.9999,3 L12.9999,4.10043 L21.1753,12.2758 C21.7839348,12.8844348 21.398128,13.9062537 20.5758778,13.993957 L20.4611,14 L16.8999,14 C16.4366,16.2822 14.4189,18 11.9999,18 C9.65656156,18 7.68972115,16.387885 7.14790051,14.2122675 L7.09995,14 L3.53886,14 C2.67796174,14 2.22857327,13.0044605 2.7478177,12.3612063 L2.82468,12.2758 L10.9999,4.10057 L10.9999,3 C10.9999,2.44772 11.4476,2 11.9999,2 Z M14.8292,14 L9.17063,14 C9.58247,15.1652 10.6937,16 11.9999,16 C13.24079,16 14.3057828,15.246593 14.7622468,14.172239 L14.8292,14 Z M18.0711,12 L12.0687,5.99767 L11.9999,6 L11.9999,6 L11.9313,5.99767 L5.92893,12 L18.0711,12 Z" id="形状" fill="#09244B"></path>
            </g>
        </g>
    </g>
</svg>