<?xml version="1.0" encoding="UTF-8"?>
<svg width="24px" height="24px" viewBox="0 0 24 24" version="1.1" xmlns="http://www.w3.org/2000/svg" xmlns:xlink="http://www.w3.org/1999/xlink">
    <title>ceiling_lamp_fill</title>
    <g id="页面-1" stroke="none" stroke-width="1" fill="none" fill-rule="evenodd">
        <g id="Device" transform="translate(-288.000000, -144.000000)">
            <g id="ceiling_lamp_fill" transform="translate(288.000000, 144.000000)">
                <rect id="矩形" fill-rule="nonzero" transform="translate(12.000000, 12.000000) scale(-1, 1) translate(-12.000000, -12.000000) " x="0" y="0" width="24" height="24"></rect>
                <path d="M12.0001,19 C12.5523,19 13.0001,19.4477 13.0001,20 L13.0001,21 C13.0001,21.5523 12.5523,22 12.0001,22 C11.4478,22 11.0001,21.5523 11.0001,21 L11.0001,20 C11.0001,19.4477 11.4478,19 12.0001,19 Z M16.9498,16.9498 C17.3103538,16.5892462 17.8775349,16.5615112 18.2698776,16.8665953 L18.3641,16.9498 L19.0712,17.6569 C19.4617,18.0474 19.4617,18.6805 19.0712,19.0711 C18.7106462,19.4315615 18.1434651,19.4592893 17.7511224,19.1542834 L17.6569,19.0711 L16.9498,18.364 C16.5593,17.9734 16.5593,17.3403 16.9498,16.9498 Z M7.05026,16.9498 C7.44078,17.3403 7.44078,17.9735 7.05026,18.364 L6.34315,19.0711 C5.95262,19.4616 5.31946,19.4616 4.92893,19.0711 C4.53841,18.6806 4.53841,18.0474 4.92893,17.6569 L5.63604,16.9498 C6.02657,16.5592 6.65973,16.5592 7.05026,16.9498 Z M12.0001,2 C12.5128571,2 12.9355959,2.38604429 12.9933711,2.88337975 L13.0001,3 L13.0001,4.10059 L21.1753,12.2758 C21.7839348,12.8844348 21.398128,13.9062537 20.5758778,13.993957 L20.4611,14 L16.9,14 C16.4368,16.2823 14.419,18 12.0001,18 C9.65670344,18 7.68986121,16.3879788 7.14803142,14.2122763 L7.10008,14 L3.53886,14 C2.67796174,14 2.22857327,13.004552 2.7478177,12.3612182 L2.82468,12.2758 L11.0001,4.10047 L11.0001,3 C11.0001,2.44772 11.4478,2 12.0001,2 Z M14.8293,14 L9.17077,14 C9.58261,15.1652 10.6938,16 12.0001,16 C13.24099,16 14.3058925,15.246593 14.7623476,14.172239 L14.8293,14 Z" id="形状" fill="#09244B"></path>
            </g>
        </g>
    </g>
</svg>