<?xml version="1.0" encoding="UTF-8"?>
<svg width="24px" height="24px" viewBox="0 0 24 24" version="1.1" xmlns="http://www.w3.org/2000/svg" xmlns:xlink="http://www.w3.org/1999/xlink">
    <title>ceiling_lamp_fill</title>
    <g id="页面-1" stroke="none" stroke-width="1" fill="none" fill-rule="evenodd">
        <g id="Device" transform="translate(-288.000000, -144.000000)">
            <g id="ceiling_lamp_fill" transform="translate(288.000000, 144.000000)">
                 <path d="M24,0 L24,24 L0,24 L0,0 L24,0 Z M12.5934901,23.257841 L12.5819402,23.2595131 L12.5108777,23.2950439 L12.4918791,23.2987469 L12.4918791,23.2987469 L12.4767152,23.2950439 L12.4056548,23.2595131 C12.3958229,23.2563662 12.3870493,23.2590235 12.3821421,23.2649074 L12.3780323,23.275831 L12.360941,23.7031097 L12.3658947,23.7234994 L12.3769048,23.7357139 L12.4804777,23.8096931 L12.4953491,23.8136134 L12.4953491,23.8136134 L12.5071152,23.8096931 L12.6106902,23.7357139 L12.6232938,23.7196733 L12.6232938,23.7196733 L12.6266527,23.7031097 L12.609561,23.275831 C12.6075724,23.2657013 12.6010112,23.2592993 12.5934901,23.257841 L12.5934901,23.257841 Z M12.8583906,23.1452862 L12.8445485,23.1473072 L12.6598443,23.2396597 L12.6498822,23.2499052 L12.6498822,23.2499052 L12.6471943,23.2611114 L12.6650943,23.6906389 L12.6699349,23.7034178 L12.6699349,23.7034178 L12.678386,23.7104931 L12.8793402,23.8032389 C12.8914285,23.8068999 12.9022333,23.8029875 12.9078286,23.7952264 L12.9118235,23.7811639 L12.8776777,23.1665331 C12.8752882,23.1545897 12.8674102,23.1470016 12.8583906,23.1452862 L12.8583906,23.1452862 Z M12.1430473,23.1473072 C12.1332178,23.1423925 12.1221763,23.1452606 12.1156365,23.1525954 L12.1099173,23.1665331 L12.0757714,23.7811639 C12.0751323,23.7926639 12.0828099,23.8018602 12.0926481,23.8045676 L12.108256,23.8032389 L12.3092106,23.7104931 L12.3186497,23.7024347 L12.3186497,23.7024347 L12.3225043,23.6906389 L12.340401,23.2611114 L12.337245,23.2485176 L12.337245,23.2485176 L12.3277531,23.2396597 L12.1430473,23.1473072 Z" id="MingCute" fill-rule="nonzero"></path>
                <path d="M12.0001,19 C12.5523,19 13.0001,19.4477 13.0001,20 L13.0001,21 C13.0001,21.5523 12.5523,22 12.0001,22 C11.4478,22 11.0001,21.5523 11.0001,21 L11.0001,20 C11.0001,19.4477 11.4478,19 12.0001,19 Z M16.9498,16.9498 C17.3103538,16.5892462 17.8775349,16.5615112 18.2698776,16.8665953 L18.3641,16.9498 L19.0712,17.6569 C19.4617,18.0474 19.4617,18.6805 19.0712,19.0711 C18.7106462,19.4315615 18.1434651,19.4592893 17.7511224,19.1542834 L17.6569,19.0711 L16.9498,18.364 C16.5593,17.9734 16.5593,17.3403 16.9498,16.9498 Z M7.05026,16.9498 C7.44078,17.3403 7.44078,17.9735 7.05026,18.364 L6.34315,19.0711 C5.95262,19.4616 5.31946,19.4616 4.92893,19.0711 C4.53841,18.6806 4.53841,18.0474 4.92893,17.6569 L5.63604,16.9498 C6.02657,16.5592 6.65973,16.5592 7.05026,16.9498 Z M12.0001,2 C12.5128571,2 12.9355959,2.38604429 12.9933711,2.88337975 L13.0001,3 L13.0001,4.10059 L21.1753,12.2758 C21.7839348,12.8844348 21.398128,13.9062537 20.5758778,13.993957 L20.4611,14 L16.9,14 C16.4368,16.2823 14.419,18 12.0001,18 C9.65670344,18 7.68986121,16.3879788 7.14803142,14.2122763 L7.10008,14 L3.53886,14 C2.67796174,14 2.22857327,13.004552 2.7478177,12.3612182 L2.82468,12.2758 L11.0001,4.10047 L11.0001,3 C11.0001,2.44772 11.4478,2 12.0001,2 Z M14.8293,14 L9.17077,14 C9.58261,15.1652 10.6938,16 12.0001,16 C13.24099,16 14.3058925,15.246593 14.7623476,14.172239 L14.8293,14 Z" id="形状" fill="#09244B"></path>
            </g>
        </g>
    </g>
</svg>