<?xml version="1.0" encoding="UTF-8"?>
<svg width="24px" height="24px" viewBox="0 0 24 24" version="1.1" xmlns="http://www.w3.org/2000/svg" xmlns:xlink="http://www.w3.org/1999/xlink">
    <title>cellphone_vibration_line</title>
    <g id="页面-1" stroke="none" stroke-width="1" fill="none" fill-rule="evenodd">
        <g id="Device" transform="translate(0.000000, -192.000000)" fill-rule="nonzero">
            <g id="cellphone_vibration_line" transform="translate(0.000000, 192.000000)">
                <rect id="矩形" x="0" y="0" width="24" height="24"></rect>
                <path d="M12.707,2.80759 C13.4468947,2.06764789 14.6223496,2.02870357 15.4081778,2.69075704 L15.5354,2.80759 L21.1922,8.46444 C21.9321895,9.20438211 21.9711363,10.3798484 21.3090404,11.1656777 L21.1922,11.2929 L11.2927,21.1924 C10.5528053,21.9322947 9.37732349,21.9712366 8.59153497,21.3092255 L8.46432,21.1924 L2.80747,15.5355 C2.06752789,14.7956053 2.02858357,13.6200607 2.69063704,12.834308 L2.80747,12.7071 L12.707,2.80759 Z M19.778,15.5355 C20.1686,15.145 20.8017,15.145 21.1922,15.5355 C21.5527538,15.8959615 21.5804888,16.4632207 21.2754047,16.8554973 L21.1922,16.9497 L16.9496,21.1924 C16.5591,21.5829 15.9259,21.5829 15.5354,21.1924 C15.1749385,20.8318462 15.1472107,20.2646651 15.4522166,19.8724011 L15.5354,19.7782 L19.778,15.5355 Z M14.1212,4.2218 L4.22168,14.1213 L9.87853,19.7782 L19.778,9.87866 L14.1212,4.2218 Z M8.81787,13.7677 C8.99144333,13.5941889 9.26086654,13.5749099 9.45573283,13.709863 L9.52498,13.7677 L10.2321,14.4748 C10.4056111,14.6484 10.4248901,14.917842 10.289937,15.1127402 L10.2321,15.182 L9.52498,15.8891 C9.35141556,16.0626111 9.08199333,16.0818901 8.88712014,15.946937 L8.81787,15.8891 L8.11077,15.182 C7.93719667,15.0084 7.91791074,14.738958 8.05291222,14.5440598 L8.11077,14.4748 L8.81787,13.7677 Z M8.46432,2.80759 C8.85484,3.19811 8.85484,3.83128 8.46432,4.2218 L4.22168,8.46444 C3.83116,8.85497 3.19799,8.85497 2.80747,8.46444 C2.41694,8.07392 2.41694,7.44075 2.80747,7.05023 L7.05011,2.80759 C7.44063,2.41706 8.0738,2.41706 8.46432,2.80759 Z" id="形状" fill="#09244B"></path>
            </g>
        </g>
    </g>
</svg>