<?xml version="1.0" encoding="UTF-8"?>
<svg width="24px" height="24px" viewBox="0 0 24 24" version="1.1" xmlns="http://www.w3.org/2000/svg" xmlns:xlink="http://www.w3.org/1999/xlink">
    <title>cellphone_fill</title>
    <g id="页面-1" stroke="none" stroke-width="1" fill="none" fill-rule="evenodd">
        <g id="cellphone_fill">
            <rect id="矩形" fill-opacity="0.01" fill="#FFFFFF" fill-rule="nonzero" x="0" y="0" width="24" height="24"></rect>
            <path d="M17,2 C18.0543909,2 18.9181678,2.81587733 18.9945144,3.85073759 L19,4 L19,20 C19,21.0543909 18.18415,21.9181678 17.1492661,21.9945144 L17,22 L7,22 C5.94563773,22 5.08183483,21.18415 5.00548573,20.1492661 L5,20 L5,4 C5,2.94563773 5.81587733,2.08183483 6.85073759,2.00548573 L7,2 L17,2 Z M12.5,16 L11.5,16 C11.2239,16 11,16.2239 11,16.5 L11,17.5 C11,17.7761 11.2239,18 11.5,18 L12.5,18 C12.7761,18 13,17.7761 13,17.5 L13,16.5 C13,16.2239 12.7761,16 12.5,16 Z" id="形状" fill="#09244B"></path>
        </g>
    </g>
</svg>