<svg xmlns="http://www.w3.org/2000/svg" width="24" height="24"><g fill="none" fill-rule="evenodd"><path d="M24 0v24H0V0zM12.593 23.258l-.011.002-.071.035-.02.004-.014-.004-.071-.035c-.01-.004-.019-.001-.024.005l-.004.01-.017.428.005.02.01.013.104.074.015.004.012-.004.104-.074.012-.016.004-.017-.017-.427c-.002-.01-.009-.017-.017-.018m.265-.113-.013.002-.185.093-.01.01-.003.011.018.43.005.012.008.007.201.093c.012.004.023 0 .029-.008l.004-.014-.034-.614c-.003-.012-.01-.02-.02-.022m-.715.002a.023.023 0 0 0-.027.006l-.006.014-.034.614c0 .012.007.02.017.024l.015-.002.201-.093.01-.008.004-.011.017-.43-.003-.012-.01-.01z"/><path fill="#09244B" d="m15.535 2.808 5.657 5.656a2 2 0 0 1 0 2.829l-9.9 9.9a2 2 0 0 1-2.828 0l-5.657-5.658a2 2 0 0 1 0-2.828l9.9-9.9a2 2 0 0 1 2.828 0Zm5.657 12.728a1 1 0 0 1 0 1.414l-4.242 4.242a1 1 0 0 1-1.415-1.414l4.243-4.242a1 1 0 0 1 1.414 0M8.818 13.768l-.707.707a.5.5 0 0 0 0 .707l.707.707a.5.5 0 0 0 .707 0l.707-.707a.5.5 0 0 0 0-.707l-.707-.707a.5.5 0 0 0-.707 0m-.354-10.96a1 1 0 0 1 0 1.414L4.222 8.464A1 1 0 1 1 2.807 7.05L7.05 2.808a1 1 0 0 1 1.414 0"/></g></svg>