<?xml version="1.0" encoding="UTF-8"?>
<svg width="24px" height="24px" viewBox="0 0 24 24" version="1.1" xmlns="http://www.w3.org/2000/svg" xmlns:xlink="http://www.w3.org/1999/xlink">
    <title>cellphone_vibration_line</title>
    <g id="页面-1" stroke="none" stroke-width="1" fill="none" fill-rule="evenodd">
        <g id="Device" transform="translate(0.000000, -192.000000)" fill-rule="nonzero">
            <g id="cellphone_vibration_line" transform="translate(0.000000, 192.000000)">
                 <path d="M24,0 L24,24 L0,24 L0,0 L24,0 Z M12.5934901,23.257841 L12.5819402,23.2595131 L12.5108777,23.2950439 L12.4918791,23.2987469 L12.4918791,23.2987469 L12.4767152,23.2950439 L12.4056548,23.2595131 C12.3958229,23.2563662 12.3870493,23.2590235 12.3821421,23.2649074 L12.3780323,23.275831 L12.360941,23.7031097 L12.3658947,23.7234994 L12.3769048,23.7357139 L12.4804777,23.8096931 L12.4953491,23.8136134 L12.4953491,23.8136134 L12.5071152,23.8096931 L12.6106902,23.7357139 L12.6232938,23.7196733 L12.6232938,23.7196733 L12.6266527,23.7031097 L12.609561,23.275831 C12.6075724,23.2657013 12.6010112,23.2592993 12.5934901,23.257841 L12.5934901,23.257841 Z M12.8583906,23.1452862 L12.8445485,23.1473072 L12.6598443,23.2396597 L12.6498822,23.2499052 L12.6498822,23.2499052 L12.6471943,23.2611114 L12.6650943,23.6906389 L12.6699349,23.7034178 L12.6699349,23.7034178 L12.678386,23.7104931 L12.8793402,23.8032389 C12.8914285,23.8068999 12.9022333,23.8029875 12.9078286,23.7952264 L12.9118235,23.7811639 L12.8776777,23.1665331 C12.8752882,23.1545897 12.8674102,23.1470016 12.8583906,23.1452862 L12.8583906,23.1452862 Z M12.1430473,23.1473072 C12.1332178,23.1423925 12.1221763,23.1452606 12.1156365,23.1525954 L12.1099173,23.1665331 L12.0757714,23.7811639 C12.0751323,23.7926639 12.0828099,23.8018602 12.0926481,23.8045676 L12.108256,23.8032389 L12.3092106,23.7104931 L12.3186497,23.7024347 L12.3186497,23.7024347 L12.3225043,23.6906389 L12.340401,23.2611114 L12.337245,23.2485176 L12.337245,23.2485176 L12.3277531,23.2396597 L12.1430473,23.1473072 Z" id="MingCute" fill-rule="nonzero"></path>
                <path d="M12.707,2.80759 C13.4468947,2.06764789 14.6223496,2.02870357 15.4081778,2.69075704 L15.5354,2.80759 L21.1922,8.46444 C21.9321895,9.20438211 21.9711363,10.3798484 21.3090404,11.1656777 L21.1922,11.2929 L11.2927,21.1924 C10.5528053,21.9322947 9.37732349,21.9712366 8.59153497,21.3092255 L8.46432,21.1924 L2.80747,15.5355 C2.06752789,14.7956053 2.02858357,13.6200607 2.69063704,12.834308 L2.80747,12.7071 L12.707,2.80759 Z M19.778,15.5355 C20.1686,15.145 20.8017,15.145 21.1922,15.5355 C21.5527538,15.8959615 21.5804888,16.4632207 21.2754047,16.8554973 L21.1922,16.9497 L16.9496,21.1924 C16.5591,21.5829 15.9259,21.5829 15.5354,21.1924 C15.1749385,20.8318462 15.1472107,20.2646651 15.4522166,19.8724011 L15.5354,19.7782 L19.778,15.5355 Z M14.1212,4.2218 L4.22168,14.1213 L9.87853,19.7782 L19.778,9.87866 L14.1212,4.2218 Z M8.81787,13.7677 C8.99144333,13.5941889 9.26086654,13.5749099 9.45573283,13.709863 L9.52498,13.7677 L10.2321,14.4748 C10.4056111,14.6484 10.4248901,14.917842 10.289937,15.1127402 L10.2321,15.182 L9.52498,15.8891 C9.35141556,16.0626111 9.08199333,16.0818901 8.88712014,15.946937 L8.81787,15.8891 L8.11077,15.182 C7.93719667,15.0084 7.91791074,14.738958 8.05291222,14.5440598 L8.11077,14.4748 L8.81787,13.7677 Z M8.46432,2.80759 C8.85484,3.19811 8.85484,3.83128 8.46432,4.2218 L4.22168,8.46444 C3.83116,8.85497 3.19799,8.85497 2.80747,8.46444 C2.41694,8.07392 2.41694,7.44075 2.80747,7.05023 L7.05011,2.80759 C7.44063,2.41706 8.0738,2.41706 8.46432,2.80759 Z" id="形状" fill="#09244B"></path>
            </g>
        </g>
    </g>
</svg>