<svg width="24" height="24" viewBox="0 0 24 24" fill="none" xmlns="http://www.w3.org/2000/svg">
<rect width="24" height="24" fill="white" fill-opacity="0.01"/>
<path d="M11.5 16C11.2239 16 11 16.2239 11 16.5V17.5C11 17.7761 11.2239 18 11.5 18H12.5C12.7761 18 13 17.7761 13 17.5V16.5C13 16.2239 12.7761 16 12.5 16H11.5Z" fill="#09244B"/>
<path fill-rule="evenodd" clip-rule="evenodd" d="M7 2C5.89543 2 5 2.89543 5 4V20C5 21.1046 5.89543 22 7 22H17C18.1046 22 19 21.1046 19 20V4C19 2.89543 18.1046 2 17 2H7ZM7 4L17 4V20H7V4Z" fill="#09244B"/>
</svg>
