<svg xmlns="http://www.w3.org/2000/svg" width="24" height="24" viewBox="0 0 24 24"><g fill="none" fill-rule="evenodd"><path d="M24,0 L24,24 L0,24 L0,0 L24,0 Z M12.5935,23.2578 L12.5819,23.2595 L12.5109,23.295 L12.4919,23.2987 L12.4767,23.295 L12.4057,23.2595 C12.3958,23.2564 12.387,23.259 12.3821,23.2649 L12.378,23.2758 L12.3609,23.7031 L12.3659,23.7235 L12.3769,23.7357 L12.4805,23.8097 L12.4953,23.8136 L12.5071,23.8097 L12.6107,23.7357 L12.6233,23.7197 L12.6267,23.7031 L12.6096,23.2758 C12.6076,23.2657 12.601,23.2593 12.5935,23.2578 Z M12.8584,23.1453 L12.8445,23.1473 L12.6598,23.2397 L12.6499,23.2499 L12.6472,23.2611 L12.6651,23.6906 L12.6699,23.7034 L12.6784,23.7105 L12.8793,23.8032 C12.8914,23.8069 12.9022,23.803 12.9078,23.7952 L12.9118,23.7812 L12.8777,23.1665 C12.8753,23.1546 12.8674,23.147 12.8584,23.1453 Z M12.143,23.1473 C12.1332,23.1424 12.1222,23.1453 12.1156,23.1526 L12.1099,23.1665 L12.0758,23.7812 C12.0751,23.7927 12.0828,23.8019 12.0926,23.8046 L12.1083,23.8032 L12.3092,23.7105 L12.3186,23.7024 L12.3225,23.6906 L12.3404,23.2611 L12.3372,23.2485 L12.3278,23.2397 L12.143,23.1473 Z"/><path fill="#09244B" d="M5,5 C5,3.34315 6.34315,2 8,2 L16,2 C17.6569,2 19,3.34315 19,5 L19,19 C19,20.6569 17.6569,22 16,22 L8,22 C6.34315,22 5,20.6569 5,19 L5,5 Z M8,4 C7.44772,4 7,4.44772 7,5 L7,19 C7,19.5523 7.44772,20 8,20 L16,20 C16.5523,20 17,19.5523 17,19 L17,5 C17,4.44772 16.5523,4 16,4 L8,4 Z M9.5,6 C9.5,5.44772 9.94772,5 10.5,5 L13.5,5 C14.0523,5 14.5,5.44772 14.5,6 C14.5,6.55228 14.0523,7 13.5,7 L10.5,7 C9.94772,7 9.5,6.55228 9.5,6 Z M10.5,17.5 C10.5,16.6716 11.1716,16 12,16 C12.8284,16 13.5,16.6716 13.5,17.5 C13.5,18.3284 12.8284,19 12,19 C11.1716,19 10.5,18.3284 10.5,17.5 Z"/></g></svg>