<?xml version="1.0" encoding="UTF-8"?>
<svg width="24px" height="24px" viewBox="0 0 24 24" version="1.1" xmlns="http://www.w3.org/2000/svg" xmlns:xlink="http://www.w3.org/1999/xlink">
    <title>chip_fill</title>
    <g id="页面-1" stroke="none" stroke-width="1" fill="none" fill-rule="evenodd">
        <g id="Device" transform="translate(-816.000000, -144.000000)" fill-rule="nonzero">
            <g id="chip_fill" transform="translate(816.000000, 144.000000)">
                <rect id="矩形" x="0" y="0" width="24" height="24"></rect>
                <path d="M15,2 C15.5523,2 16,2.44772 16,3 L16,4 L17,4 C18.6569,4 20,5.34315 20,7 L20,8 L21,8 C21.5523,8 22,8.44772 22,9 C22,9.55228 21.5523,10 21,10 L20,10 L20,14 L21,14 C21.5523,14 22,14.4477 22,15 C22,15.5523 21.5523,16 21,16 L20,16 L20,17 C20,18.6569 18.6569,20 17,20 L16,20 L16,21 C16,21.5523 15.5523,22 15,22 C14.4477,22 14,21.5523 14,21 L14,20 L10,20 L10,21 C10,21.5523 9.55228,22 9,22 C8.44772,22 8,21.5523 8,21 L8,20 L7,20 C5.34315,20 4,18.6569 4,17 L4,16 L3,16 C2.44772,16 2,15.5523 2,15 C2,14.4477 2.44772,14 3,14 L4,14 L4,10 L3,10 C2.44772,10 2,9.55228 2,9 C2,8.44772 2.44772,8 3,8 L4,8 L4,7 C4,5.34315 5.34315,4 7,4 L8,4 L8,3 C8,2.44772 8.44772,2 9,2 C9.55228,2 10,2.44772 10,3 L10,4 L14,4 L14,3 C14,2.44772 14.4477,2 15,2 Z M14,8 L10,8 C8.89543,8 8,8.89543 8,10 L8,14 C8,15.1046 8.89543,16 10,16 L14,16 C15.1046,16 16,15.1046 16,14 L16,10 C16,8.89543 15.1046,8 14,8 Z M14,10 L14,14 L10,14 L10,10 L14,10 Z" id="形状" fill="#09244B"></path>
            </g>
        </g>
    </g>
</svg>