<?xml version="1.0" encoding="UTF-8"?>
<svg width="24px" height="24px" viewBox="0 0 24 24" version="1.1" xmlns="http://www.w3.org/2000/svg" xmlns:xlink="http://www.w3.org/1999/xlink">
    <title>computer_camera_line</title>
    <g id="页面-1" stroke="none" stroke-width="1" fill="none" fill-rule="evenodd">
        <g id="Device" transform="translate(-48.000000, -192.000000)">
            <g id="computer_camera_line" transform="translate(48.000000, 192.000000)">
                <rect id="矩形" fill-rule="nonzero" x="0" y="0" width="24" height="24"></rect>
                <path d="M6.59285,16.7437 C6.90968,17.1961 6.79981,17.8196 6.34745,18.1365 C6.16798,18.2622 6.07316,18.3654 6.02841,18.4312 L6.00394,18.4728 L6.00394,18.4728 L6.03933808,18.5314144 C6.0683776,18.571096 6.117328,18.6262 6.19924,18.6961 C6.42871,18.8919 6.81958,19.1135 7.38977,19.3193 C8.52173,19.7279 10.1516,20 12,20 C13.8484,20 15.4783,19.7279 16.6102,19.3193 C17.1804,19.1135 17.5713,18.8919 17.8008,18.6961 C17.8827,18.6262 17.931624,18.571096 17.9606616,18.5314144 L17.9961,18.4728 L17.9961,18.4728 L17.9722,18.4322 L17.9722,18.4322 C17.9283,18.3672 17.8349,18.2649 17.6577,18.1401 C17.2062,17.8221 17.098,17.1982 17.4161,16.7467 C17.7341,16.2952 18.358,16.187 18.8095,16.505 C19.4072,16.926 20,17.579 20,18.4733 C20,19.2263 19.5742,19.8119 19.0991,20.2174 C18.6201,20.6262 17.9858,20.9491 17.2893,21.2005 C15.8877,21.7064 14.0176,22 12,22 C9.98244,22 8.11228,21.7064 6.71074,21.2005 C6.01418,20.9491 5.37992,20.6262 4.90095,20.2174 C4.42577,19.8119 4,19.2263 4,18.4733 C4,17.5746 4.59847,16.9197 5.20009,16.4983 C5.65245,16.1815 6.27601,16.2913 6.59285,16.7437 Z M12,2 C16.4183,2 20,5.58172 20,10 C20,14.4183 16.4183,18 12,18 C7.58172,18 4,14.4183 4,10 C4,5.58172 7.58172,2 12,2 Z M12,4 C8.68629,4 6,6.68629 6,10 C6,13.3137 8.68629,16 12,16 C15.3137,16 18,13.3137 18,10 C18,6.68629 15.3137,4 12,4 Z M12,6 C14.2091,6 16,7.79086 16,10 C16,12.2091 14.2091,14 12,14 C9.79086,14 8,12.2091 8,10 C8,7.79086 9.79086,6 12,6 Z M12,8 C10.8954,8 10,8.89543 10,10 C10,11.1046 10.8954,12 12,12 C13.1046,12 14,11.1046 14,10 C14,8.89543 13.1046,8 12,8 Z" id="形状" fill="#09244B"></path>
            </g>
        </g>
    </g>
</svg>