<?xml version="1.0" encoding="UTF-8"?>
<svg width="24px" height="24px" viewBox="0 0 24 24" version="1.1" xmlns="http://www.w3.org/2000/svg" xmlns:xlink="http://www.w3.org/1999/xlink">
    <title>computer_camera_fill</title>
    <g id="页面-1" stroke="none" stroke-width="1" fill="none" fill-rule="evenodd">
        <g id="Device" transform="translate(-48.000000, -240.000000)" fill-rule="nonzero">
            <g id="computer_camera_fill" transform="translate(48.000000, 240.000000)">
                <rect id="矩形" x="0" y="0" width="24" height="24"></rect>
                <path d="M19.2603,16.8767 C19.6732,17.2785 20,17.8094 20,18.4733 C20,19.2263 19.5742,19.812 19.0991,20.2175 C18.6201,20.6262 17.9858,20.9491 17.2893,21.2005 C15.8877,21.7064 14.0176,22 12,22 C9.98244,22 8.11228,21.7064 6.71074,21.2005 C6.01418,20.9491 5.37992,20.6262 4.90095,20.2175 C4.42577,19.812 4,19.2263 4,18.4733 C4,17.8095 4.32655,17.2787 4.7397,16.8767 C6.56222,18.8003 9.141,20.0001 12,20.0001 C14.859,20.0001 17.4378,18.8003 19.2603,16.8767 Z M12,2 C16.4183,2 20,5.58172 20,10 C20,14.4183 16.4183,18 12,18 C7.58172,18 4,14.4183 4,10 C4,5.58172 7.58172,2 12,2 Z M12,6 C9.79086,6 8,7.79086 8,10 C8,12.2091 9.79086,14 12,14 C14.2091,14 16,12.2091 16,10 C16,7.79086 14.2091,6 12,6 Z M12,8 C13.1046,8 14,8.89543 14,10 C14,11.1046 13.1046,12 12,12 C10.8954,12 10,11.1046 10,10 C10,8.89543 10.8954,8 12,8 Z" id="形状" fill="#09244B"></path>
            </g>
        </g>
    </g>
</svg>