<?xml version="1.0" encoding="UTF-8"?>
<svg width="24px" height="24px" viewBox="0 0 24 24" version="1.1" xmlns="http://www.w3.org/2000/svg" xmlns:xlink="http://www.w3.org/1999/xlink">
    <title>computer_fill</title>
    <g id="页面-1" stroke="none" stroke-width="1" fill="none" fill-rule="evenodd">
        <g id="Device" transform="translate(-240.000000, -48.000000)" fill-rule="nonzero">
            <g id="computer_fill" transform="translate(240.000000, 48.000000)">
                <rect id="矩形" x="0" y="0" width="24" height="24"></rect>
                <path d="M5,3 C3.89543,3 3,3.89543 3,5 L3,16 C3,17.1046 3.89543,18 5,18 L11,18 L11,19 L9,19 C8.44772,19 8,19.4477 8,20 C8,20.5523 8.44772,21 9,21 L15,21 C15.5523,21 16,20.5523 16,20 C16,19.4477 15.5523,19 15,19 L13,19 L13,18 L19,18 C20.1046,18 21,17.1046 21,16 L21,5 C21,3.89543 20.1046,3 19,3 L5,3 Z" id="路径" fill="#09244B"></path>
            </g>
        </g>
    </g>
</svg>