<?xml version="1.0" encoding="UTF-8"?>
<svg width="24px" height="24px" viewBox="0 0 24 24" version="1.1" xmlns="http://www.w3.org/2000/svg" xmlns:xlink="http://www.w3.org/1999/xlink">
    <title>computer_line</title>
    <g id="页面-1" stroke="none" stroke-width="1" fill="none" fill-rule="evenodd">
        <g id="Device" transform="translate(-240.000000, 0.000000)">
            <g id="computer_line" transform="translate(240.000000, 0.000000)">
                <rect id="矩形" fill-rule="nonzero" x="0" y="0" width="24" height="24"></rect>
                <path d="M3,5 C3,3.89543 3.89543,3 5,3 L19,3 C20.1046,3 21,3.89543 21,5 L21,16 C21,17.1046 20.1046,18 19,18 L13,18 L13,19 L15,19 C15.5523,19 16,19.4477 16,20 C16,20.5523 15.5523,21 15,21 L9,21 C8.44772,21 8,20.5523 8,20 C8,19.4477 8.44772,19 9,19 L11,19 L11,18 L5,18 C3.89543,18 3,17.1046 3,16 L3,5 Z M19,5 L5,5 L5,16 L19,16 L19,5 Z" id="形状" fill="#09244B"></path>
            </g>
        </g>
    </g>
</svg>