<?xml version="1.0" encoding="UTF-8"?>
<svg width="24px" height="24px" viewBox="0 0 24 24" version="1.1" xmlns="http://www.w3.org/2000/svg" xmlns:xlink="http://www.w3.org/1999/xlink">
    <title>computer_camera_off_fill</title>
    <g id="页面-1" stroke="none" stroke-width="1" fill="none" fill-rule="evenodd">
        <g id="Device" transform="translate(-96.000000, -240.000000)" fill-rule="nonzero">
            <g id="computer_camera_off_fill" transform="translate(96.000000, 240.000000)">
                <rect id="矩形" x="0" y="0" width="24" height="24"></rect>
                <path d="M4.7397,16.8767 C6.56222,18.8003 9.141,20.0001 12,20.0001 C13.73824,20.0001 15.372992,19.5565302 16.7970977,18.7764676 L17.099,18.6042 L17.869,19.3742 C18.3085,19.8138 18.9288,19.9623 19.4905,19.8199 C19.3703,19.9673 19.2367,20.1 19.0991,20.2175 C18.6201,20.6262 17.9858,20.9491 17.2893,21.2005 C15.8877,21.7064 14.0176,22 12,22 C9.98244,22 8.11228,21.7064 6.71074,21.2005 C6.01418,20.9491 5.37992,20.6262 4.90095,20.2175 C4.42577,19.812 4,19.2263 4,18.4733 C4,17.8095 4.32655,17.2787 4.7397,16.8767 Z M12,2 C16.4183,2 20,5.58172 20,10 C20,11.7643294 19.4289163,13.3951668 18.4614103,14.717934 L18.2754,14.9623 L19.7782,16.4651 C20.1687,16.8556 20.1687,17.4887 19.7782,17.8793 C19.4177385,18.2397615 18.8504793,18.2674893 18.4582027,17.9624834 L18.364,17.8793 L4.22185,3.73714 C3.83132,3.34661 3.83132,2.71345 4.22185,2.32292 C4.58233,1.96244 5.14956503,1.93471077 5.5418535,2.23973231 L5.63606,2.32292 L7.03772,3.72458 C8.40145,2.64475 10.1254,2 12,2 Z M4.86761,6.37284 L8.02705,9.53229 C8.00919,9.68571 8,9.84178 8,10 C8,12.2091 9.79086,14 12,14 C12.1582,14 12.3143,13.9908 12.4677,13.9729 L15.6272,17.1324 C14.5384,17.6872 13.3057,18 12,18 C7.58172,18 4,14.4183 4,10 C4,8.69427 4.31282,7.4616 4.86761,6.37284 Z M12,6 C11.2319,6 10.5143,6.21652 9.90499,6.59186 L11.4036,8.09044 C11.5919,8.03167 11.7923,8 12,8 C13.1046,8 14,8.89543 14,10 C14,10.2077 13.9683,10.4081 13.9096,10.5964 L15.4081,12.095 C15.7835,11.4857 16,10.7681 16,10 C16,7.79086 14.2091,6 12,6 Z" id="形状" fill="#09244B"></path>
            </g>
        </g>
    </g>
</svg>