<?xml version="1.0" encoding="UTF-8"?>
<svg width="24px" height="24px" viewBox="0 0 24 24" version="1.1" xmlns="http://www.w3.org/2000/svg" xmlns:xlink="http://www.w3.org/1999/xlink">
    <title>computer_camera_off_line</title>
    <g id="页面-1" stroke="none" stroke-width="1" fill="none" fill-rule="evenodd">
        <g id="Device" transform="translate(-96.000000, -192.000000)">
            <g id="computer_camera_off_line" transform="translate(96.000000, 192.000000)">
                 <path d="M24,0 L24,24 L0,24 L0,0 L24,0 Z M12.5934901,23.257841 L12.5819402,23.2595131 L12.5108777,23.2950439 L12.4918791,23.2987469 L12.4918791,23.2987469 L12.4767152,23.2950439 L12.4056548,23.2595131 C12.3958229,23.2563662 12.3870493,23.2590235 12.3821421,23.2649074 L12.3780323,23.275831 L12.360941,23.7031097 L12.3658947,23.7234994 L12.3769048,23.7357139 L12.4804777,23.8096931 L12.4953491,23.8136134 L12.4953491,23.8136134 L12.5071152,23.8096931 L12.6106902,23.7357139 L12.6232938,23.7196733 L12.6232938,23.7196733 L12.6266527,23.7031097 L12.609561,23.275831 C12.6075724,23.2657013 12.6010112,23.2592993 12.5934901,23.257841 L12.5934901,23.257841 Z M12.8583906,23.1452862 L12.8445485,23.1473072 L12.6598443,23.2396597 L12.6498822,23.2499052 L12.6498822,23.2499052 L12.6471943,23.2611114 L12.6650943,23.6906389 L12.6699349,23.7034178 L12.6699349,23.7034178 L12.678386,23.7104931 L12.8793402,23.8032389 C12.8914285,23.8068999 12.9022333,23.8029875 12.9078286,23.7952264 L12.9118235,23.7811639 L12.8776777,23.1665331 C12.8752882,23.1545897 12.8674102,23.1470016 12.8583906,23.1452862 L12.8583906,23.1452862 Z M12.1430473,23.1473072 C12.1332178,23.1423925 12.1221763,23.1452606 12.1156365,23.1525954 L12.1099173,23.1665331 L12.0757714,23.7811639 C12.0751323,23.7926639 12.0828099,23.8018602 12.0926481,23.8045676 L12.108256,23.8032389 L12.3092106,23.7104931 L12.3186497,23.7024347 L12.3186497,23.7024347 L12.3225043,23.6906389 L12.340401,23.2611114 L12.337245,23.2485176 L12.337245,23.2485176 L12.3277531,23.2396597 L12.1430473,23.1473072 Z" id="MingCute" fill-rule="nonzero"></path>
                <path d="M6.59285,16.7437 C6.90968,17.1961 6.79981,17.8196 6.34745,18.1365 C6.16798,18.2622 6.07316,18.3654 6.02841,18.4312 L6.00394,18.4728 L6.00394,18.4728 L6.03933808,18.5314144 C6.0683776,18.571096 6.117328,18.6262 6.19924,18.6961 C6.42871,18.8919 6.81958,19.1135 7.38977,19.3193 C8.52173,19.7279 10.1516,20 12,20 C13.8484,20 15.4783,19.7279 16.6102,19.3193 C16.9486,19.1972 17.2239,19.0695 17.4397,18.9449 L17.869,19.3742 C18.3085,19.8137 18.9288,19.9623 19.4905,19.8199 C19.3703,19.9673 19.2367,20.0999 19.0991,20.2174 C18.6201,20.6262 17.9858,20.9491 17.2893,21.2005 C15.8877,21.7064 14.0176,22 12,22 C9.98244,22 8.11228,21.7064 6.71074,21.2005 C6.01418,20.9491 5.37992,20.6262 4.90095,20.2174 C4.42577,19.8119 4,19.2263 4,18.4733 C4,17.5746 4.59847,16.9197 5.20009,16.4983 C5.65245,16.1815 6.27601,16.2913 6.59285,16.7437 Z M12,2 C16.4183,2 20,5.58172 20,10 C20,11.7643294 19.4289163,13.3951668 18.4614103,14.717934 L18.2754,14.9623 L19.7782,16.4651 C20.1687,16.8556 20.1687,17.4887 19.7782,17.8793 C19.4177385,18.2397615 18.8504793,18.2674893 18.4582027,17.9624834 L18.364,17.8793 L4.22185,3.73714 C3.83132,3.34661 3.83132,2.71345 4.22185,2.32292 C4.58233,1.96244 5.14956503,1.93471077 5.5418535,2.23973231 L5.63606,2.32292 L7.03772,3.72458 C8.40145,2.64475 10.1254,2 12,2 Z M4.86761,6.37284 L6.3824,7.88764 C6.13522,8.54468 6,9.25655 6,10 C6,13.3137 8.68629,16 12,16 C12.7435,16 13.4553,15.8648 14.1124,15.6176 L15.6272,17.1324 C14.5384,17.6872 13.3057,18 12,18 C7.58172,18 4,14.4183 4,10 C4,8.69427 4.31282,7.4616 4.86761,6.37284 Z M8.02705,9.53229 L12.4677,13.9729 C12.3143,13.9908 12.1582,14 12,14 C9.79086,14 8,12.2091 8,10 L8.0068275,9.764345 L8.0068275,9.764345 L8.02705,9.53229 Z M12,4 C10.6782,4 9.45621,4.42743 8.46474,5.1516 L9.90499,6.59186 C10.5143,6.21652 11.2319,6 12,6 C14.2091,6 16,7.79086 16,10 C16,10.7681 15.7835,11.4857 15.4081,12.095 L16.8484,13.5353 C17.5726,12.5438 18,11.3218 18,10 C18,6.68629 15.3137,4 12,4 Z M12,8 C11.7923,8 11.5919,8.03167 11.4036,8.09044 L13.9096,10.5964 C13.9683,10.4081 14,10.2077 14,10 C14,8.89543 13.1046,8 12,8 Z" id="形状" fill="#09244B"></path>
            </g>
        </g>
    </g>
</svg>