<?xml version="1.0" encoding="UTF-8"?>
<svg width="24px" height="24px" viewBox="0 0 24 24" version="1.1" xmlns="http://www.w3.org/2000/svg" xmlns:xlink="http://www.w3.org/1999/xlink">
    <title>counter_2_fill</title>
    <g id="页面-1" stroke="none" stroke-width="1" fill="none" fill-rule="evenodd">
        <g id="Device" transform="translate(-432.000000, -240.000000)" fill-rule="nonzero">
            <g id="counter_2_fill" transform="translate(432.000000, 240.000000)">
                <rect id="矩形" x="0" y="0" width="24" height="24"></rect>
                <path d="M18,3 C19.0543909,3 19.9181678,3.81587733 19.9945144,4.85073759 L20,5 L20,20 C20,21.0543909 19.18415,21.9181678 18.1492661,21.9945144 L18,22 L6,22 C4.94563773,22 4.08183483,21.18415 4.00548573,20.1492661 L4,20 L4,5 C4,3.94563773 4.81587733,3.08183483 5.85073759,3.00548573 L6,3 L18,3 Z M9.5,17 C8.67157,17 8,17.6716 8,18.5 C8,19.3284 8.67157,20 9.5,20 C10.3284,20 11,19.3284 11,18.5 C11,17.6716 10.3284,17 9.5,17 Z M14.5,17 C13.6716,17 13,17.6716 13,18.5 C13,19.3284 13.6716,20 14.5,20 C15.3284,20 16,19.3284 16,18.5 C16,17.6716 15.3284,17 14.5,17 Z M9.5,13 C8.67157,13 8,13.6716 8,14.5 C8,15.3284 8.67157,16 9.5,16 C10.3284,16 11,15.3284 11,14.5 C11,13.6716 10.3284,13 9.5,13 Z M14.5,13 C13.6716,13 13,13.6716 13,14.5 C13,15.3284 13.6716,16 14.5,16 C15.3284,16 16,15.3284 16,14.5 C16,13.6716 15.3284,13 14.5,13 Z M15.5,6 L8.5,6 C7.67157,6 7,6.67157 7,7.5 L7,9.5 C7,10.3284 7.67157,11 8.5,11 L15.5,11 C16.3284,11 17,10.3284 17,9.5 L17,7.5 C17,6.67157 16.3284,6 15.5,6 Z M15,8 L15,9 L9,9 L9,8 L15,8 Z" id="形状" fill="#09244B"></path>
            </g>
        </g>
    </g>
</svg>