<?xml version="1.0" encoding="UTF-8"?>
<svg width="24px" height="24px" viewBox="0 0 24 24" version="1.1" xmlns="http://www.w3.org/2000/svg" xmlns:xlink="http://www.w3.org/1999/xlink">
    <title>counter_2_line</title>
    <g id="页面-1" stroke="none" stroke-width="1" fill="none" fill-rule="evenodd">
        <g id="Device" transform="translate(-432.000000, -192.000000)">
            <g id="counter_2_line" transform="translate(432.000000, 192.000000)">
                <rect id="矩形" fill-rule="nonzero" x="0" y="0" width="24" height="24"></rect>
                <path d="M18,3 C19.0543909,3 19.9181678,3.81587733 19.9945144,4.85073759 L20,5 L20,20 C20,21.0543909 19.18415,21.9181678 18.1492661,21.9945144 L18,22 L6,22 C4.94563773,22 4.08183483,21.18415 4.00548573,20.1492661 L4,20 L4,5 C4,3.94563773 4.81587733,3.08183483 5.85073759,3.00548573 L6,3 L18,3 Z M18,5 L6,5 L6,20 L18,20 L18,5 Z M9.5,16 C10.3284,16 11,16.6716 11,17.5 C11,18.3284 10.3284,19 9.5,19 C8.67157,19 8,18.3284 8,17.5 C8,16.6716 8.67157,16 9.5,16 Z M14.5,16 C15.3284,16 16,16.6716 16,17.5 C16,18.3284 15.3284,19 14.5,19 C13.6716,19 13,18.3284 13,17.5 C13,16.6716 13.6716,16 14.5,16 Z M9.5,12 C10.3284,12 11,12.6716 11,13.5 C11,14.3284 10.3284,15 9.5,15 C8.67157,15 8,14.3284 8,13.5 C8,12.6716 8.67157,12 9.5,12 Z M14.5,12 C15.3284,12 16,12.6716 16,13.5 C16,14.3284 15.3284,15 14.5,15 C13.6716,15 13,14.3284 13,13.5 C13,12.6716 13.6716,12 14.5,12 Z M15.5,6 C16.2796706,6 16.9204457,6.59488554 16.9931332,7.35553954 L17,7.5 L17,9.5 C17,10.2796706 16.4050879,10.9204457 15.6444558,10.9931332 L15.5,11 L8.5,11 C7.72030118,11 7.079551,10.4050879 7.00686655,9.64445577 L7,9.5 L7,7.5 C7,6.72030118 7.59488554,6.079551 8.35553954,6.00686655 L8.5,6 L15.5,6 Z M15,8 L9,8 L9,9 L15,9 L15,8 Z" id="形状" fill="#09244B"></path>
            </g>
        </g>
    </g>
</svg>