<?xml version="1.0" encoding="UTF-8"?>
<svg width="24px" height="24px" viewBox="0 0 24 24" version="1.1" xmlns="http://www.w3.org/2000/svg" xmlns:xlink="http://www.w3.org/1999/xlink">
    <title>dashboard_line</title>
    <g id="页面-1" stroke="none" stroke-width="1" fill="none" fill-rule="evenodd">
        <g id="Device" transform="translate(-192.000000, -192.000000)">
            <g id="dashboard_line" transform="translate(192.000000, 192.000000)">
                <rect id="矩形" fill-rule="nonzero" x="0" y="0" width="24" height="24"></rect>
                <path d="M12,2 C17.5228,2 22,6.47715 22,12 C22,17.5228 17.5228,22 12,22 C6.47715,22 2,17.5228 2,12 C2,6.47715 6.47715,2 12,2 Z M13,4.06189 L13,5 C13,5.55228 12.5523,6 12,6 C11.48715,6 11.0644908,5.61395571 11.0067275,5.11662025 L11,5 L11,4.06189 C7.46744,4.50239595 4.65014359,7.24607202 4.09821001,10.742819 L4.06189,11 L5,11 C5.55228,11 6,11.4477 6,12 C6,12.51285 5.61395571,12.9355092 5.11662025,12.9932725 L5,13 L4.06189,13 C4.55399,16.9463 7.92038,20 12,20 C15.9928,20 19.3024261,17.0748623 19.9028066,13.2506585 L19.9381,13 L19,13 C18.4477,13 18,12.5523 18,12 C18,11.48715 18.386027,11.0644908 18.8833761,11.0067275 L19,11 L19.9381,11 C19.7149,9.21042 18.9007,7.60441 17.6969,6.38349 L15.2725,11.1417 L15.2725,11.1417 L15.1183487,11.4359659 L15.1183487,11.4359659 L14.8075969,12.0461073 C14.438496,12.766793 14.03559,13.49991 13.4849,14.0506 C12.5132,15.0223 10.8972,15.1399 9.87861,14.1213 C8.86,13.1027 8.97764,11.4868 9.94932,10.5151 C10.421388,10.043032 11.0274192,9.6795724 11.6447645,9.35292928 L12.5639368,8.88160297 L12.5639368,8.88160297 L13.4129984,8.43849084 L13.4129984,8.43849084 L17.6162,6.30275 L17.6162,6.30275 C16.3953,5.09914 14.7894,4.28503 13,4.06189 Z M13.1623,10.8376 L12.9523,10.950275 L12.9523,10.950275 L12.7357,11.0631 C12.3336167,11.2716833 11.9139639,11.4892944 11.563663,11.760725 L11.3625,11.9304 L11.2898381,12.0145041 C11.097365,12.27474 11.15519,12.56949 11.2928,12.7071 C11.4305,12.8448 11.725178,12.902553 11.9853986,12.7100646 L12.0706,12.6364 L12.2392398,12.4363366 C12.4563546,12.156094 12.6390843,11.8314588 12.8102435,11.5069051 L12.9368,11.2642 C13.0125,11.1183 13.0869,10.9747 13.1623,10.8376 Z" id="形状" fill="#09244B"></path>
            </g>
        </g>
    </g>
</svg>