<?xml version="1.0" encoding="UTF-8"?>
<svg width="24px" height="24px" viewBox="0 0 24 24" version="1.1" xmlns="http://www.w3.org/2000/svg" xmlns:xlink="http://www.w3.org/1999/xlink">
    <title>dashboard_2_fill</title>
    <g id="页面-1" stroke="none" stroke-width="1" fill="none" fill-rule="evenodd">
        <g id="Device" transform="translate(-144.000000, -240.000000)" fill-rule="nonzero">
            <g id="dashboard_2_fill" transform="translate(144.000000, 240.000000)">
                <rect id="矩形" x="0" y="0" width="24" height="24"></rect>
                <path d="M12,1.5 C17.799,1.5 22.5,6.20101 22.5,12 C22.5,14.9041 21.3191,17.5351 19.4148,19.4344 C18.8166,20.031 17.8468,20.0201 17.2617,19.4136 L16.4204,18.5414 C15.8453,17.9451 15.8624,16.9956 16.4586,16.4204 C16.9439,15.9523 17.6633,15.8765 18.2243,16.186 C19.0305,14.9902 19.5,13.5507 19.5,12 C19.5,7.85786 16.1421,4.5 12,4.5 C7.85786,4.5 4.5,7.85786 4.5,12 C4.5,13.5507 4.96952,14.9902 5.77568,16.186 C6.33672,15.8765 7.0561,15.9523 7.54139,16.4204 C8.13763,16.9956 8.15473,17.9451 7.57959,18.5414 L6.73826,19.4136 C6.15318,20.0201 5.18336,20.031 4.58515,19.4344 C2.68094,17.5351 1.5,14.9041 1.5,12 C1.5,6.20101 6.20101,1.5 12,1.5 Z M12,5.5 C12.8284,5.5 13.5,6.17157 13.5,7 L13.5,11.4013 C14.3967,11.9201 15,12.8896 15,14 C15,15.6569 13.6569,17 12,17 C10.3431,17 9,15.6569 9,14 C9,12.8896 9.6033,11.9201 10.5,11.4013 L10.5,7 C10.5,6.17157 11.1716,5.5 12,5.5 Z" id="形状" fill="#09244B"></path>
            </g>
        </g>
    </g>
</svg>