<?xml version="1.0" encoding="UTF-8"?>
<svg width="24px" height="24px" viewBox="0 0 24 24" version="1.1" xmlns="http://www.w3.org/2000/svg" xmlns:xlink="http://www.w3.org/1999/xlink">
    <title>desk_lamp_fill</title>
    <g id="页面-1" stroke="none" stroke-width="1" fill="none" fill-rule="evenodd">
        <g id="Device" transform="translate(-336.000000, -144.000000)" fill-rule="nonzero">
            <g id="desk_lamp_fill" transform="translate(336.000000, 144.000000)">
                 <path d="M24,0 L24,24 L0,24 L0,0 L24,0 Z M12.5934901,23.257841 L12.5819402,23.2595131 L12.5108777,23.2950439 L12.4918791,23.2987469 L12.4918791,23.2987469 L12.4767152,23.2950439 L12.4056548,23.2595131 C12.3958229,23.2563662 12.3870493,23.2590235 12.3821421,23.2649074 L12.3780323,23.275831 L12.360941,23.7031097 L12.3658947,23.7234994 L12.3769048,23.7357139 L12.4804777,23.8096931 L12.4953491,23.8136134 L12.4953491,23.8136134 L12.5071152,23.8096931 L12.6106902,23.7357139 L12.6232938,23.7196733 L12.6232938,23.7196733 L12.6266527,23.7031097 L12.609561,23.275831 C12.6075724,23.2657013 12.6010112,23.2592993 12.5934901,23.257841 L12.5934901,23.257841 Z M12.8583906,23.1452862 L12.8445485,23.1473072 L12.6598443,23.2396597 L12.6498822,23.2499052 L12.6498822,23.2499052 L12.6471943,23.2611114 L12.6650943,23.6906389 L12.6699349,23.7034178 L12.6699349,23.7034178 L12.678386,23.7104931 L12.8793402,23.8032389 C12.8914285,23.8068999 12.9022333,23.8029875 12.9078286,23.7952264 L12.9118235,23.7811639 L12.8776777,23.1665331 C12.8752882,23.1545897 12.8674102,23.1470016 12.8583906,23.1452862 L12.8583906,23.1452862 Z M12.1430473,23.1473072 C12.1332178,23.1423925 12.1221763,23.1452606 12.1156365,23.1525954 L12.1099173,23.1665331 L12.0757714,23.7811639 C12.0751323,23.7926639 12.0828099,23.8018602 12.0926481,23.8045676 L12.108256,23.8032389 L12.3092106,23.7104931 L12.3186497,23.7024347 L12.3186497,23.7024347 L12.3225043,23.6906389 L12.340401,23.2611114 L12.337245,23.2485176 L12.337245,23.2485176 L12.3277531,23.2396597 L12.1430473,23.1473072 Z" id="MingCute" fill-rule="nonzero"></path>
                <path d="M15.2791,2 C16.0861,2 16.8082855,2.4841543 17.1196923,3.21759717 L17.1764,3.36754 L20.7291,14.0257 C21.0388217,14.9547696 20.3907907,15.9128425 19.437872,15.994397 L19.3061,16 L12.9999,16 L12.9999,20 L15.9999,20 C16.5522,20 16.9999,20.4477 16.9999,21 C16.9999,21.51285 16.613873,21.9355092 16.1165239,21.9932725 L15.9999,22 L7.99988,22 C7.44759,22 6.99988,21.5523 6.99988,21 C6.99988,20.48715 7.38591566,20.0644908 7.8832579,20.0067275 L7.99988,20 L10.9999,20 L10.9999,16 L4.69353,16 C3.71421435,16 3.01017484,15.0823214 3.23415392,14.152486 L3.27051,14.0257 L6.82321,3.36754 C7.07842562,2.6019025 7.76610707,2.06989586 8.5603971,2.0063858 L8.72058,2 L15.2791,2 Z M15.9999,16 C16.5522,16 16.9999,16.4477 16.9999,17 C16.9999,17.5523 16.5522,18 15.9999,18 C15.4476,18 14.9999,17.5523 14.9999,17 C14.9999,16.4477 15.4476,16 15.9999,16 Z" id="形状" fill="#09244B"></path>
            </g>
        </g>
    </g>
</svg>