<?xml version="1.0" encoding="UTF-8"?>
<svg width="24px" height="24px" viewBox="0 0 24 24" version="1.1" xmlns="http://www.w3.org/2000/svg" xmlns:xlink="http://www.w3.org/1999/xlink">
    <title>desk_lamp_line</title>
    <g id="页面-1" stroke="none" stroke-width="1" fill="none" fill-rule="evenodd">
        <g id="Device" transform="translate(-336.000000, -96.000000)">
            <g id="desk_lamp_line" transform="translate(336.000000, 96.000000)">
                <rect id="矩形" fill-rule="nonzero" transform="translate(12.000000, 12.000000) scale(-1, 1) translate(-12.000000, -12.000000) " x="0" y="0" width="24" height="24"></rect>
                <path d="M15.2793,2 C16.0863937,2 16.8084973,2.4841543 17.1199758,3.21759717 L17.1767,3.36754 L20.7294,14.0257 C21.0390261,14.9547696 20.3910824,15.9128425 19.4381714,15.994397 L19.3064,16 L13.0001,16 L13.0001,20 L16.0001,20 C16.5524,20 17.0001,20.4477 17.0001,21 C17.0001,21.51285 16.614073,21.9355092 16.1167239,21.9932725 L16.0001,22 L8.00006,22 C7.44778,22 7.00006,21.5523 7.00006,21 C7.00006,20.48715 7.38610429,20.0644908 7.88343975,20.0067275 L8.00006,20 L11.0001,20 L11.0001,16 L4.69378,16 C3.71445478,16 3.01042401,15.0823214 3.23439511,14.152486 L3.27075,14.0257 L6.82346,3.36754 C7.07867562,2.6019025 7.76634828,2.06989586 8.56063721,2.0063858 L8.72082,2 L15.2793,2 Z M16.0001,16 C16.5523,16 17.0001,16.4477 17.0001,17 C17.0001,17.5523 16.5523,18 16.0001,18 C15.4478,18 15.0001,17.5523 15.0001,17 C15.0001,16.4477 15.4478,16 16.0001,16 Z M15.2793,4 L8.72082,4 L5.38749,14 L18.6126,14 L15.2793,4 Z" id="形状" fill="#09244B"></path>
            </g>
        </g>
    </g>
</svg>