<?xml version="1.0" encoding="UTF-8"?>
<svg width="24px" height="24px" viewBox="0 0 24 24" version="1.1" xmlns="http://www.w3.org/2000/svg" xmlns:xlink="http://www.w3.org/1999/xlink">
    <title>desk_lamp_fill</title>
    <g id="页面-1" stroke="none" stroke-width="1" fill="none" fill-rule="evenodd">
        <g id="Device" transform="translate(-336.000000, -144.000000)" fill-rule="nonzero">
            <g id="desk_lamp_fill" transform="translate(336.000000, 144.000000)">
                <rect id="矩形" transform="translate(12.000000, 12.000000) scale(-1, 1) translate(-12.000000, -12.000000) " x="0" y="0" width="24" height="24"></rect>
                <path d="M15.2791,2 C16.0861,2 16.8082855,2.4841543 17.1196923,3.21759717 L17.1764,3.36754 L20.7291,14.0257 C21.0388217,14.9547696 20.3907907,15.9128425 19.437872,15.994397 L19.3061,16 L12.9999,16 L12.9999,20 L15.9999,20 C16.5522,20 16.9999,20.4477 16.9999,21 C16.9999,21.51285 16.613873,21.9355092 16.1165239,21.9932725 L15.9999,22 L7.99988,22 C7.44759,22 6.99988,21.5523 6.99988,21 C6.99988,20.48715 7.38591566,20.0644908 7.8832579,20.0067275 L7.99988,20 L10.9999,20 L10.9999,16 L4.69353,16 C3.71421435,16 3.01017484,15.0823214 3.23415392,14.152486 L3.27051,14.0257 L6.82321,3.36754 C7.07842562,2.6019025 7.76610707,2.06989586 8.5603971,2.0063858 L8.72058,2 L15.2791,2 Z M15.9999,16 C16.5522,16 16.9999,16.4477 16.9999,17 C16.9999,17.5523 16.5522,18 15.9999,18 C15.4476,18 14.9999,17.5523 14.9999,17 C14.9999,16.4477 15.4476,16 15.9999,16 Z" id="形状" fill="#09244B"></path>
            </g>
        </g>
    </g>
</svg>