<?xml version="1.0" encoding="UTF-8"?>
<svg width="24px" height="24px" viewBox="0 0 24 24" version="1.1" xmlns="http://www.w3.org/2000/svg" xmlns:xlink="http://www.w3.org/1999/xlink">
    <title>drone_fill</title>
    <g id="Icon" stroke="none" stroke-width="1" fill="none" fill-rule="evenodd">
        <g id="Device" transform="translate(-432.000000, -336.000000)" fill-rule="nonzero">
            <g id="drone_fill" transform="translate(432.000000, 336.000000)">
                <path d="M24,0 L24,24 L0,24 L0,0 L24,0 Z M12.5935,23.2578 L12.5819,23.2595 L12.5109,23.295 L12.4919,23.2987 L12.4767,23.295 L12.4057,23.2595 C12.3958,23.2564 12.387,23.259 12.3821,23.2649 L12.378,23.2758 L12.3609,23.7031 L12.3659,23.7235 L12.3769,23.7357 L12.4805,23.8097 L12.4953,23.8136 L12.5071,23.8097 L12.6107,23.7357 L12.6233,23.7197 L12.6267,23.7031 L12.6096,23.2758 C12.6076,23.2657 12.601,23.2593 12.5935,23.2578 Z M12.8584,23.1453 L12.8445,23.1473 L12.6598,23.2397 L12.6499,23.2499 L12.6472,23.2611 L12.6651,23.6906 L12.6699,23.7034 L12.6784,23.7105 L12.8793,23.8032 C12.8914,23.8069 12.9022,23.803 12.9078,23.7952 L12.9118,23.7812 L12.8777,23.1665 C12.8753,23.1546 12.8674,23.147 12.8584,23.1453 Z M12.143,23.1473 C12.1332,23.1424 12.1222,23.1453 12.1156,23.1526 L12.1099,23.1665 L12.0758,23.7812 C12.0751,23.7927 12.0828,23.8019 12.0926,23.8046 L12.1083,23.8032 L12.3092,23.7105 L12.3186,23.7024 L12.3225,23.6906 L12.3404,23.2611 L12.3372,23.2485 L12.3278,23.2397 L12.143,23.1473 Z" id="MingCute"></path>
                <path d="M5.66681,13.2279 C6.18752,13.0438 6.75884,13.3167 6.94289,13.8375 C7.11379357,14.3210071 6.89066847,14.8481439 6.44101192,15.068303 L6.3333,15.1135 C5.55515,15.3886 5.00005,16.1307 5.00005,17 C5.00005,18.1046 5.89548,19 7.00005,19 C7.81497187,19 8.51820234,18.5121191 8.82954884,17.8099994 L8.88651,17.6668 C9.07055,17.146 9.64188,16.8731 10.1626,17.0572 C10.6833,17.2412 10.9562,17.8125 10.7722,18.3332 C10.2235,19.8855 8.74324,21 7.00005,21 C4.79091,21 3.00005,19.2091 3.00005,17 C3.00005,15.2568 4.11456,13.7765 5.66681,13.2279 Z M18.3332,13.2278 C19.8855,13.7765 21,15.2568 21,16.9999 C21,19.2091 19.2091,20.9999 17,20.9999 C15.2568,20.9999 13.7765,19.8854 13.2279,18.3332 C13.0438,17.8125 13.3167,17.2412 13.8375,17.0571 C14.3210071,16.8862429 14.8481439,17.1093454 15.068303,17.5589905 L15.1135,17.6667 C15.3886,18.4448 16.1307,18.9999 17,18.9999 C18.1046,18.9999 19,18.1045 19,16.9999 C19,16.185025 18.5121191,15.4817711 17.8099994,15.1704544 L17.6668,15.1135 C17.146,14.9294 16.8731,14.3581 17.0572,13.8374 C17.2412,13.3167 17.8125,13.0438 18.3332,13.2278 Z M8.01114083,6.64042409 L8.11395,6.71066 L10.7721,8.77813 C11.4491625,9.30475187 12.3804047,9.33766574 13.0892396,8.8768716 L13.2279,8.77813 L15.8861,6.71066 C16.2842,6.40103 16.8505,6.43629 17.2071,6.7929 C17.5339833,7.1197925 17.5908854,7.62292486 17.3596282,8.01114083 L17.2894,8.11395 L15.2219,10.7721 C14.6953062,11.4491625 14.6623941,12.3804047 15.1231637,13.0892396 L15.2219,13.2279 L17.2894,15.8861 C17.599,16.2842 17.5637,16.8505 17.2071,17.2071 C16.8802167,17.5339833 16.3771271,17.5908854 15.9889105,17.3596282 L15.8861,17.2894 L13.2279,15.2219 C12.5508375,14.6953062 11.6195953,14.6623941 10.9107604,15.1231637 L10.7721,15.2219 L8.11395,17.2894 C7.71586,17.599 7.14951,17.5637 6.7929,17.2071 C6.4660075,16.8802167 6.40913826,16.3771271 6.64042409,15.9889105 L6.71066,15.8861 L8.77813,13.2279 C9.30475188,12.5508375 9.33766574,11.6195953 8.8768716,10.9107604 L8.77813,10.7721 L6.71066,8.11395 C6.40103,7.71586 6.43629,7.14951 6.7929,6.7929 C7.090075,6.495725 7.53290278,6.42170972 7.90263333,6.58447685 L8.01114083,6.64042409 Z M16.9999,3 C19.2091,3 20.9999,4.79086 20.9999,7 C20.9999,8.74319 19.8854,10.2235 18.3332,10.7721 C17.8125,10.9562 17.2412,10.6833 17.0571,10.1625 C16.8862429,9.67901143 17.1093454,9.15185878 17.5589905,8.9316573 L17.6667,8.88645 C18.4448,8.61142 18.9999,7.86925 18.9999,7 C18.9999,5.89543 18.1045,5 16.9999,5 C16.185025,5 15.4817711,5.48788086 15.1704544,6.19004181 L15.1135,6.33325 C14.9294,6.85396 14.3581,7.12689 13.8374,6.94284 C13.3167,6.75879 13.0438,6.18747 13.2278,5.66675 C13.7765,4.11451 15.2568,3 16.9999,3 Z M7,3.00005 C8.74319,3.00005 10.2235,4.11456 10.7721,5.66681 C10.9562,6.18752 10.6833,6.75885 10.1625,6.94289 C9.67901143,7.11379357 9.15185878,6.89066847 8.9316573,6.44101192 L8.88645,6.3333 C8.61142,5.55516 7.86925,5.00005 7,5.00005 C5.89543,5.00005 5,5.89548 5,7.00005 C5,7.81497187 5.48788086,8.51820234 6.19004181,8.82954884 L6.33325,8.88651 C6.85396,9.07055 7.12689,9.64188 6.94284,10.1626 C6.75879,10.6833 6.18747,10.9562 5.66675,10.7722 C4.11451,10.2235 3,8.74324 3,7.00005 C3,4.79091 4.79086,3.00005 7,3.00005 Z" id="形状" fill="#09244B"></path>
            </g>
        </g>
    </g>
</svg>