<svg xmlns="http://www.w3.org/2000/svg" width="24" height="24"><g fill="none"><path d="M24 0v24H0V0zM12.594 23.258l-.012.002-.071.035-.02.004-.014-.004-.071-.036c-.01-.003-.019 0-.024.006l-.004.01-.017.428.005.02.01.013.104.074.015.004.012-.004.104-.074.012-.016.004-.017-.017-.427c-.002-.01-.009-.017-.016-.018m.264-.113-.014.002-.184.093-.01.01-.003.011.018.43.005.012.008.008.201.092c.012.004.023 0 .029-.008l.004-.014-.034-.614c-.003-.012-.01-.02-.02-.022m-.715.002a.023.023 0 0 0-.027.006l-.006.014-.034.614c0 .012.007.02.017.024l.015-.002.201-.093.01-.008.003-.011.018-.43-.003-.012-.01-.01z"/><path fill="#09244B" d="M5.667 13.228a1 1 0 0 1 .774 1.84l-.108.046A2.001 2.001 0 1 0 8.83 17.81l.057-.143a1 1 0 1 1 1.885.666 4.001 4.001 0 1 1-5.105-5.105m12.666 0a4.001 4.001 0 1 1-5.105 5.105 1 1 0 0 1 1.84-.774l.046.108a2.001 2.001 0 1 0 2.696-2.497l-.143-.056a1 1 0 1 1 .666-1.886M8.011 6.64l.103.07 2.658 2.068a2 2 0 0 0 2.317.099l.139-.099 2.658-2.067a1 1 0 0 1 1.474 1.3l-.07.103-2.068 2.658a2 2 0 0 0-.099 2.317l.099.139 2.067 2.658a1 1 0 0 1-1.3 1.474l-.103-.07-2.658-2.068a2 2 0 0 0-2.317-.099l-.139.099-2.658 2.067a1 1 0 0 1-1.474-1.3l.07-.103 2.068-2.658a2 2 0 0 0 .099-2.317l-.099-.139-2.067-2.658a1 1 0 0 1 1.192-1.53zM17 3a4 4 0 0 1 1.333 7.772 1 1 0 0 1-.774-1.84l.108-.046A2.001 2.001 0 1 0 15.17 6.19l-.056.143a1 1 0 0 1-1.886-.666A4.001 4.001 0 0 1 17 3M7 3a4.001 4.001 0 0 1 3.772 2.667 1 1 0 0 1-1.84.774l-.046-.108A2.001 2.001 0 1 0 6.19 8.83l.143.057a1 1 0 0 1-.666 1.885A4.001 4.001 0 0 1 7 3"/></g></svg>