<?xml version="1.0" encoding="UTF-8"?>
<svg width="24px" height="24px" viewBox="0 0 24 24" version="1.1" xmlns="http://www.w3.org/2000/svg" xmlns:xlink="http://www.w3.org/1999/xlink">
    <title>flash_line</title>
    <g id="页面-1" stroke="none" stroke-width="1" fill="none" fill-rule="evenodd">
        <g id="Device" transform="translate(-336.000000, 0.000000)">
            <g id="flash_line" transform="translate(336.000000, 0.000000)">
                <rect id="矩形" fill-rule="nonzero" x="0" y="0" width="24" height="24"></rect>
                <path d="M13.2317,1.35987 C13.8635,0.601694 15.0952,1.11999 14.9948,2.10179 L14.2893,9.00005 L20,9.00005 C20.8478,9.00005 21.311,9.98891 20.7682,10.6402 L10.7682,22.6402 C10.1364,23.3984 8.90474,22.8801 9.00515,21.8983 L9.71065,15.0001 L3.99996,15.0001 C3.15212,15.0001 2.68896,14.0112 3.23174,13.3599 L13.2317,1.35987 Z M6.135,13.0001 L11.4826,13.0001 C11.7196,13.0001 11.9047,13.205 11.8806,13.4407 L11.3279,18.8445 L17.8649,11.0001 L12.5173,11.0001 C12.2803,11.0001 12.0952,10.7951 12.1194,10.5594 L12.672,5.15564 L6.135,13.0001 Z" id="形状" fill="#09244B"></path>
            </g>
        </g>
    </g>
</svg>