<?xml version="1.0" encoding="UTF-8"?>
<svg width="24px" height="24px" viewBox="0 0 24 24" version="1.1" xmlns="http://www.w3.org/2000/svg" xmlns:xlink="http://www.w3.org/1999/xlink">
    <title>flashlight_fill</title>
    <g id="页面-1" stroke="none" stroke-width="1" fill="none" fill-rule="evenodd">
        <g id="flashlight_fill">
            <rect id="矩形" fill-opacity="0.01" fill="#FFFFFF" fill-rule="nonzero" x="0" y="0" width="24" height="24"></rect>
            <path d="M18.9,2 C19.467,2 19.9338222,2.4290048 19.9935452,2.9801417 L20,3.1 L20,5 C20,7.70060567 18.471062,10.0420483 16.233921,11.2095455 L16,11.3261 L16,20 C16,21.0543909 15.18415,21.9181678 14.1492661,21.9945144 L14,22 L10,22 C8.94563773,22 8.08183483,21.18415 8.00548573,20.1492661 L8,20 L8,11.3261 C5.71499333,10.2405333 4.10988844,7.95293471 4.00542035,5.27805933 L4,5 L4,3.1 C4,2.53299067 4.42901351,2.06617653 4.98014344,2.00645469 L5.1,2 L18.9,2 Z M12,11 C11.4477,11 11,11.4477 11,12 L11,14 C11,14.5523 11.4477,15 12,15 C12.5523,15 13,14.5523 13,14 L13,12 C13,11.4477 12.5523,11 12,11 Z" id="形状" fill="#09244B"></path>
        </g>
    </g>
</svg>