<?xml version="1.0" encoding="UTF-8"?>
<svg width="24px" height="24px" viewBox="0 0 24 24" version="1.1" xmlns="http://www.w3.org/2000/svg" xmlns:xlink="http://www.w3.org/1999/xlink">
    <title>flashlight_line</title>
    <g id="页面-1" stroke="none" stroke-width="1" fill="none" fill-rule="evenodd">
        <g id="Device" transform="translate(-384.000000, 0.000000)" fill-rule="nonzero">
            <g id="flashlight_line" transform="translate(384.000000, 0.000000)">
                <rect id="矩形" x="0" y="0" width="24" height="24"></rect>
                <path d="M18.9,2 C19.5075,2 20,2.49248 20,3.1 L20,5 C20,7.79374 18.3638,10.2031 16,11.3261 L16,20 C16,21.1046 15.1046,22 14,22 L10,22 C8.89543,22 8,21.1046 8,20 L8,11.3261 C5.63619,10.2031 4,7.79374 4,5 L4,3.1 C4,2.49249 4.49249,2 5.1,2 L18.9,2 Z M17.584,7 L6.41604,7 C6.95961,8.24426 7.99501,9.22514 9.27781,9.69578 C9.70384,9.85209 10,10.2595 10,10.7293 L10,20 L14,20 L14,10.7293 C14,10.2595 14.2962,9.85208 14.7222,9.69578 C16.005,9.22514 17.0404,8.24426 17.584,7 Z M12,11 C12.5523,11 13,11.4477 13,12 L13,14 C13,14.5523 12.5523,15 12,15 C11.4477,15 11,14.5523 11,14 L11,12 C11,11.4477 11.4477,11 12,11 Z M18,4 L6,4 L6,5 L18,5 L18,4 Z" id="形状" fill="#09244B"></path>
            </g>
        </g>
    </g>
</svg>