<?xml version="1.0" encoding="UTF-8"?>
<svg width="24px" height="24px" viewBox="0 0 24 24" version="1.1" xmlns="http://www.w3.org/2000/svg" xmlns:xlink="http://www.w3.org/1999/xlink">
    <title>flashlight_line</title>
    <g id="页面-1" stroke="none" stroke-width="1" fill="none" fill-rule="evenodd">
        <g id="Device" transform="translate(-384.000000, 0.000000)" fill-rule="nonzero">
            <g id="flashlight_line" transform="translate(384.000000, 0.000000)">
                <rect id="矩形" x="0" y="0" width="24" height="24"></rect>
                <path d="M18.9,2 C19.467,2 19.9338222,2.4290048 19.9935452,2.9801417 L20,3.1 L20,5 C20,7.70061533 18.471062,10.0420489 16.233921,11.2095455 L16,11.3261 L16,20 C16,21.0543909 15.18415,21.9181678 14.1492661,21.9945144 L14,22 L10,22 C8.94563773,22 8.08183483,21.18415 8.00548573,20.1492661 L8,20 L8,11.3261 C5.71498367,10.2405333 4.1098878,7.95293471 4.00542032,5.27805933 L4,5 L4,3.1 C4,2.53299067 4.42901351,2.06617653 4.98014344,2.00645469 L5.1,2 L18.9,2 Z M18,4 L6,4 L6,5 C6,7.15466 7.36339,8.99341 9.27781,9.69578 C9.66511,9.83788 9.94507942,10.1875007 9.99278213,10.6028614 L10,10.7293 L10,20 L14,20 L14,10.7293 C14,10.2595 14.2962,9.85208 14.7222,9.69578 C16.5682286,9.01849464 17.9019115,7.28454982 17.9948199,5.22961021 L18,5 L18,4 Z M12,11 C12.51285,11 12.9355092,11.386027 12.9932725,11.8833761 L13,12 L13,14 C13,14.5523 12.5523,15 12,15 C11.48715,15 11.0644908,14.613973 11.0067275,14.1166239 L11,14 L11,12 C11,11.4477 11.4477,11 12,11 Z" id="形状" fill="#09244B"></path>
            </g>
        </g>
    </g>
</svg>