<?xml version="1.0" encoding="UTF-8"?>
<svg width="24px" height="24px" viewBox="0 0 24 24" version="1.1" xmlns="http://www.w3.org/2000/svg" xmlns:xlink="http://www.w3.org/1999/xlink">
    <title>fridge_line</title>
    <g id="页面-1" stroke="none" stroke-width="1" fill="none" fill-rule="evenodd">
        <g id="Device" transform="translate(-864.000000, -96.000000)" fill-rule="nonzero">
            <g id="fridge_line" transform="translate(864.000000, 96.000000)">
                <rect id="矩形" x="0" y="0" width="24" height="24"></rect>
                <path d="M17,2 C18.0543909,2 18.9181678,2.81587733 18.9945144,3.85073759 L19,4 L19,20 C19,21.0543909 18.18415,21.9181678 17.1492661,21.9945144 L17,22 L7,22 C5.94563773,22 5.08183483,21.18415 5.00548573,20.1492661 L5,20 L5,4 C5,2.94563773 5.81587733,2.08183483 6.85073759,2.00548573 L7,2 L17,2 Z M17,13 L7,13 L7,20 L17,20 L17,13 Z M9,14 C9.51283143,14 9.93550653,14.386027 9.9932722,14.8833761 L10,15 L10,17 C10,17.5523 9.55228,18 9,18 C8.48716857,18 8.06449347,17.613973 8.0067278,17.1166239 L8,17 L8,15 C8,14.4477 8.44772,14 9,14 Z M17,4 L7,4 L7,11 L17,11 L17,4 Z M9,6 C9.55228,6 10,6.44772 10,7 L10,9 C10,9.55228 9.55228,10 9,10 C8.44772,10 8,9.55228 8,9 L8,7 C8,6.44772 8.44772,6 9,6 Z" id="形状" fill="#09244B"></path>
            </g>
        </g>
    </g>
</svg>