<svg width="24" height="24" viewBox="0 0 24 24" fill="none" xmlns="http://www.w3.org/2000/svg">
<rect width="24" height="24" fill="white" fill-opacity="0.01"/>
<path d="M15.5 10C14.9477 10 14.5 10.4477 14.5 11V11.5H14C13.4477 11.5 13 11.9477 13 12.5C13 13.0523 13.4477 13.5 14 13.5H14.5V14C14.5 14.5523 14.9477 15 15.5 15C16.0523 15 16.5 14.5523 16.5 14V13.5H17C17.5523 13.5 18 13.0523 18 12.5C18 11.9477 17.5523 11.5 17 11.5H16.5V11C16.5 10.4477 16.0523 10 15.5 10Z" fill="#09244B"/>
<path fill-rule="evenodd" clip-rule="evenodd" d="M8.5 10C7.11929 10 6 11.1193 6 12.5C6 13.8807 7.11929 15 8.5 15C9.88071 15 11 13.8807 11 12.5C11 11.1193 9.88071 10 8.5 10ZM8 12.5C8 12.2239 8.22386 12 8.5 12C8.77614 12 9 12.2239 9 12.5C9 12.7761 8.77614 13 8.5 13C8.22386 13 8 12.7761 8 12.5Z" fill="#09244B"/>
<path fill-rule="evenodd" clip-rule="evenodd" d="M11 4C11 3.44772 11.4477 3 12 3C12.5523 3 13 3.44772 13 4V5H14.5C18.6421 5 22 8.35786 22 12.5C22 16.6421 18.6421 20 14.5 20H9.5C5.35786 20 2 16.6421 2 12.5C2 8.35786 5.35786 5 9.5 5H11V4ZM9.5 7C6.46243 7 4 9.46243 4 12.5C4 15.5376 6.46243 18 9.5 18H14.5C17.5376 18 20 15.5376 20 12.5C20 9.46243 17.5376 7 14.5 7H9.5Z" fill="#09244B"/>
</svg>
