<?xml version="1.0" encoding="UTF-8"?>
<svg width="24px" height="24px" viewBox="0 0 24 24" version="1.1" xmlns="http://www.w3.org/2000/svg" xmlns:xlink="http://www.w3.org/1999/xlink">
    <title>game_2_fill</title>
    <g id="页面-1" stroke="none" stroke-width="1" fill="none" fill-rule="evenodd">
        <g id="Device" transform="translate(-480.000000, -48.000000)" fill-rule="nonzero">
            <g id="game_2_fill" transform="translate(480.000000, 48.000000)">
                 <path d="M24,0 L24,24 L0,24 L0,0 L24,0 Z M12.5934901,23.257841 L12.5819402,23.2595131 L12.5108777,23.2950439 L12.4918791,23.2987469 L12.4918791,23.2987469 L12.4767152,23.2950439 L12.4056548,23.2595131 C12.3958229,23.2563662 12.3870493,23.2590235 12.3821421,23.2649074 L12.3780323,23.275831 L12.360941,23.7031097 L12.3658947,23.7234994 L12.3769048,23.7357139 L12.4804777,23.8096931 L12.4953491,23.8136134 L12.4953491,23.8136134 L12.5071152,23.8096931 L12.6106902,23.7357139 L12.6232938,23.7196733 L12.6232938,23.7196733 L12.6266527,23.7031097 L12.609561,23.275831 C12.6075724,23.2657013 12.6010112,23.2592993 12.5934901,23.257841 L12.5934901,23.257841 Z M12.8583906,23.1452862 L12.8445485,23.1473072 L12.6598443,23.2396597 L12.6498822,23.2499052 L12.6498822,23.2499052 L12.6471943,23.2611114 L12.6650943,23.6906389 L12.6699349,23.7034178 L12.6699349,23.7034178 L12.678386,23.7104931 L12.8793402,23.8032389 C12.8914285,23.8068999 12.9022333,23.8029875 12.9078286,23.7952264 L12.9118235,23.7811639 L12.8776777,23.1665331 C12.8752882,23.1545897 12.8674102,23.1470016 12.8583906,23.1452862 L12.8583906,23.1452862 Z M12.1430473,23.1473072 C12.1332178,23.1423925 12.1221763,23.1452606 12.1156365,23.1525954 L12.1099173,23.1665331 L12.0757714,23.7811639 C12.0751323,23.7926639 12.0828099,23.8018602 12.0926481,23.8045676 L12.108256,23.8032389 L12.3092106,23.7104931 L12.3186497,23.7024347 L12.3186497,23.7024347 L12.3225043,23.6906389 L12.340401,23.2611114 L12.337245,23.2485176 L12.337245,23.2485176 L12.3277531,23.2396597 L12.1430473,23.1473072 Z" id="MingCute" fill-rule="nonzero"></path>
                <path d="M17,4 C18.105887,4 18.9551703,4.84300043 19.5842322,5.74967279 L19.7971692,6.07104961 L19.7971692,6.07104961 L19.9921733,6.39010003 C20.0542253,6.49521643 20.1133478,6.59867609 20.1696,6.69921 C20.9568,8.10625 21.6416,9.94322 22.0951,11.7575 C22.5456,13.5593 22.7935,15.4395 22.6349,16.919 C22.4759,18.4035 21.7111,20 20,20 C18.4663579,20 17.2572898,19.1798072 16.2746803,18.3787463 L15.1642166,17.4475316 C14.2432747,16.6921038 13.2326588,16 12,16 C10.7673412,16 9.7567117,16.6921038 8.83576508,17.4475316 L7.72529002,18.3787463 C6.74266377,19.1798072 5.53358632,20 4.00002,20 C2.28897,20 1.52419,18.4035 1.36515,16.919 C1.20663,15.4395 1.45448,13.5593 1.90493,11.7575 C2.35847,9.94323 3.04321,8.10626 3.83047,6.69922 L4.00789214,6.39010546 L4.00789214,6.39010546 L4.2028927,6.07105169 L4.2028927,6.07105169 L4.41582683,5.74967256 C5.04488149,4.84299497 5.89416261,4 7.00002,4 C7.50970125,4 8.01722234,4.12392969 8.51522244,4.2708833 L9.10778139,4.45182115 C9.2056225,4.48166672 9.302965,4.51081875 9.39975,4.53847 C10.2653,4.78576 11.15,5 12,5 C12.85,5 13.7347,4.78576 14.6003,4.53848 L15.4847803,4.27088135 C15.9827734,4.12392578 16.4903125,4 17,4 Z M8.5,8 C7.11929,8 6,9.11929 6,10.5 C6,11.8807 7.11929,13 8.5,13 C9.88071,13 11,11.8807 11,10.5 C11,9.11929 9.88071,8 8.5,8 Z M15.5,8 C14.9477,8 14.5,8.44772 14.5,9 L14.5,9.5 L14,9.5 C13.4477,9.5 13,9.94772 13,10.5 C13,11.0523 13.4477,11.5 14,11.5 L14.5,11.5 L14.5,12 C14.5,12.5523 14.9477,13 15.5,13 C16.0523,13 16.5,12.5523 16.5,12 L16.5,11.5 L17,11.5 C17.5523,11.5 18,11.0523 18,10.5 C18,9.94772 17.5523,9.5 17,9.5 L16.5,9.5 L16.5,9 C16.5,8.44772 16.0523,8 15.5,8 Z M8.5,10 C8.77614,10 9,10.2239 9,10.5 C9,10.7761 8.77614,11 8.5,11 C8.22386,11 8,10.7761 8,10.5 C8,10.2239 8.22386,10 8.5,10 Z" id="形状" fill="#09244B"></path>
            </g>
        </g>
    </g>
</svg>