<svg xmlns="http://www.w3.org/2000/svg" width="24" height="24"><g fill="none"><path d="M24 0v24H0V0zM12.593 23.258l-.011.002-.071.035-.02.004-.014-.004-.071-.035c-.01-.004-.019-.001-.024.005l-.004.01-.017.428.005.02.01.013.104.074.015.004.012-.004.104-.074.012-.016.004-.017-.017-.427c-.002-.01-.009-.017-.017-.018m.265-.113-.013.002-.185.093-.01.01-.003.011.018.43.005.012.008.007.201.093c.012.004.023 0 .029-.008l.004-.014-.034-.614c-.003-.012-.01-.02-.02-.022m-.715.002a.023.023 0 0 0-.027.006l-.006.014-.034.614c0 .012.007.02.017.024l.015-.002.201-.093.01-.008.004-.011.017-.43-.003-.012-.01-.01z"/><path fill="#09244B" d="M17 4c1.106 0 1.955.843 2.584 1.75l.213.321.195.32c.062.104.121.208.178.308.787 1.407 1.472 3.244 1.925 5.059.45 1.801.699 3.682.54 5.161C22.475 18.404 21.71 20 20 20c-1.534 0-2.743-.82-3.725-1.621l-1.11-.931C14.242 16.692 13.232 16 12 16s-2.243.692-3.164 1.448l-1.11.93C6.742 19.18 5.533 20 4 20c-1.711 0-2.476-1.596-2.635-3.081-.158-1.48.09-3.36.54-5.161.453-1.815 1.138-3.652 1.925-5.059l.178-.309.195-.319.213-.321C5.045 4.843 5.894 4 7 4c.51 0 1.017.124 1.515.27l.593.182c.098.03.195.059.292.086.865.248 1.75.462 2.6.462.85 0 1.735-.214 2.6-.462l.885-.267C15.983 4.124 16.49 4 17 4M8.5 8a2.5 2.5 0 1 0 0 5 2.5 2.5 0 0 0 0-5m7 0a1 1 0 0 0-1 1v.5H14a1 1 0 1 0 0 2h.5v.5a1 1 0 1 0 2 0v-.5h.5a1 1 0 1 0 0-2h-.5V9a1 1 0 0 0-1-1m-7 2a.5.5 0 1 1 0 1 .5.5 0 0 1 0-1"/></g></svg>