<?xml version="1.0" encoding="UTF-8"?>
<svg width="24px" height="24px" viewBox="0 0 24 24" version="1.1" xmlns="http://www.w3.org/2000/svg" xmlns:xlink="http://www.w3.org/1999/xlink">
    <title>game_1_line</title>
    <g id="页面-1" stroke="none" stroke-width="1" fill="none" fill-rule="evenodd">
        <g id="Device" transform="translate(-432.000000, 0.000000)" fill-rule="nonzero">
            <g id="game_1_line" transform="translate(432.000000, 0.000000)">
                <rect id="矩形" x="0" y="0" width="24" height="24"></rect>
                <path d="M12,3 C12.5523,3 13,3.44772 13,4 L13,5 L14.5,5 C18.6421,5 22,8.35786 22,12.5 C22,16.6421 18.6421,20 14.5,20 L9.5,20 C5.35786,20 2,16.6421 2,12.5 C2,8.35786 5.35786,5 9.5,5 L11,5 L11,4 C11,3.44772 11.4477,3 12,3 Z M14.5,7 L9.5,7 C6.46243,7 4,9.46243 4,12.5 C4,15.5376 6.46243,18 9.5,18 L14.5,18 C17.5376,18 20,15.5376 20,12.5 C20,9.46243 17.5376,7 14.5,7 Z M15.5,10 C16.01285,10 16.4355092,10.386027 16.4932725,10.8833761 L16.5,11 L16.5,11.5 L17,11.5 C17.5523,11.5 18,11.9477 18,12.5 C18,13.01285 17.613973,13.4355092 17.1166239,13.4932725 L17,13.5 L16.5,13.5 L16.5,14 C16.5,14.5523 16.0523,15 15.5,15 C14.98715,15 14.5644908,14.613973 14.5067275,14.1166239 L14.5,14 L14.5,13.5 L14,13.5 C13.4477,13.5 13,13.0523 13,12.5 C13,11.98715 13.386027,11.5644908 13.8833761,11.5067275 L14,11.5 L14.5,11.5 L14.5,11 C14.5,10.4477 14.9477,10 15.5,10 Z M8.5,10 C9.88071,10 11,11.1193 11,12.5 C11,13.8807 9.88071,15 8.5,15 C7.11929,15 6,13.8807 6,12.5 C6,11.1193 7.11929,10 8.5,10 Z M8.5,12 C8.22386,12 8,12.2239 8,12.5 C8,12.7761 8.22386,13 8.5,13 C8.77614,13 9,12.7761 9,12.5 C9,12.2239 8.77614,12 8.5,12 Z" id="形状" fill="#09244B"></path>
            </g>
        </g>
    </g>
</svg>