<svg xmlns="http://www.w3.org/2000/svg" width="24" height="24"><g fill="none" fill-rule="evenodd"><path d="M24 0v24H0V0zM12.594 23.258l-.012.002-.071.035-.02.004-.014-.004-.071-.036c-.01-.003-.019 0-.024.006l-.004.01-.017.428.005.02.01.013.104.074.015.004.012-.004.104-.074.012-.016.004-.017-.017-.427c-.002-.01-.009-.017-.016-.018m.264-.113-.014.002-.184.093-.01.01-.003.011.018.43.005.012.008.008.201.092c.012.004.023 0 .029-.008l.004-.014-.034-.614c-.003-.012-.01-.02-.02-.022m-.715.002a.023.023 0 0 0-.027.006l-.006.014-.034.614c0 .012.007.02.017.024l.015-.002.201-.093.01-.008.003-.011.018-.43-.003-.012-.01-.01z"/><path fill="#09244B" d="M16.848 2.395a1 1 0 0 1 1.108-.227l.111.056.866.5a1 1 0 0 1 .488 1.02l-.026.12-.567 1.983a1 1 0 0 1-1.344.649l-.118-.058-1.534 2.656c.92.721 1.369 1.493 1.674 2.213.223.523.414 1.205.306 1.939-.105.712-.477 1.362-1.14 1.888l-.189.14c-.432.304-.46.56-.358.983l.174.65c.173.69.339 1.7.033 2.857-.276 1.043-.943 1.865-1.7 2.411-.745.538-1.666.871-2.538.826-1.36-.07-2.749-.41-4.594-1.475-1.845-1.065-2.834-2.098-3.574-3.24-.475-.733-.647-1.698-.554-2.612.094-.928.473-1.917 1.238-2.677.784-.779 1.66-1.147 2.328-1.352l.315-.091.272-.07c.524-.134.799-.233.88-.73l.017-.134c.085-.951.478-1.677 1.093-2.165.58-.46 1.268-.635 1.832-.704.712-.087 1.521-.092 2.486.243l.267.1 1.534-2.656a1 1 0 0 1-.303-1.462l.084-.1zm-6.78 13.685a1 1 0 0 0-1.099 1.668l.098.064.866.5a1 1 0 0 0 1.098-1.668l-.098-.064-.866-.5Zm.633-3.098a1.5 1.5 0 0 0 2.515 1.63l.083-.13a1.5 1.5 0 0 0-2.598-1.5"/></g></svg>