<?xml version="1.0" encoding="UTF-8"?>
<svg width="24px" height="24px" viewBox="0 0 24 24" version="1.1" xmlns="http://www.w3.org/2000/svg" xmlns:xlink="http://www.w3.org/1999/xlink">
    <title>high_voltage_power_fill</title>
    <g id="Icon" stroke="none" stroke-width="1" fill="none" fill-rule="evenodd">
        <g id="Device" transform="translate(-672.000000, -432.000000)">
            <g id="high_voltage_power_fill" transform="translate(672.000000, 432.000000)">
                <path d="M24,0 L24,24 L0,24 L0,0 L24,0 Z M12.5935,23.2578 L12.5819,23.2595 L12.5109,23.295 L12.4919,23.2987 L12.4767,23.295 L12.4057,23.2595 C12.3958,23.2564 12.387,23.259 12.3821,23.2649 L12.378,23.2758 L12.3609,23.7031 L12.3659,23.7235 L12.3769,23.7357 L12.4805,23.8097 L12.4953,23.8136 L12.5071,23.8097 L12.6107,23.7357 L12.6233,23.7197 L12.6267,23.7031 L12.6096,23.2758 C12.6076,23.2657 12.601,23.2593 12.5935,23.2578 Z M12.8584,23.1453 L12.8445,23.1473 L12.6598,23.2397 L12.6499,23.2499 L12.6472,23.2611 L12.6651,23.6906 L12.6699,23.7034 L12.6784,23.7105 L12.8793,23.8032 C12.8914,23.8069 12.9022,23.803 12.9078,23.7952 L12.9118,23.7812 L12.8777,23.1665 C12.8753,23.1546 12.8674,23.147 12.8584,23.1453 Z M12.143,23.1473 C12.1332,23.1424 12.1222,23.1453 12.1156,23.1526 L12.1099,23.1665 L12.0758,23.7812 C12.0751,23.7927 12.0828,23.8019 12.0926,23.8046 L12.1083,23.8032 L12.3092,23.7105 L12.3186,23.7024 L12.3225,23.6906 L12.3404,23.2611 L12.3372,23.2485 L12.3278,23.2397 L12.143,23.1473 Z" id="MingCute" fill-rule="nonzero"></path>
                <path d="M12.0001,14.026 L19.8653,19.4334 L19.9488,19.6838 C20.0504,19.9887 19.9993,20.3239 19.8113,20.5847 C19.6468875,20.8129 19.3951938,20.9597141 19.1195264,20.992852 L19.0001,21 L5.00006568,21 C4.67863,21 4.37678,20.8455 4.18883,20.5847 C4.02437375,20.3565 3.96466266,20.0713375 4.02040207,19.7993533 L4.05139,19.6838 L4.13486,19.4334 L12.0001,14.026 Z M16.9558,10.619 L16.9773,10.7693 L18.8157,16.2848 L13.7652,12.8125 L16.9558,10.619 Z M7.04435,10.619 L10.2349,12.8125 L5.1844,16.2847 L7.02287,10.7693 L7.04435,10.619 Z M15.0001,3 C15.1817,3 15.359012,3.0494592 15.5135016,3.14187008 L15.6248,3.21913 L20.6248,7.21913 C20.9564,7.48443 21.0843,7.93026 20.9437,8.33101 C20.81716,8.691676 20.498002,8.9450251 20.1259024,8.99208826 L20.0001,9 L15.7804,9 L12.0001,11.599 L8.21974,9 L4.00006,9 C3.57537,9 3.197,8.73175 3.05643,8.33101 C2.929908,7.970335 3.0208467,7.5731452 3.28205064,7.30391029 L3.37536,7.21913 L8.37536,3.21913 C8.517208,3.10565 8.686576,3.0334948 8.86491424,3.00917192 L9.00006,3 L15.0001,3 Z M16.3471,6.35828 L16.4388,7 L17.1493,7 L16.3471,6.35828 Z M7.65303,6.35825 L6.85084,7 L7.56135,7 L7.65303,6.35825 Z M14.1328,5 L9.86736,5 L9.58165,7 L14.4185,7 L14.1328,5 Z" id="形状" fill="#09244B"></path>
            </g>
        </g>
    </g>
</svg>