<svg xmlns="http://www.w3.org/2000/svg" width="24" height="24"><g fill="none" fill-rule="evenodd"><path d="M24 0v24H0V0zM12.594 23.258l-.012.002-.071.035-.02.004-.014-.004-.071-.036c-.01-.003-.019 0-.024.006l-.004.01-.017.428.005.02.01.013.104.074.015.004.012-.004.104-.074.012-.016.004-.017-.017-.427c-.002-.01-.009-.017-.016-.018m.264-.113-.014.002-.184.093-.01.01-.003.011.018.43.005.012.008.008.201.092c.012.004.023 0 .029-.008l.004-.014-.034-.614c-.003-.012-.01-.02-.02-.022m-.715.002a.023.023 0 0 0-.027.006l-.006.014-.034.614c0 .012.007.02.017.024l.015-.002.201-.093.01-.008.003-.011.018-.43-.003-.012-.01-.01z"/><path fill="#09244B" d="M7.773 5.54c-.495.155-.835.319-1.04.46.205.141.545.305 1.04.46C8.81 6.784 10.305 7 12 7c1.695 0 3.19-.216 4.227-.54.495-.155.835-.319 1.04-.46-.204-.141-.545-.305-1.04-.46C15.19 5.216 13.695 5 12 5c-1.695 0-3.19.216-4.227.54M12 3c-1.84 0-3.545.232-4.824.631-.633.198-1.219.455-1.667.786l-.176.13A9.978 9.978 0 0 0 2 12c0 5.523 4.477 10 10 10s10-4.477 10-10a9.977 9.977 0 0 0-3.32-7.442l-.189-.14c-.448-.332-1.034-.589-1.667-.787C15.545 3.231 13.84 3 12 3"/></g></svg>