<?xml version="1.0" encoding="UTF-8"?>
<svg width="24px" height="24px" viewBox="0 0 24 24" version="1.1" xmlns="http://www.w3.org/2000/svg" xmlns:xlink="http://www.w3.org/1999/xlink">
    <title>homepod_mini_line</title>
    <g id="Icon" stroke="none" stroke-width="1" fill="none" fill-rule="evenodd">
        <g id="Device" transform="translate(-768.000000, -384.000000)">
            <g id="homepod_mini_line" transform="translate(768.000000, 384.000000)">
                <path d="M24,0 L24,24 L0,24 L0,0 L24,0 Z M12.5935,23.2578 L12.5819,23.2595 L12.5109,23.295 L12.4919,23.2987 L12.4767,23.295 L12.4057,23.2595 C12.3958,23.2564 12.387,23.259 12.3821,23.2649 L12.378,23.2758 L12.3609,23.7031 L12.3659,23.7235 L12.3769,23.7357 L12.4805,23.8097 L12.4953,23.8136 L12.5071,23.8097 L12.6107,23.7357 L12.6233,23.7197 L12.6267,23.7031 L12.6096,23.2758 C12.6076,23.2657 12.601,23.2593 12.5935,23.2578 Z M12.8584,23.1453 L12.8445,23.1473 L12.6598,23.2397 L12.6499,23.2499 L12.6472,23.2611 L12.6651,23.6906 L12.6699,23.7034 L12.6784,23.7105 L12.8793,23.8032 C12.8914,23.8069 12.9022,23.803 12.9078,23.7952 L12.9118,23.7812 L12.8777,23.1665 C12.8753,23.1546 12.8674,23.147 12.8584,23.1453 Z M12.143,23.1473 C12.1332,23.1424 12.1222,23.1453 12.1156,23.1526 L12.1099,23.1665 L12.0758,23.7812 C12.0751,23.7927 12.0828,23.8019 12.0926,23.8046 L12.1083,23.8032 L12.3092,23.7105 L12.3186,23.7024 L12.3225,23.6906 L12.3404,23.2611 L12.3372,23.2485 L12.3278,23.2397 L12.143,23.1473 Z" id="MingCute" fill-rule="nonzero"></path>
                <path d="M12.0001,3 C10.1604,3 8.45515,3.23168 7.17634,3.63131 C6.54289,3.82926 5.95751,4.0857 5.50881,4.41722 C5.48599,4.43407 5.33309,4.54661 5.33309,4.54661 C3.28885,6.37625 2,9.03831 2,12.0001 C2,17.5229 6.47715,22.0001 12,22.0001 C17.5228,22.0001 22,17.5229 22,12.0001 C22,9.04478 20.7168,6.38787 18.6803,4.5586 C18.6803,4.5586 18.515,4.43465 18.4914,4.41722 C18.0427,4.0857 17.4573,3.82926 16.8239,3.63131 C15.545,3.23168 13.8398,3 12.0001,3 Z M7.77289,5.54027 C7.27854,5.69475 6.9376,5.8586 6.73337,6 C6.9376,6.1414 7.27854,6.30525 7.77289,6.45973 C8.81042,6.78396 10.3052,7 12.0001,7 C13.695,7 15.1898,6.78396 16.2273,6.45973 C16.7217,6.30525 17.0626,6.1414 17.2668,6 C17.0626,5.8586 16.7217,5.69475 16.2273,5.54027 C15.1898,5.21604 13.695,5 12.0001,5 C10.3052,5 8.81042,5.21604 7.77289,5.54027 Z M18.6094,7.49099 C18.5699,7.52337 18.5304,7.55393 18.4914,7.58278 C18.0427,7.9143 17.4573,8.17074 16.8239,8.36869 C15.545,8.76832 13.8398,9 12.0001,9 C10.1604,9 8.45515,8.76832 7.17634,8.36869 C6.54289,8.17074 5.95751,7.9143 5.50881,7.58278 C5.46972,7.5539 5.43021,7.52331 5.39068,7.49099 C4.51271,8.77513 4,10.3274 4,12.0001 C4,16.4183 7.58172,20.0001 12,20.0001 C16.4183,20.0001 20,16.4183 20,12.0001 C20,10.3274 19.4873,8.77521 18.6094,7.49099 Z" id="形状" fill="#09244B"></path>
            </g>
        </g>
    </g>
</svg>