<?xml version="1.0" encoding="UTF-8"?>
<svg width="24px" height="24px" viewBox="0 0 24 24" version="1.1" xmlns="http://www.w3.org/2000/svg" xmlns:xlink="http://www.w3.org/1999/xlink">
    <title>iMac_line</title>
    <g id="页面-1" stroke="none" stroke-width="1" fill="none" fill-rule="evenodd">
        <g id="iMac_line">
            <rect id="矩形" transform="translate(12.000000, 12.000000) scale(-1, 1) translate(-12.000000, -12.000000) " x="0" y="0" width="24" height="24"></rect>
            <path d="M19,3 C20.1046,3 21,3.89543 21,5 L21,15 C21,16.1046 20.1046,17 19,17 L15.0324,17 C15.0702,17.5448333 15.1371222,17.9623 15.2116926,18.2792 L15.2769822,18.5268251 L15.3430128,18.7289434 C15.3539126,18.759046 15.3647182,18.7874086 15.3753668,18.8141096 L15.4368741,18.955 L15.4916095,19.0597598 L15.5365679,19.1321394 L15.5791,19.1882 C16.0251,19.5319 16.0027,20.0478 15.9183,20.3041 C15.8321,20.5656 15.5367,21 14.9577,21 L9.04241,21 C8.46343,21 8.16798,20.5656 8.08179,20.304 C7.99736,20.0478 7.975,19.5319 8.42098,19.1882 L8.46353732,19.1321394 L8.50850757,19.0597598 L8.56325111,18.955 L8.62476309,18.8141096 C8.75255224,18.493698 8.90292286,17.934 8.9677,17 L5,17 C3.89543,17 3,16.1046 3,15 L3,5 C3,3.89543 3.89543,3 5,3 L19,3 Z M13.0287,17 L10.9714,17 C10.928,17.7212625 10.8378203,18.3129812 10.7194178,18.7984025 L10.667,19 L13.3331,19 C13.2070125,18.544475 13.1064969,17.9859734 13.05011,17.301249 L13.0287,17 Z M19,14 L5,14 L5,15 L19,15 L19,14 Z M19,5 L5,5 L5,12 L19,12 L19,5 Z" id="形状" fill="#09244B" fill-rule="nonzero"></path>
        </g>
    </g>
</svg>