<?xml version="1.0" encoding="UTF-8"?>
<svg width="24px" height="24px" viewBox="0 0 24 24" version="1.1" xmlns="http://www.w3.org/2000/svg" xmlns:xlink="http://www.w3.org/1999/xlink">
    <title>keyboard_fill</title>
    <g id="页面-1" stroke="none" stroke-width="1" fill="none" fill-rule="evenodd">
        <g id="keyboard_fill">
             <path d="M24,0 L24,24 L0,24 L0,0 L24,0 Z M12.5934901,23.257841 L12.5819402,23.2595131 L12.5108777,23.2950439 L12.4918791,23.2987469 L12.4918791,23.2987469 L12.4767152,23.2950439 L12.4056548,23.2595131 C12.3958229,23.2563662 12.3870493,23.2590235 12.3821421,23.2649074 L12.3780323,23.275831 L12.360941,23.7031097 L12.3658947,23.7234994 L12.3769048,23.7357139 L12.4804777,23.8096931 L12.4953491,23.8136134 L12.4953491,23.8136134 L12.5071152,23.8096931 L12.6106902,23.7357139 L12.6232938,23.7196733 L12.6232938,23.7196733 L12.6266527,23.7031097 L12.609561,23.275831 C12.6075724,23.2657013 12.6010112,23.2592993 12.5934901,23.257841 L12.5934901,23.257841 Z M12.8583906,23.1452862 L12.8445485,23.1473072 L12.6598443,23.2396597 L12.6498822,23.2499052 L12.6498822,23.2499052 L12.6471943,23.2611114 L12.6650943,23.6906389 L12.6699349,23.7034178 L12.6699349,23.7034178 L12.678386,23.7104931 L12.8793402,23.8032389 C12.8914285,23.8068999 12.9022333,23.8029875 12.9078286,23.7952264 L12.9118235,23.7811639 L12.8776777,23.1665331 C12.8752882,23.1545897 12.8674102,23.1470016 12.8583906,23.1452862 L12.8583906,23.1452862 Z M12.1430473,23.1473072 C12.1332178,23.1423925 12.1221763,23.1452606 12.1156365,23.1525954 L12.1099173,23.1665331 L12.0757714,23.7811639 C12.0751323,23.7926639 12.0828099,23.8018602 12.0926481,23.8045676 L12.108256,23.8032389 L12.3092106,23.7104931 L12.3186497,23.7024347 L12.3186497,23.7024347 L12.3225043,23.6906389 L12.340401,23.2611114 L12.337245,23.2485176 L12.337245,23.2485176 L12.3277531,23.2396597 L12.1430473,23.1473072 Z" id="MingCute" fill-rule="nonzero"></path>
            <path d="M20,4 C21.0543909,4 21.9181678,4.81587733 21.9945144,5.85073759 L22,6 L22,18 C22,19.0543909 21.18415,19.9181678 20.1492661,19.9945144 L20,20 L4,20 C2.94563773,20 2.08183483,19.18415 2.00548573,18.1492661 L2,18 L2,6 C2,4.94563773 2.81587733,4.08183483 3.85073759,4.00548573 L4,4 L20,4 Z M17,15 L7,15 C6.44772,15 6,15.4477 6,16 C6,16.51285 6.38603566,16.9355092 6.8833779,16.9932725 L7,17 L17,17 C17.5523,17 18,16.5523 18,16 C18,15.48715 17.613973,15.0644908 17.1166239,15.0067275 L17,15 Z M12.5,11 L11.5,11 C10.9477,11 10.5,11.4477 10.5,12 C10.5,12.51285 10.886027,12.9355092 11.3833761,12.9932725 L11.5,13 L12.5,13 C13.0523,13 13.5,12.5523 13.5,12 C13.5,11.48715 13.113973,11.0644908 12.6166239,11.0067275 L12.5,11 Z M8,11 L7,11 C6.44772,11 6,11.4477 6,12 C6,12.5523 6.44771,13 7,13 L8,13 C8.55228,13 9,12.5523 9,12 C9,11.4477 8.55229,11 8,11 Z M17,11 L16,11 C15.4477,11 15,11.4477 15,12 C15,12.5523 15.4477,13 16,13 L17,13 C17.5523,13 18,12.5523 18,12 C18,11.4477 17.5523,11 17,11 Z M17,7 L16,7 C15.4477,7 15,7.44772 15,8 C15,8.51283143 15.386027,8.93550653 15.8833761,8.9932722 L16,9 L17,9 C17.5523,9 18,8.55228 18,8 C18,7.48716857 17.613973,7.06449347 17.1166239,7.0067278 L17,7 Z M12.5,7 L11.5,7 C10.9477,7 10.5,7.44772 10.5,8 C10.5,8.55228 10.9477,9 11.5,9 L12.5,9 C13.0523,9 13.5,8.55228 13.5,8 C13.5,7.44772 13.0523,7 12.5,7 Z M8,7 L7,7 C6.44772,7 6,7.44772 6,8 C6,8.55228 6.44771,9 7,9 L8,9 C8.55228,9 9,8.55228 9,8 C9,7.44772 8.55229,7 8,7 Z" id="形状" fill="#09244B" fill-rule="nonzero"></path>
        </g>
    </g>
</svg>