<?xml version="1.0" encoding="UTF-8"?>
<svg width="24px" height="24px" viewBox="0 0 24 24" version="1.1" xmlns="http://www.w3.org/2000/svg" xmlns:xlink="http://www.w3.org/1999/xlink">
    <title>keyboard_fill</title>
    <g id="页面-1" stroke="none" stroke-width="1" fill="none" fill-rule="evenodd">
        <g id="Device" transform="translate(-912.000000, -48.000000)">
            <g id="keyboard_fill" transform="translate(912.000000, 48.000000)">
                <rect id="矩形" fill-rule="nonzero" transform="translate(12.000000, 12.000000) scale(-1, 1) translate(-12.000000, -12.000000) " x="0" y="0" width="24" height="24"></rect>
                <path d="M4,3 C2.89543,3 2,3.89543 2,5 L2,19 C2,20.1046 2.89543,21 4,21 L20,21 C21.1046,21 22,20.1046 22,19 L22,5 C22,3.89543 21.1046,3 20,3 L4,3 Z M15,8 C15,7.44772 15.4477,7 16,7 L17,7 C17.5523,7 18,7.44772 18,8 C18,8.55228 17.5523,9 17,9 L16,9 C15.4477,9 15,8.55228 15,8 Z M11.5,7 C10.9477,7 10.5,7.44772 10.5,8 C10.5,8.55228 10.9477,9 11.5,9 L12.5,9 C13.0523,9 13.5,8.55228 13.5,8 C13.5,7.44772 13.0523,7 12.5,7 L11.5,7 Z M7,7 C6.44772,7 6,7.44772 6,8 C6,8.55228 6.44771,9 7,9 L8,9 C8.55228,9 9,8.55228 9,8 C9,7.44772 8.55229,7 8,7 L7,7 Z M7,11 C6.44772,11 6,11.4477 6,12 C6,12.5523 6.44771,13 7,13 L8,13 C8.55228,13 9,12.5523 9,12 C9,11.4477 8.55229,11 8,11 L7,11 Z M10.5,12 C10.5,11.4477 10.9477,11 11.5,11 L12.5,11 C13.0523,11 13.5,11.4477 13.5,12 C13.5,12.5523 13.0523,13 12.5,13 L11.5,13 C10.9477,13 10.5,12.5523 10.5,12 Z M16,11 C15.4477,11 15,11.4477 15,12 C15,12.5523 15.4477,13 16,13 L17,13 C17.5523,13 18,12.5523 18,12 C18,11.4477 17.5523,11 17,11 L16,11 Z M6,16 C6,15.4477 6.44772,15 7,15 L17,15 C17.5523,15 18,15.4477 18,16 C18,16.5523 17.5523,17 17,17 L7,17 C6.44771,17 6,16.5523 6,16 Z" id="形状" fill="#09244B"></path>
            </g>
        </g>
    </g>
</svg>