<?xml version="1.0" encoding="UTF-8"?>
<svg width="24px" height="24px" viewBox="0 0 24 24" version="1.1" xmlns="http://www.w3.org/2000/svg" xmlns:xlink="http://www.w3.org/1999/xlink">
    <title>mouse_fill</title>
    <g id="页面-1" stroke="none" stroke-width="1" fill="none" fill-rule="evenodd">
        <g id="Device" transform="translate(-960.000000, -48.000000)">
            <g id="mouse_fill" transform="translate(960.000000, 48.000000)">
                <rect id="矩形" fill-rule="nonzero" transform="translate(12.000000, 12.000000) scale(-1, 1) translate(-12.000000, -12.000000) " x="0" y="0" width="24" height="24"></rect>
                <path d="M13,2 C16.2383886,2 18.8775714,4.56557346 18.9958615,7.77506164 L19,8 L19,16 C19,19.2383886 16.434417,21.8775714 13.2249377,21.9958615 L13,22 L11,22 C7.76160159,22 5.12242817,19.434417 5.00413847,16.2249377 L5,16 L5,8 C5,4.76160159 7.56557346,2.12242817 10.7750616,2.00413847 L11,2 L13,2 Z M12,6 C11.4477,6 11,6.44772 11,7 L11,11 C11,11.5523 11.4477,12 12,12 C12.5523,12 13,11.5523 13,11 L13,7 C13,6.44772 12.5523,6 12,6 Z" id="形状" fill="#09244B"></path>
            </g>
        </g>
    </g>
</svg>