<?xml version="1.0" encoding="UTF-8"?>
<svg width="24px" height="24px" viewBox="0 0 24 24" version="1.1" xmlns="http://www.w3.org/2000/svg" xmlns:xlink="http://www.w3.org/1999/xlink">
    <title>mouse_line</title>
    <g id="页面-1" stroke="none" stroke-width="1" fill="none" fill-rule="evenodd">
        <g id="Device" transform="translate(-960.000000, 0.000000)" fill-rule="nonzero">
            <g id="mouse_line" transform="translate(960.000000, 0.000000)">
                 <path d="M24,0 L24,24 L0,24 L0,0 L24,0 Z M12.5934901,23.257841 L12.5819402,23.2595131 L12.5108777,23.2950439 L12.4918791,23.2987469 L12.4918791,23.2987469 L12.4767152,23.2950439 L12.4056548,23.2595131 C12.3958229,23.2563662 12.3870493,23.2590235 12.3821421,23.2649074 L12.3780323,23.275831 L12.360941,23.7031097 L12.3658947,23.7234994 L12.3769048,23.7357139 L12.4804777,23.8096931 L12.4953491,23.8136134 L12.4953491,23.8136134 L12.5071152,23.8096931 L12.6106902,23.7357139 L12.6232938,23.7196733 L12.6232938,23.7196733 L12.6266527,23.7031097 L12.609561,23.275831 C12.6075724,23.2657013 12.6010112,23.2592993 12.5934901,23.257841 L12.5934901,23.257841 Z M12.8583906,23.1452862 L12.8445485,23.1473072 L12.6598443,23.2396597 L12.6498822,23.2499052 L12.6498822,23.2499052 L12.6471943,23.2611114 L12.6650943,23.6906389 L12.6699349,23.7034178 L12.6699349,23.7034178 L12.678386,23.7104931 L12.8793402,23.8032389 C12.8914285,23.8068999 12.9022333,23.8029875 12.9078286,23.7952264 L12.9118235,23.7811639 L12.8776777,23.1665331 C12.8752882,23.1545897 12.8674102,23.1470016 12.8583906,23.1452862 L12.8583906,23.1452862 Z M12.1430473,23.1473072 C12.1332178,23.1423925 12.1221763,23.1452606 12.1156365,23.1525954 L12.1099173,23.1665331 L12.0757714,23.7811639 C12.0751323,23.7926639 12.0828099,23.8018602 12.0926481,23.8045676 L12.108256,23.8032389 L12.3092106,23.7104931 L12.3186497,23.7024347 L12.3186497,23.7024347 L12.3225043,23.6906389 L12.340401,23.2611114 L12.337245,23.2485176 L12.337245,23.2485176 L12.3277531,23.2396597 L12.1430473,23.1473072 Z" id="MingCute" fill-rule="nonzero"></path>
                <path d="M13,2 C16.2383886,2 18.8775714,4.56557346 18.9958615,7.77506164 L19,8 L19,16 C19,19.2383886 16.434417,21.8775714 13.2249377,21.9958615 L13,22 L11,22 C7.76160159,22 5.12242817,19.434417 5.00413847,16.2249377 L5,16 L5,8 C5,4.76160159 7.56557346,2.12242817 10.7750616,2.00413847 L11,2 L13,2 Z M13,4 L11,4 C8.85780364,4 7.10892107,5.68396753 7.0048953,7.80035957 L7,8 L7,16 C7,18.1421576 8.68396753,19.8910766 10.8003596,19.9951046 L11,20 L13,20 C15.1421576,20 16.8910766,18.3159949 16.9951046,16.199637 L17,16 L17,8 C17,5.85780364 15.3159949,4.10892107 13.199637,4.0048953 L13,4 Z M12,6 C12.51285,6 12.9355092,6.38604429 12.9932725,6.88337975 L13,7 L13,11 C13,11.5523 12.5523,12 12,12 C11.48715,12 11.0644908,11.613973 11.0067275,11.1166239 L11,11 L11,7 C11,6.44772 11.4477,6 12,6 Z" id="形状" fill="#09244B"></path>
            </g>
        </g>
    </g>
</svg>