<?xml version="1.0" encoding="UTF-8"?>
<svg width="24px" height="24px" viewBox="0 0 24 24" version="1.1" xmlns="http://www.w3.org/2000/svg" xmlns:xlink="http://www.w3.org/1999/xlink">
    <title>pad_fill</title>
    <g id="页面-1" stroke="none" stroke-width="1" fill="none" fill-rule="evenodd">
        <g id="Device" transform="translate(-1008.000000, -48.000000)">
            <g id="pad_fill" transform="translate(1008.000000, 48.000000)">
                <rect id="矩形" fill-rule="nonzero" transform="translate(12.000000, 12.000000) scale(-1, 1) translate(-12.000000, -12.000000) " x="0" y="0" width="24" height="24"></rect>
                <path d="M18,2 C19.0543909,2 19.9181678,2.81587733 19.9945144,3.85073759 L20,4 L20,20 C20,21.0543909 19.18415,21.9181678 18.1492661,21.9945144 L18,22 L6,22 C4.94563773,22 4.08183483,21.18415 4.00548573,20.1492661 L4,20 L4,4 C4,2.94563773 4.81587733,2.08183483 5.85073759,2.00548573 L6,2 L18,2 Z M12.5,16 L11.5,16 C11.2239,16 11,16.2239 11,16.5 L11,17.5 C11,17.7761 11.2239,18 11.5,18 L12.5,18 C12.7761,18 13,17.7761 13,17.5 L13,16.5 C13,16.2239 12.7761,16 12.5,16 Z" id="形状" fill="#09244B"></path>
            </g>
        </g>
    </g>
</svg>