<svg xmlns="http://www.w3.org/2000/svg" width="24" height="24"><g fill="none"><path d="M24 0v24H0V0zM12.593 23.258l-.011.002-.071.035-.02.004-.014-.004-.071-.035c-.01-.004-.019-.001-.024.005l-.004.01-.017.428.005.02.01.013.104.074.015.004.012-.004.104-.074.012-.016.004-.017-.017-.427c-.002-.01-.009-.017-.017-.018m.265-.113-.013.002-.185.093-.01.01-.003.011.018.43.005.012.008.007.201.093c.012.004.023 0 .029-.008l.004-.014-.034-.614c-.003-.012-.01-.02-.02-.022m-.715.002a.023.023 0 0 0-.027.006l-.006.014-.034.614c0 .012.007.02.017.024l.015-.002.201-.093.01-.008.004-.011.017-.43-.003-.012-.01-.01z"/><path fill="#09244B" d="M2 9a3 3 0 0 1 3-3h2.853c.297 0 .48-.309.366-.583A2.474 2.474 0 0 1 8.083 5c-.331-1.487.792-3 2.417-3 1.626 0 2.748 1.513 2.417 3a2.48 2.48 0 0 1-.136.417c-.115.274.069.583.366.583H15a3 3 0 0 1 3 3v1.853c0 .297.308.48.583.366.135-.056.273-.104.417-.136 1.487-.331 3 .791 3 2.417s-1.513 2.748-3 2.417a2.475 2.475 0 0 1-.417-.136c-.274-.115-.583.069-.583.366V19a3 3 0 0 1-3 3h-1.893c-.288 0-.473-.291-.39-.566.041-.14.072-.284.085-.434a2.31 2.31 0 1 0-4.604 0c.013.15.044.294.086.434.082.275-.103.566-.39.566H5a3 3 0 0 1-3-3v-2.893c0-.288.291-.473.566-.39.14.041.284.072.434.085a2.31 2.31 0 1 0 0-4.604c-.15.013-.294.044-.434.086-.275.082-.566-.103-.566-.39z"/></g></svg>