<?xml version="1.0" encoding="UTF-8"?>
<svg width="24px" height="24px" viewBox="0 0 24 24" version="1.1" xmlns="http://www.w3.org/2000/svg" xmlns:xlink="http://www.w3.org/1999/xlink">
    <title>plugin_line</title>
    <g id="页面-1" stroke="none" stroke-width="1" fill="none" fill-rule="evenodd">
        <g id="Device" transform="translate(-384.000000, -192.000000)">
            <g id="plugin_line" transform="translate(384.000000, 192.000000)">
                <rect id="矩形" fill-rule="nonzero" x="0" y="0" width="24" height="24"></rect>
                <path d="M15,20 C15.5523,20 16,20.4477 16,21 C16,21.51285 15.613973,21.9355092 15.1166239,21.9932725 L15,22 L9,22 C8.44772,22 8,21.5523 8,21 C8,20.48715 8.38604429,20.0644908 8.88337975,20.0067275 L9,20 L15,20 Z M15,2 C15.51285,2 15.9355092,2.38604429 15.9932725,2.88337975 L16,3 L16,6 L18,6 C19.0543909,6 19.9181678,6.81587733 19.9945144,7.85073759 L20,8 L20,13 C20,16.2383886 17.434417,18.8775714 14.2249377,18.9958615 L14,19 L10,19 C6.76160159,19 4.12242817,16.434417 4.00413847,13.2249377 L4,13 L4,8 C4,6.94563773 4.81587733,6.08183483 5.85073759,6.00548573 L6,6 L8,6 L8,3 C8,2.44772 8.44772,2 9,2 C9.51283143,2 9.93550653,2.38604429 9.9932722,2.88337975 L10,3 L10,6 L14,6 L14,3 C14,2.44772 14.4477,2 15,2 Z M18,8 L6,8 L6,13 C6,15.1421576 7.68396753,16.8910766 9.80035957,16.9951046 L10,17 L14,17 C16.1421576,17 17.8910766,15.3159949 17.9951046,13.199637 L18,13 L18,8 Z" id="形状" fill="#09244B"></path>
            </g>
        </g>
    </g>
</svg>