<?xml version="1.0" encoding="UTF-8"?>
<svg width="24px" height="24px" viewBox="0 0 24 24" version="1.1" xmlns="http://www.w3.org/2000/svg" xmlns:xlink="http://www.w3.org/1999/xlink">
    <title>print_fill</title>
    <g id="页面-1" stroke="none" stroke-width="1" fill="none" fill-rule="evenodd">
        <g id="Device" transform="translate(-576.000000, -48.000000)" fill-rule="nonzero">
            <g id="print_fill" transform="translate(576.000000, 48.000000)">
                <rect id="矩形" x="0" y="0" width="24" height="24"></rect>
                <path d="M16,16 C16.51285,16 16.9355092,16.386027 16.9932725,16.8833761 L17,17 L17,21 C17,21.51285 16.613973,21.9355092 16.1166239,21.9932725 L16,22 L8,22 C7.48716857,22 7.06449347,21.613973 7.0067278,21.1166239 L7,21 L7,17 C7,16.48715 7.38604429,16.0644908 7.88337975,16.0067275 L8,16 L16,16 Z M19,7 C20.6569,7 22,8.34315 22,10 L22,17 C22,18.1046 21.1046,19 20,19 L19,19 L19,16 C19,14.8954 18.1046,14 17,14 L7,14 C5.89543,14 5,14.8954 5,16 L5,19 L4,19 C2.89543,19 2,18.1046 2,17 L2,10 C2,8.34315 3.34315,7 5,7 L19,7 Z M17,9 L15,9 C14.4477,9 14,9.44772 14,10 C14,10.51285 14.386027,10.9355092 14.8833761,10.9932725 L15,11 L17,11 C17.5523,11 18,10.5523 18,10 C18,9.48716857 17.613973,9.06449347 17.1166239,9.0067278 L17,9 Z M17,2 C17.5523,2 18,2.44772 18,3 L18,5 L6,5 L6,3 C6,2.44772 6.44772,2 7,2 L17,2 Z" id="形状" fill="#09244B"></path>
            </g>
        </g>
    </g>
</svg>