<?xml version="1.0" encoding="UTF-8"?>
<svg width="24px" height="24px" viewBox="0 0 24 24" version="1.1" xmlns="http://www.w3.org/2000/svg" xmlns:xlink="http://www.w3.org/1999/xlink">
    <title>print_line</title>
    <g id="页面-1" stroke="none" stroke-width="1" fill="none" fill-rule="evenodd">
        <g id="print_line">
            <rect id="矩形" fill-opacity="0.01" fill="#FFFFFF" fill-rule="nonzero" x="0" y="0" width="24" height="24"></rect>
            <path d="M16.9,3 C17.467,3 17.9338222,3.4290048 17.9935452,3.9801417 L18,4.1 L18,7 L19,7 C20.597725,7 21.903664,8.24892392 21.9949075,9.82372764 L22,10 L22,17 C22,18.0543909 21.18415,18.9181678 20.1492661,18.9945144 L20,19 L18,19 L18,20.9 C18,21.467 17.5709778,21.9338222 17.0198548,21.9935452 L16.9,22 L7.1,22 C6.53299067,22 6.06617653,21.5709778 6.00645469,21.0198548 L6,20.9 L6,19 L4,19 C2.94563773,19 2.08183483,18.18415 2.00548573,17.1492661 L2,17 L2,10 C2,8.40232321 3.24892392,7.09633941 4.82372764,7.00509271 L5,7 L6,7 L6,4.1 C6,3.53299067 6.42901351,3.06617653 6.98014344,3.00645469 L7.1,3 L16.9,3 Z M16,16 L8,16 L8,20 L16,20 L16,16 Z M19,9 L5,9 C4.48716857,9 4.06449347,9.38604429 4.0067278,9.88337975 L4,10 L4,17 L6,17 L6,15.1 C6,14.533 6.42901351,14.0661778 6.98014344,14.0064548 L7.1,14 L16.9,14 C17.467,14 17.9338222,14.4290222 17.9935452,14.9801452 L18,15.1 L18,17 L20,17 L20,10 C20,9.44772 19.5523,9 19,9 Z M17,10 C17.5523,10 18,10.4477 18,11 C18,11.51285 17.613973,11.9355092 17.1166239,11.9932725 L17,12 L15,12 C14.4477,12 14,11.5523 14,11 C14,10.48715 14.386027,10.0644908 14.8833761,10.0067275 L15,10 L17,10 Z M16,5 L8,5 L8,7 L16,7 L16,5 Z" id="形状" fill="#09244B"></path>
        </g>
    </g>
</svg>