<svg width="24" height="24" viewBox="0 0 24 24" fill="none" xmlns="http://www.w3.org/2000/svg">
<rect width="24" height="24" fill="white" fill-opacity="0.01"/>
<path d="M6 3C6 2.44772 6.44772 2 7 2H17C17.5523 2 18 2.44772 18 3V5H6V3Z" fill="#09244B"/>
<path fill-rule="evenodd" clip-rule="evenodd" d="M2 10C2 8.34315 3.34315 7 5 7H19C20.6569 7 22 8.34315 22 10V17C22 18.1046 21.1046 19 20 19H19V16C19 14.8954 18.1046 14 17 14H7C5.89543 14 5 14.8954 5 16V19H4C2.89543 19 2 18.1046 2 17V10ZM14 10C14 9.44772 14.4477 9 15 9H17C17.5523 9 18 9.44772 18 10C18 10.5523 17.5523 11 17 11H15C14.4477 11 14 10.5523 14 10Z" fill="#09244B"/>
<path d="M8 16C7.44772 16 7 16.4477 7 17V21C7 21.5523 7.44772 22 8 22H16C16.5523 22 17 21.5523 17 21V17C17 16.4477 16.5523 16 16 16H8Z" fill="#09244B"/>
</svg>
