<svg xmlns="http://www.w3.org/2000/svg" width="24" height="24" viewBox="0 0 24 24"><g fill="none" fill-rule="evenodd"><path d="M24,0 L24,24 L0,24 L0,0 L24,0 Z M12.5935,23.2578 L12.5819,23.2595 L12.5109,23.295 L12.4919,23.2987 L12.4767,23.295 L12.4057,23.2595 C12.3958,23.2564 12.387,23.259 12.3821,23.2649 L12.378,23.2758 L12.3609,23.7031 L12.3659,23.7235 L12.3769,23.7357 L12.4805,23.8097 L12.4953,23.8136 L12.5071,23.8097 L12.6107,23.7357 L12.6233,23.7197 L12.6267,23.7031 L12.6096,23.2758 C12.6076,23.2657 12.601,23.2593 12.5935,23.2578 Z M12.8584,23.1453 L12.8445,23.1473 L12.6598,23.2397 L12.6499,23.2499 L12.6472,23.2611 L12.6651,23.6906 L12.6699,23.7034 L12.6784,23.7105 L12.8793,23.8032 C12.8914,23.8069 12.9022,23.803 12.9078,23.7952 L12.9118,23.7812 L12.8777,23.1665 C12.8753,23.1546 12.8674,23.147 12.8584,23.1453 Z M12.143,23.1473 C12.1332,23.1424 12.1222,23.1453 12.1156,23.1526 L12.1099,23.1665 L12.0758,23.7812 C12.0751,23.7927 12.0828,23.8019 12.0926,23.8046 L12.1083,23.8032 L12.3092,23.7105 L12.3186,23.7024 L12.3225,23.6906 L12.3404,23.2611 L12.3372,23.2485 L12.3278,23.2397 L12.143,23.1473 Z"/><path fill="#09244B" d="M15,4 C15.5523,4 16,4.44772 16,5 C16,5.55228 15.5523,6 15,6 L13,6 L13,8 L19,8 C20.6569,8 22,9.34315 22,11 L22,17 C22,18.6569 20.6569,20 19,20 L5,20 C3.34315,20 2,18.6569 2,17 L2,11 C2,9.34315 3.34315,8 5,8 L11,8 L11,6 L9,6 C8.44772,6 8,5.55228 8,5 C8,4.44772 8.44772,4 9,4 L15,4 Z M19,10 L5,10 C4.44772,10 4,10.4477 4,11 L4,12 L7,12 C7.55228,12 8,12.4477 8,13 C8,13.5523 7.55228,14 7,14 L4,14 L4,17 C4,17.5523 4.44772,18 5,18 L19,18 C19.5523,18 20,17.5523 20,17 L20,11 C20,10.4477 19.5523,10 19,10 Z M16,11 C17.6569,11 19,12.3431 19,14 C19,15.6569 17.6569,17 16,17 C14.3431,17 13,15.6569 13,14 C13,12.3431 14.3431,11 16,11 Z M16,13 C15.4477,13 15,13.4477 15,14 C15,14.5523 15.4477,15 16,15 C16.5523,15 17,14.5523 17,14 C17,13.4477 16.5523,13 16,13 Z"/></g></svg>