<svg xmlns="http://www.w3.org/2000/svg" width="24" height="24"><g fill="none"><path d="M24 0v24H0V0zM12.593 23.258l-.011.002-.071.035-.02.004-.014-.004-.071-.035c-.01-.004-.019-.001-.024.005l-.004.01-.017.428.005.02.01.013.104.074.015.004.012-.004.104-.074.012-.016.004-.017-.017-.427c-.002-.01-.009-.017-.017-.018m.265-.113-.013.002-.185.093-.01.01-.003.011.018.43.005.012.008.007.201.093c.012.004.023 0 .029-.008l.004-.014-.034-.614c-.003-.012-.01-.02-.02-.022m-.715.002a.023.023 0 0 0-.027.006l-.006.014-.034.614c0 .012.007.02.017.024l.015-.002.201-.093.01-.008.004-.011.017-.43-.003-.012-.01-.01z"/><path fill="#09244B" d="m7.418 3.973 4.848 4.847.087-.087a1 1 0 0 1 1.414 1.414l-.087.087 4.347 4.348c.572.572.614 1.557-.053 2.15a8.97 8.97 0 0 1-4.807 2.193l.98 1.318A1.1 1.1 0 0 1 13.266 22h-6.58a1.1 1.1 0 0 1-1.017-1.518l1.253-3.051A8.99 8.99 0 0 1 3 10a8.97 8.97 0 0 1 2.269-5.974c.592-.667 1.577-.625 2.15-.053Zm1.277 14.4L8.028 20h3.446l-.819-1.1a8.933 8.933 0 0 1-1.96-.526Zm5.413-13.32a3.5 3.5 0 0 1 2.858 2.96 1 1 0 0 1-1.958.393l-.023-.115a1.5 1.5 0 0 0-1.07-1.233l-.155-.035a1 1 0 0 1 .348-1.97M14 2a6 6 0 0 1 6 6 1 1 0 0 1-1.993.117L18 8a4 4 0 0 0-4-4 1 1 0 1 1 0-2"/></g></svg>