<?xml version="1.0" encoding="UTF-8"?>
<svg width="24px" height="24px" viewBox="0 0 24 24" version="1.1" xmlns="http://www.w3.org/2000/svg" xmlns:xlink="http://www.w3.org/1999/xlink">
    <title>radar_2_fill</title>
    <g id="页面-1" stroke="none" stroke-width="1" fill="none" fill-rule="evenodd">
        <g id="Device" transform="translate(-240.000000, -240.000000)" fill-rule="nonzero">
            <g id="radar_2_fill" transform="translate(240.000000, 240.000000)">
                 <path d="M24,0 L24,24 L0,24 L0,0 L24,0 Z M12.5934901,23.257841 L12.5819402,23.2595131 L12.5108777,23.2950439 L12.4918791,23.2987469 L12.4918791,23.2987469 L12.4767152,23.2950439 L12.4056548,23.2595131 C12.3958229,23.2563662 12.3870493,23.2590235 12.3821421,23.2649074 L12.3780323,23.275831 L12.360941,23.7031097 L12.3658947,23.7234994 L12.3769048,23.7357139 L12.4804777,23.8096931 L12.4953491,23.8136134 L12.4953491,23.8136134 L12.5071152,23.8096931 L12.6106902,23.7357139 L12.6232938,23.7196733 L12.6232938,23.7196733 L12.6266527,23.7031097 L12.609561,23.275831 C12.6075724,23.2657013 12.6010112,23.2592993 12.5934901,23.257841 L12.5934901,23.257841 Z M12.8583906,23.1452862 L12.8445485,23.1473072 L12.6598443,23.2396597 L12.6498822,23.2499052 L12.6498822,23.2499052 L12.6471943,23.2611114 L12.6650943,23.6906389 L12.6699349,23.7034178 L12.6699349,23.7034178 L12.678386,23.7104931 L12.8793402,23.8032389 C12.8914285,23.8068999 12.9022333,23.8029875 12.9078286,23.7952264 L12.9118235,23.7811639 L12.8776777,23.1665331 C12.8752882,23.1545897 12.8674102,23.1470016 12.8583906,23.1452862 L12.8583906,23.1452862 Z M12.1430473,23.1473072 C12.1332178,23.1423925 12.1221763,23.1452606 12.1156365,23.1525954 L12.1099173,23.1665331 L12.0757714,23.7811639 C12.0751323,23.7926639 12.0828099,23.8018602 12.0926481,23.8045676 L12.108256,23.8032389 L12.3092106,23.7104931 L12.3186497,23.7024347 L12.3186497,23.7024347 L12.3225043,23.6906389 L12.340401,23.2611114 L12.337245,23.2485176 L12.337245,23.2485176 L12.3277531,23.2396597 L12.1430473,23.1473072 Z" id="MingCute" fill-rule="nonzero"></path>
                <path d="M7.41849,3.97302 L12.2656,8.82015 L12.3529,8.73283 C12.7434,8.34231 13.3766,8.34231 13.7671,8.73283 C14.1576,9.12336 14.1576,9.75652 13.7671,10.147 L13.6798,10.2344 L18.0269,14.5816 C18.5991,15.1537 18.6413,16.1389 17.9741,16.7314 C16.6596,17.8988 14.9991,18.6876 13.1667,18.925 L14.1476,20.2434 C14.6875,20.9691 14.1696,22 13.265,22 L6.68506,22 C5.90253,22 5.37025,21.206 5.66753,20.4821 L6.92068,17.4307 C4.55327,15.8094 3,13.0861 3,10 C3,7.70818 3.85794,5.61433 5.26864,4.02585 C5.86115,3.35867 6.84631,3.40084 7.41849,3.97302 Z M8.69541,18.3739 L8.02762,20 L11.4737,20 L10.6554,18.9002 C9.9741,18.7982 9.31777,18.6197 8.69541,18.3739 Z M14.1077,5.05316 C14.8356,5.1815 15.5042,5.537 16.0177,6.06868 C16.5311,6.60036 16.863,7.28094 16.9659,8.01288 C17.0428,8.55979 16.6617,9.06546 16.1148,9.14232 C15.6069643,9.21369 15.1346531,8.89022944 15.0082806,8.40576989 L14.9854,8.29122 C14.9413,7.97754 14.799,7.68586 14.579,7.458 C14.3955833,7.26810833 14.1660556,7.13066111 13.9140856,7.05828565 L13.7604,7.02277 C13.2165,6.92687 12.8534,6.40821 12.9493,5.86432 C13.0452,5.32042 13.5638,4.95725 14.1077,5.05316 Z M14,2 C14.7879,2 15.5681,2.15519 16.2961,2.45672 C17.0241,2.75825 17.6855,3.20021 18.2426,3.75736 C18.7998,4.31451 19.2417,4.97595 19.5433,5.7039 C19.8448,6.43185 20,7.21207 20,8 C20,8.55228 19.5523,9 19,9 C18.48715,9 18.0644908,8.61395571 18.0067275,8.11662025 L18,8 C18,7.47471 17.8965,6.95457 17.6955,6.46927 C17.4945,5.98396 17.1999,5.54301 16.8284,5.17157 C16.457,4.80014 16.016,4.5055 15.5307,4.30448 C15.0454,4.10346 14.5253,4 14,4 C13.4477,4 13,3.55228 13,3 C13,2.44772 13.4477,2 14,2 Z" id="形状" fill="#09244B"></path>
            </g>
        </g>
    </g>
</svg>