<?xml version="1.0" encoding="UTF-8"?>
<svg width="24px" height="24px" viewBox="0 0 24 24" version="1.1" xmlns="http://www.w3.org/2000/svg" xmlns:xlink="http://www.w3.org/1999/xlink">
    <title>radar_line</title>
    <g id="页面-1" stroke="none" stroke-width="1" fill="none" fill-rule="evenodd">
        <g id="Device" transform="translate(-432.000000, -96.000000)" fill-rule="nonzero">
            <g id="radar_line" transform="translate(432.000000, 96.000000)">
                <rect id="矩形" x="0" y="0" width="24" height="24"></rect>
                <path d="M4.92893,4.92894 C5.31946,4.53842 5.95262,4.53842 6.34315,4.92894 C6.73367,5.31946 6.73367,5.95263 6.34315,6.34315 C4.89434,7.79196 4,9.79059 4,12 C4,14.2094 4.89434,16.2081 6.34315,17.6569 C6.73367,18.0474 6.73367,18.6806 6.34315,19.0711 C5.95262,19.4616 5.31946,19.4616 4.92893,19.0711 C3.12038,17.2625 2,14.7612 2,12 C2,9.23886 3.12038,6.73749 4.92893,4.92894 Z M17.6569,4.92894 C18.0474,4.53842 18.6805,4.53842 19.0711,4.92894 C20.8796,6.73749 22,9.23886 22,12 C22,14.7612 20.8796,17.2625 19.0711,19.0711 C18.6805,19.4616 18.0474,19.4616 17.6569,19.0711 C17.2663,18.6806 17.2663,18.0474 17.6569,17.6569 C19.1057,16.2081 20,14.2094 20,12 C20,9.79059 19.1057,7.79196 17.6569,6.34315 C17.2663,5.95263 17.2663,5.31946 17.6569,4.92894 Z M9.17157,7.75737 C9.5621,8.1479 9.5621,8.78106 9.17157,9.17158 C8.44662,9.89654 8,10.8952 8,12 C8,13.1293 8.4667,14.1479 9.22042,14.8765 C9.61752,15.2603 9.62828,15.8934 9.24445,16.2905 C8.86061,16.6876 8.22754,16.6983 7.83044,16.3145 C6.70299,15.2247 6,13.6936 6,12 C6,10.3434 6.67267,8.84206 7.75736,7.75737 C8.14788,7.36685 8.78105,7.36685 9.17157,7.75737 Z M16.2819,7.79704 C17.3436,8.87851 18,10.3636 18,12 C18,13.6566 17.3273,15.158 16.2426,16.2427 C15.8521,16.6332 15.219,16.6332 14.8284,16.2427 C14.4379,15.8521 14.4379,15.219 14.8284,14.8284 C15.5534,14.1035 16,13.1049 16,12 C16,10.9085 15.5641,9.92079 14.8547,9.1981 C14.4678,8.80397 14.4737,8.17084 14.8678,7.78394 C15.2619,7.39705 15.895,7.40291 16.2819,7.79704 Z M12,10.5 C12.8284,10.5 13.5,11.1716 13.5,12 C13.5,12.8284 12.8284,13.5 12,13.5 C11.1716,13.5 10.5,12.8284 10.5,12 C10.5,11.1716 11.1716,10.5 12,10.5 Z" id="形状结合" fill="#09244B"></path>
            </g>
        </g>
    </g>
</svg>