<svg xmlns="http://www.w3.org/2000/svg" width="24" height="24"><g fill="none"><path d="M24 0v24H0V0zM12.593 23.258l-.011.002-.071.035-.02.004-.014-.004-.071-.035c-.01-.004-.019-.001-.024.005l-.004.01-.017.428.005.02.01.013.104.074.015.004.012-.004.104-.074.012-.016.004-.017-.017-.427c-.002-.01-.009-.017-.017-.018m.265-.113-.013.002-.185.093-.01.01-.003.011.018.43.005.012.008.007.201.093c.012.004.023 0 .029-.008l.004-.014-.034-.614c-.003-.012-.01-.02-.02-.022m-.715.002a.023.023 0 0 0-.027.006l-.006.014-.034.614c0 .012.007.02.017.024l.015-.002.201-.093.01-.008.004-.011.017-.43-.003-.012-.01-.01z"/><path fill="#09244B" d="M4.575 4.575a1.5 1.5 0 1 1 2.122 2.122A7.472 7.472 0 0 0 4.5 12a7.47 7.47 0 0 0 2.197 5.303 1.5 1.5 0 1 1-2.122 2.122A10.472 10.472 0 0 1 1.5 12c0-2.9 1.177-5.526 3.075-7.425m12.728 0a1.5 1.5 0 0 1 2.122 0A10.472 10.472 0 0 1 22.5 12c0 2.9-1.177 5.526-3.075 7.425a1.5 1.5 0 1 1-2.122-2.122A7.472 7.472 0 0 0 19.5 12a7.472 7.472 0 0 0-2.197-5.303 1.5 1.5 0 0 1 0-2.122M9.525 7.404a1.5 1.5 0 0 1 0 2.121A3.484 3.484 0 0 0 8.5 12c0 .912.347 1.741.92 2.365l.148.152a1.5 1.5 0 1 1-2.085 2.157A6.485 6.485 0 0 1 5.5 12c0-1.794.73-3.422 1.904-4.596a1.5 1.5 0 0 1 2.121 0m7.114.043A6.484 6.484 0 0 1 18.5 12c0 1.794-.73 3.422-1.904 4.596a1.5 1.5 0 1 1-2.121-2.121A3.484 3.484 0 0 0 15.5 12c0-.955-.38-1.819-1.002-2.452a1.5 1.5 0 1 1 2.14-2.101ZM12 10a2 2 0 1 1 0 4 2 2 0 0 1 0-4"/></g></svg>