<?xml version="1.0" encoding="UTF-8"?>
<svg width="24px" height="24px" viewBox="0 0 24 24" version="1.1" xmlns="http://www.w3.org/2000/svg" xmlns:xlink="http://www.w3.org/1999/xlink">
    <title>radar_fill</title>
    <g id="页面-1" stroke="none" stroke-width="1" fill="none" fill-rule="evenodd">
        <g id="Device" transform="translate(-432.000000, -144.000000)" fill-rule="nonzero">
            <g id="radar_fill" transform="translate(432.000000, 144.000000)">
                <rect id="矩形" x="0" y="0" width="24" height="24"></rect>
                <path d="M4.57538,4.57539 C5.16116,3.9896 6.11091,3.9896 6.6967,4.57539 C7.28249,5.16117 7.28249,6.11092 6.6967,6.69671 C5.33782,8.05558 4.5,9.92853 4.5,12 C4.5,14.0715 5.33782,15.9444 6.6967,17.3033 C7.28249,17.8891 7.28249,18.8388 6.6967,19.4246 C6.11091,20.0104 5.16116,20.0104 4.57538,19.4246 C2.67689,17.5261 1.5,14.8991 1.5,12 C1.5,9.10093 2.67689,6.47387 4.57538,4.57539 Z M17.3033,4.57539 C17.8891,3.9896 18.8388,3.9896 19.4246,4.57539 C21.3231,6.47387 22.5,9.10093 22.5,12 C22.5,14.8991 21.3231,17.5261 19.4246,19.4246 C18.8388,20.0104 17.8891,20.0104 17.3033,19.4246 C16.7175,18.8388 16.7175,17.8891 17.3033,17.3033 C18.6622,15.9444 19.5,14.0715 19.5,12 C19.5,9.92853 18.6622,8.05558 17.3033,6.69671 C16.7175,6.11092 16.7175,5.16117 17.3033,4.57539 Z M9.52513,7.40382 C10.1109,7.9896 10.1109,8.93935 9.52513,9.52514 C8.89011,10.1602 8.5,11.0331 8.5,12 C8.5,12.9122769 8.8473297,13.7411361 9.42009315,14.365295 L9.56791,14.517 C10.1636,15.0927 10.1797,16.0423 9.60396,16.638 C9.02821,17.2336 8.0786,17.2498 7.48294,16.674 C6.26206,15.4939 5.5,13.8347 5.5,12 C5.5,10.2055 6.22918,8.57844 7.40381,7.40382 C7.98959,6.81803 8.93934,6.81803 9.52513,7.40382 Z M16.6388,7.44677 C17.7884,8.61794 18.5,10.2274 18.5,12 C18.5,13.7945 17.7708,15.4216 16.5962,16.5962 C16.0104,17.182 15.0607,17.182 14.4749,16.5962 C13.8891,16.0104 13.8891,15.0607 14.4749,14.4749 C15.1099,13.8399 15.5,12.9669 15.5,12 C15.5,11.0447 15.1193,10.1814 14.4979,9.54836 C13.9175,8.95718 13.9263,8.00747 14.5175,7.42713 C15.1087,6.84679 16.0584,6.85559 16.6388,7.44677 Z M12,10 C13.1046,10 14,10.8954 14,12 C14,13.1046 13.1046,14 12,14 C10.8954,14 10,13.1046 10,12 C10,10.8954 10.8954,10 12,10 Z" id="形状" fill="#09244B"></path>
            </g>
        </g>
    </g>
</svg>