<?xml version="1.0" encoding="UTF-8"?>
<svg width="24px" height="24px" viewBox="0 0 24 24" version="1.1" xmlns="http://www.w3.org/2000/svg" xmlns:xlink="http://www.w3.org/1999/xlink">
    <title>radar_2_fill</title>
    <g id="页面-1" stroke="none" stroke-width="1" fill="none" fill-rule="evenodd">
        <g id="Device" transform="translate(-240.000000, -240.000000)" fill-rule="nonzero">
            <g id="radar_2_fill" transform="translate(240.000000, 240.000000)">
                <rect id="矩形" x="0" y="0" width="24" height="24"></rect>
                <path d="M7.41849,3.97302 L12.2656,8.82015 L12.3529,8.73283 C12.7434,8.34231 13.3766,8.34231 13.7671,8.73283 C14.1576,9.12336 14.1576,9.75652 13.7671,10.147 L13.6798,10.2344 L18.0269,14.5816 C18.5991,15.1537 18.6413,16.1389 17.9741,16.7314 C16.6596,17.8988 14.9991,18.6876 13.1667,18.925 L14.1476,20.2434 C14.6875,20.9691 14.1696,22 13.265,22 L6.68506,22 C5.90253,22 5.37025,21.206 5.66753,20.4821 L6.92068,17.4307 C4.55327,15.8094 3,13.0861 3,10 C3,7.70818 3.85794,5.61433 5.26864,4.02585 C5.86115,3.35867 6.84631,3.40084 7.41849,3.97302 Z M8.69541,18.3739 L8.02762,20 L11.4737,20 L10.6554,18.9002 C9.9741,18.7982 9.31777,18.6197 8.69541,18.3739 Z M14.1077,5.05316 C14.8356,5.1815 15.5042,5.537 16.0177,6.06868 C16.5311,6.60036 16.863,7.28094 16.9659,8.01288 C17.0428,8.55979 16.6617,9.06546 16.1148,9.14232 C15.6069643,9.21369 15.1346531,8.89022944 15.0082806,8.40576989 L14.9854,8.29122 C14.9413,7.97754 14.799,7.68586 14.579,7.458 C14.3955833,7.26810833 14.1660556,7.13066111 13.9140856,7.05828565 L13.7604,7.02277 C13.2165,6.92687 12.8534,6.40821 12.9493,5.86432 C13.0452,5.32042 13.5638,4.95725 14.1077,5.05316 Z M14,2 C14.7879,2 15.5681,2.15519 16.2961,2.45672 C17.0241,2.75825 17.6855,3.20021 18.2426,3.75736 C18.7998,4.31451 19.2417,4.97595 19.5433,5.7039 C19.8448,6.43185 20,7.21207 20,8 C20,8.55228 19.5523,9 19,9 C18.48715,9 18.0644908,8.61395571 18.0067275,8.11662025 L18,8 C18,7.47471 17.8965,6.95457 17.6955,6.46927 C17.4945,5.98396 17.1999,5.54301 16.8284,5.17157 C16.457,4.80014 16.016,4.5055 15.5307,4.30448 C15.0454,4.10346 14.5253,4 14,4 C13.4477,4 13,3.55228 13,3 C13,2.44772 13.4477,2 14,2 Z" id="形状" fill="#09244B"></path>
            </g>
        </g>
    </g>
</svg>