<?xml version="1.0" encoding="UTF-8"?>
<svg width="24px" height="24px" viewBox="0 0 24 24" version="1.1" xmlns="http://www.w3.org/2000/svg" xmlns:xlink="http://www.w3.org/1999/xlink">
    <title>radio_line</title>
    <g id="页面-1" stroke="none" stroke-width="1" fill="none" fill-rule="evenodd">
        <g id="Device" transform="translate(-624.000000, 0.000000)" fill-rule="nonzero">
            <g id="radio_line" transform="translate(624.000000, 0.000000)">
                 <path d="M24,0 L24,24 L0,24 L0,0 L24,0 Z M12.5934901,23.257841 L12.5819402,23.2595131 L12.5108777,23.2950439 L12.4918791,23.2987469 L12.4918791,23.2987469 L12.4767152,23.2950439 L12.4056548,23.2595131 C12.3958229,23.2563662 12.3870493,23.2590235 12.3821421,23.2649074 L12.3780323,23.275831 L12.360941,23.7031097 L12.3658947,23.7234994 L12.3769048,23.7357139 L12.4804777,23.8096931 L12.4953491,23.8136134 L12.4953491,23.8136134 L12.5071152,23.8096931 L12.6106902,23.7357139 L12.6232938,23.7196733 L12.6232938,23.7196733 L12.6266527,23.7031097 L12.609561,23.275831 C12.6075724,23.2657013 12.6010112,23.2592993 12.5934901,23.257841 L12.5934901,23.257841 Z M12.8583906,23.1452862 L12.8445485,23.1473072 L12.6598443,23.2396597 L12.6498822,23.2499052 L12.6498822,23.2499052 L12.6471943,23.2611114 L12.6650943,23.6906389 L12.6699349,23.7034178 L12.6699349,23.7034178 L12.678386,23.7104931 L12.8793402,23.8032389 C12.8914285,23.8068999 12.9022333,23.8029875 12.9078286,23.7952264 L12.9118235,23.7811639 L12.8776777,23.1665331 C12.8752882,23.1545897 12.8674102,23.1470016 12.8583906,23.1452862 L12.8583906,23.1452862 Z M12.1430473,23.1473072 C12.1332178,23.1423925 12.1221763,23.1452606 12.1156365,23.1525954 L12.1099173,23.1665331 L12.0757714,23.7811639 C12.0751323,23.7926639 12.0828099,23.8018602 12.0926481,23.8045676 L12.108256,23.8032389 L12.3092106,23.7104931 L12.3186497,23.7024347 L12.3186497,23.7024347 L12.3225043,23.6906389 L12.340401,23.2611114 L12.337245,23.2485176 L12.337245,23.2485176 L12.3277531,23.2396597 L12.1430473,23.1473072 Z" id="MingCute" fill-rule="nonzero"></path>
                <path d="M7.42214,3.60967 C7.59753786,3.12776 8.10486551,2.86260974 8.59196243,2.97843378 L8.70385,3.012 L19.661,7.00005 L20,7.00005 C21.0543909,7.00005 21.9181678,7.81592733 21.9945144,8.85078759 L22,9.00005 L22,19.0001 C22,20.0543955 21.18415,20.9182591 20.1492661,20.9946139 L20,21.0001 L4,21.0001 C2.94563773,21.0001 2.08183483,20.1841589 2.00548573,19.1493537 L2,19.0001 L2,9.00005 C2,7.94568773 2.81587733,7.08188483 3.85073759,7.00553573 L4,7.00005 L13.8133,7.00005 L8.01981,4.89138 C7.50083,4.70249 7.23325,4.12865 7.42214,3.60967 Z M19.3085,9.00005 L4,9.00005 L4,19.0001 L20,19.0001 L20,9.00005 L19.9678,9.00005 C19.80276,9.057802 19.621784,9.0727508 19.4424336,9.03674024 L19.3085,9.00005 Z M10,15.0001 C10.5523,15.0001 11,15.4478 11,16.0001 C11,16.5128571 10.613973,16.9355959 10.1166239,16.9933711 L10,17.0001 L7,17.0001 C6.44772,17.0001 6,16.5523 6,16.0001 C6,15.48725 6.38604429,15.0645908 6.88337975,15.0068275 L7,15.0001 L10,15.0001 Z M15,11.0001 C16.6569,11.0001 18,12.3432 18,14.0001 C18,15.6569 16.6569,17.0001 15,17.0001 C13.3431,17.0001 12,15.6569 12,14.0001 C12,12.3432 13.3431,11.0001 15,11.0001 Z M15,13.0001 C14.4477,13.0001 14,13.4478 14,14.0001 C14,14.5523 14.4477,15.0001 15,15.0001 C15.5523,15.0001 16,14.5523 16,14.0001 C16,13.4478 15.5523,13.0001 15,13.0001 Z M8,12.0001 C8.55228,12.0001 9,12.4478 9,13.0001 C9,13.5523 8.55228,14.0001 8,14.0001 L7,14.0001 C6.44772,14.0001 6,13.5523 6,13.0001 C6,12.4478 6.44772,12.0001 7,12.0001 L8,12.0001 Z" id="形状" fill="#09244B"></path>
            </g>
        </g>
    </g>
</svg>