<svg width="24" height="24" viewBox="0 0 24 24" fill="none" xmlns="http://www.w3.org/2000/svg">
<rect width="24" height="24" fill="white" fill-opacity="0.01"/>
<path d="M6 13.0001C6 12.4478 6.44772 12.0001 7 12.0001H8C8.55228 12.0001 9 12.4478 9 13.0001C9 13.5523 8.55228 14.0001 8 14.0001H7C6.44772 14.0001 6 13.5523 6 13.0001Z" fill="#09244B"/>
<path d="M7 15.0001C6.44772 15.0001 6 15.4478 6 16.0001C6 16.5523 6.44772 17.0001 7 17.0001H10C10.5523 17.0001 11 16.5523 11 16.0001C11 15.4478 10.5523 15.0001 10 15.0001H7Z" fill="#09244B"/>
<path fill-rule="evenodd" clip-rule="evenodd" d="M12 14.0001C12 12.3432 13.3431 11.0001 15 11.0001C16.6569 11.0001 18 12.3432 18 14.0001C18 15.6569 16.6569 17.0001 15 17.0001C13.3431 17.0001 12 15.6569 12 14.0001ZM15 13.0001C14.4477 13.0001 14 13.4478 14 14.0001C14 14.5523 14.4477 15.0001 15 15.0001C15.5523 15.0001 16 14.5523 16 14.0001C16 13.4478 15.5523 13.0001 15 13.0001Z" fill="#09244B"/>
<path fill-rule="evenodd" clip-rule="evenodd" d="M8.70385 3.012C8.18488 2.8231 7.61103 3.09069 7.42214 3.60967C7.23325 4.12865 7.50083 4.70249 8.01981 4.89138L13.8133 7.00005H4C2.89543 7.00005 2 7.89548 2 9.00005V19.0001C2 20.1046 2.89543 21.0001 4 21.0001H20C21.1046 21.0001 22 20.1046 22 19.0001V9.00005C22 7.89548 21.1046 7.00005 20 7.00005H19.661L8.70385 3.012ZM19.3085 9.00005C19.5303 9.07755 19.7615 9.07224 19.9678 9.00005H20V19.0001H4V9.00005H19.3085Z" fill="#09244B"/>
</svg>
