<?xml version="1.0" encoding="UTF-8"?>
<svg width="24px" height="24px" viewBox="0 0 24 24" version="1.1" xmlns="http://www.w3.org/2000/svg" xmlns:xlink="http://www.w3.org/1999/xlink">
    <title>radio_fill</title>
    <g id="页面-1" stroke="none" stroke-width="1" fill="none" fill-rule="evenodd">
        <g id="Device" transform="translate(-624.000000, -48.000000)" fill-rule="nonzero">
            <g id="radio_fill" transform="translate(624.000000, 48.000000)">
                <rect id="矩形" x="0" y="0" width="24" height="24"></rect>
                <path d="M8.70385,3.012 L19.6606,6.99993 L20,6.99993 C21.1046,6.99993 22,7.89536 22,8.99993 L22,18.9999 C22,20.1045 21.1046,20.9999 20,20.9999 L4,20.9999 C2.89543,20.9999 2,20.1045 2,18.9999 L2,8.99993 C2,7.89536 2.89543,6.99993 4,6.99993 L13.813,6.99993 L8.01981,4.89138 C7.50083,4.70249 7.23325,4.12865 7.42214,3.60967 C7.61103,3.09069 8.18488,2.8231 8.70385,3.012 Z M15,10.9999 C13.3431,10.9999 12,12.3431 12,13.9999 C12,15.6568 13.3431,16.9999 15,16.9999 C16.6569,16.9999 18,15.6568 18,13.9999 C18,12.3431 16.6569,10.9999 15,10.9999 Z M10,14.9999 L7,14.9999 C6.44772,14.9999 6,15.4477 6,15.9999 C6,16.5522 6.44772,16.9999 7,16.9999 L10,16.9999 C10.5523,16.9999 11,16.5522 11,15.9999 C11,15.4477 10.5523,14.9999 10,14.9999 Z M15,12.9999 C15.5523,12.9999 16,13.4477 16,13.9999 C16,14.5522 15.5523,14.9999 15,14.9999 C14.4477,14.9999 14,14.5522 14,13.9999 C14,13.4477 14.4477,12.9999 15,12.9999 Z M8,11.9999 L7,11.9999 C6.44772,11.9999 6,12.4477 6,12.9999 C6,13.5522 6.44772,13.9999 7,13.9999 L8,13.9999 C8.55228,13.9999 9,13.5522 9,12.9999 C9,12.4477 8.55228,11.9999 8,11.9999 Z" id="形状" fill="#09244B"></path>
            </g>
        </g>
    </g>
</svg>