<?xml version="1.0" encoding="UTF-8"?>
<svg width="24px" height="24px" viewBox="0 0 24 24" version="1.1" xmlns="http://www.w3.org/2000/svg" xmlns:xlink="http://www.w3.org/1999/xlink">
    <title>radio_line</title>
    <g id="页面-1" stroke="none" stroke-width="1" fill="none" fill-rule="evenodd">
        <g id="Device" transform="translate(-624.000000, 0.000000)" fill-rule="nonzero">
            <g id="radio_line" transform="translate(624.000000, 0.000000)">
                <rect id="矩形" x="0" y="0" width="24" height="24"></rect>
                <path d="M7.42214,3.60967 C7.59753786,3.12776 8.10486551,2.86260974 8.59196243,2.97843378 L8.70385,3.012 L19.661,7.00005 L20,7.00005 C21.0543909,7.00005 21.9181678,7.81592733 21.9945144,8.85078759 L22,9.00005 L22,19.0001 C22,20.0543955 21.18415,20.9182591 20.1492661,20.9946139 L20,21.0001 L4,21.0001 C2.94563773,21.0001 2.08183483,20.1841589 2.00548573,19.1493537 L2,19.0001 L2,9.00005 C2,7.94568773 2.81587733,7.08188483 3.85073759,7.00553573 L4,7.00005 L13.8133,7.00005 L8.01981,4.89138 C7.50083,4.70249 7.23325,4.12865 7.42214,3.60967 Z M19.3085,9.00005 L4,9.00005 L4,19.0001 L20,19.0001 L20,9.00005 L19.9678,9.00005 C19.80276,9.057802 19.621784,9.0727508 19.4424336,9.03674024 L19.3085,9.00005 Z M10,15.0001 C10.5523,15.0001 11,15.4478 11,16.0001 C11,16.5128571 10.613973,16.9355959 10.1166239,16.9933711 L10,17.0001 L7,17.0001 C6.44772,17.0001 6,16.5523 6,16.0001 C6,15.48725 6.38604429,15.0645908 6.88337975,15.0068275 L7,15.0001 L10,15.0001 Z M15,11.0001 C16.6569,11.0001 18,12.3432 18,14.0001 C18,15.6569 16.6569,17.0001 15,17.0001 C13.3431,17.0001 12,15.6569 12,14.0001 C12,12.3432 13.3431,11.0001 15,11.0001 Z M15,13.0001 C14.4477,13.0001 14,13.4478 14,14.0001 C14,14.5523 14.4477,15.0001 15,15.0001 C15.5523,15.0001 16,14.5523 16,14.0001 C16,13.4478 15.5523,13.0001 15,13.0001 Z M8,12.0001 C8.55228,12.0001 9,12.4478 9,13.0001 C9,13.5523 8.55228,14.0001 8,14.0001 L7,14.0001 C6.44772,14.0001 6,13.5523 6,13.0001 C6,12.4478 6.44772,12.0001 7,12.0001 L8,12.0001 Z" id="形状" fill="#09244B"></path>
            </g>
        </g>
    </g>
</svg>