<svg xmlns="http://www.w3.org/2000/svg" width="24" height="24"><g fill="none"><path d="M24 0v24H0V0zM12.594 23.258l-.012.002-.071.035-.02.004-.014-.004-.071-.036c-.01-.003-.019 0-.024.006l-.004.01-.017.428.005.02.01.013.104.074.015.004.012-.004.104-.074.012-.016.004-.017-.017-.427c-.002-.01-.009-.017-.016-.018m.264-.113-.014.002-.184.093-.01.01-.003.011.018.43.005.012.008.008.201.092c.012.004.023 0 .029-.008l.004-.014-.034-.614c-.003-.012-.01-.02-.02-.022m-.715.002a.023.023 0 0 0-.027.006l-.006.014-.034.614c0 .012.007.02.017.024l.015-.002.201-.093.01-.008.003-.011.018-.43-.003-.012-.01-.01z"/><path fill="#09244B" d="M5 17a2 2 0 1 1 0 4 2 2 0 0 1 0-4M5 3c8.837 0 16 7.163 16 16 0 .184-.003.368-.01.55a1.5 1.5 0 1 1-2.997-.1A13.4 13.4 0 0 0 18 19c0-7.18-5.82-13-13-13-.15 0-.3.003-.45.008a1.5 1.5 0 0 1-.1-2.999C4.631 3.003 4.815 3 5 3m0 7a9 9 0 0 1 8.98 9.599 1.5 1.5 0 1 1-2.993-.198 6 6 0 0 0-6.388-6.388 1.5 1.5 0 0 1-.197-2.993C4.6 10.007 4.799 10 5 10"/></g></svg>