<?xml version="1.0" encoding="UTF-8"?>
<svg width="24px" height="24px" viewBox="0 0 24 24" version="1.1" xmlns="http://www.w3.org/2000/svg" xmlns:xlink="http://www.w3.org/1999/xlink">
    <title>sandglass_line</title>
    <g id="页面-1" stroke="none" stroke-width="1" fill="none" fill-rule="evenodd">
        <g id="Device" transform="translate(-528.000000, -96.000000)">
            <g id="sandglass_line" transform="translate(528.000000, 96.000000)">
                <rect id="矩形" fill-rule="nonzero" x="0" y="0" width="24" height="24"></rect>
                <path d="M5,4 C5,2.89543 5.89543,2 7,2 L17,2 C18.1046,2 19,2.89543 19,4 L19,5.85926 C19,7.53103 18.1645,9.09219 16.7735,10.0195 L13.8028,12 L16.7735,13.9805 C18.1645,14.9078 19,16.469 19,18.1407 L19,20 C19,21.1046 18.1046,22 17,22 L7,22 C5.89543,22 5,21.1046 5,20 L5,18.1407 C5,16.469 5.83551,14.9078 7.2265,13.9805 L10.1972,12 L7.2265,10.0195 C5.83551,9.09219 5,7.53103 5,5.85926 L5,4 Z M12,10.7981 L15.6641,8.35542 C16.4987,7.79902 17,6.86232 17,5.85926 L17,4 L7,4 L7,5.85926 C7,6.86232 7.5013,7.79902 8.3359,8.35542 L12,10.7981 Z M12,13.2018 L8.3359,15.6446 C7.5013,16.201 7,17.1377 7,18.1407 L7,20 L17,20 L17,18.1407 C17,17.1377 16.4987,16.201 15.6641,15.6446 L12,13.2018 Z" id="形状" fill="#09244B"></path>
            </g>
        </g>
    </g>
</svg>