<?xml version="1.0" encoding="UTF-8"?>
<svg width="24px" height="24px" viewBox="0 0 24 24" version="1.1" xmlns="http://www.w3.org/2000/svg" xmlns:xlink="http://www.w3.org/1999/xlink">
    <title>scan_2_fill</title>
    <g id="页面-1" stroke="none" stroke-width="1" fill="none" fill-rule="evenodd">
        <g id="Device" transform="translate(-576.000000, -144.000000)">
            <g id="scan_2_fill" transform="translate(576.000000, 144.000000)">
                <rect id="矩形" fill-rule="nonzero" x="0" y="0" width="24" height="24"></rect>
                <path d="M12,4.5 C7.85786,4.5 4.5,7.85786 4.5,12 C4.5,16.1421 7.85786,19.5 12,19.5 C16.1421,19.5 19.5,16.1421 19.5,12 C19.5,10.4707 19.0434,9.04965 18.2576,7.86375 L13.0607,13.0607 C12.4749,13.6464 11.5251,13.6464 10.9393,13.0607 C10.3536,12.4749 10.3536,11.5251 10.9393,10.9393 L17.2962,4.58245 C17.8856,3.99306 18.8426,3.99207 19.4329,4.58363 C21.3265,6.48147 22.5,9.10513 22.5,12 C22.5,17.799 17.799,22.5 12,22.5 C6.20101,22.5 1.5,17.799 1.5,12 C1.5,6.20101 6.20101,1.5 12,1.5 C13.0096,1.5 13.9883,1.64292 14.9159,1.91057 C15.7118,2.14025 16.1709,2.97169 15.9412,3.76764 C15.7115,4.56359 14.8801,5.02264 14.0841,4.79296 C13.4242,4.60254 12.7254,4.5 12,4.5 Z" id="路径" fill="#09244B"></path>
            </g>
        </g>
    </g>
</svg>