<svg xmlns="http://www.w3.org/2000/svg" width="24" height="24"><g fill="none"><path d="M24 0v24H0V0zM12.593 23.258l-.011.002-.071.035-.02.004-.014-.004-.071-.035c-.01-.004-.019-.001-.024.005l-.004.01-.017.428.005.02.01.013.104.074.015.004.012-.004.104-.074.012-.016.004-.017-.017-.427c-.002-.01-.009-.017-.017-.018m.265-.113-.013.002-.185.093-.01.01-.003.011.018.43.005.012.008.007.201.093c.012.004.023 0 .029-.008l.004-.014-.034-.614c-.003-.012-.01-.02-.02-.022m-.715.002a.023.023 0 0 0-.027.006l-.006.014-.034.614c0 .012.007.02.017.024l.015-.002.201-.093.01-.008.004-.011.017-.43-.003-.012-.01-.01z"/><path fill="#09244B" d="M4 14.5A1.5 1.5 0 0 1 5.5 16v2.5H9a1.5 1.5 0 0 1 0 3H5A2.5 2.5 0 0 1 2.5 19v-3A1.5 1.5 0 0 1 4 14.5m16 0a1.5 1.5 0 0 1 1.493 1.356L21.5 16v3a2.5 2.5 0 0 1-2.336 2.495L19 21.5h-4a1.5 1.5 0 0 1-.144-2.993L15 18.5h3.5V16a1.5 1.5 0 0 1 1.5-1.5m0-4a1.5 1.5 0 0 1 .144 2.993L20 13.5H4a1.5 1.5 0 0 1-.144-2.993L4 10.5zm-11-8a1.5 1.5 0 0 1 .144 2.993L9 5.5H5.5V8a1.5 1.5 0 0 1-2.993.144L2.5 8V5a2.5 2.5 0 0 1 2.336-2.495L5 2.5zm10 0a2.5 2.5 0 0 1 2.495 2.336L21.5 5v3a1.5 1.5 0 0 1-2.993.144L18.5 8V5.5H15a1.5 1.5 0 0 1-.144-2.993L15 2.5z"/></g></svg>