<?xml version="1.0" encoding="UTF-8"?>
<svg width="24px" height="24px" viewBox="0 0 24 24" version="1.1" xmlns="http://www.w3.org/2000/svg" xmlns:xlink="http://www.w3.org/1999/xlink">
    <title>scan_2_line</title>
    <g id="页面-1" stroke="none" stroke-width="1" fill="none" fill-rule="evenodd">
        <g id="Device" transform="translate(-576.000000, -96.000000)">
            <g id="scan_2_line" transform="translate(576.000000, 96.000000)">
                <rect id="矩形" fill-rule="nonzero" x="0" y="0" width="24" height="24"></rect>
                <path d="M12,4 C7.58172,4 4,7.58172 4,12 C4,16.4183 7.58172,20 12,20 C16.4183,20 20,16.4183 20,12 C20,10.1509 19.3736,8.44939 18.3199,7.0943 L12.7071,12.7071 C12.3166,13.0976 11.6834,13.0976 11.2929,12.7071 C10.9024,12.3166 10.9024,11.6834 11.2929,11.2929 L17.6498,4.936 C18.044,4.54177 18.6841,4.54111 19.0789,4.93679 C20.8829,6.74472 22,9.24286 22,12 C22,17.5228 17.5228,22 12,22 C6.47715,22 2,17.5228 2,12 C2,6.47715 6.47715,2 12,2 C12.9622,2 13.8943,2.13619 14.7773,2.39097 C15.3079,2.54409 15.6139,3.09838 15.4608,3.62902 C15.3077,4.15965 14.7534,4.46569 14.2227,4.31256 C13.5182,4.10927 12.7727,4 12,4 Z" id="路径" fill="#09244B"></path>
            </g>
        </g>
    </g>
</svg>