<?xml version="1.0" encoding="UTF-8"?>
<svg width="24px" height="24px" viewBox="0 0 24 24" version="1.1" xmlns="http://www.w3.org/2000/svg" xmlns:xlink="http://www.w3.org/1999/xlink">
    <title>signal_fill</title>
    <g id="Icon" stroke="none" stroke-width="1" fill="none" fill-rule="evenodd">
        <g id="Device" transform="translate(-336.000000, -432.000000)">
            <g id="signal_fill" transform="translate(336.000000, 432.000000)">
                <path d="M24,0 L24,24 L0,24 L0,0 L24,0 Z M12.5935,23.2578 L12.5819,23.2595 L12.5109,23.295 L12.4919,23.2987 L12.4767,23.295 L12.4057,23.2595 C12.3958,23.2564 12.387,23.259 12.3821,23.2649 L12.378,23.2758 L12.3609,23.7031 L12.3659,23.7235 L12.3769,23.7357 L12.4805,23.8097 L12.4953,23.8136 L12.5071,23.8097 L12.6107,23.7357 L12.6233,23.7197 L12.6267,23.7031 L12.6096,23.2758 C12.6076,23.2657 12.601,23.2593 12.5935,23.2578 Z M12.8584,23.1453 L12.8445,23.1473 L12.6598,23.2397 L12.6499,23.2499 L12.6472,23.2611 L12.6651,23.6906 L12.6699,23.7034 L12.6784,23.7105 L12.8793,23.8032 C12.8914,23.8069 12.9022,23.803 12.9078,23.7952 L12.9118,23.7812 L12.8777,23.1665 C12.8753,23.1546 12.8674,23.147 12.8584,23.1453 Z M12.143,23.1473 C12.1332,23.1424 12.1222,23.1453 12.1156,23.1526 L12.1099,23.1665 L12.0758,23.7812 C12.0751,23.7927 12.0828,23.8019 12.0926,23.8046 L12.1083,23.8032 L12.3092,23.7105 L12.3186,23.7024 L12.3225,23.6906 L12.3404,23.2611 L12.3372,23.2485 L12.3278,23.2397 L12.143,23.1473 Z" id="MingCute" fill-rule="nonzero"></path>
                <path d="M20,3.5 C20.8284,3.5 21.5,4.17157 21.5,5 L21.5,19 C21.5,19.8284 20.8284,20.5 20,20.5 C19.1716,20.5 18.5,19.8284 18.5,19 L18.5,5 C18.5,4.17157 19.1716,3.5 20,3.5 Z M16,6.5 C16.8284,6.5 17.5,7.17157 17.5,8 L17.5,19 C17.5,19.8284 16.8284,20.5 16,20.5 C15.1716,20.5 14.5,19.8284 14.5,19 L14.5,8 C14.5,7.17157 15.1716,6.5 16,6.5 Z M12,9.5 C12.8284,9.5 13.5,10.1716 13.5,11 L13.5,19 C13.5,19.8284 12.8284,20.5 12,20.5 C11.1716,20.5 10.5,19.8284 10.5,19 L10.5,11 C10.5,10.1716 11.1716,9.5 12,9.5 Z M8,12.5 C8.82843,12.5 9.5,13.1716 9.5,14 L9.5,19 C9.5,19.8284 8.82843,20.5 8,20.5 C7.17157,20.5 6.5,19.8284 6.5,19 L6.5,14 C6.5,13.1716 7.17157,12.5 8,12.5 Z M4,15.5 C4.82843,15.5 5.5,16.1716 5.5,17 L5.5,19 C5.5,19.8284 4.82843,20.5 4,20.5 C3.17157,20.5 2.5,19.8284 2.5,19 L2.5,17 C2.5,16.1716 3.17157,15.5 4,15.5 Z" id="形状" fill="#09244B"></path>
            </g>
        </g>
    </g>
</svg>