<?xml version="1.0" encoding="UTF-8"?>
<svg width="24px" height="24px" viewBox="0 0 24 24" version="1.1" xmlns="http://www.w3.org/2000/svg" xmlns:xlink="http://www.w3.org/1999/xlink">
    <title>signal_line</title>
    <g id="Icon" stroke="none" stroke-width="1" fill="none" fill-rule="evenodd">
        <g id="Device" transform="translate(-336.000000, -384.000000)">
            <g id="signal_line" transform="translate(336.000000, 384.000000)">
                <path d="M24,0 L24,24 L0,24 L0,0 L24,0 Z M12.5935,23.2578 L12.5819,23.2595 L12.5109,23.295 L12.4919,23.2987 L12.4767,23.295 L12.4057,23.2595 C12.3958,23.2564 12.387,23.259 12.3821,23.2649 L12.378,23.2758 L12.3609,23.7031 L12.3659,23.7235 L12.3769,23.7357 L12.4805,23.8097 L12.4953,23.8136 L12.5071,23.8097 L12.6107,23.7357 L12.6233,23.7197 L12.6267,23.7031 L12.6096,23.2758 C12.6076,23.2657 12.601,23.2593 12.5935,23.2578 Z M12.8584,23.1453 L12.8445,23.1473 L12.6598,23.2397 L12.6499,23.2499 L12.6472,23.2611 L12.6651,23.6906 L12.6699,23.7034 L12.6784,23.7105 L12.8793,23.8032 C12.8914,23.8069 12.9022,23.803 12.9078,23.7952 L12.9118,23.7812 L12.8777,23.1665 C12.8753,23.1546 12.8674,23.147 12.8584,23.1453 Z M12.143,23.1473 C12.1332,23.1424 12.1222,23.1453 12.1156,23.1526 L12.1099,23.1665 L12.0758,23.7812 C12.0751,23.7927 12.0828,23.8019 12.0926,23.8046 L12.1083,23.8032 L12.3092,23.7105 L12.3186,23.7024 L12.3225,23.6906 L12.3404,23.2611 L12.3372,23.2485 L12.3278,23.2397 L12.143,23.1473 Z" id="MingCute" fill-rule="nonzero"></path>
                <path d="M20,4 C20.5523,4 21,4.44772 21,5 L21,19 C21,19.5523 20.5523,20 20,20 C19.4477,20 19,19.5523 19,19 L19,5 C19,4.44772 19.4477,4 20,4 Z M16,7 C16.5523,7 17,7.44772 17,8 L17,19 C17,19.5523 16.5523,20 16,20 C15.4477,20 15,19.5523 15,19 L15,8 C15,7.44772 15.4477,7 16,7 Z M12,10 C12.5523,10 13,10.4477 13,11 L13,19 C13,19.5523 12.5523,20 12,20 C11.4477,20 11,19.5523 11,19 L11,11 C11,10.4477 11.4477,10 12,10 Z M8,13 C8.55228,13 9,13.4477 9,14 L9,19 C9,19.5523 8.55228,20 8,20 C7.44772,20 7,19.5523 7,19 L7,14 C7,13.4477 7.44772,13 8,13 Z M4,16 C4.55228,16 5,16.4477 5,17 L5,19 C5,19.5523 4.55228,20 4,20 C3.44772,20 3,19.5523 3,19 L3,17 C3,16.4477 3.44772,16 4,16 Z" id="形状" fill="#09244B"></path>
            </g>
        </g>
    </g>
</svg>