<?xml version="1.0" encoding="UTF-8"?>
<svg width="24px" height="24px" viewBox="0 0 24 24" version="1.1" xmlns="http://www.w3.org/2000/svg" xmlns:xlink="http://www.w3.org/1999/xlink">
    <title>speaker_fill</title>
    <g id="页面-1" stroke="none" stroke-width="1" fill="none" fill-rule="evenodd">
        <g id="Device" transform="translate(-288.000000, -240.000000)">
            <g id="speaker_fill" transform="translate(288.000000, 240.000000)">
                <rect id="矩形" fill-rule="nonzero" x="0" y="0" width="24" height="24"></rect>
                <path d="M12,13 C10.8954,13 10,13.8954 10,15 C10,16.1046 10.8954,17 12,17 C13.1046,17 14,16.1046 14,15 C14,13.8954 13.1046,13 12,13 Z" id="路径" fill="#09244B" fill-rule="nonzero"></path>
                <path d="M4,5 C4,3.34315 5.34315,2 7,2 L17,2 C18.6569,2 20,3.34315 20,5 L20,19 C20,20.6569 18.6569,22 17,22 L7,22 C5.34315,22 4,20.6569 4,19 L4,5 Z M8,15 C8,12.7909 9.79086,11 12,11 C14.2091,11 16,12.7909 16,15 C16,17.2091 14.2091,19 12,19 C9.79086,19 8,17.2091 8,15 Z M12,8 C12.8284,8 13.5,7.32843 13.5,6.5 C13.5,5.67157 12.8284,5 12,5 C11.1716,5 10.5,5.67157 10.5,6.5 C10.5,7.32843 11.1716,8 12,8 Z" id="形状" fill="#09244B"></path>
            </g>
        </g>
    </g>
</svg>