<?xml version="1.0" encoding="UTF-8"?>
<svg width="24px" height="24px" viewBox="0 0 24 24" version="1.1" xmlns="http://www.w3.org/2000/svg" xmlns:xlink="http://www.w3.org/1999/xlink">
    <title>stopwatch_line</title>
    <g id="页面-1" stroke="none" stroke-width="1" fill="none" fill-rule="evenodd">
        <g id="Device" transform="translate(-672.000000, 0.000000)" fill-rule="nonzero">
            <g id="stopwatch_line" transform="translate(672.000000, 0.000000)">
                <rect id="矩形" x="0" y="0" width="24" height="24"></rect>
                <path d="M12,2 C12.9367,2 13.8495,2.10751 14.7263,2.31129 C15.2643,2.43631 15.599,2.97376 15.474,3.5117 C15.349,4.04965 14.8116,4.3844 14.2736,4.25938 C13.7873333,4.14636 13.2870222,4.06875333 12.7754519,4.02957333 L12.7005496,4.02686228 C14.3015174,4.15011916 15.7851975,4.69226392 17.0421,5.54388 L17.6484,4.93758 C18.0389,4.54705 18.6721,4.54705 19.0626,4.93758 C19.4531,5.3281 19.4531,5.96126 19.0626,6.35179 L18.5678,6.84657 C20.0763,8.45598 21,10.6201 21,13 C21,17.9706 16.9706,22 12,22 C7.02944,22 3,17.9706 3,13 C3,8.22816668 6.71366247,4.32370434 11.4085282,4.01912533 L11.2720221,4.0263633 C10.7438538,4.06399896 10.2276515,4.14287352 9.72635,4.25938 C9.1884,4.3844 8.65096,4.04965 8.52594,3.5117 C8.40092,2.97376 8.73566,2.43631 9.27361,2.31129 C10.1505,2.10751 11.0633,2 12,2 Z M12,6 C8.13401,6 5,9.13401 5,13 C5,16.866 8.13401,20 12,20 C15.866,20 19,16.866 19,13 C19,9.13401 15.866,6 12,6 Z M12,8 C12.51285,8 12.9355092,8.38604429 12.9932725,8.88337975 L13,9 L13,13 C13,13.5523 12.5523,14 12,14 C11.48715,14 11.0644908,13.613973 11.0067275,13.1166239 L11,13 L11,9 C11,8.44772 11.4477,8 12,8 Z" id="形状" fill="#09244B"></path>
            </g>
        </g>
    </g>
</svg>