<?xml version="1.0" encoding="UTF-8"?>
<svg width="24px" height="24px" viewBox="0 0 24 24" version="1.1" xmlns="http://www.w3.org/2000/svg" xmlns:xlink="http://www.w3.org/1999/xlink">
    <title>stopwatch_fill</title>
    <g id="页面-1" stroke="none" stroke-width="1" fill="none" fill-rule="evenodd">
        <g id="Device" transform="translate(-672.000000, -48.000000)" fill-rule="nonzero">
            <g id="stopwatch_fill" transform="translate(672.000000, 48.000000)">
                <rect id="矩形" x="0" y="0" width="24" height="24"></rect>
                <path d="M12,2 C12.9367,2 13.8495,2.10751 14.7263,2.31129 C15.2643,2.43631 15.599,2.97376 15.474,3.5117 C15.349,4.04965 14.8116,4.3844 14.2736,4.25938 C13.7873333,4.14636 13.2870222,4.06875333 12.7754519,4.02957333 L12.355,4.006 L12.694058,4.02636471 C14.1829554,4.1399178 15.570527,4.61575227 16.7688607,5.36590765 L17.042,5.54385 L17.6484,4.93751 C18.0389,4.54699 18.6721,4.54699 19.0626,4.93751 C19.4230615,5.29799923 19.4507893,5.86522645 19.1457834,6.25752152 L19.0626,6.35173 L18.5678,6.84654 C20.0763,8.45595 21,10.6201 21,13 C21,17.9706 16.9706,22 12,22 C7.02944,22 3,17.9706 3,13 C3,8.20696 6.74675315,4.28901755 11.4711809,4.01527809 L11.67,4.006 L11.6102933,4.00744042 C11.0932664,4.02721875 10.5867988,4.08617708 10.0936609,4.18130208 L9.72635,4.25938 C9.1884,4.3844 8.65096,4.04965 8.52594,3.5117 C8.40092,2.97376 8.73566,2.43631 9.27361,2.31129 C10.1505,2.10751 11.0633,2 12,2 Z M12,8 C11.4477,8 11,8.44772 11,9 L11,13 C11,13.5523 11.4477,14 12,14 C12.5523,14 13,13.5523 13,13 L13,9 C13,8.44772 12.5523,8 12,8 Z" id="形状" fill="#09244B"></path>
            </g>
        </g>
    </g>
</svg>