<svg xmlns="http://www.w3.org/2000/svg" width="24" height="24" viewBox="0 0 24 24"><g fill="none" fill-rule="evenodd"><path d="M24,0 L24,24 L0,24 L0,0 L24,0 Z M12.5935,23.2578 L12.5819,23.2595 L12.5109,23.295 L12.4919,23.2987 L12.4767,23.295 L12.4057,23.2595 C12.3958,23.2564 12.387,23.259 12.3821,23.2649 L12.378,23.2758 L12.3609,23.7031 L12.3659,23.7235 L12.3769,23.7357 L12.4805,23.8097 L12.4953,23.8136 L12.5071,23.8097 L12.6107,23.7357 L12.6233,23.7197 L12.6267,23.7031 L12.6096,23.2758 C12.6076,23.2657 12.601,23.2593 12.5935,23.2578 Z M12.8584,23.1453 L12.8445,23.1473 L12.6598,23.2397 L12.6499,23.2499 L12.6472,23.2611 L12.6651,23.6906 L12.6699,23.7034 L12.6784,23.7105 L12.8793,23.8032 C12.8914,23.8069 12.9022,23.803 12.9078,23.7952 L12.9118,23.7812 L12.8777,23.1665 C12.8753,23.1546 12.8674,23.147 12.8584,23.1453 Z M12.143,23.1473 C12.1332,23.1424 12.1222,23.1453 12.1156,23.1526 L12.1099,23.1665 L12.0758,23.7812 C12.0751,23.7927 12.0828,23.8019 12.0926,23.8046 L12.1083,23.8032 L12.3092,23.7105 L12.3186,23.7024 L12.3225,23.6906 L12.3404,23.2611 L12.3372,23.2485 L12.3278,23.2397 L12.143,23.1473 Z"/><path fill="#09244B" d="M5,4 C3.89543,4 3,4.89543 3,6 L3,10 C3,11.1046 3.89543,12 5,12 L19,12 C20.1046,12 21,11.1046 21,10 L21,6 C21,4.89543 20.1046,4 19,4 L5,4 Z M5,13 C3.89543,13 3,13.8954 3,15 L3,19 C3,20.1046 3.89543,21 5,21 L19,21 C20.1046,21 21,20.1046 21,19 L21,15 C21,13.8954 20.1046,13 19,13 L5,13 Z M6,17 C6,16.4477 6.44772,16 7,16 L9,16 C9.55228,16 10,16.4477 10,17 C10,17.5523 9.55228,18 9,18 L7,18 C6.44772,18 6,17.5523 6,17 Z M7,7 C6.44772,7 6,7.44772 6,8 C6,8.55228 6.44772,9 7,9 L9,9 C9.55228,9 10,8.55228 10,8 C10,7.44772 9.55228,7 9,7 L7,7 Z"/></g></svg>