<?xml version="1.0" encoding="UTF-8"?>
<svg width="24px" height="24px" viewBox="0 0 24 24" version="1.1" xmlns="http://www.w3.org/2000/svg" xmlns:xlink="http://www.w3.org/1999/xlink">
    <title>telescope_fill</title>
    <g id="页面-1" stroke="none" stroke-width="1" fill="none" fill-rule="evenodd">
        <g id="Device" transform="translate(-672.000000, -144.000000)" fill-rule="nonzero">
            <g id="telescope_fill" transform="translate(672.000000, 144.000000)">
                <rect id="矩形" x="0" y="0" width="24" height="24"></rect>
                <path d="M14.2109,14.287 C14.7517,14.4901 15.3758,14.4584 15.9151,14.147 L21.1113,11.147 C22.0679,10.5948 22.3956,9.37158 21.8433,8.41499 L19.3433,4.08487 C18.791,3.12828 17.5679,2.80053 16.6113,3.35282 L11.4151,6.35282 C10.7681,6.72636 10.4088,7.40681 10.4149,8.10411 C10.3362,8.13693 10.2588,8.17516 10.183,8.2189 L5.85287,10.7189 C5.20591,11.0924 4.84658,11.7728 4.85261,12.4701 C4.77398,12.5029 4.69656,12.5411 4.62081,12.5849 L2.88876,13.5849 C1.93218,14.1372 1.60443,15.3603 2.15671,16.3169 L2.65671,17.1829 C3.209,18.1395 4.43218,18.4673 5.38876,17.915 L7.12081,16.915 C7.19655,16.8713 7.26833,16.8233 7.33606,16.7717 C7.93691,17.1256 8.70587,17.1546 9.35287,16.7811 L11.1696,15.7322 L9.08083,20.6061 C8.86327,21.1137 9.09842,21.7016 9.60605,21.9191 C10.1137,22.1367 10.7016,21.9015 10.9191,21.3939 L13,16.5386 L15.0808,21.3939 C15.2984,21.9015 15.8863,22.1367 16.3939,21.9191 C16.9015,21.7016 17.1367,21.1137 16.9191,20.6061 L14.2109,14.287 Z" id="路径" fill="#09244B"></path>
            </g>
        </g>
    </g>
</svg>