<?xml version="1.0" encoding="UTF-8"?>
<svg width="24px" height="24px" viewBox="0 0 24 24" version="1.1" xmlns="http://www.w3.org/2000/svg" xmlns:xlink="http://www.w3.org/1999/xlink">
    <title>tv_1_line</title>
    <g id="页面-1" stroke="none" stroke-width="1" fill="none" fill-rule="evenodd">
        <g id="Device" transform="translate(-720.000000, 0.000000)">
            <g id="tv_1_line" transform="translate(720.000000, 0.000000)">
                <rect id="矩形" fill-rule="nonzero" x="0" y="0" width="24" height="24"></rect>
                <path d="M16,19 C16.5523,19 17,19.4477 17,20 C17,20.51285 16.613973,20.9355092 16.1166239,20.9932725 L16,21 L8,21 C7.44772,21 7,20.5523 7,20 C7,19.48715 7.38604429,19.0644908 7.88337975,19.0067275 L8,19 L16,19 Z M20,4 C21.0543909,4 21.9181678,4.81587733 21.9945144,5.85073759 L22,6 L22,16 C22,17.0543909 21.18415,17.9181678 20.1492661,17.9945144 L20,18 L4,18 C2.94563773,18 2.08183483,17.18415 2.00548573,16.1492661 L2,16 L2,6 C2,4.94563773 2.81587733,4.08183483 3.85073759,4.00548573 L4,4 L20,4 Z M20,6 L4,6 L4,16 L20,16 L20,6 Z" id="形状" fill="#09244B"></path>
            </g>
        </g>
    </g>
</svg>