<svg width="24" height="24" viewBox="0 0 24 24" fill="none" xmlns="http://www.w3.org/2000/svg">
<rect width="24" height="24" fill="white" fill-opacity="0.01"/>
<path fill-rule="evenodd" clip-rule="evenodd" d="M4 4C2.89543 4 2 4.89543 2 6V16C2 17.1046 2.89543 18 4 18H20C21.1046 18 22 17.1046 22 16V6C22 4.89543 21.1046 4 20 4H4ZM4 6L20 6V16H4V6Z" fill="#09244B"/>
<path d="M8 19C7.44772 19 7 19.4477 7 20C7 20.5523 7.44772 21 8 21H16C16.5523 21 17 20.5523 17 20C17 19.4477 16.5523 19 16 19H8Z" fill="#09244B"/>
</svg>
