<svg width="24" height="24" viewBox="0 0 24 24" fill="none" xmlns="http://www.w3.org/2000/svg">
<rect width="24" height="24" fill="white" fill-opacity="0.01"/>
<path d="M16.9497 4.00691C17.3402 3.61639 17.3402 2.98322 16.9497 2.5927C16.5591 2.20217 15.926 2.20217 15.5355 2.5927L11.6464 6.48179C11.4511 6.67705 11.1345 6.67705 10.9393 6.48179L8.46439 4.00691C8.07387 3.61639 7.4407 3.61639 7.05018 4.00691C6.65965 4.39744 6.65965 5.0306 7.05018 5.42113L8.46439 6.83534C8.52138 6.89233 8.57967 6.94725 8.63915 7.00008H5C3.89543 7.00008 3 7.89551 3 9.00008V19.0001C3 20.1047 3.89543 21.0001 5 21.0001H19C20.1046 21.0001 21 20.1047 21 19.0001V9.00008C21 7.89551 20.1046 7.00008 19 7.00008H13.9465C14.006 6.94725 14.0643 6.89233 14.1212 6.83534L16.9497 4.00691Z" fill="#09244B"/>
</svg>
