<?xml version="1.0" encoding="UTF-8"?>
<svg width="24px" height="24px" viewBox="0 0 24 24" version="1.1" xmlns="http://www.w3.org/2000/svg" xmlns:xlink="http://www.w3.org/1999/xlink">
    <title>tv_2_fill</title>
    <g id="页面-1" stroke="none" stroke-width="1" fill="none" fill-rule="evenodd">
        <g id="Device" transform="translate(-768.000000, -48.000000)" fill-rule="nonzero">
            <g id="tv_2_fill" transform="translate(768.000000, 48.000000)">
                <rect id="矩形" x="0" y="0" width="24" height="24"></rect>
                <path d="M16.9497,4.00691 C17.3402,3.61639 17.3402,2.98322 16.9497,2.5927 C16.5591,2.20217 15.926,2.20217 15.5355,2.5927 L11.6464,6.48179 C11.4511,6.67705 11.1345,6.67705 10.9393,6.48179 L8.46439,4.00691 C8.07387,3.61639 7.4407,3.61639 7.05018,4.00691 C6.65965,4.39744 6.65965,5.0306 7.05018,5.42113 L8.46439,6.83534 C8.52138,6.89233 8.57967,6.94725 8.63915,7.00008 L5,7.00008 C3.89543,7.00008 3,7.89551 3,9.00008 L3,19.0001 C3,20.1047 3.89543,21.0001 5,21.0001 L19,21.0001 C20.1046,21.0001 21,20.1047 21,19.0001 L21,9.00008 C21,7.89551 20.1046,7.00008 19,7.00008 L13.9465,7.00008 C14.006,6.94725 14.0643,6.89233 14.1212,6.83534 L16.9497,4.00691 Z" id="路径" fill="#09244B"></path>
            </g>
        </g>
    </g>
</svg>