<svg width="24" height="24" viewBox="0 0 24 24" fill="none" xmlns="http://www.w3.org/2000/svg">
<rect width="24" height="24" fill="white" fill-opacity="0.01"/>
<path fill-rule="evenodd" clip-rule="evenodd" d="M16.9497 4.00691C17.3402 3.61639 17.3402 2.98322 16.9497 2.5927C16.5591 2.20217 15.926 2.20217 15.5355 2.5927L11.6464 6.48179C11.4511 6.67705 11.1345 6.67705 10.9393 6.48179L8.46439 4.00691C8.07387 3.61639 7.4407 3.61639 7.05018 4.00691C6.65965 4.39744 6.65965 5.0306 7.05018 5.42113L8.46439 6.83534C8.52134 6.89229 8.57958 6.94716 8.63902 6.99996H5C3.89543 6.99996 3 7.89539 3 8.99996V19C3 20.1045 3.89543 21 5 21H19C20.1046 21 21 20.1045 21 19V8.99996C21 7.89539 20.1046 6.99996 19 6.99996H13.9466C14.0061 6.94716 14.0643 6.89229 14.1212 6.83534L16.9497 4.00691ZM5 8.99996L19 8.99996V19H5V8.99996Z" fill="#09244B"/>
</svg>
