<svg xmlns="http://www.w3.org/2000/svg" width="24" height="24"><g fill="none" fill-rule="evenodd"><path d="M24 0v24H0V0zM12.594 23.258l-.012.002-.071.035-.02.004-.014-.004-.071-.036c-.01-.003-.019 0-.024.006l-.004.01-.017.428.005.02.01.013.104.074.015.004.012-.004.104-.074.012-.016.004-.017-.017-.427c-.002-.01-.009-.017-.016-.018m.264-.113-.014.002-.184.093-.01.01-.003.011.018.43.005.012.008.008.201.092c.012.004.023 0 .029-.008l.004-.014-.034-.614c-.003-.012-.01-.02-.02-.022m-.715.002a.023.023 0 0 0-.027.006l-.006.014-.034.614c0 .012.007.02.017.024l.015-.002.201-.093.01-.008.003-.011.018-.43-.003-.012-.01-.01z"/><path fill="#09244B" d="M10.754 2a2 2 0 0 0-1.923 1.45l-.793 2.775v.004A6.992 6.992 0 0 0 5 12a6.992 6.992 0 0 0 3.037 5.771l.001.004.793 2.774A2 2 0 0 0 10.754 22h2.492a2 2 0 0 0 1.923-1.45l.792-2.775.002-.004A6.992 6.992 0 0 0 19 12a6.992 6.992 0 0 0-3.037-5.771l-.002-.004-.792-2.774A2 2 0 0 0 13.246 2zM13 9a1 1 0 1 0-2 0v3a1 1 0 0 0 .293.707l1.5 1.5a1 1 0 0 0 1.414-1.414L13 11.586z"/></g></svg>