<?xml version="1.0" encoding="UTF-8"?>
<svg width="24px" height="24px" viewBox="0 0 24 24" version="1.1" xmlns="http://www.w3.org/2000/svg" xmlns:xlink="http://www.w3.org/1999/xlink">
    <title>watch_2_line</title>
    <g id="Icon" stroke="none" stroke-width="1" fill="none" fill-rule="evenodd">
        <g id="Device" transform="translate(-144.000000, -384.000000)">
            <g id="watch_2_line" transform="translate(144.000000, 384.000000)">
                <path d="M24,0 L24,24 L0,24 L0,0 L24,0 Z M12.5935,23.2578 L12.5819,23.2595 L12.5109,23.295 L12.4919,23.2987 L12.4767,23.295 L12.4057,23.2595 C12.3958,23.2564 12.387,23.259 12.3821,23.2649 L12.378,23.2758 L12.3609,23.7031 L12.3659,23.7235 L12.3769,23.7357 L12.4805,23.8097 L12.4953,23.8136 L12.5071,23.8097 L12.6107,23.7357 L12.6233,23.7197 L12.6267,23.7031 L12.6096,23.2758 C12.6076,23.2657 12.601,23.2593 12.5935,23.2578 Z M12.8584,23.1453 L12.8445,23.1473 L12.6598,23.2397 L12.6499,23.2499 L12.6472,23.2611 L12.6651,23.6906 L12.6699,23.7034 L12.6784,23.7105 L12.8793,23.8032 C12.8914,23.8069 12.9022,23.803 12.9078,23.7952 L12.9118,23.7812 L12.8777,23.1665 C12.8753,23.1546 12.8674,23.147 12.8584,23.1453 Z M12.143,23.1473 C12.1332,23.1424 12.1222,23.1453 12.1156,23.1526 L12.1099,23.1665 L12.0758,23.7812 C12.0751,23.7927 12.0828,23.8019 12.0926,23.8046 L12.1083,23.8032 L12.3092,23.7105 L12.3186,23.7024 L12.3225,23.6906 L12.3404,23.2611 L12.3372,23.2485 L12.3278,23.2397 L12.143,23.1473 Z" id="MingCute" fill-rule="nonzero"></path>
                <path d="M8.83125,3.45056 C9.07657,2.59196 9.86134,2 10.7543,2 L13.2457,2 C14.1387,2 14.9234,2.59195 15.1687,3.45056 L15.9615,6.22528 C15.9619,6.22642 15.9622,6.22757 15.9625,6.22871 C17.7971,7.49074 19,9.6049 19,12 C19,14.3951 17.7971,16.5093 15.9625,17.7713 C15.9622,17.7724 15.9619,17.7736 15.9615,17.7747 L15.1687,20.5494 C14.9234,21.408 14.1387,22 13.2457,22 L10.7543,22 C9.86134,22 9.07657,21.408 8.83125,20.5494 L8.03848,17.7747 C8.03815,17.7736 8.03782,17.7724 8.0375,17.7713 C6.20289,16.5093 5,14.3951 5,12 C5,9.6049 6.20289,7.49074 8.0375,6.22871 C8.03782,6.22757 8.03815,6.22642 8.03848,6.22528 L8.83125,3.45056 Z M10.4172,5.17969 C10.9259,5.06213 11.4557,5 12,5 C12.5443,5 13.0742,5.06213 13.5828,5.17969 L13.2457,4 L10.7543,4 L10.4172,5.17969 Z M10.4172,18.8203 L10.7543,20 L13.2457,20 L13.5828,18.8203 C13.0742,18.9379 12.5443,19 12,19 C11.4557,19 10.9259,18.9379 10.4172,18.8203 Z M12,7 C9.23858,7 7,9.23858 7,12 C7,14.7614 9.23858,17 12,17 C14.7614,17 17,14.7614 17,12 C17,9.23858 14.7614,7 12,7 Z M12,8 C12.5523,8 13,8.44772 13,9 L13,11.5858 L14.2071,12.7929 C14.5976,13.1834 14.5976,13.8166 14.2071,14.2071 C13.8166,14.5976 13.1834,14.5976 12.7929,14.2071 L11.2929,12.7071 C11.1054,12.5196 11,12.2652 11,12 L11,9 C11,8.44772 11.4477,8 12,8 Z" id="形状" fill="#09244B"></path>
            </g>
        </g>
    </g>
</svg>