<?xml version="1.0" encoding="UTF-8"?>
<svg width="24px" height="24px" viewBox="0 0 24 24" version="1.1" xmlns="http://www.w3.org/2000/svg" xmlns:xlink="http://www.w3.org/1999/xlink">
    <title>wifi_line</title>
    <g id="页面-1" stroke="none" stroke-width="1" fill="none" fill-rule="evenodd">
        <g id="Device" transform="translate(-720.000000, -96.000000)" fill-rule="nonzero">
            <g id="wifi_line" transform="translate(720.000000, 96.000000)">
                <rect id="矩形" x="0" y="0" width="24" height="24"></rect>
                <path d="M12,17 C12.5523,17 13,17.4477 13,18 C13,18.5523 12.5523,19 12,19 C11.4477,19 11,18.5523 11,18 C11,17.4477 11.4477,17 12,17 Z M11.9999,13 C13.3804,13 14.6317,13.5607 15.5355,14.4645 C15.926,14.855 15.926,15.4882 15.5355,15.8787 C15.1449,16.2692 14.5118,16.2692 14.1213,15.8787 C13.5773,15.3347 12.8286,15 11.9999,15 C11.1712,15 10.4226,15.3347 9.87861,15.8787 C9.48809,16.2692 8.85492,16.2692 8.4644,15.8787 C8.07387,15.4882 8.07387,14.855 8.4644,14.4645 C9.36812,13.5607 10.6195,13 11.9999,13 Z M11.9999,9 C14.4849,9 16.7363,10.0085 18.3639,11.636 C18.7544,12.0266 18.7544,12.6597 18.3639,13.0503 C17.9734,13.4408 17.3402,13.4408 16.9497,13.0503 C15.6818,11.7824 13.9332,11 11.9999,11 C10.0667,11 8.31803,11.7824 7.05018,13.0503 C6.65966,13.4408 6.02649,13.4408 5.63597,13.0503 C5.24544,12.6597 5.24544,12.0266 5.63597,11.636 C7.26355,10.0085 9.51493,9 11.9999,9 Z M11.9999,5 C15.5895,5 18.8409,6.45617 21.1923,8.80761 C21.5828,9.19814 21.5828,9.8313 21.1923,10.2218 C20.8018,10.6123 20.1686,10.6123 19.7781,10.2218 C17.7864,8.23012 15.0378,7 11.9999,7 C8.96209,7 6.21346,8.23012 4.22176,10.2218 C3.83123,10.6123 3.19807,10.6123 2.80754,10.2218 C2.41702,9.8313 2.41702,9.19814 2.80754,8.80761 C5.15898,6.45617 8.41036,5 11.9999,5 Z" id="形状" fill="#09244B"></path>
            </g>
        </g>
    </g>
</svg>