<?xml version="1.0" encoding="UTF-8"?>
<svg width="24px" height="24px" viewBox="0 0 24 24" version="1.1" xmlns="http://www.w3.org/2000/svg" xmlns:xlink="http://www.w3.org/1999/xlink">
    <title>wifi_fill</title>
    <g id="页面-1" stroke="none" stroke-width="1" fill="none" fill-rule="evenodd">
        <g id="Device" transform="translate(-720.000000, -144.000000)" fill-rule="nonzero">
            <g id="wifi_fill" transform="translate(720.000000, 144.000000)">
                <rect id="矩形" x="0" y="0" width="24" height="24"></rect>
                <path d="M12,16.5 C12.8284,16.5 13.5,17.1716 13.5,18 C13.5,18.8284 12.8284,19.5 12,19.5 C11.1716,19.5 10.5,18.8284 10.5,18 C10.5,17.1716 11.1716,16.5 12,16.5 Z M11.9999,12.5 C13.5183,12.5 14.8954,13.1173 15.889,14.1109 C16.4748,14.6967 16.4748,15.6464 15.889,16.2322 C15.3398125,16.7813875 14.470791,16.8157117 13.8816243,16.3351727 L13.7677,16.2322 C13.3136,15.7782 12.6907,15.5 11.9999,15.5 C11.37827,15.5 10.811477,15.725342 10.3733687,16.1013764 L10.2322,16.2322 C9.64638,16.818 8.69663,16.818 8.11084,16.2322 C7.52506,15.6464 7.52506,14.6967 8.11084,14.1109 C9.10451,13.1173 10.4816,12.5 11.9999,12.5 Z M11.9999,8.5 C14.6229,8.5 16.9999,9.56497 18.7174,11.2825 C19.3032,11.8683 19.3032,12.818 18.7174,13.4038 C18.1317,13.9896 17.1819,13.9896 16.5961,13.4038 C15.4182,12.2259 13.7953,11.5 11.9999,11.5 C10.2046,11.5 8.58165,12.2259 7.40374,13.4038 C6.81795,13.9896 5.8682,13.9896 5.28242,13.4038 C4.69663,12.818 4.69663,11.8683 5.28242,11.2825 C6.99994,9.56497 9.37699,8.5 11.9999,8.5 Z M11.9999,4.5 C15.7274,4.5 19.1045,6.01268 21.5459,8.45406 C22.1317,9.03984 22.1317,9.98959 21.5459,10.5754 C20.9601,11.1612 20.0103,11.1612 19.4245,10.5754 C17.5228,8.67361 14.8998,7.5 11.9999,7.5 C9.10002,7.5 6.47708,8.67361 4.57531,10.5754 C3.98952,11.1612 3.03977,11.1612 2.45399,10.5754 C1.8682,9.98959 1.8682,9.03984 2.45399,8.45406 C4.89537,6.01268 8.27242,4.5 11.9999,4.5 Z" id="形状" fill="#09244B"></path>
            </g>
        </g>
    </g>
</svg>