<?xml version="1.0" encoding="UTF-8"?>
<svg width="24px" height="24px" viewBox="0 0 24 24" version="1.1" xmlns="http://www.w3.org/2000/svg" xmlns:xlink="http://www.w3.org/1999/xlink">
    <title>chat_1_fill</title>
    <g id="页面-1" stroke="none" stroke-width="1" fill="none" fill-rule="evenodd">
        <g id="chat_1_fill">
            <rect id="矩形" fill-opacity="0.01" fill="#FFFFFF" fill-rule="nonzero" x="0" y="0" width="24" height="24"></rect>
            <path d="M12,2 C17.5228,2 22,6.47715 22,12 C22,17.5228 17.5228,22 12,22 L4,22 C2.89543,22 2,21.1046 2,20 L2,12 C2,6.47715 6.47715,2 12,2 Z M12,14 L9,14 C8.44772,14 8,14.4477 8,15 C8,15.5523 8.44772,16 9,16 L12,16 C12.5523,16 13,15.5523 13,15 C13,14.4477 12.5523,14 12,14 Z M15,10 L9,10 C8.44772,10 8,10.4477 8,11 C8,11.51285 8.38604429,11.9355092 8.88337975,11.9932725 L9,12 L15,12 C15.5523,12 16,11.5523 16,11 C16,10.48715 15.613973,10.0644908 15.1166239,10.0067275 L15,10 Z" id="形状" fill="#09244B"></path>
        </g>
    </g>
</svg>