<?xml version="1.0" encoding="UTF-8"?>
<svg width="24px" height="24px" viewBox="0 0 24 24" version="1.1" xmlns="http://www.w3.org/2000/svg" xmlns:xlink="http://www.w3.org/1999/xlink">
    <title>chat_2_fill</title>
    <g id="页面-1" stroke="none" stroke-width="1" fill="none" fill-rule="evenodd">
        <g id="chat_2_fill">
            <rect id="矩形" fill-opacity="0.01" fill="#FFFFFF" fill-rule="nonzero" x="0" y="0" width="24" height="24"></rect>
            <path d="M12,2 C17.5228,2 22,6.47715 22,12 C22,17.5228 17.5228,22 12,22 C10.1104,22 8.34058,21.475 6.83171,20.5624 L3.79975,21.4542 C3.03284,21.6798 2.32023,20.9672 2.54581,20.2002 L3.43756,17.1683 C2.52505,15.6594 2,13.8896 2,12 C2,6.47715 6.47715,2 12,2 Z M8.5,10.5 C7.67157,10.5 7,11.1716 7,12 C7,12.8284 7.67157,13.5 8.5,13.5 C9.32843,13.5 10,12.8284 10,12 C10,11.1716 9.32843,10.5 8.5,10.5 Z M15.5,10.5 C14.6716,10.5 14,11.1716 14,12 C14,12.8284 14.6716,13.5 15.5,13.5 C16.3284,13.5 17,12.8284 17,12 C17,11.1716 16.3284,10.5 15.5,10.5 Z" id="形状" fill="#09244B"></path>
        </g>
    </g>
</svg>