<svg xmlns="http://www.w3.org/2000/svg" width="24" height="24" viewBox="0 0 24 24"><title>chat_3_ai_fill</title><g fill="none"><path d="M24 0v24H0V0zM12.594 23.258l-.012.002-.071.035-.02.004-.014-.004-.071-.036q-.016-.004-.024.006l-.004.01-.017.428.005.02.01.013.104.074.015.004.012-.004.104-.074.012-.016.004-.017-.017-.427q-.004-.016-.016-.018m.264-.113-.014.002-.184.093-.01.01-.003.011.018.43.005.012.008.008.201.092q.019.005.029-.008l.004-.014-.034-.614q-.005-.019-.02-.022m-.715.002a.02.02 0 0 0-.027.006l-.006.014-.034.614q.001.018.017.024l.015-.002.201-.093.01-.008.003-.011.018-.43-.003-.012-.01-.01z"/><path fill="#09244b" d="M12 3c.871 0 1.724.098 2.541.281a3 3 0 0 0 1.49 4.558l.377.129a1 1 0 0 1 .624.624l.13.378a3 3 0 0 0 4.741 1.347q.095.578.097 1.183c0 4.857-4.656 8.5-10 8.5q-.981-.002-1.911-.155l-.233.184q-.098.076-.217.16C9.07 20.59 8.249 21 7 21a1 1 0 0 1-1-1c0-.55.143-1.233-.094-1.756C3.577 16.723 2 14.298 2 11.5 2 6.643 6.656 3 12 3m8-2a1 1 0 0 1 .946.677l.13.378c.3.879.99 1.57 1.87 1.87l.377.129a1 1 0 0 1 0 1.892l-.378.13c-.879.3-1.57.99-1.87 1.87l-.129.377a1 1 0 0 1-1.892 0l-.13-.378a3 3 0 0 0-1.87-1.87l-.377-.129a1 1 0 0 1 0-1.892l.378-.13c.879-.3 1.57-.99 1.87-1.87l.129-.377A1 1 0 0 1 20 1"/></g></svg>