<?xml version="1.0" encoding="UTF-8"?>
<svg width="24px" height="24px" viewBox="0 0 24 24" version="1.1" xmlns="http://www.w3.org/2000/svg" xmlns:xlink="http://www.w3.org/1999/xlink">
    <title>chat_3_fill</title>
    <g id="页面-1" stroke="none" stroke-width="1" fill="none" fill-rule="evenodd">
        <g id="Contact" transform="translate(-768.000000, -48.000000)" fill-rule="nonzero">
            <g id="chat_3_fill" transform="translate(768.000000, 48.000000)">
                <rect id="矩形" x="0" y="0" width="24" height="24"></rect>
                <path d="M2,11.5 C2,6.64261 6.65561,3 12,3 C17.3444,3 22,6.64261 22,11.5 C22,16.3574 17.3444,20 12,20 C11.3472,20 10.708,19.9469 10.0886,19.8452 C9.99597,19.918 9.83571,20.0501 9.63851,20.1891 C9.0713,20.5887 8.24917,21 7,21 C6.44772,21 6,20.5523 6,20 C6,19.4499 6.14332,18.7663 5.90624,18.2438 C3.57701,16.7225 2,14.2978 2,11.5 Z" id="路径" fill="#09244B"></path>
            </g>
        </g>
    </g>
</svg>