<svg xmlns="http://www.w3.org/2000/svg" width="24" height="24" viewBox="0 0 24 24"><title>chat_3_ai_line</title><g fill="none"><path d="M24 0v24H0V0zM12.594 23.258l-.012.002-.071.035-.02.004-.014-.004-.071-.036q-.016-.004-.024.006l-.004.01-.017.428.005.02.01.013.104.074.015.004.012-.004.104-.074.012-.016.004-.017-.017-.427q-.004-.016-.016-.018m.264-.113-.014.002-.184.093-.01.01-.003.011.018.43.005.012.008.008.201.092q.019.005.029-.008l.004-.014-.034-.614q-.005-.019-.02-.022m-.715.002a.02.02 0 0 0-.027.006l-.006.014-.034.614q.001.018.017.024l.015-.002.201-.093.01-.008.003-.011.018-.43-.003-.012-.01-.01z"/><path fill="#09244b" d="M21.059 11.003a1 1 0 0 1 .918 1.076C21.618 16.65 17.138 20 12 20c-.652 0-1.289-.056-1.907-.157l-.114.089a7 7 0 0 1-.34.258c-.568.4-1.39.81-2.639.81a1 1 0 0 1-1-1c0-.389.046-.742.009-1.229a2 2 0 0 0-.085-.484q-.013-.032-.022-.048C3.576 16.718 2 14.296 2 11.5 2 6.643 6.656 3 12 3q.553 0 1.092.05a1 1 0 0 1-.184 1.992A10 10 0 0 0 12 5c-4.597 0-8 3.073-8 6.5 0 2.014 1.142 3.872 3.042 5.097.427.275.648.687.767 1.02.12.34.17.698.194 1.003q.006.096.008.197c.19-.078.344-.17.475-.263a5 5 0 0 0 .251-.19c.077-.06.182-.146.28-.216.14-.1.537-.387 1.062-.333l.106.017.442.072Q11.295 18 12 18c4.402 0 7.727-2.831 7.983-6.08a1 1 0 0 1 1.076-.917M20 1a1 1 0 0 1 .946.677l.13.378c.3.879.99 1.57 1.87 1.87l.377.129a1 1 0 0 1 0 1.892l-.378.13c-.879.3-1.57.99-1.87 1.87l-.129.377a1 1 0 0 1-1.892 0l-.13-.378a3 3 0 0 0-1.87-1.87l-.377-.129a1 1 0 0 1 0-1.892l.378-.13c.879-.3 1.57-.99 1.87-1.87l.129-.377.062-.146A1 1 0 0 1 20 1m0 3.196a5 5 0 0 1-.804.804q.449.355.804.803.356-.447.803-.803A5 5 0 0 1 20 4.196"/></g></svg>