<?xml version="1.0" encoding="UTF-8"?>
<svg width="24px" height="24px" viewBox="0 0 24 24" version="1.1" xmlns="http://www.w3.org/2000/svg" xmlns:xlink="http://www.w3.org/1999/xlink">
    <title>chat_2_line</title>
    <g id="页面-1" stroke="none" stroke-width="1" fill="none" fill-rule="evenodd">
        <g id="Contact" transform="translate(-48.000000, 0.000000)" fill-rule="nonzero">
            <g id="chat_2_line" transform="translate(48.000000, 0.000000)">
                <rect id="矩形" x="0" y="0" width="24" height="24"></rect>
                <path d="M12,2 C17.5228,2 22,6.47715 22,12 C22,17.5228 17.5228,22 12,22 C10.1104,22 8.34058,21.475 6.83171,20.5624 L3.79975,21.4542 C3.03284,21.6798 2.32023,20.9672 2.54581,20.2002 L3.43756,17.1683 C2.52505,15.6594 2,13.8896 2,12 C2,6.47715 6.47715,2 12,2 Z M12,4 C7.58172,4 4,7.58172 4,12 C4,13.5769 4.4552,15.0444 5.24098,16.2818 C5.46769,16.6389 5.54552,17.0892 5.41832,17.5217 L4.97667,19.0233 L6.47827,18.5817 C6.91075,18.4545 7.36114,18.5323 7.71817,18.759 C8.95564,19.5448 10.4231,20 12,20 C16.4183,20 20,16.4183 20,12 C20,7.58172 16.4183,4 12,4 Z M8.5,10.5 C9.32843,10.5 10,11.1716 10,12 C10,12.8284 9.32843,13.5 8.5,13.5 C7.67157,13.5 7,12.8284 7,12 C7,11.1716 7.67157,10.5 8.5,10.5 Z M15.5,10.5 C16.3284,10.5 17,11.1716 17,12 C17,12.8284 16.3284,13.5 15.5,13.5 C14.6716,13.5 14,12.8284 14,12 C14,11.1716 14.6716,10.5 15.5,10.5 Z" id="形状" fill="#09244B"></path>
            </g>
        </g>
    </g>
</svg>