<svg width="24" height="24" viewBox="0 0 24 24" fill="none" xmlns="http://www.w3.org/2000/svg">
<rect width="24" height="24" fill="white" fill-opacity="0.01"/>
<path d="M10 12C10 12.8284 9.32843 13.5 8.5 13.5C7.67157 13.5 7 12.8284 7 12C7 11.1716 7.67157 10.5 8.5 10.5C9.32843 10.5 10 11.1716 10 12Z" fill="#09244B"/>
<path d="M15.5 13.5C16.3284 13.5 17 12.8284 17 12C17 11.1716 16.3284 10.5 15.5 10.5C14.6716 10.5 14 11.1716 14 12C14 12.8284 14.6716 13.5 15.5 13.5Z" fill="#09244B"/>
<path fill-rule="evenodd" clip-rule="evenodd" d="M2 12C2 6.47715 6.47715 2 12 2C17.5228 2 22 6.47715 22 12C22 17.5228 17.5228 22 12 22C10.1104 22 8.34058 21.475 6.83171 20.5624L3.79975 21.4542C3.03284 21.6798 2.32023 20.9672 2.54581 20.2002L3.43756 17.1683C2.52505 15.6594 2 13.8896 2 12ZM12 4C7.58172 4 4 7.58172 4 12C4 13.5769 4.4552 15.0444 5.24098 16.2818C5.46769 16.6389 5.54552 17.0892 5.41832 17.5217L4.97667 19.0233L6.47827 18.5817C6.91075 18.4545 7.36114 18.5323 7.71817 18.759C8.95564 19.5448 10.4231 20 12 20C16.4183 20 20 16.4183 20 12C20 7.58172 16.4183 4 12 4Z" fill="#09244B"/>
</svg>
