<svg xmlns="http://www.w3.org/2000/svg" width="24" height="24"><g fill="none" fill-rule="nonzero"><path d="M24 0v24H0V0h24ZM12.593 23.258l-.011.002-.071.035-.02.004-.014-.004-.071-.035c-.01-.004-.019-.001-.024.005l-.004.01-.017.428.005.02.01.013.104.074.015.004.012-.004.104-.074.012-.016.004-.017-.017-.427c-.002-.01-.009-.017-.017-.018Zm.265-.113-.013.002-.185.093-.01.01-.003.011.018.43.005.012.008.007.201.093c.012.004.023 0 .029-.008l.004-.014-.034-.614c-.003-.012-.01-.02-.02-.022Zm-.715.002a.023.023 0 0 0-.027.006l-.006.014-.034.614c0 .012.007.02.017.024l.015-.002.201-.093.01-.008.004-.011.017-.43-.003-.012-.01-.01-.184-.092Z"/><path fill="#09244B" d="M19 10a3 3 0 0 1 3 3v3a3 3 0 0 1-3 3v.966c0 1.06-1.236 1.639-2.05.96L14.638 19H12a3 3 0 0 1-3-3v-3a3 3 0 0 1 3-3h7Zm-3-6a3 3 0 0 1 3 3v1h-8a4 4 0 0 0-4 4v4c0 1.044.4 1.996 1.056 2.708L7 19.5c-.824.618-2 .03-2-1V17a3 3 0 0 1-3-3V7a3 3 0 0 1 3-3h11Z"/></g></svg>