<?xml version="1.0" encoding="UTF-8"?>
<svg width="24px" height="24px" viewBox="0 0 24 24" version="1.1" xmlns="http://www.w3.org/2000/svg" xmlns:xlink="http://www.w3.org/1999/xlink">
    <title>comment_line</title>
    <g id="页面-1" stroke="none" stroke-width="1" fill="none" fill-rule="evenodd">
        <g id="Contact" transform="translate(-96.000000, 0.000000)" fill-rule="nonzero">
            <g id="comment_line" transform="translate(96.000000, 0.000000)">
                <rect id="矩形" x="0" y="0" width="24" height="24"></rect>
                <path d="M16,4 C17.597725,4 18.903664,5.24892392 18.9949075,6.82372764 L19,7 L19,9 C20.597725,9 21.903664,10.2488774 21.9949075,11.8237227 L22,12 L22,16 C22,17.597725 20.7511226,18.903664 19.1762773,18.9949075 L19,19 L19,19.9662 C19,20.9852385 17.8571561,21.5597503 17.0455131,20.999252 L16.9498,20.9265 L14.6379,19 L11,19 C10.2325667,19 9.53238076,18.7117847 9.00183994,18.237721 L8.86143,18.1039 L7,19.5 C6.208912,20.09328 5.09351296,19.5752026 5.00554678,18.6214406 L5,18.5 L5,17 C3.40232321,17 2.09633941,15.7511226 2.00509271,14.1762773 L2,14 L2,7 C2,5.40232321 3.24892392,4.09633941 4.82372764,4.00509271 L5,4 L16,4 Z M19,11 L11,11 C10.4477,11 10,11.4477 10,12 L10,16 C10,16.5523 10.4477,17 11,17 L14.6379,17 C15.1058,17 15.5589,17.164 15.9183,17.4636 L17.0056,18.3696 C17.0717,17.6022 17.7155,17 18.5,17 L19,17 C19.5523,17 20,16.5523 20,16 L20,12 C20,11.4477 19.5523,11 19,11 Z M16,6 L5,6 C4.44772,6 4,6.44772 4,7 L4,14 C4,14.5523 4.44772,15 5,15 L5.5,15 C6.32843,15 7,15.6716 7,16.5 L7,17 L8.00968,16.2427 C8.00327,16.1627 8,16.0817 8,16 L8,12 C8,10.3431 9.34315,9 11,9 L17,9 L17,7 C17,6.44772 16.5523,6 16,6 Z" id="形状" fill="#09244B"></path>
            </g>
        </g>
    </g>
</svg>