<?xml version="1.0" encoding="UTF-8"?>
<svg width="24px" height="24px" viewBox="0 0 24 24" version="1.1" xmlns="http://www.w3.org/2000/svg" xmlns:xlink="http://www.w3.org/1999/xlink">
    <title>comment_fill</title>
    <g id="页面-1" stroke="none" stroke-width="1" fill="none" fill-rule="evenodd">
        <g id="Contact" transform="translate(-96.000000, -48.000000)" fill-rule="nonzero">
            <g id="comment_fill" transform="translate(96.000000, 48.000000)">
                <rect id="矩形" x="0" y="0" width="24" height="24"></rect>
                <path d="M19,10 C20.6569,10 22,11.3431 22,13 L22,16 C22,17.6569 20.6569,19 19,19 L19,19.9662 C19,21.026 17.7639,21.605 16.9498,20.9265 L14.6379,19 L12,19 C10.3431,19 9,17.6569 9,16 L9,13 C9,11.3431 10.3431,10 12,10 L19,10 Z M16,4 C17.6569,4 19,5.34315 19,7 L19,8 L11,8 C8.79086,8 7,9.79086 7,12 L7,16 C7,17.0445 7.40037,17.9956 8.05602,18.708 L7,19.5 C6.17596,20.118 5,19.5301 5,18.5 L5,17 C3.34315,17 2,15.6569 2,14 L2,7 C2,5.34315 3.34315,4 5,4 L16,4 Z" id="形状" fill="#09244B"></path>
            </g>
        </g>
    </g>
</svg>