<?xml version="1.0" encoding="UTF-8"?>
<svg width="24px" height="24px" viewBox="0 0 24 24" version="1.1" xmlns="http://www.w3.org/2000/svg" xmlns:xlink="http://www.w3.org/1999/xlink">
    <title>invite_line</title>
    <g id="页面-1" stroke="none" stroke-width="1" fill="none" fill-rule="evenodd">
        <g id="Contact" transform="translate(-864.000000, 0.000000)">
            <g id="invite_line" transform="translate(864.000000, 0.000000)">
                <rect id="矩形" fill-rule="nonzero" x="0" y="0" width="24" height="24"></rect>
                <path d="M17,3 C18.597725,3 19.903664,4.24892392 19.9949075,5.82372764 L20,6 L20,10.3501 L20.5939,10.0862 C21.2076,9.813435 21.9162954,10.2366962 21.9931452,10.8836127 L22,11 L22,19 C22,20.0543909 21.18415,20.9181678 20.1492661,20.9945144 L20,21 L4,21 C2.94563773,21 2.08183483,20.18415 2.00548573,19.1492661 L2,19 L2,11 C2,10.3284056 2.6746366,9.85267997 3.29700147,10.045194 L3.40614,10.0862 L4,10.3501 L4,6 C4,4.40232321 5.24892392,3.09633941 6.82372764,3.00509271 L7,3 L17,3 Z M20,12.5388 L12.8123,15.7333 C12.2951,15.9631 11.7049,15.9631 11.1877,15.7333 L4,12.5388 L4,19 L20,19 L20,12.5388 Z M17,5 L7,5 C6.44772,5 6,5.44772 6,6 L6,11.239 L12,13.9057 L18,11.239 L18,6 C18,5.44772 17.5523,5 17,5 Z M12,8 C12.5523,8 13,8.44772 13,9 C13,9.51283143 12.613973,9.93550653 12.1166239,9.9932722 L12,10 L10,10 C9.44772,10 9,9.55228 9,9 C9,8.48716857 9.38604429,8.06449347 9.88337975,8.0067278 L10,8 L12,8 Z" id="形状" fill="#09244B"></path>
            </g>
        </g>
    </g>
</svg>