<?xml version="1.0" encoding="UTF-8"?>
<svg width="24px" height="24px" viewBox="0 0 24 24" version="1.1" xmlns="http://www.w3.org/2000/svg" xmlns:xlink="http://www.w3.org/1999/xlink">
    <title>mail_line</title>
    <g id="页面-1" stroke="none" stroke-width="1" fill="none" fill-rule="evenodd">
        <g id="Contact" transform="translate(-144.000000, 0.000000)" fill-rule="nonzero">
            <g id="mail_line" transform="translate(144.000000, 0.000000)">
                <rect id="矩形" x="0" y="0" width="24" height="24"></rect>
                <path d="M20,4 C21.0543909,4 21.9181678,4.81587733 21.9945144,5.85073759 L22,6 L22,18 C22,19.0543909 21.18415,19.9181678 20.1492661,19.9945144 L20,20 L4,20 C2.94563773,20 2.08183483,19.18415 2.00548573,18.1492661 L2,18 L2,6 C2,4.94563773 2.81587733,4.08183483 3.85073759,4.00548573 L4,4 L20,4 Z M20,7.41424 L13.0606,14.3536 C12.4748,14.9394 11.5251,14.9394 10.9393,14.3536 L4,7.41424 L4,18 L20,18 L20,7.41424 Z M18.5858,6 L5.41409,6 L12,12.5859 L18.5858,6 Z" id="形状" fill="#09244B"></path>
            </g>
        </g>
    </g>
</svg>