<?xml version="1.0" encoding="UTF-8"?>
<svg width="24px" height="24px" viewBox="0 0 24 24" version="1.1" xmlns="http://www.w3.org/2000/svg" xmlns:xlink="http://www.w3.org/1999/xlink">
    <title>mail_open_fill</title>
    <g id="页面-1" stroke="none" stroke-width="1" fill="none" fill-rule="evenodd">
        <g id="mail_open_fill">
            <rect id="矩形" fill-opacity="0.01" fill="#FFFFFF" fill-rule="nonzero" x="0" y="0" width="24" height="24"></rect>
            <path d="M10.8906,2.5378 C11.5144143,2.12193 12.3136092,2.092225 12.9624778,2.448685 L13.1094,2.5378 L21.1094,7.87114 C21.6194333,8.21115917 21.9427569,8.76421396 21.9931023,9.36910549 L22,9.53524 L22,19.0001 C22,20.0543955 21.18415,20.9182591 20.1492661,20.9946139 L20,21.0001 L4,21.0001 C2.94563773,21.0001 2.08183483,20.1841589 2.00548573,19.1493537 L2,19.0001 L2,9.53524 C2,8.92225583 2.28082083,8.34645396 2.75619398,7.96903326 L2.8906,7.87114 L10.8906,2.5378 Z M12,4.2019 L4.80276,9.00006 L12,13.7982 L19.1973,9.00007 L12,4.2019 Z" id="形状" fill="#09244B"></path>
        </g>
    </g>
</svg>