<?xml version="1.0" encoding="UTF-8"?>
<svg width="24px" height="24px" viewBox="0 0 24 24" version="1.1" xmlns="http://www.w3.org/2000/svg" xmlns:xlink="http://www.w3.org/1999/xlink">
    <title>mail_send_line</title>
    <g id="页面-1" stroke="none" stroke-width="1" fill="none" fill-rule="evenodd">
        <g id="Contact" transform="translate(-240.000000, 0.000000)" fill-rule="nonzero">
            <g id="mail_send_line" transform="translate(240.000000, 0.000000)">
                <rect id="矩形" x="0" y="0" width="24" height="24"></rect>
                <path d="M20,4 C21.0543909,4 21.9181678,4.81587733 21.9945144,5.85073759 L22,6 L22,18 C22,19.0543909 21.18415,19.9181678 20.1492661,19.9945144 L20,20 L4,20 C2.94563773,20 2.08183483,19.18415 2.00548573,18.1492661 L2,18 L2,17 L4,17 L4,18 L20,18 L20,7.41437 L13.0607,14.3536 C12.5116062,14.9027875 11.6425027,14.9371117 11.0533254,14.4565727 L10.9394,14.3536 L4,7.41421 L4,8 L2,8 L2,6 C2,4.94563773 2.81587733,4.08183483 3.85073759,4.00548573 L4,4 L20,4 Z M6,13 C6.55228,13 7,13.4477 7,14 C7,14.5523 6.55228,15 6,15 L1,15 C0.447715,15 0,14.5523 0,14 C0,13.4477 0.447715,13 1,13 L6,13 Z M18.5859,6 L5.41421,6 L12.0001,12.5859 L18.5859,6 Z M5,10 C5.55228,10 6,10.4477 6,11 C6,11.51285 5.61395571,11.9355092 5.11662025,11.9932725 L5,12 L2,12 C1.44772,12 1,11.5523 1,11 C1,10.48715 1.38604429,10.0644908 1.88337975,10.0067275 L2,10 L5,10 Z" id="形状" fill="#09244B"></path>
            </g>
        </g>
    </g>
</svg>