<?xml version="1.0" encoding="UTF-8"?>
<svg width="24px" height="24px" viewBox="0 0 24 24" version="1.1" xmlns="http://www.w3.org/2000/svg" xmlns:xlink="http://www.w3.org/1999/xlink">
    <title>mail_fill</title>
    <g id="页面-1" stroke="none" stroke-width="1" fill="none" fill-rule="evenodd">
        <g id="Contact" transform="translate(-144.000000, -48.000000)" fill-rule="nonzero">
            <g id="mail_fill" transform="translate(144.000000, 48.000000)">
                <rect id="矩形" x="0" y="0" width="24" height="24"></rect>
                <path d="M2.06773,5.48201 L10.9435,14.3578 C11.4926875,14.9069875 12.3617969,14.9413117 12.9508922,14.4607727 L13.0648,14.3578 L21.934,5.48861 C21.9627333,5.59743667 21.9824889,5.70988556 21.9924667,5.82513296 L22,6 L22,18 C22,19.0543909 21.18415,19.9181678 20.1492661,19.9945144 L20,20 L4,20 C2.94563773,20 2.08183483,19.18415 2.00548573,18.1492661 L2,18 L2,6 C2,5.88057333 2.01046667,5.76359111 2.03053481,5.64992148 L2.06773,5.48201 Z M20,4 C20.1210667,4 20.2396,4.01075111 20.3547111,4.03135259 L20.5247,4.06953 L12.0042,12.59 L3.48191,4.06776 C3.59207,4.03829333 3.70597667,4.018 3.82276481,4.00774519 L4,4 L20,4 Z" id="形状" fill="#09244B"></path>
            </g>
        </g>
    </g>
</svg>