<?xml version="1.0" encoding="UTF-8"?>
<svg width="24px" height="24px" viewBox="0 0 24 24" version="1.1" xmlns="http://www.w3.org/2000/svg" xmlns:xlink="http://www.w3.org/1999/xlink">
    <title>message_3_line</title>
    <g id="页面-1" stroke="none" stroke-width="1" fill="none" fill-rule="evenodd">
        <g id="Contact" transform="translate(-816.000000, 0.000000)" fill-rule="nonzero">
            <g id="message_3_line" transform="translate(816.000000, 0.000000)">
                <rect id="矩形" x="0" y="0" width="24" height="24"></rect>
                <path d="M19,3 C20.6569,3 22,4.34315 22,6 L22,16 C22,17.6569 20.6569,19 19,19 L7.33333,19 L4,21.5 C3.17596,22.118 2,21.5301 2,20.5 L2,6 C2,4.34315 3.34315,3 5,3 L19,3 Z M19,5 L5,5 C4.44772,5 4,5.44772 4,6 L4,19 L6.13333,17.4 C6.47953,17.1404 6.90059,17 7.33333,17 L19,17 C19.5523,17 20,16.5523 20,16 L20,6 C20,5.44772 19.5523,5 19,5 Z M11,12 C11.5523,12 12,12.4477 12,13 C12,13.51285 11.613973,13.9355092 11.1166239,13.9932725 L11,14 L8,14 C7.44772,14 7,13.5523 7,13 C7,12.48715 7.38604429,12.0644908 7.88337975,12.0067275 L8,12 L11,12 Z M16,8 C16.5523,8 17,8.44772 17,9 C17,9.55228 16.5523,10 16,10 L8,10 C7.44772,10 7,9.55228 7,9 C7,8.44772 7.44772,8 8,8 L16,8 Z" id="形状" fill="#09244B"></path>
            </g>
        </g>
    </g>
</svg>