<?xml version="1.0" encoding="UTF-8"?>
<svg width="24px" height="24px" viewBox="0 0 24 24" version="1.1" xmlns="http://www.w3.org/2000/svg" xmlns:xlink="http://www.w3.org/1999/xlink">
    <title>message_1_line</title>
    <g id="页面-1" stroke="none" stroke-width="1" fill="none" fill-rule="evenodd">
        <g id="Contact" transform="translate(-288.000000, 0.000000)" fill-rule="nonzero">
            <g id="message_1_line" transform="translate(288.000000, 0.000000)">
                <rect id="矩形" x="0" y="0" width="24" height="24"></rect>
                <path d="M19,3 C20.597725,3 21.903664,4.24892392 21.9949075,5.82372764 L22,6 L22,16 C22,17.597725 20.7511226,18.903664 19.1762773,18.9949075 L19,19 L15.3028,19 L12.6934,20.7396 C12.31549,20.99151 11.834629,21.016701 11.4361288,20.815173 L11.3066,20.7396 L8.69722,19 L5,19 C3.40232321,19 2.09633941,17.7511226 2.00509271,16.1762773 L2,16 L2,6 C2,4.40232321 3.24892392,3.09633941 4.82372764,3.00509271 L5,3 L19,3 Z M19,5 L5,5 C4.48716857,5 4.06449347,5.38604429 4.0067278,5.88337975 L4,6 L4,16 C4,16.51285 4.38604429,16.9355092 4.88337975,16.9932725 L5,17 L8.69722,17 C9.03566286,17 9.36761837,17.0858857 9.6624435,17.248337 L9.80662,17.3359 L12,18.7981 L14.1934,17.3359 C14.4749714,17.1481857 14.7987878,17.0354837 15.1342437,17.007114 L15.3028,17 L19,17 C19.51285,17 19.9355092,16.613973 19.9932725,16.1166239 L20,16 L20,6 C20,5.48716857 19.613973,5.06449347 19.1166239,5.0067278 L19,5 Z M8.5,10 C9.32843,10 10,10.6716 10,11.5 C10,12.3284 9.32843,13 8.5,13 C7.67157,13 7,12.3284 7,11.5 C7,10.6716 7.67157,10 8.5,10 Z M15.5,10 C16.3284,10 17,10.6716 17,11.5 C17,12.3284 16.3284,13 15.5,13 C14.6716,13 14,12.3284 14,11.5 C14,10.6716 14.6716,10 15.5,10 Z" id="形状" fill="#09244B"></path>
            </g>
        </g>
    </g>
</svg>