<?xml version="1.0" encoding="UTF-8"?>
<svg width="24px" height="24px" viewBox="0 0 24 24" version="1.1" xmlns="http://www.w3.org/2000/svg" xmlns:xlink="http://www.w3.org/1999/xlink">
    <title>message_3_line</title>
    <g id="页面-1" stroke="none" stroke-width="1" fill="none" fill-rule="evenodd">
        <g id="Contact" transform="translate(-432.000000, 0.000000)" fill-rule="nonzero">
            <g id="message_3_line" transform="translate(432.000000, 0.000000)">
                <rect id="矩形" x="0" y="0" width="24" height="24"></rect>
                <path d="M13.5,3 C18.1944,3 22,6.80558 22,11.5 C22,16.1944 18.1944,20 13.5,20 L13,20 L13,20.99 C13,21.5477 12.5477,22.0005 11.989,22 C9.52884,21.9976 7.03691,21.1771 5.14647,19.4959 C3.23771,17.7984 2.0022,15.2749 2,12.0087 L2,11.5 C2,6.80558 5.80558,3 10.5,3 L13.5,3 Z M13.5,5 L10.5,5 C6.91015,5 4,7.91015 4,11.5 L4.00124,12.1647 L4.00124,12.1647 C4.04119,14.8074 5.04228,16.7268 6.47556,18.0014 C7.71401,19.1028 9.31744,19.759 11,19.945 L11,19.01 C11,18.4522 11.4522,18 12.01,18 L13.5,18 C17.0899,18 20,15.0899 20,11.5 C20,7.91015 17.0899,5 13.5,5 Z M8.5,10 C9.32843,10 10,10.6716 10,11.5 C10,12.3284 9.32843,13 8.5,13 C7.67157,13 7,12.3284 7,11.5 C7,10.6716 7.67157,10 8.5,10 Z M15.5,10 C16.3284,10 17,10.6716 17,11.5 C17,12.3284 16.3284,13 15.5,13 C14.6716,13 14,12.3284 14,11.5 C14,10.6716 14.6716,10 15.5,10 Z" id="形状" fill="#09244B"></path>
            </g>
        </g>
    </g>
</svg>