<?xml version="1.0" encoding="UTF-8"?>
<svg width="24px" height="24px" viewBox="0 0 24 24" version="1.1" xmlns="http://www.w3.org/2000/svg" xmlns:xlink="http://www.w3.org/1999/xlink">
    <title>message_2_line</title>
    <g id="页面-1" stroke="none" stroke-width="1" fill="none" fill-rule="evenodd">
        <g id="Contact" transform="translate(-336.000000, 0.000000)">
            <g id="message_2_line" transform="translate(336.000000, 0.000000)">
                <rect id="矩形" fill-rule="nonzero" x="0" y="0" width="24" height="24"></rect>
                <path d="M2,6 C2,4.34315 3.34315,3 5,3 L19,3 C20.6569,3 22,4.34315 22,6 L22,16 C22,17.6569 20.6569,19 19,19 L11.3333,19 L8,21.5 C7.17596,22.118 6,21.5301 6,20.5 L6,19 L5,19 C3.34315,19 2,17.6569 2,16 L2,6 Z M5,5 C4.44772,5 4,5.44772 4,6 L4,16 C4,16.5523 4.44772,17 5,17 L6.5,17 C7.32843,17 8,17.6716 8,18.5 L8,19 L10.1333,17.4 C10.4795,17.1404 10.9006,17 11.3333,17 L19,17 C19.5523,17 20,16.5523 20,16 L20,6 C20,5.44772 19.5523,5 19,5 L5,5 Z" id="形状" fill="#09244B"></path>
            </g>
        </g>
    </g>
</svg>