<?xml version="1.0" encoding="UTF-8"?>
<svg width="24px" height="24px" viewBox="0 0 24 24" version="1.1" xmlns="http://www.w3.org/2000/svg" xmlns:xlink="http://www.w3.org/1999/xlink">
    <title>phone_fill</title>
    <g id="页面-1" stroke="none" stroke-width="1" fill="none" fill-rule="evenodd">
        <g id="Contact" transform="translate(-384.000000, -48.000000)">
            <g id="phone_fill" transform="translate(384.000000, 48.000000)">
                <rect id="矩形" fill-rule="nonzero" x="0" y="0" width="24" height="24"></rect>
                <path d="M16.5523,22.1325 C15.1114,22.0795 11.0307,21.5161 6.75734,17.2427 C2.48395,12.9693 1.92055,8.88863 1.86753,7.44768 C1.78673,5.25222 3.46853,3.11903 5.41214,2.28606 C5.8682,2.0906 6.42059,2.12637 6.85727,2.4449 C8.45606,3.61112 9.5607,5.37436 10.509,6.76167 C10.9374,7.38836 10.835,8.24401 10.2531,8.74773 L8.30196,10.1968 C8.10857,10.3404 8.04427,10.6014 8.16026,10.8125 C8.60171,11.6161 9.38817,12.8119 10.2881,13.7119 C11.1891,14.6128 12.4414,15.45 13.3002,15.9412 C13.5229,16.0686 13.803,15.9948 13.9438,15.7803 L15.2131,13.8469 C15.6998,13.1991 16.6088,13.0576 17.2695,13.5149 C18.677,14.489 20.3188,15.5737 21.521,17.1133 C21.8625,17.5507 21.9133,18.1227 21.7096,18.5981 C20.8728,20.5507 18.7552,22.2136 16.5523,22.1325 Z" id="路径" fill="#09244B"></path>
            </g>
        </g>
    </g>
</svg>