<?xml version="1.0" encoding="UTF-8"?>
<svg width="24px" height="24px" viewBox="0 0 24 24" version="1.1" xmlns="http://www.w3.org/2000/svg" xmlns:xlink="http://www.w3.org/1999/xlink">
    <title>phone_off_fill</title>
    <g id="Icon" stroke="none" stroke-width="1" fill="none" fill-rule="evenodd">
        <g id="Contact" transform="translate(-96.000000, -144.000000)" fill-rule="nonzero">
            <g id="phone_off_fill" transform="translate(96.000000, 144.000000)">
                <path d="M24,0 L24,24 L0,24 L0,0 L24,0 Z M12.5935,23.2578 L12.5819,23.2595 L12.5109,23.295 L12.4919,23.2987 L12.4767,23.295 L12.4057,23.2595 C12.3958,23.2564 12.387,23.259 12.3821,23.2649 L12.378,23.2758 L12.3609,23.7031 L12.3659,23.7235 L12.3769,23.7357 L12.4805,23.8097 L12.4953,23.8136 L12.5071,23.8097 L12.6107,23.7357 L12.6233,23.7197 L12.6267,23.7031 L12.6096,23.2758 C12.6076,23.2657 12.601,23.2593 12.5935,23.2578 Z M12.8584,23.1453 L12.8445,23.1473 L12.6598,23.2397 L12.6499,23.2499 L12.6472,23.2611 L12.6651,23.6906 L12.6699,23.7034 L12.6784,23.7105 L12.8793,23.8032 C12.8914,23.8069 12.9022,23.803 12.9078,23.7952 L12.9118,23.7812 L12.8777,23.1665 C12.8753,23.1546 12.8674,23.147 12.8584,23.1453 Z M12.143,23.1473 C12.1332,23.1424 12.1222,23.1453 12.1156,23.1526 L12.1099,23.1665 L12.0758,23.7812 C12.0751,23.7927 12.0828,23.8019 12.0926,23.8046 L12.1083,23.8032 L12.3092,23.7105 L12.3186,23.7024 L12.3225,23.6906 L12.3404,23.2611 L12.3372,23.2485 L12.3278,23.2397 L12.143,23.1473 Z" id="MingCute"></path>
                <path d="M17.2696,13.5147 L18.2220097,14.1749935 C19.37585,14.9863222 20.5824333,15.9111 21.5211,17.1131 C21.8626,17.5506 21.9134,18.1226 21.7097,18.598 C21.0214143,20.2039048 19.6558497,21.4154331 17.9898985,21.911583 L17.6639,21.9991 C17.3434,22.0792 16.9648,22.1475 16.5524,22.1324 L16.3353877,22.1214223 L16.3353877,22.1214223 L15.9493213,22.088458 C15.9025406,22.0834966 15.8544955,22.0780625 15.8052164,22.072116 L15.4949776,22.0299696 L15.4949776,22.0299696 L15.1565834,21.9736158 L15.1565834,21.9736158 L14.7914939,21.9011458 C14.7285021,21.8876184 14.6644589,21.8733399 14.5993946,21.8582706 L14.1969996,21.7580469 C12.6093824,21.3350393 10.5138092,20.4516132 8.28037,18.6239 L11.8766,15.0277 C12.2167333,15.2698333 12.5531778,15.4904556 12.8616074,15.6803815 L13.3002,15.9411 L13.3002,15.9411 C13.5229,16.0684 13.8031,15.9947 13.9439,15.7802 L15.2132,13.8467 C15.6999,13.199 16.6089,13.0574 17.2696,13.5147 Z M5.41221,2.28593 C5.86828,2.09047 6.42066,2.12624 6.85734,2.44477 C7.96616308,3.25358538 8.83736485,4.34965521 9.58354888,5.4082776 L10.017158,6.03635973 L10.017158,6.03635973 L10.5091,6.76154 L10.5091,6.76154 C10.90894,7.34645067 10.8463942,8.13081093 10.3631715,8.64232759 L10.2532,8.74759 L8.30204,10.1966 C8.10865,10.3402 8.04435,10.6013 8.16034,10.8124 C8.4116575,11.26985 8.77480219,11.8544703 9.20704645,12.4392438 L9.3964,12.6895 L16.0105,6.07536 C16.4011,5.68484 17.0342,5.68484 17.4248,6.07536 C17.7852615,6.43584923 17.8129893,7.00307645 17.5079834,7.39537152 L17.4248,7.48958 L3.98973,20.9246 C3.59921,21.3151 2.96604,21.3151 2.57552,20.9246 C2.21503077,20.5641385 2.18730083,19.9968793 2.49233018,19.6046027 L2.57552,19.5104 L5.83066,16.2553 C3.87022571,14.0257 2.87220449,11.9023237 2.3677077,10.2437427 L2.25159391,9.83898818 C2.23386479,9.77321213 2.21692465,9.70829491 2.20073956,9.64426243 L2.11241839,9.27089208 L2.11241839,9.27089208 L2.04059052,8.92000081 L2.04059052,8.92000081 L1.98362788,8.59283365 L1.98362788,8.59283365 L1.93990236,8.29063565 L1.93990236,8.29063565 L1.90778589,8.01465184 L1.90778589,8.01465184 L1.88565039,7.76612727 L1.88565039,7.76612727 L1.87186776,7.54630697 C1.87017628,7.51213145 1.868765,7.47920381 1.8676,7.44755 C1.855464,7.117678 1.8967808,6.8093996 1.95481952,6.535182 L2.01668,6.27301 C2.46333,4.48641 3.71953,3.01136 5.41221,2.28593 Z" id="形状" fill="#09244B"></path>
            </g>
        </g>
    </g>
</svg>