<svg width="24" height="24" viewBox="0 0 24 24" fill="none" xmlns="http://www.w3.org/2000/svg">
<rect width="24" height="24" fill="white" fill-opacity="0.01"/>
<path fill-rule="evenodd" clip-rule="evenodd" d="M8.17155 15.8285C12.0174 19.6743 15.5802 20.0954 16.6259 20.1339C17.8904 20.1804 19.1802 19.1483 19.7376 18.0906C18.848 17.0465 17.6892 16.2367 16.4195 15.3587C15.6712 16.107 14.7484 17.4973 13.5186 16.9999C12.8203 16.7175 11.0941 15.9226 9.58577 14.4143C8.07739 12.9059 7.28253 11.1797 7.00013 10.4815C6.50231 9.25062 7.89573 8.32613 8.64459 7.57727C7.76704 6.28658 6.97058 5.09819 5.92867 4.25321C4.85725 4.8137 3.81906 6.09371 3.86617 7.37413C3.90465 8.41979 4.32575 11.9827 8.17155 15.8285ZM16.5523 22.1325C15.1114 22.0795 11.0307 21.5161 6.75734 17.2427C2.48395 12.9693 1.92055 8.88863 1.86753 7.44768C1.78673 5.25222 3.46853 3.11903 5.41214 2.28606C5.8682 2.0906 6.42059 2.12637 6.85727 2.4449C8.4649 3.61757 9.57405 5.39532 10.5266 6.78732C10.9324 7.38038 10.8654 8.18491 10.3502 8.70013L8.99377 10.0565C9.30858 10.7518 9.95085 11.9509 11 13C12.0491 14.0492 13.2482 14.6914 13.9435 15.0063L15.2992 13.6505C15.8149 13.1349 16.6229 13.0669 17.2173 13.4787C18.6373 14.4625 20.305 15.556 21.521 17.1133C21.8625 17.5507 21.9133 18.1227 21.7096 18.5981C20.8728 20.5507 18.7552 22.2136 16.5523 22.1325Z" fill="#09244B"/>
</svg>
