<?xml version="1.0" encoding="UTF-8"?>
<svg width="24px" height="24px" viewBox="0 0 24 24" version="1.1" xmlns="http://www.w3.org/2000/svg" xmlns:xlink="http://www.w3.org/1999/xlink">
    <title>phone_block_fill</title>
    <g id="页面-1" stroke="none" stroke-width="1" fill="none" fill-rule="evenodd">
        <g id="Contact" transform="translate(-528.000000, -48.000000)">
            <g id="phone_block_fill" transform="translate(528.000000, 48.000000)">
                <rect id="矩形" fill-rule="nonzero" x="0" y="0" width="24" height="24"></rect>
                <path d="M6.85728,2.44489 C7.99928,3.27790429 8.88915755,4.41552061 9.65001761,5.50316536 L10.0920364,6.14691904 L10.0920364,6.14691904 L10.509,6.76166 L10.509,6.76166 C10.9374,7.38835 10.8351,8.244 10.2531,8.74772 L8.30198,10.1967 C8.10859,10.3404 8.04429,10.6014 8.16028,10.8125 C8.60173,11.6161 9.38819,12.8119 10.2882,13.7119 C11.1891,14.6128 12.4414,15.45 13.3002,15.9412 C13.5229,16.0685 13.803,15.9948 13.9438,15.7803 L15.2131,13.8468 C15.6999,13.1991 16.6088,13.0576 17.2695,13.5149 L17.9332982,13.9735916 C19.1717645,14.8335207 20.5037538,15.8105615 21.521,17.1133 C21.8626,17.5507 21.9133,18.1227 21.7096,18.5981 C20.8728,20.5507 18.7552,22.2136 16.5524,22.1325 L16.2518759,22.1158001 L16.2518759,22.1158001 L16.0189256,22.0957065 L16.0189256,22.0957065 L15.7611336,22.0668244 L15.7611336,22.0668244 L15.4795621,22.0277651 L15.4795621,22.0277651 L15.1752731,21.97714 C15.1227241,21.9676615 15.0692729,21.9576432 15.0149414,21.9470562 L14.6785676,21.8764784 C14.6208039,21.8635009 14.5622043,21.8498968 14.5027909,21.8356372 L14.136722,21.7419821 L14.136722,21.7419821 L13.7521839,21.6312063 L13.7521839,21.6312063 L13.3502388,21.501921 C11.5039131,20.8764078 9.16110938,19.6464875 6.75735,17.2427 C4.35356813,14.8389125 3.12365344,12.4961028 2.49813876,10.6497861 L2.36885301,10.2478433 L2.36885301,10.2478433 L2.25807648,9.86330795 L2.25807648,9.86330795 L2.16442042,9.4972422 L2.16442042,9.4972422 L2.08649611,9.15070812 C2.06298899,9.03857004 2.04187237,8.92986425 2.02291481,8.82476776 L1.97228778,8.52048321 L1.97228778,8.52048321 L1.93322631,8.23891652 L1.93322631,8.23891652 L1.90434165,7.98112978 L1.90434165,7.98112978 L1.88424507,7.74818505 L1.88424507,7.74818505 L1.86754,7.44767 L1.86754,7.44767 C1.78675,5.25221 3.46855,3.11902 5.41215,2.28605 C5.86822,2.09059 6.4206,2.12636 6.85728,2.44489 Z M13.818,3.81801 C14.1785538,3.45753 14.7457349,3.42980077 15.1379989,3.73482231 L15.2322,3.81801 L17,5.58578 L18.7678,3.81801 C19.1583,3.42749 19.7915,3.42749 20.182,3.81801 C20.5424615,4.17849 20.5701893,4.74572503 20.2651834,5.1380135 L20.182,5.23222 L18.4142,6.99999 L20.182,8.76776 C20.5725,9.15828 20.5725,9.79145 20.182,10.182 C19.8215385,10.5424615 19.2542793,10.5701893 18.8620027,10.2651834 L18.7678,10.182 L17,8.4142 L15.2322,10.182 C14.8417,10.5725 14.2086,10.5725 13.818,10.182 C13.4575385,9.82149231 13.4298107,9.25425515 13.7348166,8.86196652 L13.818,8.76776 L15.5858,6.99999 L13.818,5.23222 C13.4275,4.8417 13.4275,4.20853 13.818,3.81801 Z" id="形状" fill="#09244B"></path>
            </g>
        </g>
    </g>
</svg>