<?xml version="1.0" encoding="UTF-8"?>
<svg width="24px" height="24px" viewBox="0 0 24 24" version="1.1" xmlns="http://www.w3.org/2000/svg" xmlns:xlink="http://www.w3.org/1999/xlink">
    <title>phone_outgoing_fill</title>
    <g id="页面-1" stroke="none" stroke-width="1" fill="none" fill-rule="evenodd">
        <g id="Contact" transform="translate(-672.000000, -48.000000)" fill-rule="nonzero">
            <g id="phone_outgoing_fill" transform="translate(672.000000, 48.000000)">
                <rect id="矩形" x="0" y="0" width="24" height="24"></rect>
                <path d="M5.41215,2.28593 C5.86822,2.09047 6.4206,2.12624 6.85728,2.44477 C7.99923714,3.27774857 8.88914837,4.41540061 9.65002023,5.50305411 L10.0920427,6.14680901 L10.0920427,6.14680901 L10.509,6.76154 L10.509,6.76154 C10.90884,7.34645067 10.8463813,8.13081093 10.3630889,8.64232759 L10.2531,8.74759 L8.30198,10.1966 C8.10859,10.3402 8.04429,10.6013 8.16027,10.8124 C8.60173,11.616 9.38819,12.8118 10.2882,13.7118 C11.1891,14.6127 12.4414,15.4499 13.3002,15.9411 C13.4950625,16.0524875 13.7338719,16.0099844 13.8848545,15.8539199 L13.9438,15.7802 L15.2131,13.8467 C15.6999,13.199 16.6088,13.0574 17.2695,13.5147 L17.9758122,14.004466 C19.2699314,14.9084071 20.5431,15.8607923 21.521,17.1131 C21.8626,17.5506 21.9133,18.1226 21.7096,18.598 C20.8776,20.5394 18.7439,22.213 16.5524,22.1324 L16.2518759,22.1156825 L16.2518759,22.1156825 L16.0189256,22.0955785 L16.0189256,22.0955785 L15.7611336,22.066687 L15.7611336,22.066687 L15.4795621,22.0276194 L15.4795621,22.0276194 L15.1752731,21.976987 L15.1752731,21.976987 L14.8493287,21.913401 L14.8493287,21.913401 L14.5027909,21.8354728 L14.5027909,21.8354728 L14.136722,21.7418135 L14.136722,21.7418135 L13.7521839,21.6310345 L13.7521839,21.6310345 L13.3502388,21.5017472 C11.5039131,20.876227 9.16110938,19.6463312 6.75735,17.2426 C4.35356813,14.8388125 3.12365344,12.4959965 2.49813876,10.6496743 L2.36885301,10.2477302 L2.36885301,10.2477302 L2.25807648,9.8631937 L2.25807648,9.8631937 L2.16442042,9.49712684 L2.16442042,9.49712684 L2.08649611,9.15059172 L2.08649611,9.15059172 L2.02291481,8.82465043 L2.02291481,8.82465043 L1.97228778,8.52036505 L1.97228778,8.52036505 L1.93322631,8.23879767 L1.93322631,8.23879767 L1.90434165,7.98101038 L1.90434165,7.98101038 L1.88424507,7.74806527 L1.88424507,7.74806527 L1.86754,7.44755 L1.86754,7.44755 C1.78675,5.25209 3.46855,3.1189 5.41215,2.28593 Z M20.0002,3.00006 C20.5524,3.00006 21.0002,3.44778 21.0002,4.00006 L21.0002,8.00006 C21.0002,8.55235 20.5524,9.00006 20.0002,9.00006 C19.4479,9.00006 19.0002,8.55235 19.0002,8.00006 L19.0002,6.41425 L15.7072,9.70722 C15.3167,10.0977 14.6835,10.0977 14.293,9.70722 C13.9025,9.31669 13.9025,8.68353 14.293,8.293 L17.5859,5.00006 L16.0002,5.00006 C15.4479,5.00006 15.0002,4.55235 15.0002,4.00006 C15.0002,3.44778 15.4479,3.00006 16.0002,3.00006 L20.0002,3.00006 Z" id="形状" fill="#09244B"></path>
            </g>
        </g>
    </g>
</svg>