<?xml version="1.0" encoding="UTF-8"?>
<svg width="24px" height="24px" viewBox="0 0 24 24" version="1.1" xmlns="http://www.w3.org/2000/svg" xmlns:xlink="http://www.w3.org/1999/xlink">
    <title>contacts_fill</title>
    <g id="页面-1" stroke="none" stroke-width="1" fill="none" fill-rule="evenodd">
        <g id="User" transform="translate(-528.000000, -48.000000)" fill-rule="nonzero">
            <g id="contacts_fill" transform="translate(528.000000, 48.000000)">
                <rect id="矩形" x="0" y="0" width="24" height="24"></rect>
                <path d="M15,14 C17.6887316,14 19.8818169,16.1223292 19.9953804,18.7831122 L20,19 L20,20 C20,21.0543909 19.18415,21.9181678 18.1492661,21.9945144 L18,22 L4,22 C2.94563773,22 2.08183483,21.18415 2.00548573,20.1492661 L2,20 L2,19 C2,16.3112684 4.12231026,14.1181831 6.78311066,14.0046196 L7,14 L15,14 Z M21,13 C21.5523,13 22,13.4477 22,14 C22,14.5523 21.5523,15 21,15 L20,15 C19.4477,15 19,14.5523 19,14 C19,13.4477 19.4477,13 20,13 L21,13 Z M11,2 C13.7614,2 16,4.23858 16,7 C16,9.76142 13.7614,12 11,12 C8.23858,12 6,9.76142 6,7 C6,4.23858 8.23858,2 11,2 Z M21,10 C21.5523,10 22,10.4477 22,11 C22,11.5523 21.5523,12 21,12 L19,12 C18.4477,12 18,11.5523 18,11 C18,10.4477 18.4477,10 19,10 L21,10 Z M21,7 C21.5523,7 22,7.44772 22,8 C22,8.51283143 21.613973,8.93550653 21.1166239,8.9932722 L21,9 L18,9 C17.4477,9 17,8.55228 17,8 C17,7.48716857 17.386027,7.06449347 17.8833761,7.0067278 L18,7 L21,7 Z" id="形状" fill="#09244B"></path>
            </g>
        </g>
    </g>
</svg>