<?xml version="1.0" encoding="UTF-8"?>
<svg width="24px" height="24px" viewBox="0 0 24 24" version="1.1" xmlns="http://www.w3.org/2000/svg" xmlns:xlink="http://www.w3.org/1999/xlink">
    <title>female_line</title>
    <g id="页面-1" stroke="none" stroke-width="1" fill="none" fill-rule="evenodd">
        <g id="female_line">
            <rect id="矩形" fill-rule="nonzero" x="0" y="0" width="24" height="24"></rect>
            <path d="M7.00012,9.5 C7.00012,5.35786 10.358,2 14.5001,2 C18.6423,2 22.0001,5.35786 22.0001,9.5 C22.0001,13.6421 18.6423,17 14.5001,17 C12.7856,17 11.2054,16.4247 9.94209,15.4565 L8.15432,17.2443 L9.57975,18.6697 C9.97027,19.0602 9.97027,19.6934 9.57975,20.0839 C9.18922,20.4745 8.55606,20.4745 8.16553,20.0839 L6.74011,18.6585 L4.62044,20.7782 C4.22991,21.1687 3.59675,21.1687 3.20622,20.7782 C2.8157,20.3876 2.8157,19.7545 3.20622,19.364 L5.32589,17.2443 L3.92289,15.8413 C3.53237,15.4508 3.53237,14.8176 3.92289,14.4271 C4.31342,14.0366 4.94658,14.0366 5.33711,14.4271 L6.74011,15.8301 L8.52998,14.0402 C7.57006,12.7799 7.00012,11.2065 7.00012,9.5 Z M14.5001,4 C11.4625,4 9.00012,6.46243 9.00012,9.5 C9.00012,12.5376 11.4625,15 14.5001,15 C17.5377,15 20.0001,12.5376 20.0001,9.5 C20.0001,6.46243 17.5377,4 14.5001,4 Z" id="形状" fill="#09244B"></path>
        </g>
    </g>
</svg>