<svg width="24" height="24" viewBox="0 0 24 24" fill="none" xmlns="http://www.w3.org/2000/svg">
<rect width="24" height="24" fill="white" fill-opacity="0.01"/>
<path fill-rule="evenodd" clip-rule="evenodd" d="M7.00012 9.5C7.00012 5.35786 10.358 2 14.5001 2C18.6423 2 22.0001 5.35786 22.0001 9.5C22.0001 13.6421 18.6423 17 14.5001 17C12.7856 17 11.2054 16.4247 9.94209 15.4565L8.15432 17.2443L9.57975 18.6697C9.97027 19.0602 9.97027 19.6934 9.57975 20.0839C9.18922 20.4745 8.55606 20.4745 8.16553 20.0839L6.74011 18.6585L4.62044 20.7782C4.22991 21.1687 3.59675 21.1687 3.20622 20.7782C2.8157 20.3876 2.8157 19.7545 3.20622 19.364L5.32589 17.2443L3.92289 15.8413C3.53237 15.4508 3.53237 14.8176 3.92289 14.4271C4.31342 14.0366 4.94658 14.0366 5.33711 14.4271L6.74011 15.8301L8.52998 14.0402C7.57006 12.7799 7.00012 11.2065 7.00012 9.5ZM14.5001 4C11.4625 4 9.00012 6.46243 9.00012 9.5C9.00012 12.5376 11.4625 15 14.5001 15C17.5377 15 20.0001 12.5376 20.0001 9.5C20.0001 6.46243 17.5377 4 14.5001 4Z" fill="#09244B"/>
</svg>
