<svg xmlns="http://www.w3.org/2000/svg" width="24" height="24" viewBox="0 0 24 24"><g fill="none"><path d="M24,0 L24,24 L0,24 L0,0 L24,0 Z M12.5935,23.2578 L12.5819,23.2595 L12.5109,23.295 L12.4919,23.2987 L12.4767,23.295 L12.4057,23.2595 C12.3958,23.2564 12.387,23.259 12.3821,23.2649 L12.378,23.2758 L12.3609,23.7031 L12.3659,23.7235 L12.3769,23.7357 L12.4805,23.8097 L12.4953,23.8136 L12.5071,23.8097 L12.6107,23.7357 L12.6233,23.7197 L12.6267,23.7031 L12.6096,23.2758 C12.6076,23.2657 12.601,23.2593 12.5935,23.2578 Z M12.8584,23.1453 L12.8445,23.1473 L12.6598,23.2397 L12.6499,23.2499 L12.6472,23.2611 L12.6651,23.6906 L12.6699,23.7034 L12.6784,23.7105 L12.8793,23.8032 C12.8914,23.8069 12.9022,23.803 12.9078,23.7952 L12.9118,23.7812 L12.8777,23.1665 C12.8753,23.1546 12.8674,23.147 12.8584,23.1453 Z M12.143,23.1473 C12.1332,23.1424 12.1222,23.1453 12.1156,23.1526 L12.1099,23.1665 L12.0758,23.7812 C12.0751,23.7927 12.0828,23.8019 12.0926,23.8046 L12.1083,23.8032 L12.3092,23.7105 L12.3186,23.7024 L12.3225,23.6906 L12.3404,23.2611 L12.3372,23.2485 L12.3278,23.2397 L12.143,23.1473 Z"/><path fill="#09244B" d="M12,12 C13.8729,12 15.5707,12.6196 16.8146,13.487 C17.9981,14.3123 19,15.5381 19,16.8571 C19,17.5815 18.6914,18.1811 18.2045,18.6278 C17.7464,19.0481 17.1483,19.3206 16.5323,19.507 C15.301,19.8797 13.6803,20 12,20 C10.3197,20 8.69903,19.8797 7.46769,19.507 C6.85169,19.3206 6.25355,19.0481 5.79546,18.6278 C5.30861,18.1811 5,17.5815 5,16.8571 C5,15.5381 6.00191,14.3123 7.18535,13.487 C8.42925,12.6196 10.1271,12 12,12 Z M19,13 C20.0445,13 20.9923,13.3445 21.6933,13.8334 C22.3339,14.2801 23,15.0237 23,15.9286 C23,16.4458 22.7753,16.8749 22.4403,17.1823 C22.134,17.4633 21.7555,17.6278 21.411,17.7321 C20.9409,17.8743 20.3859,17.9472 19.8099,17.9792 C19.9322,17.6344 20,17.2591 20,16.8571 C20,15.3217 19.041,14.0184 17.9679,13.113 C18.2966,13.0403 18.6426,13 19,13 Z M5,13 C5.35735,13 5.7034,13.0403 6.03211,13.113 C4.95899,14.0184 4,15.3217 4,16.8571 C4,17.2591 4.06783,17.6344 4.19007,17.9792 C3.61409,17.9472 3.05908,17.8743 2.58901,17.7321 C2.24445,17.6278 1.86599,17.4633 1.55971,17.1823 C1.22467,16.8749 1,16.4458 1,15.9286 C1,15.0237 1.66612,14.2801 2.30667,13.8334 C3.00768,13.3445 3.95551,13 5,13 Z M18.5,7 C19.8807,7 21,8.11929 21,9.5 C21,10.8807 19.8807,12 18.5,12 C17.1193,12 16,10.8807 16,9.5 C16,8.11929 17.1193,7 18.5,7 Z M5.5,7 C6.88071,7 8,8.11929 8,9.5 C8,10.8807 6.88071,12 5.5,12 C4.11929,12 3,10.8807 3,9.5 C3,8.11929 4.11929,7 5.5,7 Z M12,3 C14.2091,3 16,4.79086 16,7 C16,9.20914 14.2091,11 12,11 C9.79086,11 8,9.20914 8,7 C8,4.79086 9.79086,3 12,3 Z"/></g></svg>