<?xml version="1.0" encoding="UTF-8"?>
<svg width="24px" height="24px" viewBox="0 0 24 24" version="1.1" xmlns="http://www.w3.org/2000/svg" xmlns:xlink="http://www.w3.org/1999/xlink">
    <title>IDcard_line</title>
    <g id="页面-1" stroke="none" stroke-width="1" fill="none" fill-rule="evenodd">
        <g id="User" transform="translate(-624.000000, 0.000000)">
            <g id="IDcard_line" transform="translate(624.000000, 0.000000)">
                <rect id="矩形" fill-rule="nonzero" x="0" y="0" width="24" height="24"></rect>
                <path d="M4,4 C2.89543,4 2,4.89543 2,6 L2,18 C2,19.1046 2.89543,20 4,20 L20,20 C21.1046,20 22,19.1046 22,18 L22,6 C22,4.89543 21.1046,4 20,4 L4,4 Z M4,6 L20,6 L20,18 L4,18 L4,6 Z M10.25,9.75 C10.25,10.7165 9.4665,11.5 8.5,11.5 C7.5335,11.5 6.75,10.7165 6.75,9.75 C6.75,8.7835 7.5335,8 8.5,8 C9.4665,8 10.25,8.7835 10.25,9.75 Z M5,14.5 C5,13.1193 6.11929,12 7.5,12 L9.5,12 C10.8807,12 12,13.1193 12,14.5 L12,15 C12,15.5523 11.5523,16 11,16 C10.4477,16 10,15.5523 10,15 L10,14.5 C10,14.2239 9.77614,14 9.5,14 L7.5,14 C7.22386,14 7,14.2239 7,14.5 L7,15 C7,15.5523 6.55228,16 6,16 C5.44772,16 5,15.5523 5,15 L5,14.5 Z M13,11 C13,10.4477 13.4477,10 14,10 L16,10 C16.5523,10 17,10.4477 17,11 C17,11.5523 16.5523,12 16,12 L14,12 C13.4477,12 13,11.5523 13,11 Z M14,13 C13.4477,13 13,13.4477 13,14 C13,14.5523 13.4477,15 14,15 L18,15 C18.5523,15 19,14.5523 19,14 C19,13.4477 18.5523,13 18,13 L14,13 Z" id="形状" fill="#09244B"></path>
            </g>
        </g>
    </g>
</svg>