<?xml version="1.0" encoding="UTF-8"?>
<svg width="24px" height="24px" viewBox="0 0 24 24" version="1.1" xmlns="http://www.w3.org/2000/svg" xmlns:xlink="http://www.w3.org/1999/xlink">
    <title>IDcard_fill</title>
    <g id="页面-1" stroke="none" stroke-width="1" fill="none" fill-rule="evenodd">
        <g id="User" transform="translate(-624.000000, -48.000000)">
            <g id="IDcard_fill" transform="translate(624.000000, 48.000000)">
                <rect id="矩形" fill-rule="nonzero" x="0" y="0" width="24" height="24"></rect>
                <path d="M20,4 C21.1046,4 22,4.89543 22,6 L22,18 C22,19.1046 21.1046,20 20,20 L4,20 C2.89543,20 2,19.1046 2,18 L2,6 C2,4.89543 2.89543,4 4,4 L20,4 Z M9.5,12 L7.5,12 C6.1745184,12 5.08996147,13.0315469 5.00531769,14.3356256 L5,14.5 L5,15 C5,15.5523 5.44772,16 6,16 C6.51283143,16 6.93550653,15.613973 6.9932722,15.1166239 L7,15 L7,14.5 C7,14.2545778 7.17687704,14.0504 7.41012499,14.0080571 L7.5,14 L9.5,14 C9.74545778,14 9.9496079,14.1769086 9.99194425,14.4101355 L10,14.5 L10,15 C10,15.5523 10.4477,16 11,16 C11.51285,16 11.9355092,15.613973 11.9932725,15.1166239 L12,15 L12,14.5 C12,13.174528 10.9684531,12.0899622 9.66437437,12.0053177 L9.5,12 Z M18,13 L14,13 L13.8833761,13.0067275 C13.386027,13.0644908 13,13.48715 13,14 C13,14.51285 13.386027,14.9355092 13.8833761,14.9932725 L14,15 L18,15 L18.1166239,14.9932725 C18.613973,14.9355092 19,14.51285 19,14 C19,13.48715 18.613973,13.0644908 18.1166239,13.0067275 L18,13 Z M16,10 L14,10 C13.4477,10 13,10.4477 13,11 C13,11.51285 13.386027,11.9355092 13.8833761,11.9932725 L14,12 L16,12 C16.5523,12 17,11.5523 17,11 C17,10.48715 16.613973,10.0644908 16.1166239,10.0067275 L16,10 Z M8.5,8 C7.5335,8 6.75,8.7835 6.75,9.75 C6.75,10.7165 7.5335,11.5 8.5,11.5 C9.4665,11.5 10.25,10.7165 10.25,9.75 C10.25,8.7835 9.4665,8 8.5,8 Z" id="形状" fill="#09244B"></path>
            </g>
        </g>
    </g>
</svg>