<svg width="24" height="24" viewBox="0 0 24 24" fill="none" xmlns="http://www.w3.org/2000/svg">
<rect width="24" height="24" fill="white" fill-opacity="0.01"/>
<path fill-rule="evenodd" clip-rule="evenodd" d="M21 9C21 9.55228 20.5523 10 20 10C19.4477 10 19 9.55228 19 9V6.41412L15.4633 9.95082C16.4273 11.2126 17 12.7894 17 14.5C17 18.6421 13.6421 22 9.5 22C5.35786 22 2 18.6421 2 14.5C2 10.3579 5.35786 7 9.5 7C11.2105 7 12.7873 7.57262 14.0491 8.53662L17.5857 5H15C14.4477 5 14 4.55228 14 4C14 3.44772 14.4477 3 15 3H19.75C20.4404 3 21 3.55964 21 4.25V9ZM9.5 9C6.46243 9 4 11.4624 4 14.5C4 17.5376 6.46243 20 9.5 20C12.5376 20 15 17.5376 15 14.5C15 11.4624 12.5376 9 9.5 9Z" fill="#09244B"/>
</svg>
