<?xml version="1.0" encoding="UTF-8"?>
<svg width="24px" height="24px" viewBox="0 0 24 24" version="1.1" xmlns="http://www.w3.org/2000/svg" xmlns:xlink="http://www.w3.org/1999/xlink">
    <title>male_fill</title>
    <g id="页面-1" stroke="none" stroke-width="1" fill="none" fill-rule="evenodd">
        <g id="User" transform="translate(-48.000000, -48.000000)" fill-rule="nonzero">
            <g id="male_fill" transform="translate(48.000000, 48.000000)">
                <rect id="矩形" x="0" y="0" width="24" height="24"></rect>
                <path d="M21,9 C21,9.55228 20.5523,10 20,10 C19.4477,10 19,9.55228 19,9 L19,6.41424 L15.4633,9.95089 C16.4274,11.2127 17,12.7895 17,14.5 C17,18.6421 13.6421,22 9.5,22 C5.35786,22 2,18.6421 2,14.5 C2,10.3579 5.35786,7 9.5,7 C11.2105,7 12.7873,7.57264 14.0491,8.53668 L17.5858,5 L15,5 C14.4477,5 14,4.55228 14,4 C14,3.44772 14.4477,3 15,3 L19.75,3 C20.4404,3 21,3.55964 21,4.25 L21,9 Z" id="路径" fill="#09244B"></path>
            </g>
        </g>
    </g>
</svg>