<svg xmlns="http://www.w3.org/2000/svg" width="24" height="24"><g fill="none"><path d="M24 0v24H0V0zM12.594 23.258l-.012.002-.071.035-.02.004-.014-.004-.071-.036c-.01-.003-.019 0-.024.006l-.004.01-.017.428.005.02.01.013.104.074.015.004.012-.004.104-.074.012-.016.004-.017-.017-.427c-.002-.01-.009-.017-.016-.018m.264-.113-.014.002-.184.093-.01.01-.003.011.018.43.005.012.008.008.201.092c.012.004.023 0 .029-.008l.004-.014-.034-.614c-.003-.012-.01-.02-.02-.022m-.715.002a.023.023 0 0 0-.027.006l-.006.014-.034.614c0 .012.007.02.017.024l.015-.002.201-.093.01-.008.003-.011.018-.43-.003-.012-.01-.01z"/><path fill="#09244B" d="M11 2a5 5 0 1 0 0 10 5 5 0 0 0 0-10m0 11c.59 0 1.167.042 1.724.12a1 1 0 0 1 .539 1.726 6.979 6.979 0 0 0-2.21 6.022 1 1 0 0 1-1.012 1.123c-2.01-.04-3.89-.216-5.294-.646-.702-.215-1.364-.517-1.866-.962C2.35 19.913 2 19.28 2 18.5c0-.787.358-1.523.844-2.139.494-.625 1.177-1.2 1.978-1.69C6.425 13.695 8.605 13 11 13m10.212 1.034a2.5 2.5 0 0 1 0 3.535l-3.418 3.418a1.5 1.5 0 0 1-.848.424l-2.309.33a1.001 1.001 0 0 1-1.132-1.133l.33-2.308a1.5 1.5 0 0 1 .424-.849l3.418-3.418a2.5 2.5 0 0 1 3.535 0Z"/></g></svg>