<?xml version="1.0" encoding="UTF-8"?>
<svg width="24px" height="24px" viewBox="0 0 24 24" version="1.1" xmlns="http://www.w3.org/2000/svg" xmlns:xlink="http://www.w3.org/1999/xlink">
    <title>user_1_line</title>
    <g id="页面-1" stroke="none" stroke-width="1" fill="none" fill-rule="evenodd">
        <g id="User" transform="translate(-96.000000, 0.000000)">
            <g id="user_1_line" transform="translate(96.000000, 0.000000)">
                <rect id="矩形" fill-rule="nonzero" x="0" y="0" width="24" height="24"></rect>
                <path d="M16,14 C18.6887316,14 20.8818169,16.1223292 20.9953804,18.7831122 L21,19 L21,21 C21,21.5523 20.5523,22 20,22 C19.48715,22 19.0644908,21.613973 19.0067275,21.1166239 L19,21 L19,19 C19,17.402275 17.7511226,16.096336 16.1762773,16.0050925 L16,16 L8,16 C6.40232321,16 5.09633941,17.2488774 5.00509271,18.8237227 L5,19 L5,21 C5,21.5523 4.55228,22 4,22 C3.48716857,22 3.06449347,21.613973 3.0067278,21.1166239 L3,21 L3,19 C3,16.3112684 5.12231026,14.1181831 7.78311066,14.0046196 L8,14 L16,14 Z M12,2 C14.7614,2 17,4.23858 17,7 C17,9.76142 14.7614,12 12,12 C9.23858,12 7,9.76142 7,7 C7,4.23858 9.23858,2 12,2 Z M12,4 C10.3431,4 9,5.34315 9,7 C9,8.65685 10.3431,10 12,10 C13.6569,10 15,8.65685 15,7 C15,5.34315 13.6569,4 12,4 Z" id="形状" fill="#09244B"></path>
            </g>
        </g>
    </g>
</svg>