<svg width="24" height="24" viewBox="0 0 24 24" fill="none" xmlns="http://www.w3.org/2000/svg">
<rect width="24" height="24" fill="white" fill-opacity="0.01"/>
<path fill-rule="evenodd" clip-rule="evenodd" d="M12 2C9.23858 2 7 4.23858 7 7C7 9.76142 9.23858 12 12 12C14.7614 12 17 9.76142 17 7C17 4.23858 14.7614 2 12 2ZM9 7C9 5.34315 10.3431 4 12 4C13.6569 4 15 5.34315 15 7C15 8.65685 13.6569 10 12 10C10.3431 10 9 8.65685 9 7Z" fill="#09244B"/>
<path fill-rule="evenodd" clip-rule="evenodd" d="M12 13C9.60453 13 7.42467 13.6937 5.82227 14.6715C5.02143 15.1602 4.33788 15.7363 3.84397 16.3615C3.35805 16.9767 3 17.713 3 18.5C3 19.3449 3.41114 20.0111 4.00266 20.4859C4.56324 20.9359 5.30182 21.2336 6.08716 21.4416C7.66466 21.8593 9.77101 22 12 22C14.229 22 16.3353 21.8593 17.9128 21.4416C18.6982 21.2336 19.4368 20.9359 19.9973 20.4859C20.5889 20.0111 21 19.3449 21 18.5C21 17.713 20.642 16.9767 20.156 16.3615C19.6621 15.7363 18.9786 15.1602 18.1777 14.6715C16.5753 13.6937 14.3955 13 12 13ZM5 18.5C5 18.3206 5.08967 18.0111 5.41339 17.6013C5.72913 17.2015 6.21714 16.7735 6.86402 16.3788C8.15705 15.5898 9.97719 15 12 15C14.0228 15 15.8429 15.5898 17.136 16.3788C17.7829 16.7735 18.2709 17.2015 18.5866 17.6013C18.9103 18.0111 19 18.3206 19 18.5C19 18.6216 18.9634 18.7512 18.7453 18.9263C18.4962 19.1262 18.0632 19.3328 17.4009 19.5082C16.0829 19.8572 14.1893 20 12 20C9.81071 20 7.91706 19.8572 6.59914 19.5082C5.93676 19.3328 5.50376 19.1262 5.2547 18.9263C5.03657 18.7512 5 18.6216 5 18.5Z" fill="#09244B"/>
</svg>
