<svg xmlns="http://www.w3.org/2000/svg" width="24" height="24"><g fill="none"><path d="M24 0v24H0V0zM12.594 23.258l-.012.002-.071.035-.02.004-.014-.004-.071-.036c-.01-.003-.019 0-.024.006l-.004.01-.017.428.005.02.01.013.104.074.015.004.012-.004.104-.074.012-.016.004-.017-.017-.427c-.002-.01-.009-.017-.016-.018m.264-.113-.014.002-.184.093-.01.01-.003.011.018.43.005.012.008.008.201.092c.012.004.023 0 .029-.008l.004-.014-.034-.614c-.003-.012-.01-.02-.02-.022m-.715.002a.023.023 0 0 0-.027.006l-.006.014-.034.614c0 .012.007.02.017.024l.015-.002.201-.093.01-.008.003-.011.018-.43-.003-.012-.01-.01z"/><path fill="#09244B" d="M11 13c.447 0 .887.024 1.316.07a1 1 0 0 1 .72 1.557A5.968 5.968 0 0 0 12 18c0 .92.207 1.79.575 2.567a1 1 0 0 1-.763 1.419l-.127.01L11 22c-2.229 0-4.335-.14-5.913-.558-.785-.208-1.524-.506-2.084-.956C2.41 20.01 2 19.345 2 18.5c0-.787.358-1.523.844-2.139.494-.625 1.177-1.2 1.978-1.69C6.425 13.695 8.605 13 11 13m7 0a4 4 0 0 1 4 4c0 1.387-.755 2.48-1.469 3.21-.446.456-.92.817-1.301 1.073l-.383.244-.192.113a1.33 1.33 0 0 1-1.31 0l-.192-.113-.245-.152c-.4-.26-.938-.652-1.44-1.165C14.756 19.48 14 18.387 14 17a4 4 0 0 1 4-4m0 3a1 1 0 1 0 0 2 1 1 0 0 0 0-2M11 2a5 5 0 1 1 0 10 5 5 0 0 1 0-10"/></g></svg>