<svg width="24" height="24" viewBox="0 0 24 24" fill="none" xmlns="http://www.w3.org/2000/svg">
<rect width="24" height="24" fill="white" fill-opacity="0.01"/>
<path fill-rule="evenodd" clip-rule="evenodd" d="M7 7C7 4.23858 9.23858 2 12 2C14.7614 2 17 4.23858 17 7C17 9.76142 14.7614 12 12 12C9.23858 12 7 9.76142 7 7ZM12 4C10.3431 4 9 5.34315 9 7C9 8.65685 10.3431 10 12 10C13.6569 10 15 8.65685 15 7C15 5.34315 13.6569 4 12 4Z" fill="#09244B"/>
<path d="M3 19C3 16.2386 5.23858 14 8 14H16C18.7614 14 21 16.2386 21 19V21C21 21.5523 20.5523 22 20 22C19.4477 22 19 21.5523 19 21V19C19 17.3431 17.6569 16 16 16H8C6.34315 16 5 17.3431 5 19V21C5 21.5523 4.55228 22 4 22C3.44772 22 3 21.5523 3 21V19Z" fill="#09244B"/>
<path d="M17.1715 11.9097L18.5857 13.3239C18.9762 13.7144 19.6094 13.7144 19.9999 13.3239L22.8284 10.4955C23.2189 10.105 23.2189 9.47181 22.8284 9.08128C22.4378 8.69076 21.8047 8.69076 21.4141 9.08128L19.2928 11.2026L18.5857 10.4955C18.1952 10.105 17.562 10.105 17.1715 10.4955C16.781 10.886 16.781 11.5192 17.1715 11.9097Z" fill="#09244B"/>
</svg>
