<svg width="24" height="24" viewBox="0 0 24 24" fill="none" xmlns="http://www.w3.org/2000/svg">
<rect width="24" height="24" fill="white" fill-opacity="0.01"/>
<path fill-rule="evenodd" clip-rule="evenodd" d="M2.5 19C2.5 15.9624 4.96243 13.5 8 13.5H16C19.0376 13.5 21.5 15.9624 21.5 19V20.5C21.5 21.3284 20.8284 22 20 22C19.1716 22 18.5 21.3284 18.5 20.5V19C18.5 17.6193 17.3807 16.5 16 16.5H8C6.61929 16.5 5.5 17.6193 5.5 19V20.5C5.5 21.3284 4.82843 22 4 22C3.17157 22 2.5 21.3284 2.5 20.5V19Z" fill="#09244B"/>
<path fill-rule="evenodd" clip-rule="evenodd" d="M12 4.5C10.6193 4.5 9.5 5.61929 9.5 7C9.5 8.38071 10.6193 9.5 12 9.5C13.3807 9.5 14.5 8.38071 14.5 7C14.5 5.61929 13.3807 4.5 12 4.5ZM6.5 7C6.5 3.96243 8.96243 1.5 12 1.5C15.0376 1.5 17.5 3.96243 17.5 7C17.5 10.0376 15.0376 12.5 12 12.5C8.96243 12.5 6.5 10.0376 6.5 7Z" fill="#09244B"/>
</svg>
