<svg xmlns="http://www.w3.org/2000/svg" width="24" height="24"><g fill="none"><path d="M24 0v24H0V0zM12.594 23.258l-.012.002-.071.035-.02.004-.014-.004-.071-.036c-.01-.003-.019 0-.024.006l-.004.01-.017.428.005.02.01.013.104.074.015.004.012-.004.104-.074.012-.016.004-.017-.017-.427c-.002-.01-.009-.017-.016-.018m.264-.113-.014.002-.184.093-.01.01-.003.011.018.43.005.012.008.008.201.092c.012.004.023 0 .029-.008l.004-.014-.034-.614c-.003-.012-.01-.02-.02-.022m-.715.002a.023.023 0 0 0-.027.006l-.006.014-.034.614c0 .012.007.02.017.024l.015-.002.201-.093.01-.008.003-.011.018-.43-.003-.012-.01-.01z"/><path fill="#09244B" d="M6 7a5 5 0 1 1 10 0A5 5 0 0 1 6 7m-1.178 7.672C6.425 13.694 8.605 13 11 13c.447 0 .887.024 1.316.07a1 1 0 0 1 .72 1.557A5.968 5.968 0 0 0 12 18c0 .92.207 1.79.575 2.567a1 1 0 0 1-.89 1.428L11 22c-2.229 0-4.335-.14-5.913-.558-.785-.208-1.524-.506-2.084-.956C2.41 20.01 2 19.345 2 18.5c0-.787.358-1.523.844-2.139.494-.625 1.177-1.2 1.978-1.69ZM17 21a1 1 0 0 1 .883-.993l.119-.007a1 1 0 0 1 .117 1.993L18 22a1 1 0 0 1-1-1m.567-4.75a.5.5 0 0 1 .933.25c0 .135-.048.255-.321.48l-.145.114-.11.082c-.074.055-.162.12-.243.186l-.139.116a1.7 1.7 0 0 0-.488.697 1 1 0 0 0 1.835.782l.097-.077.357-.27.107-.086.181-.158c.406-.374.869-.968.869-1.866a2.5 2.5 0 0 0-4.662-1.257 1 1 0 0 0 1.729 1.007"/></g></svg>