<?xml version="1.0" encoding="UTF-8"?>
<svg width="24px" height="24px" viewBox="0 0 24 24" version="1.1" xmlns="http://www.w3.org/2000/svg" xmlns:xlink="http://www.w3.org/1999/xlink">
    <title>user_remove_fill</title>
    <g id="页面-1" stroke="none" stroke-width="1" fill="none" fill-rule="evenodd">
        <g id="User" transform="translate(-432.000000, -48.000000)" fill-rule="nonzero">
            <g id="user_remove_fill" transform="translate(432.000000, 48.000000)">
                <rect id="矩形" x="0" y="0" width="24" height="24"></rect>
                <path d="M16,14 C18.7614,14 21,16.2386 21,19 L21,20 C21,21.1046 20.1046,22 19,22 L5,22 C3.89543,22 3,21.1046 3,20 L3,19 C3,16.2386 5.23858,14 8,14 L16,14 Z M12,2 C14.7614,2 17,4.23858 17,7 C17,9.76142 14.7614,12 12,12 C9.23858,12 7,9.76142 7,7 C7,4.23858 9.23858,2 12,2 Z M22,10 C22.5523,10 23,10.4477 23,11 C23,11.51285 22.613973,11.9355092 22.1166239,11.9932725 L22,12 L18,12 C17.4477,12 17,11.5523 17,11 C17,10.48715 17.386027,10.0644908 17.8833761,10.0067275 L18,10 L22,10 Z" id="形状" fill="#09244B"></path>
            </g>
        </g>
    </g>
</svg>