<?xml version="1.0" encoding="UTF-8"?>
<svg width="24px" height="24px" viewBox="0 0 24 24" version="1.1" xmlns="http://www.w3.org/2000/svg" xmlns:xlink="http://www.w3.org/1999/xlink">
    <title>user_1_fill</title>
    <g id="页面-1" stroke="none" stroke-width="1" fill="none" fill-rule="evenodd">
        <g id="User" transform="translate(-96.000000, -48.000000)">
            <g id="user_1_fill" transform="translate(96.000000, 48.000000)">
                <rect id="矩形" fill-rule="nonzero" x="0" y="0" width="24" height="24"></rect>
                <path d="M16,13.5 C19.0376,13.5 21.5,15.9624 21.5,19 L21.5,20.5 C21.5,21.3284 20.8284,22 20,22 C19.1716,22 18.5,21.3284 18.5,20.5 L18.5,19 C18.5,17.6193 17.3807,16.5 16,16.5 L8,16.5 C6.61929,16.5 5.5,17.6193 5.5,19 L5.5,20.5 C5.5,21.3284 4.82843,22 4,22 C3.17157,22 2.5,21.3284 2.5,20.5 L2.5,19 C2.5,15.9624 4.96243,13.5 8,13.5 L16,13.5 Z M12,1.5 C15.0376,1.5 17.5,3.96243 17.5,7 C17.5,10.0376 15.0376,12.5 12,12.5 C8.96243,12.5 6.5,10.0376 6.5,7 C6.5,3.96243 8.96243,1.5 12,1.5 Z M12,4.5 C10.6193,4.5 9.5,5.61929 9.5,7 C9.5,8.38071 10.6193,9.5 12,9.5 C13.3807,9.5 14.5,8.38071 14.5,7 C14.5,5.61929 13.3807,4.5 12,4.5 Z" id="形状" fill="#09244B"></path>
            </g>
        </g>
    </g>
</svg>