<?xml version="1.0" encoding="UTF-8"?>
<svg width="24px" height="24px" viewBox="0 0 24 24" version="1.1" xmlns="http://www.w3.org/2000/svg" xmlns:xlink="http://www.w3.org/1999/xlink">
    <title>user_4_line</title>
    <g id="页面-1" stroke="none" stroke-width="1" fill="none" fill-rule="evenodd">
        <g id="User" transform="translate(-240.000000, 0.000000)" fill-rule="nonzero">
            <g id="user_4_line" transform="translate(240.000000, 0.000000)">
                <rect id="矩形" x="0" y="0" width="24" height="24"></rect>
                <path d="M12,2 C17.5228,2 22,6.47715 22,12 C22,17.5228 17.5228,22 12,22 C6.47715,22 2,17.5228 2,12 C2,6.47715 6.47715,2 12,2 Z M12,16 C9.8009,16 7.85121,16.828 6.56532,17.8707 C7.9922,19.1922 9.90177,20 12,20 C14.0982,20 16.0078,19.1922 17.4347,17.8707 C16.1488,16.828 14.1991,16 12,16 Z M12,4 C7.58172,4 4,7.58172 4,12 C4,13.5996 4.46949,15.0896 5.27819,16.3396 C6.92692,14.9918 9.33471,14 12,14 C14.6653,14 17.0731,14.9918 18.7218,16.3396 C19.5305,15.0896 20,13.5996 20,12 C20,7.58172 16.4183,4 12,4 Z M12,5 C14.2091,5 16,6.79086 16,9 C16,11.2091 14.2091,13 12,13 C9.79086,13 8,11.2091 8,9 C8,6.79086 9.79086,5 12,5 Z M12,7 C10.8954,7 10,7.89543 10,9 C10,10.1046 10.8954,11 12,11 C13.1046,11 14,10.1046 14,9 C14,7.89543 13.1046,7 12,7 Z" id="形状" fill="#09244B"></path>
            </g>
        </g>
    </g>
</svg>