<?xml version="1.0" encoding="UTF-8"?>
<svg width="24px" height="24px" viewBox="0 0 24 24" version="1.1" xmlns="http://www.w3.org/2000/svg" xmlns:xlink="http://www.w3.org/1999/xlink">
    <title>user_4_fill</title>
    <g id="页面-1" stroke="none" stroke-width="1" fill="none" fill-rule="evenodd">
        <g id="User" transform="translate(-240.000000, -48.000000)">
            <g id="user_4_fill" transform="translate(240.000000, 48.000000)">
                <rect id="矩形" fill-rule="nonzero" x="0" y="0" width="24" height="24"></rect>
                <path d="M12,2 C6.47715,2 2,6.47715 2,12 C2,17.5228 6.47715,22 12,22 C17.5228,22 22,17.5228 22,12 C22,6.47715 17.5228,2 12,2 Z M8.5,8.5 C8.5,6.567 10.067,5 12,5 C13.933,5 15.5,6.567 15.5,8.5 C15.5,10.433 13.933,12 12,12 C10.067,12 8.5,10.433 8.5,8.5 Z M5.2782,16.3396 C6.92693,14.9918 9.33472,14 12,14 C14.6653,14 17.0731,14.9918 18.7218,16.3396 C17.2969,18.5423 14.8187,20 12,20 C9.18136,20 6.70318,18.5423 5.2782,16.3396 Z" id="形状" fill="#09244B"></path>
            </g>
        </g>
    </g>
</svg>