<svg xmlns="http://www.w3.org/2000/svg" width="24" height="24"><g fill="none"><path d="M24 0v24H0V0zM12.593 23.258l-.011.002-.071.035-.02.004-.014-.004-.071-.035c-.01-.004-.019-.001-.024.005l-.004.01-.017.428.005.02.01.013.104.074.015.004.012-.004.104-.074.012-.016.004-.017-.017-.427c-.002-.01-.009-.017-.017-.018m.265-.113-.013.002-.185.093-.01.01-.003.011.018.43.005.012.008.007.201.093c.012.004.023 0 .029-.008l.004-.014-.034-.614c-.003-.012-.01-.02-.02-.022m-.715.002a.023.023 0 0 0-.027.006l-.006.014-.034.614c0 .012.007.02.017.024l.015-.002.201-.093.01-.008.004-.011.017-.43-.003-.012-.01-.01z"/><path fill="#09244B" d="M9.586 15a2 2 0 0 1 1.284.467l.13.119 1 1 1-1a2 2 0 0 1 1.238-.578l.176-.008h4.024a3 3 0 0 1 2.862 2.1l.049.172.466 1.864a1.5 1.5 0 0 1-1.324 1.858L20.36 21H3.64a1.5 1.5 0 0 1-1.481-1.735l.026-.129.466-1.864a3 3 0 0 1 2.732-2.267L5.562 15zM12 2c.784 0 1.661.19 2.38.391 1.596.445 2.542 1.896 2.615 3.415l.005.19v4.007c0 1.588-.957 3.143-2.62 3.606-.719.2-1.596.391-2.38.391-.784 0-1.661-.19-2.38-.391-1.596-.445-2.542-1.896-2.615-3.415L7 10.004V5.996c0-1.587.957-3.143 2.62-3.606C10.339 2.191 11.216 2 12 2"/></g></svg>