<svg width="24" height="24" viewBox="0 0 24 24" fill="none" xmlns="http://www.w3.org/2000/svg">
<rect width="24" height="24" fill="white" fill-opacity="0.01"/>
<path d="M7 7C7 4.23858 9.23858 2 12 2C14.7614 2 17 4.23858 17 7C17 9.76142 14.7614 12 12 12C9.23858 12 7 9.76142 7 7Z" fill="#09244B"/>
<path d="M3 19C3 16.2386 5.23858 14 8 14H16C18.7614 14 21 16.2386 21 19V20C21 21.1046 20.1046 22 19 22H5C3.89543 22 3 21.1046 3 20V19Z" fill="#09244B"/>
<path d="M18 10C17.4477 10 17 10.4477 17 11C17 11.5523 17.4477 12 18 12H22C22.5523 12 23 11.5523 23 11C23 10.4477 22.5523 10 22 10H18Z" fill="#09244B"/>
</svg>
