<svg xmlns="http://www.w3.org/2000/svg" width="24" height="24"><g fill="none"><path d="M24 0v24H0V0zM12.594 23.258l-.012.002-.071.035-.02.004-.014-.004-.071-.036c-.01-.003-.019 0-.024.006l-.004.01-.017.428.005.02.01.013.104.074.015.004.012-.004.104-.074.012-.016.004-.017-.017-.427c-.002-.01-.009-.017-.016-.018m.264-.113-.014.002-.184.093-.01.01-.003.011.018.43.005.012.008.008.201.092c.012.004.023 0 .029-.008l.004-.014-.034-.614c-.003-.012-.01-.02-.02-.022m-.715.002a.023.023 0 0 0-.027.006l-.006.014-.034.614c0 .012.007.02.017.024l.015-.002.201-.093.01-.008.003-.011.018-.43-.003-.012-.01-.01z"/><path fill="#09244B" d="M11 2a5 5 0 1 0 0 10 5 5 0 0 0 0-10m.123 12.55a1 1 0 0 0-.913-1.525c-2.21.14-4.195.858-5.651 1.813-.728.478-1.348 1.031-1.796 1.63C2.32 17.057 2 17.755 2 18.5c0 1.535 1.278 2.346 2.495 2.763 1.28.439 2.99.638 4.832.707a1 1 0 0 0 .995-1.29A7.498 7.498 0 0 1 10 18.5a7.46 7.46 0 0 1 1.123-3.95m2.387.728c.858-.757 2.084-1.39 3.49-1.39 1.406 0 2.632.633 3.49 1.39a5.3 5.3 0 0 1 1.057 1.26c.252.427.453.94.453 1.462 0 .523-.2 1.035-.453 1.462a5.3 5.3 0 0 1-1.057 1.26c-.858.757-2.084 1.39-3.49 1.39-1.406 0-2.632-.633-3.49-1.39a5.3 5.3 0 0 1-1.057-1.26C12.2 19.035 12 18.522 12 18c0-.523.2-1.035.453-1.462a5.3 5.3 0 0 1 1.057-1.26m4.486 2.635a.667.667 0 0 1-.91-.91L17.001 17a1 1 0 1 0 1 1l-.004-.087Z"/></g></svg>