<?xml version="1.0" encoding="UTF-8"?>
<svg width="24px" height="24px" viewBox="0 0 24 24" version="1.1" xmlns="http://www.w3.org/2000/svg" xmlns:xlink="http://www.w3.org/1999/xlink">
    <title>user_remove_line</title>
    <g id="页面-1" stroke="none" stroke-width="1" fill="none" fill-rule="evenodd">
        <g id="User" transform="translate(-432.000000, 0.000000)">
            <g id="user_remove_line" transform="translate(432.000000, 0.000000)">
                <rect id="矩形" fill-rule="nonzero" x="0" y="0" width="24" height="24"></rect>
                <path d="M16,14 C18.7614,14 21,16.2386 21,19 L21,21 C21,21.5523 20.5523,22 20,22 C19.4477,22 19,21.5523 19,21 L19,19 C19,17.3431 17.6569,16 16,16 L8,16 C6.34315,16 5,17.3431 5,19 L5,21 C5,21.5523 4.55228,22 4,22 C3.44772,22 3,21.5523 3,21 L3,19 C3,16.2386 5.23858,14 8,14 L16,14 Z M12,2 C14.7614,2 17,4.23858 17,7 C17,9.76142 14.7614,12 12,12 C9.23858,12 7,9.76142 7,7 C7,4.23858 9.23858,2 12,2 Z M22,10 C22.5523,10 23,10.4477 23,11 C23,11.51285 22.613973,11.9355092 22.1166239,11.9932725 L22,12 L18,12 C17.4477,12 17,11.5523 17,11 C17,10.48715 17.386027,10.0644908 17.8833761,10.0067275 L18,10 L22,10 Z M12,4 C10.3431,4 9,5.34315 9,7 C9,8.65685 10.3431,10 12,10 C13.6569,10 15,8.65685 15,7 C15,5.34315 13.6569,4 12,4 Z" id="形状" fill="#09244B"></path>
            </g>
        </g>
    </g>
</svg>