<?xml version="1.0" encoding="UTF-8"?>
<svg width="24px" height="24px" viewBox="0 0 24 24" version="1.1" xmlns="http://www.w3.org/2000/svg" xmlns:xlink="http://www.w3.org/1999/xlink">
    <title>user_2_line</title>
    <g id="页面-1" stroke="none" stroke-width="1" fill="none" fill-rule="evenodd">
        <g id="User" transform="translate(-144.000000, 0.000000)">
            <g id="user_2_line" transform="translate(144.000000, 0.000000)">
                <rect id="矩形" fill-rule="nonzero" x="0" y="0" width="24" height="24"></rect>
                <path d="M16,14 C18.6887316,14 20.8818169,16.1223292 20.9953804,18.7831122 L21,19 L21,20 C21,21.0543909 20.18415,21.9181678 19.1492661,21.9945144 L19,22 L5,22 C3.94563773,22 3.08183483,21.18415 3.00548573,20.1492661 L3,20 L3,19 C3,16.3112684 5.12231026,14.1181831 7.78311066,14.0046196 L8,14 L16,14 Z M16,16 L8,16 C6.40232321,16 5.09633941,17.2488774 5.00509271,18.8237227 L5,19 L5,20 L19,20 L19,19 C19,17.402275 17.7511226,16.096336 16.1762773,16.0050925 L16,16 Z M12,2 C14.7614,2 17,4.23858 17,7 C17,9.76142 14.7614,12 12,12 C9.23858,12 7,9.76142 7,7 C7,4.23858 9.23858,2 12,2 Z M12,4 C10.3431,4 9,5.34315 9,7 C9,8.65685 10.3431,10 12,10 C13.6569,10 15,8.65685 15,7 C15,5.34315 13.6569,4 12,4 Z" id="形状" fill="#09244B"></path>
            </g>
        </g>
    </g>
</svg>