<?xml version="1.0" encoding="UTF-8"?>
<svg width="24px" height="24px" viewBox="0 0 24 24" version="1.1" xmlns="http://www.w3.org/2000/svg" xmlns:xlink="http://www.w3.org/1999/xlink">
    <title>user_5_line</title>
    <g id="页面-1" stroke="none" stroke-width="1" fill="none" fill-rule="evenodd">
        <g id="User" transform="translate(-288.000000, 0.000000)">
            <g id="user_5_line" transform="translate(288.000000, 0.000000)">
                <rect id="矩形" fill-rule="nonzero" x="0" y="0" width="24" height="24"></rect>
                <path d="M9.58578,15 C10.1162,15 10.6249,15.2107 11,15.5858 L11,15.5858 L12,16.5858 L13,15.5858 C13.3751,15.2107 13.8838,15 14.4142,15 L14.4142,15 L18.4384,15 C19.815,15 21.015,15.9369 21.3489,17.2724 L21.3489,17.2724 L21.9701,19.7575 C22.1041,20.2933 21.7783,20.8362 21.2425,20.9701 C20.7067,21.1041 20.1638,20.7783 20.0299,20.2425 L20.0299,20.2425 L19.4086,17.7575 C19.2973,17.3123 18.8973,17 18.4384,17 L18.4384,17 L14.4142,17 L13.4142,18 C12.6332,18.781 11.3668,18.781 10.5858,18 L10.5858,18 L9.58578,17 L5.56155,17 C5.10268,17 4.70269,17.3123 4.5914,17.7575 L4.5914,17.7575 L3.97013,20.2425 C3.83619,20.7783 3.29325,21.1041 2.75746,20.9701 C2.22166,20.8362 1.8959,20.2933 2.02985,19.7575 L2.02985,19.7575 L2.65112,17.2724 C2.98499,15.9369 4.18494,15 5.56155,15 L5.56155,15 Z M12,2 C12.7843,2 13.6611,2.19065 14.3802,2.39097 C16.0426,2.85411 17,4.40951 17,5.99673 L17,5.99673 L17,10.0033 C17,11.5905 16.0426,13.1459 14.3802,13.609 C13.6611,13.8093 12.7843,14 12,14 C11.2158,14 10.3389,13.8093 9.61982,13.609 C7.95736,13.1459 7,11.5905 7,10.0033 L7,10.0033 L7,5.99673 C7,4.40951 7.95736,2.85411 9.61982,2.39097 C10.3389,2.19065 11.2157,2 12,2 Z M12,4 C11.491,4 10.8232,4.13189 10.1566,4.3176 C9.48885,4.50362 9,5.16504 9,5.99673 L9,5.99673 L9,10.0033 C9,10.835 9.48885,11.4964 10.1566,11.6824 C10.8232,11.8681 11.491,12 12,12 C12.509,12 13.1768,11.8681 13.8434,11.6824 C14.5112,11.4964 15,10.835 15,10.0033 L15,10.0033 L15,5.99673 C15,5.16504 14.5112,4.50362 13.8434,4.3176 C13.1768,4.13189 12.509,4 12,4 Z" id="形状结合" fill="#09244B"></path>
            </g>
        </g>
    </g>
</svg>