<?xml version="1.0" encoding="UTF-8"?>
<svg width="24px" height="24px" viewBox="0 0 24 24" version="1.1" xmlns="http://www.w3.org/2000/svg" xmlns:xlink="http://www.w3.org/1999/xlink">
    <title>background_fill</title>
    <g id="Icon" stroke="none" stroke-width="1" fill="none" fill-rule="evenodd">
        <g id="Design" transform="translate(-864.000000, -336.000000)" fill-rule="nonzero">
            <g id="background_fill" transform="translate(864.000000, 336.000000)">
                <path d="M24,0 L24,24 L0,24 L0,0 L24,0 Z M12.5935,23.2578 L12.5819,23.2595 L12.5109,23.295 L12.4919,23.2987 L12.4767,23.295 L12.4057,23.2595 C12.3958,23.2564 12.387,23.259 12.3821,23.2649 L12.378,23.2758 L12.3609,23.7031 L12.3659,23.7235 L12.3769,23.7357 L12.4805,23.8097 L12.4953,23.8136 L12.5071,23.8097 L12.6107,23.7357 L12.6233,23.7197 L12.6267,23.7031 L12.6096,23.2758 C12.6076,23.2657 12.601,23.2593 12.5935,23.2578 Z M12.8584,23.1453 L12.8445,23.1473 L12.6598,23.2397 L12.6499,23.2499 L12.6472,23.2611 L12.6651,23.6906 L12.6699,23.7034 L12.6784,23.7105 L12.8793,23.8032 C12.8914,23.8069 12.9022,23.803 12.9078,23.7952 L12.9118,23.7812 L12.8777,23.1665 C12.8753,23.1546 12.8674,23.147 12.8584,23.1453 Z M12.143,23.1473 C12.1332,23.1424 12.1222,23.1453 12.1156,23.1526 L12.1099,23.1665 L12.0758,23.7812 C12.0751,23.7927 12.0828,23.8019 12.0926,23.8046 L12.1083,23.8032 L12.3092,23.7105 L12.3186,23.7024 L12.3225,23.6906 L12.3404,23.2611 L12.3372,23.2485 L12.3278,23.2397 L12.143,23.1473 Z" id="MingCute"></path>
                <path d="M21.1289,4.01226 C21.6744,4.63572 21.6112,5.58336 20.9878,6.12889 L4.98778,20.1289 C4.36432,20.6744 3.41668,20.6112 2.87116,19.9878 C2.32563,19.3643 2.38881,18.4167 3.01226,17.8712 L19.0123,3.87116 C19.6357,3.32563 20.5834,3.38881 21.1289,4.01226 Z M21.1288,10.3873 C21.6743,11.0107 21.6112,11.9584 20.9877,12.5039 L12.2734,20.1289 C11.65,20.6744 10.7023,20.6112 10.1568,19.9878 C9.61128,19.3643 9.67445,18.4167 10.2979,17.8712 L19.0122,10.2462 C19.6357,9.70063 20.5833,9.76381 21.1288,10.3873 Z M21.1289,16.2623 C21.6403063,16.8467375 21.6167223,17.7162043 21.0981108,18.2720828 L20.9878,18.3789 L18.9878,20.1289 C18.3643,20.6744 17.4167,20.6112 16.8712,19.9878 C16.3597,19.4032687 16.3832781,18.533884 16.9019716,17.9780161 L17.0123,17.8712 L19.0123,16.1212 C19.6357,15.5756 20.5834,15.6388 21.1289,16.2623 Z M13.8432,4.01226 C14.3887,4.63572 14.3255,5.58336 13.7021,6.12889 L4.98778,13.7539 C4.36432,14.2994 3.41668,14.2362 2.87116,13.6128 C2.32563,12.9893 2.38881,12.0417 3.01226,11.4962 L11.7266,3.87116 C12.35,3.32563 13.2977,3.38881 13.8432,4.01226 Z M7.55747,4.01226 C8.068895,4.59675375 8.04533855,5.46617133 7.52668104,6.02206822 L7.41636,6.12889 L4.98778,8.2539 C4.36432,8.79942 3.41668,8.73624 2.87116,8.11279 C2.35972563,7.52829625 2.38329027,6.65887867 2.90194062,6.10299002 L3.01226,5.99617 L5.44085,3.87116 C6.0643,3.32563 7.01195,3.38881 7.55747,4.01226 Z" id="形状" fill="#09244B"></path>
            </g>
        </g>
    </g>
</svg>