<svg xmlns="http://www.w3.org/2000/svg" width="24" height="24"><g fill="none"><path d="M24 0v24H0V0zM12.594 23.258l-.012.002-.071.035-.02.004-.014-.004-.071-.036c-.01-.003-.019 0-.024.006l-.004.01-.017.428.005.02.01.013.104.074.015.004.012-.004.104-.074.012-.016.004-.017-.017-.427c-.002-.01-.009-.017-.016-.018m.264-.113-.014.002-.184.093-.01.01-.003.011.018.43.005.012.008.008.201.092c.012.004.023 0 .029-.008l.004-.014-.034-.614c-.003-.012-.01-.02-.02-.022m-.715.002a.023.023 0 0 0-.027.006l-.006.014-.034.614c0 .012.007.02.017.024l.015-.002.201-.093.01-.008.003-.011.018-.43-.003-.012-.01-.01z"/><path fill="#09244B" d="M21.129 4.012a1.5 1.5 0 0 1-.141 2.117l-16 14a1.5 1.5 0 0 1-1.976-2.258l16-14a1.5 1.5 0 0 1 2.117.141m0 6.375a1.5 1.5 0 0 1-.141 2.117l-8.715 7.625a1.5 1.5 0 0 1-1.975-2.258l8.714-7.625a1.5 1.5 0 0 1 2.117.141m0 5.875a1.5 1.5 0 0 1-.03 2.01l-.111.107-2 1.75a1.5 1.5 0 0 1-2.086-2.151l.11-.107 2-1.75a1.5 1.5 0 0 1 2.117.141m-7.286-12.25a1.5 1.5 0 0 1-.14 2.117l-8.715 7.625a1.5 1.5 0 0 1-1.976-2.258l8.715-7.625a1.5 1.5 0 0 1 2.116.141m-6.286 0a1.5 1.5 0 0 1-.03 2.01l-.11.107-2.43 2.125a1.5 1.5 0 0 1-2.085-2.151l.11-.107 2.429-2.125a1.5 1.5 0 0 1 2.116.141"/></g></svg>