<?xml version="1.0" encoding="UTF-8"?>
<svg width="24px" height="24px" viewBox="0 0 24 24" version="1.1" xmlns="http://www.w3.org/2000/svg" xmlns:xlink="http://www.w3.org/1999/xlink">
    <title>bling_fill</title>
    <g id="页面-1" stroke="none" stroke-width="1" fill="none" fill-rule="evenodd">
        <g id="Editor" transform="translate(-144.000000, -48.000000)" fill-rule="nonzero">
            <g id="bling_fill" transform="translate(144.000000, 48.000000)">
                <rect id="矩形" x="0" y="0" width="24" height="24"></rect>
                <path d="M10.077,2.61445 C10.414725,1.8547065 11.4559488,1.8167103 11.8639379,2.50048712 L11.9229,2.61445 L12.9649,4.95885 C13.8758895,7.00850053 15.3902729,8.72789543 17.3016897,9.89018275 L17.6239,10.0787 L19.4747,11.1197 C20.1230611,11.4844444 20.1590812,12.3862472 19.5827602,12.8105806 L19.4747,12.8803 L17.6239,13.9214 C15.6690053,15.0210105 14.0996795,16.6904482 13.1222832,18.702691 L12.9649,19.0412 L11.9229,21.3856 C11.58527,22.145315 10.544051,22.1833008 10.1359764,21.4995572 L10.077,21.3856 L9.03507,19.0412 C8.12411842,16.9915684 6.60968319,15.2721296 4.69823529,14.1099057 L4.37602,13.9214 L2.52521,12.8803 C1.87690556,12.51565 1.84087972,11.6138525 2.41715777,11.1894352 L2.52521,11.1197 L4.37602,10.0787 C6.33094316,8.97901368 7.90032427,7.3096169 8.87769233,5.2973616 L9.03507,4.95885 L10.077,2.61445 Z M19.2205,2.12106 C19.719,3.24286 20.5603,4.19019 21.6347,4.79454 C21.7949,4.88467 21.7949,5.11536 21.6347,5.20549 C20.5603,5.80984 19.719,6.75718 19.2205,7.87897 C19.1356,8.07 18.8644,8.07 18.7795,7.87897 C18.281,6.75717 17.4397,5.80984 16.3653,5.20549 C16.2051,5.11536 16.2051,4.88467 16.3653,4.79454 C17.4397,4.1902 18.281,3.24286 18.7795,2.12106 C18.8644,1.93003 19.1356,1.93003 19.2205,2.12106 Z" id="形状" fill="#09244B"></path>
            </g>
        </g>
    </g>
</svg>