<?xml version="1.0" encoding="UTF-8"?>
<svg width="24px" height="24px" viewBox="0 0 24 24" version="1.1" xmlns="http://www.w3.org/2000/svg" xmlns:xlink="http://www.w3.org/1999/xlink">
    <title>brightness_line</title>
    <g id="页面-1" stroke="none" stroke-width="1" fill="none" fill-rule="evenodd">
        <g id="Design" fill-rule="nonzero">
            <g id="brightness_line">
                <rect id="矩形" transform="translate(12.000000, 12.000000) scale(-1, 1) translate(-12.000000, -12.000000) " x="0" y="0" width="24" height="24"></rect>
                <path d="M12,19 C12.51285,19 12.9355092,19.386027 12.9932725,19.8833761 L13,20 L13,21 C13,21.5523 12.5523,22 12,22 C11.48715,22 11.0644908,21.613973 11.0067275,21.1166239 L11,21 L11,20 C11,19.4477 11.4477,19 12,19 Z M16.9498,16.9498 C17.3102615,16.5892462 17.8775207,16.5615112 18.2697973,16.8665953 L18.364,16.9498 L19.0711,17.6569 C19.4616,18.0474 19.4616,18.6805 19.0711,19.0711 C18.7106385,19.4315615 18.1433793,19.4592893 17.7511027,19.1542834 L17.6569,19.0711 L16.9498,18.364 C16.5593,17.9734 16.5593,17.3403 16.9498,16.9498 Z M7.0502,16.9498 C7.44072,17.3403 7.44072,17.9735 7.0502,18.364 L6.34309,19.0711 C5.95257,19.4616 5.3194,19.4616 4.92888,19.0711 C4.53835,18.6806 4.53835,18.0474 4.92888,17.6569 L5.6359825,16.9498 C6.02651,16.5592 6.65968,16.5592 7.0502,16.9498 Z M12,6 C15.3137,6 18,8.68629 18,12 C18,15.3137 15.3137,18 12,18 C8.68629,18 6,15.3137 6,12 C6,8.68629 8.68629,6 12,6 Z M12,8 C9.79086,8 8,9.79086 8,12 C8,14.2091 9.79086,16 12,16 L12,8 Z M4,11 C4.55228,11 5,11.4477 5,12 C5,12.5523 4.55228,13 4,13 L3,13 C2.44772,13 2,12.5523 2,12 C2,11.4477 2.44772,11 3,11 L4,11 Z M21,11 C21.5523,11 22,11.4477 22,12 C22,12.51285 21.613973,12.9355092 21.1166239,12.9932725 L21,13 L20,13 C19.4477,13 19,12.5523 19,12 C19,11.48715 19.386027,11.0644908 19.8833761,11.0067275 L20,11 L21,11 Z M6.34312,4.92888 L7.05023,5.63599 C7.44075,6.02651 7.44075,6.65968 7.05023,7.0502 C6.6597,7.44072 6.02654,7.44072 5.6360125,7.0502 L4.92891,6.34309 C4.53838,5.95257 4.53838,5.3194 4.92891,4.92888 C5.31943,4.53836 5.9526,4.53836 6.34312,4.92888 Z M17.6569,4.9289 C18.0474,4.53837 18.6805,4.53837 19.0711,4.9289 C19.4315615,5.28938 19.4592893,5.85661503 19.1542834,6.2489035 L19.0711,6.34311 L18.364,7.05022 C17.9734,7.44074 17.3403,7.44074 16.9498,7.05022 C16.5892462,6.68973077 16.5615112,6.12250355 16.8665953,5.73021044 L16.9498,5.6360025 L17.6569,4.9289 Z M12,2 C12.51285,2 12.9355092,2.38604429 12.9932725,2.88337975 L13,3 L13,4 C13,4.55228 12.5523,5 12,5 C11.48715,5 11.0644908,4.61395571 11.0067275,4.11662025 L11,4 L11,3 C11,2.44772 11.4477,2 12,2 Z" id="形状" fill="#09244B"></path>
            </g>
        </g>
    </g>
</svg>