<?xml version="1.0" encoding="UTF-8"?>
<svg width="24px" height="24px" viewBox="0 0 24 24" version="1.1" xmlns="http://www.w3.org/2000/svg" xmlns:xlink="http://www.w3.org/1999/xlink">
    <title>brush_2_line</title>
    <g id="页面-1" stroke="none" stroke-width="1" fill="none" fill-rule="evenodd">
        <g id="Design" transform="translate(-576.000000, -96.000000)">
            <g id="brush_2_line" transform="translate(576.000000, 96.000000)">
                <rect id="矩形" fill-rule="nonzero" x="0" y="0" width="24" height="24"></rect>
                <path d="M2.80758,2.80758 C3.69279,1.92237 4.81823,1.47789 5.99229,1.60483 C7.15299,1.73033 8.21701,2.3975 9.0477,3.45114 C9.9364,4.57839 10.7481,6.18292 11.3845,7.6254 C11.6949941,8.32908941 12.5445055,8.49948388 13.0602269,8.10028381 L13.1528,8.01875 L13.7678,7.40372 C14.7016522,6.46982 16.1905032,6.42934374 17.1726162,7.28196742 L17.3033,7.40377 L21.5459,11.6464 C22.4797522,12.5802522 22.5203544,14.0691032 21.6677068,15.0512162 L21.5459,15.1819 L15.1819,21.5459 C14.2480478,22.4797522 12.7591968,22.5203544 11.7770838,21.6677068 L11.6464,21.5459 L7.40377,17.3033 C6.46995609,16.3694478 6.42922739,14.8805968 7.28591593,13.8944581 L7.4083,13.7632 L8.01875,13.1528 C8.5187,12.6528 8.37307,11.7144 7.62539,11.3845 C6.18291,10.7481 4.57838,9.9364 3.45113,9.0477 C2.3975,8.217 1.73033,7.15298 1.60483,5.99229 C1.47789,4.81823 1.92237,3.69279 2.80758,2.80758 Z M19.071,12 L12,19.071 L13.0606,20.1317 C13.2559,20.327 13.5725,20.327 13.7677,20.1317 L20.1317,13.7677 C20.327,13.5725 20.327,13.2559 20.1317,13.0606 L19.071,12 Z M5.77729,3.59324 C5.27869,3.53933 4.73397,3.70961 4.22179,4.22179 C3.70961,4.73398 3.53933,5.27869 3.59324,5.77729 C3.6486,6.28925 3.9579,6.9004 4.6894,7.47712 C5.60939,8.20246 7.02118,8.93197 8.43269,9.5547 C10.3081674,10.3821265 10.9655756,12.8448428 9.56474198,14.426875 L9.4317,14.5682 L8.81794,15.182 C8.64441111,15.3555111 8.62509852,15.6248642 8.76012162,15.819814 L8.81799,15.8891 L10.5858,17.6568 L17.6568,10.5858 L15.8891,8.81799 C15.7154111,8.64438111 15.4460383,8.62512284 15.2512267,8.76009579 L15.182,8.81794 L14.567,9.433 C12.9956,11.0043 10.4072,10.365 9.5547,8.4327 C8.93196,7.02118 8.20246,5.6094 7.47712,4.68939 C6.9004,3.9579 6.28926,3.64859 5.77729,3.59324 Z" id="形状" fill="#09244B"></path>
            </g>
        </g>
    </g>
</svg>