<?xml version="1.0" encoding="UTF-8"?>
<svg width="24px" height="24px" viewBox="0 0 24 24" version="1.1" xmlns="http://www.w3.org/2000/svg" xmlns:xlink="http://www.w3.org/1999/xlink">
    <title>clockwise_line</title>
    <g id="页面-1" stroke="none" stroke-width="1" fill="none" fill-rule="evenodd">
        <g id="Design" transform="translate(-288.000000, -96.000000)" fill-rule="nonzero">
            <g id="clockwise_line" transform="translate(288.000000, 96.000000)">
                <rect id="矩形" x="0" y="0" width="24" height="24"></rect>
                <path d="M20,8 C21.1046,8 22,8.89543 22,10 L22,19 C22,20.1046 21.1046,21 20,21 L10,21 C8.89546,21 8.00003,20.1046 8.00003,19 L8.00003,10 C8.00003,8.89543 8.89546,8 10,8 L20,8 Z M20,10 L10,10 L10,19 L20,19 L20,10 Z M11.0561,3 C11.73886,3 12.0311924,3.5170048 12.1231134,3.83939471 L12.152,3.97178 L12.152,3.97178 C12.1923,4.25682 12.1263,4.97391 11.3913,5.20466 L10.9897541,5.33689247 C10.0563784,5.6583988 8.733462,6.211684 7.45577,7.07985 C5.98204,8.08121 4.62285,9.46343 3.93982,11.3417 C3.75108,11.8608 3.17732,12.1285 2.65828,11.9398 C2.13925,11.7511 1.8715,11.1773 2.06023,10.6583 C2.93199,8.26093 4.63842,6.57616 6.33174,5.42559 L6.66363375,5.20659625 L6.66363375,5.20659625 L6.99534,5 L6.00003,5 C5.44774,5 5.00003,4.55228 5.00003,4 C5.00003,3.48716857 5.38606566,3.06449347 5.8834079,3.0067278 L6.00003,3 L11.0561,3 Z" id="形状" fill="#09244B"></path>
            </g>
        </g>
    </g>
</svg>