<?xml version="1.0" encoding="UTF-8"?>
<svg width="24px" height="24px" viewBox="0 0 24 24" version="1.1" xmlns="http://www.w3.org/2000/svg" xmlns:xlink="http://www.w3.org/1999/xlink">
    <title>color_picker_fill</title>
    <g id="页面-1" stroke="none" stroke-width="1" fill="none" fill-rule="evenodd">
        <g id="Design" transform="translate(-336.000000, -144.000000)">
            <g id="color_picker_fill" transform="translate(336.000000, 144.000000)">
                <rect id="矩形" fill-rule="nonzero" x="0" y="0" width="24" height="24"></rect>
                <path d="M20.477,3.511 C19.3055,2.33943 17.406,2.33943 16.2344,3.511 L14.7015,5.04387 C13.589,4.50916 12.214,4.70296 11.2917,5.62529 L10.5775,6.33943 C9.79649,7.12048 9.79649,8.38681 10.5775,9.16786 L4.0923,15.6533 C3.52969,16.2159 3.21362,16.979 3.21362,17.7746 L3.21362,19.5746 C3.21362,20.2373 3.75088,20.7746 4.41362,20.7746 L6.21362,20.7746 C7.00927,20.7746 7.77234,20.4585 8.33494,19.8959 L14.8203,13.4106 C15.6013,14.1915 16.8676,14.1915 17.6486,13.4105 L18.3628,12.6964 C19.2851,11.774 19.4789,10.3991 18.9442,9.28651 L20.477,7.75364 C21.6486,6.58207 21.6486,4.68258 20.477,3.511 Z M5.50652,17.0675 L11.9918,10.5822 L13.406,11.9964 L6.92073,18.4817 C6.73319,18.6692 6.47884,18.7746 6.21362,18.7746 L5.21362,18.7746 L5.21362,17.7746 C5.21362,17.5094 5.31898,17.255 5.50652,17.0675 Z" id="形状" fill="#09244B"></path>
            </g>
        </g>
    </g>
</svg>