<?xml version="1.0" encoding="UTF-8"?>
<svg width="24px" height="24px" viewBox="0 0 24 24" version="1.1" xmlns="http://www.w3.org/2000/svg" xmlns:xlink="http://www.w3.org/1999/xlink">
    <title>color_picker_line</title>
    <g id="页面-1" stroke="none" stroke-width="1" fill="none" fill-rule="evenodd">
        <g id="Design" transform="translate(-336.000000, -96.000000)">
            <g id="color_picker_line" transform="translate(336.000000, 96.000000)">
                <rect id="矩形" fill-rule="nonzero" x="0" y="0" width="24" height="24"></rect>
                <path d="M20.4768,3.51125 C21.6484,4.68282 21.6484,6.58232 20.4768,7.75389 L18.944,9.28676 C19.4787,10.3993 19.2849,11.7743 18.3625,12.6966 L17.6484,13.4107 C16.8674,14.1918 15.601,14.1918 14.82,13.4107 L8.3347,19.896 C7.77209,20.4586 7.00903,20.7747 6.21338,20.7747 L4.41338,20.7747 C3.75063,20.7747 3.21338,20.2374 3.21338,19.5747 L3.21338,17.7747 C3.21338,16.9791 3.52945,16.216 4.09206,15.6534 L10.5773,9.1681 C9.79629,8.38705 9.79629,7.12072 10.5773,6.33968 L11.2915,5.62553 C12.2138,4.70321 13.5888,4.5094 14.7013,5.04412 L16.2342,3.51125 C17.4058,2.33968 19.3053,2.33968 20.4768,3.51125 Z M11.9916,10.5823 L5.50627,17.0676 L5.41945639,17.1666653 C5.28653972,17.3402 5.21338,17.5537 5.21338,17.7747 L5.21338,17.7747 L5.21338,18.7747 L6.21338,18.7747 L6.34482519,18.7660245 C6.5615275,18.7372861 6.76420667,18.63805 6.92049,18.4818 L6.92049,18.4818 L13.4058,11.9965 L11.9916,10.5823 Z M19.0626,4.92546 C18.6721,4.53494 18.0389,4.53494 17.6484,4.92546 L17.6484,4.92546 L15.5341,7.03975 C15.1397,7.43416 14.5002,7.43415 14.1058,7.03975 C13.7192,6.65311 13.0923,6.65311 12.7057,7.03975 L12.7057,7.03975 L11.9916,7.75389 L16.2342,11.9965 L16.9483,11.2824 C17.335,10.8957 17.335,10.2689 16.9483,9.88224 C16.5539,9.48785 16.5539,8.84838 16.9483,8.45396 L16.9483,8.45396 L19.0626,6.33968 C19.4531,5.94915 19.4531,5.31599 19.0626,4.92546 Z" id="形状结合" fill="#09244B"></path>
            </g>
        </g>
    </g>
</svg>