<?xml version="1.0" encoding="UTF-8"?>
<svg width="24px" height="24px" viewBox="0 0 24 24" version="1.1" xmlns="http://www.w3.org/2000/svg" xmlns:xlink="http://www.w3.org/1999/xlink">
    <title>color_filter_line</title>
    <g id="页面-1" stroke="none" stroke-width="1" fill="none" fill-rule="evenodd">
        <g id="Design" transform="translate(-48.000000, 0.000000)">
            <g id="color_filter_line" transform="translate(48.000000, 0.000000)">
                <rect id="矩形" fill-rule="nonzero" transform="translate(12.000000, 12.000000) scale(-1, 1) translate(-12.000000, -12.000000) " x="0" y="0" width="24" height="24"></rect>
                <path d="M12,2 C15.3137,2 18,4.68629 18,8 C18,8.77983 17.8508,9.52578 17.5795,10.2101 C20.1269,10.9035 21.9999,13.233 21.9999,16 C21.9999,19.3137 19.3136,22 15.9999,22 C14.4629,22 13.0608,21.4214 12,20.4722 C10.9385,21.4223 9.53671,22 8,22 C4.68629,22 2,19.3137 2,16 C2,13.2331 3.87293,10.9036 6.42018,10.2102 C6.14903,9.52618 6,8.7805 6,8 C6,4.68629 8.68629,2 12,2 Z M15.9999,12 C14.9354,12 13.9681,12.4151 13.2506,13.0945 C13.728,13.9557 14,14.9469 14,16 C14,17.0541 13.7282,18.0448 13.2507,18.9057 C13.9683,19.585 14.9355,20 15.9999,20 C18.209,20 19.9999,18.2091 19.9999,16 C19.9999,13.7909 18.209,12 15.9999,12 Z M7.55029,12.025 C5.55285,12.2485 4,13.9429 4,16 C4,18.2091 5.79086,20 8,20 C10.2091,20 12,18.2091 12,16 C12,15.26 11.7999,14.5688 11.4506,13.9752 C9.90741,13.8351 8.53296,13.1107 7.55029,12.025 Z M12,4 C9.79086,4 8,5.79086 8,8 C8,10.0571 9.55282,11.7515 11.5502,11.975 C12.5319,10.8905 13.9068,10.1651 15.4506,10.0248 C15.7999,9.43123 16,8.73996 16,8 C16,5.79086 14.2091,4 12,4 Z" id="形状" fill="#09244B"></path>
            </g>
        </g>
    </g>
</svg>