<?xml version="1.0" encoding="UTF-8"?>
<svg width="24px" height="24px" viewBox="0 0 24 24" version="1.1" xmlns="http://www.w3.org/2000/svg" xmlns:xlink="http://www.w3.org/1999/xlink">
    <title>drop_fill</title>
    <g id="页面-1" stroke="none" stroke-width="1" fill="none" fill-rule="evenodd">
        <g id="Design" transform="translate(-96.000000, -48.000000)">
            <g id="drop_fill" transform="translate(96.000000, 48.000000)">
                <rect id="矩形" fill-rule="nonzero" transform="translate(12.000000, 12.000000) scale(-1, 1) translate(-12.000000, -12.000000) " x="0" y="0" width="24" height="24"></rect>
                <path d="M11.2488,2.32123 C11.6885,1.96128 12.3115,1.96128 12.7512,2.32123 C13.2351,2.71724 15.0149,4.2243 16.6824,6.29878 C18.3223,8.33889 20,11.1058 20,14 C20,18.4182 16.4183,22 12,22 C7.58172,22 4,18.4182 4,14 C4,11.1058 5.67766,8.33889 7.31756,6.29878 C8.98509,4.2243 10.7649,2.71724 11.2488,2.32123 Z" id="路径" fill="#09244B"></path>
            </g>
        </g>
    </g>
</svg>