<?xml version="1.0" encoding="UTF-8"?>
<svg width="24px" height="24px" viewBox="0 0 24 24" version="1.1" xmlns="http://www.w3.org/2000/svg" xmlns:xlink="http://www.w3.org/1999/xlink">
    <title>exposure_line</title>
    <g id="Icon" stroke="none" stroke-width="1" fill="none" fill-rule="evenodd">
        <g id="Design" transform="translate(-96.000000, -384.000000)" fill-rule="nonzero">
            <g id="exposure_line" transform="translate(96.000000, 384.000000)">
                <path d="M24,0 L24,24 L0,24 L0,0 L24,0 Z M12.5935,23.2578 L12.5819,23.2595 L12.5109,23.295 L12.4919,23.2987 L12.4767,23.295 L12.4057,23.2595 C12.3958,23.2564 12.387,23.259 12.3821,23.2649 L12.378,23.2758 L12.3609,23.7031 L12.3659,23.7235 L12.3769,23.7357 L12.4805,23.8097 L12.4953,23.8136 L12.5071,23.8097 L12.6107,23.7357 L12.6233,23.7197 L12.6267,23.7031 L12.6096,23.2758 C12.6076,23.2657 12.601,23.2593 12.5935,23.2578 Z M12.8584,23.1453 L12.8445,23.1473 L12.6598,23.2397 L12.6499,23.2499 L12.6472,23.2611 L12.6651,23.6906 L12.6699,23.7034 L12.6784,23.7105 L12.8793,23.8032 C12.8914,23.8069 12.9022,23.803 12.9078,23.7952 L12.9118,23.7812 L12.8777,23.1665 C12.8753,23.1546 12.8674,23.147 12.8584,23.1453 Z M12.143,23.1473 C12.1332,23.1424 12.1222,23.1453 12.1156,23.1526 L12.1099,23.1665 L12.0758,23.7812 C12.0751,23.7927 12.0828,23.8019 12.0926,23.8046 L12.1083,23.8032 L12.3092,23.7105 L12.3186,23.7024 L12.3225,23.6906 L12.3404,23.2611 L12.3372,23.2485 L12.3278,23.2397 L12.143,23.1473 Z" id="MingCute"></path>
                <path d="M18,3 C19.6569,3 21,4.34315 21,6 L21,18 C21,19.6569 19.6569,21 18,21 L6,21 C4.34315,21 3,19.6569 3,18 L3,6 C3,4.34315 4.34315,3 6,3 L18,3 Z M19,6.41421 L6.41421,19 L18,19 C18.5523,19 19,18.5523 19,18 L19,6.41421 Z M17.5858,5 L6,5 C5.44772,5 5,5.44772 5,6 L5,17.5858 L17.5858,5 Z M17,15 C17.5523,15 18,15.4477 18,16 C18,16.5523 17.5523,17 17,17 L13,17 C12.4477,17 12,16.5523 12,16 C12,15.4477 12.4477,15 13,15 L17,15 Z M9,6 C9.55228,6 10,6.44772 10,7 L10,8 L11,8 C11.5523,8 12,8.44772 12,9 C12,9.55228 11.5523,10 11,10 L10,10 L10,11 C10,11.5523 9.55228,12 9,12 C8.44772,12 8,11.5523 8,11 L8,10 L7,10 C6.44772,10 6,9.55228 6,9 C6,8.44772 6.44772,8 7,8 L8,8 L8,7 C8,6.44772 8.44772,6 9,6 Z" id="形状" fill="#09244B"></path>
            </g>
        </g>
    </g>
</svg>