<?xml version="1.0" encoding="UTF-8"?>
<svg width="24px" height="24px" viewBox="0 0 24 24" version="1.1" xmlns="http://www.w3.org/2000/svg" xmlns:xlink="http://www.w3.org/1999/xlink">
    <title>flip_vertical_fill</title>
    <g id="页面-1" stroke="none" stroke-width="1" fill="none" fill-rule="evenodd">
        <g id="Design" transform="translate(-192.000000, -48.000000)">
            <g id="flip_vertical_fill" transform="translate(192.000000, 48.000000)">
                <rect id="矩形" fill-rule="nonzero" transform="translate(12.000000, 12.000000) scale(-1, 1) translate(-12.000000, -12.000000) " x="0" y="0" width="24" height="24"></rect>
                <path d="M12,2 C12.5523,2 13,2.44772 13,3 L13,21 C13,21.5523 12.5523,22 12,22 C11.4478,22 11,21.5523 11,21 L11,3 C11,2.44772 11.4478,2 12,2 Z M7.86413,5.20735 C8.27932,4.04481 10,4.34286 10,5.57732 L10,18.9 C10,19.5075 9.50757,20 8.90005,20 L4.14195,20 C3.38126,20 2.85019,19.2464 3.10603,18.53 L7.86413,5.20735 Z M14,5.57732 C14,4.34286 15.7208,4.04481 16.136,5.20735 L20.8941,18.53 C21.1499,19.2464 20.6188,20 19.8581,20 L15.1,20 C14.4925,20 14,19.5075 14,18.9 L14,5.57732 Z" id="形状" fill="#09244B"></path>
            </g>
        </g>
    </g>
</svg>