<?xml version="1.0" encoding="UTF-8"?>
<svg width="24px" height="24px" viewBox="0 0 24 24" version="1.1" xmlns="http://www.w3.org/2000/svg" xmlns:xlink="http://www.w3.org/1999/xlink">
    <title>layer_fill</title>
    <g id="Icon" stroke="none" stroke-width="1" fill="none" fill-rule="evenodd">
        <g id="Design" transform="translate(-144.000000, -432.000000)" fill-rule="nonzero">
            <g id="layer_fill" transform="translate(144.000000, 432.000000)">
                <path d="M24,0 L24,24 L0,24 L0,0 L24,0 Z M12.5935,23.2578 L12.5819,23.2595 L12.5109,23.295 L12.4919,23.2987 L12.4767,23.295 L12.4057,23.2595 C12.3958,23.2564 12.387,23.259 12.3821,23.2649 L12.378,23.2758 L12.3609,23.7031 L12.3659,23.7235 L12.3769,23.7357 L12.4805,23.8097 L12.4953,23.8136 L12.5071,23.8097 L12.6107,23.7357 L12.6233,23.7197 L12.6267,23.7031 L12.6096,23.2758 C12.6076,23.2657 12.601,23.2593 12.5935,23.2578 Z M12.8584,23.1453 L12.8445,23.1473 L12.6598,23.2397 L12.6499,23.2499 L12.6472,23.2611 L12.6651,23.6906 L12.6699,23.7034 L12.6784,23.7105 L12.8793,23.8032 C12.8914,23.8069 12.9022,23.803 12.9078,23.7952 L12.9118,23.7812 L12.8777,23.1665 C12.8753,23.1546 12.8674,23.147 12.8584,23.1453 Z M12.143,23.1473 C12.1332,23.1424 12.1222,23.1453 12.1156,23.1526 L12.1099,23.1665 L12.0758,23.7812 C12.0751,23.7927 12.0828,23.8019 12.0926,23.8046 L12.1083,23.8032 L12.3092,23.7105 L12.3186,23.7024 L12.3225,23.6906 L12.3404,23.2611 L12.3372,23.2485 L12.3278,23.2397 L12.143,23.1473 Z" id="MingCute"></path>
                <path d="M5.5547,5.16795 L11.1094,8.87109 C11.6658,9.24202 12,9.86648 12,10.5352 L12,21.0000011 C12,21.3688 11.797,21.7077 11.4719,21.8817 C11.1467,22.0557 10.7522,22.0366 10.4453,21.8321 L4.8906,18.1289 C4.3342,17.758 4,17.1335 4,16.4648 L4,6.00000106 C4,5.63121 4.20298,5.29235 4.52814,5.11833 C4.8533,4.94431 5.24784,4.96338 5.5547,5.16795 Z M8.52814,3.11833 C8.8533,2.94431 9.24784,2.96338 9.5547,3.16795 L15.1094,6.87108 C15.6658,7.24202 16,7.86648 16,8.53519 L16,19.0000011 C16,19.3688 15.797,19.7077 15.4719,19.8817 C15.1467,20.0557 14.7522,20.0366 14.4453,19.8321 L13.5,19.2019 L13.5,10.5352 C13.5,9.36495 12.9151,8.27214 11.9415,7.62301 L8,4.99538 L8,4.00000106 C8,3.63121 8.20298,3.29235 8.52814,3.11833 Z M13.5547,1.16795 L19.1094,4.87108 C19.6658,5.24202 20,5.86648 20,6.53519 L20,17.0000003 C20,17.3688 19.797,17.7077 19.4719,17.8817 C19.1467,18.0557 18.7522,18.0366 18.4453,17.8321 L17.5,17.2019 L17.5,8.53519 C17.5,7.36495 16.9151,6.27214 15.9415,5.62301 L12,2.99538 L12,2.00000025 C12,1.63121 12.203,1.29235 12.5281,1.11833 C12.8533,0.944308 13.2478,0.96338 13.5547,1.16795 Z" id="形状" fill="#09244B"></path>
            </g>
        </g>
    </g>
</svg>