<?xml version="1.0" encoding="UTF-8"?>
<svg width="24px" height="24px" viewBox="0 0 24 24" version="1.1" xmlns="http://www.w3.org/2000/svg" xmlns:xlink="http://www.w3.org/1999/xlink">
    <title>layout_fill</title>
    <g id="页面-1" stroke="none" stroke-width="1" fill="none" fill-rule="evenodd">
        <g id="Design" transform="translate(-384.000000, -144.000000)" fill-rule="nonzero">
            <g id="layout_fill" transform="translate(384.000000, 144.000000)">
                <rect id="矩形" x="0" y="0" width="24" height="24"></rect>
                <path d="M9,10 L9,21 L5,21 C3.94563773,21 3.08183483,20.18415 3.00548573,19.1492661 L3,19 L3,10 L9,10 Z M21,10 L21,19 C21,20.0543909 20.18415,20.9181678 19.1492661,20.9945144 L19,21 L11,21 L11,10 L21,10 Z M19,3 C20.1046,3 21,3.89543 21,5 L21,8 L3,8 L3,5 C3,3.89543 3.89543,3 5,3 L19,3 Z" id="形状" fill="#09244B"></path>
            </g>
        </g>
    </g>
</svg>