<svg xmlns="http://www.w3.org/2000/svg" width="24" height="24" viewBox="0 0 24 24"><g fill="none" fill-rule="evenodd"><rect width="24" height="24"/><path fill="#09244B" d="M19,3 C20.0543909,3 20.9181678,3.81587733 20.9945144,4.85073759 L21,5 L21,19 C21,20.0543909 20.18415,20.9181678 19.1492661,20.9945144 L19,21 L5,21 C3.94563773,21 3.08183483,20.18415 3.00548573,19.1492661 L3,19 L3,5 C3,3.94563773 3.81587733,3.08183483 4.85073759,3.00548573 L5,3 L19,3 Z M19,5 L13,5 L13,19 L19,19 L19,5 Z M11,16 L5,16 L5,19 L11,19 L11,16 Z M11,10 L5,10 L5,14 L11,14 L11,10 Z M11,5 L5,5 L5,8 L11,8 L11,5 Z"/></g></svg>