<?xml version="1.0" encoding="UTF-8"?>
<svg width="24px" height="24px" viewBox="0 0 24 24" version="1.1" xmlns="http://www.w3.org/2000/svg" xmlns:xlink="http://www.w3.org/1999/xlink">
    <title>layout_bottom_close_collapse_line</title>
    <g id="Icon" stroke="none" stroke-width="1" fill="none" fill-rule="evenodd">
        <g id="Design" transform="translate(-432.000000, -384.000000)" fill-rule="nonzero">
            <g id="layout_bottom_close_collapse_line" transform="translate(432.000000, 384.000000)">
                <path d="M24,0 L24,24 L0,24 L0,0 L24,0 Z M12.5935,23.2578 L12.5819,23.2595 L12.5109,23.295 L12.4919,23.2987 L12.4767,23.295 L12.4057,23.2595 C12.3958,23.2564 12.387,23.259 12.3821,23.2649 L12.378,23.2758 L12.3609,23.7031 L12.3659,23.7235 L12.3769,23.7357 L12.4805,23.8097 L12.4953,23.8136 L12.5071,23.8097 L12.6107,23.7357 L12.6233,23.7197 L12.6267,23.7031 L12.6096,23.2758 C12.6076,23.2657 12.601,23.2593 12.5935,23.2578 Z M12.8584,23.1453 L12.8445,23.1473 L12.6598,23.2397 L12.6499,23.2499 L12.6472,23.2611 L12.6651,23.6906 L12.6699,23.7034 L12.6784,23.7105 L12.8793,23.8032 C12.8914,23.8069 12.9022,23.803 12.9078,23.7952 L12.9118,23.7812 L12.8777,23.1665 C12.8753,23.1546 12.8674,23.147 12.8584,23.1453 Z M12.143,23.1473 C12.1332,23.1424 12.1222,23.1453 12.1156,23.1526 L12.1099,23.1665 L12.0758,23.7812 C12.0751,23.7927 12.0828,23.8019 12.0926,23.8046 L12.1083,23.8032 L12.3092,23.7105 L12.3186,23.7024 L12.3225,23.6906 L12.3404,23.2611 L12.3372,23.2485 L12.3278,23.2397 L12.143,23.1473 Z" id="MingCute"></path>
                <path d="M19,3 C20.1046,3 21,3.89543 21,5 L21,19 C21,20.1046 20.1046,21 19,21 L5,21 C3.89543,21 3,20.1046 3,19 L3,5 C3,3.89543 3.89543,3 5,3 L19,3 Z M19,16 L5,16 L5,19 L19,19 L19,16 Z M19,5 L5,5 L5,14 L19,14 L19,5 Z M9.17157,7.79291 C9.53205923,7.43243 10.0993205,7.40470077 10.4915973,7.70972231 L10.5858,7.79291 L12,9.20713 L13.4142,7.79291 C13.8047,7.40239 14.4379,7.40239 14.8284,7.79291 C15.1889538,8.15339923 15.2166888,8.72062645 14.9116047,9.11292152 L14.8284,9.20713 L12.7071,11.3284 C12.3466385,11.6889538 11.7793793,11.7166888 11.3871027,11.4116047 L11.2929,11.3284 L9.17157,9.20713 C8.78105,8.8166 8.78105,8.18344 9.17157,7.79291 Z" id="形状" fill="#09244B"></path>
            </g>
        </g>
    </g>
</svg>