<?xml version="1.0" encoding="UTF-8"?>
<svg width="24px" height="24px" viewBox="0 0 24 24" version="1.1" xmlns="http://www.w3.org/2000/svg" xmlns:xlink="http://www.w3.org/1999/xlink">
    <title>magic_2_fill</title>
    <g id="页面-1" stroke="none" stroke-width="1" fill="none" fill-rule="evenodd">
        <g id="Editor" transform="translate(-864.000000, -48.000000)">
            <g id="magic_2_fill" transform="translate(864.000000, 48.000000)">
                <rect id="矩形" fill-rule="nonzero" x="0" y="0" width="24" height="24"></rect>
                <path d="M6.74843,8.8759 C7.33421,9.46168 8.28396,9.46168 8.86975,8.8759 C9.45553,8.29011 9.45553,7.34036 8.86975,6.75458 L7.10474,4.98957 C6.51895,4.40378 5.5692,4.40378 4.98342,4.98957 C4.39763,5.57535 4.39763,6.5251 4.98342,7.11089 L6.74843,8.8759 Z M7.99,10.9999 C7.99,11.8283 7.31843,12.4999 6.49,12.4999 L3.9939,12.4999 C3.16547,12.4999 2.4939,11.8283 2.4939,10.9999 C2.4939,10.1715 3.16547,9.49992 3.9939,9.49992 L6.49,9.49992 C7.31843,9.49992 7.99,10.1715 7.99,10.9999 Z M12.7616,10.6464 C12.1758,10.0606 11.226,10.0606 10.6403,10.6464 C10.0545,11.2322 10.0545,12.1819 10.6403,12.7677 L19.1255,21.253 C19.7113,21.8388 20.6611,21.8388 21.2469,21.253 C21.8326,20.6672 21.8326,19.7174 21.2469,19.1316 L12.7616,10.6464 Z M17.9938,12.4999 C18.8222,12.4999 19.4938,11.8283 19.4938,10.9999 C19.4938,10.1715 18.8222,9.49992 17.9938,9.49992 L15.49,9.49992 C14.6616,9.49992 13.99,10.1715 13.99,10.9999 C13.99,11.8283 14.6616,12.4999 15.49,12.4999 L17.9938,12.4999 Z M9.49381,17.9999 C9.49381,18.8283 10.1654,19.4999 10.99381,19.4999 C11.8222,19.4999 12.49381,18.8283 12.49381,17.9999 L12.49381,15.4999 C12.49381,14.6714 11.8222,13.9999 10.99381,13.9999 C10.1654,13.9999 9.49381,14.6714 9.49381,15.4999 L9.49381,17.9999 Z M10.99381,7.99988 C10.1654,7.99988 9.49381,7.3283 9.49381,6.49988 L9.49381,4 C9.49381,3.17157 10.1654,2.5 10.99381,2.5 C11.8222,2.5 12.49381,3.17157 12.49381,4 L12.49381,6.49988 C12.49381,7.32831 11.8222,7.99988 10.99381,7.99988 Z M4.98353,17.0102 C4.39775,16.4244 4.39775,15.4746 4.98353,14.8889 L6.7513,13.1211 C7.33709,12.5353 8.28684,12.5353 8.87262,13.1211 C9.45841,13.7069 9.45841,14.6566 8.87262,15.2424 L7.10485,17.0102 C6.51907,17.596 5.56932,17.596 4.98353,17.0102 Z M13.1151,6.75726 C12.5293,7.34305 12.5293,8.2928 13.1151,8.87858 C13.7009,9.46437 14.6507,9.46437 15.2364,8.87858 L17.0041,7.1109 C17.5899,6.52512 17.5899,5.57537 17.0041,4.98958 C16.4183,4.4038 15.4686,4.4038 14.8828,4.98958 L13.1151,6.75726 Z" id="形状" fill="#09244B"></path>
            </g>
        </g>
    </g>
</svg>