<?xml version="1.0" encoding="UTF-8"?>
<svg width="24px" height="24px" viewBox="0 0 24 24" version="1.1" xmlns="http://www.w3.org/2000/svg" xmlns:xlink="http://www.w3.org/1999/xlink">
    <title>markup_fill</title>
    <g id="页面-1" stroke="none" stroke-width="1" fill="none" fill-rule="evenodd">
        <g id="Design" transform="translate(-480.000000, -144.000000)">
            <g id="markup_fill" transform="translate(480.000000, 144.000000)">
                <rect id="矩形" fill-rule="nonzero" x="0" y="0" width="24" height="24"></rect>
                <path d="M2,12 C2,6.47715 6.47715,2 12,2 C17.5228,2 22,6.47715 22,12 C22,17.5228 17.5228,22 12,22 C6.47715,22 2,17.5228 2,12 Z M7.37958,18.5316 L8.25988,15.4506 C8.50519,14.592 9.28996,14 10.1829,14 L13.8172,14 C14.7101,14 15.4949,14.592 15.7402,15.4506 L16.6205,18.5316 C15.3155,19.4564 13.7213,20 12,20 C10.2788,20 8.68457,19.4564 7.37958,18.5316 Z M11.5358,7.1606 L10.143,10.6424 C10.0486,10.8786 10,11.1307 10,11.3852 L10,11.9 C10,11.9552 10.0448,12 10.1,12 L13.9,12 C13.9552,12 14,11.9552 14,11.9 L14,11.3852 C14,11.1307 13.9514,10.8786 13.857,10.6424 L12.4642,7.1606 C12.2966,6.74152 11.7034,6.74152 11.5358,7.1606 Z" id="形状" fill="#09244B"></path>
            </g>
        </g>
    </g>
</svg>