<?xml version="1.0" encoding="UTF-8"?>
<svg width="24px" height="24px" viewBox="0 0 24 24" version="1.1" xmlns="http://www.w3.org/2000/svg" xmlns:xlink="http://www.w3.org/1999/xlink">
    <title>markup_line</title>
    <g id="页面-1" stroke="none" stroke-width="1" fill="none" fill-rule="evenodd">
        <g id="Design" transform="translate(-480.000000, -96.000000)">
            <g id="markup_line" transform="translate(480.000000, 96.000000)">
                <rect id="矩形" fill-rule="nonzero" x="0" y="0" width="24" height="24"></rect>
                <path d="M12,2 C17.5228,2 22,6.47715 22,12 C22,17.5228 17.5228,22 12,22 C6.47715,22 2,17.5228 2,12 C2,6.47715 6.47715,2 12,2 Z M13.2457,14 L10.7543,14 L9.18548,19.4909 C10.061,19.82 11.0095,20 12,20 C12.8666875,20 13.7012187,19.8621875 14.4828262,19.6072631 L14.8145,19.4909 L13.2457,14 Z M12,4 C7.58172,4 4,7.58172 4,12 C4,14.6971 5.33465,17.0824 7.37953,18.5316 L8.83125,13.4506 C9.00385,12.8465 9.44351,12.3744 10,12.1476 L10,11.3852 C10,11.1307 10.0486,10.8786 10.143,10.6424 L11.5358,7.1606 C11.7034,6.74152 12.2966,6.74152 12.4642,7.1606 L13.857,10.6424 C13.9514,10.8786 14,11.1307 14,11.3852 L14,12.1476 C14.5565,12.3744 14.9961,12.8465 15.1687,13.4506 L16.6205,18.5316 C18.6653,17.0824 20,14.6971 20,12 C20,7.58172 16.4183,4 12,4 Z" id="形状" fill="#09244B"></path>
            </g>
        </g>
    </g>
</svg>