<?xml version="1.0" encoding="UTF-8"?>
<svg width="24px" height="24px" viewBox="0 0 24 24" version="1.1" xmlns="http://www.w3.org/2000/svg" xmlns:xlink="http://www.w3.org/1999/xlink">
    <title>paint_fill</title>
    <g id="页面-1" stroke="none" stroke-width="1" fill="none" fill-rule="evenodd">
        <g id="Design" transform="translate(-336.000000, -48.000000)" fill-rule="nonzero">
            <g id="paint_fill" transform="translate(336.000000, 48.000000)">
                <rect id="矩形" x="0" y="0" width="24" height="24"></rect>
                <path d="M3,5 C3,3.34315 4.34315,2 6,2 L16,2 C17.6569,2 19,3.34315 19,5 L20,5 C21.1046,5 22,5.89543 22,7 L22,8.38005 C22,10.9488 20.0535,13.0996 17.4975,13.3552 L12,13.905 L12,14 C13.1046,14 14,14.8954 14,16 L14,20 C14,21.1046 13.1046,22 12,22 L10,22 C8.89543,22 8,21.1046 8,20 L8,16 C8,14.8954 8.89543,14 10,14 L10,13.905 C10,12.8775 10.7786,12.0172 11.801,11.9149 L17.2985,11.3652 C18.8321,11.2118 20,9.9213 20,8.38005 L20,7 L19,7 C19,8.65685 17.6569,10 16,10 L6,10 C4.34315,10 3,8.65685 3,7 L3,5 Z" id="路径" fill="#09244B"></path>
            </g>
        </g>
    </g>
</svg>