<?xml version="1.0" encoding="UTF-8"?>
<svg width="24px" height="24px" viewBox="0 0 24 24" version="1.1" xmlns="http://www.w3.org/2000/svg" xmlns:xlink="http://www.w3.org/1999/xlink">
    <title>paint_brush_fill</title>
    <g id="页面-1" stroke="none" stroke-width="1" fill="none" fill-rule="evenodd">
        <g id="Design" transform="translate(-288.000000, -48.000000)">
            <g id="paint_brush_fill" transform="translate(288.000000, 48.000000)">
                <rect id="矩形" fill-rule="nonzero" x="0" y="0" width="24" height="24"></rect>
                <path d="M22.017,3.87391 L21.4276796,5.45540216 C20.9660775,6.52876151 20.7217843,7.09438745 20.6948,7.15228 C20.0166,8.60718 19.0834952,10.3081 17.9675,11.4819 C16.9021,12.6025 15.2942,13.6349 14.0064,14.3682 C14.3373,15.9626 13.8841,17.6872 12.6467,18.9246 C10.3763,21.195 7.84044,21.1954 5.95355,20.6345 C4.52346,20.2093 3.34772,19.4373 2.22437,18.4868 C2.02627,18.3191 2.03881,18.0117 2.25118,17.8625 L2.75141656,17.5011368 C3.4233036,16.99354 4.075846,16.37466 4.24147,15.5465 C4.35588667,14.6208833 4.42143333,14.1163833 4.43811,14.033 C4.57591,13.344 4.86751,12.5616 5.5756,11.8535 C6.81296,10.6162 8.53748,10.1629 10.1318,10.4938 C10.8651,9.20599 11.8976,7.59803 13.0182,6.53254 C14.192,5.41656 15.8929,4.48346 17.3478,3.8053 L19.0446264,3.07238289 L20.6261,2.48301 C21.4896,2.18807 22.312,3.01044 22.017,3.87391 Z M11.9795,11.2926 C12.2138,11.4571 12.4372,11.6441 12.6467,11.8535 C12.8561,12.0629 13.043,12.2863 13.2075,12.5206 C13.5988,12.2938 14.0025,12.0477 14.3972,11.7889 L14.3667,11.7216 C14.2508,11.4743 14.0479,11.1335 13.7073,10.7928 C13.4152714,10.5008571 13.1231694,10.3100816 12.8900003,10.1885458 L12.7111,10.1029 C12.4524,10.4976 12.2063,10.9013 11.9795,11.2926 Z M19.4218,5.07827 C19.0386,5.23698 18.6224,5.41779 18.1927,5.61805 C16.7839,6.27471 15.3265,7.09752 14.3963,7.98198 C14.2392,8.13131 14.082,8.29678 13.9256,8.47475 C14.2884,8.67547 14.7081,8.96527 15.1215,9.37864 C15.5348,9.79197 15.8246,10.2117 16.0253,10.5744 C16.2033,10.4181 16.3688,10.2608 16.5181,10.1038 C17.4025,9.17352 18.2253,7.71612 18.882,6.30732 C19.0823,5.87769 19.2631,5.46144 19.4218,5.07827 Z" id="形状" fill="#09244B"></path>
            </g>
        </g>
    </g>
</svg>