<?xml version="1.0" encoding="UTF-8"?>
<svg width="24px" height="24px" viewBox="0 0 24 24" version="1.1" xmlns="http://www.w3.org/2000/svg" xmlns:xlink="http://www.w3.org/1999/xlink">
    <title>palette_fill</title>
    <g id="页面-1" stroke="none" stroke-width="1" fill="none" fill-rule="evenodd">
        <g id="Design" transform="translate(-384.000000, -48.000000)">
            <g id="palette_fill" transform="translate(384.000000, 48.000000)">
                <rect id="矩形" fill-rule="nonzero" transform="translate(12.000000, 12.000000) scale(-1, 1) translate(-12.000000, -12.000000) " x="0" y="0" width="24" height="24"></rect>
                <path d="M12,2 C17.5228,2 22,6.47715 22,12 C22,12.6488 21.9381,13.284 21.8196,13.8999 C21.4472,15.8348931 19.5594706,16.6911171 17.9130939,16.4951244 L17.7377,16.4701 L15.9978,16.1801 C15.587,16.1116 15.1684,16.2458 14.874,16.5402 C14.5041,16.9101 14.3273,17.4186 14.5762,17.9163 C14.9989,18.7617 15.0048,19.7283 14.6312,20.5194 C14.1307,21.5794 13.1096,22 12,22 C6.47715,22 2,17.5228 2,12 C2,6.47715 6.47715,2 12,2 Z M7.5,11 C6.67157,11 6,11.6716 6,12.5 C6,13.3284 6.67157,14 7.5,14 C8.32843,14 9,13.3284 9,12.5 C9,11.6716 8.32843,11 7.5,11 Z M14.5,7 C13.6716,7 13,7.67157 13,8.5 C13,9.32843 13.6716,10 14.5,10 C15.3284,10 16,9.32843 16,8.5 C16,7.67157 15.3284,7 14.5,7 Z M9.5,7 C8.67157,7 8,7.67157 8,8.5 C8,9.32843 8.67157,10 9.5,10 C10.3284,10 11,9.32843 11,8.5 C11,7.67157 10.3284,7 9.5,7 Z" id="形状" fill="#09244B"></path>
            </g>
        </g>
    </g>
</svg>