<?xml version="1.0" encoding="UTF-8"?>
<svg width="24px" height="24px" viewBox="0 0 24 24" version="1.1" xmlns="http://www.w3.org/2000/svg" xmlns:xlink="http://www.w3.org/1999/xlink">
    <title>palette_2_fill</title>
    <g id="页面-1" stroke="none" stroke-width="1" fill="none" fill-rule="evenodd">
        <g id="Design" transform="translate(-48.000000, -144.000000)">
            <g id="palette_2_fill" transform="translate(48.000000, 144.000000)">
                <rect id="矩形" fill-rule="nonzero" x="0" y="0" width="24" height="24"></rect>
                <path d="M10,3 C11.1046,3 12,3.89543 12,5 L12,19 C12,20.1046 11.1046,21 10,21 L5,21 C3.89543,21 3,20.1046 3,19 L3,5 C3,3.89543 3.89543,3 5,3 L10,3 Z M19.6595,12.1113 C20.3913125,12.3667688 20.9291504,13.0354992 20.9935215,13.8378344 L21,19 C21,20.0543909 20.18415,20.9181678 19.1492661,20.9945144 L19,21 L13,21 L13,18.7708 L19.6595,12.1113 Z M7.5,15 C6.67157,15 6,15.6716 6,16.5 C6,17.3284 6.67157,18 7.5,18 C8.32843,18 9,17.3284 9,16.5 C9,15.6716 8.32843,15 7.5,15 Z M13.6358,4.00003 C14.3756947,3.26008789 15.5512393,3.22114357 16.336992,3.88319704 L16.4642,4.00003 L19.9997,7.53556 C20.7052944,8.24112611 20.7734833,9.3427025 20.2042667,10.1248378 L13,17.3566 L13,4.6358 L13.6358,4.00003 Z" id="形状" fill="#09244B"></path>
            </g>
        </g>
    </g>
</svg>