<?xml version="1.0" encoding="UTF-8"?>
<svg width="24px" height="24px" viewBox="0 0 24 24" version="1.1" xmlns="http://www.w3.org/2000/svg" xmlns:xlink="http://www.w3.org/1999/xlink">
    <title>paster_line</title>
    <g id="页面-1" stroke="none" stroke-width="1" fill="none" fill-rule="evenodd">
        <g id="Design" transform="translate(-96.000000, -96.000000)">
            <g id="paster_line" transform="translate(96.000000, 96.000000)">
                <rect id="矩形" fill-rule="nonzero" x="0" y="0" width="24" height="24"></rect>
                <path d="M12,2 C12.2425,2 12.4831,2.00865 12.7216,2.02568 C13.2082,2.06043 13.6392,2.27995 13.9554,2.59608 L21.4039,10.0446 C21.7201,10.3608 21.9396,10.7918 21.9743,11.2784 C21.9914,11.5169 22,11.7575 22,12 C22,17.5228 17.5228,22 12,22 C6.47715,22 2,17.5228 2,12 C2,6.47715 6.47715,2 12,2 Z M11.2807,4.03189 C7.19946,4.39556 4,7.82414 4,12 C4,16.4183 7.58172,20 12,20 C16.1759,20 19.6044,16.8005 19.9681,12.7193 C19.3433,12.902 18.6826,13 18,13 C14.134,13 11,9.86599 11,6 C11,5.31735 11.098,4.65672 11.2807,4.03189 Z M13.1834,4.65254 C13.0639,5.08075 13,5.53251 13,6 C13,8.76142 15.2386,11 18,11 C18.374,11 18.737888,10.959104 19.0877728,10.8815616 L19.3475,10.8166 L13.1834,4.65254 Z" id="形状" fill="#09244B"></path>
            </g>
        </g>
    </g>
</svg>