<svg xmlns="http://www.w3.org/2000/svg" width="24" height="24" viewBox="0 0 24 24"><title>pen_ai_line</title><g fill="none" fill-rule="nonzero"><path d="M24 0v24H0V0zM12.594 23.258l-.012.002-.071.035-.02.004-.014-.004-.071-.036q-.016-.004-.024.006l-.004.01-.017.428.005.02.01.013.104.074.015.004.012-.004.104-.074.012-.016.004-.017-.017-.427q-.004-.016-.016-.018m.264-.113-.014.002-.184.093-.01.01-.003.011.018.43.005.012.008.008.201.092q.019.005.029-.008l.004-.014-.034-.614q-.005-.019-.02-.022m-.715.002a.02.02 0 0 0-.027.006l-.006.014-.034.614q.001.018.017.024l.015-.002.201-.093.01-.008.003-.011.018-.43-.003-.012-.01-.01z"/><path fill="#09244b" d="M12.414 4.515a1 1 0 0 1 1.414 0l5.19 5.19a2 2 0 0 1 .444 2.157l-2.365 5.913a2 2 0 0 1-1.605 1.24c-1.08.138-3.435.435-5.079.634-1.065.13-2.605.47-3.913.79a88 88 0 0 0-2.128.547l-.13.037q-.024.005-.035.01l-.008.001h-.002a1.001 1.001 0 0 1-1.231-1.23V19.8l.003-.008.009-.033.036-.132c.03-.115.076-.282.13-.49.11-.415.26-.992.418-1.638.319-1.308.66-2.848.789-3.913.063-.52.135-1.111.21-1.71a1 1 0 0 1 1.985.246l-.21 1.704c-.104.859-.324 1.949-.558 2.98l3.291-3.291a1.998 1.998 0 0 1 3.345-1.93 2 2 0 0 1-1.932 3.345l-3.29 3.29c1.032-.234 2.122-.453 2.98-.557l5.068-.632 2.365-5.912-5.19-5.191a1 1 0 0 1 0-1.414m2.83-1.414a1 1 0 0 1 1.413 0L20.9 7.343a1.001 1.001 0 0 1-1.414 1.415l-4.242-4.243a1 1 0 0 1 0-1.414M6 1a1 1 0 0 1 .946.677l.13.378c.3.879.99 1.57 1.87 1.87l.377.129a1 1 0 0 1 0 1.892l-.378.13c-.879.3-1.57.99-1.87 1.87l-.129.377a1 1 0 0 1-1.892 0l-.13-.378a3 3 0 0 0-1.87-1.87l-.377-.129a1 1 0 0 1 0-1.892l.378-.13c.879-.3 1.57-.99 1.87-1.87l.129-.377.062-.146A1 1 0 0 1 6 1m0 3.196A5 5 0 0 1 5.196 5q.449.355.804.803.356-.447.803-.803A5 5 0 0 1 6 4.196"/></g></svg>