<svg xmlns="http://www.w3.org/2000/svg" width="24" height="24" viewBox="0 0 24 24"><title>pen_ai_fill</title><g fill="none" fill-rule="evenodd"><path d="M24 0v24H0V0zM12.594 23.258l-.012.002-.071.035-.02.004-.014-.004-.071-.036q-.016-.004-.024.006l-.004.01-.017.428.005.02.01.013.104.074.015.004.012-.004.104-.074.012-.016.004-.017-.017-.427q-.004-.016-.016-.018m.264-.113-.014.002-.184.093-.01.01-.003.011.018.43.005.012.008.008.201.092q.019.005.029-.008l.004-.014-.034-.614q-.005-.019-.02-.022m-.715.002a.02.02 0 0 0-.027.006l-.006.014-.034.614q.001.018.017.024l.015-.002.201-.093.01-.008.003-.011.018-.43-.003-.012-.01-.01z"/><path fill="#09244b" d="m14.295 4.98 4.725 4.725a2 2 0 0 1 .442 2.157l-2.364 5.912a2 2 0 0 1-1.605 1.242l-5.079.633c-1.065.13-2.606.47-3.913.79q-1.156.282-2.304.595a1 1 0 0 1-1.231-1.23q.314-1.148.596-2.304l.193-.807c.254-1.098.492-2.254.596-3.106l.359-2.88A2.995 2.995 0 0 0 8.839 8.97l.13-.38a1 1 0 0 1 .623-.622l.378-.13a3 3 0 0 0 2.002-3.234l.166-.066a2 2 0 0 1 2.157.442m-3.71 5.605a2 2 0 0 0-.506 1.968 1 1 0 0 0-.2.154L5.82 16.765a.2.2 0 0 0-.053.097l-.178.763q-.09.373-.175.717a.2.2 0 0 0 .243.243l.718-.175q.373-.09.763-.178a.2.2 0 0 0 .097-.053l4.058-4.058a1 1 0 0 0 .154-.201 1.998 1.998 0 0 0 1.967-3.335 2 2 0 0 0-2.828 0m6.072-7.484L20.9 7.343a1 1 0 0 1-1.414 1.414l-4.243-4.242A1 1 0 0 1 16.657 3.1M6 1a1 1 0 0 1 .946.677l.13.378c.3.879.99 1.57 1.87 1.87l.377.129a1 1 0 0 1 0 1.892l-.378.13c-.879.3-1.57.99-1.87 1.87l-.129.377a1 1 0 0 1-1.892 0l-.13-.378a3 3 0 0 0-1.87-1.87l-.377-.129a1 1 0 0 1 0-1.892l.378-.13c.879-.3 1.57-.99 1.87-1.87l.129-.377A1 1 0 0 1 6 1"/></g></svg>