<?xml version="1.0" encoding="UTF-8"?>
<svg width="24px" height="24px" viewBox="0 0 24 24" version="1.1" xmlns="http://www.w3.org/2000/svg" xmlns:xlink="http://www.w3.org/1999/xlink">
    <title>quill_pen_line</title>
    <g id="页面-1" stroke="none" stroke-width="1" fill="none" fill-rule="evenodd">
        <g id="Design" transform="translate(-480.000000, 0.000000)">
            <g id="quill_pen_line" transform="translate(480.000000, 0.000000)">
                <rect id="矩形" fill-rule="nonzero" transform="translate(12.000000, 12.000000) scale(-1, 1) translate(-12.000000, -12.000000) " x="0" y="0" width="24" height="24"></rect>
                <path d="M5.70821,13.3496 C6.3327,11.4305 7.45808,8.97098 9.46459,6.96447 C13.3986,3.03043 19.1172,2.44872 19.2619,2.43416 C19.3386,2.42645 19.4974,2.41874 19.6844,2.48197 C19.8978,2.55415 20.0837,2.69913 20.2058,2.88827 C20.4141,3.20137 21.5853,5.17098 20.0147,7.5508 C19.9367,7.66899 19.8428,7.78418 19.7386,7.89549 C19.7513,8.01579 19.7422,8.14042 19.7083,8.26411 C19.5195,8.95363 19.2754,9.67684 18.9594,10.4002 C18.4079,11.6631 17.6313,12.9399 16.5357,14.0355 C14.4857,16.0855 11.7943,17.0271 9.69205,17.4663 C8.63099,17.688 7.69346,17.7872 7.0192,17.8311 C6.94619,17.8359 6.87619,17.84 6.80937,17.8436 C6.77801,18.0912 6.5,20.5711 6.5,21 C6.5,21.5523 6.05229,22 5.5,22 C4.94772,22 4.5,21.5522 4.5,21 C4.5,20.4288 4.6163,19.3305 4.72139,18.4398 C4.9257,16.7082 5.16676,15.0135 5.70821,13.3496 Z M18.3454,6.44911 C18.8723,5.65078 18.8645,4.96914 18.7599,4.52997 C17.2335,4.80498 13.5414,5.71605 10.8788,8.37868 C9.17534,10.0821 8.17939,12.2188 7.61005,13.9684 C7.37877,14.6792 7.22112,15.3161 7.1158,15.819 C7.69469,15.7732 8.44693,15.6832 9.28307,15.5086 C11.2031,15.1075 13.4615,14.2813 15.1214,12.6213 C15.9709,11.7719 16.6045,10.7636 17.0753,9.71555 C16.0989,10.2357 15.057,10.7017 14.3163,10.9486 C13.7923,11.1233 13.226,10.8401 13.0514,10.3162 C12.8767,9.79224 13.1599,9.22592 13.6838,9.05127 C14.3583,8.82646 15.4424,8.33773 16.4381,7.7857 C16.9324,7.51168 17.3842,7.23343 17.7394,6.97791 C18.1228,6.70212 18.2996,6.51857 18.3454,6.44911 Z" id="形状" fill="#09244B"></path>
            </g>
        </g>
    </g>
</svg>