<?xml version="1.0" encoding="UTF-8"?>
<svg width="24px" height="24px" viewBox="0 0 24 24" version="1.1" xmlns="http://www.w3.org/2000/svg" xmlns:xlink="http://www.w3.org/1999/xlink">
    <title>rotate_x_fill</title>
    <g id="Icon" stroke="none" stroke-width="1" fill="none" fill-rule="evenodd">
        <g id="Design" transform="translate(-624.000000, -336.000000)" fill-rule="nonzero">
            <g id="rotate_x_fill" transform="translate(624.000000, 336.000000)">
                <path d="M24,0 L24,24 L0,24 L0,0 L24,0 Z M12.5935,23.2578 L12.5819,23.2595 L12.5109,23.295 L12.4919,23.2987 L12.4767,23.295 L12.4057,23.2595 C12.3958,23.2564 12.387,23.259 12.3821,23.2649 L12.378,23.2758 L12.3609,23.7031 L12.3659,23.7235 L12.3769,23.7357 L12.4805,23.8097 L12.4953,23.8136 L12.5071,23.8097 L12.6107,23.7357 L12.6233,23.7197 L12.6267,23.7031 L12.6096,23.2758 C12.6076,23.2657 12.601,23.2593 12.5935,23.2578 Z M12.8584,23.1453 L12.8445,23.1473 L12.6598,23.2397 L12.6499,23.2499 L12.6472,23.2611 L12.6651,23.6906 L12.6699,23.7034 L12.6784,23.7105 L12.8793,23.8032 C12.8914,23.8069 12.9022,23.803 12.9078,23.7952 L12.9118,23.7812 L12.8777,23.1665 C12.8753,23.1546 12.8674,23.147 12.8584,23.1453 Z M12.143,23.1473 C12.1332,23.1424 12.1222,23.1453 12.1156,23.1526 L12.1099,23.1665 L12.0758,23.7812 C12.0751,23.7927 12.0828,23.8019 12.0926,23.8046 L12.1083,23.8032 L12.3092,23.7105 L12.3186,23.7024 L12.3225,23.6906 L12.3404,23.2611 L12.3372,23.2485 L12.3278,23.2397 L12.143,23.1473 Z" id="MingCute"></path>
                <path d="M5.63113,7.22972 C6.07834882,6.59103765 6.93317457,6.40737093 7.5979564,6.78412537 L7.72023,6.86136 L9.28602,7.95774 C9.65315,8.18389 9.92051,8.56582 9.98534,9.02616 C10.03518,9.37991375 9.9572525,9.72219844 9.7867217,10.0063942 L9.70807,10.1245 L8.57974,11.7359 C8.10458,12.4145 7.16926,12.5794 6.49065,12.1043 C6.22044,11.9151 6.03167,11.6529 5.93233,11.363 C5.65828,11.4606 5.41395,11.5628 5.20151,11.6675 C4.94815,11.7925 4.76959,11.9068 4.64901,12 C4.91904,12.2089 5.39527,12.46 6.11038,12.6983 C7.54868,13.1778 9.63108,13.5 12,13.5 C14.3689,13.5 16.4513,13.1778 17.8896,12.6983 C18.6061,12.4595 19.0828,12.2079 19.3525,11.9989 L19.216948,11.9030888 C19.136644,11.850476 19.03654,11.79098 18.9121,11.7254 C18.2264,11.3641 17.1484,11.0226 15.7549,10.7917 C14.9376,10.6563 14.3848,9.88404 14.5202,9.06675 C14.6556,8.24946 15.4278,7.69667 16.2451,7.83206 C17.8151,8.09212 19.237,8.50567 20.3105,9.07128 C21.2572,9.57009 22.5,10.4987 22.5,12 C22.5,13.0709 21.8476,13.8523 21.2212,14.3459 C20.5779,14.8529 19.74,15.2438 18.8383,15.5444 C17.0192,16.1507 14.6016,16.5 12,16.5 C9.39836,16.5 6.98076,16.1507 5.1617,15.5444 C4.26001,15.2438 3.4221,14.8529 2.7788,14.3459 C2.15242,13.8523 1.5,13.0709 1.5,12 C1.5,11.2004 1.8713,10.5524 2.30835,10.0841 C2.73796,9.62388 3.29415,9.2632 3.87453,8.97696 C4.32621,8.7542 4.83518,8.55581 5.38862,8.38238 C5.31176,7.99525 5.38687,7.57857 5.63113,7.22972 Z M12,3.5 C12.7796706,3.5 13.4204457,4.09488554 13.4931332,4.85553954 L13.5,5 L13.5,12 L10.5,12 L10.5,5 C10.5,4.17157 11.1716,3.5 12,3.5 Z M10.5,18 L10.5,19 C10.5,19.8284 11.1716,20.5 12,20.5 C12.8284,20.5 13.5,19.8284 13.5,19 L13.5,18 L10.5,18 Z" id="形状" fill="#09244B"></path>
            </g>
        </g>
    </g>
</svg>