<?xml version="1.0" encoding="UTF-8"?>
<svg width="24px" height="24px" viewBox="0 0 24 24" version="1.1" xmlns="http://www.w3.org/2000/svg" xmlns:xlink="http://www.w3.org/1999/xlink">
    <title>ruler_line</title>
    <g id="页面-1" stroke="none" stroke-width="1" fill="none" fill-rule="evenodd">
        <g id="Design" transform="translate(-144.000000, -96.000000)">
            <g id="ruler_line" transform="translate(144.000000, 96.000000)">
                <rect id="矩形" fill-rule="nonzero" x="0" y="0" width="24" height="24"></rect>
                <path d="M5,3 C3.89543,3 3,3.89543 3,5 L3,19 C3,20.1046 3.89543,21 5,21 L10,21 C11.1046,21 12,20.1046 12,19 L12,12 L19,12 C20.1046,12 21,11.1046 21,10 L21,5 C21,3.89543 20.1046,3 19,3 L5,3 Z M7.00015,5 L7.00015,6 C7.00015,6.55228 7.44787,7 8.00015,7 C8.55244,7 9.00015,6.55228 9.00015,6 L9.00015,5 L11,5 L11,6 C11,6.55228 11.4477,7 12,7 C12.5523,7 13,6.55228 13,6 L13,5 L14.9998,5 L14.9998,6 C14.9998,6.55228 15.4476,7 15.9998,7 C16.5521,7 16.9998,6.55228 16.9998,6 L16.9998,5 L19,5 L19,10 L11.5,10 C10.6716,10 10,10.6716 10,11.5 L10,19 L5,19 L5,17 L6,17 C6.55228,17 7,16.5523 7,16 C7,15.4477 6.55228,15 6,15 L5,15 L5,13 L6,13 C6.55228,13 7,12.5523 7,12 C7,11.4477 6.55228,11 6,11 L5,11 L5,9 L6,9 C6.55228,9 7,8.55228 7,8 C7,7.44772 6.55228,7 6,7 L5,7 L5,5 L7.00015,5 Z" id="形状" fill="#09244B"></path>
            </g>
        </g>
    </g>
</svg>