<?xml version="1.0" encoding="UTF-8"?>
<svg width="24px" height="24px" viewBox="0 0 24 24" version="1.1" xmlns="http://www.w3.org/2000/svg" xmlns:xlink="http://www.w3.org/1999/xlink">
    <title>scale_fill</title>
    <g id="页面-1" stroke="none" stroke-width="1" fill="none" fill-rule="evenodd">
        <g id="Design" transform="translate(-192.000000, -144.000000)" fill-rule="nonzero">
            <g id="scale_fill" transform="translate(192.000000, 144.000000)">
                <rect id="矩形" x="0" y="0" width="24" height="24"></rect>
                <path d="M13.1707,3 C13.0602,3.31278 13,3.64936 13,4 C13,4.76669 13.2876,5.46621 13.7608,5.99655 L11.9965,7.76081 C11.4662,7.2876 10.7667,7 10,7 C8.34315,7 7,8.34315 7,10 L7,13.75 C7,15.5449 8.45507,17 10.25,17 L14,17 C15.6569,17 17,15.6569 17,14 C17,13.2333 16.7124,12.5338 16.2392,12.0035 L18.0035,10.2392 C18.5338,10.7124 19.2333,11 20,11 C20.3506,11 20.6872,10.9398 21,10.8293 L21,19 C21,20.1046 20.1046,21 19,21 L5,21 C3.89543,21 3,20.1046 3,19 L3,5 C3,3.89543 3.89543,3 5,3 L13.1707,3 Z M19.75,3 C20.4404,3 21,3.55964 21,4.25 L21,8 C21,8.55228 20.5523,9 20,9 C19.4477,9 19,8.55228 19,8 L19,6.41421 L12.4142,13 L14,13 C14.5523,13 15,13.4477 15,14 C15,14.5523 14.5523,15 14,15 L10.25,15 C9.55964,15 9,14.4404 9,13.75 L9,10 C9,9.44772 9.44772,9 10,9 C10.5523,9 11,9.44772 11,10 L11,11.5858 L17.5858,5 L16,5 C15.4477,5 15,4.55228 15,4 C15,3.44772 15.4477,3 16,3 L19.75,3 Z" id="形状" fill="#09244B"></path>
            </g>
        </g>
    </g>
</svg>