<?xml version="1.0" encoding="UTF-8"?>
<svg width="24px" height="24px" viewBox="0 0 24 24" version="1.1" xmlns="http://www.w3.org/2000/svg" xmlns:xlink="http://www.w3.org/1999/xlink">
    <title>scale_line</title>
    <g id="页面-1" stroke="none" stroke-width="1" fill="none" fill-rule="evenodd">
        <g id="Design" transform="translate(-192.000000, -96.000000)" fill-rule="nonzero">
            <g id="scale_line" transform="translate(192.000000, 96.000000)">
                <rect id="矩形" x="0" y="0" width="24" height="24"></rect>
                <path d="M11,3 C11.5523,3 12,3.44772 12,4 C12,4.51283143 11.613973,4.93550653 11.1166239,4.9932722 L11,5 L5,5 L5,19 L19,19 L19,13 C19,12.4477 19.4477,12 20,12 C20.51285,12 20.9355092,12.386027 20.9932725,12.8833761 L21,13 L21,19 C21,20.0543909 20.18415,20.9181678 19.1492661,20.9945144 L19,21 L5,21 C3.94563773,21 3.08183483,20.18415 3.00548573,19.1492661 L3,19 L3,5 C3,3.94563773 3.81587733,3.08183483 4.85073759,3.00548573 L5,3 L11,3 Z M19.75,3 C20.4404,3 21,3.55964 21,4.25 L21,8 C21,8.55228 20.5523,9 20,9 C19.4477,9 19,8.55228 19,8 L19,6.41421 L12.4142,13 L14,13 C14.5523,13 15,13.4477 15,14 C15,14.5523 14.5523,15 14,15 L10.25,15 C9.55964,15 9,14.4404 9,13.75 L9,10 C9,9.44772 9.44772,9 10,9 C10.5523,9 11,9.44772 11,10 L11,11.5858 L17.5858,5 L16,5 C15.4477,5 15,4.55228 15,4 C15,3.44772 15.4477,3 16,3 L19.75,3 Z" id="形状" fill="#09244B"></path>
            </g>
        </g>
    </g>
</svg>