<?xml version="1.0" encoding="UTF-8"?>
<svg width="24px" height="24px" viewBox="0 0 24 24" version="1.1" xmlns="http://www.w3.org/2000/svg" xmlns:xlink="http://www.w3.org/1999/xlink">
    <title>scissors_3_fill</title>
    <g id="页面-1" stroke="none" stroke-width="1" fill="none" fill-rule="evenodd">
        <g id="Design" transform="translate(-528.000000, -144.000000)">
            <g id="scissors_3_fill" transform="translate(528.000000, 144.000000)">
                 <path d="M24,0 L24,24 L0,24 L0,0 L24,0 Z M12.5934901,23.257841 L12.5819402,23.2595131 L12.5108777,23.2950439 L12.4918791,23.2987469 L12.4918791,23.2987469 L12.4767152,23.2950439 L12.4056548,23.2595131 C12.3958229,23.2563662 12.3870493,23.2590235 12.3821421,23.2649074 L12.3780323,23.275831 L12.360941,23.7031097 L12.3658947,23.7234994 L12.3769048,23.7357139 L12.4804777,23.8096931 L12.4953491,23.8136134 L12.4953491,23.8136134 L12.5071152,23.8096931 L12.6106902,23.7357139 L12.6232938,23.7196733 L12.6232938,23.7196733 L12.6266527,23.7031097 L12.609561,23.275831 C12.6075724,23.2657013 12.6010112,23.2592993 12.5934901,23.257841 L12.5934901,23.257841 Z M12.8583906,23.1452862 L12.8445485,23.1473072 L12.6598443,23.2396597 L12.6498822,23.2499052 L12.6498822,23.2499052 L12.6471943,23.2611114 L12.6650943,23.6906389 L12.6699349,23.7034178 L12.6699349,23.7034178 L12.678386,23.7104931 L12.8793402,23.8032389 C12.8914285,23.8068999 12.9022333,23.8029875 12.9078286,23.7952264 L12.9118235,23.7811639 L12.8776777,23.1665331 C12.8752882,23.1545897 12.8674102,23.1470016 12.8583906,23.1452862 L12.8583906,23.1452862 Z M12.1430473,23.1473072 C12.1332178,23.1423925 12.1221763,23.1452606 12.1156365,23.1525954 L12.1099173,23.1665331 L12.0757714,23.7811639 C12.0751323,23.7926639 12.0828099,23.8018602 12.0926481,23.8045676 L12.108256,23.8032389 L12.3092106,23.7104931 L12.3186497,23.7024347 L12.3186497,23.7024347 L12.3225043,23.6906389 L12.340401,23.2611114 L12.337245,23.2485176 L12.337245,23.2485176 L12.3277531,23.2396597 L12.1430473,23.1473072 Z" id="MingCute" fill-rule="nonzero"></path>
                <path d="M6,2.5 C8.48528,2.5 10.5,4.51472 10.5,7 C10.5,7.47799 10.4255,7.93857 10.2874,8.37076 L12.8578,10.1705 L19.0545,5.83152 C20.1856,5.03958 21.7444,5.31445 22.5364,6.44546 L22.8231,6.85504 L16.8959,11.0053 C16.9301,11.0018 16.9648,11 16.9999,11 C17.5522,11 17.9999,11.4477 17.9999,12 C17.9999,12.5523 17.5522,13 16.9999,13 L16.8901,12.994 L16.8901,12.994 L22.8231,17.1484 L22.5364,17.558 C21.7444,18.689 20.1855,18.9638 19.0545,18.1719 L12.8578,13.8329 L10.2883,15.632 C10.4258,16.0634 10.5,16.523 10.5,17 C10.5,19.4853 8.48528,21.5 6,21.5 C3.51472,21.5 1.5,19.4853 1.5,17 C1.5,14.5857086 3.40123781,12.6155099 5.78816441,12.5048979 L6,12.5 C6.0451,12.5 6.09005,12.5007 6.13484,12.502 C6.04904,12.3544 5.99991,12.183 5.99991,12 C5.99991,11.817 6.04904,11.6456 6.13484,11.498 L6,11.5 C3.51472,11.5 1.5,9.48528 1.5,7 C1.5,4.51472 3.51472,2.5 6,2.5 Z M6,15.5 C5.17157,15.5 4.5,16.1716 4.5,17 C4.5,17.8284 5.17157,18.5 6,18.5 C6.82843,18.5 7.5,17.8284 7.5,17 C7.5,16.1716 6.82843,15.5 6,15.5 Z M8.47119,10.7614 C8.20171,10.9388 7.91204,11.088 7.60636,11.2048 C7.84557,11.3875 7.99991,11.6757 7.99991,12 C7.99991,12.3243 7.84557,12.6125 7.60636,12.7952 C7.91299,12.9124 8.20352,13.0622 8.4737,13.2403 L10.2426,12.0017 L8.47119,10.7614 Z M2.99991,11 C3.55219,11 3.99991,11.4477 3.99991,12 C3.99991,12.5523 3.55219,13 2.99991,13 C2.44762,13 1.99991,12.5523 1.99991,12 C1.99991,11.4477 2.44762,11 2.99991,11 Z M20.9999,11 C21.5522,11 21.9999,11.4477 21.9999,12 C21.9999,12.5523 21.5522,13 20.9999,13 C20.4476,13 19.9999,12.5523 19.9999,12 C19.9999,11.4477 20.4476,11 20.9999,11 Z M16.1006,11.5622 L15.4729,12.0017 L16.1031,12.443 C16.037,12.3094 15.9999,12.1591 15.9999,12 C15.9999,11.843 16.0361,11.6945 16.1006,11.5622 Z M6,5.5 C5.17157,5.5 4.5,6.17157 4.5,7 C4.5,7.82843 5.17157,8.5 6,8.5 C6.82843,8.5 7.5,7.82843 7.5,7 C7.5,6.17157 6.82843,5.5 6,5.5 Z" id="形状" fill="#09244B"></path>
            </g>
        </g>
    </g>
</svg>