<?xml version="1.0" encoding="UTF-8"?>
<svg width="24px" height="24px" viewBox="0 0 24 24" version="1.1" xmlns="http://www.w3.org/2000/svg" xmlns:xlink="http://www.w3.org/1999/xlink">
    <title>scissors_3_line</title>
    <g id="页面-1" stroke="none" stroke-width="1" fill="none" fill-rule="evenodd">
        <g id="Design" transform="translate(-528.000000, -96.000000)">
            <g id="scissors_3_line" transform="translate(528.000000, 96.000000)">
                <rect id="矩形" fill-rule="nonzero" x="0" y="0" width="24" height="24"></rect>
                <path d="M6,3 C8.20914,3 10,4.79086 10,7 C10,7.55314 9.88773,8.08005 9.68472,8.55919 L12.8553,10.7792 L19.3412,6.23773 C20.246,5.60417 21.4931,5.82407 22.1266,6.72888 L14.5987,12 L22.1266,17.2711 C21.4931,18.1759 20.246,18.3958 19.3412,17.7623 L12.8553,13.2208 L9.68472,15.4408 C9.88773,15.92 10,16.4469 10,17 C10,19.2091 8.20914,21 6,21 C3.79086,21 2,19.2091 2,17 C2,14.7909 3.79086,13 6,13 C6.93105,13 7.78781,13.3181 8.46752,13.8516 L11.1118,12 L8.46752,10.1484 C7.78781,10.6819 6.93106,11 6,11 C3.79086,11 2,9.20914 2,7 C2,4.79086 3.79086,3 6,3 Z M6,15 C4.89543,15 4,15.8954 4,17 C4,18.1046 4.89543,19 6,19 C7.10457,19 8,18.1046 8,17 C8,15.8954 7.10457,15 6,15 Z M3,11 C3.55228,11 4,11.4477 4,12 C4,12.5523 3.55228,13 3,13 C2.44772,13 2,12.5523 2,12 C2,11.4477 2.44772,11 3,11 Z M7,11 C7.55228,11 8,11.4477 8,12 C8,12.5523 7.55228,13 7,13 C6.44772,13 6,12.5523 6,12 C6,11.4477 6.44772,11 7,11 Z M17,11 C17.5523,11 18,11.4477 18,12 C18,12.5523 17.5523,13 17,13 C16.4477,13 16,12.5523 16,12 C16,11.4477 16.4477,11 17,11 Z M21,11 C21.5523,11 22,11.4477 22,12 C22,12.5523 21.5523,13 21,13 C20.4477,13 20,12.5523 20,12 C20,11.4477 20.4477,11 21,11 Z M6,5 C4.89543,5 4,5.89543 4,7 C4,8.10457 4.89543,9 6,9 C7.10457,9 8,8.10457 8,7 C8,5.89543 7.10457,5 6,5 Z" id="形状" fill="#09244B"></path>
            </g>
        </g>
    </g>
</svg>