<?xml version="1.0" encoding="UTF-8"?>
<svg width="24px" height="24px" viewBox="0 0 24 24" version="1.1" xmlns="http://www.w3.org/2000/svg" xmlns:xlink="http://www.w3.org/1999/xlink">
    <title>scissors_2_line</title>
    <g id="页面-1" stroke="none" stroke-width="1" fill="none" fill-rule="evenodd">
        <g id="Design" transform="translate(-528.000000, 0.000000)">
            <g id="scissors_2_line" transform="translate(528.000000, 0.000000)">
                 <path d="M24,0 L24,24 L0,24 L0,0 L24,0 Z M12.5934901,23.257841 L12.5819402,23.2595131 L12.5108777,23.2950439 L12.4918791,23.2987469 L12.4918791,23.2987469 L12.4767152,23.2950439 L12.4056548,23.2595131 C12.3958229,23.2563662 12.3870493,23.2590235 12.3821421,23.2649074 L12.3780323,23.275831 L12.360941,23.7031097 L12.3658947,23.7234994 L12.3769048,23.7357139 L12.4804777,23.8096931 L12.4953491,23.8136134 L12.4953491,23.8136134 L12.5071152,23.8096931 L12.6106902,23.7357139 L12.6232938,23.7196733 L12.6232938,23.7196733 L12.6266527,23.7031097 L12.609561,23.275831 C12.6075724,23.2657013 12.6010112,23.2592993 12.5934901,23.257841 L12.5934901,23.257841 Z M12.8583906,23.1452862 L12.8445485,23.1473072 L12.6598443,23.2396597 L12.6498822,23.2499052 L12.6498822,23.2499052 L12.6471943,23.2611114 L12.6650943,23.6906389 L12.6699349,23.7034178 L12.6699349,23.7034178 L12.678386,23.7104931 L12.8793402,23.8032389 C12.8914285,23.8068999 12.9022333,23.8029875 12.9078286,23.7952264 L12.9118235,23.7811639 L12.8776777,23.1665331 C12.8752882,23.1545897 12.8674102,23.1470016 12.8583906,23.1452862 L12.8583906,23.1452862 Z M12.1430473,23.1473072 C12.1332178,23.1423925 12.1221763,23.1452606 12.1156365,23.1525954 L12.1099173,23.1665331 L12.0757714,23.7811639 C12.0751323,23.7926639 12.0828099,23.8018602 12.0926481,23.8045676 L12.108256,23.8032389 L12.3092106,23.7104931 L12.3186497,23.7024347 L12.3186497,23.7024347 L12.3225043,23.6906389 L12.340401,23.2611114 L12.337245,23.2485176 L12.337245,23.2485176 L12.3277531,23.2396597 L12.1430473,23.1473072 Z" id="MingCute" fill-rule="nonzero"></path>
                <path d="M7.20006,2.02002 L13.2007,12.4135 L13.6329,12.1639 C16.2635,10.6452 19.6272,11.5465 21.146,14.1771 L21.2532,14.3627 C22.7128,16.8908 21.8466,20.1235 19.3184,21.5831 C18.0202,22.3326 16.3602,21.8878 15.6107,20.5896 L12,14.3357 L8.38936,20.5896 C7.63984,21.8878 5.9798,22.3326 4.68158,21.5831 C2.15346,20.1235 1.28727,16.8908 2.74688,14.3627 L2.85402,14.1771 C4.3728,11.5465 7.73655,10.6452 10.3672,12.1639 L10.7995,12.4135 L10.8454,12.3339 L6.46801,4.75207 C5.91572,3.79549 6.24347,2.5723 7.20006,2.02002 Z M4.58607,15.1771 L4.47893,15.3627 C3.5716,16.9342 4.11005,18.9437 5.68158,19.851 C6.02322,20.0483 6.46007,19.9312 6.65731,19.5896 L9.80017,14.146 L9.36716,13.896 C7.69313,12.9295 5.55257,13.5031 4.58607,15.1771 Z M14.6329,13.896 L14.1999,14.146 L17.3427,19.5896 C17.54,19.9312 17.9768,20.0483 18.3184,19.851 C19.89,18.9437 20.4284,16.9342 19.5211,15.3627 L19.414,15.1771 C18.4475,13.5031 16.3069,12.9295 14.6329,13.896 Z M16.8002,2.02002 C17.7111524,2.54600095 18.0518553,3.68051705 17.6051401,4.61370327 L17.5322,4.75207 L14.3049,10.342 L13.1502,8.34201 L16.8002,2.02002 Z" id="形状" fill="#09244B"></path>
            </g>
        </g>
    </g>
</svg>