<?xml version="1.0" encoding="UTF-8"?>
<svg width="24px" height="24px" viewBox="0 0 24 24" version="1.1" xmlns="http://www.w3.org/2000/svg" xmlns:xlink="http://www.w3.org/1999/xlink">
    <title>scissors_3_fill</title>
    <g id="页面-1" stroke="none" stroke-width="1" fill="none" fill-rule="evenodd">
        <g id="Design" transform="translate(-528.000000, -144.000000)">
            <g id="scissors_3_fill" transform="translate(528.000000, 144.000000)">
                <rect id="矩形" fill-rule="nonzero" x="0" y="0" width="24" height="24"></rect>
                <path d="M6,2.5 C8.48528,2.5 10.5,4.51472 10.5,7 C10.5,7.47799 10.4255,7.93857 10.2874,8.37076 L12.8578,10.1705 L19.0545,5.83152 C20.1856,5.03958 21.7444,5.31445 22.5364,6.44546 L22.8231,6.85504 L16.8959,11.0053 C16.9301,11.0018 16.9648,11 16.9999,11 C17.5522,11 17.9999,11.4477 17.9999,12 C17.9999,12.5523 17.5522,13 16.9999,13 L16.8901,12.994 L16.8901,12.994 L22.8231,17.1484 L22.5364,17.558 C21.7444,18.689 20.1855,18.9638 19.0545,18.1719 L12.8578,13.8329 L10.2883,15.632 C10.4258,16.0634 10.5,16.523 10.5,17 C10.5,19.4853 8.48528,21.5 6,21.5 C3.51472,21.5 1.5,19.4853 1.5,17 C1.5,14.5857086 3.40123781,12.6155099 5.78816441,12.5048979 L6,12.5 C6.0451,12.5 6.09005,12.5007 6.13484,12.502 C6.04904,12.3544 5.99991,12.183 5.99991,12 C5.99991,11.817 6.04904,11.6456 6.13484,11.498 L6,11.5 C3.51472,11.5 1.5,9.48528 1.5,7 C1.5,4.51472 3.51472,2.5 6,2.5 Z M6,15.5 C5.17157,15.5 4.5,16.1716 4.5,17 C4.5,17.8284 5.17157,18.5 6,18.5 C6.82843,18.5 7.5,17.8284 7.5,17 C7.5,16.1716 6.82843,15.5 6,15.5 Z M8.47119,10.7614 C8.20171,10.9388 7.91204,11.088 7.60636,11.2048 C7.84557,11.3875 7.99991,11.6757 7.99991,12 C7.99991,12.3243 7.84557,12.6125 7.60636,12.7952 C7.91299,12.9124 8.20352,13.0622 8.4737,13.2403 L10.2426,12.0017 L8.47119,10.7614 Z M2.99991,11 C3.55219,11 3.99991,11.4477 3.99991,12 C3.99991,12.5523 3.55219,13 2.99991,13 C2.44762,13 1.99991,12.5523 1.99991,12 C1.99991,11.4477 2.44762,11 2.99991,11 Z M20.9999,11 C21.5522,11 21.9999,11.4477 21.9999,12 C21.9999,12.5523 21.5522,13 20.9999,13 C20.4476,13 19.9999,12.5523 19.9999,12 C19.9999,11.4477 20.4476,11 20.9999,11 Z M16.1006,11.5622 L15.4729,12.0017 L16.1031,12.443 C16.037,12.3094 15.9999,12.1591 15.9999,12 C15.9999,11.843 16.0361,11.6945 16.1006,11.5622 Z M6,5.5 C5.17157,5.5 4.5,6.17157 4.5,7 C4.5,7.82843 5.17157,8.5 6,8.5 C6.82843,8.5 7.5,7.82843 7.5,7 C7.5,6.17157 6.82843,5.5 6,5.5 Z" id="形状" fill="#09244B"></path>
            </g>
        </g>
    </g>
</svg>