<svg xmlns="http://www.w3.org/2000/svg" width="24" height="24"><g fill="none" fill-rule="evenodd"><path d="M24 0v24H0V0zM12.593 23.258l-.011.002-.071.035-.02.004-.014-.004-.071-.035c-.01-.004-.019-.001-.024.005l-.004.01-.017.428.005.02.01.013.104.074.015.004.012-.004.104-.074.012-.016.004-.017-.017-.427c-.002-.01-.009-.017-.017-.018m.265-.113-.013.002-.185.093-.01.01-.003.011.018.43.005.012.008.007.201.093c.012.004.023 0 .029-.008l.004-.014-.034-.614c-.003-.012-.01-.02-.02-.022m-.715.002a.023.023 0 0 0-.027.006l-.006.014-.034.614c0 .012.007.02.017.024l.015-.002.201-.093.01-.008.004-.011.017-.43-.003-.012-.01-.01z"/><path fill="#09244B" d="m7.383 1.337 6 10.394a6 6 0 0 1 8.196 2.196l.107.186a5.786 5.786 0 0 1-2.118 7.903 3.214 3.214 0 0 1-4.39-1.176L12 15.336 8.822 20.84a3.214 3.214 0 0 1-4.39 1.176 5.786 5.786 0 0 1-2.118-7.903l.107-.186a6.002 6.002 0 0 1 7.242-2.641L6.035 5.002a2.5 2.5 0 0 1 .915-3.415zm-2.364 14.09-.107.186a2.786 2.786 0 0 0 1.02 3.805c.102.06.233.024.292-.078l2.893-5.01a3 3 0 0 0-4.098 1.097m9.864-1.098 2.893 5.01c.059.103.19.138.292.08a2.786 2.786 0 0 0 1.02-3.806l-.107-.186a3 3 0 0 0-4.098-1.098m1.734-12.992.433.25a2.5 2.5 0 0 1 .996 3.264l-.08.151-3.084 5.34-1.732-3z"/></g></svg>