<?xml version="1.0" encoding="UTF-8"?>
<svg width="24px" height="24px" viewBox="0 0 24 24" version="1.1" xmlns="http://www.w3.org/2000/svg" xmlns:xlink="http://www.w3.org/1999/xlink">
    <title>scissors_2_fill</title>
    <g id="页面-1" stroke="none" stroke-width="1" fill="none" fill-rule="evenodd">
        <g id="Design" transform="translate(-528.000000, -48.000000)">
            <g id="scissors_2_fill" transform="translate(528.000000, 48.000000)">
                 <path d="M24,0 L24,24 L0,24 L0,0 L24,0 Z M12.5934901,23.257841 L12.5819402,23.2595131 L12.5108777,23.2950439 L12.4918791,23.2987469 L12.4918791,23.2987469 L12.4767152,23.2950439 L12.4056548,23.2595131 C12.3958229,23.2563662 12.3870493,23.2590235 12.3821421,23.2649074 L12.3780323,23.275831 L12.360941,23.7031097 L12.3658947,23.7234994 L12.3769048,23.7357139 L12.4804777,23.8096931 L12.4953491,23.8136134 L12.4953491,23.8136134 L12.5071152,23.8096931 L12.6106902,23.7357139 L12.6232938,23.7196733 L12.6232938,23.7196733 L12.6266527,23.7031097 L12.609561,23.275831 C12.6075724,23.2657013 12.6010112,23.2592993 12.5934901,23.257841 L12.5934901,23.257841 Z M12.8583906,23.1452862 L12.8445485,23.1473072 L12.6598443,23.2396597 L12.6498822,23.2499052 L12.6498822,23.2499052 L12.6471943,23.2611114 L12.6650943,23.6906389 L12.6699349,23.7034178 L12.6699349,23.7034178 L12.678386,23.7104931 L12.8793402,23.8032389 C12.8914285,23.8068999 12.9022333,23.8029875 12.9078286,23.7952264 L12.9118235,23.7811639 L12.8776777,23.1665331 C12.8752882,23.1545897 12.8674102,23.1470016 12.8583906,23.1452862 L12.8583906,23.1452862 Z M12.1430473,23.1473072 C12.1332178,23.1423925 12.1221763,23.1452606 12.1156365,23.1525954 L12.1099173,23.1665331 L12.0757714,23.7811639 C12.0751323,23.7926639 12.0828099,23.8018602 12.0926481,23.8045676 L12.108256,23.8032389 L12.3092106,23.7104931 L12.3186497,23.7024347 L12.3186497,23.7024347 L12.3225043,23.6906389 L12.340401,23.2611114 L12.337245,23.2485176 L12.337245,23.2485176 L12.3277531,23.2396597 L12.1430473,23.1473072 Z" id="MingCute" fill-rule="nonzero"></path>
                <path d="M7.38297,1.33704 L13.3836,11.7305 C16.2533,10.0743 19.9223,11.0577 21.579,13.9271 L21.6861,14.1127 C23.2838,16.88 22.3357,20.4185 19.5684,22.0162 C18.031,22.9038 16.0652,22.377 15.1776,20.8396 L11.9999,15.3357 L8.82222,20.8396 C7.93462,22.377 5.96879,22.9038 4.43142,22.0162 C1.66416,20.4185 0.716022,16.88 2.3137,14.1127 L2.42085,13.9271 C3.89874,11.3674 6.97802,10.3085 9.66266,11.2856 L6.03489,5.0021 C5.34454,3.80637 5.75423,2.27739 6.94996,1.58704 L7.38297,1.33704 Z M5.01892,15.4271 L4.91178,15.6127 C4.14252,16.9451 4.59903,18.6488 5.93142,19.4181 C6.03391,19.4773 6.16497,19.4421 6.22414,19.3396 L9.117,14.3291 C7.68212,13.5006 5.84735,13.9923 5.01892,15.4271 Z M14.8828,14.3291 L17.7757,19.3396 C17.8349,19.4421 17.9659,19.4773 18.0684,19.4181 C19.4008,18.6488 19.8573,16.9451 19.088,15.6127 L18.9809,15.4271 C18.1525,13.9923 16.3177,13.5006 14.8828,14.3291 Z M16.617,1.33704 L17.05,1.58704 C18.1958792,2.24862542 18.6198937,3.68041095 18.045681,4.85098284 L17.9651,5.0021 L14.882,10.3421 L13.15,7.34209 L16.617,1.33704 Z" id="形状" fill="#09244B"></path>
            </g>
        </g>
    </g>
</svg>