<?xml version="1.0" encoding="UTF-8"?>
<svg width="24px" height="24px" viewBox="0 0 24 24" version="1.1" xmlns="http://www.w3.org/2000/svg" xmlns:xlink="http://www.w3.org/1999/xlink">
    <title>unfold_vertical_fill</title>
    <g id="Icon" stroke="none" stroke-width="1" fill="none" fill-rule="evenodd">
        <g id="Design" transform="translate(-96.000000, -528.000000)" fill-rule="nonzero">
            <g id="unfold_vertical_fill" transform="translate(96.000000, 528.000000)">
                <path d="M24,0 L24,24 L0,24 L0,0 L24,0 Z M12.5935,23.2578 L12.5819,23.2595 L12.5109,23.295 L12.4919,23.2987 L12.4767,23.295 L12.4057,23.2595 C12.3958,23.2564 12.387,23.259 12.3821,23.2649 L12.378,23.2758 L12.3609,23.7031 L12.3659,23.7235 L12.3769,23.7357 L12.4805,23.8097 L12.4953,23.8136 L12.5071,23.8097 L12.6107,23.7357 L12.6233,23.7197 L12.6267,23.7031 L12.6096,23.2758 C12.6076,23.2657 12.601,23.2593 12.5935,23.2578 Z M12.8584,23.1453 L12.8445,23.1473 L12.6598,23.2397 L12.6499,23.2499 L12.6472,23.2611 L12.6651,23.6906 L12.6699,23.7034 L12.6784,23.7105 L12.8793,23.8032 C12.8914,23.8069 12.9022,23.803 12.9078,23.7952 L12.9118,23.7812 L12.8777,23.1665 C12.8753,23.1546 12.8674,23.147 12.8584,23.1453 Z M12.143,23.1473 C12.1332,23.1424 12.1222,23.1453 12.1156,23.1526 L12.1099,23.1665 L12.0758,23.7812 C12.0751,23.7927 12.0828,23.8019 12.0926,23.8046 L12.1083,23.8032 L12.3092,23.7105 L12.3186,23.7024 L12.3225,23.6906 L12.3404,23.2611 L12.3372,23.2485 L12.3278,23.2397 L12.143,23.1473 Z" id="MingCute"></path>
                <path d="M4,11.0001 C3.44772,11.0001 3,11.4478 3,12.0001 C3,12.5523 3.44772,13.0001 4,13.0001 L5,13.0001 C5.55228,13.0001 6,12.5523 6,12.0001 C6,11.4478 5.55228,11.0001 5,11.0001 L4,11.0001 Z M9,11.0001 C8.44772,11.0001 8,11.4478 8,12.0001 C8,12.5523 8.44772,13.0001 9,13.0001 L10,13.0001 C10.5523,13.0001 11,12.5523 11,12.0001 C11,11.4478 10.5523,11.0001 10,11.0001 L9,11.0001 Z M13,12.0001 C13,11.4478 13.4477,11.0001 14,11.0001 L15,11.0001 C15.5523,11.0001 16,11.4478 16,12.0001 C16,12.5523 15.5523,13.0001 15,13.0001 L14,13.0001 C13.4477,13.0001 13,12.5523 13,12.0001 Z M19,11.0001 C18.4477,11.0001 18,11.4478 18,12.0001 C18,12.5523 18.4477,13.0001 19,13.0001 L20,13.0001 C20.5523,13.0001 21,12.5523 21,12.0001 C21,11.4478 20.5523,11.0001 20,11.0001 L19,11.0001 Z M10.5,17.2071 L10.2323,16.9394 C9.6465,16.3536 8.69676,16.3536 8.11097,16.9394 C7.52518,17.5252 7.52518,18.4749 8.11097,19.0607 L10.9394,21.8891 C11.5252,22.4749 12.4749,22.4749 13.0607,21.8891 L15.8891,19.0607 C16.4749,18.4749 16.4749,17.5252 15.8891,16.9394 C15.3034,16.3536 14.3536,16.3536 13.7678,16.9394 L13.5,17.2072 L13.5,16.0001 C13.5,15.1716 12.8284,14.5001 12,14.5001 C11.1716,14.5001 10.5,15.1716 10.5,16.0001 L10.5,17.2071 Z M12,9.50006 C11.1716,9.50006 10.5,8.82849 10.5,8.00006 L10.5,6.79301 L10.2323,7.06072 C9.6465,7.6465 8.69676,7.6465 8.11097,7.06072 C7.52518,6.47493 7.52518,5.52518 8.11097,4.9394 L10.9394,2.11097 C11.5252,1.52518 12.4749,1.52518 13.0607,2.11097 L15.8891,4.9394 C16.4749,5.52518 16.4749,6.47493 15.8891,7.06072 C15.3034,7.6465 14.3536,7.6465 13.7678,7.06072 L13.5,6.79289 L13.5,8.00006 C13.5,8.82849 12.8284,9.50006 12,9.50006 Z" id="形状" fill="#09244B"></path>
            </g>
        </g>
    </g>
</svg>