<?xml version="1.0" encoding="UTF-8"?>
<svg width="24px" height="24px" viewBox="0 0 24 24" version="1.1" xmlns="http://www.w3.org/2000/svg" xmlns:xlink="http://www.w3.org/1999/xlink">
    <title>vector_bezier_fill</title>
    <g id="页面-1" stroke="none" stroke-width="1" fill="none" fill-rule="evenodd">
        <g id="Editor" transform="translate(-336.000000, -144.000000)" fill-rule="nonzero">
            <g id="vector_bezier_fill" transform="translate(336.000000, 144.000000)">
                <rect id="矩形" transform="translate(12.000000, 12.000000) scale(-1, 1) translate(-12.000000, -12.000000) " x="0" y="0" width="24" height="24"></rect>
                <path d="M9,6 C9,4.89543 9.89543,4 11,4 L13,4 C14.1046,4 15,4.89543 15,6 L19.2676,6 C19.6134,5.4022 20.2597,5 21,5 C22.1046,5 23,5.89543 23,7 C23,8.10457 22.1046,9 21,9 C20.2597,9 19.6134,8.5978 19.2676,8 L15.876,8 C18.0589,9.21128 19.6156,11.414 19.9381,14 L20,14 C21.1046,14 22,14.8954 22,16 L22,18 C22,19.1046 21.1046,20 20,20 L18,20 C16.8954,20 16,19.1046 16,18 L16,16 C16,14.9231 16.8511,14.045 17.9173,14.0017 C17.5752,11.9587 16.2007,10.2656 14.3485,9.47703 C13.9929,9.80187 13.5196,10 13,10 L11,10 C10.4804,10 10.0071,9.80187 9.65151,9.47704 C7.79932,10.2656 6.42482,11.9587 6.08268,14.0017 C7.14891,14.045 8,14.9231 8,16 L8,18 C8,19.1046 7.10457,20 6,20 L4,20 C2.89543,20 2,19.1046 2,18 L2,16 C2,14.8954 2.89543,14 4,14 L4.06189,14 C4.38437,11.414 5.9411,9.21128 8.12399,8 L4.73244,8 C4.38663,8.5978 3.74028,9 3,9 C1.89543,9 1,8.10457 1,7 C1,5.89543 1.89543,5 3,5 C3.74028,5 4.38663,5.4022 4.73244,6 L9,6 Z" id="路径" fill="#09244B"></path>
            </g>
        </g>
    </g>
</svg>