<?xml version="1.0" encoding="UTF-8"?>
<svg width="24px" height="24px" viewBox="0 0 24 24" version="1.1" xmlns="http://www.w3.org/2000/svg" xmlns:xlink="http://www.w3.org/1999/xlink">
    <title>vector_bezier_3_line</title>
    <g id="页面-1" stroke="none" stroke-width="1" fill="none" fill-rule="evenodd">
        <g id="Design" transform="translate(-720.000000, 0.000000)">
            <g id="vector_bezier_3_line" transform="translate(720.000000, 0.000000)">
                <rect id="矩形" fill-rule="nonzero" transform="translate(12.000000, 12.000000) scale(-1, 1) translate(-12.000000, -12.000000) " x="0" y="0" width="24" height="24"></rect>
                <path d="M7,3 C8.05436227,3 8.91816517,3.81587733 8.99451427,4.85073759 L9,5 L15,5 C15,3.94563773 15.81585,3.08183483 16.8507339,3.00548573 L17,3 L19,3 C20.0543909,3 20.9181678,3.81587733 20.9945144,4.85073759 L21,5 L21,7 C21,8.05436227 20.18415,8.91816517 19.1492661,8.99451427 L19,9 L19,15 C20.0543909,15 20.9181678,15.81585 20.9945144,16.8507339 L21,17 L21,19 C21,20.0543909 20.18415,20.9181678 19.1492661,20.9945144 L19,21 L17,21 C15.9456091,21 15.0818322,20.18415 15.0054856,19.1492661 L15,19 L9,19 C9,20.0543909 8.18412267,20.9181678 7.14926241,20.9945144 L7,21 L5,21 C3.94563773,21 3.08183483,20.18415 3.00548573,19.1492661 L3,19 L3,17 C3,15.9456091 3.81587733,15.0818322 4.85073759,15.0054856 L5,15 L5,9 C3.94563773,9 3.08183483,8.18412267 3.00548573,7.14926241 L3,7 L3,5 C3,3.94563773 3.81587733,3.08183483 4.85073759,3.00548573 L5,3 L7,3 Z M7,17 L5,17 L5,19 L7,19 L7,17 Z M19,17 L17,17 L17,19 L19,19 L19,17 Z M15,7 L9,7 C9,8.05436227 8.18412267,8.91816517 7.14926241,8.99451427 L7,9 L7,15 C8.05436227,15 8.91816517,15.81585 8.99451427,16.8507339 L9,17 L15,17 C15,15.9456091 15.81585,15.0818322 16.8507339,15.0054856 L17,15 L17,9 C15.9456091,9 15.0818322,8.18412267 15.0054856,7.14926241 L15,7 Z M7,5 L5,5 L5,7 L7,7 L7,5 Z M19,5 L17,5 L17,7 L19,7 L19,5 Z" id="形状" fill="#09244B"></path>
            </g>
        </g>
    </g>
</svg>