<?xml version="1.0" encoding="UTF-8"?>
<svg width="24px" height="24px" viewBox="0 0 24 24" version="1.1" xmlns="http://www.w3.org/2000/svg" xmlns:xlink="http://www.w3.org/1999/xlink">
    <title>brackets_angle_line</title>
    <g id="Icon" stroke="none" stroke-width="1" fill="none" fill-rule="evenodd">
        <g id="Development" transform="translate(-1008.000000, 0.000000)">
            <g id="brackets_angle_line" transform="translate(1008.000000, 0.000000)">
                <path d="M24,0 L24,24 L0,24 L0,0 L24,0 Z M12.5935,23.2578 L12.5819,23.2595 L12.5109,23.295 L12.4919,23.2987 L12.4767,23.295 L12.4057,23.2595 C12.3958,23.2564 12.387,23.259 12.3821,23.2649 L12.378,23.2758 L12.3609,23.7031 L12.3659,23.7235 L12.3769,23.7357 L12.4805,23.8097 L12.4953,23.8136 L12.5071,23.8097 L12.6107,23.7357 L12.6233,23.7197 L12.6267,23.7031 L12.6096,23.2758 C12.6076,23.2657 12.601,23.2593 12.5935,23.2578 Z M12.8584,23.1453 L12.8445,23.1473 L12.6598,23.2397 L12.6499,23.2499 L12.6472,23.2611 L12.6651,23.6906 L12.6699,23.7034 L12.6784,23.7105 L12.8793,23.8032 C12.8914,23.8069 12.9022,23.803 12.9078,23.7952 L12.9118,23.7812 L12.8777,23.1665 C12.8753,23.1546 12.8674,23.147 12.8584,23.1453 Z M12.143,23.1473 C12.1332,23.1424 12.1222,23.1453 12.1156,23.1526 L12.1099,23.1665 L12.0758,23.7812 C12.0751,23.7927 12.0828,23.8019 12.0926,23.8046 L12.1083,23.8032 L12.3092,23.7105 L12.3186,23.7024 L12.3225,23.6906 L12.3404,23.2611 L12.3372,23.2485 L12.3278,23.2397 L12.143,23.1473 Z" id="MingCute" fill-rule="nonzero"></path>
                <path d="M9.848,4.53013 C10.1407,4.0618 9.99834,3.44485 9.53,3.15214 C9.06166,2.85943 8.44471,3.0018 8.152,3.47013 L3.152,11.4701 C2.94933,11.7944 2.94933,12.2059 3.152,12.5301 L8.152,20.5301 C8.44471,20.9985 9.06166,21.1408 9.53,20.8481 C9.99834,20.5554 10.1407,19.9385 9.848,19.4701 L5.17925,12.0001 L9.848,4.53013 Z M14.152,4.53013 C13.8593,4.0618 14.0017,3.44485 14.47,3.15214 C14.9383,2.85943 15.5553,3.0018 15.848,3.47013 L20.848,11.4701 C21.0507,11.7944 21.0507,12.2059 20.848,12.5301 L15.848,20.5301 C15.5553,20.9985 14.9383,21.1408 14.47,20.8481 C14.0017,20.5554 13.8593,19.9385 14.152,19.4701 L18.8208,12.0001 L14.152,4.53013 Z" id="形状" fill="#09244B"></path>
            </g>
        </g>
    </g>
</svg>