<?xml version="1.0" encoding="UTF-8"?>
<svg width="24px" height="24px" viewBox="0 0 24 24" version="1.1" xmlns="http://www.w3.org/2000/svg" xmlns:xlink="http://www.w3.org/1999/xlink">
    <title>brackets_line</title>
    <g id="页面-1" stroke="none" stroke-width="1" fill="none" fill-rule="evenodd">
        <g id="Development" transform="translate(-192.000000, 0.000000)" fill-rule="nonzero">
            <g id="brackets_line" transform="translate(192.000000, 0.000000)">
                <rect id="矩形" x="0" y="0" width="24" height="24"></rect>
                <path d="M8,3 C8.55228,3 9,3.44772 9,4 C9,4.55228 8.55228,5 8,5 L8,5 L6,5 L6,19 L8,19 C8.55228,19 9,19.4477 9,20 C9,20.5523 8.55228,21 8,21 L8,21 L6,21 C4.89543,21 4,20.1046 4,19 L4,19 L4,5 C4,3.89543 4.89543,3 6,3 L6,3 Z M18,3 C19.1046,3 20,3.89543 20,5 L20,19 C20,20.1046 19.1046,21 18,21 L16,21 C15.4477,21 15,20.5523 15,20 C15,19.4477 15.4477,19 16,19 L18,19 L18,5 L16,5 C15.4477,5 15,4.55228 15,4 C15,3.44772 15.4477,3 16,3 L18,3 Z" id="形状结合" fill="#09244B"></path>
            </g>
        </g>
    </g>
</svg>