<svg xmlns="http://www.w3.org/2000/svg" width="24" height="24"><g fill="none"><path d="M24 0v24H0V0zM12.593 23.258l-.011.002-.071.035-.02.004-.014-.004-.071-.035c-.01-.004-.019-.001-.024.005l-.004.01-.017.428.005.02.01.013.104.074.015.004.012-.004.104-.074.012-.016.004-.017-.017-.427c-.002-.01-.009-.017-.017-.018m.265-.113-.013.002-.185.093-.01.01-.003.011.018.43.005.012.008.007.201.093c.012.004.023 0 .029-.008l.004-.014-.034-.614c-.003-.012-.01-.02-.02-.022m-.715.002a.023.023 0 0 0-.027.006l-.006.014-.034.614c0 .012.007.02.017.024l.015-.002.201-.093.01-.008.004-.011.017-.43-.003-.012-.01-.01z"/><path fill="#09244B" d="M8 2.5a1.5 1.5 0 0 1 .144 2.993L8 5.5H7a.5.5 0 0 0-.492.41L6.5 6v4c0 .744-.232 1.433-.627 2a3.48 3.48 0 0 1 .619 1.754L6.5 14v4a.5.5 0 0 0 .41.492L7 18.5h1a1.5 1.5 0 0 1 .144 2.993L8 21.5H7a3.5 3.5 0 0 1-3.495-3.308L3.5 18v-4a.5.5 0 0 0-.5-.5 1.5 1.5 0 0 1 0-3 .5.5 0 0 0 .492-.41L3.5 10V6a3.5 3.5 0 0 1 3.308-3.495L7 2.5zm9 0a3.5 3.5 0 0 1 3.495 3.308L20.5 6v4a.5.5 0 0 0 .5.5 1.5 1.5 0 0 1 0 3 .5.5 0 0 0-.492.41L20.5 14v4a3.5 3.5 0 0 1-3.308 3.495L17 21.5h-1a1.5 1.5 0 0 1-.144-2.993L16 18.5h1a.5.5 0 0 0 .492-.41L17.5 18v-4c0-.744.232-1.433.627-2a3.481 3.481 0 0 1-.619-1.754L17.5 10V6a.5.5 0 0 0-.41-.492L17 5.5h-1a1.5 1.5 0 0 1-.144-2.993L16 2.5z"/></g></svg>