<?xml version="1.0" encoding="UTF-8"?>
<svg width="24px" height="24px" viewBox="0 0 24 24" version="1.1" xmlns="http://www.w3.org/2000/svg" xmlns:xlink="http://www.w3.org/1999/xlink">
    <title>braces_fill</title>
    <g id="页面-1" stroke="none" stroke-width="1" fill="none" fill-rule="evenodd">
        <g id="Development" transform="translate(-144.000000, -48.000000)" fill-rule="nonzero">
            <g id="braces_fill" transform="translate(144.000000, 48.000000)">
                <rect id="矩形" x="0" y="0" width="24" height="24"></rect>
                <path d="M8,2.5 C8.82843,2.5 9.5,3.17157 9.5,4 C9.5,4.77969882 8.90511446,5.420449 8.14446046,5.49313345 L8,5.5 L7,5.5 C6.75454222,5.5 6.5503921,5.67687704 6.50805575,5.91012499 L6.5,6 L6.5,10 C6.5,10.7436 6.26809,11.4331 5.87265,12 C6.22415222,12.5039111 6.44644556,13.1046914 6.49150454,13.754231 L6.5,14 L6.5,18 C6.5,18.2454222 6.67687704,18.4496 6.91012499,18.4919429 L7,18.5 L8,18.5 C8.82843,18.5 9.5,19.1716 9.5,20 C9.5,20.7796706 8.90511446,21.4204457 8.14446046,21.4931332 L8,21.5 L7,21.5 C5.13143333,21.5 3.60487333,20.0357256 3.50517885,18.1920355 L3.5,18 L3.5,14 C3.5,13.7239 3.27614,13.5 3,13.5 C2.17157,13.5 1.5,12.8284 1.5,12 C1.5,11.1716 2.17157,10.5 3,10.5 C3.24545778,10.5 3.4496079,10.3230914 3.49194425,10.0898645 L3.5,10 L3.5,6 C3.5,4.13143333 4.96427444,2.60487333 6.80796448,2.50517885 L7,2.5 L8,2.5 Z M17,2.5 C18.8685667,2.5 20.3951267,3.96427444 20.4948211,5.80796448 L20.5,6 L20.5,10 C20.5,10.2761 20.7239,10.5 21,10.5 C21.8284,10.5 22.5,11.1716 22.5,12 C22.5,12.8284 21.8284,13.5 21,13.5 C20.7545778,13.5 20.5504,13.6769086 20.5080571,13.9101355 L20.5,14 L20.5,18 C20.5,19.8685667 19.0357256,21.3951267 17.1920355,21.4948211 L17,21.5 L16,21.5 C15.1716,21.5 14.5,20.8284 14.5,20 C14.5,19.2203294 15.0949121,18.5795543 15.8555442,18.5068668 L16,18.5 L17,18.5 C17.2454222,18.5 17.4496,18.3230914 17.4919429,18.0898645 L17.5,18 L17.5,14 C17.5,13.2564 17.7319,12.5669 18.1273,12 C17.7758333,11.4960889 17.5535519,10.8953086 17.5084951,10.245769 L17.5,10 L17.5,6 C17.5,5.75454222 17.3230914,5.5503921 17.0898645,5.50805575 L17,5.5 L16,5.5 C15.1716,5.5 14.5,4.82843 14.5,4 C14.5,3.22030118 15.0949121,2.579551 15.8555442,2.50686655 L16,2.5 L17,2.5 Z" id="形状" fill="#09244B"></path>
            </g>
        </g>
    </g>
</svg>