<?xml version="1.0" encoding="UTF-8"?>
<svg width="24px" height="24px" viewBox="0 0 24 24" version="1.1" xmlns="http://www.w3.org/2000/svg" xmlns:xlink="http://www.w3.org/1999/xlink">
    <title>brackets_fill</title>
    <g id="页面-1" stroke="none" stroke-width="1" fill="none" fill-rule="evenodd">
        <g id="Development" transform="translate(-192.000000, -48.000000)" fill-rule="nonzero">
            <g id="brackets_fill" transform="translate(192.000000, 48.000000)">
                <rect id="矩形" x="0" y="0" width="24" height="24"></rect>
                <path d="M8,2.5 C8.82843,2.5 9.5,3.17157 9.5,4 C9.5,4.77969882 8.90511446,5.420449 8.14446046,5.49313345 L8,5.5 L6.5,5.5 L6.5,18.5 L8,18.5 C8.82843,18.5 9.5,19.1716 9.5,20 C9.5,20.7796706 8.90511446,21.4204457 8.14446046,21.4931332 L8,21.5 L6,21.5 C4.6745184,21.5 3.58996147,20.4684531 3.50531769,19.1643744 L3.5,19 L3.5,5 C3.5,3.6745184 4.53153766,2.58996147 5.83562452,2.50531769 L6,2.5 L8,2.5 Z M18,2.5 C19.3807,2.5 20.5,3.61929 20.5,5 L20.5,19 C20.5,20.3807 19.3807,21.5 18,21.5 L16,21.5 C15.1716,21.5 14.5,20.8284 14.5,20 C14.5,19.1716 15.1716,18.5 16,18.5 L17.5,18.5 L17.5,5.5 L16,5.5 C15.1716,5.5 14.5,4.82843 14.5,4 C14.5,3.17157 15.1716,2.5 16,2.5 L18,2.5 Z" id="形状" fill="#09244B"></path>
            </g>
        </g>
    </g>
</svg>