<?xml version="1.0" encoding="UTF-8"?>
<svg width="24px" height="24px" viewBox="0 0 24 24" version="1.1" xmlns="http://www.w3.org/2000/svg" xmlns:xlink="http://www.w3.org/1999/xlink">
    <title>bug_line</title>
    <g id="页面-1" stroke="none" stroke-width="1" fill="none" fill-rule="evenodd">
        <g id="Development" transform="translate(-240.000000, 0.000000)" fill-rule="nonzero">
            <g id="bug_line" transform="translate(240.000000, 0.000000)">
                <rect id="矩形" x="0" y="0" width="24" height="24"></rect>
                <path d="M20.4472,6.10557 C20.9412,6.35256 21.1414,6.95324 20.8944,7.44721 C20.5411,8.15391 19.8932,8.77306 19.2422,9.20705 C18.9509,9.40128 18.6218,9.5831 18.2759,9.72351 C18.5654,10.434 18.7748,11.1988 18.8918,12 L21,12 C21.5523,12 22,12.4477 22,13 C22,13.5523 21.5523,14 21,14 L18.9878,14 C18.9304,15.1717 18.6728,16.3028 18.2484,17.3273 C18.8198,17.6571 19.2112,18.1864 19.4569,18.6778 C19.851,19.4659 20,20.3744 20,21 C20,21.5523 19.5523,22 19,22 C18.48715,22 18.0644908,21.613973 18.0067275,21.1166239 L18,21 C18,20.6256 17.899,20.0341 17.6681,19.5722 C17.5381,19.3122 17.4085,19.1633 17.2826,19.083 C16.0307,20.8443 14.1769,22 12,22 C9.82309,22 7.96929,20.8443 6.71736,19.083 C6.59145,19.1633 6.46195,19.3122 6.33193,19.5722 C6.101,20.0341 6,20.6256 6,21 C6,21.5523 5.55228,22 5,22 C4.44772,22 4,21.5523 4,21 C4,20.3744 4.149,19.4659 4.54307,18.6778 C4.78878,18.1864 5.18022,17.6571 5.75156,17.3273 C5.32717,16.3028 5.0696,15.1717 5.01223,14 L3,14 C2.44772,14 2,13.5523 2,13 C2,12.4477 2.44772,12 3,12 L5.10825,12 C5.22524,11.1988 5.43459,10.434 5.72408,9.72351 C5.37824,9.5831 5.04914,9.40128 4.7578,9.20705 C4.10682,8.77306 3.45892,8.15391 3.10557,7.44721 C2.85858,6.95324 3.05881,6.35256 3.55279,6.10557 C4.01147643,5.87622214 4.56217301,6.03248745 4.83625773,6.45148925 L4.89443,6.55279 C5.04108,6.84609 5.39318,7.22694 5.8672,7.54295 C6.35266,7.86659 6.78116,8 7,8 L17,8 C17.2188,8 17.6473,7.86659 18.1328,7.54295 C18.54755,7.26644125 18.8689703,6.94028938 19.0411225,6.66658377 L19.1056,6.55279 C19.3526,6.05881 19.9532,5.85858 20.4472,6.10557 Z M16.2083,10 L7.79166,10 C7.29439,11.0035 7,12.202 7,13.5 C7,16.8086 8.83681,19.2729 11,19.864 L11,13 C11,12.4477 11.4477,12 12,12 C12.5523,12 13,12.4477 13,13 L13,19.864 C15.1632,19.2729 17,16.8086 17,13.5 C17,12.202 16.7056,11.0035 16.2083,10 Z M12,3 C13.852,3 15.4675,4.00738 16.3305,5.49927 L17.1986,7 L6.80143,7 L7.66955,5.49927 C8.53256,4.00738 10.1481,3 12,3 Z" id="形状" fill="#09244B"></path>
            </g>
        </g>
    </g>
</svg>