<svg width="24" height="24" viewBox="0 0 24 24" fill="none" xmlns="http://www.w3.org/2000/svg">
<rect width="24" height="24" fill="white" fill-opacity="0.01"/>
<path d="M13.476 3.629C14.2918 3.77285 14.8365 4.55084 14.6927 5.36668L12.2616 19.154C12.1178 19.9698 11.3398 20.5146 10.5239 20.3707C9.7081 20.2269 9.16334 19.4489 9.3072 18.633L11.7383 4.84574C11.8821 4.02989 12.6601 3.48514 13.476 3.629Z" fill="#09244B"/>
<path d="M7.56063 6.69652C8.14641 7.2823 8.14641 8.23205 7.56063 8.81784L4.37864 11.9998L7.56063 15.1818C8.14641 15.7676 8.14641 16.7173 7.56063 17.3031C6.97484 17.8889 6.02509 17.8889 5.4393 17.3031L1.19666 13.0605C0.915359 12.7792 0.757324 12.3976 0.757324 11.9998C0.757324 11.602 0.915359 11.2205 1.19666 10.9392L5.4393 6.69652C6.02509 6.11073 6.97484 6.11073 7.56063 6.69652Z" fill="#09244B"/>
<path d="M16.4393 8.81784C15.8535 8.23205 15.8535 7.2823 16.4393 6.69652C17.0251 6.11073 17.9748 6.11073 18.5606 6.69652L22.8033 10.9392C23.0846 11.2205 23.2426 11.602 23.2426 11.9998C23.2426 12.3976 23.0846 12.7792 22.8033 13.0605L18.5606 17.3031C17.9748 17.8889 17.0251 17.8889 16.4393 17.3031C15.8535 16.7173 15.8535 15.7676 16.4393 15.1818L19.6213 11.9998L16.4393 8.81784Z" fill="#09244B"/>
</svg>
