<?xml version="1.0" encoding="UTF-8"?>
<svg width="24px" height="24px" viewBox="0 0 24 24" version="1.1" xmlns="http://www.w3.org/2000/svg" xmlns:xlink="http://www.w3.org/1999/xlink">
    <title>code_line</title>
    <g id="页面-1" stroke="none" stroke-width="1" fill="none" fill-rule="evenodd">
        <g id="Development" fill-rule="nonzero">
            <g id="code_line">
                <path d="M24,0 L24,24 L0,24 L0,0 L24,0 Z M12.5934901,23.257841 L12.5819402,23.2595131 L12.5108777,23.2950439 L12.4918791,23.2987469 L12.4918791,23.2987469 L12.4767152,23.2950439 L12.4056548,23.2595131 C12.3958229,23.2563662 12.3870493,23.2590235 12.3821421,23.2649074 L12.3780323,23.275831 L12.360941,23.7031097 L12.3658947,23.7234994 L12.3769048,23.7357139 L12.4804777,23.8096931 L12.4953491,23.8136134 L12.4953491,23.8136134 L12.5071152,23.8096931 L12.6106902,23.7357139 L12.6232938,23.7196733 L12.6232938,23.7196733 L12.6266527,23.7031097 L12.609561,23.275831 C12.6075724,23.2657013 12.6010112,23.2592993 12.5934901,23.257841 L12.5934901,23.257841 Z M12.8583906,23.1452862 L12.8445485,23.1473072 L12.6598443,23.2396597 L12.6498822,23.2499052 L12.6498822,23.2499052 L12.6471943,23.2611114 L12.6650943,23.6906389 L12.6699349,23.7034178 L12.6699349,23.7034178 L12.678386,23.7104931 L12.8793402,23.8032389 C12.8914285,23.8068999 12.9022333,23.8029875 12.9078286,23.7952264 L12.9118235,23.7811639 L12.8776777,23.1665331 C12.8752882,23.1545897 12.8674102,23.1470016 12.8583906,23.1452862 L12.8583906,23.1452862 Z M12.1430473,23.1473072 C12.1332178,23.1423925 12.1221763,23.1452606 12.1156365,23.1525954 L12.1099173,23.1665331 L12.0757714,23.7811639 C12.0751323,23.7926639 12.0828099,23.8018602 12.0926481,23.8045676 L12.108256,23.8032389 L12.3092106,23.7104931 L12.3186497,23.7024347 L12.3186497,23.7024347 L12.3225043,23.6906389 L12.340401,23.2611114 L12.337245,23.2485176 L12.337245,23.2485176 L12.3277531,23.2396597 L12.1430473,23.1473072 Z" id="MingCute" fill-rule="nonzero"></path>
                <path d="M13.3892,4.12132 C13.9331,4.21722 14.2963,4.73588 14.2004,5.27977 L11.7693,19.0671 C11.6734,19.611 11.1547,19.9741 10.6108,19.8782 C10.0669,19.7823 9.70376,19.2637 9.79966,18.7198 L12.2307,4.93248 C12.3266,4.38858 12.8453,4.02541 13.3892,4.12132 Z M7.20707,7.05004 C7.5976,7.44056 7.5976,8.07373 7.20707,8.46425 L3.67154,11.9998 L7.20707,15.5353 C7.5976,15.9258 7.5976,16.559 7.20707,16.9495 C6.81655,17.3401 6.18338,17.3401 5.79286,16.9495 L1.55022,12.7069 C1.36268,12.5194 1.25732,12.265 1.25732,11.9998 C1.25732,11.7346 1.36268,11.4802 1.55022,11.2927 L5.79286,7.05004 C6.18338,6.65951 6.81655,6.65951 7.20707,7.05004 Z M18.2071,7.05004 L22.4497,11.2927 C22.6372,11.4802 22.7426,11.7346 22.7426,11.9998 C22.7426,12.265 22.6372,12.5194 22.4497,12.7069 L18.2071,16.9495 C17.8165,17.3401 17.1834,17.3401 16.7929,16.9495 C16.4023,16.559 16.4023,15.9258 16.7929,15.5353 L20.3284,11.9998 L16.7929,8.46425 C16.4023,8.07373 16.4023,7.44056 16.7929,7.05004 C17.1834,6.65951 17.8165,6.65951 18.2071,7.05004 Z" id="形状" fill="#09244B"></path>
            </g>
        </g>
    </g>
</svg>