<?xml version="1.0" encoding="UTF-8"?>
<svg width="24px" height="24px" viewBox="0 0 24 24" version="1.1" xmlns="http://www.w3.org/2000/svg" xmlns:xlink="http://www.w3.org/1999/xlink">
    <title>group_line</title>
    <g id="页面-1" stroke="none" stroke-width="1" fill="none" fill-rule="evenodd">
        <g id="Development" transform="translate(-768.000000, 0.000000)">
            <g id="group_line" transform="translate(768.000000, 0.000000)">
                <rect id="矩形" fill-rule="nonzero" x="0" y="0" width="24" height="24"></rect>
                <path d="M15,6 C15,7.30622 14.1652,8.41746 13,8.82929 L13,11 L16,11 C17.6569,11 19,12.3431 19,14 L19,15.1707 C20.1652,15.5825 21,16.6938 21,18 C21,19.6569 19.6569,21 18,21 C16.3431,21 15,19.6569 15,18 C15,16.6938 15.8348,15.5825 17,15.1707 L17,14 C17,13.4477 16.5523,13 16,13 L8,13 C7.44772,13 7,13.4477 7,14 L7,15.1707 C8.16519,15.5825 9,16.6938 9,18 C9,19.6569 7.65685,21 6,21 C4.34315,21 3,19.6569 3,18 C3,16.6938 3.83481,15.5825 5,15.1707 L5,14 C5,12.3431 6.34315,11 8,11 L11,11 L11,8.82929 C9.83481,8.41746 9,7.30622 9,6 C9,4.34315 10.3431,3 12,3 C13.6569,3 15,4.34315 15,6 Z M12,5 C11.4477,5 11,5.44772 11,6 C11,6.55228 11.4477,7 12,7 C12.5523,7 13,6.55228 13,6 C13,5.44772 12.5523,5 12,5 Z M6,17 C5.44772,17 5,17.4477 5,18 C5,18.5523 5.44772,19 6,19 C6.55228,19 7,18.5523 7,18 C7,17.4477 6.55228,17 6,17 Z M18,17 C17.4477,17 17,17.4477 17,18 C17,18.5523 17.4477,19 18,19 C18.5523,19 19,18.5523 19,18 C19,17.4477 18.5523,17 18,17 Z" id="形状" fill="#09244B"></path>
            </g>
        </g>
    </g>
</svg>