<?xml version="1.0" encoding="UTF-8"?>
<svg width="24px" height="24px" viewBox="0 0 24 24" version="1.1" xmlns="http://www.w3.org/2000/svg" xmlns:xlink="http://www.w3.org/1999/xlink">
    <title>directory_line</title>
    <g id="页面-1" stroke="none" stroke-width="1" fill="none" fill-rule="evenodd">
        <g id="Development" transform="translate(-480.000000, 0.000000)">
            <g id="directory_line" transform="translate(480.000000, 0.000000)">
                <rect id="矩形" fill-rule="nonzero" x="0" y="0" width="24" height="24"></rect>
                <path d="M6,3 C7.65685,3 9,4.34315 9,6 C9,7.30622 8.16519,8.41746 7,8.82929 L7,11 L15.1707,11 C15.5825,9.83481 16.6938,9 18,9 C19.6569,9 21,10.3431 21,12 C21,13.6569 19.6569,15 18,15 C16.6938,15 15.5825,14.1652 15.1707,13 L7,13 L7,17 C7,17.5523 7.44772,18 8,18 L15.1707,18 C15.5825,16.8348 16.6938,16 18,16 C19.6569,16 21,17.3431 21,19 C21,20.6569 19.6569,22 18,22 C16.6938,22 15.5825,21.1652 15.1707,20 L8,20 C6.34315,20 5,18.6569 5,17 L5,8.82929 C3.83481,8.41746 3,7.30622 3,6 C3,4.34315 4.34315,3 6,3 Z M18,18 C17.4477,18 17,18.4477 17,19 C17,19.5523 17.4477,20 18,20 C18.5523,20 19,19.5523 19,19 C19,18.4477 18.5523,18 18,18 Z M18,11 C17.4477,11 17,11.4477 17,12 C17,12.5523 17.4477,13 18,13 C18.5523,13 19,12.5523 19,12 C19,11.4477 18.5523,11 18,11 Z M6,5 C5.44772,5 5,5.44772 5,6 C5,6.55228 5.44772,7 6,7 C6.55228,7 7,6.55228 7,6 C7,5.44772 6.55228,5 6,5 Z" id="形状" fill="#09244B"></path>
            </g>
        </g>
    </g>
</svg>