<svg width="24" height="24" viewBox="0 0 24 24" fill="none" xmlns="http://www.w3.org/2000/svg">
<rect width="24" height="24" fill="white" fill-opacity="0.01"/>
<path d="M3 6C3 4.34315 4.34315 3 6 3C7.65685 3 9 4.34315 9 6C9 7.30622 8.16519 8.41746 7 8.82929V11.5351C7.58835 11.1948 8.27143 11 9 11H15C16.1046 11 17 10.1046 17 9V8.82929C15.8348 8.41746 15 7.30622 15 6C15 4.34315 16.3431 3 18 3C19.6569 3 21 4.34315 21 6C21 7.30622 20.1652 8.41746 19 8.82929V9C19 11.2091 17.2091 13 15 13H9C7.89543 13 7 13.8954 7 15V15.1707C8.16519 15.5825 9 16.6938 9 18C9 19.6569 7.65685 21 6 21C4.34315 21 3 19.6569 3 18C3 16.6938 3.83481 15.5825 5 15.1707V8.82929C3.83481 8.41746 3 7.30622 3 6Z" fill="#09244B"/>
</svg>
