<?xml version="1.0" encoding="UTF-8"?>
<svg width="24px" height="24px" viewBox="0 0 24 24" version="1.1" xmlns="http://www.w3.org/2000/svg" xmlns:xlink="http://www.w3.org/1999/xlink">
    <title>hotkey_fill</title>
    <g id="页面-1" stroke="none" stroke-width="1" fill="none" fill-rule="evenodd">
        <g id="hotkey_fill">
            <rect id="矩形" x="0" y="0" width="24" height="24"></rect>
            <path d="M18,3 C19.6569,3 21,4.34315 21,6 L21,18 C21,19.6569 19.6569,21 18,21 L6,21 C4.34315,21 3,19.6569 3,18 L3,6 C3,4.34315 4.34315,3 6,3 L18,3 Z M15.2934,16.7076 C14.9018,16.895 14.4631,17 14,17 L5,17 L5,18 C5,18.5523 5.44772,19 6,19 L17.5858,19 L15.2934,16.7076 Z M18,5 L17,5 L17,14 C17,14.4631 16.895,14.9018 16.7076,15.2934 L19,17.5858 L19,6 C19,5.44772 18.5523,5 18,5 Z M9,7 C8.44772,7 8,7.44772 8,8 L8,8 L8,12 C8,12.5523 8.44772,13 9,13 C9.55228,13 10,12.5523 10,12 L10,12 L10,11.8685 L11.4453,12.8321 C11.9048,13.1384 12.5257,13.0142 12.8321,12.5547 C13.1384,12.0952 13.0142,11.4743 12.5547,11.1679 L12.5547,11.1679 L11.1778,10.25 L12.5547,9.33205 C13.0142,9.0257 13.1384,8.40483 12.8321,7.9453 C12.5257,7.48577 11.9048,7.3616 11.4453,7.66795 L11.4453,7.66795 L10,8.63148 L10,8 C10,7.44772 9.55228,7 9,7 Z" id="形状结合" fill="#09244B" fill-rule="nonzero"></path>
        </g>
    </g>
</svg>