<?xml version="1.0" encoding="UTF-8"?>
<svg width="24px" height="24px" viewBox="0 0 24 24" version="1.1" xmlns="http://www.w3.org/2000/svg" xmlns:xlink="http://www.w3.org/1999/xlink">
    <title>inspect_line</title>
    <g id="Icon" stroke="none" stroke-width="1" fill="none" fill-rule="evenodd">
        <g id="Development" transform="translate(-96.000000, -96.000000)" fill-rule="nonzero">
            <g id="inspect_line" transform="translate(96.000000, 96.000000)">
                <path d="M24,0 L24,24 L0,24 L0,0 L24,0 Z M12.5935,23.2578 L12.5819,23.2595 L12.5109,23.295 L12.4919,23.2987 L12.4767,23.295 L12.4057,23.2595 C12.3958,23.2564 12.387,23.259 12.3821,23.2649 L12.378,23.2758 L12.3609,23.7031 L12.3659,23.7235 L12.3769,23.7357 L12.4805,23.8097 L12.4953,23.8136 L12.5071,23.8097 L12.6107,23.7357 L12.6233,23.7197 L12.6267,23.7031 L12.6096,23.2758 C12.6076,23.2657 12.601,23.2593 12.5935,23.2578 Z M12.8584,23.1453 L12.8445,23.1473 L12.6598,23.2397 L12.6499,23.2499 L12.6472,23.2611 L12.6651,23.6906 L12.6699,23.7034 L12.6784,23.7105 L12.8793,23.8032 C12.8914,23.8069 12.9022,23.803 12.9078,23.7952 L12.9118,23.7812 L12.8777,23.1665 C12.8753,23.1546 12.8674,23.147 12.8584,23.1453 Z M12.143,23.1473 C12.1332,23.1424 12.1222,23.1453 12.1156,23.1526 L12.1099,23.1665 L12.0758,23.7812 C12.0751,23.7927 12.0828,23.8019 12.0926,23.8046 L12.1083,23.8032 L12.3092,23.7105 L12.3186,23.7024 L12.3225,23.6906 L12.3404,23.2611 L12.3372,23.2485 L12.3278,23.2397 L12.143,23.1473 Z" id="MIngCute"></path>
                <path d="M10.611,10.611 C10.9026,10.3194 11.3434,10.2367 11.7209,10.4028 L20.5597,14.2919 C20.9474,14.4625 21.1856,14.8588 21.1542,15.2813 C21.1228,15.7037 20.8287,16.0605 20.42,16.172 L17.082,17.0821 L16.172,20.42 C16.0606,20.8286 15.7038,21.1228 15.2813,21.1542 C14.8589,21.1856 14.4625,20.9474 14.2919,20.5597 L10.4028,11.7208 C10.2367,11.3433 10.3194,10.9026 10.611,10.611 Z M17,3 C18.6569,3 20,4.34315 20,6 L20,9 C20,9.55228 19.5523,10 19,10 C18.4477,10 18,9.55228 18,9 L18,6 C18,5.44772 17.5523,5 17,5 L6,5 C5.44772,5 5,5.44772 5,6 L5,17 C5,17.5523 5.44772,18 6,18 L9,18 C9.55228,18 10,18.4477 10,19 C10,19.5523 9.55228,20 9,20 L6,20 C4.34315,20 3,18.6569 3,17 L3,6 C3,4.34315 4.34315,3 6,3 L17,3 Z M13.2691,13.269 L14.9852,17.1694 L15.3028,16.0046 C15.3959,15.6629 15.6628,15.396 16.0045,15.3029 L17.1695,14.9852 L13.2691,13.269 Z" id="形状" fill="#09244B"></path>
            </g>
        </g>
    </g>
</svg>