<svg xmlns="http://www.w3.org/2000/svg" width="24" height="24" viewBox="0 0 24 24"><title>mcp_fill</title><g fill="none" fill-rule="nonzero"><path d="M24 0v24H0V0zM12.594 23.258l-.012.002-.071.035-.02.004-.014-.004-.071-.036q-.016-.004-.024.006l-.004.01-.017.428.005.02.01.013.104.074.015.004.012-.004.104-.074.012-.016.004-.017-.017-.427q-.004-.016-.016-.018m.264-.113-.014.002-.184.093-.01.01-.003.011.018.43.005.012.008.008.201.092q.019.005.029-.008l.004-.014-.034-.614q-.005-.019-.02-.022m-.715.002a.02.02 0 0 0-.027.006l-.006.014-.034.614q.001.018.017.024l.015-.002.201-.093.01-.008.003-.011.018-.43-.003-.012-.01-.01z"/><path fill="#09244b" d="M8.758 2.808a4.998 4.998 0 0 1 8.53 3.486 5 5 0 0 1 3.491 8.534l-4.95 4.95.353.354a1.5 1.5 0 0 1-2.121 2.121l-.707-.707a2.5 2.5 0 0 1 0-3.536l5.303-5.303a2.001 2.001 0 0 0-2.829-2.829l-3.888 3.89a1.5 1.5 0 0 1-1.557.353 1.5 1.5 0 0 1-.57-2.477l3.891-3.89A1.998 1.998 0 0 0 10.88 4.93l-6.013 6.013a1.5 1.5 0 0 1-2.12-2.122zm2.475 2.474a1.5 1.5 0 0 1 2.12 2.122l-3.889 3.89a2 2 0 0 0 2.83 2.827l3.888-3.89a1.5 1.5 0 0 1 2.12 2.123l-3.888 3.888a5 5 0 1 1-7.071-7.07z"/></g></svg>