<svg xmlns="http://www.w3.org/2000/svg" width="24" height="24" viewBox="0 0 24 24"><title>mcp_line</title><g fill="none" fill-rule="nonzero"><path d="M24 0v24H0V0zM12.594 23.258l-.012.002-.071.035-.02.004-.014-.004-.071-.036q-.016-.004-.024.006l-.004.01-.017.428.005.02.01.013.104.074.015.004.012-.004.104-.074.012-.016.004-.017-.017-.427q-.004-.016-.016-.018m.264-.113-.014.002-.184.093-.01.01-.003.011.018.43.005.012.008.008.201.092q.019.005.029-.008l.004-.014-.034-.614q-.005-.019-.02-.022m-.715.002a.02.02 0 0 0-.027.006l-.006.014-.034.614q.001.018.017.024l.015-.002.201-.093.01-.008.003-.011.018-.43-.003-.012-.01-.01z"/><path fill="#09244b" d="M9.112 3.161a4.498 4.498 0 0 1 7.65 3.658 4.5 4.5 0 0 1 3.662 7.656l-5.303 5.304.707.707a1 1 0 1 1-1.414 1.414l-.707-.707a2 2 0 0 1 0-2.83l5.304-5.302a2.5 2.5 0 0 0-3.536-3.536l-3.889 3.89a1 1 0 0 1-1.173.178l-.004-.002a1 1 0 0 1-.242-1.593l3.89-3.89a2.498 2.498 0 0 0-3.53-3.533l-6.013 6.013A1 1 0 0 1 3.1 9.173zm2.474 2.475A1 1 0 0 1 13 7.05l-3.89 3.89a2.5 2.5 0 0 0 3.537 3.535l3.888-3.889A1 1 0 1 1 17.95 12l-3.888 3.889a4.5 4.5 0 0 1-6.365-6.364z"/></g></svg>