<?xml version="1.0" encoding="UTF-8"?>
<svg width="24px" height="24px" viewBox="0 0 24 24" version="1.1" xmlns="http://www.w3.org/2000/svg" xmlns:xlink="http://www.w3.org/1999/xlink">
    <title>parentheses_line</title>
    <g id="页面-1" stroke="none" stroke-width="1" fill="none" fill-rule="evenodd">
        <g id="Development" transform="translate(-384.000000, 0.000000)" fill-rule="nonzero">
            <g id="parentheses_line" transform="translate(384.000000, 0.000000)">
                <rect id="矩形" x="0" y="0" width="24" height="24"></rect>
                <path d="M6.11421,3.52869 C6.37448,3.04158 6.98035,2.85769 7.46746,3.11796 C7.95458,3.37823 8.13847,3.9841 7.8782,4.47121 C6.67981,6.71407 6,9.27614 6,12 C6,14.7238 6.67981,17.2858 7.8782,19.5287 C8.13847,20.0158 7.95458,20.6217 7.46746,20.8819 C6.98035,21.1422 6.37448,20.9583 6.11421,20.4712 C4.76467,17.9455 4,15.0605 4,12 C4,8.93938 4.76467,6.05444 6.11421,3.52869 Z M17.882,3.52869 C19.2315,6.05444 19.9962,8.93938 19.9962,12 C19.9962,15.0605 19.2315,17.9455 17.882,20.4712 C17.6217,20.9583 17.0159,21.1422 16.5288,20.8819 C16.0416,20.6217 15.8577,20.0158 16.118,19.5287 C17.3164,17.2858 17.9962,14.7238 17.9962,12 C17.9962,9.27614 17.3164,6.71407 16.118,4.47121 C15.8577,3.9841 16.0416,3.37823 16.5288,3.11796 C17.0159,2.85769 17.6217,3.04158 17.882,3.52869 Z" id="形状" fill="#09244B"></path>
            </g>
        </g>
    </g>
</svg>