<?xml version="1.0" encoding="UTF-8"?>
<svg width="24px" height="24px" viewBox="0 0 24 24" version="1.1" xmlns="http://www.w3.org/2000/svg" xmlns:xlink="http://www.w3.org/1999/xlink">
    <title>parentheses_fill</title>
    <g id="页面-1" stroke="none" stroke-width="1" fill="none" fill-rule="evenodd">
        <g id="Development" transform="translate(-384.000000, -48.000000)" fill-rule="nonzero">
            <g id="parentheses_fill" transform="translate(384.000000, 48.000000)">
                <rect id="矩形" x="0" y="0" width="24" height="24"></rect>
                <path d="M5.67321,3.29316 C6.06362,2.56249 6.97243,2.28665 7.70309,2.67706 C8.43376,3.06747 8.7096,3.97627 8.31919,4.70694 C7.1586,6.87907 6.5,9.36043 6.5,12.0001 C6.5,14.6397 7.1586,17.121 8.31919,19.2932 C8.7096,20.0238 8.43376,20.9326 7.70309,21.323 C6.97243,21.7134 6.06362,21.4376 5.67321,20.7069 C4.28588,18.1105 3.5,15.1448 3.5,12.0001 C3.5,8.85529 4.28588,5.88963 5.67321,3.29316 Z M18.323,3.29316 C19.7103,5.88963 20.4962,8.85529 20.4962,12.0001 C20.4962,15.1448 19.7103,18.1105 18.323,20.7069 C17.9326,21.4376 17.0238,21.7134 16.2931,21.323 C15.5625,20.9326 15.2866,20.0238 15.677,19.2932 C16.8376,17.121 17.4962,14.6397 17.4962,12.0001 C17.4962,9.36043 16.8376,6.87907 15.677,4.70694 C15.2866,3.97627 15.5625,3.06747 16.2931,2.67706 C17.0238,2.28665 17.9326,2.56249 18.323,3.29316 Z" id="形状" fill="#09244B"></path>
            </g>
        </g>
    </g>
</svg>