<?xml version="1.0" encoding="UTF-8"?>
<svg width="24px" height="24px" viewBox="0 0 24 24" version="1.1" xmlns="http://www.w3.org/2000/svg" xmlns:xlink="http://www.w3.org/1999/xlink">
    <title>performance_fill</title>
    <g id="页面-1" stroke="none" stroke-width="1" fill="none" fill-rule="evenodd">
        <g id="Development" transform="translate(-864.000000, -48.000000)">
            <g id="performance_fill" transform="translate(864.000000, 48.000000)">
                <rect id="矩形" fill-rule="nonzero" x="0" y="0" width="24" height="24"></rect>
                <path d="M5,3 C3.89543,3 3,3.89543 3,5 L3,19 C3,20.1046 3.89543,21 5,21 L19,21 C20.1046,21 21,20.1046 21,19 L21,5 C21,3.89543 20.1046,3 19,3 L5,3 Z M15.4664,7.74107 C15.1884,6.81466 13.8929,6.77106 13.5533,7.67665 L11.5555,13.0041 L10.4563,9.70668 C10.1718,8.85308 8.9972,8.76953 8.59478,9.57438 L7.38197,12 L7,12 C6.44772,12 6,12.4477 6,13 C6,13.5523 6.44772,14 7,14 L7.99382,14 C8.37638,14 8.7261,13.7839 8.89719,13.4417 L9.31476,12.6066 L10.5424,16.2894 C10.8433,17.1923 12.112,17.216 12.4462,16.3247 L14.3946,11.1289 L15.04,13.2802 C15.1682,13.7075 15.5614,14 16.0074,14 L17,14 C17.5523,14 18,13.5523 18,13 C18,12.4477 17.5523,12 17,12 L16.744,12 L15.4664,7.74107 Z" id="形状" fill="#09244B"></path>
            </g>
        </g>
    </g>
</svg>