<?xml version="1.0" encoding="UTF-8"?>
<svg width="24px" height="24px" viewBox="0 0 24 24" version="1.1" xmlns="http://www.w3.org/2000/svg" xmlns:xlink="http://www.w3.org/1999/xlink">
    <title>performance_line</title>
    <g id="页面-1" stroke="none" stroke-width="1" fill="none" fill-rule="evenodd">
        <g id="Development" transform="translate(-864.000000, 0.000000)" fill-rule="nonzero">
            <g id="performance_line" transform="translate(864.000000, 0.000000)">
                <rect id="矩形" x="0" y="0" width="24" height="24"></rect>
                <path d="M19,3 C20.0543909,3 20.9181678,3.81587733 20.9945144,4.85073759 L21,5 L21,19 C21,20.0543909 20.18415,20.9181678 19.1492661,20.9945144 L19,21 L5,21 C3.94563773,21 3.08183483,20.18415 3.00548573,19.1492661 L3,19 L3,5 C3,3.94563773 3.81587733,3.08183483 4.85073759,3.00548573 L5,3 L19,3 Z M19,5 L5,5 L5,19 L19,19 L19,5 Z M13.5533,7.67665 C13.8781348,6.81043348 15.0775548,6.81266301 15.424531,7.62524585 L15.4664,7.74107 L16.744,12 L17,12 C17.5523,12 18,12.4477 18,13 C18,13.51285 17.613973,13.9355092 17.1166239,13.9932725 L17,14 L16.0074,14 C15.6019455,14 15.2401273,13.7582645 15.0813745,13.3932757 L15.04,13.2802 L14.3946,11.1289 L12.4462,16.3247 C12.1271909,17.1754864 10.9567056,17.192564 10.5892519,16.4070698 L10.5424,16.2894 L9.31476,12.6066 L8.89719,13.4417 C8.74511,13.7458778 8.45189025,13.950421 8.11992372,13.9921198 L7.99382,14 L7,14 C6.44772,14 6,13.5523 6,13 C6,12.48715 6.38604429,12.0644908 6.88337975,12.0067275 L7,12 L7.38197,12 L8.59478,9.57438 C8.97803714,8.80785619 10.0616843,8.84713737 10.4097815,9.58998836 L10.4563,9.70668 L11.5555,13.0041 L13.5533,7.67665 Z" id="形状" fill="#09244B"></path>
            </g>
        </g>
    </g>
</svg>