<?xml version="1.0" encoding="UTF-8"?>
<svg width="24px" height="24px" viewBox="0 0 24 24" version="1.1" xmlns="http://www.w3.org/2000/svg" xmlns:xlink="http://www.w3.org/1999/xlink">
    <title>terminal_fill</title>
    <g id="页面-1" stroke="none" stroke-width="1" fill="none" fill-rule="evenodd">
        <g id="Development" transform="translate(-432.000000, -48.000000)" fill-rule="nonzero">
            <g id="terminal_fill" transform="translate(432.000000, 48.000000)">
                <rect id="矩形" x="0" y="0" width="24" height="24"></rect>
                <path d="M20.0001,16.5001 C20.8285,16.5001 21.5001,17.1717 21.5001,18.0001 C21.5001,18.7797706 20.9051879,19.4205457 20.1445558,19.4932332 L20.0001,19.5001 L12.0001,19.5001 C11.1717,19.5001 10.5001,18.8285 10.5001,18.0001 C10.5001,17.2204294 11.0950121,16.5796543 11.8556442,16.5069668 L12.0001,16.5001 L20.0001,16.5001 Z M3.2826,5.2826 C3.83177813,4.73343125 4.70084297,4.6991082 5.28999869,5.17963086 L5.40392,5.2826 L11.0608,10.9395 C11.6099875,11.4885938 11.6443117,12.3576973 11.1637727,12.9468746 L11.0608,13.0608 L5.40392,18.7176 C4.81814,19.3034 3.86839,19.3034 3.2826,18.7176 C2.73343125,18.1684125 2.6991082,17.299391 3.17963086,16.7102243 L3.2826,16.5963 L7.8788,12.0001 L3.2826,7.40392 C2.69682,6.81814 2.69682,5.86839 3.2826,5.2826 Z" id="形状" fill="#09244B"></path>
            </g>
        </g>
    </g>
</svg>