<?xml version="1.0" encoding="UTF-8"?>
<svg width="24px" height="24px" viewBox="0 0 24 24" version="1.1" xmlns="http://www.w3.org/2000/svg" xmlns:xlink="http://www.w3.org/1999/xlink">
    <title>terminal_box_fill</title>
    <g id="Icon" stroke="none" stroke-width="1" fill="none" fill-rule="evenodd">
        <g id="Development" transform="translate(-912.000000, -48.000000)">
            <g id="terminal_box_fill" transform="translate(912.000000, 48.000000)">
                <path d="M24,0 L24,24 L0,24 L0,0 L24,0 Z M12.5935,23.2578 L12.5819,23.2595 L12.5109,23.295 L12.4919,23.2987 L12.4767,23.295 L12.4057,23.2595 C12.3958,23.2564 12.387,23.259 12.3821,23.2649 L12.378,23.2758 L12.3609,23.7031 L12.3659,23.7235 L12.3769,23.7357 L12.4805,23.8097 L12.4953,23.8136 L12.5071,23.8097 L12.6107,23.7357 L12.6233,23.7197 L12.6267,23.7031 L12.6096,23.2758 C12.6076,23.2657 12.601,23.2593 12.5935,23.2578 Z M12.8584,23.1453 L12.8445,23.1473 L12.6598,23.2397 L12.6499,23.2499 L12.6472,23.2611 L12.6651,23.6906 L12.6699,23.7034 L12.6784,23.7105 L12.8793,23.8032 C12.8914,23.8069 12.9022,23.803 12.9078,23.7952 L12.9118,23.7812 L12.8777,23.1665 C12.8753,23.1546 12.8674,23.147 12.8584,23.1453 Z M12.143,23.1473 C12.1332,23.1424 12.1222,23.1453 12.1156,23.1526 L12.1099,23.1665 L12.0758,23.7812 C12.0751,23.7927 12.0828,23.8019 12.0926,23.8046 L12.1083,23.8032 L12.3092,23.7105 L12.3186,23.7024 L12.3225,23.6906 L12.3404,23.2611 L12.3372,23.2485 L12.3278,23.2397 L12.143,23.1473 Z" id="MingCute" fill-rule="nonzero"></path>
                <path d="M19,3 C20.1046,3 21,3.89543 21,5 L21,19 C21,20.1046 20.1046,21 19,21 L5,21 C3.89543,21 3,20.1046 3,19 L3,5 C3,3.89543 3.89543,3 5,3 L19,3 Z M16.0001,14.0001 L14.0001,14.0001 C13.4478,14.0001 13.0001,14.4478 13.0001,15.0001 C13.0001,15.5524 13.4478,16.0001 14.0001,16.0001 L16.0001,16.0001 C16.5524,16.0001 17.0001,15.5524 17.0001,15.0001 C17.0001,14.4478 16.5524,14.0001 16.0001,14.0001 Z M9.05037,8.46459 C8.65985,8.07406 8.02668,8.07406 7.63616,8.46459 C7.27567077,8.82507 7.24794083,9.39230503 7.55297018,9.7845935 L7.63616,9.8788 L9.75748,12.0001 L7.63616,14.1214 C7.24563,14.512 7.24563,15.1451 7.63616,15.5357 C7.99664,15.8961615 8.56387503,15.9238893 8.9561635,15.6188834 L9.05037,15.5357 L11.8788,12.7072 C12.2392615,12.3467385 12.2669893,11.7794793 11.9619834,11.3872027 L11.8788,11.293 L9.05037,8.46459 Z" id="形状" fill="#09244B"></path>
            </g>
        </g>
    </g>
</svg>