<svg xmlns="http://www.w3.org/2000/svg" width="24" height="24" viewBox="0 0 24 24"><title>terminal_ai_fill</title><g fill="none" fill-rule="nonzero"><path d="M24 0v24H0V0zM12.594 23.258l-.012.002-.071.035-.02.004-.014-.004-.071-.036q-.016-.004-.024.006l-.004.01-.017.428.005.02.01.013.104.074.015.004.012-.004.104-.074.012-.016.004-.017-.017-.427q-.004-.016-.016-.018m.264-.113-.014.002-.184.093-.01.01-.003.011.018.43.005.012.008.008.201.092q.019.005.029-.008l.004-.014-.034-.614q-.005-.019-.02-.022m-.715.002a.02.02 0 0 0-.027.006l-.006.014-.034.614q.001.018.017.024l.015-.002.201-.093.01-.008.003-.011.018-.43-.003-.012-.01-.01z"/><path fill="#09244b" d="M20 16.5a1.5 1.5 0 0 1 0 3h-8a1.5 1.5 0 0 1 0-3zM5.404 5.282l5.657 5.657a1.5 1.5 0 0 1 0 2.122l-5.657 5.657a1.5 1.5 0 1 1-2.121-2.122L7.879 12 3.283 7.404a1.5 1.5 0 0 1 2.12-2.122M18 2a1 1 0 0 1 .947.677l.129.378a3 3 0 0 0 1.87 1.87l.377.129a1 1 0 0 1 0 1.892l-.378.13a3 3 0 0 0-1.87 1.869l-.128.378a1 1 0 0 1-1.893 0l-.13-.378a3 3 0 0 0-1.869-1.87l-.378-.129a1 1 0 0 1 0-1.892l.378-.13a3 3 0 0 0 1.87-1.869l.129-.378A1 1 0 0 1 18 2"/></g></svg>