<?xml version="1.0" encoding="UTF-8"?>
<svg width="24px" height="24px" viewBox="0 0 24 24" version="1.1" xmlns="http://www.w3.org/2000/svg" xmlns:xlink="http://www.w3.org/1999/xlink">
    <title>terminal_line</title>
    <g id="页面-1" stroke="none" stroke-width="1" fill="none" fill-rule="evenodd">
        <g id="Development" transform="translate(-432.000000, 0.000000)" fill-rule="nonzero">
            <g id="terminal_line" transform="translate(432.000000, 0.000000)">
                <rect id="矩形" x="0" y="0" width="24" height="24"></rect>
                <path d="M20.0001,17 C20.5524,17 21.0001,17.4477 21.0001,18 C21.0001,18.51285 20.614073,18.9355092 20.1167239,18.9932725 L20.0001,19 L12.0001,19 C11.4478,19 11.0001,18.5523 11.0001,18 C11.0001,17.48715 11.386127,17.0644908 11.8834761,17.0067275 L12.0001,17 L20.0001,17 Z M3.63616,5.63603 C3.99664,5.27555 4.56386651,5.24782077 4.95616153,5.55284231 L5.05037,5.63603 L10.7072,11.2929 C11.0676615,11.6533615 11.0953893,12.2206207 10.7903834,12.6128973 L10.7072,12.7071 L5.05037,18.364 C4.65984,18.7545 4.02668,18.7545 3.63616,18.364 C3.27567077,18.0034462 3.24794083,17.4362651 3.55297018,17.0439224 L3.63616,16.9497 L8.5859,12 L3.63616,7.05025 C3.24563,6.65972 3.24563,6.02656 3.63616,5.63603 Z" id="形状" fill="#09244B"></path>
            </g>
        </g>
    </g>
</svg>