<svg xmlns="http://www.w3.org/2000/svg" width="24" height="24" viewBox="0 0 24 24"><title>vibe_coding_line</title><g fill="none" fill-rule="nonzero"><path d="M24 0v24H0V0zM12.594 23.258l-.012.002-.071.035-.02.004-.014-.004-.071-.036q-.016-.004-.024.006l-.004.01-.017.428.005.02.01.013.104.074.015.004.012-.004.104-.074.012-.016.004-.017-.017-.427q-.004-.016-.016-.018m.264-.113-.014.002-.184.093-.01.01-.003.011.018.43.005.012.008.008.201.092q.019.005.029-.008l.004-.014-.034-.614q-.005-.019-.02-.022m-.715.002a.02.02 0 0 0-.027.006l-.006.014-.034.614q.001.018.017.024l.015-.002.201-.093.01-.008.003-.011.018-.43-.003-.012-.01-.01z"/><path fill="#09244b" d="M19.612 12a2 2 0 0 1 1.898 2.633l-1.562 4.683A1 1 0 0 1 19 20H7a1 1 0 1 1 0-2h3.28l1.43-4.291A2.5 2.5 0 0 1 14.08 12zM9 12a1 1 0 1 1 0 2c-1.773 0-2.88.545-3.605 1.27-.75.748-1.187 1.788-1.414 2.926a1 1 0 0 1-1.961-.392c.272-1.362.834-2.822 1.96-3.948C5.13 12.705 6.774 12 9 12m5.081 2a.5.5 0 0 0-.474.342L12.387 18h5.892l1.333-4zm-3.08-7a2 2 0 1 0-4 0 2 2 0 0 0 4 0m8-4a1 1 0 0 1 .945.677l.193.561a1 1 0 0 0 .623.623l.561.193a1 1 0 0 1 0 1.892l-.561.193a1 1 0 0 0-.623.623l-.193.561a1 1 0 0 1-1.892 0l-.193-.561a1 1 0 0 0-.623-.623l-.561-.193a1 1 0 0 1 0-1.892l.561-.193a1 1 0 0 0 .623-.623l.193-.561C18.222 3.285 18.552 3 19 3m-6 4A4 4 0 1 1 5 7a4 4 0 0 1 8 0"/></g></svg>