<?xml version="1.0" encoding="UTF-8"?>
<svg width="24px" height="24px" viewBox="0 0 24 24" version="1.1" xmlns="http://www.w3.org/2000/svg" xmlns:xlink="http://www.w3.org/1999/xlink">
    <title>web_fill</title>
    <g id="页面-1" stroke="none" stroke-width="1" fill="none" fill-rule="evenodd">
        <g id="Development" transform="translate(-96.000000, -48.000000)" fill-rule="nonzero">
            <g id="web_fill" transform="translate(96.000000, 48.000000)">
                <rect id="矩形" x="0" y="0" width="24" height="24"></rect>
                <path d="M19,4 C20.1046,4 21,4.89543 21,6 L21,18 C21,19.1046 20.1046,20 19,20 L5,20 C3.89543,20 3,19.1046 3,18 L3,6 C3,4.89543 3.89543,4 5,4 L19,4 Z M19,10 L5,10 L5,17 C5,17.51285 5.38604429,17.9355092 5.88337975,17.9932725 L6,18 L18,18 C18.51285,18 18.9355092,17.613973 18.9932725,17.1166239 L19,17 L19,10 Z M6,6 C5.44772,6 5,6.44772 5,7 C5,7.55228 5.44772,8 6,8 C6.55228,8 7,7.55228 7,7 C7,6.44772 6.55228,6 6,6 Z M9,6 C8.44772,6 8,6.44772 8,7 C8,7.55228 8.44772,8 9,8 C9.55228,8 10,7.55228 10,7 C10,6.44772 9.55228,6 9,6 Z M12,6 C11.4477,6 11,6.44772 11,7 C11,7.55228 11.4477,8 12,8 C12.5523,8 13,7.55228 13,7 C13,6.44772 12.5523,6 12,6 Z" id="形状" fill="#09244B"></path>
            </g>
        </g>
    </g>
</svg>