<?xml version="1.0" encoding="UTF-8"?>
<svg width="24px" height="24px" viewBox="0 0 24 24" version="1.1" xmlns="http://www.w3.org/2000/svg" xmlns:xlink="http://www.w3.org/1999/xlink">
    <title>web_line</title>
    <g id="页面-1" stroke="none" stroke-width="1" fill="none" fill-rule="evenodd">
        <g id="web_line">
            <rect id="矩形" fill-opacity="0.01" fill="#FFFFFF" fill-rule="nonzero" x="0" y="0" width="24" height="24"></rect>
            <path d="M19,4 C20.1046,4 21,4.89543 21,6 L21,18 C21,19.1046 20.1046,20 19,20 L5,20 C3.89543,20 3,19.1046 3,18 L3,6 C3,4.89543 3.89543,4 5,4 L19,4 Z M19,12 L5,12 L5,18 L19,18 L19,12 Z M19,6 L5,6 L5,10 L19,10 L19,6 Z M7,7 C7.55228,7 8,7.44772 8,8 C8,8.55228 7.55228,9 7,9 C6.44772,9 6,8.55228 6,8 C6,7.44772 6.44772,7 7,7 Z M10,7 C10.5523,7 11,7.44772 11,8 C11,8.55228 10.5523,9 10,9 C9.44772,9 9,8.55228 9,8 C9,7.44772 9.44772,7 10,7 Z M13,7 C13.5523,7 14,7.44772 14,8 C14,8.55228 13.5523,9 13,9 C12.4477,9 12,8.55228 12,8 C12,7.44772 12.4477,7 13,7 Z" id="形状" fill="#09244B"></path>
        </g>
    </g>
</svg>