<svg width="24" height="24" viewBox="0 0 24 24" fill="none" xmlns="http://www.w3.org/2000/svg">
<rect width="24" height="24" fill="white" fill-opacity="0.01"/>
<path d="M11.4402 6.50687C11.6243 7.02759 11.3514 7.59891 10.8306 7.78296C9.70239 8.18174 8.75788 8.97573 8.1657 9.99943C7.88916 10.4775 7.27743 10.6409 6.79937 10.3643C6.32131 10.0878 6.15794 9.47604 6.43449 8.99798C7.26199 7.56747 8.58138 6.45671 10.1642 5.89728C10.6849 5.71323 11.2562 5.98615 11.4402 6.50687Z" fill="#09244B"/>
<path d="M12 10C10.8954 10 10 10.8954 10 12C10 13.1046 10.8954 14 12 14C13.1046 14 14 13.1046 14 12C14 10.8954 13.1046 10 12 10Z" fill="#09244B"/>
<path fill-rule="evenodd" clip-rule="evenodd" d="M2 12C2 6.47715 6.47715 2 12 2C17.5228 2 22 6.47715 22 12C22 17.5228 17.5228 22 12 22C6.47715 22 2 17.5228 2 12ZM12 4C7.58172 4 4 7.58172 4 12C4 16.4183 7.58172 20 12 20C16.4183 20 20 16.4183 20 12C20 7.58172 16.4183 4 12 4Z" fill="#09244B"/>
</svg>
