<?xml version="1.0" encoding="UTF-8"?>
<svg width="24px" height="24px" viewBox="0 0 24 24" version="1.1" xmlns="http://www.w3.org/2000/svg" xmlns:xlink="http://www.w3.org/1999/xlink">
    <title>announcement_fill</title>
    <g id="页面-1" stroke="none" stroke-width="1" fill="none" fill-rule="evenodd">
        <g id="Media" transform="translate(-96.000000, -240.000000)">
            <g id="announcement_fill" transform="translate(96.000000, 240.000000)">
                 <path d="M24,0 L24,24 L0,24 L0,0 L24,0 Z M12.5934901,23.257841 L12.5819402,23.2595131 L12.5108777,23.2950439 L12.4918791,23.2987469 L12.4918791,23.2987469 L12.4767152,23.2950439 L12.4056548,23.2595131 C12.3958229,23.2563662 12.3870493,23.2590235 12.3821421,23.2649074 L12.3780323,23.275831 L12.360941,23.7031097 L12.3658947,23.7234994 L12.3769048,23.7357139 L12.4804777,23.8096931 L12.4953491,23.8136134 L12.4953491,23.8136134 L12.5071152,23.8096931 L12.6106902,23.7357139 L12.6232938,23.7196733 L12.6232938,23.7196733 L12.6266527,23.7031097 L12.609561,23.275831 C12.6075724,23.2657013 12.6010112,23.2592993 12.5934901,23.257841 L12.5934901,23.257841 Z M12.8583906,23.1452862 L12.8445485,23.1473072 L12.6598443,23.2396597 L12.6498822,23.2499052 L12.6498822,23.2499052 L12.6471943,23.2611114 L12.6650943,23.6906389 L12.6699349,23.7034178 L12.6699349,23.7034178 L12.678386,23.7104931 L12.8793402,23.8032389 C12.8914285,23.8068999 12.9022333,23.8029875 12.9078286,23.7952264 L12.9118235,23.7811639 L12.8776777,23.1665331 C12.8752882,23.1545897 12.8674102,23.1470016 12.8583906,23.1452862 L12.8583906,23.1452862 Z M12.1430473,23.1473072 C12.1332178,23.1423925 12.1221763,23.1452606 12.1156365,23.1525954 L12.1099173,23.1665331 L12.0757714,23.7811639 C12.0751323,23.7926639 12.0828099,23.8018602 12.0926481,23.8045676 L12.108256,23.8032389 L12.3092106,23.7104931 L12.3186497,23.7024347 L12.3186497,23.7024347 L12.3225043,23.6906389 L12.340401,23.2611114 L12.337245,23.2485176 L12.337245,23.2485176 L12.3277531,23.2396597 L12.1430473,23.1473072 Z" id="MingCute" fill-rule="nonzero"></path>
                <path d="M15.9923,3.01349 C17.3256,2.23572 19,3.19747 19,4.74105 L19,8 C20.6569,8 22,9.34315 22,11 C22,12.6569 20.6569,14 19,14 L19,17 C19,18.6481 17.1185,19.5889 15.8,18.6 L13.7391,17.0543 C12.6345,16.2259 11.3518,15.6766 9.99998,15.4461 L9.99998,18.2899 C9.99998,19.7867 8.78663,21 7.28989,21 C6.0799,21 5.0165,20.1979 4.68408,19.0344 L3.1136,13.5377 C2.41774,12.7167 2,11.6549 2,10.5 C2,8.00565 3.94862,5.94577 6.43914,5.80741 L9.45777,5.63971 C10.9342,5.55768 12.3701,5.12639 13.6475,4.38129 L15.9923,3.01349 Z M5.63371,15.078 L6.60713,18.485 C6.69423,18.7898 6.97286,19 7.28989,19 C7.68206,19 7.99998,18.6821 7.99998,18.2899 L7.99998,15.2793 L6.43914,15.1926 C6.16338,15.1773 5.89427,15.1384 5.63371,15.078 Z M20,11 C20,10.4477 19.5523,10 19,10 L19,12 C19.5523,12 20,11.5523 20,11 Z" id="形状" fill="#09244B"></path>
            </g>
        </g>
    </g>
</svg>