<?xml version="1.0" encoding="UTF-8"?>
<svg width="24px" height="24px" viewBox="0 0 24 24" version="1.1" xmlns="http://www.w3.org/2000/svg" xmlns:xlink="http://www.w3.org/1999/xlink">
    <title>audio_tape_fill</title>
    <g id="Icon" stroke="none" stroke-width="1" fill="none" fill-rule="evenodd">
        <g id="Media" transform="translate(-192.000000, -240.000000)">
            <g id="audio_tape_fill" transform="translate(192.000000, 240.000000)">
                <path d="M24,0 L24,24 L0,24 L0,0 L24,0 Z M12.5934901,23.257841 L12.5819402,23.2595131 L12.5108777,23.2950439 L12.4918791,23.2987469 L12.4918791,23.2987469 L12.4767152,23.2950439 L12.4056548,23.2595131 C12.3958229,23.2563662 12.3870493,23.2590235 12.3821421,23.2649074 L12.3780323,23.275831 L12.360941,23.7031097 L12.3658947,23.7234994 L12.3769048,23.7357139 L12.4804777,23.8096931 L12.4953491,23.8136134 L12.4953491,23.8136134 L12.5071152,23.8096931 L12.6106902,23.7357139 L12.6232938,23.7196733 L12.6232938,23.7196733 L12.6266527,23.7031097 L12.609561,23.275831 C12.6075724,23.2657013 12.6010112,23.2592993 12.5934901,23.257841 L12.5934901,23.257841 Z M12.8583906,23.1452862 L12.8445485,23.1473072 L12.6598443,23.2396597 L12.6498822,23.2499052 L12.6498822,23.2499052 L12.6471943,23.2611114 L12.6650943,23.6906389 L12.6699349,23.7034178 L12.6699349,23.7034178 L12.678386,23.7104931 L12.8793402,23.8032389 C12.8914285,23.8068999 12.9022333,23.8029875 12.9078286,23.7952264 L12.9118235,23.7811639 L12.8776777,23.1665331 C12.8752882,23.1545897 12.8674102,23.1470016 12.8583906,23.1452862 L12.8583906,23.1452862 Z M12.1430473,23.1473072 C12.1332178,23.1423925 12.1221763,23.1452606 12.1156365,23.1525954 L12.1099173,23.1665331 L12.0757714,23.7811639 C12.0751323,23.7926639 12.0828099,23.8018602 12.0926481,23.8045676 L12.108256,23.8032389 L12.3092106,23.7104931 L12.3186497,23.7024347 L12.3186497,23.7024347 L12.3225043,23.6906389 L12.340401,23.2611114 L12.337245,23.2485176 L12.337245,23.2485176 L12.3277531,23.2396597 L12.1430473,23.1473072 Z" id="MingCute" fill-rule="nonzero"></path>
                <path d="M19.0307,4.00015 C20.6147321,4.01605107 21.9048397,5.25960116 21.9949698,6.82481021 L22,7 L22,17 C22,18.597725 20.7511226,19.903664 19.1762773,19.9949075 L19,20 L5,20 C3.40232321,20 2.09633941,18.7511226 2.00509271,17.1762773 L2,17 L2,7 C2,5.41221679 3.23349776,4.11252805 4.79451218,4.00692384 L4.96926,4.00015 L6.02985,8.24253 C6.13186583,8.65059333 6.47646146,8.94701736 6.88664006,8.99358759 L7,8.99999 L17,8.99999 C17.4206583,8.99999 17.7917403,8.73757125 17.9363954,8.35094824 L17.9701,8.24253 L19.0307,4.00015 Z M8.5,12 C7.67157,12 7,12.6716 7,13.5 C7,14.3284 7.67157,15 8.5,15 C9.32843,15 10,14.3284 10,13.5 C10,12.6716 9.32843,12 8.5,12 Z M15.5,12 C14.6716,12 14,12.6716 14,13.5 C14,14.3284 14.6716,15 15.5,15 C16.3284,15 17,14.3284 17,13.5 C17,12.6716 16.3284,12 15.5,12 Z M16.9692,4 L16.2192,7 L7.78077,7 L7.03077,4 L16.9692,4 Z" id="形状" fill="#09244B"></path>
            </g>
        </g>
    </g>
</svg>