<?xml version="1.0" encoding="UTF-8"?>
<svg width="24px" height="24px" viewBox="0 0 24 24" version="1.1" xmlns="http://www.w3.org/2000/svg" xmlns:xlink="http://www.w3.org/1999/xlink">
    <title>camcorder_line</title>
    <g id="页面-1" stroke="none" stroke-width="1" fill="none" fill-rule="evenodd">
        <g id="camcorder_line">
            <rect id="矩形" fill-opacity="0.01" fill="#FFFFFF" fill-rule="nonzero" x="0" y="0" width="24" height="24"></rect>
            <path d="M16,4 C17.0543909,4 17.9181678,4.81587733 17.9945144,5.85073759 L18,6 L18,8.20957 L20.0944,6.91938 C20.8925,6.42771667 21.9110167,6.95748253 21.9945075,7.8634059 L22,7.98365 L22,16.0166 C22,16.9539458 21.0147375,17.5433089 20.199655,17.1391973 L20.0944,17.0808 L18,15.7906 L18,18 C18,19.0543909 17.18415,19.9181678 16.1492661,19.9945144 L16,20 L4,20 C2.94563773,20 2.08183483,19.18415 2.00548573,18.1492661 L2,18 L2,6 C2,4.94563773 2.81587733,4.08183483 3.85073759,4.00548573 L4,4 L16,4 Z M16,6 L4,6 L4,18 L16,18 L16,6 Z M20,9.32655 L18,10.5586 L18,13.4416 L20,14.6737 L20,9.32655 Z" id="形状" fill="#09244B"></path>
        </g>
    </g>
</svg>