<?xml version="1.0" encoding="UTF-8"?>
<svg width="24px" height="24px" viewBox="0 0 24 24" version="1.1" xmlns="http://www.w3.org/2000/svg" xmlns:xlink="http://www.w3.org/1999/xlink">
    <title>camera_fill</title>
    <g id="页面-1" stroke="none" stroke-width="1" fill="none" fill-rule="evenodd">
        <g id="Media" transform="translate(-144.000000, -48.000000)" fill-rule="nonzero">
            <g id="camera_fill" transform="translate(144.000000, 48.000000)">
                <rect id="矩形" x="0" y="0" width="24" height="24"></rect>
                <path d="M20,3 C21.1046,3 22,3.89543 22,5 L22,19 C22,20.1046 21.1046,21 20,21 L4,21 C2.89543,21 2,20.1046 2,19 L2,5 C2,3.89543 2.89543,3 4,3 L20,3 Z M12,7 C9.23858,7 7,9.23858 7,12 C7,14.7614 9.23858,17 12,17 C14.7614,17 17,14.7614 17,12 C17,9.23858 14.7614,7 12,7 Z M12,9 C13.6569,9 15,10.3431 15,12 C15,13.6569 13.6569,15 12,15 C10.3431,15 9,13.6569 9,12 C9,10.3431 10.3431,9 12,9 Z M19,6 L18,6 C17.4477,6 17,6.44772 17,7 C17,7.51283143 17.386027,7.93550653 17.8833761,7.9932722 L18,8 L19,8 C19.5523,8 20,7.55228 20,7 C20,6.44772 19.5523,6 19,6 Z" id="形状" fill="#09244B"></path>
            </g>
        </g>
    </g>
</svg>