<?xml version="1.0" encoding="UTF-8"?>
<svg width="24px" height="24px" viewBox="0 0 24 24" version="1.1" xmlns="http://www.w3.org/2000/svg" xmlns:xlink="http://www.w3.org/1999/xlink">
    <title>camera_rotate_line</title>
    <g id="Icon" stroke="none" stroke-width="1" fill="none" fill-rule="evenodd">
        <g id="Media" transform="translate(-288.000000, -192.000000)" fill-rule="nonzero">
            <g id="camera_rotate_line" transform="translate(288.000000, 192.000000)">
                <path d="M24,0 L24,24 L0,24 L0,0 L24,0 Z M12.5934901,23.257841 L12.5819402,23.2595131 L12.5108777,23.2950439 L12.4918791,23.2987469 L12.4918791,23.2987469 L12.4767152,23.2950439 L12.4056548,23.2595131 C12.3958229,23.2563662 12.3870493,23.2590235 12.3821421,23.2649074 L12.3780323,23.275831 L12.360941,23.7031097 L12.3658947,23.7234994 L12.3769048,23.7357139 L12.4804777,23.8096931 L12.4953491,23.8136134 L12.4953491,23.8136134 L12.5071152,23.8096931 L12.6106902,23.7357139 L12.6232938,23.7196733 L12.6232938,23.7196733 L12.6266527,23.7031097 L12.609561,23.275831 C12.6075724,23.2657013 12.6010112,23.2592993 12.5934901,23.257841 L12.5934901,23.257841 Z M12.8583906,23.1452862 L12.8445485,23.1473072 L12.6598443,23.2396597 L12.6498822,23.2499052 L12.6498822,23.2499052 L12.6471943,23.2611114 L12.6650943,23.6906389 L12.6699349,23.7034178 L12.6699349,23.7034178 L12.678386,23.7104931 L12.8793402,23.8032389 C12.8914285,23.8068999 12.9022333,23.8029875 12.9078286,23.7952264 L12.9118235,23.7811639 L12.8776777,23.1665331 C12.8752882,23.1545897 12.8674102,23.1470016 12.8583906,23.1452862 L12.8583906,23.1452862 Z M12.1430473,23.1473072 C12.1332178,23.1423925 12.1221763,23.1452606 12.1156365,23.1525954 L12.1099173,23.1665331 L12.0757714,23.7811639 C12.0751323,23.7926639 12.0828099,23.8018602 12.0926481,23.8045676 L12.108256,23.8032389 L12.3092106,23.7104931 L12.3186497,23.7024347 L12.3186497,23.7024347 L12.3225043,23.6906389 L12.340401,23.2611114 L12.337245,23.2485176 L12.337245,23.2485176 L12.3277531,23.2396597 L12.1430473,23.1473072 Z" id="MingCute"></path>
                <path d="M14.5858,3 C15.1162,3 15.6249,3.21071 16,3.58579 L17.4142,5 L20,5 C21.1046,5 22,5.89543 22,7 L22,19 C22,20.1046 21.1046,21 20,21 L4,21 C2.89543,21 2,20.1046 2,19 L2,7 C2,5.89543 2.89543,5 4,5 L6.58579,5 L8,3.58579 C8.37507,3.21071 8.88378,3 9.41421,3 L14.5858,3 Z M14.5858,5 L9.41421,5 L8,6.41421 C7.62493,6.78929 7.11622,7 6.58579,7 L4,7 L4,19 L20,19 L20,7 L17.4142,7 C16.8838,7 16.3751,6.78929 16,6.41421 L14.5858,5 Z M8.65628,12.5001 C9.09448,12.505 9.47839,12.7947 9.60339,13.2147 C9.91094,14.2481 10.869,15 12,15 C12.9082,15 13.7044,14.5163 14.1435,13.7877 C14.4285,13.3146 15.0431,13.1622 15.5161,13.4473 C15.9892,13.7323 16.1416,14.3469 15.8565,14.8199 C15.0707,16.1241 13.6381,17 12,17 C10.823,17 9.75235,16.5484 8.95092,15.8094 C8.78044,16.3335 8.21788,16.621 7.69309,16.4517 C7.205005,16.2943071 6.92121168,15.7971898 7.0188712,15.3061513 L7.04826,15.1931 L7.6932,13.1931 C7.82769,12.776 8.21808,12.4951 8.65628,12.5001 Z M12,8 C13.177,8 14.2477,8.45161 15.0491,9.19057 C15.2196,8.66654 15.7821,8.37903 16.3069,8.54826 C16.8325,8.71776 17.1212,9.28128 16.9517,9.80691 L16.3068,11.8069 C16.1723,12.224 15.7819,12.5049 15.3437,12.4999 C14.9055,12.495 14.5216,12.2053 14.3966,11.7852 C14.0891,10.7519 13.131,10 12,10 C11.2103,10 10.5065,10.365 10.0467,10.9394 C9.97745,11.026 9.91388,11.1171 9.85652,11.2123 C9.57149,11.6854 8.95694,11.8378 8.48389,11.5527 C8.01085,11.2677 7.85844,10.6531 8.14348,10.1801 C8.24671,10.0088 8.36098,9.84497 8.48528,9.68968 C9.30828,8.66144 10.5772,8 12,8 Z" id="形状" fill="#09244B"></path>
            </g>
        </g>
    </g>
</svg>