<svg width="24" height="24" viewBox="0 0 24 24" fill="none" xmlns="http://www.w3.org/2000/svg">
<rect width="24" height="24" fill="white" fill-opacity="0.01"/>
<path fill-rule="evenodd" clip-rule="evenodd" d="M12 7.5C9.23858 7.5 7 9.73858 7 12.5C7 15.2614 9.23858 17.5 12 17.5C14.7614 17.5 17 15.2614 17 12.5C17 9.73858 14.7614 7.5 12 7.5ZM9 12.5C9 10.8431 10.3431 9.5 12 9.5C13.6569 9.5 15 10.8431 15 12.5C15 14.1569 13.6569 15.5 12 15.5C10.3431 15.5 9 14.1569 9 12.5Z" fill="#09244B"/>
<path fill-rule="evenodd" clip-rule="evenodd" d="M9.20711 3C8.80928 3 8.42775 3.15803 8.14645 3.43934L6.58579 5H4C2.89543 5 2 5.89543 2 7V19C2 20.1046 2.89543 21 4 21H20C21.1046 21 22 20.1046 22 19V7C22 5.89543 21.1046 5 20 5H17.4142L15.8536 3.43934C15.5722 3.15804 15.1907 3 14.7929 3H9.20711ZM7.85355 6.56066L9.41421 5H14.5858L16.1464 6.56066C16.4278 6.84197 16.8093 7 17.2071 7H20V19H4V7H6.79289C7.19072 7 7.57225 6.84196 7.85355 6.56066Z" fill="#09244B"/>
</svg>
