<svg xmlns="http://www.w3.org/2000/svg" width="24" height="24" viewBox="0 0 24 24"><g fill="none" fill-rule="evenodd"><path d="M24,0 L24,24 L0,24 L0,0 L24,0 Z M12.5935,23.2578 L12.5819,23.2595 L12.5109,23.295 L12.4919,23.2987 L12.4767,23.295 L12.4057,23.2595 C12.3958,23.2564 12.387,23.259 12.3821,23.2649 L12.378,23.2758 L12.3609,23.7031 L12.3659,23.7235 L12.3769,23.7357 L12.4805,23.8097 L12.4953,23.8136 L12.5071,23.8097 L12.6107,23.7357 L12.6233,23.7197 L12.6267,23.7031 L12.6096,23.2758 C12.6076,23.2657 12.601,23.2593 12.5935,23.2578 Z M12.8584,23.1453 L12.8445,23.1473 L12.6598,23.2397 L12.6499,23.2499 L12.6472,23.2611 L12.6651,23.6906 L12.6699,23.7034 L12.6784,23.7105 L12.8793,23.8032 C12.8914,23.8069 12.9022,23.803 12.9078,23.7952 L12.9118,23.7812 L12.8777,23.1665 C12.8753,23.1546 12.8674,23.147 12.8584,23.1453 Z M12.143,23.1473 C12.1332,23.1424 12.1222,23.1453 12.1156,23.1526 L12.1099,23.1665 L12.0758,23.7812 C12.0751,23.7927 12.0828,23.8019 12.0926,23.8046 L12.1083,23.8032 L12.3092,23.7105 L12.3186,23.7024 L12.3225,23.6906 L12.3404,23.2611 L12.3372,23.2485 L12.3278,23.2397 L12.143,23.1473 Z"/><path fill="#09244B" d="M5,3 C3.34315,3 2,4.34315 2,6 L2,13 L2,15 C2,16.6569 3.34315,18 5,18 L6,18 L6,19.5 C6,20.5301 7.17596,21.118 8,20.5 L11.3333,18 L18,18 C19.6569,18 21,16.6569 21,15 L21,6 C21,4.34315 19.6569,3 18,3 L5,3 Z M2,13 C2,13.5523 2.44772,14 3,14 L9,14 C9.55228,14 10,13.5523 10,13 C10,12.4477 9.55228,12 9,12 L3,12 C2.44772,12 2,12.4477 2,13 Z M5,7 C4.44772,7 4,7.44772 4,8 C4,8.55228 4.44772,9 5,9 L7,9 C7.55228,9 8,8.55228 8,8 C8,7.44772 7.55228,7 7,7 L5,7 Z M11,7 C10.4477,7 10,7.44772 10,8 C10,8.55228 10.4477,9 11,9 L19,9 C19.5523,9 20,8.55228 20,8 C20,7.44772 19.5523,7 19,7 L11,7 Z M13,12 C12.4477,12 12,12.4477 12,13 C12,13.5523 12.4477,14 13,14 L15,14 C15.5523,14 16,13.5523 16,13 C16,12.4477 15.5523,12 15,12 L13,12 Z"/></g></svg>