<?xml version="1.0" encoding="UTF-8"?>
<svg width="24px" height="24px" viewBox="0 0 24 24" version="1.1" xmlns="http://www.w3.org/2000/svg" xmlns:xlink="http://www.w3.org/1999/xlink">
    <title>disc_fill</title>
    <g id="页面-1" stroke="none" stroke-width="1" fill="none" fill-rule="evenodd">
        <g id="Media" transform="translate(-240.000000, -48.000000)" fill-rule="nonzero">
            <g id="disc_fill" transform="translate(240.000000, 48.000000)">
                <rect id="矩形" x="0" y="0" width="24" height="24"></rect>
                <path d="M12,2 C12.54792,2 13.0856,2.0440704 13.6096096,2.12886272 L14,2.20004 L14,8.53513 C13.4117,8.19479 12.7286,8 12,8 C9.79086,8 8,9.79086 8,12 C8,14.2091 9.79086,16 12,16 C14.1421576,16 15.8910766,14.3159949 15.9951046,12.199637 L16,12 L16,2.83209 C19.5318,4.3752 22,7.89936 22,12 C22,17.5228 17.5228,22 12,22 C6.47715,22 2,17.5228 2,12 C2,6.47715 6.47715,2 12,2 Z M12,10 C13.1046,10 14,10.8954 14,12 C14,13.1046 13.1046,14 12,14 C10.8954,14 10,13.1046 10,12 C10,10.8954 10.8954,10 12,10 Z" id="形状" fill="#09244B"></path>
            </g>
        </g>
    </g>
</svg>