<?xml version="1.0" encoding="UTF-8"?>
<svg width="24px" height="24px" viewBox="0 0 24 24" version="1.1" xmlns="http://www.w3.org/2000/svg" xmlns:xlink="http://www.w3.org/1999/xlink">
    <title>expand_player_fill</title>
    <g id="Icon" stroke="none" stroke-width="1" fill="none" fill-rule="evenodd">
        <g id="Media" transform="translate(-336.000000, -240.000000)">
            <g id="expand_player_fill" transform="translate(336.000000, 240.000000)">
                <path d="M24,0 L24,24 L0,24 L0,0 L24,0 Z M12.5934901,23.257841 L12.5819402,23.2595131 L12.5108777,23.2950439 L12.4918791,23.2987469 L12.4918791,23.2987469 L12.4767152,23.2950439 L12.4056548,23.2595131 C12.3958229,23.2563662 12.3870493,23.2590235 12.3821421,23.2649074 L12.3780323,23.275831 L12.360941,23.7031097 L12.3658947,23.7234994 L12.3769048,23.7357139 L12.4804777,23.8096931 L12.4953491,23.8136134 L12.4953491,23.8136134 L12.5071152,23.8096931 L12.6106902,23.7357139 L12.6232938,23.7196733 L12.6232938,23.7196733 L12.6266527,23.7031097 L12.609561,23.275831 C12.6075724,23.2657013 12.6010112,23.2592993 12.5934901,23.257841 L12.5934901,23.257841 Z M12.8583906,23.1452862 L12.8445485,23.1473072 L12.6598443,23.2396597 L12.6498822,23.2499052 L12.6498822,23.2499052 L12.6471943,23.2611114 L12.6650943,23.6906389 L12.6699349,23.7034178 L12.6699349,23.7034178 L12.678386,23.7104931 L12.8793402,23.8032389 C12.8914285,23.8068999 12.9022333,23.8029875 12.9078286,23.7952264 L12.9118235,23.7811639 L12.8776777,23.1665331 C12.8752882,23.1545897 12.8674102,23.1470016 12.8583906,23.1452862 L12.8583906,23.1452862 Z M12.1430473,23.1473072 C12.1332178,23.1423925 12.1221763,23.1452606 12.1156365,23.1525954 L12.1099173,23.1665331 L12.0757714,23.7811639 C12.0751323,23.7926639 12.0828099,23.8018602 12.0926481,23.8045676 L12.108256,23.8032389 L12.3092106,23.7104931 L12.3186497,23.7024347 L12.3186497,23.7024347 L12.3225043,23.6906389 L12.340401,23.2611114 L12.337245,23.2485176 L12.337245,23.2485176 L12.3277531,23.2396597 L12.1430473,23.1473072 Z" id="MingCute" fill-rule="nonzero"></path>
                <path d="M20,12 C21.0543909,12 21.9181678,12.81585 21.9945144,13.8507339 L22,14 L22,18 C22,19.0543909 21.18415,19.9181678 20.1492661,19.9945144 L20,20 L15,20 C13.9456091,20 13.0818322,19.18415 13.0054856,18.1492661 L13,18 L13,14 C13,12.9456091 13.81585,12.0818322 14.8507339,12.0054856 L15,12 L20,12 Z M19,4 C20.1046,4 21,4.89543 21,6 L21,10 L14,10 C12.3431,10 11,11.3431 11,13 L11,19 L4,19 C2.89543,19 2,18.1046 2,17 L2,6 C2,4.89543 2.89543,4 4,4 L19,4 Z M20,14 L15,14 L15,18 L20,18 L20,14 Z M9,7 L6,7 C5.44772,7 5,7.44772 5,8 L5,11 C5,11.5523 5.44772,12 6,12 C6.55228,12 7,11.5523 7,11 L7,10.4141 L8.91518,12.3293 C9.3057,12.7198 9.93887,12.7198 10.3294,12.3293 C10.7199,11.9388 10.7199,11.3056 10.3294,10.9151 L8.41431,9 L9,9 C9.55228,9 10,8.55228 10,8 C10,7.44772 9.55228,7 9,7 Z" id="形状" fill="#09244B"></path>
            </g>
        </g>
    </g>
</svg>