<?xml version="1.0" encoding="UTF-8"?>
<svg width="24px" height="24px" viewBox="0 0 24 24" version="1.1" xmlns="http://www.w3.org/2000/svg" xmlns:xlink="http://www.w3.org/1999/xlink">
    <title>fast_rewind_line</title>
    <g id="页面-1" stroke="none" stroke-width="1" fill="none" fill-rule="evenodd">
        <g id="Media" transform="translate(-336.000000, 0.000000)">
            <g id="fast_rewind_line" transform="translate(336.000000, 0.000000)">
                <rect id="矩形" fill-rule="nonzero" transform="translate(12.000000, 12.000000) scale(-1, 1) translate(-12.000000, -12.000000) " x="0" y="0" width="24" height="24"></rect>
                <path d="M19.7876,5.6272 C20.5651,5.26809 21.4681,5.83063 21.5709,6.74113 C21.6634,7.56004 21.8398,9.45899 21.8398,12.032 C21.8398,14.6364 21.6591,16.5498 21.5677,17.351 C21.4689,18.2172 20.6249,18.7229 19.8538,18.3685 C19.1621,18.0506 17.5603,17.2694 15.4688,15.9613 C14.3967,15.2907 13.4996,14.6716 12.799,14.1614 C12.7402,15.6762 12.6319,16.7881 12.5677,17.351 C12.4689,18.2172 11.6249,18.7229 10.8538,18.3685 C10.1621,18.0506 8.56026,17.2694 6.46879,15.9613 C4.37795,14.6535 2.95279,13.5416 2.35245,13.0513 C1.6829,12.5046 1.66596,11.4589 2.31001,10.9335 C2.90681,10.4467 4.35145,9.31795 6.42517,8.02092 C8.4745,6.73914 10.0856,5.95138 10.7876,5.6272 C11.5651,5.26809 12.4681,5.83063 12.5709,6.74113 C12.634,7.29964 12.7361,8.36049 12.7947,9.79493 C13.4926,9.287 14.3788,8.67538 15.4252,8.02092 C17.4745,6.73914 19.0856,5.95138 19.7876,5.6272 Z M19.9008,11.9608 C19.9008,10.2702 19.8215,8.88763 19.7442,7.94069 C18.9466,8.34307 17.7996,8.96141 16.4517,9.80453 C15.0572,10.6767 13.9624,11.4674 13.2416,12.0178 C13.9544,12.5603 15.0276,13.332 16.4094,14.1963 C17.7919,15.061 18.9459,15.6822 19.736,16.0797 C19.8159,15.1308 19.9008,13.7107 19.9008,11.9608 Z M10.8992,12.3709 C10.8182,12.1015 10.818,11.8127 10.8992,11.5487 C10.8877,10.0451 10.8151,8.80951 10.7442,7.94069 C9.94655,8.34307 8.79964,8.96141 7.45165,9.80453 C6.05717,10.6767 4.9624,11.4674 4.24161,12.0178 C4.9544,12.5603 6.02759,13.332 7.40942,14.1963 C8.79194,15.061 9.94589,15.6822 10.736,16.0797 C10.8095,15.2061 10.8873,13.933 10.8992,12.3709 Z" id="形状" fill="#09244B"></path>
            </g>
        </g>
    </g>
</svg>