<svg width="24" height="24" viewBox="0 0 24 24" fill="none" xmlns="http://www.w3.org/2000/svg">
<rect width="24" height="24" transform="matrix(-1 0 0 1 24 0)" fill="white" fill-opacity="0.01"/>
<path fill-rule="evenodd" clip-rule="evenodd" d="M12.5709 6.74113C12.4681 5.83063 11.5651 5.26809 10.7876 5.6272C10.0856 5.95138 8.4745 6.73914 6.42518 8.02092C4.35146 9.31795 2.90681 10.4467 2.31001 10.9335C1.66596 11.4589 1.6829 12.5046 2.35245 13.0513C2.95279 13.5416 4.37796 14.6535 6.46879 15.9613C8.56026 17.2694 10.1621 18.0506 10.8538 18.3685C11.6249 18.7229 12.4689 18.2172 12.5677 17.351C12.6591 16.5498 12.8398 14.6364 12.8398 12.032C12.8398 9.45899 12.6634 7.56005 12.5709 6.74113Z" fill="#09244B"/>
<path fill-rule="evenodd" clip-rule="evenodd" d="M21.5709 6.74113C21.4681 5.83063 20.5651 5.26809 19.7876 5.6272C19.0856 5.95138 17.4745 6.73914 15.4252 8.02092C13.3515 9.31795 11.9068 10.4467 11.31 10.9335C10.666 11.4589 10.6829 12.5046 11.3524 13.0513C11.9528 13.5416 13.378 14.6535 15.4688 15.9613C17.5603 17.2694 19.1621 18.0506 19.8538 18.3685C20.6249 18.7229 21.4689 18.2172 21.5677 17.351C21.6591 16.5498 21.8398 14.6364 21.8398 12.032C21.8398 9.45899 21.6634 7.56005 21.5709 6.74113Z" fill="#09244B"/>
</svg>
