<svg width="24" height="24" viewBox="0 0 24 24" fill="none" xmlns="http://www.w3.org/2000/svg">
<rect width="24" height="24" fill="white" fill-opacity="0.01"/>
<path fill-rule="evenodd" clip-rule="evenodd" d="M11.4291 6.74113C11.5319 5.83063 12.4349 5.26809 13.2124 5.6272C13.9144 5.95138 15.5255 6.73914 17.5748 8.02092C19.6485 9.31795 21.0932 10.4467 21.69 10.9335C22.334 11.4589 22.3171 12.5046 21.6475 13.0513C21.0472 13.5416 19.622 14.6535 17.5312 15.9613C15.4397 17.2694 13.8379 18.0506 13.1462 18.3685C12.3751 18.7229 11.5311 18.2172 11.4323 17.351C11.3409 16.5498 11.1602 14.6364 11.1602 12.032C11.1602 9.45899 11.3366 7.56005 11.4291 6.74113Z" fill="#09244B"/>
<path fill-rule="evenodd" clip-rule="evenodd" d="M2.42907 6.74113C2.53188 5.83063 3.43486 5.26809 4.21243 5.6272C4.91436 5.95138 6.52549 6.73914 8.57481 8.02092C10.6485 9.31795 12.0932 10.4467 12.69 10.9335C13.0162 11.1997 13.1729 11.5993 13.161 12C13.1494 12.3903 12.9779 12.7816 12.6475 13.0513C12.0472 13.5416 10.622 14.6535 8.5312 15.9613C6.43973 17.2694 4.83792 18.0506 4.14618 18.3685C3.37509 18.7229 2.53112 18.2172 2.43232 17.351C2.34093 16.5498 2.16016 14.6364 2.16016 12.032C2.16016 9.45899 2.33659 7.56005 2.42907 6.74113Z" fill="#09244B"/>
</svg>
