<svg width="24" height="24" viewBox="0 0 24 24" fill="none" xmlns="http://www.w3.org/2000/svg">
<rect width="24" height="24" transform="matrix(-1 0 0 1 24 0)" fill="white" fill-opacity="0.01"/>
<path fill-rule="evenodd" clip-rule="evenodd" d="M19.7876 5.6272C20.5651 5.26809 21.4681 5.83063 21.5709 6.74113C21.6634 7.56004 21.8398 9.45899 21.8398 12.032C21.8398 14.6364 21.6591 16.5498 21.5677 17.351C21.4689 18.2172 20.6249 18.7229 19.8538 18.3685C19.1621 18.0506 17.5603 17.2694 15.4688 15.9613C14.3967 15.2907 13.4996 14.6716 12.799 14.1614C12.7402 15.6762 12.6319 16.7881 12.5677 17.351C12.4689 18.2172 11.6249 18.7229 10.8538 18.3685C10.1621 18.0506 8.56026 17.2694 6.46879 15.9613C4.37795 14.6535 2.95279 13.5416 2.35245 13.0513C1.6829 12.5046 1.66596 11.4589 2.31001 10.9335C2.90681 10.4467 4.35145 9.31795 6.42517 8.02092C8.4745 6.73914 10.0856 5.95138 10.7876 5.6272C11.5651 5.26809 12.4681 5.83063 12.5709 6.74113C12.634 7.29964 12.7361 8.36049 12.7947 9.79493C13.4926 9.287 14.3788 8.67538 15.4252 8.02092C17.4745 6.73914 19.0856 5.95138 19.7876 5.6272ZM19.9008 11.9608C19.9008 10.2702 19.8215 8.88763 19.7442 7.94069C18.9466 8.34307 17.7996 8.96141 16.4517 9.80453C15.0572 10.6767 13.9624 11.4674 13.2416 12.0178C13.9544 12.5603 15.0276 13.332 16.4094 14.1963C17.7919 15.061 18.9459 15.6822 19.736 16.0797C19.8159 15.1308 19.9008 13.7107 19.9008 11.9608ZM10.8992 12.3709C10.8182 12.1015 10.818 11.8127 10.8992 11.5487C10.8877 10.0451 10.8151 8.80951 10.7442 7.94069C9.94655 8.34307 8.79964 8.96141 7.45165 9.80453C6.05717 10.6767 4.9624 11.4674 4.24161 12.0178C4.9544 12.5603 6.02759 13.332 7.40942 14.1963C8.79194 15.061 9.94589 15.6822 10.736 16.0797C10.8095 15.2061 10.8873 13.933 10.8992 12.3709Z" fill="#09244B"/>
</svg>
