<?xml version="1.0" encoding="UTF-8"?>
<svg width="24px" height="24px" viewBox="0 0 24 24" version="1.1" xmlns="http://www.w3.org/2000/svg" xmlns:xlink="http://www.w3.org/1999/xlink">
    <title>fast_forward_line</title>
    <g id="页面-1" stroke="none" stroke-width="1" fill="none" fill-rule="evenodd">
        <g id="Media" transform="translate(-288.000000, 0.000000)">
            <g id="fast_forward_line" transform="translate(288.000000, 0.000000)">
                <rect id="矩形" fill-rule="nonzero" x="0" y="0" width="24" height="24"></rect>
                <path d="M4.21243,5.6272 C3.43486,5.26809 2.53188,5.83063 2.42907,6.74113 C2.33659,7.56004 2.16016,9.45899 2.16016,12.032 C2.16016,14.6364 2.34093,16.5498 2.43232,17.351 C2.53112,18.2172 3.37509,18.7229 4.14618,18.3685 C4.83792,18.0506 6.43973,17.2694 8.5312,15.9613 C9.60332,15.2907 10.5004,14.6716 11.201,14.1614 C11.2598,15.6762 11.3681,16.7881 11.4323,17.351 C11.5311,18.2172 12.3751,18.7229 13.1462,18.3685 C13.8379,18.0506 15.4397,17.2694 17.5312,15.9613 C19.622,14.6535 21.0472,13.5416 21.6475,13.0513 C22.3171,12.5046 22.334,11.4589 21.69,10.9335 C21.0932,10.4467 19.6485,9.31795 17.5748,8.02092 C15.5255,6.73914 13.9144,5.95138 13.2124,5.6272 C12.4349,5.26809 11.5319,5.83063 11.4291,6.74113 C11.366,7.29964 11.2639,8.36049 11.2053,9.79493 C10.5074,9.287 9.62118,8.67538 8.57481,8.02092 C6.52549,6.73914 4.91436,5.95138 4.21243,5.6272 Z M4.09923,11.9608 C4.09923,10.2702 4.17846,8.88763 4.25582,7.94069 C5.05344,8.34307 6.20034,8.96141 7.54834,9.80453 C8.94282,10.6767 10.0376,11.4674 10.7584,12.0178 C10.0456,12.5603 8.9724,13.332 7.59057,14.1963 C6.20805,15.061 5.0541,15.6822 4.26399,16.0797 C4.18412,15.1308 4.09923,13.7107 4.09923,11.9608 Z M13.1008,12.3709 C13.1818,12.1015 13.1819,11.8127 13.1008,11.5487 C13.1123,10.0451 13.1848,8.80951 13.2558,7.94069 C14.0534,8.34307 15.2003,8.96141 16.5483,9.80453 C17.9428,10.6767 19.0376,11.4674 19.7584,12.0178 C19.0456,12.5603 17.9724,13.332 16.5906,14.1963 C15.208,15.061 14.0541,15.6822 13.264,16.0797 C13.1905,15.2061 13.1127,13.933 13.1008,12.3709 Z" id="形状" fill="#09244B"></path>
            </g>
        </g>
    </g>
</svg>