<?xml version="1.0" encoding="UTF-8"?>
<svg width="24px" height="24px" viewBox="0 0 24 24" version="1.1" xmlns="http://www.w3.org/2000/svg" xmlns:xlink="http://www.w3.org/1999/xlink">
    <title>fullscreen_exit_fill</title>
    <g id="页面-1" stroke="none" stroke-width="1" fill="none" fill-rule="evenodd">
        <g id="Media" transform="translate(-432.000000, -48.000000)">
            <g id="fullscreen_exit_fill" transform="translate(432.000000, 48.000000)">
                <rect id="矩形" fill-rule="nonzero" transform="translate(12.000000, 12.000000) scale(-1, 1) translate(-12.000000, -12.000000) " x="0" y="0" width="24" height="24"></rect>
                <path d="M17.5,6.5 L20,6.5 C20.8284,6.5 21.5,7.17157 21.5,8 C21.5,8.82843 20.8284,9.5 20,9.5 L17,9.5 C15.6193,9.5 14.5,8.38071 14.5,7 L14.5,4 C14.5,3.17157 15.1716,2.5 16,2.5 C16.8284,2.5 17.5,3.17157 17.5,4 L17.5,6.5 Z M4,6.5 L6.5,6.5 L6.5,4 C6.5,3.17157 7.17157,2.5 8,2.5 C8.82843,2.5 9.5,3.17157 9.5,4 L9.5,7 C9.5,8.38071 8.38071,9.5 7,9.5 L4,9.5 C3.17157,9.5 2.5,8.82843 2.5,8 C2.5,7.17157 3.17157,6.5 4,6.5 Z M4,17.5 L6.5,17.5 L6.5,20 C6.5,20.8284 7.17157,21.5 8,21.5 C8.82843,21.5 9.5,20.8284 9.5,20 L9.5,17 C9.5,15.6193 8.38071,14.5 7,14.5 L4,14.5 C3.17157,14.5 2.5,15.1716 2.5,16 C2.5,16.8284 3.17157,17.5 4,17.5 Z M20,17.5 L17.5,17.5 L17.5,20 C17.5,20.8284 16.8284,21.5 16,21.5 C15.1716,21.5 14.5,20.8284 14.5,20 L14.5,17 C14.5,15.6193 15.6193,14.5 17,14.5 L20,14.5 C20.8284,14.5 21.5,15.1716 21.5,16 C21.5,16.8284 20.8284,17.5 20,17.5 Z" id="形状" fill="#09244B"></path>
            </g>
        </g>
    </g>
</svg>