<svg width="24" height="24" viewBox="0 0 24 24" fill="none" xmlns="http://www.w3.org/2000/svg">
<rect width="24" height="24" transform="matrix(-1 0 0 1 24 0)" fill="white" fill-opacity="0.01"/>
<path d="M21 5C21 3.89543 20.1046 3 19 3H16C15.4477 3 15 3.44772 15 4C15 4.55228 15.4477 5 16 5H19V8C19 8.55228 19.4477 9 20 9C20.5523 9 21 8.55228 21 8V5Z" fill="#09244B"/>
<path d="M5 3C3.89543 3 3 3.89543 3 5V8C3 8.55228 3.44772 9 4 9C4.55228 9 5 8.55228 5 8V5H8C8.55228 5 9 4.55228 9 4C9 3.44772 8.55228 3 8 3H5Z" fill="#09244B"/>
<path d="M5 21C3.89543 21 3 20.1046 3 19V16C3 15.4477 3.44772 15 4 15C4.55228 15 5 15.4477 5 16V19H8C8.55228 19 9 19.4477 9 20C9 20.5523 8.55228 21 8 21H5Z" fill="#09244B"/>
<path d="M19 21C20.1046 21 21 20.1046 21 19V16C21 15.4477 20.5523 15 20 15C19.4477 15 19 15.4477 19 16V19H16C15.4477 19 15 19.4477 15 20C15 20.5523 15.4477 21 16 21H19Z" fill="#09244B"/>
</svg>
