<?xml version="1.0" encoding="UTF-8"?>
<svg width="24px" height="24px" viewBox="0 0 24 24" version="1.1" xmlns="http://www.w3.org/2000/svg" xmlns:xlink="http://www.w3.org/1999/xlink">
    <title>fullscreen_exit_line</title>
    <g id="页面-1" stroke="none" stroke-width="1" fill="none" fill-rule="evenodd">
        <g id="Media" transform="translate(-432.000000, 0.000000)">
            <g id="fullscreen_exit_line" transform="translate(432.000000, 0.000000)">
                <rect id="矩形" fill-rule="nonzero" transform="translate(12.000000, 12.000000) scale(-1, 1) translate(-12.000000, -12.000000) " x="0" y="0" width="24" height="24"></rect>
                <path d="M20,7 L17,7 L17,4 C17,3.44772 16.5523,3 16,3 C15.4477,3 15,3.44772 15,4 L15,7 C15,8.10457 15.8954,9 17,9 L20,9 C20.5523,9 21,8.55229 21,8 C21,7.44772 20.5523,7 20,7 Z M7,9 C8.10457,9 9,8.10457 9,7 L9,4 C9,3.44772 8.55229,3 8,3 C7.44772,3 7,3.44772 7,4 L7,7 L4,7 C3.44772,7 3,7.44771 3,8 C3,8.55228 3.44772,9 4,9 L7,9 Z M7,17 L4,17 C3.44772,17 3,16.5523 3,16 C3,15.4477 3.44772,15 4,15 L7,15 C8.10457,15 9,15.8954 9,17 L9,20 C9,20.5523 8.55228,21 8,21 C7.44771,21 7,20.5523 7,20 L7,17 Z M17,15 C15.8954,15 15,15.8954 15,17 L15,20 C15,20.5523 15.4477,21 16,21 C16.5523,21 17,20.5523 17,20 L17,17 L20,17 C20.5523,17 21,16.5523 21,16 C21,15.4477 20.5523,15 20,15 L17,15 Z" id="形状" fill="#09244B"></path>
            </g>
        </g>
    </g>
</svg>