<svg width="24" height="24" viewBox="0 0 24 24" fill="none" xmlns="http://www.w3.org/2000/svg">
<rect width="24" height="24" transform="matrix(-1 0 0 1 24 0)" fill="white" fill-opacity="0.01"/>
<path fill-rule="evenodd" clip-rule="evenodd" d="M20 7L17 7L17 4C17 3.44772 16.5523 3 16 3C15.4477 3 15 3.44772 15 4L15 7C15 8.10457 15.8954 9 17 9L20 9C20.5523 9 21 8.55229 21 8C21 7.44772 20.5523 7 20 7ZM7 9C8.10457 9 9 8.10457 9 7V4C9 3.44772 8.55229 3 8 3C7.44772 3 7 3.44772 7 4V7L4 7C3.44772 7 3 7.44771 3 8C3 8.55228 3.44772 9 4 9L7 9ZM7 17H4C3.44772 17 3 16.5523 3 16C3 15.4477 3.44772 15 4 15H7C8.10457 15 9 15.8954 9 17V20C9 20.5523 8.55228 21 8 21C7.44771 21 7 20.5523 7 20V17ZM17 15C15.8954 15 15 15.8954 15 17L15 20C15 20.5523 15.4477 21 16 21C16.5523 21 17 20.5523 17 20L17 17L20 17C20.5523 17 21 16.5523 21 16C21 15.4477 20.5523 15 20 15L17 15Z" fill="#09244B"/>
</svg>
