<?xml version="1.0" encoding="UTF-8"?>
<svg width="24px" height="24px" viewBox="0 0 24 24" version="1.1" xmlns="http://www.w3.org/2000/svg" xmlns:xlink="http://www.w3.org/1999/xlink">
    <title>headphone_fill</title>
    <g id="页面-1" stroke="none" stroke-width="1" fill="none" fill-rule="evenodd">
        <g id="Media" transform="translate(-1440.000000, -48.000000)" fill-rule="nonzero">
            <g id="headphone_fill" transform="translate(1440.000000, 48.000000)">
                <rect id="矩形" transform="translate(12.000000, 12.000000) scale(-1, 1) translate(-12.000000, -12.000000) " x="0" y="0" width="24" height="24"></rect>
                <path d="M20,11.9425 C20,7.56202 16.4243,4 12,4 C7.57567,4 4,7.56202 4,11.9425 C4,13.1324 4.14659,13.8984 4.32843,14.4585 C4.44951,14.8313 4.74118,14.4643 4.88468,14.3297 C5.8667,13.4083 7.4021,13.4302 8.35736,14.3794 C9.77816,15.791 11.0886,17.749 9.27806,19.549 C8.30609,20.5154 6.84226,20.9173 5.72834,19.8765 C4.29036,18.5328 3.04086,16.9692 2.42619,15.0761 C2.169,14.284 2,13.3049 2,11.9425 C2,6.44539 6.4832,2 12,2 C17.5168,2 22,6.44539 22,11.9425 C22,13.3049 21.831,14.284 21.5738,15.0761 C20.9591,16.9692 19.7096,18.5328 18.2717,19.8765 C17.1577,20.9173 15.6939,20.5154 14.7219,19.549 C12.9114,17.749 14.2218,15.791 15.6426,14.3794 C16.5979,13.4302 18.1333,13.4083 19.1153,14.3297 C19.3925,14.5898 19.5286,14.8989 19.6716,14.4585 C19.8534,13.8984 20,13.1324 20,11.9425 Z" id="路径" fill="#09244B"></path>
            </g>
        </g>
    </g>
</svg>