<?xml version="1.0" encoding="UTF-8"?>
<svg width="24px" height="24px" viewBox="0 0 24 24" version="1.1" xmlns="http://www.w3.org/2000/svg" xmlns:xlink="http://www.w3.org/1999/xlink">
    <title>headphone_line</title>
    <g id="页面-1" stroke="none" stroke-width="1" fill="none" fill-rule="evenodd">
        <g id="headphone_line">
            <rect id="矩形" transform="translate(12.000000, 12.000000) scale(-1, 1) translate(-12.000000, -12.000000) " x="0" y="0" width="24" height="24"></rect>
            <path d="M12,2 C17.5168,2 22,6.44539 22,11.9425 C22,13.3049 21.831,14.284 21.5738,15.0761 C20.9627,16.9584 19.7003,18.5415 18.2717,19.8765 C17.2903,20.7935 15.8332,20.6539 14.9584,19.7841 C13.7164,18.5493 13.3758,16.6316 14.7226,15.2935 L15.6426,14.3794 C16.5979,13.4302 18.1333,13.4083 19.1153,14.3297 C19.3925,14.5898 19.5286,14.8989 19.6716,14.4585 C19.8534,13.8984 20,13.1324 20,11.9425 C20,7.56202 16.4243,4 12,4 C7.57567,4 4,7.56202 4,11.9425 C4,13.1324 4.14659,13.8984 4.32843,14.4585 C4.47144,14.8989 4.60748,14.5898 4.88468,14.3297 C5.8667,13.4083 7.4021,13.4302 8.35736,14.3794 L9.27736,15.2935 C10.6242,16.6316 10.2836,18.5493 9.04161,19.7841 C8.16679,20.6539 6.70971,20.7935 5.72834,19.8765 C4.29036,18.5328 3.04086,16.9692 2.42619,15.0761 C2.169,14.284 2,13.3049 2,11.9425 C2,6.44539 6.4832,2 12,2 Z M17.0523,15.7981 C16.4744,16.3723 15.2616,17.2653 16.1321,18.1307 C16.3241,18.3217 16.6235,18.6793 16.9062,18.4151 C17.5442,17.8189 18.1687,17.1449 18.5889,16.5783 C18.2586,16.2684 17.5628,15.2909 17.0523,15.7981 Z M6.94771,15.7981 C6.43716,15.2909 5.74142,16.2684 5.41107,16.5783 C5.83127,17.1449 6.45577,17.8189 7.09384,18.4151 C7.37647,18.6793 7.67589,18.3217 7.86794,18.1307 C8.73842,17.2653 7.52563,16.3723 6.94771,15.7981 Z" id="形状结合" fill="#09244B" fill-rule="nonzero"></path>
        </g>
    </g>
</svg>