<?xml version="1.0" encoding="UTF-8"?>
<svg width="24px" height="24px" viewBox="0 0 24 24" version="1.1" xmlns="http://www.w3.org/2000/svg" xmlns:xlink="http://www.w3.org/1999/xlink">
    <title>horn_line</title>
    <g id="Icon" stroke="none" stroke-width="1" fill="none" fill-rule="evenodd">
        <g id="Media" transform="translate(-864.000000, -192.000000)">
            <g id="horn_line" transform="translate(864.000000, 192.000000)">
                <path d="M24,0 L24,24 L0,24 L0,0 L24,0 Z M12.5935,23.2578 L12.5819,23.2595 L12.5109,23.295 L12.4919,23.2987 L12.4767,23.295 L12.4057,23.2595 C12.3958,23.2564 12.387,23.259 12.3821,23.2649 L12.378,23.2758 L12.3609,23.7031 L12.3659,23.7235 L12.3769,23.7357 L12.4805,23.8097 L12.4953,23.8136 L12.5071,23.8097 L12.6107,23.7357 L12.6233,23.7197 L12.6267,23.7031 L12.6096,23.2758 C12.6076,23.2657 12.601,23.2593 12.5935,23.2578 Z M12.8584,23.1453 L12.8445,23.1473 L12.6598,23.2397 L12.6499,23.2499 L12.6472,23.2611 L12.6651,23.6906 L12.6699,23.7034 L12.6784,23.7105 L12.8793,23.8032 C12.8914,23.8069 12.9022,23.803 12.9078,23.7952 L12.9118,23.7812 L12.8777,23.1665 C12.8753,23.1546 12.8674,23.147 12.8584,23.1453 Z M12.143,23.1473 C12.1332,23.1424 12.1222,23.1453 12.1156,23.1526 L12.1099,23.1665 L12.0758,23.7812 C12.0751,23.7927 12.0828,23.8019 12.0926,23.8046 L12.1083,23.8032 L12.3092,23.7105 L12.3186,23.7024 L12.3225,23.6906 L12.3404,23.2611 L12.3372,23.2485 L12.3278,23.2397 L12.143,23.1473 Z" id="MingCute" fill-rule="nonzero"></path>
                <path d="M20.2553,5.52027 L20.3417621,5.81791998 L20.3417621,5.81791998 L20.4305386,6.15634706 C20.4454144,6.21617726 20.4603018,6.27772719 20.4751583,6.34100719 L20.5635881,6.74153099 L20.5635881,6.74153099 L20.649241,7.18407331 L20.649241,7.18407331 L20.7300808,7.66913072 C20.7559989,7.83795755 20.7807754,8.01395299 20.8040708,8.19719979 L20.8691748,8.7687771 C20.9491509,9.56010635 21,10.4687817 21,11.5001 C21,12.5314391 20.9491509,13.4401257 20.8691748,14.2314619 L20.8040708,14.8030438 C20.7807754,14.9862919 20.7559989,15.1622885 20.7300808,15.3311163 L20.649241,15.8161766 L20.649241,15.8161766 L20.5635881,16.2587218 L20.5635881,16.2587218 L20.4751583,16.659249 L20.4751583,16.659249 L20.3859883,17.0182552 L20.3859883,17.0182552 L20.2981145,17.3362375 C20.28369,17.3858435 20.2694043,17.4337609 20.2553,17.48 C19.9237,18.5674 18.7908,18.9845 17.861,18.6746 L16.6817,18.2815 L16.2816,19.215 C15.8719,20.1711 14.7977,20.6535 13.8109,20.3245 L8.7148,18.6258 C7.60477,18.2558 7.04805,17.0161 7.50897,15.9406 L7.77774,15.3135 L7,15.0542 L5.63246,15.5101 C4.33739,15.9418 3,14.9778 3,13.6127 L3,9.38757 C3,8.02245 4.33739,7.05851 5.63246,7.4902 L7,7.94605 L17.861,4.32572 C18.7908,4.01579 19.9237,4.43292 20.2553,5.52027 Z M9.68169,15.9481 L9.34726,16.7285 L14.4433,18.4272 L14.7777,17.6468 L9.68169,15.9481 Z M18.388,6.25823 L8,9.7209 L8,13.2794 L18.388,16.7421 L18.4648967,16.4591254 L18.4648967,16.4591254 L18.5443031,16.1322709 C18.5576206,16.0741061 18.5709481,16.0140887 18.5842384,15.9522067 L18.6631556,15.5584407 C18.6890603,15.4196619 18.7144381,15.2733272 18.7389108,15.1193397 L18.8092355,14.6343214 C18.9206576,13.7873698 19,12.7466714 19,11.5001 C19,10.253581 18.9206576,9.21290317 18.8092355,8.3659643 L18.7389108,7.88095283 C18.7144381,7.72696735 18.6890603,7.5806346 18.6631556,7.44185778 L18.5842384,7.04809824 L18.5842384,7.04809824 L18.504428,6.69909329 L18.504428,6.69909329 L18.388,6.25823 L18.388,6.25823 Z M5,9.38757 L5,13.6127 L6,13.2794 L6,9.7209 L5,9.38757 Z" id="形状" fill="#09244B"></path>
            </g>
        </g>
    </g>
</svg>