<?xml version="1.0" encoding="UTF-8"?>
<svg width="24px" height="24px" viewBox="0 0 24 24" version="1.1" xmlns="http://www.w3.org/2000/svg" xmlns:xlink="http://www.w3.org/1999/xlink">
    <title>horn_fill</title>
    <g id="页面-1" stroke="none" stroke-width="1" fill="none" fill-rule="evenodd">
        <g id="Media" transform="translate(-816.000000, -144.000000)" fill-rule="nonzero">
            <g id="horn_fill" transform="translate(816.000000, 144.000000)">
                <rect id="矩形" x="0" y="0" width="24" height="24"></rect>
                <path d="M19.1486,2.32773 C19.9951,1.86321 21,2.48922 21,3.42569 L21,20.5743 C21,21.5108 19.995,22.1368 19.1486,21.6723 C18.0119,21.0484 14.6462,19.2303 12.6307,18.4293 C11.2692,17.8883 10.0174,17.5434 8.75415,17.3283 L7.98058,21.1961 C7.87227,21.7377 7.34544,22.0889 6.80388,21.9806 C6.26232,21.8723 5.91111,21.3454 6.01942,20.8039 L6.76239,17.089 C6.49612,17.069 6.22676,17.0529 5.9533,17.0402 C4.34937,16.9659 3,15.6714 3,14 L3,9.99999 C3,8.32857 4.34937,7.03413 5.9533,6.95974 C6.30837,6.94327 6.65653,6.92108 7,6.89195 L7,16 L7.03366,16 C7.24212,15.6387 7.66444,15.4331 8.09612,15.5194 C8.38961,15.5781 8.6272,15.7597 8.76604,16 L9,16 L9,6.62818 C10.1804,6.41102 11.3576,6.07662 12.6307,5.57069 C14.6462,4.76973 18.0119,2.95158 19.1486,2.32773 Z" id="路径" fill="#09244B"></path>
            </g>
        </g>
    </g>
</svg>