<?xml version="1.0" encoding="UTF-8"?>
<svg width="24px" height="24px" viewBox="0 0 24 24" version="1.1" xmlns="http://www.w3.org/2000/svg" xmlns:xlink="http://www.w3.org/1999/xlink">
    <title>horn_fill</title>
    <g id="页面-1" stroke="none" stroke-width="1" fill="none" fill-rule="evenodd">
        <g id="Media" transform="translate(-816.000000, -144.000000)" fill-rule="nonzero">
            <g id="horn_fill" transform="translate(816.000000, 144.000000)">
                 <path d="M24,0 L24,24 L0,24 L0,0 L24,0 Z M12.5934901,23.257841 L12.5819402,23.2595131 L12.5108777,23.2950439 L12.4918791,23.2987469 L12.4918791,23.2987469 L12.4767152,23.2950439 L12.4056548,23.2595131 C12.3958229,23.2563662 12.3870493,23.2590235 12.3821421,23.2649074 L12.3780323,23.275831 L12.360941,23.7031097 L12.3658947,23.7234994 L12.3769048,23.7357139 L12.4804777,23.8096931 L12.4953491,23.8136134 L12.4953491,23.8136134 L12.5071152,23.8096931 L12.6106902,23.7357139 L12.6232938,23.7196733 L12.6232938,23.7196733 L12.6266527,23.7031097 L12.609561,23.275831 C12.6075724,23.2657013 12.6010112,23.2592993 12.5934901,23.257841 L12.5934901,23.257841 Z M12.8583906,23.1452862 L12.8445485,23.1473072 L12.6598443,23.2396597 L12.6498822,23.2499052 L12.6498822,23.2499052 L12.6471943,23.2611114 L12.6650943,23.6906389 L12.6699349,23.7034178 L12.6699349,23.7034178 L12.678386,23.7104931 L12.8793402,23.8032389 C12.8914285,23.8068999 12.9022333,23.8029875 12.9078286,23.7952264 L12.9118235,23.7811639 L12.8776777,23.1665331 C12.8752882,23.1545897 12.8674102,23.1470016 12.8583906,23.1452862 L12.8583906,23.1452862 Z M12.1430473,23.1473072 C12.1332178,23.1423925 12.1221763,23.1452606 12.1156365,23.1525954 L12.1099173,23.1665331 L12.0757714,23.7811639 C12.0751323,23.7926639 12.0828099,23.8018602 12.0926481,23.8045676 L12.108256,23.8032389 L12.3092106,23.7104931 L12.3186497,23.7024347 L12.3186497,23.7024347 L12.3225043,23.6906389 L12.340401,23.2611114 L12.337245,23.2485176 L12.337245,23.2485176 L12.3277531,23.2396597 L12.1430473,23.1473072 Z" id="MingCute" fill-rule="nonzero"></path>
                <path d="M19.1486,2.32773 C19.9951,1.86321 21,2.48922 21,3.42569 L21,20.5743 C21,21.5108 19.995,22.1368 19.1486,21.6723 C18.0119,21.0484 14.6462,19.2303 12.6307,18.4293 C11.2692,17.8883 10.0174,17.5434 8.75415,17.3283 L7.98058,21.1961 C7.87227,21.7377 7.34544,22.0889 6.80388,21.9806 C6.26232,21.8723 5.91111,21.3454 6.01942,20.8039 L6.76239,17.089 C6.49612,17.069 6.22676,17.0529 5.9533,17.0402 C4.34937,16.9659 3,15.6714 3,14 L3,9.99999 C3,8.32857 4.34937,7.03413 5.9533,6.95974 C6.30837,6.94327 6.65653,6.92108 7,6.89195 L7,16 L7.03366,16 C7.24212,15.6387 7.66444,15.4331 8.09612,15.5194 C8.38961,15.5781 8.6272,15.7597 8.76604,16 L9,16 L9,6.62818 C10.1804,6.41102 11.3576,6.07662 12.6307,5.57069 C14.6462,4.76973 18.0119,2.95158 19.1486,2.32773 Z" id="路径" fill="#09244B"></path>
            </g>
        </g>
    </g>
</svg>