<?xml version="1.0" encoding="UTF-8"?>
<svg width="24px" height="24px" viewBox="0 0 24 24" version="1.1" xmlns="http://www.w3.org/2000/svg" xmlns:xlink="http://www.w3.org/1999/xlink">
    <title>live_photo_line</title>
    <g id="页面-1" stroke="none" stroke-width="1" fill="none" fill-rule="evenodd">
        <g id="Media" transform="translate(-864.000000, -96.000000)" fill-rule="nonzero">
            <g id="live_photo_line" transform="translate(864.000000, 96.000000)">
                <rect id="矩形" x="0" y="0" width="24" height="24"></rect>
                <path d="M12.1914,19.9978 C12.7436,19.9848 13.2016,20.4219 13.2146,20.9741 C13.2275,21.5262 12.7904,21.9843 12.2383,21.9972 L12,22 L12,22 L11.7617,21.9972 L11.7617,21.9972 C11.2096,21.9843 10.7725,21.5262 10.7854,20.9741 C10.7984,20.4219 11.2564,19.9848 11.8086,19.9978 L12,20 L12,20 L12.1914,19.9978 L12.1914,19.9978 Z M17.5381,19.1649 C17.826,19.6362 17.6773,20.2516 17.206,20.5395 C17.0708,20.6221 16.9334,20.7016 16.794,20.7779 C16.3095,21.043 15.7018,20.8652 15.4367,20.3807 C15.1716,19.8962 15.3494,19.2885 15.8339,19.0234 C15.9454,18.9624 16.0553,18.8988 16.1635,18.8327 C16.6348,18.5448 17.2503,18.6935 17.5381,19.1649 Z M7.83651,18.8327 C7.94472,18.8988 8.0546,18.9624 8.16608,19.0234 C8.65058,19.2885 8.82843,19.8962 8.56332,20.3807 C8.29821,20.8652 7.69054,21.043 7.20604,20.7779 C7.06663,20.7016 6.92924,20.6221 6.79398,20.5395 C6.32267,20.2516 6.17397,19.6362 6.46185,19.1649 C6.74974,18.6935 7.3652,18.5448 7.83651,18.8327 Z M12,6 C15.3137,6 18,8.68629 18,12 C18,15.3137 15.3137,18 12,18 C8.68629,18 6,15.3137 6,12 C6,8.68629 8.68629,6 12,6 Z M20.3807,15.4367 C20.8652,15.7018 21.043,16.3095 20.7779,16.794 C20.7016,16.9334 20.6221,17.0708 20.5395,17.206 C20.2516,17.6773 19.6362,17.826 19.1649,17.5381 C18.6935,17.2503 18.5448,16.6348 18.8327,16.1635 C18.8988,16.0553 18.9624,15.9454 19.0234,15.8339 C19.2885,15.3494 19.8962,15.1716 20.3807,15.4367 Z M4.9766,15.8339 C5.0376,15.9454 5.10118,16.0553 5.16728,16.1635 C5.45516,16.6348 5.30646,17.2503 4.83514,17.5381 C4.36383,17.826 3.74837,17.6773 3.46048,17.206 C3.37787,17.0708 3.29837,16.9334 3.22208,16.794 C2.95697,16.3095 3.13482,15.7018 3.61932,15.4367 C4.10382,15.1716 4.71149,15.3494 4.9766,15.8339 Z M12,8 C9.79086,8 8,9.79086 8,12 C8,14.2091 9.79086,16 12,16 C14.2091,16 16,14.2091 16,12 C16,9.79086 14.2091,8 12,8 Z M12,10 C13.1046,10 14,10.8954 14,12 C14,13.1046 13.1046,14 12,14 C10.8954,14 10,13.1046 10,12 C10,10.8954 10.8954,10 12,10 Z M3.02594,10.7854 C3.57807,10.7984 4.01518,11.2564 4.00224,11.8086 L4,12 C4,12.064 4.00075,12.1278 4.00224,12.1914 C4.01518,12.7436 3.57807,13.2016 3.02594,13.2146 C2.4738,13.2275 2.01572,12.7904 2.00279,12.2383 L2,12 C2,11.9204 2.00093,11.8409 2.00279,11.7617 C2.01572,11.2096 2.4738,10.7725 3.02594,10.7854 Z M20.9741,10.7854 C21.5262,10.7725 21.9843,11.2096 21.9972,11.7617 L22,12 L21.9972,12.2383 L21.9972,12.2383 C21.9843,12.7904 21.5262,13.2275 20.9741,13.2146 C20.4219,13.2016 19.9848,12.7436 19.9978,12.1914 L20,12 L19.9978,11.8086 L19.9978,11.8086 C19.9848,11.2564 20.4219,10.7984 20.9741,10.7854 Z M20.5395,6.79398 C20.6221,6.92924 20.7016,7.06663 20.7779,7.20604 C21.043,7.69054 20.8652,8.29821 20.3807,8.56332 C19.8962,8.82843 19.2885,8.65058 19.0234,8.16608 C18.9624,8.0546 18.8988,7.94472 18.8327,7.83651 C18.5448,7.3652 18.6935,6.74974 19.1649,6.46185 C19.6362,6.17397 20.2516,6.32267 20.5395,6.79398 Z M4.83514,6.46185 C5.30646,6.74974 5.45516,7.3652 5.16727,7.83651 C5.10118,7.94472 5.0376,8.0546 4.9766,8.16608 C4.71149,8.65058 4.10382,8.82843 3.61932,8.56332 C3.13482,8.29821 2.95697,7.69054 3.22208,7.20604 C3.29837,7.06663 3.37787,6.92924 3.46048,6.79398 C3.74837,6.32267 4.36383,6.17397 4.83514,6.46185 Z M16.794,3.22208 C16.9334,3.29837 17.0708,3.37787 17.206,3.46048 C17.6773,3.74837 17.826,4.36383 17.5381,4.83514 C17.2503,5.30646 16.6348,5.45516 16.1635,5.16727 C16.0553,5.10118 15.9454,5.0376 15.8339,4.9766 C15.3494,4.71149 15.1716,4.10382 15.4367,3.61932 C15.7018,3.13482 16.3095,2.95697 16.794,3.22208 Z M8.56332,3.61932 C8.82843,4.10382 8.65058,4.71149 8.16608,4.9766 C8.0546,5.0376 7.94472,5.10118 7.83651,5.16728 C7.3652,5.45516 6.74974,5.30646 6.46185,4.83514 C6.17397,4.36383 6.32267,3.74837 6.79398,3.46048 C6.92924,3.37787 7.06663,3.29837 7.20604,3.22208 C7.69054,2.95697 8.29821,3.13482 8.56332,3.61932 Z M12.2383,2.00279 C12.7904,2.01572 13.2275,2.4738 13.2146,3.02594 C13.2016,3.57807 12.7436,4.01518 12.1914,4.00224 L12,4 L12,4 L11.8086,4.00224 L11.8086,4.00224 C11.2564,4.01518 10.7984,3.57807 10.7854,3.02594 C10.7725,2.4738 11.2096,2.01572 11.7617,2.00279 L12,2 L12.2383,2.00279 L12.2383,2.00279 Z" id="形状" fill="#09244B"></path>
            </g>
        </g>
    </g>
</svg>