<?xml version="1.0" encoding="UTF-8"?>
<svg width="24px" height="24px" viewBox="0 0 24 24" version="1.1" xmlns="http://www.w3.org/2000/svg" xmlns:xlink="http://www.w3.org/1999/xlink">
    <title>mic_off_fill</title>
    <g id="页面-1" stroke="none" stroke-width="1" fill="none" fill-rule="evenodd">
        <g id="Media" transform="translate(-528.000000, -144.000000)" fill-rule="nonzero">
            <g id="mic_off_fill" transform="translate(528.000000, 144.000000)">
                <rect id="矩形" x="0" y="0" width="24" height="24"></rect>
                <path d="M4.92933,12.0101 C5.47605,11.9319 5.98265,12.3117 6.06085,12.8584 C6.47663,15.7652 8.97821,18 12,18 C12.6608571,18 13.2968816,17.893102 13.8916373,17.6956793 L14.1855,17.5895 L15.694,19.098 C14.9729125,19.474075 14.1872828,19.7434984 13.3580125,19.8852348 L13,19.9381 L13,21 C13,21.5523 12.5523,22 12,22 C11.48715,22 11.0644908,21.613973 11.0067275,21.1166239 L11,21 L11,19.9381 C7.42844,19.4928 4.58908,16.6936 4.081,13.1416 C4.0028,12.5949 4.38261,12.0883 4.92933,12.0101 Z M12,2 C14.6887316,2 16.8818169,4.12231026 16.9953804,6.78311066 L17,7 L17,12 C17,12.9263636 16.7480165,13.7939669 16.3089632,14.5378963 L16.1717,14.7573 L16.8909,15.4766 C17.4325,14.7163 17.801,13.8245 17.9392,12.8584 C18.0174,12.3117 18.524,11.9319 19.0707,12.0101 C19.6175,12.0883 19.9973,12.5949 19.9191,13.1416 C19.7334692,14.4390769 19.2368325,15.6360947 18.5070561,16.6546298 L18.3198,16.9055 L20.4854,19.071 C20.8759,19.4616 20.8759,20.0947 20.4854,20.4853 C20.1249385,20.8457615 19.5576793,20.8734893 19.1654027,20.5684834 L19.0712,20.4853 L3.51482,4.92891 C3.12429,4.53838 3.12429,3.90522 3.51482,3.51469 C3.8753,3.15421 4.44253503,3.12648077 4.8348235,3.43150231 L4.92903,3.51469 L7.15892,5.74458 C7.71585,3.5908 9.67215,2 12,2 Z M7,10.404 L13.3979,16.802 C12.9543,16.9309 12.4852,17 12,17 C9.23858,17 7,14.7614 7,12 L7,10.404 Z" id="形状" fill="#09244B"></path>
            </g>
        </g>
    </g>
</svg>