<?xml version="1.0" encoding="UTF-8"?>
<svg width="24px" height="24px" viewBox="0 0 24 24" version="1.1" xmlns="http://www.w3.org/2000/svg" xmlns:xlink="http://www.w3.org/1999/xlink">
    <title>mic_fill</title>
    <g id="页面-1" stroke="none" stroke-width="1" fill="none" fill-rule="evenodd">
        <g id="Media" transform="translate(-528.000000, -48.000000)" fill-rule="nonzero">
            <g id="mic_fill" transform="translate(528.000000, 48.000000)">
                <rect id="矩形" x="0" y="0" width="24" height="24"></rect>
                <path d="M19.0707,12.0101 C19.6175,12.0883 19.9973,12.5949 19.9191,13.1416 C19.411,16.6937 16.5716,19.4929 13,19.9381 L13,21 C13,21.5523 12.5523,22 12,22 C11.4477,22 11,21.5523 11,21 L11,19.9381 C7.42844,19.4928 4.58908,16.6936 4.081,13.1416 C4.0028,12.5949 4.38261,12.0883 4.92933,12.0101 C5.47605,11.9319 5.98265,12.3117 6.06085,12.8584 C6.47663,15.7652 8.97821,18 12,18 C15.0219,18 17.5234,15.7652 17.9392,12.8584 C18.0174,12.3117 18.524,11.9319 19.0707,12.0101 Z M12,2 C14.7614,2 17,4.23858 17,7 L17,12 C17,14.7614 14.7614,17 12,17 C9.23858,17 7,14.7614 7,12 L7,7 C7,4.23858 9.23858,2 12,2 Z" id="形状" fill="#09244B"></path>
            </g>
        </g>
    </g>
</svg>