<svg xmlns="http://www.w3.org/2000/svg" width="24" height="24"><g fill="none"><path d="M24 0v24H0V0zM12.594 23.258l-.012.002-.071.035-.02.004-.014-.004-.071-.036c-.01-.003-.019 0-.024.006l-.004.01-.017.428.005.02.01.013.104.074.015.004.012-.004.104-.074.012-.016.004-.017-.017-.427c-.002-.01-.009-.017-.016-.018m.264-.113-.014.002-.184.093-.01.01-.003.011.018.43.005.012.008.008.201.092c.012.004.023 0 .029-.008l.004-.014-.034-.614c-.003-.012-.01-.02-.02-.022m-.715.002a.023.023 0 0 0-.027.006l-.006.014-.034.614c0 .012.007.02.017.024l.015-.002.201-.093.01-.008.003-.011.018-.43-.003-.012-.01-.01z"/><path fill="#09244B" d="M19.07 12.01a1 1 0 0 1 .85 1.132A8.004 8.004 0 0 1 13 19.938V21a1 1 0 1 1-2 0v-1.062a8.005 8.005 0 0 1-6.919-6.796 1 1 0 0 1 1.98-.284 6.001 6.001 0 0 0 11.878 0 1 1 0 0 1 1.132-.848M12 2c.819 0 1.592.197 2.274.546a3 3 0 0 0 .757 5.293l.378.13a1 1 0 0 1 .623.622l.129.378c.17.5.464.932.839 1.267V12a5 5 0 0 1-10 0V7a5 5 0 0 1 5-5m7-1a1 1 0 0 1 .898.56l.048.117.13.378a3 3 0 0 0 1.684 1.8l.185.07.378.129a1 1 0 0 1 .118 1.844l-.118.048-.378.13a3 3 0 0 0-1.8 1.684l-.07.185-.129.378a1 1 0 0 1-1.844.117l-.048-.117-.13-.378a3 3 0 0 0-1.684-1.8l-.185-.07-.378-.129a1 1 0 0 1-.118-1.844l.118-.048.378-.13a3 3 0 0 0 1.8-1.684l.07-.185.129-.378A1 1 0 0 1 19 1"/></g></svg>