<?xml version="1.0" encoding="UTF-8"?>
<svg width="24px" height="24px" viewBox="0 0 24 24" version="1.1" xmlns="http://www.w3.org/2000/svg" xmlns:xlink="http://www.w3.org/1999/xlink">
    <title>mic_2_fill</title>
    <g id="页面-1" stroke="none" stroke-width="1" fill="none" fill-rule="evenodd">
        <g id="Media" transform="translate(-48.000000, -240.000000)" fill-rule="nonzero">
            <g id="mic_2_fill" transform="translate(48.000000, 240.000000)">
                <rect id="矩形" x="0" y="0" width="24" height="24"></rect>
                <path d="M4.10002,6 L8,6 C8.55228,6 9,6.44772 9,7 C9,7.55228 8.55228,8 8,8 L4,8 L4,11 L8,11 C8.55228,11 9,11.4477 9,12 C9,12.5523 8.55228,13 8,13 L4,13 C4,15.7614 6.23858,18 9,18 L11,18 L11,20 L9,20 C8.44772,20 8,20.4477 8,21 C8,21.5523 8.44772,22 9,22 L15,22 C15.5523,22 16,21.5523 16,21 C16,20.4477 15.5523,20 15,20 L13,20 L13,18 L15,18 C17.7614,18 20,15.7614 20,13 L16,13 C15.4477,13 15,12.5523 15,12 C15,11.4477 15.4477,11 16,11 L20,11 L20,8 L16,8 C15.4477,8 15,7.55228 15,7 C15,6.44772 15.4477,6 16,6 L19.9,6 C19.4367,3.71776 17.419,2 15,2 L9,2 C6.58104,2 4.56329,3.71776 4.10002,6 Z" id="路径" fill="#09244B"></path>
            </g>
        </g>
    </g>
</svg>