<?xml version="1.0" encoding="UTF-8"?>
<svg width="24px" height="24px" viewBox="0 0 24 24" version="1.1" xmlns="http://www.w3.org/2000/svg" xmlns:xlink="http://www.w3.org/1999/xlink">
    <title>microphone_line</title>
    <g id="页面-1" stroke="none" stroke-width="1" fill="none" fill-rule="evenodd">
        <g id="microphone_line">
            <rect id="矩形" fill-opacity="0.01" fill="#FFFFFF" fill-rule="nonzero" x="0" y="0" width="24" height="24"></rect>
            <path d="M3.86837,4.36837 C6.60204,1.6347 11.0342,1.6347 13.7679,4.36837 C15.572175,6.17267393 16.185595,8.71690356 15.6080704,11.024342 L15.539,11.2797 L18.9396,15.6519 C19.5381,16.4214 19.6592,17.4238 19.3262,18.2844 C19.42556,18.31488 19.548472,18.330192 19.6982128,18.3002304 L19.8156,18.2688 C20.3396,18.0942 20.9059,18.3773 21.0806,18.9013 C21.2552,19.4252 20.9721,19.9915 20.4481,20.1662 C19.64,20.4356 18.9425,20.3009 18.4563,20.0925 C18.22,19.9912 18.0335,19.8732 17.9024,19.7773 C17.0756533,20.1431667 16.0973333,20.0773107 15.3161516,19.5578613 L15.1519,19.4396 L10.7797,16.039 C8.40641,16.7294 5.73951,16.139 3.86837,14.2679 C1.1347,11.5342 1.1347,7.10204 3.86837,4.36837 Z M14.5767,13.3 C14.3407,13.6405 14.0711,13.9646 13.7679,14.2679 C13.4646,14.5711 13.1405,14.8407 12.8001,15.0767 L16.3798,17.8609 C16.6581,18.0774 17.0541,18.0527 17.3034,17.8034 C17.5527,17.5541 17.5774,17.1581 17.3609,16.8797 L14.5767,13.3 Z M12.921,6.45896 L12.7178,6.79509 L12.7178,6.79509 C12.1122,7.77335 11.1822,9.07537 9.87881,10.3788 C8.57538,11.6822 7.27337,12.6122 6.29511,13.2178 L5.95896,13.421 L5.95896,13.421 C7.90888,14.7832 10.6132,14.5941 12.3536,12.8536 C14.0941,11.1132 14.2832,8.40888 12.921,6.45896 Z M11.423,5.04894 C9.49776,3.87203 6.94858,4.11658 5.28258,5.78258 C3.61658,7.44858 3.37203,9.99775 4.54893,11.923 L4.872595,11.739575 C4.988505,11.672 5.112105,11.59795 5.2424,11.5173 C6.12029,10.9738 7.29315,10.136 8.4646,8.96458 C9.63604,7.79313 10.4738,6.62027 11.0173,5.74238 L11.1333406,5.55209062 L11.1333406,5.55209062 L11.3360969,5.20462437 C11.3666625,5.15064125 11.395625,5.098705 11.423,5.04894 Z" id="形状" fill="#09244B"></path>
        </g>
    </g>
</svg>