<svg width="24" height="24" viewBox="0 0 24 24" fill="none" xmlns="http://www.w3.org/2000/svg">
<rect width="24" height="24" fill="white" fill-opacity="0.01"/>
<path d="M2.81432 12.9207C1.19714 10.2306 1.5484 6.68784 3.86812 4.36812C6.18728 2.04897 9.72888 1.69731 12.4188 3.31314C11.4809 5.36545 10.167 7.28896 8.47568 8.9803C6.78603 10.6699 4.86457 11.983 2.81432 12.9207Z" fill="#09244B"/>
<path d="M4.1259 14.5128C5.97909 16.1894 8.51314 16.698 10.7795 16.0388L15.1516 19.4394C15.9558 20.0648 17.0143 20.1689 17.8995 19.7782C18.0718 19.9051 18.2627 20.0094 18.4561 20.0923C18.9423 20.3007 19.6398 20.4354 20.4479 20.166C20.9718 19.9913 21.255 19.425 21.0803 18.9011C20.9057 18.3771 20.3393 18.094 19.8154 18.2686C19.6574 18.3213 19.4845 18.3282 19.3261 18.2838C19.6589 17.4233 19.5378 16.421 18.9394 15.6516L15.5388 11.2794C16.1982 9.01242 15.6891 6.47753 14.0113 4.6242C12.9948 6.70963 11.6206 8.66383 9.8899 10.3945C8.16088 12.1235 6.20887 13.4967 4.1259 14.5128Z" fill="#09244B"/>
</svg>
