<?xml version="1.0" encoding="UTF-8"?>
<svg width="24px" height="24px" viewBox="0 0 24 24" version="1.1" xmlns="http://www.w3.org/2000/svg" xmlns:xlink="http://www.w3.org/1999/xlink">
    <title>movie_fill</title>
    <g id="页面-1" stroke="none" stroke-width="1" fill="none" fill-rule="evenodd">
        <g id="Media" transform="translate(-624.000000, -48.000000)" fill-rule="nonzero">
            <g id="movie_fill" transform="translate(624.000000, 48.000000)">
                <rect id="矩形" x="0" y="0" width="24" height="24"></rect>
                <path d="M12,2 C17.5228,2 22,6.47715 22,12 C22,15.2712 20.4293,18.1755 18.001,20 L20,20 C20.5523,20 21,20.4477 21,21 C21,21.5523 20.5523,22 20,22 L12,22 C6.47715,22 2,17.5228 2,12 C2,6.47715 6.47715,2 12,2 Z M12,14 C10.8954,14 10,14.8954 10,16 C10,17.1046 10.8954,18 12,18 C13.1046,18 14,17.1046 14,16 C14,14.8954 13.1046,14 12,14 Z M8,10 C6.89543,10 6,10.8954 6,12 C6,13.1046 6.89543,14 8,14 C9.10457,14 10,13.1046 10,12 C10,10.8954 9.10457,10 8,10 Z M16,10 C14.8954,10 14,10.8954 14,12 C14,13.1046 14.8954,14 16,14 C17.1046,14 18,13.1046 18,12 C18,10.8954 17.1046,10 16,10 Z M12,6 C10.8954,6 10,6.89543 10,8 C10,9.10457 10.8954,10 12,10 C13.1046,10 14,9.10457 14,8 C14,6.89543 13.1046,6 12,6 Z" id="形状" fill="#09244B"></path>
            </g>
        </g>
    </g>
</svg>