<?xml version="1.0" encoding="UTF-8"?>
<svg width="24px" height="24px" viewBox="0 0 24 24" version="1.1" xmlns="http://www.w3.org/2000/svg" xmlns:xlink="http://www.w3.org/1999/xlink">
    <title>music_fill</title>
    <g id="页面-1" stroke="none" stroke-width="1" fill="none" fill-rule="evenodd">
        <g id="Media" transform="translate(-912.000000, -144.000000)" fill-rule="nonzero">
            <g id="music_fill" transform="translate(912.000000, 144.000000)">
                 <path d="M24,0 L24,24 L0,24 L0,0 L24,0 Z M12.5934901,23.257841 L12.5819402,23.2595131 L12.5108777,23.2950439 L12.4918791,23.2987469 L12.4918791,23.2987469 L12.4767152,23.2950439 L12.4056548,23.2595131 C12.3958229,23.2563662 12.3870493,23.2590235 12.3821421,23.2649074 L12.3780323,23.275831 L12.360941,23.7031097 L12.3658947,23.7234994 L12.3769048,23.7357139 L12.4804777,23.8096931 L12.4953491,23.8136134 L12.4953491,23.8136134 L12.5071152,23.8096931 L12.6106902,23.7357139 L12.6232938,23.7196733 L12.6232938,23.7196733 L12.6266527,23.7031097 L12.609561,23.275831 C12.6075724,23.2657013 12.6010112,23.2592993 12.5934901,23.257841 L12.5934901,23.257841 Z M12.8583906,23.1452862 L12.8445485,23.1473072 L12.6598443,23.2396597 L12.6498822,23.2499052 L12.6498822,23.2499052 L12.6471943,23.2611114 L12.6650943,23.6906389 L12.6699349,23.7034178 L12.6699349,23.7034178 L12.678386,23.7104931 L12.8793402,23.8032389 C12.8914285,23.8068999 12.9022333,23.8029875 12.9078286,23.7952264 L12.9118235,23.7811639 L12.8776777,23.1665331 C12.8752882,23.1545897 12.8674102,23.1470016 12.8583906,23.1452862 L12.8583906,23.1452862 Z M12.1430473,23.1473072 C12.1332178,23.1423925 12.1221763,23.1452606 12.1156365,23.1525954 L12.1099173,23.1665331 L12.0757714,23.7811639 C12.0751323,23.7926639 12.0828099,23.8018602 12.0926481,23.8045676 L12.108256,23.8032389 L12.3092106,23.7104931 L12.3186497,23.7024347 L12.3186497,23.7024347 L12.3225043,23.6906389 L12.340401,23.2611114 L12.337245,23.2485176 L12.337245,23.2485176 L12.3277531,23.2396597 L12.1430473,23.1473072 Z" id="MingCute" fill-rule="nonzero"></path>
                <path d="M10.4143,3.01228 C10.6903,3.79336 10.2809,4.65034 9.49987,4.92641 C6.58487,5.95672 4.5,8.73683 4.5,12 C4.5,16.1422 7.85786,19.5 12,19.5 C16.1421,19.5 19.5,16.1422 19.5,12 C19.5,10.8 19.2192,9.66976 18.7212,8.66758 C18.3525,7.92571 18.6551,7.02544 19.3969,6.65676 C20.1388,6.28808 21.0391,6.59061 21.4077,7.33248 C22.1073,8.74022 22.5,10.3264 22.5,12 C22.5,17.799 17.799,22.5 12,22.5 C6.20101,22.5 1.5,17.799 1.5,12 C1.5,7.42593 4.42398,3.5386 8.50013,2.09789 C9.28121,1.82182 10.1382,2.23121 10.4143,3.01228 Z M12.5,3.01366 C12.5,2.02776348 13.4239002,1.31902786 14.359965,1.54457137 L14.4876,1.58118 L17.4744,2.57704 C18.2603,2.83907 18.685,3.68858 18.423,4.47448 C18.1764118,5.21414118 17.4094083,5.63383779 16.6648159,5.46219836 L16.5256,5.42302 L15.5,5.08108 L15.5,12 L15.4948211,12.1920355 C15.3951267,14.0357256 13.8685667,15.5 12,15.5 C10.067,15.5 8.5,13.933 8.5,12 C8.5,10.067 10.067,8.5 12,8.5 C12.1132,8.5 12.2251111,8.50537333 12.3355259,8.51587407 L12.5,8.53544 L12.5,3.01366 Z" id="形状" fill="#09244B"></path>
            </g>
        </g>
    </g>
</svg>