<?xml version="1.0" encoding="UTF-8"?>
<svg width="24px" height="24px" viewBox="0 0 24 24" version="1.1" xmlns="http://www.w3.org/2000/svg" xmlns:xlink="http://www.w3.org/1999/xlink">
    <title>music_fill</title>
    <g id="页面-1" stroke="none" stroke-width="1" fill="none" fill-rule="evenodd">
        <g id="Media" transform="translate(-912.000000, -144.000000)" fill-rule="nonzero">
            <g id="music_fill" transform="translate(912.000000, 144.000000)">
                <rect id="矩形" x="0" y="0" width="24" height="24"></rect>
                <path d="M10.4143,3.01228 C10.6903,3.79336 10.2809,4.65034 9.49987,4.92641 C6.58487,5.95672 4.5,8.73683 4.5,12 C4.5,16.1422 7.85786,19.5 12,19.5 C16.1421,19.5 19.5,16.1422 19.5,12 C19.5,10.8 19.2192,9.66976 18.7212,8.66758 C18.3525,7.92571 18.6551,7.02544 19.3969,6.65676 C20.1388,6.28808 21.0391,6.59061 21.4077,7.33248 C22.1073,8.74022 22.5,10.3264 22.5,12 C22.5,17.799 17.799,22.5 12,22.5 C6.20101,22.5 1.5,17.799 1.5,12 C1.5,7.42593 4.42398,3.5386 8.50013,2.09789 C9.28121,1.82182 10.1382,2.23121 10.4143,3.01228 Z M12.5,3.01366 C12.5,2.02776348 13.4239002,1.31902786 14.359965,1.54457137 L14.4876,1.58118 L17.4744,2.57704 C18.2603,2.83907 18.685,3.68858 18.423,4.47448 C18.1764118,5.21414118 17.4094083,5.63383779 16.6648159,5.46219836 L16.5256,5.42302 L15.5,5.08108 L15.5,12 L15.4948211,12.1920355 C15.3951267,14.0357256 13.8685667,15.5 12,15.5 C10.067,15.5 8.5,13.933 8.5,12 C8.5,10.067 10.067,8.5 12,8.5 C12.1132,8.5 12.2251111,8.50537333 12.3355259,8.51587407 L12.5,8.53544 L12.5,3.01366 Z" id="形状" fill="#09244B"></path>
            </g>
        </g>
    </g>
</svg>