<svg xmlns="http://www.w3.org/2000/svg" width="24" height="24"><g fill="none" fill-rule="nonzero"><path d="M24 0v24H0V0h24ZM12.593 23.258l-.011.002-.071.035-.02.004-.014-.004-.071-.035c-.01-.004-.019-.001-.024.005l-.004.01-.017.428.005.02.01.013.104.074.015.004.012-.004.104-.074.012-.016.004-.017-.017-.427c-.002-.01-.009-.017-.017-.018Zm.265-.113-.013.002-.185.093-.01.01-.003.011.018.43.005.012.008.007.201.093c.012.004.023 0 .029-.008l.004-.014-.034-.614c-.003-.012-.01-.02-.02-.022Zm-.715.002a.023.023 0 0 0-.027.006l-.006.014-.034.614c0 .012.007.02.017.024l.015-.002.201-.093.01-.008.004-.011.017-.43-.003-.012-.01-.01-.184-.092Z"/><path fill="#09244B" d="M15 19a2 2 0 0 1-1.85 1.995L13 21h-2a2 2 0 0 1-1.994-1.85L9 19h6ZM12 2a7 7 0 0 1 6.996 6.76L19 9v3.764l1.822 3.644a1.1 1.1 0 0 1-.869 1.586l-.115.006h-.424l1.071 1.071a1 1 0 0 1-1.32 1.497l-.094-.083L3.515 4.93a1 1 0 0 1 1.32-1.497l.094.083 1.392 1.392A6.99 6.99 0 0 1 12.001 2ZM5.023 8.427 7 10.404v2.36a2 2 0 0 1-.211.894L5.619 16h6.977l2 2H4.162a1.1 1.1 0 0 1-.984-1.592L5 12.764V9c0-.193.008-.384.023-.573ZM12 4a4.997 4.997 0 0 0-4.239 2.347L17.414 16h.968l-1.17-2.342a2.001 2.001 0 0 1-.212-.894V9a5 5 0 0 0-5-5Z"/></g></svg>