<svg width="24" height="24" viewBox="0 0 24 24" fill="none" xmlns="http://www.w3.org/2000/svg">
<rect width="24" height="24" fill="white" fill-opacity="0.01"/>
<path fill-rule="evenodd" clip-rule="evenodd" d="M12.0002 2C8.13417 2 5.00016 5.13401 5.00016 9V12.7639L3.1781 16.4081C2.8124 17.1395 3.34425 18 4.16197 18H19.8384C20.6561 18 21.1879 17.1395 20.8222 16.4081L19.0002 12.7639V9C19.0002 5.13401 15.8662 2 12.0002 2ZM7.00016 9C7.00016 6.23858 9.23874 4 12.0002 4C14.7616 4 17.0002 6.23858 17.0002 9V12.7639C17.0002 13.0744 17.0725 13.3806 17.2113 13.6584L18.3821 16H5.6182L6.78902 13.6584C6.92787 13.3806 7.00016 13.0744 7.00016 12.7639V9Z" fill="#09244B"/>
<path d="M15 19H9C9 20.1046 9.89543 21 11 21H13C14.1046 21 15 20.1046 15 19Z" fill="#09244B"/>
</svg>
