<svg xmlns="http://www.w3.org/2000/svg" width="24" height="24" viewBox="0 0 24 24"><g fill="none" fill-rule="evenodd"><path d="M24,0 L24,24 L0,24 L0,0 L24,0 Z M12.5935,23.2578 L12.5819,23.2595 L12.5109,23.295 L12.4919,23.2987 L12.4767,23.295 L12.4057,23.2595 C12.3958,23.2564 12.387,23.259 12.3821,23.2649 L12.378,23.2758 L12.3609,23.7031 L12.3659,23.7235 L12.3769,23.7357 L12.4805,23.8097 L12.4953,23.8136 L12.5071,23.8097 L12.6107,23.7357 L12.6233,23.7197 L12.6267,23.7031 L12.6096,23.2758 C12.6076,23.2657 12.601,23.2593 12.5935,23.2578 Z M12.8584,23.1453 L12.8445,23.1473 L12.6598,23.2397 L12.6499,23.2499 L12.6472,23.2611 L12.6651,23.6906 L12.6699,23.7034 L12.6784,23.7105 L12.8793,23.8032 C12.8914,23.8069 12.9022,23.803 12.9078,23.7952 L12.9118,23.7812 L12.8777,23.1665 C12.8753,23.1546 12.8674,23.147 12.8584,23.1453 Z M12.143,23.1473 C12.1332,23.1424 12.1222,23.1453 12.1156,23.1526 L12.1099,23.1665 L12.0758,23.7812 C12.0751,23.7927 12.0828,23.8019 12.0926,23.8046 L12.1083,23.8032 L12.3092,23.7105 L12.3186,23.7024 L12.3225,23.6906 L12.3404,23.2611 L12.3372,23.2485 L12.3278,23.2397 L12.143,23.1473 Z"/><path fill="#09244B" d="M5.00016,9 C5.00016,5.13401 8.13417,2 12.0002,2 C15.8662,2 19.0002,5.13401 19.0002,9 L19.0002,12.7639 L20.8222,16.4081 C21.1879,17.1395 20.6561,18 19.8384,18 L15.874,18 C15.4299,19.7252 13.8638,21 12,21 C10.1362,21 8.57006,19.7252 8.12602,18 L4.16197,18 C3.34425,18 2.8124,17.1395 3.1781,16.4081 L5.00016,12.7639 L5.00016,9 Z M10.2676,18 C10.6134,18.5978 11.2597,19 12,19 C12.7403,19 13.3866,18.5978 13.7324,18 L10.2676,18 Z M12.0002,4 C9.23874,4 7.00016,6.23858 7.00016,9 L7.00016,12.7639 C7.00016,13.0744 6.92787,13.3806 6.78902,13.6584 L5.6182,16 L18.3821,16 L17.2113,13.6584 C17.0725,13.3806 17.0002,13.0744 17.0002,12.7639 L17.0002,9 C17.0002,6.23858 14.7616,4 12.0002,4 Z"/></g></svg>