<?xml version="1.0" encoding="UTF-8"?>
<svg width="24px" height="24px" viewBox="0 0 24 24" version="1.1" xmlns="http://www.w3.org/2000/svg" xmlns:xlink="http://www.w3.org/1999/xlink">
    <title>notification_off_line</title>
    <g id="页面-1" stroke="none" stroke-width="1" fill="none" fill-rule="evenodd">
        <g id="Media" transform="translate(-576.000000, -96.000000)" fill-rule="nonzero">
            <g id="notification_off_line" transform="translate(576.000000, 96.000000)">
                <rect id="矩形" x="0" y="0" width="24" height="24"></rect>
                <path d="M15.0001,19 C15.0001,20.0543909 14.1841589,20.9181678 13.1493537,20.9945144 L13.0001,21 L11.0001,21 C9.94570909,21 9.0819049,20.18415 9.00555574,19.1492661 L9.00007,19 L15.0001,19 Z M12.0002,2 C15.7856583,2 18.869299,5.0047865 18.996141,8.75935044 L19.0002,9 L19.0002,12.7639 L20.8222,16.4081 C21.1704857,17.1046714 20.7047125,17.9183404 19.9532033,17.9942531 L19.8384,18 L19.4143,18 L20.4854,19.0711 C20.8759,19.4616 20.8759,20.0948 20.4854,20.4853 C20.1249385,20.8457615 19.5576793,20.8734893 19.1654027,20.5684834 L19.0712,20.4853 L3.51482,4.92894 C3.12429,4.53841 3.12429,3.90525 3.51482,3.51473 C3.8753,3.15424077 4.44253503,3.12651083 4.8348235,3.43154018 L4.92903,3.51473 L6.32104,4.90674 C7.59237,3.14594 9.66244,2 12.0002,2 Z M5.02325,8.42732 L7.00016,10.4042 L7.00016,12.7639 C7.00016,13.0744 6.92787,13.3806 6.78902,13.6584 L5.6182,16 L12.5959,16 L14.5959,18 L4.16197,18 C3.34425,18 2.8124,17.1395 3.1781,16.4081 L5.00016,12.7639 L5.00016,9 C5.00016,8.80719 5.00796,8.6162 5.02325,8.42732 Z M12.0002,4 C10.2134,4 8.64545,4.93727 7.76128,6.34698 L17.4143,16 L18.3821,16 L17.2113,13.6584 C17.0725,13.3806 17.0002,13.0744 17.0002,12.7639 L17.0002,9 C17.0002,6.23858 14.7616,4 12.0002,4 Z" id="形状" fill="#09244B"></path>
            </g>
        </g>
    </g>
</svg>