<svg xmlns="http://www.w3.org/2000/svg" width="24" height="24" viewBox="0 0 24 24"><g fill="none" fill-rule="evenodd"><path d="M24,0 L24,24 L0,24 L0,0 L24,0 Z M12.5935,23.2578 L12.5819,23.2595 L12.5109,23.295 L12.4919,23.2987 L12.4767,23.295 L12.4057,23.2595 C12.3958,23.2564 12.387,23.259 12.3821,23.2649 L12.378,23.2758 L12.3609,23.7031 L12.3659,23.7235 L12.3769,23.7357 L12.4805,23.8097 L12.4953,23.8136 L12.5071,23.8097 L12.6107,23.7357 L12.6233,23.7197 L12.6267,23.7031 L12.6096,23.2758 C12.6076,23.2657 12.601,23.2593 12.5935,23.2578 Z M12.8584,23.1453 L12.8445,23.1473 L12.6598,23.2397 L12.6499,23.2499 L12.6472,23.2611 L12.6651,23.6906 L12.6699,23.7034 L12.6784,23.7105 L12.8793,23.8032 C12.8914,23.8069 12.9022,23.803 12.9078,23.7952 L12.9118,23.7812 L12.8777,23.1665 C12.8753,23.1546 12.8674,23.147 12.8584,23.1453 Z M12.143,23.1473 C12.1332,23.1424 12.1222,23.1453 12.1156,23.1526 L12.1099,23.1665 L12.0758,23.7812 C12.0751,23.7927 12.0828,23.8019 12.0926,23.8046 L12.1083,23.8032 L12.3092,23.7105 L12.3186,23.7024 L12.3225,23.6906 L12.3404,23.2611 L12.3372,23.2485 L12.3278,23.2397 L12.143,23.1473 Z"/><path fill="#09244B" d="M4.99992,9 C4.99992,5.13401 8.13392,2 11.9999,2 C12.1958,2 12.39,2.00807 12.5821,2.02392 C13.1326,2.06933 13.5419,2.55234 13.4965,3.10276 C13.4511,3.65317 12.9681,4.06256 12.4177,4.01715 C12.2801,4.0058 12.1408,4 11.9999,4 C9.23849,4 6.99992,6.23858 6.99992,9 L6.99992,12.5279 C6.99992,12.9936 6.89148,13.4529 6.6832,13.8695 L5.61795,16 L18.3819,16 L17.3166,13.8695 C17.1084,13.4529 16.9999,12.9936 16.9999,12.5279 L16.9999,11.0009 C16.9999,10.4486 17.4476,10 17.9999,10 C18.5522,10 18.9999,10.4477 18.9999,11 L18.9999,12.5279 C18.9999,12.6831 19.0361,12.8362 19.1055,12.9751 L20.822,16.4081 C21.1877,17.1395 20.6558,18 19.8381,18 L15.8739,18 C15.4299,19.7252 13.8638,21 11.9999,21 C10.1361,21 8.56998,19.7252 8.12594,18 L4.16172,18 C3.344,18 2.81216,17.1395 3.17785,16.4081 L4.89435,12.9751 C4.96377,12.8362 4.99992,12.6831 4.99992,12.5279 L4.99992,9 Z M10.2675,18 C10.6133,18.5978 11.2596,19 11.9999,19 C12.7402,19 13.3865,18.5978 13.7324,18 L10.2675,18 Z M17.4999,4 C16.6715,4 15.9999,4.67157 15.9999,5.5 C15.9999,6.32843 16.6715,7 17.4999,7 C18.3283,7 18.9999,6.32843 18.9999,5.5 C18.9999,4.67157 18.3283,4 17.4999,4 Z M13.9999,5.5 C13.9999,3.567 15.5669,2 17.4999,2 C19.4329,2 20.9999,3.567 20.9999,5.5 C20.9999,7.433 19.4329,9 17.4999,9 C15.5669,9 13.9999,7.433 13.9999,5.5 Z"/></g></svg>