<?xml version="1.0" encoding="UTF-8"?>
<svg width="24px" height="24px" viewBox="0 0 24 24" version="1.1" xmlns="http://www.w3.org/2000/svg" xmlns:xlink="http://www.w3.org/1999/xlink">
    <title>notification_line</title>
    <g id="页面-1" stroke="none" stroke-width="1" fill="none" fill-rule="evenodd">
        <g id="Media" transform="translate(-720.000000, 0.000000)">
            <g id="notification_line" transform="translate(720.000000, 0.000000)">
                <rect id="矩形" fill-rule="nonzero" x="0" y="0" width="24" height="24"></rect>
                <path d="M15,19 C15,20.0543909 14.18415,20.9181678 13.1492661,20.9945144 L13,21 L11,21 C9.94563773,21 9.08183483,20.18415 9.00548573,19.1492661 L9,19 L15,19 Z M12.0002,2 C15.7856583,2 18.869299,5.0047865 18.996141,8.75935044 L19.0002,9 L19.0002,12.7639 L20.8222,16.4081 C21.1704857,17.1046714 20.7047125,17.9183404 19.9532033,17.9942531 L19.8384,18 L4.16197,18 C3.38318905,18 2.86370061,17.2195011 3.13189688,16.5133571 L3.1781,16.4081 L5.00016,12.7639 L5.00016,9 C5.00016,5.13401 8.13417,2 12.0002,2 Z M12.0002,4 C9.31141,4 7.11834211,6.12231026 7.00477952,8.78311066 L7.00016,9 L7.00016,12.7639 C7.00016,13.0123 6.9538944,13.257948 6.86429696,13.4885048 L6.78902,13.6584 L5.6182,16 L18.3821,16 L17.2113,13.6584 C17.10026,13.43616 17.03178,13.195744 17.0088296,12.9494912 L17.0002,12.7639 L17.0002,9 C17.0002,6.23858 14.7616,4 12.0002,4 Z" id="形状" fill="#09244B"></path>
            </g>
        </g>
    </g>
</svg>