<?xml version="1.0" encoding="UTF-8"?>
<svg width="24px" height="24px" viewBox="0 0 24 24" version="1.1" xmlns="http://www.w3.org/2000/svg" xmlns:xlink="http://www.w3.org/1999/xlink">
    <title>notification_off_fill</title>
    <g id="页面-1" stroke="none" stroke-width="1" fill="none" fill-rule="evenodd">
        <g id="Media" transform="translate(-576.000000, -144.000000)" fill-rule="nonzero">
            <g id="notification_off_fill" transform="translate(576.000000, 144.000000)">
                <rect id="矩形" x="0" y="0" width="24" height="24"></rect>
                <path d="M15.0001,19 C15.0001,20.0543909 14.1841589,20.9181678 13.1493537,20.9945144 L13.0001,21 L11.0001,21 C9.94570909,21 9.0819049,20.18415 9.00555574,19.1492661 L9.00007,19 L15.0001,19 Z M12.0002,2 C15.8662,2 19.0002,5.13401 19.0002,9 L19.0002,12.7639 L20.8222,16.4081 C21.1879,17.1395 20.6561,18 19.8384,18 L19.4143,18 L20.4854,19.071 C20.8759,19.4616 20.8759,20.0947 20.4854,20.4853 C20.0949,20.8758 19.4617,20.8758 19.0712,20.4853 L3.51482,4.92891 C3.12429,4.53838 3.12429,3.90522 3.51482,3.51469 C3.90534,3.12417 4.53851,3.12417 4.92903,3.51469 L6.32105,4.90672 C7.59238,3.14594 9.66245,2 12.0002,2 Z M5.02325,8.42729 L14.596,18 L4.16197,18 C3.34425,18 2.8124,17.1395 3.1781,16.4081 L5.00016,12.7639 L5.00016,9 C5.00016,8.80718 5.00796,8.61618 5.02325,8.42729 Z" id="形状" fill="#09244B"></path>
            </g>
        </g>
    </g>
</svg>