<?xml version="1.0" encoding="UTF-8"?>
<svg width="24px" height="24px" viewBox="0 0 24 24" version="1.1" xmlns="http://www.w3.org/2000/svg" xmlns:xlink="http://www.w3.org/1999/xlink">
    <title>notification_line</title>
    <g id="页面-1" stroke="none" stroke-width="1" fill="none" fill-rule="evenodd">
        <g id="Media" transform="translate(-720.000000, 0.000000)">
            <g id="notification_line" transform="translate(720.000000, 0.000000)">
                 <path d="M24,0 L24,24 L0,24 L0,0 L24,0 Z M12.5934901,23.257841 L12.5819402,23.2595131 L12.5108777,23.2950439 L12.4918791,23.2987469 L12.4918791,23.2987469 L12.4767152,23.2950439 L12.4056548,23.2595131 C12.3958229,23.2563662 12.3870493,23.2590235 12.3821421,23.2649074 L12.3780323,23.275831 L12.360941,23.7031097 L12.3658947,23.7234994 L12.3769048,23.7357139 L12.4804777,23.8096931 L12.4953491,23.8136134 L12.4953491,23.8136134 L12.5071152,23.8096931 L12.6106902,23.7357139 L12.6232938,23.7196733 L12.6232938,23.7196733 L12.6266527,23.7031097 L12.609561,23.275831 C12.6075724,23.2657013 12.6010112,23.2592993 12.5934901,23.257841 L12.5934901,23.257841 Z M12.8583906,23.1452862 L12.8445485,23.1473072 L12.6598443,23.2396597 L12.6498822,23.2499052 L12.6498822,23.2499052 L12.6471943,23.2611114 L12.6650943,23.6906389 L12.6699349,23.7034178 L12.6699349,23.7034178 L12.678386,23.7104931 L12.8793402,23.8032389 C12.8914285,23.8068999 12.9022333,23.8029875 12.9078286,23.7952264 L12.9118235,23.7811639 L12.8776777,23.1665331 C12.8752882,23.1545897 12.8674102,23.1470016 12.8583906,23.1452862 L12.8583906,23.1452862 Z M12.1430473,23.1473072 C12.1332178,23.1423925 12.1221763,23.1452606 12.1156365,23.1525954 L12.1099173,23.1665331 L12.0757714,23.7811639 C12.0751323,23.7926639 12.0828099,23.8018602 12.0926481,23.8045676 L12.108256,23.8032389 L12.3092106,23.7104931 L12.3186497,23.7024347 L12.3186497,23.7024347 L12.3225043,23.6906389 L12.340401,23.2611114 L12.337245,23.2485176 L12.337245,23.2485176 L12.3277531,23.2396597 L12.1430473,23.1473072 Z" id="MingCute" fill-rule="nonzero"></path>
                <path d="M15,19 C15,20.0543909 14.18415,20.9181678 13.1492661,20.9945144 L13,21 L11,21 C9.94563773,21 9.08183483,20.18415 9.00548573,19.1492661 L9,19 L15,19 Z M12.0002,2 C15.7856583,2 18.869299,5.0047865 18.996141,8.75935044 L19.0002,9 L19.0002,12.7639 L20.8222,16.4081 C21.1704857,17.1046714 20.7047125,17.9183404 19.9532033,17.9942531 L19.8384,18 L4.16197,18 C3.38318905,18 2.86370061,17.2195011 3.13189688,16.5133571 L3.1781,16.4081 L5.00016,12.7639 L5.00016,9 C5.00016,5.13401 8.13417,2 12.0002,2 Z M12.0002,4 C9.31141,4 7.11834211,6.12231026 7.00477952,8.78311066 L7.00016,9 L7.00016,12.7639 C7.00016,13.0123 6.9538944,13.257948 6.86429696,13.4885048 L6.78902,13.6584 L5.6182,16 L18.3821,16 L17.2113,13.6584 C17.10026,13.43616 17.03178,13.195744 17.0088296,12.9494912 L17.0002,12.7639 L17.0002,9 C17.0002,6.23858 14.7616,4 12.0002,4 Z" id="形状" fill="#09244B"></path>
            </g>
        </g>
    </g>
</svg>