<?xml version="1.0" encoding="UTF-8"?>
<svg width="24px" height="24px" viewBox="0 0 24 24" version="1.1" xmlns="http://www.w3.org/2000/svg" xmlns:xlink="http://www.w3.org/1999/xlink">
    <title>pause_fill</title>
    <g id="页面-1" stroke="none" stroke-width="1" fill="none" fill-rule="evenodd">
        <g id="Media" transform="translate(-816.000000, -48.000000)" fill-rule="nonzero">
            <g id="pause_fill" transform="translate(816.000000, 48.000000)">
                <rect id="矩形" x="0" y="0" width="24" height="24"></rect>
                <path d="M9,3 C9.55228,3 10,3.44772 10,4 L10,4 L10,20 C10,20.5523 9.55228,21 9,21 L9,21 L7,21 C6.44772,21 6,20.5523 6,20 L6,20 L6,4 C6,3.44772 6.44772,3 7,3 L7,3 Z M17,3 C17.5523,3 18,3.44772 18,4 L18,4 L18,20 C18,20.5523 17.5523,21 17,21 L17,21 L15,21 C14.4477,21 14,20.5523 14,20 L14,20 L14,4 C14,3.44772 14.4477,3 15,3 L15,3 Z" id="形状结合" fill="#09244B"></path>
            </g>
        </g>
    </g>
</svg>