<?xml version="1.0" encoding="UTF-8"?>
<svg width="24px" height="24px" viewBox="0 0 24 24" version="1.1" xmlns="http://www.w3.org/2000/svg" xmlns:xlink="http://www.w3.org/1999/xlink">
    <title>pause_line</title>
    <g id="页面-1" stroke="none" stroke-width="1" fill="none" fill-rule="evenodd">
        <g id="Media" transform="translate(-816.000000, 0.000000)" fill-rule="nonzero">
            <g id="pause_line" transform="translate(816.000000, 0.000000)">
                <rect id="矩形" x="0" y="0" width="24" height="24"></rect>
                <path d="M8,4 C8.51283143,4 8.93550653,4.38604429 8.9932722,4.88337975 L9,5 L9,19 C9,19.5523 8.55228,20 8,20 C7.48716857,20 7.06449347,19.613973 7.0067278,19.1166239 L7,19 L7,5 C7,4.44772 7.44772,4 8,4 Z M16,4 C16.51285,4 16.9355092,4.38604429 16.9932725,4.88337975 L17,5 L17,19 C17,19.5523 16.5523,20 16,20 C15.48715,20 15.0644908,19.613973 15.0067275,19.1166239 L15,19 L15,5 C15,4.44772 15.4477,4 16,4 Z" id="形状" fill="#09244B"></path>
            </g>
        </g>
    </g>
</svg>