<svg xmlns="http://www.w3.org/2000/svg" width="24" height="24"><g fill="none"><path d="M24 0v24H0V0zM12.593 23.258l-.011.002-.071.035-.02.004-.014-.004-.071-.035c-.01-.004-.019-.001-.024.005l-.004.01-.017.428.005.02.01.013.104.074.015.004.012-.004.104-.074.012-.016.004-.017-.017-.427c-.002-.01-.009-.017-.017-.018m.265-.113-.013.002-.185.093-.01.01-.003.011.018.43.005.012.008.007.201.093c.012.004.023 0 .029-.008l.004-.014-.034-.614c-.003-.012-.01-.02-.02-.022m-.715.002a.023.023 0 0 0-.027.006l-.006.014-.034.614c0 .012.007.02.017.024l.015-.002.201-.093.01-.008.004-.011.017-.43-.003-.012-.01-.01z"/><path fill="#09244B" d="M12 2c5.523 0 10 4.477 10 10s-4.477 10-10 10S2 17.523 2 12 6.477 2 12 2M8.964 8.65l-.053.5-.03.333-.042.6-.024.46-.018.505-.01.549v.578l.01.549.018.506.024.46.042.6.071.73.013.102a1.192 1.192 0 0 0 1.651.954l.456-.202.651-.309.39-.196.43-.224.466-.253.498-.282.493-.29.231-.14.43-.27.388-.25.342-.229.653-.46.177-.131a1.192 1.192 0 0 0-.001-1.908l-.406-.297-.275-.193-.32-.218-.565-.368-.428-.268-.47-.282-.499-.288-.478-.265-.447-.238-.41-.21-.54-.263-.439-.202-.23-.102a16.814 16.814 0 0 0-.095-.04 1.192 1.192 0 0 0-1.654.952"/></g></svg>