<svg width="24" height="24" viewBox="0 0 24 24" fill="none" xmlns="http://www.w3.org/2000/svg">
<rect width="24" height="24" fill="white" fill-opacity="0.01"/>
<path fill-rule="evenodd" clip-rule="evenodd" d="M7.57524 5.70813C7.44244 7.00005 7.27335 9.19508 7.27335 11.9951C7.27335 14.7962 7.44258 16.9918 7.57539 18.2836C8.75204 17.7557 10.7257 16.8083 13.1701 15.397C15.6136 13.9862 17.4205 12.7512 18.4661 11.996C17.41 11.2336 15.5887 9.98714 13.1712 8.5914C10.7537 7.19566 8.76354 6.2415 7.57524 5.70813ZM5.66861 4.76019C5.78724 3.78065 6.80341 3.19555 7.70988 3.58326C8.77068 4.03697 11.151 5.11563 14.1712 6.85935C17.1921 8.60347 19.3167 10.1258 20.2396 10.8174C21.028 11.4082 21.0303 12.5803 20.2411 13.1729C19.3266 13.8596 17.2277 15.3637 14.1701 17.129C11.1115 18.8949 8.75886 19.9607 7.70749 20.4091C6.80076 20.7957 5.78729 20.2095 5.66885 19.232C5.53051 18.0902 5.27335 15.4973 5.27335 11.9951C5.27335 8.49493 5.53021 5.90304 5.66861 4.76019Z" fill="#09244B"/>
</svg>
