<svg width="24" height="24" viewBox="0 0 24 24" fill="none" xmlns="http://www.w3.org/2000/svg">
<rect width="24" height="24" fill="white" fill-opacity="0.01"/>
<path fill-rule="evenodd" clip-rule="evenodd" d="M10.6179 7.69697C9.88591 7.3848 9.0612 7.85899 8.96449 8.65028C8.90255 9.15711 8.7862 10.3172 8.7862 11.8857C8.7862 13.455 8.90268 14.6155 8.96459 15.1219C9.06102 15.9105 9.88271 16.3874 10.6162 16.0756C11.0834 15.877 12.1369 15.4012 13.5071 14.6101C14.8768 13.8193 15.8155 13.145 16.2213 12.8396C16.8591 12.3595 16.8553 11.4084 16.22 10.9314C15.8113 10.6244 14.8612 9.94196 13.5076 9.16043C12.1542 8.37907 11.0883 7.89754 10.6179 7.69697ZM10.7862 11.8857C10.7862 11.1504 10.8135 10.5135 10.8476 10.0049C11.306 10.2303 11.8719 10.5255 12.5076 10.8925C13.1429 11.2593 13.6812 11.6016 14.1056 11.8859C13.6839 12.1679 13.147 12.5087 12.5071 12.8781C11.8668 13.2478 11.3028 13.5426 10.8476 13.7668C10.8135 13.2582 10.7862 12.6211 10.7862 11.8857Z" fill="#09244B"/>
<path fill-rule="evenodd" clip-rule="evenodd" d="M12 2C6.47715 2 2 6.47715 2 12C2 17.5228 6.47715 22 12 22C17.5228 22 22 17.5228 22 12C22 6.47715 17.5228 2 12 2ZM4 12C4 7.58172 7.58172 4 12 4C16.4183 4 20 7.58172 20 12C20 16.4183 16.4183 20 12 20C7.58172 20 4 16.4183 4 12Z" fill="#09244B"/>
</svg>
