<?xml version="1.0" encoding="UTF-8"?>
<svg width="24px" height="24px" viewBox="0 0 24 24" version="1.1" xmlns="http://www.w3.org/2000/svg" xmlns:xlink="http://www.w3.org/1999/xlink">
    <title>play_circle_fill</title>
    <g id="页面-1" stroke="none" stroke-width="1" fill="none" fill-rule="evenodd">
        <g id="Media" transform="translate(-864.000000, -48.000000)" fill-rule="nonzero">
            <g id="play_circle_fill" transform="translate(864.000000, 48.000000)">
                <rect id="矩形" x="0" y="0" width="24" height="24"></rect>
                <path d="M12,2 C17.5228,2 22,6.47715 22,12 C22,17.5228 17.5228,22 12,22 C6.47715,22 2,17.5228 2,12 C2,6.47715 6.47715,2 12,2 Z M8.96449,8.65037 L8.91050125,9.14915453 L8.91050125,9.14915453 L8.8808582,9.48323896 L8.8808582,9.48323896 L8.83871087,10.0821602 L8.83871087,10.0821602 L8.81507573,10.5424525 L8.81507573,10.5424525 L8.79734567,11.0482063 L8.79734567,11.0482063 L8.78752179,11.596552 L8.78752179,11.596552 L8.78752179,12.1751932 L8.78752179,12.1751932 L8.79735747,12.7237987 L8.79735747,12.7237987 L8.81510497,13.2297672 L8.81510497,13.2297672 L8.83876123,13.6902241 L8.83876123,13.6902241 L8.88093975,14.2892873 L8.88093975,14.2892873 L8.95238414,15.0194447 C8.95663809,15.0561449 8.96072063,15.09035 8.96459,15.122 C9.06102,15.9106 9.88271,16.3875 10.6162,16.0757 L11.0723188,15.8741797 L11.0723188,15.8741797 L11.723025,15.5651375 L11.723025,15.5651375 L12.11345,15.3691795 L12.11345,15.3691795 L12.5430438,15.1450016 L12.5430438,15.1450016 L13.0086469,14.8921572 L13.0086469,14.8921572 L13.5071,14.6102 L13.5071,14.6102 L14.0003354,14.3196039 C14.0791077,14.2722457 14.1561467,14.2254658 14.2314275,14.1793259 L14.6618145,13.9106585 L14.6618145,13.9106585 L15.0488098,13.6603075 L15.0488098,13.6603075 L15.3912195,13.4312308 L15.3912195,13.4312308 L16.0443443,12.9710242 L16.0443443,12.9710242 L16.2213,12.8397 L16.2213,12.8397 C16.8591,12.3596 16.8553,11.4085 16.22,10.9315 L15.8141172,10.6351714 L15.8141172,10.6351714 L15.5390814,10.4423062 L15.5390814,10.4423062 L15.2181375,10.2239588 L15.2181375,10.2239588 L14.6541787,9.85574289 L14.6541787,9.85574289 L14.2255344,9.58785901 L14.2255344,9.58785901 L13.7566378,9.30582831 L13.7566378,9.30582831 L13.2572818,9.01752403 L13.2572818,9.01752403 L12.778665,8.75250331 L12.778665,8.75250331 L12.3324154,8.51525995 L12.3324154,8.51525995 L11.9221424,8.30557283 L11.9221424,8.30557283 L11.3820844,8.04222635 L11.3820844,8.04222635 L10.9432764,7.83963751 L10.9432764,7.83963751 L10.7130033,7.73796398 C10.6790262,7.72322875 10.6473,7.70959563 10.6179,7.69706 C9.88591,7.38489 9.0612,7.85908 8.96449,8.65037 Z" id="形状" fill="#09244B"></path>
            </g>
        </g>
    </g>
</svg>