<?xml version="1.0" encoding="UTF-8"?>
<svg width="24px" height="24px" viewBox="0 0 24 24" version="1.1" xmlns="http://www.w3.org/2000/svg" xmlns:xlink="http://www.w3.org/1999/xlink">
    <title>play_circle_line</title>
    <g id="页面-1" stroke="none" stroke-width="1" fill="none" fill-rule="evenodd">
        <g id="Media" transform="translate(-864.000000, 0.000000)">
            <g id="play_circle_line" transform="translate(864.000000, 0.000000)">
                 <path d="M24,0 L24,24 L0,24 L0,0 L24,0 Z M12.5934901,23.257841 L12.5819402,23.2595131 L12.5108777,23.2950439 L12.4918791,23.2987469 L12.4918791,23.2987469 L12.4767152,23.2950439 L12.4056548,23.2595131 C12.3958229,23.2563662 12.3870493,23.2590235 12.3821421,23.2649074 L12.3780323,23.275831 L12.360941,23.7031097 L12.3658947,23.7234994 L12.3769048,23.7357139 L12.4804777,23.8096931 L12.4953491,23.8136134 L12.4953491,23.8136134 L12.5071152,23.8096931 L12.6106902,23.7357139 L12.6232938,23.7196733 L12.6232938,23.7196733 L12.6266527,23.7031097 L12.609561,23.275831 C12.6075724,23.2657013 12.6010112,23.2592993 12.5934901,23.257841 L12.5934901,23.257841 Z M12.8583906,23.1452862 L12.8445485,23.1473072 L12.6598443,23.2396597 L12.6498822,23.2499052 L12.6498822,23.2499052 L12.6471943,23.2611114 L12.6650943,23.6906389 L12.6699349,23.7034178 L12.6699349,23.7034178 L12.678386,23.7104931 L12.8793402,23.8032389 C12.8914285,23.8068999 12.9022333,23.8029875 12.9078286,23.7952264 L12.9118235,23.7811639 L12.8776777,23.1665331 C12.8752882,23.1545897 12.8674102,23.1470016 12.8583906,23.1452862 L12.8583906,23.1452862 Z M12.1430473,23.1473072 C12.1332178,23.1423925 12.1221763,23.1452606 12.1156365,23.1525954 L12.1099173,23.1665331 L12.0757714,23.7811639 C12.0751323,23.7926639 12.0828099,23.8018602 12.0926481,23.8045676 L12.108256,23.8032389 L12.3092106,23.7104931 L12.3186497,23.7024347 L12.3186497,23.7024347 L12.3225043,23.6906389 L12.340401,23.2611114 L12.337245,23.2485176 L12.337245,23.2485176 L12.3277531,23.2396597 L12.1430473,23.1473072 Z" id="MingCute" fill-rule="nonzero"></path>
                <path d="M12,2 C17.5228,2 22,6.47715 22,12 C22,17.5228 17.5228,22 12,22 C6.47715,22 2,17.5228 2,12 C2,6.47715 6.47715,2 12,2 Z M12,4 C7.58172,4 4,7.58172 4,12 C4,16.4183 7.58172,20 12,20 C16.4183,20 20,16.4183 20,12 C20,7.58172 16.4183,4 12,4 Z M8.96449,8.65028 C9.0612,7.85899 9.88591,7.3848 10.6179,7.69697 L10.9432764,7.83954751 L10.9432764,7.83954751 L11.3820844,8.04213635 L11.3820844,8.04213635 L11.731625,8.21090375 L11.731625,8.21090375 L12.1225563,8.40689568 L12.1225563,8.40689568 L12.5512688,8.63033328 L12.5512688,8.63033328 L13.0141531,8.88143768 L13.0141531,8.88143768 L13.5076,9.16043 L13.5076,9.16043 L13.7566378,9.3057382 L13.7566378,9.3057382 L14.2255344,9.58776808 L14.2255344,9.58776808 L14.6541787,9.85565057 L14.6541787,9.85565057 L15.2181375,10.2238637 L15.2181375,10.2238637 L15.6824388,10.5420288 L15.6824388,10.5420288 L16.1370579,10.8695053 C16.1667977,10.8915584 16.1944563,10.9122125 16.22,10.9314 C16.8553,11.4084 16.8591,12.3595 16.2213,12.8396 L15.9375049,13.0486312 L15.9375049,13.0486312 L15.5453314,13.3254945 L15.5453314,13.3254945 L15.0488098,13.6602075 L15.0488098,13.6602075 L14.6618145,13.9105585 L14.6618145,13.9105585 L14.2314275,14.1792259 L14.2314275,14.1792259 L13.7588431,14.4632519 C13.6766289,14.5117051 13.5927063,14.560675 13.5071,14.6101 L13.0086469,14.8920572 L13.0086469,14.8920572 L12.5430438,15.1449016 L12.5430438,15.1449016 L12.11345,15.3690795 L12.11345,15.3690795 L11.723025,15.5650375 L11.723025,15.5650375 L11.21774,15.8070388 L11.21774,15.8070388 L10.8183563,15.9880568 L10.8183563,15.9880568 L10.6162,16.0756 L10.6162,16.0756 C9.88271,16.3874 9.06102,15.9105 8.96459,15.1219 L8.91059828,14.6232891 L8.91059828,14.6232891 L8.88093975,14.2891873 L8.88093975,14.2891873 L8.83876123,13.6901241 L8.83876123,13.6901241 L8.81510497,13.2296672 L8.81510497,13.2296672 L8.79735747,12.7236987 L8.79735747,12.7236987 L8.78752179,12.1750932 L8.78752179,12.1750932 L8.78752179,11.5964521 L8.78752179,11.5964521 L8.79734567,11.0481072 L8.79734567,11.0481072 L8.81507573,10.5423548 L8.81507573,10.5423548 L8.83871087,10.0820642 L8.83871087,10.0820642 L8.8808582,9.4831458 L8.8808582,9.4831458 L8.95228032,8.75290624 C8.95653496,8.71618555 8.96061875,8.68195687 8.96449,8.65028 Z M10.8476,10.0049 L10.8205149,10.4715659 L10.8205149,10.4715659 L10.7996292,10.9968883 L10.7996292,10.9968883 L10.7878117,11.5766831 L10.7878117,11.5766831 L10.7878117,12.194765 L10.7878117,12.194765 L10.7996292,12.7746717 L10.7996292,12.7746717 L10.8205149,13.3000921 L10.8205149,13.3000921 L10.8476,13.7668 L10.8476,13.7668 L11.2636583,13.5572385 C11.3371895,13.5193965 11.4127516,13.4800886 11.4902499,13.4393023 L11.9777152,13.1767431 L11.9777152,13.1767431 L12.5071,12.8781 L12.5071,12.8781 L13.0300767,12.5691799 C13.1129405,12.5190953 13.1936312,12.4697706 13.2721131,12.4212936 L13.7162152,12.1413099 L13.7162152,12.1413099 L14.1056,11.8859 L14.1056,11.8859 L13.7143289,11.6287915 L13.7143289,11.6287915 L13.269635,11.347963 L13.269635,11.347963 L12.7738834,11.0481023 C12.6871347,10.9968 12.5983571,10.9449 12.5076,10.8925 C12.3259714,10.7876429 12.1500408,10.6886469 11.9806875,10.5954656 L11.4932385,10.3333187 L11.4932385,10.3333187 L11.0505289,10.1057793 C10.9807653,10.0707245 10.9130857,10.0371 10.8476,10.0049 Z" id="形状" fill="#09244B"></path>
            </g>
        </g>
    </g>
</svg>