<?xml version="1.0" encoding="UTF-8"?>
<svg width="24px" height="24px" viewBox="0 0 24 24" version="1.1" xmlns="http://www.w3.org/2000/svg" xmlns:xlink="http://www.w3.org/1999/xlink">
    <title>play_fill</title>
    <g id="页面-1" stroke="none" stroke-width="1" fill="none" fill-rule="evenodd">
        <g id="Media" transform="translate(-912.000000, -48.000000)">
            <g id="play_fill" transform="translate(912.000000, 48.000000)">
                <rect id="矩形" fill-rule="nonzero" x="0" y="0" width="24" height="24"></rect>
                <path d="M5.66861,4.76019 C5.78724,3.78065 6.80341,3.19555 7.70988,3.58326 C8.77068,4.03697 11.151,5.11563 14.1712,6.85935 C17.1921,8.60347 19.3167,10.1258 20.2396,10.8174 C21.028,11.4082 21.0303,12.5803 20.2411,13.1729 C19.3266,13.8596 17.2277,15.3637 14.1701,17.129 C11.1115,18.8949 8.75886,19.9607 7.70749,20.4091 C6.80076,20.7957 5.78729,20.2095 5.66885,19.232 C5.53051,18.0902 5.27335,15.4973 5.27335,11.9951 C5.27335,8.49493 5.53021,5.90304 5.66861,4.76019 Z" id="路径" fill="#09244B"></path>
            </g>
        </g>
    </g>
</svg>