<svg width="24" height="24" viewBox="0 0 24 24" fill="none" xmlns="http://www.w3.org/2000/svg">
<rect width="24" height="24" transform="matrix(-1 0 0 1 24 0)" fill="white" fill-opacity="0.01"/>
<path d="M16.4711 4.04795C16.5275 3.32919 17.2199 2.87849 17.802 3.18291C18.1817 3.38146 18.723 3.68443 19.3598 4.09808C20.0284 4.53231 20.5502 4.92482 20.8928 5.19756C21.3819 5.58697 21.3627 6.39215 20.8435 6.80336C20.5009 7.07465 19.9877 7.45829 19.3283 7.8866C18.6695 8.31453 18.1179 8.62251 17.7379 8.82065C17.161 9.12136 16.5313 8.73631 16.4765 8.06478C16.4633 7.90315 16.4498 7.71393 16.4377 7.50011H6C5.17157 7.50011 4.5 8.17169 4.5 9.00011V13.0001C4.5 13.8285 3.82843 14.5001 3 14.5001C2.17157 14.5001 1.5 13.8285 1.5 13.0001V9.00011C1.5 6.51483 3.51472 4.50011 6 4.50011H16.4403C16.4501 4.33331 16.4606 4.18209 16.4711 4.04795Z" fill="#09244B"/>
<path d="M21.1151 10.5701C20.2867 10.5701 19.6151 11.2417 19.6151 12.0701V16.0701C19.6151 16.8985 18.9435 17.5701 18.1151 17.5701H7.67739C7.66534 17.3563 7.65183 17.1671 7.63863 17.0055C7.58377 16.334 6.95411 15.9489 6.37726 16.2496C5.99717 16.4478 5.44565 16.7558 4.7868 17.1837C4.12738 17.612 3.61422 17.9956 3.27164 18.2669C2.75237 18.6781 2.73323 19.4833 3.22234 19.8727C3.56491 20.1455 4.08676 20.538 4.7553 20.9722C5.39216 21.3859 5.93344 21.6888 6.31313 21.8874C6.89526 22.1918 7.58763 21.7411 7.64398 21.0223C7.6545 20.8882 7.66506 20.7369 7.67478 20.5701H18.1151C20.6004 20.5701 22.6151 18.5554 22.6151 16.0701V12.0701C22.6151 11.2417 21.9435 10.5701 21.1151 10.5701Z" fill="#09244B"/>
</svg>
