<svg xmlns="http://www.w3.org/2000/svg" width="24" height="24"><g fill="none"><path d="M0 0v24h24V0zm11.407 23.258.011.002.071.035.02.004.014-.004.071-.036c.01-.003.019 0 .024.006l.004.01.017.428-.005.02-.01.013-.104.074-.015.004-.012-.004-.104-.074-.012-.016-.004-.017.017-.427c.002-.01.009-.017.016-.018Zm-.265-.113.014.002.184.093.01.01.003.011-.018.43-.005.012-.008.008-.201.092a.025.025 0 0 1-.029-.008l-.004-.014.034-.614c.003-.012.01-.02.02-.022m.715.002a.023.023 0 0 1 .027.006l.006.014.034.614c0 .012-.007.02-.017.024l-.015-.002-.201-.093-.01-.008-.003-.011-.018-.43.003-.012.01-.01z"/><path fill="#09244B" d="M20 9.5a1.5 1.5 0 0 1 1.493 1.356L21.5 11v4a4.5 4.5 0 0 1-4.288 4.495L17 19.5H8.56l-.02.312a21.64 21.64 0 0 1-.011.14c-.056.719-.749 1.17-1.331.865l-.314-.168-.368-.209a19.716 19.716 0 0 1-.203-.119l-.439-.269a21.11 21.11 0 0 1-.922-.617l-.385-.28-.323-.245a16.69 16.69 0 0 1-.137-.107c-.489-.39-.47-1.195.05-1.606l.136-.107.32-.242.38-.275.438-.301a21.806 21.806 0 0 1 .714-.457l.426-.255.375-.211.316-.17c.577-.3 1.207.085 1.262.756l.038.565H17a1.5 1.5 0 0 0 1.493-1.356L18.5 15v-4A1.5 1.5 0 0 1 20 9.5m-3.198-6.317.314.168.368.209c.066.038.134.077.203.119l.439.269a21.065 21.065 0 0 1 .922.617l.385.28.323.245.137.107c.489.39.47 1.195-.05 1.606l-.136.107-.32.242-.38.275a21.485 21.485 0 0 1-1.152.758l-.426.255-.375.211-.316.17c-.577.3-1.207-.085-1.261-.756l-.04-.565H7A1.5 1.5 0 0 0 5.5 9v4a1.5 1.5 0 0 1-3 0V9A4.5 4.5 0 0 1 7 4.5h8.44l.031-.452c.056-.719.749-1.17 1.331-.865"/></g></svg>