<svg width="24" height="24" viewBox="0 0 24 24" fill="none" xmlns="http://www.w3.org/2000/svg">
<rect width="24" height="24" transform="matrix(-1 0 0 1 24 0)" fill="white" fill-opacity="0.01"/>
<path d="M17.5784 2.65537C17.2988 2.50915 16.9739 2.72042 16.9468 3.06597C16.9271 3.31792 16.9071 3.63281 16.8931 3.99994H6C3.79086 3.99994 2 5.7908 2 7.99994V16.9999C2 19.2091 3.79086 20.9999 6 20.9999H18C20.2091 20.9999 22 19.2091 22 16.9999V10.9999C22 10.4477 21.5523 9.99994 21 9.99994C20.4477 9.99994 20 10.4477 20 10.9999V16.9999C20 18.1045 19.1046 18.9999 18 18.9999H6C4.89543 18.9999 4 18.1045 4 16.9999V7.99994C4 6.89537 4.89543 5.99994 6 5.99994H16.8934C16.9086 6.39644 16.9308 6.7317 16.9521 6.99217C16.9785 7.31614 17.275 7.49534 17.5504 7.35178C17.9184 7.15994 18.4561 6.85981 19.1 6.44157C19.7445 6.02297 20.2447 5.64888 20.5764 5.38622C20.8243 5.1899 20.8348 4.81202 20.599 4.62431C20.2659 4.35906 19.7556 3.97516 19.1007 3.54981C18.4769 3.14462 17.9477 2.84848 17.5784 2.65537Z" fill="#09244B"/>
<path d="M11 15V11.8661C10.547 12.1282 9.96229 11.9963 9.66793 11.5547C9.36158 11.0952 9.48575 10.4743 9.94528 10.168L11.4297 9.17834C12.1009 8.73089 13 9.21202 13 10.0187V15C13 15.5523 12.5523 16 12 16C11.4477 16 11 15.5523 11 15Z" fill="#09244B"/>
</svg>
