<?xml version="1.0" encoding="UTF-8"?>
<svg width="24px" height="24px" viewBox="0 0 24 24" version="1.1" xmlns="http://www.w3.org/2000/svg" xmlns:xlink="http://www.w3.org/1999/xlink">
    <title>repeat_one_fill</title>
    <g id="页面-1" stroke="none" stroke-width="1" fill="none" fill-rule="evenodd">
        <g id="Media" transform="translate(-1008.000000, -48.000000)" fill-rule="nonzero">
            <g id="repeat_one_fill" transform="translate(1008.000000, 48.000000)">
                <rect id="矩形" transform="translate(12.000000, 12.000000) scale(-1, 1) translate(-12.000000, -12.000000) " x="0" y="0" width="24" height="24"></rect>
                <path d="M16.4711,3.04771 C16.5275,2.32895 17.2199,1.87824 17.802,2.18266 L18.1160422,2.35124922 L18.1160422,2.35124922 L18.4844875,2.55958375 C18.5500844,2.59765094 18.6176898,2.63739867 18.6871748,2.6788392 L19.1256057,2.94789385 C19.2020922,2.99615453 19.2802,3.0461325 19.3598,3.09784 C19.610525,3.26067625 19.8406063,3.41764422 20.0483352,3.56462957 L20.4334836,3.84407105 L20.4334836,3.84407105 L20.7559883,4.08957785 C20.80435,4.12726141 20.849975,4.16322625 20.8928,4.19732 C21.3819,4.58672 21.3627,5.3919 20.8435,5.80312 L20.5549437,6.02659125 C20.5016469,6.06699531 20.4457797,6.10889063 20.3873898,6.15214492 L20.0071602,6.42692039 C19.9388703,6.47508156 19.8681531,6.52433719 19.7950563,6.574555 L19.3283,6.88635 L19.3283,6.88635 L19.0864008,7.04122371 L19.0864008,7.04122371 L18.6357711,7.31770488 C18.5646031,7.36012844 18.4954875,7.40073688 18.42855,7.43955 L18.0540687,7.65104344 L18.0540687,7.65104344 L17.7379,7.8204 L17.7379,7.8204 C17.161,8.12111 16.5313,7.73607 16.4765,7.06454 L16.4377,6.49989 L6,6.49989 C5.22030118,6.49989 4.579551,7.09478439 4.50686655,7.8554311 L4.5,7.99989 L4.5,16.9999 C4.5,17.7795706 5.09488554,18.4203457 5.85553954,18.4930332 L6,18.4999 L18,18.4999 C18.7796706,18.4999 19.4204457,17.9049879 19.4931332,17.1443558 L19.5,16.9999 L19.5,11.9999 C19.5,11.1715 20.1716,10.4999 21,10.4999 C21.7796706,10.4999 22.4204457,11.0948121 22.4931332,11.8554442 L22.5,11.9999 L22.5,16.9999 C22.5,19.4141914 20.5987811,21.3843901 18.2118372,21.4950021 L18,21.4999 L6,21.4999 C3.585728,21.4999 1.61551099,19.5986811 1.50489799,17.2117372 L1.5,16.9999 L1.5,7.99989 C1.5,5.585618 3.40123781,3.61540099 5.78816441,3.50478799 L6,3.49989 L16.4403,3.49989 L16.4711,3.04771 L16.4711,3.04771 Z M13.5,10.0186 L13.5,14.9999 C13.5,15.8283 12.8285,16.4999 12,16.4999 C11.1716,16.4999 10.5,15.8283 10.5,14.9999 L10.5,12.5001 C10.0158,12.4996 9.54073,12.2651 9.25196,11.832 C8.79243,11.1427 8.97869,10.2114 9.66799,9.75183 L11.1524,8.7622 C12.1559,8.09323 13.5,8.81254 13.5,10.0186 Z" id="形状" fill="#09244B"></path>
            </g>
        </g>
    </g>
</svg>