<svg xmlns="http://www.w3.org/2000/svg" width="24" height="24"><g fill="none"><path d="M24 0v24H0V0zM12.594 23.258l-.012.002-.071.035-.02.004-.014-.004-.071-.036c-.01-.003-.019 0-.024.006l-.004.01-.017.428.005.02.01.013.104.074.015.004.012-.004.104-.074.012-.016.004-.017-.017-.427c-.002-.01-.009-.017-.016-.018m.264-.113-.014.002-.184.093-.01.01-.003.011.018.43.005.012.008.008.201.092c.012.004.023 0 .029-.008l.004-.014-.034-.614c-.003-.012-.01-.02-.02-.022m-.715.002a.023.023 0 0 0-.027.006l-.006.014-.034.614c0 .012.007.02.017.024l.015-.002.201-.093.01-.008.003-.011.018-.43-.003-.012-.01-.01z"/><path fill="#09244B" d="M18.561.501a1.5 1.5 0 0 1 1.407 1.19l.022.135.505 4.325a1.5 1.5 0 0 1-2.657 1.117 7.5 7.5 0 1 0 1.66 4.727 1.5 1.5 0 0 1 3.001.004c-.007 4.795-3.317 9.12-8.193 10.22-5.657 1.274-11.277-2.278-12.552-7.935C.48 8.627 4.032 3.007 9.69 1.732a10.455 10.455 0 0 1 6.843.773l.306.153.191-.953A1.5 1.5 0 0 1 18.561.5M15.451 7a3.25 3.25 0 0 1 3.25 3.25v3.5a3.25 3.25 0 0 1-6.5 0v-3.5A3.25 3.25 0 0 1 15.45 7M8.48 7a3.22 3.22 0 0 1 2.695 4.983 3.2 3.2 0 0 1-2.492 4.95l-.182.005h-.3c-1.328 0-2.427-.877-2.872-1.924a1.5 1.5 0 0 1 2.762-1.172c.013.026.04.055.07.075l.044.02h.296a.2.2 0 0 0 .17-.302l-.034-.042-.11-.103a1.5 1.5 0 0 1-.165-2.952l.136-.024.137-.137a.22.22 0 0 0-.097-.369L8.48 10h-.275a.2.2 0 0 0-.114.096A1.5 1.5 0 1 1 5.33 8.924c.423-.995 1.436-1.836 2.674-1.917L8.2 7zm6.97 3a.25.25 0 0 0-.25.25v3.5a.25.25 0 0 0 .5 0v-3.5a.25.25 0 0 0-.25-.25"/></g></svg>