<svg xmlns="http://www.w3.org/2000/svg" width="24" height="24"><g fill="none"><path d="M24 0v24H0V0zM12.594 23.258l-.012.002-.071.035-.02.004-.014-.004-.071-.036c-.01-.003-.019 0-.024.006l-.004.01-.017.428.005.02.01.013.104.074.015.004.012-.004.104-.074.012-.016.004-.017-.017-.427c-.002-.01-.009-.017-.016-.018m.264-.113-.014.002-.184.093-.01.01-.003.011.018.43.005.012.008.008.201.092c.012.004.023 0 .029-.008l.004-.014-.034-.614c-.003-.012-.01-.02-.02-.022m-.715.002a.023.023 0 0 0-.027.006l-.006.014-.034.614c0 .012.007.02.017.024l.015-.002.201-.093.01-.008.003-.011.018-.43-.003-.012-.01-.01z"/><path fill="#09244B" d="M18.561.501a1.5 1.5 0 0 1 1.407 1.19l.022.135.505 4.325a1.5 1.5 0 0 1-2.657 1.117 7.5 7.5 0 1 0 1.66 4.727 1.5 1.5 0 0 1 3.001.004c-.007 4.795-3.317 9.12-8.193 10.22-5.657 1.274-11.277-2.278-12.552-7.935C.48 8.627 4.032 3.007 9.69 1.732a10.455 10.455 0 0 1 6.843.773l.306.153.191-.953A1.5 1.5 0 0 1 18.561.5m-4.988 6.497a1.5 1.5 0 0 1 .144 2.993l-.144.007h-1.565v.178h.032c2.025 0 3.416 1.577 3.416 3.416a3.416 3.416 0 0 1-3.416 3.416c-.44 0-.905-.103-1.282-.225-.361-.117-.836-.315-1.213-.626a1.5 1.5 0 0 1 1.889-2.331l.064.031.116.048.143.046.136.032.147.025.084-.009a.416.416 0 0 0 .332-.407c0-.164-.056-.261-.105-.312-.042-.042-.126-.104-.31-.104l-1.533.004a1.5 1.5 0 0 1-1.493-1.355l-.007-.145V8.898a1.9 1.9 0 0 1 1.751-1.895l.149-.005z"/></g></svg>