<svg xmlns="http://www.w3.org/2000/svg" width="24" height="24"><g fill="none" fill-rule="evenodd"><path d="M24 0v24H0V0zM12.594 23.258l-.012.002-.071.035-.02.004-.014-.004-.071-.036c-.01-.003-.019 0-.024.006l-.004.01-.017.428.005.02.01.013.104.074.015.004.012-.004.104-.074.012-.016.004-.017-.017-.427c-.002-.01-.009-.017-.016-.018m.264-.113-.014.002-.184.093-.01.01-.003.011.018.43.005.012.008.008.201.092c.012.004.023 0 .029-.008l.004-.014-.034-.614c-.003-.012-.01-.02-.02-.022m-.715.002a.023.023 0 0 0-.027.006l-.006.014-.034.614c0 .012.007.02.017.024l.015-.002.201-.093.01-.008.003-.011.018-.43-.003-.012-.01-.01z"/><path fill="#09244B" d="M8.377 1.283a1.5 1.5 0 0 1 .465 1.888l-.165.329H18A4.5 4.5 0 0 1 22.5 8v8a4.5 4.5 0 0 1-4.5 4.5H6A4.5 4.5 0 0 1 1.5 16v-5a1.5 1.5 0 0 1 3 0v5A1.5 1.5 0 0 0 6 17.5h12a1.5 1.5 0 0 0 1.5-1.5V8A1.5 1.5 0 0 0 18 6.5H5.024c-1.345 0-2.019-1.626-1.068-2.578L6.44 1.44a1.5 1.5 0 0 1 1.938-.156m.63 7.615c0-1.05.851-1.9 1.9-1.9h2.666a1.5 1.5 0 0 1 0 3h-1.565v.178h.032c2.025 0 3.416 1.577 3.416 3.416a3.416 3.416 0 0 1-3.416 3.415c-.44 0-.905-.102-1.282-.224-.361-.117-.836-.315-1.213-.626a1.5 1.5 0 0 1 1.888-2.331c.025.014.13.065.25.104.17.055.35.077.357.078.23 0 .416-.187.416-.416 0-.164-.057-.262-.105-.312-.042-.043-.126-.104-.31-.104-.512 0-1.023.004-1.533.004a1.5 1.5 0 0 1-1.5-1.5z"/></g></svg>