<svg xmlns="http://www.w3.org/2000/svg" width="24" height="24"><g fill="none"><path d="M24 0v24H0V0zM12.594 23.258l-.012.002-.071.035-.02.004-.014-.004-.071-.036c-.01-.003-.019 0-.024.006l-.004.01-.017.428.005.02.01.013.104.074.015.004.012-.004.104-.074.012-.016.004-.017-.017-.427c-.002-.01-.009-.017-.016-.018m.264-.113-.014.002-.184.093-.01.01-.003.011.018.43.005.012.008.008.201.092c.012.004.023 0 .029-.008l.004-.014-.034-.614c-.003-.012-.01-.02-.02-.022m-.715.002a.023.023 0 0 0-.027.006l-.006.014-.034.614c0 .012.007.02.017.024l.015-.002.201-.093.01-.008.003-.011.018-.43-.003-.012-.01-.01z"/><path fill="#09244B" d="m17.56 1.44 2.484 2.482c.95.952.277 2.578-1.068 2.578H6A1.5 1.5 0 0 0 4.5 8v8A1.5 1.5 0 0 0 6 17.5h12a1.5 1.5 0 0 0 1.5-1.5v-5a1.5 1.5 0 0 1 3 0v5a4.5 4.5 0 0 1-4.5 4.5H6A4.5 4.5 0 0 1 1.5 16V8A4.5 4.5 0 0 1 6 3.5h9.323l-.165-.33a1.5 1.5 0 0 1 2.403-1.73m-1.987 5.558a1.5 1.5 0 0 1 0 3h-1.565v.178h.032c2.025 0 3.416 1.577 3.416 3.416a3.416 3.416 0 0 1-3.416 3.416c-.44 0-.905-.103-1.282-.225-.361-.117-.836-.315-1.213-.626a1.5 1.5 0 0 1 1.889-2.331l.063.031.117.048.142.046.137.032.147.025c.23 0 .416-.186.416-.416 0-.164-.057-.262-.105-.312-.042-.043-.126-.104-.31-.104l-1.533.004a1.5 1.5 0 0 1-1.5-1.5V8.898c0-1.05.85-1.9 1.9-1.9zm-7.905.254A1.5 1.5 0 0 1 9.992 8.35L10 8.5v7a1.5 1.5 0 0 1-2.993.144L7 15.5V11a1.499 1.499 0 0 1-.949-2.662l.117-.086z"/></g></svg>