<svg xmlns="http://www.w3.org/2000/svg" width="24" height="24"><g fill="none"><path d="M24 0v24H0V0zM12.594 23.258l-.012.002-.071.035-.02.004-.014-.004-.071-.036c-.01-.003-.019 0-.024.006l-.004.01-.017.428.005.02.01.013.104.074.015.004.012-.004.104-.074.012-.016.004-.017-.017-.427c-.002-.01-.009-.017-.016-.018m.264-.113-.014.002-.184.093-.01.01-.003.011.018.43.005.012.008.008.201.092c.012.004.023 0 .029-.008l.004-.014-.034-.614c-.003-.012-.01-.02-.02-.022m-.715.002a.023.023 0 0 0-.027.006l-.006.014-.034.614c0 .012.007.02.017.024l.015-.002.201-.093.01-.008.003-.011.018-.43-.003-.012-.01-.01z"/><path fill="#09244B" d="M8.377 1.283a1.5 1.5 0 0 1 .465 1.888l-.165.329H18A4.5 4.5 0 0 1 22.5 8v8a4.5 4.5 0 0 1-4.5 4.5H6A4.5 4.5 0 0 1 1.5 16v-5a1.5 1.5 0 0 1 3 0v5A1.5 1.5 0 0 0 6 17.5h12a1.5 1.5 0 0 0 1.5-1.5V8A1.5 1.5 0 0 0 18 6.5H5.024c-1.345 0-2.019-1.626-1.068-2.578L6.44 1.44a1.5 1.5 0 0 1 1.938-.156m7.196 5.715a1.5 1.5 0 0 1 .144 2.993l-.144.007h-1.565v.178h.032c2.025 0 3.416 1.577 3.416 3.416a3.416 3.416 0 0 1-3.416 3.416c-.44 0-.905-.103-1.282-.225-.361-.117-.836-.315-1.213-.626a1.5 1.5 0 0 1 1.889-2.331l.063.031.117.048.142.046.137.032.147.025c.23 0 .416-.186.416-.416 0-.164-.057-.262-.105-.312-.042-.043-.126-.104-.31-.104l-1.533.004a1.5 1.5 0 0 1-1.493-1.355l-.007-.145V8.898a1.9 1.9 0 0 1 1.751-1.895l.149-.005zm-6.365.18A1.5 1.5 0 0 1 10 8.5v7a1.5 1.5 0 0 1-3 0V11a1.499 1.499 0 0 1-.832-2.748l1.5-1a1.5 1.5 0 0 1 1.54-.074"/></g></svg>