<?xml version="1.0" encoding="UTF-8"?>
<svg width="24px" height="24px" viewBox="0 0 24 24" version="1.1" xmlns="http://www.w3.org/2000/svg" xmlns:xlink="http://www.w3.org/1999/xlink">
    <title>rotate_to_vertical_fill</title>
    <g id="Icon" stroke="none" stroke-width="1" fill="none" fill-rule="evenodd">
        <g id="Media" transform="translate(-528.000000, -240.000000)" fill-rule="nonzero">
            <g id="rotate_to_vertical_fill" transform="translate(528.000000, 240.000000)">
                <path d="M24,0 L24,24 L0,24 L0,0 L24,0 Z M12.5934901,23.257841 L12.5819402,23.2595131 L12.5108777,23.2950439 L12.4918791,23.2987469 L12.4918791,23.2987469 L12.4767152,23.2950439 L12.4056548,23.2595131 C12.3958229,23.2563662 12.3870493,23.2590235 12.3821421,23.2649074 L12.3780323,23.275831 L12.360941,23.7031097 L12.3658947,23.7234994 L12.3769048,23.7357139 L12.4804777,23.8096931 L12.4953491,23.8136134 L12.4953491,23.8136134 L12.5071152,23.8096931 L12.6106902,23.7357139 L12.6232938,23.7196733 L12.6232938,23.7196733 L12.6266527,23.7031097 L12.609561,23.275831 C12.6075724,23.2657013 12.6010112,23.2592993 12.5934901,23.257841 L12.5934901,23.257841 Z M12.8583906,23.1452862 L12.8445485,23.1473072 L12.6598443,23.2396597 L12.6498822,23.2499052 L12.6498822,23.2499052 L12.6471943,23.2611114 L12.6650943,23.6906389 L12.6699349,23.7034178 L12.6699349,23.7034178 L12.678386,23.7104931 L12.8793402,23.8032389 C12.8914285,23.8068999 12.9022333,23.8029875 12.9078286,23.7952264 L12.9118235,23.7811639 L12.8776777,23.1665331 C12.8752882,23.1545897 12.8674102,23.1470016 12.8583906,23.1452862 L12.8583906,23.1452862 Z M12.1430473,23.1473072 C12.1332178,23.1423925 12.1221763,23.1452606 12.1156365,23.1525954 L12.1099173,23.1665331 L12.0757714,23.7811639 C12.0751323,23.7926639 12.0828099,23.8018602 12.0926481,23.8045676 L12.108256,23.8032389 L12.3092106,23.7104931 L12.3186497,23.7024347 L12.3186497,23.7024347 L12.3225043,23.6906389 L12.340401,23.2611114 L12.337245,23.2485176 L12.337245,23.2485176 L12.3277531,23.2396597 L12.1430473,23.1473072 Z" id="MingCute"></path>
                <path d="M3,5 C3,3.89543 3.89543,3 5,3 L11,3 C12.1046,3 13,3.89543 13,5 L13,19 C13,20.1046 12.1046,21 11,21 L5,21 C3.89543,21 3,20.1046 3,19 L3,5 Z M14,20 C14,19.4477 14.4477,19 15,19 L19,19 L19,13 L15,13 C14.4477,13 14,12.5523 14,12 C14,11.4477 14.4477,11 15,11 L19,11 C20.1046,11 21,11.8954 21,13 L21,19 C21,20.1046 20.1046,21 19,21 L15,21 C14.4477,21 14,20.5523 14,20 Z M18,4 C18.5523,4 19,4.44772 19,5 C19,5.27708 18.8873,5.52784 18.7053,5.70894 C19.3886,6.14654 20.088,6.67381 20.7071,7.29289 C21.0976,7.68342 21.0976,8.31658 20.7071,8.70711 C20.3166,9.09763 19.6834,9.09763 19.2929,8.70711 C18.2087235,7.62290882 16.7672031,6.84374875 15.7702034,6.39044018 L15.3724711,6.21617584 C15.3114976,6.19047702 15.2533765,6.16645588 15.1984,6.14412 C14.5798,5.89278 14.4608,5.27708 14.5311,4.9065 C14.6015,4.5351 14.9414,4 15.6162,4 L18,4 Z" id="形状" fill="#09244B"></path>
            </g>
        </g>
    </g>
</svg>