<?xml version="1.0" encoding="UTF-8"?>
<svg width="24px" height="24px" viewBox="0 0 24 24" version="1.1" xmlns="http://www.w3.org/2000/svg" xmlns:xlink="http://www.w3.org/1999/xlink">
    <title>service_line</title>
    <g id="页面-1" stroke="none" stroke-width="1" fill="none" fill-rule="evenodd">
        <g id="Media" transform="translate(-1536.000000, 0.000000)">
            <g id="service_line" transform="translate(1536.000000, 0.000000)">
                <rect id="矩形" fill-rule="nonzero" transform="translate(12.000000, 12.000000) scale(-1, 1) translate(-12.000000, -12.000000) " x="0" y="0" width="24" height="24"></rect>
                <path d="M5,9 C5,5.13401 8.13401,2 12,2 C15.866,2 19,5.13401 19,9 L19,10.0354 C20.6961,10.2781 22,11.7368 22,13.5 L22,13.75 C22,15.5449 20.5449,17 18.75,17 C18.7224,17 18.695,16.9994 18.6678,16.9981 C17.9274,19.118 16.0464,20.5467 14.0149,20.9093 C13.5456,21.0808 12.9889,21 12.5,21 C11.6716,21 11,20.3284 11,19.5 C11,18.6716 11.6716,18 12.5,18 L13.5,18 C13.9946,18 14.4333,18.2394 14.7065,18.6086 C16.0035,17.9919 17,16.6885 17,15 L17,9 C17,6.23858 14.7614,4 12,4 C9.23858,4 7,6.23858 7,9 L7,15.25 C7,16.2165 6.2165,17 5.25,17 C3.45507,17 2,15.5449 2,13.75 L2,13.5 C2,11.7368 3.30385,10.2781 5,10.0354 L5,9 Z M5,12.0854 C4.4174,12.2913 4,12.8469 4,13.5 L4,13.75 C4,14.3547 4.42944,14.8592 5,14.975 L5,12.0854 Z M19,12.0854 L19,14.975 C19.5706,14.8592 20,14.3547 20,13.75 L20,13.5 C20,12.8469 19.5826,12.2913 19,12.0854 Z" id="形状" fill="#09244B"></path>
            </g>
        </g>
    </g>
</svg>