<?xml version="1.0" encoding="UTF-8"?>
<svg width="24px" height="24px" viewBox="0 0 24 24" version="1.1" xmlns="http://www.w3.org/2000/svg" xmlns:xlink="http://www.w3.org/1999/xlink">
    <title>service_fill</title>
    <g id="页面-1" stroke="none" stroke-width="1" fill="none" fill-rule="evenodd">
        <g id="Media" transform="translate(-1536.000000, -48.000000)" fill-rule="nonzero">
            <g id="service_fill" transform="translate(1536.000000, 48.000000)">
                <polygon id="矩形" points="24 0 0 0 0 24 24 24"></polygon>
                <path d="M5,9 C5,5.13401 8.13401,2 12,2 C15.866,2 19,5.13401 19,9 L19,10.0354 C20.6961,10.2781 22,11.7368 22,13.5 L22,13.75 C22,15.5252 20.469,17.0814 18.6678,16.9981 C17.9274,19.118 16.0464,20.5467 14.0149,20.9093 C13.5456,21.0808 12.9889,21 12.5,21 C11.6716,21 11,20.3284 11,19.5 C11,18.6716 11.6716,18 12.5,18 C13.2934,18 14.1712,17.8853 14.7065,18.6086 C16.0035,17.9919 17,16.6885 17,15 L17,9 C17,6.23858 14.7614,4 12,4 C9.23858,4 7,6.23858 7,9 L7,15.25 C7,16.2165 6.2165,17 5.25,17 C3.45507,17 2,15.5449 2,13.75 L2,13.5 C2,11.7368 3.30385,10.2781 5,10.0354 L5,9 Z" id="路径" fill="#09244B"></path>
            </g>
        </g>
    </g>
</svg>