<?xml version="1.0" encoding="UTF-8"?>
<svg width="24px" height="24px" viewBox="0 0 24 24" version="1.1" xmlns="http://www.w3.org/2000/svg" xmlns:xlink="http://www.w3.org/1999/xlink">
    <title>shuffle_line</title>
    <g id="页面-1" stroke="none" stroke-width="1" fill="none" fill-rule="evenodd">
        <g id="Media" transform="translate(-1056.000000, 0.000000)" fill-rule="nonzero">
            <g id="shuffle_line" transform="translate(1056.000000, 0.000000)">
                <rect id="矩形" transform="translate(12.000000, 12.000000) scale(-1, 1) translate(-12.000000, -12.000000) " x="0" y="0" width="24" height="24"></rect>
                <path d="M18.5784,3.65537 C18.2988,3.50915 17.9739,3.72042 17.9468,4.06597 C17.9262,4.32876 17.9054,4.66003 17.8914,5.04762 C15.5671,5.3202 13.5099,6.74401 12.4472,8.86944 L12,9.76387 L11.5528,8.86944 C10.367,6.49795 7.9432,4.99994 5.2918,4.99994 L4,4.99994 C3.44772,4.99994 3,5.44765 3,5.99994 C3,6.55222 3.44772,6.99994 4,6.99994 L5.2918,6.99994 C7.18566,6.99994 8.91697,8.06995 9.76393,9.76387 L10.882,11.9999 L9.76393,14.236 C8.91697,15.9299 7.18566,16.9999 5.2918,16.9999 L4,16.9999 C3.44772,16.9999 3,17.4477 3,17.9999 C3,18.5522 3.44772,18.9999 4,18.9999 L5.2918,18.9999 C7.9432,18.9999 10.367,17.5019 11.5528,15.1304 L12,14.236 L12.4472,15.1304 C13.51,17.2559 15.5673,18.6798 17.8916,18.9523 C17.9068,19.3696 17.9299,19.7213 17.9521,19.9922 C17.9785,20.3161 18.275,20.4953 18.5504,20.3518 C18.9184,20.1599 19.4561,19.8598 20.1,19.4416 C20.7445,19.023 21.2447,18.6489 21.5764,18.3862 C21.8243,18.1899 21.8348,17.812 21.599,17.6243 C21.2659,17.3591 20.7556,16.9752 20.1007,16.5498 C19.4769,16.1446 18.9477,15.8485 18.5784,15.6554 C18.2988,15.5092 17.9739,15.7204 17.9468,16.066 C17.9283,16.3026 17.9095,16.5948 17.8957,16.9336 C16.3302,16.6761 14.9601,15.684 14.2361,14.236 L13.118,11.9999 L14.2361,9.76387 C14.9601,8.31581 16.3304,7.32369 17.896,7.0662 C17.9111,7.43388 17.932,7.74634 17.9521,7.99217 C17.9785,8.31614 18.275,8.49534 18.5504,8.35178 C18.9184,8.15994 19.4561,7.85981 20.1,7.44157 C20.7445,7.02297 21.2447,6.64888 21.5764,6.38622 C21.8243,6.1899 21.8348,5.81202 21.599,5.62431 C21.2659,5.35906 20.7556,4.97516 20.1007,4.54981 C19.4769,4.14462 18.9477,3.84848 18.5784,3.65537 Z" id="路径" fill="#09244B"></path>
            </g>
        </g>
    </g>
</svg>