<svg xmlns="http://www.w3.org/2000/svg" width="24" height="24"><g fill="none"><path d="M24 0v24H0V0zM12.594 23.258l-.012.002-.071.035-.02.004-.014-.004-.071-.036c-.01-.003-.019 0-.024.006l-.004.01-.017.428.005.02.01.013.104.074.015.004.012-.004.104-.074.012-.016.004-.017-.017-.427c-.002-.01-.009-.017-.016-.018m.264-.113-.014.002-.184.093-.01.01-.003.011.018.43.005.012.008.008.201.092c.012.004.023 0 .029-.008l.004-.014-.034-.614c-.003-.012-.01-.02-.02-.022m-.715.002a.023.023 0 0 0-.027.006l-.006.014-.034.614c0 .012.007.02.017.024l.015-.002.201-.093.01-.008.003-.011.018-.43-.003-.012-.01-.01z"/><path fill="#09244B" d="M6.301 5.5a4.5 4.5 0 0 1 3.732 1.985l.127.2 4.252 7.087a1.5 1.5 0 0 0 1.13.72l.157.008h.741l.02-.312.011-.14c.056-.719.749-1.17 1.331-.865l.314.168.368.209a20.468 20.468 0 0 1 1.564 1.005l.385.28.323.245.137.107c.489.39.47 1.195-.05 1.606l-.136.107-.32.242-.38.275-.438.301a21.82 21.82 0 0 1-.714.457l-.426.255-.375.211-.316.17c-.577.3-1.207-.085-1.261-.756l-.04-.565H15.7a4.5 4.5 0 0 1-3.732-1.985l-.127-.2-4.252-7.087a1.5 1.5 0 0 0-1.13-.72L6.301 8.5H4a1.5 1.5 0 0 1-.144-2.993L4 5.5zm1.007 9.612L7.42 15a1.5 1.5 0 1 1 2.237 2 4.5 4.5 0 0 1-3.113 1.494l-.242.006H4a1.5 1.5 0 0 1-.144-2.993L4 15.5h2.301a1.5 1.5 0 0 0 1.007-.388m10.494-10.93.314.17.368.208c.132.076.27.159.417.248l.459.29c.25.163.48.32.688.467l.385.28.323.245.137.107c.489.39.47 1.195-.05 1.606l-.136.107-.32.242-.38.275-.438.301a21.846 21.846 0 0 1-.714.457l-.426.255-.375.211-.316.17c-.577.3-1.207-.085-1.261-.756l-.04-.565H15.7a1.5 1.5 0 0 0-1.007.388L14.58 9a1.5 1.5 0 1 1-2.237-2 4.5 4.5 0 0 1 3.113-1.494l.242-.006h.741l.031-.452c.056-.719.749-1.17 1.331-.865Z"/></g></svg>