<?xml version="1.0" encoding="UTF-8"?>
<svg width="24px" height="24px" viewBox="0 0 24 24" version="1.1" xmlns="http://www.w3.org/2000/svg" xmlns:xlink="http://www.w3.org/1999/xlink">
    <title>shuffle_line</title>
    <g id="页面-1" stroke="none" stroke-width="1" fill="none" fill-rule="evenodd">
        <g id="Media" transform="translate(-1056.000000, 0.000000)" fill-rule="nonzero">
            <g id="shuffle_line" transform="translate(1056.000000, 0.000000)">
                <path d="M24,0 L24,24 L0,24 L0,0 L24,0 Z M12.5934901,23.257841 L12.5819402,23.2595131 L12.5108777,23.2950439 L12.4918791,23.2987469 L12.4918791,23.2987469 L12.4767152,23.2950439 L12.4056548,23.2595131 C12.3958229,23.2563662 12.3870493,23.2590235 12.3821421,23.2649074 L12.3780323,23.275831 L12.360941,23.7031097 L12.3658947,23.7234994 L12.3769048,23.7357139 L12.4804777,23.8096931 L12.4953491,23.8136134 L12.4953491,23.8136134 L12.5071152,23.8096931 L12.6106902,23.7357139 L12.6232938,23.7196733 L12.6232938,23.7196733 L12.6266527,23.7031097 L12.609561,23.275831 C12.6075724,23.2657013 12.6010112,23.2592993 12.5934901,23.257841 L12.5934901,23.257841 Z M12.8583906,23.1452862 L12.8445485,23.1473072 L12.6598443,23.2396597 L12.6498822,23.2499052 L12.6498822,23.2499052 L12.6471943,23.2611114 L12.6650943,23.6906389 L12.6699349,23.7034178 L12.6699349,23.7034178 L12.678386,23.7104931 L12.8793402,23.8032389 C12.8914285,23.8068999 12.9022333,23.8029875 12.9078286,23.7952264 L12.9118235,23.7811639 L12.8776777,23.1665331 C12.8752882,23.1545897 12.8674102,23.1470016 12.8583906,23.1452862 L12.8583906,23.1452862 Z M12.1430473,23.1473072 C12.1332178,23.1423925 12.1221763,23.1452606 12.1156365,23.1525954 L12.1099173,23.1665331 L12.0757714,23.7811639 C12.0751323,23.7926639 12.0828099,23.8018602 12.0926481,23.8045676 L12.108256,23.8032389 L12.3092106,23.7104931 L12.3186497,23.7024347 L12.3186497,23.7024347 L12.3225043,23.6906389 L12.340401,23.2611114 L12.337245,23.2485176 L12.337245,23.2485176 L12.3277531,23.2396597 L12.1430473,23.1473072 Z" id="MingCute" fill-rule="nonzero"></path>
                <path d="M18.5784,3.65537 C18.2988,3.50915 17.9739,3.72042 17.9468,4.06597 C17.9262,4.32876 17.9054,4.66003 17.8914,5.04762 C15.5671,5.3202 13.5099,6.74401 12.4472,8.86944 L12,9.76387 L11.5528,8.86944 C10.367,6.49795 7.9432,4.99994 5.2918,4.99994 L4,4.99994 C3.44772,4.99994 3,5.44765 3,5.99994 C3,6.55222 3.44772,6.99994 4,6.99994 L5.2918,6.99994 C7.18566,6.99994 8.91697,8.06995 9.76393,9.76387 L10.882,11.9999 L9.76393,14.236 C8.91697,15.9299 7.18566,16.9999 5.2918,16.9999 L4,16.9999 C3.44772,16.9999 3,17.4477 3,17.9999 C3,18.5522 3.44772,18.9999 4,18.9999 L5.2918,18.9999 C7.9432,18.9999 10.367,17.5019 11.5528,15.1304 L12,14.236 L12.4472,15.1304 C13.51,17.2559 15.5673,18.6798 17.8916,18.9523 C17.9068,19.3696 17.9299,19.7213 17.9521,19.9922 C17.9785,20.3161 18.275,20.4953 18.5504,20.3518 C18.9184,20.1599 19.4561,19.8598 20.1,19.4416 C20.7445,19.023 21.2447,18.6489 21.5764,18.3862 C21.8243,18.1899 21.8348,17.812 21.599,17.6243 C21.2659,17.3591 20.7556,16.9752 20.1007,16.5498 C19.4769,16.1446 18.9477,15.8485 18.5784,15.6554 C18.2988,15.5092 17.9739,15.7204 17.9468,16.066 C17.9283,16.3026 17.9095,16.5948 17.8957,16.9336 C16.3302,16.6761 14.9601,15.684 14.2361,14.236 L13.118,11.9999 L14.2361,9.76387 C14.9601,8.31581 16.3304,7.32369 17.896,7.0662 C17.9111,7.43388 17.932,7.74634 17.9521,7.99217 C17.9785,8.31614 18.275,8.49534 18.5504,8.35178 C18.9184,8.15994 19.4561,7.85981 20.1,7.44157 C20.7445,7.02297 21.2447,6.64888 21.5764,6.38622 C21.8243,6.1899 21.8348,5.81202 21.599,5.62431 C21.2659,5.35906 20.7556,4.97516 20.1007,4.54981 C19.4769,4.14462 18.9477,3.84848 18.5784,3.65537 Z" id="路径" fill="#09244B"></path>
            </g>
        </g>
    </g>
</svg>