<svg width="24" height="24" viewBox="0 0 24 24" fill="none" xmlns="http://www.w3.org/2000/svg">
<rect width="24" height="24" transform="matrix(-1 0 0 1 24 0)" fill="white" fill-opacity="0.01"/>
<path d="M17.6754 4.04795C17.7317 3.32919 18.4241 2.87849 19.0062 3.18291C19.3859 3.38146 19.9272 3.68443 20.564 4.09808C21.2326 4.53231 21.7544 4.92482 22.097 5.19756C22.5861 5.58697 22.567 6.39215 22.0477 6.80336C21.7051 7.07465 21.192 7.45829 20.5325 7.8866C19.8737 8.31453 19.3222 8.62251 18.9421 8.82065C18.3652 9.12136 17.7356 8.73631 17.6807 8.06478C17.6702 7.93568 17.6594 7.78897 17.6494 7.62619C16.3784 7.93386 15.2838 8.78643 14.6833 9.98754L13.6771 12L14.6833 14.0125C15.2843 15.2144 16.38 16.0674 17.6522 16.3745C17.6597 16.2566 17.6675 16.1475 17.6753 16.0479C17.7317 15.3291 18.424 14.8784 19.0062 15.1828C19.3858 15.3814 19.9271 15.6843 20.564 16.098C21.2325 16.5322 21.7544 16.9247 22.097 17.1975C22.5861 17.5869 22.5669 18.392 22.0477 18.8033C21.7051 19.0745 21.1919 19.4582 20.5325 19.8865C19.8736 20.3144 19.3221 20.6224 18.942 20.8205C18.3652 21.1213 17.7355 20.7362 17.6807 20.0647C17.6659 19.884 17.6508 19.6688 17.6377 19.4234C15.2279 19.0763 13.1088 17.5716 12 15.3541C10.7296 17.895 8.13259 19.5 5.2918 19.5H4C3.17157 19.5 2.5 18.8284 2.5 18C2.5 17.1716 3.17157 16.5 4 16.5H5.2918C6.99627 16.5 8.55445 15.537 9.31672 14.0125L10.3229 12L9.31672 9.98754C8.55445 8.46301 6.99627 7.5 5.2918 7.5H4C3.17157 7.5 2.5 6.82843 2.5 6C2.5 5.17157 3.17157 4.5 4 4.5H5.2918C8.13259 4.5 10.7296 6.10502 12 8.6459C13.1092 6.4276 15.2294 4.92262 17.6402 4.57624C17.6511 4.37907 17.6633 4.20221 17.6754 4.04795Z" fill="#09244B"/>
</svg>
