<?xml version="1.0" encoding="UTF-8"?>
<svg width="24px" height="24px" viewBox="0 0 24 24" version="1.1" xmlns="http://www.w3.org/2000/svg" xmlns:xlink="http://www.w3.org/1999/xlink">
    <title>skip_previous_line</title>
    <g id="页面-1" stroke="none" stroke-width="1" fill="none" fill-rule="evenodd">
        <g id="Media" transform="translate(-1152.000000, 0.000000)">
            <g id="skip_previous_line" transform="translate(1152.000000, 0.000000)">
                <rect id="矩形" fill-rule="nonzero" transform="translate(12.000000, 12.000000) scale(-1, 1) translate(-12.000000, -12.000000) " x="0" y="0" width="24" height="24"></rect>
                <path d="M17.7721,11.9958 C17.7721,9.82815 17.6501,8.09739 17.5444,7.00424 C16.5423,7.46114 14.9792,8.22301 13.1072,9.30376 C11.2354,10.3845 9.79412,11.3572 8.89736,11.9966 C9.78579,12.63 11.2173,13.5947 13.1081,14.6864 C14.9998,15.7785 16.5515,16.5361 17.5443,16.9887 C17.65,15.8956 17.7721,14.1643 17.7721,11.9958 Z M17.5853,4.8004 C18.4042,4.45291 19.322,4.98218 19.4315,5.86489 C19.5446,6.77697 19.7721,8.98468 19.7721,11.9958 C19.7721,15.0086 19.5444,17.2171 19.4313,18.1282 C19.3218,19.0105 18.405,19.5388 17.5872,19.1929 C16.7465,18.8373 14.7395,17.9377 12.1081,16.4184 C9.47761,14.8997 7.69529,13.6118 6.96658,13.0612 C6.25749,12.5254 6.25709,11.4662 6.96771,10.9306 C7.70284,10.3765 9.50857,9.07205 12.1072,7.57171 C14.7054,6.07168 16.7376,5.16015 17.5853,4.8004 Z M4.00004,6.00007 C4.00004,5.44779 4.44776,5.00007 5.00004,5.00007 C5.55233,5.00007 6.00004,5.44779 6.00004,6.00007 L6.00004,18.0001 C6.00004,18.5524 5.55233,19.0001 5.00004,19.0001 C4.44776,19.0001 4.00004,18.5524 4.00004,18.0001 L4.00004,6.00007 Z" id="形状" fill="#09244B"></path>
            </g>
        </g>
    </g>
</svg>