<?xml version="1.0" encoding="UTF-8"?>
<svg width="24px" height="24px" viewBox="0 0 24 24" version="1.1" xmlns="http://www.w3.org/2000/svg" xmlns:xlink="http://www.w3.org/1999/xlink">
    <title>skip_previous_fill</title>
    <g id="页面-1" stroke="none" stroke-width="1" fill="none" fill-rule="evenodd">
        <g id="Media" transform="translate(-1152.000000, -48.000000)" fill-rule="nonzero">
            <g id="skip_previous_fill" transform="translate(1152.000000, 48.000000)">
                <rect id="矩形" transform="translate(12.000000, 12.000000) scale(-1, 1) translate(-12.000000, -12.000000) " x="0" y="0" width="24" height="24"></rect>
                <path d="M20.4294,5.86489 L20.5082528,6.56367584 L20.5082528,6.56367584 L20.580075,7.33071233 L20.580075,7.33071233 L20.6160111,7.77940824 L20.6160111,7.77940824 L20.6669924,8.5296714 L20.6669924,8.5296714 L20.6974997,9.07912122 L20.6974997,9.07912122 L20.7354144,9.9734273 L20.7354144,9.9734273 L20.7539284,10.6141804 L20.7539284,10.6141804 L20.7658071,11.2888087 L20.7658071,11.2888087 L20.77,11.9958 L20.77,11.9958 L20.7658034,12.703177 L20.7658034,12.703177 L20.7539147,13.378154 L20.7539147,13.378154 L20.7353854,14.0192163 L20.7353854,14.0192163 L20.711267,14.6248491 L20.711267,14.6248491 L20.6826112,15.1935376 L20.6826112,15.1935376 L20.6334199,15.973986 L20.6334199,15.973986 L20.5980208,16.4436864 L20.5980208,16.4436864 L20.5080736,17.4297968 L20.5080736,17.4297968 L20.4292,18.1282 L20.4292,18.1282 C20.3197,19.0105 19.4029,19.5388 18.5851,19.1929 L18.0942118,18.9801227 L18.0942118,18.9801227 L17.2489694,18.5938129 L17.2489694,18.5938129 L16.6282752,18.2964514 L16.6282752,18.2964514 L16.1706353,18.0704027 L16.1706353,18.0704027 L15.4225713,17.6890367 L15.4225713,17.6890367 L14.8852205,17.4062583 L14.8852205,17.4062583 L14.3188985,17.1003811 L14.3188985,17.1003811 L13.7252701,16.7711725 L13.7252701,16.7711725 L13.106,16.4184 L13.106,16.4184 L12.491071,16.0586027 L12.491071,16.0586027 L11.9093444,15.7092241 L11.9093444,15.7092241 L11.1003892,15.2080948 L11.1003892,15.2080948 L10.369688,14.73916 L10.369688,14.73916 L9.92707973,14.4470158 L9.92707973,14.4470158 L9.52082812,14.1730701 L9.52082812,14.1730701 L8.9809994,13.7996776 L8.9809994,13.7996776 L8.39436386,13.380038 L8.39436386,13.380038 L7.96451,13.0612 L7.96451,13.0612 C7.25542,12.5254 7.25502,11.4662 7.96564,10.9306 L8.29095301,10.6887228 L8.29095301,10.6887228 L8.71338281,10.3829978 L8.71338281,10.3829978 L9.22967559,10.0199227 L9.22967559,10.0199227 L9.8365775,9.605995 L9.8365775,9.605995 L10.5308347,9.1477123 L10.5308347,9.1477123 L11.0405968,8.82075752 L11.0405968,8.82075752 L11.5867732,8.47890243 L11.5867732,8.47890243 L12.1683998,8.12407223 L12.1683998,8.12407223 L12.7845126,7.75819213 L12.7845126,7.75819213 L13.1052,7.57171 C13.313048,7.4517076 13.5172742,7.3354716 13.717562,7.2229832 L14.3062931,6.89674199 L14.3062931,6.89674199 L14.869493,6.59287358 L14.869493,6.59287358 L15.6622647,6.17877319 L15.6622647,6.17877319 L16.3869017,5.81437706 L16.3869017,5.81437706 L16.8289732,5.59887178 L16.8289732,5.59887178 L17.4257999,5.31647006 L17.4257999,5.31647006 L18.2279265,4.95381035 L18.2279265,4.95381035 L18.5832,4.8004 L18.5832,4.8004 C19.4021,4.45291 20.3199,4.98218 20.4294,5.86489 Z M6,5 C6.51284071,5 6.93550786,5.38604429 6.99327234,5.88337975 L7,6 L7,18 C7,18.51285 6.61395571,18.9355092 6.11662025,18.9932725 L6,19 L5,19 C4.48716857,19 4.06449347,18.613973 4.0067278,18.1166239 L4,18 L4,6 C4,5.48716857 4.38604429,5.06449347 4.88337975,5.0067278 L5,5 L6,5 Z" id="形状" fill="#09244B"></path>
            </g>
        </g>
    </g>
</svg>