<svg width="24" height="24" viewBox="0 0 24 24" fill="none" xmlns="http://www.w3.org/2000/svg">
<rect width="24" height="24" fill="white" fill-opacity="0.01"/>
<path fill-rule="evenodd" clip-rule="evenodd" d="M6.41468 4.80065C5.59583 4.45316 4.67801 4.98243 4.56853 5.86513C4.45539 6.77721 4.22791 8.98493 4.22791 11.9961C4.22791 15.0088 4.45564 17.2173 4.56871 18.1285C4.67819 19.0108 5.59498 19.539 6.41285 19.1931C7.25352 18.8376 9.26052 17.9379 11.8919 16.4187C14.5224 14.9 16.3047 13.612 17.0334 13.0614C17.7425 12.5257 17.7429 11.4664 17.0323 10.9308C16.2972 10.3767 14.4914 9.0723 11.8928 7.57195C9.29464 6.07193 7.26242 5.16039 6.41468 4.80065ZM6.22791 11.9961C6.22791 9.8284 6.34987 8.09764 6.45562 7.00448C7.45773 7.46138 9.02084 8.22325 10.8928 9.304C12.7646 10.3847 14.2059 11.3574 15.1026 11.9968C14.2142 12.6302 12.7827 13.595 10.8919 14.6866C9.00023 15.7788 7.44846 16.5363 6.45574 16.9889C6.34996 15.8959 6.22791 14.1646 6.22791 11.9961Z" fill="#09244B"/>
<path d="M20 6.00011C20 5.44783 19.5522 5.00011 19 5.00011C18.4477 5.00011 18 5.44783 18 6.00011V18.0001C18 18.5524 18.4477 19.0001 19 19.0001C19.5522 19.0001 20 18.5524 20 18.0001V6.00011Z" fill="#09244B"/>
</svg>
