<svg width="24" height="24" viewBox="0 0 24 24" fill="none" xmlns="http://www.w3.org/2000/svg">
<rect width="24" height="24" transform="matrix(-1 0 0 1 24 0)" fill="white" fill-opacity="0.01"/>
<path fill-rule="evenodd" clip-rule="evenodd" d="M17.7721 11.9958C17.7721 9.82815 17.6501 8.09739 17.5444 7.00424C16.5423 7.46114 14.9792 8.22301 13.1072 9.30376C11.2354 10.3845 9.79412 11.3572 8.89736 11.9966C9.78579 12.63 11.2173 13.5947 13.1081 14.6864C14.9998 15.7785 16.5515 16.5361 17.5443 16.9887C17.65 15.8956 17.7721 14.1643 17.7721 11.9958ZM17.5853 4.8004C18.4042 4.45291 19.322 4.98218 19.4315 5.86489C19.5446 6.77697 19.7721 8.98468 19.7721 11.9958C19.7721 15.0086 19.5444 17.2171 19.4313 18.1282C19.3218 19.0105 18.405 19.5388 17.5872 19.1929C16.7465 18.8373 14.7395 17.9377 12.1081 16.4184C9.47761 14.8997 7.69529 13.6118 6.96658 13.0612C6.25749 12.5254 6.25709 11.4662 6.96771 10.9306C7.70284 10.3765 9.50857 9.07205 12.1072 7.57171C14.7054 6.07168 16.7376 5.16015 17.5853 4.8004ZM4.00004 6.00007C4.00004 5.44779 4.44776 5.00007 5.00004 5.00007C5.55233 5.00007 6.00004 5.44779 6.00004 6.00007V18.0001C6.00004 18.5524 5.55233 19.0001 5.00004 19.0001C4.44776 19.0001 4.00004 18.5524 4.00004 18.0001V6.00007Z" fill="#09244B"/>
</svg>
