<svg xmlns="http://www.w3.org/2000/svg" width="24" height="24"><g fill="none"><path d="M24 0v24H0V0zM12.593 23.258l-.011.002-.071.035-.02.004-.014-.004-.071-.035c-.01-.004-.019-.001-.024.005l-.004.01-.017.428.005.02.01.013.104.074.015.004.012-.004.104-.074.012-.016.004-.017-.017-.427c-.002-.01-.009-.017-.017-.018m.265-.113-.013.002-.185.093-.01.01-.003.011.018.43.005.012.008.007.201.093c.012.004.023 0 .029-.008l.004-.014-.034-.614c-.003-.012-.01-.02-.02-.022m-.715.002a.023.023 0 0 0-.027.006l-.006.014-.034.614c0 .012.007.02.017.024l.015-.002.201-.093.01-.008.004-.011.017-.43-.003-.012-.01-.01z"/><path fill="#09244B" d="M3.569 5.865A1.332 1.332 0 0 1 5.415 4.8l.646.283.511.233.597.283.676.331.49.249.793.414.564.304.588.326.613.349.633.37.599.361.564.349.778.496.694.458.607.414.517.363.541.394.206.154c.71.535.71 1.594.001 2.13l-.43.319-.273.198-.664.465-.595.404-.443.292-.73.47-.81.5-.581.35-.615.36-.62.352-.593.33-.566.305-.538.283-.748.381-.673.331-.773.364-.744.332-.224.096a1.332 1.332 0 0 1-1.844-1.065l-.08-.698-.071-.767-.053-.689-.05-.78-.028-.57-.024-.605-.019-.64-.015-1.026v-.715l.015-1.024.03-.948.026-.587.03-.55.052-.75.054-.657.07-.722zM19 5a1 1 0 0 1 .993.883L20 6v12a1 1 0 0 1-.883.993L19 19h-1a1 1 0 0 1-.993-.883L17 18V6a1 1 0 0 1 .883-.993L18 5z"/></g></svg>