<svg width="24" height="24" viewBox="0 0 24 24" fill="none" xmlns="http://www.w3.org/2000/svg">
<rect width="24" height="24" fill="white" fill-opacity="0.01"/>
<path d="M5.41468 4.8004C4.59583 4.45291 3.67801 4.98218 3.56852 5.86489C3.45539 6.77697 3.22791 8.98468 3.22791 11.9958C3.22791 15.0086 3.45564 17.2171 3.56871 18.1282C3.67819 19.0105 4.59498 19.5388 5.41284 19.1929C6.25352 18.8373 8.26052 17.9377 10.8919 16.4184C13.5224 14.8997 15.3047 13.6118 16.0334 13.0612C16.7425 12.5254 16.7429 11.4662 16.0323 10.9306C15.2972 10.3765 13.4914 9.07205 10.8928 7.57171C8.29464 6.07168 6.26242 5.16015 5.41468 4.8004Z" fill="#09244B"/>
<path d="M18 5C17.4477 5 17 5.44772 17 6V18C17 18.5523 17.4477 19 18 19H19C19.5523 19 20 18.5523 20 18V6C20 5.44772 19.5523 5 19 5H18Z" fill="#09244B"/>
</svg>
