<?xml version="1.0" encoding="UTF-8"?>
<svg width="24px" height="24px" viewBox="0 0 24 24" version="1.1" xmlns="http://www.w3.org/2000/svg" xmlns:xlink="http://www.w3.org/1999/xlink">
    <title>stop_circle_fill</title>
    <g id="页面-1" stroke="none" stroke-width="1" fill="none" fill-rule="evenodd">
        <g id="Media" transform="translate(-1200.000000, -48.000000)" fill-rule="nonzero">
            <g id="stop_circle_fill" transform="translate(1200.000000, 48.000000)">
                <rect id="矩形" x="0" y="0" width="24" height="24"></rect>
                <path d="M12,2 C17.5228,2 22,6.47715 22,12 C22,17.5228 17.5228,22 12,22 C6.47715,22 2,17.5228 2,12 C2,6.47715 6.47715,2 12,2 Z M14,8 L10,8 C8.89543,8 8,8.89543 8,10 L8,14 C8,15.1046 8.89543,16 10,16 L14,16 C15.1046,16 16,15.1046 16,14 L16,10 C16,8.89543 15.1046,8 14,8 Z" id="形状" fill="#09244B"></path>
            </g>
        </g>
    </g>
</svg>