<svg width="24" height="24" viewBox="0 0 24 24" fill="none" xmlns="http://www.w3.org/2000/svg">
<rect width="24" height="24" fill="white" fill-opacity="0.01"/>
<path fill-rule="evenodd" clip-rule="evenodd" d="M8.62499 8.62954C8.72188 7.80738 9.57864 7.31137 10.3401 7.63805C10.8441 7.85426 11.9082 8.33966 13.2562 9.11789C14.6049 9.89659 15.5577 10.5758 15.9966 10.9039C16.6579 11.3984 16.6608 12.3871 15.9967 12.8836C15.5601 13.2099 14.6147 13.8829 13.2551 14.6678C11.8961 15.4524 10.8409 15.9346 10.3398 16.1497C9.57694 16.477 8.72176 15.9789 8.62504 15.1583C8.56076 14.6131 8.44938 13.4451 8.44938 11.8937C8.44938 10.3428 8.5607 9.17498 8.62499 8.62954ZM12.2562 10.8499C11.5852 10.4625 10.9915 10.1538 10.5151 9.92064C10.4789 10.451 10.4494 11.1204 10.4494 11.8937C10.4494 12.6667 10.4788 13.3358 10.515 13.8661C10.9888 13.6336 11.5808 13.3251 12.2551 12.9358C12.93 12.5461 13.4935 12.1875 13.9318 11.8933C13.4917 11.5973 12.9273 11.2374 12.2562 10.8499Z" fill="#09244B"/>
<path fill-rule="evenodd" clip-rule="evenodd" d="M4 3C2.89543 3 2 3.89543 2 5V19C2 20.1046 2.89543 21 4 21H20C21.1046 21 22 20.1046 22 19V5C22 3.89543 21.1046 3 20 3H4ZM4 5H20V19H4V5Z" fill="#09244B"/>
</svg>
