<svg xmlns="http://www.w3.org/2000/svg" width="24" height="24" viewBox="0 0 24 24"><g fill="none" fill-rule="evenodd"><path d="M24,0 L24,24 L0,24 L0,0 L24,0 Z M12.5935,23.2578 L12.5819,23.2595 L12.5109,23.295 L12.4919,23.2987 L12.4767,23.295 L12.4057,23.2595 C12.3958,23.2564 12.387,23.259 12.3821,23.2649 L12.378,23.2758 L12.3609,23.7031 L12.3659,23.7235 L12.3769,23.7357 L12.4805,23.8097 L12.4953,23.8136 L12.5071,23.8097 L12.6107,23.7357 L12.6233,23.7197 L12.6267,23.7031 L12.6096,23.2758 C12.6076,23.2657 12.601,23.2593 12.5935,23.2578 Z M12.8584,23.1453 L12.8445,23.1473 L12.6598,23.2397 L12.6499,23.2499 L12.6472,23.2611 L12.6651,23.6906 L12.6699,23.7034 L12.6784,23.7105 L12.8793,23.8032 C12.8914,23.8069 12.9022,23.803 12.9078,23.7952 L12.9118,23.7812 L12.8777,23.1665 C12.8753,23.1546 12.8674,23.147 12.8584,23.1453 Z M12.143,23.1473 C12.1332,23.1424 12.1222,23.1453 12.1156,23.1526 L12.1099,23.1665 L12.0758,23.7812 C12.0751,23.7927 12.0828,23.8019 12.0926,23.8046 L12.1083,23.8032 L12.3092,23.7105 L12.3186,23.7024 L12.3225,23.6906 L12.3404,23.2611 L12.3372,23.2485 L12.3278,23.2397 L12.143,23.1473 Z"/><path fill="#09244B" d="M16,7 C16,7.74219 15.7979,8.43716 15.4456,9.03288 C16.8912,9.24814 18,10.4946 18,12 L18,12.2092 L19.7133,11.1538 C20.7126,10.5382 22,11.2571 22,12.4309 L22,17.5686 C22,18.7424 20.7126,19.4614 19.7133,18.8457 L18,17.7903 L18,18 C18,19.6569 16.6569,21 15,21 L5,21 C3.34315,21 2,19.6569 2,18 L2,12 C2,10.8712 2.62341,9.88804 3.54471,9.37599 C3.1998,8.83378 3,8.19022 3,7.5 C3,5.567 4.567,4 6.5,4 C7.32558,4 8.08439,4.28584 8.68287,4.76395 C9.40167,3.69973 10.6191,3 12,3 C14.2091,3 16,4.79086 16,7 Z M12,5 C10.8954,5 10,5.89543 10,7 C10,8.10457 10.8954,9 12,9 C13.1046,9 14,8.10457 14,7 C14,5.89543 13.1046,5 12,5 Z M6.5,9 C7.32843,9 8,8.32843 8,7.5 C8,6.67157 7.32843,6 6.5,6 C5.67157,6 5,6.67157 5,7.5 C5,8.32843 5.67157,9 6.5,9 Z"/></g></svg>