<?xml version="1.0" encoding="UTF-8"?>
<svg width="24px" height="24px" viewBox="0 0 24 24" version="1.1" xmlns="http://www.w3.org/2000/svg" xmlns:xlink="http://www.w3.org/1999/xlink">
    <title>video_fill</title>
    <g id="页面-1" stroke="none" stroke-width="1" fill="none" fill-rule="evenodd">
        <g id="Media" transform="translate(-1296.000000, -48.000000)">
            <g id="video_fill" transform="translate(1296.000000, 48.000000)">
                <rect id="矩形" fill-rule="nonzero" x="0" y="0" width="24" height="24"></rect>
                <path d="M4,3 C2.89543,3 2,3.89543 2,5 L2,19 C2,20.1046 2.89543,21 4,21 L20,21 C21.1046,21 22,20.1046 22,19 L22,5 C22,3.89543 21.1046,3 20,3 L4,3 Z M8.62499,8.6296 C8.72188,7.80744 9.57864,7.31143 10.3401,7.63811 C10.8441,7.85432 11.9082,8.33973 13.2562,9.11795 C14.6049,9.89665 15.5577,10.5759 15.9966,10.904 C16.6579,11.3985 16.6608,12.3872 15.9967,12.8836 C15.5601,13.21 14.6147,13.883 13.2551,14.6679 C11.8961,15.4525 10.8409,15.9347 10.3398,16.1497 C9.57694,16.4771 8.72176,15.9789 8.62504,15.1584 C8.56076,14.6132 8.44938,13.4451 8.44938,11.8938 C8.44938,10.3428 8.5607,9.17504 8.62499,8.6296 Z" id="形状" fill="#09244B"></path>
            </g>
        </g>
    </g>
</svg>