<svg xmlns="http://www.w3.org/2000/svg" width="24" height="24" viewBox="0 0 24 24"><title>video_ai_fill</title><g fill="none" fill-rule="evenodd"><path d="M24 0v24H0V0zM12.594 23.258l-.012.002-.071.035-.02.004-.014-.004-.071-.036q-.016-.004-.024.006l-.004.01-.017.428.005.02.01.013.104.074.015.004.012-.004.104-.074.012-.016.004-.017-.017-.427q-.004-.016-.016-.018m.264-.113-.014.002-.184.093-.01.01-.003.011.018.43.005.012.008.008.201.092q.019.005.029-.008l.004-.014-.034-.614q-.005-.019-.02-.022m-.715.002a.02.02 0 0 0-.027.006l-.006.014-.034.614q.001.018.017.024l.015-.002.201-.093.01-.008.003-.011.018-.43-.003-.012-.01-.01z"/><path fill="#09244b" d="M14.767 3a2.996 2.996 0 0 0 1.263 4.839l.378.129c.293.1.524.33.624.624l.13.378A2.995 2.995 0 0 0 22 10.233L21.999 19a2 2 0 0 1-2 2H4a2 2 0 0 1-2-2V5a2 2 0 0 1 2-2zM8.625 8.63l-.058.564a30 30 0 0 0-.116 2.395l-.002.305c0 1.55.112 2.719.176 3.264.097.82.952 1.319 1.715.991l.365-.161c.57-.259 1.463-.692 2.55-1.32l.521-.307a27 27 0 0 0 2.221-1.477 1.234 1.234 0 0 0 0-1.98l-.325-.237a29 29 0 0 0-2.152-1.395l-.264-.154a28 28 0 0 0-2.916-1.48 1.235 1.235 0 0 0-1.715.992M20 1a1 1 0 0 1 .946.677l.13.378c.3.879.99 1.57 1.87 1.87l.377.129a1 1 0 0 1 0 1.892l-.378.13c-.879.3-1.57.99-1.87 1.87l-.129.377a1 1 0 0 1-1.892 0l-.13-.378a3 3 0 0 0-1.87-1.87l-.377-.129a1 1 0 0 1 0-1.892l.378-.13c.879-.3 1.57-.99 1.87-1.87l.129-.377A1 1 0 0 1 20 1"/></g></svg>