<?xml version="1.0" encoding="UTF-8"?>
<svg width="24px" height="24px" viewBox="0 0 24 24" version="1.1" xmlns="http://www.w3.org/2000/svg" xmlns:xlink="http://www.w3.org/1999/xlink">
    <title>volume_mute_fill</title>
    <g id="页面-1" stroke="none" stroke-width="1" fill="none" fill-rule="evenodd">
        <g id="Media" transform="translate(-624.000000, -144.000000)" fill-rule="nonzero">
            <g id="volume_mute_fill" transform="translate(624.000000, 144.000000)">
                <rect id="矩形" x="0" y="0" width="24" height="24"></rect>
                <path d="M13.2606,3.29924 C13.9570435,2.80181043 14.9125962,3.25635123 14.9943712,4.07982597 L15,4.19435 L15,19.8057 C15,20.6615 14.0747274,21.1749318 13.3570692,20.7627926 L13.2606,20.7008 L6.67953,16 L4,16 C2.94563773,16 2.08183483,15.18415 2.00548573,14.1492661 L2,14 L2,10 C2,8.94566636 2.81587733,8.08186477 3.85073759,8.00551573 L4,8.00003 L6.67953,8.00003 L13.2606,3.29924 Z M17.5858,9.17162 L19,10.5858 L20.4142,9.17163 C20.8047,8.7811 21.4379,8.7811 21.8284,9.17163 C22.2189,9.56215 22.2189,10.1953 21.8284,10.5858 L20.4142,12 L21.8284,13.4143 C22.2189,13.8048 22.2189,14.4379 21.8284,14.8285 C21.4379,15.219 20.8047,15.219 20.4142,14.8285 L19,13.4143 L17.5858,14.8285 C17.1952,15.219 16.5621,15.219 16.1716,14.8285 C15.781,14.438 15.781,13.8048 16.1716,13.4143 L17.5858,12 L16.1716,10.5858 C15.781,10.1953 15.781,9.56214 16.1716,9.17162 C16.5621,8.78109 17.1952,8.78109 17.5858,9.17162 Z" id="形状" fill="#09244B"></path>
            </g>
        </g>
    </g>
</svg>