<?xml version="1.0" encoding="UTF-8"?>
<svg width="24px" height="24px" viewBox="0 0 24 24" version="1.1" xmlns="http://www.w3.org/2000/svg" xmlns:xlink="http://www.w3.org/1999/xlink">
    <title>volume_line</title>
    <g id="页面-1" stroke="none" stroke-width="1" fill="none" fill-rule="evenodd">
        <g id="Media" transform="translate(-1344.000000, 0.000000)">
            <g id="volume_line" transform="translate(1344.000000, 0.000000)">
                <rect id="矩形" fill-rule="nonzero" x="0" y="0" width="24" height="24"></rect>
                <path d="M15,4.19422 L15,19.8056 C15,20.7003 13.9887,21.2207 13.2606,20.7007 L6.67953,15.9999 L4,15.9999 C2.89543,15.9999 2,15.1045 2,13.9999 L2,9.99991 C2,8.89534 2.89543,7.99991 4,7.99991 L6.67953,7.99991 L13.2606,3.29912 C13.9887,2.77908 15,3.29952 15,4.19422 Z M13,5.94309 L7.84201,9.62737 C7.50281,9.86966 7.09638,9.99991 6.67953,9.99991 L4,9.99991 L4,13.9999 L6.67953,13.9999 C7.09638,13.9999 7.50281,14.1302 7.84201,14.3724 L13,18.0567 L13,5.94309 Z M18.2549,6.86093 C18.6232,6.4494 19.2554,6.41438 19.6669,6.78271 C21.0974,8.06302 21.9999957,9.92679 21.9999957,12.0001 C21.9999957,14.0733 21.0974,15.9371 19.6669,17.2174 C19.2554,17.5857 18.6232,17.5507 18.2549,17.1392 C17.8865,16.7277 17.9216,16.0955 18.3331,15.7271 C19.3576,14.8102 19.9999957,13.4808 19.9999957,12.0001 C19.9999957,10.5193 19.3576,9.18994 18.3331,8.27298 C17.9216,7.90465 17.8865,7.27245 18.2549,6.86093 Z M17.6669,9.01879 C18.4837,9.74979 18.9999957,10.8153 18.9999957,12 C18.9999957,13.1848 18.4837,14.2503 17.6669,14.9813 C17.2554,15.3496 16.6232,15.3146 16.2549,14.9031 C15.9148385,14.5231615 15.9185876,13.9552562 16.2448325,13.5804564 L16.3331,13.491 C16.7439,13.1234 16.9999957,12.5923 16.9999957,12 C16.9999957,11.46702 16.7925582,10.983531 16.4515975,10.6241826 L16.3331,10.5091 C15.9216,10.1407 15.8865,9.50854 16.2549,9.09701 C16.6232,8.68548 17.2554,8.65046 17.6669,9.01879 Z" id="形状" fill="#09244B"></path>
            </g>
        </g>
    </g>
</svg>