<svg width="24" height="24" viewBox="0 0 24 24" fill="none" xmlns="http://www.w3.org/2000/svg">
<rect width="24" height="24" fill="white" fill-opacity="0.01"/>
<path d="M15 4.19422C15 3.29952 13.9887 2.77908 13.2606 3.29912L6.67953 7.99991H4C2.89543 7.99991 2 8.89534 2 9.99991V13.9999C2 15.1045 2.89543 15.9999 4 15.9999H6.67953L13.2606 20.7007C13.9887 21.2207 15 20.7003 15 19.8056V4.19422Z" fill="#09244B"/>
<path d="M18.2549 6.86078C18.6232 6.44925 19.2554 6.41423 19.6669 6.78255C21.0974 8.06287 22 9.92664 22 11.9999C22 14.0732 21.0974 15.9369 19.6669 17.2172C19.2554 17.5856 18.6232 17.5506 18.2549 17.139C17.8865 16.7275 17.9216 16.0953 18.3331 15.727C19.3576 14.81 20 13.4806 20 11.9999C20 10.5192 19.3576 9.18979 18.3331 8.27282C17.9216 7.9045 17.8865 7.2723 18.2549 6.86078Z" fill="#09244B"/>
<path d="M16.2549 9.09689C16.6232 8.68536 17.2554 8.65034 17.6669 9.01867C18.4837 9.74967 19 10.8151 19 11.9999C19 13.1847 18.4837 14.2502 17.6669 14.9812C17.2554 15.3495 16.6232 15.3145 16.2549 14.9029C15.8865 14.4914 15.9216 13.8592 16.3331 13.4909C16.7439 13.1232 17 12.5921 17 11.9999C17 11.4077 16.7439 10.8766 16.3331 10.5089C15.9216 10.1406 15.8865 9.50842 16.2549 9.09689Z" fill="#09244B"/>
</svg>
