<?xml version="1.0" encoding="UTF-8"?>
<svg width="24px" height="24px" viewBox="0 0 24 24" version="1.1" xmlns="http://www.w3.org/2000/svg" xmlns:xlink="http://www.w3.org/1999/xlink">
    <title>volume_fill</title>
    <g id="页面-1" stroke="none" stroke-width="1" fill="none" fill-rule="evenodd">
        <g id="Media" transform="translate(-1344.000000, -48.000000)" fill-rule="nonzero">
            <g id="volume_fill" transform="translate(1344.000000, 48.000000)">
                <rect id="矩形" x="0" y="0" width="24" height="24"></rect>
                <path d="M13.2606,3.29912 C13.9570435,2.80169043 14.9125962,3.25623123 14.9943712,4.07969721 L15,4.19422 L15,19.8056 C15,20.6614 14.0747274,21.1747403 13.3570692,20.7626806 L13.2606,20.7007 L6.67953,15.9999 L4,15.9999 C2.94563773,15.9999 2.08183483,15.18405 2.00548573,14.1491661 L2,13.9999 L2,9.99991 C2,8.94554773 2.81587733,8.08174483 3.85073759,8.00539573 L4,7.99991 L6.67953,7.99991 L13.2606,3.29912 Z M19.6669,6.78255 C21.0974,8.06287 21.9999957,9.92664 21.9999957,11.9999 C21.9999957,14.0732 21.0974,15.9369 19.6669,17.2172 C19.2554,17.5856 18.6232,17.5506 18.2549,17.139 C17.8865,16.7275 17.9216,16.0953 18.3331,15.727 C19.3576,14.81 19.9999957,13.4806 19.9999957,11.9999 C19.9999957,10.5192 19.3576,9.18979 18.3331,8.27282 C17.9216,7.9045 17.8865,7.2723 18.2549,6.86078 C18.6232,6.44925 19.2554,6.41423 19.6669,6.78255 Z M17.6669,9.01867 C18.4837,9.74967 18.9999957,10.8151 18.9999957,11.9999 C18.9999957,13.1847 18.4837,14.2502 17.6669,14.9812 C17.2554,15.3495 16.6232,15.3145 16.2549,14.9029 C15.9148385,14.5230538 15.9185876,13.9551556 16.2448325,13.5803563 L16.3331,13.4909 C16.7439,13.1232 16.9999957,12.5921 16.9999957,11.9999 C16.9999957,11.46692 16.7925582,10.983431 16.4515975,10.6240097 L16.3331,10.5089 C15.9216,10.1406 15.8865,9.50842 16.2549,9.09689 C16.6232,8.68536 17.2554,8.65034 17.6669,9.01867 Z" id="形状" fill="#09244B"></path>
            </g>
        </g>
    </g>
</svg>