<svg width="24" height="24" viewBox="0 0 24 24" fill="none" xmlns="http://www.w3.org/2000/svg">
<rect width="24" height="24" fill="white" fill-opacity="0.01"/>
<path fill-rule="evenodd" clip-rule="evenodd" d="M13.2606 3.29912C13.9887 2.77908 15 3.29952 15 4.19422V19.8056C15 20.7003 13.9887 21.2207 13.2606 20.7007L6.67953 15.9999H4C2.89543 15.9999 2 15.1045 2 13.9999V9.99991C2 8.89534 2.89543 7.99991 4 7.99991H6.67953L13.2606 3.29912ZM13 5.94309L7.84201 9.62737C7.50281 9.86966 7.09638 9.99991 6.67953 9.99991L4 9.99991V13.9999H6.67953C7.09638 13.9999 7.50281 14.1302 7.84201 14.3724L13 18.0567V5.94309Z" fill="#09244B"/>
<path d="M16.2549 9.09701C16.6232 8.68548 17.2554 8.65046 17.6669 9.01879C18.4837 9.74979 19 10.8153 19 12C19 13.1848 18.4837 14.2503 17.6669 14.9813C17.2554 15.3496 16.6232 15.3146 16.2549 14.9031C15.8865 14.4915 15.9216 13.8593 16.3331 13.491C16.7439 13.1234 17 12.5923 17 12C17 11.4078 16.7439 10.8767 16.3331 10.5091C15.9216 10.1407 15.8865 9.50854 16.2549 9.09701Z" fill="#09244B"/>
<path d="M19.6669 6.78271C19.2554 6.41438 18.6232 6.4494 18.2549 6.86093C17.8865 7.27245 17.9216 7.90465 18.3331 8.27298C19.3576 9.18994 20 10.5193 20 12.0001C20 13.4808 19.3576 14.8102 18.3331 15.7271C17.9216 16.0955 17.8865 16.7277 18.2549 17.1392C18.6232 17.5507 19.2554 17.5857 19.6669 17.2174C21.0974 15.9371 22 14.0733 22 12.0001C22 9.92679 21.0974 8.06302 19.6669 6.78271Z" fill="#09244B"/>
</svg>
