<?xml version="1.0" encoding="UTF-8"?>
<svg width="24px" height="24px" viewBox="0 0 24 24" version="1.1" xmlns="http://www.w3.org/2000/svg" xmlns:xlink="http://www.w3.org/1999/xlink">
    <title>volume_mute_line</title>
    <g id="页面-1" stroke="none" stroke-width="1" fill="none" fill-rule="evenodd">
        <g id="Media" transform="translate(-624.000000, -96.000000)">
            <g id="volume_mute_line" transform="translate(624.000000, 96.000000)">
                <rect id="矩形" fill-rule="nonzero" x="0" y="0" width="24" height="24"></rect>
                <path d="M15,4.19432 L15,19.8057 C15,20.7004 13.9887,21.2208 13.2606,20.7008 L6.67953,16 L4,16 C2.89543,16 2,15.1046 2,14 L2,10 C2,8.89543 2.89543,8 4,8 L6.67953,8 L13.2606,3.29921 C13.9887,2.77917 15,3.29961 15,4.19432 Z M13,5.94319 L7.84201,9.62746 C7.50281,9.86975 7.09638,10 6.67953,10 L4,10 L4,14 L6.67953,14 C7.09638,14 7.50281,14.1302 7.84201,14.3725 L13,18.0568 L13,5.94319 Z M16.1715,9.17163 C16.5319615,8.81115 17.0992207,8.78342077 17.4914973,9.08844231 L17.5857,9.17163 L18.9999,10.5858 L20.4141,9.17164 C20.8046,8.78112 21.4378,8.78112 21.8283,9.17164 C22.1888538,9.53212923 22.2165888,10.0993309 21.9115047,10.4916771 L21.8283,10.5859 L20.4141,12.0001 L21.8283,13.4143 C22.2189,13.8048 22.2189,14.438 21.8283,14.8285 C21.4678385,15.1889615 20.9005793,15.2166893 20.5083027,14.9116834 L20.4141,14.8285 L18.9999,13.4143 L17.5857,14.8285 C17.1952,15.219 16.562,15.219 16.1715,14.8285 C15.8110385,14.4680385 15.7833107,13.9007793 16.0883166,13.5085027 L16.1715,13.4143 L17.5857,12.0001 L16.1715,10.5858 C15.781,10.1953 15.781,9.56215 16.1715,9.17163 Z" id="形状" fill="#09244B"></path>
            </g>
        </g>
    </g>
</svg>