<?xml version="1.0" encoding="UTF-8"?>
<svg width="24px" height="24px" viewBox="0 0 24 24" version="1.1" xmlns="http://www.w3.org/2000/svg" xmlns:xlink="http://www.w3.org/1999/xlink">
    <title>align_arrow_down_fill</title>
    <g id="Icon" stroke="none" stroke-width="1" fill="none" fill-rule="evenodd">
        <g id="Arrow" transform="translate(0.000000, -146.000000)" fill-rule="nonzero">
            <g id="align_arrow_down_fill" transform="translate(0.000000, 146.000000)">
                <path d="M24,0 L24,24 L0,24 L0,0 L24,0 Z M12.5935,23.2578 L12.5819,23.2595 L12.5109,23.295 L12.4919,23.2987 L12.4767,23.295 L12.4057,23.2595 C12.3958,23.2564 12.387,23.259 12.3821,23.2649 L12.378,23.2758 L12.3609,23.7031 L12.3659,23.7235 L12.3769,23.7357 L12.4805,23.8097 L12.4953,23.8136 L12.5071,23.8097 L12.6107,23.7357 L12.6233,23.7197 L12.6267,23.7031 L12.6096,23.2758 C12.6076,23.2657 12.601,23.2593 12.5935,23.2578 Z M12.8584,23.1453 L12.8445,23.1473 L12.6598,23.2397 L12.6499,23.2499 L12.6472,23.2611 L12.6651,23.6906 L12.6699,23.7034 L12.6784,23.7105 L12.8793,23.8032 C12.8914,23.8069 12.9022,23.803 12.9078,23.7952 L12.9118,23.7812 L12.8777,23.1665 C12.8753,23.1546 12.8674,23.147 12.8584,23.1453 Z M12.143,23.1473 C12.1332,23.1424 12.1222,23.1453 12.1156,23.1526 L12.1099,23.1665 L12.0758,23.7812 C12.0751,23.7927 12.0828,23.8019 12.0926,23.8046 L12.1083,23.8032 L12.3092,23.7105 L12.3186,23.7024 L12.3225,23.6906 L12.3404,23.2611 L12.3372,23.2485 L12.3278,23.2397 L12.143,23.1473 Z" id="MingCute"></path>
                <path d="M17.3031,14.9439 C16.7173,14.3581 15.7675,14.3581 15.1818,14.9439 L13.5001,16.6256 L13.5001,9.00005 C13.5001,8.17162 12.8285,7.50005 12.0001,7.50005 C11.1716,7.50005 10.5001,8.17162 10.5001,9.00005 L10.5001,16.6261 L8.81778,14.9439 C8.23199,14.3581 7.28225,14.3581 6.69646,14.9439 C6.11067,15.5296 6.11067,16.4794 6.69646,17.0652 L10.9391,21.3078 C11.5249,21.8936 12.4746,21.8936 13.0604,21.3078 L17.3031,17.0652 C17.8889,16.4794 17.8889,15.5296 17.3031,14.9439 Z M5,2.5 C4.17157,2.5 3.5,3.17157 3.5,4 C3.5,4.82843 4.17157,5.5 5,5.5 L19,5.5 C19.8284,5.5 20.5,4.82843 20.5,4 C20.5,3.17157 19.8284,2.5 19,2.5 L5,2.5 Z" id="形状" fill="#09244B"></path>
            </g>
        </g>
    </g>
</svg>