<?xml version="1.0" encoding="UTF-8"?>
<svg width="24px" height="24px" viewBox="0 0 24 24" version="1.1" xmlns="http://www.w3.org/2000/svg" xmlns:xlink="http://www.w3.org/1999/xlink">
    <title>align_arrow_up_fill</title>
    <g id="Icon" stroke="none" stroke-width="1" fill="none" fill-rule="evenodd">
        <g id="Arrow" transform="translate(-144.000000, -146.000000)" fill-rule="nonzero">
            <g id="align_arrow_up_fill" transform="translate(144.000000, 146.000000)">
                <path d="M24,0 L24,24 L0,24 L0,0 L24,0 Z M12.5935,23.2578 L12.5819,23.2595 L12.5109,23.295 L12.4919,23.2987 L12.4767,23.295 L12.4057,23.2595 C12.3958,23.2564 12.387,23.259 12.3821,23.2649 L12.378,23.2758 L12.3609,23.7031 L12.3659,23.7235 L12.3769,23.7357 L12.4805,23.8097 L12.4953,23.8136 L12.5071,23.8097 L12.6107,23.7357 L12.6233,23.7197 L12.6267,23.7031 L12.6096,23.2758 C12.6076,23.2657 12.601,23.2593 12.5935,23.2578 Z M12.8584,23.1453 L12.8445,23.1473 L12.6598,23.2397 L12.6499,23.2499 L12.6472,23.2611 L12.6651,23.6906 L12.6699,23.7034 L12.6784,23.7105 L12.8793,23.8032 C12.8914,23.8069 12.9022,23.803 12.9078,23.7952 L12.9118,23.7812 L12.8777,23.1665 C12.8753,23.1546 12.8674,23.147 12.8584,23.1453 Z M12.143,23.1473 C12.1332,23.1424 12.1222,23.1453 12.1156,23.1526 L12.1099,23.1665 L12.0758,23.7812 C12.0751,23.7927 12.0828,23.8019 12.0926,23.8046 L12.1083,23.8032 L12.3092,23.7105 L12.3186,23.7024 L12.3225,23.6906 L12.3404,23.2611 L12.3372,23.2485 L12.3278,23.2397 L12.143,23.1473 Z" id="MingCute"></path>
                <path d="M6.69693,9.05624 C7.28271,9.64203 8.23246,9.64203 8.81825,9.05624 L10.4999,7.37455 L10.4999,15 C10.4999,15.8285 11.1715,16.5 11.9999,16.5 C12.8284,16.5 13.4999,15.8285 13.4999,15 L13.4999,7.37395 L15.1822,9.05623 C15.768,9.64202 16.7178,9.64202 17.3035,9.05623 C17.8893,8.47045 17.8893,7.5207 17.3035,6.93491 L13.0609,2.69227 C12.4751,2.10648 11.5254,2.10648 10.9396,2.69227 L6.69693,6.93492 C6.11114,7.5207 6.11114,8.47045 6.69693,9.05624 Z M19,21.5001 C19.8284,21.5001 20.5,20.8285 20.5,20.0001 C20.5,19.1717 19.8284,18.5001 19,18.5001 L5,18.5001 C4.17157,18.5001 3.5,19.1717 3.5,20.0001 C3.5,20.8285 4.17157,21.5001 5,21.5001 L19,21.5001 Z" id="形状" fill="#09244B"></path>
            </g>
        </g>
    </g>
</svg>