<?xml version="1.0" encoding="UTF-8"?>
<svg width="24px" height="24px" viewBox="0 0 24 24" version="1.1" xmlns="http://www.w3.org/2000/svg" xmlns:xlink="http://www.w3.org/1999/xlink">
    <title>align_arrow_down_line</title>
    <g id="Icon" stroke="none" stroke-width="1" fill="none" fill-rule="evenodd">
        <g id="Arrow" transform="translate(0.000000, -98.000000)" fill-rule="nonzero">
            <g id="align_arrow_down_line" transform="translate(0.000000, 98.000000)">
                <path d="M24,0 L24,24 L0,24 L0,0 L24,0 Z M12.5935,23.2578 L12.5819,23.2595 L12.5109,23.295 L12.4919,23.2987 L12.4767,23.295 L12.4057,23.2595 C12.3958,23.2564 12.387,23.259 12.3821,23.2649 L12.378,23.2758 L12.3609,23.7031 L12.3659,23.7235 L12.3769,23.7357 L12.4805,23.8097 L12.4953,23.8136 L12.5071,23.8097 L12.6107,23.7357 L12.6233,23.7197 L12.6267,23.7031 L12.6096,23.2758 C12.6076,23.2657 12.601,23.2593 12.5935,23.2578 Z M12.8584,23.1453 L12.8445,23.1473 L12.6598,23.2397 L12.6499,23.2499 L12.6472,23.2611 L12.6651,23.6906 L12.6699,23.7034 L12.6784,23.7105 L12.8793,23.8032 C12.8914,23.8069 12.9022,23.803 12.9078,23.7952 L12.9118,23.7812 L12.8777,23.1665 C12.8753,23.1546 12.8674,23.147 12.8584,23.1453 Z M12.143,23.1473 C12.1332,23.1424 12.1222,23.1453 12.1156,23.1526 L12.1099,23.1665 L12.0758,23.7812 C12.0751,23.7927 12.0828,23.8019 12.0926,23.8046 L12.1083,23.8032 L12.3092,23.7105 L12.3186,23.7024 L12.3225,23.6906 L12.3404,23.2611 L12.3372,23.2485 L12.3278,23.2397 L12.143,23.1473 Z" id="MingCute"></path>
                <path d="M16.9495,15.2974 C16.559,14.9069 15.9258,14.9069 15.5353,15.2974 L13.0001,17.8327 L13.0001,9.00005 C13.0001,8.44776 12.5523,8.00005 12.0001,8.00005 C11.4478,8.00005 11.0001,8.44776 11.0001,9.00005 L11.0001,17.8332 L8.46423,15.2974 C8.0737,14.9069 7.44054,14.9069 7.05001,15.2974 C6.65949,15.6879 6.65949,16.3211 7.05001,16.7116 L11.2926,20.9543 C11.6832,21.3448 12.3163,21.3448 12.7069,20.9543 L16.9495,16.7116 C17.34,16.3211 17.34,15.6879 16.9495,15.2974 Z M5,3 C4.44771,3 4,3.44771 4,4 C4,4.55228 4.44771,5 5,5 L19,5 C19.5523,5 20,4.55229 20,4 C20,3.44772 19.5523,3 19,3 L5,3 Z" id="形状" fill="#09244B"></path>
            </g>
        </g>
    </g>
</svg>