<?xml version="1.0" encoding="UTF-8"?>
<svg width="24px" height="24px" viewBox="0 0 24 24" version="1.1" xmlns="http://www.w3.org/2000/svg" xmlns:xlink="http://www.w3.org/1999/xlink">
    <title>align_arrow_up_line</title>
    <g id="Icon" stroke="none" stroke-width="1" fill="none" fill-rule="evenodd">
        <g id="Arrow" transform="translate(-144.000000, -98.000000)" fill-rule="nonzero">
            <g id="align_arrow_up_line" transform="translate(144.000000, 98.000000)">
                <path d="M24,0 L24,24 L0,24 L0,0 L24,0 Z M12.5935,23.2578 L12.5819,23.2595 L12.5109,23.295 L12.4919,23.2987 L12.4767,23.295 L12.4057,23.2595 C12.3958,23.2564 12.387,23.259 12.3821,23.2649 L12.378,23.2758 L12.3609,23.7031 L12.3659,23.7235 L12.3769,23.7357 L12.4805,23.8097 L12.4953,23.8136 L12.5071,23.8097 L12.6107,23.7357 L12.6233,23.7197 L12.6267,23.7031 L12.6096,23.2758 C12.6076,23.2657 12.601,23.2593 12.5935,23.2578 Z M12.8584,23.1453 L12.8445,23.1473 L12.6598,23.2397 L12.6499,23.2499 L12.6472,23.2611 L12.6651,23.6906 L12.6699,23.7034 L12.6784,23.7105 L12.8793,23.8032 C12.8914,23.8069 12.9022,23.803 12.9078,23.7952 L12.9118,23.7812 L12.8777,23.1665 C12.8753,23.1546 12.8674,23.147 12.8584,23.1453 Z M12.143,23.1473 C12.1332,23.1424 12.1222,23.1453 12.1156,23.1526 L12.1099,23.1665 L12.0758,23.7812 C12.0751,23.7927 12.0828,23.8019 12.0926,23.8046 L12.1083,23.8032 L12.3092,23.7105 L12.3186,23.7024 L12.3225,23.6906 L12.3404,23.2611 L12.3372,23.2485 L12.3278,23.2397 L12.143,23.1473 Z" id="MingCute"></path>
                <path d="M7.05048,8.70269 C7.44101,9.09321 8.07417,9.09321 8.46469,8.70269 L10.9999,6.16744 L10.9999,15 C10.9999,15.5523 11.4477,16 11.9999,16 C12.5522,16 12.9999,15.5523 12.9999,15 L12.9999,6.16684 L15.5358,8.70268 C15.9263,9.0932 16.5595,9.0932 16.95,8.70268 C17.3405,8.31216 17.3405,7.67899 16.95,7.28847 L12.7074,3.04582 C12.3168,2.6553 11.6837,2.6553 11.2931,3.04582 L7.05048,7.28847 C6.65996,7.679 6.65996,8.31216 7.05048,8.70269 Z M19,21.0001 C19.5523,21.0001 20,20.5524 20,20.0001 C20,19.4478 19.5523,19.0001 19,19.0001 L5,19.0001 C4.44772,19.0001 4,19.4478 4,20.0001 C4,20.5524 4.44771,21.0001 5,21.0001 L19,21.0001 Z" id="形状" fill="#09244B"></path>
            </g>
        </g>
    </g>
</svg>