<?xml version="1.0" encoding="UTF-8"?>
<svg width="24px" height="24px" viewBox="0 0 24 24" version="1.1" xmlns="http://www.w3.org/2000/svg" xmlns:xlink="http://www.w3.org/1999/xlink">
    <title>arow_to_right_fill</title>
    <g id="Icon" stroke="none" stroke-width="1" fill="none" fill-rule="evenodd">
        <g id="Arrow" transform="translate(-288.000000, -146.000000)" fill-rule="nonzero">
            <g id="arow_to_right_fill" transform="translate(288.000000, 146.000000)">
                <path d="M24,0 L24,24 L0,24 L0,0 L24,0 Z M12.5935,23.2578 L12.5819,23.2595 L12.5109,23.295 L12.4919,23.2987 L12.4767,23.295 L12.4057,23.2595 C12.3958,23.2564 12.387,23.259 12.3821,23.2649 L12.378,23.2758 L12.3609,23.7031 L12.3659,23.7235 L12.3769,23.7357 L12.4805,23.8097 L12.4953,23.8136 L12.5071,23.8097 L12.6107,23.7357 L12.6233,23.7197 L12.6267,23.7031 L12.6096,23.2758 C12.6076,23.2657 12.601,23.2593 12.5935,23.2578 Z M12.8584,23.1453 L12.8445,23.1473 L12.6598,23.2397 L12.6499,23.2499 L12.6472,23.2611 L12.6651,23.6906 L12.6699,23.7034 L12.6784,23.7105 L12.8793,23.8032 C12.8914,23.8069 12.9022,23.803 12.9078,23.7952 L12.9118,23.7812 L12.8777,23.1665 C12.8753,23.1546 12.8674,23.147 12.8584,23.1453 Z M12.143,23.1473 C12.1332,23.1424 12.1222,23.1453 12.1156,23.1526 L12.1099,23.1665 L12.0758,23.7812 C12.0751,23.7927 12.0828,23.8019 12.0926,23.8046 L12.1083,23.8032 L12.3092,23.7105 L12.3186,23.7024 L12.3225,23.6906 L12.3404,23.2611 L12.3372,23.2485 L12.3278,23.2397 L12.143,23.1473 Z" id="MingCute"></path>
                <path d="M18.5,19 C18.5,19.8284 19.1716,20.5 20,20.5 C20.8284,20.5 21.5,19.8284 21.5,19 L21.5,5 C21.5,4.17157 20.8284,3.5 20,3.5 C19.1716,3.5 18.5,4.17157 18.5,5 L18.5,19 Z M10.9439,6.69693 C10.3581,7.28271 10.3581,8.23246 10.9439,8.81825 L12.6256,10.4999 L4,10.4999 C3.17157,10.4999 2.5,11.1715 2.5,11.9999 C2.5,12.8284 3.17157,13.4999 4,13.4999 L12.6262,13.4999 L10.9439,15.1822 C10.3581,15.768 10.3581,16.7178 10.9439,17.3035 C11.5297,17.8893 12.4794,17.8893 13.0652,17.3035 L17.3078,13.0609 C17.8936,12.4751 17.8936,11.5254 17.3078,10.9396 L13.0652,6.69693 C12.4794,6.11114 11.5297,6.11114 10.9439,6.69693 Z" id="形状" fill="#09244B"></path>
            </g>
        </g>
    </g>
</svg>