<?xml version="1.0" encoding="UTF-8"?>
<svg width="24px" height="24px" viewBox="0 0 24 24" version="1.1" xmlns="http://www.w3.org/2000/svg" xmlns:xlink="http://www.w3.org/1999/xlink">
    <title>arrow_left_line</title>
    <g id="页面-1" stroke="none" stroke-width="1" fill="none" fill-rule="evenodd">
        <g id="Arrow" transform="translate(-96.000000, 0.000000)" fill-rule="nonzero">
            <g id="arrow_left_line" transform="translate(96.000000, 0.000000)">
                <rect id="矩形" x="0" y="0" width="24" height="24"></rect>
                <path d="M3.63603,11.293 C3.24551,11.6835 3.24551,12.3167 3.63603,12.7072 L9.29289,18.3641 C9.68341,18.7546 10.3166,18.7546 10.7071,18.3641 C11.0976,17.9736 11.0976,17.3404 10.7071,16.9499 L6.75735,13.0001 L20,13.0001 C20.5523,13.0001 21,12.5524 21,12.0001 C21,11.4478 20.5523,11.0001 20,11.0001 L6.75735,11.0001 L10.7071,7.05037 C11.0976,6.65984 11.0976,6.02668 10.7071,5.63616 C10.3166,5.24563 9.68341,5.24563 9.29289,5.63616 L3.63603,11.293 Z" id="路径" fill="#09244B"></path>
            </g>
        </g>
    </g>
</svg>