<?xml version="1.0" encoding="UTF-8"?>
<svg width="24px" height="24px" viewBox="0 0 24 24" version="1.1" xmlns="http://www.w3.org/2000/svg" xmlns:xlink="http://www.w3.org/1999/xlink">
    <title>arow_to_left_fill</title>
    <g id="Icon" stroke="none" stroke-width="1" fill="none" fill-rule="evenodd">
        <g id="Arrow" transform="translate(-240.000000, -146.000000)" fill-rule="nonzero">
            <g id="arow_to_left_fill" transform="translate(240.000000, 146.000000)">
                <path d="M24,0 L24,24 L0,24 L0,0 L24,0 Z M12.5935,23.2578 L12.5819,23.2595 L12.5109,23.295 L12.4919,23.2987 L12.4767,23.295 L12.4057,23.2595 C12.3958,23.2564 12.387,23.259 12.3821,23.2649 L12.378,23.2758 L12.3609,23.7031 L12.3659,23.7235 L12.3769,23.7357 L12.4805,23.8097 L12.4953,23.8136 L12.5071,23.8097 L12.6107,23.7357 L12.6233,23.7197 L12.6267,23.7031 L12.6096,23.2758 C12.6076,23.2657 12.601,23.2593 12.5935,23.2578 Z M12.8584,23.1453 L12.8445,23.1473 L12.6598,23.2397 L12.6499,23.2499 L12.6472,23.2611 L12.6651,23.6906 L12.6699,23.7034 L12.6784,23.7105 L12.8793,23.8032 C12.8914,23.8069 12.9022,23.803 12.9078,23.7952 L12.9118,23.7812 L12.8777,23.1665 C12.8753,23.1546 12.8674,23.147 12.8584,23.1453 Z M12.143,23.1473 C12.1332,23.1424 12.1222,23.1453 12.1156,23.1526 L12.1099,23.1665 L12.0758,23.7812 C12.0751,23.7927 12.0828,23.8019 12.0926,23.8046 L12.1083,23.8032 L12.3092,23.7105 L12.3186,23.7024 L12.3225,23.6906 L12.3404,23.2611 L12.3372,23.2485 L12.3278,23.2397 L12.143,23.1473 Z" id="MingCute"></path>
                <path d="M5.5,6 C5.5,5.17157 4.82843,4.5 4,4.5 C3.17157,4.5 2.5,5.17157 2.5,6 L2.5,18 C2.5,18.8284 3.17157,19.5 4,19.5 C4.82843,19.5 5.5,18.8284 5.5,18 L5.5,6 Z M13.0561,17.3031 C13.6419,16.7173 13.6419,15.7676 13.0561,15.1818 L11.3744,13.5 L20,13.5 C20.8284,13.5 21.5,12.8284 21.5,12 C21.5,11.1716 20.8284,10.5 20,10.5 L11.3739,10.5 L13.0561,8.81779 C13.6419,8.23201 13.6419,7.28226 13.0561,6.69647 C12.4703,6.11069 11.5206,6.11069 10.9348,6.69647 L6.69217,10.9391 C6.10639,11.5249 6.10639,12.4746 6.69217,13.0604 L10.9348,17.3031 C11.5206,17.8889 12.4704,17.8889 13.0561,17.3031 Z" id="形状" fill="#09244B"></path>
            </g>
        </g>
    </g>
</svg>