<?xml version="1.0" encoding="UTF-8"?>
<svg width="24px" height="24px" viewBox="0 0 24 24" version="1.1" xmlns="http://www.w3.org/2000/svg" xmlns:xlink="http://www.w3.org/1999/xlink">
    <title>arrow_right_line</title>
    <g id="页面-1" stroke="none" stroke-width="1" fill="none" fill-rule="evenodd">
        <g id="Arrow" transform="translate(-144.000000, 0.000000)" fill-rule="nonzero">
            <g id="arrow_right_line" transform="translate(144.000000, 0.000000)">
                <rect id="矩形" x="0" y="0" width="24" height="24"></rect>
                <path d="M14.7071,5.63616 L20.3639,11.293 C20.7545,11.6835 20.7545,12.3167 20.3639,12.7072 L14.7071,18.3641 C14.3166,18.7546 13.6834,18.7546 13.2929,18.3641 C12.9023,17.9736 12.9023,17.3404 13.2929,16.9499 L17.2426,13.0001 L4,13.0001 C3.44772,13.0001 3,12.5524 3,12.0001 C3,11.4478 3.44772,11.0001 4,11.0001 L17.2426,11.0001 L13.2929,7.05037 C12.9023,6.65984 12.9023,6.02668 13.2929,5.63616 C13.6834,5.24563 14.3166,5.24563 14.7071,5.63616 Z" id="路径" fill="#09244B"></path>
            </g>
        </g>
    </g>
</svg>