<svg width="24" height="24" viewBox="0 0 24 24" fill="none" xmlns="http://www.w3.org/2000/svg">
<rect width="24" height="24" fill="white" fill-opacity="0.01"/>
<path d="M10.5 16.0354L7.4038 12.9392C6.81801 12.3534 5.86827 12.3534 5.28248 12.9392C4.69669 13.525 4.69669 14.4748 5.28248 15.0605L10.9393 20.7174C11.5251 21.3032 12.4749 21.3032 13.0607 20.7174L18.7175 15.0605C19.3033 14.4748 19.3033 13.525 18.7175 12.9392C18.1317 12.3534 17.182 12.3534 16.5962 12.9392L13.5 16.0354L13.5 4.5C13.5 3.67157 12.8284 3 12 3C11.1716 3 10.5 3.67157 10.5 4.5L10.5 16.0354Z" fill="#09244B"/>
</svg>
