<?xml version="1.0" encoding="UTF-8"?>
<svg width="24px" height="24px" viewBox="0 0 24 24" version="1.1" xmlns="http://www.w3.org/2000/svg" xmlns:xlink="http://www.w3.org/1999/xlink">
    <title>arrow_left_down_line</title>
    <g id="页面-1" stroke="none" stroke-width="1" fill="none" fill-rule="evenodd">
        <g id="Arrow" transform="translate(-48.000000, 0.000000)" fill-rule="nonzero">
            <g id="arrow_left_down_line" transform="translate(48.000000, 0.000000)">
                <rect id="矩形" x="0" y="0" width="24" height="24"></rect>
                <path d="M8.41431,17.0001 L18.364,7.05037 C18.7545,6.65984 18.7545,6.02668 18.364,5.63615 C17.9735,5.24563 17.3403,5.24563 16.9498,5.63615 L7,15.5859 L7,10.0001 C7,9.44778 6.55228,9.00006 6,9.00006 C5.44772,9.00006 5,9.44778 5,10.0001 L5,18.0001 C5,18.5523 5.44772,19.0001 6,19.0001 L14,19.0001 C14.5523,19.0001 15,18.5523 15,18.0001 C15,17.4478 14.5523,17.0001 14,17.0001 L8.41431,17.0001 Z" id="路径" fill="#09244B"></path>
            </g>
        </g>
    </g>
</svg>