<?xml version="1.0" encoding="UTF-8"?>
<svg width="24px" height="24px" viewBox="0 0 24 24" version="1.1" xmlns="http://www.w3.org/2000/svg" xmlns:xlink="http://www.w3.org/1999/xlink">
    <title>arrow_down_fill</title>
    <g id="页面-1" stroke="none" stroke-width="1" fill="none" fill-rule="evenodd">
        <g id="Arrow" transform="translate(-2.000000, -48.000000)" fill-rule="nonzero">
            <g id="arrow_down_fill" transform="translate(2.000000, 48.000000)">
                <rect id="矩形" x="0" y="0" width="24" height="24"></rect>
                <path d="M10.5,16.0354 L7.4038,12.9392 C6.81801,12.3534 5.86827,12.3534 5.28248,12.9392 C4.69669,13.525 4.69669,14.4748 5.28248,15.0605 L10.9393,20.7174 C11.5251,21.3032 12.4749,21.3032 13.0607,20.7174 L18.7175,15.0605 C19.3033,14.4748 19.3033,13.525 18.7175,12.9392 C18.1317,12.3534 17.182,12.3534 16.5962,12.9392 L13.5,16.0354 L13.5,4.5 C13.5,3.67157 12.8284,3 12,3 C11.1716,3 10.5,3.67157 10.5,4.5 L10.5,16.0354 Z" id="路径" fill="#09244B"></path>
            </g>
        </g>
    </g>
</svg>