<?xml version="1.0" encoding="UTF-8"?>
<svg width="24px" height="24px" viewBox="0 0 24 24" version="1.1" xmlns="http://www.w3.org/2000/svg" xmlns:xlink="http://www.w3.org/1999/xlink">
    <title>arrows_right_fill</title>
    <g id="Icon" stroke="none" stroke-width="1" fill="none" fill-rule="evenodd">
        <g id="Arrow" transform="translate(-720.000000, -242.000000)">
            <g id="arrows_right_fill" transform="translate(720.000000, 242.000000)">
                <path d="M24,0 L24,24 L0,24 L0,0 L24,0 Z M12.5935,23.2578 L12.5819,23.2595 L12.5109,23.295 L12.4919,23.2987 L12.4767,23.295 L12.4057,23.2595 C12.3958,23.2564 12.387,23.259 12.3821,23.2649 L12.378,23.2758 L12.3609,23.7031 L12.3659,23.7235 L12.3769,23.7357 L12.4805,23.8097 L12.4953,23.8136 L12.5071,23.8097 L12.6107,23.7357 L12.6233,23.7197 L12.6267,23.7031 L12.6096,23.2758 C12.6076,23.2657 12.601,23.2593 12.5935,23.2578 Z M12.8584,23.1453 L12.8445,23.1473 L12.6598,23.2397 L12.6499,23.2499 L12.6472,23.2611 L12.6651,23.6906 L12.6699,23.7034 L12.6784,23.7105 L12.8793,23.8032 C12.8914,23.8069 12.9022,23.803 12.9078,23.7952 L12.9118,23.7812 L12.8777,23.1665 C12.8753,23.1546 12.8674,23.147 12.8584,23.1453 Z M12.143,23.1473 C12.1332,23.1424 12.1222,23.1453 12.1156,23.1526 L12.1099,23.1665 L12.0758,23.7812 C12.0751,23.7927 12.0828,23.8019 12.0926,23.8046 L12.1083,23.8032 L12.3092,23.7105 L12.3186,23.7024 L12.3225,23.6906 L12.3404,23.2611 L12.3372,23.2485 L12.3278,23.2397 L12.143,23.1473 Z" id="MingCute" fill-rule="nonzero"></path>
                <path d="M5.93934,5.93934 C6.52513,5.35355 7.47487,5.35355 8.06066,5.93934 L13.0607,10.9393 C13.342,11.2206 13.4999975,11.6022 13.4999975,11.9999975 C13.4999975,12.3978 13.342,12.7794 13.0607,13.0607 L8.06066,18.0607 C7.47487,18.6464 6.52513,18.6464 5.93934,18.0607 C5.35355,17.4749 5.35355,16.5251 5.93934,15.9393 L9.87868,11.9999975 L5.93934,8.06066 C5.35355,7.47487 5.35355,6.52513 5.93934,5.93934 Z M11.9393,5.93934 C12.5251,5.35355 13.4749,5.35355 14.0607,5.93934 L19.0607,10.9393 C19.342,11.2206 19.5,11.6022 19.5,11.9999975 C19.5,12.3978 19.342,12.7794 19.0607,13.0607 L14.0607,18.0607 C13.4749,18.6464 12.5251,18.6464 11.9393,18.0607 C11.3536,17.4749 11.3536,16.5251 11.9393,15.9393 L15.8787,11.9999975 L11.9393,8.06066 C11.3536,7.47487 11.3536,6.52513 11.9393,5.93934 Z" id="形状" fill="#09244B"></path>
            </g>
        </g>
    </g>
</svg>