<svg width="24" height="24" viewBox="0 0 24 24" fill="none" xmlns="http://www.w3.org/2000/svg">
<rect width="24" height="24" fill="white" fill-opacity="0.01"/>
<path d="M13.0607 3.2826C12.4749 2.69682 11.5251 2.69682 10.9393 3.2826L5.28248 8.93946C4.69669 9.52524 4.69669 10.475 5.28248 11.0608C5.86827 11.6466 6.81801 11.6466 7.4038 11.0608L10.5 7.96458L10.5 19.5C10.5 20.3284 11.1716 21 12 21C12.8284 21 13.5 20.3284 13.5 19.5L13.5 7.96458L16.5962 11.0608C17.182 11.6466 18.1317 11.6466 18.7175 11.0608C19.3033 10.475 19.3033 9.52524 18.7175 8.93946L13.0607 3.2826Z" fill="#09244B"/>
</svg>
