<?xml version="1.0" encoding="UTF-8"?>
<svg width="24px" height="24px" viewBox="0 0 24 24" version="1.1" xmlns="http://www.w3.org/2000/svg" xmlns:xlink="http://www.w3.org/1999/xlink">
    <title>arrow_up_fill</title>
    <g id="页面-1" stroke="none" stroke-width="1" fill="none" fill-rule="evenodd">
        <g id="Arrow" transform="translate(-194.000000, -48.000000)" fill-rule="nonzero">
            <g id="arrow_up_fill" transform="translate(194.000000, 48.000000)">
                <rect id="矩形" x="0" y="0" width="24" height="24"></rect>
                <path d="M13.0607,3.2826 C12.4749,2.69682 11.5251,2.69682 10.9393,3.2826 L5.28248,8.93946 C4.69669,9.52524 4.69669,10.475 5.28248,11.0608 C5.86827,11.6466 6.81801,11.6466 7.4038,11.0608 L10.5,7.96458 L10.5,19.5 C10.5,20.3284 11.1716,21 12,21 C12.8284,21 13.5,20.3284 13.5,19.5 L13.5,7.96458 L16.5962,11.0608 C17.182,11.6466 18.1317,11.6466 18.7175,11.0608 C19.3033,10.475 19.3033,9.52524 18.7175,8.93946 L13.0607,3.2826 Z" id="路径" fill="#09244B"></path>
            </g>
        </g>
    </g>
</svg>