<?xml version="1.0" encoding="UTF-8"?>
<svg width="24px" height="24px" viewBox="0 0 24 24" version="1.1" xmlns="http://www.w3.org/2000/svg" xmlns:xlink="http://www.w3.org/1999/xlink">
    <title>back_line</title>
    <g id="页面-1" stroke="none" stroke-width="1" fill="none" fill-rule="evenodd">
        <g id="Arrow" transform="translate(-240.000000, 0.000000)">
            <g id="back_line" transform="translate(240.000000, 0.000000)">
                <rect id="矩形" fill-rule="nonzero" x="0" y="0" width="24" height="24"></rect>
                <path d="M3.07615,5.61732 C3.23093,5.24364 3.59557,5 4.00003,5 L13.9999996,5 C17.866,5 20.9999996,8.13401 20.9999996,12 C20.9999996,15.866 17.866,19 13.9999996,19 L5.00003,19 C4.44774,19 4.00003,18.5523 4.00003,18 C4.00003,17.4477 4.44774,17 5.00003,17 L13.9999996,17 C16.7615,17 18.9999996,14.7614 18.9999996,12 C18.9999996,9.23858 16.7615,7 13.9999996,7 L6.41424,7 L8.20714,8.79289 C8.59766,9.18342 8.59766,9.81658 8.20714,10.2071 C7.81661,10.5976 7.18345,10.5976 6.79292,10.2071 L3.29292,6.70711 C3.00692,6.42111 2.92137,5.99099 3.07615,5.61732 Z" id="路径" fill="#09244B"></path>
            </g>
        </g>
    </g>
</svg>