<?xml version="1.0" encoding="UTF-8"?>
<svg width="24px" height="24px" viewBox="0 0 24 24" version="1.1" xmlns="http://www.w3.org/2000/svg" xmlns:xlink="http://www.w3.org/1999/xlink">
    <title>back_2_fill</title>
    <g id="页面-1" stroke="none" stroke-width="1" fill="none" fill-rule="evenodd">
        <g id="Arrow" transform="translate(-480.000000, -50.000000)" fill-rule="nonzero">
            <g id="back_2_fill" transform="translate(480.000000, 50.000000)">
                <rect id="矩形" x="0" y="0" width="24" height="24"></rect>
                <path d="M7.16075,10.9724 C8.44534,9.45943 10.3615,8.5 12.5,8.5 C16.366,8.5 19.5,11.634 19.5,15.5 C19.5,16.3284 20.1715,17 21,17 C21.8284,17 22.5,16.3284 22.5,15.5 C22.5,9.97715 18.0228,5.5 12.5,5.5 C9.55608,5.5 6.91086,6.77161 5.08155,8.79452 L4.73527,6.83068 C4.59142,6.01484 3.81343,5.47009 2.99759,5.61394 C2.18175,5.7578 1.637,6.53578 1.78085,7.35163 L2.82274,13.2605 C2.89182,13.6523 3.11371,14.0005 3.43959,14.2287 C3.84283,14.5111 4.37354,14.5736 4.82528,14.4305 L10.4693,13.4353 C11.2851,13.2915 11.8299,12.5135 11.686,11.6976 C11.5422,10.8818 10.7642,10.337 9.94833,10.4809 L7.16075,10.9724 Z" id="路径" fill="#09244B"></path>
            </g>
        </g>
    </g>
</svg>