<svg width="24" height="24" viewBox="0 0 24 24" fill="none" xmlns="http://www.w3.org/2000/svg">
<rect width="24" height="24" fill="white" fill-opacity="0.01"/>
<path fill-rule="evenodd" clip-rule="evenodd" d="M2.61422 5.42597C2.8464 4.86546 3.39335 4.5 4.00004 4.5H14C18.1422 4.5 21.5 7.85786 21.5 12C21.5 16.1421 18.1422 19.5 14 19.5H5.00004C4.17162 19.5 3.50004 18.8284 3.50004 18C3.50004 17.1716 4.17162 16.5 5.00004 16.5H14C16.4853 16.5 18.5 14.4853 18.5 12C18.5 9.51472 16.4853 7.5 14 7.5H7.62136L8.5607 8.43934C9.14649 9.02513 9.14649 9.97487 8.5607 10.5607C7.97492 11.1464 7.02517 11.1464 6.43938 10.5607L2.93938 7.06066C2.51039 6.63166 2.38205 5.98649 2.61422 5.42597Z" fill="#09244B"/>
</svg>
