<?xml version="1.0" encoding="UTF-8"?>
<svg width="24px" height="24px" viewBox="0 0 24 24" version="1.1" xmlns="http://www.w3.org/2000/svg" xmlns:xlink="http://www.w3.org/1999/xlink">
    <title>back_fill</title>
    <g id="页面-1" stroke="none" stroke-width="1" fill="none" fill-rule="evenodd">
        <g id="Arrow" transform="translate(-242.000000, -48.000000)">
            <g id="back_fill" transform="translate(242.000000, 48.000000)">
                <rect id="矩形" fill-rule="nonzero" x="0" y="0" width="24" height="24"></rect>
                <path d="M2.61422,5.42597 C2.8464,4.86546 3.39335,4.5 4.00004,4.5 L13.9999979,4.5 C18.1422,4.5 21.4999979,7.85786 21.4999979,12 C21.4999979,16.1421 18.1422,19.5 13.9999979,19.5 L5.00004,19.5 C4.17162,19.5 3.50004,18.8284 3.50004,18 C3.50004,17.1716 4.17162,16.5 5.00004,16.5 L13.9999979,16.5 C16.4853,16.5 18.4999979,14.4853 18.4999979,12 C18.4999979,9.51472 16.4853,7.5 13.9999979,7.5 L7.62136,7.5 L8.5607,8.43934 C9.14649,9.02513 9.14649,9.97487 8.5607,10.5607 C7.97492,11.1464 7.02517,11.1464 6.43938,10.5607 L2.93938,7.06066 C2.51039,6.63166 2.38205,5.98649 2.61422,5.42597 Z" id="路径" fill="#09244B"></path>
            </g>
        </g>
    </g>
</svg>