<?xml version="1.0" encoding="UTF-8"?>
<svg width="24px" height="24px" viewBox="0 0 24 24" version="1.1" xmlns="http://www.w3.org/2000/svg" xmlns:xlink="http://www.w3.org/1999/xlink">
    <title>back_2_line</title>
    <g id="页面-1" stroke="none" stroke-width="1" fill="none" fill-rule="evenodd">
        <g id="Arrow" transform="translate(-480.000000, 0.000000)" fill-rule="nonzero">
            <g id="back_2_line" transform="translate(480.000000, 0.000000)">
                <rect id="矩形" x="0" y="0" width="24" height="24"></rect>
                <path d="M6.04599,11.6767 C7.35323,9.47493 9.75524,8 12.5,8 C16.6421,8 20,11.3579 20,15.5 C20,16.0523 20.4477,16.5 21,16.5 C21.5523,16.5 22,16.0523 22,15.5 C22,10.2533 17.7467,6 12.5,6 C9.31864,6 6.50386,7.56337 4.78,9.96279 L4.24303,6.91751 C4.14713,6.37361 3.62847,6.01044 3.08458,6.10635 C2.54068,6.20225 2.17751,6.72091 2.27342,7.2648 L3.31531,13.1736 C3.36136,13.4348 3.50928,13.667 3.72654,13.8192 C4.0104,14.0179 4.38776,14.0542 4.70227,13.9445 L10.3826,12.9429 C10.9265,12.847 11.2897,12.3284 11.1938,11.7845 C11.0979,11.2406 10.5792,10.8774 10.0353,10.9733 L6.04599,11.6767 Z" id="路径" fill="#09244B"></path>
            </g>
        </g>
    </g>
</svg>