<?xml version="1.0" encoding="UTF-8"?>
<svg width="24px" height="24px" viewBox="0 0 24 24" version="1.1" xmlns="http://www.w3.org/2000/svg" xmlns:xlink="http://www.w3.org/1999/xlink">
    <title>direction_arrow_fill</title>
    <g id="Icon" stroke="none" stroke-width="1" fill="none" fill-rule="evenodd">
        <g id="Arrow" transform="translate(-912.000000, -242.000000)">
            <g id="direction_arrow_fill" transform="translate(912.000000, 242.000000)">
                <path d="M24,0 L24,24 L0,24 L0,0 L24,0 Z M12.5935,23.2578 L12.5819,23.2595 L12.5109,23.295 L12.4919,23.2987 L12.4767,23.295 L12.4057,23.2595 C12.3958,23.2564 12.387,23.259 12.3821,23.2649 L12.378,23.2758 L12.3609,23.7031 L12.3659,23.7235 L12.3769,23.7357 L12.4805,23.8097 L12.4953,23.8136 L12.5071,23.8097 L12.6107,23.7357 L12.6233,23.7197 L12.6267,23.7031 L12.6096,23.2758 C12.6076,23.2657 12.601,23.2593 12.5935,23.2578 Z M12.8584,23.1453 L12.8445,23.1473 L12.6598,23.2397 L12.6499,23.2499 L12.6472,23.2611 L12.6651,23.6906 L12.6699,23.7034 L12.6784,23.7105 L12.8793,23.8032 C12.8914,23.8069 12.9022,23.803 12.9078,23.7952 L12.9118,23.7812 L12.8777,23.1665 C12.8753,23.1546 12.8674,23.147 12.8584,23.1453 Z M12.143,23.1473 C12.1332,23.1424 12.1222,23.1453 12.1156,23.1526 L12.1099,23.1665 L12.0758,23.7812 C12.0751,23.7927 12.0828,23.8019 12.0926,23.8046 L12.1083,23.8032 L12.3092,23.7105 L12.3186,23.7024 L12.3225,23.6906 L12.3404,23.2611 L12.3372,23.2485 L12.3278,23.2397 L12.143,23.1473 Z" id="MingCute" fill-rule="nonzero"></path>
                <path d="M12,2 C17.5228,2 22,6.47715 22,12 C22,17.5228 17.5228,22 12,22 C6.47715,22 2,17.5228 2,12 C2,6.47715 6.47715,2 12,2 Z M10.2929,16.2929 C9.90237,16.6834 9.90237,17.3166 10.2929,17.7071 L11.2929,18.7071 C11.6834,19.0976 12.3166,19.0976 12.7071,18.7071 L13.7071,17.7071 C14.0976,17.3166 14.0976,16.6834 13.7071,16.2929 C13.3166,15.9024 12.6834,15.9024 12.2929,16.2929 L12.0000025,16.5858 L11.7071,16.2929 C11.3166,15.9024 10.6834,15.9024 10.2929,16.2929 Z M7.70711,10.2929 C7.34662077,9.93241077 6.77939355,9.90468083 6.38709848,10.2097102 L6.29289,10.2929 L5.29289,11.2929 C4.93241,11.6533615 4.90468077,12.2206207 5.20970231,12.6128973 L5.29289,12.7071 L6.29289,13.7071 C6.68342,14.0976 7.31658,14.0976 7.70711,13.7071 C8.06759,13.3466385 8.09531923,12.7793793 7.79029769,12.3871027 L7.70711,12.2929 L7.41421,12.0000025 L7.70711,11.7071 C8.09763,11.3166 8.09763,10.6834 7.70711,10.2929 Z M17.7071,10.2929 C17.3166,9.90237 16.6834,9.90237 16.2929,10.2929 C15.9324385,10.6533615 15.9047107,11.2206207 16.2097166,11.6128973 L16.2929,11.7071 L16.5858,12.0000025 L16.2929,12.2929 C15.9024,12.6834 15.9024,13.3166 16.2929,13.7071 C16.6533615,14.0675615 17.2206207,14.0952893 17.6128973,13.7902834 L17.7071,13.7071 L18.7071,12.7071 C19.0675615,12.3466385 19.0952893,11.7793793 18.7902834,11.3871027 L18.7071,11.2929 L17.7071,10.2929 Z M12.7071,5.29289 C12.3466385,4.93241 11.7793793,4.90468077 11.3871027,5.20970231 L11.2929,5.29289 L10.2929,6.29289 C9.90237,6.68342 9.90237,7.31658 10.2929,7.70711 C10.6533615,8.06759 11.2206207,8.09531923 11.6128973,7.79029769 L11.7071,7.70711 L12.0000025,7.41421 L12.2929,7.70711 C12.6834,8.09763 13.3166,8.09763 13.7071,7.70711 C14.0675615,7.34662077 14.0952893,6.77939355 13.7902834,6.38709848 L13.7071,6.29289 L12.7071,5.29289 Z" id="形状" fill="#09244B"></path>
            </g>
        </g>
    </g>
</svg>