<?xml version="1.0" encoding="UTF-8"?>
<svg width="24px" height="24px" viewBox="0 0 24 24" version="1.1" xmlns="http://www.w3.org/2000/svg" xmlns:xlink="http://www.w3.org/1999/xlink">
    <title>forward_2_fill</title>
    <g id="页面-1" stroke="none" stroke-width="1" fill="none" fill-rule="evenodd">
        <g id="Arrow" transform="translate(-528.000000, -50.000000)" fill-rule="nonzero">
            <g id="forward_2_fill" transform="translate(528.000000, 50.000000)">
                <rect id="矩形" x="0" y="0" width="24" height="24"></rect>
                <path d="M16.8392,10.9724 C15.5546,9.45943 13.6384,8.5 11.5,8.5 C7.63401,8.5 4.5,11.634 4.5,15.5 C4.5,16.3284 3.82843,17 3,17 C2.17157,17 1.5,16.3284 1.5,15.5 C1.5,9.97715 5.97715,5.5 11.5,5.5 C14.4439,5.5 17.0891,6.77161 18.9184,8.79452 L19.2647,6.83068 C19.4085,6.01484 20.1865,5.47009 21.0024,5.61394 C21.8182,5.7578 22.363,6.53578 22.2191,7.35163 L21.1772,13.2605 C21.1081,13.6523 20.8863,14.0005 20.5604,14.2287 C20.1571,14.5111 19.6264,14.5736 19.1747,14.4305 L13.5307,13.4353 C12.7149,13.2915 12.1701,12.5135 12.314,11.6976 C12.4578,10.8818 13.2358,10.337 14.0516,10.4809 L16.8392,10.9724 Z" id="路径" fill="#09244B"></path>
            </g>
        </g>
    </g>
</svg>