<?xml version="1.0" encoding="UTF-8"?>
<svg width="24px" height="24px" viewBox="0 0 24 24" version="1.1" xmlns="http://www.w3.org/2000/svg" xmlns:xlink="http://www.w3.org/1999/xlink">
    <title>forward_2_line</title>
    <g id="页面-1" stroke="none" stroke-width="1" fill="none" fill-rule="evenodd">
        <g id="Arrow" transform="translate(-528.000000, 0.000000)" fill-rule="nonzero">
            <g id="forward_2_line" transform="translate(528.000000, 0.000000)">
                <rect id="矩形" x="0" y="0" width="24" height="24"></rect>
                <path d="M17.954,11.6767 C16.6468,9.47493 14.2448,8 11.5,8 C7.35786,8 4,11.3579 4,15.5 C4,16.0523 3.55228,16.5 3,16.5 C2.44772,16.5 2,16.0523 2,15.5 C2,10.2533 6.25329,6 11.5,6 C14.6814,6 17.4961,7.56337 19.22,9.96279 L19.757,6.91751 C19.8529,6.37361 20.3715,6.01044 20.9154,6.10635 C21.4593,6.20225 21.8225,6.72091 21.7266,7.2648 L20.6847,13.1736 C20.6386,13.4348 20.4907,13.667 20.2735,13.8192 C19.9896,14.0179 19.6122,14.0542 19.2977,13.9445 L13.6174,12.9429 C13.0735,12.847 12.7103,12.3284 12.8062,11.7845 C12.9021,11.2406 13.4208,10.8774 13.9647,10.9733 L17.954,11.6767 Z" id="路径" fill="#09244B"></path>
            </g>
        </g>
    </g>
</svg>