<?xml version="1.0" encoding="UTF-8"?>
<svg width="24px" height="24px" viewBox="0 0 24 24" version="1.1" xmlns="http://www.w3.org/2000/svg" xmlns:xlink="http://www.w3.org/1999/xlink">
    <title>forward_fill</title>
    <g id="页面-1" stroke="none" stroke-width="1" fill="none" fill-rule="evenodd">
        <g id="Arrow" transform="translate(-576.000000, -50.000000)">
            <g id="forward_fill" transform="translate(576.000000, 50.000000)">
                <rect id="矩形" fill-rule="nonzero" x="0" y="0" width="24" height="24"></rect>
                <path d="M21.3858,5.42597 C21.1536,4.86546 20.6066,4.5 20,4.5 L9.99996,4.5 C5.85782,4.5 2.49996,7.85786 2.49996,12 C2.49996,16.1421 5.85782,19.5 9.99996,19.5 L19,19.5 C19.8284,19.5 20.5,18.8284 20.5,18 C20.5,17.1716 19.8284,16.5 19,16.5 L9.99996,16.5 C7.51467,16.5 5.49996,14.4853 5.49996,12 C5.49996,9.51472 7.51468,7.5 9.99996,7.5 L16.3786,7.5 L15.4393,8.43934 C14.8535,9.02513 14.8535,9.97487 15.4393,10.5607 C16.0251,11.1464 16.9748,11.1464 17.5606,10.5607 L21.0606,7.06066 C21.4896,6.63166 21.6179,5.98649 21.3858,5.42597 Z" id="路径" fill="#09244B"></path>
            </g>
        </g>
    </g>
</svg>