<?xml version="1.0" encoding="UTF-8"?>
<svg width="24px" height="24px" viewBox="0 0 24 24" version="1.1" xmlns="http://www.w3.org/2000/svg" xmlns:xlink="http://www.w3.org/1999/xlink">
    <title>fullscreen_2_line</title>
    <g id="页面-1" stroke="none" stroke-width="1" fill="none" fill-rule="evenodd">
        <g id="Arrow" transform="translate(-624.000000, 0.000000)" fill-rule="nonzero">
            <g id="fullscreen_2_line" transform="translate(624.000000, 0.000000)">
                <rect id="矩形" x="0" y="0" width="24" height="24"></rect>
                <path d="M9.79289,12.7929 C10.1834,12.4024 10.8166,12.4024 11.2071,12.7929 C11.5675615,13.1533615 11.5952893,13.7206207 11.2902834,14.1128973 L11.2071,14.2071 L6.41421,19 L9,19 C9.55229,19 10,19.4477 10,20 C10,20.51285 9.61396434,20.9355092 9.1166221,20.9932725 L9,21 L4,21 C3.48716857,21 3.06449347,20.613973 3.0067278,20.1166239 L3,20 L3,15 C3,14.4477 3.44772,14 4,14 C4.51283143,14 4.93550653,14.386027 4.9932722,14.8833761 L5,15 L5,17.5858 L9.79289,12.7929 Z M20,3 C20.51285,3 20.9355092,3.38604429 20.9932725,3.88337975 L21,4 L21,9 C21,9.55228 20.5523,10 20,10 C19.48715,10 19.0644908,9.61395571 19.0067275,9.11662025 L19,9 L19,6.41421 L14.2071,11.2071 C13.8166,11.5976 13.1834,11.5976 12.7929,11.2071 C12.4324385,10.8466385 12.4047107,10.2793793 12.7097166,9.88709487 L12.7929,9.79289 L17.5858,5 L15,5 C14.4477,5 14,4.55229 14,4 C14,3.48716857 14.386027,3.06449347 14.8833761,3.0067278 L15,3 L20,3 Z" id="形状" fill="#09244B"></path>
            </g>
        </g>
    </g>
</svg>