<?xml version="1.0" encoding="UTF-8"?>
<svg width="24px" height="24px" viewBox="0 0 24 24" version="1.1" xmlns="http://www.w3.org/2000/svg" xmlns:xlink="http://www.w3.org/1999/xlink">
    <title>fullscreen_exit_2_fill</title>
    <g id="页面-1" stroke="none" stroke-width="1" fill="none" fill-rule="evenodd">
        <g id="Arrow" transform="translate(-672.000000, -50.000000)" fill-rule="nonzero">
            <g id="fullscreen_exit_2_fill" transform="translate(672.000000, 50.000000)">
                 <path d="M24,0 L24,24 L0,24 L0,0 L24,0 Z M12.5934901,23.257841 L12.5819402,23.2595131 L12.5108777,23.2950439 L12.4918791,23.2987469 L12.4918791,23.2987469 L12.4767152,23.2950439 L12.4056548,23.2595131 C12.3958229,23.2563662 12.3870493,23.2590235 12.3821421,23.2649074 L12.3780323,23.275831 L12.360941,23.7031097 L12.3658947,23.7234994 L12.3769048,23.7357139 L12.4804777,23.8096931 L12.4953491,23.8136134 L12.4953491,23.8136134 L12.5071152,23.8096931 L12.6106902,23.7357139 L12.6232938,23.7196733 L12.6232938,23.7196733 L12.6266527,23.7031097 L12.609561,23.275831 C12.6075724,23.2657013 12.6010112,23.2592993 12.5934901,23.257841 L12.5934901,23.257841 Z M12.8583906,23.1452862 L12.8445485,23.1473072 L12.6598443,23.2396597 L12.6498822,23.2499052 L12.6498822,23.2499052 L12.6471943,23.2611114 L12.6650943,23.6906389 L12.6699349,23.7034178 L12.6699349,23.7034178 L12.678386,23.7104931 L12.8793402,23.8032389 C12.8914285,23.8068999 12.9022333,23.8029875 12.9078286,23.7952264 L12.9118235,23.7811639 L12.8776777,23.1665331 C12.8752882,23.1545897 12.8674102,23.1470016 12.8583906,23.1452862 L12.8583906,23.1452862 Z M12.1430473,23.1473072 C12.1332178,23.1423925 12.1221763,23.1452606 12.1156365,23.1525954 L12.1099173,23.1665331 L12.0757714,23.7811639 C12.0751323,23.7926639 12.0828099,23.8018602 12.0926481,23.8045676 L12.108256,23.8032389 L12.3092106,23.7104931 L12.3186497,23.7024347 L12.3186497,23.7024347 L12.3225043,23.6906389 L12.340401,23.2611114 L12.337245,23.2485176 L12.337245,23.2485176 L12.3277531,23.2396597 L12.1430473,23.1473072 Z" id="MingCute" fill-rule="nonzero"></path>
                <path d="M10.4999975,12 C11.2796704,12 11.9204435,12.5949121 11.9931307,13.3555442 L11.9999975,13.5 L11.9999975,18.5 C11.9999975,19.3284 11.3284,20 10.4999975,20 C9.72030103,20 9.07954878,19.4050879 9.00686407,18.6444558 L8.9999975,18.5 L8.9999975,17.1213 L5.06066,21.0607 C4.47487,21.6464 3.52513,21.6464 2.93934,21.0607 C2.39016188,20.5115125 2.35583824,19.6424031 2.8363691,19.0532254 L2.93934,18.9393 L6.87868,15 L5.4999975,15 C4.67157,15 3.9999975,14.3284 3.9999975,13.5 C3.9999975,12.7203294 4.59488525,12.0795543 5.35553743,12.0068668 L5.4999975,12 L10.4999975,12 Z M18.9393,2.93934 C19.5251,2.35355 20.4749,2.35355 21.0607,2.93934 C21.6097938,3.48851813 21.6441121,4.35757418 21.1636551,4.94673705 L21.0607,5.06066 L17.1213,8.9999975 L18.5,8.9999975 C19.3284,8.9999975 20,9.67157 20,10.4999975 C20,11.2796704 19.4050879,11.9204435 18.6444558,11.9931307 L18.5,11.9999975 L13.5,11.9999975 C12.7203294,11.9999975 12.0795543,11.4050876 12.0068668,10.6444537 L12,10.4999975 L12,5.4999975 C12,4.67157 12.6716,3.9999975 13.5,3.9999975 C14.2796706,3.9999975 14.9204457,4.59488525 14.9931332,5.35553743 L15,5.4999975 L15,6.87868 L18.9393,2.93934 Z" id="形状" fill="#09244B"></path>
            </g>
        </g>
    </g>
</svg>