<svg xmlns="http://www.w3.org/2000/svg" width="24" height="24"><g fill="none" fill-rule="nonzero"><path d="M24 0v24H0V0h24ZM12.593 23.258l-.011.002-.071.035-.02.004-.014-.004-.071-.035c-.01-.004-.019-.001-.024.005l-.004.01-.017.428.005.02.01.013.104.074.015.004.012-.004.104-.074.012-.016.004-.017-.017-.427c-.002-.01-.009-.017-.017-.018Zm.265-.113-.013.002-.185.093-.01.01-.003.011.018.43.005.012.008.007.201.093c.012.004.023 0 .029-.008l.004-.014-.034-.614c-.003-.012-.01-.02-.02-.022Zm-.715.002a.023.023 0 0 0-.027.006l-.006.014-.034.614c0 .012.007.02.017.024l.015-.002.201-.093.01-.008.004-.011.017-.43-.003-.012-.01-.01-.184-.092Z"/><path fill="#09244B" d="M8.94 12.94a1.5 1.5 0 0 1 2.224 2.007l-.103.114L7.12 19H8.5a1.5 1.5 0 0 1 .144 2.993L8.5 22h-5a1.5 1.5 0 0 1-1.493-1.356L2 20.5v-5a1.5 1.5 0 0 1 2.993-.144L5 15.5v1.379l3.94-3.94ZM20.5 2a1.5 1.5 0 0 1 1.493 1.356L22 3.5v5a1.5 1.5 0 0 1-2.993.144L19 8.5V7.121l-3.94 3.94a1.5 1.5 0 0 1-2.224-2.008l.103-.114L16.88 5H15.5a1.5 1.5 0 0 1-.144-2.993L15.5 2h5Z"/></g></svg>