<?xml version="1.0" encoding="UTF-8"?>
<svg width="24px" height="24px" viewBox="0 0 24 24" version="1.1" xmlns="http://www.w3.org/2000/svg" xmlns:xlink="http://www.w3.org/1999/xlink">
    <title>fullscreen_exit_2_fill</title>
    <g id="页面-1" stroke="none" stroke-width="1" fill="none" fill-rule="evenodd">
        <g id="Arrow" transform="translate(-672.000000, -50.000000)" fill-rule="nonzero">
            <g id="fullscreen_exit_2_fill" transform="translate(672.000000, 50.000000)">
                <rect id="矩形" x="0" y="0" width="24" height="24"></rect>
                <path d="M10.4999975,12 C11.2796704,12 11.9204435,12.5949121 11.9931307,13.3555442 L11.9999975,13.5 L11.9999975,18.5 C11.9999975,19.3284 11.3284,20 10.4999975,20 C9.72030103,20 9.07954878,19.4050879 9.00686407,18.6444558 L8.9999975,18.5 L8.9999975,17.1213 L5.06066,21.0607 C4.47487,21.6464 3.52513,21.6464 2.93934,21.0607 C2.39016188,20.5115125 2.35583824,19.6424031 2.8363691,19.0532254 L2.93934,18.9393 L6.87868,15 L5.4999975,15 C4.67157,15 3.9999975,14.3284 3.9999975,13.5 C3.9999975,12.7203294 4.59488525,12.0795543 5.35553743,12.0068668 L5.4999975,12 L10.4999975,12 Z M18.9393,2.93934 C19.5251,2.35355 20.4749,2.35355 21.0607,2.93934 C21.6097938,3.48851813 21.6441121,4.35757418 21.1636551,4.94673705 L21.0607,5.06066 L17.1213,8.9999975 L18.5,8.9999975 C19.3284,8.9999975 20,9.67157 20,10.4999975 C20,11.2796704 19.4050879,11.9204435 18.6444558,11.9931307 L18.5,11.9999975 L13.5,11.9999975 C12.7203294,11.9999975 12.0795543,11.4050876 12.0068668,10.6444537 L12,10.4999975 L12,5.4999975 C12,4.67157 12.6716,3.9999975 13.5,3.9999975 C14.2796706,3.9999975 14.9204457,4.59488525 14.9931332,5.35553743 L15,5.4999975 L15,6.87868 L18.9393,2.93934 Z" id="形状" fill="#09244B"></path>
            </g>
        </g>
    </g>
</svg>