<?xml version="1.0" encoding="UTF-8"?>
<svg width="24px" height="24px" viewBox="0 0 24 24" version="1.1" xmlns="http://www.w3.org/2000/svg" xmlns:xlink="http://www.w3.org/1999/xlink">
    <title>large_arrow_right_line</title>
    <g id="Icon" stroke="none" stroke-width="1" fill="none" fill-rule="evenodd">
        <g id="Arrow" transform="translate(-96.000000, -194.000000)">
            <g id="large_arrow_right_line" transform="translate(96.000000, 194.000000)">
                <path d="M24,0 L24,24 L0,24 L0,0 L24,0 Z M12.5935,23.2578 L12.5819,23.2595 L12.5109,23.295 L12.4919,23.2987 L12.4767,23.295 L12.4057,23.2595 C12.3958,23.2564 12.387,23.259 12.3821,23.2649 L12.378,23.2758 L12.3609,23.7031 L12.3659,23.7235 L12.3769,23.7357 L12.4805,23.8097 L12.4953,23.8136 L12.5071,23.8097 L12.6107,23.7357 L12.6233,23.7197 L12.6267,23.7031 L12.6096,23.2758 C12.6076,23.2657 12.601,23.2593 12.5935,23.2578 Z M12.8584,23.1453 L12.8445,23.1473 L12.6598,23.2397 L12.6499,23.2499 L12.6472,23.2611 L12.6651,23.6906 L12.6699,23.7034 L12.6784,23.7105 L12.8793,23.8032 C12.8914,23.8069 12.9022,23.803 12.9078,23.7952 L12.9118,23.7812 L12.8777,23.1665 C12.8753,23.1546 12.8674,23.147 12.8584,23.1453 Z M12.143,23.1473 C12.1332,23.1424 12.1222,23.1453 12.1156,23.1526 L12.1099,23.1665 L12.0758,23.7812 C12.0751,23.7927 12.0828,23.8019 12.0926,23.8046 L12.1083,23.8032 L12.3092,23.7105 L12.3186,23.7024 L12.3225,23.6906 L12.3404,23.2611 L12.3372,23.2485 L12.3278,23.2397 L12.143,23.1473 Z" id="MingCute" fill-rule="nonzero"></path>
                <path d="M14,17.5859 L19.5867,11.9998 L14,6.41392 L14,8.99998 C14,9.54465 13.5447,9.99998 13,9.99998 L4,9.99998 L4,13.9999 L13,13.9999 C13.5523,13.9999 14,14.4476 14,14.9999 L14,17.5859 Z M14.902,19.5123 C13.831,20.5832 12,19.8246 12,18.3102 L12,15.9999 L4,15.9999 C2.89544,15.9999 2,15.1045 2,13.9999 L2,9.99998 C2,8.89541 2.89543,7.99998 4,7.99998 L12,7.99998 L12,5.68974 C12,4.17526 13.831,3.41675 14.902,4.48756 L21.3545,10.939 C21.9404,11.5248 21.9404,12.4747 21.3545,13.0605 L14.902,19.5123 Z" id="形状" fill="#09244B"></path>
            </g>
        </g>
    </g>
</svg>