<?xml version="1.0" encoding="UTF-8"?>
<svg width="24px" height="24px" viewBox="0 0 24 24" version="1.1" xmlns="http://www.w3.org/2000/svg" xmlns:xlink="http://www.w3.org/1999/xlink">
    <title>move_fill</title>
    <g id="页面-1" stroke="none" stroke-width="1" fill="none" fill-rule="evenodd">
        <g id="Arrow" transform="translate(-720.000000, -50.000000)" fill-rule="nonzero">
            <g id="move_fill" transform="translate(720.000000, 50.000000)">
                <rect id="矩形" x="0" y="0" width="24" height="24"></rect>
                <path d="M8.11081,7.06056 C7.52502,6.47477 7.52502,5.52502 8.11081,4.93924 L10.8685,2.18152 C11.4934,1.55668 12.5064,1.55668 13.1313,2.18152 L15.889,4.93924 C16.4748,5.52502 16.4748,6.47477 15.889,7.06056 C15.3032,7.64634 14.3534,7.64634 13.7677,7.06056 L13.4999,6.79279 L13.4999,10.4999 L17.2069,10.4999 L16.9392,10.2322 C16.3535,9.6464 16.3535,8.69665 16.9392,8.11087 C17.525,7.52508 18.4748,7.52508 19.0606,8.11087 L21.8183,10.8686 C22.4431,11.4934 22.4431,12.5065 21.8183,13.1313 L19.0606,15.889 C18.4748,16.4748 17.525,16.4748 16.9392,15.889 C16.3534,15.3033 16.3534,14.3535 16.9392,13.7677 L17.2071,13.4999 L13.4999,13.4999 L13.4999,17.207 L13.7677,16.9392 C14.3534,16.3534 15.3032,16.3535 15.889,16.9392 C16.4748,17.525 16.4748,18.4748 15.889,19.0606 L13.1313,21.8183 C12.5064,22.4431 11.4934,22.4431 10.8685,21.8183 L8.11081,19.0606 C7.52502,18.4748 7.52502,17.525 8.11081,16.9392 C8.69659,16.3535 9.64634,16.3535 10.2321,16.9392 L10.4999,17.207 L10.4999,13.4999 L6.79273,13.4999 L7.06056,13.7677 C7.64634,14.3535 7.64634,15.3033 7.06056,15.889 C6.47477,16.4748 5.52502,16.4748 4.93924,15.889 L2.18152,13.1313 C1.55668,12.5065 1.55668,11.4934 2.18152,10.8686 L4.93924,8.11087 C5.52502,7.52508 6.47477,7.52508 7.06056,8.11087 C7.64634,8.69665 7.64634,9.6464 7.06056,10.2322 L6.79285,10.4999 L10.4999,10.4999 L10.4999,6.79279 L10.2321,7.06056 C9.64634,7.64634 8.69659,7.64634 8.11081,7.06056 Z" id="路径" fill="#09244B"></path>
            </g>
        </g>
    </g>
</svg>