<?xml version="1.0" encoding="UTF-8"?>
<svg width="24px" height="24px" viewBox="0 0 24 24" version="1.1" xmlns="http://www.w3.org/2000/svg" xmlns:xlink="http://www.w3.org/1999/xlink">
    <title>move_line</title>
    <g id="页面-1" stroke="none" stroke-width="1" fill="none" fill-rule="evenodd">
        <g id="Arrow" transform="translate(-720.000000, 0.000000)" fill-rule="nonzero">
            <g id="move_line" transform="translate(720.000000, 0.000000)">
                <rect id="矩形" x="0" y="0" width="24" height="24"></rect>
                <path d="M8.46436,6.707 C8.07384,6.31648 8.07384,5.68331 8.46436,5.29279 L11.2221,2.53507 C11.6517,2.1055 12.3481,2.1055 12.7777,2.53507 L15.5354,5.29279 C15.926,5.68331 15.926,6.31648 15.5354,6.707 C15.1449,7.09753 14.5117,7.09753 14.1212,6.707 L12.9999,5.58569 L12.9999,10.9999 L18.4141,10.9999 L17.2928,9.87863 C16.9023,9.48811 16.9023,8.85494 17.2928,8.46442 C17.6833,8.0739 18.3165,8.0739 18.707,8.46442 L21.4647,11.2221 C21.8943,11.6517 21.8943,12.3482 21.4647,12.7778 L18.707,15.5355 C18.3165,15.926 17.6833,15.926 17.2928,15.5355 C16.9023,15.145 16.9023,14.5118 17.2928,14.1213 L18.4142,12.9999 L12.9999,12.9999 L12.9999,18.4141 L14.1212,17.2928 C14.5117,16.9023 15.1449,16.9023 15.5354,17.2928 C15.926,17.6833 15.926,18.3165 15.5354,18.707 L12.7777,21.4647 C12.3481,21.8943 11.6517,21.8943 11.2221,21.4647 L8.46436,18.707 C8.07384,18.3165 8.07384,17.6833 8.46436,17.2928 C8.85488,16.9023 9.48805,16.9023 9.87857,17.2928 L10.9999,18.4141 L10.9999,12.9999 L5.58562,12.9999 L6.707,14.1213 C7.09753,14.5118 7.09753,15.145 6.707,15.5355 C6.31648,15.926 5.68331,15.926 5.29279,15.5355 L2.53507,12.7778 C2.1055,12.3482 2.1055,11.6517 2.53507,11.2221 L5.29279,8.46442 C5.68331,8.0739 6.31648,8.0739 6.707,8.46442 C7.09753,8.85495 7.09753,9.48811 6.707,9.87863 L5.58574,10.9999 L10.9999,10.9999 L10.9999,5.58568 L9.87857,6.707 C9.48805,7.09753 8.85488,7.09753 8.46436,6.707 Z" id="路径" fill="#09244B"></path>
            </g>
        </g>
    </g>
</svg>