<?xml version="1.0" encoding="UTF-8"?>
<svg width="24px" height="24px" viewBox="0 0 24 24" version="1.1" xmlns="http://www.w3.org/2000/svg" xmlns:xlink="http://www.w3.org/1999/xlink">
    <title>selector_vertical_fill</title>
    <g id="Icon" stroke="none" stroke-width="1" fill="none" fill-rule="evenodd">
        <g id="Arrow" transform="translate(-336.000000, -242.000000)">
            <g id="selector_vertical_fill" transform="translate(336.000000, 242.000000)">
                <path d="M24,0 L24,24 L0,24 L0,0 L24,0 Z M12.5935,23.2578 L12.5819,23.2595 L12.5109,23.295 L12.4919,23.2987 L12.4767,23.295 L12.4057,23.2595 C12.3958,23.2564 12.387,23.259 12.3821,23.2649 L12.378,23.2758 L12.3609,23.7031 L12.3659,23.7235 L12.3769,23.7357 L12.4805,23.8097 L12.4953,23.8136 L12.5071,23.8097 L12.6107,23.7357 L12.6233,23.7197 L12.6267,23.7031 L12.6096,23.2758 C12.6076,23.2657 12.601,23.2593 12.5935,23.2578 Z M12.8584,23.1453 L12.8445,23.1473 L12.6598,23.2397 L12.6499,23.2499 L12.6472,23.2611 L12.6651,23.6906 L12.6699,23.7034 L12.6784,23.7105 L12.8793,23.8032 C12.8914,23.8069 12.9022,23.803 12.9078,23.7952 L12.9118,23.7812 L12.8777,23.1665 C12.8753,23.1546 12.8674,23.147 12.8584,23.1453 Z M12.143,23.1473 C12.1332,23.1424 12.1222,23.1453 12.1156,23.1526 L12.1099,23.1665 L12.0758,23.7812 C12.0751,23.7927 12.0828,23.8019 12.0926,23.8046 L12.1083,23.8032 L12.3092,23.7105 L12.3186,23.7024 L12.3225,23.6906 L12.3404,23.2611 L12.3372,23.2485 L12.3278,23.2397 L12.143,23.1473 Z" id="MingCute" fill-rule="nonzero"></path>
                <path d="M11.2929,7.29289 C11.6834,6.90237 12.3166,6.90237 12.7071,7.29289 L14.7071,9.2929 C14.9931,9.5789 15.0787,10.009 14.9239,10.3827 C14.7691,10.7564 14.4045,11 13.9999996,11 L9.9999996,11 C9.59557,11 9.23093,10.7564 9.07615,10.3827 C8.92137,10.009 9.00692,9.5789 9.29292,9.2929 L11.2929,7.29289 Z M9.07615,13.6173 C9.23093,13.2436 9.59557,13 9.9999996,13 L13.9999996,13 C14.4045,13 14.7691,13.2436 14.9239,13.6173 C15.0787,13.991 14.9931,14.4211 14.7071,14.7071 L12.7071,16.7071 C12.3166,17.0976 11.6834,17.0976 11.2929,16.7071 L9.29292,14.7071 C9.00692,14.4211 8.92137,13.991 9.07615,13.6173 Z" id="形状" fill="#09244B"></path>
            </g>
        </g>
    </g>
</svg>