<?xml version="1.0" encoding="UTF-8"?>
<svg width="24px" height="24px" viewBox="0 0 24 24" version="1.1" xmlns="http://www.w3.org/2000/svg" xmlns:xlink="http://www.w3.org/1999/xlink">
    <title>square_arrow_right_line</title>
    <g id="Icon" stroke="none" stroke-width="1" fill="none" fill-rule="evenodd">
        <g id="Arrow" transform="translate(-480.000000, -194.000000)" fill-rule="nonzero">
            <g id="square_arrow_right_line" transform="translate(480.000000, 194.000000)">
                <path d="M24,0 L24,24 L0,24 L0,0 L24,0 Z M12.5935,23.2578 L12.5819,23.2595 L12.5109,23.295 L12.4919,23.2987 L12.4767,23.295 L12.4057,23.2595 C12.3958,23.2564 12.387,23.259 12.3821,23.2649 L12.378,23.2758 L12.3609,23.7031 L12.3659,23.7235 L12.3769,23.7357 L12.4805,23.8097 L12.4953,23.8136 L12.5071,23.8097 L12.6107,23.7357 L12.6233,23.7197 L12.6267,23.7031 L12.6096,23.2758 C12.6076,23.2657 12.601,23.2593 12.5935,23.2578 Z M12.8584,23.1453 L12.8445,23.1473 L12.6598,23.2397 L12.6499,23.2499 L12.6472,23.2611 L12.6651,23.6906 L12.6699,23.7034 L12.6784,23.7105 L12.8793,23.8032 C12.8914,23.8069 12.9022,23.803 12.9078,23.7952 L12.9118,23.7812 L12.8777,23.1665 C12.8753,23.1546 12.8674,23.147 12.8584,23.1453 Z M12.143,23.1473 C12.1332,23.1424 12.1222,23.1453 12.1156,23.1526 L12.1099,23.1665 L12.0758,23.7812 C12.0751,23.7927 12.0828,23.8019 12.0926,23.8046 L12.1083,23.8032 L12.3092,23.7105 L12.3186,23.7024 L12.3225,23.6906 L12.3404,23.2611 L12.3372,23.2485 L12.3278,23.2397 L12.143,23.1473 Z" id="MingCute"></path>
                <path d="M18,3 C19.597725,3 20.903664,4.24892392 20.9949075,5.82372764 L21,6 L21,18 C21,19.597725 19.7511226,20.903664 18.1762773,20.9949075 L18,21 L6,21 C4.40232321,21 3.09633941,19.7511226 3.00509271,18.1762773 L3,18 L3,6 C3,4.40232321 4.24892392,3.09633941 5.82372764,3.00509271 L6,3 L18,3 Z M18,5 L6,5 C5.48716857,5 5.06449347,5.38604429 5.0067278,5.88337975 L5,6 L5,18 C5,18.51285 5.38604429,18.9355092 5.88337975,18.9932725 L6,19 L18,19 C18.51285,19 18.9355092,18.613973 18.9932725,18.1166239 L19,18 L19,6 C19,5.48716857 18.613973,5.06449347 18.1166239,5.0067278 L18,5 Z M11.707,8.46447 L14.5355,11.2929 C14.926,11.6834 14.926,12.3166 14.5355,12.7071 L11.707,15.5355 C11.3165,15.9261 10.6834,15.9261 10.2928,15.5355 C9.90231,15.145 9.90231,14.5118 10.2928,14.1213 L12.4142,12 L10.2928,9.87868 C9.90231,9.48816 9.90231,8.85499 10.2928,8.46447 C10.6834,8.07394 11.3165,8.07394 11.707,8.46447 Z" id="形状" fill="#09244B"></path>
            </g>
        </g>
    </g>
</svg>