<svg xmlns="http://www.w3.org/2000/svg" width="24" height="24"><g fill="none" fill-rule="nonzero"><path d="M24 0v24H0V0h24ZM12.594 23.258l-.012.002-.071.035-.02.004-.014-.004-.071-.036c-.01-.003-.019 0-.024.006l-.004.01-.017.428.005.02.01.013.104.074.015.004.012-.004.104-.074.012-.016.004-.017-.017-.427c-.002-.01-.009-.017-.016-.018Zm.264-.113-.014.002-.184.093-.01.01-.003.011.018.43.005.012.008.008.201.092c.012.004.023 0 .029-.008l.004-.014-.034-.614c-.003-.012-.01-.02-.02-.022Zm-.715.002a.023.023 0 0 0-.027.006l-.006.014-.034.614c0 .012.007.02.017.024l.015-.002.201-.093.01-.008.003-.011.018-.43-.003-.012-.01-.01-.184-.092Z"/><path fill="#09244B" d="M11.996 13v3a1 1 0 0 0 1 1h2v1.793c0 1.336 1.616 2.006 2.56 1.06l2.853-2.85h.002l1.94-1.94c.293-.293.44-.678.439-1.062 0-.384-.146-.768-.44-1.062L20.41 11h-.001l-2.852-2.851c-.945-.945-2.56-.276-2.56 1.06v1.793H14V11h-2V8.003a1 1 0 0 0-1-1H9V5.209c0-1.336-1.616-2.005-2.56-1.06L3.586 7h-.002l-1.94 1.94c-.293.292-.439.677-.439 1.06 0 .385.146.77.44 1.063l1.94 1.94h.001l2.852 2.85C7.384 16.8 9 16.13 9 14.794V13h2.996Z"/></g></svg>