<?xml version="1.0" encoding="UTF-8"?>
<svg width="24px" height="24px" viewBox="0 0 24 24" version="1.1" xmlns="http://www.w3.org/2000/svg" xmlns:xlink="http://www.w3.org/1999/xlink">
    <title>transfer_line</title>
    <g id="页面-1" stroke="none" stroke-width="1" fill="none" fill-rule="evenodd">
        <g id="Arrow" transform="translate(-912.000000, 0.000000)" fill-rule="nonzero">
            <g id="transfer_line" transform="translate(912.000000, 0.000000)">
                <rect id="矩形" x="0" y="0" width="24" height="24"></rect>
                <path d="M20,14 C20.5523,14 21,14.4477 21,15 C21,15.51285 20.613973,15.9355092 20.1166239,15.9932725 L20,16 L6.41421,16 L8.70711,18.2929 C9.09763,18.6834 9.09763,19.3166 8.70711,19.7071 C8.34662077,20.0675615 7.77939355,20.0952893 7.38709848,19.7902834 L7.29289,19.7071 L3.4636,15.8778 C2.7983584,15.212616 3.2240608,14.0940048 4.12621381,14.0055802 L4.24142,14 L20,14 Z M15.2929,4.29289 C15.6533615,3.93241 16.2206207,3.90468077 16.6128973,4.20970231 L16.7071,4.29289 L20.5364,8.12218 C21.20168,8.7874312 20.7759699,9.90599901 19.8738074,9.99442003 L19.7586,10 L4,10 C3.44772,10 3,9.55228 3,9 C3,8.48716857 3.38604429,8.06449347 3.88337975,8.0067278 L4,8 L17.5858,8 L15.2929,5.70711 C14.9024,5.31658 14.9024,4.68342 15.2929,4.29289 Z" id="形状" fill="#09244B"></path>
            </g>
        </g>
    </g>
</svg>