<?xml version="1.0" encoding="UTF-8"?>
<svg width="24px" height="24px" viewBox="0 0 24 24" version="1.1" xmlns="http://www.w3.org/2000/svg" xmlns:xlink="http://www.w3.org/1999/xlink">
    <title>transfer_3_line</title>
    <g id="页面-1" stroke="none" stroke-width="1" fill="none" fill-rule="evenodd">
        <g id="Arrow" transform="translate(-816.000000, 0.000000)" fill-rule="nonzero">
            <g id="transfer_3_line" transform="translate(816.000000, 0.000000)">
                <rect id="矩形" x="0" y="0" width="24" height="24"></rect>
                <path d="M8.20724,11.7572 C8.59776,12.1478 8.59776,12.7809 8.20724,13.1715 L6.37881,14.9999 L16.0001,14.9999 C16.5524,14.9999 17.0001,15.4476 17.0001,15.9999 C17.0001,16.5522 16.5524,16.9999 16.0001,16.9999 L6.37881,16.9999 L8.20724,18.8283 C8.59776,19.2188 8.59776,19.852 8.20724,20.2425 C7.81672,20.6331 7.18355,20.6331 6.79303,20.2425 L3.25749,16.707 C2.86697,16.3165 2.86697,15.6833 3.25749,15.2928 L6.79303,11.7572 C7.18355,11.3667 7.81672,11.3667 8.20724,11.7572 Z M15.7929,3.75725 C16.1534538,3.39676077 16.7206349,3.36903083 17.1128989,3.67406018 L17.2071,3.75725 L20.7427,7.29278 C21.1031615,7.65326923 21.1308893,8.22049645 20.8258834,8.61279152 L20.7427,8.707 L17.2071,12.2425 C16.8166,12.6331 16.1835,12.6331 15.7929,12.2425 C15.4324385,11.8820385 15.4047107,11.3147793 15.7097166,10.9225027 L15.7929,10.8283 L17.6214,8.99989 L8,8.99989 C7.44772,8.99989 7,8.55217 7,7.99989 C7,7.48704929 7.38604429,7.06438214 7.88337975,7.00661766 L8,6.99989 L17.6214,6.99989 L15.7929,5.17146 C15.4024,4.78094 15.4024,4.14777 15.7929,3.75725 Z" id="形状" fill="#09244B"></path>
            </g>
        </g>
    </g>
</svg>