<?xml version="1.0" encoding="UTF-8"?>
<svg width="24px" height="24px" viewBox="0 0 24 24" version="1.1" xmlns="http://www.w3.org/2000/svg" xmlns:xlink="http://www.w3.org/1999/xlink">
    <title>transfer_fill</title>
    <g id="页面-1" stroke="none" stroke-width="1" fill="none" fill-rule="evenodd">
        <g id="Arrow" transform="translate(-912.000000, -50.000000)" fill-rule="nonzero">
            <g id="transfer_fill" transform="translate(912.000000, 50.000000)">
                <rect id="矩形" x="0" y="0" width="24" height="24"></rect>
                <path d="M20,14 C20.8284,14 21.5,14.6716 21.5,15.5 C21.5,16.2796706 20.9050879,16.9204457 20.1444558,16.9931332 L20,17 L7.62132,17 L9.06066,18.4393 C9.64645,19.0251 9.64645,19.9749 9.06066,20.5607 C8.51148188,21.1097938 7.64242582,21.1441121 7.05326295,20.6636551 L6.93934,20.5607 L3.11005,16.7314 C2.13569833,15.757 2.77030114,14.1140984 4.10128528,14.0056543 L4.24142,14 L20,14 Z M14.9393,3.4393425 C15.4884875,2.89016438 16.3575969,2.85584074 16.9467746,3.3363716 L17.0607,3.4393425 L20.8899,7.2686325 C21.8643,8.24298417 21.2296801,9.88590046 19.8987309,9.9943456 L19.7586,10 L4,10 C3.17157,10 2.5,9.3284325 2.5,8.5 C2.5,7.72030353 3.09488554,7.07955128 3.85553954,7.00686657 L4,7 L16.3787,7 L14.9393,5.5606625 C14.3536,4.9748725 14.3536,4.0251325 14.9393,3.4393425 Z" id="形状" fill="#09244B"></path>
            </g>
        </g>
    </g>
</svg>