<?xml version="1.0" encoding="UTF-8"?>
<svg width="24px" height="24px" viewBox="0 0 24 24" version="1.1" xmlns="http://www.w3.org/2000/svg" xmlns:xlink="http://www.w3.org/1999/xlink">
    <title>transfer_horizontal_line</title>
    <g id="Icon" stroke="none" stroke-width="1" fill="none" fill-rule="evenodd">
        <g id="Arrow" transform="translate(0.000000, -290.000000)">
            <g id="transfer_horizontal_line" transform="translate(0.000000, 290.000000)">
                <path d="M24,0 L24,24 L0,24 L0,0 L24,0 Z M12.5935,23.2578 L12.5819,23.2595 L12.5109,23.295 L12.4919,23.2987 L12.4767,23.295 L12.4057,23.2595 C12.3958,23.2564 12.387,23.259 12.3821,23.2649 L12.378,23.2758 L12.3609,23.7031 L12.3659,23.7235 L12.3769,23.7357 L12.4805,23.8097 L12.4953,23.8136 L12.5071,23.8097 L12.6107,23.7357 L12.6233,23.7197 L12.6267,23.7031 L12.6096,23.2758 C12.6076,23.2657 12.601,23.2593 12.5935,23.2578 Z M12.8584,23.1453 L12.8445,23.1473 L12.6598,23.2397 L12.6499,23.2499 L12.6472,23.2611 L12.6651,23.6906 L12.6699,23.7034 L12.6784,23.7105 L12.8793,23.8032 C12.8914,23.8069 12.9022,23.803 12.9078,23.7952 L12.9118,23.7812 L12.8777,23.1665 C12.8753,23.1546 12.8674,23.147 12.8584,23.1453 Z M12.143,23.1473 C12.1332,23.1424 12.1222,23.1453 12.1156,23.1526 L12.1099,23.1665 L12.0758,23.7812 C12.0751,23.7927 12.0828,23.8019 12.0926,23.8046 L12.1083,23.8032 L12.3092,23.7105 L12.3186,23.7024 L12.3225,23.6906 L12.3404,23.2611 L12.3372,23.2485 L12.3278,23.2397 L12.143,23.1473 Z" id="MingCute" fill-rule="nonzero"></path>
                <path d="M11.5,9.00001 C12.0523,9.00001 12.5,8.5523 12.5,8.00001 C12.5,7.44773 12.0523,7.00001 11.5,7.00001 L8.99994,7.00001 L8.99994,5.20693 C8.99994,3.87062 7.38433,3.20134 6.43936,4.14619 L1.64547,8.93942 C1.05957,9.52524 1.05959,10.4751 1.64551,11.0609 L6.4394,15.8538 C7.38439,16.7986 8.99994,16.1293 8.99994,14.793 L8.99994,12.9999 L11.9999,12.9999 C12.0087,12.9999 12.0174,12.9998 12.0261,12.9996 L15.9996,12.9996 C16.2648,12.9996 16.5192,12.8942 16.7067,12.7067 C16.8943,12.5192 16.9996,12.2648 16.9996,11.9996 L16.9996,10.4134 L20.5863,13.9994 L16.9996,17.5856 L16.9996,15.9995 C16.9996,15.4472 16.5519,14.9995 15.9996,14.9995 L12.5001,14.9995 C11.9478,14.9995 11.5001,15.4472 11.5001,15.9995 C11.5001,16.5518 11.9478,16.9995 12.5001,16.9995 L14.9996,16.9995 L14.9996,18.7926 C14.9996,20.1289 16.6152,20.7982 17.5602,19.8533 L22.3541,15.0601 C22.94,14.4743 22.94,13.5244 22.354,12.9386 L17.5602,8.14575 C16.6152,7.20096 14.9996,7.87024 14.9996,9.20652 L14.9996,10.9996 L11.9996,10.9996 C11.9909,10.9996 11.9821,10.9997 11.9734,10.9999 L7.99994,10.9999 C7.73473,10.9999 7.48037,11.1053 7.29284,11.2928 C7.1053,11.4804 6.99994,11.7347 6.99994,11.9999 L6.99994,13.5861 L3.41322,10.0001 L6.99994,6.41392 L6.99994,8.00001 C6.99994,8.5523 7.44766,9.00001 7.99994,9.00001 L11.5,9.00001 Z" id="路径" fill="#09244B"></path>
            </g>
        </g>
    </g>
</svg>