<?xml version="1.0" encoding="UTF-8"?>
<svg width="24px" height="24px" viewBox="0 0 24 24" version="1.1" xmlns="http://www.w3.org/2000/svg" xmlns:xlink="http://www.w3.org/1999/xlink">
    <title>transfer_3_fill</title>
    <g id="页面-1" stroke="none" stroke-width="1" fill="none" fill-rule="evenodd">
        <g id="Arrow" transform="translate(-816.000000, -50.000000)" fill-rule="nonzero">
            <g id="transfer_3_fill" transform="translate(816.000000, 50.000000)">
                <rect id="矩形" x="0" y="0" width="24" height="24"></rect>
                <path d="M8.56079,11.89935 C9.14658,12.48515 9.14658,13.43485 8.56079,14.02065 L7.58592,14.99555 L16.0001,14.99555 C16.8285,14.99555 17.5001,15.66715 17.5001,16.49555 C17.5001,17.32395 16.8285,17.99555 16.0001,17.99555 L7.58592,17.99555 L8.56079,18.97045 C9.14658,19.55625 9.14658,20.50595 8.56079,21.09175 C7.97501,21.67755 7.02526,21.67755 6.43947,21.09175 L2.90394,17.55615 C2.31815,16.97045 2.31815,16.02065 2.90394,15.43485 L6.43947,11.89935 C7.02526,11.31355 7.97501,11.31355 8.56079,11.89935 Z M15.4394,2.8993425 C15.9885875,2.35016437 16.857609,2.31584074 17.4467757,2.7963716 L17.5607,2.8993425 L21.0962,6.4348725 C21.6453875,6.98405062 21.6797117,7.85310668 21.1991727,8.44226955 L21.0962,8.5561925 L17.5607,12.0917425 C16.9749,12.6775425 16.0252,12.6775425 15.4394,12.0917425 C14.8902125,11.542555 14.8558883,10.6734456 15.3364273,10.0843503 L15.4394,9.9704425 L16.4142,8.9955325 L8,8.9955325 C7.17157,8.9955325 6.5,8.3239625 6.5,7.4955325 C6.5,6.71583368 7.09488554,6.0750835 7.85553954,6.00239905 L8,5.9955325 L16.4142,5.9955325 L15.4394,5.0206625 C14.8536,4.4348725 14.8536,3.4851225 15.4394,2.8993425 Z" id="形状" fill="#09244B"></path>
            </g>
        </g>
    </g>
</svg>