<?xml version="1.0" encoding="UTF-8"?>
<svg width="24px" height="24px" viewBox="0 0 24 24" version="1.1" xmlns="http://www.w3.org/2000/svg" xmlns:xlink="http://www.w3.org/1999/xlink">
    <title>bank_line</title>
    <g id="页面-1" stroke="none" stroke-width="1" fill="none" fill-rule="evenodd">
        <g id="Building" transform="translate(-192.000000, 0.000000)" fill-rule="nonzero">
            <g id="bank_line" transform="translate(192.000000, 0.000000)">
                <rect id="矩形" x="0" y="0" width="24" height="24"></rect>
                <path d="M12.6708,2.21744 L21.1708,6.96744 C21.679,7.22153 22,7.74092 22,8.30908 L22,9.75006 C22,10.4404 21.4404,11.0001 20.75,11.0001 L20,11.0001 L20,19 L21,19 C21.5523,19 22,19.4477 22,20 C22,20.5523 21.5523,21 21,21 L3,21 C2.44772,21 2,20.5523 2,20 C2,19.4477 2.44772,19 3,19 L4,19 L4,11.0001 L3.25,11.0001 C2.55964,11.0001 2,10.4404 2,9.75006 L2,8.30908 C2,7.78826667 2.26973757,7.30843368 2.70611413,7.03636428 L11.3292,2.21744 C11.7515,2.0063 12.2485,2.0063 12.6708,2.21744 Z M18,11.0001 L6,11.0001 L6,19 L9,19 L9,13 L11,13 L11,19 L13,19 L13,13 L15,13 L15,19 L18,19 L18,11.0001 Z M12,4.1181 L4,8.6181 L4,9.00006 L20,9.00006 L20,8.6181 L12,4.1181 Z M12,6 C12.5523,6 13,6.44772 13,7 C13,7.55228 12.5523,8 12,8 C11.4477,8 11,7.55228 11,7 C11,6.44772 11.4477,6 12,6 Z" id="形状" fill="#09244B"></path>
            </g>
        </g>
    </g>
</svg>