<?xml version="1.0" encoding="UTF-8"?>
<svg width="24px" height="24px" viewBox="0 0 24 24" version="1.1" xmlns="http://www.w3.org/2000/svg" xmlns:xlink="http://www.w3.org/1999/xlink">
    <title>bank_fill</title>
    <g id="页面-1" stroke="none" stroke-width="1" fill="none" fill-rule="evenodd">
        <g id="Building" transform="translate(-192.000000, -48.000000)">
            <g id="bank_fill" transform="translate(192.000000, 48.000000)">
                <rect id="矩形" fill-rule="nonzero" x="0" y="0" width="24" height="24"></rect>
                <path d="M12.6708,2.21744 L21.1708,6.96744 C21.679,7.22153 22,7.74092 22,8.30908 L22,9.75006 C22,10.4404 21.4404,11.0001 20.75,11.0001 L20,11.0001 L20,19.0001 L21,19.0001 C21.5523,19.0001 22,19.4478 22,20.0001 C22,20.5524 21.5523,21.0001 21,21.0001 L3,21.0001 C2.44772,21.0001 2,20.5524 2,20.0001 C2,19.4478 2.44772,19.0001 3,19.0001 L4,19.0001 L4,11.0001 L3.25,11.0001 C2.55964,11.0001 2,10.4404 2,9.75006 L2,8.30908 C2,7.78826667 2.26973757,7.30843368 2.70611413,7.03636428 L11.3292,2.21744 C11.7515,2.0063 12.2485,2.0063 12.6708,2.21744 Z M17,11.0001 L7,11.0001 L7,19.0001 L9,19.0001 L9,13.0001 L11,13.0001 L11,19.0001 L13,19.0001 L13,13.0001 L15,13.0001 L15,19.0001 L17,19.0001 L17,11.0001 Z M12,6.00012 C11.4477,6.00012 11,6.44784 11,7.00012 C11,7.55241 11.4477,8.00012 12,8.00012 C12.5523,8.00012 13,7.55241 13,7.00012 C13,6.44784 12.5523,6.00012 12,6.00012 Z" id="形状" fill="#09244B"></path>
            </g>
        </g>
    </g>
</svg>