<?xml version="1.0" encoding="UTF-8"?>
<svg width="24px" height="24px" viewBox="0 0 24 24" version="1.1" xmlns="http://www.w3.org/2000/svg" xmlns:xlink="http://www.w3.org/1999/xlink">
    <title>bridge_fill</title>
    <g id="页面-1" stroke="none" stroke-width="1" fill="none" fill-rule="evenodd">
        <g id="Building" transform="translate(-480.000000, -48.000000)">
            <g id="bridge_fill" transform="translate(480.000000, 48.000000)">
                <rect id="矩形" fill-rule="nonzero" x="0" y="0" width="24" height="24"></rect>
                <path d="M18,4 C18.5523,4 19,4.44772 19,5 L19,6.56454 L19.1159547,6.66604125 L19.1159547,6.66604125 L19.3929766,6.89748375 C19.4437188,6.938505 19.4966,6.9805125 19.5514,7.02315 C20.0843,7.43757 20.7277,7.85513 21.3162,8.05132 C21.8402,8.22596 22.1233,8.79228 21.9487,9.31623 C21.774,9.84017 21.2077,10.1233 20.6838,9.94868 C20.0777,9.74667 19.4959,9.42147 19,9.09081 L19,14 L22,14 C22.5523,14 23,14.4477 23,15 C23,15.5523 22.5523,16 22,16 L19,16 L19,19 C19,19.5523 18.5523,20 18,20 C17.4477,20 17,19.5523 17,19 L17,16 L7,16 L7,19 C7,19.5523 6.55228,20 6,20 C5.44772,20 5,19.5523 5,19 L5,16 L2,16 C1.44772,16 1,15.5523 1,15 C1,14.4477 1.44772,14 2,14 L5,14 L5,9.09081 C4.50407,9.42147 3.92227,9.74667 3.31623,9.94868 C2.79228,10.1233 2.22596,9.84017 2.05132,9.31623 C1.87667,8.79228 2.15983,8.22596 2.68377,8.05132 C3.27233,7.85513 3.91573,7.43757 4.44856,7.02315 L4.60702484,6.89748375 L4.60702484,6.89748375 L4.88406578,6.66604125 C4.92536687,6.63039 4.964085,6.5964375 5,6.56454 L5,5 C5,4.44772 5.44772,4 6,4 C6.55228,4 7,4.44772 7,5 L7,6.72192 C7.02889,6.76472 7.06369,6.81408 7.10469,6.86875 C7.27344,7.09376 7.54437,7.40487 7.93719,7.71913 C8.71017,8.33751 9.99292,9 12,9 C14.0071,9 15.2898,8.33751 16.0628,7.71913 C16.4556,7.40487 16.7266,7.09376 16.8953,6.86875 L17,6.72192 L17,6.72192 L17,5 C17,4.44772 17.4477,4 18,4 Z M9,10.5333 L9,14 L11,14 L11,10.9531 C10.3789167,10.8935167 9.81370833,10.7800444 9.3012037,10.6285977 L9,10.5333 Z M15,10.5333 C14.5084167,10.6993 13.9648194,10.8305083 13.3659676,10.9110106 L13,10.9531 L13,14 L15,14 L15,10.5333 Z" id="形状" fill="#09244B"></path>
            </g>
        </g>
    </g>
</svg>