<?xml version="1.0" encoding="UTF-8"?>
<svg width="24px" height="24px" viewBox="0 0 24 24" version="1.1" xmlns="http://www.w3.org/2000/svg" xmlns:xlink="http://www.w3.org/1999/xlink">
    <title>bridge_line</title>
    <g id="页面-1" stroke="none" stroke-width="1" fill="none" fill-rule="evenodd">
        <g id="Building" transform="translate(0.000000, -96.000000)">
            <g id="bridge_line" transform="translate(0.000000, 96.000000)">
                <rect id="矩形" fill-rule="nonzero" x="0" y="0" width="24" height="24"></rect>
                <path d="M15,18 C15.5523,18 16,18.4477 16,19 C16,19.51285 15.613973,19.9355092 15.1166239,19.9932725 L15,20 L12,20 C11.4477,20 11,19.5523 11,19 C11,18.48715 11.386027,18.0644908 11.8833761,18.0067275 L12,18 L15,18 Z M13,15 C13.5523,15 14,15.4477 14,16 C14,16.5523 13.5523,17 13,17 L9,17 C8.44772,17 8,16.5523 8,16 C8,15.4477 8.44772,15 9,15 L13,15 Z M15,3 C15.51285,3 15.9355092,3.38604429 15.9932725,3.88337975 L16,4 L16,4.45439 C17.5906462,4.83229769 18.8492402,5.39081888 19.775389,5.91278556 L20,6.04239 L20,6 C20,5.44772 20.4477,5 21,5 C21.51285,5 21.9355092,5.38604429 21.9932725,5.88337975 L22,6 L22,12.9 C22,13.467 21.5709778,13.9338222 21.0198548,13.9935452 L20.9,14 L16.0446,14 C15.50616,14 15.0628453,13.5925813 15.0061298,13.0692178 L15,12.9554 L15,12.5 C15,10.8431 13.6569,9.5 12,9.5 C10.402275,9.5 9.09633597,10.7488774 9.00509252,12.3237227 L9,12.5 L9,12.9554 C9,13.49384 8.59260747,13.9371547 8.06926366,13.9938702 L7.95545,14 L3.1,14 C2.53299067,14 2.06617653,13.5709778 2.00645469,13.0198548 L2,12.9 L2,6 C2,5.44772 2.44772,5 3,5 C3.51283143,5 3.93550653,5.38604429 3.9932722,5.88337975 L4,6 L4,6.04239 C4.87070154,5.52802385 6.07397491,4.95900586 7.60926168,4.55250403 L8,4.45439 L8,4 C8,3.44772 8.44772,3 9,3 C9.51283143,3 9.93550653,3.38604429 9.9932722,3.88337975 L10,4 L10,4.10891 C10.6283,4.03915 11.295,4 12,4 C12.52875,4 13.0359563,4.02202188 13.5215766,4.06246281 L14,4.10891 L14,4 C14,3.44772 14.4477,3 15,3 Z M12,6 C8.60017424,6 6.24706566,7.02248623 4.9371568,7.81167599 L4.64280631,7.99595928 L4.64280631,7.99595928 L4.38850388,8.16742622 L4.38850388,8.16742622 L4.17423872,8.32221905 L4.17423872,8.32221905 L4,8.45648 L4,8.45648 L4,12 L7.02469,12 C7.27555,9.47334 9.40733,7.5 12,7.5 C14.5927,7.5 16.7245,9.47334 16.9753,12 L20,12 L20,8.45648 L19.8257552,8.32221905 L19.8257552,8.32221905 L19.611486,8.16742622 L19.611486,8.16742622 L19.3571815,7.99595928 L19.3571815,7.99595928 L19.0628305,7.81167599 C17.7529224,7.02248623 15.3998485,6 12,6 Z" id="形状" fill="#09244B"></path>
            </g>
        </g>
    </g>
</svg>