<?xml version="1.0" encoding="UTF-8"?>
<svg width="24px" height="24px" viewBox="0 0 24 24" version="1.1" xmlns="http://www.w3.org/2000/svg" xmlns:xlink="http://www.w3.org/1999/xlink">
    <title>bridge_fill</title>
    <g id="页面-1" stroke="none" stroke-width="1" fill="none" fill-rule="evenodd">
        <g id="Building" transform="translate(-480.000000, -48.000000)">
            <g id="bridge_fill" transform="translate(480.000000, 48.000000)">
                 <path d="M24,0 L24,24 L0,24 L0,0 L24,0 Z M12.5934901,23.257841 L12.5819402,23.2595131 L12.5108777,23.2950439 L12.4918791,23.2987469 L12.4918791,23.2987469 L12.4767152,23.2950439 L12.4056548,23.2595131 C12.3958229,23.2563662 12.3870493,23.2590235 12.3821421,23.2649074 L12.3780323,23.275831 L12.360941,23.7031097 L12.3658947,23.7234994 L12.3769048,23.7357139 L12.4804777,23.8096931 L12.4953491,23.8136134 L12.4953491,23.8136134 L12.5071152,23.8096931 L12.6106902,23.7357139 L12.6232938,23.7196733 L12.6232938,23.7196733 L12.6266527,23.7031097 L12.609561,23.275831 C12.6075724,23.2657013 12.6010112,23.2592993 12.5934901,23.257841 L12.5934901,23.257841 Z M12.8583906,23.1452862 L12.8445485,23.1473072 L12.6598443,23.2396597 L12.6498822,23.2499052 L12.6498822,23.2499052 L12.6471943,23.2611114 L12.6650943,23.6906389 L12.6699349,23.7034178 L12.6699349,23.7034178 L12.678386,23.7104931 L12.8793402,23.8032389 C12.8914285,23.8068999 12.9022333,23.8029875 12.9078286,23.7952264 L12.9118235,23.7811639 L12.8776777,23.1665331 C12.8752882,23.1545897 12.8674102,23.1470016 12.8583906,23.1452862 L12.8583906,23.1452862 Z M12.1430473,23.1473072 C12.1332178,23.1423925 12.1221763,23.1452606 12.1156365,23.1525954 L12.1099173,23.1665331 L12.0757714,23.7811639 C12.0751323,23.7926639 12.0828099,23.8018602 12.0926481,23.8045676 L12.108256,23.8032389 L12.3092106,23.7104931 L12.3186497,23.7024347 L12.3186497,23.7024347 L12.3225043,23.6906389 L12.340401,23.2611114 L12.337245,23.2485176 L12.337245,23.2485176 L12.3277531,23.2396597 L12.1430473,23.1473072 Z" id="MingCute" fill-rule="nonzero"></path>
                <path d="M18,4 C18.5523,4 19,4.44772 19,5 L19,6.56454 L19.1159547,6.66604125 L19.1159547,6.66604125 L19.3929766,6.89748375 C19.4437188,6.938505 19.4966,6.9805125 19.5514,7.02315 C20.0843,7.43757 20.7277,7.85513 21.3162,8.05132 C21.8402,8.22596 22.1233,8.79228 21.9487,9.31623 C21.774,9.84017 21.2077,10.1233 20.6838,9.94868 C20.0777,9.74667 19.4959,9.42147 19,9.09081 L19,14 L22,14 C22.5523,14 23,14.4477 23,15 C23,15.5523 22.5523,16 22,16 L19,16 L19,19 C19,19.5523 18.5523,20 18,20 C17.4477,20 17,19.5523 17,19 L17,16 L7,16 L7,19 C7,19.5523 6.55228,20 6,20 C5.44772,20 5,19.5523 5,19 L5,16 L2,16 C1.44772,16 1,15.5523 1,15 C1,14.4477 1.44772,14 2,14 L5,14 L5,9.09081 C4.50407,9.42147 3.92227,9.74667 3.31623,9.94868 C2.79228,10.1233 2.22596,9.84017 2.05132,9.31623 C1.87667,8.79228 2.15983,8.22596 2.68377,8.05132 C3.27233,7.85513 3.91573,7.43757 4.44856,7.02315 L4.60702484,6.89748375 L4.60702484,6.89748375 L4.88406578,6.66604125 C4.92536687,6.63039 4.964085,6.5964375 5,6.56454 L5,5 C5,4.44772 5.44772,4 6,4 C6.55228,4 7,4.44772 7,5 L7,6.72192 C7.02889,6.76472 7.06369,6.81408 7.10469,6.86875 C7.27344,7.09376 7.54437,7.40487 7.93719,7.71913 C8.71017,8.33751 9.99292,9 12,9 C14.0071,9 15.2898,8.33751 16.0628,7.71913 C16.4556,7.40487 16.7266,7.09376 16.8953,6.86875 L17,6.72192 L17,6.72192 L17,5 C17,4.44772 17.4477,4 18,4 Z M9,10.5333 L9,14 L11,14 L11,10.9531 C10.3789167,10.8935167 9.81370833,10.7800444 9.3012037,10.6285977 L9,10.5333 Z M15,10.5333 C14.5084167,10.6993 13.9648194,10.8305083 13.3659676,10.9110106 L13,10.9531 L13,14 L15,14 L15,10.5333 Z" id="形状" fill="#09244B"></path>
            </g>
        </g>
    </g>
</svg>