<?xml version="1.0" encoding="UTF-8"?>
<svg width="24px" height="24px" viewBox="0 0 24 24" version="1.1" xmlns="http://www.w3.org/2000/svg" xmlns:xlink="http://www.w3.org/1999/xlink">
    <title>building_2_line</title>
    <g id="页面-1" stroke="none" stroke-width="1" fill="none" fill-rule="evenodd">
        <g id="Building" transform="translate(-288.000000, 0.000000)">
            <g id="building_2_line" transform="translate(288.000000, 0.000000)">
                <rect id="矩形" fill-rule="nonzero" x="0" y="0" width="24" height="24"></rect>
                <path d="M13.0257,2.27051 C13.9547696,1.96081696 14.9128425,2.60881261 14.994397,3.56175452 L15,3.69353 L15,9.18032 L18.7941,9.93914 C19.4485533,10.0700493 19.9317462,10.6150326 19.9932633,11.2684367 L19.9999,11.41 L19.9999,19 L21,19 C21.5523,19 22,19.4477 22,20 C22,20.51285 21.613973,20.9355092 21.1166239,20.9932725 L21,21 L3,21 C2.44772,21 2,20.5523 2,20 C2,19.48715 2.38604429,19.0644908 2.88337975,19.0067275 L3,19 L4,19 L4,6.3602 C4,5.76066786 4.35623648,5.22360536 4.8975372,4.98646304 L5.02566,4.93717 L13.0257,2.27051 Z M13,4.38725 L6,6.72058 L6,19 L13,19 L13,4.38725 Z M15,11.2199 L15,19 L17.9999,19 L17.9999,11.8199 L15,11.2199 Z" id="形状" fill="#09244B"></path>
            </g>
        </g>
    </g>
</svg>