<?xml version="1.0" encoding="UTF-8"?>
<svg width="24px" height="24px" viewBox="0 0 24 24" version="1.1" xmlns="http://www.w3.org/2000/svg" xmlns:xlink="http://www.w3.org/1999/xlink">
    <title>building_3_fill</title>
    <g id="页面-1" stroke="none" stroke-width="1" fill="none" fill-rule="evenodd">
        <g id="Building" transform="translate(-336.000000, -48.000000)">
            <g id="building_3_fill" transform="translate(336.000000, 48.000000)">
                <rect id="矩形" fill-rule="nonzero" x="0" y="0" width="24" height="24"></rect>
                <path d="M5,4 C5,2.89543 5.89543,2 7,2 L17,2 C18.1046,2 19,2.89543 19,4 L19,20 C19.5523,20 20,20.4477 20,21 C20,21.5523 19.5523,22 19,22 L5,22 C4.44772,22 4,21.5523 4,21 C4,20.4477 4.44772,20 5,20 L5,4 Z M10,14 L10,20 L14,20 L14,14 C14,13.4477 13.5523,13 13,13 L11,13 C10.4477,13 10,13.4477 10,14 Z M11,7 C11,7.55228 10.5523,8 10,8 C9.44772,8 9,7.55228 9,7 C9,6.44772 9.44772,6 10,6 C10.5523,6 11,6.44772 11,7 Z M14,8 C14.5523,8 15,7.55228 15,7 C15,6.44772 14.5523,6 14,6 C13.4477,6 13,6.44772 13,7 C13,7.55228 13.4477,8 14,8 Z M11,10 C11,10.5523 10.5523,11 10,11 C9.44772,11 9,10.5523 9,10 C9,9.44772 9.44772,9 10,9 C10.5523,9 11,9.44772 11,10 Z M14,11 C14.5523,11 15,10.5523 15,10 C15,9.44772 14.5523,9 14,9 C13.4477,9 13,9.44772 13,10 C13,10.5523 13.4477,11 14,11 Z" id="形状" fill="#09244B"></path>
            </g>
        </g>
    </g>
</svg>