<?xml version="1.0" encoding="UTF-8"?>
<svg width="24px" height="24px" viewBox="0 0 24 24" version="1.1" xmlns="http://www.w3.org/2000/svg" xmlns:xlink="http://www.w3.org/1999/xlink">
    <title>building_1_fill</title>
    <g id="页面-1" stroke="none" stroke-width="1" fill="none" fill-rule="evenodd">
        <g id="Building" transform="translate(-240.000000, -48.000000)">
            <g id="building_1_fill" transform="translate(240.000000, 48.000000)">
                <rect id="矩形" fill-rule="nonzero" x="0" y="0" width="24" height="24"></rect>
                <path d="M6,3 C4.89543,3 4,3.89543 4,5 L4,19 L3,19 C2.44772,19 2,19.4477 2,20 C2,20.5523 2.44772,21 3,21 L21,21 C21.5523,21 22,20.5523 22,20 C22,19.4477 21.5523,19 21,19 L20,19 L20,11 C20,9.89543 19.1046,9 18,9 L16.5,9 C16.2239,9 16,9.22386 16,9.5 L16,19 L15,19 L15,5 C15,3.89543 14.1046,3 13,3 L6,3 Z M11,7 L8,7 L8,9 L11,9 L11,7 Z M8,11 L11,11 L11,13 L8,13 L8,11 Z M11,15 L8,15 L8,17 L11,17 L11,15 Z" id="形状" fill="#09244B"></path>
            </g>
        </g>
    </g>
</svg>