<?xml version="1.0" encoding="UTF-8"?>
<svg width="24px" height="24px" viewBox="0 0 24 24" version="1.1" xmlns="http://www.w3.org/2000/svg" xmlns:xlink="http://www.w3.org/1999/xlink">
    <title>church_fill</title>
    <g id="Icon" stroke="none" stroke-width="1" fill="none" fill-rule="evenodd">
        <g id="Building" transform="translate(-528.000000, -240.000000)">
            <g id="church_fill" transform="translate(528.000000, 240.000000)">
                <path d="M24,0 L24,24 L0,24 L0,0 L24,0 Z M12.5935,23.2578 L12.5819,23.2595 L12.5109,23.295 L12.4919,23.2987 L12.4767,23.295 L12.4057,23.2595 C12.3958,23.2564 12.387,23.259 12.3821,23.2649 L12.378,23.2758 L12.3609,23.7031 L12.3659,23.7235 L12.3769,23.7357 L12.4805,23.8097 L12.4953,23.8136 L12.5071,23.8097 L12.6107,23.7357 L12.6233,23.7197 L12.6267,23.7031 L12.6096,23.2758 C12.6076,23.2657 12.601,23.2593 12.5935,23.2578 Z M12.8584,23.1453 L12.8445,23.1473 L12.6598,23.2397 L12.6499,23.2499 L12.6472,23.2611 L12.6651,23.6906 L12.6699,23.7034 L12.6784,23.7105 L12.8793,23.8032 C12.8914,23.8069 12.9022,23.803 12.9078,23.7952 L12.9118,23.7812 L12.8777,23.1665 C12.8753,23.1546 12.8674,23.147 12.8584,23.1453 Z M12.143,23.1473 C12.1332,23.1424 12.1222,23.1453 12.1156,23.1526 L12.1099,23.1665 L12.0758,23.7812 C12.0751,23.7927 12.0828,23.8019 12.0926,23.8046 L12.1083,23.8032 L12.3092,23.7105 L12.3186,23.7024 L12.3225,23.6906 L12.3404,23.2611 L12.3372,23.2485 L12.3278,23.2397 L12.143,23.1473 Z" id="MingCute" fill-rule="nonzero"></path>
                <path d="M13,3 C13,2.44772 12.5523,2 12,2 C11.4477,2 11,2.44772 11,3 L11,4 L10,4 C9.44772,4 9,4.44772 9,5 C9,5.55228 9.44772,6 10,6 L11,6 L11,7.5 L7.4,10.2 C7.14819,10.3889 7,10.6852 7,11 L7,12.4648 L4.4453,14.1679 C4.1671,14.3534 4,14.6656 4,15 L4,20 C3.44772,20 3,20.4477 3,21 C3,21.5523 3.44772,22 4,22 L20,22 C20.5523,22 21,21.5523 21,21 C21,20.4477 20.5523,20 20,20 L20,15 C20,14.6656 19.8329,14.3534 19.5547,14.1679 L17,12.4648 L17,11 C17,10.6852 16.8518,10.3889 16.6,10.2 L13,7.5 L13,6 L14,6 C14.5523,6 15,5.55228 15,5 C15,4.44772 14.5523,4 14,4 L13,4 L13,3 Z M14,17 L14,20 L10,20 L10,17 C10,15.8954 10.8954,15 12,15 C13.1046,15 14,15.8954 14,17 Z" id="形状" fill="#09244B"></path>
            </g>
        </g>
    </g>
</svg>