<?xml version="1.0" encoding="UTF-8"?>
<svg width="24px" height="24px" viewBox="0 0 24 24" version="1.1" xmlns="http://www.w3.org/2000/svg" xmlns:xlink="http://www.w3.org/1999/xlink">
    <title>dutch_windmill_fill</title>
    <g id="页面-1" stroke="none" stroke-width="1" fill="none" fill-rule="evenodd">
        <g id="Building" transform="translate(-768.000000, -144.000000)">
            <g id="dutch_windmill_fill" transform="translate(768.000000, 144.000000)">
                 <path d="M24,0 L24,24 L0,24 L0,0 L24,0 Z M12.5934901,23.257841 L12.5819402,23.2595131 L12.5108777,23.2950439 L12.4918791,23.2987469 L12.4918791,23.2987469 L12.4767152,23.2950439 L12.4056548,23.2595131 C12.3958229,23.2563662 12.3870493,23.2590235 12.3821421,23.2649074 L12.3780323,23.275831 L12.360941,23.7031097 L12.3658947,23.7234994 L12.3769048,23.7357139 L12.4804777,23.8096931 L12.4953491,23.8136134 L12.4953491,23.8136134 L12.5071152,23.8096931 L12.6106902,23.7357139 L12.6232938,23.7196733 L12.6232938,23.7196733 L12.6266527,23.7031097 L12.609561,23.275831 C12.6075724,23.2657013 12.6010112,23.2592993 12.5934901,23.257841 L12.5934901,23.257841 Z M12.8583906,23.1452862 L12.8445485,23.1473072 L12.6598443,23.2396597 L12.6498822,23.2499052 L12.6498822,23.2499052 L12.6471943,23.2611114 L12.6650943,23.6906389 L12.6699349,23.7034178 L12.6699349,23.7034178 L12.678386,23.7104931 L12.8793402,23.8032389 C12.8914285,23.8068999 12.9022333,23.8029875 12.9078286,23.7952264 L12.9118235,23.7811639 L12.8776777,23.1665331 C12.8752882,23.1545897 12.8674102,23.1470016 12.8583906,23.1452862 L12.8583906,23.1452862 Z M12.1430473,23.1473072 C12.1332178,23.1423925 12.1221763,23.1452606 12.1156365,23.1525954 L12.1099173,23.1665331 L12.0757714,23.7811639 C12.0751323,23.7926639 12.0828099,23.8018602 12.0926481,23.8045676 L12.108256,23.8032389 L12.3092106,23.7104931 L12.3186497,23.7024347 L12.3186497,23.7024347 L12.3225043,23.6906389 L12.340401,23.2611114 L12.337245,23.2485176 L12.337245,23.2485176 L12.3277531,23.2396597 L12.1430473,23.1473072 Z" id="MingCute" fill-rule="nonzero"></path>
                <path d="M8.9068,2.60037 L11.9896,6.51807 L13.9511,3.12068 C14.2272,2.64239 14.8388,2.47851 15.3171,2.75465 L18.7812,4.75465 C19.0685,4.92057 19.2549,5.21822 19.2786,5.54919 C19.3023,5.88017 19.1603,6.20136 18.8996,6.40655 L14.9819,9.48932 L18.3793,11.4508 C18.8575,11.7269 19.0214,12.3385 18.7453,12.8168 L16.7453,16.2809 C16.6166,16.5038 16.4088,16.6658 16.1676,16.7385 L16.8199,19.9999 L17.0001,19.9999 C17.5523,19.9999 18.0001,20.4476 18.0001,20.9999 C18.0001,21.5522 17.5523,21.9999 17.0001,21.9999 L7.00006,21.9999 C6.44778,21.9999 6.00006,21.5522 6.00006,20.9999 C6.00006,20.4476 6.44778,19.9999 7.00006,19.9999 L7.18028,19.9999 L8.00907,15.8559 L5.21899619,14.245 C4.93163,14.0791 4.74528,13.7815 4.72156,13.4505 C4.69784,13.1195 4.83984,12.7983 5.10061,12.5931 L9.01831,9.51037 L5.62092,7.54888 C5.14263,7.27274 4.97876,6.66115 5.2549,6.18286 L7.2549,2.71876 C7.42081,2.43139 7.71846,2.24503 8.04944,2.22131 C8.38041,2.19759 8.7016,2.3396 8.9068,2.60037 Z M12.1652,12.9999 L11.8349,12.9999 L9.94951,16.3517 L9.21988,19.9999 L14.7803,19.9999 L14.0506,16.3517 L12.1652,12.9999 Z M12.5001,15.9999 C12.7455222,15.9999 12.9497,16.1767296 12.9920429,16.4100092 L13.0001,16.4999 L13.0001,17.4999 C13.0001,17.7453222 12.8231914,17.9495 12.5899645,17.9918429 L12.5001,17.9999 L11.5001,17.9999 C11.2545889,17.9999 11.0504802,17.8229914 11.0081538,17.5897645 L11.0001,17.4999 L11.0001,16.4999 C11.0001,16.2543889 11.1769296,16.0502802 11.4102092,16.0079538 L11.5001,15.9999 L12.5001,15.9999 Z" id="形状" fill="#09244B"></path>
            </g>
        </g>
    </g>
</svg>