<svg xmlns="http://www.w3.org/2000/svg" width="24" height="24" viewBox="0 0 24 24"><g fill="none" fill-rule="evenodd"><path d="M24,0 L24,24 L0,24 L0,0 L24,0 Z M12.5935,23.2578 L12.5819,23.2595 L12.5109,23.295 L12.4919,23.2987 L12.4767,23.295 L12.4057,23.2595 C12.3958,23.2564 12.387,23.259 12.3821,23.2649 L12.378,23.2758 L12.3609,23.7031 L12.3659,23.7235 L12.3769,23.7357 L12.4805,23.8097 L12.4953,23.8136 L12.5071,23.8097 L12.6107,23.7357 L12.6233,23.7197 L12.6267,23.7031 L12.6096,23.2758 C12.6076,23.2657 12.601,23.2593 12.5935,23.2578 Z M12.8584,23.1453 L12.8445,23.1473 L12.6598,23.2397 L12.6499,23.2499 L12.6472,23.2611 L12.6651,23.6906 L12.6699,23.7034 L12.6784,23.7105 L12.8793,23.8032 C12.8914,23.8069 12.9022,23.803 12.9078,23.7952 L12.9118,23.7812 L12.8777,23.1665 C12.8753,23.1546 12.8674,23.147 12.8584,23.1453 Z M12.143,23.1473 C12.1332,23.1424 12.1222,23.1453 12.1156,23.1526 L12.1099,23.1665 L12.0758,23.7812 C12.0751,23.7927 12.0828,23.8019 12.0926,23.8046 L12.1083,23.8032 L12.3092,23.7105 L12.3186,23.7024 L12.3225,23.6906 L12.3404,23.2611 L12.3372,23.2485 L12.3278,23.2397 L12.143,23.1473 Z"/><path fill="#09244B" d="M9,3 C9.51284071,3 9.93550786,3.38603566 9.99327234,3.8833779 L10,4 L10.0049699,4.86074382 L10.0049699,4.86074382 L10.0288624,6.06482558 L10.0288624,6.06482558 L10.0627943,7.13250805 L10.0627943,7.13250805 L10.1008809,8.07556422 L10.1008809,8.07556422 L10.1519,9.14269 L13.4855,7.14251 C13.7944,6.95715 14.1792,6.95229 14.4927,7.1298 C14.7713667,7.28758667 14.9554556,7.56777136 14.9929239,7.88111578 L15,8 L15,10.1315 L19.4453,7.16795 C19.7522,6.96338 20.1467,6.94431 20.4719,7.11833 C20.7608778,7.27300556 20.9533815,7.55793296 20.9925925,7.87836062 L21,8 L21,20 C21,20.51285 20.613973,20.9355092 20.1166239,20.9932725 L20,21 L4,21 C3.41703,21 2.94696,20.4806 3.00497,19.9005 L3.10104981,18.9235196 L3.10104981,18.9235196 L3.2742505,17.0680437 L3.2742505,17.0680437 L3.45747313,14.9310855 L3.45747313,14.9310855 L3.57957458,13.3652791 L3.57957458,13.3652791 L3.65802813,12.2736274 L3.65802813,12.2736274 L3.78441051,10.2997653 L3.78441051,10.2997653 L3.87504542,8.60019926 L3.87504542,8.60019926 L3.95055602,6.75050839 L3.95055602,6.75050839 L3.97710202,5.83043976 L3.97710202,5.83043976 L3.99939439,4.3394966 L3.99939439,4.3394966 L4,4 C4,3.48716857 4.38604429,3.06449347 4.88337975,3.0067278 L5,3 L9,3 Z M8.00663,5 L5.99338,5 L5.9583384,6.539363 L5.9583384,6.539363 L5.89602691,8.19027814 L5.89602691,8.19027814 L5.8087675,9.93069375 L5.8087675,9.93069375 L5.75104541,10.9158933 L5.75104541,10.9158933 L5.65746694,12.3507421 L5.65746694,12.3507421 L5.4772056,14.7671185 L5.4772056,14.7671185 L5.32735662,16.55718 L5.32735662,16.55718 L5.15130464,18.4930164 L5.15130464,18.4930164 L5.10295,19 L8.89705,19 L8.75726217,17.5067445 L8.75726217,17.5067445 L8.63280758,16.0960806 L8.63280758,16.0960806 L8.52279548,14.7671185 L8.52279548,14.7671185 L8.34253576,12.3507421 L8.34253576,12.3507421 L8.24895858,10.9158933 L8.24895858,10.9158933 L8.14320825,9.02245188 L8.14320825,9.02245188 L8.09270587,7.92963716 L8.09270587,7.92963716 L8.03562504,6.33627175 L8.03562504,6.33627175 L8.01396284,5.44150063 L8.01396284,5.44150063 L8.00663,5 Z M13,14 C12.48715,14 12.0644908,14.386027 12.0067275,14.8833761 L12,15 L12,16 C12,16.5523 12.4477,17 13,17 C13.51285,17 13.9355092,16.613973 13.9932725,16.1166239 L14,16 L14,15 C14,14.4477 13.5523,14 13,14 Z M17,14 C16.4477,14 16,14.4477 16,15 L16,16 C16,16.5523 16.4477,17 17,17 C17.5523,17 18,16.5523 18,16 L18,15 C18,14.4477 17.5523,14 17,14 Z"/></g></svg>