<?xml version="1.0" encoding="UTF-8"?>
<svg width="24px" height="24px" viewBox="0 0 24 24" version="1.1" xmlns="http://www.w3.org/2000/svg" xmlns:xlink="http://www.w3.org/1999/xlink">
    <title>factory_fill</title>
    <g id="页面-1" stroke="none" stroke-width="1" fill="none" fill-rule="evenodd">
        <g id="Building" transform="translate(-624.000000, -48.000000)" fill-rule="nonzero">
            <g id="factory_fill" transform="translate(624.000000, 48.000000)">
                <rect id="矩形" x="0" y="0" width="24" height="24"></rect>
                <path d="M6.02285,4.56114 C5.99623,3.71729 6.67032,3 7.53212,3 L12.4999,3 C13.3191,3 13.9897,3.65402 14.0061,4.47599 C14.0413,6.2438 14.2736,12.5458 15.7866,19 L16.7869,19 C15.8249,14.8964 15.3806,10.8543 15.1755,8 L16.4337,8 C17.3397,8 17.9891,8.77272 17.9645,9.59506 C17.9296,10.7564 18.0247,14.0287 19.7108,19 L21,19 C21.5523,19 22,19.4477 22,20 C22,20.5523 21.5523,21 21,21 L3,21 C2.44772,21 2,20.5523 2,20 C2,19.4477 2.44772,19 3,19 L4.25695,19 C6.11234,12.6162 6.07977,6.3651 6.02285,4.56114 Z" id="路径" fill="#09244B"></path>
            </g>
        </g>
    </g>
</svg>