<?xml version="1.0" encoding="UTF-8"?>
<svg width="24px" height="24px" viewBox="0 0 24 24" version="1.1" xmlns="http://www.w3.org/2000/svg" xmlns:xlink="http://www.w3.org/1999/xlink">
    <title>factory_line</title>
    <g id="页面-1" stroke="none" stroke-width="1" fill="none" fill-rule="evenodd">
        <g id="Building" transform="translate(-624.000000, 0.000000)">
            <g id="factory_line" transform="translate(624.000000, 0.000000)">
                <rect id="矩形" fill-rule="nonzero" x="0" y="0" width="24" height="24"></rect>
                <path d="M6.02296,4.56114 C5.99634,3.71729 6.67043,3 7.53223,3 L12.5,3 C13.3192,3 13.9899,3.65402 14.0062,4.47599 C14.019,5.11981 14.058,6.36504 14.1754,8 L16.4336,8 C17.3396,8 17.989,8.77272 17.9644,9.59506 C17.9295,10.7564 18.0246,14.0287 19.7107,19 L21,19 C21.5523,19 22,19.4477 22,20 C22,20.5523 21.5523,21 21,21 L3,21 C2.44772,21 2,20.5523 2,20 C2,19.4477 2.44772,19 3,19 L4.25706,19 C6.11245,12.6162 6.07988,6.3651 6.02296,4.56114 Z M17.6042,19 C16.1989,14.6383 15.9636,11.5477 15.9592,10 L14.3441,10 C14.596,12.5997 15.0321,15.7809 15.7867,19 L17.6042,19 Z M12.0185,5 C12.0838,7.24466 12.3803,13.0018 13.7345,19 L6.33537,19 C7.97964,13.0185 8.07463,7.28772 8.03419,5 L12.0185,5 Z" id="形状" fill="#09244B"></path>
            </g>
        </g>
    </g>
</svg>