<?xml version="1.0" encoding="UTF-8"?>
<svg width="24px" height="24px" viewBox="0 0 24 24" version="1.1" xmlns="http://www.w3.org/2000/svg" xmlns:xlink="http://www.w3.org/1999/xlink">
    <title>factory_line</title>
    <g id="Icon" stroke="none" stroke-width="1" fill="none" fill-rule="evenodd">
        <g id="Building" transform="translate(-624.000000, 0.000000)">
            <g id="factory_line" transform="translate(624.000000, 0.000000)">
                <path d="M24,0 L24,24 L0,24 L0,0 L24,0 Z M12.5935,23.2578 L12.5819,23.2595 L12.5109,23.295 L12.4919,23.2987 L12.4767,23.295 L12.4057,23.2595 C12.3958,23.2564 12.387,23.259 12.3821,23.2649 L12.378,23.2758 L12.3609,23.7031 L12.3659,23.7235 L12.3769,23.7357 L12.4805,23.8097 L12.4953,23.8136 L12.5071,23.8097 L12.6107,23.7357 L12.6233,23.7197 L12.6267,23.7031 L12.6096,23.2758 C12.6076,23.2657 12.601,23.2593 12.5935,23.2578 Z M12.8584,23.1453 L12.8445,23.1473 L12.6598,23.2397 L12.6499,23.2499 L12.6472,23.2611 L12.6651,23.6906 L12.6699,23.7034 L12.6784,23.7105 L12.8793,23.8032 C12.8914,23.8069 12.9022,23.803 12.9078,23.7952 L12.9118,23.7812 L12.8777,23.1665 C12.8753,23.1546 12.8674,23.147 12.8584,23.1453 Z M12.143,23.1473 C12.1332,23.1424 12.1222,23.1453 12.1156,23.1526 L12.1099,23.1665 L12.0758,23.7812 C12.0751,23.7927 12.0828,23.8019 12.0926,23.8046 L12.1083,23.8032 L12.3092,23.7105 L12.3186,23.7024 L12.3225,23.6906 L12.3404,23.2611 L12.3372,23.2485 L12.3278,23.2397 L12.143,23.1473 Z" id="MingCute" fill-rule="nonzero"></path>
                <path d="M12.5,3 C13.3192,3 13.9899,3.65402 14.0062,4.47599 L14.0296667,5.31244 L14.0296667,5.31244 L14.0569563,5.98719256 L14.0569563,5.98719256 L14.1139504,7.06748504 L14.1139504,7.06748504 L14.1529499,7.67826712 C14.1600951,7.78373747 14.1675733,7.89100267 14.1754,8 L16.4336,8 C17.3396,8 17.989,8.77272 17.9644,9.59506 L17.9594851,10.045205 L17.9594851,10.045205 L17.9639074,10.3248125 L17.9639074,10.3248125 L17.9747622,10.6402562 L17.9747622,10.6402562 L17.993434,10.9911457 L17.993434,10.9911457 L18.0213071,11.3770906 L18.0213071,11.3770906 L18.0597662,11.7977006 L18.0597662,11.7977006 L18.1101957,12.2525852 L18.1101957,12.2525852 L18.17398,12.7413541 L18.17398,12.7413541 L18.2525036,13.2636169 C18.2668961,13.3534301 18.2819604,13.4446227 18.2977254,13.5371865 L18.400954,14.1089581 L18.400954,14.1089581 L18.5223831,14.7132477 C18.6970376,15.5404722 18.9239188,16.4533702 19.2177946,17.4477775 L19.4509936,18.2088009 C19.5330676,18.4675264 19.6195595,18.7312811 19.7107,19 L21,19 C21.5523,19 22,19.4477 22,20 C22,20.5523 21.5523,21 21,21 L3,21 C2.44772,21 2,20.5523 2,20 C2,19.4477 2.44772,19 3,19 L4.25706,19 C4.94228926,16.6423466 5.37000848,14.3027929 5.63409421,12.1986724 L5.7312239,11.3700958 L5.7312239,11.3700958 L5.81223449,10.569723 C5.82446717,10.4388496 5.83608385,10.3092801 5.84711235,10.181079 L5.90644765,9.42880751 L5.90644765,9.42880751 L5.95300168,8.71246729 L5.95300168,8.71246729 L5.98810956,8.03514927 L5.98810956,8.03514927 L6.01310644,7.39994442 L6.01310644,7.39994442 L6.02932745,6.80994371 L6.02932745,6.80994371 L6.03810771,6.2682381 L6.03810771,6.2682381 L6.03928832,5.40812945 L6.03928832,5.40812945 L6.0270405,4.70049838 C6.02571256,4.65145969 6.02434347,4.60498625 6.02296,4.56114 C5.99634,3.71729 6.67043,3 7.53223,3 L12.5,3 Z M12.0185,5 L8.03419,5 L8.04026755,5.54176222 L8.04026755,5.54176222 L8.03886461,6.20977865 L8.03886461,6.20977865 L8.03107322,6.75107913 L8.03107322,6.75107913 L8.01615003,7.34039557 L8.01615003,7.34039557 L7.99280393,7.9748128 L7.99280393,7.9748128 L7.95974384,8.65141563 C7.95335259,8.76753628 7.9465028,8.8852932 7.93916757,9.00462565 L7.88911566,9.73904092 L7.88911566,9.73904092 L7.826122,10.5083538 C7.81447284,10.6393188 7.80223066,10.7716164 7.78936854,10.9051859 L7.70454143,11.7213793 C7.47279974,13.7975896 7.08946896,16.1326408 6.46376857,18.5215589 L6.33537,19 L13.7345,19 L13.543779,18.1243152 C13.5132186,17.9787811 13.4832634,17.8334854 13.4539014,17.6884754 L13.2847526,16.8222251 L13.2847526,16.8222251 L13.1292658,15.9651123 L13.1292658,15.9651123 L12.9868653,15.1194156 L12.9868653,15.1194156 L12.8569756,14.2874132 L12.8569756,14.2874132 L12.739021,13.4713836 L12.739021,13.4713836 L12.6324259,12.6736051 L12.6324259,12.6736051 L12.5366147,11.8963561 L12.5366147,11.8963561 L12.4118585,10.7739595 L12.4118585,10.7739595 L12.3404888,10.0580022 L12.3404888,10.0580022 L12.2778882,9.37054869 L12.2778882,9.37054869 L12.1766924,8.09026678 L12.1766924,8.09026678 L12.1036661,6.95134076 L12.1036661,6.95134076 L12.0646126,6.20087574 L12.0646126,6.20087574 L12.0237027,5.1704645 L12.0237027,5.1704645 L12.0185,5 Z M15.9592,10 L14.3441,10 L14.3969758,10.5275323 L14.3969758,10.5275323 L14.5184184,11.6252512 C14.78318,13.873696 15.18302,16.42472 15.7867,19 L17.6042,19 C17.3322065,18.1558 17.1040422,17.3592166 16.9128984,16.6122206 L16.7338426,15.8818267 L16.7338426,15.8818267 L16.5779539,15.184929 L16.5779539,15.184929 L16.4437192,14.5219653 L16.4437192,14.5219653 L16.3296255,13.8933737 C16.3122042,13.791497 16.2955591,13.6910709 16.2796587,13.5921042 L16.1929393,13.0158917 C16.1668433,12.8297077 16.1434737,12.6494348 16.1225782,12.475146 L16.0670622,11.9703052 L16.0670622,11.9703052 L16.0248781,11.501807 L16.0248781,11.501807 L15.994513,11.0700895 L15.994513,11.0700895 L15.9744537,10.6755905 L15.9744537,10.6755905 L15.9603781,10.1545848 C15.9597241,10.1014571 15.9593419,10.0499258 15.9592,10 Z" id="形状" fill="#09244B"></path>
            </g>
        </g>
    </g>
</svg>