<?xml version="1.0" encoding="UTF-8"?>
<svg width="24px" height="24px" viewBox="0 0 24 24" version="1.1" xmlns="http://www.w3.org/2000/svg" xmlns:xlink="http://www.w3.org/1999/xlink">
    <title>greatwall_fill</title>
    <g id="页面-1" stroke="none" stroke-width="1" fill="none" fill-rule="evenodd">
        <g id="Building" transform="translate(-672.000000, -48.000000)" fill-rule="nonzero">
            <g id="greatwall_fill" transform="translate(672.000000, 48.000000)">
                <rect id="矩形" x="0" y="0" width="24" height="24"></rect>
                <path d="M22,17 L22,19.5 C22,20.2796706 21.4050879,20.9204457 20.6444558,20.9931332 L20.5,21 L17,21 L17,17 L22,17 Z M15,17 L15,21 L9,21 L9,17 L15,17 Z M7,17 L7,21 L3.5,21 C2.72030118,21 2.079551,20.4050879 2.00686655,19.6444558 L2,19.5 L2,17 L7,17 Z M22,11 L22,15 L13,15 L13,11 L22,11 Z M11,11 L11,15 L2,15 L2,11 L11,11 Z M6.5,3 C7.27969882,3 7.920449,3.59488554 7.99313345,4.35553954 L8,4.5 L8,6 L9,6 L9,4.5 C9,3.72030118 9.59488554,3.079551 10.3555395,3.00686655 L10.5,3 L13.5,3 C14.2796706,3 14.9204457,3.59488554 14.9931332,4.35553954 L15,4.5 L15,6 L16,6 L16,4.5 C16,3.72030118 16.5949121,3.079551 17.3555442,3.00686655 L17.5,3 L20.5,3 C21.2796706,3 21.9204457,3.59488554 21.9931332,4.35553954 L22,4.5 L22,9 L2,9 L2,4.5 C2,3.72030118 2.59488554,3.079551 3.35553954,3.00686655 L3.5,3 L6.5,3 Z" id="形状" fill="#09244B"></path>
            </g>
        </g>
    </g>
</svg>