<?xml version="1.0" encoding="UTF-8"?>
<svg width="24px" height="24px" viewBox="0 0 24 24" version="1.1" xmlns="http://www.w3.org/2000/svg" xmlns:xlink="http://www.w3.org/1999/xlink">
    <title>home_3_line</title>
    <g id="页面-1" stroke="none" stroke-width="1" fill="none" fill-rule="evenodd">
        <g id="home_3_line">
            <rect id="矩形" fill-opacity="0.01" fill="#FFFFFF" fill-rule="nonzero" x="0" y="0" width="24" height="24"></rect>
            <path d="M10.7722,2.68814 C11.4492625,2.16151813 12.3804168,2.12860426 13.0892408,2.5893984 L13.2279,2.68814 L21.6117,9.20884 C22.3334208,9.77022208 21.9818043,10.9006282 21.1132725,10.993854 L20.9971,11 L20.0001,11 L20.0001,19 C20.0001,20.0543909 19.1841589,20.9181678 18.1493537,20.9945144 L18.0001,21 L6.00005,21 C4.94568773,21 4.08188483,20.18415 4.00553573,19.1492661 L4.00005,19 L4.00005,11 L3.00297,11 C2.08960167,11 1.67147285,9.89241543 2.30039361,9.28508754 L2.38841,9.20884 L10.7722,2.68814 Z M12.0001,4.26685 L5.62546,9.22486 C5.85399,9.41004 6.00005,9.69297 6.00005,10.01 L6.00005,19 L9.00005,19 L9.00005,14 C9.00005,12.3431 10.3432,11 12.0001,11 C13.6569,11 15.0001,12.3431 15.0001,14 L15.0001,19 L18.0001,19 L18.0001,10.01 C18.0001,9.69295 18.1461,9.41003 18.3746,9.22486 L12.0001,4.26685 Z M12.0001,13 C11.4478,13 11.0001,13.4477 11.0001,14 L11.0001,19 L13.0001,19 L13.0001,14 C13.0001,13.4477 12.5523,13 12.0001,13 Z" id="形状" fill="#09244B"></path>
        </g>
    </g>
</svg>