<?xml version="1.0" encoding="UTF-8"?>
<svg width="24px" height="24px" viewBox="0 0 24 24" version="1.1" xmlns="http://www.w3.org/2000/svg" xmlns:xlink="http://www.w3.org/1999/xlink">
    <title>home_5_fill</title>
    <g id="页面-1" stroke="none" stroke-width="1" fill="none" fill-rule="evenodd">
        <g id="Building" transform="translate(-48.000000, -136.000000)">
            <g id="home_5_fill" transform="translate(48.000000, 136.000000)">
                <rect id="矩形" fill-rule="nonzero" x="0" y="0" width="24" height="24"></rect>
                <path d="M13.2279,2.68814 C12.5057,2.12641 11.4944,2.12641 10.7722,2.68814 L2.38841,9.20884 C1.63605,9.79401 2.04989,11 3.00297,11 L4.09506,11 L4.91497,19.199 C5.01721,20.2214 5.87754,21 6.90504,21 L17.0951,21 C18.1226,21 18.9829,20.2214 19.0851,19.199 L19.905,11 L20.9971,11 C21.9492,11 22.3648,9.79463 21.6117,9.20884 L13.2279,2.68814 Z M12.0001,16 C13.6569,16 15.0001,14.6569 15.0001,13 C15.0001,11.3431 13.6569,10 12.0001,10 C10.3432,10 9.00006,11.3431 9.00006,13 C9.00006,14.6569 10.3432,16 12.0001,16 Z" id="形状" fill="#09244B"></path>
            </g>
        </g>
    </g>
</svg>