<?xml version="1.0" encoding="UTF-8"?>
<svg width="24px" height="24px" viewBox="0 0 24 24" version="1.1" xmlns="http://www.w3.org/2000/svg" xmlns:xlink="http://www.w3.org/1999/xlink">
    <title>home_5_line</title>
    <g id="页面-1" stroke="none" stroke-width="1" fill="none" fill-rule="evenodd">
        <g id="Building" transform="translate(-48.000000, -96.000000)">
            <g id="home_5_line" transform="translate(48.000000, 96.000000)">
                <rect id="矩形" fill-rule="nonzero" x="0" y="0" width="24" height="24"></rect>
                <path d="M13.2279,2.68814 C12.5057,2.12641 11.4944,2.12641 10.7722,2.68814 L2.38841,9.20884 C1.63605,9.79401 2.04989,11 3.00297,11 L4.09506,11 L4.91497,19.199 C5.01721,20.2214 5.87754,21 6.90504,21 L17.0951,21 C18.1226,21 18.9829,20.2214 19.0851,19.199 L19.905,11 L20.9971,11 C21.9492,11 22.3648,9.79463 21.6117,9.20884 L13.2279,2.68814 Z M5.99599,9.90948 C5.96817,9.63134 5.82926,9.38895 5.62593,9.2245 L12.0001,4.26685 L18.3742,9.2245 C18.1708,9.38896 18.0319,9.63136 18.0041,9.90949 L17.0951,19 L6.90504,19 L5.99599,9.90948 Z M10.5001,13 C10.5001,12.1716 11.1716,11.5 12.0001,11.5 C12.8285,11.5 13.5001,12.1716 13.5001,13 C13.5001,13.8284 12.8285,14.5 12.0001,14.5 C11.1716,14.5 10.5001,13.8284 10.5001,13 Z M12.0001,9.49998 C10.0671,9.49998 8.50005,11.067 8.50005,13 C8.50005,14.933 10.0671,16.5 12.0001,16.5 C13.933,16.5 15.5001,14.933 15.5001,13 C15.5001,11.067 13.933,9.49998 12.0001,9.49998 Z" id="形状" fill="#09244B"></path>
            </g>
        </g>
    </g>
</svg>