<?xml version="1.0" encoding="UTF-8"?>
<svg width="24px" height="24px" viewBox="0 0 24 24" version="1.1" xmlns="http://www.w3.org/2000/svg" xmlns:xlink="http://www.w3.org/1999/xlink">
    <title>home_3_fill</title>
    <g id="页面-1" stroke="none" stroke-width="1" fill="none" fill-rule="evenodd">
        <g id="Building" transform="translate(-96.000000, -48.000000)" fill-rule="nonzero">
            <g id="home_3_fill" transform="translate(96.000000, 48.000000)">
                <rect id="矩形" x="0" y="0" width="24" height="24"></rect>
                <path d="M13.2279,2.68814 C12.5057,2.12641 11.4944,2.12641 10.7722,2.68814 L2.38841,9.20884 C1.63605,9.79401 2.04989,11 3.00297,11 L4.00005,11 L4.00005,19 C4.00005,20.1046 4.89548,21 6.00005,21 L9.99999915,21 L9.99999915,15 C9.99999915,13.8954 10.8954,13 11.9999991,13 C13.1046,13 13.9999991,13.8954 13.9999991,15 L13.9999991,21 L18.0001,21 C19.1046,21 20.0001,20.1046 20.0001,19 L20.0001,11 L20.9971,11 C21.9492,11 22.3648,9.79463 21.6117,9.20884 L13.2279,2.68814 Z" id="路径" fill="#09244B"></path>
            </g>
        </g>
    </g>
</svg>