<?xml version="1.0" encoding="UTF-8"?>
<svg width="24px" height="24px" viewBox="0 0 24 24" version="1.1" xmlns="http://www.w3.org/2000/svg" xmlns:xlink="http://www.w3.org/1999/xlink">
    <title>hospital_line</title>
    <g id="页面-1" stroke="none" stroke-width="1" fill="none" fill-rule="evenodd">
        <g id="Building" transform="translate(-384.000000, 0.000000)" fill-rule="nonzero">
            <g id="hospital_line" transform="translate(384.000000, 0.000000)">
                <rect id="矩形" x="0" y="0" width="24" height="24"></rect>
                <path d="M15,2 C16.1046,2 17,2.89543 17,4 L17,9 L19,9 C20.1046,9 21,9.89543 21,11 L21,20.9 C21,21.5075 20.5075,22 19.9,22 L4.1,22 C3.49249,22 3,21.5075 3,20.9 L3,4 C3,2.89543 3.89543,2 5,2 L15,2 Z M15,4 L5,4 L5,20 L7,20 L7,17 C7,15.3431 8.34315,14 10,14 C11.6569,14 13,15.3431 13,17 L13,20 L15,20 L15,4 Z M19,11 L17,11 L17,20 L19,20 L19,11 Z M10,16 C9.48716857,16 9.06449347,16.386027 9.0067278,16.8833761 L9,17 L9,20 L11,20 L11,17 C11,16.4477 10.5523,16 10,16 Z M10,6 C10.5523,6 11,6.44772 11,7 L11,8 L12,8 C12.5523,8 13,8.44772 13,9 C13,9.55228 12.5523,10 12,10 L11,10 L11,11 C11,11.5523 10.5523,12 10,12 C9.44772,12 9,11.5523 9,11 L9,10 L8,10 C7.44772,10 7,9.55228 7,9 C7,8.44772 7.44772,8 8,8 L9,8 L9,7 C9,6.44772 9.44772,6 10,6 Z" id="形状" fill="#09244B"></path>
            </g>
        </g>
    </g>
</svg>