<?xml version="1.0" encoding="UTF-8"?>
<svg width="24px" height="24px" viewBox="0 0 24 24" version="1.1" xmlns="http://www.w3.org/2000/svg" xmlns:xlink="http://www.w3.org/1999/xlink">
    <title>tower_5_fill</title>
    <g id="页面-1" stroke="none" stroke-width="1" fill="none" fill-rule="evenodd">
        <g id="Building" transform="translate(-336.000000, -136.000000)">
            <g id="tower_5_fill" transform="translate(336.000000, 136.000000)">
                 <path d="M24,0 L24,24 L0,24 L0,0 L24,0 Z M12.5934901,23.257841 L12.5819402,23.2595131 L12.5108777,23.2950439 L12.4918791,23.2987469 L12.4918791,23.2987469 L12.4767152,23.2950439 L12.4056548,23.2595131 C12.3958229,23.2563662 12.3870493,23.2590235 12.3821421,23.2649074 L12.3780323,23.275831 L12.360941,23.7031097 L12.3658947,23.7234994 L12.3769048,23.7357139 L12.4804777,23.8096931 L12.4953491,23.8136134 L12.4953491,23.8136134 L12.5071152,23.8096931 L12.6106902,23.7357139 L12.6232938,23.7196733 L12.6232938,23.7196733 L12.6266527,23.7031097 L12.609561,23.275831 C12.6075724,23.2657013 12.6010112,23.2592993 12.5934901,23.257841 L12.5934901,23.257841 Z M12.8583906,23.1452862 L12.8445485,23.1473072 L12.6598443,23.2396597 L12.6498822,23.2499052 L12.6498822,23.2499052 L12.6471943,23.2611114 L12.6650943,23.6906389 L12.6699349,23.7034178 L12.6699349,23.7034178 L12.678386,23.7104931 L12.8793402,23.8032389 C12.8914285,23.8068999 12.9022333,23.8029875 12.9078286,23.7952264 L12.9118235,23.7811639 L12.8776777,23.1665331 C12.8752882,23.1545897 12.8674102,23.1470016 12.8583906,23.1452862 L12.8583906,23.1452862 Z M12.1430473,23.1473072 C12.1332178,23.1423925 12.1221763,23.1452606 12.1156365,23.1525954 L12.1099173,23.1665331 L12.0757714,23.7811639 C12.0751323,23.7926639 12.0828099,23.8018602 12.0926481,23.8045676 L12.108256,23.8032389 L12.3092106,23.7104931 L12.3186497,23.7024347 L12.3186497,23.7024347 L12.3225043,23.6906389 L12.340401,23.2611114 L12.337245,23.2485176 L12.337245,23.2485176 L12.3277531,23.2396597 L12.1430473,23.1473072 Z" id="MingCute" fill-rule="nonzero"></path>
                <path d="M8,21 L8,9 C8,6.79493 8.68724,4.87998 9.43628,3.51808 C9.81109,2.83661 10.212,2.27408 10.572,1.86794 C10.9386,1.4543 11.4083,1 12,1 C12.5888,1 13.0623,1.45536 13.428,1.86794 C13.788,2.27408 14.1889,2.83661 14.5637,3.51808 C15.3128,4.87998 16,6.79493 16,9 L16,21 C16.5523,21 17,21.4477 17,22 C17,22.5523 16.5523,23 16,23 L8,23 C7.44772,23 7,22.5523 7,22 C7,21.4477 7.44772,21 8,21 Z M10,16.2072 C10,16.3398 10.0527,16.4669 10.1464,16.5607 L13.7929,20.2071 C13.8752,20.2895 14,20.2208 14,20.1044 L14,17.7929 C14,17.6603 13.9473,17.5332 13.8536,17.4394 L11.7678,15.3536 C11.5725,15.1583 11.5725,14.8418 11.7678,14.6465 L13.8536,12.5607 C13.9473,12.4669 14,12.3398 14,12.2072 L14,9.79294 C14,9.66033 13.9473,9.53315 13.8536,9.43938 L11.0604,6.64622 C10.798,6.38382 10.3535,6.48975 10.2649,6.85011 C10.1591,7.28082 10.0794,7.73474 10.0363,8.20703 C10.0232,8.35041 10.077,8.49125 10.1788,8.59305 L12.2322,10.6465 C12.4275,10.8418 12.4275,11.1583 12.2322,11.3536 L10.1464,13.4394 C10.0527,13.5332 10,13.6603 10,13.7929 L10,16.2072 Z" id="形状" fill="#09244B"></path>
            </g>
        </g>
    </g>
</svg>