<svg xmlns="http://www.w3.org/2000/svg" width="24" height="24"><g fill="none" fill-rule="evenodd"><path d="M24 0v24H0V0zM12.593 23.258l-.011.002-.071.035-.02.004-.014-.004-.071-.035c-.01-.004-.019-.001-.024.005l-.004.01-.017.428.005.02.01.013.104.074.015.004.012-.004.104-.074.012-.016.004-.017-.017-.427c-.002-.01-.009-.017-.017-.018m.265-.113-.013.002-.185.093-.01.01-.003.011.018.43.005.012.008.007.201.093c.012.004.023 0 .029-.008l.004-.014-.034-.614c-.003-.012-.01-.02-.02-.022m-.715.002a.023.023 0 0 0-.027.006l-.006.014-.034.614c0 .012.007.02.017.024l.015-.002.201-.093.01-.008.004-.011.017-.43-.003-.012-.01-.01z"/><path fill="#09244B" d="M8 21V9c0-2.205.687-4.12 1.436-5.482a9.25 9.25 0 0 1 1.136-1.65C10.939 1.454 11.408 1 12 1c.589 0 1.062.455 1.428.868.36.406.76.969 1.136 1.65C15.313 4.88 16 6.795 16 9v12a1 1 0 1 1 0 2H8a1 1 0 1 1 0-2m2-4.793a.5.5 0 0 0 .146.354l3.647 3.646c.082.082.207.014.207-.103v-2.311a.5.5 0 0 0-.146-.354l-2.086-2.085a.5.5 0 0 1 0-.707l2.086-2.086a.5.5 0 0 0 .146-.354V9.793a.5.5 0 0 0-.146-.354L11.06 6.646c-.262-.262-.707-.156-.795.204-.106.43-.186.885-.229 1.357a.485.485 0 0 0 .143.386l2.053 2.053a.5.5 0 0 1 0 .708l-2.086 2.085a.5.5 0 0 0-.146.354z"/></g></svg>