<?xml version="1.0" encoding="UTF-8"?>
<svg width="24px" height="24px" viewBox="0 0 24 24" version="1.1" xmlns="http://www.w3.org/2000/svg" xmlns:xlink="http://www.w3.org/1999/xlink">
    <title>lighthouse_line</title>
    <g id="页面-1" stroke="none" stroke-width="1" fill="none" fill-rule="evenodd">
        <g id="Building" transform="translate(-720.000000, 0.000000)">
            <g id="lighthouse_line" transform="translate(720.000000, 0.000000)">
                <rect id="矩形" fill-rule="nonzero" x="0" y="0" width="24" height="24"></rect>
                <path d="M12,7.99991 C12.5523,7.99991 13,7.55219 13,6.99991 C13,6.44762 12.5523,5.99991 12,5.99991 C11.4477,5.99991 11,6.44762 11,6.99991 C11,7.55219 11.4477,7.99991 12,7.99991 Z" id="路径" fill="#09244B" fill-rule="nonzero"></path>
                <path d="M12.8321,2.35275 L15.3485,4.03038 C15.7383,4.29025 15.9843,4.71731 16.0135,5.18489 L16.254,9.03244 C16.6833,9.14483 17,9.53538 17,9.99991 C17,10.4205 16.7403,10.7805 16.3725,10.9282 L16.9395,19.9999 L19,19.9999 C19.5523,19.9999 20,20.4476 20,20.9999 C20,21.5522 19.5523,21.9999 19,21.9999 L5,21.9999 C4.44772,21.9999 4,21.5522 4,20.9999 C4,20.4476 4.44772,19.9999 5,19.9999 L7.06055,19.9999 L7.62753,10.9282 C7.25971,10.7805 7,10.4205 7,9.99991 C7,9.53538 7.31673,9.14483 7.74602,9.03244 L7.98649,5.18489 C8.01571,4.71731 8.26171,4.29025 8.65152,4.03038 L11.1679,2.35275 C11.6718,2.01685 12.3282,2.01686 12.8321,2.35275 Z M14.373,10.9999 L9.62695,10.9999 L9.06445,19.9999 L14.9355,19.9999 L14.373,10.9999 Z M4.29289,8.2928 C4.68342,7.90227 5.31658,7.90227 5.70711,8.2928 C6.06759,8.65328 6.09531923,9.22051503 5.79029769,9.6128035 L5.70711,9.70701 L4.70711,10.707 C4.31658,11.0975 3.68342,11.0975 3.29289,10.707 C2.93241,10.3465385 2.90468077,9.77929633 3.20970231,9.38700666 L3.29289,9.2928 L4.29289,8.2928 Z M18.2929,8.2928 C18.6533615,7.93231077 19.2206207,7.90458083 19.6128973,8.20961018 L19.7071,8.2928 L20.7071,9.2928 C21.0976,9.68332 21.0976,10.3165 20.7071,10.707 C20.3466385,11.0674615 19.7793793,11.0951893 19.3871027,10.7901834 L19.2929,10.707 L18.2929,9.70701 C17.9024,9.31649 17.9024,8.68332 18.2929,8.2928 Z M12,4.20176 L9.96713,5.557 L9.75195,8.99991 L14.248,8.99991 L14.0329,5.557 L12,4.20176 Z M4.70711,4.2928 L5.70711,5.2928 C6.09763,5.68332 6.09763,6.31649 5.70711,6.70701 C5.31658,7.09754 4.68342,7.09754 4.29289,6.70701 L3.29289,5.70701 C2.90237,5.31649 2.90237,4.68332 3.29289,4.2928 C3.68342,3.90227 4.31658,3.90227 4.70711,4.2928 Z M20.7071,4.2928 C21.0976,4.68332 21.0976,5.31649 20.7071,5.70701 L19.7071,6.70701 C19.3166,7.09754 18.6834,7.09754 18.2929,6.70701 C17.9024,6.31649 17.9024,5.68332 18.2929,5.2928 L19.2929,4.2928 C19.6834,3.90227 20.3166,3.90227 20.7071,4.2928 Z" id="形状" fill="#09244B"></path>
            </g>
        </g>
    </g>
</svg>