<svg xmlns="http://www.w3.org/2000/svg" width="24" height="24"><g fill="none" fill-rule="evenodd"><path d="M24 0v24H0V0zM12.593 23.258l-.011.002-.071.035-.02.004-.014-.004-.071-.035c-.01-.004-.019-.001-.024.005l-.004.01-.017.428.005.02.01.013.104.074.015.004.012-.004.104-.074.012-.016.004-.017-.017-.427c-.002-.01-.009-.017-.017-.018m.265-.113-.013.002-.185.093-.01.01-.003.011.018.43.005.012.008.007.201.093c.012.004.023 0 .029-.008l.004-.014-.034-.614c-.003-.012-.01-.02-.02-.022m-.715.002a.023.023 0 0 0-.027.006l-.006.014-.034.614c0 .012.007.02.017.024l.015-.002.201-.093.01-.008.004-.011.017-.43-.003-.012-.01-.01z"/><path fill="#09244B" d="M13.193 2a4 4 0 0 1 3.991 3.734l.085 1.268a1 1 0 0 1 1.062.931l.333 5a1 1 0 0 1-.929 1.065l.12 1.802a3 3 0 0 1-2.482 3.157l.575 1.727A1 1 0 0 1 15 22H9a1 1 0 0 1-.949-1.316l.576-1.727A3 3 0 0 1 6.144 15.8l.12-1.802a1 1 0 0 1-.929-1.064l.334-5a1 1 0 0 1 1.062-.932l.084-1.268A4 4 0 0 1 10.806 2zm-1.671 8.553-1.124 3.653a1 1 0 0 0 .956 1.294h1.292a1 1 0 0 0 .956-1.294l-1.124-3.653a.5.5 0 0 0-.956 0M10 7h-.5a1 1 0 0 0-.117 1.993L9.5 9h.5a1 1 0 0 0 .116-1.993zm4.5 0H14a1 1 0 1 0 0 2h.5a1 1 0 0 0 0-2"/></g></svg>