<?xml version="1.0" encoding="UTF-8"?>
<svg width="24px" height="24px" viewBox="0 0 24 24" version="1.1" xmlns="http://www.w3.org/2000/svg" xmlns:xlink="http://www.w3.org/1999/xlink">
    <title>monument_line</title>
    <g id="页面-1" stroke="none" stroke-width="1" fill="none" fill-rule="evenodd">
        <g id="Building" transform="translate(-768.000000, 0.000000)">
            <g id="monument_line" transform="translate(768.000000, 0.000000)">
                <rect id="矩形" fill-rule="nonzero" x="0" y="0" width="24" height="24"></rect>
                <path d="M16,17 L16,5.23608 L16.8881,3.45986 C17.1997,2.83659 16.8015,2.09241 16.11,2.00598 L12.155,1.51161 C12.0521,1.49874 11.9479,1.49874 11.845,1.51161 L7.88999,2.00598 C7.19852,2.09241 6.80025,2.83657 7.11189,3.45986 L8,5.23608 L8,17 L6.25,17 C5.55964,17 5,17.5597 5,18.25 L5,20 L4,20 C3.44772,20 3,20.4477 3,21 C3,21.5523 3.44772,22 4,22 L20,22 C20.5523,22 21,21.5523 21,21 C21,20.4477 20.5523,20 20,20 L19,20 L19,18.25 C19,17.5597 18.4404,17 17.75,17 L16,17 Z M12,3.50779 L9.52652,3.81698 L9.78885,4.34165 C9.92771,4.61936 10,4.92558 10,5.23607 L10,17 L14,17 L14,5.23608 C14,4.92559 14.0723,4.61936 14.2111,4.34165 L14.4735,3.81698 L12,3.50779 Z M17,20 L17,19 L7,19 L7,20 L17,20 Z" id="形状" fill="#09244B"></path>
            </g>
        </g>
    </g>
</svg>