<?xml version="1.0" encoding="UTF-8"?>
<svg width="24px" height="24px" viewBox="0 0 24 24" version="1.1" xmlns="http://www.w3.org/2000/svg" xmlns:xlink="http://www.w3.org/1999/xlink">
    <title>monument_fill</title>
    <g id="页面-1" stroke="none" stroke-width="1" fill="none" fill-rule="evenodd">
        <g id="Building" transform="translate(-768.000000, -48.000000)" fill-rule="nonzero">
            <g id="monument_fill" transform="translate(768.000000, 48.000000)">
                <rect id="矩形" x="0" y="0" width="24" height="24"></rect>
                <path d="M16,5.23608 L16,17 L17.75,17 C18.4404,17 19,17.5597 19,18.25 L19,20 L20,20 C20.5523,20 21,20.4477 21,21 C21,21.5523 20.5523,22 20,22 L4,22 C3.44772,22 3,21.5523 3,21 C3,20.4477 3.44772,20 4,20 L5,20 L5,18.25 C5,17.5597 5.55964,17 6.25,17 L8,17 L8,5.23608 L7.11189,3.45986 C6.80025,2.83657 7.19852,2.09241 7.88999,2.00598 L11.845,1.51161 C11.9479,1.49874 12.0521,1.49874 12.155,1.51161 L16.11,2.00598 C16.8015,2.09241 17.1997,2.83659 16.8881,3.45986 L16,5.23608 Z" id="路径" fill="#09244B"></path>
            </g>
        </g>
    </g>
</svg>