<?xml version="1.0" encoding="UTF-8"?>
<svg width="24px" height="24px" viewBox="0 0 24 24" version="1.1" xmlns="http://www.w3.org/2000/svg" xmlns:xlink="http://www.w3.org/1999/xlink">
    <title>palace_2_fill</title>
    <g id="页面-1" stroke="none" stroke-width="1" fill="none" fill-rule="evenodd">
        <g id="Building" transform="translate(-96.000000, -136.000000)" fill-rule="nonzero">
            <g id="palace_2_fill" transform="translate(96.000000, 136.000000)">
                <rect id="矩形" x="0" y="0" width="24" height="24"></rect>
                <path d="M19.7048,15.8539 L19.1445,19.2161 C19.0079,20.0351 18.5352,21.008 17.4569,21.3668 L17.1733721,21.4547005 C17.1230154,21.4692497 17.071076,21.4837282 17.0175065,21.4981055 L16.6761489,21.5829139 C16.4350306,21.6383202 16.1663132,21.6911375 15.8669614,21.739422 L15.3945783,21.8082065 C14.7330881,21.8947385 13.9429895,21.9592526 13,21.9862 L13,20 C13,19.4477 12.5523,19 12,19 C11.4477,19 11,19.4477 11,20 L11,21.9862 C10.0570189,21.9592526 9.26692166,21.8947385 8.60542864,21.8082065 L8.13304281,21.739422 C7.83368863,21.6911375 7.56496804,21.6383202 7.32384612,21.5829139 L6.98248286,21.4981055 L6.98248286,21.4981055 L6.68024138,21.4108713 C6.6330015,21.3962111 6.58729684,21.3815105 6.54308,21.3668 C5.46486,21.008 4.99207,20.0351 4.85556,19.2161 L4.2952,15.8539 C4.66797,16.0001 5.03747,16.1152 5.36115,16.2078 C7.10203,16.7055 9.4489,17 12,17 C14.5511,17 16.898,16.7055 18.6389,16.2078 C18.9625,16.1152 19.332,16.0001 19.7048,15.8539 Z M12,2 C12.5523,2 13,2.44772 13,3 C13,4.3892 14.0107,5.13731 14.9472,5.60557 C15.2453727,5.75465636 15.5623041,5.8845995 15.8850521,6.01068333 L16.5344686,6.26223379 C17.1839711,6.51769562 17.8222273,6.79847727 18.3457,7.22685 C18.6466,7.47303 19,7.89002 19,8.5 C19,8.99411 18.8022,9.3809 18.53,9.67972 L18.9792303,9.80800843 L18.9792303,9.80800843 L19.2996107,9.90806026 L19.2996107,9.90806026 L19.6291047,10.0215866 C20.7906813,10.4443625 22,11.143925 22,12.4268 C22,13.6158714 20.9519388,14.3344837 19.8767711,14.7842402 L19.5544286,14.9113031 C19.5009096,14.9312032 19.4475781,14.9504815 19.3945617,14.9691633 L19.0812654,15.0742973 L19.0812654,15.0742973 L18.7816569,15.1663239 L18.7816569,15.1663239 L18.6389,15.2078 C16.898,15.7055 14.5511,16 12,16 C9.618964,16 7.41585244,15.7434578 5.71727857,15.3046036 L5.21837792,15.1663239 L5.21837792,15.1663239 L4.91876053,15.0742973 L4.91876053,15.0742973 L4.60545682,14.9691633 C4.55243931,14.9504815 4.49910678,14.9312032 4.44558683,14.9113031 L4.12323907,14.7842402 C3.04805612,14.3344837 2,13.6158714 2,12.4268 C2,11.143925 3.20931875,10.4443625 4.37087844,10.0215866 L4.70036716,9.90806026 L4.70036716,9.90806026 L5.02074128,9.80800843 L5.02074128,9.80800843 L5.46996,9.67972 L5.46996,9.67972 C5.19777,9.3809 5,8.99411 5,8.5 C5,7.89002 5.35343,7.47303 5.65427,7.22685 C6.17643364,6.79954636 6.81346702,6.51933992 7.46286348,6.26381335 L8.11258441,6.01197944 C8.43570884,5.88564182 8.75338182,5.75527273 9.05279,5.60557 C9.942484,5.160723 10.8991164,4.46330235 10.9925554,3.20361563 L11,3 C11,2.44772 11.4477,2 12,2 Z" id="形状" fill="#09244B"></path>
            </g>
        </g>
    </g>
</svg>