<?xml version="1.0" encoding="UTF-8"?>
<svg width="24px" height="24px" viewBox="0 0 24 24" version="1.1" xmlns="http://www.w3.org/2000/svg" xmlns:xlink="http://www.w3.org/1999/xlink">
    <title>pavilon_fill</title>
    <g id="页面-1" stroke="none" stroke-width="1" fill="none" fill-rule="evenodd">
        <g id="Building" transform="translate(-816.000000, -48.000000)">
            <g id="pavilon_fill" transform="translate(816.000000, 48.000000)">
                <rect id="矩形" fill-rule="nonzero" x="0" y="0" width="24" height="24"></rect>
                <path d="M12.9028,2.56981 C12.5303,1.82675 11.4694,1.82658 11.0968,2.56982 C10.1521,4.45417 9.13287,5.66566 7.8883,6.47653 C6.63458,7.29336 5.06061,7.76379 2.89958,8.00483 C2.30913,8.07069 1.92102,8.6191 2.01565,9.17758 C2.34598,11.1271 3.68037,12.1001 4.81996,12.5549 C4.87933,12.5786 4.93931,12.6016 4.99982,12.6237 L4.99982,19.9999 L3.99982,19.9999 C3.44753,19.9999 2.99982,20.4476 2.99982,20.9999 C2.99982,21.5522 3.44753,21.9999 3.99982,21.9999 L19.9998,21.9999 C20.5521,21.9999 20.9998,21.5522 20.9998,20.9999 C20.9998,20.4476 20.5521,19.9999 19.9998,19.9999 L18.9998,19.9999 L18.9998,12.6238 C19.0602,12.6017 19.1201,12.5787 19.1797,12.5549 C20.3192,12.1001 21.6536,11.1271 21.984,9.17758 C22.0786,8.61901 21.6904,8.07068 21.1,8.00483 C18.939,7.76379 17.365,7.29336 16.1113,6.47653 C14.8667,5.66565 13.8475,4.45417 12.9028,2.56981 Z M16.9998,12.9999 C16.9331,12.9999 16.5648,13 15.9998,13 L15.9998,19.9999 L16.9998,19.9999 L16.9998,12.9999 Z M13.9998,13 C12.7693,13 11.3259,12.9999 9.99982,12.9999 L9.99982,19.9999 L13.9998,19.9999 L13.9998,13 Z M7.99982,12.9999 C7.62871,12.9999 7.29118,12.9999 6.99982,12.9999 L6.99982,19.9999 L7.99982,19.9999 L7.99982,12.9999 Z" id="形状" fill="#09244B"></path>
            </g>
        </g>
    </g>
</svg>