<?xml version="1.0" encoding="UTF-8"?>
<svg width="24px" height="24px" viewBox="0 0 24 24" version="1.1" xmlns="http://www.w3.org/2000/svg" xmlns:xlink="http://www.w3.org/1999/xlink">
    <title>pavilon_line</title>
    <g id="页面-1" stroke="none" stroke-width="1" fill="none" fill-rule="evenodd">
        <g id="Building" transform="translate(-816.000000, 0.000000)">
            <g id="pavilon_line" transform="translate(816.000000, 0.000000)">
                <rect id="矩形" fill-rule="nonzero" x="0" y="0" width="24" height="24"></rect>
                <path d="M11.0968,2.57006 C11.4694,1.82682 12.5303,1.82699 12.9028,2.57006 C13.8475,4.45441 14.8667,5.6659 16.1113,6.47678 C17.365,7.2936 18.939,7.76404 21.1,8.00508 C21.6904,8.07093 22.0786,8.61925 21.984,9.17782 C21.6536,11.1273 20.3192,12.1004 19.1797,12.5552 C19.1193,12.5793 19.0593,12.602 18.9998,12.6235 L18.9998,12.6235 L18.9998,20.0001 L19.9998,20.0001 C20.5521,20.0001 20.9998,20.4478 20.9998,21.0001 C20.9998,21.5524 20.5521,22.0001 19.9998,22.0001 L19.9998,22.0001 L3.99981,22.0001 C3.44752,22.0001 2.99981,21.5524 2.99981,21.0001 C2.99981,20.4478 3.44752,20.0001 3.99981,20.0001 L3.99981,20.0001 L4.99981,20.0001 L4.99981,12.6235 C4.94028,12.602 4.88028,12.5793 4.81996,12.5552 C3.68037,12.1004 2.34598,11.1273 2.01565,9.17782 C1.92102,8.61934 2.30913,8.07094 2.89958,8.00508 C5.06061,7.76404 6.63459,7.2936 7.8883,6.47678 C9.13287,5.6659 10.1521,4.45442 11.0968,2.57006 Z M7.99981,13.0001 L6.99981,13.0001 L6.99981,20.0001 L7.99981,20.0001 L7.99981,13.0001 Z M13.9998,13.0001 L9.99981,13.0001 L9.99981,20.0001 L13.9998,20.0001 L13.9998,13.0001 Z M16.9998,13.0001 L15.9998,13.0001 L15.9998,20.0001 L16.9998,20.0001 L16.9998,13.0001 Z M11.9998,5.02802 C11.1483,6.34832 10.1708,7.37667 8.98007,8.15249 C7.66461,9.00956 6.14883,9.51901 4.37572,9.81873 C4.67758,10.2461 5.10631,10.5161 5.56133,10.6977 C6.01397,10.8783 6.51424,10.9891 7.00338,11.0001 L7.00338,11.0001 L17.0108,10.9998 C17.4952,10.986 17.9896,10.8768 18.4383,10.6977 C18.8933,10.5161 19.322,10.2461 19.6239,9.81873 C17.8508,9.51901 16.335,9.00955 15.0195,8.15249 C13.8288,7.37667 12.8513,6.34832 11.9998,5.02802 Z" id="形状结合" fill="#09244B"></path>
            </g>
        </g>
    </g>
</svg>