<?xml version="1.0" encoding="UTF-8"?>
<svg width="24px" height="24px" viewBox="0 0 24 24" version="1.1" xmlns="http://www.w3.org/2000/svg" xmlns:xlink="http://www.w3.org/1999/xlink">
    <title>school_line</title>
    <g id="页面-1" stroke="none" stroke-width="1" fill="none" fill-rule="evenodd">
        <g id="Building" transform="translate(-432.000000, 0.000000)">
            <g id="school_line" transform="translate(432.000000, 0.000000)">
                <rect id="矩形" fill-rule="nonzero" x="0" y="0" width="24" height="24"></rect>
                <path d="M11.063,2.46883 C11.5716714,2.06187429 12.2791765,2.03280602 12.8162528,2.3816252 L12.937,2.46883 L17.2494,5.91871 C17.67636,6.260305 17.942778,6.7599067 17.991792,7.29932962 L18,7.48045 L18,10 L20,10 C21.0543909,10 21.9181678,10.81585 21.9945144,11.8507339 L22,12 L22,19.9 C22,20.467 21.5709778,20.9338222 21.0198548,20.9935452 L20.9,21 L3.1,21 C2.53299067,21 2.06617653,20.5709778 2.00645469,20.0198548 L2,19.9 L2,12 C2,10.9456091 2.81587733,10.0818322 3.85073759,10.0054856 L4,10 L6,10 L6,7.48045 C6,6.933637 6.2237058,6.4135135 6.61430643,6.03826498 L6.75061,5.91871 L11.063,2.46883 Z M12,4.28045 L8,7.48045 L8,18.9998 L16,18.9998 L16,7.48045 L12,4.28045 Z M20,12 L18,12 L18,19 L20,19 L20,12 Z M6,12 L4,12 L4,19 L6,19 L6,12 Z M12,8 C13.6569,8 15,9.34315 15,11 C15,12.6569 13.6569,14 12,14 C10.3431,14 9,12.6569 9,11 C9,9.34315 10.3431,8 12,8 Z M12,10 C11.4477,10 11,10.4477 11,11 C11,11.5523 11.4477,12 12,12 C12.5523,12 13,11.5523 13,11 C13,10.4477 12.5523,10 12,10 Z" id="形状" fill="#09244B"></path>
            </g>
        </g>
    </g>
</svg>