<?xml version="1.0" encoding="UTF-8"?>
<svg width="24px" height="24px" viewBox="0 0 24 24" version="1.1" xmlns="http://www.w3.org/2000/svg" xmlns:xlink="http://www.w3.org/1999/xlink">
    <title>school_fill</title>
    <g id="页面-1" stroke="none" stroke-width="1" fill="none" fill-rule="evenodd">
        <g id="Building" transform="translate(-432.000000, -48.000000)">
            <g id="school_fill" transform="translate(432.000000, 48.000000)">
                <rect id="矩形" fill-rule="nonzero" x="0" y="0" width="24" height="24"></rect>
                <path d="M11.063,2.46883 C11.5716714,2.06187429 12.2791765,2.03280602 12.8162528,2.3816252 L12.937,2.46883 L17.2494,5.91871 C17.67636,6.260305 17.942778,6.7599067 17.991792,7.29932962 L18,7.48045 L18,18.9999 L19,18.9999 L19,10.4999 C19,10.2543889 19.1769086,10.0502644 19.4101355,10.0079345 L19.5,9.99988 L20,9.99988 C21.0543909,9.99988 21.9181678,10.8157482 21.9945144,11.8506337 L22,11.9999 L22,19.8999 C22,20.4669 21.5709778,20.9337222 21.0198548,20.9934452 L20.9,20.9999 L3.1,20.9999 C2.53299067,20.9999 2.06617653,20.5708778 2.00645469,20.0197548 L2,19.8999 L2,11.9999 C2,10.9455091 2.81587733,10.081714 3.85073759,10.0053657 L4,9.99988 L4.5,9.99988 C4.74545778,9.99988 4.9496079,10.1767254 4.99194425,10.4100085 L5,10.4999 L5,18.9999 L6,18.9999 L6,7.48045 C6,6.933637 6.2237058,6.4135135 6.61430643,6.03826498 L6.75061,5.91871 L11.063,2.46883 Z M12,8.99988 C10.8954,8.99988 10,9.89531 10,10.9999 C10,12.1044 10.8954,12.9999 12,12.9999 C13.1046,12.9999 14,12.1044 14,10.9999 C14,9.89531 13.1046,8.99988 12,8.99988 Z" id="形状" fill="#09244B"></path>
            </g>
        </g>
    </g>
</svg>