<?xml version="1.0" encoding="UTF-8"?>
<svg width="24px" height="24px" viewBox="0 0 24 24" version="1.1" xmlns="http://www.w3.org/2000/svg" xmlns:xlink="http://www.w3.org/1999/xlink">
    <title>school_line</title>
    <g id="页面-1" stroke="none" stroke-width="1" fill="none" fill-rule="evenodd">
        <g id="Building" transform="translate(-432.000000, 0.000000)">
            <g id="school_line" transform="translate(432.000000, 0.000000)">
                 <path d="M24,0 L24,24 L0,24 L0,0 L24,0 Z M12.5934901,23.257841 L12.5819402,23.2595131 L12.5108777,23.2950439 L12.4918791,23.2987469 L12.4918791,23.2987469 L12.4767152,23.2950439 L12.4056548,23.2595131 C12.3958229,23.2563662 12.3870493,23.2590235 12.3821421,23.2649074 L12.3780323,23.275831 L12.360941,23.7031097 L12.3658947,23.7234994 L12.3769048,23.7357139 L12.4804777,23.8096931 L12.4953491,23.8136134 L12.4953491,23.8136134 L12.5071152,23.8096931 L12.6106902,23.7357139 L12.6232938,23.7196733 L12.6232938,23.7196733 L12.6266527,23.7031097 L12.609561,23.275831 C12.6075724,23.2657013 12.6010112,23.2592993 12.5934901,23.257841 L12.5934901,23.257841 Z M12.8583906,23.1452862 L12.8445485,23.1473072 L12.6598443,23.2396597 L12.6498822,23.2499052 L12.6498822,23.2499052 L12.6471943,23.2611114 L12.6650943,23.6906389 L12.6699349,23.7034178 L12.6699349,23.7034178 L12.678386,23.7104931 L12.8793402,23.8032389 C12.8914285,23.8068999 12.9022333,23.8029875 12.9078286,23.7952264 L12.9118235,23.7811639 L12.8776777,23.1665331 C12.8752882,23.1545897 12.8674102,23.1470016 12.8583906,23.1452862 L12.8583906,23.1452862 Z M12.1430473,23.1473072 C12.1332178,23.1423925 12.1221763,23.1452606 12.1156365,23.1525954 L12.1099173,23.1665331 L12.0757714,23.7811639 C12.0751323,23.7926639 12.0828099,23.8018602 12.0926481,23.8045676 L12.108256,23.8032389 L12.3092106,23.7104931 L12.3186497,23.7024347 L12.3186497,23.7024347 L12.3225043,23.6906389 L12.340401,23.2611114 L12.337245,23.2485176 L12.337245,23.2485176 L12.3277531,23.2396597 L12.1430473,23.1473072 Z" id="MingCute" fill-rule="nonzero"></path>
                <path d="M11.063,2.46883 C11.5716714,2.06187429 12.2791765,2.03280602 12.8162528,2.3816252 L12.937,2.46883 L17.2494,5.91871 C17.67636,6.260305 17.942778,6.7599067 17.991792,7.29932962 L18,7.48045 L18,10 L20,10 C21.0543909,10 21.9181678,10.81585 21.9945144,11.8507339 L22,12 L22,19.9 C22,20.467 21.5709778,20.9338222 21.0198548,20.9935452 L20.9,21 L3.1,21 C2.53299067,21 2.06617653,20.5709778 2.00645469,20.0198548 L2,19.9 L2,12 C2,10.9456091 2.81587733,10.0818322 3.85073759,10.0054856 L4,10 L6,10 L6,7.48045 C6,6.933637 6.2237058,6.4135135 6.61430643,6.03826498 L6.75061,5.91871 L11.063,2.46883 Z M12,4.28045 L8,7.48045 L8,18.9998 L16,18.9998 L16,7.48045 L12,4.28045 Z M20,12 L18,12 L18,19 L20,19 L20,12 Z M6,12 L4,12 L4,19 L6,19 L6,12 Z M12,8 C13.6569,8 15,9.34315 15,11 C15,12.6569 13.6569,14 12,14 C10.3431,14 9,12.6569 9,11 C9,9.34315 10.3431,8 12,8 Z M12,10 C11.4477,10 11,10.4477 11,11 C11,11.5523 11.4477,12 12,12 C12.5523,12 13,11.5523 13,11 C13,10.4477 12.5523,10 12,10 Z" id="形状" fill="#09244B"></path>
            </g>
        </g>
    </g>
</svg>