<?xml version="1.0" encoding="UTF-8"?>
<svg width="24px" height="24px" viewBox="0 0 24 24" version="1.1" xmlns="http://www.w3.org/2000/svg" xmlns:xlink="http://www.w3.org/1999/xlink">
    <title>store_2_line</title>
    <g id="页面-1" stroke="none" stroke-width="1" fill="none" fill-rule="evenodd">
        <g id="Building" transform="translate(-432.000000, -96.000000)">
            <g id="store_2_line" transform="translate(432.000000, 96.000000)">
                 <path d="M24,0 L24,24 L0,24 L0,0 L24,0 Z M12.5934901,23.257841 L12.5819402,23.2595131 L12.5108777,23.2950439 L12.4918791,23.2987469 L12.4918791,23.2987469 L12.4767152,23.2950439 L12.4056548,23.2595131 C12.3958229,23.2563662 12.3870493,23.2590235 12.3821421,23.2649074 L12.3780323,23.275831 L12.360941,23.7031097 L12.3658947,23.7234994 L12.3769048,23.7357139 L12.4804777,23.8096931 L12.4953491,23.8136134 L12.4953491,23.8136134 L12.5071152,23.8096931 L12.6106902,23.7357139 L12.6232938,23.7196733 L12.6232938,23.7196733 L12.6266527,23.7031097 L12.609561,23.275831 C12.6075724,23.2657013 12.6010112,23.2592993 12.5934901,23.257841 L12.5934901,23.257841 Z M12.8583906,23.1452862 L12.8445485,23.1473072 L12.6598443,23.2396597 L12.6498822,23.2499052 L12.6498822,23.2499052 L12.6471943,23.2611114 L12.6650943,23.6906389 L12.6699349,23.7034178 L12.6699349,23.7034178 L12.678386,23.7104931 L12.8793402,23.8032389 C12.8914285,23.8068999 12.9022333,23.8029875 12.9078286,23.7952264 L12.9118235,23.7811639 L12.8776777,23.1665331 C12.8752882,23.1545897 12.8674102,23.1470016 12.8583906,23.1452862 L12.8583906,23.1452862 Z M12.1430473,23.1473072 C12.1332178,23.1423925 12.1221763,23.1452606 12.1156365,23.1525954 L12.1099173,23.1665331 L12.0757714,23.7811639 C12.0751323,23.7926639 12.0828099,23.8018602 12.0926481,23.8045676 L12.108256,23.8032389 L12.3092106,23.7104931 L12.3186497,23.7024347 L12.3186497,23.7024347 L12.3225043,23.6906389 L12.340401,23.2611114 L12.337245,23.2485176 L12.337245,23.2485176 L12.3277531,23.2396597 L12.1430473,23.1473072 Z" id="MingCute" fill-rule="nonzero"></path>
                <path d="M2,5 C2,3.34315 3.34315,2 5,2 L18,2 C19.6569,2 21,3.34315 21,5 L21,18 C21,19.6569 19.6569,21 18,21 L5,21 C3.34315,21 2,19.6569 2,18 L2,5 Z M19,5 L19,6 C19,7.10457 18.1046,8 17,8 C15.8954,8 15,7.10457 15,6 C15,5.44772 14.5523,5 14,5 C13.4477,5 13,5.44772 13,6 L13,6.5 C13,7.32843 12.3284,8 11.5,8 C10.6716,8 10,7.32843 10,6.5 L10,6 C10,5.44772 9.55228,5 9,5 C8.44772,5 8,5.44772 8,6 C8,7.10457 7.10457,8 6,8 C4.89543,8 4,7.10457 4,6 L4,5 C4,4.44772 4.44772,4 5,4 L18,4 C18.5523,4 19,4.44772 19,5 Z M17,10 C15.8796,10 14.8669,9.53938 14.1407,8.7972 C13.499,9.53418 12.5539,10 11.5,10 C10.4461,10 9.50097,9.53418 8.85931,8.7972 C8.13315,9.53939 7.12037,10 6,10 C5.27143,10 4.58835,9.80521 4,9.46487 L4,18 C4,18.5523 4.44772,19 5,19 L8,19 L8,15 C8,13.3431 9.34315,12 11,12 L12,12 C13.6569,12 15,13.3431 15,15 L15,19 L18,19 C18.5523,19 19,18.5523 19,18 L19,9.46487 C18.4117,9.80521 17.7286,10 17,10 Z M13,19 L13,15 C13,14.4477 12.5523,14 12,14 L11,14 C10.4477,14 10,14.4477 10,15 L10,19 L13,19 Z" id="形状" fill="#09244B"></path>
            </g>
        </g>
    </g>
</svg>