<?xml version="1.0" encoding="UTF-8"?>
<svg width="24px" height="24px" viewBox="0 0 24 24" version="1.1" xmlns="http://www.w3.org/2000/svg" xmlns:xlink="http://www.w3.org/1999/xlink">
    <title>sydney_opera_house_line</title>
    <g id="页面-1" stroke="none" stroke-width="1" fill="none" fill-rule="evenodd">
        <g id="Building" transform="translate(-288.000000, -192.000000)" fill-rule="nonzero">
            <g id="sydney_opera_house_line" transform="translate(288.000000, 192.000000)">
                 <path d="M24,0 L24,24 L0,24 L0,0 L24,0 Z M12.5934901,23.257841 L12.5819402,23.2595131 L12.5108777,23.2950439 L12.4918791,23.2987469 L12.4918791,23.2987469 L12.4767152,23.2950439 L12.4056548,23.2595131 C12.3958229,23.2563662 12.3870493,23.2590235 12.3821421,23.2649074 L12.3780323,23.275831 L12.360941,23.7031097 L12.3658947,23.7234994 L12.3769048,23.7357139 L12.4804777,23.8096931 L12.4953491,23.8136134 L12.4953491,23.8136134 L12.5071152,23.8096931 L12.6106902,23.7357139 L12.6232938,23.7196733 L12.6232938,23.7196733 L12.6266527,23.7031097 L12.609561,23.275831 C12.6075724,23.2657013 12.6010112,23.2592993 12.5934901,23.257841 L12.5934901,23.257841 Z M12.8583906,23.1452862 L12.8445485,23.1473072 L12.6598443,23.2396597 L12.6498822,23.2499052 L12.6498822,23.2499052 L12.6471943,23.2611114 L12.6650943,23.6906389 L12.6699349,23.7034178 L12.6699349,23.7034178 L12.678386,23.7104931 L12.8793402,23.8032389 C12.8914285,23.8068999 12.9022333,23.8029875 12.9078286,23.7952264 L12.9118235,23.7811639 L12.8776777,23.1665331 C12.8752882,23.1545897 12.8674102,23.1470016 12.8583906,23.1452862 L12.8583906,23.1452862 Z M12.1430473,23.1473072 C12.1332178,23.1423925 12.1221763,23.1452606 12.1156365,23.1525954 L12.1099173,23.1665331 L12.0757714,23.7811639 C12.0751323,23.7926639 12.0828099,23.8018602 12.0926481,23.8045676 L12.108256,23.8032389 L12.3092106,23.7104931 L12.3186497,23.7024347 L12.3186497,23.7024347 L12.3225043,23.6906389 L12.340401,23.2611114 L12.337245,23.2485176 L12.337245,23.2485176 L12.3277531,23.2396597 L12.1430473,23.1473072 Z" id="MingCute" fill-rule="nonzero"></path>
                <path d="M1.99996,19.0001 C1.44767,19.0001 0.999958,18.5523 0.999958,18.0001 C0.999958,17.4872 1.386,17.0646 1.88334,17.0068 L3.04408,17.0014 C3.03117,15.0954 2.46559,13.1209 1.23174,11.6402 C0.688964,10.9889 1.15212,10.0001 1.99996,10.0001 C3.47556,10.0001 4.8378,10.4113 6.05663,11.0953 C5.76965,9.49543 5.21712,7.90809 4.21061,6.614 C3.68872,5.943 4.18896,4.96813 5.03839,5.0008 C10.489,5.21044 13.9795,7.27744 15.7636,10.6304 C17.6496,9.54987 19.8301,9.00006 22,9.00006 C22.824,9.00006 23.2944,9.94081 22.8,10.6001 C21.1724,12.7702 20.6868,15.0307 20.8632,17.0009 L22,17.0001 C22.5522,17.0001 23,17.4478 23,18.0001 C23,18.5129 22.6139,18.9356 22.1166,18.9933 L1.99996,19.0001 Z M4.02696,12.3581 C4.70987,13.7986 5.03781,15.4105 5.04477,17.0011 L6.14205,17 C6.28482,15.9164 6.34478,14.82 6.31722,13.7273 C5.61303,13.146 4.88282,12.6888 4.02696,12.3581 Z M6.89296,7.17006 C7.35217,8.11281 7.66584,9.11329 7.90391,10.133 C8.39915,12.3939 8.41956,14.7746 8.15845,17.0006 L15.096,17.0016 C15.1814,15.5332 14.9963,13.9014 14.3715,12.3692 C13.0894,9.22475 10.1357,7.62832 6.89296,7.17006 Z M20.085,11.1681 L20.0749,11.1704 C18.8387,11.3929 17.6097,11.8363 16.5397,12.5001 C17.0252,14.026 17.1713,15.5709 17.0992,17.0012 L18.8565,17.0003 C18.7073,14.9622 19.1827,12.9869 20.085,11.1681 Z" id="形状" fill="#09244B"></path>
            </g>
        </g>
    </g>
</svg>