<?xml version="1.0" encoding="UTF-8"?>
<svg width="24px" height="24px" viewBox="0 0 24 24" version="1.1" xmlns="http://www.w3.org/2000/svg" xmlns:xlink="http://www.w3.org/1999/xlink">
    <title>tower_2_fill</title>
    <g id="页面-1" stroke="none" stroke-width="1" fill="none" fill-rule="evenodd">
        <g id="Building" transform="translate(-192.000000, -136.000000)">
            <g id="tower_2_fill" transform="translate(192.000000, 136.000000)">
                <rect id="矩形" fill-rule="nonzero" x="0" y="0" width="24" height="24"></rect>
                <path d="M12.0001,1 C12.5524,1 13.0001,1.44772 13.0001,2 L13.0001,4.17071 C14.1653,4.58254 15.0001,5.69378 15.0001,7 C15.0001,7.84679 14.6493,8.61164 14.085,9.15712 L14.8702,11.9053 C16.1582,12.8098 17.0001,14.3066 17.0001,16 C17.0001,17.0614 16.6694,18.0456 16.1053,18.8551 L17.8322,21.4453 C18.1385,21.9048 18.0143,22.5257 17.5548,22.8321 C17.0953,23.1384 16.4744,23.0142 16.1681,22.5547 L14.6327,20.2516 C14.1392,20.5579 13.5884,20.7806 13.0001,20.9 L13.0001,22 C13.0001,22.5523 12.5524,23.0001099 12.0001,23.0001099 C11.4478,23.0001099 11.0001,22.5523 11.0001,22 L11.0001,20.9 C10.4118,20.7806 9.86105,20.5579 9.36753,20.2516 L7.83216,22.5547 C7.5258,23.0142 6.90493,23.1384 6.44541,22.8321 C5.98588,22.5257 5.8617,21.9048 6.16806,21.4453 L7.89487,18.8551 C7.33084,18.0456 7.00011,17.0614 7.00011,16 C7.00011,14.3066 7.84197,12.8098 9.13001,11.9053 L9.9152,9.15712 C9.35095,8.61164 9.00011,7.84679 9.00011,7 C9.00011,5.69378 9.83491,4.58254 11.0001,4.17071 L11.0001,2 C11.0001,1.44772 11.4478,1 12.0001,1 Z M11.7572,9.99031 L11.4605,11.0288 C11.815,10.9907 12.1852,10.9907 12.5397,11.0288 L12.243,9.99031 C12.0828,10.0031 11.9174,10.0031 11.7572,9.99031 Z M14.5963,14.4957 C13.8834,14.7459 12.9164,15 12.0001,15 C11.0838,15 10.1169,14.7459 9.40391,14.4957 C9.05763,15.0921 8.92872,15.8032 9.03881,16.4831 C9.82977,16.7393 10.8984,17 12.0001,17 C13.1018,17 14.1704,16.7393 14.9614,16.4831 C15.0715,15.8032 14.9426,15.0921 14.5963,14.4957 Z" id="形状" fill="#09244B"></path>
            </g>
        </g>
    </g>
</svg>