<?xml version="1.0" encoding="UTF-8"?>
<svg width="24px" height="24px" viewBox="0 0 24 24" version="1.1" xmlns="http://www.w3.org/2000/svg" xmlns:xlink="http://www.w3.org/1999/xlink">
    <title>tower_2_line</title>
    <g id="页面-1" stroke="none" stroke-width="1" fill="none" fill-rule="evenodd">
        <g id="Building" transform="translate(-192.000000, -96.000000)">
            <g id="tower_2_line" transform="translate(192.000000, 96.000000)">
                <rect id="矩形" fill-rule="nonzero" x="0" y="0" width="24" height="24"></rect>
                <path d="M13.0001,2 C13.0001,1.44772 12.5524,1 12.0001,1 C11.4478,1 11.0001,1.44772 11.0001,2 L11.0001,4.17071 C9.83491,4.58254 9.00011,5.69378 9.00011,7 C9.00011,7.84679 9.35095,8.61164 9.9152,9.15712 L9.13001,11.9053 C7.84197,12.8098 7.00011,14.3066 7.00011,16 C7.00011,17.0614 7.33084,18.0456 7.89487,18.8551 L6.16806,21.4453 C5.8617,21.9048 5.98588,22.5257 6.44541,22.8321 C6.90493,23.1384 7.5258,23.0142 7.83216,22.5547 L9.36753,20.2516 C9.86105,20.5579 10.4118,20.7806 11.0001,20.9 L11.0001,22 C11.0001,22.5523 11.4478,23.0001099 12.0001,23.0001099 C12.5524,23.0001099 13.0001,22.5523 13.0001,22 L13.0001,20.9 C13.5884,20.7806 14.1392,20.5579 14.6327,20.2516 L16.1681,22.5547 C16.4744,23.0142 17.0953,23.1384 17.5548,22.8321 C18.0143,22.5257 18.1385,21.9048 17.8322,21.4453 L16.1053,18.8551 C16.6694,18.0456 17.0001,17.0614 17.0001,16 C17.0001,14.3066 16.1582,12.8098 14.8702,11.9053 L14.085,9.15712 C14.6493,8.61164 15.0001,7.84679 15.0001,7 C15.0001,5.69378 14.1653,4.58254 13.0001,4.17071 L13.0001,2 Z M14.9614,16.4832 C14.7303,17.9103 13.4925,19 12.0001,19 C10.5077,19 9.26987,17.9103 9.03881,16.4832 C9.82977,16.7393 10.8984,17 12.0001,17 C13.1018,17 14.1704,16.7393 14.9614,16.4832 Z M14.5963,14.4958 C13.8833,14.7459 12.9164,15 12.0001,15 C11.0838,15 10.1169,14.7459 9.40392,14.4958 C9.92323,13.6014 10.8914,13 12.0001,13 C13.1088,13 14.077,13.6014 14.5963,14.4958 Z M11.7572,9.99031 C11.9174,10.0031 12.0828,10.0031 12.243,9.99031 L12.5397,11.0288 C12.1852,10.9907 11.815,10.9907 11.4605,11.0288 L11.7572,9.99031 Z M12.0001,6 C11.4478,6 11.0001,6.44772 11.0001,7 C11.0001,7.55228 11.4478,8 12.0001,8 C12.5524,8 13.0001,7.55228 13.0001,7 C13.0001,6.44772 12.5524,6 12.0001,6 Z" id="形状" fill="#09244B"></path>
            </g>
        </g>
    </g>
</svg>