<?xml version="1.0" encoding="UTF-8"?>
<svg width="24px" height="24px" viewBox="0 0 24 24" version="1.1" xmlns="http://www.w3.org/2000/svg" xmlns:xlink="http://www.w3.org/1999/xlink">
    <title>tower_5_fill</title>
    <g id="页面-1" stroke="none" stroke-width="1" fill="none" fill-rule="evenodd">
        <g id="Building" transform="translate(-336.000000, -136.000000)">
            <g id="tower_5_fill" transform="translate(336.000000, 136.000000)">
                <rect id="矩形" fill-rule="nonzero" x="0" y="0" width="24" height="24"></rect>
                <path d="M8,21 L8,9 C8,6.79493 8.68724,4.87998 9.43628,3.51808 C9.81109,2.83661 10.212,2.27408 10.572,1.86794 C10.9386,1.4543 11.4083,1 12,1 C12.5888,1 13.0623,1.45536 13.428,1.86794 C13.788,2.27408 14.1889,2.83661 14.5637,3.51808 C15.3128,4.87998 16,6.79493 16,9 L16,21 C16.5523,21 17,21.4477 17,22 C17,22.5523 16.5523,23 16,23 L8,23 C7.44772,23 7,22.5523 7,22 C7,21.4477 7.44772,21 8,21 Z M10,16.2072 C10,16.3398 10.0527,16.4669 10.1464,16.5607 L13.7929,20.2071 C13.8752,20.2895 14,20.2208 14,20.1044 L14,17.7929 C14,17.6603 13.9473,17.5332 13.8536,17.4394 L11.7678,15.3536 C11.5725,15.1583 11.5725,14.8418 11.7678,14.6465 L13.8536,12.5607 C13.9473,12.4669 14,12.3398 14,12.2072 L14,9.79294 C14,9.66033 13.9473,9.53315 13.8536,9.43938 L11.0604,6.64622 C10.798,6.38382 10.3535,6.48975 10.2649,6.85011 C10.1591,7.28082 10.0794,7.73474 10.0363,8.20703 C10.0232,8.35041 10.077,8.49125 10.1788,8.59305 L12.2322,10.6465 C12.4275,10.8418 12.4275,11.1583 12.2322,11.3536 L10.1464,13.4394 C10.0527,13.5332 10,13.6603 10,13.7929 L10,16.2072 Z" id="形状" fill="#09244B"></path>
            </g>
        </g>
    </g>
</svg>