<?xml version="1.0" encoding="UTF-8"?>
<svg width="24px" height="24px" viewBox="0 0 24 24" version="1.1" xmlns="http://www.w3.org/2000/svg" xmlns:xlink="http://www.w3.org/1999/xlink">
    <title>tower_5_line</title>
    <g id="页面-1" stroke="none" stroke-width="1" fill="none" fill-rule="evenodd">
        <g id="Building" transform="translate(-336.000000, -96.000000)">
            <g id="tower_5_line" transform="translate(336.000000, 96.000000)">
                <rect id="矩形" fill-rule="nonzero" x="0" y="0" width="24" height="24"></rect>
                <path d="M8,9 L8,21 C7.44772,21 7,21.4477 7,22 C7,22.5523 7.44772,23 8,23 L16,23 C16.5523,23 17,22.5523 17,22 C17,21.4477 16.5523,21 16,21 L16,9 C16,6.79493 15.3128,4.87998 14.5637,3.51808 C14.1889,2.83661 13.788,2.27408 13.428,1.86794 C13.0623,1.45536 12.5888,1 12,1 C11.4083,1 10.9386,1.4543 10.572,1.86794 C10.212,2.27408 9.81109,2.83661 9.43628,3.51808 C8.68724,4.87998 8,6.79493 8,9 Z M10.0186,8.43283 C10.0064,8.61931 10,8.80846 10,9 L10,13.5858 L12.5858,11 L10.0186,8.43283 Z M10.4901,6.07589 L14,9.58579 L14,9 C14,7.20507 13.4372,5.62002 12.8113,4.48192 C12.5266,3.96435 12.2377,3.5554 12,3.27396 C11.7623,3.5554 11.4734,3.96435 11.1887,4.48192 C10.9342,4.94467 10.6901,5.4813 10.4901,6.07589 Z M14,12.4142 L11.4142,15 L14,17.5858 L14,12.4142 Z M14,20.3663 C13.926,20.3235 13.8562,20.2705 13.7929,20.2071 L10,16.4142 L10,21 L14,21 L14,20.3663 Z" id="形状" fill="#09244B"></path>
            </g>
        </g>
    </g>
</svg>