<?xml version="1.0" encoding="UTF-8"?>
<svg width="24px" height="24px" viewBox="0 0 24 24" version="1.1" xmlns="http://www.w3.org/2000/svg" xmlns:xlink="http://www.w3.org/1999/xlink">
    <title>tower_3_fill</title>
    <g id="页面-1" stroke="none" stroke-width="1" fill="none" fill-rule="evenodd">
        <g id="Building" transform="translate(-240.000000, -136.000000)" fill-rule="nonzero">
            <g id="tower_3_fill" transform="translate(240.000000, 136.000000)">
                <rect id="矩形" x="0" y="0" width="24" height="24"></rect>
                <path d="M13,2 C13,1.44772 12.5523,1 12,1 C11.4477,1 11,1.44772 11,2 L11,4 L9.01281,4 C8.39599,4 7.86629,4.57742 8.03194,5.25098 C8.08812,5.4794 9,9.25433 9,13 C9,14.9244 8.7587,16.865 8.51361,18.3356 C8.40025,19.0157 8.2892,19.7038 8.1117,20.371 C8.0564,20.5788 7.99992,20.7911 7.99976,21 L7,21 C6.44772,21 6,21.4477 6,22 C6,22.5523 6.44772,23 7,23 L17,23 C17.5523,23 18,22.5523 18,22 C18,21.4477 17.5523,21 17,21 L16.0002,21 C16.0001,20.7935 15.943,20.5779 15.8876,20.3687 C15.711,19.7021 15.5996,19.015 15.4864,18.3356 C15.2413,16.865 15,14.9244 15,13 C15,9.25433 15.9119,5.4794 15.9681,5.25098 C16.1337,4.57742 15.604,4 14.9872,4 L13,4 L13,2 Z" id="路径" fill="#09244B"></path>
            </g>
        </g>
    </g>
</svg>