<?xml version="1.0" encoding="UTF-8"?>
<svg width="24px" height="24px" viewBox="0 0 24 24" version="1.1" xmlns="http://www.w3.org/2000/svg" xmlns:xlink="http://www.w3.org/1999/xlink">
    <title>tower_4_line</title>
    <g id="页面-1" stroke="none" stroke-width="1" fill="none" fill-rule="evenodd">
        <g id="Building" transform="translate(-288.000000, -96.000000)">
            <g id="tower_4_line" transform="translate(288.000000, 96.000000)">
                <rect id="矩形" fill-rule="nonzero" x="0" y="0" width="24" height="24"></rect>
                <path d="M13,1 C13.5523,1 14,1.44772 14,2 L14,4.38197 L15.4417,5.10281 C15.7839,5.27392 16,5.62367 16,6.00618 L16,21 C16.5523,21 17,21.4477 17,22 C17,22.5523 16.5523,23 16,23 L7,23 C6.44771,23 6,22.5523 6,22 C6,21.4477 6.44771,21 7,21 L7,15.0041 C7,14.7363 7.10641,14.4794 7.29582,14.29 L10,11.5858 L10,4.01618 C10,3.26535 10.7902,2.77705 11.4617,3.11281 L12,3.38197 L12,2 C12,1.44772 12.4477,1 13,1 Z M14,17.4142 L10.4142,21 L14,21 L14,17.4142 Z M10.0938,14.3204 L9,15.4142 L9,19.5858 L12.4776,16.1082 L10.0938,14.3204 Z M14,10.4142 L11.5224,12.8918 L14,14.75 L14,10.4142 Z M12,5.61804 L12,9.58579 L14,7.58579 L14,6.61804 L12,5.61804 Z" id="形状" fill="#09244B"></path>
            </g>
        </g>
    </g>
</svg>