<svg xmlns="http://www.w3.org/2000/svg" width="24" height="24"><g fill="none"><path d="M24 0v24H0V0zM12.594 23.258l-.012.002-.071.035-.02.004-.014-.004-.071-.036c-.01-.003-.019 0-.024.006l-.004.01-.017.428.005.02.01.013.104.074.015.004.012-.004.104-.074.012-.016.004-.017-.017-.427c-.002-.01-.009-.017-.016-.018m.264-.113-.014.002-.184.093-.01.01-.003.011.018.43.005.012.008.008.201.092c.012.004.023 0 .029-.008l.004-.014-.034-.614c-.003-.012-.01-.02-.02-.022m-.715.002a.023.023 0 0 0-.027.006l-.006.014-.034.614c0 .012.007.02.017.024l.015-.002.201-.093.01-.008.003-.011.018-.43-.003-.012-.01-.01z"/><path fill="#09244B" d="m3.13 7.378 3.396 3.396-.996 3.984a1 1 0 0 0 1.905.596l.035-.111L7.78 14h1.972l.623.624.155.618a1 1 0 0 0 1.082.752l.114-.02 4.896 4.896A9.957 9.957 0 0 1 12 22C6.477 22 2 17.523 2 12c0-1.54.348-2.997.969-4.3zM12 2c5.523 0 10 4.477 10 10a9.956 9.956 0 0 1-2.05 6.067l-.207.262.964.964a1 1 0 0 1-1.32 1.497l-.094-.083-16-16a1 1 0 0 1 1.32-1.497l.094.083.964.964A9.959 9.959 0 0 1 12 2m4 6h-2a1 1 0 0 0-1 1v2.586l2 2V10h1a1 1 0 0 1 1 1v2a1 1 0 0 1-1 1h-.586l1.761 1.761A3 3 0 0 0 19 13v-2a3 3 0 0 0-3-3m-6.575.01 1.811 1.812-.077-.307A2 2 0 0 0 9.426 8.01"/></g></svg>