<svg xmlns="http://www.w3.org/2000/svg" width="24" height="24" viewBox="0 0 24 24"><g fill="none"><path d="M24,0 L24,24 L0,24 L0,0 L24,0 Z M12.5935,23.2578 L12.5819,23.2595 L12.5109,23.295 L12.4919,23.2987 L12.4767,23.295 L12.4057,23.2595 C12.3958,23.2564 12.387,23.259 12.3821,23.2649 L12.378,23.2758 L12.3609,23.7031 L12.3659,23.7235 L12.3769,23.7357 L12.4805,23.8097 L12.4953,23.8136 L12.5071,23.8097 L12.6107,23.7357 L12.6233,23.7197 L12.6267,23.7031 L12.6096,23.2758 C12.6076,23.2657 12.601,23.2593 12.5935,23.2578 Z M12.8584,23.1453 L12.8445,23.1473 L12.6598,23.2397 L12.6499,23.2499 L12.6472,23.2611 L12.6651,23.6906 L12.6699,23.7034 L12.6784,23.7105 L12.8793,23.8032 C12.8914,23.8069 12.9022,23.803 12.9078,23.7952 L12.9118,23.7812 L12.8777,23.1665 C12.8753,23.1546 12.8674,23.147 12.8584,23.1453 Z M12.143,23.1473 C12.1332,23.1424 12.1222,23.1453 12.1156,23.1526 L12.1099,23.1665 L12.0758,23.7812 C12.0751,23.7927 12.0828,23.8019 12.0926,23.8046 L12.1083,23.8032 L12.3092,23.7105 L12.3186,23.7024 L12.3225,23.6906 L12.3404,23.2611 L12.3372,23.2485 L12.3278,23.2397 L12.143,23.1473 Z"/><path fill="#09244B" d="M3.12979,7.37826 L6.52568,10.7742 L5.52986,14.7575 C5.39591,15.2933 5.72167,15.8362 6.25746,15.9701 C6.75498857,16.0945286 7.25866495,15.8224969 7.43532817,15.354009 L7.47014,15.2425 L7.78078,14 L9.75153,14 L10.3751,14.6236 L10.5299,15.2425 C10.6529357,15.7348286 11.1213005,16.0498796 11.6121699,15.9938142 L11.7257,15.9742 L16.6217,20.8702 C15.2394,21.5919 13.6674,22 12,22 C6.47715,22 2,17.5228 2,12 C2,10.4608615 2.34770462,9.00299361 2.96884996,7.70058145 L3.12979,7.37826 Z M12,2 C17.5228,2 22,6.47715 22,12 C22,14.281235 21.236124,16.3840457 19.9502375,18.0665668 L19.7429,18.3287 L20.7071,19.2929 C21.0976,19.6834 21.0976,20.3166 20.7071,20.7071 C20.3466385,21.0675615 19.7793793,21.0952893 19.3871027,20.7902834 L19.2929,20.7071 L3.29289,4.70711 C2.90237,4.31658 2.90237,3.68342 3.29289,3.29289 C3.65337923,2.93241 4.22060645,2.90468077 4.61290152,3.20970231 L4.70711,3.29289 L5.67127,4.25705 C7.39514,2.84637 9.59873,2 12,2 Z M16,8 L14,8 C13.4477,8 13,8.44772 13,9 L13,11.5858 L15,13.5858 L15,10 L16,10 C16.5523,10 17,10.4477 17,11 L17,13 C17,13.5523 16.5523,14 16,14 L15.4142,14 L17.1753,15.761 C18.248,15.3038 19,14.2397 19,13 L19,11 C19,9.34315 17.6569,8 16,8 Z M9.42472,8.01051 L11.2363,9.82208 L11.1595,9.51493 C10.9537,8.69176 10.2544,8.09575 9.42472,8.01051 Z"/></g></svg>