<svg xmlns="http://www.w3.org/2000/svg" width="24" height="24"><g fill="none"><path d="M24 0v24H0V0zM12.594 23.258l-.012.002-.071.035-.02.004-.014-.004-.071-.036c-.01-.003-.019 0-.024.006l-.004.01-.017.428.005.02.01.013.104.074.015.004.012-.004.104-.074.012-.016.004-.017-.017-.427c-.002-.01-.009-.017-.016-.018m.264-.113-.014.002-.184.093-.01.01-.003.011.018.43.005.012.008.008.201.092c.012.004.023 0 .029-.008l.004-.014-.034-.614c-.003-.012-.01-.02-.02-.022m-.715.002a.023.023 0 0 0-.027.006l-.006.014-.034.614c0 .012.007.02.017.024l.015-.002.201-.093.01-.008.003-.011.018-.43-.003-.012-.01-.01z"/><path fill="#09244B" d="M19 4a3 3 0 0 1 3 3v10a3 3 0 0 1-3 3H5a3 3 0 0 1-3-3V7a3 3 0 0 1 3-3zM9.22 8h-.44a2 2 0 0 0-1.894 1.36l-.046.155-1.31 5.243a1 1 0 0 0 1.905.596l.035-.111L7.78 14h2.44l.31 1.242a1 1 0 0 0 1.962-.37l-.022-.114-1.31-5.243A2 2 0 0 0 9.22 8M18 8a1 1 0 0 0-.993.883L17 9v1.17a3 3 0 1 0-1.176 5.824L16 16h2a1 1 0 0 0 .993-.883L19 15V9a1 1 0 0 0-1-1m-2 4a1 1 0 0 1 .993.883L17 13v1h-1a1 1 0 1 1 0-2m-6.78-2 .5 2H8.28l.5-2z"/></g></svg>