<?xml version="1.0" encoding="UTF-8"?>
<svg width="24px" height="24px" viewBox="0 0 24 24" version="1.1" xmlns="http://www.w3.org/2000/svg" xmlns:xlink="http://www.w3.org/1999/xlink">
    <title>auction_fill</title>
    <g id="页面-1" stroke="none" stroke-width="1" fill="none" fill-rule="evenodd">
        <g id="Business" transform="translate(0.000000, -48.000000)" fill-rule="nonzero">
            <g id="auction_fill" transform="translate(0.000000, 48.000000)">
                <rect id="矩形" x="0" y="0" width="24" height="24"></rect>
                <path d="M2.68633,10.4623 C1.71002,11.4386 1.71002,13.0215 2.68633,13.9978 L5.51476,16.8263 C6.49107,17.8026 8.07398,17.8026 9.05029,16.8263 C9.77519,16.1014 9.96186,15.0421 9.61031,14.1449 L10.4014,13.3538 L16.8083,20.7464 C17.87,21.9714 19.7481,22.0384 20.8944,20.8921 C22.0407,19.7458 21.9737,17.8677 20.7486,16.806 L13.3561,10.3991 L14.1471,9.60811 C15.0443,9.95967 16.1036,9.77299 16.8285,9.0481 C17.8048,8.07179 17.8048,6.48887 16.8285,5.51256 L14,2.68414 C13.0237,1.70783 11.4408,1.70783 10.4645,2.68414 C9.73961,3.40903 9.55294,4.46834 9.9045,5.36547 L5.36767,9.9023 C4.47054,9.55074 3.41123,9.73741 2.68633,10.4623 Z" id="路径" fill="#09244B"></path>
            </g>
        </g>
    </g>
</svg>