<?xml version="1.0" encoding="UTF-8"?>
<svg width="24px" height="24px" viewBox="0 0 24 24" version="1.1" xmlns="http://www.w3.org/2000/svg" xmlns:xlink="http://www.w3.org/1999/xlink">
    <title>auction_line</title>
    <g id="页面-1" stroke="none" stroke-width="1" fill="none" fill-rule="evenodd">
        <g id="auction_line">
            <rect id="矩形" fill-rule="nonzero" x="0" y="0" width="24" height="24"></rect>
            <path d="M2.68609,10.4622 C1.70978,11.4385 1.70978,13.0214 2.68609,13.9977 L5.51452,16.8262 C6.49083,17.8025 8.07374,17.8025 9.05005,16.8262 C9.62838,16.2478 9.86413,15.4567 9.7573,14.7048 L10.7296,13.7325 L16.8081,20.7462 C17.8698,21.9713 19.7479,22.0383 20.8942,20.892 C22.0405,19.7457 21.9735,17.8676 20.7485,16.8059 L13.7348,10.7273 L14.7068,9.75535 C15.4586,9.86217 16.2498,9.62643 16.8281,9.0481 C17.8044,8.07179 17.8044,6.48887 16.8281,5.51256 L13.9997,2.68414 C13.0234,1.70783 11.4405,1.70783 10.4642,2.68414 C9.8858,3.26251 9.65005,4.05376 9.75694,4.80567 L4.80762,9.75499 C4.05571,9.6481 3.26446,9.88384 2.68609,10.4622 Z M12.9391,8.69459 L8.69654,12.9371 L6.57522,10.8158 L10.8178,6.57327 L12.9391,8.69459 Z M4.1003,12.5835 C3.90504,12.3883 3.90504,12.0717 4.1003,11.8764 C4.29557,11.6812 4.61215,11.6812 4.80741,11.8764 L7.63584,14.7049 C7.8311,14.9001 7.8311,15.2167 7.63584,15.412 C7.44058,15.6072 7.12399,15.6072 6.92873,15.412 L4.1003,12.5835 Z M11.8784,4.80546 C11.6831,4.6102 11.6831,4.29361 11.8784,4.09835 C12.0736,3.90309 12.3902,3.90309 12.5855,4.09835 L15.4139,6.92678 C15.6092,7.12204 15.6092,7.43862 15.4139,7.63388 C15.2187,7.82915 14.9021,7.82915 14.7068,7.63388 L11.8784,4.80546 Z M18.3195,19.4364 L12.3115,12.5041 L12.5063,12.3093 L19.4386,18.3172 C19.7865,18.6188 19.8055,19.1522 19.48,19.4777 C19.1544,19.8033 18.621,19.7843 18.3195,19.4364 Z" id="形状" fill="#09244B"></path>
        </g>
    </g>
</svg>