<svg width="24" height="24" viewBox="0 0 24 24" fill="none" xmlns="http://www.w3.org/2000/svg">
<rect width="24" height="24" fill="white" fill-opacity="0.01"/>
<path d="M2.68633 10.4623C1.71002 11.4386 1.71002 13.0215 2.68633 13.9978L5.51476 16.8263C6.49107 17.8026 8.07398 17.8026 9.05029 16.8263C9.77519 16.1014 9.96186 15.0421 9.61031 14.1449L10.4014 13.3538L16.8083 20.7464C17.87 21.9714 19.7481 22.0384 20.8944 20.8921C22.0407 19.7458 21.9737 17.8677 20.7486 16.806L13.3561 10.3991L14.1471 9.60811C15.0443 9.95967 16.1036 9.77299 16.8285 9.0481C17.8048 8.07179 17.8048 6.48887 16.8285 5.51256L14 2.68414C13.0237 1.70783 11.4408 1.70783 10.4645 2.68414C9.73961 3.40903 9.55294 4.46834 9.9045 5.36547L5.36767 9.9023C4.47054 9.55074 3.41123 9.73741 2.68633 10.4623Z" fill="#09244B"/>
</svg>
