<?xml version="1.0" encoding="UTF-8"?>
<svg width="24px" height="24px" viewBox="0 0 24 24" version="1.1" xmlns="http://www.w3.org/2000/svg" xmlns:xlink="http://www.w3.org/1999/xlink">
    <title>award_line</title>
    <g id="页面-1" stroke="none" stroke-width="1" fill="none" fill-rule="evenodd">
        <g id="Business" transform="translate(-48.000000, -192.000000)">
            <g id="award_line" transform="translate(48.000000, 192.000000)">
                <rect id="矩形" fill-rule="nonzero" x="0" y="0" width="24" height="24"></rect>
                <path d="M12,2 C16.4183,2 20,5.58172 20,10 C20,12.5264 18.8289,14.7793 17,16.2454 L17,20.8557 C17,21.6237 16.2329,22.1553 15.5138,21.8857 L12,20.568 L8.48624,21.8857 C7.76711,22.1553 7,21.6237 7,20.8557 L7,16.2454 C5.17107,14.7793 4,12.5264 4,10 C4,5.58172 7.58172,2 12,2 Z M15,17.4185 C14.0736,17.7935 13.0609,18 12,18 C10.9391,18 9.92643,17.7935 9,17.4185 L9,19.557 L11.2978,18.6953 C11.7505,18.5256 12.2495,18.5256 12.7022,18.6953 L15,19.557 L15,17.4185 Z M12,4 C8.68629,4 6,6.68629 6,10 C6,13.3137 8.68629,16 12,16 C15.3137,16 18,13.3137 18,10 C18,6.68629 15.3137,4 12,4 Z M12,6 C14.2091,6 16,7.79086 16,10 C16,12.2091 14.2091,14 12,14 C9.79086,14 8,12.2091 8,10 C8,7.79086 9.79086,6 12,6 Z M12,8 C10.8954,8 10,8.89543 10,10 C10,11.1046 10.8954,12 12,12 C13.1046,12 14,11.1046 14,10 C14,8.89543 13.1046,8 12,8 Z" id="形状" fill="#09244B"></path>
            </g>
        </g>
    </g>
</svg>