<?xml version="1.0" encoding="UTF-8"?>
<svg width="24px" height="24px" viewBox="0 0 24 24" version="1.1" xmlns="http://www.w3.org/2000/svg" xmlns:xlink="http://www.w3.org/1999/xlink">
    <title>bank_card_line</title>
    <g id="页面-1" stroke="none" stroke-width="1" fill="none" fill-rule="evenodd">
        <g id="Business" transform="translate(-48.000000, 0.000000)" fill-rule="nonzero">
            <g id="bank_card_line" transform="translate(48.000000, 0.000000)">
                <rect id="矩形" x="0" y="0" width="24" height="24"></rect>
                <path d="M19,4 C20.6569,4 22,5.34315 22,7 L22,17 C22,18.6569 20.6569,20 19,20 L5,20 C3.34315,20 2,18.6569 2,17 L2,7 C2,5.34315 3.34315,4 5,4 L19,4 Z M20,10 L4,10 L4,17 C4,17.51285 4.38604429,17.9355092 4.88337975,17.9932725 L5,18 L19,18 C19.51285,18 19.9355092,17.613973 19.9932725,17.1166239 L20,17 L20,10 Z M17,13 C17.5523,13 18,13.4477 18,14 C18,14.51285 17.613973,14.9355092 17.1166239,14.9932725 L17,15 L14,15 C13.4477,15 13,14.5523 13,14 C13,13.48715 13.386027,13.0644908 13.8833761,13.0067275 L14,13 L17,13 Z M19,6 L5,6 C4.44772,6 4,6.44772 4,7 L4,8 L20,8 L20,7 C20,6.44772 19.5523,6 19,6 Z" id="形状" fill="#09244B"></path>
            </g>
        </g>
    </g>
</svg>