<svg xmlns="http://www.w3.org/2000/svg" width="24" height="24"><g fill="none" fill-rule="evenodd"><path d="M24 0v24H0V0zM12.593 23.258l-.011.002-.071.035-.02.004-.014-.004-.071-.035c-.01-.004-.019-.001-.024.005l-.004.01-.017.428.005.02.01.013.104.074.015.004.012-.004.104-.074.012-.016.004-.017-.017-.427c-.002-.01-.009-.017-.017-.018m.265-.113-.013.002-.185.093-.01.01-.003.011.018.43.005.012.008.007.201.093c.012.004.023 0 .029-.008l.004-.014-.034-.614c-.003-.012-.01-.02-.02-.022m-.715.002a.023.023 0 0 0-.027.006l-.006.014-.034.614c0 .012.007.02.017.024l.015-.002.201-.093.01-.008.004-.011.017-.43-.003-.012-.01-.01z"/><path fill="#09244B" d="M10.464 3.282a2 2 0 0 1 2.964-.12l.108.12L17.468 8h2.985a1.49 1.49 0 0 1 1.484 1.655l-.092.766-.1.74-.082.554-.095.595-.108.625-.122.648-.136.661c-.072.333-.149.667-.232.999a21.018 21.018 0 0 1-.832 2.583l-.221.54-.214.488-.202.434-.094.194-.249.49c-.32.61-.924.97-1.563 1.022l-.16.006H6.555a1.929 1.929 0 0 1-1.71-1.008l-.232-.45-.18-.37a20.09 20.09 0 0 1-.095-.205l-.2-.449a21.536 21.536 0 0 1-1.108-3.276 32.366 32.366 0 0 1-.156-.654l-.142-.648-.127-.634-.112-.613-.1-.587-.087-.554-.074-.513-.09-.683-.066-.556a39.802 39.802 0 0 1-.017-.153 1.488 1.488 0 0 1 1.348-1.64L3.543 8h2.989zm-.503 9.44a1 1 0 0 0-1.96.326l.013.116.5 3 .025.114a1 1 0 0 0 1.96-.326l-.013-.116-.5-3zm5.203-.708a1 1 0 0 0-1.125.708l-.025.114-.5 3a1 1 0 0 0 1.947.442l.025-.114.5-3a1 1 0 0 0-.822-1.15M12 4.562 9.135 8h5.73z"/></g></svg>