<?xml version="1.0" encoding="UTF-8"?>
<svg width="24px" height="24px" viewBox="0 0 24 24" version="1.1" xmlns="http://www.w3.org/2000/svg" xmlns:xlink="http://www.w3.org/1999/xlink">
    <title>binance_coin_BNB_line</title>
    <g id="页面-1" stroke="none" stroke-width="1" fill="none" fill-rule="evenodd">
        <g id="Business" transform="translate(-96.000000, -384.000000)">
            <g id="binance_coin_BNB_line" transform="translate(96.000000, 384.000000)">
                <path d="M24,0 L24,24 L0,24 L0,0 L24,0 Z M12.5934901,23.257841 L12.5819402,23.2595131 L12.5108777,23.2950439 L12.4918791,23.2987469 L12.4918791,23.2987469 L12.4767152,23.2950439 L12.4056548,23.2595131 C12.3958229,23.2563662 12.3870493,23.2590235 12.3821421,23.2649074 L12.3780323,23.275831 L12.360941,23.7031097 L12.3658947,23.7234994 L12.3769048,23.7357139 L12.4804777,23.8096931 L12.4953491,23.8136134 L12.4953491,23.8136134 L12.5071152,23.8096931 L12.6106902,23.7357139 L12.6232938,23.7196733 L12.6232938,23.7196733 L12.6266527,23.7031097 L12.609561,23.275831 C12.6075724,23.2657013 12.6010112,23.2592993 12.5934901,23.257841 L12.5934901,23.257841 Z M12.8583906,23.1452862 L12.8445485,23.1473072 L12.6598443,23.2396597 L12.6498822,23.2499052 L12.6498822,23.2499052 L12.6471943,23.2611114 L12.6650943,23.6906389 L12.6699349,23.7034178 L12.6699349,23.7034178 L12.678386,23.7104931 L12.8793402,23.8032389 C12.8914285,23.8068999 12.9022333,23.8029875 12.9078286,23.7952264 L12.9118235,23.7811639 L12.8776777,23.1665331 C12.8752882,23.1545897 12.8674102,23.1470016 12.8583906,23.1452862 L12.8583906,23.1452862 Z M12.1430473,23.1473072 C12.1332178,23.1423925 12.1221763,23.1452606 12.1156365,23.1525954 L12.1099173,23.1665331 L12.0757714,23.7811639 C12.0751323,23.7926639 12.0828099,23.8018602 12.0926481,23.8045676 L12.108256,23.8032389 L12.3092106,23.7104931 L12.3186497,23.7024347 L12.3186497,23.7024347 L12.3225043,23.6906389 L12.340401,23.2611114 L12.337245,23.2485176 L12.337245,23.2485176 L12.3277531,23.2396597 L12.1430473,23.1473072 Z" id="MingCute" fill-rule="nonzero"></path>
                <path d="M9.17469,13.4154 L12.0032,16.2439 L14.8316,13.4155 C15.2221,13.0249 15.8553,13.0249 16.2458,13.4155 L18.0136,15.1832 C18.2011,15.3708 18.3065,15.6251 18.3065,15.8904 C18.3065,16.1556 18.2011,16.4099 18.0136,16.5975 L12.7102,21.9007 C12.3197,22.2912 11.6865,22.2912 11.296,21.9007 L5.99271,16.5974 C5.60219,16.2069 5.60219,15.5737 5.99271,15.1832 L7.76048,13.4154 C8.151,13.0249 8.78417,13.0249 9.17469,13.4154 Z M15.5387,15.5368 L12.7103,18.3652 C12.3197,18.7557 11.6866,18.7557 11.2961,18.3652 L8.46759,15.5367 L8.11403,15.8903 L12.0031,19.7794 L15.8922,15.8903 L15.5387,15.5368 Z M20.1323,9.52385 L21.9001,11.2916 C22.2906,11.6821 22.2906,12.3153 21.9001,12.7058 L20.1323,14.4736 C19.9448,14.6611 19.6905,14.7665 19.4252,14.7665 C19.16,14.7665 18.9057,14.6611 18.7181,14.4736 L16.9504,12.7058 C16.5598,12.3153 16.5598,11.6821 16.9504,11.2916 L18.7181,9.52385 C19.1087,9.13333 19.7418,9.13333 20.1323,9.52385 Z M12.6134973,9.44066231 L12.7077,9.52385 L14.4755,11.2916 C14.8359615,11.6520615 14.8636893,12.2193207 14.5586834,12.6115973 L14.4755,12.7058 L12.7077,14.4736 C12.5202,14.6611 12.2658,14.7665 12.0006,14.7665 C11.7796,14.7665 11.5661,14.6933056 11.3925653,14.5604005 L11.2935,14.4736 L9.52574,12.7058 C9.16526,12.3453385 9.13753077,11.7780793 9.44255231,11.3858027 L9.52574,11.2916 L11.2935,9.52385 C11.6539615,9.16337 12.2212207,9.13564077 12.6134973,9.44066231 Z M4.57856,9.23351 C4.79956833,9.23351 5.01304194,9.30667667 5.186585,9.43958986 L5.28566,9.5264 L7.05343,11.2942 C7.41391923,11.6546615 7.44164917,12.2219207 7.13661982,12.6141973 L7.05343,12.7084 L5.28566,14.4761 C4.92518,14.8366538 4.35795349,14.8643888 3.96565847,14.5593047 L3.87145,14.4761 L2.10368,12.7084 C1.7432,12.3479385 1.71547077,11.7806793 2.02049231,11.3884027 L2.10368,11.2942 L3.87145,9.5264 C4.05899,9.33887 4.31334,9.23351 4.57856,9.23351 Z M4.578555,11.6477 L4.225,12.0013 L4.578555,12.3548 L4.93211,12.0013 L4.578555,11.6477 Z M19.4252,11.6452 L19.0717,11.9987 L19.4252,12.3523 L19.7788,11.9987 L19.4252,11.6452 Z M12.0006,11.6452 L11.6471,11.9987 L12.0006,12.3523 L12.3542,11.9987 L12.0006,11.6452 Z M12.7078,2.09929 L18.0111,7.40259 C18.4016,7.79311 18.4016,8.42628 18.0111,8.8168 L16.2433,10.5846 C15.8528,10.9751 15.2196,10.9751 14.8291,10.5846 L12.0006,7.7561 L9.17221,10.5845 C8.78168,10.9751 8.14852,10.9751 7.75799,10.5845 L5.99023,8.81676 C5.80269,8.62922 5.69733,8.37487 5.69733,8.10965 C5.69733,7.84443 5.80269,7.59008 5.99023,7.40254 L11.2936,2.09928 C11.6841,1.70877 12.3173,1.70877 12.7078,2.09929 Z M12.0007,4.2206 L8.11155,8.10966 L8.4651,8.46325 L11.2935,5.63478 C11.6841,5.24426 12.3172,5.24426 12.7077,5.63478 L15.5362,8.46325 L15.8898,8.1097 L12.0007,4.2206 Z" id="形状" fill="#09244B"></path>
            </g>
        </g>
    </g>
</svg>