<?xml version="1.0" encoding="UTF-8"?>
<svg width="24px" height="24px" viewBox="0 0 24 24" version="1.1" xmlns="http://www.w3.org/2000/svg" xmlns:xlink="http://www.w3.org/1999/xlink">
    <title>briefcase_fill</title>
    <g id="页面-1" stroke="none" stroke-width="1" fill="none" fill-rule="evenodd">
        <g id="Business" transform="translate(-96.000000, -48.000000)" fill-rule="nonzero">
            <g id="briefcase_fill" transform="translate(96.000000, 48.000000)">
                <rect id="矩形" x="0" y="0" width="24" height="24"></rect>
                <path d="M14,3 C15.6569,3 17,4.34315 17,6 L20,6 C21.1046,6 22,6.89543 22,8 L22,19 C22,20.1046 21.1046,21 20,21 L4,21 C2.89543,21 2,20.1046 2,19 L2,8 C2,6.89543 2.89543,6 4,6 L7,6 C7,4.34315 8.34315,3 10,3 L14,3 Z M19,10 L5,10 C4.44772,10 4,10.4477 4,11 C4,11.51285 4.38604429,11.9355092 4.88337975,11.9932725 L5,12 L11,12 L11,13 C11,13.5523 11.4477,14 12,14 C12.51285,14 12.9355092,13.613973 12.9932725,13.1166239 L13,13 L13,12 L19,12 C19.5523,12 20,11.5523 20,11 C20,10.48715 19.613973,10.0644908 19.1166239,10.0067275 L19,10 Z M14,5 L10,5 C9.48716857,5 9.06449347,5.38604429 9.0067278,5.88337975 L9,6 L15,6 C15,5.48716857 14.613973,5.06449347 14.1166239,5.0067278 L14,5 Z" id="形状" fill="#09244B"></path>
            </g>
        </g>
    </g>
</svg>