<?xml version="1.0" encoding="UTF-8"?>
<svg width="24px" height="24px" viewBox="0 0 24 24" version="1.1" xmlns="http://www.w3.org/2000/svg" xmlns:xlink="http://www.w3.org/1999/xlink">
    <title>briefcase_line</title>
    <g id="页面-1" stroke="none" stroke-width="1" fill="none" fill-rule="evenodd">
        <g id="briefcase_line">
            <rect id="矩形" fill-opacity="0.01" fill="#FFFFFF" fill-rule="nonzero" x="0" y="0" width="24" height="24"></rect>
            <path d="M14,3 C15.6569,3 17,4.34315 17,6 L20,6 C21.1046,6 22,6.89543 22,8 L22,19 C22,20.1046 21.1046,21 20,21 L4,21 C2.89543,21 2,20.1046 2,19 L2,8 C2,6.89543 2.89543,6 4,6 L7,6 C7,4.34315 8.34315,3 10,3 L14,3 Z M11,12 L4,12 L4,19 L20,19 L20,12 L13,12 L13,13 C13,13.5523 12.5523,14 12,14 C11.48715,14 11.0644908,13.613973 11.0067275,13.1166239 L11,13 L11,12 Z M20,8 L4,8 L4,10 L20,10 L20,8 Z M14,5 L10,5 C9.48716857,5 9.06449347,5.38604429 9.0067278,5.88337975 L9,6 L15,6 C15,5.48716857 14.613973,5.06449347 14.1166239,5.0067278 L14,5 Z" id="形状" fill="#09244B"></path>
        </g>
    </g>
</svg>