<?xml version="1.0" encoding="UTF-8"?>
<svg width="24px" height="24px" viewBox="0 0 24 24" version="1.1" xmlns="http://www.w3.org/2000/svg" xmlns:xlink="http://www.w3.org/1999/xlink">
    <title>calendar_month_fill</title>
    <g id="Icon" stroke="none" stroke-width="1" fill="none" fill-rule="evenodd">
        <g id="Business" transform="translate(-192.000000, -528.000000)" fill-rule="nonzero">
            <g id="calendar_month_fill" transform="translate(192.000000, 528.000000)">
                <path d="M24,0 L24,24 L0,24 L0,0 L24,0 Z M12.5935,23.2578 L12.5819,23.2595 L12.5109,23.295 L12.4919,23.2987 L12.4767,23.295 L12.4057,23.2595 C12.3958,23.2564 12.387,23.259 12.3821,23.2649 L12.378,23.2758 L12.3609,23.7031 L12.3659,23.7235 L12.3769,23.7357 L12.4805,23.8097 L12.4953,23.8136 L12.5071,23.8097 L12.6107,23.7357 L12.6233,23.7197 L12.6267,23.7031 L12.6096,23.2758 C12.6076,23.2657 12.601,23.2593 12.5935,23.2578 Z M12.8584,23.1453 L12.8445,23.1473 L12.6598,23.2397 L12.6499,23.2499 L12.6472,23.2611 L12.6651,23.6906 L12.6699,23.7034 L12.6784,23.7105 L12.8793,23.8032 C12.8914,23.8069 12.9022,23.803 12.9078,23.7952 L12.9118,23.7812 L12.8777,23.1665 C12.8753,23.1546 12.8674,23.147 12.8584,23.1453 Z M12.143,23.1473 C12.1332,23.1424 12.1222,23.1453 12.1156,23.1526 L12.1099,23.1665 L12.0758,23.7812 C12.0751,23.7927 12.0828,23.8019 12.0926,23.8046 L12.1083,23.8032 L12.3092,23.7105 L12.3186,23.7024 L12.3225,23.6906 L12.3404,23.2611 L12.3372,23.2485 L12.3278,23.2397 L12.143,23.1473 Z" id="MingCute"></path>
                <path d="M21,8 L21,19 C21,20.1046 20.1046,21 19,21 L5,21 C3.89543,21 3,20.1046 3,19 L3,8 L21,8 Z M8.5,15 L7.5,15 C6.94772,15 6.5,15.4477 6.5,16 C6.5,16.51285 6.88604429,16.9355092 7.38337975,16.9932725 L7.5,17 L8.5,17 C9.05228,17 9.5,16.5523 9.5,16 C9.5,15.48715 9.11395571,15.0644908 8.61662025,15.0067275 L8.5,15 Z M12.5,15 L11.5,15 C10.9477,15 10.5,15.4477 10.5,16 C10.5,16.5523 10.9477,17 11.5,17 L12.5,17 C13.0523,17 13.5,16.5523 13.5,16 C13.5,15.4477 13.0523,15 12.5,15 Z M8.5,11 L7.5,11 C6.94772,11 6.5,11.4477 6.5,12 C6.5,12.5523 6.94772,13 7.5,13 L8.5,13 C9.05228,13 9.5,12.5523 9.5,12 C9.5,11.4477 9.05228,11 8.5,11 Z M12.5,11 L11.5,11 C10.9477,11 10.5,11.4477 10.5,12 C10.5,12.51285 10.886027,12.9355092 11.3833761,12.9932725 L11.5,13 L12.5,13 C13.0523,13 13.5,12.5523 13.5,12 C13.5,11.48715 13.113973,11.0644908 12.6166239,11.0067275 L12.5,11 Z M16.5,11 L15.5,11 C14.9477,11 14.5,11.4477 14.5,12 C14.5,12.5523 14.9477,13 15.5,13 L16.5,13 C17.0523,13 17.5,12.5523 17.5,12 C17.5,11.4477 17.0523,11 16.5,11 Z M19,3 C20.1046,3 21,3.89543 21,5 L21,6 L3,6 L3,5 C3,3.89543 3.89543,3 5,3 L19,3 Z" id="形状" fill="#09244B"></path>
            </g>
        </g>
    </g>
</svg>