<?xml version="1.0" encoding="UTF-8"?>
<svg width="24px" height="24px" viewBox="0 0 24 24" version="1.1" xmlns="http://www.w3.org/2000/svg" xmlns:xlink="http://www.w3.org/1999/xlink">
    <title>calendar_add_fill</title>
    <g id="Icon" stroke="none" stroke-width="1" fill="none" fill-rule="evenodd">
        <g id="Business" transform="translate(-96.000000, -528.000000)" fill-rule="nonzero">
            <g id="calendar_add_fill" transform="translate(96.000000, 528.000000)">
                <path d="M24,0 L24,24 L0,24 L0,0 L24,0 Z M12.5935,23.2578 L12.5819,23.2595 L12.5109,23.295 L12.4919,23.2987 L12.4767,23.295 L12.4057,23.2595 C12.3958,23.2564 12.387,23.259 12.3821,23.2649 L12.378,23.2758 L12.3609,23.7031 L12.3659,23.7235 L12.3769,23.7357 L12.4805,23.8097 L12.4953,23.8136 L12.5071,23.8097 L12.6107,23.7357 L12.6233,23.7197 L12.6267,23.7031 L12.6096,23.2758 C12.6076,23.2657 12.601,23.2593 12.5935,23.2578 Z M12.8584,23.1453 L12.8445,23.1473 L12.6598,23.2397 L12.6499,23.2499 L12.6472,23.2611 L12.6651,23.6906 L12.6699,23.7034 L12.6784,23.7105 L12.8793,23.8032 C12.8914,23.8069 12.9022,23.803 12.9078,23.7952 L12.9118,23.7812 L12.8777,23.1665 C12.8753,23.1546 12.8674,23.147 12.8584,23.1453 Z M12.143,23.1473 C12.1332,23.1424 12.1222,23.1453 12.1156,23.1526 L12.1099,23.1665 L12.0758,23.7812 C12.0751,23.7927 12.0828,23.8019 12.0926,23.8046 L12.1083,23.8032 L12.3092,23.7105 L12.3186,23.7024 L12.3225,23.6906 L12.3404,23.2611 L12.3372,23.2485 L12.3278,23.2397 L12.143,23.1473 Z" id="MingCute"></path>
                <path d="M7,4 C7,3.44772 7.44772,3 8,3 C8.55228,3 9,3.44772 9,4 L9,5 L15,5 L15,4 C15,3.44772 15.4477,3 16,3 C16.5523,3 17,3.44772 17,4 L17,5 L19,5 C20.1046,5 21,5.89543 21,7 L21,10 L3,10 L3,7 C3,5.89543 3.89543,5 5,5 L7,5 L7,4 Z M18,14 C18.5523,14 19,14.4477 19,15 L19,17 L21,17 C21.5523,17 22,17.4477 22,18 C22,18.5523 21.5523,19 21,19 L19,19 L19,21 C19,21.5523 18.5523,22 18,22 C17.4477,22 17,21.5523 17,21 L17,19 L15,19 C14.4477,19 14,18.5523 14,18 C14,17.4477 14.4477,17 15,17 L17,17 L17,15 C17,14.4477 17.4477,14 18,14 Z M18,12 C16.687,12 15.5711,12.8435 15.1644,14.0181 C14.9837,14.54 14.54,14.9837 14.0181,15.1644 C12.8435,15.5711 12,16.687 12,18 C12,19.24735 12.7612588,20.3168172 13.8444573,20.76934 L14.0181,20.8356 C14.1383,20.8772 14.2543,20.9328 14.3639,21 L5,21 C3.89543,21 3,20.1046 3,19 L3,12 L18,12 Z" id="形状" fill="#09244B"></path>
            </g>
        </g>
    </g>
</svg>