<svg xmlns="http://www.w3.org/2000/svg" width="24" height="24" viewBox="0 0 24 24"><title>calendar_x_fill</title><g fill="none" fill-rule="nonzero"><path d="M24 0v24H0V0zM12.594 23.258l-.012.002-.071.035-.02.004-.014-.004-.071-.036q-.016-.004-.024.006l-.004.01-.017.428.005.02.01.013.104.074.015.004.012-.004.104-.074.012-.016.004-.017-.017-.427q-.004-.016-.016-.018m.264-.113-.014.002-.184.093-.01.01-.003.011.018.43.005.012.008.008.201.092q.019.005.029-.008l.004-.014-.034-.614q-.005-.019-.02-.022m-.715.002a.02.02 0 0 0-.027.006l-.006.014-.034.614q.001.018.017.024l.015-.002.201-.093.01-.008.003-.011.018-.43-.003-.012-.01-.01z"/><path fill="#09244b" d="M16.586 15.172 18 16.585l1.414-1.413a1.001 1.001 0 0 1 1.415 1.414L19.414 18l1.415 1.414a1.001 1.001 0 0 1-1.415 1.415L18 19.414l-1.414 1.415a1 1 0 0 1-1.414-1.415L16.585 18l-1.413-1.414a1 1 0 1 1 1.414-1.414M21 12v1.01a3 3 0 0 0-3 .748A3 3 0 1 0 13.758 18a3 3 0 0 0-.747 3H5a2 2 0 0 1-2-2v-7zm-5-9a1 1 0 0 1 1 1v1h2a2 2 0 0 1 2 2v3H3V7a2 2 0 0 1 2-2h2V4a1 1 0 0 1 2 0v1h6V4a1 1 0 0 1 1-1"/></g></svg>