<?xml version="1.0" encoding="UTF-8"?>
<svg width="24px" height="24px" viewBox="0 0 24 24" version="1.1" xmlns="http://www.w3.org/2000/svg" xmlns:xlink="http://www.w3.org/1999/xlink">
    <title>calendar_line</title>
    <g id="页面-1" stroke="none" stroke-width="1" fill="none" fill-rule="evenodd">
        <g id="Business" transform="translate(-144.000000, 0.000000)" fill-rule="nonzero">
            <g id="calendar_line" transform="translate(144.000000, 0.000000)">
                <rect id="矩形" x="0" y="0" width="24" height="24"></rect>
                <path d="M16,3 C16.51285,3 16.9355092,3.38604429 16.9932725,3.88337975 L17,4 L17,5 L19,5 C20.0543909,5 20.9181678,5.81587733 20.9945144,6.85073759 L21,7 L21,19 C21,20.0543909 20.18415,20.9181678 19.1492661,20.9945144 L19,21 L5,21 C3.94563773,21 3.08183483,20.18415 3.00548573,19.1492661 L3,19 L3,7 C3,5.94563773 3.81587733,5.08183483 4.85073759,5.00548573 L5,5 L7,5 L7,4 C7,3.44772 7.44772,3 8,3 C8.51283143,3 8.93550653,3.38604429 8.9932722,3.88337975 L9,4 L9,5 L15,5 L15,4 C15,3.44772 15.4477,3 16,3 Z M19,12 L5,12 L5,19 L19,19 L19,12 Z M19,7 L5,7 L5,10 L19,10 L19,7 Z" id="形状" fill="#09244B"></path>
            </g>
        </g>
    </g>
</svg>