<svg xmlns="http://www.w3.org/2000/svg" width="24" height="24"><g fill="none"><path d="M24 0v24H0V0zM12.594 23.258l-.012.002-.071.035-.02.004-.014-.004-.071-.036c-.01-.003-.019 0-.024.006l-.004.01-.017.428.005.02.01.013.104.074.015.004.012-.004.104-.074.012-.016.004-.017-.017-.427c-.002-.01-.009-.017-.016-.018m.264-.113-.014.002-.184.093-.01.01-.003.011.018.43.005.012.008.008.201.092c.012.004.023 0 .029-.008l.004-.014-.034-.614c-.003-.012-.01-.02-.02-.022m-.715.002a.023.023 0 0 0-.027.006l-.006.014-.034.614c0 .012.007.02.017.024l.015-.002.201-.093.01-.008.003-.011.018-.43-.003-.012-.01-.01z"/><path fill="#09244B" d="M18 3a2 2 0 0 1 1.995 1.85L20 5v2h.191a1.5 1.5 0 0 1 1.396 2.05l-.054.12L20 12.237V19a2 2 0 0 1-1.85 1.995L18 21H6a2 2 0 0 1-1.994-1.85L4 19v-6.764L2.467 9.171a1.5 1.5 0 0 1 1.21-2.165L3.81 7H4V5a2 2 0 0 1 1.85-1.995L6 3zm-7.5 9.016a1.01 1.01 0 0 0-1.355-.95l-.107.047-.985.493a1 1 0 0 0 .326 1.887l.121.007V16a1 1 0 0 0 1.993.117L10.5 16zm4-1.016h-1a2 2 0 0 0-1.995 1.85L11.5 13v2a2 2 0 0 0 1.85 1.995l.15.005h1a2 2 0 0 0 1.995-1.85L16.5 15v-2a2 2 0 0 0-1.85-1.995zm0 2v2h-1v-2zM18 5H6v2h12z"/></g></svg>