<?xml version="1.0" encoding="UTF-8"?>
<svg width="24px" height="24px" viewBox="0 0 24 24" version="1.1" xmlns="http://www.w3.org/2000/svg" xmlns:xlink="http://www.w3.org/1999/xlink">
    <title>calendar_3_fill</title>
    <g id="Icon" stroke="none" stroke-width="1" fill="none" fill-rule="evenodd">
        <g id="Business" transform="translate(-144.000000, -528.000000)" fill-rule="nonzero">
            <g id="calendar_3_fill" transform="translate(144.000000, 528.000000)">
                <path d="M24,0 L24,24 L0,24 L0,0 L24,0 Z M12.5935,23.2578 L12.5819,23.2595 L12.5109,23.295 L12.4919,23.2987 L12.4767,23.295 L12.4057,23.2595 C12.3958,23.2564 12.387,23.259 12.3821,23.2649 L12.378,23.2758 L12.3609,23.7031 L12.3659,23.7235 L12.3769,23.7357 L12.4805,23.8097 L12.4953,23.8136 L12.5071,23.8097 L12.6107,23.7357 L12.6233,23.7197 L12.6267,23.7031 L12.6096,23.2758 C12.6076,23.2657 12.601,23.2593 12.5935,23.2578 Z M12.8584,23.1453 L12.8445,23.1473 L12.6598,23.2397 L12.6499,23.2499 L12.6472,23.2611 L12.6651,23.6906 L12.6699,23.7034 L12.6784,23.7105 L12.8793,23.8032 C12.8914,23.8069 12.9022,23.803 12.9078,23.7952 L12.9118,23.7812 L12.8777,23.1665 C12.8753,23.1546 12.8674,23.147 12.8584,23.1453 Z M12.143,23.1473 C12.1332,23.1424 12.1222,23.1453 12.1156,23.1526 L12.1099,23.1665 L12.0758,23.7812 C12.0751,23.7927 12.0828,23.8019 12.0926,23.8046 L12.1083,23.8032 L12.3092,23.7105 L12.3186,23.7024 L12.3225,23.6906 L12.3404,23.2611 L12.3372,23.2485 L12.3278,23.2397 L12.143,23.1473 Z" id="MingCute"></path>
                <path d="M18,3 C19.0543909,3 19.9181678,3.81587733 19.9945144,4.85073759 L20,5 L20,7 L20.191,7 C21.261496,7 21.9726602,8.08146995 21.5867111,9.050379 L21.5327,9.17082 L20,12.2361 L20,19 C20,20.0543909 19.18415,20.9181678 18.1492661,20.9945144 L18,21 L6.00005,21 C4.94568773,21 4.08188483,20.18415 4.00553573,19.1492661 L4.00005,19 L4.00005,12.2361 L2.46742,9.17082 C1.9886968,8.213364 2.63792906,7.09359581 3.67717617,7.00554628 L3.80906,7 L4.00005,7 L4.00005,5 C4.00005,3.94563773 4.81592733,3.08183483 5.85078759,3.00548573 L6.00005,3 L18,3 Z M10.5001,12.0162 C10.5001,11.3049158 9.790899,10.8291374 9.14525614,11.0665463 L9.03837,11.1128 L8.05284,11.6056 C7.55886,11.8526 7.35863,12.4532 7.60562,12.9472 C7.76125556,13.2584889 8.05730395,13.4530765 8.37860381,13.4926859 L8.50005,13.5002 L8.50005,16 C8.50005,16.5523 8.94777,17 9.50005,17 C10.0128536,17 10.4355957,16.613973 10.493371,16.1166239 L10.5001,16 L10.5001,12.0162 Z M14.5,11 L13.5,11 C12.4457045,11 11.5818409,11.81585 11.5054861,12.8507339 L11.5,13 L11.5,15 C11.5,16.0543909 12.3159411,16.9181678 13.3507463,16.9945144 L13.5,17 L14.5,17 C15.5543909,17 16.4181678,16.18415 16.4945144,15.1492661 L16.5,15 L16.5,13 C16.5,11.9456091 15.68415,11.0818322 14.6492661,11.0054856 L14.5,11 Z M14.5,13 L14.5,15 L13.5,15 L13.5,13 L14.5,13 Z M18,5 L6.00005,5 L6.00005,7 L18,7 L18,5 Z" id="形状" fill="#09244B"></path>
            </g>
        </g>
    </g>
</svg>