<?xml version="1.0" encoding="UTF-8"?>
<svg width="24px" height="24px" viewBox="0 0 24 24" version="1.1" xmlns="http://www.w3.org/2000/svg" xmlns:xlink="http://www.w3.org/1999/xlink">
    <title>candle_fill</title>
    <g id="页面-1" stroke="none" stroke-width="1" fill="none" fill-rule="evenodd">
        <g id="Business" transform="translate(-768.000000, -240.000000)">
            <g id="candle_fill" transform="translate(768.000000, 240.000000)">
                <rect id="矩形" fill-rule="nonzero" x="0" y="0" width="24" height="24"></rect>
                <path d="M12.0579,2.08071 C11.774,1.95916 11.4499,1.97561 11.1797,2.12527 C10.9096,2.27494 10.7237,2.54103 10.6762,2.8462 C10.6285,3.15306 10.5523,3.34182 10.4597,3.49349 C10.3595,3.65756 10.2107,3.82723 9.94645,4.0722 C9.42523,4.55538 9.10938,5.13163 9.02355,5.754 C8.93897,6.36723 9.08931,6.93974 9.34964,7.40886 C9.84173,8.29556 10.8414,9.00000043 11.9028,9.00000043 C13.2853,9.00000043 15,8.03365 15,6.19445 C15,5.25053 14.5784,4.36498 14.054,3.68222 C13.526,2.99456 12.8114,2.4033 12.0579,2.08071 Z M9,10 C7.89543,10 7,10.8954 7,12 L7,20 C7,21.1046 7.89543,22 9,22 L15,22 C16.1046,22 17,21.1046 17,20 L17,12 C17,10.8954 16.1046,10 15,10 L9,10 Z" id="形状" fill="#09244B"></path>
            </g>
        </g>
    </g>
</svg>