<?xml version="1.0" encoding="UTF-8"?>
<svg width="24px" height="24px" viewBox="0 0 24 24" version="1.1" xmlns="http://www.w3.org/2000/svg" xmlns:xlink="http://www.w3.org/1999/xlink">
    <title>cardano_ADA_fill</title>
    <g id="页面-1" stroke="none" stroke-width="1" fill="none" fill-rule="evenodd">
        <g id="Business" transform="translate(-240.000000, -432.000000)">
            <g id="cardano_ADA_fill" transform="translate(240.000000, 432.000000)">
                <path d="M24,0 L24,24 L0,24 L0,0 L24,0 Z M12.5934901,23.257841 L12.5819402,23.2595131 L12.5108777,23.2950439 L12.4918791,23.2987469 L12.4918791,23.2987469 L12.4767152,23.2950439 L12.4056548,23.2595131 C12.3958229,23.2563662 12.3870493,23.2590235 12.3821421,23.2649074 L12.3780323,23.275831 L12.360941,23.7031097 L12.3658947,23.7234994 L12.3769048,23.7357139 L12.4804777,23.8096931 L12.4953491,23.8136134 L12.4953491,23.8136134 L12.5071152,23.8096931 L12.6106902,23.7357139 L12.6232938,23.7196733 L12.6232938,23.7196733 L12.6266527,23.7031097 L12.609561,23.275831 C12.6075724,23.2657013 12.6010112,23.2592993 12.5934901,23.257841 L12.5934901,23.257841 Z M12.8583906,23.1452862 L12.8445485,23.1473072 L12.6598443,23.2396597 L12.6498822,23.2499052 L12.6498822,23.2499052 L12.6471943,23.2611114 L12.6650943,23.6906389 L12.6699349,23.7034178 L12.6699349,23.7034178 L12.678386,23.7104931 L12.8793402,23.8032389 C12.8914285,23.8068999 12.9022333,23.8029875 12.9078286,23.7952264 L12.9118235,23.7811639 L12.8776777,23.1665331 C12.8752882,23.1545897 12.8674102,23.1470016 12.8583906,23.1452862 L12.8583906,23.1452862 Z M12.1430473,23.1473072 C12.1332178,23.1423925 12.1221763,23.1452606 12.1156365,23.1525954 L12.1099173,23.1665331 L12.0757714,23.7811639 C12.0751323,23.7926639 12.0828099,23.8018602 12.0926481,23.8045676 L12.108256,23.8032389 L12.3092106,23.7104931 L12.3186497,23.7024347 L12.3186497,23.7024347 L12.3225043,23.6906389 L12.340401,23.2611114 L12.337245,23.2485176 L12.337245,23.2485176 L12.3277531,23.2396597 L12.1430473,23.1473072 Z" id="MingCute" fill-rule="nonzero"></path>
                <path d="M11,2.5 C11,1.94772 11.4477,1.5 12,1.5 C12.5523,1.5 13,1.94772 13,2.5 C13,3.05228 12.5523,3.5 12,3.5 C11.4477,3.5 11,3.05228 11,2.5 Z M12,3.5 C11.1716,3.5 10.5,4.17157 10.5,5 C10.5,5.82843 11.1716,6.5 12,6.5 C12.8284,6.5 13.5,5.82843 13.5,5 C13.5,4.17157 12.8284,3.5 12,3.5 Z M15.884,3.27273 C16.1601,2.79444 16.7717,2.63057 17.25,2.90671 C17.7283,3.18285 17.8922,3.79444 17.6161,4.27274 C17.3399,4.75103 16.7283,4.9149 16.25,4.63876 C15.7717,4.36262 15.6079,3.75103 15.884,3.27273 Z M6.75003,2.90676 C7.22832,2.63062 7.83991,2.79449 8.11606,3.27278 C8.3922,3.75108 8.22832,4.36267 7.75003,4.63881 C7.27174,4.91495 6.66015,4.75108 6.38401,4.27278 C6.10786,3.79449 6.27174,3.1829 6.75003,2.90676 Z M15.8891,5.98954 C16.4749,5.40375 17.4246,5.40375 18.0104,5.98954 C18.5962,6.57533 18.5962,7.52507 18.0104,8.11086 C17.4506,8.67067 16.5584,8.69549 15.9691,8.18532 C16.0491,8.63333 15.9774,9.11092 15.7321,9.5359 C15.5569,9.83929 15.3143,10.0794 15.034,10.2483 C15.3204,10.09 15.6497,9.99997 16,9.99997 C16.7851,9.99997 17.4646,10.4524 17.7919,11.1107 C18.0651,10.7403 18.5045,10.5 19,10.5 C19.8284,10.5 20.5,11.1716 20.5,12 C20.5,12.8284 19.8284,13.5 19,13.5 C18.5045,13.5 18.065,13.2597 17.7919,12.8893 C17.4646,13.5476 16.7851,14 16,14 C15.6491,14 15.3193,13.9096 15.0326,13.7509 C15.3135,13.9198 15.5566,14.1602 15.7321,14.4641 C15.9774,14.889 16.0491,15.3666 15.9691,15.8145 C16.5584,15.3044 17.4506,15.3293 18.0104,15.889 C18.5962,16.4748 18.5962,17.4246 18.0104,18.0104 C17.4246,18.5962 16.4749,18.5962 15.8891,18.0104 C15.5678,17.6891 15.4228,17.2584 15.4539,16.8383 C15.3239,16.9757 15.1721,17.0968 15,17.1962 C14.0434,17.7485 12.8203,17.4207 12.268,16.4641 C12.0926,16.1604 12.006,15.8299 12,15.5025 C11.994,15.8299 11.9074,16.1604 11.7321,16.4641 C11.1798,17.4207 9.95661,17.7485 9.00003,17.1962 C8.82788,17.0968 8.67611,16.9757 8.54616,16.8383 C8.57725,17.2584 8.43218,17.6891 8.11093,18.0104 C7.52515,18.5961 6.5754,18.5961 5.98961,18.0104 C5.40383,17.4246 5.40383,16.4748 5.98961,15.889 C6.54942,15.3292 7.44163,15.3044 8.03092,15.8146 C7.95096,15.3666 8.02264,14.8891 8.26798,14.4641 C8.44356,14.16 8.68696,13.9194 8.96804,13.7505 C8.6812,13.9095 8.35117,14 8,14 C7.21489,14 6.53544,13.5476 6.20809,12.8893 C5.93497,13.2597 5.49555,13.5 5,13.5 C4.17157,13.5 3.5,12.8284 3.5,12 C3.5,11.1716 4.17157,10.5 5,10.5 C5.49554,10.5 5.93495,10.7403 6.20808,11.1107 C6.53542,10.4524 7.21488,9.99997 8,9.99997 C8.3506,9.99997 8.68013,10.0902 8.96664,10.2487 C8.68615,10.0798 8.44327,9.83951 8.26798,9.53589 C8.02261,9.11091 7.95095,8.63331 8.03095,8.18529 C7.44166,8.69551 6.54941,8.6707 5.98958,8.11087 C5.4038,7.52509 5.4038,6.57534 5.98958,5.98955 C6.57537,5.40377 7.52512,5.40377 8.1109,5.98955 C8.43219,6.31084 8.57726,6.74161 8.54612,7.16176 C8.67608,7.02437 8.82787,6.90324 9.00003,6.80384 C9.95661,6.25156 11.1798,6.57931 11.7321,7.53589 C11.9074,7.83959 11.9941,8.17015 12,8.49758 C12.006,8.17015 12.0926,7.83959 12.268,7.53589 C12.8203,6.57931 14.0434,6.25156 15,6.80384 C15.1722,6.90323 15.3239,7.02434 15.4539,7.16172 C15.4228,6.74157 15.5678,6.31082 15.8891,5.98954 Z M12,8.57049 C11.9877,9.24879 11.6304,9.90402 11,10.2679 C10.3698,10.6318 9.62376,10.6137 9.03017,10.2853 C9.61129,10.6352 10,11.2722 10,12 C10,12.7283 9.61066,13.3657 9.02875,13.7155 C9.62257,13.3864 10.3693,13.3679 11,13.7321 C11.6304,14.096 11.9876,14.7512 12,15.4295 C12.0124,14.7512 12.3697,14.096 13,13.7321 C13.6306,13.368 14.3769,13.3863 14.9706,13.7151 C14.3891,13.3653 14,12.7281 14,12 C14,11.2725 14.3884,10.6357 14.9692,10.2857 C14.3757,10.6137 13.6301,10.6317 13,10.2679 C12.3697,9.90402 12.0124,9.24879 12,8.57049 Z M3.5,12 C3.5,11.4477 3.05228,11 2.5,11 C1.94772,11 1.5,11.4477 1.5,12 C1.5,12.5523 1.94772,13 2.5,13 C3.05228,13 3.5,12.5523 3.5,12 Z M2.90676,6.75003 C3.1829,6.27174 3.79449,6.10786 4.27278,6.384 C4.75108,6.66015 4.91495,7.27174 4.63881,7.75003 C4.36267,8.22832 3.75108,8.3922 3.27278,8.11605 C2.79449,7.83991 2.63062,7.22832 2.90676,6.75003 Z M19.7273,6.384 C20.2056,6.10786 20.8171,6.27174 21.0933,6.75003 C21.3694,7.22832 21.2056,7.83991 20.7273,8.11605 C20.249,8.3922 19.6374,8.22832 19.3612,7.75003 C19.0851,7.27174 19.249,6.66015 19.7273,6.384 Z M20.5,12 C20.5,11.4477 20.9477,11 21.5,11 C22.0523,11 22.5,11.4477 22.5,12 C22.5,12.5523 22.0523,13 21.5,13 C20.9477,13 20.5,12.5523 20.5,12 Z M3.27278,15.884 C3.75108,15.6079 4.36267,15.7717 4.63881,16.25 C4.91495,16.7283 4.75108,17.3399 4.27278,17.6161 C3.79449,17.8922 3.1829,17.7283 2.90676,17.25 C2.63062,16.7717 2.79449,16.1601 3.27278,15.884 Z M19.3612,16.25 C19.6374,15.7717 20.249,15.6079 20.7273,15.884 C21.2056,16.1601 21.3694,16.7717 21.0933,17.25 C20.8172,17.7283 20.2056,17.8922 19.7273,17.6161 C19.249,17.3399 19.0851,16.7283 19.3612,16.25 Z M10.5,19 C10.5,18.1716 11.1716,17.5 12,17.5 C12.8284,17.5 13.5,18.1716 13.5,19 C13.5,19.8284 12.8284,20.5 12,20.5 C11.1716,20.5 10.5,19.8284 10.5,19 Z M12,20.5 C11.4477,20.5 11,20.9477 11,21.5 C11,22.0523 11.4477,22.5 12,22.5 C12.5523,22.5 13,22.0523 13,21.5 C13,20.9477 12.5523,20.5 12,20.5 Z M6.384,19.7272 C6.66015,19.2489 7.27174,19.0851 7.75003,19.3612 C8.22832,19.6373 8.3922,20.2489 8.11605,20.7272 C7.83991,21.2055 7.22832,21.3694 6.75003,21.0932 C6.27174,20.8171 6.10786,20.2055 6.384,19.7272 Z M16.25,19.3612 C16.7283,19.0851 17.3399,19.249 17.6161,19.7273 C17.8922,20.2056 17.7283,20.8172 17.25,21.0933 C16.7717,21.3694 16.1601,21.2056 15.884,20.7273 C15.6079,20.249 15.7717,19.6374 16.25,19.3612 Z" id="形状" fill="#09244B"></path>
            </g>
        </g>
    </g>
</svg>