<svg xmlns="http://www.w3.org/2000/svg" width="24" height="24"><g fill="none"><path d="M24 0v24H0V0zM12.594 23.258l-.012.002-.071.035-.02.004-.014-.004-.071-.036c-.01-.003-.019 0-.024.006l-.004.01-.017.428.005.02.01.013.104.074.015.004.012-.004.104-.074.012-.016.004-.017-.017-.427c-.002-.01-.009-.017-.016-.018m.264-.113-.014.002-.184.093-.01.01-.003.011.018.43.005.012.008.008.201.092c.012.004.023 0 .029-.008l.004-.014-.034-.614c-.003-.012-.01-.02-.02-.022m-.715.002a.023.023 0 0 0-.027.006l-.006.014-.034.614c0 .012.007.02.017.024l.015-.002.201-.093.01-.008.003-.011.018-.43-.003-.012-.01-.01z"/><path fill="#09244B" d="m11.287 4.717.307-.13c2.85-1.268 5.68-1.237 7.531-.996l.41.058.372.063.333.065.29.063c.864.198 1.404.937 1.464 1.731l.006.15v11.585c0 1.027-.976 1.701-1.893 1.49l-.28-.062-.325-.062-.365-.06a13.706 13.706 0 0 0-.616-.079l-.453-.04c-1.483-.104-3.414.001-5.355.79l-.307.13c-2.63 1.17-5.244 1.234-7.087 1.047l-.444-.05-.41-.06-.372-.063a14.75 14.75 0 0 1-.172-.032l-.45-.095c-.865-.198-1.405-.937-1.465-1.731L2 18.279V6.694c0-1.027.976-1.702 1.893-1.49l.28.062.325.062.365.06c1.536.23 3.972.326 6.424-.671M12 8a4 4 0 1 0 0 8 4 4 0 0 0 0-8m0 2a2 2 0 1 1 0 4 2 2 0 0 1 0-4"/></g></svg>