<svg xmlns="http://www.w3.org/2000/svg" width="24" height="24"><g fill="none" fill-rule="evenodd"><path d="M24 0v24H0V0zM12.594 23.258l-.012.002-.071.035-.02.004-.014-.004-.071-.036c-.01-.003-.019 0-.024.006l-.004.01-.017.428.005.02.01.013.104.074.015.004.012-.004.104-.074.012-.016.004-.017-.017-.427c-.002-.01-.009-.017-.016-.018m.264-.113-.014.002-.184.093-.01.01-.003.011.018.43.005.012.008.008.201.092c.012.004.023 0 .029-.008l.004-.014-.034-.614c-.003-.012-.01-.02-.02-.022m-.715.002a.023.023 0 0 0-.027.006l-.006.014-.034.614c0 .012.007.02.017.024l.015-.002.201-.093.01-.008.003-.011.018-.43-.003-.012-.01-.01z"/><path fill="#09244B" d="M20 5a2 2 0 0 1 2 2v10a2 2 0 0 1-2 2H4a2 2 0 0 1-2-2V7a2 2 0 0 1 2-2zM4.125 14 4 14.003v2.006a.875.875 0 0 1 1 .866l-.002.063L4.99 17h2.006L7 16.875A2.875 2.875 0 0 0 4.125 14m15.75 0a2.875 2.875 0 0 0-2.87 2.706l-.005.169c0 .042 0 .084.003.125h2.006a.875.875 0 0 1 .991-.991v-2.006zM12 8a4 4 0 1 0 0 8 4 4 0 0 0 0-8m0 2a2 2 0 1 1 0 4 2 2 0 0 1 0-4M7 7H5v.125a.875.875 0 0 1-1 .866v2.006l.125.003A2.875 2.875 0 0 0 7 7.125zm12.009 0h-2.006L17 7.125a2.875 2.875 0 0 0 2.706 2.87l.232.004.062-.002V7.991a.875.875 0 0 1-1-.866l.002-.063z"/></g></svg>