<svg xmlns="http://www.w3.org/2000/svg" width="24" height="24" viewBox="0 0 24 24"><g fill="none" fill-rule="evenodd"><path d="M24,0 L24,24 L0,24 L0,0 L24,0 Z M12.5935,23.2578 L12.5819,23.2595 L12.5109,23.295 L12.4919,23.2987 L12.4767,23.295 L12.4057,23.2595 C12.3958,23.2564 12.387,23.259 12.3821,23.2649 L12.378,23.2758 L12.3609,23.7031 L12.3659,23.7235 L12.3769,23.7357 L12.4805,23.8097 L12.4953,23.8136 L12.5071,23.8097 L12.6107,23.7357 L12.6233,23.7197 L12.6267,23.7031 L12.6096,23.2758 C12.6076,23.2657 12.601,23.2593 12.5935,23.2578 Z M12.8584,23.1453 L12.8445,23.1473 L12.6598,23.2397 L12.6499,23.2499 L12.6472,23.2611 L12.6651,23.6906 L12.6699,23.7034 L12.6784,23.7105 L12.8793,23.8032 C12.8914,23.8069 12.9022,23.803 12.9078,23.7952 L12.9118,23.7812 L12.8777,23.1665 C12.8753,23.1546 12.8674,23.147 12.8584,23.1453 Z M12.143,23.1473 C12.1332,23.1424 12.1222,23.1453 12.1156,23.1526 L12.1099,23.1665 L12.0758,23.7812 C12.0751,23.7927 12.0828,23.8019 12.0926,23.8046 L12.1083,23.8032 L12.3092,23.7105 L12.3186,23.7024 L12.3225,23.6906 L12.3404,23.2611 L12.3372,23.2485 L12.3278,23.2397 L12.143,23.1473 Z"/><path fill="#09244B" d="M20,5 C21.1046,5 22,5.89543 22,7 L22,17 C22,18.1046 21.1046,19 20,19 L4,19 C2.89543,19 2,18.1046 2,17 L2,7 C2,5.89543 2.89543,5 4,5 L20,5 Z M4.1251,14 L4,14.0027 L4,16.0087 C4.04076,16.003 4.08252,16 4.1251,16 C4.60823,16 5,16.3917 5,16.875 L4.9977825,16.938175 L4.9977825,16.938175 L4.99123,17 L6.99731,17 L7,16.875 L7,16.875 C7,15.2872 5.71292,14 4.1251,14 Z M19.8749,14 C18.3438071,14 17.0923193,15.196899 17.0048802,16.7060738 L17,16.875 C17,16.9169 17.0009,16.9585 17.0027,17 L19.0087,17 C19.003,16.9593 19,16.9175 19,16.875 C19,16.3917 19.3917,16 19.8749,16 C19.9175,16 19.9592,16.003 20,16.0087 L20,14.0027 L19.8749,14 L19.8749,14 Z M12,8 C9.79086,8 8,9.79086 8,12 C8,14.2091 9.79086,16 12,16 C14.2091,16 16,14.2091 16,12 C16,9.79086 14.2091,8 12,8 Z M12,10 C13.1046,10 14,10.8954 14,12 C14,13.1046 13.1046,14 12,14 C10.8954,14 10,13.1046 10,12 C10,10.8954 10.8954,10 12,10 Z M7,7 L5,7 L5,7.12497 C5,7.60828 4.60823,7.99997 4.1251,7.99997 C4.08252,7.99997 4.04076,7.99698 4,7.9912 L4,9.99728 L4.1251,9.99997 L4.1251,9.99997 C5.71292,9.99997 7,8.71273 7,7.12497 L7,7 Z M19.0087,7 L17.0027,7 L17,7.12497 L17,7.12497 C17,8.65602429 18.196806,9.90764097 19.7059741,9.99508929 L19.9376,9.99929625 L19.9376,9.99929625 L20,9.99728 L20,7.9912 C19.9592,7.99698 19.9175,7.99997 19.8749,7.99997 C19.3917,7.99997 19,7.60828 19,7.12497 L19.0022125,7.0618025 L19.0022125,7.0618025 L19.0087,7 Z"/></g></svg>