<?xml version="1.0" encoding="UTF-8"?>
<svg width="24px" height="24px" viewBox="0 0 24 24" version="1.1" xmlns="http://www.w3.org/2000/svg" xmlns:xlink="http://www.w3.org/1999/xlink">
    <title>chart_pie_2_fill</title>
    <g id="Icon" stroke="none" stroke-width="1" fill="none" fill-rule="evenodd">
        <g id="Business" transform="translate(-432.000000, -528.000000)" fill-rule="nonzero">
            <g id="chart_pie_2_fill" transform="translate(432.000000, 528.000000)">
                <path d="M24,0 L24,24 L0,24 L0,0 L24,0 Z M12.5935,23.2578 L12.5819,23.2595 L12.5109,23.295 L12.4919,23.2987 L12.4767,23.295 L12.4057,23.2595 C12.3958,23.2564 12.387,23.259 12.3821,23.2649 L12.378,23.2758 L12.3609,23.7031 L12.3659,23.7235 L12.3769,23.7357 L12.4805,23.8097 L12.4953,23.8136 L12.5071,23.8097 L12.6107,23.7357 L12.6233,23.7197 L12.6267,23.7031 L12.6096,23.2758 C12.6076,23.2657 12.601,23.2593 12.5935,23.2578 Z M12.8584,23.1453 L12.8445,23.1473 L12.6598,23.2397 L12.6499,23.2499 L12.6472,23.2611 L12.6651,23.6906 L12.6699,23.7034 L12.6784,23.7105 L12.8793,23.8032 C12.8914,23.8069 12.9022,23.803 12.9078,23.7952 L12.9118,23.7812 L12.8777,23.1665 C12.8753,23.1546 12.8674,23.147 12.8584,23.1453 Z M12.143,23.1473 C12.1332,23.1424 12.1222,23.1453 12.1156,23.1526 L12.1099,23.1665 L12.0758,23.7812 C12.0751,23.7927 12.0828,23.8019 12.0926,23.8046 L12.1083,23.8032 L12.3092,23.7105 L12.3186,23.7024 L12.3225,23.6906 L12.3404,23.2611 L12.3372,23.2485 L12.3278,23.2397 L12.143,23.1473 Z" id="MingCute"></path>
                <path d="M8.66675,2.56925 C8.97282,2.46107 9.31235,2.50819 9.57739,2.69562 C9.8093,2.85962125 9.95892828,3.11319297 9.99271176,3.39148841 L10,3.51208252 L10,12 C10,13.0543909 10.81585,13.9181678 11.8507339,13.9945144 L12,14 L20.4879,14 C20.8125,14 21.1169,14.1575 21.3044,14.4226 C21.4918,14.6876 21.5389,15.0272 21.4307,15.3332 C20.0584,19.2158 16.3556,22 12,22 C6.47715,22 2,17.5228 2,12 C2,7.64435 4.78413,3.94156 8.66675,2.56925 Z M12.9889921,2.05499195 L13.1099,2.06099 C17.7468,2.57358 21.4264,6.25322 21.939,10.8901 C21.9703,11.1728 21.8797,11.4553 21.69,11.6671 C21.5274,11.8487286 21.3051429,11.9635735 21.0659248,11.9926796 L20.9451,12 L13,12 C12.48715,12 12.0644908,11.613973 12.0067275,11.1166239 L12,11 L12,3.0549314 C12,2.77059 12.121,2.49969 12.3329,2.31 C12.5144429,2.1474 12.748002,2.0576449 12.9889921,2.05499195 L12.9889921,2.05499195 Z" id="形状" fill="#09244B"></path>
            </g>
        </g>
    </g>
</svg>