<?xml version="1.0" encoding="UTF-8"?>
<svg width="24px" height="24px" viewBox="0 0 24 24" version="1.1" xmlns="http://www.w3.org/2000/svg" xmlns:xlink="http://www.w3.org/1999/xlink">
    <title>chart_bar_line</title>
    <g id="页面-1" stroke="none" stroke-width="1" fill="none" fill-rule="evenodd">
        <g id="chart_bar_line">
            <rect id="矩形" fill-opacity="0.01" fill="#FFFFFF" fill-rule="nonzero" x="0" y="0" width="24" height="24"></rect>
            <path d="M14,3 C15.1046,3 16,3.89543 16,5 L16,8 L20,8 C21.1046,8 22,8.89543 22,10 L22,19 C22,20.1046 21.1046,21 20,21 L4,21 C2.89543,21 2,20.1046 2,19 L2,13 C2,11.8954 2.89543,11 4,11 L8,11 L8,5 C8,3.89543 8.89543,3 10,3 L14,3 Z M14,5 L10,5 L10,19 L14,19 L14,5 Z M20,10 L16,10 L16,19 L20,19 L20,10 Z M8,13 L4,13 L4,19 L8,19 L8,13 Z" id="形状" fill="#09244B"></path>
        </g>
    </g>
</svg>