<svg width="24" height="24" viewBox="0 0 24 24" fill="none" xmlns="http://www.w3.org/2000/svg">
<rect width="24" height="24" fill="white" fill-opacity="0.01"/>
<path d="M5.5 5C5.5 4.17157 4.82843 3.5 4 3.5C3.17157 3.5 2.5 4.17157 2.5 5V19C2.5 19.8284 3.17157 20.5 4 20.5H20C20.8284 20.5 21.5 19.8284 21.5 19C21.5 18.1716 20.8284 17.5 20 17.5H5.5V5Z" fill="#09244B"/>
<path d="M12.1565 8.94939L14.5607 11.3536L16.7424 9.17183C16.2377 8.93031 15.8891 8.41487 15.8891 7.81802C15.8891 6.98959 16.5607 6.31802 17.3891 6.31802L20.1934 6.31802C21.5387 6.31802 22.2123 7.94453 21.2611 8.89575L15.692 14.4648C15.0672 15.0897 14.0541 15.0897 13.4293 14.4648L11.0252 12.0607L8.55035 14.5356C7.96458 15.1214 7.01483 15.1214 6.42903 14.5356C5.84324 13.9498 5.84322 13.0001 6.429 12.4143L9.89375 8.94941C10.5186 8.32455 11.5317 8.32454 12.1565 8.94939Z" fill="#09244B"/>
</svg>
