<?xml version="1.0" encoding="UTF-8"?>
<svg width="24px" height="24px" viewBox="0 0 24 24" version="1.1" xmlns="http://www.w3.org/2000/svg" xmlns:xlink="http://www.w3.org/1999/xlink">
    <title>chart_line_line</title>
    <g id="é¡µé¢-1" stroke="none" stroke-width="1" fill="none" fill-rule="evenodd">
        <g id="Business" transform="translate(-240.000000, 0.000000)" fill-rule="nonzero">
            <g id="chart_line_line" transform="translate(240.000000, 0.000000)">
                <path d="M24,0 L24,24 L0,24 L0,0 L24,0 Z M12.5934901,23.257841 L12.5819402,23.2595131 L12.5108777,23.2950439 L12.4918791,23.2987469 L12.4918791,23.2987469 L12.4767152,23.2950439 L12.4056548,23.2595131 C12.3958229,23.2563662 12.3870493,23.2590235 12.3821421,23.2649074 L12.3780323,23.275831 L12.360941,23.7031097 L12.3658947,23.7234994 L12.3769048,23.7357139 L12.4804777,23.8096931 L12.4953491,23.8136134 L12.4953491,23.8136134 L12.5071152,23.8096931 L12.6106902,23.7357139 L12.6232938,23.7196733 L12.6232938,23.7196733 L12.6266527,23.7031097 L12.609561,23.275831 C12.6075724,23.2657013 12.6010112,23.2592993 12.5934901,23.257841 L12.5934901,23.257841 Z M12.8583906,23.1452862 L12.8445485,23.1473072 L12.6598443,23.2396597 L12.6498822,23.2499052 L12.6498822,23.2499052 L12.6471943,23.2611114 L12.6650943,23.6906389 L12.6699349,23.7034178 L12.6699349,23.7034178 L12.678386,23.7104931 L12.8793402,23.8032389 C12.8914285,23.8068999 12.9022333,23.8029875 12.9078286,23.7952264 L12.9118235,23.7811639 L12.8776777,23.1665331 C12.8752882,23.1545897 12.8674102,23.1470016 12.8583906,23.1452862 L12.8583906,23.1452862 Z M12.1430473,23.1473072 C12.1332178,23.1423925 12.1221763,23.1452606 12.1156365,23.1525954 L12.1099173,23.1665331 L12.0757714,23.7811639 C12.0751323,23.7926639 12.0828099,23.8018602 12.0926481,23.8045676 L12.108256,23.8032389 L12.3092106,23.7104931 L12.3186497,23.7024347 L12.3186497,23.7024347 L12.3225043,23.6906389 L12.340401,23.2611114 L12.337245,23.2485176 L12.337245,23.2485176 L12.3277531,23.2396597 L12.1430473,23.1473072 Z" id="MingCute" fill-rule="nonzero"></path>
                <path d="M4,4 C4.51283143,4 4.93550653,4.38604429 4.9932722,4.88337975 L5,5 L5,18 L20,18 C20.5523,18 21,18.4477 21,19 C21,19.51285 20.613973,19.9355092 20.1166239,19.9932725 L20,20 L4,20 C3.48716857,20 3.06449347,19.613973 3.0067278,19.1166239 L3,19 L3,5 C3,4.44772 3.44772,4 4,4 Z M20.1935,6.81813 C21.0933,6.81813 21.5439,7.90606 20.9076,8.54231 L15.3386,14.1114 C14.909,14.541 14.2125,14.541 13.7829,14.1114 L11.0252,11.3537 L7.48969,14.8892 C7.09916,15.2797 6.466,15.2797 6.07547,14.8892 C5.68495,14.4987 5.68495,13.8655 6.07547,13.475 L10.2474,9.30305 C10.677,8.87347 11.3735,8.87348 11.803,9.30305 L14.5608,12.0608 L17.8034,8.81813 L17.3892,8.81813 C16.8369,8.81813 16.3892,8.37041 16.3892,7.81813 C16.3892,7.26584 16.8369,6.81813 17.3892,6.81813 L20.1935,6.81813 Z" id="å½¢çŠ¶" fill="#09244B"></path>
            </g>
        </g>
    </g>
</svg>