<svg xmlns="http://www.w3.org/2000/svg" width="24" height="24"><g fill="none"><path d="M24 0v24H0V0zM12.594 23.258l-.012.002-.071.035-.02.004-.014-.004-.071-.036c-.01-.003-.019 0-.024.006l-.004.01-.017.428.005.02.01.013.104.074.015.004.012-.004.104-.074.012-.016.004-.017-.017-.427c-.002-.01-.009-.017-.016-.018m.264-.113-.014.002-.184.093-.01.01-.003.011.018.43.005.012.008.008.201.092c.012.004.023 0 .029-.008l.004-.014-.034-.614c-.003-.012-.01-.02-.02-.022m-.715.002a.023.023 0 0 0-.027.006l-.006.014-.034.614c0 .012.007.02.017.024l.015-.002.201-.093.01-.008.003-.011.018-.43-.003-.012-.01-.01z"/><path fill="#09244B" d="M8.667 2.57a1 1 0 0 1 1.326.821l.007.121V12a2 2 0 0 0 1.85 1.995L12 14h8.488a1 1 0 0 1 .943 1.333C20.058 19.216 16.356 22 12 22 6.477 22 2 17.523 2 12c0-4.356 2.784-8.058 6.667-9.43m4.322-.515.12.006a10.004 10.004 0 0 1 8.83 8.83 1 1 0 0 1-.873 1.102l-.12.007H13a1 1 0 0 1-.993-.883L12 11V3.055a1 1 0 0 1 .989-1"/></g></svg>