<?xml version="1.0" encoding="UTF-8"?>
<svg width="24px" height="24px" viewBox="0 0 24 24" version="1.1" xmlns="http://www.w3.org/2000/svg" xmlns:xlink="http://www.w3.org/1999/xlink">
    <title>chart_line_fill</title>
    <g id="页面-1" stroke="none" stroke-width="1" fill="none" fill-rule="evenodd">
        <g id="Business" transform="translate(-240.000000, -48.000000)" fill-rule="nonzero">
            <g id="chart_line_fill" transform="translate(240.000000, 48.000000)">
                <rect id="矩形" x="0" y="0" width="24" height="24"></rect>
                <path d="M4,3.5 C4.77969882,3.5 5.420449,4.09488554 5.49313345,4.85553954 L5.5,5 L5.5,17.5 L20,17.5 C20.8284,17.5 21.5,18.1716 21.5,19 C21.5,19.7796706 20.9050879,20.4204457 20.1444558,20.4931332 L20,20.5 L4,20.5 C3.22030118,20.5 2.579551,19.9050879 2.50686655,19.1444558 L2.5,19 L2.5,5 C2.5,4.17157 3.17157,3.5 4,3.5 Z M20.1934,6.31802 C21.5387,6.31802 22.2123,7.94453 21.2611,8.89575 L15.692,14.4648 C15.0672,15.0897 14.0541,15.0897 13.4293,14.4648 L11.0252,12.0607 L8.55035,14.5356 C7.96458,15.1214 7.01483,15.1214 6.42903,14.5356 C5.84324,13.9498 5.84322,13.0001 6.429,12.4143 L9.89375,8.94941 C10.5186,8.32455 11.5317,8.32454 12.1565,8.94939 L14.5607,11.3536 L16.7424,9.17183 C16.2377,8.93031 15.8891,8.41487 15.8891,7.81802 C15.8891,6.98959 16.5607,6.31802 17.3891,6.31802 L20.1934,6.31802 Z" id="形状" fill="#09244B"></path>
            </g>
        </g>
    </g>
</svg>