<?xml version="1.0" encoding="UTF-8"?>
<svg width="24px" height="24px" viewBox="0 0 24 24" version="1.1" xmlns="http://www.w3.org/2000/svg" xmlns:xlink="http://www.w3.org/1999/xlink">
    <title>chart_pie_line</title>
    <g id="页面-1" stroke="none" stroke-width="1" fill="none" fill-rule="evenodd">
        <g id="chart_pie_line">
            <rect id="矩形" fill-opacity="0.01" fill="#FFFFFF" fill-rule="nonzero" x="0" y="0" width="24" height="24"></rect>
            <path d="M12,2 C17.5228,2 22,6.47715 22,12 C22,17.5228 17.5228,22 12,22 C6.47715,22 2,17.5228 2,12 C2,6.47715 6.47715,2 12,2 Z M11,4.06189 C7.05369,4.55399 4,7.92038 4,12 C4,16.4183 7.58172,20 12,20 C16.0796,20 19.446,16.9463 19.9381,13 L12,13 C11.4477,13 11,12.5523 11,12 L11,4.06189 Z M13,4.06189 L13,11 L19.9381,11 C19.4869,7.38128 16.6187,4.51314 13,4.06189 Z" id="形状" fill="#09244B"></path>
        </g>
    </g>
</svg>