<svg xmlns="http://www.w3.org/2000/svg" width="24" height="24" viewBox="0 0 24 24"><title>chart_horizontal_2_line</title><g fill="none" fill-rule="nonzero"><path d="M24 0v24H0V0zM12.594 23.258l-.012.002-.071.035-.02.004-.014-.004-.071-.036q-.016-.004-.024.006l-.004.01-.017.428.005.02.01.013.104.074.015.004.012-.004.104-.074.012-.016.004-.017-.017-.427q-.004-.016-.016-.018m.264-.113-.014.002-.184.093-.01.01-.003.011.018.43.005.012.008.008.201.092q.019.005.029-.008l.004-.014-.034-.614q-.005-.019-.02-.022m-.715.002a.02.02 0 0 0-.027.006l-.006.014-.034.614q.001.018.017.024l.015-.002.201-.093.01-.008.003-.011.018-.43-.003-.012-.01-.01z"/><path fill="#09244b" d="M5 5v14h14V5zm4 10.5h6v-1H9zm0-6h2v-1H9zm8 6.5-.008.153a1.5 1.5 0 0 1-1.339 1.34l-.153.007h-7a1.5 1.5 0 0 1-1.492-1.347L7 16v-2a1.5 1.5 0 0 1 1.5-1.5h7A1.5 1.5 0 0 1 17 14zm-4-6-.008.153a1.5 1.5 0 0 1-1.339 1.34l-.153.007h-3a1.5 1.5 0 0 1-1.492-1.347L7 10V8a1.5 1.5 0 0 1 1.5-1.5h3A1.5 1.5 0 0 1 13 8zm8 9a2 2 0 0 1-2 2H5a2 2 0 0 1-2-2V5a2 2 0 0 1 2-2h14a2 2 0 0 1 2 2z"/></g></svg>