<svg xmlns="http://www.w3.org/2000/svg" width="24" height="24"><g fill="none" fill-rule="evenodd"><path d="M24 0v24H0V0zM12.594 23.258l-.012.002-.071.035-.02.004-.014-.004-.071-.036c-.01-.003-.019 0-.024.006l-.004.01-.017.428.005.02.01.013.104.074.015.004.012-.004.104-.074.012-.016.004-.017-.017-.427c-.002-.01-.009-.017-.016-.018m.264-.113-.014.002-.184.093-.01.01-.003.011.018.43.005.012.008.008.201.092c.012.004.023 0 .029-.008l.004-.014-.034-.614c-.003-.012-.01-.02-.02-.022m-.715.002a.023.023 0 0 0-.027.006l-.006.014-.034.614c0 .012.007.02.017.024l.015-.002.201-.093.01-.008.003-.011.018-.43-.003-.012-.01-.01z"/><path fill="#09244B" d="M12 2a1 1 0 0 1 1 1v1.522a2.501 2.501 0 0 1 2.89 4.003l-.355.354.707.707.354-.354a2.5 2.5 0 1 1 0 3.536l-.354-.354-.707.707.354.354a2.5 2.5 0 0 1-1.14 4.188 1 1 0 0 1-.25.203V21a1 1 0 1 1-2 0v-3h-1v3a1 1 0 1 1-2 0v-3.134a1.005 1.005 0 0 1-.248-.203 2.5 2.5 0 0 1-1.14-4.188l.353-.354-.707-.707-.353.354a2.5 2.5 0 1 1 0-3.536l.353.354.707-.707-.353-.354A2.5 2.5 0 0 1 11 4.522V3a1 1 0 0 1 1-1m2.121 12.536-.707.707.354.353a.5.5 0 1 0 .707-.707zm-4.242 0-.354.353a.5.5 0 1 0 .707.707l.354-.353zm-4.597-3.89a.5.5 0 0 0 .708.708L6.343 11l-.353-.354a.5.5 0 0 0-.708 0m12.728 0-.353.354.353.354a.5.5 0 1 0 0-.707M9.525 6.405a.5.5 0 0 0 0 .707l.354.354.707-.708-.354-.353a.5.5 0 0 0-.707 0m4.95 0a.5.5 0 0 0-.638-.058l-.07.058-.353.353.707.708.354-.354a.5.5 0 0 0 0-.707"/></g></svg>