<?xml version="1.0" encoding="UTF-8"?>
<svg width="24px" height="24px" viewBox="0 0 24 24" version="1.1" xmlns="http://www.w3.org/2000/svg" xmlns:xlink="http://www.w3.org/1999/xlink">
    <title>coin_fill</title>
    <g id="页面-1" stroke="none" stroke-width="1" fill="none" fill-rule="evenodd">
        <g id="Business" transform="translate(-384.000000, -48.000000)" fill-rule="nonzero">
            <g id="coin_fill" transform="translate(384.000000, 48.000000)">
                <rect id="矩形" x="0" y="0" width="24" height="24"></rect>
                <path d="M12,5 C14.5917,5 16.9861,5.46489 18.7701,6.25776 C19.6608,6.65364 20.4435,7.15092 21.0171,7.75363 C21.5473917,8.31084417 21.931391,8.99658722 21.9917083,9.78303757 L22,10 L22,14 C22,14.8777 21.5956,15.6385 21.0171,16.2464 C20.4435,16.8491 19.6608,17.3464 18.7701,17.7422 C16.9861,18.5351 14.5917,19 12,19 C9.40829,19 7.01386,18.5351 5.2299,17.7422 C4.33918,17.3464 3.55645,16.8491 2.98287,16.2464 C2.4525875,15.6891583 2.06860576,15.0034382 2.00829133,14.2169687 L2,14 L2,10 C2,9.12233 2.40438,8.3615 2.98287,7.75363 C3.55645,7.15092 4.33918,6.65364 5.2299,6.25776 C7.01386,5.46489 9.40829,5 12,5 Z M20,13.0801 C19.6246,13.3259 19.2105,13.5465 18.7701,13.7422 C16.9861,14.5351 14.5917,15 12,15 C9.40829,15 7.01386,14.5351 5.2299,13.7422 C4.78945,13.5465 4.37541,13.3259 4,13.0801 L4,14 C4,14.2269 4.0993,14.5184 4.43166,14.8676 C4.76892,15.222 5.30422,15.5866 6.04218,15.9146 C7.51558,16.5695 9.62114,17 12,17 C14.3789,17 16.4844,16.5695 17.9578,15.9146 C18.6958,15.5866 19.2311,15.222 19.5683,14.8676 C19.9007,14.5184 20,14.2269 20,14 L20,13.0801 Z" id="形状" fill="#09244B"></path>
            </g>
        </g>
    </g>
</svg>