<?xml version="1.0" encoding="UTF-8"?>
<svg width="24px" height="24px" viewBox="0 0 24 24" version="1.1" xmlns="http://www.w3.org/2000/svg" xmlns:xlink="http://www.w3.org/1999/xlink">
    <title>coin_line</title>
    <g id="Icon" stroke="none" stroke-width="1" fill="none" fill-rule="evenodd">
        <g id="Business" transform="translate(-384.000000, 0.000000)">
            <g id="coin_line" transform="translate(384.000000, 0.000000)">
                <path d="M24,0 L24,24 L0,24 L0,0 L24,0 Z M12.5935,23.2578 L12.5819,23.2595 L12.5109,23.295 L12.4919,23.2987 L12.4767,23.295 L12.4057,23.2595 C12.3958,23.2564 12.387,23.259 12.3821,23.2649 L12.378,23.2758 L12.3609,23.7031 L12.3659,23.7235 L12.3769,23.7357 L12.4805,23.8097 L12.4953,23.8136 L12.5071,23.8097 L12.6107,23.7357 L12.6233,23.7197 L12.6267,23.7031 L12.6096,23.2758 C12.6076,23.2657 12.601,23.2593 12.5935,23.2578 Z M12.8584,23.1453 L12.8445,23.1473 L12.6598,23.2397 L12.6499,23.2499 L12.6472,23.2611 L12.6651,23.6906 L12.6699,23.7034 L12.6784,23.7105 L12.8793,23.8032 C12.8914,23.8069 12.9022,23.803 12.9078,23.7952 L12.9118,23.7812 L12.8777,23.1665 C12.8753,23.1546 12.8674,23.147 12.8584,23.1453 Z M12.143,23.1473 C12.1332,23.1424 12.1222,23.1453 12.1156,23.1526 L12.1099,23.1665 L12.0758,23.7812 C12.0751,23.7927 12.0828,23.8019 12.0926,23.8046 L12.1083,23.8032 L12.3092,23.7105 L12.3186,23.7024 L12.3225,23.6906 L12.3404,23.2611 L12.3372,23.2485 L12.3278,23.2397 L12.143,23.1473 Z" id="MingCute" fill-rule="nonzero"></path>
                <path d="M12,5 C14.5917,5 16.9861,5.46489 18.7701,6.25776 C19.6608,6.65364 20.4435,7.15092 21.0171,7.75363 C21.5956,8.3615 22,9.12233 22,10 L22,14 C22,14.8777 21.5956,15.6385 21.0171,16.2464 C20.4435,16.8491 19.6608,17.3464 18.7701,17.7422 C16.9861,18.5351 14.5917,19 12,19 C9.40829,19 7.01386,18.5351 5.2299,17.7422 C4.33918,17.3464 3.55645,16.8491 2.98287,16.2464 C2.40438,15.6385 2,14.8777 2,14 L2,10 C2,9.12233 2.40438,8.3615 2.98287,7.75363 C3.55645,7.15092 4.33918,6.65364 5.2299,6.25776 C7.01386,5.46489 9.40829,5 12,5 Z M20,13.0801 C19.6246,13.3259 19.2105,13.5465 18.7701,13.7422 C16.9861,14.5351 14.5917,15 12,15 C9.40829,15 7.01386,14.5351 5.2299,13.7422 C4.78945,13.5465 4.37541,13.3259 4,13.0801 L4,14 C4,14.2269 4.0993,14.5184 4.43166,14.8676 C4.76892,15.222 5.30422,15.5866 6.04218,15.9146 C7.51558,16.5695 9.62114,17 12,17 C14.3789,17 16.4844,16.5695 17.9578,15.9146 C18.6958,15.5866 19.2311,15.222 19.5683,14.8676 C19.9007,14.5184 20,14.2269 20,14 L20,13.0801 Z M12,7 C9.62114,7 7.51558,7.43054 6.04218,8.08538 C5.30422,8.41337 4.76892,8.77801 4.43166,9.1324 C4.0993,9.48164 4,9.7731 4,10 C4,10.2269 4.0993,10.5184 4.43166,10.8676 C4.76892,11.222 5.30422,11.5866 6.04218,11.9146 C7.51558,12.5695 9.62114,13 12,13 C14.3789,13 16.4844,12.5695 17.9578,11.9146 C18.6958,11.5866 19.2311,11.222 19.5683,10.8676 C19.9007,10.5184 20,10.2269 20,10 C20,9.7731 19.9007,9.48164 19.5683,9.1324 C19.2311,8.77801 18.6958,8.41337 17.9578,8.08538 C16.4844,7.43054 14.3789,7 12,7 Z" id="形状" fill="#09244B"></path>
            </g>
        </g>
    </g>
</svg>