<?xml version="1.0" encoding="UTF-8"?>
<svg width="24px" height="24px" viewBox="0 0 24 24" version="1.1" xmlns="http://www.w3.org/2000/svg" xmlns:xlink="http://www.w3.org/1999/xlink">
    <title>coin_2_line</title>
    <g id="页面-1" stroke="none" stroke-width="1" fill="none" fill-rule="evenodd">
        <g id="Business" transform="translate(-336.000000, 0.000000)" fill-rule="nonzero">
            <g id="coin_2_line" transform="translate(336.000000, 0.000000)">
                <path d="M24,0 L24,24 L0,24 L0,0 L24,0 Z M12.5934901,23.257841 L12.5819402,23.2595131 L12.5108777,23.2950439 L12.4918791,23.2987469 L12.4918791,23.2987469 L12.4767152,23.2950439 L12.4056548,23.2595131 C12.3958229,23.2563662 12.3870493,23.2590235 12.3821421,23.2649074 L12.3780323,23.275831 L12.360941,23.7031097 L12.3658947,23.7234994 L12.3769048,23.7357139 L12.4804777,23.8096931 L12.4953491,23.8136134 L12.4953491,23.8136134 L12.5071152,23.8096931 L12.6106902,23.7357139 L12.6232938,23.7196733 L12.6232938,23.7196733 L12.6266527,23.7031097 L12.609561,23.275831 C12.6075724,23.2657013 12.6010112,23.2592993 12.5934901,23.257841 L12.5934901,23.257841 Z M12.8583906,23.1452862 L12.8445485,23.1473072 L12.6598443,23.2396597 L12.6498822,23.2499052 L12.6498822,23.2499052 L12.6471943,23.2611114 L12.6650943,23.6906389 L12.6699349,23.7034178 L12.6699349,23.7034178 L12.678386,23.7104931 L12.8793402,23.8032389 C12.8914285,23.8068999 12.9022333,23.8029875 12.9078286,23.7952264 L12.9118235,23.7811639 L12.8776777,23.1665331 C12.8752882,23.1545897 12.8674102,23.1470016 12.8583906,23.1452862 L12.8583906,23.1452862 Z M12.1430473,23.1473072 C12.1332178,23.1423925 12.1221763,23.1452606 12.1156365,23.1525954 L12.1099173,23.1665331 L12.0757714,23.7811639 C12.0751323,23.7926639 12.0828099,23.8018602 12.0926481,23.8045676 L12.108256,23.8032389 L12.3092106,23.7104931 L12.3186497,23.7024347 L12.3186497,23.7024347 L12.3225043,23.6906389 L12.340401,23.2611114 L12.337245,23.2485176 L12.337245,23.2485176 L12.3277531,23.2396597 L12.1430473,23.1473072 Z" id="MingCute" fill-rule="nonzero"></path>
                <path d="M12,3 C14.3137,3 16.4562,3.40832 18.0577,4.10897 C18.8569,4.45864 19.5665,4.90083 20.0903,5.44258 C20.5746667,5.94359333 20.9354285,6.57080799 20.9921918,7.2989365 L21,7.5 L21,17.5 C21,18.3141 20.6187,19.0109 20.0903,19.5574 C19.5665,20.0992 18.8569,20.5414 18.0577,20.891 C16.4562,21.5917 14.3137,22 12,22 C9.6863,22 7.54381,21.5917 5.94233,20.891 C5.14307,20.5414 4.43348,20.0992 3.90973,19.5574 C3.42536333,19.0564417 3.06457632,18.4291896 3.00780881,17.7010622 L3,17.5 L3,7.5 C3,6.68589 3.38133,5.98914 3.90973,5.44258 C4.43348,4.90083 5.14307,4.45864 5.94233,4.10897 C7.54381,3.40832 9.6863,3 12,3 Z M19,15.4071 C18.7059,15.5847 18.3895,15.7458 18.0577,15.891 C16.4562,16.5917 14.3137,17 12,17 C9.6863,17 7.54381,16.5917 5.94233,15.891 C5.61046,15.7458 5.29406,15.5847 5,15.4071 L5,17.5 C5,17.6524 5.06638,17.8764 5.34763,18.1673 C5.63353,18.463 6.09551,18.775 6.74396,19.0587 C8.03791,19.6248 9.89543,20 12,20 C14.1046,20 15.9621,19.6248 17.256,19.0587 C17.9045,18.775 18.3665,18.463 18.6524,18.1673 C18.9336,17.8764 19,17.6524 19,17.5 L19,15.4071 Z M19,10.4071 C18.7059,10.5847 18.3895,10.7458 18.0577,10.891 C16.4562,11.5917 14.3137,12 12,12 C9.6863,12 7.54381,11.5917 5.94233,10.891 C5.61046,10.7458 5.29406,10.5847 5,10.4071 L5,12.5 C5,12.6524 5.06638,12.8764 5.34763,13.1673 C5.63353,13.463 6.09551,13.775 6.74396,14.0587 C8.03791,14.6248 9.89543,15 12,15 C14.1046,15 15.9621,14.6248 17.256,14.0587 C17.9045,13.775 18.3665,13.463 18.6524,13.1673 C18.9336,12.8764 19,12.6524 19,12.5 L19,10.4071 Z M12,5 C9.89543,5 8.03791,5.37518 6.74396,5.94128 C6.09551,6.22498 5.63353,6.53698 5.34763,6.8327 C5.06638,7.12362 5,7.34762 5,7.5 C5,7.65238 5.06638,7.87638 5.34763,8.1673 C5.63353,8.46302 6.09551,8.77502 6.74396,9.05872 C8.03791,9.62482 9.89543,10 12,10 C14.1046,10 15.9621,9.62482 17.256,9.05872 C17.9045,8.77502 18.3665,8.46302 18.6524,8.1673 C18.9336,7.87638 19,7.65238 19,7.5 C19,7.34762 18.9336,7.12362 18.6524,6.8327 C18.3665,6.53698 17.9045,6.22498 17.256,5.94128 C15.9621,5.37518 14.1046,5 12,5 Z" id="形状" fill="#09244B"></path>
            </g>
        </g>
    </g>
</svg>