<svg width="24" height="24" viewBox="0 0 24 24" fill="none" xmlns="http://www.w3.org/2000/svg">
<rect width="24" height="24" fill="white" fill-opacity="0.01"/>
<path fill-rule="evenodd" clip-rule="evenodd" d="M10.5858 7.75736L7.75735 10.5858C6.9763 11.3668 6.9763 12.6332 7.75735 13.4142L10.5858 16.2426C11.3668 17.0237 12.6332 17.0237 13.4142 16.2426L16.2426 13.4142C17.0237 12.6332 17.0237 11.3668 16.2426 10.5858L13.4142 7.75736C12.6332 6.97631 11.3668 6.97631 10.5858 7.75736ZM9.17157 12L12 9.17157L14.8284 12L12 14.8284L9.17157 12Z" fill="#09244B"/>
<path fill-rule="evenodd" clip-rule="evenodd" d="M12 2C6.47715 2 2 6.47715 2 12C2 17.5228 6.47715 22 12 22C17.5228 22 22 17.5228 22 12C22 6.47715 17.5228 2 12 2ZM4 12C4 7.58172 7.58172 4 12 4C16.4183 4 20 7.58172 20 12C20 16.4183 16.4183 20 12 20C7.58172 20 4 16.4183 4 12Z" fill="#09244B"/>
</svg>
