<?xml version="1.0" encoding="UTF-8"?>
<svg width="24px" height="24px" viewBox="0 0 24 24" version="1.1" xmlns="http://www.w3.org/2000/svg" xmlns:xlink="http://www.w3.org/1999/xlink">
    <title>copper_coin_line</title>
    <g id="页面-1" stroke="none" stroke-width="1" fill="none" fill-rule="evenodd">
        <g id="Business" transform="translate(-432.000000, 0.000000)">
            <g id="copper_coin_line" transform="translate(432.000000, 0.000000)">
                <rect id="矩形" fill-rule="nonzero" x="0" y="0" width="24" height="24"></rect>
                <path d="M12,2 C17.5228,2 22,6.47715 22,12 C22,17.5228 17.5228,22 12,22 C6.47715,22 2,17.5228 2,12 C2,6.47715 6.47715,2 12,2 Z M12,4 C7.58172,4 4,7.58172 4,12 C4,16.4183 7.58172,20 12,20 C16.4183,20 20,16.4183 20,12 C20,7.58172 16.4183,4 12,4 Z M10.5858,7.75736 C11.3256947,7.01741789 12.5012393,6.97847357 13.286992,7.64052704 L13.4142,7.75736 L16.2426,10.5858 C16.9825895,11.3256947 17.0215363,12.5012393 16.3594404,13.286992 L16.2426,13.4142 L13.4142,16.2426 C12.6743053,16.9825895 11.4987607,17.0215363 10.713008,16.3594404 L10.5858,16.2426 L7.75735,13.4142 C7.01740789,12.6743053 6.97846357,11.4987607 7.64051704,10.713008 L7.75735,10.5858 L10.5858,7.75736 Z M12,9.17157 L9.17157,12 L12,14.8284 L14.8284,12 L12,9.17157 Z" id="形状" fill="#09244B"></path>
            </g>
        </g>
    </g>
</svg>