<?xml version="1.0" encoding="UTF-8"?>
<svg width="24px" height="24px" viewBox="0 0 24 24" version="1.1" xmlns="http://www.w3.org/2000/svg" xmlns:xlink="http://www.w3.org/1999/xlink">
    <title>copyright_line</title>
    <g id="页面-1" stroke="none" stroke-width="1" fill="none" fill-rule="evenodd">
        <g id="Business" transform="translate(-528.000000, -96.000000)" fill-rule="nonzero">
            <g id="copyright_line" transform="translate(528.000000, 96.000000)">
                <rect id="矩形" x="0" y="0" width="24" height="24"></rect>
                <path d="M12,2 C17.5228,2 22,6.47715 22,12 C22,17.5228 17.5228,22 12,22 C6.47715,22 2,17.5228 2,12 C2,6.47715 6.47715,2 12,2 Z M12,4 C7.58172,4 4,7.58172 4,12 C4,16.4183 7.58172,20 12,20 C16.4183,20 20,16.4183 20,12 C20,7.58172 16.4183,4 12,4 Z M12,7 C13.4935,7 14.835,7.65607 15.7497,8.69244 C16.1152,9.10651 16.0758,9.73845 15.6617,10.1039 C15.2477,10.4694 14.6157,10.43 14.2503,10.0159 C13.6991,9.39144 12.8959,9 12,9 C10.3431,9 9,10.3431 9,12 C9,13.6569 10.3431,15 12,15 C12.8959,15 13.6991,14.6086 14.2503,13.9841 C14.6157,13.57 15.2477,13.5306 15.6617,13.8961 C16.0758,14.2616 16.1152,14.8935 15.7497,15.3076 C14.835,16.3439 13.4935,17 12,17 C9.23858,17 7,14.7614 7,12 C7,9.23858 9.23858,7 12,7 Z" id="形状" fill="#09244B"></path>
            </g>
        </g>
    </g>
</svg>