<svg width="24" height="24" viewBox="0 0 24 24" fill="none" xmlns="http://www.w3.org/2000/svg">
<rect width="24" height="24" fill="white" fill-opacity="0.01"/>
<path d="M10 9C9.44772 9 9 9.44772 9 10V14C9 14.5523 9.44772 15 10 15C10.5523 15 11 14.5523 11 14V10C11 9.44772 10.5523 9 10 9Z" fill="#09244B"/>
<path fill-rule="evenodd" clip-rule="evenodd" d="M5 4C3.34315 4 2 5.34315 2 7V8.81712C2 9.47402 2.4135 9.97309 2.88318 10.2048C3.54691 10.5323 4 11.2142 4 12C4 12.7858 3.54691 13.4677 2.88318 13.7952C2.4135 14.0269 2 14.526 2 15.1829V17C2 18.6569 3.34315 20 5 20H19C20.6569 20 22 18.6569 22 17V15.1829C22 14.526 21.5865 14.0269 21.1168 13.7952C20.4531 13.4677 20 12.7858 20 12C20 11.2142 20.4531 10.5323 21.1168 10.2048C21.5865 9.97309 22 9.47402 22 8.81712V7C22 5.34315 20.6569 4 19 4H5ZM4 7C4 6.44772 4.44772 6 5 6H19C19.5523 6 20 6.44772 20 7V8.53535C18.8061 9.22587 18 10.518 18 12C18 13.482 18.8061 14.7741 20 15.4647V17C20 17.5523 19.5523 18 19 18H5C4.44772 18 4 17.5523 4 17V15.4647C5.1939 14.7741 6 13.482 6 12C6 10.518 5.1939 9.22587 4 8.53534V7Z" fill="#09244B"/>
</svg>
