<?xml version="1.0" encoding="UTF-8"?>
<svg width="24px" height="24px" viewBox="0 0 24 24" version="1.1" xmlns="http://www.w3.org/2000/svg" xmlns:xlink="http://www.w3.org/1999/xlink">
    <title>coupon_line</title>
    <g id="页面-1" stroke="none" stroke-width="1" fill="none" fill-rule="evenodd">
        <g id="Business" transform="translate(-480.000000, 0.000000)" fill-rule="nonzero">
            <g id="coupon_line" transform="translate(480.000000, 0.000000)">
                <rect id="矩形" x="0" y="0" width="24" height="24"></rect>
                <path d="M19,4 C20.597725,4 21.903664,5.24892392 21.9949075,6.82372764 L22,7 L22,8.81712 C22,9.42348923 21.6476686,9.89537609 21.224032,10.1466323 L21.1168,10.2048 C20.4531,10.5323 20,11.2142 20,12 C20,12.7296714 20.3906832,13.3697556 20.9778904,13.7196882 L21.1168,13.7952 C21.5503692,14.0090769 21.9360521,14.4507976 21.9928224,15.0341588 L22,15.1829 L22,17 C22,18.597725 20.7511226,19.903664 19.1762773,19.9949075 L19,20 L5,20 C3.40232321,20 2.09633941,18.7511226 2.00509271,17.1762773 L2,17 L2,15.1829 C2,14.5765308 2.35233136,14.1046183 2.77595223,13.8533661 L2.88318,13.7952 C3.54691,13.4677 4,12.7858 4,12 C4,11.2703286 3.60932546,10.6302444 3.02209542,10.2803118 L2.88318,10.2048 C2.44962923,9.99091385 2.06394781,9.54921799 2.0071776,8.96586074 L2,8.81712 L2,7 C2,5.40232321 3.24892392,4.09633941 4.82372764,4.00509271 L5,4 L19,4 Z M19,6 L5,6 C4.48716857,6 4.06449347,6.38604429 4.0067278,6.88337975 L4,7 L4,8.53534 C5.1939,9.22587 6,10.518 6,12 C6,13.404 5.27651967,14.6375634 4.18522683,15.3507193 L4,15.4647 L4,17 C4,17.51285 4.38604429,17.9355092 4.88337975,17.9932725 L5,18 L19,18 C19.51285,18 19.9355092,17.613973 19.9932725,17.1166239 L20,17 L20,15.4647 C18.8061,14.7741 18,13.482 18,12 C18,10.596 18.7234803,9.36240964 19.8147732,8.64931897 L20,8.53535 L20,7 C20,6.48716857 19.613973,6.06449347 19.1166239,6.0067278 L19,6 Z M10,9 C10.51285,9 10.9355092,9.38604429 10.9932725,9.88337975 L11,10 L11,14 C11,14.5523 10.5523,15 10,15 C9.48716857,15 9.06449347,14.613973 9.0067278,14.1166239 L9,14 L9,10 C9,9.44772 9.44772,9 10,9 Z" id="形状" fill="#09244B"></path>
            </g>
        </g>
    </g>
</svg>