<?xml version="1.0" encoding="UTF-8"?>
<svg width="24px" height="24px" viewBox="0 0 24 24" version="1.1" xmlns="http://www.w3.org/2000/svg" xmlns:xlink="http://www.w3.org/1999/xlink">
    <title>currency_dollar_2_line</title>
    <g id="Icon" stroke="none" stroke-width="1" fill="none" fill-rule="evenodd">
        <g id="Business" transform="translate(0.000000, -288.000000)" fill-rule="nonzero">
            <g id="currency_dollar_2_line" transform="translate(0.000000, 288.000000)">
                <rect id="矩形" x="0" y="0" width="24" height="24"></rect>
                <path d="M13,4 C13,3.44772 12.5523,3 12,3 C11.4477,3 11,3.44772 11,4 L11,5 L9.5,5 C7.29086,5 5.5,6.79086 5.5,9 C5.5,11.2091 7.29086,13 9.5,13 L14.5,13 C15.6046,13 16.5,13.8954 16.5,15 C16.5,16.1046 15.6046,17 14.5,17 L7,17 C6.44772,17 6,17.4477 6,18 C6,18.5523 6.44772,19 7,19 L11,19 L11,20 C11,20.5523 11.4477,21 12,21 C12.5523,21 13,20.5523 13,20 L13,19 L14.5,19 C16.7091,19 18.5,17.2091 18.5,15 C18.5,12.7909 16.7091,11 14.5,11 L9.5,11 C8.39543,11 7.5,10.1046 7.5,9 C7.5,7.89543 8.39543,7 9.5,7 L17,7 C17.5523,7 18,6.55228 18,6 C18,5.44772 17.5523,5 17,5 L13,5 L13,4 Z" id="路径" fill="#09244B"></path>
            </g>
        </g>
    </g>
</svg>