<?xml version="1.0" encoding="UTF-8"?>
<svg width="24px" height="24px" viewBox="0 0 24 24" version="1.1" xmlns="http://www.w3.org/2000/svg" xmlns:xlink="http://www.w3.org/1999/xlink">
    <title>currency_euro_2_line</title>
    <g id="页面-1" stroke="none" stroke-width="1" fill="none" fill-rule="evenodd">
        <g id="Business" transform="translate(-144.000000, -288.000000)" fill-rule="nonzero">
            <g id="currency_euro_2_line" transform="translate(144.000000, 288.000000)">
                <path d="M24,0 L24,24 L0,24 L0,0 L24,0 Z M12.5934901,23.257841 L12.5819402,23.2595131 L12.5108777,23.2950439 L12.4918791,23.2987469 L12.4918791,23.2987469 L12.4767152,23.2950439 L12.4056548,23.2595131 C12.3958229,23.2563662 12.3870493,23.2590235 12.3821421,23.2649074 L12.3780323,23.275831 L12.360941,23.7031097 L12.3658947,23.7234994 L12.3769048,23.7357139 L12.4804777,23.8096931 L12.4953491,23.8136134 L12.4953491,23.8136134 L12.5071152,23.8096931 L12.6106902,23.7357139 L12.6232938,23.7196733 L12.6232938,23.7196733 L12.6266527,23.7031097 L12.609561,23.275831 C12.6075724,23.2657013 12.6010112,23.2592993 12.5934901,23.257841 L12.5934901,23.257841 Z M12.8583906,23.1452862 L12.8445485,23.1473072 L12.6598443,23.2396597 L12.6498822,23.2499052 L12.6498822,23.2499052 L12.6471943,23.2611114 L12.6650943,23.6906389 L12.6699349,23.7034178 L12.6699349,23.7034178 L12.678386,23.7104931 L12.8793402,23.8032389 C12.8914285,23.8068999 12.9022333,23.8029875 12.9078286,23.7952264 L12.9118235,23.7811639 L12.8776777,23.1665331 C12.8752882,23.1545897 12.8674102,23.1470016 12.8583906,23.1452862 L12.8583906,23.1452862 Z M12.1430473,23.1473072 C12.1332178,23.1423925 12.1221763,23.1452606 12.1156365,23.1525954 L12.1099173,23.1665331 L12.0757714,23.7811639 C12.0751323,23.7926639 12.0828099,23.8018602 12.0926481,23.8045676 L12.108256,23.8032389 L12.3092106,23.7104931 L12.3186497,23.7024347 L12.3186497,23.7024347 L12.3225043,23.6906389 L12.340401,23.2611114 L12.337245,23.2485176 L12.337245,23.2485176 L12.3277531,23.2396597 L12.1430473,23.1473072 Z" id="MingCute" fill-rule="nonzero"></path>
                <path d="M8.72996,9 C9.68781,7.18734 11.4824,6 13.4711,6 C14.9357,6 16.2778,6.63171 17.2726,7.68622 C17.6516,8.08795 18.2845,8.10638 18.6862,7.7274 C19.0879,7.34841 19.1064,6.71551 18.7274,6.31378 C17.3879,4.89391 15.5329,4 13.4711,4 C10.292,4 7.64398,6.09661 6.54534,9 L5,9 C4.44772,9 4,9.44772 4,10 C4,10.5523 4.44772,11 5,11 L6.05834,11 C5.98129,11.6565 5.98129,12.3435 6.05834,13 L5,13 C4.44772,13 4,13.4477 4,14 C4,14.5523 4.44772,15 5,15 L6.54534,15 C7.64398,17.9034 10.292,20 13.4711,20 C15.5329,20 17.3879,19.1061 18.7274,17.6862 C19.1064,17.2845 19.0879,16.6516 18.6862,16.2726 C18.2845,15.8936 17.6516,15.9121 17.2726,16.3138 C16.2778,17.3683 14.9357,18 13.4711,18 C11.4824,18 9.68781,16.8127 8.72996,15 L13,15 C13.5523,15 14,14.5523 14,14 C14,13.4477 13.5523,13 13,13 L8.07484,13 C7.97649,12.3517 7.97649,11.6483 8.07484,11 L13,11 C13.5523,11 14,10.5523 14,10 C14,9.44772 13.5523,9 13,9 L8.72996,9 Z" id="路径" fill="#09244B"></path>
            </g>
        </g>
    </g>
</svg>