<svg xmlns="http://www.w3.org/2000/svg" width="24" height="24"><g fill="none"><path d="M24 0v24H0V0zM12.593 23.258l-.011.002-.071.035-.02.004-.014-.004-.071-.035c-.01-.004-.019-.001-.024.005l-.004.01-.017.428.005.02.01.013.104.074.015.004.012-.004.104-.074.012-.016.004-.017-.017-.427c-.002-.01-.009-.017-.017-.018m.265-.113-.013.002-.185.093-.01.01-.003.011.018.43.005.012.008.007.201.093c.012.004.023 0 .029-.008l.004-.014-.034-.614c-.003-.012-.01-.02-.02-.022m-.715.002a.023.023 0 0 0-.027.006l-.006.014-.034.614c0 .012.007.02.017.024l.015-.002.201-.093.01-.008.004-.011.017-.43-.003-.012-.01-.01z"/><path fill="#09244B" d="M11 2.5A1.5 1.5 0 0 1 12.5 4v2.573l1.83-.915a1.5 1.5 0 1 1 1.34 2.684L12.5 9.927v.646l1.83-.915a1.5 1.5 0 0 1 1.34 2.684l-3.17 1.585v4.203c.467-.194.98-.47 1.493-.843 1.156-.841 2.155-2.064 2.552-3.65a1.5 1.5 0 1 1 2.91.727c-.603 2.413-2.104 4.19-3.698 5.35C14.202 20.843 12.4 21.5 11 21.5A1.5 1.5 0 0 1 9.5 20v-4.573l-1.83.915a1.5 1.5 0 1 1-1.34-2.684l3.17-1.585v-.646l-1.83.915a1.5 1.5 0 1 1-1.34-2.684L9.5 8.073V4A1.5 1.5 0 0 1 11 2.5"/></g></svg>