<svg width="24" height="24" viewBox="0 0 24 24" fill="none" xmlns="http://www.w3.org/2000/svg">
<rect width="24" height="24" fill="white" fill-opacity="0.01"/>
<path fill-rule="evenodd" clip-rule="evenodd" d="M8 9.1C8 8.49249 8.49249 8 9.1 8H11V7C11 6.44772 11.4477 6 12 6C12.5523 6 13 6.44772 13 7V8H14.5C15.8807 8 17 9.11929 17 10.5C17 11.0628 16.814 11.5822 16.5002 12C16.814 12.4178 17 12.9372 17 13.5C17 14.8807 15.8807 16 14.5 16H13V17C13 17.5523 12.5523 18 12 18C11.4477 18 11 17.5523 11 17V16H9.1C8.49248 16 8 15.5075 8 14.9V9.1ZM10 11H14.5C14.7761 11 15 10.7761 15 10.5C15 10.2239 14.7761 10 14.5 10H10V11ZM10 13V14H14.5C14.7761 14 15 13.7761 15 13.5C15 13.2239 14.7761 13 14.5 13H10Z" fill="#09244B"/>
<path fill-rule="evenodd" clip-rule="evenodd" d="M2 12C2 6.47715 6.47715 2 12 2C17.5228 2 22 6.47715 22 12C22 17.5228 17.5228 22 12 22C6.47715 22 2 17.5228 2 12ZM12 4C7.58172 4 4 7.58172 4 12C4 16.4183 7.58172 20 12 20C16.4183 20 20 16.4183 20 12C20 7.58172 16.4183 4 12 4Z" fill="#09244B"/>
</svg>
