<svg width="24" height="24" viewBox="0 0 24 24" fill="none" xmlns="http://www.w3.org/2000/svg">
<rect width="24" height="24" fill="white" fill-opacity="0.01"/>
<path d="M10 10H11V11H10C9.72386 11 9.5 10.7761 9.5 10.5C9.5 10.2239 9.72386 10 10 10Z" fill="#09244B"/>
<path d="M13 14V13H14C14.2761 13 14.5 13.2239 14.5 13.5C14.5 13.7761 14.2761 14 14 14H13Z" fill="#09244B"/>
<path fill-rule="evenodd" clip-rule="evenodd" d="M12 2C6.47715 2 2 6.47715 2 12C2 17.5228 6.47715 22 12 22C17.5228 22 22 17.5228 22 12C22 6.47715 17.5228 2 12 2ZM11 7C11 6.44771 11.4477 6 12 6C12.5523 6 13 6.44772 13 7V8H15C15.5523 8 16 8.44772 16 9C16 9.55228 15.5523 10 15 10H13V11H14C15.3807 11 16.5 12.1193 16.5 13.5C16.5 14.8807 15.3807 16 14 16H13V17C13 17.5523 12.5523 18 12 18C11.4477 18 11 17.5523 11 17V16H9C8.44772 16 8 15.5523 8 15C8 14.4477 8.44772 14 9 14H11V13H10C8.61929 13 7.5 11.8807 7.5 10.5C7.5 9.11929 8.61929 8 10 8H11V7Z" fill="#09244B"/>
</svg>
