<?xml version="1.0" encoding="UTF-8"?>
<svg width="24px" height="24px" viewBox="0 0 24 24" version="1.1" xmlns="http://www.w3.org/2000/svg" xmlns:xlink="http://www.w3.org/1999/xlink">
    <title>currency_euro_fill</title>
    <g id="页面-1" stroke="none" stroke-width="1" fill="none" fill-rule="evenodd">
        <g id="Business" transform="translate(-672.000000, -48.000000)">
            <g id="currency_euro_fill" transform="translate(672.000000, 48.000000)">
                <rect id="矩形" fill-rule="nonzero" x="0" y="0" width="24" height="24"></rect>
                <path d="M2,12 C2,6.47715 6.47715,2 12,2 C17.5228,2 22,6.47715 22,12 C22,17.5228 17.5228,22 12,22 C6.47715,22 2,17.5228 2,12 Z M8.69993,13 C8.80427,13.856 9.05663,14.7158 9.48592,15.4577 C10.083,16.4894 11.0584,17.3382 12.4455,17.5015 C13.8534,17.6673 15.2827,16.9908 16.1453,15.8856 C16.4848,15.4499 16.4068,14.8216 15.9711,14.4822 C15.4785,14.0983 14.878,14.2832 14.5117,14.7253 C13.563,15.8702 11.9609,15.7414 11.217,14.4559 C10.9785,14.0439 10.8102,13.5394 10.7201,13 L15,13 C15.5523,13 16,12.5523 16,12 C16,11.4477 15.5523,11 15,11 L10.7456,11 C10.8462,10.4833 11.0192,10.002 11.2563,9.60651 C11.9661,8.42215 13.59,8.11589 14.4993,9.26704 C14.8507,9.71199 15.4488,9.91293 15.9466,9.54908 C16.3925,9.2232 16.4859,8.59666 16.16,8.15077 C15.315,6.99462 14.0621,6.42991 12.6288,6.55231 C11.1958,6.67469 10.172,7.52517 9.54079,8.57831 C9.10503,9.30534 8.83834,10.1505 8.71845,11 L8,11 C7.44772,11 7,11.4477 7,12 C7,12.5523 7.44772,13 8,13 L8.69993,13 Z" id="形状" fill="#09244B"></path>
            </g>
        </g>
    </g>
</svg>