<svg xmlns="http://www.w3.org/2000/svg" width="24" height="24"><g fill="none"><path d="M24 0v24H0V0zM12.593 23.258l-.011.002-.071.035-.02.004-.014-.004-.071-.035c-.01-.004-.019-.001-.024.005l-.004.01-.017.428.005.02.01.013.104.074.015.004.012-.004.104-.074.012-.016.004-.017-.017-.427c-.002-.01-.009-.017-.017-.018m.265-.113-.013.002-.185.093-.01.01-.003.011.018.43.005.012.008.007.201.093c.012.004.023 0 .029-.008l.004-.014-.034-.614c-.003-.012-.01-.02-.02-.022m-.715.002a.023.023 0 0 0-.027.006l-.006.014-.034.614c0 .012.007.02.017.024l.015-.002.201-.093.01-.008.004-.011.017-.43-.003-.012-.01-.01z"/><path fill="#09244B" d="M7 6.5a1.5 1.5 0 1 1 0-3h11a1.5 1.5 0 0 1 0 3h-3.522a6.46 6.46 0 0 1 .848 2H18a1.5 1.5 0 0 1 0 3h-2.674a6.513 6.513 0 0 1-4.162 4.631l3.708 2.648a1.5 1.5 0 0 1-1.744 2.442l-6.981-4.987a1.484 1.484 0 0 1-.646-1.18 1.523 1.523 0 0 1 .351-1.02c.292-.347.711-.54 1.168-.534H9a3.5 3.5 0 0 0 3.163-2H7a1.5 1.5 0 0 1 0-3h5.163A3.5 3.5 0 0 0 9 6.5z"/></g></svg>