<svg xmlns="http://www.w3.org/2000/svg" width="24" height="24"><g fill="none" fill-rule="evenodd"><path d="M24 0v24H0V0zM12.593 23.258l-.011.002-.071.035-.02.004-.014-.004-.071-.035c-.01-.004-.019-.001-.024.005l-.004.01-.017.428.005.02.01.013.104.074.015.004.012-.004.104-.074.012-.016.004-.017-.017-.427c-.002-.01-.009-.017-.017-.018m.265-.113-.013.002-.185.093-.01.01-.003.011.018.43.005.012.008.007.201.093c.012.004.023 0 .029-.008l.004-.014-.034-.614c-.003-.012-.01-.02-.02-.022m-.715.002a.023.023 0 0 0-.027.006l-.006.014-.034.614c0 .012.007.02.017.024l.015-.002.201-.093.01-.008.004-.011.017-.43-.003-.012-.01-.01z"/><path fill="#09244B" d="M12 2C6.477 2 2 6.477 2 12s4.477 10 10 10 10-4.477 10-10S17.523 2 12 2M8 8a1 1 0 0 1 1-1h6a1 1 0 1 1 0 2h-1.535c.179.31.318.645.409 1H15a1 1 0 1 1 0 2h-1.126a4.01 4.01 0 0 1-2.302 2.68L13.6 16.2a1 1 0 0 1-1.2 1.6l-3.992-2.994A.986.986 0 0 1 8 14c0-.257.103-.504.27-.683A.985.985 0 0 1 9 13h1a2 2 0 0 0 1.732-1H9a1 1 0 1 1 0-2h2.732A2 2 0 0 0 10 9H9a1 1 0 0 1-1-1"/></g></svg>