<?xml version="1.0" encoding="UTF-8"?>
<svg width="24px" height="24px" viewBox="0 0 24 24" version="1.1" xmlns="http://www.w3.org/2000/svg" xmlns:xlink="http://www.w3.org/1999/xlink">
    <title>currency_bitcoin_fill</title>
    <g id="页面-1" stroke="none" stroke-width="1" fill="none" fill-rule="evenodd">
        <g id="Business" transform="translate(-528.000000, -48.000000)" fill-rule="nonzero">
            <g id="currency_bitcoin_fill" transform="translate(528.000000, 48.000000)">
                <rect id="矩形" x="0" y="0" width="24" height="24"></rect>
                <path d="M12,2 C17.5228,2 22,6.47715 22,12 C22,17.5228 17.5228,22 12,22 C6.47715,22 2,17.5228 2,12 C2,6.47715 6.47715,2 12,2 Z M13,6 C12.4477,6 12,6.44772 12,7 L12,8 L11,8 L11,7 C11,6.44772 10.5523,6 10,6 C9.44772,6 9,6.44772 9,7 L9,8 L8,8 C7.44772,8 7,8.44772 7,9 C7,9.55228 7.44772,10 8,10 L8,14 C7.44772,14 7,14.4477 7,15 C7,15.5523 7.44772,16 8,16 L9,16 L9,17 C9,17.5523 9.44772,18 10,18 C10.5523,18 11,17.5523 11,17 L11,16 L12,16 L12,17 C12,17.5523 12.4477,18 13,18 C13.5523,18 14,17.5523 14,17 L14,16 L14.5,16 C15.8807,16 17,14.8807 17,13.5 C17,12.9372 16.814,12.4178 16.5002,12 C16.814,11.5822 17,11.0628 17,10.5 C17,9.11929 15.8807,8 14.5,8 L14,8 L14,7 C14,6.44772 13.5523,6 13,6 Z M14.5,13 C14.7761,13 15,13.2239 15,13.5 C15,13.7761 14.7761,14 14.5,14 L10,14 L10,13 L14.5,13 Z M14.5,10 C14.7761,10 15,10.2239 15,10.5 C15,10.7454222 14.8230914,10.9496 14.5898645,10.9919429 L14.5,11 L10,11 L10,10 L14.5,10 Z" id="形状" fill="#09244B"></path>
            </g>
        </g>
    </g>
</svg>