<?xml version="1.0" encoding="UTF-8"?>
<svg width="24px" height="24px" viewBox="0 0 24 24" version="1.1" xmlns="http://www.w3.org/2000/svg" xmlns:xlink="http://www.w3.org/1999/xlink">
    <title>currency_dollar_fill</title>
    <g id="页面-1" stroke="none" stroke-width="1" fill="none" fill-rule="evenodd">
        <g id="Business" transform="translate(-624.000000, -48.000000)" fill-rule="nonzero">
            <g id="currency_dollar_fill" transform="translate(624.000000, 48.000000)">
                <rect id="矩形" x="0" y="0" width="24" height="24"></rect>
                <path d="M12,2 C17.5228,2 22,6.47715 22,12 C22,17.5228 17.5228,22 12,22 C6.47715,22 2,17.5228 2,12 C2,6.47715 6.47715,2 12,2 Z M12,6 C11.48715,6 11.0644908,6.38603566 11.0067275,6.8833779 L11,7 L11,8 L10,8 C8.61929,8 7.5,9.11929 7.5,10.5 C7.5,11.825472 8.53153766,12.9100378 9.83562452,12.9946823 L10,13 L11,13 L11,14 L9,14 C8.44772,14 8,14.4477 8,15 C8,15.51285 8.38604429,15.9355092 8.88337975,15.9932725 L9,16 L11,16 L11,17 C11,17.5523 11.4477,18 12,18 C12.51285,18 12.9355092,17.613973 12.9932725,17.1166239 L13,17 L13,16 L14,16 C15.3807,16 16.5,14.8807 16.5,13.5 C16.5,12.174528 15.4684531,11.0899622 14.1643744,11.0053177 L14,11 L13,11 L13,10 L15,10 C15.5523,10 16,9.55228 16,9 C16,8.48716857 15.613973,8.06449347 15.1166239,8.0067278 L15,8 L13,8 L13,7 C13,6.44772 12.5523,6 12,6 Z M14,13 C14.2761,13 14.5,13.2239 14.5,13.5 C14.5,13.7761 14.2761,14 14,14 L13,14 L13,13 L14,13 Z M11,10 L11,11 L10,11 C9.72386,11 9.5,10.7761 9.5,10.5 C9.5,10.2239 9.72386,10 10,10 L11,10 Z" id="形状" fill="#09244B"></path>
            </g>
        </g>
    </g>
</svg>