<?xml version="1.0" encoding="UTF-8"?>
<svg width="24px" height="24px" viewBox="0 0 24 24" version="1.1" xmlns="http://www.w3.org/2000/svg" xmlns:xlink="http://www.w3.org/1999/xlink">
    <title>currency_dollar_line</title>
    <g id="页面-1" stroke="none" stroke-width="1" fill="none" fill-rule="evenodd">
        <g id="Business" transform="translate(-624.000000, 0.000000)">
            <g id="currency_dollar_line" transform="translate(624.000000, 0.000000)">
                <rect id="矩形" fill-rule="nonzero" x="0" y="0" width="24" height="24"></rect>
                <path d="M12,2 C17.5228,2 22,6.47715 22,12 C22,17.5228 17.5228,22 12,22 C6.47715,22 2,17.5228 2,12 C2,6.47715 6.47715,2 12,2 Z M12,4 C7.58172,4 4,7.58172 4,12 C4,16.4183 7.58172,20 12,20 C16.4183,20 20,16.4183 20,12 C20,7.58172 16.4183,4 12,4 Z M12,6 C12.5523,6 13,6.44772 13,7 L13,8 L15,8 C15.5523,8 16,8.44772 16,9 C16,9.55228 15.5523,10 15,10 L13,10 L13,11 L14,11 C15.3807,11 16.5,12.1193 16.5,13.5 C16.5,14.8807 15.3807,16 14,16 L13,16 L13,17 C13,17.5523 12.5523,18 12,18 C11.4477,18 11,17.5523 11,17 L11,16 L9,16 C8.44772,16 8,15.5523 8,15 C8,14.4477 8.44772,14 9,14 L11,14 L11,13 L10,13 C8.61929,13 7.5,11.8807 7.5,10.5 C7.5,9.11929 8.61929,8 10,8 L11,8 L11,7 C11,6.44771 11.4477,6 12,6 Z M14,13 L13,13 L13,14 L14,14 C14.2761,14 14.5,13.7761 14.5,13.5 C14.5,13.2239 14.2761,13 14,13 Z M11,10 L10,10 C9.72386,10 9.5,10.2239 9.5,10.5 C9.5,10.7761 9.72386,11 10,11 L11,11 L11,10 Z" id="形状" fill="#09244B"></path>
            </g>
        </g>
    </g>
</svg>