<?xml version="1.0" encoding="UTF-8"?>
<svg width="24px" height="24px" viewBox="0 0 24 24" version="1.1" xmlns="http://www.w3.org/2000/svg" xmlns:xlink="http://www.w3.org/1999/xlink">
    <title>currency_cny_line</title>
    <g id="页面-1" stroke="none" stroke-width="1" fill="none" fill-rule="evenodd">
        <g id="Business" transform="translate(-576.000000, 0.000000)" fill-rule="nonzero">
            <g id="currency_cny_line" transform="translate(576.000000, 0.000000)">
                <rect id="矩形" x="0" y="0" width="24" height="24"></rect>
                <path d="M12,2 C17.5228,2 22,6.47715 22,12 C22,17.5228 17.5228,22 12,22 C6.47715,22 2,17.5228 2,12 C2,6.47715 6.47715,2 12,2 Z M12,4 C7.58172,4 4,7.58172 4,12 C4,16.4183 7.58172,20 12,20 C16.4183,20 20,16.4183 20,12 C20,7.58172 16.4183,4 12,4 Z M15.4226,7.42428 C15.8668,7.75245 15.9609,8.37859 15.6327,8.8228 L14.0242,11.0001 L15,11.0001 C15.5523,11.0001 16,11.4478 16,12.0001 C16,12.5523 15.5523,13.0001 15,13.0001 L13,13.0001 L13,14.0001 L15,14.0001 C15.5523,14.0001 16,14.4478 16,15.0001 C16,15.5523 15.5523,16.0001 15,16.0001 L13,16.0001 L13,17.0001 C13,17.5523 12.5523,18.0001 12,18.0001 C11.4477,18.0001 11,17.5523 11,17.0001 L11,16.0001 L9,16.0001 C8.44772,16.0001 8,15.5523 8,15.0001 C8,14.4478 8.44772,14.0001 9,14.0001 L11,14.0001 L11,13.0001 L9,13.0001 C8.44772,13.0001 8,12.5523 8,12.0001 C8,11.4478 8.44772,11.0001 9,11.0001 L9.97582,11.0001 L8.36727,8.8228 C8.03909,8.37859 8.13315,7.75245 8.57736,7.42428 C9.02156,7.0961 9.6477,7.19016 9.97588,7.63436 L12,10.3741 L14.0241,7.63436 C14.3523,7.19016 14.9784,7.0961 15.4226,7.42428 Z" id="形状" fill="#09244B"></path>
            </g>
        </g>
    </g>
</svg>