<?xml version="1.0" encoding="UTF-8"?>
<svg width="24px" height="24px" viewBox="0 0 24 24" version="1.1" xmlns="http://www.w3.org/2000/svg" xmlns:xlink="http://www.w3.org/1999/xlink">
    <title>currency_euro_2_fill</title>
    <g id="页面-1" stroke="none" stroke-width="1" fill="none" fill-rule="evenodd">
        <g id="Business" transform="translate(-144.000000, -336.000000)" fill-rule="nonzero">
            <g id="currency_euro_2_fill" transform="translate(144.000000, 336.000000)">
                <path d="M24,0 L24,24 L0,24 L0,0 L24,0 Z M12.5934901,23.257841 L12.5819402,23.2595131 L12.5108777,23.2950439 L12.4918791,23.2987469 L12.4918791,23.2987469 L12.4767152,23.2950439 L12.4056548,23.2595131 C12.3958229,23.2563662 12.3870493,23.2590235 12.3821421,23.2649074 L12.3780323,23.275831 L12.360941,23.7031097 L12.3658947,23.7234994 L12.3769048,23.7357139 L12.4804777,23.8096931 L12.4953491,23.8136134 L12.4953491,23.8136134 L12.5071152,23.8096931 L12.6106902,23.7357139 L12.6232938,23.7196733 L12.6232938,23.7196733 L12.6266527,23.7031097 L12.609561,23.275831 C12.6075724,23.2657013 12.6010112,23.2592993 12.5934901,23.257841 L12.5934901,23.257841 Z M12.8583906,23.1452862 L12.8445485,23.1473072 L12.6598443,23.2396597 L12.6498822,23.2499052 L12.6498822,23.2499052 L12.6471943,23.2611114 L12.6650943,23.6906389 L12.6699349,23.7034178 L12.6699349,23.7034178 L12.678386,23.7104931 L12.8793402,23.8032389 C12.8914285,23.8068999 12.9022333,23.8029875 12.9078286,23.7952264 L12.9118235,23.7811639 L12.8776777,23.1665331 C12.8752882,23.1545897 12.8674102,23.1470016 12.8583906,23.1452862 L12.8583906,23.1452862 Z M12.1430473,23.1473072 C12.1332178,23.1423925 12.1221763,23.1452606 12.1156365,23.1525954 L12.1099173,23.1665331 L12.0757714,23.7811639 C12.0751323,23.7926639 12.0828099,23.8018602 12.0926481,23.8045676 L12.108256,23.8032389 L12.3092106,23.7104931 L12.3186497,23.7024347 L12.3186497,23.7024347 L12.3225043,23.6906389 L12.340401,23.2611114 L12.337245,23.2485176 L12.337245,23.2485176 L12.3277531,23.2396597 L12.1430473,23.1473072 Z" id="MingCute" fill-rule="nonzero"></path>
                <path d="M9.63574,8.5 C10.5659,7.26197 11.9695,6.5 13.4711,6.5 C14.7864,6.5 16.0003,7.06616 16.9089,8.02933 C17.4774,8.63192 18.4267,8.65958 19.0293,8.09109 C19.6319,7.52261 19.6596,6.57327 19.0911,5.97067 C17.6654,4.45946 15.6822,3.5 13.4711,3.5 C10.1773,3.5 7.44388,5.58917 6.20851,8.5 L5,8.5 C4.17157,8.5 3.5,9.17157 3.5,10 C3.5,10.8284 4.17157,11.5 5,11.5 L5.51378,11.5 C5.49549,11.8313 5.49549,12.1687 5.51378,12.5 L5,12.5 C4.17157,12.5 3.5,13.1716 3.5,14 C3.5,14.8284 4.17157,15.5 5,15.5 L6.20851,15.5 C7.44388,18.4108 10.1773,20.5 13.4711,20.5 C15.6822,20.5 17.6654,19.5405 19.0911,18.0293 C19.6596,17.4267 19.6319,16.4774 19.0293,15.9089 C18.4267,15.3404 17.4774,15.3681 16.9089,15.9707 C16.0003,16.9338 14.7864,17.5 13.4711,17.5 C11.9695,17.5 10.5659,16.738 9.63574,15.5 L13,15.5 C13.8284,15.5 14.5,14.8284 14.5,14 C14.5,13.1716 13.8284,12.5 13,12.5 L8.51985,12.5 C8.49359,12.1716 8.49359,11.8284 8.51985,11.5 L13,11.5 C13.8284,11.5 14.5,10.8284 14.5,10 C14.5,9.17157 13.8284,8.5 13,8.5 L9.63574,8.5 Z" id="路径" fill="#09244B"></path>
            </g>
        </g>
    </g>
</svg>