<?xml version="1.0" encoding="UTF-8"?>
<svg width="24px" height="24px" viewBox="0 0 24 24" version="1.1" xmlns="http://www.w3.org/2000/svg" xmlns:xlink="http://www.w3.org/1999/xlink">
    <title>currency_bitcoin_2_fill</title>
    <g id="页面-1" stroke="none" stroke-width="1" fill="none" fill-rule="evenodd">
        <g id="Business" transform="translate(-672.000000, -240.000000)" fill-rule="nonzero">
            <g id="currency_bitcoin_2_fill" transform="translate(672.000000, 240.000000)">
                <path d="M24,0 L24,24 L0,24 L0,0 L24,0 Z M12.5934901,23.257841 L12.5819402,23.2595131 L12.5108777,23.2950439 L12.4918791,23.2987469 L12.4918791,23.2987469 L12.4767152,23.2950439 L12.4056548,23.2595131 C12.3958229,23.2563662 12.3870493,23.2590235 12.3821421,23.2649074 L12.3780323,23.275831 L12.360941,23.7031097 L12.3658947,23.7234994 L12.3769048,23.7357139 L12.4804777,23.8096931 L12.4953491,23.8136134 L12.4953491,23.8136134 L12.5071152,23.8096931 L12.6106902,23.7357139 L12.6232938,23.7196733 L12.6232938,23.7196733 L12.6266527,23.7031097 L12.609561,23.275831 C12.6075724,23.2657013 12.6010112,23.2592993 12.5934901,23.257841 L12.5934901,23.257841 Z M12.8583906,23.1452862 L12.8445485,23.1473072 L12.6598443,23.2396597 L12.6498822,23.2499052 L12.6498822,23.2499052 L12.6471943,23.2611114 L12.6650943,23.6906389 L12.6699349,23.7034178 L12.6699349,23.7034178 L12.678386,23.7104931 L12.8793402,23.8032389 C12.8914285,23.8068999 12.9022333,23.8029875 12.9078286,23.7952264 L12.9118235,23.7811639 L12.8776777,23.1665331 C12.8752882,23.1545897 12.8674102,23.1470016 12.8583906,23.1452862 L12.8583906,23.1452862 Z M12.1430473,23.1473072 C12.1332178,23.1423925 12.1221763,23.1452606 12.1156365,23.1525954 L12.1099173,23.1665331 L12.0757714,23.7811639 C12.0751323,23.7926639 12.0828099,23.8018602 12.0926481,23.8045676 L12.108256,23.8032389 L12.3092106,23.7104931 L12.3186497,23.7024347 L12.3186497,23.7024347 L12.3225043,23.6906389 L12.340401,23.2611114 L12.337245,23.2485176 L12.337245,23.2485176 L12.3277531,23.2396597 L12.1430473,23.1473072 Z" id="MingCute" fill-rule="nonzero"></path>
                <path d="M12,2 C17.5228,2 22,6.47715 22,12 C22,17.5228 17.5228,22 12,22 C6.47715,22 2,17.5228 2,12 C2,6.47715 6.47715,2 12,2 Z M12,6 C11.48715,6 11.0644908,6.38604429 11.0067275,6.88337975 L11,7 L11,8 L9.1,8 L8.98014344,8.00645469 C8.46837993,8.06191069 8.06191069,8.46837993 8.00645469,8.98014344 L8,9.1 L8,14.9 L8.00645457,15.0198548 C8.06190952,15.5316119 8.46837172,15.9380881 8.9801417,15.9935452 L9.1,16 L11,16 L11,17 L11.0067275,17.1166239 C11.0644908,17.613973 11.48715,18 12,18 C12.51285,18 12.9355092,17.613973 12.9932725,17.1166239 L13,17 L13,16 L14.5,16 L14.6643744,15.9946823 C15.9684531,15.9100378 17,14.825472 17,13.5 C17,12.9372 16.814,12.4178 16.5002,12 C16.814,11.5822 17,11.0628 17,10.5 C17,9.1745184 15.9684531,8.08996147 14.6643744,8.00531769 L14.5,8 L13,8 L13,7 L12.9932725,6.88337975 C12.9355092,6.38604429 12.51285,6 12,6 Z M14.5,13 C14.7761,13 15,13.2239 15,13.5 C15,13.7454222 14.8230914,13.9496 14.5898645,13.9919429 L14.5,14 L10,14 L10,13 L14.5,13 Z M14.5,10 C14.7761,10 15,10.2239 15,10.5 C15,10.7454222 14.8230914,10.9496 14.5898645,10.9919429 L14.5,11 L10,11 L10,10 L14.5,10 Z" id="形状" fill="#09244B"></path>
            </g>
        </g>
    </g>
</svg>