<?xml version="1.0" encoding="UTF-8"?>
<svg width="24px" height="24px" viewBox="0 0 24 24" version="1.1" xmlns="http://www.w3.org/2000/svg" xmlns:xlink="http://www.w3.org/1999/xlink">
    <title>currency_pound_2_fill</title>
    <g id="页面-1" stroke="none" stroke-width="1" fill="none" fill-rule="evenodd">
        <g id="Business" transform="translate(-288.000000, -336.000000)" fill-rule="nonzero">
            <g id="currency_pound_2_fill" transform="translate(288.000000, 336.000000)">
                <path d="M24,0 L24,24 L0,24 L0,0 L24,0 Z M12.5934901,23.257841 L12.5819402,23.2595131 L12.5108777,23.2950439 L12.4918791,23.2987469 L12.4918791,23.2987469 L12.4767152,23.2950439 L12.4056548,23.2595131 C12.3958229,23.2563662 12.3870493,23.2590235 12.3821421,23.2649074 L12.3780323,23.275831 L12.360941,23.7031097 L12.3658947,23.7234994 L12.3769048,23.7357139 L12.4804777,23.8096931 L12.4953491,23.8136134 L12.4953491,23.8136134 L12.5071152,23.8096931 L12.6106902,23.7357139 L12.6232938,23.7196733 L12.6232938,23.7196733 L12.6266527,23.7031097 L12.609561,23.275831 C12.6075724,23.2657013 12.6010112,23.2592993 12.5934901,23.257841 L12.5934901,23.257841 Z M12.8583906,23.1452862 L12.8445485,23.1473072 L12.6598443,23.2396597 L12.6498822,23.2499052 L12.6498822,23.2499052 L12.6471943,23.2611114 L12.6650943,23.6906389 L12.6699349,23.7034178 L12.6699349,23.7034178 L12.678386,23.7104931 L12.8793402,23.8032389 C12.8914285,23.8068999 12.9022333,23.8029875 12.9078286,23.7952264 L12.9118235,23.7811639 L12.8776777,23.1665331 C12.8752882,23.1545897 12.8674102,23.1470016 12.8583906,23.1452862 L12.8583906,23.1452862 Z M12.1430473,23.1473072 C12.1332178,23.1423925 12.1221763,23.1452606 12.1156365,23.1525954 L12.1099173,23.1665331 L12.0757714,23.7811639 C12.0751323,23.7926639 12.0828099,23.8018602 12.0926481,23.8045676 L12.108256,23.8032389 L12.3092106,23.7104931 L12.3186497,23.7024347 L12.3186497,23.7024347 L12.3225043,23.6906389 L12.340401,23.2611114 L12.337245,23.2485176 L12.337245,23.2485176 L12.3277531,23.2396597 L12.1430473,23.1473072 Z" id="MingCute" fill-rule="nonzero"></path>
                <path d="M16.567,4.79192 C15.7728,3.38109 14.2762,2.5 12.6459,2.5 L11.7882,2.50489 C9.40113,2.61539 7.5,4.58357 7.5,6.99777 L7.5,10.5 L6,10.5 C5.17157,10.5 4.5,11.1716 4.5,12 C4.5,12.8284 5.17157,13.5 6,13.5 L7.5,13.5 L7.5,16 C7.486,16.4861 7.39675,16.9722 7.01224,17.3086 C6.81244,17.4835 6.56269,17.5416 6.32918,17.6584 C4.72595,18.46 5.62485,20.89 7.3638,20.4552 C7.65783,20.373 7.93459,20.2465 8.23122,20.1735 C9.48274,19.892 10.6956,20.162 11.8915,20.5381 C13.7097,21.0756 15.3631,21.0517 16.765,20.6694 C17.8136,20.3834 18.9725,19.5908 18.3416,18.3292 C17.8347,17.3153 16.8514,17.4859 15.9757,17.7751 C14.663,18.1331 13.3728,17.8596 12.1085,17.4619 C11.5454,17.2954 10.9726,17.1843 10.391,17.109 C10.457,16.7412 10.5,16.3748 10.5,16 L10.5,13.5 L13,13.5 C13.8284,13.5 14.5,12.8284 14.5,12 C14.5,11.1716 13.8284,10.5 13,10.5 L10.5,10.5 L10.5,6.99777 C10.5387,6.18396 11.1537,5.5 12,5.5 L12.7868,5.50661 C13.2988,5.5548 13.7546,5.86336 13.9876,6.32921 L14.7291,7.79694 C15.1343,8.44479 15.9734,8.69033 16.6708,8.34165 C17.4118,7.97117 17.7121,7.07017 17.3416,6.3292 L16.567,4.79192 Z" id="路径" fill="#09244B"></path>
            </g>
        </g>
    </g>
</svg>