<svg xmlns="http://www.w3.org/2000/svg" width="24" height="24"><g fill="none"><path d="M24 0v24H0V0zM12.593 23.258l-.011.002-.071.035-.02.004-.014-.004-.071-.035c-.01-.004-.019-.001-.024.005l-.004.01-.017.428.005.02.01.013.104.074.015.004.012-.004.104-.074.012-.016.004-.017-.017-.427c-.002-.01-.009-.017-.017-.018m.265-.113-.013.002-.185.093-.01.01-.003.011.018.43.005.012.008.007.201.093c.012.004.023 0 .029-.008l.004-.014-.034-.614c-.003-.012-.01-.02-.02-.022m-.715.002a.023.023 0 0 0-.027.006l-.006.014-.034.614c0 .012.007.02.017.024l.015-.002.201-.093.01-.008.004-.011.017-.43-.003-.012-.01-.01z"/><path fill="#09244B" d="M9.636 8.5c.93-1.238 2.334-2 3.835-2 1.315 0 2.53.566 3.438 1.53a1.5 1.5 0 1 0 2.182-2.06c-1.426-1.51-3.409-2.47-5.62-2.47-3.294 0-6.027 2.09-7.262 5H5a1.5 1.5 0 1 0 0 3h.514a9.12 9.12 0 0 0 0 1H5a1.5 1.5 0 0 0 0 3h1.209c1.235 2.91 3.968 5 7.262 5 2.211 0 4.194-.96 5.62-2.47a1.5 1.5 0 1 0-2.182-2.06c-.909.964-2.123 1.53-3.438 1.53-1.501 0-2.905-.762-3.835-2H13a1.5 1.5 0 0 0 0-3H8.52a6.357 6.357 0 0 1 0-1H13a1.5 1.5 0 0 0 0-3z"/></g></svg>