<?xml version="1.0" encoding="UTF-8"?>
<svg width="24px" height="24px" viewBox="0 0 24 24" version="1.1" xmlns="http://www.w3.org/2000/svg" xmlns:xlink="http://www.w3.org/1999/xlink">
    <title>currency_dollar_2_line</title>
    <g id="页面-1" stroke="none" stroke-width="1" fill="none" fill-rule="evenodd">
        <g id="Business" transform="translate(-96.000000, -288.000000)">
            <g id="currency_dollar_2_line" transform="translate(96.000000, 288.000000)">
                <path d="M24,0 L24,24 L0,24 L0,0 L24,0 Z M12.5934901,23.257841 L12.5819402,23.2595131 L12.5108777,23.2950439 L12.4918791,23.2987469 L12.4918791,23.2987469 L12.4767152,23.2950439 L12.4056548,23.2595131 C12.3958229,23.2563662 12.3870493,23.2590235 12.3821421,23.2649074 L12.3780323,23.275831 L12.360941,23.7031097 L12.3658947,23.7234994 L12.3769048,23.7357139 L12.4804777,23.8096931 L12.4953491,23.8136134 L12.4953491,23.8136134 L12.5071152,23.8096931 L12.6106902,23.7357139 L12.6232938,23.7196733 L12.6232938,23.7196733 L12.6266527,23.7031097 L12.609561,23.275831 C12.6075724,23.2657013 12.6010112,23.2592993 12.5934901,23.257841 L12.5934901,23.257841 Z M12.8583906,23.1452862 L12.8445485,23.1473072 L12.6598443,23.2396597 L12.6498822,23.2499052 L12.6498822,23.2499052 L12.6471943,23.2611114 L12.6650943,23.6906389 L12.6699349,23.7034178 L12.6699349,23.7034178 L12.678386,23.7104931 L12.8793402,23.8032389 C12.8914285,23.8068999 12.9022333,23.8029875 12.9078286,23.7952264 L12.9118235,23.7811639 L12.8776777,23.1665331 C12.8752882,23.1545897 12.8674102,23.1470016 12.8583906,23.1452862 L12.8583906,23.1452862 Z M12.1430473,23.1473072 C12.1332178,23.1423925 12.1221763,23.1452606 12.1156365,23.1525954 L12.1099173,23.1665331 L12.0757714,23.7811639 C12.0751323,23.7926639 12.0828099,23.8018602 12.0926481,23.8045676 L12.108256,23.8032389 L12.3092106,23.7104931 L12.3186497,23.7024347 L12.3186497,23.7024347 L12.3225043,23.6906389 L12.340401,23.2611114 L12.337245,23.2485176 L12.337245,23.2485176 L12.3277531,23.2396597 L12.1430473,23.1473072 Z" id="MingCute" fill-rule="nonzero"></path>
                <path d="M12,3 C12.51285,3 12.9355092,3.38604429 12.9932725,3.88337975 L13,4 L13,5 L17,5 C17.5523,5 18,5.44772 18,6 C18,6.51283143 17.613973,6.93550653 17.1166239,6.9932722 L17,7 L13,7 L13,11 L14.5,11 C16.7091,11 18.5,12.7909 18.5,15 C18.5,17.1421576 16.8159949,18.8910766 14.699637,18.9951046 L14.5,19 L13,19 L13,20 C13,20.5523 12.5523,21 12,21 C11.48715,21 11.0644908,20.613973 11.0067275,20.1166239 L11,20 L11,19 L7,19 C6.44772,19 6,18.5523 6,18 C6,17.48715 6.38604429,17.0644908 6.88337975,17.0067275 L7,17 L11,17 L11,13 L9.5,13 C7.29086,13 5.5,11.2091 5.5,9 C5.5,6.85780364 7.18396753,5.10892107 9.30035957,5.0048953 L9.5,5 L11,5 L11,4 C11,3.44772 11.4477,3 12,3 Z M14.5,13 L13,13 L13,17 L14.5,17 C15.6046,17 16.5,16.1046 16.5,15 C16.5,13.8954 15.6046,13 14.5,13 Z M11,7 L9.5,7 C8.39543,7 7.5,7.89543 7.5,9 C7.5,10.1046 8.39543,11 9.5,11 L11,11 L11,7 Z" id="形状" fill="#09244B"></path>
            </g>
        </g>
    </g>
</svg>