<?xml version="1.0" encoding="UTF-8"?>
<svg width="24px" height="24px" viewBox="0 0 24 24" version="1.1" xmlns="http://www.w3.org/2000/svg" xmlns:xlink="http://www.w3.org/1999/xlink">
    <title>currency_cny_fill</title>
    <g id="页面-1" stroke="none" stroke-width="1" fill="none" fill-rule="evenodd">
        <g id="Business" transform="translate(-576.000000, -48.000000)">
            <g id="currency_cny_fill" transform="translate(576.000000, 48.000000)">
                <rect id="矩形" fill-rule="nonzero" x="0" y="0" width="24" height="24"></rect>
                <path d="M12,2 C6.47715,2 2,6.47715 2,12 C2,17.5228 6.47715,22 12,22 C17.5228,22 22,17.5228 22,12 C22,6.47715 17.5228,2 12,2 Z M15.4226,7.42415 C15.8668,7.75233 15.9609,8.37847 15.6327,8.82268 L14.0242,10.9999 L15,10.9999 C15.5523,10.9999 16,11.4477 16,11.9999 C16,12.5522 15.5523,12.9999 15,12.9999 L13,12.9999 L13,13.9999 L15,13.9999 C15.5523,13.9999 16,14.4477 16,14.9999 C16,15.5522 15.5523,15.9999 15,15.9999 L13,15.9999 L13,16.9999 C13,17.5522 12.5523,17.9999 12,17.9999 C11.4477,17.9999 11,17.5522 11,16.9999 L11,15.9999 L9,15.9999 C8.44772,15.9999 8,15.5522 8,14.9999 C8,14.4477 8.44772,13.9999 9,13.9999 L11,13.9999 L11,12.9999 L9,12.9999 C8.44772,12.9999 8,12.5522 8,11.9999 C8,11.4477 8.44772,10.9999 9,10.9999 L9.97582,10.9999 L8.36727,8.82268 C8.03909,8.37847 8.13315,7.75233 8.57736,7.42415 C9.02156,7.09598 9.6477,7.19004 9.97588,7.63424 L12,10.374 L14.0241,7.63424 C14.3523,7.19004 14.9784,7.09598 15.4226,7.42415 Z" id="形状" fill="#09244B"></path>
            </g>
        </g>
    </g>
</svg>