<?xml version="1.0" encoding="UTF-8"?>
<svg width="24px" height="24px" viewBox="0 0 24 24" version="1.1" xmlns="http://www.w3.org/2000/svg" xmlns:xlink="http://www.w3.org/1999/xlink">
    <title>currency_dollar_2_fill</title>
    <g id="Icon" stroke="none" stroke-width="1" fill="none" fill-rule="evenodd">
        <g id="Business" transform="translate(0.000000, -336.000000)" fill-rule="nonzero">
            <g id="currency_dollar_2_fill" transform="translate(0.000000, 336.000000)">
                <rect id="矩形" x="0" y="0" width="24" height="24"></rect>
                <path d="M13.5,4 C13.5,3.17157 12.8284,2.5 12,2.5 C11.1716,2.5 10.5,3.17157 10.5,4 L10.5,4.5 L9.5,4.5 C7.01472,4.5 5,6.51472 5,9 C5,11.4853 7.01472,13.5 9.5,13.5 L14.5,13.5 C15.3284,13.5 16,14.1716 16,15 C16,15.8284 15.3284,16.5 14.5,16.5 L7,16.5 C6.17157,16.5 5.5,17.1716 5.5,18 C5.5,18.8284 6.17157,19.5 7,19.5 L10.5,19.5 L10.5,20 C10.5,20.8284 11.1716,21.5 12,21.5 C12.8284,21.5 13.5,20.8284 13.5,20 L13.5,19.5 L14.5,19.5 C16.9853,19.5 19,17.4853 19,15 C19,12.5147 16.9853,10.5 14.5,10.5 L9.5,10.5 C8.67157,10.5 8,9.82843 8,9 C8,8.17157 8.67157,7.5 9.5,7.5 L17,7.5 C17.8284,7.5 18.5,6.82843 18.5,6 C18.5,5.17157 17.8284,4.5 17,4.5 L13.5,4.5 L13.5,4 Z" id="路径" fill="#09244B"></path>
            </g>
        </g>
    </g>
</svg>