<?xml version="1.0" encoding="UTF-8"?>
<svg width="24px" height="24px" viewBox="0 0 24 24" version="1.1" xmlns="http://www.w3.org/2000/svg" xmlns:xlink="http://www.w3.org/1999/xlink">
    <title>diamond_line</title>
    <g id="页面-1" stroke="none" stroke-width="1" fill="none" fill-rule="evenodd">
        <g id="Business" transform="translate(-768.000000, -288.000000)">
            <g id="diamond_line" transform="translate(768.000000, 288.000000)">
                <path d="M24,0 L24,24 L0,24 L0,0 L24,0 Z M12.5934901,23.257841 L12.5819402,23.2595131 L12.5108777,23.2950439 L12.4918791,23.2987469 L12.4918791,23.2987469 L12.4767152,23.2950439 L12.4056548,23.2595131 C12.3958229,23.2563662 12.3870493,23.2590235 12.3821421,23.2649074 L12.3780323,23.275831 L12.360941,23.7031097 L12.3658947,23.7234994 L12.3769048,23.7357139 L12.4804777,23.8096931 L12.4953491,23.8136134 L12.4953491,23.8136134 L12.5071152,23.8096931 L12.6106902,23.7357139 L12.6232938,23.7196733 L12.6232938,23.7196733 L12.6266527,23.7031097 L12.609561,23.275831 C12.6075724,23.2657013 12.6010112,23.2592993 12.5934901,23.257841 L12.5934901,23.257841 Z M12.8583906,23.1452862 L12.8445485,23.1473072 L12.6598443,23.2396597 L12.6498822,23.2499052 L12.6498822,23.2499052 L12.6471943,23.2611114 L12.6650943,23.6906389 L12.6699349,23.7034178 L12.6699349,23.7034178 L12.678386,23.7104931 L12.8793402,23.8032389 C12.8914285,23.8068999 12.9022333,23.8029875 12.9078286,23.7952264 L12.9118235,23.7811639 L12.8776777,23.1665331 C12.8752882,23.1545897 12.8674102,23.1470016 12.8583906,23.1452862 L12.8583906,23.1452862 Z M12.1430473,23.1473072 C12.1332178,23.1423925 12.1221763,23.1452606 12.1156365,23.1525954 L12.1099173,23.1665331 L12.0757714,23.7811639 C12.0751323,23.7926639 12.0828099,23.8018602 12.0926481,23.8045676 L12.108256,23.8032389 L12.3092106,23.7104931 L12.3186497,23.7024347 L12.3186497,23.7024347 L12.3225043,23.6906389 L12.340401,23.2611114 L12.337245,23.2485176 L12.337245,23.2485176 L12.3277531,23.2396597 L12.1430473,23.1473072 Z" id="MingCute" fill-rule="nonzero"></path>
                <path d="M17,2.99997 C17.5723636,2.99997 18.1142314,3.24492041 18.4917941,3.6678265 L18.6,3.79997 L22.3042,8.73882 C22.8459412,9.46112588 22.8331633,10.4496895 22.2917947,11.15534 L22.1841,11.2842 L12.925,21.4692 C12.46,21.9806063 11.6769238,22.0125691 11.1721643,21.5650887 L11.0751,21.4692 L1.81603,11.2842 C1.20867941,10.6160588 1.12830792,9.63069024 1.60082713,8.87724005 L1.69591,8.73882 L5.40004,3.79997 C5.74341273,3.34214273 6.26452926,3.05557165 6.82940011,3.00725152 L7.00004,2.99997 L17,2.99997 Z M14.523,11 L9.47707,11 L12,17.3074 L14.523,11 Z M19.7395,11 L16.6771,11 L14.2709,17.0154 L19.7395,11 Z M7.32301,11 L4.26059,11 L9.72919,17.0154 L7.32301,11 Z M12.382,4.99997 L11.6181,4.99997 L9.61807,8.99998 L14.382,8.99998 L12.382,4.99997 Z M17,4.99997 L14.6181,4.99997 L16.6181,8.99998 L20,8.99998 L17,4.99997 Z M9.38201,4.99997 L7.00004,4.99997 L4.00004,8.99998 L7.38201,8.99998 L9.38201,4.99997 Z" id="形状" fill="#09244B"></path>
            </g>
        </g>
    </g>
</svg>