<?xml version="1.0" encoding="UTF-8"?>
<svg width="24px" height="24px" viewBox="0 0 24 24" version="1.1" xmlns="http://www.w3.org/2000/svg" xmlns:xlink="http://www.w3.org/1999/xlink">
    <title>diamond_fill</title>
    <g id="页面-1" stroke="none" stroke-width="1" fill="none" fill-rule="evenodd">
        <g id="Business" transform="translate(-768.000000, -336.000000)" fill-rule="nonzero">
            <g id="diamond_fill" transform="translate(768.000000, 336.000000)">
                <path d="M24,0 L24,24 L0,24 L0,0 L24,0 Z M12.5934901,23.257841 L12.5819402,23.2595131 L12.5108777,23.2950439 L12.4918791,23.2987469 L12.4918791,23.2987469 L12.4767152,23.2950439 L12.4056548,23.2595131 C12.3958229,23.2563662 12.3870493,23.2590235 12.3821421,23.2649074 L12.3780323,23.275831 L12.360941,23.7031097 L12.3658947,23.7234994 L12.3769048,23.7357139 L12.4804777,23.8096931 L12.4953491,23.8136134 L12.4953491,23.8136134 L12.5071152,23.8096931 L12.6106902,23.7357139 L12.6232938,23.7196733 L12.6232938,23.7196733 L12.6266527,23.7031097 L12.609561,23.275831 C12.6075724,23.2657013 12.6010112,23.2592993 12.5934901,23.257841 L12.5934901,23.257841 Z M12.8583906,23.1452862 L12.8445485,23.1473072 L12.6598443,23.2396597 L12.6498822,23.2499052 L12.6498822,23.2499052 L12.6471943,23.2611114 L12.6650943,23.6906389 L12.6699349,23.7034178 L12.6699349,23.7034178 L12.678386,23.7104931 L12.8793402,23.8032389 C12.8914285,23.8068999 12.9022333,23.8029875 12.9078286,23.7952264 L12.9118235,23.7811639 L12.8776777,23.1665331 C12.8752882,23.1545897 12.8674102,23.1470016 12.8583906,23.1452862 L12.8583906,23.1452862 Z M12.1430473,23.1473072 C12.1332178,23.1423925 12.1221763,23.1452606 12.1156365,23.1525954 L12.1099173,23.1665331 L12.0757714,23.7811639 C12.0751323,23.7926639 12.0828099,23.8018602 12.0926481,23.8045676 L12.108256,23.8032389 L12.3092106,23.7104931 L12.3186497,23.7024347 L12.3186497,23.7024347 L12.3225043,23.6906389 L12.340401,23.2611114 L12.337245,23.2485176 L12.337245,23.2485176 L12.3277531,23.2396597 L12.1430473,23.1473072 Z" id="MingCute" fill-rule="nonzero"></path>
                <path d="M17,3 C17.5723636,3 18.1142314,3.24495041 18.4917941,3.6678565 L18.6,3.8 L22.3042,8.73885 C22.8459412,9.46115588 22.8331633,10.4497815 22.2917947,11.1553559 L22.1841,11.2842 L12.925,21.4692 C12.46,21.9806062 11.6769238,22.0125691 11.1721643,21.5650887 L11.0751,21.4692 L1.81603,11.2842 C1.20867941,10.6161529 1.12830792,9.63071903 1.60082713,8.87726916 L1.69591,8.73885 L5.40004,3.8 C5.74341273,3.34217273 6.26452926,3.05560165 6.82940011,3.00728152 L7.00004,3 L17,3 Z M13.6903,5.86305 L14.3284,8.75691 C14.3559,8.88173 14.2609,8.99998 14.1331,8.99998 L9.86698,8.99998 C9.73916,8.99998 9.64415,8.88173 9.67167,8.75691 L10.3097,5.86305 C10.3556,5.65498 10.0877,5.52899 9.95669,5.69703 L7.4257,8.94393 C7.39744,8.98018 7.35755,9.0056 7.31275,9.01589 L4.08643,9.7572 C3.88284,9.80398 3.87826,10.0923 4.08026,10.1455 L7.24001,10.9781 C7.293,10.9921 7.33795,11.0272 7.36434,11.0752 L11.8247,19.1943 C11.9007,19.3326 12.0994,19.3326 12.1753,19.1943 L16.6357,11.0752 C16.6621,11.0272 16.7071,10.9921 16.7601,10.9781 L19.9198,10.1455 C20.1218,10.0923 20.1172,9.80398 19.9136,9.7572 L16.6873,9.01589 C16.6425,9.0056 16.6026,8.98018 16.5744,8.94393 L14.0434,5.69703 C13.9124,5.52899 13.6445,5.65498 13.6903,5.86305 Z M14.2276,11 C14.3488857,11 14.4372571,11.1049878 14.4269697,11.2177318 L14.4133,11.2743 L12.1857,16.8432 C12.127075,16.98985 11.9380641,17.0081812 11.8467756,16.8981937 L11.8143,16.8432 L9.58679,11.2743 C9.54174714,11.1616714 9.60639408,11.0405939 9.71488545,11.0082988 L9.77248,11 L14.2276,11 Z" id="形状" fill="#09244B"></path>
            </g>
        </g>
    </g>
</svg>