<?xml version="1.0" encoding="UTF-8"?>
<svg width="24px" height="24px" viewBox="0 0 24 24" version="1.1" xmlns="http://www.w3.org/2000/svg" xmlns:xlink="http://www.w3.org/1999/xlink">
    <title>exchange_euro_line</title>
    <g id="页面-1" stroke="none" stroke-width="1" fill="none" fill-rule="evenodd">
        <g id="Business" transform="translate(-720.000000, -96.000000)" fill-rule="nonzero">
            <g id="exchange_euro_line" transform="translate(720.000000, 96.000000)">
                <path d="M24,0 L24,24 L0,24 L0,0 L24,0 Z M12.5934901,23.257841 L12.5819402,23.2595131 L12.5108777,23.2950439 L12.4918791,23.2987469 L12.4918791,23.2987469 L12.4767152,23.2950439 L12.4056548,23.2595131 C12.3958229,23.2563662 12.3870493,23.2590235 12.3821421,23.2649074 L12.3780323,23.275831 L12.360941,23.7031097 L12.3658947,23.7234994 L12.3769048,23.7357139 L12.4804777,23.8096931 L12.4953491,23.8136134 L12.4953491,23.8136134 L12.5071152,23.8096931 L12.6106902,23.7357139 L12.6232938,23.7196733 L12.6232938,23.7196733 L12.6266527,23.7031097 L12.609561,23.275831 C12.6075724,23.2657013 12.6010112,23.2592993 12.5934901,23.257841 L12.5934901,23.257841 Z M12.8583906,23.1452862 L12.8445485,23.1473072 L12.6598443,23.2396597 L12.6498822,23.2499052 L12.6498822,23.2499052 L12.6471943,23.2611114 L12.6650943,23.6906389 L12.6699349,23.7034178 L12.6699349,23.7034178 L12.678386,23.7104931 L12.8793402,23.8032389 C12.8914285,23.8068999 12.9022333,23.8029875 12.9078286,23.7952264 L12.9118235,23.7811639 L12.8776777,23.1665331 C12.8752882,23.1545897 12.8674102,23.1470016 12.8583906,23.1452862 L12.8583906,23.1452862 Z M12.1430473,23.1473072 C12.1332178,23.1423925 12.1221763,23.1452606 12.1156365,23.1525954 L12.1099173,23.1665331 L12.0757714,23.7811639 C12.0751323,23.7926639 12.0828099,23.8018602 12.0926481,23.8045676 L12.108256,23.8032389 L12.3092106,23.7104931 L12.3186497,23.7024347 L12.3186497,23.7024347 L12.3225043,23.6906389 L12.340401,23.2611114 L12.337245,23.2485176 L12.337245,23.2485176 L12.3277531,23.2396597 L12.1430473,23.1473072 Z" id="MingCute" fill-rule="nonzero"></path>
                <path d="M1.99996545,12.0809 C1.99371555,11.2176391 2.91024272,10.7235541 3.61767439,11.105184 L3.71274,11.1627 L6.39059,12.967 C7.36328867,13.6224 6.76828858,15.1101097 5.65695436,14.9737051 L5.54019,14.9537 L4.47683,14.7204 C5.3375,17.0968 7.30716,19.0268 9.93145,19.73 C13.7625,20.7565 17.6913,18.8202 19.2809,15.3252 C19.5096,14.8225 20.1025,14.6003 20.6052,14.8289 C21.108,15.0576 21.3301,15.6505 21.1015,16.1532 C19.1137,20.5236 14.2048,22.9456 9.41381,21.6619 C5.40998,20.589 2.62997,17.2334 2.09416,13.3742 C2.03506,12.9485 2.00322,12.5166 1.99996545,12.0809 Z M12.6288,6.55231 C14.0621,6.42991 15.315,6.99462 16.16,8.15077 C16.4859,8.59666 16.3925,9.2232 15.9466,9.54908 C15.4819867,9.88867333 14.9300009,9.73627182 14.5727665,9.35268149 L14.4993,9.26704 C13.59,8.11589 11.9661,8.42215 11.2563,9.60651 C11.0587167,9.936085 10.9056472,10.3252503 10.8018949,10.7448334 L10.7456,11 L15,11 C15.5523,11 16,11.4477 16,12 C16,12.51285 15.613973,12.9355092 15.1166239,12.9932725 L15,13 L10.7201,13 C10.8102,13.5394 10.9785,14.0439 11.217,14.4559 C11.9333481,15.6937889 13.4455032,15.8590726 14.4036768,14.8472755 L14.5117,14.7253 C14.878,14.2832 15.4785,14.0983 15.9711,14.4822 C16.4068,14.8216 16.4848,15.4499 16.1453,15.8856 C15.2827,16.9908 13.8534,17.6673 12.4455,17.5015 C11.0584,17.3382 10.083,16.4894 9.48592,15.4577 C9.11029125,14.8085375 8.87012453,14.0691078 8.7460524,13.3209404 L8.69993,13 L8,13 C7.44772,13 7,12.5523 7,12 C7,11.48715 7.38604429,11.0644908 7.88337975,11.0067275 L8,11 L8.71845,11 C8.83834,10.1505 9.10503,9.30534 9.54079,8.57831 C10.172,7.52517 11.1958,6.67469 12.6288,6.55231 Z M2.90276,7.8519 C4.89052,3.48157 9.79949,1.05954 14.5904,2.34327 C18.5943,3.4161 21.3743,6.7717 21.9101,10.6309 C21.9692,11.0566 22.001,11.4885 22.0042646,11.9242 C22.0105145,12.7874609 21.0940239,13.2815459 20.3865691,12.899916 L20.2915,12.8424 L17.6135,11.0381 C16.64084,10.3827 17.235804,8.89502771 18.3470454,9.03135352 L18.4638,9.05135 L19.5273,9.28457 C18.6666,6.90822 16.697,4.97828 14.0728,4.27513 C10.2418,3.2486 6.31293,5.18495 4.7233,8.67994 C4.49465,9.18267 3.90174,9.40485 3.39902,9.17619 C2.89629,8.94754 2.67411,8.35463 2.90276,7.8519 Z" id="形状" fill="#09244B"></path>
            </g>
        </g>
    </g>
</svg>