<?xml version="1.0" encoding="UTF-8"?>
<svg width="24px" height="24px" viewBox="0 0 24 24" version="1.1" xmlns="http://www.w3.org/2000/svg" xmlns:xlink="http://www.w3.org/1999/xlink">
    <title>exchange_bitcoin_2_line</title>
    <g id="页面-1" stroke="none" stroke-width="1" fill="none" fill-rule="evenodd">
        <g id="Business" transform="translate(-720.000000, -192.000000)" fill-rule="nonzero">
            <g id="exchange_bitcoin_2_line" transform="translate(720.000000, 192.000000)">
                <rect id="矩形" x="0" y="0" width="24" height="24"></rect>
                <path d="M1.99996545,12.0809 C1.99371555,11.2176391 2.91024272,10.7235541 3.61767439,11.105184 L3.71274,11.1627 L6.39059,12.967 C7.36328867,13.6224 6.76828858,15.1101097 5.65695436,14.9737051 L5.54019,14.9537 L4.47683,14.7204 C5.3375,17.0968 7.30716,19.0268 9.93145,19.73 C13.7625,20.7565 17.6913,18.8202 19.2809,15.3252 C19.5096,14.8225 20.1025,14.6003 20.6052,14.8289 C21.108,15.0576 21.3301,15.6505 21.1015,16.1532 C19.1137,20.5236 14.2048,22.9456 9.41381,21.6619 C5.40998,20.589 2.62997,17.2334 2.09416,13.3742 C2.03506,12.9485 2.00322,12.5166 1.99996545,12.0809 Z M12,6 C12.5523,6 13,6.44772 13,7 L13,8 L14,8 C15.3807,8 16.5,9.11929 16.5,10.5 C16.5,11.0628 16.314,11.5822 16.0002,12 C16.314,12.4178 16.5,12.9372 16.5,13.5 C16.5,14.8807 15.3807,16 14,16 L13,16 L13,17 C13,17.5523 12.5523,18 12,18 C11.4477,18 11,17.5523 11,17 L11,16 L9.1,16 C8.49249,16 8,15.5075 8,14.9 L8,9.1 C8,8.49249 8.49249,8 9.1,8 L11,8 L11,7 C11,6.44772 11.4477,6 12,6 Z M14,13 L10,13 L10,14 L14,14 C14.2761,14 14.5,13.7761 14.5,13.5 C14.5,13.2239 14.2761,13 14,13 Z M2.90276,7.8519 C4.89052,3.48157 9.79949,1.05954 14.5904,2.34327 C18.5943,3.4161 21.3743,6.7717 21.9101,10.6309 C21.9692,11.0566 22.001,11.4885 22.0042646,11.9242 C22.0105145,12.7874609 21.0940239,13.2815459 20.3865691,12.899916 L20.2915,12.8424 L17.6135,11.0381 C16.64084,10.3827 17.235804,8.89502771 18.3470454,9.03135352 L18.4638,9.05135 L19.5273,9.28457 C18.6666,6.90822 16.697,4.97828 14.0728,4.27513 C10.2418,3.2486 6.31293,5.18495 4.7233,8.67994 C4.49465,9.18267 3.90174,9.40485 3.39902,9.17619 C2.89629,8.94754 2.67411,8.35463 2.90276,7.8519 Z M14,10 L10,10 L10,11 L14,11 C14.2761,11 14.5,10.7761 14.5,10.5 C14.5,10.2239 14.2761,10 14,10 Z" id="形状" fill="#09244B"></path>
            </g>
        </g>
    </g>
</svg>