<?xml version="1.0" encoding="UTF-8"?>
<svg width="24px" height="24px" viewBox="0 0 24 24" version="1.1" xmlns="http://www.w3.org/2000/svg" xmlns:xlink="http://www.w3.org/1999/xlink">
    <title>exchange_euro_fill</title>
    <g id="页面-1" stroke="none" stroke-width="1" fill="none" fill-rule="evenodd">
        <g id="Business" transform="translate(-720.000000, -144.000000)" fill-rule="nonzero">
            <g id="exchange_euro_fill" transform="translate(720.000000, 144.000000)">
                <rect id="矩形" x="0" y="0" width="24" height="24"></rect>
                <path d="M1.49799599,12.0821 C1.48882153,10.8150286 2.84490642,10.095358 3.87693011,10.6756368 L3.99018,10.7455 L6.66803,12.5498 C8.09210243,13.5093459 7.20601936,15.6954058 5.56918711,15.4645139 L5.43108,15.4396 L5.3226,15.4158 C6.25591,17.2387 7.92737,18.6734 10.0589,19.2446 C13.4097,20.1424 16.8425,18.6226 18.4973,15.751 C18.911,15.0332 19.8281,14.7867 20.5459,15.2003 C21.2637,15.6139 21.5102,16.5311 21.0966,17.2489 C18.7804,21.268 13.9784,23.4006 9.28245,22.1423 C5.07774,21.0157 2.15942,17.4917 1.59696,13.4405 C1.53488,12.9934 1.50144,12.5397 1.49799599,12.0821 Z M12.6288,6.55231 C14.0621,6.42991 15.315,6.99462 16.16,8.15077 C16.4859,8.59666 16.3925,9.2232 15.9466,9.54908 C15.4819867,9.88867333 14.9300009,9.73627182 14.5727665,9.35268149 L14.4993,9.26704 C13.59,8.11589 11.9661,8.42215 11.2563,9.60651 C11.0587167,9.936085 10.9056472,10.3252503 10.8018949,10.7448334 L10.7456,11 L15,11 C15.5523,11 16,11.4477 16,12 C16,12.51285 15.613973,12.9355092 15.1166239,12.9932725 L15,13 L10.7201,13 C10.8102,13.5394 10.9785,14.0439 11.217,14.4559 C11.9333481,15.6937889 13.4455032,15.8590726 14.4036768,14.8472755 L14.5117,14.7253 C14.878,14.2832 15.4785,14.0983 15.9711,14.4822 C16.4068,14.8216 16.4848,15.4499 16.1453,15.8856 C15.2827,16.9908 13.8534,17.6673 12.4455,17.5015 C11.0584,17.3382 10.083,16.4894 9.48592,15.4577 C9.11029125,14.8085375 8.87012453,14.0691078 8.7460524,13.3209404 L8.69993,13 L8,13 C7.44772,13 7,12.5523 7,12 C7,11.48715 7.38604429,11.0644908 7.88337975,11.0067275 L8,11 L8.71845,11 C8.83834,10.1505 9.10503,9.30534 9.54079,8.57831 C10.172,7.52517 11.1958,6.67469 12.6288,6.55231 Z M2.90399,6.75097 C5.22025,2.73205 10.0221,0.59964 14.7179,1.85789 C18.9226,2.98453 21.841,6.50852 22.4034,10.5598 C22.4655,11.0068 22.4989,11.4605 22.5023938,11.9181 C22.5115588,13.1851714 21.1554271,13.904842 20.1234449,13.3245632 L20.0102,13.2547 L17.3322,11.4503 C15.9082541,10.4908514 16.7941039,8.30487928 18.4308958,8.53562855 L18.569,8.56053 L18.6777,8.58437 C17.7444,6.76147 16.073,5.3268 13.9415,4.75566 C10.5908,3.85785 7.15812,5.37756 5.50321,8.24899 C5.08954,8.96675 4.17234,9.21326 3.45459,8.79959 C2.73683,8.38592 2.49032,7.46872 2.90399,6.75097 Z" id="形状" fill="#09244B"></path>
            </g>
        </g>
    </g>
</svg>