<?xml version="1.0" encoding="UTF-8"?>
<svg width="24px" height="24px" viewBox="0 0 24 24" version="1.1" xmlns="http://www.w3.org/2000/svg" xmlns:xlink="http://www.w3.org/1999/xlink">
    <title>exchange_euro_fill</title>
    <g id="页面-1" stroke="none" stroke-width="1" fill="none" fill-rule="evenodd">
        <g id="Business" transform="translate(-720.000000, -144.000000)" fill-rule="nonzero">
            <g id="exchange_euro_fill" transform="translate(720.000000, 144.000000)">
                <path d="M24,0 L24,24 L0,24 L0,0 L24,0 Z M12.5934901,23.257841 L12.5819402,23.2595131 L12.5108777,23.2950439 L12.4918791,23.2987469 L12.4918791,23.2987469 L12.4767152,23.2950439 L12.4056548,23.2595131 C12.3958229,23.2563662 12.3870493,23.2590235 12.3821421,23.2649074 L12.3780323,23.275831 L12.360941,23.7031097 L12.3658947,23.7234994 L12.3769048,23.7357139 L12.4804777,23.8096931 L12.4953491,23.8136134 L12.4953491,23.8136134 L12.5071152,23.8096931 L12.6106902,23.7357139 L12.6232938,23.7196733 L12.6232938,23.7196733 L12.6266527,23.7031097 L12.609561,23.275831 C12.6075724,23.2657013 12.6010112,23.2592993 12.5934901,23.257841 L12.5934901,23.257841 Z M12.8583906,23.1452862 L12.8445485,23.1473072 L12.6598443,23.2396597 L12.6498822,23.2499052 L12.6498822,23.2499052 L12.6471943,23.2611114 L12.6650943,23.6906389 L12.6699349,23.7034178 L12.6699349,23.7034178 L12.678386,23.7104931 L12.8793402,23.8032389 C12.8914285,23.8068999 12.9022333,23.8029875 12.9078286,23.7952264 L12.9118235,23.7811639 L12.8776777,23.1665331 C12.8752882,23.1545897 12.8674102,23.1470016 12.8583906,23.1452862 L12.8583906,23.1452862 Z M12.1430473,23.1473072 C12.1332178,23.1423925 12.1221763,23.1452606 12.1156365,23.1525954 L12.1099173,23.1665331 L12.0757714,23.7811639 C12.0751323,23.7926639 12.0828099,23.8018602 12.0926481,23.8045676 L12.108256,23.8032389 L12.3092106,23.7104931 L12.3186497,23.7024347 L12.3186497,23.7024347 L12.3225043,23.6906389 L12.340401,23.2611114 L12.337245,23.2485176 L12.337245,23.2485176 L12.3277531,23.2396597 L12.1430473,23.1473072 Z" id="MingCute" fill-rule="nonzero"></path>
                <path d="M1.49799599,12.0821 C1.48882153,10.8150286 2.84490642,10.095358 3.87693011,10.6756368 L3.99018,10.7455 L6.66803,12.5498 C8.09210243,13.5093459 7.20601936,15.6954058 5.56918711,15.4645139 L5.43108,15.4396 L5.3226,15.4158 C6.25591,17.2387 7.92737,18.6734 10.0589,19.2446 C13.4097,20.1424 16.8425,18.6226 18.4973,15.751 C18.911,15.0332 19.8281,14.7867 20.5459,15.2003 C21.2637,15.6139 21.5102,16.5311 21.0966,17.2489 C18.7804,21.268 13.9784,23.4006 9.28245,22.1423 C5.07774,21.0157 2.15942,17.4917 1.59696,13.4405 C1.53488,12.9934 1.50144,12.5397 1.49799599,12.0821 Z M12.5297,6.5 C13.8526,6.5 14.9934,7.1772 15.7807,8.1608 C16.1258,8.59197 16.0561,9.22128 15.6249,9.56641 C15.1937,9.91154 14.5644,9.84179 14.2193,9.41062 C13.7334,8.80356 13.1303,8.5 12.5297,8.5 C11.5847,8.5 10.5374682,9.34467901 10.1525937,10.7895355 L10.1022,11 L13,11 C13.5523,11 14,11.4477 14,12 C14,12.51285 13.613973,12.9355092 13.1166239,12.9932725 L13,13 L10.1022,13 C10.4375,14.573 11.5397,15.5 12.5297,15.5 C13.1303,15.5 13.7334,15.1964 14.2193,14.5894 C14.5644,14.1582 15.1937,14.0885 15.6249,14.4336 C16.0561,14.7787 16.1258,15.408 15.7807,15.8392 C14.9934,16.8228 13.8526,17.5 12.5297,17.5 C10.2139667,17.5 8.55252138,15.5330549 8.11452999,13.2180062 L8.07707,13 L8,13 C7.44772,13 7,12.5523 7,12 C7,11.48715 7.38604429,11.0644908 7.88337975,11.0067275 L8,11 L8.07707,11 C8.44932,8.59179 10.1416,6.5 12.5297,6.5 Z M2.90399,6.75097 C5.22025,2.73205 10.0221,0.59964 14.7179,1.85789 C18.9226,2.98453 21.841,6.50852 22.4034,10.5598 C22.4655,11.0068 22.4989,11.4605 22.5023938,11.9181 C22.5115588,13.1851714 21.1554271,13.904842 20.1234449,13.3245632 L20.0102,13.2547 L17.3322,11.4503 C15.9082541,10.4908514 16.7941039,8.30487928 18.4308958,8.53562855 L18.569,8.56053 L18.6777,8.58437 C17.7444,6.76147 16.073,5.3268 13.9415,4.75566 C10.5908,3.85785 7.15812,5.37756 5.50321,8.24899 C5.08954,8.96675 4.17234,9.21326 3.45459,8.79959 C2.73683,8.38592 2.49032,7.46872 2.90399,6.75097 Z" id="形状" fill="#09244B"></path>
            </g>
        </g>
    </g>
</svg>