<svg xmlns="http://www.w3.org/2000/svg" width="24" height="24"><g fill="none" fill-rule="evenodd"><path d="M24 0v24H0V0zM12.593 23.258l-.011.002-.071.035-.02.004-.014-.004-.071-.035c-.01-.004-.019-.001-.024.005l-.004.01-.017.428.005.02.01.013.104.074.015.004.012-.004.104-.074.012-.016.004-.017-.017-.427c-.002-.01-.009-.017-.017-.018m.265-.113-.013.002-.185.093-.01.01-.003.011.018.43.005.012.008.007.201.093c.012.004.023 0 .029-.008l.004-.014-.034-.614c-.003-.012-.01-.02-.02-.022m-.715.002a.023.023 0 0 0-.027.006l-.006.014-.034.614c0 .012.007.02.017.024l.015-.002.201-.093.01-.008.004-.011.017-.43-.003-.012-.01-.01z"/><path fill="#09244B" d="M3 6c0-.803.437-1.448.965-1.916.53-.469 1.238-.846 2.027-1.142C7.578 2.347 9.702 2 12 2c2.297 0 4.422.347 6.008.942.79.296 1.498.673 2.027 1.142C20.562 4.552 21 5.197 21 6c0 4.644-2.87 8.652-6.89 9.724a.195.195 0 0 0-.098.059c-.009.01-.012.017-.012.017v4.005a1.25 1.25 0 0 1-.947 1.212l-1.5.375A1.25 1.25 0 0 1 10 20.18V15.8s-.003-.008-.012-.018a.196.196 0 0 0-.098-.058C5.87 14.652 3 10.644 3 6m2 0c0-.585 1.3-1.037 1.694-1.185C8.004 4.325 9.88 4 12 4s3.997.324 5.306.815C17.699 4.963 19 5.415 19 6c0 .585-1.3 1.037-1.694 1.185C15.996 7.675 14.12 8 12 8s-3.997-.324-5.306-.815C6.301 7.037 5 6.585 5 6"/></g></svg>