<?xml version="1.0" encoding="UTF-8"?>
<svg width="24px" height="24px" viewBox="0 0 24 24" version="1.1" xmlns="http://www.w3.org/2000/svg" xmlns:xlink="http://www.w3.org/1999/xlink">
    <title>filter_3_line</title>
    <g id="页面-1" stroke="none" stroke-width="1" fill="none" fill-rule="evenodd">
        <g id="Business" transform="translate(-816.000000, -192.000000)">
            <g id="filter_3_line" transform="translate(816.000000, 192.000000)">
                <rect id="矩形" fill-rule="nonzero" x="0" y="0" width="24" height="24"></rect>
                <path d="M5,6 C5,6.58478 6.3006,7.03736 6.69427,7.18499 C8.0034,7.67591 9.87903,8 12,8 C14.121,8 15.9966,7.67591 17.3057,7.18499 C17.6994,7.03736 19,6.58478 19,6 C19,5.41522 17.6994,4.96264 17.3057,4.81501 C15.9966,4.32409 14.121,4 12,4 C9.87903,4 8.0034,4.32409 6.69427,4.81501 C6.3006,4.96264 5,5.41522 5,6 Z M18.5474,8.83654 C18.3728,8.91475 18.1926,8.98841 18.008,9.05765 C16.4217,9.65251 14.2973,10 12,10 C9.70269,10 7.57833,9.65251 5.99202,9.05765 C5.80737,8.98841 5.62716,8.91475 5.45264,8.83654 C6.18824,11.0498 7.75497,12.77 9.66547,13.5437 C10.3997,13.841 11,14.5583 11,15.468 L11,19.7192 L13,19.2192 L13,15.468 C13,14.5583 13.6003,13.841 14.3345,13.5437 C16.245,12.77 17.8118,11.0498 18.5474,8.83654 Z M3,6 C3,10.2639 5.41352,13.9796 8.91476,15.3974 C8.95284,15.4128 8.97854,15.436 8.9915,15.4538 C8.99723,15.4616 8.99932,15.4665 9,15.4688 L9,19.7192 C9,21.0204 10.2228,21.9751 11.4851,21.6595 L13.4851,21.1595 C14.3754,20.9369 15,20.137 15,19.2192 L15,15.4688 C15.0007,15.4665 15.0028,15.4616 15.0085,15.4538 C15.0215,15.436 15.0472,15.4128 15.0852,15.3974 C18.5865,13.9796 21,10.2639 21,6 C21,5.19711 20.5625,4.55194 20.0347,4.08401 C19.5058,3.61504 18.7974,3.2384 18.008,2.94235 C16.4217,2.34749 14.2973,2 12,2 C9.70269,2 7.57833,2.34749 5.99202,2.94235 C5.20256,3.2384 4.49422,3.61504 3.96527,4.08401 C3.43749,4.55194 3,5.19711 3,6 Z" id="形状" fill="#09244B"></path>
            </g>
        </g>
    </g>
</svg>