<?xml version="1.0" encoding="UTF-8"?>
<svg width="24px" height="24px" viewBox="0 0 24 24" version="1.1" xmlns="http://www.w3.org/2000/svg" xmlns:xlink="http://www.w3.org/1999/xlink">
    <title>flag_4_line</title>
    <g id="页面-1" stroke="none" stroke-width="1" fill="none" fill-rule="evenodd">
        <g id="Business" transform="translate(-864.000000, -192.000000)">
            <g id="flag_4_line" transform="translate(864.000000, 192.000000)">
                <rect id="矩形" fill-rule="nonzero" x="0" y="0" width="24" height="24"></rect>
                <path d="M11.2061,4.4898 C12.9032,5.50806 14.9605,5.7339 16.8381,5.10804 L18.4189,4.58111 L17.1092,8.50999 C16.997,8.84656 17.0078,9.21201 17.1395,9.54141 L18.6776,13.3867 L16.2056,14.2107 C14.8819,14.6519 13.4315,14.4927 12.2351,13.7748 C10.3378,12.6364 8.01082,12.4986 6,13.3901 L6,6.99997 L6,4.98224 C6,4.75901 6.12612,4.55494 6.32578,4.45511 C7.89261,3.6717 9.65922,3.56169 11.2061,4.4898 Z M4,6.99997 L4,4.98224 C4,4.00147 4.55413,3.10487 5.43136,2.66626 C7.60702,1.57842 10.1053,1.49696 12.2351,2.77482 C13.4315,3.49269 14.8819,3.6519 16.2056,3.21067 L19.494,2.11453 C20.354,1.82789 21.1721,2.646 20.8854,3.50593 L19.0645,8.96869 L20.8891,13.5301 C21.1241,14.1178 20.816,14.782 20.2156,14.9822 L16.8381,16.108 C14.9605,16.7339 12.9032,16.5081 11.2061,15.4898 C9.8048,14.649 8.0711,14.5825 6.60946,15.3133 L6,15.618 L6,21 C6,21.5523 5.55228,22 5,22 C4.44772,22 4,21.5523 4,21 L4,16.618 L4,15 L4,6.99997 Z" id="形状" fill="#09244B"></path>
            </g>
        </g>
    </g>
</svg>