<?xml version="1.0" encoding="UTF-8"?>
<svg width="24px" height="24px" viewBox="0 0 24 24" version="1.1" xmlns="http://www.w3.org/2000/svg" xmlns:xlink="http://www.w3.org/1999/xlink">
    <title>flag_4_fill</title>
    <g id="页面-1" stroke="none" stroke-width="1" fill="none" fill-rule="evenodd">
        <g id="Business" transform="translate(-864.000000, -240.000000)">
            <g id="flag_4_fill" transform="translate(864.000000, 240.000000)">
                <rect id="矩形" fill-rule="nonzero" x="0" y="0" width="24" height="24"></rect>
                <path d="M4,7.00002 L4,4.98229 C4,4.00151 4.55413,3.10492 5.43136,2.6663 L5.71504,2.52446 C7.78828,1.48784 10.2474,1.58229 12.2351,2.77487 C13.4315,3.49274 14.8819,3.65195 16.2056,3.21072 L19.494,2.11458 C20.354,1.82793 21.1721,2.64605 20.8854,3.50598 L19.0645,8.96873 L20.8891,13.5302 C21.1241,14.1178 20.816,14.7821 20.2156,14.9822 L16.8381,16.1081 C14.9605,16.7339 12.9032,16.5081 11.2061,15.4899 C9.8048,14.6491 8.0711,14.5825 6.60946,15.3133 L6,15.6181 L6,21 C6,21.5523 5.55228,22 5,22 C4.44772,22 4,21.5523 4,21 L4,16.6181 L4,15 L4,7.00002 Z" id="路径" fill="#09244B"></path>
            </g>
        </g>
    </g>
</svg>