<?xml version="1.0" encoding="UTF-8"?>
<svg width="24px" height="24px" viewBox="0 0 24 24" version="1.1" xmlns="http://www.w3.org/2000/svg" xmlns:xlink="http://www.w3.org/1999/xlink">
    <title>gift_fill</title>
    <g id="页面-1" stroke="none" stroke-width="1" fill="none" fill-rule="evenodd">
        <g id="Business" transform="translate(-768.000000, -144.000000)">
            <g id="gift_fill" transform="translate(768.000000, 144.000000)">
                <rect id="矩形" fill-rule="nonzero" x="0" y="0" width="24" height="24"></rect>
                <path d="M20,13 L20,18 C20,19.6569 18.6569,21 17,21 L17,21 L13,21 L13,13 L20,13 Z M11,13 L11,21 L7,21 C5.34315,21 4,19.6569 4,18 L4,18 L4,13 L11,13 Z M9,2 C10.1947,2 11.2671,2.52376 12,3.35418 C12.7329,2.52376 13.8053,2 15,2 L15,2 L15.5,2 C16.3284,2 17,2.67157 17,3.5 L17,3.5 L17,4 C17,4.72857 16.8052,5.41165 16.4649,6 L16.4649,6 L19,6 C20.1046,6 21,6.89543 21,8 L21,8 L21,10 C21,10.3643 20.9026,10.7058 20.7324,11 L20.7324,11 L13,11 L13,8 C13,7.44772 12.5523,7 12,7 C11.4477,7 11,7.44772 11,8 L11,8 L11,11 L3.26756,11 C3.09739,10.7058 3,10.3643 3,10 L3,10 L3,8 C3,6.89543 3.89543,6 5,6 L5,6 L7.53513,6 C7.19479,5.41165 7,4.72857 7,4 L7,4 L7,3.5 C7,2.67157 7.67157,2 8.5,2 L8.5,2 Z M9,4 C9,5.10457 9.89543,6 11,6 C11,4.89543 10.1046,4 9,4 Z M15,4 C13.8954,4 13,4.89543 13,6 C14.1046,6 15,5.10457 15,4 Z" id="形状结合" fill="#09244B"></path>
            </g>
        </g>
    </g>
</svg>