<?xml version="1.0" encoding="UTF-8"?>
<svg width="24px" height="24px" viewBox="0 0 24 24" version="1.1" xmlns="http://www.w3.org/2000/svg" xmlns:xlink="http://www.w3.org/1999/xlink">
    <title>lantern_line</title>
    <g id="Icon" stroke="none" stroke-width="1" fill="none" fill-rule="evenodd">
        <g id="Business" transform="translate(-336.000000, -192.000000)">
            <g id="lantern_line" transform="translate(336.000000, 192.000000)">
                <path d="M24,0 L24,24 L0,24 L0,0 L24,0 Z M12.5934901,23.257841 L12.5819402,23.2595131 L12.5108777,23.2950439 L12.4918791,23.2987469 L12.4918791,23.2987469 L12.4767152,23.2950439 L12.4056548,23.2595131 C12.3958229,23.2563662 12.3870493,23.2590235 12.3821421,23.2649074 L12.3780323,23.275831 L12.360941,23.7031097 L12.3658947,23.7234994 L12.3769048,23.7357139 L12.4804777,23.8096931 L12.4953491,23.8136134 L12.4953491,23.8136134 L12.5071152,23.8096931 L12.6106902,23.7357139 L12.6232938,23.7196733 L12.6232938,23.7196733 L12.6266527,23.7031097 L12.609561,23.275831 C12.6075724,23.2657013 12.6010112,23.2592993 12.5934901,23.257841 L12.5934901,23.257841 Z M12.8583906,23.1452862 L12.8445485,23.1473072 L12.6598443,23.2396597 L12.6498822,23.2499052 L12.6498822,23.2499052 L12.6471943,23.2611114 L12.6650943,23.6906389 L12.6699349,23.7034178 L12.6699349,23.7034178 L12.678386,23.7104931 L12.8793402,23.8032389 C12.8914285,23.8068999 12.9022333,23.8029875 12.9078286,23.7952264 L12.9118235,23.7811639 L12.8776777,23.1665331 C12.8752882,23.1545897 12.8674102,23.1470016 12.8583906,23.1452862 L12.8583906,23.1452862 Z M12.1430473,23.1473072 C12.1332178,23.1423925 12.1221763,23.1452606 12.1156365,23.1525954 L12.1099173,23.1665331 L12.0757714,23.7811639 C12.0751323,23.7926639 12.0828099,23.8018602 12.0926481,23.8045676 L12.108256,23.8032389 L12.3092106,23.7104931 L12.3186497,23.7024347 L12.3186497,23.7024347 L12.3225043,23.6906389 L12.340401,23.2611114 L12.337245,23.2485176 L12.337245,23.2485176 L12.3277531,23.2396597 L12.1430473,23.1473072 Z" id="MingCute" fill-rule="nonzero"></path>
                <path d="M12,2 C12.51285,2 12.9355092,2.38604429 12.9932725,2.88337975 L13,3 L13,4 L14,4 C14.51285,4 14.9355092,4.38604429 14.9932725,4.88337975 L15,5 L16,5 C16.5266,5 16.9581,5.40699 16.9971,5.92356 C17.6932,6.20212 18.3384,6.53846 18.9187,6.92531 C20.7261,8.13028 22,9.90476 22,12 C22,14.0952 20.7261,15.8697 18.9187,17.0747 C17.7940417,17.8244417 16.4255347,18.3844486 14.9153149,18.7018814 L14.5,18.7824 L14.5,21 C14.5,21.5523 14.0523,22 13.5,22 C12.98715,22 12.5644908,21.613973 12.5067275,21.1166239 L12.5,21 L12.5,18.9915 C12.3342,18.9972 12.1675,19 12,19 L11.7493625,18.9978875 L11.7493625,18.9978875 L11.5,18.9915 L11.5,21 C11.5,21.5523 11.0523,22 10.5,22 C9.98716857,22 9.56449347,21.613973 9.5067278,21.1166239 L9.5,21 L9.5,18.7824 C7.82528,18.4847 6.30824,17.8926 5.08134,17.0747 C3.27388,15.8697 2,14.0952 2,12 C2,9.90476 3.27388,8.13028 5.08134,6.92531 C5.66162,6.53846 6.3068,6.20212 7.00288,5.92356 C7.03891692,5.44672615 7.40936615,5.06326225 7.88030667,5.0070893 L8,5 L9,5 C9,4.48716857 9.38604429,4.06449347 9.88337975,4.0067278 L10,4 L11,4 L11,3 C11,2.44772 11.4477,2 12,2 Z M12,7.16074 C11.6608,7.38151 11.1818,7.73244 10.7071,8.20711 C9.8161,9.09811 9,10.3588 9,12 C9,13.6412 9.8161,14.9019 10.7071,15.7929 C11.1818,16.2676 11.6608,16.6185 12,16.8393 C12.3391,16.6185 12.8182,16.2676 13.2929,15.7929 C14.1839,14.9019 15,13.6412 15,12 C15,10.3588 14.1839,9.09811 13.2929,8.20711 C12.8182,7.73244 12.3391,7.3815 12,7.16074 Z M8.69173,7.45585 C7.74031,7.73182 6.89342,8.12095 6.19074,8.58941 C4.74084,9.55601 4,10.7815 4,12 C4,13.2185 4.74084,14.444 6.19074,15.4106 C6.89342,15.879 7.74032,16.2682 8.69173,16.5442 C7.79466,15.4492 7,13.9325 7,12 C7,10.0675 7.79465,8.5508 8.69173,7.45585 Z M15.3083,7.45585 C16.2053,8.5508 17,10.0675 17,12 C17,13.9325 16.2053,15.4492 15.3083,16.5442 C16.2597,16.2682 17.1066,15.879 17.8093,15.4106 C19.2592,14.444 20,13.2185 20,12 C20,10.7815 19.2592,9.55601 17.8093,8.58941 C17.1066,8.12095 16.2597,7.73182 15.3083,7.45585 Z" id="形状" fill="#09244B"></path>
            </g>
        </g>
    </g>
</svg>