<?xml version="1.0" encoding="UTF-8"?>
<svg width="24px" height="24px" viewBox="0 0 24 24" version="1.1" xmlns="http://www.w3.org/2000/svg" xmlns:xlink="http://www.w3.org/1999/xlink">
    <title>lantern_fill</title>
    <g id="页面-1" stroke="none" stroke-width="1" fill="none" fill-rule="evenodd">
        <g id="Business" transform="translate(-336.000000, -240.000000)">
            <g id="lantern_fill" transform="translate(336.000000, 240.000000)">
                <rect id="矩形" fill-rule="nonzero" x="0" y="0" width="24" height="24"></rect>
                <path d="M12,2 C12.5523,2 13,2.44772 13,3 L13,4 L14,4 C14.5523,4 15,4.44772 15,5 L16,5 C16.5266,5 16.9581,5.40699 16.9971,5.92357 C17.6932,6.20212 18.3384,6.53846 18.9187,6.92531 C20.7261,8.13028 22,9.90476 22,12 C22,14.0952 20.7261,15.8697 18.9187,17.0747 C17.6918,17.8926 16.1747,18.4847 14.5,18.7824 L14.5,21 C14.5,21.5523 14.0523,22 13.5,22 C12.9477,22 12.5,21.5523 12.5,21 L12.5,19 L11.5,19 L11.5,21 C11.5,21.5523 11.0523,22 10.5,22 C9.94772,22 9.5,21.5523 9.5,21 L9.5,18.7824 C7.82528,18.4847 6.30824,17.8926 5.08134,17.0747 C3.27388,15.8697 2,14.0952 2,12 C2,9.90476 3.27388,8.13028 5.08134,6.92531 C5.66162,6.53846 6.3068,6.20212 7.00288,5.92357 C7.04192,5.40699 7.47343,5 8,5 L9,5 C9,4.44772 9.44772,4 10,4 L11,4 L11,3 C11,2.44772 11.4477,2 12,2 Z M8.27381,7 L8.2718,7.00214 C7.20641,8.13411 6,9.8713 6,12 C6,14.1287 7.20641,15.8659 8.2718,16.9979 L8.27381,17 L11.3062,17 C11.2191,16.9384 11.1103,16.8589 10.9855,16.7627 C10.6409,16.497 10.183,16.1104 9.7282,15.6271 C8.79359,14.6341 8,13.3713 8,12 C8,10.6287 8.79359,9.36589 9.7282,8.37286 C10.183,7.88964 10.6409,7.503 10.9855,7.23732 C11.1103,7.14113 11.2191,7.06164 11.3062,7 L8.27381,7 Z M12.6938,7 C12.7809,7.06164 12.8897,7.14113 13.0145,7.23732 C13.3591,7.503 13.817,7.88964 14.2718,8.37286 C15.2064,9.36589 16,10.6287 16,12 C16,13.3713 15.2064,14.6341 14.2718,15.6271 C13.817,16.1104 13.3591,16.497 13.0145,16.7627 C12.8897,16.8589 12.7809,16.9384 12.6938,17 L15.7262,17 L15.7282,16.9979 C16.7936,15.8659 18,14.1287 18,12 C18,9.8713 16.7936,8.13411 15.7282,7.00214 L15.7262,7 L12.6938,7 Z" id="形状" fill="#09244B"></path>
            </g>
        </g>
    </g>
</svg>