<svg xmlns="http://www.w3.org/2000/svg" width="24" height="24" viewBox="0 0 24 24"><title>laurel_wreath_line</title><g fill="none" fill-rule="evenodd"><path d="M24 0v24H0V0zM12.594 23.258l-.012.002-.071.035-.02.004-.014-.004-.071-.036q-.016-.004-.024.006l-.004.01-.017.428.005.02.01.013.104.074.015.004.012-.004.104-.074.012-.016.004-.017-.017-.427q-.004-.016-.016-.018m.264-.113-.014.002-.184.093-.01.01-.003.011.018.43.005.012.008.008.201.092q.019.005.029-.008l.004-.014-.034-.614q-.005-.019-.02-.022m-.715.002a.02.02 0 0 0-.027.006l-.006.014-.034.614q.001.018.017.024l.015-.002.201-.093.01-.008.003-.011.018-.43-.003-.012-.01-.01z"/><path fill="#09244b" fill-rule="nonzero" d="M16.99 2.779a1 1 0 0 1 1.099-.155q.582.291 1.066.728c.519.458 1.173 1.224 1.324 2.301.042.299.04.587.008.857l.071-.013c.4-.059.796.126 1.007.47.219.372.386.773.498 1.19.186.667.317 1.665-.143 2.651a3.3 3.3 0 0 1-.504.774l.047.023a1 1 0 0 1 .555.96l-.007.083-.024.194-.047.264c-.04.202-.103.451-.197.72-.23.653-.696 1.546-1.639 2.09q-.283.162-.57.26l.046.067c.224.336.225.774.002 1.111a5.33 5.33 0 0 1-.869.955c-.525.45-1.375.99-2.463.99-.647 0-1.21-.19-1.67-.44.143.302.36.526.621.647l.223.088a1 1 0 0 1-.74 1.855c-1.119-.373-1.817-1.291-2.109-2.243-.288-.94-.227-2.049.327-2.936.231-.369.557-.699.885-.979.447-.384 1.13-.833 1.995-.958a5 5 0 0 1 .185-.658c.21-.596.616-1.392 1.403-1.94a5 5 0 0 1-.125-.389c-.168-.602-.291-1.473.025-2.363a5 5 0 0 1-.418-.333c-.52-.457-1.173-1.224-1.324-2.301s.265-1.994.638-2.577a5.4 5.4 0 0 1 .824-.993M16.25 16.3c-.408 0-.804.205-1.151.5.347.294.743.5 1.15.5.409 0 .805-.206 1.152-.5-.347-.295-.743-.5-1.151-.5m2.355-2.982c-.353.204-.594.58-.747 1.008.448.082.894.062 1.247-.142s.593-.58.746-1.009c-.447-.081-.893-.061-1.246.143m1.535-4.609c-.413.19-.767.462-.94.831-.172.37-.153.816-.033 1.255.414-.19.768-.462.94-.832s.154-.816.033-1.254m-2.297-3.848c-.243.385-.391.806-.335 1.21.057.404.316.767.656 1.07.243-.385.391-.806.335-1.21-.057-.403-.316-.767-.656-1.07M7.009 2.779q.148.135.282.285c.151.167.35.407.542.708.373.583.79 1.5.638 2.577-.151 1.077-.804 1.844-1.324 2.301a5 5 0 0 1-.418.333c.316.89.193 1.761.025 2.363q-.06.21-.125.389c.786.548 1.193 1.344 1.403 1.94.085.243.144.468.185.658.865.125 1.548.574 1.995.958.328.28.654.61.885.979.554.887.615 1.996.327 2.936-.292.952-.99 1.87-2.109 2.243a1 1 0 0 1-.74-1.855l.108-.043c.312-.104.573-.347.736-.692-.46.25-1.023.44-1.67.44-1.088 0-1.937-.54-2.463-.99a5.4 5.4 0 0 1-.869-.955 1 1 0 0 1 .002-1.111l.046-.067a3.3 3.3 0 0 1-.57-.26c-.943-.544-1.409-1.437-1.639-2.09a5 5 0 0 1-.197-.72l-.047-.264-.024-.194a1 1 0 0 1 .547-1.044l.048-.022a3.3 3.3 0 0 1-.504-.774c-.46-.986-.329-1.984-.143-2.651a4.8 4.8 0 0 1 .498-1.19 1.01 1.01 0 0 1 1.007-.47l.071.013a3.3 3.3 0 0 1 .008-.857c.151-1.077.804-1.843 1.324-2.301a4.8 4.8 0 0 1 1.066-.728 1 1 0 0 1 1.099.155M7.75 16.3c-.408 0-.804.205-1.151.5.347.294.743.5 1.152.5.407 0 .803-.206 1.15-.5-.347-.295-.743-.5-1.151-.5m-2.355-2.982c-.353-.204-.799-.224-1.246-.143.153.429.393.805.746 1.009s.799.224 1.247.142c-.153-.428-.394-.804-.747-1.008M3.86 8.709c-.121.438-.139.884.033 1.254s.526.642.94.832c.12-.439.139-.885-.033-1.255-.151-.323-.441-.571-.788-.756zm2.296-3.848c-.34.303-.599.667-.656 1.07-.056.404.092.825.335 1.21.34-.303.599-.666.656-1.07.056-.404-.092-.825-.335-1.21"/></g></svg>