<?xml version="1.0" encoding="UTF-8"?>
<svg width="24px" height="24px" viewBox="0 0 24 24" version="1.1" xmlns="http://www.w3.org/2000/svg" xmlns:xlink="http://www.w3.org/1999/xlink">
    <title>medal_line</title>
    <g id="页面-1" stroke="none" stroke-width="1" fill="none" fill-rule="evenodd">
        <g id="Business" transform="translate(-96.000000, -192.000000)">
            <g id="medal_line" transform="translate(96.000000, 192.000000)">
                <rect id="矩形" fill-rule="nonzero" x="0" y="0" width="24" height="24"></rect>
                <path d="M9.41968,2 C10.1374,2 10.8001,2.38457 11.1562,3.00772 L12,4.48447 L12.8439,3.00772 C13.2,2.38457 13.8626,2 14.5804,2 L19.1384,2 C20.2902,2 21.0122,3.24422 20.4408,4.24421 L17.0592,10.1621 C18.2615,11.4191 19,13.1233 19,15 C19,18.866 15.866,22 12,22 C8.13401,22 5,18.866 5,15 C5,13.1233 5.73855,11.419 6.94087,10.1621 L3.55923,4.24421 C2.98781,3.24422 3.70986,2 4.86159,2 L9.41968,2 Z M12,10 C9.23858,10 7,12.2386 7,15 C7,17.7614 9.23858,20 12,20 C14.7614,20 17,17.7614 17,15 C17,12.2386 14.7614,10 12,10 Z M12,13 C13.1046,13 14,13.8954 14,15 C14,16.1046 13.1046,17 12,17 C10.8954,17 10,16.1046 10,15 C10,13.8954 10.8954,13 12,13 Z M18.2769,4 L14.5804,4 L13.1518,6.50003 L14.2129,8.35698 C14.6518,8.50312 15.0714,8.69156 15.4669,8.91744 L18.2769,4 Z M9.41968,4 L5.72318,4 L8.53314,8.91743 C9.47618,8.37877 10.5566,8.0531 11.7088,8.00595 L9.41968,4 Z" id="形状" fill="#09244B"></path>
            </g>
        </g>
    </g>
</svg>