<?xml version="1.0" encoding="UTF-8"?>
<svg width="24px" height="24px" viewBox="0 0 24 24" version="1.1" xmlns="http://www.w3.org/2000/svg" xmlns:xlink="http://www.w3.org/1999/xlink">
    <title>medal_fill</title>
    <g id="页面-1" stroke="none" stroke-width="1" fill="none" fill-rule="evenodd">
        <g id="Business" transform="translate(-96.000000, -240.000000)" fill-rule="nonzero">
            <g id="medal_fill" transform="translate(96.000000, 240.000000)">
                <rect id="矩形" x="0" y="0" width="24" height="24"></rect>
                <path d="M12,8 C15.866,8 19,11.134 19,15 C19,18.866 15.866,22 12,22 C8.13401,22 5,18.866 5,15 C5,11.134 8.13401,8 12,8 Z M12,13 C10.8954,13 10,13.8954 10,15 C10,16.1046 10.8954,17 12,17 C13.1046,17 14,16.1046 14,15 C14,13.8954 13.1046,13 12,13 Z M9.41968,2 C10.0821908,2 10.6978206,2.32768095 11.068695,2.86821775 L11.1562,3.00772 L12.8909,6.04354 C12.5978,6.01474 12.3006,6 12,6 C9.76574286,6 7.72164444,6.81414059 6.14817555,8.1619337 L5.91572,8.36807 L3.55923,4.24421 C3.00978769,3.28268115 3.65623111,2.09534794 4.73065409,2.005437 L4.86159,2 L9.41968,2 Z M19.1384,2 C20.2901,2 21.0122,3.24422 20.4408,4.24421 L18.0843,8.36806 C17.2521,7.60422 16.2758,6.99496 15.2008,6.5858 L13.1562,3.00772 C13.1092,2.9256 13.057,2.84762 13,2.77412 C13.3755,2.28989 13.9572,2 14.5803,2 L19.1384,2 Z" id="形状" fill="#09244B"></path>
            </g>
        </g>
    </g>
</svg>