<svg xmlns="http://www.w3.org/2000/svg" width="24" height="24" viewBox="0 0 24 24"><g fill="none"><path d="M24,0 L24,24 L0,24 L0,0 L24,0 Z M12.5935,23.2578 L12.5819,23.2595 L12.5109,23.295 L12.4919,23.2987 L12.4767,23.295 L12.4057,23.2595 C12.3958,23.2564 12.387,23.259 12.3821,23.2649 L12.378,23.2758 L12.3609,23.7031 L12.3659,23.7235 L12.3769,23.7357 L12.4805,23.8097 L12.4953,23.8136 L12.5071,23.8097 L12.6107,23.7357 L12.6233,23.7197 L12.6267,23.7031 L12.6096,23.2758 C12.6076,23.2657 12.601,23.2593 12.5935,23.2578 Z M12.8584,23.1453 L12.8445,23.1473 L12.6598,23.2397 L12.6499,23.2499 L12.6472,23.2611 L12.6651,23.6906 L12.6699,23.7034 L12.6784,23.7105 L12.8793,23.8032 C12.8914,23.8069 12.9022,23.803 12.9078,23.7952 L12.9118,23.7812 L12.8777,23.1665 C12.8753,23.1546 12.8674,23.147 12.8584,23.1453 Z M12.143,23.1473 C12.1332,23.1424 12.1222,23.1453 12.1156,23.1526 L12.1099,23.1665 L12.0758,23.7812 C12.0751,23.7927 12.0828,23.8019 12.0926,23.8046 L12.1083,23.8032 L12.3092,23.7105 L12.3186,23.7024 L12.3225,23.6906 L12.3404,23.2611 L12.3372,23.2485 L12.3278,23.2397 L12.143,23.1473 Z"/><path fill="#09244B" d="M11,3 C11.4808,3 11.922,3.16966 12.2669,3.45237 L17.0981,6.24164 C17.5141,6.48182 17.8112,6.84888 17.9686,7.26572 L20.7586,12.098 C21.3109,13.0546 20.9831,14.2778 20.0265,14.8301 L10.5791,20.2845 C9.81756,20.742 8.90877,20.998 8.02056,21.0008201 C7.11793,21.0053 6.19048,20.749 5.4192,20.2833 C4.88243,19.9605 4.40066,19.5333 4.00749,19.0104 C3.37505,18.173 3,17.1303 3,16 L3,5 C3,3.89543 3.89543,3 5,3 L11,3 Z M10.9475,5 L5,5 L5,16 C5,17.625 6.36185,19 8,19 C9.63438,19 11,17.626 11,16 L11,5.03032 L10.9475,5 Z M8,14.5 C8.82843,14.5 9.5,15.1716 9.5,16 C9.5,16.8284 8.82843,17.5 8,17.5 C7.17157,17.5 6.5,16.8284 6.5,16 C6.5,15.1716 7.17157,14.5 8,14.5 Z M17.2377,9.99975 L13.6602,16.1963 L19.0265,13.098 L17.2377,9.99975 Z M13,6.18502 L13,13.3397 L16.083,7.99975 L16.0529,7.94764 L13,6.18502 Z"/></g></svg>