<?xml version="1.0" encoding="UTF-8"?>
<svg width="24px" height="24px" viewBox="0 0 24 24" version="1.1" xmlns="http://www.w3.org/2000/svg" xmlns:xlink="http://www.w3.org/1999/xlink">
    <title>pig_money_line</title>
    <g id="Icon" stroke="none" stroke-width="1" fill="none" fill-rule="evenodd">
        <g id="Business" transform="translate(-716.000000, -384.000000)" fill-rule="nonzero">
            <g id="pig_money_line" transform="translate(716.000000, 384.000000)">
                <path d="M24,0 L24,24 L0,24 L0,0 L24,0 Z M12.5934901,23.257841 L12.5819402,23.2595131 L12.5108777,23.2950439 L12.4918791,23.2987469 L12.4918791,23.2987469 L12.4767152,23.2950439 L12.4056548,23.2595131 C12.3958229,23.2563662 12.3870493,23.2590235 12.3821421,23.2649074 L12.3780323,23.275831 L12.360941,23.7031097 L12.3658947,23.7234994 L12.3769048,23.7357139 L12.4804777,23.8096931 L12.4953491,23.8136134 L12.4953491,23.8136134 L12.5071152,23.8096931 L12.6106902,23.7357139 L12.6232938,23.7196733 L12.6232938,23.7196733 L12.6266527,23.7031097 L12.609561,23.275831 C12.6075724,23.2657013 12.6010112,23.2592993 12.5934901,23.257841 L12.5934901,23.257841 Z M12.8583906,23.1452862 L12.8445485,23.1473072 L12.6598443,23.2396597 L12.6498822,23.2499052 L12.6498822,23.2499052 L12.6471943,23.2611114 L12.6650943,23.6906389 L12.6699349,23.7034178 L12.6699349,23.7034178 L12.678386,23.7104931 L12.8793402,23.8032389 C12.8914285,23.8068999 12.9022333,23.8029875 12.9078286,23.7952264 L12.9118235,23.7811639 L12.8776777,23.1665331 C12.8752882,23.1545897 12.8674102,23.1470016 12.8583906,23.1452862 L12.8583906,23.1452862 Z M12.1430473,23.1473072 C12.1332178,23.1423925 12.1221763,23.1452606 12.1156365,23.1525954 L12.1099173,23.1665331 L12.0757714,23.7811639 C12.0751323,23.7926639 12.0828099,23.8018602 12.0926481,23.8045676 L12.108256,23.8032389 L12.3092106,23.7104931 L12.3186497,23.7024347 L12.3186497,23.7024347 L12.3225043,23.6906389 L12.340401,23.2611114 L12.337245,23.2485176 L12.337245,23.2485176 L12.3277531,23.2396597 L12.1430473,23.1473072 Z" id="MingCute"></path>
                <path d="M11.5,3 C13.5667862,3 15.3081332,4.39334792 15.836024,6.29194589 L15.8879,6.49726 L17.7575,6.02986 C18.0562,5.95517 18.3727,6.02229 18.6154,6.21179 C18.8234286,6.37422714 18.9574,6.61105204 18.9914321,6.86932265 L19,7 L19,8.80958 C19.55965,9.34664625 20.02375,9.9834275 20.3636273,10.6920081 L20.5016,11 L21,11 C21.51285,11 21.9355092,11.386027 21.9932725,11.8833761 L22,12 L22,15 C22,15.3367111 21.8309136,15.6476642 21.5553888,15.831583 L21.4472,15.8944 L20.2786,16.4787 C19.7994182,17.4067 19.1037074,18.2038736 18.2581094,18.8039547 L18,18.978 L18,20 C18,20.51285 17.613973,20.9355092 17.1166239,20.9932725 L17,21 L14,21 C13.48715,21 13.0644908,20.613973 13.0067275,20.1166239 L13,20 L12,20 C12,20.51285 11.613973,20.9355092 11.1166239,20.9932725 L11,21 L8,21 C7.48716857,21 7.06449347,20.613973 7.0067278,20.1166239 L7,20 L7,18.978 C5.56726,18.0608 4.51684,16.5955 4.14611,14.8767 C2.96163364,14.5257136 2.08298713,13.4630225 2.00555744,12.184118 L2,12 L2,11.5 C2,10.9477 2.44772,10.5 3,10.5 C3.51283143,10.5 3.93550653,10.886027 3.9932722,11.3833761 L4,11.5 L4,12 C4,12.1482 4.03224,12.2889 4.09009,12.4154 C4.40168,10.5604 5.49896,8.97196 7.02799,8.004 C7.00949,7.8384 7,7.67022 7,7.5 C7,5.01472 9.01472,3 11.5,3 Z M17,8.28078 L14.2425,8.97014 L14.1221875,8.99250625 L14.1221875,8.99250625 L14,9 L10.5,9 C8.01472,9 6,11.0147 6,13.5 C6,15.2473 6.99564,16.7638 8.45517,17.5099 C8.75241444,17.6618111 8.95170728,17.9504136 8.9923249,18.2764679 L9,18.4003 L9,19 L10,19 C10,18.48715 10.386027,18.0644908 10.8833761,18.0067275 L11,18 L14,18 C14.51285,18 14.9355092,18.386027 14.9932725,18.8833761 L15,19 L16,19 L16,18.4003 C16,18.0247 16.2104,17.6808 16.5448,17.5099 C17.4592,17.0424 18.1933,16.2707 18.6127,15.3299 C18.68806,15.16062 18.808604,15.016556 18.9598424,14.9127096 L19.0788,14.8426 L20,14.382 L20,13 L19.793,13 C19.3455,13 18.9525,12.7027 18.8307,12.2722 C18.5792,11.3829 18.0598,10.6035 17.3632,10.0282 C17.1660571,9.86537714 17.0400327,9.63438204 17.008049,9.38383673 L17,9.25716 L17,8.28078 Z M16,11 C16.5523,11 17,11.4477 17,12 C17,12.5523 16.5523,13 16,13 C15.4477,13 15,12.5523 15,12 C15,11.4477 15.4477,11 16,11 Z M11.5,5 C10.2316,5 9.18375,5.94466 9.02174,7.16884 C9.49663,7.05839 9.9915,7 10.5,7 L13.8769,7 L13.9464,6.98262 C13.7081,5.85017 12.7033,5 11.5,5 Z" id="形状" fill="#09244B"></path>
            </g>
        </g>
    </g>
</svg>