<?xml version="1.0" encoding="UTF-8"?>
<svg width="24px" height="24px" viewBox="0 0 24 24" version="1.1" xmlns="http://www.w3.org/2000/svg" xmlns:xlink="http://www.w3.org/1999/xlink">
    <title>polkadot_DOT_fill</title>
    <g id="页面-1" stroke="none" stroke-width="1" fill="none" fill-rule="evenodd">
        <g id="Business" transform="translate(-384.000000, -432.000000)">
            <g id="polkadot_DOT_fill" transform="translate(384.000000, 432.000000)">
                <path d="M24,0 L24,24 L0,24 L0,0 L24,0 Z M12.5934901,23.257841 L12.5819402,23.2595131 L12.5108777,23.2950439 L12.4918791,23.2987469 L12.4918791,23.2987469 L12.4767152,23.2950439 L12.4056548,23.2595131 C12.3958229,23.2563662 12.3870493,23.2590235 12.3821421,23.2649074 L12.3780323,23.275831 L12.360941,23.7031097 L12.3658947,23.7234994 L12.3769048,23.7357139 L12.4804777,23.8096931 L12.4953491,23.8136134 L12.4953491,23.8136134 L12.5071152,23.8096931 L12.6106902,23.7357139 L12.6232938,23.7196733 L12.6232938,23.7196733 L12.6266527,23.7031097 L12.609561,23.275831 C12.6075724,23.2657013 12.6010112,23.2592993 12.5934901,23.257841 L12.5934901,23.257841 Z M12.8583906,23.1452862 L12.8445485,23.1473072 L12.6598443,23.2396597 L12.6498822,23.2499052 L12.6498822,23.2499052 L12.6471943,23.2611114 L12.6650943,23.6906389 L12.6699349,23.7034178 L12.6699349,23.7034178 L12.678386,23.7104931 L12.8793402,23.8032389 C12.8914285,23.8068999 12.9022333,23.8029875 12.9078286,23.7952264 L12.9118235,23.7811639 L12.8776777,23.1665331 C12.8752882,23.1545897 12.8674102,23.1470016 12.8583906,23.1452862 L12.8583906,23.1452862 Z M12.1430473,23.1473072 C12.1332178,23.1423925 12.1221763,23.1452606 12.1156365,23.1525954 L12.1099173,23.1665331 L12.0757714,23.7811639 C12.0751323,23.7926639 12.0828099,23.8018602 12.0926481,23.8045676 L12.108256,23.8032389 L12.3092106,23.7104931 L12.3186497,23.7024347 L12.3186497,23.7024347 L12.3225043,23.6906389 L12.340401,23.2611114 L12.337245,23.2485176 L12.337245,23.2485176 L12.3277531,23.2396597 L12.1430473,23.1473072 Z" id="MingCute" fill-rule="nonzero"></path>
                <path d="M11.9999,2 C11.1595,2 10.3502,2.20233 9.71764,2.58185 C9.105,2.94943 8.4999,3.59653 8.4999,4.5 C8.4999,5.40347 9.105,6.05057 9.71764,6.41815 C10.3502,6.79767 11.1595,7 11.9999,7 C12.8403,7 13.6496,6.79767 14.2822,6.41815 C14.8948,6.05057 15.4999,5.40347 15.4999,4.5 C15.4999,3.59653 14.8948,2.94943 14.2822,2.58185 C13.6496,2.20233 12.8403,2 11.9999,2 Z M11.9999,17 C11.1595,17 10.3502,17.2023 9.71764,17.5818 C9.105,17.9494 8.4999,18.5965 8.4999,19.5 C8.4999,20.4035 9.105,21.0506 9.71764,21.4182 C10.3502,21.7977 11.1595,22 11.9999,22 C12.8403,22 13.6496,21.7977 14.2822,21.4182 C14.8948,21.0506 15.4999,20.4035 15.4999,19.5 C15.4999,18.5965 14.8948,17.9494 14.2822,17.5818 C13.6496,17.2023 12.8403,17 11.9999,17 Z M3.33962,7.00004 C2.9194,7.72788 2.68998,8.52991 2.70238,9.26746 C2.7144,9.9818 2.97225,10.8294 3.75468,11.2811 C4.53711,11.7329 5.40007,11.5324 6.02472,11.1856 C6.66967,10.8276 7.24953,10.2279 7.66975,9.50004 C8.08997,8.7722 8.31939,7.97017 8.30698,7.23262 C8.29497,6.51827 8.03711,5.67069 7.25468,5.21895 C6.47225,4.76721 5.60929,4.9677 4.98465,5.31446 C4.3397,5.6725 3.75984,6.2722 3.33962,7.00004 Z M16.33,14.5 C15.9098,15.2279 15.6804,16.0299 15.6928,16.7675 C15.7048,17.4818 15.9626,18.3294 16.7451,18.7811 C17.5275,19.2329 18.3905,19.0324 19.0151,18.6856 C19.66,18.3276 20.2399,17.7279 20.6601,17 C21.0803,16.2722 21.3098,15.4702 21.2974,14.7326 C21.2853,14.0183 21.0275,13.1707 20.2451,12.7189 C19.4626,12.2672 18.5997,12.4677 17.975,12.8145 C17.3301,13.1725 16.7502,13.7722 16.33,14.5 Z M4.98465,18.6856 C4.3397,18.3276 3.75984,17.7279 3.33962,17 C2.9194,16.2722 2.68998,15.4702 2.70238,14.7326 C2.7144,14.0183 2.97225,13.1707 3.75468,12.719 C4.53711,12.2672 5.40007,12.4677 6.02472,12.8145 C6.66966,13.1725 7.24953,13.7722 7.66975,14.5 C8.08997,15.2279 8.31939,16.0299 8.30698,16.7675 C8.29497,17.4818 8.03711,18.3294 7.25468,18.7811 C6.47225,19.2329 5.60929,19.0324 4.98465,18.6856 Z M17.975,11.1856 C17.3301,10.8276 16.7502,10.2279 16.33,9.50004 C15.9098,8.7722 15.6804,7.97017 15.6928,7.23262 C15.7048,6.51827 15.9626,5.67069 16.7451,5.21895 C17.5275,4.76721 18.3905,4.9677 19.0151,5.31446 C19.66,5.6725 20.2399,6.2722 20.6601,7.00004 C21.0803,7.72788 21.3098,8.52991 21.2974,9.26746 C21.2853,9.9818 21.0275,10.8294 20.2451,11.2811 C19.4626,11.7329 18.5997,11.5324 17.975,11.1856 Z" id="形状" fill="#09244B"></path>
            </g>
        </g>
    </g>
</svg>