<svg width="24" height="24" viewBox="0 0 24 24" fill="none" xmlns="http://www.w3.org/2000/svg">
<rect width="24" height="24" fill="white" fill-opacity="0.01"/>
<path d="M16.2428 7.17165C16.6334 6.78113 17.2665 6.78113 17.6571 7.17165C18.0476 7.56217 18.0476 8.19534 17.6571 8.58586L13.4214 12.8215C13.027 13.2159 12.3875 13.216 11.993 12.8215L9.87989 10.7084L7.75859 12.8297C7.36806 13.2202 6.7349 13.2202 6.34437 12.8297C5.95385 12.4391 5.95385 11.806 6.34437 11.4155L9.16571 8.59412C9.56013 8.19969 10.1996 8.19968 10.5941 8.59412L12.7072 10.7073L16.2428 7.17165Z" fill="#09244B"/>
<path fill-rule="evenodd" clip-rule="evenodd" d="M3 3C2.44772 3 2 3.44772 2 4C2 4.55228 2.44772 5 3 5L3 16C3 17.1046 3.89543 18 5 18H10.0458L7.75288 20.2929C7.36236 20.6834 7.36236 21.3166 7.75288 21.7071C8.14341 22.0976 8.77657 22.0976 9.1671 21.7071L11.9955 18.8787L14.824 21.7071C15.2145 22.0976 15.8476 22.0976 16.2382 21.7071C16.6287 21.3166 16.6287 20.6834 16.2382 20.2929L13.9453 18H19C20.1046 18 21 17.1046 21 16V5C21.5523 5 22 4.55228 22 4C22 3.44772 21.5523 3 21 3H3ZM19 5H5V16H19V5Z" fill="#09244B"/>
</svg>
