<?xml version="1.0" encoding="UTF-8"?>
<svg width="24px" height="24px" viewBox="0 0 24 24" version="1.1" xmlns="http://www.w3.org/2000/svg" xmlns:xlink="http://www.w3.org/1999/xlink">
    <title>presentation_2_fill</title>
    <g id="页面-1" stroke="none" stroke-width="1" fill="none" fill-rule="evenodd">
        <g id="Business" transform="translate(-816.000000, -48.000000)">
            <g id="presentation_2_fill" transform="translate(816.000000, 48.000000)">
                <rect id="矩形" fill-rule="nonzero" x="0" y="0" width="24" height="24"></rect>
                <path d="M2,4 C2,3.44772 2.44772,3 3,3 L21,3 C21.5523,3 22,3.44772 22,4 C22,4.55228 21.5523,5 21,5 L21,16 C21,17.1046 20.1046,18 19,18 L13.9453,18 L16.2382,20.2929 C16.6287,20.6834 16.6287,21.3166 16.2382,21.7071 C15.8476,22.0976 15.2145,22.0976 14.824,21.7071 L11.9955,18.8787 L9.1671,21.7071 C8.77657,22.0976 8.14341,22.0976 7.75288,21.7071 C7.36236,21.3166 7.36236,20.6834 7.75288,20.2929 L10.0458,18 L5,18 C3.89543,18 3,17.1046 3,16 L3,5 C2.44772,5 2,4.55228 2,4 Z M16.2428,7.17177 C16.6334,6.78125 17.2665,6.78125 17.6571,7.17177 C18.0476,7.5623 18.0476,8.19546 17.6571,8.58599 L13.4214,12.8216 C13.027,13.2161 12.3875,13.2161 11.993,12.8216 L9.87989,10.7085 L7.75859,12.8298 C7.36806,13.2203 6.7349,13.2203 6.34437,12.8298 C5.95385,12.4393 5.95385,11.8061 6.34437,11.4156 L9.16571,8.59424 C9.56013,8.19981 10.1996,8.1998 10.5941,8.59424 L12.7072,10.7074 L16.2428,7.17177 Z" id="形状" fill="#09244B"></path>
            </g>
        </g>
    </g>
</svg>