<?xml version="1.0" encoding="UTF-8"?>
<svg width="24px" height="24px" viewBox="0 0 24 24" version="1.1" xmlns="http://www.w3.org/2000/svg" xmlns:xlink="http://www.w3.org/1999/xlink">
    <title>presentation_1_fill</title>
    <g id="页面-1" stroke="none" stroke-width="1" fill="none" fill-rule="evenodd">
        <g id="presentation_1_fill">
            <rect id="矩形" fill-opacity="0.01" fill="#FFFFFF" fill-rule="nonzero" x="0" y="0" width="24" height="24"></rect>
            <path d="M21,3 C21.5523,3 22,3.44772 22,4 C22,4.55228 21.5523,5 21,5 L21,16 C21,17.1046 20.1046,18 19,18 L13.9453,18 L16.2382,20.2929 C16.6287,20.6834 16.6287,21.3166 16.2382,21.7071 C15.8476,22.0976 15.2145,22.0976 14.824,21.7071 L11.9955,18.8787 L9.1671,21.7071 C8.77657,22.0976 8.14341,22.0976 7.75288,21.7071 C7.36236,21.3166 7.36236,20.6834 7.75288,20.2929 L10.0458,18 L5,18 C3.89543,18 3,17.1046 3,16 L3,5 C2.44772,5 2,4.55228 2,4 C2,3.44772 2.44772,3 3,3 L21,3 Z M16,7 C15.48715,7 15.0644908,7.38604429 15.0067275,7.88337975 L15,8 L15,13 C15,13.5523 15.4477,14 16,14 C16.51285,14 16.9355092,13.613973 16.9932725,13.1166239 L17,13 L17,8 C17,7.44772 16.5523,7 16,7 Z M12,9 C11.4477,9 11,9.44772 11,10 L11,13 C11,13.5523 11.4477,14 12,14 C12.5523,14 13,13.5523 13,13 L13,10 C13,9.44772 12.5523,9 12,9 Z M8,11 C7.44772,11 7,11.4477 7,12 L7,13 C7,13.5523 7.44772,14 8,14 C8.55228,14 9,13.5523 9,13 L9,12 C9,11.4477 8.55228,11 8,11 Z" id="形状" fill="#09244B"></path>
        </g>
    </g>
</svg>