<svg width="24" height="24" viewBox="0 0 24 24" fill="none" xmlns="http://www.w3.org/2000/svg">
<rect width="24" height="24" fill="white" fill-opacity="0.01"/>
<path fill-rule="evenodd" clip-rule="evenodd" d="M2 4C2 3.44772 2.44772 3 3 3H21C21.5523 3 22 3.44772 22 4C22 4.55228 21.5523 5 21 5V16C21 17.1046 20.1046 18 19 18H13.9453L16.2382 20.2929C16.6287 20.6834 16.6287 21.3166 16.2382 21.7071C15.8476 22.0976 15.2145 22.0976 14.824 21.7071L11.9955 18.8787L9.1671 21.7071C8.77657 22.0976 8.14341 22.0976 7.75288 21.7071C7.36236 21.3166 7.36236 20.6834 7.75288 20.2929L10.0458 18H5C3.89543 18 3 17.1046 3 16L3 5C2.44772 5 2 4.55228 2 4ZM16.2428 7.17177C16.6334 6.78125 17.2665 6.78125 17.6571 7.17177C18.0476 7.5623 18.0476 8.19546 17.6571 8.58599L13.4214 12.8216C13.027 13.2161 12.3875 13.2161 11.993 12.8216L9.87989 10.7085L7.75859 12.8298C7.36806 13.2203 6.7349 13.2203 6.34437 12.8298C5.95385 12.4393 5.95385 11.8061 6.34437 11.4156L9.16571 8.59424C9.56013 8.19981 10.1996 8.1998 10.5941 8.59424L12.7072 10.7074L16.2428 7.17177Z" fill="#09244B"/>
</svg>
