<?xml version="1.0" encoding="UTF-8"?>
<svg width="24px" height="24px" viewBox="0 0 24 24" version="1.1" xmlns="http://www.w3.org/2000/svg" xmlns:xlink="http://www.w3.org/1999/xlink">
    <title>receive_money_line</title>
    <g id="页面-1" stroke="none" stroke-width="1" fill="none" fill-rule="evenodd">
        <g id="Business" transform="translate(-432.000000, -192.000000)">
            <g id="receive_money_line" transform="translate(432.000000, 192.000000)">
                <rect id="矩形" fill-rule="nonzero" x="0" y="0" width="24" height="24"></rect>
                <path d="M17,2 C18.597725,2 19.903664,3.24892392 19.9949075,4.82372764 L20,5 L20,16.9997 C20.4049,16.9998 20.7858,17.2475 20.9364,17.6489 C21.11645,18.1290643 20.9034026,18.6603597 20.4580294,18.8890564 L20.3512,18.9363 L12.3512,21.9363 C12.17008,22.00422 11.974176,22.017804 11.7871424,21.977052 L11.6489,21.9363 L3.6489,18.9363 C3.13178,18.7424 2.86978,18.166 3.0637,17.6489 C3.199168,17.28764 3.5213086,17.050877 3.87950311,17.0070641 L4.00003,16.9997 L4.00003,5 C4.00003,3.40232321 5.24894462,2.09633941 6.82375664,2.00509271 L7.00003,2 L17,2 Z M17,4 L7.00003,4 C6.44774,4 6.00003,4.44772 6.00003,5 L6.00003,17.682 L12,19.932 L18,17.682 L18,5 C18,4.44772 17.5523,4 17,4 Z M12,5 C12.5523,5 13,5.44772 13,6 L13,7 L15,7 C15.5523,7 16,7.44772 16,8 C16,8.55228 15.5523,9 15,9 L13,9 L13,10 L14,10 C15.3807,10 16.5,11.1193 16.5,12.5 C16.5,13.8807 15.3807,15 14,15 L13,15 L13,16 C13,16.5523 12.5523,17 12,17 C11.4477,17 11,16.5523 11,16 L11,15 L9,15 C8.44772,15 8,14.5523 8,14 C8,13.4477 8.44772,13 9,13 L11,13 L11,12 L10,12 C8.61929,12 7.5,10.8807 7.5,9.5 C7.5,8.11929 8.61929,7 10,7 L11,7 L11,6 C11,5.44772 11.4477,5 12,5 Z M14,12 L13,12 L13,13 L14,13 C14.2761,13 14.5,12.7761 14.5,12.5 C14.5,12.2545778 14.3230914,12.0504 14.0898645,12.0080571 L14,12 Z M11,9 L10,9 C9.72386,9 9.5,9.22386 9.5,9.5 C9.5,9.74545778 9.67687704,9.9496079 9.91012499,9.99194425 L10,10 L11,10 L11,9 Z" id="形状" fill="#09244B"></path>
            </g>
        </g>
    </g>
</svg>