<?xml version="1.0" encoding="UTF-8"?>
<svg width="24px" height="24px" viewBox="0 0 24 24" version="1.1" xmlns="http://www.w3.org/2000/svg" xmlns:xlink="http://www.w3.org/1999/xlink">
    <title>red_packet_fill</title>
    <g id="页面-1" stroke="none" stroke-width="1" fill="none" fill-rule="evenodd">
        <g id="Business" transform="translate(-816.000000, -144.000000)" fill-rule="nonzero">
            <g id="red_packet_fill" transform="translate(816.000000, 144.000000)">
                <rect id="矩形" x="0" y="0" width="24" height="24"></rect>
                <path d="M20,6.76199 L20,19 C20,20.597725 18.7511226,21.903664 17.1762773,21.9949075 L17,22 L7,22 C5.40232321,22 4.09633941,20.7511226 4.00509271,19.1762773 L4,19 L4,6.7622 L4.67095,7.56735 C6.16058,9.3549 8.23948,10.5228 10.5046,10.8822 L10.5,11 L10.5,11 C10.5,11.8284 11.1716,12.5 12,12.5 C12.8284,12.5 13.5,11.8284 13.5,11 L13.4954,10.8822 L13.4954,10.8822 C15.6526381,10.539819 17.6408966,9.46424082 19.1121353,7.81847146 L19.3289,7.56735 L20,6.76199 Z M17,2 C18.1987053,2 19.2332565,2.70308 19.71372,3.71937433 L19.7886,3.89159 L17.7924,6.28698 C16.3598,8.00608 14.2377,9.00005 11.9999,9.00005 C9.85943391,9.00005 7.82473418,8.09063321 6.398113,6.50707607 L6.20739,6.28698 L4.21136,3.89173 C4.62899789,2.84177105 5.62244931,2.08336723 6.80178905,2.00644372 L7,2 L17,2 Z" id="形状" fill="#09244B"></path>
            </g>
        </g>
    </g>
</svg>