<?xml version="1.0" encoding="UTF-8"?>
<svg width="24px" height="24px" viewBox="0 0 24 24" version="1.1" xmlns="http://www.w3.org/2000/svg" xmlns:xlink="http://www.w3.org/1999/xlink">
    <title>red_packet_open_fill</title>
    <g id="页面-1" stroke="none" stroke-width="1" fill="none" fill-rule="evenodd">
        <g id="Business" transform="translate(-864.000000, -144.000000)">
            <g id="red_packet_open_fill" transform="translate(864.000000, 144.000000)">
                <rect id="矩形" fill-rule="nonzero" x="0" y="0" width="24" height="24"></rect>
                <path d="M12,0 C7.58172,0 4,3.58172 4,8 L4,19 C4,20.6569 5.34315,22 7,22 L17,22 C18.6569,22 20,20.6569 20,19 L20,8 C20,3.58172 16.4183,0 12,0 Z M6.3126,6.08347 C7.11225,3.70959 9.35648,2 12,2 C14.6435,2 16.8878,3.70959 17.6874,6.08347 L17.6,6.2 C16.278,7.96264 14.2033,9 12,9 C9.7967,9 7.72198,7.96264 6.4,6.2 L6.3126,6.08347 Z" id="形状" fill="#09244B"></path>
            </g>
        </g>
    </g>
</svg>