<?xml version="1.0" encoding="UTF-8"?>
<svg width="24px" height="24px" viewBox="0 0 24 24" version="1.1" xmlns="http://www.w3.org/2000/svg" xmlns:xlink="http://www.w3.org/1999/xlink">
    <title>safe_box_fill</title>
    <g id="页面-1" stroke="none" stroke-width="1" fill="none" fill-rule="evenodd">
        <g id="Business" transform="translate(-912.000000, -144.000000)" fill-rule="nonzero">
            <g id="safe_box_fill" transform="translate(912.000000, 144.000000)">
                <rect id="矩形" x="0" y="0" width="24" height="24"></rect>
                <path d="M20,3 C21.1046,3 22,3.89543 22,5 L22,18 C22,19.1046 21.1046,20 20,20 L19,20 C19,20.5523 18.5523,21 18,21 C17.4477,21 17,20.5523 17,20 L7,20 C7,20.5523 6.55228,21 6,21 C5.44772,21 5,20.5523 5,20 L4,20 C2.89543,20 2,19.1046 2,18 L2,5 C2,3.89543 2.89543,3 4,3 L20,3 Z M12,7 C11.48715,7 11.0644908,7.38604429 11.0067275,7.88337975 L11,8 L11,8.12602 C9.27476,8.57006 7.99998,10.1362 7.99998,12 C7.99998,12.27825 8.02839187,12.5498625 8.082465,12.8120953 L8.14499,13.0711 L8.03581,13.1341 C7.55752,13.4102 7.39364,14.0218 7.66979,14.5001 C7.92620571,14.9442357 8.47186148,15.1172816 8.93144981,14.9185953 L9.03581,14.8661 L9.14593,14.8026 C9.87172,15.5416 10.8823,16 12,16 C13.0378643,16 13.9833821,15.6047469 14.694277,14.9565174 L14.8541,14.8025 L14.964,14.8659 C15.4423,15.142 16.0539,14.9782 16.3301,14.4999 C16.5864786,14.0557643 16.4634694,13.4966913 16.0616348,13.1980286 L15.964,13.1339 L15.855,13.0709 C15.9495,12.7301 16,12.3709 16,12 C16,10.2052296 14.8178809,8.68647868 13.1897935,8.17993359 L13,8.12602 L13,8 C13,7.44772 12.5523,7 12,7 Z M12,10 C13.1046,10 14,10.8954 14,12 C14,12.2961667 13.935625,12.5773333 13.8200694,12.8301898 L13.7204,13.0206 C13.3717,13.607 12.7317,14 12,14 C11.3220923,14 10.7230012,13.6627503 10.3612905,13.1468147 L10.2589,12.9849 C10.0941,12.6942 9.99998,12.3581 9.99998,12 C9.99998,10.8954 10.8954,10 12,10 Z" id="形状" fill="#09244B"></path>
            </g>
        </g>
    </g>
</svg>