<?xml version="1.0" encoding="UTF-8"?>
<svg width="24px" height="24px" viewBox="0 0 24 24" version="1.1" xmlns="http://www.w3.org/2000/svg" xmlns:xlink="http://www.w3.org/1999/xlink">
    <title>safe_box_fill</title>
    <g id="页面-1" stroke="none" stroke-width="1" fill="none" fill-rule="evenodd">
        <g id="Business" transform="translate(-912.000000, -144.000000)" fill-rule="nonzero">
            <g id="safe_box_fill" transform="translate(912.000000, 144.000000)">
                <path d="M24,0 L24,24 L0,24 L0,0 L24,0 Z M12.5934901,23.257841 L12.5819402,23.2595131 L12.5108777,23.2950439 L12.4918791,23.2987469 L12.4918791,23.2987469 L12.4767152,23.2950439 L12.4056548,23.2595131 C12.3958229,23.2563662 12.3870493,23.2590235 12.3821421,23.2649074 L12.3780323,23.275831 L12.360941,23.7031097 L12.3658947,23.7234994 L12.3769048,23.7357139 L12.4804777,23.8096931 L12.4953491,23.8136134 L12.4953491,23.8136134 L12.5071152,23.8096931 L12.6106902,23.7357139 L12.6232938,23.7196733 L12.6232938,23.7196733 L12.6266527,23.7031097 L12.609561,23.275831 C12.6075724,23.2657013 12.6010112,23.2592993 12.5934901,23.257841 L12.5934901,23.257841 Z M12.8583906,23.1452862 L12.8445485,23.1473072 L12.6598443,23.2396597 L12.6498822,23.2499052 L12.6498822,23.2499052 L12.6471943,23.2611114 L12.6650943,23.6906389 L12.6699349,23.7034178 L12.6699349,23.7034178 L12.678386,23.7104931 L12.8793402,23.8032389 C12.8914285,23.8068999 12.9022333,23.8029875 12.9078286,23.7952264 L12.9118235,23.7811639 L12.8776777,23.1665331 C12.8752882,23.1545897 12.8674102,23.1470016 12.8583906,23.1452862 L12.8583906,23.1452862 Z M12.1430473,23.1473072 C12.1332178,23.1423925 12.1221763,23.1452606 12.1156365,23.1525954 L12.1099173,23.1665331 L12.0757714,23.7811639 C12.0751323,23.7926639 12.0828099,23.8018602 12.0926481,23.8045676 L12.108256,23.8032389 L12.3092106,23.7104931 L12.3186497,23.7024347 L12.3186497,23.7024347 L12.3225043,23.6906389 L12.340401,23.2611114 L12.337245,23.2485176 L12.337245,23.2485176 L12.3277531,23.2396597 L12.1430473,23.1473072 Z" id="MingCute" fill-rule="nonzero"></path>
                <path d="M20,3 C21.1046,3 22,3.89543 22,5 L22,18 C22,19.1046 21.1046,20 20,20 L19,20 C19,20.5523 18.5523,21 18,21 C17.4477,21 17,20.5523 17,20 L7,20 C7,20.5523 6.55228,21 6,21 C5.44772,21 5,20.5523 5,20 L4,20 C2.89543,20 2,19.1046 2,18 L2,5 C2,3.89543 2.89543,3 4,3 L20,3 Z M12,7 C11.48715,7 11.0644908,7.38604429 11.0067275,7.88337975 L11,8 L11,8.12602 C9.27476,8.57006 7.99998,10.1362 7.99998,12 C7.99998,12.27825 8.02839187,12.5498625 8.082465,12.8120953 L8.14499,13.0711 L8.03581,13.1341 C7.55752,13.4102 7.39364,14.0218 7.66979,14.5001 C7.92620571,14.9442357 8.47186148,15.1172816 8.93144981,14.9185953 L9.03581,14.8661 L9.14593,14.8026 C9.87172,15.5416 10.8823,16 12,16 C13.0378643,16 13.9833821,15.6047469 14.694277,14.9565174 L14.8541,14.8025 L14.964,14.8659 C15.4423,15.142 16.0539,14.9782 16.3301,14.4999 C16.5864786,14.0557643 16.4634694,13.4966913 16.0616348,13.1980286 L15.964,13.1339 L15.855,13.0709 C15.9495,12.7301 16,12.3709 16,12 C16,10.2052296 14.8178809,8.68647868 13.1897935,8.17993359 L13,8.12602 L13,8 C13,7.44772 12.5523,7 12,7 Z M12,10 C13.1046,10 14,10.8954 14,12 C14,12.2961667 13.935625,12.5773333 13.8200694,12.8301898 L13.7204,13.0206 C13.3717,13.607 12.7317,14 12,14 C11.3220923,14 10.7230012,13.6627503 10.3612905,13.1468147 L10.2589,12.9849 C10.0941,12.6942 9.99998,12.3581 9.99998,12 C9.99998,10.8954 10.8954,10 12,10 Z" id="形状" fill="#09244B"></path>
            </g>
        </g>
    </g>
</svg>