<?xml version="1.0" encoding="UTF-8"?>
<svg width="24px" height="24px" viewBox="0 0 24 24" version="1.1" xmlns="http://www.w3.org/2000/svg" xmlns:xlink="http://www.w3.org/1999/xlink">
    <title>schedule_line</title>
    <g id="页面-1" stroke="none" stroke-width="1" fill="none" fill-rule="evenodd">
        <g id="Business" transform="translate(-864.000000, 0.000000)" fill-rule="nonzero">
            <g id="schedule_line" transform="translate(864.000000, 0.000000)">
                <rect id="矩形" transform="translate(12.000000, 12.000000) scale(-1, 1) translate(-12.000000, -12.000000) " x="0" y="0" width="24" height="24"></rect>
                <path d="M16,3 C16.5523,3 17,3.44772 17,4 L17,4 L17,5 L19,5 C20.1046,5 21,5.89543 21,7 L21,7 L21,19 C21,20.1046 20.1046,21 19,21 L19,21 L5,21 C3.89543,21 3,20.1046 3,19 L3,19 L3,7 C3,5.89543 3.89543,5 5,5 L5,5 L7,5 L7,4 C7,3.44772 7.44771,3 8,3 C8.55229,3 9,3.44772 9,4 L9,4 L9,5 L15,5 L15,4 C15,3.44772 15.4477,3 16,3 Z M19,7 L5,7 L5,19 L19,19 L19,7 Z M14.8241,9.37872 C15.2146,8.9882 15.8478,8.9882 16.2383,9.37872 C16.6289,9.76924 16.6289,10.4024 16.2383,10.7929 L16.2383,10.7929 L11.2957,15.7356 C10.9012,16.13 10.2617,16.13 9.86731,15.7356 L9.86731,15.7356 L7.75306,13.6214 C7.36253,13.2308 7.36253,12.5977 7.75306,12.2071 C8.14358,11.8166 8.77675,11.8166 9.16727,12.2071 L9.16727,12.2071 L10.5815,13.6214 Z" id="形状结合" fill="#09244B"></path>
            </g>
        </g>
    </g>
</svg>