<svg width="24" height="24" viewBox="0 0 24 24" fill="none" xmlns="http://www.w3.org/2000/svg">
<rect width="24" height="24" transform="matrix(-1 0 0 1 24 0)" fill="white" fill-opacity="0.01"/>
<path d="M16.2383 10.7929C16.6289 10.4024 16.6289 9.76924 16.2383 9.37872C15.8478 8.9882 15.2146 8.9882 14.8241 9.37872L10.5815 13.6214L9.16727 12.2071C8.77675 11.8166 8.14358 11.8166 7.75306 12.2071C7.36253 12.5977 7.36253 13.2308 7.75306 13.6214L9.86731 15.7356C10.2617 16.13 10.9012 16.13 11.2957 15.7356L16.2383 10.7929Z" fill="#09244B"/>
<path fill-rule="evenodd" clip-rule="evenodd" d="M8 3C7.44771 3 7 3.44772 7 4V5H5C3.89543 5 3 5.89543 3 7V19C3 20.1046 3.89543 21 5 21H19C20.1046 21 21 20.1046 21 19V7C21 5.89543 20.1046 5 19 5H17V4C17 3.44772 16.5523 3 16 3C15.4477 3 15 3.44772 15 4V5H9V4C9 3.44772 8.55229 3 8 3ZM5 7L19 7V19H5V7Z" fill="#09244B"/>
</svg>
