<?xml version="1.0" encoding="UTF-8"?>
<svg width="24px" height="24px" viewBox="0 0 24 24" version="1.1" xmlns="http://www.w3.org/2000/svg" xmlns:xlink="http://www.w3.org/1999/xlink">
    <title>shopping_cart_1_fill</title>
    <g id="页面-1" stroke="none" stroke-width="1" fill="none" fill-rule="evenodd">
        <g id="Business" transform="translate(-1008.000000, -48.000000)" fill-rule="nonzero">
            <g id="shopping_cart_1_fill" transform="translate(1008.000000, 48.000000)">
                <rect id="矩形" x="0" y="0" width="24" height="24"></rect>
                <path d="M7.5,19 C8.32843,19 9,19.6716 9,20.5 C9,21.3284 8.32843,22 7.5,22 C6.67157,22 6,21.3284 6,20.5 C6,19.6716 6.67157,19 7.5,19 Z M17.5,19 C18.3284,19 19,19.6716 19,20.5 C19,21.3284 18.3284,22 17.5,22 C16.6716,22 16,21.3284 16,20.5 C16,19.6716 16.6716,19 17.5,19 Z M3,2 C4.72559,2 6.02275,3.28286 6.1454,5 L19.8018,5 C21.0496,5 21.9927,6.13009 21.7695,7.35777 L20.1332,16.3578 C19.9603,17.3088 19.132,18 18.1654,18 L6.93112,18 C5.88184,18 5.01096,17.1891 4.9362,16.1425 L4.13522,4.92875 C4.09111,4.31124 3.56456,4 3,4 C2.44772,4 2,3.55228 2,3 C2,2.44772 2.44772,2 3,2 Z" id="形状" fill="#09244B"></path>
            </g>
        </g>
    </g>
</svg>