<?xml version="1.0" encoding="UTF-8"?>
<svg width="24px" height="24px" viewBox="0 0 24 24" version="1.1" xmlns="http://www.w3.org/2000/svg" xmlns:xlink="http://www.w3.org/1999/xlink">
    <title>shopping_bag_1_fill</title>
    <g id="页面-1" stroke="none" stroke-width="1" fill="none" fill-rule="evenodd">
        <g id="Business" transform="translate(-912.000000, -48.000000)" fill-rule="nonzero">
            <g id="shopping_bag_1_fill" transform="translate(912.000000, 48.000000)">
                <rect id="矩形" x="0" y="0" width="24" height="24"></rect>
                <path d="M12,2 C14.2091,2 16,3.79086 16,6 L18.0351,6 C19.1119,6 19.9954,6.85252 20.0339,7.92862 L20.4624,19.9286 C20.5028,21.0604 19.5963,22 18.4637,22 L5.5364,22 C4.40385,22 3.49726,21.0605 3.53768,19.9286 L3.96625,7.92862 C4.00468,6.85252 4.88819,6 5.96498,6 L8,6 C8,3.79086 9.79086,2 12,2 Z M10,8 L8,8 L8,9 C8,9.55228 8.44772,10 9,10 C9.51283143,10 9.93550653,9.61395571 9.9932722,9.11662025 L10,9 L10,8 Z M16,8 L14,8 L14,9 C14,9.55228 14.4477,10 15,10 C15.5523,10 16,9.55228 16,9 L16,8 Z M12,4 C10.9456091,4 10.0818322,4.81587733 10.0054856,5.85073759 L10,6 L14,6 C14,4.89543 13.1046,4 12,4 Z" id="形状" fill="#09244B"></path>
            </g>
        </g>
    </g>
</svg>