<?xml version="1.0" encoding="UTF-8"?>
<svg width="24px" height="24px" viewBox="0 0 24 24" version="1.1" xmlns="http://www.w3.org/2000/svg" xmlns:xlink="http://www.w3.org/1999/xlink">
    <title>shopping_bag_2_fill</title>
    <g id="页面-1" stroke="none" stroke-width="1" fill="none" fill-rule="evenodd">
        <g id="Business" transform="translate(-960.000000, -48.000000)" fill-rule="nonzero">
            <g id="shopping_bag_2_fill" transform="translate(960.000000, 48.000000)">
                <rect id="矩形" x="0" y="0" width="24" height="24"></rect>
                <path d="M18.0606,3 C19.06399,3 19.9030348,3.74110593 20.040846,4.71894978 L20.0567,4.87524 L20.9317,18.8752 C21.0005696,19.9765391 20.1669484,20.91502 19.0846641,20.9945451 L18.9356,21 L5.06453,21 C3.96104826,21 3.07643699,20.1094034 3.06457634,19.0243078 L3.06843,18.8752 L3.94343,4.87524 C4.006016,3.8738735 4.79802055,3.08269925 5.78255543,3.00608524 L5.93953,3 L18.0606,3 Z M15,7 C14.48715,7 14.0644908,7.38604429 14.0067275,7.88337975 L14,8 C14,9.10457 13.1046,10 12,10 C10.8954,10 10,9.10457 10,8 C10,7.44772 9.55228,7 9,7 C8.44772,7 8,7.44772 8,8 C8,10.2091 9.79086,12 12,12 C14.2091,12 16,10.2091 16,8 C16,7.44772 15.5523,7 15,7 Z" id="形状" fill="#09244B"></path>
            </g>
        </g>
    </g>
</svg>