<svg width="24" height="24" viewBox="0 0 24 24" fill="none" xmlns="http://www.w3.org/2000/svg">
<rect width="24" height="24" fill="white" fill-opacity="0.01"/>
<path d="M2 3C2 2.44772 2.44772 2 3 2C4.72559 2 6.02275 3.28286 6.1454 5H19.8018C21.0496 5 21.9927 6.13009 21.7695 7.35777L20.1332 16.3578C19.9603 17.3088 19.132 18 18.1654 18H6.93112C5.88184 18 5.01096 17.1891 4.9362 16.1425L4.13522 4.92875C4.09111 4.31124 3.56456 4 3 4C2.44772 4 2 3.55228 2 3Z" fill="#09244B"/>
<path d="M9 20.5C9 21.3284 8.32843 22 7.5 22C6.67157 22 6 21.3284 6 20.5C6 19.6716 6.67157 19 7.5 19C8.32843 19 9 19.6716 9 20.5Z" fill="#09244B"/>
<path d="M17.5 22C18.3284 22 19 21.3284 19 20.5C19 19.6716 18.3284 19 17.5 19C16.6716 19 16 19.6716 16 20.5C16 21.3284 16.6716 22 17.5 22Z" fill="#09244B"/>
</svg>
