<?xml version="1.0" encoding="UTF-8"?>
<svg width="24px" height="24px" viewBox="0 0 24 24" version="1.1" xmlns="http://www.w3.org/2000/svg" xmlns:xlink="http://www.w3.org/1999/xlink">
    <title>tag_line</title>
    <g id="页面-1" stroke="none" stroke-width="1" fill="none" fill-rule="evenodd">
        <g id="Business" transform="translate(-384.000000, -96.000000)">
            <g id="tag_line" transform="translate(384.000000, 96.000000)">
                <rect id="矩形" fill-rule="nonzero" x="0" y="0" width="24" height="24"></rect>
                <path d="M10.5374,2.16431 C11.3558,2.08990077 12.1657645,2.35463284 12.7807293,2.89096713 L12.9303,3.03067 L20.7532,10.8536 C21.877936,11.97824 21.9229254,13.7738048 20.8881683,14.9522073 L20.7532,15.0962 L15.0963,20.7531 C13.97166,21.87774 12.1760952,21.9227256 10.9976927,20.8880568 L10.8537,20.7531 L3.03079,12.9302 C2.44965769,12.3490308 2.13450787,11.5573148 2.15285602,10.7415376 L2.16443,10.5372 L2.63584,5.35179 C2.76148708,3.96962417 3.81619042,2.86257507 5.17324036,2.65732594 L5.35191,2.63572 L10.5374,2.16431 Z M10.8446475,4.15262353 L10.7184,4.1561 L5.53298,4.6275 C5.0922925,4.6675675 4.73550674,4.99096826 4.64544264,5.41489006 L4.62763,5.53286 L4.15622,10.7183 C4.13318857,10.9716714 4.20762898,11.2225449 4.36152443,11.4212341 L4.44501,11.516 L12.2679,19.3389 C12.6283615,19.6993615 13.1956207,19.7270893 13.5878973,19.4220834 L13.6821,19.3389 L19.339,13.682 C19.6994615,13.3215385 19.7271893,12.7542793 19.4221834,12.3620027 L19.339,12.2678 L11.5161,4.44489 C11.3361857,4.26501 11.0958061,4.16158224 10.8446475,4.15262353 Z M7.31716,7.31801 C8.48873,6.14644 10.3882,6.14644 11.5598,7.31801 C12.7314,8.48958 12.7314,10.3891 11.5598,11.5606 C10.3882,12.7322 8.48873,12.7322 7.31716,11.5606 C6.14559,10.3891 6.14559,8.48958 7.31716,7.31801 Z M10.1456,8.73222 C9.75506,8.3417 9.1219,8.3417 8.73137,8.73222 C8.34085,9.12275 8.34085,9.75591 8.73137,10.1464 C9.1219,10.537 9.75506,10.537 10.1456,10.1464 C10.5361,9.75591 10.5361,9.12275 10.1456,8.73222 Z" id="形状" fill="#09244B"></path>
            </g>
        </g>
    </g>
</svg>