<?xml version="1.0" encoding="UTF-8"?>
<svg width="24px" height="24px" viewBox="0 0 24 24" version="1.1" xmlns="http://www.w3.org/2000/svg" xmlns:xlink="http://www.w3.org/1999/xlink">
    <title>tag_chevron_line</title>
    <g id="Icon" stroke="none" stroke-width="1" fill="none" fill-rule="evenodd">
        <g id="Business" transform="translate(-768.000000, -480.000000)">
            <g id="tag_chevron_line" transform="translate(768.000000, 480.000000)">
                <path d="M24,0 L24,24 L0,24 L0,0 L24,0 Z M12.5935,23.2578 L12.5819,23.2595 L12.5109,23.295 L12.4919,23.2987 L12.4767,23.295 L12.4057,23.2595 C12.3958,23.2564 12.387,23.259 12.3821,23.2649 L12.378,23.2758 L12.3609,23.7031 L12.3659,23.7235 L12.3769,23.7357 L12.4805,23.8097 L12.4953,23.8136 L12.5071,23.8097 L12.6107,23.7357 L12.6233,23.7197 L12.6267,23.7031 L12.6096,23.2758 C12.6076,23.2657 12.601,23.2593 12.5935,23.2578 Z M12.8584,23.1453 L12.8445,23.1473 L12.6598,23.2397 L12.6499,23.2499 L12.6472,23.2611 L12.6651,23.6906 L12.6699,23.7034 L12.6784,23.7105 L12.8793,23.8032 C12.8914,23.8069 12.9022,23.803 12.9078,23.7952 L12.9118,23.7812 L12.8777,23.1665 C12.8753,23.1546 12.8674,23.147 12.8584,23.1453 Z M12.143,23.1473 C12.1332,23.1424 12.1222,23.1453 12.1156,23.1526 L12.1099,23.1665 L12.0758,23.7812 C12.0751,23.7927 12.0828,23.8019 12.0926,23.8046 L12.1083,23.8032 L12.3092,23.7105 L12.3186,23.7024 L12.3225,23.6906 L12.3404,23.2611 L12.3372,23.2485 L12.3278,23.2397 L12.143,23.1473 Z" id="MingCute" fill-rule="nonzero"></path>
                <path d="M2.46742,7.17082 C1.96875,6.17347 2.69399,5 3.80906,5 L16.764,5 C17.9003,5 18.9391,5.64201 19.4473,6.65836 L21.4473,10.6584 C21.8696,11.5029 21.8696,12.4971 21.4473,13.3416 L19.4473,17.3416 C18.9391,18.358 17.9003,19 16.764,19 L3.80906,19 C2.69399,19 1.96875,17.8265 2.46742,16.8292 L4.65841,12.4472 C4.79917,12.1657 4.79917,11.8343 4.65841,11.5528 L2.46742,7.17082 Z M4.61808,7 L6.44726,10.6584 C6.86955,11.5029 6.86955,12.4971 6.44726,13.3416 L4.61808,17 L16.764,17 C17.1428,17 17.489,16.786 17.6584,16.4472 L19.6584,12.4472 C19.7992,12.1657 19.7992,11.8343 19.6584,11.5528 L17.6584,7.55279 C17.489,7.214 17.1428,7 16.764,7 L4.61808,7 Z" id="形状" fill="#09244B"></path>
            </g>
        </g>
    </g>
</svg>