<svg xmlns="http://www.w3.org/2000/svg" width="24" height="24"><g fill="none"><path d="M24 0v24H0V0zM12.593 23.258l-.011.002-.071.035-.02.004-.014-.004-.071-.035c-.01-.004-.019-.001-.024.005l-.004.01-.017.428.005.02.01.013.104.074.015.004.012-.004.104-.074.012-.016.004-.017-.017-.427c-.002-.01-.009-.017-.017-.018m.265-.113-.013.002-.185.093-.01.01-.003.011.018.43.005.012.008.007.201.093c.012.004.023 0 .029-.008l.004-.014-.034-.614c-.003-.012-.01-.02-.02-.022m-.715.002a.023.023 0 0 0-.027.006l-.006.014-.034.614c0 .012.007.02.017.024l.015-.002.201-.093.01-.008.004-.011.017-.43-.003-.012-.01-.01z"/><path fill="#09244B" d="M12 2c.896 0 1.764.118 2.59.339l-2.126 2.125A3 3 0 0 0 12.04 5H12a7 7 0 1 0 7 7v-.04c.192-.12.372-.261.535-.425l2.126-2.125c.221.826.339 1.694.339 2.59 0 5.523-4.477 10-10 10S2 17.523 2 12 6.477 2 12 2m-.414 5.017c0 .851-.042 1.714.004 2.564l-.54.54a2 2 0 1 0 2.829 2.829l.54-.54c.85.046 1.712.004 2.564.004a5 5 0 1 1-5.397-5.397m6.918-4.89a1 1 0 0 1 .617.923v1.83h1.829a1 1 0 0 1 .707 1.707L18.12 10.12a1 1 0 0 1-.707.293H15l-1.828 1.829a1 1 0 0 1-1.415-1.415L13.586 9V6.586a1 1 0 0 1 .293-.708l3.535-3.535a1 1 0 0 1 1.09-.217"/></g></svg>