<?xml version="1.0" encoding="UTF-8"?>
<svg width="24px" height="24px" viewBox="0 0 24 24" version="1.1" xmlns="http://www.w3.org/2000/svg" xmlns:xlink="http://www.w3.org/1999/xlink">
    <title>target_fill</title>
    <g id="页面-1" stroke="none" stroke-width="1" fill="none" fill-rule="evenodd">
        <g id="Business" transform="translate(-576.000000, -240.000000)" fill-rule="nonzero">
            <g id="target_fill" transform="translate(576.000000, 240.000000)">
                <rect id="矩形" x="0" y="0" width="24" height="24"></rect>
                <path d="M12,2 C12.8958,2 13.764,2.11778 14.5901,2.33869 L12.4643,4.46447 C12.3013,4.62754 12.1589,4.80745 12.039,5.00011 L12,5 C8.13401,5 5,8.13401 5,12 C5,15.866 8.13401,19 12,19 C15.866,19 19,15.866 19,12 L18.9999,11.9608 C19.1925,11.8409 19.3724,11.6986 19.5354,11.5355 L21.6613,9.40969 C21.8822,10.2358 22,11.1042 22,12 C22,17.5228 17.5228,22 12,22 C6.47715,22 2,17.5228 2,12 C2,6.47715 6.47715,2 12,2 Z M11.5857,7.01692 C11.5857,7.86845 11.5436,8.7307 11.5902,9.58107 L11.0501,10.1212 C10.269,10.9023 10.269,12.1686 11.0501,12.9497 C11.8311,13.7307 13.0974,13.7307 13.8785,12.9497 L14.4185,12.4096 C15.269,12.4564 16.1314,12.4142 16.9831,12.4142 C16.7725,14.9819 14.6219,17 12,17 C9.23858,17 7,14.7614 7,12 C7,9.3781 9.01808,7.22755 11.5857,7.01692 Z M18.5039,2.1262 C18.8776,2.28098 19.1212,2.64562 19.1212,3.05008 L19.1212,4.8785 L20.9496,4.8785 C21.3541,4.8785 21.7187,5.12215 21.8735,5.49582 C22.0283,5.8695 21.9427,6.29961 21.6567,6.58561 L18.1212,10.1211 C17.9337,10.3087 17.6793,10.414 17.4141,10.414 L14.9999,10.414 L13.1715,12.2425 C12.7809,12.633 12.1478,12.633 11.7572,12.2425 C11.3667,11.8519 11.3667,11.2188 11.7572,10.8282 L13.5857,8.99983 L13.5857,6.58561 C13.5857,6.32039 13.691,6.06604 13.8786,5.8785 L17.4141,2.34297 C17.7001,2.05697 18.1302,1.97142 18.5039,2.1262 Z" id="形状" fill="#09244B"></path>
            </g>
        </g>
    </g>
</svg>