<?xml version="1.0" encoding="UTF-8"?>
<svg width="24px" height="24px" viewBox="0 0 24 24" version="1.1" xmlns="http://www.w3.org/2000/svg" xmlns:xlink="http://www.w3.org/1999/xlink">
    <title>target_line</title>
    <g id="页面-1" stroke="none" stroke-width="1" fill="none" fill-rule="evenodd">
        <g id="Business" transform="translate(-576.000000, -192.000000)" fill-rule="nonzero">
            <g id="target_line" transform="translate(576.000000, 192.000000)">
                <rect id="矩形" x="0" y="0" width="24" height="24"></rect>
                <path d="M12,2 C12.3748,2 12.7451,2.02066 13.1099,2.06098 C13.6588,2.12167 14.0546,2.61586 13.9939,3.1648 C13.9333,3.71374 13.4391,4.10956 12.8901,4.04887 C12.5982,4.0166 12.3012,4 12,4 C7.58172,4 4,7.58172 4,12 C4,16.4183 7.58172,20 12,20 C16.4183,20 20,16.4183 20,12 C20,11.6988 19.9834,11.4018 19.9511,11.1099 C19.8904,10.5609 20.2863,10.0667 20.8352,10.0061 C21.3841,9.94537 21.8783,10.3412 21.939,10.8901 C21.9793,11.2549 22,11.6252 22,12 C22,17.5228 17.5228,22 12,22 C6.47715,22 2,17.5228 2,12 C2,6.47715 6.47715,2 12,2 Z M11.9684,7.87672 C12.1061,8.41157 11.7841,8.95675 11.2493,9.09441 C9.95512,9.4275 9,10.6035 9,12 C9,13.6568 10.3431,15 12,15 C13.3965,15 14.5725,14.0448 14.9055,12.7507 C15.0432,12.2158 15.5884,11.8939 16.1232,12.0315 C16.6581,12.1692 16.9801,12.7144 16.8424,13.2492 C16.2874,15.4055 14.3312,17 12,17 C9.23858,17 7,14.7614 7,12 C7,9.66879 8.59442,7.71254 10.7507,7.15754 C11.2856,7.01988 11.8308,7.34187 11.9684,7.87672 Z M18.504,2.12625 C18.8777,2.28104 19.1214,2.64567 19.1214,3.05013 L19.1214,4.87856 L20.9498,4.87856 C21.3542,4.87856 21.7189,5.1222 21.8737,5.49588 C22.0284,5.86955 21.9429,6.29967 21.6569,6.58567 L18.1214,10.1212 C17.9338,10.3087 17.6795,10.4141 17.4142,10.4141 L15,10.4141 L13.1716,12.2425 C12.7811,12.633 12.1479,12.633 11.7574,12.2425 C11.3669,11.852 11.3669,11.2188 11.7574,10.8283 L13.5858,8.99989 L13.5858,6.58567 C13.5858,6.32045 13.6912,6.0661 13.8787,5.87856 L17.4142,2.34303 C17.7002,2.05703 18.1304,1.97147 18.504,2.12625 Z M17.1214,5.46435 L15.5858,6.99988 L15.5858,8.41409 L17,8.41409 L18.5356,6.87856 L18.1214,6.87856 C17.5691,6.87856 17.1214,6.43085 17.1214,5.87856 L17.1214,5.46435 Z" id="形状" fill="#09244B"></path>
            </g>
        </g>
    </g>
</svg>