<?xml version="1.0" encoding="UTF-8"?>
<svg width="24px" height="24px" viewBox="0 0 24 24" version="1.1" xmlns="http://www.w3.org/2000/svg" xmlns:xlink="http://www.w3.org/1999/xlink">
    <title>target_fill</title>
    <g id="页面-1" stroke="none" stroke-width="1" fill="none" fill-rule="evenodd">
        <g id="Business" transform="translate(-576.000000, -240.000000)" fill-rule="nonzero">
            <g id="target_fill" transform="translate(576.000000, 240.000000)">
                <rect id="矩形" x="0" y="0" width="24" height="24"></rect>
                <path d="M12,2 C13.2897,2 14.5223,2.24414 15.6543,2.68872 L13.2345,5.1085 C12.8337,5.0372 12.4212,5 12,5 C8.13401,5 5,8.13401 5,12 C5,15.866 8.13401,19 12,19 C15.866,19 19,15.866 19,12 C19,11.5787 18.9628,11.1661 18.8914,10.7652 L21.3112,8.34549 C21.7558,9.4775 22,10.7102 22,12 C22,17.5228 17.5228,22 12,22 C6.47715,22 2,17.5228 2,12 C2,6.47715 6.47715,2 12,2 Z M12,7 C12.1982,7 12.3936,7.01153 12.5858,7.03395 L12.5858,8.58564 L11.0502,10.1212 C10.2692,10.9022 10.2692,12.1685 11.0502,12.9496 C11.8313,13.7306 13.0976,13.7306 13.8787,12.9496 L15.4142,11.4141 L16.966,11.4141 C16.9885,11.6063 17,11.8018 17,12 C17,14.7614 14.7614,17 12,17 C9.23858,17 7,14.7614 7,12 C7,9.23858 9.23858,7 12,7 Z M18.504,2.1262 C18.8776,2.28098 19.1213,2.64562 19.1213,3.05008 L19.1213,4.8785 L20.9497,4.8785 C21.3542,4.8785 21.7188,5.12215 21.8736,5.49582 C22.0284,5.8695 21.9428,6.29961 21.6568,6.58561 L18.1213,10.1211 C17.9338,10.3087 17.6794,10.414 17.4142,10.414 L15,10.414 L13.1716,12.2425 C12.781,12.633 12.1479,12.633 11.7573,12.2425 C11.3668,11.8519 11.3668,11.2188 11.7573,10.8282 L13.5858,8.99983 L13.5858,6.58561 C13.5858,6.32039 13.6911,6.06604 13.8787,5.8785 L17.4142,2.34297 C17.7002,2.05697 18.1303,1.97142 18.504,2.1262 Z" id="形状" fill="#09244B"></path>
            </g>
        </g>
    </g>
</svg>