<?xml version="1.0" encoding="UTF-8"?>
<svg width="24px" height="24px" viewBox="0 0 24 24" version="1.1" xmlns="http://www.w3.org/2000/svg" xmlns:xlink="http://www.w3.org/1999/xlink">
    <title>VIP_1_fill</title>
    <g id="页面-1" stroke="none" stroke-width="1" fill="none" fill-rule="evenodd">
        <g id="Business" transform="translate(-144.000000, -240.000000)">
            <g id="VIP_1_fill" transform="translate(144.000000, 240.000000)">
                <rect id="矩形" fill-rule="nonzero" x="0" y="0" width="24" height="24"></rect>
                <path d="M17.4196,3 C18.0820923,3 18.6977207,3.32768095 19.068595,3.86821775 L19.1561,4.00772 L22.4892,9.8407 C22.9087313,10.5748562 22.8189363,11.4870789 22.2805422,12.1236875 L22.1669,12.2472 L12.8838,21.5303 C12.42824,21.9859533 11.7083849,22.0163302 11.2175042,21.6214307 L11.116,21.5303 L1.8329,12.2472 C1.23501875,11.6492625 1.08163555,10.7456414 1.43350204,9.98976995 L1.51063,9.8407 L4.84376,4.00772 C5.17245846,3.43250462 5.76239337,3.06057633 6.41571385,3.00676024 L6.58025,3 L17.4196,3 Z M7.29283,9.29289 C6.90231,9.68342 6.90231,10.3166 7.29283,10.7071 L11.1161,14.5303 C11.6042,15.0185 12.3957,15.0185 12.8838,14.5303 L16.707,10.7071 C17.0976,10.3166 17.0976,9.68342 16.707,9.29289 C16.3165,8.90237 15.6834,8.90237 15.2928,9.29289 L11.9999,12.5858 L8.70705,9.29289 C8.31652,8.90237 7.68336,8.90237 7.29283,9.29289 Z" id="形状" fill="#09244B"></path>
            </g>
        </g>
    </g>
</svg>