<?xml version="1.0" encoding="UTF-8"?>
<svg width="24px" height="24px" viewBox="0 0 24 24" version="1.1" xmlns="http://www.w3.org/2000/svg" xmlns:xlink="http://www.w3.org/1999/xlink">
    <title>wallet_2_fill</title>
    <g id="页面-1" stroke="none" stroke-width="1" fill="none" fill-rule="evenodd">
        <g id="Business" transform="translate(0.000000, -240.000000)">
            <g id="wallet_2_fill" transform="translate(0.000000, 240.000000)">
                <rect id="矩形" fill-rule="nonzero" x="0" y="0" width="24" height="24"></rect>
                <path d="M15.6898,6.86101 C15.9324,6.69099 16.1589,6.49793 16.3534,6.28049 C16.7058,5.88646 17,5.35566 17,4.71429 C17,4.04809 16.6829,3.52606 16.2769,3.16069 C15.8909,2.81331 15.405,2.58422 14.9414,2.4276 C14.0099,2.11293 12.8922,2 12,2 C11.1078,2 9.99008,2.11293 9.05863,2.4276 C8.59502,2.58422 8.10909,2.81331 7.72307,3.16069 C7.31708,3.52606 7,4.04809 7,4.71429 C7,5.35566 7.29421,5.88646 7.64664,6.28049 C7.84111,6.49793 8.0676,6.69099 8.31022,6.86101 C5.32492,8.28367 3,11.3352 3,15 C3,17.5559 4.01982,19.3861 5.76623,20.5251 C7.44064,21.6171 9.6697,22 12,22 C14.3303,22 16.5594,21.6171 18.2338,20.5251 C19.9802,19.3861 21,17.5559 21,15 C21,11.3352 18.6751,8.28367 15.6898,6.86101 Z M9.06094,4.64734 C9.02032,4.68389 9.00465,4.70761 9.00002,4.71559 C9.00045,4.72633 9.00796,4.80249 9.13737,4.94719 C9.27759,5.10396 9.51178,5.28203 9.83863,5.45134 C10.4985,5.79318 11.3417,6 12,6 C12.6583,6 13.5015,5.79318 14.1614,5.45134 C14.4882,5.28203 14.7224,5.10396 14.8626,4.94719 C14.992,4.80249 14.9995,4.72633 15,4.71559 C14.9954,4.70761 14.9797,4.68389 14.9391,4.64734 C14.834,4.55276 14.6306,4.43364 14.3013,4.3224 C13.6469,4.10135 12.7647,4 12,4 C11.2353,4 10.3531,4.10135 9.69873,4.3224 C9.36944,4.43364 9.16603,4.55276 9.06094,4.64734 Z M11.3944,11.0528 C11.1474,10.5588 10.5468,10.3586 10.0528,10.6055 C9.55881,10.8525 9.35858,11.4532 9.60557,11.9472 L10.132,13 L10,13 C9.44772,13 9,13.4477 9,14 C9,14.5523 9.44772,15 10,15 L11,15 L11,15.5 L10,15.5 C9.44772,15.5 9,15.9477 9,16.5 C9,17.0523 9.44772,17.5 10,17.5 L11,17.5 L11,18 C11,18.5523 11.4477,19 12,19 C12.5523,19 13,18.5523 13,18 L13,17.5 L14,17.5 C14.5523,17.5 15,17.0523 15,16.5 C15,15.9477 14.5523,15.5 14,15.5 L13,15.5 L13,15 L14,15 C14.5523,15 15,14.5523 15,14 C15,13.4477 14.5523,13 14,13 L13.868,13 L14.3944,11.9472 C14.6414,11.4532 14.4412,10.8525 13.9472,10.6055 C13.4532,10.3586 12.8526,10.5588 12.6056,11.0528 L12,12.2639 L11.3944,11.0528 Z" id="形状" fill="#09244B"></path>
            </g>
        </g>
    </g>
</svg>