<?xml version="1.0" encoding="UTF-8"?>
<svg width="24px" height="24px" viewBox="0 0 24 24" version="1.1" xmlns="http://www.w3.org/2000/svg" xmlns:xlink="http://www.w3.org/1999/xlink">
    <title>wallet_2_line</title>
    <g id="页面-1" stroke="none" stroke-width="1" fill="none" fill-rule="evenodd">
        <g id="Business" transform="translate(0.000000, -192.000000)" fill-rule="nonzero">
            <g id="wallet_2_line" transform="translate(0.000000, 192.000000)">
                <path d="M24,0 L24,24 L0,24 L0,0 L24,0 Z M12.5934901,23.257841 L12.5819402,23.2595131 L12.5108777,23.2950439 L12.4918791,23.2987469 L12.4918791,23.2987469 L12.4767152,23.2950439 L12.4056548,23.2595131 C12.3958229,23.2563662 12.3870493,23.2590235 12.3821421,23.2649074 L12.3780323,23.275831 L12.360941,23.7031097 L12.3658947,23.7234994 L12.3769048,23.7357139 L12.4804777,23.8096931 L12.4953491,23.8136134 L12.4953491,23.8136134 L12.5071152,23.8096931 L12.6106902,23.7357139 L12.6232938,23.7196733 L12.6232938,23.7196733 L12.6266527,23.7031097 L12.609561,23.275831 C12.6075724,23.2657013 12.6010112,23.2592993 12.5934901,23.257841 L12.5934901,23.257841 Z M12.8583906,23.1452862 L12.8445485,23.1473072 L12.6598443,23.2396597 L12.6498822,23.2499052 L12.6498822,23.2499052 L12.6471943,23.2611114 L12.6650943,23.6906389 L12.6699349,23.7034178 L12.6699349,23.7034178 L12.678386,23.7104931 L12.8793402,23.8032389 C12.8914285,23.8068999 12.9022333,23.8029875 12.9078286,23.7952264 L12.9118235,23.7811639 L12.8776777,23.1665331 C12.8752882,23.1545897 12.8674102,23.1470016 12.8583906,23.1452862 L12.8583906,23.1452862 Z M12.1430473,23.1473072 C12.1332178,23.1423925 12.1221763,23.1452606 12.1156365,23.1525954 L12.1099173,23.1665331 L12.0757714,23.7811639 C12.0751323,23.7926639 12.0828099,23.8018602 12.0926481,23.8045676 L12.108256,23.8032389 L12.3092106,23.7104931 L12.3186497,23.7024347 L12.3186497,23.7024347 L12.3225043,23.6906389 L12.340401,23.2611114 L12.337245,23.2485176 L12.337245,23.2485176 L12.3277531,23.2396597 L12.1430473,23.1473072 Z" id="MingCute" fill-rule="nonzero"></path>
                <path d="M12,2 C12.8922,2 14.0099,2.11293 14.9414,2.4276 C15.405,2.58422 15.8909,2.81331 16.2769,3.16069 C16.6829,3.52606 17,4.04809 17,4.71429 C17,5.35566 16.7058,5.88646 16.3534,6.28049 C16.1589,6.49793 15.9324,6.69099 15.6898,6.86101 C18.6751,8.28367 21,11.3352 21,15 C21,17.5559 19.9802,19.3861 18.2338,20.5251 C16.5594,21.6171 14.3303,22 12,22 C9.6697,22 7.44064,21.6171 5.76623,20.5251 C4.01982,19.3861 3,17.5559 3,15 C3,11.3352 5.32492,8.28367 8.31022,6.86101 C8.0676,6.69099 7.84111,6.49793 7.64664,6.28049 C7.29421,5.88646 7,5.35566 7,4.71429 C7,4.04809 7.31708,3.52606 7.72307,3.16069 C8.10909,2.81331 8.59502,2.58422 9.05863,2.4276 C9.99008,2.11293 11.1078,2 12,2 Z M12,8 C8.51175,8 5,11.092 5,15 C5,16.9441 5.73018,18.1139 6.85877,18.8499 C8.05936,19.6329 9.8303,20 12,20 C14.1697,20 15.9406,19.6329 17.1412,18.8499 C18.2698,18.1139 19,16.9441 19,15 C19,11.092 15.4883,8 12,8 Z M13.9472,10.6056 C14.4412,10.8526 14.6414,11.4532 14.3944,11.9472 L13.868,13 L14,13 C14.5523,13 15,13.4477 15,14 C15,14.5523 14.5523,15 14,15 L13,15 L13,15.5 L14,15.5 C14.5523,15.5 15,15.9477 15,16.5 C15,17.0523 14.5523,17.5 14,17.5 L13,17.5 L13,18 C13,18.5523 12.5523,19 12,19 C11.4477,19 11,18.5523 11,18 L11,17.5 L10,17.5 C9.44772,17.5 9,17.0523 9,16.5 C9,15.9477 9.44772,15.5 10,15.5 L11,15.5 L11,15 L10,15 C9.44772,15 9,14.5523 9,14 C9,13.4477 9.44772,13 10,13 L10.132,13 L9.60557,11.9472 C9.35858,11.4532 9.55881,10.8526 10.0528,10.6056 C10.5468,10.3586 11.1474,10.5588 11.3944,11.0528 L12,12.2639 L12.6056,11.0528 C12.8526,10.5588 13.4532,10.3586 13.9472,10.6056 Z M12,4 C11.2353,4 10.3531,4.10135 9.69873,4.3224 C9.36944,4.43364 9.16603,4.55276 9.06094,4.64734 L9.00884519,4.70247111 C9.00433333,4.70852111 9.00156333,4.71293 9.00002,4.71559 L9.00706259,4.74825222 C9.01900111,4.78471889 9.05109667,4.85072333 9.13737,4.94719 C9.27759,5.10396 9.51178,5.28203 9.83863,5.45134 C10.4985,5.79318 11.3417,6 12,6 C12.6583,6 13.5015,5.79318 14.1614,5.45134 C14.4882,5.28203 14.7224,5.10396 14.8626,4.94719 C14.9488667,4.85072333 14.9809556,4.78471889 14.9929111,4.74825222 L15,4.71559 L15,4.71559 L14.9719111,4.67950556 C14.9634,4.67028111 14.9526333,4.65952333 14.9391,4.64734 C14.834,4.55276 14.6306,4.43364 14.3013,4.3224 C13.6469,4.10135 12.7647,4 12,4 Z" id="形状" fill="#09244B"></path>
            </g>
        </g>
    </g>
</svg>