<?xml version="1.0" encoding="UTF-8"?>
<svg width="24px" height="24px" viewBox="0 0 24 24" version="1.1" xmlns="http://www.w3.org/2000/svg" xmlns:xlink="http://www.w3.org/1999/xlink">
    <title>wallet_4_fill</title>
    <g id="页面-1" stroke="none" stroke-width="1" fill="none" fill-rule="evenodd">
        <g id="Business" transform="translate(-624.000000, -240.000000)">
            <g id="wallet_4_fill" transform="translate(624.000000, 240.000000)">
                <rect id="矩形" fill-rule="nonzero" x="0" y="0" width="24" height="24"></rect>
                <path d="M19,4.98858 L19,5.99999 C20.1046,5.99999 21,6.89542 21,7.99999 L21,18 C21,19.1046 20.1046,20 19,20 L5,20 C3.89543,20 3,19.1046 3,18 L3,7.99999 C3,6.95543 3.83483,6.00716 4.8132,5.72763 L15.8132,2.58477 C17.4102,2.12847 19,3.32763 19,4.98858 Z M15.5,11.5 C14.6716,11.5 14,12.1716 14,13 C14,13.8284 14.6716,14.5 15.5,14.5 C16.3284,14.5 17,13.8284 17,13 C17,12.1716 16.3284,11.5 15.5,11.5 Z M17,4.98858 C17,4.6840725 16.7327917,4.45717306 16.4422376,4.49176455 L16.3626,4.50782 L11.1401,5.99999 L17,5.99999 L17,4.98858 Z" id="形状" fill="#09244B"></path>
            </g>
        </g>
    </g>
</svg>