<svg xmlns="http://www.w3.org/2000/svg" width="24" height="24"><g fill="none" fill-rule="evenodd"><path d="M24 0v24H0V0zM12.593 23.258l-.011.002-.071.035-.02.004-.014-.004-.071-.035c-.01-.004-.019-.001-.024.005l-.004.01-.017.428.005.02.01.013.104.074.015.004.012-.004.104-.074.012-.016.004-.017-.017-.427c-.002-.01-.009-.017-.017-.018m.265-.113-.013.002-.185.093-.01.01-.003.011.018.43.005.012.008.007.201.093c.012.004.023 0 .029-.008l.004-.014-.034-.614c-.003-.012-.01-.02-.02-.022m-.715.002a.023.023 0 0 0-.027.006l-.006.014-.034.614c0 .012.007.02.017.024l.015-.002.201-.093.01-.008.004-.011.017-.43-.003-.012-.01-.01z"/><path fill="#09244B" d="M15.69 6.861c.242-.17.469-.363.663-.58.353-.395.647-.925.647-1.567 0-.666-.317-1.188-.723-1.553-.386-.348-.872-.577-1.336-.733C14.01 2.113 12.892 2 12 2c-.892 0-2.01.113-2.941.428-.464.156-.95.385-1.336.733C7.317 3.526 7 4.048 7 4.714c0 .642.294 1.172.647 1.566a3.8 3.8 0 0 0 .663.581C5.325 8.284 3 11.335 3 15c0 2.556 1.02 4.386 2.766 5.525C7.441 21.617 9.67 22 12 22s4.56-.383 6.234-1.475C19.98 19.386 21 17.555 21 15c0-3.665-2.325-6.716-5.31-8.139M9.06 4.647a.31.31 0 0 0-.06.069c0 .01.008.086.137.231.14.157.375.335.702.504.66.342 1.503.549 2.161.549.658 0 1.502-.207 2.161-.549.327-.169.561-.347.702-.504.129-.145.136-.22.137-.231a.309.309 0 0 0-.06-.069c-.106-.094-.31-.213-.639-.325C13.647 4.102 12.765 4 12 4c-.765 0-1.647.101-2.301.322-.33.112-.533.23-.638.325m2.334 6.406a1 1 0 1 0-1.788.894L10.132 13H10a1 1 0 1 0 0 2h1v.5h-1a1 1 0 1 0 0 2h1v.5a1 1 0 1 0 2 0v-.5h1a1 1 0 1 0 0-2h-1V15h1a1 1 0 1 0 0-2h-.132l.526-1.053a1 1 0 1 0-1.788-.894L12 12.263z"/></g></svg>