<?xml version="1.0" encoding="UTF-8"?>
<svg width="24px" height="24px" viewBox="0 0 24 24" version="1.1" xmlns="http://www.w3.org/2000/svg" xmlns:xlink="http://www.w3.org/1999/xlink">
    <title>black_board_2_fill</title>
    <g id="Icon" stroke="none" stroke-width="1" fill="none" fill-rule="evenodd">
        <g id="Education" transform="translate(-96.000000, -144.000000)">
            <g id="black_board_2_fill" transform="translate(96.000000, 144.000000)">
                <path d="M24,0 L24,24 L0,24 L0,0 L24,0 Z M12.5935,23.2578 L12.5819,23.2595 L12.5109,23.295 L12.4919,23.2987 L12.4767,23.295 L12.4057,23.2595 C12.3958,23.2564 12.387,23.259 12.3821,23.2649 L12.378,23.2758 L12.3609,23.7031 L12.3659,23.7235 L12.3769,23.7357 L12.4805,23.8097 L12.4953,23.8136 L12.5071,23.8097 L12.6107,23.7357 L12.6233,23.7197 L12.6267,23.7031 L12.6096,23.2758 C12.6076,23.2657 12.601,23.2593 12.5935,23.2578 Z M12.8584,23.1453 L12.8445,23.1473 L12.6598,23.2397 L12.6499,23.2499 L12.6472,23.2611 L12.6651,23.6906 L12.6699,23.7034 L12.6784,23.7105 L12.8793,23.8032 C12.8914,23.8069 12.9022,23.803 12.9078,23.7952 L12.9118,23.7812 L12.8777,23.1665 C12.8753,23.1546 12.8674,23.147 12.8584,23.1453 Z M12.143,23.1473 C12.1332,23.1424 12.1222,23.1453 12.1156,23.1526 L12.1099,23.1665 L12.0758,23.7812 C12.0751,23.7927 12.0828,23.8019 12.0926,23.8046 L12.1083,23.8032 L12.3092,23.7105 L12.3186,23.7024 L12.3225,23.6906 L12.3404,23.2611 L12.3372,23.2485 L12.3278,23.2397 L12.143,23.1473 Z" id="MingCute" fill-rule="nonzero"></path>
                <path d="M10.5858,3.99985 C11.3256947,3.25990789 12.5012393,3.22096357 13.286992,3.88301704 L13.4142,3.99985 L16.4142,6.99985 L19,6.99985 C20.0543909,6.99985 20.9181678,7.81572733 20.9945144,8.85058759 L21,8.99985 L21,18.9998 C21,20.0541909 20.18415,20.9179678 19.1492661,20.9943144 L19,20.9998 L5,20.9998 C3.94563773,20.9998 3.08183483,20.18395 3.00548573,19.1490661 L3,18.9998 L3,8.99985 C3,7.94548773 3.81587733,7.08168483 4.85073759,7.00533573 L5,6.99985 L7.58579,6.99985 L10.5858,3.99985 Z M10,14.9999 L8,14.9999 C7.44772,14.9999 7,15.4476 7,15.9999 C7,16.5522 7.44772,16.9999 8,16.9999 L10,16.9999 C10.5523,16.9999 11,16.5522 11,15.9999 C11,15.4476 10.5523,14.9999 10,14.9999 Z M14,10.9999 L8,10.9999 C7.44772,10.9999 7,11.4476 7,11.9999 C7,12.51275 7.38604429,12.9354092 7.88337975,12.9931725 L8,12.9999 L14,12.9999 C14.5523,12.9999 15,12.5522 15,11.9999 C15,11.48705 14.613973,11.0643908 14.1166239,11.0066275 L14,10.9999 Z M12,5.41406 L10.4142,6.99985 L13.5858,6.99985 L12,5.41406 Z" id="形状" fill="#09244B"></path>
            </g>
        </g>
    </g>
</svg>