<svg xmlns="http://www.w3.org/2000/svg" width="24" height="24"><g fill="none"><path d="M24 0v24H0V0zM12.593 23.258l-.011.002-.071.035-.02.004-.014-.004-.071-.035c-.01-.004-.019-.001-.024.005l-.004.01-.017.428.005.02.01.013.104.074.015.004.012-.004.104-.074.012-.016.004-.017-.017-.427c-.002-.01-.009-.017-.017-.018m.265-.113-.013.002-.185.093-.01.01-.003.011.018.43.005.012.008.007.201.093c.012.004.023 0 .029-.008l.004-.014-.034-.614c-.003-.012-.01-.02-.02-.022m-.715.002a.023.023 0 0 0-.027.006l-.006.014-.034.614c0 .012.007.02.017.024l.015-.002.201-.093.01-.008.004-.011.017-.43-.003-.012-.01-.01z"/><path fill="#09244B" d="M10.268 20.158c.363.167.655.334.853.457.285.177.524.385.88.385.348 0 .595-.21.878-.385.198-.123.49-.29.853-.457.733-.339 1.711-.658 2.768-.658 1.279 0 2.438.468 3.18.862a1.592 1.592 0 0 0 1.514-.02c.427-.236.806-.71.806-1.342V6.5c0-.621-.295-1.263-.898-1.629-.774-.47-2.516-1.371-4.602-1.371-1.443 0-2.715.43-3.607.842-.354.164-.656.328-.893.468-.237-.14-.539-.304-.893-.468C10.215 3.931 8.943 3.5 7.5 3.5c-2.086 0-3.828.9-4.602 1.371A1.893 1.893 0 0 0 2 6.5V19c0 .633.379 1.106.806 1.342.423.233.996.295 1.515.02.741-.394 1.9-.862 3.179-.862 1.057 0 2.035.32 2.768.658"/></g></svg>