<?xml version="1.0" encoding="UTF-8"?>
<svg width="24px" height="24px" viewBox="0 0 24 24" version="1.1" xmlns="http://www.w3.org/2000/svg" xmlns:xlink="http://www.w3.org/1999/xlink">
    <title>bookmarks_line</title>
    <g id="Icon" stroke="none" stroke-width="1" fill="none" fill-rule="evenodd">
        <g id="Business" transform="translate(-480.000000, -480.000000)">
            <g id="bookmarks_line" transform="translate(480.000000, 480.000000)">
                <path d="M24,0 L24,24 L0,24 L0,0 L24,0 Z M12.5935,23.2578 L12.5819,23.2595 L12.5109,23.295 L12.4919,23.2987 L12.4767,23.295 L12.4057,23.2595 C12.3958,23.2564 12.387,23.259 12.3821,23.2649 L12.378,23.2758 L12.3609,23.7031 L12.3659,23.7235 L12.3769,23.7357 L12.4805,23.8097 L12.4953,23.8136 L12.5071,23.8097 L12.6107,23.7357 L12.6233,23.7197 L12.6267,23.7031 L12.6096,23.2758 C12.6076,23.2657 12.601,23.2593 12.5935,23.2578 Z M12.8584,23.1453 L12.8445,23.1473 L12.6598,23.2397 L12.6499,23.2499 L12.6472,23.2611 L12.6651,23.6906 L12.6699,23.7034 L12.6784,23.7105 L12.8793,23.8032 C12.8914,23.8069 12.9022,23.803 12.9078,23.7952 L12.9118,23.7812 L12.8777,23.1665 C12.8753,23.1546 12.8674,23.147 12.8584,23.1453 Z M12.143,23.1473 C12.1332,23.1424 12.1222,23.1453 12.1156,23.1526 L12.1099,23.1665 L12.0758,23.7812 C12.0751,23.7927 12.0828,23.8019 12.0926,23.8046 L12.1083,23.8032 L12.3092,23.7105 L12.3186,23.7024 L12.3225,23.6906 L12.3404,23.2611 L12.3372,23.2485 L12.3278,23.2397 L12.143,23.1473 Z" id="MingCute" fill-rule="nonzero"></path>
                <path d="M17,2 C18.597725,2 19.903664,3.24892392 19.9949075,4.82372764 L20,5 L20,18.0181 C20,19.2002179 18.7067689,19.9010469 17.7253785,19.3030326 L17.6177,19.2312 L17,18.782 L17,21.0181 C17,22.2002179 15.7067689,22.9010469 14.7253785,22.3030326 L14.6177,22.2312 L10.5,19.2365 L6.38226,22.2312 C5.42620929,22.9265464 4.09883349,22.2927696 4.00524039,21.1474243 L4,21.0181 L4,8 C4,6.34315 5.34315,5 7,5 C7,3.40232321 8.24892392,2.09633941 9.82372764,2.00509271 L10,2 L17,2 Z M14,7 L7,7 C6.48716857,7 6.06449347,7.38604429 6.0067278,7.88337975 L6,8 L6,20.0362 L9.61774,17.4051 C10.1032415,17.0520231 10.7477736,17.0248633 11.2577728,17.3236207 L11.3823,17.4051 L15,20.0362 L15,8 C15,7.48716857 14.613973,7.06449347 14.1166239,7.0067278 L14,7 Z M17,4 L10,4 C9.44772,4 9,4.44772 9,5 L14,5 C15.6569,5 17,6.34315 17,8 L17,16.309 L18,17.0362 L18,5 C18,4.44772 17.5523,4 17,4 Z" id="形状" fill="#09244B"></path>
            </g>
        </g>
    </g>
</svg>