<?xml version="1.0" encoding="UTF-8"?>
<svg width="24px" height="24px" viewBox="0 0 24 24" version="1.1" xmlns="http://www.w3.org/2000/svg" xmlns:xlink="http://www.w3.org/1999/xlink">
    <title>book_4_fill</title>
    <g id="页面-1" stroke="none" stroke-width="1" fill="none" fill-rule="evenodd">
        <g id="Education" transform="translate(-624.000000, -48.000000)">
            <g id="book_4_fill" transform="translate(624.000000, 48.000000)">
                <rect id="矩形" fill-rule="nonzero" x="0" y="0" width="24" height="24"></rect>
                <path d="M14.1121,3.74436 L21.5556,7.50517 C22.2205,7.84112 22.5196,8.59793 22.3192,9.28014 C21.9281,10.6114 21.9721,11.1694 22.2271,11.8013 C22.4843,12.439 22.3056,13.25 21.6396,13.6717 L11.3564,20.181 C10.9248,20.4542 10.376,20.4962 9.89935,20.263 L6.05902772,18.3681074 L6.05902772,18.3681074 L4.45466861,17.5631024 L4.45466861,17.5631024 L3.3147029,16.9807486 L3.3147029,16.9807486 L2.61935644,16.6161315 L2.61935644,16.6161315 L2.25891498,16.4203332 L2.25891498,16.4203332 L1.99784,16.2704 L1.99784,16.2704 C0.978593,15.6551 0.661234,14.4053 0.665723311,13.4489 C0.670479,12.4776 1.00406,11.2651 1.93052,10.5984 L2.23122413,10.3919735 L2.23122413,10.3919735 L3.08869037,9.83087121 L3.08869037,9.83087121 L5.13397057,8.52495179 L5.13397057,8.52495179 L12.6424,3.81015 L12.6424,3.81015 C13.0889,3.53153 13.6458,3.50879 14.1121,3.74436 Z M20.0332,10.6884 L11.3601,16.1786 L11.252425,16.2406125 L11.141,16.2931 C11.031,16.7007 10.9926,16.9942 10.9966,17.2663 C10.999075,17.42845 11.0164563,17.5940313 11.0522453,17.7827453 L11.0943,17.9799 L20.2418,12.1895 L20.1697231,11.9414463 C20.0838602,11.6116648 20.0387231,11.2844907 20.0315269,10.945287 L20.0332,10.6884 Z M2.79954,12.6779 C2.7221,12.8834 2.66729,13.1469 2.66573667,13.4585 C2.66258,14.1302 2.9033,14.4809 3.03144,14.5582 L3.33878481,14.7327827 L3.33878481,14.7327827 L3.96509578,15.0660297 L3.96509578,15.0660297 L5.73461671,15.96917 L5.73461671,15.96917 L9.01149,17.5987 L9.01149,17.5987 C9.00334,17.4983 8.99838,17.3976 8.99686,17.2961 C8.99134,16.92586 9.0315608,16.563108 9.11095344,16.1834216 L9.17774,15.8951 L2.79954,12.6779 Z M13.964,6.91416 C13.4747,6.6579 12.8704,6.84676 12.6141,7.33599 C12.3761071,7.790275 12.5219857,8.34381301 12.9357207,8.6257562 L13.0359,8.68583 L15.1359,9.78583 C15.6252,10.0421 16.2295,9.85323 16.4858,9.364 C16.7237,8.909715 16.577901,8.35617699 16.1641779,8.0742338 L16.064,8.01416 L13.964,6.91416 Z" id="形状" fill="#09244B"></path>
            </g>
        </g>
    </g>
</svg>