<?xml version="1.0" encoding="UTF-8"?>
<svg width="24px" height="24px" viewBox="0 0 24 24" version="1.1" xmlns="http://www.w3.org/2000/svg" xmlns:xlink="http://www.w3.org/1999/xlink">
    <title>book_3_line</title>
    <g id="页面-1" stroke="none" stroke-width="1" fill="none" fill-rule="evenodd">
        <g id="Education" transform="translate(-192.000000, 0.000000)">
            <g id="book_3_line" transform="translate(192.000000, 0.000000)">
                <rect id="矩形" fill-rule="nonzero" x="0" y="0" width="24" height="24"></rect>
                <path d="M3.25489,3.6673 C2.69334,3.01216 3.15882,2 4.02174,2 L16.5,2 C18.9853,2 21,4.01472 21,6.5 C21,8.98528 18.9853,11 16.5,11 L4.02174,11 C3.15876,11 2.69338,9.9878 3.25489,9.3327 L4.00946,8.45237 C4.97243,7.32891 4.97243,5.67109 4.00946,4.54763 L3.25489,3.6673 Z M6.06244,4 C6.95477,5.5436 6.95477,7.4564 6.06244,9 L16.5,9 C17.8807,9 19,7.88071 19,6.5 C19,5.11929 17.8807,4 16.5,4 L6.06244,4 Z M3,16.5 C3,14.0147 5.01472,12 7.5,12 L19.9783,12 C20.8412,12 21.3066,13.0122 20.7451,13.6673 L19.9905,14.5476 C19.0276,15.6711 19.0276,17.3289 19.9905,18.4524 L20.7451,19.3327 C21.3066,19.9878 20.8412,21 19.9783,21 L7.5,21 C5.01472,21 3,18.9853 3,16.5 Z M7.5,14 C6.11929,14 5,15.1193 5,16.5 C5,17.8807 6.11929,19 7.5,19 L17.9376,19 C17.0452,17.4564 17.0452,15.5436 17.9376,14 L7.5,14 Z" id="形状" fill="#09244B"></path>
            </g>
        </g>
    </g>
</svg>