<svg xmlns="http://www.w3.org/2000/svg" width="24" height="24"><g fill="none" fill-rule="evenodd"><path d="M24 0v24H0V0zM12.593 23.258l-.011.002-.071.035-.02.004-.014-.004-.071-.035c-.01-.004-.019-.001-.024.005l-.004.01-.017.428.005.02.01.013.104.074.015.004.012-.004.104-.074.012-.016.004-.017-.017-.427c-.002-.01-.009-.017-.017-.018m.265-.113-.013.002-.185.093-.01.01-.003.011.018.43.005.012.008.007.201.093c.012.004.023 0 .029-.008l.004-.014-.034-.614c-.003-.012-.01-.02-.02-.022m-.715.002a.023.023 0 0 0-.027.006l-.006.014-.034.614c0 .012.007.02.017.024l.015-.002.201-.093.01-.008.004-.011.017-.43-.003-.012-.01-.01z"/><path fill="#09244B" d="m14.112 3.744 7.444 3.761a1.51 1.51 0 0 1 .763 1.775c-.39 1.331-.347 1.89-.092 2.521.257.638.079 1.449-.587 1.87l-10.284 6.51c-.431.273-.98.315-1.457.082l-3.84-1.895-1.604-.805-1.14-.582-.696-.365-.36-.196-.261-.15C.978 15.655.66 14.405.666 13.45c.004-.971.338-2.184 1.265-2.85l.3-.207.858-.561 2.045-1.306 7.508-4.715a1.499 1.499 0 0 1 1.47-.066Zm5.921 6.944-8.673 5.49-.108.063-.111.052c-.11.408-.148.701-.144.973.002.162.02.328.055.517l.042.197 9.148-5.79-.072-.249a4.27 4.27 0 0 1-.138-.996zM2.8 12.678a2.256 2.256 0 0 0-.134.78c-.003.672.237 1.023.365 1.1l.308.175.626.333 1.77.903L9.01 17.6a4.584 4.584 0 0 1-.014-.303 5.01 5.01 0 0 1 .114-1.113l.067-.288zm11.164-5.764a1 1 0 0 0-1.028 1.712l.1.06 2.1 1.1a1 1 0 0 0 1.028-1.712l-.1-.06z"/></g></svg>