<?xml version="1.0" encoding="UTF-8"?>
<svg width="24px" height="24px" viewBox="0 0 24 24" version="1.1" xmlns="http://www.w3.org/2000/svg" xmlns:xlink="http://www.w3.org/1999/xlink">
    <title>book_4_line</title>
    <g id="页面-1" stroke="none" stroke-width="1" fill="none" fill-rule="evenodd">
        <g id="Education" transform="translate(-624.000000, 0.000000)" fill-rule="nonzero">
            <g id="book_4_line" transform="translate(624.000000, 0.000000)">
                <rect id="矩形" x="0" y="0" width="24" height="24"></rect>
                <path d="M12.6424,3.81015 C13.04425,3.559392 13.535524,3.5158968 13.969693,3.68143587 L14.1121,3.74436 L21.5556,7.50517 C22.2205,7.84112 22.5196,8.59793 22.3192,9.28014 C21.9281,10.6114 21.9721,11.1694 22.2271,11.8013 C22.4671533,12.3964867 22.3274893,13.1426369 21.7663179,13.582336 L21.6396,13.6717 L11.3564,20.181 C10.9248,20.4542 10.376,20.4962 9.89935,20.263 L6.05902772,18.3681074 L6.05902772,18.3681074 L4.45466861,17.5631024 L4.45466861,17.5631024 L3.3147029,16.9807486 L3.3147029,16.9807486 L2.61935644,16.6161315 L2.61935644,16.6161315 L2.25891498,16.4203332 L2.25891498,16.4203332 L1.99784,16.2704 L1.99784,16.2704 C0.978593,15.6551 0.661234,14.4053 0.665723311,13.4489 C0.670479,12.4776 1.00406,11.2651 1.93052,10.5984 L2.23122413,10.3919735 L2.23122413,10.3919735 L3.08869037,9.83087121 L3.08869037,9.83087121 L5.13397057,8.52495179 L5.13397057,8.52495179 L12.6424,3.81015 L12.6424,3.81015 Z M20.0332,10.6884 L11.36,16.1786 C11.2896,16.2232 11.2163,16.2614 11.141,16.2932 C11.0309,16.7007 10.9926,16.9943 10.9966,17.2664 C10.999,17.42855 11.0164188,17.5941313 11.0522313,17.7828031 L11.0943,17.9799 L20.2418,12.1895 C20.1088,11.7745 20.0405222,11.3692917 20.0315269,10.945287 L20.0332,10.6884 Z M2.79951,12.678 C2.72208,12.8835 2.66729,13.147 2.66573667,13.4585 C2.66258,14.1302 2.9033,14.4809 3.03144,14.5582 L3.33878323,14.7327827 L3.33878323,14.7327827 L3.96508813,15.0660297 L3.96508813,15.0660297 L5.73459057,15.96917 L5.73459057,15.96917 L9.01145,17.5987 L9.01145,17.5987 C9.0033,17.4983 8.99835,17.3977 8.99683,17.2963 C8.98993,16.8334 9.0545,16.3823 9.17772,15.8951 L2.79951,12.678 Z M19.4574,8.68585 L13.4616,5.65648 L6.70239368,9.89877965 L6.70239368,9.89877965 L4.50369,11.2975 L4.50369,11.2975 L10.5298,14.3371 L19.4574,8.68585 Z M12.6142,7.33611 C12.8521,6.881825 13.3902337,6.6865325 13.857577,6.86612745 L13.964,6.91428 L16.064,8.01429 C16.5532,8.27055 16.7421,8.87489 16.4858,9.36412 C16.2479,9.818405 15.7097663,10.0136889 15.242423,9.8341007 L15.136,9.78595 L13.036,8.68595 C12.5468,8.42968 12.3579,7.82534 12.6142,7.33611 Z" id="形状" fill="#09244B"></path>
            </g>
        </g>
    </g>
</svg>