<?xml version="1.0" encoding="UTF-8"?>
<svg width="24px" height="24px" viewBox="0 0 24 24" version="1.1" xmlns="http://www.w3.org/2000/svg" xmlns:xlink="http://www.w3.org/1999/xlink">
    <title>book_4_line</title>
    <g id="页面-1" stroke="none" stroke-width="1" fill="none" fill-rule="evenodd">
        <g id="Education" transform="translate(-624.000000, 0.000000)" fill-rule="nonzero">
            <g id="book_4_line" transform="translate(624.000000, 0.000000)">
                 <path d="M24,0 L24,24 L0,24 L0,0 L24,0 Z M12.5934901,23.257841 L12.5819402,23.2595131 L12.5108777,23.2950439 L12.4918791,23.2987469 L12.4918791,23.2987469 L12.4767152,23.2950439 L12.4056548,23.2595131 C12.3958229,23.2563662 12.3870493,23.2590235 12.3821421,23.2649074 L12.3780323,23.275831 L12.360941,23.7031097 L12.3658947,23.7234994 L12.3769048,23.7357139 L12.4804777,23.8096931 L12.4953491,23.8136134 L12.4953491,23.8136134 L12.5071152,23.8096931 L12.6106902,23.7357139 L12.6232938,23.7196733 L12.6232938,23.7196733 L12.6266527,23.7031097 L12.609561,23.275831 C12.6075724,23.2657013 12.6010112,23.2592993 12.5934901,23.257841 L12.5934901,23.257841 Z M12.8583906,23.1452862 L12.8445485,23.1473072 L12.6598443,23.2396597 L12.6498822,23.2499052 L12.6498822,23.2499052 L12.6471943,23.2611114 L12.6650943,23.6906389 L12.6699349,23.7034178 L12.6699349,23.7034178 L12.678386,23.7104931 L12.8793402,23.8032389 C12.8914285,23.8068999 12.9022333,23.8029875 12.9078286,23.7952264 L12.9118235,23.7811639 L12.8776777,23.1665331 C12.8752882,23.1545897 12.8674102,23.1470016 12.8583906,23.1452862 L12.8583906,23.1452862 Z M12.1430473,23.1473072 C12.1332178,23.1423925 12.1221763,23.1452606 12.1156365,23.1525954 L12.1099173,23.1665331 L12.0757714,23.7811639 C12.0751323,23.7926639 12.0828099,23.8018602 12.0926481,23.8045676 L12.108256,23.8032389 L12.3092106,23.7104931 L12.3186497,23.7024347 L12.3186497,23.7024347 L12.3225043,23.6906389 L12.340401,23.2611114 L12.337245,23.2485176 L12.337245,23.2485176 L12.3277531,23.2396597 L12.1430473,23.1473072 Z" id="MingCute" fill-rule="nonzero"></path>
                <path d="M12.6424,3.81015 C13.04425,3.559392 13.535524,3.5158968 13.969693,3.68143587 L14.1121,3.74436 L21.5556,7.50517 C22.2205,7.84112 22.5196,8.59793 22.3192,9.28014 C21.9281,10.6114 21.9721,11.1694 22.2271,11.8013 C22.4671533,12.3964867 22.3274893,13.1426369 21.7663179,13.582336 L21.6396,13.6717 L11.3564,20.181 C10.9248,20.4542 10.376,20.4962 9.89935,20.263 L6.05902772,18.3681074 L6.05902772,18.3681074 L4.45466861,17.5631024 L4.45466861,17.5631024 L3.3147029,16.9807486 L3.3147029,16.9807486 L2.61935644,16.6161315 L2.61935644,16.6161315 L2.25891498,16.4203332 L2.25891498,16.4203332 L1.99784,16.2704 L1.99784,16.2704 C0.978593,15.6551 0.661234,14.4053 0.665723311,13.4489 C0.670479,12.4776 1.00406,11.2651 1.93052,10.5984 L2.23122413,10.3919735 L2.23122413,10.3919735 L3.08869037,9.83087121 L3.08869037,9.83087121 L5.13397057,8.52495179 L5.13397057,8.52495179 L12.6424,3.81015 L12.6424,3.81015 Z M20.0332,10.6884 L11.36,16.1786 C11.2896,16.2232 11.2163,16.2614 11.141,16.2932 C11.0309,16.7007 10.9926,16.9943 10.9966,17.2664 C10.999,17.42855 11.0164188,17.5941313 11.0522313,17.7828031 L11.0943,17.9799 L20.2418,12.1895 C20.1088,11.7745 20.0405222,11.3692917 20.0315269,10.945287 L20.0332,10.6884 Z M2.79951,12.678 C2.72208,12.8835 2.66729,13.147 2.66573667,13.4585 C2.66258,14.1302 2.9033,14.4809 3.03144,14.5582 L3.33878323,14.7327827 L3.33878323,14.7327827 L3.96508813,15.0660297 L3.96508813,15.0660297 L5.73459057,15.96917 L5.73459057,15.96917 L9.01145,17.5987 L9.01145,17.5987 C9.0033,17.4983 8.99835,17.3977 8.99683,17.2963 C8.98993,16.8334 9.0545,16.3823 9.17772,15.8951 L2.79951,12.678 Z M19.4574,8.68585 L13.4616,5.65648 L6.70239368,9.89877965 L6.70239368,9.89877965 L4.50369,11.2975 L4.50369,11.2975 L10.5298,14.3371 L19.4574,8.68585 Z M12.6142,7.33611 C12.8521,6.881825 13.3902337,6.6865325 13.857577,6.86612745 L13.964,6.91428 L16.064,8.01429 C16.5532,8.27055 16.7421,8.87489 16.4858,9.36412 C16.2479,9.818405 15.7097663,10.0136889 15.242423,9.8341007 L15.136,9.78595 L13.036,8.68595 C12.5468,8.42968 12.3579,7.82534 12.6142,7.33611 Z" id="形状" fill="#09244B"></path>
            </g>
        </g>
    </g>
</svg>