<?xml version="1.0" encoding="UTF-8"?>
<svg width="24px" height="24px" viewBox="0 0 24 24" version="1.1" xmlns="http://www.w3.org/2000/svg" xmlns:xlink="http://www.w3.org/1999/xlink">
    <title>book_line</title>
    <g id="页面-1" stroke="none" stroke-width="1" fill="none" fill-rule="evenodd">
        <g id="book_line">
            <rect id="矩形" fill-opacity="0.01" fill="#FFFFFF" fill-rule="nonzero" x="0" y="0" width="24" height="24"></rect>
            <path d="M10,3 C10.7684,3 11.4692,3.28885 12,3.7639 C12.5308,3.28885 13.2316,3 14,3 L20,3 C21.1046,3 22,3.89543 22,5 L22,18 C22,19.1046 21.1046,20 20,20 L13,20 C13,20.5523 12.5523,21 12,21 C11.4477,21 11,20.5523 11,20 L4,20 C2.89543,20 2,19.1046 2,18 L2,5 C2,3.89543 2.89543,3 4,3 L10,3 Z M10,5 L4,5 L4,18 L11,18 L11,6 C11,5.48716857 10.613973,5.06449347 10.1166239,5.0067278 L10,5 Z M20,5 L14,5 C13.4477,5 13,5.44772 13,6 L13,18 L20,18 L20,5 Z" id="形状" fill="#09244B"></path>
        </g>
    </g>
</svg>