<?xml version="1.0" encoding="UTF-8"?>
<svg width="24px" height="24px" viewBox="0 0 24 24" version="1.1" xmlns="http://www.w3.org/2000/svg" xmlns:xlink="http://www.w3.org/1999/xlink">
    <title>book_6_line</title>
    <g id="页面-1" stroke="none" stroke-width="1" fill="none" fill-rule="evenodd">
        <g id="Education" transform="translate(-816.000000, 0.000000)">
            <g id="book_6_line" transform="translate(816.000000, 0.000000)">
                <rect id="矩形" fill-rule="nonzero" x="0" y="0" width="24" height="24"></rect>
                <path d="M11.1211,20.6153 C10.923,20.4923 10.6312,20.3254 10.2684,20.158 C9.53474,19.8193 8.55682,19.5 7.5,19.5 C6.22109,19.5 5.06248,19.9675 4.32073,20.3617 C3.80203,20.6374 3.22918,20.5752 2.80631,20.342 C2.37858,20.106 2,19.6326 2,19 L2,6.5 C2,5.87876 2.29506,5.23692 2.89751,4.87097 C3.6721,4.40046 5.41372,3.5 7.5,3.5 C9.08128,3.5 10.6447,4.01008 12,4.80962 C13.3553,4.01008 14.9187,3.5 16.5,3.5 C18.5863,3.5 20.3279,4.40046 21.1025,4.87097 C21.7049,5.23692 22,5.87876 22,6.5 L22,19 C22,19.6326 21.6214,20.106 21.1937,20.342 C20.7708,20.5752 20.198,20.6374 19.6793,20.3617 C18.9375,19.9675 17.7789,19.5 16.5,19.5 C15.4432,19.5 14.4653,19.8193 13.7316,20.158 C13.3688,20.3254 13.077,20.4923 12.8789,20.6153 C12.5948,20.7916 12.3552,21 12.0005,21 C11.6451,21 11.4058,20.792 11.1211,20.6153 Z M4,18.2936 L4,6.5418 C4.67339,6.14226 6.00051,5.5 7.5,5.5 C8.73044,5.5 9.94819,5.91768 11,6.5418 L11,18.2936 C10.1153,17.8976 8.8866,17.5 7.5,17.5 C6.11866,17.5 4.89134,17.8946 4,18.2936 Z M13,18.2936 C13.8847,17.8976 15.1134,17.5 16.5,17.5 C17.8813,17.5 19.1087,17.8946 20,18.2936 L20,6.5418 C19.3266,6.14226 17.9995,5.5 16.5,5.5 C15.2696,5.5 14.0518,5.91768 13,6.5418 L13,18.2936 Z" id="形状" fill="#09244B"></path>
            </g>
        </g>
    </g>
</svg>