<svg xmlns="http://www.w3.org/2000/svg" width="24" height="24" viewBox="0 0 24 24"><title>book_2_ai_line</title><g fill="none" fill-rule="nonzero"><path d="M24 0v24H0V0zM12.594 23.258l-.012.002-.071.035-.02.004-.014-.004-.071-.036q-.016-.004-.024.006l-.004.01-.017.428.005.02.01.013.104.074.015.004.012-.004.104-.074.012-.016.004-.017-.017-.427q-.004-.016-.016-.018m.264-.113-.014.002-.184.093-.01.01-.003.011.018.43.005.012.008.008.201.092q.019.005.029-.008l.004-.014-.034-.614q-.005-.019-.02-.022m-.715.002a.02.02 0 0 0-.027.006l-.006.014-.034.614q.001.018.017.024l.015-.002.201-.093.01-.008.003-.011.018-.43-.003-.012-.01-.01z"/><path fill="#09244b" d="M18 2a2 2 0 0 1 2 2v12.99q-.002.167-.053.317l-.045.121-.56 1.125a1 1 0 0 0 0 .894l.545 1.091A1 1 0 0 1 19 22H7a3 3 0 0 1-3-3V5a3 3 0 0 1 3-3zm-.592 16H7a1 1 0 1 0 0 2h10.408a3 3 0 0 1 0-2M18 4H7a1 1 0 0 0-1 1v11.174c.313-.11.649-.174 1-.174h11zm-3 7c.361 0 .598.187.694.277.116.11.198.25.269.391a1 1 0 0 0 .4.386c.133.073.257.143.364.256a1.01 1.01 0 0 1 0 1.38 1.4 1.4 0 0 1-.365.256 1 1 0 0 0-.4.386c-.077.143-.147.276-.268.39a1.01 1.01 0 0 1-1.39 0c-.12-.113-.19-.247-.267-.39a1 1 0 0 0-.4-.386 1.3 1.3 0 0 1-.364-.256 1.01 1.01 0 0 1 .001-1.38c.106-.113.23-.185.364-.256a1 1 0 0 0 .4-.386c.076-.143.147-.277.267-.39.096-.091.334-.278.695-.278m-4-6a1 1 0 0 1 .946.677l.13.378c.3.879.99 1.57 1.87 1.87l.377.129a1 1 0 0 1 0 1.892l-.378.13c-.879.3-1.57.99-1.87 1.87l-.129.377a1 1 0 0 1-1.892 0l-.13-.378a3 3 0 0 0-1.87-1.87l-.377-.129a1 1 0 0 1 0-1.892l.378-.13c.879-.3 1.57-.99 1.87-1.87l.129-.377C10.222 5.285 10.552 5 11 5m0 3.196a5 5 0 0 1-.804.804q.448.355.804.803.356-.447.803-.803A5 5 0 0 1 11 8.196"/></g></svg>