<?xml version="1.0" encoding="UTF-8"?>
<svg width="24px" height="24px" viewBox="0 0 24 24" version="1.1" xmlns="http://www.w3.org/2000/svg" xmlns:xlink="http://www.w3.org/1999/xlink">
    <title>book_2_fill</title>
    <g id="页面-1" stroke="none" stroke-width="1" fill="none" fill-rule="evenodd">
        <g id="Education" transform="translate(-144.000000, -48.000000)">
            <g id="book_2_fill" transform="translate(144.000000, 48.000000)">
                <rect id="矩形" fill-rule="nonzero" x="0" y="0" width="24" height="24"></rect>
                <path d="M4,5 C4,3.34315 5.34315,2 7,2 L18,2 C19.1046,2 20,2.89543 20,4 L20,16.99 C20,17.1576 19.9623,17.3115 19.8872,17.4617 L19.3416,18.5528 C19.2009,18.8343 19.2009,19.1657 19.3416,19.4472 L19.8854,20.5348 C19.9586,20.6737 20,20.832 20,21 C20,21.5523 19.5523,22 19,22 L7,22 C5.34315,22 4,20.6569 4,19 L4,5 Z M7,18 L17.4076,18 C17.1789,18.6468 17.1789,19.3532 17.4076,20 L7,20 C6.44772,20 6,19.5523 6,19 C6,18.4477 6.44772,18 7,18 Z M10,7 C9.44772,7 9,7.44772 9,8 C9,8.55228 9.44772,9 10,9 L14,9 C14.5523,9 15,8.55228 15,8 C15,7.44772 14.5523,7 14,7 L10,7 Z" id="形状" fill="#09244B"></path>
            </g>
        </g>
    </g>
</svg>