<?xml version="1.0" encoding="UTF-8"?>
<svg width="24px" height="24px" viewBox="0 0 24 24" version="1.1" xmlns="http://www.w3.org/2000/svg" xmlns:xlink="http://www.w3.org/1999/xlink">
    <title>book_5_fill</title>
    <g id="页面-1" stroke="none" stroke-width="1" fill="none" fill-rule="evenodd">
        <g id="Education" transform="translate(-672.000000, -48.000000)" fill-rule="nonzero">
            <g id="book_5_fill" transform="translate(672.000000, 48.000000)">
                <rect id="矩形" x="0" y="0" width="24" height="24"></rect>
                <path d="M3,4 C3,2.89543 3.89543,2 5,2 L7,2 C7.36429,2 7.70583,2.09739 8,2.26757 C8.29417,2.09739 8.63571,2 9,2 L11,2 C11.7274,2 12.3641,2.38834 12.7141,2.96902 C12.9235,2.8014 13.1702,2.67341 13.4459,2.59955 L15.3777,2.08191 C16.4447,1.79603 17.5413,2.42919 17.8272,3.49612 L21.9683,18.9509 C22.2542,20.0179 21.6211,21.1145 20.5541,21.4004 L18.6223,21.9181 C17.5553,22.2039 16.4587,21.5708 16.1728,20.5039 L13,8.66287 L13,20 C13,21.1046 12.1046,22 11,22 L9,22 C8.63571,22 8.29417,21.9026 8,21.7324 C7.70583,21.9026 7.36429,22 7,22 L5,22 C3.89543,22 3,21.1046 3,20 L3,4 Z" id="路径" fill="#09244B"></path>
            </g>
        </g>
    </g>
</svg>