<?xml version="1.0" encoding="UTF-8"?>
<svg width="24px" height="24px" viewBox="0 0 24 24" version="1.1" xmlns="http://www.w3.org/2000/svg" xmlns:xlink="http://www.w3.org/1999/xlink">
    <title>certificate_line</title>
    <g id="页面-1" stroke="none" stroke-width="1" fill="none" fill-rule="evenodd">
        <g id="Education" transform="translate(-864.000000, 0.000000)" fill-rule="nonzero">
            <g id="certificate_line" transform="translate(864.000000, 0.000000)">
                <rect id="矩形" x="0" y="0" width="24" height="24"></rect>
                <path d="M18,10 C20.2091,10 22,11.7909 22,14 C22,15.0144 21.6224,15.9407 21,16.6458 L21,20.8382 C21,21.6559 20.1395,22.1878 19.4081,21.8221 L18,21.118 L16.5919,21.8221 C15.8605,22.1878 15,21.6559 15,20.8382 L15,16.6458 C14.3776,15.9407 14,15.0144 14,14 C14,11.7909 15.7909,10 18,10 Z M20,4 C21.1046,4 22,4.89543 22,6 L22,8 C22,8.55228 21.5523,9 21,9 C20.4477,9 20,8.55228 20,8 L20,6 L4,6 L4,18 L12,18 C12.5523,18 13,18.4477 13,19 C13,19.5523 12.5523,20 12,20 L4,20 C2.89543,20 2,19.1046 2,18 L2,6 C2,4.89543 2.89543,4 4,4 L20,4 Z M19,17.874 C18.6804,17.9562 18.3453,18 18,18 C17.6547,18 17.3196,17.9562 17,17.874 L17,19.382 L17.5528,19.1056 C17.8343,18.9648 18.1657,18.9648 18.4472,19.1056 L19,19.382 L19,17.874 Z M18,12 C16.8954,12 16,12.8954 16,14 C16,15.1046 16.8954,16 18,16 C19.1046,16 20,15.1046 20,14 C20,12.8954 19.1046,12 18,12 Z M9,13 C9.55228,13 10,13.4477 10,14 C10,14.51285 9.61395571,14.9355092 9.11662025,14.9932725 L9,15 L7,15 C6.44772,15 6,14.5523 6,14 C6,13.48715 6.38604429,13.0644908 6.88337975,13.0067275 L7,13 L9,13 Z M13,9 C13.5523,9 14,9.44772 14,10 C14,10.5523 13.5523,11 13,11 L7,11 C6.44772,11 6,10.5523 6,10 C6,9.44772 6.44772,9 7,9 L13,9 Z" id="形状" fill="#09244B"></path>
            </g>
        </g>
    </g>
</svg>