<?xml version="1.0" encoding="UTF-8"?>
<svg width="24px" height="24px" viewBox="0 0 24 24" version="1.1" xmlns="http://www.w3.org/2000/svg" xmlns:xlink="http://www.w3.org/1999/xlink">
    <title>certificate_fill</title>
    <g id="页面-1" stroke="none" stroke-width="1" fill="none" fill-rule="evenodd">
        <g id="Education" transform="translate(-864.000000, -48.000000)">
            <g id="certificate_fill" transform="translate(864.000000, 48.000000)">
                 <path d="M24,0 L24,24 L0,24 L0,0 L24,0 Z M12.5934901,23.257841 L12.5819402,23.2595131 L12.5108777,23.2950439 L12.4918791,23.2987469 L12.4918791,23.2987469 L12.4767152,23.2950439 L12.4056548,23.2595131 C12.3958229,23.2563662 12.3870493,23.2590235 12.3821421,23.2649074 L12.3780323,23.275831 L12.360941,23.7031097 L12.3658947,23.7234994 L12.3769048,23.7357139 L12.4804777,23.8096931 L12.4953491,23.8136134 L12.4953491,23.8136134 L12.5071152,23.8096931 L12.6106902,23.7357139 L12.6232938,23.7196733 L12.6232938,23.7196733 L12.6266527,23.7031097 L12.609561,23.275831 C12.6075724,23.2657013 12.6010112,23.2592993 12.5934901,23.257841 L12.5934901,23.257841 Z M12.8583906,23.1452862 L12.8445485,23.1473072 L12.6598443,23.2396597 L12.6498822,23.2499052 L12.6498822,23.2499052 L12.6471943,23.2611114 L12.6650943,23.6906389 L12.6699349,23.7034178 L12.6699349,23.7034178 L12.678386,23.7104931 L12.8793402,23.8032389 C12.8914285,23.8068999 12.9022333,23.8029875 12.9078286,23.7952264 L12.9118235,23.7811639 L12.8776777,23.1665331 C12.8752882,23.1545897 12.8674102,23.1470016 12.8583906,23.1452862 L12.8583906,23.1452862 Z M12.1430473,23.1473072 C12.1332178,23.1423925 12.1221763,23.1452606 12.1156365,23.1525954 L12.1099173,23.1665331 L12.0757714,23.7811639 C12.0751323,23.7926639 12.0828099,23.8018602 12.0926481,23.8045676 L12.108256,23.8032389 L12.3092106,23.7104931 L12.3186497,23.7024347 L12.3186497,23.7024347 L12.3225043,23.6906389 L12.340401,23.2611114 L12.337245,23.2485176 L12.337245,23.2485176 L12.3277531,23.2396597 L12.1430473,23.1473072 Z" id="MingCute" fill-rule="nonzero"></path>
                <path d="M19,11 C20.6569,11 22,12.3431 22,14 C22,14.8885 21.6138,15.6868 21,16.2361 L21,21.191 C21,21.5627 20.6088,21.8044 20.2764,21.6382 L19,21 L17.7236,21.6382 C17.3912,21.8044 17,21.5627 17,21.191 L17,16.2361 C16.3863,15.6868 16,14.8885 16,14 C16,12.3431 17.3431,11 19,11 Z M20,4 C21.1046,4 22,4.89543 22,6 L22,9.99963 C21.1643,9.37194 20.1256,9 19,9 C16.2386,9 14,11.2386 14,14 C14,15.1254 14.3733,16.1652 15,17.0001 L15,20 L4,20 C2.89543,20 2,19.1046 2,18 L2,6 C2,4.89543 2.89543,4 4,4 L20,4 Z M8,13 L6,13 C5.44772,13 5,13.4477 5,14 C5,14.5523 5.44772,15 6,15 L8,15 C8.55228,15 9,14.5523 9,14 C9,13.4477 8.55228,13 8,13 Z M12,9 L6,9 C5.44772,9 5,9.44772 5,10 C5,10.51285 5.38604429,10.9355092 5.88337975,10.9932725 L6,11 L12,11 C12.5523,11 13,10.5523 13,10 C13,9.48716857 12.613973,9.06449347 12.1166239,9.0067278 L12,9 Z" id="形状" fill="#09244B"></path>
            </g>
        </g>
    </g>
</svg>