<?xml version="1.0" encoding="UTF-8"?>
<svg width="24px" height="24px" viewBox="0 0 24 24" version="1.1" xmlns="http://www.w3.org/2000/svg" xmlns:xlink="http://www.w3.org/1999/xlink">
    <title>certificate_fill</title>
    <g id="页面-1" stroke="none" stroke-width="1" fill="none" fill-rule="evenodd">
        <g id="Education" transform="translate(-864.000000, -48.000000)">
            <g id="certificate_fill" transform="translate(864.000000, 48.000000)">
                <rect id="矩形" fill-rule="nonzero" x="0" y="0" width="24" height="24"></rect>
                <path d="M19,11 C20.6569,11 22,12.3431 22,14 C22,14.8885 21.6138,15.6868 21,16.2361 L21,21.191 C21,21.5627 20.6088,21.8044 20.2764,21.6382 L19,21 L17.7236,21.6382 C17.3912,21.8044 17,21.5627 17,21.191 L17,16.2361 C16.3863,15.6868 16,14.8885 16,14 C16,12.3431 17.3431,11 19,11 Z M20,4 C21.1046,4 22,4.89543 22,6 L22,9.99963 C21.1643,9.37194 20.1256,9 19,9 C16.2386,9 14,11.2386 14,14 C14,15.1254 14.3733,16.1652 15,17.0001 L15,20 L4,20 C2.89543,20 2,19.1046 2,18 L2,6 C2,4.89543 2.89543,4 4,4 L20,4 Z M8,13 L6,13 C5.44772,13 5,13.4477 5,14 C5,14.5523 5.44772,15 6,15 L8,15 C8.55228,15 9,14.5523 9,14 C9,13.4477 8.55228,13 8,13 Z M12,9 L6,9 C5.44772,9 5,9.44772 5,10 C5,10.51285 5.38604429,10.9355092 5.88337975,10.9932725 L6,11 L12,11 C12.5523,11 13,10.5523 13,10 C13,9.48716857 12.613973,9.06449347 12.1166239,9.0067278 L12,9 Z" id="形状" fill="#09244B"></path>
            </g>
        </g>
    </g>
</svg>