<svg xmlns="http://www.w3.org/2000/svg" width="24" height="24"><g fill="none" fill-rule="evenodd"><path d="M24 0v24H0V0zM12.594 23.258l-.012.002-.071.035-.02.004-.014-.004-.071-.036c-.01-.003-.019 0-.024.006l-.004.01-.017.428.005.02.01.013.104.074.015.004.012-.004.104-.074.012-.016.004-.017-.017-.427c-.002-.01-.009-.017-.016-.018m.264-.113-.014.002-.184.093-.01.01-.003.011.018.43.005.012.008.008.201.092c.012.004.023 0 .029-.008l.004-.014-.034-.614c-.003-.012-.01-.02-.02-.022m-.715.002a.023.023 0 0 0-.027.006l-.006.014-.034.614c0 .012.007.02.017.024l.015-.002.201-.093.01-.008.003-.011.018-.43-.003-.012-.01-.01z"/><path fill="#09244B" d="M13.5 3a1.5 1.5 0 0 0-3 0v1.837a3.5 3.5 0 0 0-1.035 5.576L5.6 20.462a1.5 1.5 0 0 0 2.8 1.076l1.269-3.298a10.535 10.535 0 0 0 4.663 0l1.268 3.3a1.5 1.5 0 0 0 2.8-1.078l-1.269-3.298A10.542 10.542 0 0 0 19.826 15a1.5 1.5 0 0 0-2.235-2 7.544 7.544 0 0 1-1.553 1.321l-1.503-3.908A3.5 3.5 0 0 0 13.5 4.837zm-.262 12.398L12 12.178l-1.239 3.22a7.568 7.568 0 0 0 2.477 0"/></g></svg>