<?xml version="1.0" encoding="UTF-8"?>
<svg width="24px" height="24px" viewBox="0 0 24 24" version="1.1" xmlns="http://www.w3.org/2000/svg" xmlns:xlink="http://www.w3.org/1999/xlink">
    <title>compass_fill</title>
    <g id="Icon" stroke="none" stroke-width="1" fill="none" fill-rule="evenodd">
        <g id="Education" transform="translate(-384.000000, -144.000000)">
            <g id="compass_fill" transform="translate(384.000000, 144.000000)">
                <path d="M24,0 L24,24 L0,24 L0,0 L24,0 Z M12.5935,23.2578 L12.5819,23.2595 L12.5109,23.295 L12.4919,23.2987 L12.4767,23.295 L12.4057,23.2595 C12.3958,23.2564 12.387,23.259 12.3821,23.2649 L12.378,23.2758 L12.3609,23.7031 L12.3659,23.7235 L12.3769,23.7357 L12.4805,23.8097 L12.4953,23.8136 L12.5071,23.8097 L12.6107,23.7357 L12.6233,23.7197 L12.6267,23.7031 L12.6096,23.2758 C12.6076,23.2657 12.601,23.2593 12.5935,23.2578 Z M12.8584,23.1453 L12.8445,23.1473 L12.6598,23.2397 L12.6499,23.2499 L12.6472,23.2611 L12.6651,23.6906 L12.6699,23.7034 L12.6784,23.7105 L12.8793,23.8032 C12.8914,23.8069 12.9022,23.803 12.9078,23.7952 L12.9118,23.7812 L12.8777,23.1665 C12.8753,23.1546 12.8674,23.147 12.8584,23.1453 Z M12.143,23.1473 C12.1332,23.1424 12.1222,23.1453 12.1156,23.1526 L12.1099,23.1665 L12.0758,23.7812 C12.0751,23.7927 12.0828,23.8019 12.0926,23.8046 L12.1083,23.8032 L12.3092,23.7105 L12.3186,23.7024 L12.3225,23.6906 L12.3404,23.2611 L12.3372,23.2485 L12.3278,23.2397 L12.143,23.1473 Z" id="MingCute" fill-rule="nonzero"></path>
                <path d="M13.4999,3 C13.4999,2.17157 12.8283,1.5 11.9999,1.5 C11.1715,1.5 10.4999,2.17157 10.4999,3 L10.4999,4.83682 C9.31744,5.39855 8.49992,6.6038 8.49992,8 C8.49992,8.93542 8.86688,9.78514 9.4647,10.413 L5.5999,20.4615 C5.30251,21.2347 5.68824,22.1026 6.46145,22.4 C7.23466,22.6974 8.10255,22.3117 8.39993,21.5385 L9.6686,18.2399 C10.4193,18.4102 11.1998,18.5 12,18.5 C12.8011,18.5 13.5814,18.4101 14.3313,18.2401 L15.5999,21.5385 C15.8973,22.3117 16.7652,22.6974 17.5384,22.4 C18.3116,22.1026 18.6973,21.2347 18.3999,20.4615 L17.1311,17.1626 C18.1459,16.5932 19.0563,15.8604 19.826,15.0004 C20.3785,14.3831 20.3259,13.4348 19.7087,12.8823 C19.0914,12.3298 18.1431,12.3823 17.5906,12.9996 C17.136,13.5075 16.6139,13.9528 16.0383,14.3214 L14.5351,10.413 C15.133,9.78514 15.4999,8.93542 15.4999,8 C15.4999,6.6038 14.6824,5.39855 13.4999,4.83682 L13.4999,3 Z M13.2383,15.3984 L11.9999,12.1785 L10.7615,15.3985 C11.1638,15.4652 11.5775,15.5 12,15.5 C12.4218,15.5 12.8355,15.4652 13.2383,15.3984 Z" id="形状" fill="#09244B"></path>
            </g>
        </g>
    </g>
</svg>