<?xml version="1.0" encoding="UTF-8"?>
<svg width="24px" height="24px" viewBox="0 0 24 24" version="1.1" xmlns="http://www.w3.org/2000/svg" xmlns:xlink="http://www.w3.org/1999/xlink">
    <title>counter_fill</title>
    <g id="页面-1" stroke="none" stroke-width="1" fill="none" fill-rule="evenodd">
        <g id="counter_fill">
            <rect id="矩形" x="0" y="0" width="24" height="24"></rect>
            <path d="M19,3 C20.0543909,3 20.9181678,3.81587733 20.9945144,4.85073759 L21,5 L21,19 C21,20.0543909 20.18415,20.9181678 19.1492661,20.9945144 L19,21 L5,21 C3.94563773,21 3.08183483,20.18415 3.00548573,19.1492661 L3,19 L3,5 C3,3.94563773 3.81587733,3.08183483 4.85073759,3.00548573 L5,3 L19,3 Z M6.37864,13.3787 C5.98812,13.7692 5.98812,14.4024 6.37864,14.7929 L7.08575,15.5 L6.37864,16.2071 C5.98812,16.5976 5.98812,17.2308 6.37864,17.6213 C6.76917,18.0118 7.40233,18.0118 7.79286,17.6213 L8.49996,16.9142 L9.20707,17.6213 C9.5976,18.0118 10.2308,18.0118 10.6213,17.6213 C11.0118,17.2308 11.0118,16.5976 10.6213,16.2071 L9.91418,15.5 L10.6213,14.7929 C11.0118,14.4024 11.0118,13.7692 10.6213,13.3787 C10.2308,12.9882 9.5976,12.9882 9.20707,13.3787 L8.49996,14.0858 L7.79286,13.3787 C7.40233,12.9882 6.76917,12.9882 6.37864,13.3787 Z M17,15.75 L14,15.75 C13.4477,15.75 13,16.1977 13,16.75 C13,17.26285 13.386027,17.6855092 13.8833761,17.7432725 L14,17.75 L17,17.75 C17.5523,17.75 18,17.3023 18,16.75 C18,16.23715 17.613973,15.8144908 17.1166239,15.7567275 L17,15.75 Z M17,13.25 L14,13.25 C13.4477,13.25 13,13.6977 13,14.25 C13,14.76285 13.386027,15.1855092 13.8833761,15.2432725 L14,15.25 L17,15.25 C17.5523,15.25 18,14.8023 18,14.25 C18,13.73715 17.613973,13.3144908 17.1166239,13.2567275 L17,13.25 Z M15.5,6.5 C14.9477,6.5 14.5,6.94772 14.5,7.5 L14.5,8 L14,8 C13.4477,8 13,8.44772 13,9 C13,9.55228 13.4477,10 14,10 L14.5,10 L14.5,10.5 C14.5,11.0523 14.9477,11.5 15.5,11.5 C16.0523,11.5 16.5,11.0523 16.5,10.5 L16.5,10 L17,10 C17.5523,10 18,9.55228 18,9 C18,8.44772 17.5523,8 17,8 L16.5,8 L16.5,7.5 C16.5,6.94772 16.0523,6.5 15.5,6.5 Z M10,8 L7,8 C6.44772,8 6,8.44772 6,9 C6,9.51283143 6.38604429,9.93550653 6.88337975,9.9932722 L7,10 L10,10 C10.5523,10 11,9.55228 11,9 C11,8.48716857 10.613973,8.06449347 10.1166239,8.0067278 L10,8 Z" id="形状" fill="#09244B" fill-rule="nonzero"></path>
        </g>
    </g>
</svg>