<?xml version="1.0" encoding="UTF-8"?>
<svg width="24px" height="24px" viewBox="0 0 24 24" version="1.1" xmlns="http://www.w3.org/2000/svg" xmlns:xlink="http://www.w3.org/1999/xlink">
    <title>counter_line</title>
    <g id="页面-1" stroke="none" stroke-width="1" fill="none" fill-rule="evenodd">
        <g id="Education" transform="translate(-240.000000, 0.000000)" fill-rule="nonzero">
            <g id="counter_line" transform="translate(240.000000, 0.000000)">
                <rect id="矩形" x="0" y="0" width="24" height="24"></rect>
                <path d="M19,3 C20.0543909,3 20.9181678,3.81587733 20.9945144,4.85073759 L21,5 L21,19 C21,20.0543909 20.18415,20.9181678 19.1492661,20.9945144 L19,21 L5,21 C3.94563773,21 3.08183483,20.18415 3.00548573,19.1492661 L3,19 L3,5 C3,3.94563773 3.81587733,3.08183483 4.85073759,3.00548573 L5,3 L19,3 Z M19,5 L5,5 L5,19 L19,19 L19,5 Z M7.79286,13.3787 L8.49996,14.0858 L9.20707,13.3787 C9.5976,12.9882 10.2308,12.9882 10.6213,13.3787 C11.0118,13.7692 11.0118,14.4024 10.6213,14.7929 L9.91418,15.5 L10.6213,16.2071 C11.0118,16.5976 11.0118,17.2308 10.6213,17.6213 C10.2308,18.0118 9.5976,18.0118 9.20707,17.6213 L8.49996,16.9142 L7.79286,17.6213 C7.40233,18.0118 6.76917,18.0118 6.37864,17.6213 C5.98812,17.2308 5.98812,16.5976 6.37864,16.2071 L7.08575,15.5 L6.37864,14.7929 C5.98812,14.4024 5.98812,13.7692 6.37864,13.3787 C6.76917,12.9882 7.40233,12.9882 7.79286,13.3787 Z M17,15.75 C17.5523,15.75 18,16.1977 18,16.75 C18,17.26285 17.613973,17.6855092 17.1166239,17.7432725 L17,17.75 L14,17.75 C13.4477,17.75 13,17.3023 13,16.75 C13,16.23715 13.386027,15.8144908 13.8833761,15.7567275 L14,15.75 L17,15.75 Z M17,13.25 C17.5523,13.25 18,13.6977 18,14.25 C18,14.8023 17.5523,15.25 17,15.25 L14,15.25 C13.4477,15.25 13,14.8023 13,14.25 C13,13.6977 13.4477,13.25 14,13.25 L17,13.25 Z M15.5,6.5 C16.0523,6.5 16.5,6.94772 16.5,7.5 L16.5,8 L17,8 C17.5523,8 18,8.44772 18,9 C18,9.55228 17.5523,10 17,10 L16.5,10 L16.5,10.5 C16.5,11.0523 16.0523,11.5 15.5,11.5 C14.9477,11.5 14.5,11.0523 14.5,10.5 L14.5,10 L14,10 C13.4477,10 13,9.55228 13,9 C13,8.44772 13.4477,8 14,8 L14.5,8 L14.5,7.5 C14.5,6.94772 14.9477,6.5 15.5,6.5 Z M10,8 C10.5523,8 11,8.44772 11,9 C11,9.55228 10.5523,10 10,10 L7,10 C6.44772,10 6,9.55228 6,9 C6,8.44772 6.44772,8 7,8 L10,8 Z" id="形状" fill="#09244B"></path>
            </g>
        </g>
    </g>
</svg>