<?xml version="1.0" encoding="UTF-8"?>
<svg width="24px" height="24px" viewBox="0 0 24 24" version="1.1" xmlns="http://www.w3.org/2000/svg" xmlns:xlink="http://www.w3.org/1999/xlink">
    <title>diary_fill</title>
    <g id="页面-1" stroke="none" stroke-width="1" fill="none" fill-rule="evenodd">
        <g id="Education" transform="translate(-288.000000, -48.000000)">
            <g id="diary_fill" transform="translate(288.000000, 48.000000)">
                <rect id="矩形" fill-rule="nonzero" x="0" y="0" width="24" height="24"></rect>
                <path d="M6,2 C4.89543,2 4,2.89543 4,4 L4,5 C3.44772,5 3,5.44772 3,6 C3,6.55228 3.44772,7 4,7 L4,9 C3.44772,9 3,9.44772 3,10 C3,10.5523 3.44772,11 4,11 L4,13 C3.44772,13 3,13.4477 3,14 C3,14.5523 3.44772,15 4,15 L4,17 C3.44772,17 3,17.4477 3,18 C3,18.5523 3.44772,19 4,19 L4,20 C4,21.1046 4.89543,22 6,22 L18,22 C19.1046,22 20,21.1046 20,20 L20,4 C20,2.89543 19.1046,2 18,2 L6,2 Z M8.5,6 C7.67157,6 7,6.67157 7,7.5 L7,8.5 C7,9.32843 7.67157,10 8.5,10 L15.5,10 C16.3284,10 17,9.32843 17,8.5 L17,7.5 C17,6.67157 16.3284,6 15.5,6 L8.5,6 Z" id="形状" fill="#09244B"></path>
            </g>
        </g>
    </g>
</svg>