<?xml version="1.0" encoding="UTF-8"?>
<svg width="24px" height="24px" viewBox="0 0 24 24" version="1.1" xmlns="http://www.w3.org/2000/svg" xmlns:xlink="http://www.w3.org/1999/xlink">
    <title>eyeglass_line</title>
    <g id="页面-1" stroke="none" stroke-width="1" fill="none" fill-rule="evenodd">
        <g id="Education" transform="translate(-480.000000, 0.000000)">
            <g id="eyeglass_line" transform="translate(480.000000, 0.000000)">
                <rect id="矩形" fill-rule="nonzero" x="0" y="0" width="24" height="24"></rect>
                <path d="M8,3 C8.55228,3 9,3.44772 9,4 C9,4.55228 8.55228,5 8,5 L7.48806,5 C7.04645,5 6.65713,5.28967 6.53024,5.71265 L4.50435,12.4656 C5.10575,12.1675 5.78331,12 6.5,12 C8.47065,12 10.1454,13.2667 10.7545,15.0303 C10.8331,15.0105 10.9153,15 11,15 L13,15 C13.0847,15 13.1669,15.0105 13.2455,15.0303 C13.8546,13.2667 15.5293,12 17.5,12 C18.2167,12 18.8943,12.1675 19.4956,12.4656 L17.4698,5.71265 C17.3429,5.28967 16.9535,5 16.5119,5 L16,5 C15.4477,5 15,4.55228 15,4 C15,3.44772 15.4477,3 16,3 L16.5119,3 C17.8368,3 19.0047,3.869 19.3854,5.13796 L21.6204,12.588 C21.8721,13.427 22,14.2982 22,15.1742 L22,16.5 C22,18.9853 19.9853,21 17.5,21 C15.1836,21 13.276,19.2498 13.0274,16.9996 L10.9726,16.9996 L10.9726,16.9996 C10.724,19.2498 8.8164,21 6.5,21 C4.01472,21 2,18.9853 2,16.5 L2,15.1742 C2,14.2982 2.12787,13.427 2.37956,12.588 L4.61458,5.13796 C4.99527,3.869 6.16324,3 7.48806,3 L8,3 Z M17.5,14 C16.1193,14 15,15.1193 15,16.5 C15,17.8807 16.1193,19 17.5,19 C18.8807,19 20,17.8807 20,16.5 C20,15.1193 18.8807,14 17.5,14 Z M6.5,14 C5.11929,14 4,15.1193 4,16.5 C4,17.8807 5.11929,19 6.5,19 C7.88071,19 9,17.8807 9,16.5 C9,15.1193 7.88071,14 6.5,14 Z" id="形状" fill="#09244B"></path>
            </g>
        </g>
    </g>
</svg>