<?xml version="1.0" encoding="UTF-8"?>
<svg width="24px" height="24px" viewBox="0 0 24 24" version="1.1" xmlns="http://www.w3.org/2000/svg" xmlns:xlink="http://www.w3.org/1999/xlink">
    <title>flask_2_fill</title>
    <g id="页面-1" stroke="none" stroke-width="1" fill="none" fill-rule="evenodd">
        <g id="Education" transform="translate(-528.000000, -48.000000)">
            <g id="flask_2_fill" transform="translate(528.000000, 48.000000)">
                <rect id="矩形" fill-rule="nonzero" x="0" y="0" width="24" height="24"></rect>
                <path d="M4.13868,3 C3.38787,3 2.85771,3.73557 3.09513,4.44785 L3.99994,7.16228 L3.99994,18 C3.99994,19.6569 5.34309,21 6.99994,21 L16.9999,21 C18.6568,21 19.9999,19.6569 19.9999,18 L19.9999,4.5 C19.9999,3.67157 19.3284,3 18.4999,3 L4.13868,3 Z M5.99994,8 L9.99994,8 C10.5522,8 10.9999,8.44772 10.9999,9 C10.9999,9.55228 10.5522,10 9.99994,10 L5.99994,10 L5.99994,8 Z M5.99994,11 L9.99994,11 C10.5522,11 10.9999,11.4477 10.9999,12 C10.9999,12.5523 10.5522,13 9.99994,13 L5.99994,13 L5.99994,11 Z M5.99994,16 L5.99994,14 L9.99994,14 C10.5522,14 10.9999,14.4477 10.9999,15 C10.9999,15.5523 10.5522,16 9.99994,16 L5.99994,16 Z" id="形状" fill="#09244B"></path>
            </g>
        </g>
    </g>
</svg>