<?xml version="1.0" encoding="UTF-8"?>
<svg width="24px" height="24px" viewBox="0 0 24 24" version="1.1" xmlns="http://www.w3.org/2000/svg" xmlns:xlink="http://www.w3.org/1999/xlink">
    <title>flask_line</title>
    <g id="页面-1" stroke="none" stroke-width="1" fill="none" fill-rule="evenodd">
        <g id="Education" transform="translate(-576.000000, 0.000000)">
            <g id="flask_line" transform="translate(576.000000, 0.000000)">
                <rect id="矩形" fill-rule="nonzero" x="0" y="0" width="24" height="24"></rect>
                <path d="M8.99993,4 L8,4 C7.44771,4 7,3.55228 7,3 C7,2.44772 7.44771,2 8,2 L16,2 C16.5523,2 17,2.44772 17,3 C17,3.55228 16.5523,4 16,4 L14.9999,4 L14.9999,9.63128 L20.2265,17.3123 C21.5817,19.3039 20.1552,22 17.7462,22 L6.25366,22 C3.84467,22 2.41818,19.304 3.77339,17.3123 L8.99993,9.63128 L8.99993,4 Z M12.9999,4 L10.9999,4 L10.9999,9.63128 C10.9999,10.0326 10.8792,10.4246 10.6534,10.7564 L5.4269,18.4374 C4.97516,19.1013 5.45066,20 6.25366,20 L17.7462,20 C18.5492,20 19.0247,19.1013 18.573,18.4374 L13.3464,10.7564 C13.1207,10.4246 12.9999,10.0326 12.9999,9.63128 L12.9999,4 Z" id="形状" fill="#09244B"></path>
            </g>
        </g>
    </g>
</svg>