<?xml version="1.0" encoding="UTF-8"?>
<svg width="24px" height="24px" viewBox="0 0 24 24" version="1.1" xmlns="http://www.w3.org/2000/svg" xmlns:xlink="http://www.w3.org/1999/xlink">
    <title>globe_fill</title>
    <g id="页面-1" stroke="none" stroke-width="1" fill="none" fill-rule="evenodd">
        <g id="Education" transform="translate(-336.000000, -48.000000)">
            <g id="globe_fill" transform="translate(336.000000, 48.000000)">
                <rect id="矩形" fill-rule="nonzero" x="0" y="0" width="24" height="24"></rect>
                <path d="M18.667,1.54662 C18.2555,1.1783 17.6233,1.21332 17.255,1.62484 C16.8866,2.03637 16.9217,2.66857 17.3332,3.03689 C18.9715,4.50318 20.0001,6.63084 20.0001,9.00008 C20.0001,13.4146 16.4244,16.994 12.0113,17.0001 L12.0001,17 L11.9889,17.0001 C9.21189,16.9963 6.76583,15.5783 5.33284,13.4231 C5.02705,12.9632 4.40634,12.8383 3.94643,13.144 C3.48653,13.4498 3.36159,14.0705 3.66737,14.5304 C5.2836,16.9613 7.93846,18.6466 11.0001,18.9507 L11.0001,20 L8.00011,20 C7.44782,20 7.00011,20.4477 7.00011,21 C7.00011,21.5523 7.44782,22 8.00011,22 L16.0001,22 C16.5524,22 17.0001,21.5523 17.0001,21 C17.0001,20.4477 16.5524,20 16.0001,20 L13.0001,20 L13.0001,18.9507 C18.0534,18.449 22.0001,14.1854 22.0001,9.00008 C22.0001,6.03832 20.7113,3.37626 18.667,1.54662 Z M12.00011,2.00001 C8.13411,2.00001 5.00011,5.13402 5.00011,9.00001 C5.00011,12.866 8.13411,16.00001 12.00011,16.00001 C15.8661,16.00001 19.00011,12.866 19.00011,9.00001 C19.00011,5.13402 15.8661,2.00001 12.00011,2.00001 Z" id="形状" fill="#09244B"></path>
            </g>
        </g>
    </g>
</svg>