<?xml version="1.0" encoding="UTF-8"?>
<svg width="24px" height="24px" viewBox="0 0 24 24" version="1.1" xmlns="http://www.w3.org/2000/svg" xmlns:xlink="http://www.w3.org/1999/xlink">
    <title>magnet_fill</title>
    <g id="Icon" stroke="none" stroke-width="1" fill="none" fill-rule="evenodd">
        <g id="Education" transform="translate(-192.000000, -144.000000)">
            <g id="magnet_fill" transform="translate(192.000000, 144.000000)">
                <path d="M24,0 L24,24 L0,24 L0,0 L24,0 Z M12.5935,23.2578 L12.5819,23.2595 L12.5109,23.295 L12.4919,23.2987 L12.4767,23.295 L12.4057,23.2595 C12.3958,23.2564 12.387,23.259 12.3821,23.2649 L12.378,23.2758 L12.3609,23.7031 L12.3659,23.7235 L12.3769,23.7357 L12.4805,23.8097 L12.4953,23.8136 L12.5071,23.8097 L12.6107,23.7357 L12.6233,23.7197 L12.6267,23.7031 L12.6096,23.2758 C12.6076,23.2657 12.601,23.2593 12.5935,23.2578 Z M12.8584,23.1453 L12.8445,23.1473 L12.6598,23.2397 L12.6499,23.2499 L12.6472,23.2611 L12.6651,23.6906 L12.6699,23.7034 L12.6784,23.7105 L12.8793,23.8032 C12.8914,23.8069 12.9022,23.803 12.9078,23.7952 L12.9118,23.7812 L12.8777,23.1665 C12.8753,23.1546 12.8674,23.147 12.8584,23.1453 Z M12.143,23.1473 C12.1332,23.1424 12.1222,23.1453 12.1156,23.1526 L12.1099,23.1665 L12.0758,23.7812 C12.0751,23.7927 12.0828,23.8019 12.0926,23.8046 L12.1083,23.8032 L12.3092,23.7105 L12.3186,23.7024 L12.3225,23.6906 L12.3404,23.2611 L12.3372,23.2485 L12.3278,23.2397 L12.143,23.1473 Z" id="MingCute" fill-rule="nonzero"></path>
                <path d="M19.5563,4.34315 C22.6805,7.46734 22.6805,12.5327 19.5563,15.6569 L13.8995,21.3137 C13.1184,22.0948 11.8521,22.0948 11.0711,21.3137 L8.94975,19.1924 C8.1687,18.4113 8.1687,17.145 8.94975,16.364 L14.6066,10.7071 C14.9971,10.3166 14.9971,9.68342 14.6066,9.29289 C14.2161,8.90237 13.5829,8.90237 13.1924,9.29289 L7.53553,14.9497 C6.75448,15.7308 5.48816,15.7308 4.70711,14.9497 L2.58579,12.8284 C1.80474,12.0474 1.80474,10.781 2.58579,10 L8.24264,4.34315 C11.3668,1.21895 16.4322,1.21895 19.5563,4.34315 Z M13.1924,16.364 C12.8019,15.9734 12.1687,15.9734 11.7782,16.364 C11.4177385,16.7244615 11.3900107,17.2917207 11.6950166,17.6839973 L11.7782,17.7782 L12.4853,18.4853 C12.8758,18.8758 13.509,18.8758 13.8995,18.4853 C14.2599615,18.1248385 14.2876893,17.5575793 13.9826834,17.1653027 L13.8995,17.0711 L13.1924,16.364 Z M5.41426,10 C5.02373,10.3906 5.02373,11.0237 5.41426,11.4143 L6.1213625,12.1214 C6.51189,12.5119 7.14505,12.5119 7.53558,12.1214 C7.9261,11.7308 7.9261,11.0977 7.53558,10.7072 L6.82847,10 C6.43794,9.60952 5.80478,9.60952 5.41426,10 Z" id="形状" fill="#09244B"></path>
            </g>
        </g>
    </g>
</svg>