<?xml version="1.0" encoding="UTF-8"?>
<svg width="24px" height="24px" viewBox="0 0 24 24" version="1.1" xmlns="http://www.w3.org/2000/svg" xmlns:xlink="http://www.w3.org/1999/xlink">
    <title>mortarboard_line</title>
    <g id="页面-1" stroke="none" stroke-width="1" fill="none" fill-rule="evenodd">
        <g id="Education" transform="translate(-384.000000, 0.000000)">
            <g id="mortarboard_line" transform="translate(384.000000, 0.000000)">
                <rect id="矩形" fill-rule="nonzero" x="0" y="0" width="24" height="24"></rect>
                <path d="M2.27845,8.99449 C1.43874,8.59743 1.43877,7.4027 2.27845,7.00564 L11.3588,2.71184 C11.7647,2.51988 12.2353,2.51988 12.6413,2.71184 L21.7216,7.00564 C22.4551,7.35248 22.5479,8.30792 22,8.80873 L22,13.0001 C22,13.5524 21.5523,14.0001 21,14.0001 C20.4477,14.0001 20,13.5524 20,13.0001 L20,9.8086 L19,10.2815 L19,14.0001 C19,17.8661 15.866,21.0001 12,21.0001 C8.13399,21.0001 4.99998,17.8661 4.99998,14.0001 L4.99998,10.2814 L2.27845,8.99449 Z M17,9.00007 L17.0313,9.00007 L19.146,8.00007 L12,4.62095 L4.85403,8.00007 L6.96878,9.00007 L6.99998,9.00007 L6.99998,9.01482 L12,11.3792 L17,9.01487 L17,9.00007 Z M11.3588,13.2883 L6.99998,11.2272 L6.99998,14.0001 C6.99998,16.7615 9.23856,19.0001 12,19.0001 C14.7614,19.0001 17,16.7615 17,14.0001 L17,11.2272 L12.6413,13.2883 C12.2353,13.4803 11.7647,13.4803 11.3588,13.2883 Z" id="形状" fill="#09244B"></path>
            </g>
        </g>
    </g>
</svg>