<?xml version="1.0" encoding="UTF-8"?>
<svg width="24px" height="24px" viewBox="0 0 24 24" version="1.1" xmlns="http://www.w3.org/2000/svg" xmlns:xlink="http://www.w3.org/1999/xlink">
    <title>mortarboard_fill</title>
    <g id="页面-1" stroke="none" stroke-width="1" fill="none" fill-rule="evenodd">
        <g id="Education" transform="translate(-384.000000, -48.000000)" fill-rule="nonzero">
            <g id="mortarboard_fill" transform="translate(384.000000, 48.000000)">
                <rect id="矩形" x="0" y="0" width="24" height="24"></rect>
                <path d="M19,12.2816 L19,14.0001 C19,17.8661 15.8659,21.0001 12,21.0001 C8.13396,21.0001 4.99995,17.8661 4.99995,14.0001 L4.99995,12.2816 L11.3588,15.2885 C11.7647,15.4804 12.2353,15.4804 12.6413,15.2885 L19,12.2816 Z M12.6413,2.71184 L21.7216,7.00564 C22.4551,7.35249 22.5479,8.30796 22,8.80876 L22,13.0001 C22,13.5524 21.5522,14.0001 21,14.0001 C20.4477,14.0001 20,13.5524 20,13.0001 L20,9.80862 L12.6413,13.2883 C12.2353,13.4803 11.7647,13.4803 11.3588,13.2883 L2.27845,8.99449 C1.43874,8.59743 1.43877,7.4027 2.27845,7.00564 L11.3588,2.71184 C11.7647,2.51988 12.2353,2.51988 12.6413,2.71184 Z" id="形状" fill="#09244B"></path>
            </g>
        </g>
    </g>
</svg>