<?xml version="1.0" encoding="UTF-8"?>
<svg width="24px" height="24px" viewBox="0 0 24 24" version="1.1" xmlns="http://www.w3.org/2000/svg" xmlns:xlink="http://www.w3.org/1999/xlink">
    <title>notebook_2_line</title>
    <g id="页面-1" stroke="none" stroke-width="1" fill="none" fill-rule="evenodd">
        <g id="Education" transform="translate(-768.000000, 0.000000)">
            <g id="notebook_2_line" transform="translate(768.000000, 0.000000)">
                <rect id="矩形" fill-rule="nonzero" x="0" y="0" width="24" height="24"></rect>
                <path d="M6,2 C4.89543,2 4,2.89543 4,4 L4,20 C4,21.1046 4.89543,22 6,22 L17,22 C18.6569,22 20,20.6569 20,19 L20,5 C20,3.34315 18.6569,2 17,2 L6,2 Z M10,4 L6,4 L6,20 L17,20 C17.5523,20 18,19.5523 18,19 L18,5 C18,4.44772 17.5523,4 17,4 L16,4 L16,12.9759 C16,13.8756 14.9121,14.3263 14.2758,13.69 L13,12.4142 L11.7242,13.69 C11.0879,14.3263 10,13.8757 10,12.9759 L10,4 Z M14,4 L12,4 L12,10.5858 L12.2858,10.3 C12.6802,9.90554 13.3197,9.90553 13.7142,10.3 L14,10.5858 L14,4 Z" id="形状" fill="#09244B"></path>
            </g>
        </g>
    </g>
</svg>