<?xml version="1.0" encoding="UTF-8"?>
<svg width="24px" height="24px" viewBox="0 0 24 24" version="1.1" xmlns="http://www.w3.org/2000/svg" xmlns:xlink="http://www.w3.org/1999/xlink">
    <title>science_line</title>
    <g id="页面-1" stroke="none" stroke-width="1" fill="none" fill-rule="evenodd">
        <g id="Education" transform="translate(-432.000000, 0.000000)">
            <g id="science_line" transform="translate(432.000000, 0.000000)">
                <path d="M24,0 L24,24 L0,24 L0,0 L24,0 Z M12.5934901,23.257841 L12.5819402,23.2595131 L12.5108777,23.2950439 L12.4918791,23.2987469 L12.4918791,23.2987469 L12.4767152,23.2950439 L12.4056548,23.2595131 C12.3958229,23.2563662 12.3870493,23.2590235 12.3821421,23.2649074 L12.3780323,23.275831 L12.360941,23.7031097 L12.3658947,23.7234994 L12.3769048,23.7357139 L12.4804777,23.8096931 L12.4953491,23.8136134 L12.4953491,23.8136134 L12.5071152,23.8096931 L12.6106902,23.7357139 L12.6232938,23.7196733 L12.6232938,23.7196733 L12.6266527,23.7031097 L12.609561,23.275831 C12.6075724,23.2657013 12.6010112,23.2592993 12.5934901,23.257841 L12.5934901,23.257841 Z M12.8583906,23.1452862 L12.8445485,23.1473072 L12.6598443,23.2396597 L12.6498822,23.2499052 L12.6498822,23.2499052 L12.6471943,23.2611114 L12.6650943,23.6906389 L12.6699349,23.7034178 L12.6699349,23.7034178 L12.678386,23.7104931 L12.8793402,23.8032389 C12.8914285,23.8068999 12.9022333,23.8029875 12.9078286,23.7952264 L12.9118235,23.7811639 L12.8776777,23.1665331 C12.8752882,23.1545897 12.8674102,23.1470016 12.8583906,23.1452862 L12.8583906,23.1452862 Z M12.1430473,23.1473072 C12.1332178,23.1423925 12.1221763,23.1452606 12.1156365,23.1525954 L12.1099173,23.1665331 L12.0757714,23.7811639 C12.0751323,23.7926639 12.0828099,23.8018602 12.0926481,23.8045676 L12.108256,23.8032389 L12.3092106,23.7104931 L12.3186497,23.7024347 L12.3186497,23.7024347 L12.3225043,23.6906389 L12.340401,23.2611114 L12.337245,23.2485176 L12.337245,23.2485176 L12.3277531,23.2396597 L12.1430473,23.1473072 Z" id="MingCute" fill-rule="nonzero"></path>
                <path d="M13.9091,18.2894 C14.2678,18.4533 14.6149,18.5876 14.9479,18.6928 C16.6458,19.2293 17.7643,18.9637 18.3641,18.3639 C18.964,17.7641 19.2295,16.6455 18.6931,14.9476 C18.5879,14.6146 18.4536,14.2675 18.2896,13.9088 C17.6997,14.687 17.0162,15.4692 16.2428,16.2426 C15.4694,17.016 14.6873,17.6995 13.9091,18.2894 Z M12.0002,17.1996 C12.9131,16.5786 13.8664,15.7906 14.8286,14.8284 C15.7908,13.8662 16.5788,12.9129 17.1998,12 C16.5788,11.087 15.7908,10.1337 14.8286,9.1715 C13.8664,8.20935 12.9131,7.42136 12.0002,6.80033 C11.0873,7.42137 10.1339,8.20938 9.17175,9.17157 C8.20958,10.1337 7.4216,11.0871 6.80056,12 C7.4216,12.9129 8.20958,13.8662 9.17175,14.8284 C10.1339,15.7905 11.0873,16.5786 12.0002,17.1996 Z M5.71074,13.9088 C6.30069,14.687 6.98411,15.4692 7.75753,16.2426 C8.53098,17.016 9.31315,17.6995 10.0914,18.2894 C9.73263,18.4534 9.3855,18.5877 9.05247,18.6929 C7.35455,19.2293 6.23604,18.9638 5.63621,18.364 C5.03639,17.7641 4.77084,16.6456 5.30727,14.9477 C5.41249,14.6147 5.54679,14.2676 5.71074,13.9088 Z M4.44449,12 C3.98846,12.8026 3.63901,13.5892 3.40019,14.3452 C2.75464,16.3885 2.8692,18.4254 4.222,19.7782 C5.5748,21.131 7.6117,21.2455 9.65499,20.6 C10.4109,20.3612 11.1976,20.0117 12.0002,19.5557 C12.8028,20.0117 13.5895,20.3611 14.3454,20.5999 C16.3887,21.2455 18.4255,21.1309 19.7783,19.7781 C21.1311,18.4253 21.2457,16.3884 20.6002,14.3451 C20.3613,13.5892 20.0119,12.8026 19.5559,12 C20.0119,11.1974 20.3613,10.4107 20.6002,9.65481 C21.2457,7.61152 21.1311,5.57462 19.7783,4.22182 C18.4255,2.86903 16.3887,2.75446 14.3454,3.40001 C13.5895,3.63883 12.8028,3.98826 12.0002,4.44426 C11.1976,3.98822 10.4109,3.63877 9.65499,3.39994 C7.6117,2.75439 5.5748,2.86896 4.222,4.22176 C2.8692,5.57455 2.75464,7.61145 3.40019,9.65474 C3.63901,10.4107 3.98846,11.1973 4.44449,12 Z M5.71074,10.0911 C6.30069,9.31292 6.98411,8.53078 7.75753,7.75736 C8.53098,6.98391 9.31315,6.30047 10.0914,5.7105 C9.73263,5.54655 9.3855,5.41224 9.05247,5.30703 C7.35455,4.77059 6.23604,5.03615 5.63621,5.63597 C5.03639,6.23579 4.77084,7.35431 5.30727,9.05222 C5.41249,9.38526 5.54679,9.73238 5.71074,10.0911 Z M13.9091,5.71052 C14.2678,5.54659 14.6149,5.4123 14.9479,5.30709 C16.6458,4.77066 17.7643,5.03621 18.3641,5.63604 C18.964,6.23586 19.2295,7.35438 18.6931,9.05229 C18.5879,9.3853 18.4536,9.73239 18.2896,10.0911 C17.6997,9.31289 17.0162,8.53072 16.2428,7.75729 C15.4694,6.98388 14.6873,6.30047 13.9091,5.71052 Z M13.5001,12.0001 C13.5001,12.8285 12.8285,13.5001 12.0001,13.5001 C11.1716,13.5001 10.5001,12.8285 10.5001,12.0001 C10.5001,11.1717 11.1716,10.5001 12.0001,10.5001 C12.8285,10.5001 13.5001,11.1717 13.5001,12.0001 Z" id="形状" fill="#09244B"></path>
            </g>
        </g>
    </g>
</svg>