<?xml version="1.0" encoding="UTF-8"?>
<svg width="24px" height="24px" viewBox="0 0 24 24" version="1.1" xmlns="http://www.w3.org/2000/svg" xmlns:xlink="http://www.w3.org/1999/xlink">
    <title>airbnb_line</title>
    <g id="页面-1" stroke="none" stroke-width="1" fill="none" fill-rule="evenodd">
        <g id="airbnb_line" transform="translate(0.000000, -0.000000)">
            <rect id="矩形" fill-rule="nonzero" x="0" y="0" width="24" height="24"></rect>
            <path d="M11.9999,2.06543 C12.9915,2.06543 13.899,2.50833 14.6784,3.22816 C16.1389,4.57704 17.4497,6.92466 18.5212,9.27121 C19.6099,11.6556 20.5151,14.1854 21.1212,16.0196 C21.7929,18.0526 20.9137,20.2178 19.117,21.2958 C17.1967,22.448 14.722,22.0741 13.2414,20.3816 C12.848,19.9319 12.4237,19.4449 11.9999,18.955 C11.5762,19.4449 11.1519,19.9319 10.7584,20.3816 C9.27781,22.0741 6.80316,22.448 4.8828,21.2958 C3.08613,20.2178 2.20691,18.0526 2.87869,16.0196 C3.48477,14.1854 4.38997,11.6556 5.47869,9.27121 C6.55011,6.92466 7.8609,4.57704 9.32146,3.22816 C10.1009,2.50833 11.0084,2.06543 11.9999,2.06543 Z M13.3159,17.4189 C13.9466,16.6735 14.4866,16.0176 14.7999,15.5999 C15.7404,14.3459 15.9813,12.7484 15.5136,11.4182 C15.0275,10.0354 13.7865,8.99987 11.9999,8.99987 C10.2133,8.99987 8.97234,10.0354 8.48621,11.4182 C8.01857,12.7484 8.25941,14.3459 9.19992,15.5999 C9.51321,16.0176 10.0533,16.6735 10.684,17.4189 C10.2044,17.9747 9.71242,18.5398 9.25316,19.0648 C8.41575,20.0219 7.0102,20.2399 5.91179,19.5808 C4.87761,18.9603 4.41369,17.7487 4.7777,16.6471 C5.37263,14.8467 6.25184,12.3931 7.29801,10.1019 C8.36148,7.77279 9.53605,5.75242 10.6784,4.69743 C11.1945,4.22077 11.6393,4.06543 11.9999,4.06543 C12.3606,4.06543 12.8053,4.22077 13.3215,4.69743 C14.4638,5.75242 15.6384,7.77279 16.7018,10.1019 C17.748,12.3931 18.6272,14.8467 19.2221,16.6471 C19.5862,17.7487 19.1222,18.9603 18.0881,19.5808 C16.9896,20.2399 15.5841,20.0219 14.7467,19.0648 C14.2874,18.5398 13.7955,17.9747 13.3159,17.4189 Z M11.9999,15.8773 C11.4833,15.2633 11.054,14.7386 10.7999,14.3999 C10.2404,13.6539 10.1375,12.7514 10.373,12.0815 C10.59,11.4643 11.099,10.9999 11.9999,10.9999 C12.9008,10.9999 13.4098,11.4643 13.6268,12.0815 C13.8623,12.7514 13.7594,13.6539 13.1999,14.3999 C12.9458,14.7386 12.5166,15.2633 11.9999,15.8773 Z" id="形状" fill="#09244B"></path>
        </g>
    </g>
</svg>