<?xml version="1.0" encoding="UTF-8"?>
<svg width="24px" height="24px" viewBox="0 0 24 24" version="1.1" xmlns="http://www.w3.org/2000/svg" xmlns:xlink="http://www.w3.org/1999/xlink">
    <title>airbnb_fill</title>
    <g id="页面-1" stroke="none" stroke-width="1" fill="none" fill-rule="evenodd">
        <g id="Brand" transform="translate(0.000000, -48.000000)">
            <g id="airbnb_fill" transform="translate(0.000000, 48.000000)">
                <rect id="矩形" fill-rule="nonzero" x="0" y="0" width="24" height="24"></rect>
                <path d="M12,1.56543 C13.1493,1.56543 14.1724,2.08023 15.0177,2.86084 C16.5578,4.2832 17.9026,6.71263 18.9761,9.06353 C20.0754,11.4712 20.9871,14.0201 21.596,15.8627 C22.3447,18.1286 21.3616,20.5322 19.3744,21.7245 C17.2485,23 14.5066,22.5871 12.8652,20.7109 C12.5891,20.3953 12.297,20.0605 12,19.7184 C11.7029,20.0605 11.4108,20.3953 11.1348,20.7109 C9.49338,22.5871 6.75146,23 4.62561,21.7245 C2.63832,20.5322 1.65528,18.1286 2.404,15.8627 C3.01286,14.0201 3.92457,11.4712 5.02392,9.06353 C6.09733,6.71263 7.44217,4.2832 8.98229,2.86084 C9.82753,2.08023 10.8507,1.56543 12,1.56543 Z M13.9733,17.4148 C14.4902,16.7991 14.9276,16.2631 15.2,15.8999 C16.2357,14.5189 16.5111,12.7477 15.9854,11.2524 C15.432,9.67822 14.008,8.49987 12,8.49987 C9.99198,8.49987 8.56799,9.67822 8.01457,11.2524 C7.48889,12.7477 7.76422,14.5189 8.79998,15.8999 C9.07238,16.2631 9.5098,16.7991 10.0267,17.4148 C9.63897,17.8626 9.248,18.3113 8.8769,18.7355 C8.2003,19.5089 7.06202,19.6878 6.1691,19.1521 C5.32554,18.6459 4.96544,17.6727 5.25252,16.804 C5.84466,15.012 6.71737,12.5775 7.7529,10.3096 C8.81438,7.98482 9.9549,6.04626 11.0177,5.06475 C11.687,4.44657 12.3129,4.44657 12.9823,5.06475 C14.0451,6.04626 15.1856,7.98482 16.2471,10.3096 C17.2826,12.5775 18.1553,15.012 18.7474,16.804 C19.0345,17.6727 18.6744,18.6459 17.8309,19.1521 C16.9379,19.6878 15.7997,19.5089 15.1231,18.7355 C14.752,18.3113 14.361,17.8626 13.9733,17.4148 Z M12,15.0977 C11.6614,14.6894 11.3832,14.3441 11.2,14.0999 C10.7357,13.4809 10.6673,12.7521 10.8448,12.2474 C10.9945,11.8215 11.3205,11.4999 12,11.4999 C12.6795,11.4999 13.0055,11.8215 13.1552,12.2474 C13.3326,12.7521 13.2642,13.4809 12.8,14.0999 C12.6168,14.3441 12.3386,14.6894 12,15.0977 Z" id="形状" fill="#09244B"></path>
            </g>
        </g>
    </g>
</svg>