<?xml version="1.0" encoding="UTF-8"?>
<svg width="24px" height="24px" viewBox="0 0 24 24" version="1.1" xmlns="http://www.w3.org/2000/svg" xmlns:xlink="http://www.w3.org/1999/xlink">
    <title>alipay_fill</title>
    <g id="页面-1" stroke="none" stroke-width="1" fill="none" fill-rule="evenodd">
        <g id="Brand" transform="translate(-48.000000, -48.000000)" fill-rule="nonzero">
            <g id="alipay_fill" transform="translate(48.000000, 48.000000)">
                <rect id="矩形" x="0" y="0" width="24" height="24"></rect>
                <path d="M20.8927,16.5783 C21.6004,15.2065 22,13.6499 22,12 C22,6.47715 17.5228,2 12,2 C6.47715,2 2,6.47715 2,12 C2,17.5228 6.47715,22 12,22 C15.1509,22 17.9615,20.5427 19.7945,18.2653 L19.0693,17.9027 C17.8564,17.3512 16.8074,16.8572 15.8766,16.4189 C15.0719,16.04 14.3552,15.7026 13.6978,15.4057 C13.3905,15.8397 13.0809,16.2083 12.7696,16.5196 C11.648,17.6412 10.5201,18 9.5,18 C7.63195,18 6,16.8201 6,15 C6,13.316 7.47994,12 9,12 C10.2676,12 11.4939,12.3336 12.8869,12.8842 C13.0989,12.477 13.3152,12.0178 13.5345,11.5 L9,11.5 C8.44771,11.5 8,11.0523 8,10.5 C8,9.94772 8.44771,9.5 9,9.5 L11,9.5 L11,9 L8,9 C7.44772,9 7,8.55228 7,8 C7,7.44772 7.44772,7 8,7 L11,7 L11,6 C11,5.44772 11.4477,5 12,5 C12.5523,5 13,5.44772 13,6 L13,7 L16,7 C16.5523,7 17,7.44772 17,8 C17,8.55228 16.5523,9 16,9 L13,9 L13,9.5 L15,9.5 C15.3262,9.5 15.6319,9.65911 15.8191,9.9263 C16.0062,10.1935 16.0513,10.5352 15.9398,10.8417 C15.5415,11.9371 15.1373,12.8756 14.7282,13.6774 C15.3568,13.9639 16.041,14.2858 16.7884,14.6375 C17.726,15.0786 18.763,15.5665 19.9138,16.0896 C19.925,16.0947 19.9362,16.1001 19.9472,16.1056 L20.8927,16.5783 Z" id="路径" fill="#09244B"></path>
                <path d="M9,14 C9.82654,14 10.6871,14.1943 11.7969,14.608 C11.6454,14.798 11.498,14.9628 11.3554,15.1054 C10.602,15.8588 9.97992,16 9.5,16 C8.36805,16 8,15.3799 8,15 C8,14.484 8.52006,14 9,14 Z" id="路径" fill="#09244B"></path>
            </g>
        </g>
    </g>
</svg>