<?xml version="1.0" encoding="UTF-8"?>
<svg width="24px" height="24px" viewBox="0 0 24 24" version="1.1" xmlns="http://www.w3.org/2000/svg" xmlns:xlink="http://www.w3.org/1999/xlink">
    <title>Android_2_line</title>
    <g id="页面-1" stroke="none" stroke-width="1" fill="none" fill-rule="evenodd">
        <g id="Logo" transform="translate(0.000000, -96.000000)" fill-rule="nonzero">
            <g id="Android_2_line" transform="translate(0.000000, 96.000000)">
                <rect id="矩形" x="0" y="0" width="24" height="24"></rect>
                <path d="M18.4472,4.10555 C18.9412,4.35254 19.1414,4.95321 18.8944,5.44719 L17.7199,7.79629 C20.3074,9.60378 22,12.6042 22,16 L22,17 C22,18.1045 21.1046,19 20,19 L4,19 C2.89543,19 2,18.1045 2,17 L2,16 C2,12.6042 3.69258,9.60377 6.28012,7.79629 L5.10557,5.44719 C4.85858,4.95321 5.05881,4.35254 5.55279,4.10555 C6.04676,3.85856 6.64744,4.05878 6.89443,4.55276 L8.02799,6.81988 C9.24552,6.29237 10.5886,5.99997 12,5.99997 C13.4114,5.99997 14.7545,6.29237 15.972,6.81988 L17.1056,4.55276 C17.3526,4.05878 17.9532,3.85856 18.4472,4.10555 Z M12,7.99998 C7.58172,7.99998 4,11.5817 4,16 L4,17 L20,17 L20,16 C20,11.5817 16.4183,7.99998 12,7.99998 Z M8.5,12 C9.32843,12 10,12.6715 10,13.5 C10,14.3284 9.32843,15 8.5,15 C7.67157,15 7,14.3284 7,13.5 C7,12.6715 7.67157,12 8.5,12 Z M15.5,12 C16.3284,12 17,12.6715 17,13.5 C17,14.3284 16.3284,15 15.5,15 C14.6716,15 14,14.3284 14,13.5 C14,12.6715 14.6716,12 15.5,12 Z" id="形状" fill="#09244B"></path>
            </g>
        </g>
    </g>
</svg>