<?xml version="1.0" encoding="UTF-8"?>
<svg width="24px" height="24px" viewBox="0 0 24 24" version="1.1" xmlns="http://www.w3.org/2000/svg" xmlns:xlink="http://www.w3.org/1999/xlink">
    <title>android_line</title>
    <g id="页面-1" stroke="none" stroke-width="1" fill="none" fill-rule="evenodd">
        <g id="Brand" transform="translate(-96.000000, -0.000000)" fill-rule="nonzero">
            <g id="android_line" transform="translate(96.000000, 0.000000)">
                <rect id="矩形" x="0" y="0" width="24" height="24"></rect>
                <path d="M12,3 C13.3298,3 14.5838,3.32446 15.6872,3.89854 L16.2929,3.29289 C16.6834,2.90237 17.3166,2.90237 17.7071,3.29289 C18.0976,3.68342 18.0976,4.31658 17.7071,4.70711 L17.3564,5.05779 C18.9797,6.52196 20,8.64183 20,11 L20,19 C20,20.6569 18.6569,22 17,22 L7,22 C5.34315,22 4,20.6569 4,19 L4,11 C4,8.64183 5.02032,6.52196 6.64358,5.05779 L6.29289,4.70711 C5.90237,4.31658 5.90237,3.68342 6.29289,3.29289 C6.68342,2.90237 7.31658,2.90237 7.70711,3.29289 L8.31276,3.89854 C9.41616,3.32446 10.6702,3 12,3 Z M18,14 L6,14 L6,19 C6,19.5523 6.44772,20 7,20 L17,20 C17.5523,20 18,19.5523 18,19 L18,14 Z M12,5 C8.76160159,5 6.12242817,7.56557346 6.00413847,10.7750616 L6,11 L6,12 L18,12 L18,11 C18,7.68629 15.3137,5 12,5 Z M9,8 C9.55228,8 10,8.44772 10,9 C10,9.55228 9.55228,10 9,10 C8.44772,10 8,9.55228 8,9 C8,8.44772 8.44772,8 9,8 Z M15,8 C15.5523,8 16,8.44772 16,9 C16,9.55228 15.5523,10 15,10 C14.4477,10 14,9.55228 14,9 C14,8.44772 14.4477,8 15,8 Z" id="形状" fill="#09244B"></path>
            </g>
        </g>
    </g>
</svg>