<?xml version="1.0" encoding="UTF-8"?>
<svg width="24px" height="24px" viewBox="0 0 24 24" version="1.1" xmlns="http://www.w3.org/2000/svg" xmlns:xlink="http://www.w3.org/1999/xlink">
    <title>Android_2_fill</title>
    <g id="页面-1" stroke="none" stroke-width="1" fill="none" fill-rule="evenodd">
        <g id="Logo" transform="translate(0.000000, -144.000000)">
            <g id="Android_2_fill" transform="translate(0.000000, 144.000000)">
                <rect id="矩形" fill-rule="nonzero" x="0" y="0" width="24" height="24"></rect>
                <path d="M18.4472,4.10555 C18.9412,4.35254 19.1414,4.95321 18.8944,5.44719 L17.7199,7.79631 C20.3074,9.6038 22,12.6042 22,16 L22,17 C22,18.1046 21.1046,19 20,19 L4,19 C2.89543,19 2,18.1046 2,17 L2,16 C2,12.6042 3.69259,9.60379 6.28014,7.79631 L5.10558,5.44719 C4.85859,4.95321 5.05881,4.35254 5.55279,4.10555 C6.04677,3.85856 6.64744,4.05878 6.89443,4.55276 L8.028,6.8199 C9.24553,6.29239 10.5886,6 12,6 C13.4114,6 14.7545,6.29239 15.972,6.81991 L17.1056,4.55276 C17.3526,4.05878 17.9532,3.85856 18.4472,4.10555 Z M7.5,12 C6.67157,12 6,12.6716 6,13.5 C6,14.3284 6.67157,15 7.5,15 C8.32843,15 9,14.3284 9,13.5 C9,12.6716 8.32843,12 7.5,12 Z M16.5,12 C15.6716,12 15,12.6716 15,13.5 C15,14.3284 15.6716,15 16.5,15 C17.3284,15 18,14.3284 18,13.5 C18,12.6716 17.3284,12 16.5,12 Z" id="形状结合" fill="#09244B"></path>
            </g>
        </g>
    </g>
</svg>