<?xml version="1.0" encoding="UTF-8"?>
<svg width="24px" height="24px" viewBox="0 0 24 24" version="1.1" xmlns="http://www.w3.org/2000/svg" xmlns:xlink="http://www.w3.org/1999/xlink">
    <title>apple_line</title>
    <g id="页面-1" stroke="none" stroke-width="1" fill="none" fill-rule="evenodd">
        <g id="Brand" transform="translate(-144.000000, -0.000000)" fill-rule="nonzero">
            <g id="apple_line" transform="translate(144.000000, 0.000000)">
                 <path d="M24,0 L24,24 L0,24 L0,0 L24,0 Z M12.5934901,23.257841 L12.5819402,23.2595131 L12.5108777,23.2950439 L12.4918791,23.2987469 L12.4918791,23.2987469 L12.4767152,23.2950439 L12.4056548,23.2595131 C12.3958229,23.2563662 12.3870493,23.2590235 12.3821421,23.2649074 L12.3780323,23.275831 L12.360941,23.7031097 L12.3658947,23.7234994 L12.3769048,23.7357139 L12.4804777,23.8096931 L12.4953491,23.8136134 L12.4953491,23.8136134 L12.5071152,23.8096931 L12.6106902,23.7357139 L12.6232938,23.7196733 L12.6232938,23.7196733 L12.6266527,23.7031097 L12.609561,23.275831 C12.6075724,23.2657013 12.6010112,23.2592993 12.5934901,23.257841 L12.5934901,23.257841 Z M12.8583906,23.1452862 L12.8445485,23.1473072 L12.6598443,23.2396597 L12.6498822,23.2499052 L12.6498822,23.2499052 L12.6471943,23.2611114 L12.6650943,23.6906389 L12.6699349,23.7034178 L12.6699349,23.7034178 L12.678386,23.7104931 L12.8793402,23.8032389 C12.8914285,23.8068999 12.9022333,23.8029875 12.9078286,23.7952264 L12.9118235,23.7811639 L12.8776777,23.1665331 C12.8752882,23.1545897 12.8674102,23.1470016 12.8583906,23.1452862 L12.8583906,23.1452862 Z M12.1430473,23.1473072 C12.1332178,23.1423925 12.1221763,23.1452606 12.1156365,23.1525954 L12.1099173,23.1665331 L12.0757714,23.7811639 C12.0751323,23.7926639 12.0828099,23.8018602 12.0926481,23.8045676 L12.108256,23.8032389 L12.3092106,23.7104931 L12.3186497,23.7024347 L12.3186497,23.7024347 L12.3225043,23.6906389 L12.340401,23.2611114 L12.337245,23.2485176 L12.337245,23.2485176 L12.3277531,23.2396597 L12.1430473,23.1473072 Z" id="MingCute" fill-rule="nonzero"></path>
                <path d="M13.0642063,6.68503859 L13.8086928,6.3792228 C14.4141414,6.1381387 15.1955385,5.89389769 16.1192,6.04915 C18.01,6.36695 19.3145,7.38793 20.0914,8.74213 C20.3908,9.26401 20.1489,9.95146 19.5887,10.1709 C18.6569,10.5358 17.9999,11.4424 17.9999,12.4999 C17.9999,13.6076 18.7211,14.5496 19.7222,14.8768 C20.2405,15.0463 20.5317,15.6216 20.3615,16.1396 C19.9201,17.4823 19.2836,18.7212 18.5305,19.7212 C17.7871,20.7085 16.879,21.5295 15.868,21.9297 C15.1956154,22.1958538 14.4770769,22.0907059 13.7896718,21.9171238 L13.3815831,21.8071853 L13.3815831,21.8071853 L12.7971312,21.6442953 L12.7971312,21.6442953 L12.478125,21.5649625 C12.285225,21.521675 12.12985,21.4982 11.9999,21.4982 C11.86995,21.4982 11.714575,21.521675 11.521675,21.5649625 L11.2026687,21.6442953 L11.2026687,21.6442953 L10.4153636,21.863332 C9.66695213,22.0660349 8.87146077,22.2224692 8.13188,21.9297 C6.85861,21.4257 5.73553,20.2497 4.88738,18.8633 C4.02419,17.4522 3.37005,15.7027 3.10335,13.8774 C2.87624,12.3229 2.99884,10.5784 3.71813,9.10178 C4.45891,7.58105 5.81382,6.39659 7.8806,6.04915 C8.72039231,5.90798077 9.44255148,6.09701272 10.0217748,6.31368782 L10.3519541,6.4445896 L10.3519541,6.4445896 L10.9356922,6.68504281 C11.3354,6.8416625 11.65145,6.93389 11.9999,6.93389 C12.348425,6.93389 12.6644938,6.84165687 13.0642063,6.68503859 Z M10.189701,8.54186568 L9.84233,8.39927 C9.11083,8.09279 8.70355,7.93887 8.21216,8.02148 C6.81959,8.25558 5.99077,9.0033 5.51615,9.97764 C5.02002,10.9961 4.89553,12.3096 5.08234,13.5882 C5.30986,15.1455 5.87088,16.6384 6.59347,17.8196 C7.33112,19.0254 8.16446,19.7916 8.86795,20.0701 C9.108058,20.16514 9.4532608,20.090368 9.77255872,19.9921888 L10.215702,19.8456652 C10.2591425,19.831501 10.300044,19.81872 10.3378,19.808 L10.7711493,19.6888122 C11.1566245,19.5888633 11.5924714,19.4982 11.9999,19.4982 C12.4073286,19.4982 12.8431755,19.5888633 13.2286507,19.6888122 L13.662,19.808 L13.662,19.808 L13.7841086,19.8456652 L13.7841086,19.8456652 L14.2272704,19.9921888 C14.546576,20.090368 14.89178,20.16514 15.1319,20.0701 C15.6785,19.8537 16.3154,19.3381 16.9329,18.5181 C17.3921,17.9083 17.8128,17.1662 18.155,16.3411 C16.8631,15.5509 15.9999,14.127 15.9999,12.4999 C15.9999,11.0535 16.6821,9.76783 17.7407,8.94507 C17.2674,8.49424 16.6333,8.16361 15.7877,8.02148 C15.34544,7.947158 14.971301,8.0643929 14.3677052,8.31199973 L14.1576,8.39928 C13.6168,8.62583 12.8815,8.93389 11.9999,8.93389 C11.29462,8.93389 10.682972,8.7367252 10.189701,8.54186568 L10.189701,8.54186568 Z M11.7679,2.76766 C12.7442,1.79135 14.2428,1.707 14.5963,2.06056 C14.9499,2.41411 14.8655,3.91267 13.8892,4.88898 C12.9129,5.86529 11.4143,5.94964 11.0608,5.59609 C10.7072,5.24254 10.7916,3.74397 11.7679,2.76766 Z" id="形状" fill="#09244B"></path>
            </g>
        </g>
    </g>
</svg>