<svg xmlns="http://www.w3.org/2000/svg" width="24" height="24"><g fill="none" fill-rule="evenodd"><path d="M24 0v24H0V0zM12.594 23.258l-.012.002-.071.035-.02.004-.014-.004-.071-.036c-.01-.003-.019 0-.024.006l-.004.01-.017.428.005.02.01.013.104.074.015.004.012-.004.104-.074.012-.016.004-.017-.017-.427c-.002-.01-.009-.017-.016-.018m.264-.113-.014.002-.184.093-.01.01-.003.011.018.43.005.012.008.008.201.092c.012.004.023 0 .029-.008l.004-.014-.034-.614c-.003-.012-.01-.02-.02-.022m-.715.002a.023.023 0 0 0-.027.006l-.006.014-.034.614c0 .012.007.02.017.024l.015-.002.201-.093.01-.008.003-.011.018-.43-.003-.012-.01-.01z"/><path fill="#09244B" d="M17 3a4 4 0 0 1 3.995 3.8L21 7v10a4 4 0 0 1-3.8 3.995L17 21H7a4 4 0 0 1-3.995-3.8L3 17V7a4 4 0 0 1 3.8-3.995L7 3zm-5.004 1.971c-.525 0-.96.15-1.325.438-.344.273-.588.643-.795 1.013-.102.184-.198.37-.293.561a14.28 14.28 0 0 0-.582-.117c-.421-.075-.866-.12-1.298-.025-.457.1-.85.345-1.184.757-.354.437-.507.899-.492 1.392.013.46.173.909.351 1.328.062.146.128.293.197.444a15.63 15.63 0 0 0-.45.383c-.324.289-.64.614-.836 1.015-.209.425-.262.89-.14 1.414.115.5.35.885.7 1.174.334.274.737.431 1.133.55.203.06.43.116.665.173.002.26.007.513.024.744.03.402.098.817.292 1.192.204.394.523.7.97.918.496.241.97.29 1.44.174.441-.11.836-.356 1.197-.615.143-.103.285-.21.43-.321.145.111.288.22.432.322.361.259.755.504 1.195.613.47.116.945.066 1.439-.174.449-.22.767-.525.971-.92.194-.376.262-.792.29-1.195.017-.23.022-.481.025-.74.235-.057.463-.114.667-.175.396-.119.798-.277 1.13-.55.35-.29.585-.674.7-1.173.12-.524.067-.99-.142-1.416-.197-.4-.514-.726-.838-1.015a15.77 15.77 0 0 0-.448-.381c.069-.151.135-.3.198-.447.177-.419.336-.866.349-1.326.014-.493-.14-.954-.493-1.391-.334-.412-.728-.657-1.186-.756-.432-.095-.877-.05-1.299.025-.193.035-.384.075-.58.118a14.195 14.195 0 0 0-.294-.563c-.207-.37-.452-.739-.796-1.01-.364-.289-.799-.438-1.324-.438M8.853 15.777c.296.086.604.188.924.315.468.231.865.477 1.221.724l-.127.093c-.336.241-.577.373-.786.425-.179.045-.366.038-.624-.087-.238-.117-.356-.247-.431-.391-.084-.163-.136-.387-.161-.729a7.443 7.443 0 0 1-.016-.35m6.295-.001a7.42 7.42 0 0 1-.016.347c-.025.343-.076.568-.16.73-.075.145-.193.276-.431.392-.258.126-.445.132-.625.088-.178-.044-.38-.147-.646-.327l-.267-.19a9.569 9.569 0 0 1 1.229-.729c.317-.125.622-.226.916-.311M13.758 8.35c.188.353.405.733.661 1.117l.214.308.015.018c.437.517.89.944 1.306 1.304-.213.501-.432 1.08-.599 1.744l-.083.36-.003.023c-.065.47-.092.905-.104 1.3-.342.09-.712.2-1.103.343l-.318.121-.02.01a11.55 11.55 0 0 0-1.725 1.057c-.398-.29-.857-.598-1.388-.883l-.347-.179-.022-.008c-.505-.202-.979-.345-1.41-.46-.009-.294-.026-.61-.061-.946l-.044-.365-.005-.022c-.173-.811-.43-1.506-.68-2.093.33-.286.686-.616 1.037-1l.277-.315.013-.018c.35-.485.632-.971.867-1.415.411.08.866.155 1.355.197l.402.027.03-.001c.635-.031 1.22-.122 1.735-.224m-6.68 3.556c.177.447.342.941.466 1.514.037.28.06.55.075.807l-.294-.08c-.346-.104-.566-.206-.713-.327-.13-.107-.234-.252-.295-.517-.063-.274-.03-.456.05-.616.078-.16.215-.328.438-.54l.12-.108c.047-.043.098-.087.152-.133m9.841-.003.151.132c.296.263.469.463.56.648.08.16.113.343.05.617-.061.264-.165.41-.294.516-.147.122-.366.224-.711.327l-.296.082c.014-.26.037-.532.075-.816a9.49 9.49 0 0 1 .465-1.506M8.793 8.047l.222.043c-.17.304-.365.62-.605.956a9.74 9.74 0 0 1-.882.908l-.045-.105c-.169-.397-.25-.67-.257-.895-.006-.19.042-.374.226-.601.175-.216.337-.302.508-.34.197-.043.454-.032.833.034m7.24-.036c.172.037.334.123.51.34.183.226.23.41.225.6-.005.192-.065.42-.188.731l-.113.27a9.72 9.72 0 0 1-.887-.915 9.948 9.948 0 0 1-.6-.948l.22-.043c.38-.067.636-.078.834-.035m-4.037-1.84c.277 0 .444.071.58.179.156.123.308.324.492.654.04.071.082.15.125.233a9.852 9.852 0 0 1-1.2.138 9.88 9.88 0 0 1-1.192-.137l.123-.232c.185-.33.337-.533.493-.656.136-.108.303-.179.58-.179"/></g></svg>