<?xml version="1.0" encoding="UTF-8"?>
<svg width="24px" height="24px" viewBox="0 0 24 24" version="1.1" xmlns="http://www.w3.org/2000/svg" xmlns:xlink="http://www.w3.org/1999/xlink">
    <title>appstore_fill</title>
    <g id="页面-1" stroke="none" stroke-width="1" fill="none" fill-rule="evenodd">
        <g id="Brand" transform="translate(-192.000000, -48.000000)">
            <g id="appstore_fill" transform="translate(192.000000, 48.000000)">
                 <path d="M24,0 L24,24 L0,24 L0,0 L24,0 Z M12.5934901,23.257841 L12.5819402,23.2595131 L12.5108777,23.2950439 L12.4918791,23.2987469 L12.4918791,23.2987469 L12.4767152,23.2950439 L12.4056548,23.2595131 C12.3958229,23.2563662 12.3870493,23.2590235 12.3821421,23.2649074 L12.3780323,23.275831 L12.360941,23.7031097 L12.3658947,23.7234994 L12.3769048,23.7357139 L12.4804777,23.8096931 L12.4953491,23.8136134 L12.4953491,23.8136134 L12.5071152,23.8096931 L12.6106902,23.7357139 L12.6232938,23.7196733 L12.6232938,23.7196733 L12.6266527,23.7031097 L12.609561,23.275831 C12.6075724,23.2657013 12.6010112,23.2592993 12.5934901,23.257841 L12.5934901,23.257841 Z M12.8583906,23.1452862 L12.8445485,23.1473072 L12.6598443,23.2396597 L12.6498822,23.2499052 L12.6498822,23.2499052 L12.6471943,23.2611114 L12.6650943,23.6906389 L12.6699349,23.7034178 L12.6699349,23.7034178 L12.678386,23.7104931 L12.8793402,23.8032389 C12.8914285,23.8068999 12.9022333,23.8029875 12.9078286,23.7952264 L12.9118235,23.7811639 L12.8776777,23.1665331 C12.8752882,23.1545897 12.8674102,23.1470016 12.8583906,23.1452862 L12.8583906,23.1452862 Z M12.1430473,23.1473072 C12.1332178,23.1423925 12.1221763,23.1452606 12.1156365,23.1525954 L12.1099173,23.1665331 L12.0757714,23.7811639 C12.0751323,23.7926639 12.0828099,23.8018602 12.0926481,23.8045676 L12.108256,23.8032389 L12.3092106,23.7104931 L12.3186497,23.7024347 L12.3186497,23.7024347 L12.3225043,23.6906389 L12.340401,23.2611114 L12.337245,23.2485176 L12.337245,23.2485176 L12.3277531,23.2396597 L12.1430473,23.1473072 Z" id="MingCute" fill-rule="nonzero"></path>
                <path d="M12,2 C17.5228,2 22,6.47715 22,12 C22,17.5228 17.5228,22 12,22 C6.47715,22 2,17.5228 2,12 C2,6.47715 6.47715,2 12,2 Z M12.5,13.0001 L6.29999,13.0001 C5.7477,13.0001 5.29999,13.4478 5.29999,14.0001 C5.29999,14.5523 5.7477,15.0001 6.29999,15.0001 L6.81384,15.0001 L6.52749,15.5114 C6.25764,15.9933 6.42952,16.6027 6.91139,16.8725 C7.39326,17.1424 8.00265,16.9705 8.2725,16.4886 L9.10608,15.0001 L12.5,15.0001 C13.0523,15.0001 13.5,14.5523 13.5,14.0001 C13.5,13.4478 13.0523,13.0001 12.5,13.0001 Z M14.3925,10.0115 C14.1226,9.52958 13.5133,9.3577 13.0314,9.62755 C12.5839214,9.878125 12.4037388,10.4214753 12.5963785,10.8836544 L12.6475,10.9887 L15.7275,16.4887 C15.9973,16.9705 16.6067,17.1424 17.0886,16.8726 C17.5360786,16.6219786 17.716175,16.078625 17.523603,15.6165257 L17.4725,15.5115 L17.1861,15.0001 L17.7,15.0001 C18.2523,15.0001 18.7,14.5523 18.7,14.0001 C18.7,13.48725 18.313973,13.0645908 17.8166239,13.0068275 L17.7,13.0001 L16.0661,13.0001 L14.3925,10.0115 Z M11.8725,5.51151 C11.6027,5.02963 10.9933,4.85776 10.5114,5.1276 C10.0639214,5.378175 9.88378189,5.92151663 10.0763877,6.38367052 L10.1275,6.48871 L10.8539,7.78578 L9.04748,11.0115 C8.77763,11.4933 8.94951,12.1027 9.43138,12.3726 C9.87883071,12.6231286 10.4362004,12.4928036 10.7296388,12.0871515 L10.7925,11.9887 L13.8725,6.48866 C14.1423,6.00679 13.9705,5.3974 13.4886,5.12755 C13.0411214,4.876975 12.4837066,5.00727944 12.190342,5.4129849 L12.1275,5.51145 L12,5.73913 L11.8725,5.51151 Z" id="形状" fill="#09244B"></path>
            </g>
        </g>
    </g>
</svg>