<?xml version="1.0" encoding="UTF-8"?>
<svg width="24px" height="24px" viewBox="0 0 24 24" version="1.1" xmlns="http://www.w3.org/2000/svg" xmlns:xlink="http://www.w3.org/1999/xlink">
    <title>appstore_fill</title>
    <g id="页面-1" stroke="none" stroke-width="1" fill="none" fill-rule="evenodd">
        <g id="Brand" transform="translate(-192.000000, -48.000000)">
            <g id="appstore_fill" transform="translate(192.000000, 48.000000)">
                <rect id="矩形" fill-rule="nonzero" x="0" y="0" width="24" height="24"></rect>
                <path d="M12,2 C17.5228,2 22,6.47715 22,12 C22,17.5228 17.5228,22 12,22 C6.47715,22 2,17.5228 2,12 C2,6.47715 6.47715,2 12,2 Z M12.5,13.0001 L6.29999,13.0001 C5.7477,13.0001 5.29999,13.4478 5.29999,14.0001 C5.29999,14.5523 5.7477,15.0001 6.29999,15.0001 L6.81384,15.0001 L6.52749,15.5114 C6.25764,15.9933 6.42952,16.6027 6.91139,16.8725 C7.39326,17.1424 8.00265,16.9705 8.2725,16.4886 L9.10608,15.0001 L12.5,15.0001 C13.0523,15.0001 13.5,14.5523 13.5,14.0001 C13.5,13.4478 13.0523,13.0001 12.5,13.0001 Z M14.3925,10.0115 C14.1226,9.52958 13.5133,9.3577 13.0314,9.62755 C12.5839214,9.878125 12.4037388,10.4214753 12.5963785,10.8836544 L12.6475,10.9887 L15.7275,16.4887 C15.9973,16.9705 16.6067,17.1424 17.0886,16.8726 C17.5360786,16.6219786 17.716175,16.078625 17.523603,15.6165257 L17.4725,15.5115 L17.1861,15.0001 L17.7,15.0001 C18.2523,15.0001 18.7,14.5523 18.7,14.0001 C18.7,13.48725 18.313973,13.0645908 17.8166239,13.0068275 L17.7,13.0001 L16.0661,13.0001 L14.3925,10.0115 Z M11.8725,5.51151 C11.6027,5.02963 10.9933,4.85776 10.5114,5.1276 C10.0639214,5.378175 9.88378189,5.92151663 10.0763877,6.38367052 L10.1275,6.48871 L10.8539,7.78578 L9.04748,11.0115 C8.77763,11.4933 8.94951,12.1027 9.43138,12.3726 C9.87883071,12.6231286 10.4362004,12.4928036 10.7296388,12.0871515 L10.7925,11.9887 L13.8725,6.48866 C14.1423,6.00679 13.9705,5.3974 13.4886,5.12755 C13.0411214,4.876975 12.4837066,5.00727944 12.190342,5.4129849 L12.1275,5.51145 L12,5.73913 L11.8725,5.51151 Z" id="形状" fill="#09244B"></path>
            </g>
        </g>
    </g>
</svg>