<svg xmlns="http://www.w3.org/2000/svg" width="24" height="24" viewBox="0 0 24 24"><g fill="none" fill-rule="evenodd"><path d="M24,0 L24,24 L0,24 L0,0 L24,0 Z M12.5935,23.2578 L12.5819,23.2595 L12.5109,23.295 L12.4919,23.2987 L12.4767,23.295 L12.4057,23.2595 C12.3958,23.2564 12.387,23.259 12.3821,23.2649 L12.378,23.2758 L12.3609,23.7031 L12.3659,23.7235 L12.3769,23.7357 L12.4805,23.8097 L12.4953,23.8136 L12.5071,23.8097 L12.6107,23.7357 L12.6233,23.7197 L12.6267,23.7031 L12.6096,23.2758 C12.6076,23.2657 12.601,23.2593 12.5935,23.2578 Z M12.8584,23.1453 L12.8445,23.1473 L12.6598,23.2397 L12.6499,23.2499 L12.6472,23.2611 L12.6651,23.6906 L12.6699,23.7034 L12.6784,23.7105 L12.8793,23.8032 C12.8914,23.8069 12.9022,23.803 12.9078,23.7952 L12.9118,23.7812 L12.8777,23.1665 C12.8753,23.1546 12.8674,23.147 12.8584,23.1453 Z M12.143,23.1473 C12.1332,23.1424 12.1222,23.1453 12.1156,23.1526 L12.1099,23.1665 L12.0758,23.7812 C12.0751,23.7927 12.0828,23.8019 12.0926,23.8046 L12.1083,23.8032 L12.3092,23.7105 L12.3186,23.7024 L12.3225,23.6906 L12.3404,23.2611 L12.3372,23.2485 L12.3278,23.2397 L12.143,23.1473 Z"/><path fill="#09244B" d="M8,4.5 C10.4853,4.5 12.5,6.51472 12.5,9 C12.5,10.1525 12.0667,11.2039 11.3542,12 C12.0667,12.7961 12.5,13.8475 12.5,15 C12.5,17.4853 10.4853,19.5 8,19.5 L4,19.5 C2.61929,19.5 1.5,18.3807 1.5,17 L1.5,7 C1.5,5.61929 2.61929,4.5 4,4.5 L8,4.5 Z M17.5,8.5 C20.4433,8.5 22.5,11.1568 22.5,14 C22.5,14.7796706 21.9050879,15.4204457 21.1444558,15.4931332 L21,15.5 L20.5039,15.5 C20.9042,15.5011 21.3031,15.6615 21.5975,15.9775 C22.1622,16.5837 22.1286,17.5328 21.5225,18.0975 C20.6274,18.9314 19.3365,19.5 17.5,19.5 C14.5567,19.5 12.5,16.8432 12.5,14 C12.5,11.1568 14.5567,8.5 17.5,8.5 Z M8,13.5 L4.5,13.5 L4.5,16.5 L8,16.5 C8.82843,16.5 9.5,15.8284 9.5,15 C9.5,14.2203294 8.90511446,13.5795543 8.14446046,13.5068668 L8,13.5 Z M20.4955,15.5 L15.8998,15.5 C16.2972,16.1449 16.9283,16.5 17.5,16.5 C18.6635,16.5 19.1975,16.1633 19.4775,15.9025 C19.7654,15.6343 20.1307,15.501 20.4955,15.5 Z M17.5,11.5 C16.9283,11.5 16.2972,11.8551 15.8998,12.5 L19.1002,12.5 C18.7028,11.8551 18.0717,11.5 17.5,11.5 Z M8,7.5 L4.5,7.5 L4.5,10.5 L8,10.5 C8.82843,10.5 9.5,9.82843 9.5,9 C9.5,8.17157 8.82843,7.5 8,7.5 Z M19,5.5 C19.8284,5.5 20.5,6.17157 20.5,7 C20.5,7.82843 19.8284,8.5 19,8.5 L16,8.5 C15.1716,8.5 14.5,7.82843 14.5,7 C14.5,6.17157 15.1716,5.5 16,5.5 L19,5.5 Z"/></g></svg>