<svg xmlns="http://www.w3.org/2000/svg" width="24" height="24"><g fill="none" fill-rule="evenodd"><path d="M24 0v24H0V0zM12.594 23.258l-.012.002-.071.035-.02.004-.014-.004-.071-.036c-.01-.003-.019 0-.024.006l-.004.01-.017.428.005.02.01.013.104.074.015.004.012-.004.104-.074.012-.016.004-.017-.017-.427c-.002-.01-.009-.017-.016-.018m.264-.113-.014.002-.184.093-.01.01-.003.011.018.43.005.012.008.008.201.092c.012.004.023 0 .029-.008l.004-.014-.034-.614c-.003-.012-.01-.02-.02-.022m-.715.002a.023.023 0 0 0-.027.006l-.006.014-.034.614c0 .012.007.02.017.024l.015-.002.201-.093.01-.008.003-.011.018-.43-.003-.012-.01-.01z"/><path fill="#09244B" d="M17.555 3.168a1 1 0 0 1 .277 1.387L16.87 6H18a4 4 0 0 1 4 4v7a4 4 0 0 1-4 4H6a4 4 0 0 1-4-4v-7a4 4 0 0 1 4-4h1.131l-.963-1.445a1 1 0 0 1 1.664-1.11L9.535 6h4.93l1.703-2.555a1 1 0 0 1 1.387-.277M9 11a1 1 0 0 0-.993.883L8 12v2a1 1 0 0 0 1.993.117L10 14v-2a1 1 0 0 0-1-1m6 0a1 1 0 0 0-1 1v2a1 1 0 1 0 2 0v-2a1 1 0 0 0-1-1"/></g></svg>