<svg xmlns="http://www.w3.org/2000/svg" width="24" height="24"><g fill="none"><path d="M24 0v24H0V0zM12.594 23.258l-.012.002-.071.035-.02.004-.014-.004-.071-.036c-.01-.003-.019 0-.024.006l-.004.01-.017.428.005.02.01.013.104.074.015.004.012-.004.104-.074.012-.016.004-.017-.017-.427c-.002-.01-.009-.017-.016-.018m.264-.113-.014.002-.184.093-.01.01-.003.011.018.43.005.012.008.008.201.092c.012.004.023 0 .029-.008l.004-.014-.034-.614c-.003-.012-.01-.02-.02-.022m-.715.002a.023.023 0 0 0-.027.006l-.006.014-.034.614c0 .012.007.02.017.024l.015-.002.201-.093.01-.008.003-.011.018-.43-.003-.012-.01-.01z"/><path fill="#09244B" d="M5.892 2.93c-1.78-1.06-3.813.446-3.63 2.359l.398 4.185c.176 1.855 1.84 4.026 4.195 3.823C4.5 14 3.132 15.865 4.88 18.145c.286.373.597.745.914 1.062.317.317.69.628 1.062.914 1.88 1.441 4.375-.65 5.055-2.69l.09-.268.09.269c.68 2.04 3.174 4.13 5.055 2.689.372-.286.745-.597 1.062-.914.317-.317.628-.69.914-1.062 1.747-2.28.379-4.145-1.976-4.848 2.355.203 4.018-1.968 4.195-3.823l.399-4.185c.182-1.913-1.852-3.418-3.631-2.36C15.2 4.66 13.485 7.393 12 9.902 10.515 7.392 8.8 4.66 5.892 2.93"/></g></svg>