<svg xmlns="http://www.w3.org/2000/svg" width="24" height="24" viewBox="0 0 24 24"><title>deepseek_line</title><g fill="none" fill-rule="nonzero"><path d="M24 0v24H0V0zM12.594 23.258l-.012.002-.071.035-.02.004-.014-.004-.071-.036q-.016-.004-.024.006l-.004.01-.017.428.005.02.01.013.104.074.015.004.012-.004.104-.074.012-.016.004-.017-.017-.427q-.004-.016-.016-.018m.264-.113-.014.002-.184.093-.01.01-.003.011.018.43.005.012.008.008.201.092q.019.005.029-.008l.004-.014-.034-.614q-.005-.019-.02-.022m-.715.002a.02.02 0 0 0-.027.006l-.006.014-.034.614q.001.018.017.024l.015-.002.201-.093.01-.008.003-.011.018-.43-.003-.012-.01-.01z"/><path fill="#09244b" d="M15.733 4.285c.392.06.662.287.82.52.149.22.167.53.337.726.296.341.845.441 1.17.796a3.05 3.05 0 0 1 1.298-.198c.208.011.426-.365.572-.48.18-.142.649-.43 1.215-.215.603.262.91.83.855 1.473v.003c-.119 1.344-.657 2.644-2.085 3.425h.001q-.341.19-.687.37c-.224 1.432-.574 2.838-1.39 4.058-.198.296-.401.55-.595.772.412.186.785.39.951.845.09.247.107.518.05.778-.131.583-.6 1-1.208 1.13h-.005c-.39.081-.954.17-1.567.113a6 6 0 0 1-1.073-.166c-1.453 1.051-2.776 1.202-3.863 1.265-2.096.123-3.947-.53-5.524-1.831-1.418-1.17-2.393-2.671-2.795-4.473-.4-1.986-.17-4.007 1.048-5.681 1.007-1.323 2.4-2.185 4.07-2.371a6.4 6.4 0 0 1 1.99.073c.793-.27 1.553-.59 2.41-.594.395-.002.879.061 1.24.35.183.146.514.513.419 1.06-.06.345-.256.564-.445.698.481.343.826.71 1.159 1.207-.249-.977-.153-2.047.335-2.938l.004-.008c.265-.476.735-.793 1.293-.707m-11.674 6.4c-.083.57-.063 1.17.048 1.798.257 1.461.997 2.675 2.171 3.644 1.21.998 2.569 1.47 4.133 1.378l.001-.001c.523-.03 1.036-.078 1.568-.248-.88-.616-1.506-1.482-2.004-2.283-.409-.658-.759-1.312-1.105-1.875-.354-.576-.676-1.012-1.017-1.308-.648-.56-1.183-.821-1.682-.97-.313-.093-1.967-.599-2.113-.135m6.67-3.853c-.476.162-1.026.488-1.548.389-.634-.12-1.011-.16-1.63-.091-1.084.12-1.937.603-2.594 1.452.549.065 1.167.138 1.785.322.785.234 1.568.637 2.42 1.373.58.502 1.032 1.152 1.413 1.773.39.634.738 1.286 1.099 1.867.745 1.2 1.455 1.956 2.498 2.13.132.022.316.093.433.142a1.01 1.01 0 0 1 .191-.941c.456-.539.986-1.007 1.38-1.597.407-.607.815-1.495 1.038-3.002.051-.346.062-.732.232-1.047.138-.259.374-.471.689-.586.486-.228 1.035-.469 1.385-.892-.437.03-.788-.002-1.128.343a1 1 0 0 1-1.697-.535c-.061-.358-.403-.422-.681-.581.089.43.292.782.558 1.01.244.185.471.365.588.661.261.662-.186 1.261-.523 1.795-.174.275-.311.533-.62.683-.466.225-.895.035-.964.007l-.009-.004c-.584-.244-1.04-.511-1.53-.99-.423-.41-.731-.931-.947-1.269-.357-.557-.789-.769-1.239-1.206-.33-.321-.567-.74-.598-1.206"/></g></svg>