<svg xmlns="http://www.w3.org/2000/svg" width="24" height="24" viewBox="0 0 24 24"><title>deepseek_fill</title><g fill="none" fill-rule="nonzero"><path d="M24 0v24H0V0zM12.594 23.258l-.012.002-.071.035-.02.004-.014-.004-.071-.036q-.016-.004-.024.006l-.004.01-.017.428.005.02.01.013.104.074.015.004.012-.004.104-.074.012-.016.004-.017-.017-.427q-.004-.016-.016-.018m.264-.113-.014.002-.184.093-.01.01-.003.011.018.43.005.012.008.008.201.092q.019.005.029-.008l.004-.014-.034-.614q-.005-.019-.02-.022m-.715.002a.02.02 0 0 0-.027.006l-.006.014-.034.614q.001.018.017.024l.015-.002.201-.093.01-.008.003-.011.018-.43-.003-.012-.01-.01z"/><path fill="#09244b" d="M15.718 4.251h.008l-.001.001c.392.06.663.287.821.52a1.6 1.6 0 0 1 .197.42c.037.103.066.222.139.306.12.139.362.209.524.29.232.13.453.295.647.506a3.05 3.05 0 0 1 1.297-.198.13.13 0 0 0 .074-.013c.196-.096.326-.331.498-.467.193-.152.712-.468 1.33-.166.314.176.561.426.676.777.097.298.07.596.037.901-.162 1.253-.72 2.442-2.058 3.174-.011.006-.458.253-.686.37-.224 1.432-.574 2.838-1.39 4.058-.198.296-.401.55-.595.772.152.069.303.136.449.216.274.17.427.424.503.629.09.246.107.518.048.778-.131.588-.63 1.014-1.212 1.13q-.345.064-.69.1c-1.471-.373-2.656-1.432-3.688-2.756-.641-.822-1.185-1.695-1.688-2.5-.444-.709-.883-1.425-1.458-2.037-.963-.956-2.136-1.577-3.512-1.778a3.6 3.6 0 0 0-.941-.028 1.6 1.6 0 0 0-.775.3c-.338.256-.53.656-.51 1.104v.001a6.45 6.45 0 0 0 .826 2.858h-.001c.667 1.205 1.78 2.153 3.121 2.562a1 1 0 0 0 .584-1.913c-.813-.248-1.524-.838-1.956-1.618a5 5 0 0 1-.48-1.258c.858.157 1.595.554 2.236 1.19.287.284.645.838 1.17 1.678.493.79 1.091 1.752 1.806 2.67.574.735 1.252 1.473 2.048 2.094-.957.41-1.833.499-2.595.543-1.964.117-3.713-.451-5.224-1.595-1.632-1.286-2.803-3.002-3.168-5.073-.325-1.839-.065-3.686 1.121-5.317 1.008-1.323 2.4-2.185 4.07-2.372a6.4 6.4 0 0 1 1.99.074c.793-.27 1.554-.59 2.41-.594.395-.002.879.061 1.241.35.182.146.513.513.418 1.06-.06.344-.256.564-.445.698a4.9 4.9 0 0 1 1.159 1.207q-.027-.096-.048-.194c-.184-.901-.079-1.9.383-2.744l.004-.008c.167-.289.376-.531.698-.65.2-.074.401-.086.588-.058"/></g></svg>