<?xml version="1.0" encoding="UTF-8"?>
<svg width="24px" height="24px" viewBox="0 0 24 24" version="1.1" xmlns="http://www.w3.org/2000/svg" xmlns:xlink="http://www.w3.org/1999/xlink">
    <title>dribbble_line</title>
    <g id="Icon" stroke="none" stroke-width="1" fill="none" fill-rule="evenodd">
        <g id="Logo" transform="translate(-96.000000, -96.000000)">
            <g id="dribbble_line" transform="translate(96.000000, 96.000000)">
                <path d="M24,0 L24,24 L0,24 L0,0 L24,0 Z M12.5935,23.2578 L12.5819,23.2595 L12.5109,23.295 L12.4919,23.2987 L12.4767,23.295 L12.4057,23.2595 C12.3958,23.2564 12.387,23.259 12.3821,23.2649 L12.378,23.2758 L12.3609,23.7031 L12.3659,23.7235 L12.3769,23.7357 L12.4805,23.8097 L12.4953,23.8136 L12.5071,23.8097 L12.6107,23.7357 L12.6233,23.7197 L12.6267,23.7031 L12.6096,23.2758 C12.6076,23.2657 12.601,23.2593 12.5935,23.2578 Z M12.8584,23.1453 L12.8445,23.1473 L12.6598,23.2397 L12.6499,23.2499 L12.6472,23.2611 L12.6651,23.6906 L12.6699,23.7034 L12.6784,23.7105 L12.8793,23.8032 C12.8914,23.8069 12.9022,23.803 12.9078,23.7952 L12.9118,23.7812 L12.8777,23.1665 C12.8753,23.1546 12.8674,23.147 12.8584,23.1453 Z M12.143,23.1473 C12.1332,23.1424 12.1222,23.1453 12.1156,23.1526 L12.1099,23.1665 L12.0758,23.7812 C12.0751,23.7927 12.0828,23.8019 12.0926,23.8046 L12.1083,23.8032 L12.3092,23.7105 L12.3186,23.7024 L12.3225,23.6906 L12.3404,23.2611 L12.3372,23.2485 L12.3278,23.2397 L12.143,23.1473 Z" id="MingCute" fill-rule="nonzero"></path>
                <path d="M12,2 C17.5228,2 22,6.47715 22,12 C22,17.5228 17.5228,22 12,22 C6.47715,22 2,17.5228 2,12 C2,6.47715 6.47715,2 12,2 Z M13.6167,13.9835 C11.0392,14.7393 8.82113,16.3371 7.28059,18.4603 C8.60357,19.4284 10.235,20 12,20 C13.0717,20 14.0941,19.7893 15.0282,19.407 C14.7097,17.5411 14.2345,15.7286 13.6167,13.9835 Z M15.5948,13.5814 C16.127,15.1243 16.5545,16.7162 16.8686,18.3485 C18.3102,17.2413 19.3639,15.6541 19.7907,13.8259 C18.4208,13.4998407 16.9933,13.4183 15.5948,13.5814 Z M12.3508,10.9124 C9.6853,11.8575 6.81224,12.1902 4.00066,11.896 L4,12 L4,12 C4,13.9273 4.68154,15.6954 5.81676,17.0765 C7.57152,14.7505 10.0362,12.9884 12.8893,12.1133 C12.7176,11.7088 12.538,11.3084 12.3508,10.9124 Z M18.4885,7.31938 C17.2005,8.44362 15.759,9.39707 14.1997,10.1442 C14.4341,10.6435 14.6571,11.1493 14.8682,11.6613 C16.5687,11.4014 18.3173,11.4551 19.9981,11.822 C19.9614,10.1425 19.4072,8.5906 18.4885,7.31938 Z M8.57321,4.76902 C6.48083,5.76236 4.88811,7.63714 4.27479,9.91359 C6.68198,10.156 9.13827,9.88673 11.4319,9.11395 C10.5922,7.58813 9.6353,6.13578 8.57321,4.76902 Z M12,4 C11.5205,4 11.0508,4.04219 10.5945,4.12306 C11.5926,5.46408 12.497,6.87912 13.298,8.35845 C14.6874,7.69701 15.973,6.85246 17.1237,5.85583 C15.7358,4.6972 13.9493,4 12,4 Z" id="形状" fill="#09244B"></path>
            </g>
        </g>
    </g>
</svg>