<?xml version="1.0" encoding="UTF-8"?>
<svg width="24px" height="24px" viewBox="0 0 24 24" version="1.1" xmlns="http://www.w3.org/2000/svg" xmlns:xlink="http://www.w3.org/1999/xlink">
    <title>dribbble_fill</title>
    <g id="页面-1" stroke="none" stroke-width="1" fill="none" fill-rule="evenodd">
        <g id="Logo" transform="translate(-96.000000, -144.000000)" fill-rule="nonzero">
            <g id="dribbble_fill" transform="translate(96.000000, 144.000000)">
                <rect id="矩形" x="0" y="0" width="24" height="24"></rect>
                <path d="M13.7739,14.4387 C14.5287,16.6745 15.0504,19.0176 15.3102,21.4392 C14.2742,21.8024 13.1602,22 12.0001,22 C9.93947,22 8.02439,21.3767 6.43313,20.3084 C7.96448,17.4713 10.6051,15.321 13.7739,14.4387 Z M21.5726,14.9019 C20.8558,17.2696 19.2846,19.266 17.2177,20.5326 C16.9338,18.304 16.4403,16.1409 15.7576,14.0636 C17.727,13.861 19.7413,14.1465 21.5726,14.9019 Z M12.1445,10.4845 C12.4773,11.1629 12.7875,11.8544 13.0741,12.558 C9.58025,13.5767 6.65124,15.9207 4.86774,19.0092 C2.8207,16.9264 1.77836,13.9914 2.04124,11.087 C5.38358,11.7954 8.91047,11.5891 12.1445,10.4845 Z M19.7204,5.64365 C21.384,7.66192 22.1929,10.3021 21.9598,12.9039 C19.7706,12.0744 17.3772,11.812 15.0594,12.1334 C14.7373,11.319 14.3855,10.5195 14.0053,9.73629 C16.1603,8.73373 18.0959,7.33894 19.7204,5.64365 Z M7.26566,3.18957 C8.75461,4.87895 10.0734,6.72187 11.1953,8.69155 C8.37305,9.59634 5.31762,9.74339 2.42034,9.12243 C3.18815,6.5627 4.95386,4.43448 7.26566,3.18957 Z M12.0001,2 C14.3884,2 16.5812,2.83725 18.3009,4.23424 C16.8215,5.7846 15.052,7.05569 13.0794,7.96039 C11.9721,5.97735 10.6774,4.11315 9.21935,2.39172 C10.1021,2.13667 11.0352,2 12.0001,2 Z" id="形状" fill="#09244B"></path>
            </g>
        </g>
    </g>
</svg>