<?xml version="1.0" encoding="UTF-8"?>
<svg width="24px" height="24px" viewBox="0 0 24 24" version="1.1" xmlns="http://www.w3.org/2000/svg" xmlns:xlink="http://www.w3.org/1999/xlink">
    <title>dropbox_fill</title>
    <g id="Icon" stroke="none" stroke-width="1" fill="none" fill-rule="evenodd">
        <g id="Logo" transform="translate(-192.000000, -336.000000)">
            <g id="dropbox_fill" transform="translate(192.000000, 336.000000)">
                <path d="M24,0 L24,24 L0,24 L0,0 L24,0 Z M12.5935,23.2578 L12.5819,23.2595 L12.5109,23.295 L12.4919,23.2987 L12.4767,23.295 L12.4057,23.2595 C12.3958,23.2564 12.387,23.259 12.3821,23.2649 L12.378,23.2758 L12.3609,23.7031 L12.3659,23.7235 L12.3769,23.7357 L12.4805,23.8097 L12.4953,23.8136 L12.5071,23.8097 L12.6107,23.7357 L12.6233,23.7197 L12.6267,23.7031 L12.6096,23.2758 C12.6076,23.2657 12.601,23.2593 12.5935,23.2578 Z M12.8584,23.1453 L12.8445,23.1473 L12.6598,23.2397 L12.6499,23.2499 L12.6472,23.2611 L12.6651,23.6906 L12.6699,23.7034 L12.6784,23.7105 L12.8793,23.8032 C12.8914,23.8069 12.9022,23.803 12.9078,23.7952 L12.9118,23.7812 L12.8777,23.1665 C12.8753,23.1546 12.8674,23.147 12.8584,23.1453 Z M12.143,23.1473 C12.1332,23.1424 12.1222,23.1453 12.1156,23.1526 L12.1099,23.1665 L12.0758,23.7812 C12.0751,23.7927 12.0828,23.8019 12.0926,23.8046 L12.1083,23.8032 L12.3092,23.7105 L12.3186,23.7024 L12.3225,23.6906 L12.3404,23.2611 L12.3372,23.2485 L12.3278,23.2397 L12.143,23.1473 Z" id="MingCute" fill-rule="nonzero"></path>
                <path d="M11.9975,13.5026 L14.8765,15.1646 C15.3035,15.4111 15.8001,15.5056 16.2425,15.5056 C16.685,15.5056 17.1816,15.4111 17.6086,15.1646 L18.1961,14.8254 L18.1961,17.0001 C18.1961,17.3574 18.0055,17.6875 17.6961,17.8662 L12.5,20.8662 C12.1905,21.0448 11.8094,21.0448 11.5,20.8662 L6.3038,17.8662 C5.9944,17.6875 5.80377,17.3574 5.80377,17.0001 L5.80377,14.8282 L6.38654,15.1646 C6.81347,15.4111 7.3101,15.5056 7.75255,15.5056 C8.195,15.5056 8.69163,15.4111 9.11856,15.1646 L11.9975,13.5026 Z M6.88652,3.50006 C7.32134727,3.24904182 8.00176959,3.22622198 8.48124299,3.4316005 L8.61861,3.50006 L11.9976,5.45073 L15.3765,3.50006 C15.8113182,3.24904182 16.4917562,3.22622198 16.9712325,3.4316005 L17.1086,3.50006 L21.3512,5.94934 C21.7976133,6.207052 21.8273742,6.61422053 21.4404827,6.89186007 L21.3512,6.94927 L17.9734,8.89932 L21.3512,10.8494 C21.7976133,11.1070933 21.8273742,11.5142693 21.4404827,11.7918937 L21.3512,11.8493 L17.1086,14.2986 C16.6737818,14.5496 15.9933438,14.5724182 15.5138675,14.3670545 L15.3765,14.2986 L11.9976,12.3479 L8.61861,14.2986 C8.18379182,14.5496 7.50337033,14.5724182 7.02388949,14.3670545 L6.88652,14.2986 L2.64388,11.8493 C2.19746667,11.5916067 2.16770578,11.1844307 2.55459733,10.9068063 L2.64388,10.8494 L6.02175,8.89932 L2.64388,6.94927 C2.19746667,6.691558 2.16770578,6.28438947 2.55459733,6.00674993 L2.64388,5.94934 L6.88652,3.50006 Z M12.433,6.2015 C12.2280571,6.08315429 11.9138653,6.06624776 11.6777085,6.15078041 L11.567,6.2015 L7.32432,8.65077 C7.11174222,8.77349889 7.08812247,8.96399667 7.25346074,9.10177829 L7.32432,9.15074 L11.567,11.6 C11.7719429,11.7183714 12.0861347,11.7352816 12.3222915,11.6507306 L12.433,11.6 L16.6756,9.15074 C16.8882222,9.02802 16.9118469,8.83752321 16.7464741,8.69973468 L16.6756,8.65077 L12.433,6.2015 Z" id="形状" fill="#09244B"></path>
            </g>
        </g>
    </g>
</svg>