<svg xmlns="http://www.w3.org/2000/svg" width="24" height="24"><g fill="none" fill-rule="evenodd"><path d="M24 0v24H0V0zM12.594 23.258l-.012.002-.071.035-.02.004-.014-.004-.071-.036c-.01-.003-.019 0-.024.006l-.004.01-.017.428.005.02.01.013.104.074.015.004.012-.004.104-.074.012-.016.004-.017-.017-.427c-.002-.01-.009-.017-.016-.018m.264-.113-.014.002-.184.093-.01.01-.003.011.018.43.005.012.008.008.201.092c.012.004.023 0 .029-.008l.004-.014-.034-.614c-.003-.012-.01-.02-.02-.022m-.715.002a.023.023 0 0 0-.027.006l-.006.014-.034.614c0 .012.007.02.017.024l.015-.002.201-.093.01-.008.003-.011.018-.43-.003-.012-.01-.01z"/><path fill="#09244B" d="m11.998 13.503 2.879 1.662c.426.246.923.34 1.365.34.443 0 .94-.094 1.367-.34l.587-.34V17a1 1 0 0 1-.5.866l-5.196 3a1 1 0 0 1-1 0l-5.196-3a1 1 0 0 1-.5-.866v-2.172l.583.337c.426.246.923.34 1.366.34.442 0 .939-.094 1.366-.34zM6.887 3.5c.434-.251 1.115-.274 1.594-.068l.138.068 3.379 1.95 3.379-1.95c.434-.251 1.115-.274 1.594-.068l.138.068 4.242 2.45c.447.257.476.664.09.942l-.09.057-3.378 1.95 3.378 1.95c.447.258.476.665.09.943l-.09.057-4.242 2.45c-.435.25-1.116.273-1.595.068l-.137-.068-3.38-1.951-3.378 1.95c-.435.252-1.116.274-1.595.07l-.137-.07-4.243-2.449c-.447-.257-.476-.665-.09-.942l.09-.058L6.022 8.9 2.644 6.95c-.447-.257-.476-.665-.09-.942l.09-.058zm5.546 2.702c-.205-.119-.52-.136-.755-.051l-.111.05-4.243 2.45c-.212.122-.236.313-.07.45l.07.05 4.243 2.449c.205.118.52.135.755.05l.111-.05 4.243-2.45c.212-.122.236-.312.07-.45l-.07-.05z"/></g></svg>