<?xml version="1.0" encoding="UTF-8"?>
<svg width="24px" height="24px" viewBox="0 0 24 24" version="1.1" xmlns="http://www.w3.org/2000/svg" xmlns:xlink="http://www.w3.org/1999/xlink">
    <title>facebook_fill</title>
    <g id="页面-1" stroke="none" stroke-width="1" fill="none" fill-rule="evenodd">
        <g id="Brand" transform="translate(-240.000000, -48.000000)" fill-rule="nonzero">
            <g id="facebook_fill" transform="translate(240.000000, 48.000000)">
                <rect id="矩形" x="0" y="0" width="24" height="24"></rect>
                <path d="M13.5,21.8883 C18.3113,21.1645 22,17.013 22,12 C22,6.47715 17.5228,2 12,2 C6.47715,2 2,6.47715 2,12 C2,17.013 5.68874,21.1645 10.5,21.8883 L10.5,15 L9,15 C8.17157,15 7.5,14.3284 7.5,13.5 C7.5,12.6716 8.17157,12 9,12 L10.5,12 L10.5,10 C10.5,8.067 12.067,6.5 14,6.5 L14.5,6.5 C15.3284,6.5 16,7.17157 16,8 C16,8.82843 15.3284,9.5 14.5,9.5 L14,9.5 C13.7239,9.5 13.5,9.72386 13.5,10 L13.5,12 L15,12 C15.8284,12 16.5,12.6716 16.5,13.5 C16.5,14.3284 15.8284,15 15,15 L13.5,15 L13.5,21.8883 Z" id="路径" fill="#09244B"></path>
            </g>
        </g>
    </g>
</svg>