<svg xmlns="http://www.w3.org/2000/svg" width="24" height="24"><g fill="none" fill-rule="evenodd"><path d="M24 0v24H0V0zM12.594 23.258l-.012.002-.071.035-.02.004-.014-.004-.071-.036c-.01-.003-.019 0-.024.006l-.004.01-.017.428.005.02.01.013.104.074.015.004.012-.004.104-.074.012-.016.004-.017-.017-.427c-.002-.01-.009-.017-.016-.018m.264-.113-.014.002-.184.093-.01.01-.003.011.018.43.005.012.008.008.201.092c.012.004.023 0 .029-.008l.004-.014-.034-.614c-.003-.012-.01-.02-.02-.022m-.715.002a.023.023 0 0 0-.027.006l-.006.014-.034.614c0 .012.007.02.017.024l.015-.002.201-.093.01-.008.003-.011.018-.43-.003-.012-.01-.01z"/><path fill="#09244B" d="M8.332 4.888a8.003 8.003 0 0 1 11.169 4.324c.004.024.01.048.016.073.198.757.165 2.08-.346 3.289-.495 1.17-1.39 2.14-2.873 2.447-2.901.599-4.808-1.325-5.332-3.28a13.219 13.219 0 0 1-.322-1.725c-.081-.69-.08-1.216-.018-1.461a1 1 0 0 0-1.656-.972 8.038 8.038 0 0 0-2.145 3.406 18.516 18.516 0 0 1-.226-2.033c-.068-1.194-.022-2.403.206-3.29a1 1 0 0 0-1.662-.97c-2.72 2.617-3.791 6.453-2.824 9.82C3.435 18.822 7.347 22 12 22c5.523 0 10-4.477 10-10S17.523 2 12 2c-1.651 0-3.211.4-4.586 1.112a1 1 0 1 0 .918 1.776"/></g></svg>