<svg xmlns="http://www.w3.org/2000/svg" width="24" height="24"><g fill="none" fill-rule="evenodd"><path d="M24 0v24H0V0zM12.594 23.258l-.012.002-.071.035-.02.004-.014-.004-.071-.036c-.01-.003-.019 0-.024.006l-.004.01-.017.428.005.02.01.013.104.074.015.004.012-.004.104-.074.012-.016.004-.017-.017-.427c-.002-.01-.009-.017-.016-.018m.264-.113-.014.002-.184.093-.01.01-.003.011.018.43.005.012.008.008.201.092c.012.004.023 0 .029-.008l.004-.014-.034-.614c-.003-.012-.01-.02-.02-.022m-.715.002a.023.023 0 0 0-.027.006l-.006.014-.034.614c0 .012.007.02.017.024l.015-.002.201-.093.01-.008.003-.011.018-.43-.003-.012-.01-.01z"/><path fill="#09244B" d="M17 3a4 4 0 0 1 3.995 3.8L21 7v10a4 4 0 0 1-3.8 3.995L17 21H7a4 4 0 0 1-3.995-3.8L3 17V7a4 4 0 0 1 3.8-3.995L7 3zm-5.5 12a1.5 1.5 0 1 0 0 3 1.5 1.5 0 0 0 0-3m1-4.5h-4a1.5 1.5 0 0 0-.144 2.993l.144.007h4a1.5 1.5 0 0 0 .144-2.993zm3-4.5h-6a1.5 1.5 0 1 0 0 3h6a1.5 1.5 0 0 0 0-3"/></g></svg>