<svg xmlns="http://www.w3.org/2000/svg" width="24" height="24" viewBox="0 0 24 24"><g fill="none" fill-rule="evenodd"><path d="M24,0 L24,24 L0,24 L0,0 L24,0 Z M12.5935,23.2578 L12.5819,23.2595 L12.5109,23.295 L12.4919,23.2987 L12.4767,23.295 L12.4057,23.2595 C12.3958,23.2564 12.387,23.259 12.3821,23.2649 L12.378,23.2758 L12.3609,23.7031 L12.3659,23.7235 L12.3769,23.7357 L12.4805,23.8097 L12.4953,23.8136 L12.5071,23.8097 L12.6107,23.7357 L12.6233,23.7197 L12.6267,23.7031 L12.6096,23.2758 C12.6076,23.2657 12.601,23.2593 12.5935,23.2578 Z M12.8584,23.1453 L12.8445,23.1473 L12.6598,23.2397 L12.6499,23.2499 L12.6472,23.2611 L12.6651,23.6906 L12.6699,23.7034 L12.6784,23.7105 L12.8793,23.8032 C12.8914,23.8069 12.9022,23.803 12.9078,23.7952 L12.9118,23.7812 L12.8777,23.1665 C12.8753,23.1546 12.8674,23.147 12.8584,23.1453 Z M12.143,23.1473 C12.1332,23.1424 12.1222,23.1453 12.1156,23.1526 L12.1099,23.1665 L12.0758,23.7812 C12.0751,23.7927 12.0828,23.8019 12.0926,23.8046 L12.1083,23.8032 L12.3092,23.7105 L12.3186,23.7024 L12.3225,23.6906 L12.3404,23.2611 L12.3372,23.2485 L12.3278,23.2397 L12.143,23.1473 Z"/><path fill="#09244B" d="M12,2 C6.47715,2 2,6.47715 2,12 C2,17.5228 6.47715,22 12,22 C17.5228,22 22,17.5228 22,12 C22,6.47715 17.5228,2 12,2 Z M6.98713,14.7885 C6.59417,14.6576 6.16943,14.8699 6.03844,15.2629 C5.90746,15.6558 6.11985,16.0806 6.51281,16.2116 C6.69601,16.2702 6.8576,16.5399 7.00009,16.7777 C7.06935,16.8933 7.1341,17.0013 7.19462,17.0739 C7.42221,17.347 7.73179,17.6411 8.1797,17.8311 C8.49082,17.9631 8.83767,18.0319 9.22613,18.0327 L9.22138,18.4897 C9.21563,19.0419 9.65867,19.4943 10.2109,19.5000544 C10.7632,19.5057 11.2155,19.0627 11.2213,18.5105 L11.2499,15.7653 L11.2499,15.7549 C11.2499,15.5396 11.3393,15.3468 11.4858,15.2088 C12.0899,14.6396 11.7817,13.6476 10.9928,13.4902 C9.25299,13.1432 8.33321,12.0444 8.33321,11.0882 C8.33321,10.641 8.51425,10.192 8.88898,9.78328 C9.15258,9.49578 9.22646,9.0814 9.07751,8.72013 C9.02478,8.59222 8.99545,8.43434 8.98697,8.26333 C9.19559,8.36149 9.41135,8.48605 9.60835,8.63889 C9.86364,8.83695 10.2128,8.90047 10.5213,8.80537 C10.971,8.66671 11.4704,8.58824 11.9999,8.58824 C12.5289,8.58824 13.0278,8.66656 13.4772,8.80498 C13.7855,8.89994 14.1345,8.83644 14.3897,8.63854 C14.5866,8.48586 14.8022,8.36141 15.0106,8.26333 C15.0022,8.43397 14.9729,8.59157 14.9204,8.71937 C14.7719,9.0806 14.8459,9.49479 15.1097,9.7821 C15.4852,10.1911 15.6665,10.6406 15.6665,11.0882 C15.6665,12.0444 14.7468,13.1432 13.007,13.4902 C12.218,13.6476 11.9099,14.6397 12.5139,15.2088 C12.6595,15.346 12.7487,15.5372 12.7499,15.7507 L12.7214,18.4897 C12.7156,19.0419 13.1587,19.4943 13.7109,19.5000544 C14.2632,19.5057 14.7155,19.0627 14.7213,18.5105 L14.7499,15.7653 L14.7499,15.7549 C14.7499,15.5162 14.7194,15.2846 14.6621,15.0636 C16.3516,14.3497 17.6665,12.933 17.6665,11.0882 C17.6665,10.2676 17.3942,9.51633 16.9469,8.88073 C17.0373,8.40979 17.0219,7.95746 16.9796,7.61096 C16.9337,7.23423 16.8588,6.81358 16.651,6.4877 C16.549,6.32791 16.4067,6.19554 16.2367,6.11052 C15.7793,5.88178 15.2096,6.05652 14.7552,6.21209 C14.4143,6.32882 14.0002,6.5068 13.5857,6.76501 C13.0806,6.64952 12.5482,6.58824 11.9999,6.58824 C11.451,6.58824 10.918,6.64965 10.4125,6.76538 C9.99786,6.50704 9.58366,6.32898 9.24269,6.21221 C8.78826,6.05658 8.21836,5.88174 7.76091,6.11052 C7.59085,6.19557 7.44847,6.32799 7.34654,6.48784 C7.13858,6.81395 7.06371,7.23493 7.01784,7.6119 C6.97563,7.95878 6.96032,8.4117 7.05116,8.88315 C6.60487,9.51824 6.33321,10.2687 6.33321,11.0882 C6.33321,12.933 7.64813,14.3497 9.33767,15.0636 C9.28086,15.2828 9.25037,15.5125 9.24988,15.7491 L9.24173,16.5327 C9.02207,16.5338 8.87179,16.4953 8.76553,16.4502 C8.61187,16.3851 8.48396,16.2781 8.34696,16.1137 C8.25095,15.9985 8.16503,15.8756 8.0791,15.7527 C8.01456,15.6604 7.95001,15.568 7.88118,15.479 C7.70222,15.2474 7.42396,14.9342 6.98713,14.7885 Z"/></g></svg>