<?xml version="1.0" encoding="UTF-8"?>
<svg width="24px" height="24px" viewBox="0 0 24 24" version="1.1" xmlns="http://www.w3.org/2000/svg" xmlns:xlink="http://www.w3.org/1999/xlink">
    <title>github_fill</title>
    <g id="页面-1" stroke="none" stroke-width="1" fill="none" fill-rule="evenodd">
        <g id="Logo" transform="translate(-144.000000, -144.000000)" fill-rule="nonzero">
            <g id="github_fill" transform="translate(144.000000, 144.000000)">
                <rect id="矩形" x="0" y="0" width="24" height="24"></rect>
                <path d="M7.0236,2.31058 C7.64222,2.52096 8.40745,2.85626 9.14865,3.35611 C10.0469,3.12454 11.0061,3 12.0001,3 C12.993,3 13.9513,3.12429 14.8488,3.35541 C15.5898,2.85581 16.3549,2.52068 16.9733,2.31041 C17.6702,2.07347 18.6635,1.68873 19.2532,2.34204 C19.6536,2.78558 19.7529,3.52998 19.8243,4.09751 C19.9041,4.7317 19.9227,5.55836 19.7128,6.37797 C20.5157,7.41477 21.0001,8.65244 21.0001,10 C21.0001,12.0422 19.894,13.8148 18.2569,15.0426 C17.5034,15.6077 16.6274,16.0673 15.6667,16.3988 C15.8811,16.8891 16.0001,17.4307 16.0001,18 L16.0001,21 C16.0001,21.5523 15.5523,22 15.0001,22 L9.00005,22 C8.44777,22 8.00005,21.5523 8.00005,21 L8.00005,20.0087 C7.04473,20.1257 6.24413,20.0222 5.5626,19.7331 C4.85081,19.4311 4.35469,18.9627 3.98181,18.5152 C3.62811,18.0908 3.2425,17.1349 2.6838,16.9487 C2.15986,16.774 1.8767,16.2077 2.05134,15.6838 C2.22599,15.1598 2.79231,14.8767 3.31625,15.0513 C3.98203,15.2732 4.41554,15.7534 4.71319,16.1386 C5.19225,16.7585 5.58364,17.5695 6.3437,17.8919 C6.65626,18.0245 7.11546,18.1125 7.8323,18.0137 L8.0001,17.9802 C8.00283,17.4181 8.12149,16.8834 8.33341,16.3988 C7.37273,16.0673 6.49666,15.6077 5.7432,15.0426 C4.10606,13.8148 3.00005,12.0422 3.00005,10 C3.00005,8.65402 3.48329,7.41765 4.28448,6.38159 C4.07379,5.56134 4.09217,4.73379 4.17192,4.09897 C4.17352,4.08622 4.17512,4.07342 4.17673,4.06057 C4.24961,3.47909 4.33549,2.79383 4.74307,2.34215 C5.33266,1.6888 6.32676,2.07361 7.0236,2.31058 Z" id="路径" fill="#09244B"></path>
            </g>
        </g>
    </g>
</svg>