<?xml version="1.0" encoding="UTF-8"?>
<svg width="24px" height="24px" viewBox="0 0 24 24" version="1.1" xmlns="http://www.w3.org/2000/svg" xmlns:xlink="http://www.w3.org/1999/xlink">
    <title>google_fill</title>
    <g id="页面-1" stroke="none" stroke-width="1" fill="none" fill-rule="evenodd">
        <g id="Logo" transform="translate(-192.000000, -144.000000)">
            <g id="google_fill" transform="translate(192.000000, 144.000000)">
                <rect id="矩形" fill-rule="nonzero" x="0" y="0" width="24" height="24"></rect>
                <path d="M12,5.5 C8.41015,5.5 5.5,8.41015 5.5,12 C5.5,15.5899 8.41015,18.5 12,18.5 C15.0736,18.5 17.6489,16.3667 18.3261,13.5 L13,13.5 C12.1716,13.5 11.5,12.8284 11.5,12 C11.5,11.1716 12.1716,10.5 13,10.5 L20,10.5 C20.8284,10.5 21.5,11.1716 21.5,12 C21.5,17.2467 17.2467,21.5 12,21.5 C6.75329,21.5 2.5,17.2467 2.5,12 C2.5,6.75329 6.75329,2.5 12,2.5 C14.6135,2.5 16.9829,3.55733 18.699,5.26402 C19.2864,5.8482 19.289,6.79795 18.7048,7.38534 C18.1206,7.97272 17.1709,7.97532 16.5835,7.39114 C15.4066,6.2207 13.7889,5.5 12,5.5 Z" id="路径" fill="#09244B"></path>
            </g>
        </g>
    </g>
</svg>