<?xml version="1.0" encoding="UTF-8"?>
<svg width="24px" height="24px" viewBox="0 0 24 24" version="1.1" xmlns="http://www.w3.org/2000/svg" xmlns:xlink="http://www.w3.org/1999/xlink">
    <title>google_play_fill</title>
    <g id="页面-1" stroke="none" stroke-width="1" fill="none" fill-rule="evenodd">
        <g id="Logo" transform="translate(-240.000000, -144.000000)" fill-rule="nonzero">
            <g id="google_play_fill" transform="translate(240.000000, 144.000000)">
                <rect id="矩形" x="0" y="0" width="24" height="24"></rect>
                <path d="M11.9999,13.4141 L14.9467,16.3608 L5.25,21.9592 C4.72368923,22.2630769 4.12812213,22.2071243 3.68198469,21.917501 L3.57369,21.8403 L11.9999,13.4141 Z M3,4.41415 L10.5857,11.9999 L3,19.5856 L3,4.41415 Z M16.7398,8.67424 L20.25,10.7009 C21.25,11.2782 21.25,12.7216 20.25,13.2989 L16.7398,15.3255 L13.4142,11.9999 L16.7398,8.67424 Z M5.25,2.0406 L14.9466,7.63896 L11.9999,10.5857 L3.57371,2.15944 C4.02839,1.80454 4.67983,1.71141 5.25,2.0406 Z" id="形状" fill="#09244B"></path>
            </g>
        </g>
    </g>
</svg>