<svg xmlns="http://www.w3.org/2000/svg" width="24" height="24" viewBox="0 0 24 24"><title>grok_2_line</title><g fill="none" fill-rule="nonzero"><path d="M24 0v24H0V0zM12.594 23.258l-.012.002-.071.035-.02.004-.014-.004-.071-.036q-.016-.004-.024.006l-.004.01-.017.428.005.02.01.013.104.074.015.004.012-.004.104-.074.012-.016.004-.017-.017-.427q-.004-.016-.016-.018m.264-.113-.014.002-.184.093-.01.01-.003.011.018.43.005.012.008.008.201.092q.019.005.029-.008l.004-.014-.034-.614q-.005-.019-.02-.022m-.715.002a.02.02 0 0 0-.027.006l-.006.014-.034.614q.001.018.017.024l.015-.002.201-.093.01-.008.003-.011.018-.43-.003-.012-.01-.01z"/><path fill="#09244b" d="M5.236 7.73a8 8 0 0 1 8.927-3.433 1 1 0 1 1-.541 1.925 6.003 6.003 0 0 0-7.244 7.874c.622 1.674.852 4.09-.743 5.685l-.705.705a1 1 0 0 1-1.415-1.414l.706-.705c.748-.75.815-2.143.283-3.575a7.99 7.99 0 0 1 .732-7.063M19.07 3.513a1 1 0 0 1 1.414 1.415l-.703.703c-.749.749-.816 2.143-.283 3.576a8.004 8.004 0 0 1-9.66 10.497 1 1 0 0 1 .542-1.926 6.003 6.003 0 0 0 7.244-7.874 7.7 7.7 0 0 1-.42-1.697L13.414 12A1 1 0 1 1 12 10.586z"/></g></svg>