<svg xmlns="http://www.w3.org/2000/svg" width="24" height="24" viewBox="0 0 24 24"><title>grok_2_fill</title><g fill="none" fill-rule="nonzero"><path d="M24 0v24H0V0zM12.594 23.258l-.012.002-.071.035-.02.004-.014-.004-.071-.036q-.016-.004-.024.006l-.004.01-.017.428.005.02.01.013.104.074.015.004.012-.004.104-.074.012-.016.004-.017-.017-.427q-.004-.016-.016-.018m.264-.113-.014.002-.184.093-.01.01-.003.011.018.43.005.012.008.008.201.092q.019.005.029-.008l.004-.014-.034-.614q-.005-.019-.02-.022m-.715.002a.02.02 0 0 0-.027.006l-.006.014-.034.614q.001.018.017.024l.015-.002.201-.093.01-.008.003-.011.018-.43-.003-.012-.01-.01z"/><path fill="#09244b" d="M4.813 7.463a8.5 8.5 0 0 1 8.4-3.877 1.5 1.5 0 0 1-.426 2.97 5.5 5.5 0 0 0-5.94 7.366c.644 1.735.947 4.406-.859 6.213l-.705.705a1.5 1.5 0 0 1-2.121-2.121l.704-.706c.537-.537.679-1.674.169-3.046a8.49 8.49 0 0 1 .778-7.504M18.717 3.16a1.5 1.5 0 0 1 2.122 2.121l-.712.711c-.531.54-.668 1.675-.16 3.041A8.503 8.503 0 0 1 9.704 20.186a1.501 1.501 0 0 1 .811-2.888 5.503 5.503 0 0 0 6.64-7.22 8 8 0 0 1-.263-.85l-3.125 3.125a1.5 1.5 0 1 1-2.12-2.12z"/></g></svg>