<?xml version="1.0" encoding="UTF-8"?>
<svg width="24px" height="24px" viewBox="0 0 24 24" version="1.1" xmlns="http://www.w3.org/2000/svg" xmlns:xlink="http://www.w3.org/1999/xlink">
    <title>ins_line</title>
    <g id="页面-1" stroke="none" stroke-width="1" fill="none" fill-rule="evenodd">
        <g id="Brand" transform="translate(-288.000000, -0.000000)">
            <g id="ins_line" transform="translate(288.000000, 0.000000)">
                <rect id="矩形" fill-rule="nonzero" x="0" y="0" width="24" height="24"></rect>
                <path d="M16,3 C18.7614,3 21,5.23858 21,8 L21,16 C21,18.7614 18.7614,21 16,21 L8,21 C5.23858,21 3,18.7614 3,16 L3,8 C3,5.23858 5.23858,3 8,3 L16,3 Z M16,5 L8,5 C6.34315,5 5,6.34315 5,8 L5,16 C5,17.6569 6.34315,19 8,19 L16,19 C17.6569,19 19,17.6569 19,16 L19,8 C19,6.34315 17.6569,5 16,5 Z M12,8 C14.2091,8 16,9.79086 16,12 C16,14.2091 14.2091,16 12,16 C9.79086,16 8,14.2091 8,12 C8,9.79086 9.79086,8 12,8 Z M12,10 C10.8954,10 10,10.8954 10,12 C10,13.1046 10.8954,14 12,14 C13.1046,14 14,13.1046 14,12 C14,10.8954 13.1046,10 12,10 Z M16.5,6.5 C17.0523,6.5 17.5,6.94772 17.5,7.5 C17.5,8.05228 17.0523,8.5 16.5,8.5 C15.9477,8.5 15.5,8.05228 15.5,7.5 C15.5,6.94772 15.9477,6.5 16.5,6.5 Z" id="形状" fill="#09244B"></path>
            </g>
        </g>
    </g>
</svg>