<svg xmlns="http://www.w3.org/2000/svg" width="24" height="24" viewBox="0 0 24 24"><title>iOS_fill</title><g fill="none" fill-rule="nonzero"><path d="M24 0v24H0V0zM12.594 23.258l-.012.002-.071.035-.02.004-.014-.004-.071-.036q-.016-.004-.024.006l-.004.01-.017.428.005.02.01.013.104.074.015.004.012-.004.104-.074.012-.016.004-.017-.017-.427q-.004-.016-.016-.018m.264-.113-.014.002-.184.093-.01.01-.003.011.018.43.005.012.008.008.201.092q.019.005.029-.008l.004-.014-.034-.614q-.005-.019-.02-.022m-.715.002a.02.02 0 0 0-.027.006l-.006.014-.034.614q.001.018.017.024l.015-.002.201-.093.01-.008.003-.011.018-.43-.003-.012-.01-.01z"/><path fill="#09244b" d="M16 3a5 5 0 0 1 5 5v8a5 5 0 0 1-5 5H8a5 5 0 0 1-5-5V8a5 5 0 0 1 5-5zm-.275 6.84q-.557 0-.995.193-.436.195-.688.54-.249.345-.246.808-.003.564.37.897t1.017.49l.554.14q.278.066.47.148.194.082.293.199a.42.42 0 0 1 .102.288.5.5 0 0 1-.112.326.73.73 0 0 1-.315.22q-.201.08-.476.08-.277 0-.499-.084a.8.8 0 0 1-.35-.256.8.8 0 0 1-.147-.428h-1.042q.012.55.266.923.256.37.71.559.459.19 1.075.19.621 0 1.061-.187.442-.19.676-.53.237-.343.24-.81a1.35 1.35 0 0 0-.118-.565 1.3 1.3 0 0 0-.315-.427 1.9 1.9 0 0 0-.483-.306 3.2 3.2 0 0 0-.61-.198l-.459-.11a3 3 0 0 1-.312-.09 1.3 1.3 0 0 1-.26-.126.6.6 0 0 1-.176-.177.4.4 0 0 1-.057-.238q0-.164.094-.293a.63.63 0 0 1 .28-.203q.18-.075.444-.074.387 0 .614.167t.256.467h1.031a1.43 1.43 0 0 0-.243-.8 1.57 1.57 0 0 0-.661-.54 2.35 2.35 0 0 0-.99-.193m-5.08 0q-.68 0-1.22.308a2.2 2.2 0 0 0-.852.89q-.312.584-.313 1.416 0 .831.313 1.415t.853.893q.54.307 1.219.307.674 0 1.212-.305a2.2 2.2 0 0 0 .855-.893q.316-.585.316-1.417t-.316-1.416a2.17 2.17 0 0 0-.855-.89 2.4 2.4 0 0 0-1.212-.308M7.48 11.182H6.423V15H7.48zm3.164-.39q.39 0 .68.191.291.192.45.562.162.37.162.91 0 .538-.162.91a1.23 1.23 0 0 1-.45.56 1.2 1.2 0 0 1-.68.192q-.39 0-.682-.191a1.25 1.25 0 0 1-.452-.562q-.16-.37-.16-.91 0-.539.16-.91.16-.37.452-.56.29-.192.682-.192m-3.69-1.174a.57.57 0 0 0-.405.16.51.51 0 0 0 0 .756.57.57 0 0 0 .404.156.57.57 0 0 0 .403-.157.506.506 0 0 0 0-.756.56.56 0 0 0-.403-.159"/></g></svg>