<svg xmlns="http://www.w3.org/2000/svg" width="24" height="24" viewBox="0 0 24 24"><title>iOS_line</title><g fill="none" fill-rule="nonzero"><path d="M24 0v24H0V0zM12.594 23.258l-.012.002-.071.035-.02.004-.014-.004-.071-.036q-.016-.004-.024.006l-.004.01-.017.428.005.02.01.013.104.074.015.004.012-.004.104-.074.012-.016.004-.017-.017-.427q-.004-.016-.016-.018m.264-.113-.014.002-.184.093-.01.01-.003.011.018.43.005.012.008.008.201.092q.019.005.029-.008l.004-.014-.034-.614q-.005-.019-.02-.022m-.715.002a.02.02 0 0 0-.027.006l-.006.014-.034.614q.001.018.017.024l.015-.002.201-.093.01-.008.003-.011.018-.43-.003-.012-.01-.01z"/><path fill="#09244b" d="M16 3a5 5 0 0 1 5 5v8a5 5 0 0 1-5 5H8a5 5 0 0 1-5-5V8a5 5 0 0 1 5-5zm0 2H8a3 3 0 0 0-3 3v8a3 3 0 0 0 3 3h8a3 3 0 0 0 3-3V8a3 3 0 0 0-3-3m-5.252 4.84q.684 0 1.233.303.552.303.875.887.324.585.324 1.424 0 .84-.324 1.425-.323.585-.875.887a2.5 2.5 0 0 1-1.233.303q-.686 0-1.235-.305a2.23 2.23 0 0 1-.873-.888q-.32-.584-.32-1.422 0-.84.32-1.424.324-.585.873-.887a2.5 2.5 0 0 1 1.235-.304m5.129 0q.591 0 1.026.2.438.2.679.56.24.36.246.835H16.65a.58.58 0 0 0-.222-.425q-.194-.154-.554-.154-.239 0-.398.062a.5.5 0 0 0-.238.172.4.4 0 0 0-.082.246.37.37 0 0 0 .044.201q.053.088.15.154.099.065.238.115.094.033.201.06l.55.126q.378.082.666.219.29.136.487.325.2.189.301.436.102.246.105.551a1.42 1.42 0 0 1-.244.828q-.24.345-.694.53-.45.184-1.086.184-.639 0-1.114-.192a1.57 1.57 0 0 1-.738-.582q-.263-.39-.27-.986h1.178q.014.245.131.41t.32.248q.208.085.478.085.249 0 .423-.067a.6.6 0 0 0 .27-.187.44.44 0 0 0 .098-.273.38.38 0 0 0-.09-.246.7.7 0 0 0-.268-.18 2.4 2.4 0 0 0-.325-.108l-.665-.157q-.66-.152-1.041-.49-.381-.34-.378-.92-.003-.472.254-.827.255-.356.708-.555a2.5 2.5 0 0 1 1.032-.199M7.6 11.181V15H6.385v-3.818zm3.147-.264q-.365 0-.628.177-.264.175-.406.52a2.2 2.2 0 0 0-.139.84q0 .495.14.84.141.342.405.52.263.176.628.176.368 0 .63-.177.263-.175.402-.52.142-.342.142-.84t-.142-.84a1.1 1.1 0 0 0-.403-.52 1.1 1.1 0 0 0-.629-.176M6.994 9.576q.26 0 .44.172a.53.53 0 0 1 .184.407q0 .242-.184.413a.62.62 0 0 1-.44.169.63.63 0 0 1-.44-.169.54.54 0 0 1-.184-.413q0-.239.184-.407a.62.62 0 0 1 .44-.172"/></g></svg>