<svg xmlns="http://www.w3.org/2000/svg" width="24" height="24"><g fill="none" fill-rule="evenodd"><path d="M24 0v24H0V0zM12.593 23.258l-.011.002-.071.035-.02.004-.014-.004-.071-.035c-.01-.004-.019-.001-.024.005l-.004.01-.017.428.005.02.01.013.104.074.015.004.012-.004.104-.074.012-.016.004-.017-.017-.427c-.002-.01-.009-.017-.017-.018m.265-.113-.013.002-.185.093-.01.01-.003.011.018.43.005.012.008.007.201.093c.012.004.023 0 .029-.008l.004-.014-.034-.614c-.003-.012-.01-.02-.02-.022m-.715.002a.023.023 0 0 0-.027.006l-.006.014-.034.614c0 .012.007.02.017.024l.015-.002.201-.093.01-.008.004-.011.017-.43-.003-.012-.01-.01z"/><path fill="#09244B" d="M12 3c5.344 0 10 3.643 10 8.5 0 2.457-1.336 4.58-3.199 6.29-1.867 1.715-4.359 3.11-6.93 4.139a1.096 1.096 0 0 1-1.397-.541c-.104-.219-.13-.453-.137-.69l-.004-.535a2.734 2.734 0 0 0-.012-.176c-.034-.349-.126-.57-.493-.635C5.548 18.606 2 15.74 2 11.5 2 6.643 6.656 3 12 3m2 6a1 1 0 0 0-1 1v.238l-.732-.878A1 1 0 0 0 10.5 10v3a1 1 0 0 0 2 0v-.238l.732.878A1 1 0 0 0 15 13v-3a1 1 0 0 0-1-1M6 9a1 1 0 0 0-1 1v3a1 1 0 0 0 1 1h1a1 1 0 1 0 0-2v-2a1 1 0 0 0-1-1m3 0a1 1 0 0 0-.993.883L8 10v3a1 1 0 0 0 1.993.117L10 13v-3a1 1 0 0 0-1-1m9 0h-1.5a1 1 0 0 0-.993.883L15.5 10v3a1 1 0 0 0 .883.993L16.5 14H18a1 1 0 0 0 .117-1.993L18 12h-.134a.995.995 0 0 0 .057-.885L17.866 11H18a1 1 0 0 0 .117-1.993z"/></g></svg>