<?xml version="1.0" encoding="UTF-8"?>
<svg width="24px" height="24px" viewBox="0 0 24 24" version="1.1" xmlns="http://www.w3.org/2000/svg" xmlns:xlink="http://www.w3.org/1999/xlink">
    <title>linkedin_line</title>
    <g id="页面-1" stroke="none" stroke-width="1" fill="none" fill-rule="evenodd">
        <g id="Brand" transform="translate(-336.000000, -0.000000)" fill-rule="nonzero">
            <g id="linkedin_line" transform="translate(336.000000, 0.000000)">
                <rect id="矩形" x="0" y="0" width="24" height="24"></rect>
                <path d="M18,3 C19.6569,3 21,4.34315 21,6 L21,18 C21,19.6569 19.6569,21 18,21 L6,21 C4.34315,21 3,19.6569 3,18 L3,6 C3,4.34315 4.34315,3 6,3 L18,3 Z M18,5 L6,5 C5.44772,5 5,5.44772 5,6 L5,18 C5,18.5523 5.44772,19 6,19 L18,19 C18.5523,19 19,18.5523 19,18 L19,6 C19,5.44772 18.5523,5 18,5 Z M8,10 C8.51283143,10 8.93550653,10.386027 8.9932722,10.8833761 L9,11 L9,16 C9,16.5523 8.55228,17 8,17 C7.48716857,17 7.06449347,16.613973 7.0067278,16.1166239 L7,16 L7,11 C7,10.4477 7.44772,10 8,10 Z M11,9 C11.4913,9 11.8998,9.35427 11.9841,9.82128 C12.1863,9.70435 12.395,9.59892 12.6067,9.50837 C13.2739,9.22295 14.2732,9.06594 15.1749,9.34949 C15.6476,9.4981 16.1232,9.77907 16.4758,10.2556 C16.7904667,10.6810222 16.9599086,11.1984148 16.9936776,11.7792631 L17,12 L17,16 C17,16.5522 16.5523,17 16,17 C15.48715,17 15.0644908,16.6138867 15.0067275,16.1166055 L15,16 L15,12 C15,11.6707 14.9201,11.5157 14.868,11.4451 C14.8143,11.3726 14.7274,11.3053 14.5751,11.2574 C14.2268,11.1479 13.7261,11.2048 13.3933,11.3472 C12.892275,11.5614875 12.4347375,11.8971266 12.1239225,12.2083422 L12,12.3398 L12,16 C12,16.5523 11.5523,17 11,17 C10.48715,17 10.0644908,16.613973 10.0067275,16.1166239 L10,16 L10,10 C10,9.44772 10.4477,9 11,9 Z M8,7 C8.55228,7 9,7.44772 9,8 C9,8.55228 8.55228,9 8,9 C7.44772,9 7,8.55228 7,8 C7,7.44772 7.44772,7 8,7 Z" id="形状" fill="#09244B"></path>
            </g>
        </g>
    </g>
</svg>