<?xml version="1.0" encoding="UTF-8"?>
<svg width="24px" height="24px" viewBox="0 0 24 24" version="1.1" xmlns="http://www.w3.org/2000/svg" xmlns:xlink="http://www.w3.org/1999/xlink">
    <title>linkedin_fill</title>
    <g id="页面-1" stroke="none" stroke-width="1" fill="none" fill-rule="evenodd">
        <g id="Brand" transform="translate(-336.000000, -48.000000)">
            <g id="linkedin_fill" transform="translate(336.000000, 48.000000)">
                <rect id="矩形" fill-rule="nonzero" x="0" y="0" width="24" height="24"></rect>
                <path d="M18,3 C19.6569,3 21,4.34315 21,6 L21,18 C21,19.6569 19.6569,21 18,21 L6,21 C4.34315,21 3,19.6569 3,18 L3,6 C3,4.34315 4.34315,3 6,3 L18,3 Z M8,10 C7.44772,10 7,10.4477 7,11 L7,16 C7,16.5523 7.44772,17 8,17 C8.55228,17 9,16.5523 9,16 L9,11 C9,10.4477 8.55228,10 8,10 Z M11,9 C10.4477,9 10,9.44772 10,10 L10,16 C10,16.5523 10.4477,17 11,17 C11.5523,17 12,16.5523 12,16 L12,12.3398 C12.3049,11.9955 12.8207,11.5921 13.3933,11.3472 C13.7261,11.2048 14.2268,11.1479 14.5751,11.2574 C14.7274,11.3053 14.8143,11.3726 14.868,11.4451 C14.9201,11.5157 15,11.6707 15,12 L15,16 C15,16.5522 15.4477,17 16,17 C16.5523,17 17,16.5522 17,16 L17,12 C17,11.3292 16.8298,10.7342 16.4758,10.2556 C16.1232,9.77907 15.6476,9.4981 15.1749,9.34949 C14.2732,9.06594 13.2739,9.22295 12.6067,9.50837 C12.395,9.59892 12.1863,9.70435 11.9841,9.82128 C11.8998,9.35427 11.4913,9 11,9 Z M8,7 C7.44772,7 7,7.44772 7,8 C7,8.55228 7.44772,9 8,9 C8.55228,9 9,8.55228 9,8 C9,7.44772 8.55228,7 8,7 Z" id="形状" fill="#09244B"></path>
            </g>
        </g>
    </g>
</svg>