<?xml version="1.0" encoding="UTF-8"?>
<svg width="24px" height="24px" viewBox="0 0 24 24" version="1.1" xmlns="http://www.w3.org/2000/svg" xmlns:xlink="http://www.w3.org/1999/xlink">
    <title>linux_fill</title>
    <g id="Icon" stroke="none" stroke-width="1" fill="none" fill-rule="evenodd">
        <g id="Logo" transform="translate(-720.000000, -240.000000)">
            <g id="linux_fill" transform="translate(720.000000, 240.000000)">
                <path d="M24,0 L24,24 L0,24 L0,0 L24,0 Z M12.5935,23.2578 L12.5819,23.2595 L12.5109,23.295 L12.4919,23.2987 L12.4767,23.295 L12.4057,23.2595 C12.3958,23.2564 12.387,23.259 12.3821,23.2649 L12.378,23.2758 L12.3609,23.7031 L12.3659,23.7235 L12.3769,23.7357 L12.4805,23.8097 L12.4953,23.8136 L12.5071,23.8097 L12.6107,23.7357 L12.6233,23.7197 L12.6267,23.7031 L12.6096,23.2758 C12.6076,23.2657 12.601,23.2593 12.5935,23.2578 Z M12.8584,23.1453 L12.8445,23.1473 L12.6598,23.2397 L12.6499,23.2499 L12.6472,23.2611 L12.6651,23.6906 L12.6699,23.7034 L12.6784,23.7105 L12.8793,23.8032 C12.8914,23.8069 12.9022,23.803 12.9078,23.7952 L12.9118,23.7812 L12.8777,23.1665 C12.8753,23.1546 12.8674,23.147 12.8584,23.1453 Z M12.143,23.1473 C12.1332,23.1424 12.1222,23.1453 12.1156,23.1526 L12.1099,23.1665 L12.0758,23.7812 C12.0751,23.7927 12.0828,23.8019 12.0926,23.8046 L12.1083,23.8032 L12.3092,23.7105 L12.3186,23.7024 L12.3225,23.6906 L12.3404,23.2611 L12.3372,23.2485 L12.3278,23.2397 L12.143,23.1473 Z" id="MingCute" fill-rule="nonzero"></path>
                <path d="M8.26426,15.2895 C8.61027,15.3094 8.92133,15.507 9.08636,15.8117 L10.9777,19.3047 C11.304,19.9072 11.2618,20.6424 10.8688,21.2037 C10.4758,21.765 9.79939,22.056 9.1216,21.9555 L5.19243,21.3728 C4.8496,21.322 4.55754,21.0973 4.42055,20.7789 C4.28356,20.4606 4.32118,20.094 4.51996,19.8101 L5.14275,18.9207 L4.9691,17.9359 C4.87319,17.392 5.23636,16.8733 5.78026,16.7774 L6.76506,16.6038 L7.38785,15.7143 C7.58663,15.4304 7.91825,15.2697 8.26426,15.2895 Z M14.6111,15.2655 C14.87815,15.121825 15.1935875,15.1080766 15.4693848,15.2229818 L15.5849,15.2801 L16.5252,15.823 L17.4911,15.5642 C17.9864929,15.4314143 18.4946469,15.6949163 18.6792067,16.1603869 L18.7159,16.2713 L18.9747,17.2372 L19.915,17.7801 C20.2152,17.9534 20.4042,18.2697 20.4146,18.6161 C20.4237,18.9192875 20.2948344,19.2076219 20.0687344,19.4028562 L19.966,19.4806 L16.6512,21.6692 C16.0794,22.0468 15.3434,22.0688 14.75,21.7262 C14.2021538,21.4099538 13.8627243,20.8331444 13.8460723,20.2082912 L13.8487,20.0512 L14.0867,16.0862 C14.1075,15.7402 14.3059,15.4297 14.6111,15.2655 Z M12,2 C14.2088,2 16,3.78989 15.9999,5.99931 L15.9999,7 C15.9999,8.21411 16.5015,9.26672 17.1657,10.3535 L17.9018375,11.519275 C18.002075,11.6791 18.0974,11.8338 18.1812,11.9756 C18.5012,12.5173 18.8098,13.1162 18.9701,13.7575 C19.0363,14.0223 19.0852,14.3036 19.1214,14.5887 C19.144,14.7668 19.1579,14.9423 19.1635,15.1151 C18.6748,14.6279 17.9469,14.4072 17.2324,14.5986 L16.6666,14.7502 L16.085,14.4144 C15.4847,14.0679 14.7477,14.0568 14.1373,14.3852 C13.5269,14.7137 13.1301,15.3347 13.0886,16.0267 L12.8506,19.9917 C12.8299,20.3366 12.873,20.6757 12.9723,20.9946 L12.7032,21 L12.7032,21 L12.2966,21 C12.2213,21 12.146,20.9987 12.0707,20.9962 C12.2903,20.2856 12.2226,19.5036 11.8571,18.8287 L9.96576,15.3358 C9.63571,14.7262 9.01358,14.3311 8.32156,14.2914 C7.62954,14.2517 6.96632,14.5731 6.56874,15.1409 L6.18354,15.6911 L5.85361,15.7492 C5.82084,15.3767 5.82754,14.9893 5.87846,14.5887 C5.91471,14.3036 5.96358,14.0223 6.0298,13.7575 C6.22781444,12.9654111 6.56488605,12.298484 6.88676833,11.7365808 L7.32366,10.9961 L7.32366,10.9961 C7.74149,10.2799 7.99994,9.72293 7.99994,9 L7.99994,5.99994 C7.99994,3.79073 9.79086,2 12,2 Z M10.562,7.77799 L9.74027,8.18883 C9.96431,8.78453 10.3115,9.34408 10.6368,9.78798 L10.8414256,10.0565301 L10.8414256,10.0565301 L11.0253728,10.281619 C11.05374,10.315216 11.08082,10.34678 11.1064,10.3762 L11.3555204,10.2345385 L11.3555204,10.2345385 L11.6846,10.03761 C11.860925,9.929065 12.0529,9.80592 12.2514,9.67052 C12.8553,9.25857 13.4757,8.76191 13.9132,8.24357 L11.5966,7.66442 C11.2492,7.57757 10.8822,7.61786 10.562,7.77799 Z" id="形状" fill="#09244B"></path>
            </g>
        </g>
    </g>
</svg>