<svg xmlns="http://www.w3.org/2000/svg" width="24" height="24"><g fill="none" fill-rule="evenodd"><path d="M24 0v24H0V0zM12.594 23.258l-.012.002-.071.035-.02.004-.014-.004-.071-.036c-.01-.003-.019 0-.024.006l-.004.01-.017.428.005.02.01.013.104.074.015.004.012-.004.104-.074.012-.016.004-.017-.017-.427c-.002-.01-.009-.017-.016-.018m.264-.113-.014.002-.184.093-.01.01-.003.011.018.43.005.012.008.008.201.092c.012.004.023 0 .029-.008l.004-.014-.034-.614c-.003-.012-.01-.02-.02-.022m-.715.002a.023.023 0 0 0-.027.006l-.006.014-.034.614c0 .012.007.02.017.024l.015-.002.201-.093.01-.008.003-.011.018-.43-.003-.012-.01-.01z"/><path fill="#09244B" d="M8.264 15.29a1 1 0 0 1 .822.522l1.892 3.493a1.809 1.809 0 0 1-1.856 2.65l-3.93-.582a1 1 0 0 1-.672-1.563l.623-.89-.174-.984a1 1 0 0 1 .811-1.159l.985-.173.623-.89a1 1 0 0 1 .876-.425Zm6.347-.024a1 1 0 0 1 .858-.043l.116.057.94.543.966-.259a1 1 0 0 1 1.188.596l.037.111.259.966.94.543a1 1 0 0 1 .154 1.623l-.103.078-3.315 2.188a1.809 1.809 0 0 1-2.805-1.46l.003-.158.238-3.965a1 1 0 0 1 .524-.82M12 2a4 4 0 0 1 4 4v1c0 1.214.502 2.267 1.166 3.354l.736 1.165c.1.16.195.315.28.457.32.541.628 1.14.788 1.781a7.182 7.182 0 0 1 .194 1.358 2 2 0 0 0-1.932-.516l-.565.151-.582-.336a2 2 0 0 0-2.996 1.613l-.238 3.965c-.021.345.022.684.121 1.003l-.269.005h-.406c-.076 0-.151-.001-.226-.004.22-.71.152-1.492-.214-2.167l-1.891-3.493a2 2 0 0 0-3.397-.195l-.385.55-.33.058a5.42 5.42 0 0 1 .024-1.16c.037-.285.086-.567.152-.832.198-.792.535-1.459.857-2.02l.437-.74C7.74 10.28 8 9.722 8 9V6a4 4 0 0 1 4-4m-1.438 5.778-.822.41c.224.597.572 1.156.897 1.6l.204.269.184.225.081.094.25-.141.329-.197c.176-.109.368-.232.566-.367.604-.412 1.225-.91 1.662-1.427l-2.316-.58a1.5 1.5 0 0 0-1.035.114"/></g></svg>