<svg xmlns="http://www.w3.org/2000/svg" width="24" height="24"><g fill="none"><path d="M24 0v24H0V0zM12.593 23.258l-.011.002-.071.035-.02.004-.014-.004-.071-.035c-.01-.004-.019-.001-.024.005l-.004.01-.017.428.005.02.01.013.104.074.015.004.012-.004.104-.074.012-.016.004-.017-.017-.427c-.002-.01-.009-.017-.017-.018m.265-.113-.013.002-.185.093-.01.01-.003.011.018.43.005.012.008.007.201.093c.012.004.023 0 .029-.008l.004-.014-.034-.614c-.003-.012-.01-.02-.02-.022m-.715.002a.023.023 0 0 0-.027.006l-.006.014-.034.614c0 .012.007.02.017.024l.015-.002.201-.093.01-.008.004-.011.017-.43-.003-.012-.01-.01z"/><path fill="#09244B" d="M8.5 6a6.47 6.47 0 0 1 3.458.995l-.595.491A6.489 6.489 0 0 0 9 12.5a6.49 6.49 0 0 0 2.363 5.014l.595.49A6.5 6.5 0 1 1 8.5 6m7 0a6.5 6.5 0 1 1-3.204 12.157l-.254-.152.595-.491A6.49 6.49 0 0 0 15 12.5c0-1.927-.84-3.659-2.17-4.848l-.193-.166-.595-.491A6.47 6.47 0 0 1 15.5 6M12 9.671a4.48 4.48 0 0 1 1 2.829 4.479 4.479 0 0 1-1 2.829 4.479 4.479 0 0 1-1-2.829 4.48 4.48 0 0 1 1-2.829"/></g></svg>