<?xml version="1.0" encoding="UTF-8"?>
<svg width="24px" height="24px" viewBox="0 0 24 24" version="1.1" xmlns="http://www.w3.org/2000/svg" xmlns:xlink="http://www.w3.org/1999/xlink">
    <title>medium_line</title>
    <g id="页面-1" stroke="none" stroke-width="1" fill="none" fill-rule="evenodd">
        <g id="Brand" transform="translate(-384.000000, -0.000000)">
            <g id="medium_line" transform="translate(384.000000, 0.000000)">
                <rect id="矩形" fill-rule="nonzero" x="0" y="0" width="24" height="24"></rect>
                <path d="M8,16 C10.2091,16 12,14.2091 12,12 C12,9.79086 10.2091,8 8,8 C5.79086,8 4,9.79086 4,12 C4,14.2091 5.79086,16 8,16 Z M8,18 C11.3137,18 14,15.3137 14,12 C14,8.68629 11.3137,6 8,6 C4.68629,6 2,8.68629 2,12 C2,15.3137 4.68629,18 8,18 Z M17.5,12 C17.5,11.1342 17.4076,10.2023 17.0437,9.40319 C17.0264,9.36531 16.9736,9.36531 16.9563,9.4032 C16.5925,10.2023 16.5,11.1342 16.5,12 C16.5,12.8658 16.5924,13.7977 16.9563,14.5968 C16.9736,14.6347 17.0264,14.6347 17.0437,14.5968 C17.4075,13.7977 17.5,12.8658 17.5,12 Z M17,17 C18.5,17 19.5,14.7614 19.5,12 C19.5,9.23858 18.5,7 17,7 C15.5,7 14.5,9.23858 14.5,12 C14.5,14.7614 15.5,17 17,17 Z M21,16.5 C21.5523,16.5 22,14.7614 22,12 C22,9.23858 21.5523,7.5 21,7.5 C20.4477,7.5 20,9.23858 20,12 C20,14.7614 20.4477,16.5 21,16.5 Z" id="形状" fill="#09244B"></path>
            </g>
        </g>
    </g>
</svg>