<?xml version="1.0" encoding="UTF-8"?>
<svg width="24px" height="24px" viewBox="0 0 24 24" version="1.1" xmlns="http://www.w3.org/2000/svg" xmlns:xlink="http://www.w3.org/1999/xlink">
    <title>medium_line</title>
    <g id="页面-1" stroke="none" stroke-width="1" fill="none" fill-rule="evenodd">
        <g id="Brand" transform="translate(-384.000000, -0.000000)">
            <g id="medium_line" transform="translate(384.000000, 0.000000)">
                <path d="M24,0 L24,24 L0,24 L0,0 L24,0 Z M12.5934901,23.257841 L12.5819402,23.2595131 L12.5108777,23.2950439 L12.4918791,23.2987469 L12.4918791,23.2987469 L12.4767152,23.2950439 L12.4056548,23.2595131 C12.3958229,23.2563662 12.3870493,23.2590235 12.3821421,23.2649074 L12.3780323,23.275831 L12.360941,23.7031097 L12.3658947,23.7234994 L12.3769048,23.7357139 L12.4804777,23.8096931 L12.4953491,23.8136134 L12.4953491,23.8136134 L12.5071152,23.8096931 L12.6106902,23.7357139 L12.6232938,23.7196733 L12.6232938,23.7196733 L12.6266527,23.7031097 L12.609561,23.275831 C12.6075724,23.2657013 12.6010112,23.2592993 12.5934901,23.257841 L12.5934901,23.257841 Z M12.8583906,23.1452862 L12.8445485,23.1473072 L12.6598443,23.2396597 L12.6498822,23.2499052 L12.6498822,23.2499052 L12.6471943,23.2611114 L12.6650943,23.6906389 L12.6699349,23.7034178 L12.6699349,23.7034178 L12.678386,23.7104931 L12.8793402,23.8032389 C12.8914285,23.8068999 12.9022333,23.8029875 12.9078286,23.7952264 L12.9118235,23.7811639 L12.8776777,23.1665331 C12.8752882,23.1545897 12.8674102,23.1470016 12.8583906,23.1452862 L12.8583906,23.1452862 Z M12.1430473,23.1473072 C12.1332178,23.1423925 12.1221763,23.1452606 12.1156365,23.1525954 L12.1099173,23.1665331 L12.0757714,23.7811639 C12.0751323,23.7926639 12.0828099,23.8018602 12.0926481,23.8045676 L12.108256,23.8032389 L12.3092106,23.7104931 L12.3186497,23.7024347 L12.3186497,23.7024347 L12.3225043,23.6906389 L12.340401,23.2611114 L12.337245,23.2485176 L12.337245,23.2485176 L12.3277531,23.2396597 L12.1430473,23.1473072 Z" id="MingCute" fill-rule="nonzero"></path>
                <path d="M8,16 C10.2091,16 12,14.2091 12,12 C12,9.79086 10.2091,8 8,8 C5.79086,8 4,9.79086 4,12 C4,14.2091 5.79086,16 8,16 Z M8,18 C11.3137,18 14,15.3137 14,12 C14,8.68629 11.3137,6 8,6 C4.68629,6 2,8.68629 2,12 C2,15.3137 4.68629,18 8,18 Z M17.5,12 C17.5,11.1342 17.4076,10.2023 17.0437,9.40319 C17.0264,9.36531 16.9736,9.36531 16.9563,9.4032 C16.5925,10.2023 16.5,11.1342 16.5,12 C16.5,12.8658 16.5924,13.7977 16.9563,14.5968 C16.9736,14.6347 17.0264,14.6347 17.0437,14.5968 C17.4075,13.7977 17.5,12.8658 17.5,12 Z M17,17 C18.5,17 19.5,14.7614 19.5,12 C19.5,9.23858 18.5,7 17,7 C15.5,7 14.5,9.23858 14.5,12 C14.5,14.7614 15.5,17 17,17 Z M21,16.5 C21.5523,16.5 22,14.7614 22,12 C22,9.23858 21.5523,7.5 21,7.5 C20.4477,7.5 20,9.23858 20,12 C20,14.7614 20.4477,16.5 21,16.5 Z" id="形状" fill="#09244B"></path>
            </g>
        </g>
    </g>
</svg>