<?xml version="1.0" encoding="UTF-8"?>
<svg width="24px" height="24px" viewBox="0 0 24 24" version="1.1" xmlns="http://www.w3.org/2000/svg" xmlns:xlink="http://www.w3.org/1999/xlink">
    <title>meta_fill</title>
    <g id="页面-1" stroke="none" stroke-width="1" fill="none" fill-rule="evenodd">
        <g id="Brand" transform="translate(-480.000000, -48.000000)">
            <g id="meta_fill" transform="translate(480.000000, 48.000000)">
                <rect id="矩形" fill-rule="nonzero" x="0" y="0" width="24" height="24"></rect>
                <path d="M16.0235,4.50341 C17.8529,4.3766 19.267,5.44519 20.2076,6.67737 C21.156,7.91976 21.8094,9.54336 22.1673,11.1394 C22.5251,12.7347 22.6208,14.4504 22.3239,15.9123 C22.0388,17.3161 21.2785,18.9223 19.5568,19.437 C17.9375,19.9211 16.5179,19.2167 15.5052,18.3648 C14.4894,17.5103 13.6292,16.3122 12.953,15.1885 C12.6252,14.6438 12.3272,14.0938 12.0637,13.573 C11.8001,14.0938 11.5021,14.6438 11.1743,15.1885 C10.4981,16.3122 9.63792,17.5103 8.62209,18.3648 C7.60941,19.2167 6.18982,19.9211 4.57048,19.437 C2.84884,18.9223 2.08848,17.3161 1.80341,15.9123 C1.50655,14.4504 1.60217,12.7347 1.95995,11.1394 C2.31789,9.54336 2.97134,7.91976 3.91972,6.67737 C4.86029,5.44519 6.27437,4.3766 8.10383,4.50341 C9.81996636,4.62237364 11.0674829,5.78648603 11.8446591,6.77187041 L12.0637,7.0609 L12.0637,7.0609 L12.2827156,6.77187041 C13.059814,5.78648603 14.3073182,4.62237364 16.0235,4.50341 Z M7.89637,7.49623 C7.47584,7.46708 6.92691,7.6821 6.30436,8.49766 C5.68961,9.30301 5.17981,10.4913 4.88724,11.7959 C4.59453,13.1011 4.5524,14.3747 4.74341,15.3153 C4.90819312,16.126825 5.17222414,16.4173547 5.33536471,16.5186918 L5.40276778,16.5532373 L5.40276778,16.5532373 L5.42973,16.5627 C5.6624,16.6322 6.04382,16.6134 6.69089,16.0691 C7.33482,15.5274 7.99318,14.6564 8.60392,13.6416 C8.87629333,13.1890333 9.12860444,12.7252222 9.35564593,12.2790926 L9.61563301,11.7540754 L9.61563301,11.7540754 L9.8493616,11.25714 L9.8493616,11.25714 L10.0548321,10.7993939 L10.0548321,10.7993939 L10.2300447,10.3919447 L10.2300447,10.3919447 L10.373,10.0459 L10.373,10.0459 C10.2165,9.73315 9.99218,9.32834 9.71032,8.92724 C9.06612,8.01052 8.42073,7.53258 7.89637,7.49623 Z M16.2309,7.49623 C15.7066,7.53258 15.0612,8.01052 14.417,8.92724 C14.1351,9.32834 13.9108,9.73315 13.7543,10.0459 L13.9809584,10.588688 L13.9809584,10.588688 L14.1715556,11.0226741 C14.2058156,11.0990422 14.2412947,11.1772747 14.2779512,11.25714 L14.511686,11.7540754 L14.511686,11.7540754 L14.7716778,12.2790926 C14.9987222,12.7252222 15.2510333,13.1890333 15.5234,13.6416 C16.1341,14.6564 16.7925,15.5274 17.4364,16.0691 C18.0372786,16.5745214 18.4090587,16.6268332 18.6454171,16.576082 L18.6976,16.5627 C18.8279,16.5237 19.1811,16.3141 19.3839,15.3153 C19.5749,14.3747 19.5328,13.1011 19.2401,11.7959 C18.9475,10.4913 18.4377,9.30301 17.8229,8.49766 C17.2004,7.6821 16.6515,7.46708 16.2309,7.49623 Z" id="形状" fill="#09244B"></path>
            </g>
        </g>
    </g>
</svg>