<?xml version="1.0" encoding="UTF-8"?>
<svg width="24px" height="24px" viewBox="0 0 24 24" version="1.1" xmlns="http://www.w3.org/2000/svg" xmlns:xlink="http://www.w3.org/1999/xlink">
    <title>mingcute_fill</title>
    <g id="页面-1" stroke="none" stroke-width="1" fill="none" fill-rule="evenodd">
        <g id="Logo" transform="translate(-576.000000, -144.000000)" fill-rule="nonzero">
            <g id="mingcute_fill" transform="translate(576.000000, 144.000000)">
                 <path d="M24,0 L24,24 L0,24 L0,0 L24,0 Z M12.5934901,23.257841 L12.5819402,23.2595131 L12.5108777,23.2950439 L12.4918791,23.2987469 L12.4918791,23.2987469 L12.4767152,23.2950439 L12.4056548,23.2595131 C12.3958229,23.2563662 12.3870493,23.2590235 12.3821421,23.2649074 L12.3780323,23.275831 L12.360941,23.7031097 L12.3658947,23.7234994 L12.3769048,23.7357139 L12.4804777,23.8096931 L12.4953491,23.8136134 L12.4953491,23.8136134 L12.5071152,23.8096931 L12.6106902,23.7357139 L12.6232938,23.7196733 L12.6232938,23.7196733 L12.6266527,23.7031097 L12.609561,23.275831 C12.6075724,23.2657013 12.6010112,23.2592993 12.5934901,23.257841 L12.5934901,23.257841 Z M12.8583906,23.1452862 L12.8445485,23.1473072 L12.6598443,23.2396597 L12.6498822,23.2499052 L12.6498822,23.2499052 L12.6471943,23.2611114 L12.6650943,23.6906389 L12.6699349,23.7034178 L12.6699349,23.7034178 L12.678386,23.7104931 L12.8793402,23.8032389 C12.8914285,23.8068999 12.9022333,23.8029875 12.9078286,23.7952264 L12.9118235,23.7811639 L12.8776777,23.1665331 C12.8752882,23.1545897 12.8674102,23.1470016 12.8583906,23.1452862 L12.8583906,23.1452862 Z M12.1430473,23.1473072 C12.1332178,23.1423925 12.1221763,23.1452606 12.1156365,23.1525954 L12.1099173,23.1665331 L12.0757714,23.7811639 C12.0751323,23.7926639 12.0828099,23.8018602 12.0926481,23.8045676 L12.108256,23.8032389 L12.3092106,23.7104931 L12.3186497,23.7024347 L12.3186497,23.7024347 L12.3225043,23.6906389 L12.340401,23.2611114 L12.337245,23.2485176 L12.337245,23.2485176 L12.3277531,23.2396597 L12.1430473,23.1473072 Z" id="MingCute" fill-rule="nonzero"></path>
                <path d="M14.1155,6.81728 C14.3883,6.68087083 14.7068111,6.84423917 14.7682462,7.12851647 L14.7784,7.20891 L15.1886,17.4636 C15.19945,17.7337125 15.0904797,17.9927234 14.8946492,18.1735736 L14.8055,18.2461 L12.3197,20.0216 C12.1558143,20.1386857 11.9436592,20.1554122 11.7659822,20.0717796 L11.6804,20.0216 L9.19465,18.2461 C8.97464,18.08895 8.83685813,17.8440594 8.81412385,17.5784873 L8.81152,17.4636 L9.22171,7.20891 C9.23390167,6.9041275 9.53070382,6.70399319 9.80933707,6.78737561 L9.88465,6.81728 L11.5901,7.67002 C11.8113286,7.78061714 12.0660592,7.79641673 12.2968598,7.71741878 L12.41,7.67002 L14.1155,6.81728 Z M20.4181,4.12434 C20.7447769,3.96102 21.1271793,4.15579988 21.2013024,4.49741847 L21.2132,4.58576 L22.0327,19.3369 C22.05415,19.7213286 21.6882796,19.9984939 21.3343759,19.8969735 L21.2531,19.8667 L16.4302,17.6408 C16.2696571,17.5666571 16.1562082,17.4209551 16.1217178,17.2510501 L16.1112,17.1643 L15.6816,6.85564 C15.6738857,6.67013714 15.7601388,6.49555918 15.9069201,6.38846286 L15.9852,6.3408 L20.4181,4.12434 Z M3.58207,4.12434 L8.01501,6.3408 C8.20874,6.43767 8.32758,6.63922 8.31856,6.85564 L7.88904,17.1643 C7.88045,17.3704 7.75728,17.5543 7.56999,17.6408 L2.74708,19.8667 C2.37054,20.0405 1.94444,19.7509 1.96745,19.3369 L2.78695,4.58576 C2.8089,4.19075 3.22821,3.94741 3.58207,4.12434 Z" id="形状" fill="#09244B"></path>
            </g>
        </g>
    </g>
</svg>