<?xml version="1.0" encoding="UTF-8"?>
<svg width="24px" height="24px" viewBox="0 0 24 24" version="1.1" xmlns="http://www.w3.org/2000/svg" xmlns:xlink="http://www.w3.org/1999/xlink">
    <title>mingcute_line</title>
    <g id="页面-1" stroke="none" stroke-width="1" fill="none" fill-rule="evenodd">
        <g id="Logo" transform="translate(-576.000000, -96.000000)">
            <g id="mingcute_line" transform="translate(576.000000, 96.000000)">
                 <path d="M24,0 L24,24 L0,24 L0,0 L24,0 Z M12.5934901,23.257841 L12.5819402,23.2595131 L12.5108777,23.2950439 L12.4918791,23.2987469 L12.4918791,23.2987469 L12.4767152,23.2950439 L12.4056548,23.2595131 C12.3958229,23.2563662 12.3870493,23.2590235 12.3821421,23.2649074 L12.3780323,23.275831 L12.360941,23.7031097 L12.3658947,23.7234994 L12.3769048,23.7357139 L12.4804777,23.8096931 L12.4953491,23.8136134 L12.4953491,23.8136134 L12.5071152,23.8096931 L12.6106902,23.7357139 L12.6232938,23.7196733 L12.6232938,23.7196733 L12.6266527,23.7031097 L12.609561,23.275831 C12.6075724,23.2657013 12.6010112,23.2592993 12.5934901,23.257841 L12.5934901,23.257841 Z M12.8583906,23.1452862 L12.8445485,23.1473072 L12.6598443,23.2396597 L12.6498822,23.2499052 L12.6498822,23.2499052 L12.6471943,23.2611114 L12.6650943,23.6906389 L12.6699349,23.7034178 L12.6699349,23.7034178 L12.678386,23.7104931 L12.8793402,23.8032389 C12.8914285,23.8068999 12.9022333,23.8029875 12.9078286,23.7952264 L12.9118235,23.7811639 L12.8776777,23.1665331 C12.8752882,23.1545897 12.8674102,23.1470016 12.8583906,23.1452862 L12.8583906,23.1452862 Z M12.1430473,23.1473072 C12.1332178,23.1423925 12.1221763,23.1452606 12.1156365,23.1525954 L12.1099173,23.1665331 L12.0757714,23.7811639 C12.0751323,23.7926639 12.0828099,23.8018602 12.0926481,23.8045676 L12.108256,23.8032389 L12.3092106,23.7104931 L12.3186497,23.7024347 L12.3186497,23.7024347 L12.3225043,23.6906389 L12.340401,23.2611114 L12.337245,23.2485176 L12.337245,23.2485176 L12.3277531,23.2396597 L12.1430473,23.1473072 Z" id="MingCute" fill-rule="nonzero"></path>
                <path d="M19.96,3.64952 C20.6280842,3.34622947 21.3869961,3.76947978 21.5004022,4.47240316 L21.5132,4.59207 L22.3301,19.7861 C22.3716238,20.5590524 21.6286578,21.1192156 20.9110498,20.8976664 L20.8037,20.8585 L15.9069,18.7906 L12.6505,20.7743 C12.2954778,20.9905667 11.8595469,21.0145963 11.486545,20.8463889 L11.3499,20.7743 L8.09331,18.7906 L3.19647,20.8585 C2.48339381,21.1596429 1.70453984,20.650627 1.66966946,19.9003758 L1.67012,19.7861 L2.48701,4.59207 C2.52640158,3.85945105 3.2522244,3.3816792 3.92809388,3.60562219 L4.04015,3.64952 L9.39933,6.08256 L12.0002,7.16621 L14.601,6.0825 L19.96,3.64952 Z M14.0562,8.47616 L12.481,9.13255 C12.2172571,9.24244429 11.9252286,9.25814347 11.6534041,9.17965385 L11.5194,9.13256 L9.94401,8.47616 L9.60192,17.3677 L12.0002,18.8286 L14.3983,17.3678 L14.0562,8.47616 Z M19.5868,6.01542 L16.0262,7.63193 L16.3939,16.8253 L20.2557,18.4561 L19.5868,6.01542 Z M4.41337,6.01542 L3.74452,18.4561 L7.60626,16.8253 L7.974,7.63193 L4.41337,6.01542 Z" id="形状" fill="#09244B"></path>
            </g>
        </g>
    </g>
</svg>