<svg xmlns="http://www.w3.org/2000/svg" width="24" height="24" viewBox="0 0 24 24"><title>misskey_line</title><g fill="none" fill-rule="nonzero"><path d="M24 0v24H0V0zM12.594 23.258l-.012.002-.071.035-.02.004-.014-.004-.071-.036q-.016-.004-.024.006l-.004.01-.017.428.005.02.01.013.104.074.015.004.012-.004.104-.074.012-.016.004-.017-.017-.427q-.004-.016-.016-.018m.264-.113-.014.002-.184.093-.01.01-.003.011.018.43.005.012.008.008.201.092q.019.005.029-.008l.004-.014-.034-.614q-.005-.019-.02-.022m-.715.002a.02.02 0 0 0-.027.006l-.006.014-.034.614q.001.018.017.024l.015-.002.201-.093.01-.008.003-.011.018-.43-.003-.012-.01-.01z"/><path fill="#09244b" d="M14 7.468a.23.23 0 0 0-.043-.148.26.26 0 0 0-.122-.088.27.27 0 0 0-.15-.01.23.23 0 0 0-.127.087l-2.633 3.176a2.5 2.5 0 0 1-3.85 0L4.442 7.31a.23.23 0 0 0-.127-.087.27.27 0 0 0-.15.01.26.26 0 0 0-.122.088.23.23 0 0 0-.043.148v9.147a.385.385 0 0 0 .77 0v-4.408a1 1 0 0 1 1.766-.642l2.08 2.487a.5.5 0 0 0 .768 0l2.08-2.487a1 1 0 0 1 1.766.642v4.408a.385.385 0 0 0 .77 0zm6 6.032a.5.5 0 0 0-1 0v3a.5.5 0 0 0 1 0zm0-6a.5.5 0 1 0-1 0 .5.5 0 0 0 1 0m2 9a2.5 2.5 0 0 1-5 0v-3a2.5 2.5 0 0 1 5 0zm0-9a2.5 2.5 0 1 1-5 0 2.5 2.5 0 0 1 5 0m-6 9.115a2.385 2.385 0 0 1-4.77 0v-1.654l-.312.374a2.5 2.5 0 0 1-3.836 0l-.312-.374v1.654a2.385 2.385 0 0 1-4.77 0V7.468C2 5.36 4.638 4.409 5.982 6.032L8.615 9.21a.5.5 0 0 0 .77 0l2.633-3.177C13.362 4.41 16 5.36 16 7.468z"/></g></svg>