<svg xmlns="http://www.w3.org/2000/svg" width="24" height="24"><g fill="none" fill-rule="evenodd"><path d="M24 0v24H0V0zM12.593 23.258l-.011.002-.071.035-.02.004-.014-.004-.071-.035c-.01-.004-.019-.001-.024.005l-.004.01-.017.428.005.02.01.013.104.074.015.004.012-.004.104-.074.012-.016.004-.017-.017-.427c-.002-.01-.009-.017-.017-.018m.265-.113-.013.002-.185.093-.01.01-.003.011.018.43.005.012.008.007.201.093c.012.004.023 0 .029-.008l.004-.014-.034-.614c-.003-.012-.01-.02-.02-.022m-.715.002a.023.023 0 0 0-.027.006l-.006.014-.034.614c0 .012.007.02.017.024l.015-.002.201-.093.01-.008.004-.011.017-.43-.003-.012-.01-.01z"/><path fill="#09244B" d="m9 16.042 8.002 4.62A9.954 9.954 0 0 1 12 22c-.915 0-1.8-.123-2.642-.353L9 21.542zm-2-4.62v9.24a10.02 10.02 0 0 1-4.687-6.171l-.076-.318zM22 12a9.97 9.97 0 0 1-3.012 7.153l-.227.215L14 16.618zM12 8.536l3 1.732v3.464l-3 1.732-3-1.732v-3.464zm5-5.198a10.015 10.015 0 0 1 4.763 6.49L17 12.577v-9.24ZM5.239 4.632 10 7.382 2 12l.006-.335a9.969 9.969 0 0 1 3.006-6.818zM12 2c.915 0 1.8.123 2.642.353l.358.105v5.5l-8.002-4.62A9.954 9.954 0 0 1 12 2"/></g></svg>