<svg xmlns="http://www.w3.org/2000/svg" width="24" height="24" viewBox="0 0 24 24"><title>mtqq_line</title><g fill="none" fill-rule="nonzero"><path d="M24 0v24H0V0zM12.594 23.258l-.012.002-.071.035-.02.004-.014-.004-.071-.036q-.016-.004-.024.006l-.004.01-.017.428.005.02.01.013.104.074.015.004.012-.004.104-.074.012-.016.004-.017-.017-.427q-.004-.016-.016-.018m.264-.113-.014.002-.184.093-.01.01-.003.011.018.43.005.012.008.008.201.092q.019.005.029-.008l.004-.014-.034-.614q-.005-.019-.02-.022m-.715.002a.02.02 0 0 0-.027.006l-.006.014-.034.614q.001.018.017.024l.015-.002.201-.093.01-.008.003-.011.018-.43-.003-.012-.01-.01z"/><path fill="#09244b" d="M5.134 3.009c8.231 1.112 14.745 7.626 15.857 15.857a1 1 0 0 1-1.982.268c-.992-7.34-6.804-13.151-14.143-14.143a1 1 0 0 1 .268-1.982m.065 9.16a8.51 8.51 0 0 1 6.631 6.632A1 1 0 0 1 10.85 20H5a1 1 0 0 1-1-1v-5.85a1 1 0 0 1 1.2-.98m-.04-4.496A13.51 13.51 0 0 1 16.328 18.84a1 1 0 0 1-1.975.318 11.51 11.51 0 0 0-9.512-9.512 1 1 0 0 1 .318-1.974M6 14.499v3.5h3.501A6.52 6.52 0 0 0 6 14.5M19.999 3a1 1 0 0 1 1 1v4.007l-.012.157a1 1 0 0 1-1.774.46 22.6 22.6 0 0 0-3.83-3.832 1 1 0 0 1 .616-1.786z"/></g></svg>