<svg xmlns="http://www.w3.org/2000/svg" width="24" height="24"><g fill="none" fill-rule="evenodd"><path d="M24 0v24H0V0zM12.594 23.258l-.012.002-.071.035-.02.004-.014-.004-.071-.036c-.01-.003-.019 0-.024.006l-.004.01-.017.428.005.02.01.013.104.074.015.004.012-.004.104-.074.012-.016.004-.017-.017-.427c-.002-.01-.009-.017-.016-.018m.264-.113-.014.002-.184.093-.01.01-.003.011.018.43.005.012.008.008.201.092c.012.004.023 0 .029-.008l.004-.014-.034-.614c-.003-.012-.01-.02-.02-.022m-.715.002a.023.023 0 0 0-.027.006l-.006.014-.034.614c0 .012.007.02.017.024l.015-.002.201-.093.01-.008.003-.011.018-.43-.003-.012-.01-.01z"/><path fill="#09244B" d="M10 2a4 4 0 0 1 3.46 1.99l.098.182.638-.368a4 4 0 0 1 5.475 5.446l-.113.186.638.368a4 4 0 0 1-1.979 7.464L18 17.264V18a4 4 0 0 1-7.459 2.01l-.1-.182-.637.368a4 4 0 0 1-5.475-5.446l.113-.186-.638-.368a4 4 0 0 1 1.979-7.464L6 6.736V6a4 4 0 0 1 4-4m4.702 10.788-.068 4.059a1 1 0 0 1-.391.777l-.109.072-1.956 1.13a2.002 2.002 0 0 0 3.817-.677L16 18v-4.434l-1.298-.779Zm-2.033 1.946-3.55 1.97a1 1 0 0 1-.985-.008l-1.956-1.13a2.001 2.001 0 0 0 2.626 2.898l3.84-2.217zm2.687-5.415-1.323.735 3.482 2.089A1 1 0 0 1 18 13v2.259a2.002 2.002 0 0 0 1.196-3.723zM6 8.74a2.001 2.001 0 0 0-1.328 3.64l.132.083 3.84 2.217 1.323-.735-3.482-2.088a1 1 0 0 1-.477-.728L6 11zM10 4a2 2 0 0 0-2 2v4.434l1.298.779.068-4.06a1 1 0 0 1 .5-.85l1.956-1.129A2.002 2.002 0 0 0 10 4m7.928 2.268a2 2 0 0 0-2.594-.805l-.138.073-3.84 2.217-.025 1.513 3.55-1.97a1 1 0 0 1 .868-.05l.117.058 1.957 1.13c.442-.62.51-1.465.105-2.166"/></g></svg>