<?xml version="1.0" encoding="UTF-8"?>
<svg width="24px" height="24px" viewBox="0 0 24 24" version="1.1" xmlns="http://www.w3.org/2000/svg" xmlns:xlink="http://www.w3.org/1999/xlink">
    <title>openai_fill</title>
    <g id="Icon" stroke="none" stroke-width="1" fill="none" fill-rule="evenodd">
        <g id="Logo" transform="translate(-528.000000, -240.000000)">
            <g id="openai_fill" transform="translate(528.000000, 240.000000)">
                <path d="M24,0 L24,24 L0,24 L0,0 L24,0 Z M12.5935,23.2578 L12.5819,23.2595 L12.5109,23.295 L12.4919,23.2987 L12.4767,23.295 L12.4057,23.2595 C12.3958,23.2564 12.387,23.259 12.3821,23.2649 L12.378,23.2758 L12.3609,23.7031 L12.3659,23.7235 L12.3769,23.7357 L12.4805,23.8097 L12.4953,23.8136 L12.5071,23.8097 L12.6107,23.7357 L12.6233,23.7197 L12.6267,23.7031 L12.6096,23.2758 C12.6076,23.2657 12.601,23.2593 12.5935,23.2578 Z M12.8584,23.1453 L12.8445,23.1473 L12.6598,23.2397 L12.6499,23.2499 L12.6472,23.2611 L12.6651,23.6906 L12.6699,23.7034 L12.6784,23.7105 L12.8793,23.8032 C12.8914,23.8069 12.9022,23.803 12.9078,23.7952 L12.9118,23.7812 L12.8777,23.1665 C12.8753,23.1546 12.8674,23.147 12.8584,23.1453 Z M12.143,23.1473 C12.1332,23.1424 12.1222,23.1453 12.1156,23.1526 L12.1099,23.1665 L12.0758,23.7812 C12.0751,23.7927 12.0828,23.8019 12.0926,23.8046 L12.1083,23.8032 L12.3092,23.7105 L12.3186,23.7024 L12.3225,23.6906 L12.3404,23.2611 L12.3372,23.2485 L12.3278,23.2397 L12.143,23.1473 Z" id="MingCute" fill-rule="nonzero"></path>
                <path d="M9.99997,2 C11.4770462,2 12.7661587,2.80008163 13.4590837,3.99050081 L13.5585,4.17194 L14.1961,3.80377 C16.1093,2.6992 18.5557,3.35471 19.6602,5.26788 C20.396925,6.543882 20.3507312,8.05596898 19.6710592,9.24981369 L19.5585,9.43559 L20.1962,9.80377 C22.1094,10.9083 22.7649,13.3547 21.6603,15.2679 C20.92367,16.543845 19.591029,17.259879 18.2172701,17.2681906 L18.0001,17.2636 L18.0001,18 C18.0001,20.2091 16.2093,22 14.0001,22 C12.5230524,22 11.2339413,21.1999093 10.5410163,20.0095324 L10.4416,19.8281 L9.80395,20.1962 C7.89078,21.3008 5.44442,20.6453 4.33985,18.7321 C3.603144,17.456155 3.64938382,15.9440257 4.32901755,14.7501767 L4.44157,14.5644 L3.80389,14.1962 C1.89072,13.0917 1.23522,10.6453 2.33979,8.73212 C3.0764865,7.4561275 4.40910375,6.74012723 5.78280867,6.73176772 L5.99997,6.73635 L5.99997,6 C5.99997,3.79086 7.79083,2 9.99997,2 Z M14.7022,12.7875 L14.6339,16.847 C14.6287375,17.1543 14.4828531,17.43955 14.2426725,17.6236992 L14.1341,17.6962 L12.1777,18.8257 C12.4921,19.5182 13.1905,20 14.0001,20 C15.0544909,20 15.9182678,19.18415 15.9946144,18.1492661 L16.0001,18 L16.0001,13.5662 L14.7022,12.7875 Z M12.6692,14.7339 L9.11938,16.7045 C8.81227,16.875 8.43822,16.8719 8.13402,16.6962 L6.17764,15.5667 C5.73508,16.1852 5.66708,17.0309 6.0719,17.7321 C6.62419,18.6887 7.84737,19.0165 8.80395,18.4642 L12.6437,16.2473 L12.6692,14.7339 Z M15.3564,9.31892 L14.0331,10.0536 L17.5146,12.1425 C17.8158,12.3232 18.0001,12.6487 18.0001,13 L18.0001,15.259 C18.757,15.333 19.5235,14.969 19.9283,14.2679 C20.4806,13.3113 20.1528,12.0881 19.1962,11.5358 L15.3564,9.31892 Z M5.99997,8.74099 C5.24308,8.66698 4.47666,9.03096 4.07184,9.73212 C3.54584952,10.6431486 3.81809034,11.7960093 4.67154053,12.3808373 L4.80389,12.4642 L8.64368,14.6811 L9.96705,13.9464 L6.48548,11.8575 C6.22192125,11.6993875 6.04787172,11.4304125 6.00847744,11.1302957 L5.99997,11 L5.99997,8.74099 Z M9.99997,4 C8.8954,4 7.99997,4.89543 7.99997,6 L7.99997,10.4338 L9.29787,11.2125 L9.36616,7.15298 C9.37207,6.80177 9.56182,6.47941 9.86602,6.30377 L11.8224,5.17426 C11.508,4.48176 10.8096,4 9.99997,4 Z M17.9282,6.26788 C17.4022,5.3568419 16.2676739,5.01618023 15.3344695,5.46289097 L15.1961,5.53583 L11.3564,7.75273 L11.3309,9.26614 L14.8807,7.29549 C15.1495,7.14631125 15.4694438,7.13006797 15.7490199,7.24599645 L15.8661,7.30377 L17.8225,8.43327 C18.265,7.81479 18.333,6.96905 17.9282,6.26788 Z" id="形状" fill="#09244B"></path>
            </g>
        </g>
    </g>
</svg>