<svg xmlns="http://www.w3.org/2000/svg" width="24" height="24"><g fill="none" fill-rule="evenodd"><path d="M24 0v24H0V0zM12.593 23.258l-.011.002-.071.035-.02.004-.014-.004-.071-.035c-.01-.004-.019-.001-.024.005l-.004.01-.017.428.005.02.01.013.104.074.015.004.012-.004.104-.074.012-.016.004-.017-.017-.427c-.002-.01-.009-.017-.017-.018m.265-.113-.013.002-.185.093-.01.01-.003.011.018.43.005.012.008.007.201.093c.012.004.023 0 .029-.008l.004-.014-.034-.614c-.003-.012-.01-.02-.02-.022m-.715.002a.023.023 0 0 0-.027.006l-.006.014-.034.614c0 .012.007.02.017.024l.015-.002.201-.093.01-.008.004-.011.017-.43-.003-.012-.01-.01z"/><path fill="#09244B" d="M8.212 2a3 3 0 0 0-2.964 2.537L3.192 17.69A2 2 0 0 0 5.168 20h1.69a2 2 0 0 0 2 2h1.976a2 2 0 0 0 1.976-1.691L13.327 17h1.453a6 6 0 0 0 5.857-4.697l.048-.218a5.002 5.002 0 0 0-2.6-5.538C17.578 4.011 15.344 2 12.54 2H8.21Zm1.584 12h1.843a6.578 6.578 0 0 0 6.38-4.977l.01-.036a2.99 2.99 0 0 1 .704 2.664l-.049.217A4 4 0 0 1 14.78 15h-1.453a2 2 0 0 0-1.976 1.691L10.834 20H8.858z"/></g></svg>