<?xml version="1.0" encoding="UTF-8"?>
<svg width="24px" height="24px" viewBox="0 0 24 24" version="1.1" xmlns="http://www.w3.org/2000/svg" xmlns:xlink="http://www.w3.org/1999/xlink">
    <title>paypal_line</title>
    <g id="页面-1" stroke="none" stroke-width="1" fill="none" fill-rule="evenodd">
        <g id="Brand" transform="translate(-528.000000, -0.000000)">
            <g id="paypal_line" transform="translate(528.000000, 0.000000)">
                <rect id="矩形" fill-rule="nonzero" x="0" y="0" width="24" height="24"></rect>
                <path d="M12.5408,2 C15.3448,2 17.5788,4.01068 18.0844,6.54701 C19.96302,7.511405 21.1207161,9.62399861 20.7308819,11.8543014 L20.685,12.0854 L20.6367,12.3025 C20.0442529,14.9665706 17.7332395,16.8843559 15.0268845,16.9948622 L14.7798,16.9999 L13.3271,16.9999 L12.8101,20.3087 C12.66645,21.2281167 11.9105481,21.919366 10.9968806,21.9933338 L10.8341,21.9999 L8.85838,21.9999 C7.78699818,21.9999 6.93631682,21.1653713 6.86305699,20.146706 L6.85794,20 L5.16841,20 C3.9898468,20 3.07835406,18.9901107 3.17500436,17.8361348 L3.19239,17.6912 L5.24776,4.53687 C5.4668032,3.1349532 6.63477184,2.08673726 8.03553406,2.00512306 L8.21179,2 L12.5408,2 Z M18.0283,8.98651 L18.0192,9.02341 C17.2849,11.9488 14.6552,14 11.6391,14 L9.79341,14 L9.01217,18.9999 L9.01463,18.9999 L8.85838,19.9999 L10.8341,19.9999 L11.3511,16.6912 C11.5032,15.7176 12.3418,14.9999 13.3271,14.9999 L14.7798,14.9999 C16.6544,14.9999 18.2775,13.6981 18.6844,11.8683 L18.7327,11.6512 C18.9554,10.65 18.652,9.67629 18.0283,8.98651 Z M12.5408,4 L8.21179,4 C7.75700846,4 7.36477746,4.30576568 7.24730199,4.73566434 L7.22378,4.84562 L5.16841,18 L7.14414,18 L7.81739,13.6912 C7.96104944,12.7717833 8.71699642,12.080534 9.63063521,12.0065662 L9.79341,12 L11.6391,12 C13.7382,12 15.5683,10.5724 16.0793,8.53651 C16.6422842,6.29366737 15.005767,4.11757771 12.7269461,4.00459989 L12.5408,4 Z" id="形状" fill="#09244B"></path>
            </g>
        </g>
    </g>
</svg>