<?xml version="1.0" encoding="UTF-8"?>
<svg width="24px" height="24px" viewBox="0 0 24 24" version="1.1" xmlns="http://www.w3.org/2000/svg" xmlns:xlink="http://www.w3.org/1999/xlink">
    <title>paypal_fill</title>
    <g id="页面-1" stroke="none" stroke-width="1" fill="none" fill-rule="evenodd">
        <g id="Brand" transform="translate(-528.000000, -48.000000)">
            <g id="paypal_fill" transform="translate(528.000000, 48.000000)">
                <rect id="矩形" fill-rule="nonzero" x="0" y="0" width="24" height="24"></rect>
                <path d="M8.21179,2 C6.73375,2 5.47593,3.07654 5.24776,4.53687 L3.19239,17.6912 C3.00286,18.9042 3.94074,20 5.16841,20 L6.85789,20 C6.85571,21.084 7.7359,22 8.85833,22 L10.8341,22 C11.8194,22 12.658,21.2823 12.8101,20.3088 L13.3271,17 L14.7798,17 C17.5916,17 20.0262,15.0473 20.6367,12.3025 L20.685,12.0855 C21.1996,9.77115 20.0278,7.54477 18.0844,6.5471 C17.5789,4.01073 15.3449,2 12.5408,2 L8.21179,2 Z M9.79583,14 L11.6391,14 C14.6552,14 17.2849,11.9488 18.0192,9.02341 C18.0223,9.01114 18.0253,8.99887 18.0283,8.98661 C18.6519,9.67638 18.9553,10.6501 18.7326,11.6513 L18.6844,11.8684 C18.2774,13.6982 16.6543,15 14.7798,15 L13.3271,15 C12.3417,15 11.5032,15.7177 11.3511,16.6912 L10.8341,20 L8.85833,20 L9.79583,14 Z" id="形状" fill="#09244B"></path>
            </g>
        </g>
    </g>
</svg>