<?xml version="1.0" encoding="UTF-8"?>
<svg width="24px" height="24px" viewBox="0 0 24 24" version="1.1" xmlns="http://www.w3.org/2000/svg" xmlns:xlink="http://www.w3.org/1999/xlink">
    <title>pinterest_line</title>
    <g id="页面-1" stroke="none" stroke-width="1" fill="none" fill-rule="evenodd">
        <g id="Brand" transform="translate(-576.000000, -0.000000)">
            <g id="pinterest_line" transform="translate(576.000000, 0.000000)">
                <rect id="矩形" fill-rule="nonzero" x="0" y="0" width="24" height="24"></rect>
                <path d="M12,2 C6.47715,2 2,6.47715 2,12 C2,17.5228 6.47715,22 12,22 C17.5228,22 22,17.5228 22,12 C22,6.47715 17.5228,2 12,2 Z M4,12 C4,7.58172 7.58172,4 12,4 C16.4183,4 20,7.58172 20,12 C20,16.4183 16.4183,20 12,20 C11.3372,20 10.6932,19.9194 10.0773,19.7674 L10.7951,16.3928 C11.4818,16.989 12.3353,17.216 13.1538,17.201 C14.0524,17.1845 14.9545,16.8807 15.7086,16.4062 C16.4608,15.9329 17.133,15.2467 17.5009,14.3991 C17.8222,13.6631 18,12.851 18,12 C18,8.68629 15.3137,6 12,6 C8.68629,6 6,8.68629 6,12 C6,12.8515 6.17797,13.664 6.49969,14.4004 C6.72081,14.9065 7.31033,15.1375 7.81642,14.9164 C8.3225,14.6952 8.55352,14.1057 8.3324,13.5996 C8.11893,13.111 8,12.5707 8,12 C8,9.79086 9.79086,8 12,8 C14.2091,8 16,9.79086 16,12 C16,13.0949 15.5909,14.1173 14.6435,14.7134 C14.1552,15.0207 13.6041,15.1924 13.1172,15.2013 C12.6405,15.2101 12.2746,15.0669 12.022,14.802 C11.7738,14.5416 11.5009,14.0402 11.5009,13.0999 C11.5009,12.5 11.7296,12 12.0044,10.708 C12.1193,10.1678 11.7746,9.63676 11.2344,9.52185 C10.6942,9.40693 10.1631,9.7517 10.0482,10.2919 L8.18826,19.0353 C5.69362,17.6808 4,15.0382 4,12 Z" id="形状" fill="#09244B"></path>
            </g>
        </g>
    </g>
</svg>