<?xml version="1.0" encoding="UTF-8"?>
<svg width="24px" height="24px" viewBox="0 0 24 24" version="1.1" xmlns="http://www.w3.org/2000/svg" xmlns:xlink="http://www.w3.org/1999/xlink">
    <title>pinterest_fill</title>
    <g id="页面-1" stroke="none" stroke-width="1" fill="none" fill-rule="evenodd">
        <g id="Brand" transform="translate(-576.000000, -48.000000)" fill-rule="nonzero">
            <g id="pinterest_fill" transform="translate(576.000000, 48.000000)">
                 <path d="M24,0 L24,24 L0,24 L0,0 L24,0 Z M12.5934901,23.257841 L12.5819402,23.2595131 L12.5108777,23.2950439 L12.4918791,23.2987469 L12.4918791,23.2987469 L12.4767152,23.2950439 L12.4056548,23.2595131 C12.3958229,23.2563662 12.3870493,23.2590235 12.3821421,23.2649074 L12.3780323,23.275831 L12.360941,23.7031097 L12.3658947,23.7234994 L12.3769048,23.7357139 L12.4804777,23.8096931 L12.4953491,23.8136134 L12.4953491,23.8136134 L12.5071152,23.8096931 L12.6106902,23.7357139 L12.6232938,23.7196733 L12.6232938,23.7196733 L12.6266527,23.7031097 L12.609561,23.275831 C12.6075724,23.2657013 12.6010112,23.2592993 12.5934901,23.257841 L12.5934901,23.257841 Z M12.8583906,23.1452862 L12.8445485,23.1473072 L12.6598443,23.2396597 L12.6498822,23.2499052 L12.6498822,23.2499052 L12.6471943,23.2611114 L12.6650943,23.6906389 L12.6699349,23.7034178 L12.6699349,23.7034178 L12.678386,23.7104931 L12.8793402,23.8032389 C12.8914285,23.8068999 12.9022333,23.8029875 12.9078286,23.7952264 L12.9118235,23.7811639 L12.8776777,23.1665331 C12.8752882,23.1545897 12.8674102,23.1470016 12.8583906,23.1452862 L12.8583906,23.1452862 Z M12.1430473,23.1473072 C12.1332178,23.1423925 12.1221763,23.1452606 12.1156365,23.1525954 L12.1099173,23.1665331 L12.0757714,23.7811639 C12.0751323,23.7926639 12.0828099,23.8018602 12.0926481,23.8045676 L12.108256,23.8032389 L12.3092106,23.7104931 L12.3186497,23.7024347 L12.3186497,23.7024347 L12.3225043,23.6906389 L12.340401,23.2611114 L12.337245,23.2485176 L12.337245,23.2485176 L12.3277531,23.2396597 L12.1430473,23.1473072 Z" id="MingCute" fill-rule="nonzero"></path>
                <path d="M12,22 C17.5228,22 22,17.5228 22,12 C22,6.47715 17.5228,2 12,2 C6.47715,2 2,6.47715 2,12 C2,16.0063 4.35592,19.4623 7.75792,21.0583 L10.0482,10.2919 C10.1631,9.7517 10.6942,9.40693 11.2344,9.52185 C11.7746,9.63676 12.1193,10.1678 12.0044,10.708 C11.7296,12 11.4901,12.5 11.5009,13.0999 C11.5178,14.04 11.7738,14.5416 12.022,14.802 C12.2746,15.0669 12.6405,15.2101 13.1172,15.2013 C13.6041,15.1924 14.1552,15.0207 14.6435,14.7134 C15.5909,14.1173 16,13.095 16,12 C16,9.79086 14.2091,8 12,8 C9.79086,8 8,9.79086 8,12 C8,12.5707 8.11893,13.111 8.3324,13.5996 C8.55352,14.1057 8.3225,14.6952 7.81642,14.9164 C7.31033,15.1375 6.72081,14.9065 6.49969,14.4004 C6.17797,13.664 6,12.8515 6,12 C6,8.68629 8.68629,6 12,6 C15.3137,6 18,8.68629 18,12 C18,12.851 17.8222,13.6631 17.5009,14.3991 C17.133,15.2467 16.4608,15.9329 15.7086,16.4062 C14.9545,16.8807 14.0524,17.1845 13.1538,17.201 C12.3353,17.216 11.4818,16.989 10.7951,16.3928 L9.66086,21.7249 C10.4112,21.9048 11.1945,22 12,22 Z" id="路径" fill="#09244B"></path>
            </g>
        </g>
    </g>
</svg>