<?xml version="1.0" encoding="UTF-8"?>
<svg width="24px" height="24px" viewBox="0 0 24 24" version="1.1" xmlns="http://www.w3.org/2000/svg" xmlns:xlink="http://www.w3.org/1999/xlink">
    <title>pinterest_fill</title>
    <g id="页面-1" stroke="none" stroke-width="1" fill="none" fill-rule="evenodd">
        <g id="Brand" transform="translate(-576.000000, -48.000000)" fill-rule="nonzero">
            <g id="pinterest_fill" transform="translate(576.000000, 48.000000)">
                <rect id="矩形" x="0" y="0" width="24" height="24"></rect>
                <path d="M12,22 C17.5228,22 22,17.5228 22,12 C22,6.47715 17.5228,2 12,2 C6.47715,2 2,6.47715 2,12 C2,16.0063 4.35592,19.4623 7.75792,21.0583 L10.0482,10.2919 C10.1631,9.7517 10.6942,9.40693 11.2344,9.52185 C11.7746,9.63676 12.1193,10.1678 12.0044,10.708 C11.7296,12 11.4901,12.5 11.5009,13.0999 C11.5178,14.04 11.7738,14.5416 12.022,14.802 C12.2746,15.0669 12.6405,15.2101 13.1172,15.2013 C13.6041,15.1924 14.1552,15.0207 14.6435,14.7134 C15.5909,14.1173 16,13.095 16,12 C16,9.79086 14.2091,8 12,8 C9.79086,8 8,9.79086 8,12 C8,12.5707 8.11893,13.111 8.3324,13.5996 C8.55352,14.1057 8.3225,14.6952 7.81642,14.9164 C7.31033,15.1375 6.72081,14.9065 6.49969,14.4004 C6.17797,13.664 6,12.8515 6,12 C6,8.68629 8.68629,6 12,6 C15.3137,6 18,8.68629 18,12 C18,12.851 17.8222,13.6631 17.5009,14.3991 C17.133,15.2467 16.4608,15.9329 15.7086,16.4062 C14.9545,16.8807 14.0524,17.1845 13.1538,17.201 C12.3353,17.216 11.4818,16.989 10.7951,16.3928 L9.66086,21.7249 C10.4112,21.9048 11.1945,22 12,22 Z" id="路径" fill="#09244B"></path>
            </g>
        </g>
    </g>
</svg>