<?xml version="1.0" encoding="UTF-8"?>
<svg width="24px" height="24px" viewBox="0 0 24 24" version="1.1" xmlns="http://www.w3.org/2000/svg" xmlns:xlink="http://www.w3.org/1999/xlink">
    <title>qq_fill</title>
    <g id="页面-1" stroke="none" stroke-width="1" fill="none" fill-rule="evenodd">
        <g id="Logo" transform="translate(-336.000000, -144.000000)" fill-rule="nonzero">
            <g id="qq_fill" transform="translate(336.000000, 144.000000)">
                <rect id="矩形" x="0" y="0" width="24" height="24"></rect>
                <path d="M12,2 C8.66407,2 5.90922,4.60604 5.72418,7.93683 L5.57807,10.5668 C5.3691,11.0118 5.16261,11.4844 4.96342,11.9774 C3.72209,15.0498 3.23468,17.7502 3.87476,18.0088 C4.20997,18.1442 4.78792,17.5831 5.44071,16.5767 C5.70637,17.9753 6.41083,19.2245 7.40856,20.1705 C6.38223,20.5209 5.49988,20.9978 5.49988,21.4999 C5.49988,22.0088 7.97951,22.0032 9.73792,21.9992 L9.73903,21.9992 C10.2876,21.998 10.7498,21.9923 11.1197,21.9426 C11.4076,21.9805 11.7014,22.0001428 12,22.0001428 C12.2983,22.0001428 12.5918,21.9805 12.8794,21.9427 C13.2494,21.9925 13.7119,21.9982 14.2608,21.9994 L14.2619,21.9994 C16.0203,22.0034 18.4999,22.009 18.4999,21.5001 C18.4999,20.998 17.6175,20.5211 16.5912,20.1707 C17.5872,19.2264 18.291,17.9799 18.5578,16.5843 C19.2086,17.586 19.7845,18.1439 20.1188,18.0088 C20.7589,17.7502 20.2715,15.0498 19.0302,11.9774 C18.8333,11.4901 18.6293,11.0227 18.4228,10.5822 L18.2758,7.93683 C18.0908,4.60605 15.3359,2 12,2 Z" id="路径" fill="#09244B"></path>
            </g>
        </g>
    </g>
</svg>