<svg xmlns="http://www.w3.org/2000/svg" width="24" height="24"><g fill="none"><path d="M24 0v24H0V0zM12.593 23.258l-.011.002-.071.035-.02.004-.014-.004-.071-.035c-.01-.004-.019-.001-.024.005l-.004.01-.017.428.005.02.01.013.104.074.015.004.012-.004.104-.074.012-.016.004-.017-.017-.427c-.002-.01-.009-.017-.017-.018m.265-.113-.013.002-.185.093-.01.01-.003.011.018.43.005.012.008.007.201.093c.012.004.023 0 .029-.008l.004-.014-.034-.614c-.003-.012-.01-.02-.02-.022m-.715.002a.023.023 0 0 0-.027.006l-.006.014-.034.614c0 .012.007.02.017.024l.015-.002.201-.093.01-.008.004-.011.017-.43-.003-.012-.01-.01z"/><path fill="#09244B" d="M12 2a6.285 6.285 0 0 0-6.276 5.937l-.146 2.63a28.04 28.04 0 0 0-.615 1.41c-1.24 3.073-1.728 5.773-1.088 6.032.335.135.913-.426 1.566-1.432a6.672 6.672 0 0 0 1.968 3.593c-1.027.35-1.91.828-1.91 1.33 0 .509 2.48.503 4.239.5h.001c.549-.002 1.01-.008 1.38-.057a6.742 6.742 0 0 0 1.76 0c.37.05.833.055 1.382.056 1.76.004 4.239.01 4.239-.499 0-.502-.883-.979-1.909-1.33a6.672 6.672 0 0 0 1.967-3.586c.65 1.002 1.227 1.56 1.56 1.425.64-.259.154-2.96-1.088-6.032a28.08 28.08 0 0 0-.607-1.395l-.147-2.645A6.285 6.285 0 0 0 12 2"/></g></svg>