<?xml version="1.0" encoding="UTF-8"?>
<svg width="24px" height="24px" viewBox="0 0 24 24" version="1.1" xmlns="http://www.w3.org/2000/svg" xmlns:xlink="http://www.w3.org/1999/xlink">
    <title>qq_line</title>
    <g id="页面-1" stroke="none" stroke-width="1" fill="none" fill-rule="evenodd">
        <g id="Logo" transform="translate(-336.000000, -96.000000)">
            <g id="qq_line" transform="translate(336.000000, 96.000000)">
                 <path d="M24,0 L24,24 L0,24 L0,0 L24,0 Z M12.5934901,23.257841 L12.5819402,23.2595131 L12.5108777,23.2950439 L12.4918791,23.2987469 L12.4918791,23.2987469 L12.4767152,23.2950439 L12.4056548,23.2595131 C12.3958229,23.2563662 12.3870493,23.2590235 12.3821421,23.2649074 L12.3780323,23.275831 L12.360941,23.7031097 L12.3658947,23.7234994 L12.3769048,23.7357139 L12.4804777,23.8096931 L12.4953491,23.8136134 L12.4953491,23.8136134 L12.5071152,23.8096931 L12.6106902,23.7357139 L12.6232938,23.7196733 L12.6232938,23.7196733 L12.6266527,23.7031097 L12.609561,23.275831 C12.6075724,23.2657013 12.6010112,23.2592993 12.5934901,23.257841 L12.5934901,23.257841 Z M12.8583906,23.1452862 L12.8445485,23.1473072 L12.6598443,23.2396597 L12.6498822,23.2499052 L12.6498822,23.2499052 L12.6471943,23.2611114 L12.6650943,23.6906389 L12.6699349,23.7034178 L12.6699349,23.7034178 L12.678386,23.7104931 L12.8793402,23.8032389 C12.8914285,23.8068999 12.9022333,23.8029875 12.9078286,23.7952264 L12.9118235,23.7811639 L12.8776777,23.1665331 C12.8752882,23.1545897 12.8674102,23.1470016 12.8583906,23.1452862 L12.8583906,23.1452862 Z M12.1430473,23.1473072 C12.1332178,23.1423925 12.1221763,23.1452606 12.1156365,23.1525954 L12.1099173,23.1665331 L12.0757714,23.7811639 C12.0751323,23.7926639 12.0828099,23.8018602 12.0926481,23.8045676 L12.108256,23.8032389 L12.3092106,23.7104931 L12.3186497,23.7024347 L12.3186497,23.7024347 L12.3225043,23.6906389 L12.340401,23.2611114 L12.337245,23.2485176 L12.337245,23.2485176 L12.3277531,23.2396597 L12.1430473,23.1473072 Z" id="MingCute" fill-rule="nonzero"></path>
                <path d="M5.56656,10.5918 C5.64166,9.70865 5.67518,8.8217 5.72434,7.93692 C5.90938,4.60615 8.66421,2 12.0002,2 C15.3361,2 18.0909,4.60616 18.276,7.93692 C18.3265,8.84653 18.3665,9.75495 18.4599,10.6611 C18.6538,11.0784 18.8453,11.5191 19.0305,11.9774 C20.2718,15.0498 20.7592,17.7501 20.1191,18.0087 C19.7841,18.1441 19.2065,17.5835 18.554,16.5779 C18.5341,16.6903 18.5118,16.7981 18.4869,16.9003 C18.1786,18.1665 17.5078,19.2967 16.5882,20.1694 C17.6159,20.5199 18.5001,20.9973 18.5001,21.4999 C18.5001,22.0088 16.0205,22.0032 14.2621,21.9992 C13.713,21.998 13.25,21.9923 12.8798,21.9425 C12.5922,21.9804 12.2986,22.0000406 12.0002,22.0000406 C11.7018,22.0000406 11.4082,21.9804 11.1206,21.9426 C10.7503,21.9924 10.2875,21.998 9.73815,21.9993 C7.97974,22.0033 5.50013,22.0088 5.50013,21.5 C5.50013,20.9973 6.38439,20.5199 7.41214,20.1694 C6.49247,19.2968 5.82173,18.1665 5.51337,16.9003 C5.48505,16.7954 5.45936,16.69 5.43613,16.584 C4.78531,17.5858 4.20939,18.1438 3.87501,18.0087 C3.23492,17.7501 3.72233,15.0498 4.96367,11.9773 C5.15912,11.4936 5.3616,11.0294 5.56656,10.5918 Z M7.72126,8.04786 C7.84742,5.77689 9.72572,4 12.0002,4 C14.2745,4 16.1528,5.7768 16.279,8.04773 L16.443,11 L16.4446,11 C16.4446,12.0787 16.9714,12.9732 17.4373,13.9055 C17.0513,14.0433 16.6342,14.4408 16.6683,15.0555 C16.8174,17.7379 14.6824,20 12.0002,20 C9.31794,20 7.18292,17.7379 7.33194,15.0555 C7.36537,14.4538 6.95723,14.0565 6.58709,13.9144 C6.53986,13.8963 7.55571,12.0112 7.55571,11 L7.5572,11 C7.61187,10.016 7.66658,9.0319 7.72126,8.04786 Z" id="形状" fill="#09244B"></path>
            </g>
        </g>
    </g>
</svg>