<?xml version="1.0" encoding="UTF-8"?>
<svg width="24px" height="24px" viewBox="0 0 24 24" version="1.1" xmlns="http://www.w3.org/2000/svg" xmlns:xlink="http://www.w3.org/1999/xlink">
    <title>reddit_line</title>
    <g id="页面-1" stroke="none" stroke-width="1" fill="none" fill-rule="evenodd">
        <g id="Logo" transform="translate(-672.000000, -96.000000)" fill-rule="nonzero">
            <g id="reddit_line" transform="translate(672.000000, 96.000000)">
                <rect id="矩形" x="0" y="0" width="24" height="24"></rect>
                <path d="M12,2 C17.5228,2 22,6.47715 22,12 C22,17.5228 17.5228,22 12,22 C6.47715,22 2,17.5228 2,12 C2,6.47715 6.47715,2 12,2 Z M12,4 C7.58172,4 4,7.58172 4,12 C4,16.4183 7.58172,20 12,20 C16.4183,20 20,16.4183 20,12 C20,7.58172 16.4183,4 12,4 Z M15,5.99999828 C15.5523,5.99999828 16,6.44772 16,6.99999828 C16,7.55228 15.5523,7.99999828 15,7.99999828 C14.5598,7.99999828 14.186,7.71553 14.0524,7.32039 L12.9202,7.09395 L12.6443,9.02528 C13.9586,9.12896 15.1685,9.54755 16.109,10.2059 C16.3012,10.3405 16.4845,10.4871 16.656,10.6449 C16.8512,10.552 17.0695,10.4999983 17.3,10.4999983 C18.1285,10.4999983 18.8,11.1716 18.8,11.9999983 C18.8,12.5773 18.4739,13.0784 17.9959,13.3292 L18,13.4999983 L18,13.4999983 C18,14.8824 17.1982,16.0316 16.109,16.7941 C15.0166,17.5588 13.5607,17.9999983 12,17.9999983 C10.4393,17.9999983 8.98341,17.5588 7.891,16.7941 C6.80176,16.0316 6,14.8824 6,13.4999983 L6.0041,13.3292 L6.0041,13.3292 C5.52606,13.0784 5.19995,12.5773 5.19995,11.9999983 C5.19995,11.1716 5.87152,10.4999983 6.69995,10.4999983 C6.93047,10.4999983 7.14883,10.552 7.34397,10.6449 C7.51547,10.4871 7.69876,10.3405 7.891,10.2059 C8.89815,9.50089 10.2143,9.07084 11.6366,9.00801 L12.005,6.42929 C12.0245,6.29325 12.099,6.1712 12.2112,6.09183 C12.3234,6.01246 12.4633,5.98276 12.5981,6.00971 L14.2488,6.33987 C14.4321,6.13149 14.7007,5.99999828 15,5.99999828 Z M12,11 C10.7993,11 9.75517,11.3423 9.03793,11.8444 C8.31753,12.3486 8,12.9494 8,13.5 C8,14.0506 8.31753,14.6514 9.03793,15.1556 C9.75517,15.6577 10.7993,16 12,16 C13.2007,16 14.2448,15.6577 14.9621,15.1556 C15.6825,14.6514 16,14.0506 16,13.5 C16,12.9494 15.6825,12.3486 14.9621,11.8444 C14.2448,11.3423 13.2007,11 12,11 Z M10,12 C10.5523,12 11,12.4477 11,13 C11,13.5523 10.5523,14 10,14 C9.44772,14 9,13.5523 9,13 C9,12.4477 9.44772,12 10,12 Z M14,12 C14.5523,12 15,12.4477 15,13 C15,13.5523 14.5523,14 14,14 C13.4477,14 13,13.5523 13,13 C13,12.4477 13.4477,12 14,12 Z" id="形状" fill="#09244B"></path>
            </g>
        </g>
    </g>
</svg>