<svg xmlns="http://www.w3.org/2000/svg" width="24" height="24" viewBox="0 0 24 24"><title>roblox_fill</title><g fill="none" fill-rule="evenodd"><path d="M24 0v24H0V0zM12.594 23.258l-.012.002-.071.035-.02.004-.014-.004-.071-.036q-.016-.004-.024.006l-.004.01-.017.428.005.02.01.013.104.074.015.004.012-.004.104-.074.012-.016.004-.017-.017-.427q-.004-.016-.016-.018m.264-.113-.014.002-.184.093-.01.01-.003.011.018.43.005.012.008.008.201.092q.019.005.029-.008l.004-.014-.034-.614q-.005-.019-.02-.022m-.715.002a.02.02 0 0 0-.027.006l-.006.014-.034.614q.001.018.017.024l.015-.002.201-.093.01-.008.003-.011.018-.43-.003-.012-.01-.01z"/><path fill="#09244b" d="M5.825 4.134a2 2 0 0 1 2.45-1.414l11.591 3.105a2 2 0 0 1 1.415 2.45l-3.107 11.591a2 2 0 0 1-2.45 1.415l-11.59-3.106a2 2 0 0 1-1.414-2.45zm3.113 9.634 4.83 1.294 1.294-4.83-4.83-1.293z"/></g></svg>