<svg xmlns="http://www.w3.org/2000/svg" width="24" height="24"><g fill="none" fill-rule="evenodd"><path d="M24 0v24H0V0zM12.594 23.258l-.012.002-.071.035-.02.004-.014-.004-.071-.036c-.01-.003-.019 0-.024.006l-.004.01-.017.428.005.02.01.013.104.074.015.004.012-.004.104-.074.012-.016.004-.017-.017-.427c-.002-.01-.009-.017-.016-.018m.264-.113-.014.002-.184.093-.01.01-.003.011.018.43.005.012.008.008.201.092c.012.004.023 0 .029-.008l.004-.014-.034-.614c-.003-.012-.01-.02-.02-.022m-.715.002a.023.023 0 0 0-.027.006l-.006.014-.034.614c0 .012.007.02.017.024l.015-.002.201-.093.01-.008.003-.011.018-.43-.003-.012-.01-.01z"/><path fill="#09244B" d="M11 2.05a9.954 9.954 0 0 0-5.33 2.206l.319.318A1 1 0 0 1 4.575 5.99l-.318-.319A9.954 9.954 0 0 0 2.049 11h.45a1 1 0 0 1 0 2h-.45A10.003 10.003 0 0 0 11 21.95v-.45a1 1 0 0 1 2 0v.45a9.954 9.954 0 0 0 5.33-2.207l-.319-.318a1 1 0 1 1 1.415-1.415l.318.319a9.954 9.954 0 0 0 2.208-5.33H21.5a1 1 0 1 1 0-2h.45A10.003 10.003 0 0 0 13 2.05v.45a1 1 0 1 1-2 0zm5.466 4.794-5.693 3.622a1 1 0 0 0-.307.307l-3.622 5.693c-.287.45.239.977.69.69l5.693-3.623a1 1 0 0 0 .306-.306l3.623-5.693c.287-.451-.24-.977-.69-.69"/></g></svg>