<svg xmlns="http://www.w3.org/2000/svg" width="24" height="24"><g fill="none" fill-rule="evenodd"><path d="M24 0v24H0V0zM12.594 23.258l-.012.002-.071.035-.02.004-.014-.004-.071-.036c-.01-.003-.019 0-.024.006l-.004.01-.017.428.005.02.01.013.104.074.015.004.012-.004.104-.074.012-.016.004-.017-.017-.427c-.002-.01-.009-.017-.016-.018m.264-.113-.014.002-.184.093-.01.01-.003.011.018.43.005.012.008.008.201.092c.012.004.023 0 .029-.008l.004-.014-.034-.614c-.003-.012-.01-.02-.02-.022m-.715.002a.023.023 0 0 0-.027.006l-.006.014-.034.614c0 .012.007.02.017.024l.015-.002.201-.093.01-.008.003-.011.018-.43-.003-.012-.01-.01z"/><path fill="#09244B" d="M17 3a4 4 0 0 1 3.995 3.8L21 7v10a4 4 0 0 1-3.8 3.995L17 21H7a4 4 0 0 1-3.995-3.8L3 17V7a4 4 0 0 1 3.8-3.995L7 3zm-5 2a7 7 0 1 0 0 14 7 7 0 0 0 0-14M8.5 9.9c1.35 0 2.501.894 3.717 2.047l.537.52c.513.5 1.044 1.017 1.57 1.422.635.49 1.38.911 2.226.911.106 0 .21-.007.312-.02A5.598 5.598 0 0 1 12 17.6a5.591 5.591 0 0 1-4.48-2.239c.311.09.64.139.98.139 1.799 0 3.243-.959 4.422-1.9l-.337-.322-.68-.66C10.824 13.463 9.753 14.1 8.5 14.1a2.1 2.1 0 1 1 0-4.2M12 6.4a5.602 5.602 0 0 1 5.23 3.596 2.451 2.451 0 0 0-.68-.096c-.83 0-1.588.368-2.263.824l-.181.127.385.374.441.421c.071.066.14.13.21.191.548-.361.998-.537 1.408-.537a1.05 1.05 0 1 1 0 2.1c-.379 0-.816-.191-1.372-.62-.303-.234-.608-.51-.929-.816l-1.008-.975-.34-.32-.357-.322C11.45 9.387 10.121 8.5 8.5 8.5c-.34 0-.669.048-.98.139A5.592 5.592 0 0 1 12 6.4"/></g></svg>