<?xml version="1.0" encoding="UTF-8"?>
<svg width="24px" height="24px" viewBox="0 0 24 24" version="1.1" xmlns="http://www.w3.org/2000/svg" xmlns:xlink="http://www.w3.org/1999/xlink">
    <title>snapchat_fill</title>
    <g id="页面-1" stroke="none" stroke-width="1" fill="none" fill-rule="evenodd">
        <g id="Brand" transform="translate(-624.000000, -48.000000)">
            <g id="snapchat_fill" transform="translate(624.000000, 48.000000)">
                <rect id="矩形" fill-rule="nonzero" x="0" y="0" width="24" height="24"></rect>
                <path d="M11.9999,2 C8.68615,2 5.99986,4.68629 5.99986,8 L5.99986,9.875 L5.09986,9.2 C4.65803,8.86863 4.03123,8.95817 3.69986,9.4 C3.36849,9.84183 3.45803,10.4686 3.89986,10.8 L5.76638,12.1999 C5.3218,13.3676 4.23864,14.5905 2.48537,15.6425 C2.00271,15.9321 1.85559,16.5864 2.16781,17.0547 C3.2857,18.7315 5.05971,20 6.99986,20 C8.78422,20 10.0074,22 11.9999,22 C14.0112,22 15.209,20 16.9998,20 C18.9399,20 20.7141,18.7316 21.8319,17.0547 C22.1441,16.5863 21.997,15.9321 21.5144,15.6425 C19.7611,14.5905 18.6779,13.3676 18.2333,12.1999 L20.0999,10.8 C20.5417,10.4686 20.6312,9.84183 20.2999,9.4 C19.9685,8.95817 19.3417,8.86863 18.8999,9.2 L17.9998,9.87504 L17.9999,8.00003 C17.9999,4.68632 15.3136,2 11.9999,2 Z" id="路径" fill="#09244B"></path>
            </g>
        </g>
    </g>
</svg>