<?xml version="1.0" encoding="UTF-8"?>
<svg width="24px" height="24px" viewBox="0 0 24 24" version="1.1" xmlns="http://www.w3.org/2000/svg" xmlns:xlink="http://www.w3.org/1999/xlink">
    <title>spotify_line</title>
    <g id="页面-1" stroke="none" stroke-width="1" fill="none" fill-rule="evenodd">
        <g id="Logo" transform="translate(-720.000000, -96.000000)" fill-rule="nonzero">
            <g id="spotify_line" transform="translate(720.000000, 96.000000)">
                <rect id="矩形" x="0" y="0" width="24" height="24"></rect>
                <path d="M12,2 C17.5228,2 22,6.47715 22,12 C22,17.5228 17.5228,22 12,22 C6.47715,22 2,17.5228 2,12 C2,6.47715 6.47715,2 12,2 Z M12,4 C7.58172,4 4,7.58172 4,12 C4,16.4183 7.58172,20 12,20 C16.4183,20 20,16.4183 20,12 C20,7.58172 16.4183,4 12,4 Z M7.72828,14.1113 C9.14617,13.7852 10.6632,13.7887 11.9748,13.9922 C13.2512,14.1903 14.4891,14.6025 15.2517,15.2256 C15.6794,15.575 15.7429,16.205 15.3935,16.6327 C15.0709769,17.0275 14.5093627,17.1119757 14.0884713,16.8478234 L13.9864,16.7745 C13.63,16.4833 12.8083,16.1455 11.6681,15.9686 C10.563,15.7971 9.30621,15.8006 8.17648,16.0604 C7.63824,16.1842 7.10158,15.8482 6.97781,15.3099 C6.85405,14.7717 7.19004,14.235 7.72828,14.1113 Z M7.20759,11.3799 C10.4666,10.4712 14.2588,10.9854 16.5709,12.4052 C17.0415,12.6942 17.1888,13.31 16.8998,13.7807 C16.6108,14.2513 15.995,14.3986 15.5243,14.1095 C13.7412,13.0146 10.5334,12.5288 7.74479,13.3064 C7.2128,13.4548 6.66128,13.1438 6.51294,12.6118 C6.36459,12.0798 6.6756,11.5283 7.20759,11.3799 Z M6.73115,8.51383 C10.4902,7.4646 14.2265,8.00853 17.3965,9.37757 C17.9035,9.59654 18.137,10.1851 17.918,10.6921 C17.6991,11.1991 17.1105,11.4326 16.6035,11.2137 C13.7735,9.99147 10.5098,9.53558 7.26885,10.4402 C6.73689,10.5887 6.1853,10.2778 6.03682,9.74586 C5.88834,9.21391 6.1992,8.66231 6.73115,8.51383 Z" id="形状" fill="#09244B"></path>
            </g>
        </g>
    </g>
</svg>