<svg xmlns="http://www.w3.org/2000/svg" width="24" height="24" viewBox="0 0 24 24"><title>steam_fill</title><g fill="none" fill-rule="evenodd"><path d="M24 0v24H0V0zM12.594 23.258l-.012.002-.071.035-.02.004-.014-.004-.071-.036q-.016-.004-.024.006l-.004.01-.017.428.005.02.01.013.104.074.015.004.012-.004.104-.074.012-.016.004-.017-.017-.427q-.004-.016-.016-.018m.264-.113-.014.002-.184.093-.01.01-.003.011.018.43.005.012.008.008.201.092q.019.005.029-.008l.004-.014-.034-.614q-.005-.019-.02-.022m-.715.002a.02.02 0 0 0-.027.006l-.006.014-.034.614q.001.018.017.024l.015-.002.201-.093.01-.008.003-.011.018-.43-.003-.012-.01-.01z"/><path fill="#09244b" d="M16.5 3a5.5 5.5 0 1 1 0 11q-.107 0-.215-.006l-4.287 2.572a3.499 3.499 0 0 1-6.436 1.832l-3.01-1.503A1 1 0 0 1 2 16v-3a1 1 0 0 1 1.447-.895l3.05 1.525a3.5 3.5 0 0 1 1.935-.628l2.573-4.288A5.5 5.5 0 0 1 16.5 3m-8 12.5a1 1 0 1 0 0 2 1 1 0 0 0 0-2m1.92-1.926c.4.263.742.605 1.005 1.004l2.258-1.354a5.5 5.5 0 0 1-1.908-1.908zM16.5 7a1.5 1.5 0 1 0 0 3 1.5 1.5 0 0 0 0-3"/></g></svg>