<?xml version="1.0" encoding="UTF-8"?>
<svg width="24px" height="24px" viewBox="0 0 24 24" version="1.1" xmlns="http://www.w3.org/2000/svg" xmlns:xlink="http://www.w3.org/1999/xlink">
    <title>stripe_fill</title>
    <g id="Icon" stroke="none" stroke-width="1" fill="none" fill-rule="evenodd">
        <g id="Logo" transform="translate(-144.000000, -240.000000)">
            <g id="stripe_fill" transform="translate(144.000000, 240.000000)">
                <path d="M24,0 L24,24 L0,24 L0,0 L24,0 Z M12.5934901,23.257841 L12.5819402,23.2595131 L12.5108777,23.2950439 L12.4918791,23.2987469 L12.4918791,23.2987469 L12.4767152,23.2950439 L12.4056548,23.2595131 C12.3958229,23.2563662 12.3870493,23.2590235 12.3821421,23.2649074 L12.3780323,23.275831 L12.360941,23.7031097 L12.3658947,23.7234994 L12.3769048,23.7357139 L12.4804777,23.8096931 L12.4953491,23.8136134 L12.4953491,23.8136134 L12.5071152,23.8096931 L12.6106902,23.7357139 L12.6232938,23.7196733 L12.6232938,23.7196733 L12.6266527,23.7031097 L12.609561,23.275831 C12.6075724,23.2657013 12.6010112,23.2592993 12.5934901,23.257841 L12.5934901,23.257841 Z M12.8583906,23.1452862 L12.8445485,23.1473072 L12.6598443,23.2396597 L12.6498822,23.2499052 L12.6498822,23.2499052 L12.6471943,23.2611114 L12.6650943,23.6906389 L12.6699349,23.7034178 L12.6699349,23.7034178 L12.678386,23.7104931 L12.8793402,23.8032389 C12.8914285,23.8068999 12.9022333,23.8029875 12.9078286,23.7952264 L12.9118235,23.7811639 L12.8776777,23.1665331 C12.8752882,23.1545897 12.8674102,23.1470016 12.8583906,23.1452862 L12.8583906,23.1452862 Z M12.1430473,23.1473072 C12.1332178,23.1423925 12.1221763,23.1452606 12.1156365,23.1525954 L12.1099173,23.1665331 L12.0757714,23.7811639 C12.0751323,23.7926639 12.0828099,23.8018602 12.0926481,23.8045676 L12.108256,23.8032389 L12.3092106,23.7104931 L12.3186497,23.7024347 L12.3186497,23.7024347 L12.3225043,23.6906389 L12.340401,23.2611114 L12.337245,23.2485176 L12.337245,23.2485176 L12.3277531,23.2396597 L12.1430473,23.1473072 Z" id="MingCute" fill-rule="nonzero"></path>
                <path d="M10.7287,8.36044 C10.7287,7.58901 11.3594,7.29231 12.404,7.29231 C13.5163,7.29231 14.8458,7.54312 16.0699,8.00426 C16.6372,8.21794 17.292,7.82154 17.292,7.21539 L17.292,4.58754 C17.292,4.17833 17.0438,3.80675 16.6562,3.67551 C15.2364,3.19475 13.8277,3 12.404,3 C8.40299,3 5.74219,5.0967 5.74219,8.5978 C5.74219,14.0571 13.2319,13.1868 13.2319,15.5407 C13.2319,16.4506 12.4435,16.7473 11.3397,16.7473 C10.0847,16.7473 8.56287,16.3514 7.1747,15.7563 C6.61556,15.5165 5.95899,15.909 5.95899,16.5174 L5.95899,19.215 C5.95899,19.6141 6.19526,19.9781 6.56869,20.1189 C8.20056,20.7341 9.83248,21 11.3397,21 C15.4393,21 18.2578,18.9626 18.2578,15.422 C18.2381,9.52747 10.7287,10.5758 10.7287,8.36044 Z" id="路径" fill="#09244B"></path>
            </g>
        </g>
    </g>
</svg>