<?xml version="1.0" encoding="UTF-8"?>
<svg width="24px" height="24px" viewBox="0 0 24 24" version="1.1" xmlns="http://www.w3.org/2000/svg" xmlns:xlink="http://www.w3.org/1999/xlink">
    <title>stripe_line</title>
    <g id="Icon" stroke="none" stroke-width="1" fill="none" fill-rule="evenodd">
        <g id="Logo" transform="translate(-144.000000, -192.000000)">
            <g id="stripe_line" transform="translate(144.000000, 192.000000)">
                <path d="M24,0 L24,24 L0,24 L0,0 L24,0 Z M12.5934901,23.257841 L12.5819402,23.2595131 L12.5108777,23.2950439 L12.4918791,23.2987469 L12.4918791,23.2987469 L12.4767152,23.2950439 L12.4056548,23.2595131 C12.3958229,23.2563662 12.3870493,23.2590235 12.3821421,23.2649074 L12.3780323,23.275831 L12.360941,23.7031097 L12.3658947,23.7234994 L12.3769048,23.7357139 L12.4804777,23.8096931 L12.4953491,23.8136134 L12.4953491,23.8136134 L12.5071152,23.8096931 L12.6106902,23.7357139 L12.6232938,23.7196733 L12.6232938,23.7196733 L12.6266527,23.7031097 L12.609561,23.275831 C12.6075724,23.2657013 12.6010112,23.2592993 12.5934901,23.257841 L12.5934901,23.257841 Z M12.8583906,23.1452862 L12.8445485,23.1473072 L12.6598443,23.2396597 L12.6498822,23.2499052 L12.6498822,23.2499052 L12.6471943,23.2611114 L12.6650943,23.6906389 L12.6699349,23.7034178 L12.6699349,23.7034178 L12.678386,23.7104931 L12.8793402,23.8032389 C12.8914285,23.8068999 12.9022333,23.8029875 12.9078286,23.7952264 L12.9118235,23.7811639 L12.8776777,23.1665331 C12.8752882,23.1545897 12.8674102,23.1470016 12.8583906,23.1452862 L12.8583906,23.1452862 Z M12.1430473,23.1473072 C12.1332178,23.1423925 12.1221763,23.1452606 12.1156365,23.1525954 L12.1099173,23.1665331 L12.0757714,23.7811639 C12.0751323,23.7926639 12.0828099,23.8018602 12.0926481,23.8045676 L12.108256,23.8032389 L12.3092106,23.7104931 L12.3186497,23.7024347 L12.3186497,23.7024347 L12.3225043,23.6906389 L12.340401,23.2611114 L12.337245,23.2485176 L12.337245,23.2485176 L12.3277531,23.2396597 L12.1430473,23.1473072 Z" id="MingCute" fill-rule="nonzero"></path>
                <path d="M6.93618,3.71475 C8.3267,2.56708 10.2388,2 12.404,2 C14.1497,2 15.8938,2.27532 17.6626,2.9811 C18.0427,3.13275 18.292,3.50068 18.292,3.90989 L18.292,7.55111 C18.292,8.79524 17.006,9.46685 16.0006,9.0518 C14.803,8.55741 13.4686,8.29231 12.404,8.29231 C12.187,8.29231 12.0183,8.30799 11.8916,8.33251 C11.8425,8.342 11.8034,8.35213 11.7727,8.36164 C11.8606,8.43355 12.022,8.53142 12.3002,8.65202 C12.609,8.78592 12.9808,8.91472 13.4289,9.06774 C13.4492,9.07467 13.4696,9.08164 13.4902,9.08865 C13.9099,9.2319 14.3822,9.39308 14.8572,9.58301 C15.8473,9.97895 16.951,10.5373 17.8077,11.4649 C18.692,12.4224 19.2521,13.7062 19.2578,15.4186 L19.2578,15.422 C19.2578,17.4867 18.4218,19.177 16.9522,20.3264 C15.5107,21.4539 13.5423,22 11.3397,22 C9.51401,22 7.52588,21.6381 5.56269,20.7906 C5.19628,20.6325 4.95899,20.2716 4.95899,19.8725 L4.95899,16.1792 C4.95899,14.9378 6.25638,14.2418 7.28095,14.7098 C8.67105,15.3447 10.1823,15.7473 11.3397,15.7473 C11.8368,15.7473 12.1013,15.6742 12.2105,15.613 C12.2177,15.6089 12.2233,15.6055 12.2274,15.6027 C12.2296,15.5907 12.2319,15.5707 12.2319,15.5407 C12.2319,15.5389 12.2318,15.5375 12.2318,15.5364 L12.2313,15.5356 C12.2302,15.5336 12.2283,15.5304 12.2252,15.526 C12.2192,15.5173 12.2084,15.5035 12.1906,15.485 C12.1084,15.3998 11.9413,15.281 11.6313,15.1332 C11.3285,14.9889 10.9604,14.8491 10.5197,14.6885 C10.4479,14.6624 10.3743,14.6357 10.2991,14.6085 C9.9275,14.4738 9.51849,14.3256 9.11132,14.1605 C8.13768,13.7658 7.04468,13.2262 6.19512,12.3515 C5.31274,11.4431 4.74219,10.2243 4.74219,8.5978 C4.74219,6.57155 5.5237,4.88054 6.93618,3.71475 Z M8.20927,5.25723 C7.29107,6.01506 6.74219,7.12296 6.74219,8.5978 C6.74219,9.70096 7.10784,10.4207 7.62977,10.958 C8.18452,11.5292 8.96394,11.9427 9.86272,12.307 C10.2318,12.4567 10.5992,12.5898 10.9701,12.7243 C11.048,12.7526 11.1261,12.7809 11.2044,12.8094 C11.6414,12.9686 12.0925,13.1375 12.4919,13.3278 C13.2055,13.668 14.2319,14.2982 14.2319,15.5407 C14.2319,15.9161 14.1491,16.2855 13.9545,16.6181 C13.7598,16.9509 13.4858,17.1908 13.1888,17.3574 C12.628,17.6719 11.9464,17.7473 11.3397,17.7473 C9.96552,17.7473 8.38234,17.3398 6.95899,16.7505 L6.95899,19.1973 C8.46163,19.7585 9.96015,20 11.3397,20 C13.2368,20 14.7274,19.5275 15.72,18.7511 C16.6842,17.9969 17.2574,16.8987 17.2578,15.4236 C17.2533,14.1898 16.8675,13.3947 16.3385,12.8219 C15.7816,12.219 15.0042,11.7958 14.1146,11.4401 C13.6887,11.2697 13.2602,11.1235 12.8302,10.9767 L12.7826,10.9604 C12.3501,10.8127 11.9001,10.6584 11.5046,10.487 C11.1177,10.3193 10.6963,10.0997 10.3631,9.78358 C10.0014,9.44037 9.72873,8.96541 9.72873,8.36044 C9.72873,7.64089 10.0565,7.03687 10.6653,6.67652 C11.1856,6.36858 11.8222,6.29231 12.404,6.29231 C13.6065,6.29231 15.0011,6.55089 16.292,7.0202 L16.292,4.60806 C15.0017,4.17684 13.717,4 12.404,4 C10.5682,4 9.14941,4.48127 8.20927,5.25723 Z" id="形状" fill="#09244B"></path>
            </g>
        </g>
    </g>
</svg>