<svg xmlns="http://www.w3.org/2000/svg" width="24" height="24" viewBox="0 0 24 24"><title>substack_line</title><g fill="none" fill-rule="nonzero"><path d="M24 0v24H0V0zM12.594 23.258l-.012.002-.071.035-.02.004-.014-.004-.071-.036q-.016-.004-.024.006l-.004.01-.017.428.005.02.01.013.104.074.015.004.012-.004.104-.074.012-.016.004-.017-.017-.427q-.004-.016-.016-.018m.264-.113-.014.002-.184.093-.01.01-.003.011.018.43.005.012.008.008.201.092q.019.005.029-.008l.004-.014-.034-.614q-.005-.019-.02-.022m-.715.002a.02.02 0 0 0-.027.006l-.006.014-.034.614q.001.018.017.024l.015-.002.201-.093.01-.008.003-.011.018-.43-.003-.012-.01-.01z"/><path fill="#09244b" d="M19 11a1 1 0 0 1 1 1v8a1 1 0 0 1-1.496.868L12 17.151l-6.504 3.717A1 1 0 0 1 4 20v-8a1 1 0 0 1 1-1zM6 18.276l5.504-3.144.118-.058a1 1 0 0 1 .874.058L18 18.276V13H6zM19 7a1 1 0 1 1 0 2H5a1 1 0 0 1 0-2zm0-4a1 1 0 1 1 0 2H5a1 1 0 0 1 0-2z"/></g></svg>