<?xml version="1.0" encoding="UTF-8"?>
<svg width="24px" height="24px" viewBox="0 0 24 24" version="1.1" xmlns="http://www.w3.org/2000/svg" xmlns:xlink="http://www.w3.org/1999/xlink">
    <title>tiktok_fill</title>
    <g id="页面-1" stroke="none" stroke-width="1" fill="none" fill-rule="evenodd">
        <g id="Brand" transform="translate(-720.000000, -48.000000)">
            <g id="tiktok_fill" transform="translate(720.000000, 48.000000)">
                <rect id="矩形" fill-rule="nonzero" x="0" y="0" width="24" height="24"></rect>
                <path d="M14,2 C15.1046,2 16,2.89543 16,4 C16,5.44733 17.03,6.6618 18.3984,6.93991 C19.4808,7.15992 20.1799,8.21575 19.9599,9.29819 C19.7399,10.3806 18.6841,11.0798 17.6016,10.8598 C17.0406,10.7457 16.5037,10.5646 16,10.3252 L16,16 C16,19.3137 13.3137,22 10,22 C6.68629,22 4,19.3137 4,16 C4,13.2015 5.91407,10.8551 8.50148,10.1891 C9.57119,9.91382 10.6616,10.5578 10.9369,11.6275 C11.2122,12.6972 10.5682,13.7876 9.49852,14.0629 C8.63547,14.285 8,15.0708 8,16 C8,17.1046 8.89543,18 10,18 C11.1046,18 12,17.1046 12,16 L12,4 C12,2.89543 12.8954,2 14,2 Z" id="路径" fill="#09244B"></path>
            </g>
        </g>
    </g>
</svg>