<svg xmlns="http://www.w3.org/2000/svg" width="24" height="24"><g fill="none"><path d="M24 0v24H0V0zM12.593 23.258l-.011.002-.071.035-.02.004-.014-.004-.071-.035c-.01-.004-.019-.001-.024.005l-.004.01-.017.428.005.02.01.013.104.074.015.004.012-.004.104-.074.012-.016.004-.017-.017-.427c-.002-.01-.009-.017-.017-.018m.265-.113-.013.002-.185.093-.01.01-.003.011.018.43.005.012.008.007.201.093c.012.004.023 0 .029-.008l.004-.014-.034-.614c-.003-.012-.01-.02-.02-.022m-.715.002a.023.023 0 0 0-.027.006l-.006.014-.034.614c0 .012.007.02.017.024l.015-.002.201-.093.01-.008.004-.011.017-.43-.003-.012-.01-.01z"/><path fill="#09244B" d="M4.594 4.984a1 1 0 0 1 .941.429C7.011 7.572 8.783 8.47 10.75 8.674c.096-.841.323-1.672.75-2.404.626-1.074 1.644-1.864 3.098-2.156 2.01-.404 3.54.324 4.427 1.215l1.792-.335a1 1 0 0 1 1.053 1.478l-1.72 3.022c.157 4.361-1.055 7.405-3.639 9.502-1.37 1.112-3.332 1.743-5.485 1.938-2.17.196-4.623-.041-7.061-.753a1 1 0 0 1 .007-1.922c1.226-.349 2.16-.65 3.003-1.177-1.199-.636-2.082-1.468-2.707-2.416-.868-1.318-1.19-2.788-1.254-4.113-.064-1.325.127-2.553.329-3.438.115-.505.249-1.011.434-1.495a1 1 0 0 1 .818-.636Z"/></g></svg>