<?xml version="1.0" encoding="UTF-8"?>
<svg width="24px" height="24px" viewBox="0 0 24 24" version="1.1" xmlns="http://www.w3.org/2000/svg" xmlns:xlink="http://www.w3.org/1999/xlink">
    <title>twitter_fill</title>
    <g id="页面-1" stroke="none" stroke-width="1" fill="none" fill-rule="evenodd">
        <g id="Brand" transform="translate(-768.000000, -48.000000)" fill-rule="nonzero">
            <g id="twitter_fill" transform="translate(768.000000, 48.000000)">
                <rect id="矩形" x="0" y="0" width="24" height="24"></rect>
                <path d="M4.59375,4.98379 C4.9629,4.94076 5.32546,5.10599 5.53516,5.41282 C7.01054,7.57163 8.78262,8.46969 10.7489,8.67401 C10.8454,7.83282 11.0724,7.00167 11.4991,6.26991 C12.125,5.19626 13.143,4.40582 14.5972,4.11374 C16.6066,3.71014 18.1366,4.43784 19.0244,5.32905 L20.8162,4.99409 C21.199,4.92255 21.5884,5.07965 21.8144,5.39673 C22.0403,5.71381 22.0617,6.13321 21.8691,6.47162 L20.1496,9.4937 C20.3064,13.8551 19.0944,16.8988 16.5103,18.9958 C15.1395,20.1081 13.178,20.739 11.0249,20.9338 C8.85497,21.1301 6.40214,20.8927 3.96382,20.1807 C3.53604,20.0558 3.24254,19.6629 3.24412,19.2173 C3.24569,18.7716 3.54195,18.3808 3.9706,18.2589 C5.19682,17.9102 6.13012,17.6087 6.97377,17.0822 C5.77531,16.4459 4.89225,15.6141 4.26726,14.6658 C3.39859,13.3477 3.07648,11.8783 3.01253,10.553 C2.94859,9.22784 3.14009,8.00048 3.34178,7.11465 C3.45659,6.61039 3.59069,6.10378 3.77553,5.61983 C3.90978,5.27103 4.22461,5.02683 4.59375,4.98379 Z" id="路径" fill="#09244B"></path>
            </g>
        </g>
    </g>
</svg>