<svg xmlns="http://www.w3.org/2000/svg" width="24" height="24" viewBox="0 0 24 24"><title>ubuntu_line</title><g fill="none" fill-rule="nonzero"><path d="M24 0v24H0V0zM12.594 23.258l-.012.002-.071.035-.02.004-.014-.004-.071-.036q-.016-.004-.024.006l-.004.01-.017.428.005.02.01.013.104.074.015.004.012-.004.104-.074.012-.016.004-.017-.017-.427q-.004-.016-.016-.018m.264-.113-.014.002-.184.093-.01.01-.003.011.018.43.005.012.008.008.201.092q.019.005.029-.008l.004-.014-.034-.614q-.005-.019-.02-.022m-.715.002a.02.02 0 0 0-.027.006l-.006.014-.034.614q.001.018.017.024l.015-.002.201-.093.01-.008.003-.011.018-.43-.003-.012-.01-.01z"/><path fill="#09244b" d="M18.598 17.428a3 3 0 1 1-5.196 3 3 3 0 0 1 5.196-3M6.367 16.156a7 7 0 0 0 4.848 2.8 1 1 0 0 1-.222 1.988 9 9 0 0 1-6.234-3.598 1 1 0 0 1 1.608-1.19m9.133 1.906a1 1 0 1 0 1 1.732 1 1 0 0 0-1-1.732M20.25 8.4A9 9 0 0 1 21 12a9 9 0 0 1-.75 3.601 1 1 0 1 1-1.832-.8A7 7 0 0 0 19 12c0-.998-.208-1.944-.582-2.8a1 1 0 1 1 1.832-.8M4 9a3 3 0 1 1 0 6 3 3 0 0 1 0-6m0 2a1 1 0 1 0 0 2 1 1 0 0 0 0-2m8.098-7.06a1 1 0 0 1-.883 1.104 7 7 0 0 0-4.848 2.8 1 1 0 1 1-1.608-1.189 9 9 0 0 1 6.234-3.6 1 1 0 0 1 1.105.884M17.5 2.473a3 3 0 1 1-3 5.196 3 3 0 0 1 3-5.196m-2.366 2.098a1 1 0 1 0 1.732 1 1 1 0 0 0-1.732-1"/></g></svg>