<?xml version="1.0" encoding="UTF-8"?>
<svg width="24px" height="24px" viewBox="0 0 24 24" version="1.1" xmlns="http://www.w3.org/2000/svg" xmlns:xlink="http://www.w3.org/1999/xlink">
    <title>vkontakte_line</title>
    <g id="页面-1" stroke="none" stroke-width="1" fill="none" fill-rule="evenodd">
        <g id="Logo" transform="translate(-768.000000, -96.000000)" fill-rule="nonzero">
            <g id="vkontakte_line" transform="translate(768.000000, 96.000000)">
                <rect id="矩形" x="0" y="0" width="24" height="24"></rect>
                <path d="M17,3 C19.1421576,3 20.8910766,4.68396753 20.9951046,6.80035957 L21,7 L21,17 C21,19.1421576 19.3159949,20.8910766 17.199637,20.9951046 L17,21 L7,21 C4.85780364,21 3.10892107,19.3159949 3.0048953,17.199637 L3,17 L3,7 C3,4.85780364 4.68396753,3.10892107 6.80035957,3.0048953 L7,3 L17,3 Z M17,5 L7,5 C5.94563773,5 5.08183483,5.81587733 5.00548573,6.85073759 L5,7 L5,17 C5,18.0543909 5.81587733,18.9181678 6.85073759,18.9945144 L7,19 L17,19 C18.0543909,19 18.9181678,18.18415 18.9945144,17.1492661 L19,17 L19,7 C19,5.94563773 18.18415,5.08183483 17.1492661,5.00548573 L17,5 Z M15.453104,9.22480848 L15.6679,8.94541 C15.9743,8.48588 16.5952,8.3617 17.0547,8.66806 C17.5142,8.97441 17.6384,9.59528 17.3321,10.0548 C17.0418,10.4903 16.5418,11.1109 15.8658,11.7349 C15.7209,11.8687 15.5744,11.9961 15.4263,12.1168 C16.524,12.7013 17.4161,13.5963 17.8944,14.5529 C18.1414,15.0469 17.9412,15.6475 17.4472,15.8945 C16.9532,16.1415 16.3526,15.9413 16.1056,15.4473 C15.6492526,14.5347 14.4653861,13.6425632 13.2103237,13.4603732 L13.0006,13.4367 L13,15.0001 C13,15.5524 12.5523,16.0001 12,16.0001 C8.50956,16.0001 6,13.132 6,9.50011 C6,8.94782 6.44772,8.50011 7,8.50011 C7.55228,8.50011 8,8.94782 8,9.50011 C8,11.3742861 8.9780595,13.1985387 10.7947064,13.8101882 L11,13.8731 L11,9.50011 C11,8.93138 11.4584,8.53135 12,8.50011 C12.4733538,8.50011 12.8699361,8.82904349 12.9736091,9.27082002 L12.9933,9.38349 L13.0005,11.2835 C13.4973,11.0773 14.0063,10.7296 14.5092,10.2653 C14.85656,9.944692 15.163088,9.593332 15.453104,9.22480848 L15.453104,9.22480848 Z" id="形状" fill="#09244B"></path>
            </g>
        </g>
    </g>
</svg>