<?xml version="1.0" encoding="UTF-8"?>
<svg width="24px" height="24px" viewBox="0 0 24 24" version="1.1" xmlns="http://www.w3.org/2000/svg" xmlns:xlink="http://www.w3.org/1999/xlink">
    <title>vkontakte_fill</title>
    <g id="页面-1" stroke="none" stroke-width="1" fill="none" fill-rule="evenodd">
        <g id="Logo" transform="translate(-768.000000, -144.000000)">
            <g id="vkontakte_fill" transform="translate(768.000000, 144.000000)">
                 <path d="M24,0 L24,24 L0,24 L0,0 L24,0 Z M12.5934901,23.257841 L12.5819402,23.2595131 L12.5108777,23.2950439 L12.4918791,23.2987469 L12.4918791,23.2987469 L12.4767152,23.2950439 L12.4056548,23.2595131 C12.3958229,23.2563662 12.3870493,23.2590235 12.3821421,23.2649074 L12.3780323,23.275831 L12.360941,23.7031097 L12.3658947,23.7234994 L12.3769048,23.7357139 L12.4804777,23.8096931 L12.4953491,23.8136134 L12.4953491,23.8136134 L12.5071152,23.8096931 L12.6106902,23.7357139 L12.6232938,23.7196733 L12.6232938,23.7196733 L12.6266527,23.7031097 L12.609561,23.275831 C12.6075724,23.2657013 12.6010112,23.2592993 12.5934901,23.257841 L12.5934901,23.257841 Z M12.8583906,23.1452862 L12.8445485,23.1473072 L12.6598443,23.2396597 L12.6498822,23.2499052 L12.6498822,23.2499052 L12.6471943,23.2611114 L12.6650943,23.6906389 L12.6699349,23.7034178 L12.6699349,23.7034178 L12.678386,23.7104931 L12.8793402,23.8032389 C12.8914285,23.8068999 12.9022333,23.8029875 12.9078286,23.7952264 L12.9118235,23.7811639 L12.8776777,23.1665331 C12.8752882,23.1545897 12.8674102,23.1470016 12.8583906,23.1452862 L12.8583906,23.1452862 Z M12.1430473,23.1473072 C12.1332178,23.1423925 12.1221763,23.1452606 12.1156365,23.1525954 L12.1099173,23.1665331 L12.0757714,23.7811639 C12.0751323,23.7926639 12.0828099,23.8018602 12.0926481,23.8045676 L12.108256,23.8032389 L12.3092106,23.7104931 L12.3186497,23.7024347 L12.3186497,23.7024347 L12.3225043,23.6906389 L12.340401,23.2611114 L12.337245,23.2485176 L12.337245,23.2485176 L12.3277531,23.2396597 L12.1430473,23.1473072 Z" id="MingCute" fill-rule="nonzero"></path>
                <path d="M7,3 C4.79086,3 3,4.79086 3,7 L3,17 C3,19.2091 4.79086,21 7,21 L17,21 C19.2091,21 21,19.2091 21,17 L21,7 C21,4.79086 19.2091,3 17,3 L7,3 Z M17.3321,10.0547 C17.6384,9.59516 17.5142,8.97429 17.0547,8.66793 C16.5952,8.36158 15.9743,8.48576 15.6679,8.94528 C15.3138,9.41561 14.9434,9.86442 14.5092,10.2652 C14.0063,10.7294 13.4973,11.0772 13.0005,11.2834 L12.9933,9.38336 C12.9355,8.88602 12.5128,8.49998 12,8.49998 C11.4584,8.53123 11,8.93126 11,9.49998 L11,13.873 C9.05185,13.3334 8,11.4436 8,9.49998 C8,8.9477 7.55228,8.49998 7,8.49998 C6.44772,8.49998 6,8.9477 6,9.49998 C6,13.1319 8.50956,16 12,16 C12.5523,16 13,15.5523 13,15 L13.0006,13.4366 C14.3316,13.5433 15.6239,14.4839 16.1056,15.4472 C16.3526,15.9412 16.9532,16.1414 17.4472,15.8944 C17.9412,15.6474 18.1414,15.0467 17.8944,14.5528 C17.4161,13.5962 16.524,12.7012 15.4263,12.1167 C15.5744,11.996 15.7209,11.8685 15.8658,11.7348 C16.5418,11.1108 17.0418,10.4901 17.3321,10.0547 Z" id="形状" fill="#09244B"></path>
            </g>
        </g>
    </g>
</svg>