<?xml version="1.0" encoding="UTF-8"?>
<svg width="24px" height="24px" viewBox="0 0 24 24" version="1.1" xmlns="http://www.w3.org/2000/svg" xmlns:xlink="http://www.w3.org/1999/xlink">
    <title>vkontakte_line</title>
    <g id="页面-1" stroke="none" stroke-width="1" fill="none" fill-rule="evenodd">
        <g id="Logo" transform="translate(-768.000000, -96.000000)" fill-rule="nonzero">
            <g id="vkontakte_line" transform="translate(768.000000, 96.000000)">
                 <path d="M24,0 L24,24 L0,24 L0,0 L24,0 Z M12.5934901,23.257841 L12.5819402,23.2595131 L12.5108777,23.2950439 L12.4918791,23.2987469 L12.4918791,23.2987469 L12.4767152,23.2950439 L12.4056548,23.2595131 C12.3958229,23.2563662 12.3870493,23.2590235 12.3821421,23.2649074 L12.3780323,23.275831 L12.360941,23.7031097 L12.3658947,23.7234994 L12.3769048,23.7357139 L12.4804777,23.8096931 L12.4953491,23.8136134 L12.4953491,23.8136134 L12.5071152,23.8096931 L12.6106902,23.7357139 L12.6232938,23.7196733 L12.6232938,23.7196733 L12.6266527,23.7031097 L12.609561,23.275831 C12.6075724,23.2657013 12.6010112,23.2592993 12.5934901,23.257841 L12.5934901,23.257841 Z M12.8583906,23.1452862 L12.8445485,23.1473072 L12.6598443,23.2396597 L12.6498822,23.2499052 L12.6498822,23.2499052 L12.6471943,23.2611114 L12.6650943,23.6906389 L12.6699349,23.7034178 L12.6699349,23.7034178 L12.678386,23.7104931 L12.8793402,23.8032389 C12.8914285,23.8068999 12.9022333,23.8029875 12.9078286,23.7952264 L12.9118235,23.7811639 L12.8776777,23.1665331 C12.8752882,23.1545897 12.8674102,23.1470016 12.8583906,23.1452862 L12.8583906,23.1452862 Z M12.1430473,23.1473072 C12.1332178,23.1423925 12.1221763,23.1452606 12.1156365,23.1525954 L12.1099173,23.1665331 L12.0757714,23.7811639 C12.0751323,23.7926639 12.0828099,23.8018602 12.0926481,23.8045676 L12.108256,23.8032389 L12.3092106,23.7104931 L12.3186497,23.7024347 L12.3186497,23.7024347 L12.3225043,23.6906389 L12.340401,23.2611114 L12.337245,23.2485176 L12.337245,23.2485176 L12.3277531,23.2396597 L12.1430473,23.1473072 Z" id="MingCute" fill-rule="nonzero"></path>
                <path d="M17,3 C19.1421576,3 20.8910766,4.68396753 20.9951046,6.80035957 L21,7 L21,17 C21,19.1421576 19.3159949,20.8910766 17.199637,20.9951046 L17,21 L7,21 C4.85780364,21 3.10892107,19.3159949 3.0048953,17.199637 L3,17 L3,7 C3,4.85780364 4.68396753,3.10892107 6.80035957,3.0048953 L7,3 L17,3 Z M17,5 L7,5 C5.94563773,5 5.08183483,5.81587733 5.00548573,6.85073759 L5,7 L5,17 C5,18.0543909 5.81587733,18.9181678 6.85073759,18.9945144 L7,19 L17,19 C18.0543909,19 18.9181678,18.18415 18.9945144,17.1492661 L19,17 L19,7 C19,5.94563773 18.18415,5.08183483 17.1492661,5.00548573 L17,5 Z M15.453104,9.22480848 L15.6679,8.94541 C15.9743,8.48588 16.5952,8.3617 17.0547,8.66806 C17.5142,8.97441 17.6384,9.59528 17.3321,10.0548 C17.0418,10.4903 16.5418,11.1109 15.8658,11.7349 C15.7209,11.8687 15.5744,11.9961 15.4263,12.1168 C16.524,12.7013 17.4161,13.5963 17.8944,14.5529 C18.1414,15.0469 17.9412,15.6475 17.4472,15.8945 C16.9532,16.1415 16.3526,15.9413 16.1056,15.4473 C15.6492526,14.5347 14.4653861,13.6425632 13.2103237,13.4603732 L13.0006,13.4367 L13,15.0001 C13,15.5524 12.5523,16.0001 12,16.0001 C8.50956,16.0001 6,13.132 6,9.50011 C6,8.94782 6.44772,8.50011 7,8.50011 C7.55228,8.50011 8,8.94782 8,9.50011 C8,11.3742861 8.9780595,13.1985387 10.7947064,13.8101882 L11,13.8731 L11,9.50011 C11,8.93138 11.4584,8.53135 12,8.50011 C12.4733538,8.50011 12.8699361,8.82904349 12.9736091,9.27082002 L12.9933,9.38349 L13.0005,11.2835 C13.4973,11.0773 14.0063,10.7296 14.5092,10.2653 C14.85656,9.944692 15.163088,9.593332 15.453104,9.22480848 L15.453104,9.22480848 Z" id="形状" fill="#09244B"></path>
            </g>
        </g>
    </g>
</svg>