<?xml version="1.0" encoding="UTF-8"?>
<svg width="24px" height="24px" viewBox="0 0 24 24" version="1.1" xmlns="http://www.w3.org/2000/svg" xmlns:xlink="http://www.w3.org/1999/xlink">
    <title>vue_line</title>
    <g id="页面-1" stroke="none" stroke-width="1" fill="none" fill-rule="evenodd">
        <g id="Logo" transform="translate(-816.000000, -96.000000)" fill-rule="nonzero">
            <g id="vue_line" transform="translate(816.000000, 96.000000)">
                <rect id="矩形" x="0" y="0" width="24" height="24"></rect>
                <path d="M20.138,4.19311 C20.418,3.71708 21.0309,3.55818 21.5069,3.8382 C21.9489929,4.09821857 22.1175816,4.64526122 21.9152265,5.10321981 L21.8619,5.20715 L12.8619,20.5071 C12.6822,20.8126 12.3543,21.0001 11.9999,21.0001 C11.6849667,21.0001 11.3908926,20.8519519 11.2032218,20.6044676 L11.138,20.5071 L2.13798,5.20713 C1.85796,4.7311 2.01686,4.1182 2.4929,3.83818 C2.93492786,3.57816143 3.49497117,3.69659939 3.7969218,4.09598199 L3.86185,4.19309 L11.9999,18.0278 L20.138,4.19311 Z M15.8438,4.19315 C16.1238,3.71712 16.7367,3.55821 17.2128,3.83823 C17.6548,4.09824857 17.8233821,4.64529985 17.6210265,5.10325967 L17.5677,5.20719 L12.8619,13.2071 C12.6822,13.5125 12.3543,13.7000069 11.9999,13.7000069 C11.6849667,13.7000069 11.3908926,13.5518533 11.2032218,13.3044381 L11.138,13.2071 L6.43218,5.20719 C6.15216,4.73116 6.31106,4.11825 6.78709,3.83823 C7.22912714,3.57821143 7.78917112,3.69665801 8.0911218,4.09604184 L8.15605,4.19315 L11.9999,10.7277 L15.8438,4.19315 Z" id="形状" fill="#09244B"></path>
            </g>
        </g>
    </g>
</svg>