<?xml version="1.0" encoding="UTF-8"?>
<svg width="24px" height="24px" viewBox="0 0 24 24" version="1.1" xmlns="http://www.w3.org/2000/svg" xmlns:xlink="http://www.w3.org/1999/xlink">
    <title>vue_line</title>
    <g id="页面-1" stroke="none" stroke-width="1" fill="none" fill-rule="evenodd">
        <g id="Logo" transform="translate(-816.000000, -96.000000)" fill-rule="nonzero">
            <g id="vue_line" transform="translate(816.000000, 96.000000)">
                 <path d="M24,0 L24,24 L0,24 L0,0 L24,0 Z M12.5934901,23.257841 L12.5819402,23.2595131 L12.5108777,23.2950439 L12.4918791,23.2987469 L12.4918791,23.2987469 L12.4767152,23.2950439 L12.4056548,23.2595131 C12.3958229,23.2563662 12.3870493,23.2590235 12.3821421,23.2649074 L12.3780323,23.275831 L12.360941,23.7031097 L12.3658947,23.7234994 L12.3769048,23.7357139 L12.4804777,23.8096931 L12.4953491,23.8136134 L12.4953491,23.8136134 L12.5071152,23.8096931 L12.6106902,23.7357139 L12.6232938,23.7196733 L12.6232938,23.7196733 L12.6266527,23.7031097 L12.609561,23.275831 C12.6075724,23.2657013 12.6010112,23.2592993 12.5934901,23.257841 L12.5934901,23.257841 Z M12.8583906,23.1452862 L12.8445485,23.1473072 L12.6598443,23.2396597 L12.6498822,23.2499052 L12.6498822,23.2499052 L12.6471943,23.2611114 L12.6650943,23.6906389 L12.6699349,23.7034178 L12.6699349,23.7034178 L12.678386,23.7104931 L12.8793402,23.8032389 C12.8914285,23.8068999 12.9022333,23.8029875 12.9078286,23.7952264 L12.9118235,23.7811639 L12.8776777,23.1665331 C12.8752882,23.1545897 12.8674102,23.1470016 12.8583906,23.1452862 L12.8583906,23.1452862 Z M12.1430473,23.1473072 C12.1332178,23.1423925 12.1221763,23.1452606 12.1156365,23.1525954 L12.1099173,23.1665331 L12.0757714,23.7811639 C12.0751323,23.7926639 12.0828099,23.8018602 12.0926481,23.8045676 L12.108256,23.8032389 L12.3092106,23.7104931 L12.3186497,23.7024347 L12.3186497,23.7024347 L12.3225043,23.6906389 L12.340401,23.2611114 L12.337245,23.2485176 L12.337245,23.2485176 L12.3277531,23.2396597 L12.1430473,23.1473072 Z" id="MingCute" fill-rule="nonzero"></path>
                <path d="M20.138,4.19311 C20.418,3.71708 21.0309,3.55818 21.5069,3.8382 C21.9489929,4.09821857 22.1175816,4.64526122 21.9152265,5.10321981 L21.8619,5.20715 L12.8619,20.5071 C12.6822,20.8126 12.3543,21.0001 11.9999,21.0001 C11.6849667,21.0001 11.3908926,20.8519519 11.2032218,20.6044676 L11.138,20.5071 L2.13798,5.20713 C1.85796,4.7311 2.01686,4.1182 2.4929,3.83818 C2.93492786,3.57816143 3.49497117,3.69659939 3.7969218,4.09598199 L3.86185,4.19309 L11.9999,18.0278 L20.138,4.19311 Z M15.8438,4.19315 C16.1238,3.71712 16.7367,3.55821 17.2128,3.83823 C17.6548,4.09824857 17.8233821,4.64529985 17.6210265,5.10325967 L17.5677,5.20719 L12.8619,13.2071 C12.6822,13.5125 12.3543,13.7000069 11.9999,13.7000069 C11.6849667,13.7000069 11.3908926,13.5518533 11.2032218,13.3044381 L11.138,13.2071 L6.43218,5.20719 C6.15216,4.73116 6.31106,4.11825 6.78709,3.83823 C7.22912714,3.57821143 7.78917112,3.69665801 8.0911218,4.09604184 L8.15605,4.19315 L11.9999,10.7277 L15.8438,4.19315 Z" id="形状" fill="#09244B"></path>
            </g>
        </g>
    </g>
</svg>