<?xml version="1.0" encoding="UTF-8"?>
<svg width="24px" height="24px" viewBox="0 0 24 24" version="1.1" xmlns="http://www.w3.org/2000/svg" xmlns:xlink="http://www.w3.org/1999/xlink">
    <title>vue_fill</title>
    <g id="页面-1" stroke="none" stroke-width="1" fill="none" fill-rule="evenodd">
        <g id="Logo" transform="translate(-816.000000, -144.000000)" fill-rule="nonzero">
            <g id="vue_fill" transform="translate(816.000000, 144.000000)">
                <rect id="矩形" x="0" y="0" width="24" height="24"></rect>
                <path d="M19.7071,3.93958 C20.1271,3.22553 21.0465,2.98718 21.7605,3.40721 C22.4325941,3.80253235 22.6832183,4.64015893 22.3602212,5.33264345 L22.2929,5.46064 L13.2929,20.7606 C13.0234,21.2188 12.5315,21.5001 12,21.5001 C11.5168182,21.5001 11.0663636,21.2676207 10.7859767,20.8810992 L10.7071,20.7606 L1.70709,5.46062 C1.28706,4.74657 1.52541,3.82722 2.23946,3.40719 C2.91150706,3.01186765 3.76542042,3.19985159 4.21373713,3.81852642 L4.2929,3.93956 L12,17.0416 L19.7071,3.93958 Z M14.8272,3.93527 C15.2472,3.22122 16.1666,2.98287 16.8806,3.40289 C17.5526941,3.79821235 17.8033183,4.63584779 17.4803212,5.32833335 L17.413,5.45633 L13.2929,12.4605 C13.0234,12.9187 12.5315,13.2 12,13.2 C11.5168182,13.2 11.0663636,12.9675207 10.7859767,12.5809992 L10.7071,12.4605 L6.589,5.45974 C6.16897,4.74569 6.40732,3.82634 7.12137,3.40631 C7.79341706,3.01098765 8.64733042,3.19886696 9.09563879,3.81764642 L9.1748,3.93868 L12,8.74151 L14.8272,3.93527 Z" id="形状" fill="#09244B"></path>
            </g>
        </g>
    </g>
</svg>