<?xml version="1.0" encoding="UTF-8"?>
<svg width="24px" height="24px" viewBox="0 0 24 24" version="1.1" xmlns="http://www.w3.org/2000/svg" xmlns:xlink="http://www.w3.org/1999/xlink">
    <title>wechat_fill</title>
    <g id="页面-1" stroke="none" stroke-width="1" fill="none" fill-rule="evenodd">
        <g id="Brand" transform="translate(-816.000000, -48.000000)">
            <g id="wechat_fill" transform="translate(816.000000, 48.000000)">
                <rect id="矩形" fill-rule="nonzero" x="0" y="0" width="24" height="24"></rect>
                <path d="M16,10 C19.1536,10 22,12.1859 22,15.213 C22,16.9087 21.0792,18.366 19.7399,19.2931 C19.6961,19.558 19.7321,19.8253 19.7321,20.0917 C19.7321,20.5934 19.3304,21 18.8349,21 C18.1551,21 17.525,20.7758 16.9918,20.3553 C16.6686,20.4019 16.3373,20.426 16,20.426 C12.8464,20.426 10,18.2401 10,15.213 C10,12.1859 12.8464,10 16,10 Z M9.5,3 C13.2774,3 16.6488,5.5354 16.9743,9.0623 C16.6519,9.02108 16.3262,9 16,9 C12.4669,9 9,11.4729 9,15.2089 C9,15.5631 9.03117,15.906 9.0906,16.2365 C8.77649,16.2216 8.46717,16.1896 8.16389,16.1416 C7.49325,16.691 6.72062,17 5.85417,17 C5.3364,17 4.91667,16.5661 4.91667,16.0308 L4.92128981,15.8333185 L4.92128981,15.8333185 L4.938295,15.4358 C4.942735,15.2371 4.93443,15.0394 4.88345,14.8468 C3.16999,13.6654 2,11.7933 2,9.62308 C2,5.8073 5.52517,3 9.5,3 Z M14,13 C13.4477,13 13,13.4477 13,14 C13,14.5523 13.4477,15 14,15 C14.5523,15 15,14.5523 15,14 C15,13.4477 14.5523,13 14,13 Z M18,13 C17.4477,13 17,13.4477 17,14 C17,14.5523 17.4477,15 18,15 C18.5523,15 19,14.5523 19,14 C19,13.4477 18.5523,13 18,13 Z M7,6 C6.44772,6 6,6.44772 6,7 C6,7.55228 6.44772,8 7,8 C7.55228,8 8,7.55228 8,7 C8,6.44772 7.55228,6 7,6 Z M12,6 C11.4477,6 11,6.44772 11,7 C11,7.55228 11.4477,8 12,8 C12.5523,8 13,7.55228 13,7 C13,6.44772 12.5523,6 12,6 Z" id="形状" fill="#09244B"></path>
            </g>
        </g>
    </g>
</svg>