<?xml version="1.0" encoding="UTF-8"?>
<svg width="24px" height="24px" viewBox="0 0 24 24" version="1.1" xmlns="http://www.w3.org/2000/svg" xmlns:xlink="http://www.w3.org/1999/xlink">
    <title>weibo_line</title>
    <g id="页面-1" stroke="none" stroke-width="1" fill="none" fill-rule="evenodd">
        <g id="Logo" transform="translate(-384.000000, -96.000000)" fill-rule="nonzero">
            <g id="weibo_line" transform="translate(384.000000, 96.000000)">
                <rect id="矩形" x="0" y="0" width="24" height="24"></rect>
                <path d="M13.1203,5.81524 C13.6691,6.35234 13.9458,7.05408 13.9829,7.80728 C15.6575,7.30465 17.0283,7.44503 17.92,8.307 C18.7676,9.12632 18.8571,10.2743 18.5366,11.2711 C19.9011,11.9613 21,13.0583 21,14.7147 C21,16.6459 19.7442,18.2406 18.0384,19.3012 C16.318,20.3709 14.0037,21 11.5,21 C8.9963,21 6.68203,20.3709 4.96155,19.3012 C3.25584,18.2406 2,16.6459 2,14.7147 C2,12.9525 2.84179,11.1264 4.04965,9.55947 C5.26954,7.9769 6.94008,6.55519 8.77327,5.60532 C10.4076,4.75848 12.0591,4.77656 13.1203,5.81524 Z M11.7214,7.24457 C11.5076,7.03536 10.8924,6.75984 9.69339,7.3811 C8.12658,8.19294 6.68045,9.42249 5.63367,10.7805 C4.57487,12.1541 4,13.5579 4,14.7147 C4,15.7025 4.64695,16.7504 6.01763,17.6027 C7.37355,18.4458 9.30928,19 11.5,19 C13.6907,19 15.6265,18.4458 16.9824,17.6027 C18.3531,16.7504 19,15.7025 19,14.7147 C19,14.0036 18.4398,13.2762 16.8402,12.7236 C16.5382,12.6193 16.3042,12.3769 16.2106,12.0715 C16.1169,11.766 16.1749,11.4342 16.3666,11.1785 C16.8617,10.5181 16.7217,9.93032 16.53,9.74496 L16.4824965,9.70554644 L16.4824965,9.70554644 L16.4151136,9.66301953 C16.0779849,9.47674382 15.1406733,9.295462 13.08,10.3241 C12.6973,10.5152 12.2355,10.4417 11.931,10.1413 C11.6265,9.84089 11.5468,9.38011 11.7327,8.99489 C12.177,8.07396 11.9584,7.47658 11.7214,7.24457 Z M17,3 C18.5759,3 20.1283,3.64306 21.2426,4.75736 C22.3569,5.87166 23,7.42414 23,9 C23,9.55228 22.5523,10 22,10 C21.4477,10 21,9.55228 21,9 C21,7.94942 20.5713,6.91444 19.8284,6.17157 C19.0856,5.42871 18.0506,5 17,5 C16.4477,5 16,4.55228 16,4 C16,3.44772 16.4477,3 17,3 Z" id="形状" fill="#09244B"></path>
            </g>
        </g>
    </g>
</svg>