<?xml version="1.0" encoding="UTF-8"?>
<svg width="24px" height="24px" viewBox="0 0 24 24" version="1.1" xmlns="http://www.w3.org/2000/svg" xmlns:xlink="http://www.w3.org/1999/xlink">
    <title>weibo_fill</title>
    <g id="页面-1" stroke="none" stroke-width="1" fill="none" fill-rule="evenodd">
        <g id="Logo" transform="translate(-384.000000, -144.000000)" fill-rule="nonzero">
            <g id="weibo_fill" transform="translate(384.000000, 144.000000)">
                <rect id="矩形" x="0" y="0" width="24" height="24"></rect>
                <path d="M8.77327,5.60531 C10.4076,4.75847 12.0591,4.77655 13.1203,5.81522 C13.6691,6.35233 13.9458,7.05407 13.9829,7.80727 C15.6575,7.30464 17.0283,7.44501 17.92,8.30699 C18.7676,9.12631 18.8571,10.2743 18.5366,11.2711 C19.9011,11.9613 21,13.0583 21,14.7147 C21,16.6459 19.7442,18.2405 18.0384,19.3011 C16.318,20.3709 14.0037,21 11.5,21 C8.9963,21 6.68203,20.3709 4.96155,19.3011 C3.25584,18.2405 2,16.6459 2,14.7147 C2,12.9525 2.84179,11.1264 4.04965,9.55946 C5.26954,7.97688 6.94008,6.55518 8.77327,5.60531 Z M17,3 C17.7879,3 18.5681,3.15519 19.2961,3.45672 C20.0241,3.75825 20.6855,4.20021 21.2426,4.75736 C21.7998,5.31451 22.2417,5.97595 22.5433,6.7039 C22.8448,7.43185 23,8.21207 23,9 C23,9.55228 22.5523,10 22,10 C21.48715,10 21.0644908,9.61395571 21.0067275,9.11662025 L21,9 C21,8.47471 20.8965,7.95457 20.6955,7.46927 C20.4945,6.98396 20.1999,6.54301 19.8284,6.17157 C19.457,5.80014 19.016,5.5055 18.5307,5.30448 C18.0454,5.10346 17.5253,5 17,5 C16.4477,5 16,4.55228 16,4 C16,3.44772 16.4477,3 17,3 Z" id="形状" fill="#09244B"></path>
            </g>
        </g>
    </g>
</svg>