<?xml version="1.0" encoding="UTF-8"?>
<svg width="24px" height="24px" viewBox="0 0 24 24" version="1.1" xmlns="http://www.w3.org/2000/svg" xmlns:xlink="http://www.w3.org/1999/xlink">
    <title>windows_fill</title>
    <g id="页面-1" stroke="none" stroke-width="1" fill="none" fill-rule="evenodd">
        <g id="Logo" transform="translate(-432.000000, -144.000000)" fill-rule="nonzero">
            <g id="windows_fill" transform="translate(432.000000, 144.000000)">
                <rect id="矩形" x="0" y="0" width="24" height="24"></rect>
                <path d="M21,13 L21,20.4336 C21,21.29069 20.286303,21.9635798 19.4473255,21.9327857 L19.3139,21.922 L12,21.0078 L12,13 L21,13 Z M10,13 L10,20.7578 L4.75193,20.1018 C3.75107,19.9767 3,19.1259 3,18.1172 L3,13 L10,13 Z M19.3139,2.07797 C20.164435,1.9716555 20.9206588,2.59635698 20.9941548,3.43265093 L21,3.56638 L21,11 L12,11 L12,2.99221 L19.3139,2.07797 Z M10,3.24221 L10,11 L3,11 L3,5.88277 C3,4.87413 3.75107,4.02333 4.75193,3.89822 L10,3.24221 Z" id="形状" fill="#09244B"></path>
            </g>
        </g>
    </g>
</svg>