<svg xmlns="http://www.w3.org/2000/svg" width="24" height="24"><g fill="none"><path d="M24 0v24H0V0zM12.594 23.258l-.012.002-.071.035-.02.004-.014-.004-.071-.036c-.01-.003-.019 0-.024.006l-.004.01-.017.428.005.02.01.013.104.074.015.004.012-.004.104-.074.012-.016.004-.017-.017-.427c-.002-.01-.009-.017-.016-.018m.264-.113-.014.002-.184.093-.01.01-.003.011.018.43.005.012.008.008.201.092c.012.004.023 0 .029-.008l.004-.014-.034-.614c-.003-.012-.01-.02-.02-.022m-.715.002a.023.023 0 0 0-.027.006l-.006.014-.034.614c0 .012.007.02.017.024l.015-.002.201-.093.01-.008.003-.011.018-.43-.003-.012-.01-.01z"/><path fill="#09244B" d="M12 9.235c2.907 2.946 4.956 6.4 6.668 10.217A9.963 9.963 0 0 1 12 22a9.963 9.963 0 0 1-6.668-2.548C7.044 15.635 9.092 12.181 12 9.235M5.509 4.393a27.892 27.892 0 0 1 5.033 3.472c-2.886 2.934-4.96 6.314-6.667 9.966A9.954 9.954 0 0 1 2 12a9.978 9.978 0 0 1 3.509-7.607m12.982 0A9.978 9.978 0 0 1 22 12c0 2.176-.695 4.19-1.875 5.83-1.707-3.651-3.781-7.03-6.667-9.965a27.895 27.895 0 0 1 5.033-3.472M12 2c1.675 0 3.254.412 4.641 1.14A29.47 29.47 0 0 0 12 6.483 29.472 29.472 0 0 0 7.359 3.14 9.957 9.957 0 0 1 12 2"/></g></svg>