<?xml version="1.0" encoding="UTF-8"?>
<svg width="24px" height="24px" viewBox="0 0 24 24" version="1.1" xmlns="http://www.w3.org/2000/svg" xmlns:xlink="http://www.w3.org/1999/xlink">
    <title>youtube_line</title>
    <g id="页面-1" stroke="none" stroke-width="1" fill="none" fill-rule="evenodd">
        <g id="Brand" transform="translate(-912.000000, -0.000000)" fill-rule="nonzero">
            <g id="youtube_line" transform="translate(912.000000, 0.000000)">
                <rect id="矩形" x="0" y="0" width="24" height="24"></rect>
                <path d="M12,4 C12.8554231,4 13.7316302,4.02241864 14.5816652,4.05776684 L15.5861395,4.10578357 L15.5861395,4.10578357 L16.5474575,4.16256888 L16.5474575,4.16256888 L17.447588,4.22447896 L17.447588,4.22447896 L18.2685,4.28787 L18.2685,4.28787 C20.1065,4.43702 21.5836,5.85942 21.7633,7.71109 L21.8030749,8.13562908 L21.8030749,8.13562908 L21.8780889,9.04557185 C21.9482222,9.98880444 22,11.0173333 22,12 C22,12.9826667 21.9482222,14.0112 21.8780889,14.9544296 L21.8030749,15.8643665 C21.7899654,16.0096642 21.7766556,16.1513778 21.7633,16.2889 C21.5836,18.1406 20.1065,19.563 18.2685,19.7121 L17.447588,19.7754863 L17.447588,19.7754863 L16.5474575,19.837399 L16.5474575,19.837399 L15.5861395,19.8941917 L15.5861395,19.8941917 L14.5816652,19.9422178 C13.7316302,19.977574 12.8554231,20 12,20 C11.1445923,20 10.2683828,19.977574 9.41834133,19.9422178 L8.4138582,19.8941917 L8.4138582,19.8941917 L7.45253268,19.837399 L7.45253268,19.837399 L6.55240116,19.7754863 L6.55240116,19.7754863 L5.7315,19.7121 L5.7315,19.7121 C3.89351,19.563 2.4164,18.1406 2.23668,16.2889 L2.19692159,15.8643665 L2.19692159,15.8643665 L2.12192296,14.9544296 C2.05179556,14.0112 2,12.9826667 2,12 C2,11.0173333 2.05179556,9.98880444 2.12192296,9.04557185 L2.19692159,8.13562908 C2.21002667,7.99032988 2.22333111,7.84861444 2.23668,7.71109 C2.4164,5.85942 3.89351,4.43702 5.7315,4.28787 L6.55240056,4.22447896 L6.55240056,4.22447896 L7.45253071,4.16256888 L7.45253071,4.16256888 L8.41385476,4.10578357 L8.41385476,4.10578357 L9.41833696,4.05776684 C10.2683781,4.02241864 11.1445885,4 12,4 Z M12,6 C11.1746385,6 10.3259367,6.02172189 9.49966334,6.05610731 L8.52183015,6.10286855 L8.52183015,6.10286855 L7.58310343,6.15830836 L7.58310343,6.15830836 L6.70105832,6.21894832 L6.70105832,6.21894832 L5.89327,6.28131 L5.89327,6.28131 C5.00396,6.35348 4.31194,7.03249 4.22732,7.9043 C4.11002,9.11288 4,10.6181 4,12 C4,13.3819 4.11002,14.8871 4.22732,16.0957 C4.31194,16.9675 5.00396,17.6465 5.89327,17.7187 L6.70105832,17.781071 L6.70105832,17.781071 L7.58310343,17.8417127 L7.58310343,17.8417127 L8.52183015,17.8971491 L8.52183015,17.8971491 L9.49966334,17.9439042 C10.3259367,17.978284 11.1746385,18 12,18 C12.8253462,18 13.6740503,17.978284 14.5003284,17.9439042 L15.4781675,17.8971491 L15.4781675,17.8971491 L16.4168964,17.8417127 L16.4168964,17.8417127 L17.2989343,17.781071 L17.2989343,17.781071 L18.1067,17.7187 L18.1067,17.7187 C18.996,17.6465 19.6881,16.9675 19.7727,16.0957 C19.89,14.8871 20,13.3819 20,12 C20,10.6181 19.89,9.11288 19.7727,7.9043 C19.6881,7.03249 18.996,6.35348 18.1067,6.28131 L17.2989343,6.21894832 L17.2989343,6.21894832 L16.4168964,6.15830836 L16.4168964,6.15830836 L15.4781675,6.10286855 L15.4781675,6.10286855 L14.5003284,6.05610731 C13.6740503,6.02172189 12.8253462,6 12,6 Z M10,9.57513 C10,9.144042 10.4355556,8.86383044 10.8188444,9.01614762 L10.9,9.05551 L15.1,11.4804 C15.4692308,11.6935385 15.4976331,12.2019195 15.1852071,12.4604799 L15.1,12.5196 L10.9,14.9445 C10.5266667,15.1600067 10.0662222,14.9229711 10.0064889,14.5148668 L10,14.4249 L10,9.57513 Z" id="形状" fill="#09244B"></path>
            </g>
        </g>
    </g>
</svg>