<?xml version="1.0" encoding="UTF-8"?>
<svg width="24px" height="24px" viewBox="0 0 24 24" version="1.1" xmlns="http://www.w3.org/2000/svg" xmlns:xlink="http://www.w3.org/1999/xlink">
    <title>angry_fill</title>
    <g id="Icon" stroke="none" stroke-width="1" fill="none" fill-rule="evenodd">
        <g id="Emoji" transform="translate(-144.000000, -48.000000)">
            <g id="angry_fill" transform="translate(144.000000, 48.000000)">
                <path d="M24,0 L24,24 L0,24 L0,0 L24,0 Z M12.5935,23.2578 L12.5819,23.2595 L12.5109,23.295 L12.4919,23.2987 L12.4767,23.295 L12.4057,23.2595 C12.3958,23.2564 12.387,23.259 12.3821,23.2649 L12.378,23.2758 L12.3609,23.7031 L12.3659,23.7235 L12.3769,23.7357 L12.4805,23.8097 L12.4953,23.8136 L12.5071,23.8097 L12.6107,23.7357 L12.6233,23.7197 L12.6267,23.7031 L12.6096,23.2758 C12.6076,23.2657 12.601,23.2593 12.5935,23.2578 Z M12.8584,23.1453 L12.8445,23.1473 L12.6598,23.2397 L12.6499,23.2499 L12.6472,23.2611 L12.6651,23.6906 L12.6699,23.7034 L12.6784,23.7105 L12.8793,23.8032 C12.8914,23.8069 12.9022,23.803 12.9078,23.7952 L12.9118,23.7812 L12.8777,23.1665 C12.8753,23.1546 12.8674,23.147 12.8584,23.1453 Z M12.143,23.1473 C12.1332,23.1424 12.1222,23.1453 12.1156,23.1526 L12.1099,23.1665 L12.0758,23.7812 C12.0751,23.7927 12.0828,23.8019 12.0926,23.8046 L12.1083,23.8032 L12.3092,23.7105 L12.3186,23.7024 L12.3225,23.6906 L12.3404,23.2611 L12.3372,23.2485 L12.3278,23.2397 L12.143,23.1473 Z" id="MingCute" fill-rule="nonzero"></path>
                <path d="M12,2 C17.5228,2 22,6.47715 22,12 C22,17.5228 17.5228,22 12,22 C6.47715,22 2,17.5228 2,12 C2,6.47715 6.47715,2 12,2 Z M12.0001,13 C10.7327,13 9.57334,13.4728 8.69253,14.2502 C8.27846,14.6157 8.23906,15.2477 8.60452,15.6617 C8.96999,16.0758 9.60192,16.1152 10.016,15.7497 C10.5454,15.2824 11.2386,15 12.0001,15 C12.7616,15 13.4547,15.2824 13.9842,15.7497 C14.3982,16.1152 15.0302,16.0758 15.3956,15.6617 C15.7611,15.2477 15.7217,14.6157 15.3076,14.2502 C14.4268,13.4728 13.2675,13 12.0001,13 Z M7.10557,8.55279 C6.85858,9.04676 7.05881,9.64744 7.55279,9.89443 L9.55279,10.8944 C10.0468,11.1414 10.6474,10.9412 10.8944,10.4472 C11.1414,9.95324 10.9412,9.35256 10.4472,9.10557 L8.44721,8.10557 C7.95324,7.85858 7.35256,8.05881 7.10557,8.55279 Z M15.5528,8.10557 L13.5528,9.10557 C13.0588,9.35256 12.8586,9.95324 13.1056,10.4472 C13.3526,10.9412 13.9532,11.1414 14.4472,10.8944 L16.4472,9.89443 C16.9412,9.64744 17.1414,9.04676 16.8944,8.55279 C16.6474,8.05881 16.0468,7.85858 15.5528,8.10557 Z" id="形状" fill="#09244B"></path>
            </g>
        </g>
    </g>
</svg>