<svg xmlns="http://www.w3.org/2000/svg" width="24" height="24"><g fill="none" fill-rule="evenodd"><path d="M24 0v24H0V0zM12.594 23.258l-.012.002-.071.035-.02.004-.014-.004-.071-.036c-.01-.003-.019 0-.024.006l-.004.01-.017.428.005.02.01.013.104.074.015.004.012-.004.104-.074.012-.016.004-.017-.017-.427c-.002-.01-.009-.017-.016-.018m.264-.113-.014.002-.184.093-.01.01-.003.011.018.43.005.012.008.008.201.092c.012.004.023 0 .029-.008l.004-.014-.034-.614c-.003-.012-.01-.02-.02-.022m-.715.002a.023.023 0 0 0-.027.006l-.006.014-.034.614c0 .012.007.02.017.024l.015-.002.201-.093.01-.008.003-.011.018-.43-.003-.012-.01-.01z"/><path fill="#09244B" d="M12 2c5.523 0 10 4.477 10 10s-4.477 10-10 10S2 17.523 2 12 6.477 2 12 2m2.918 12.571-.018-.016a2.014 2.014 0 0 0-2.89-.001.013.013 0 0 1-.02 0 2.014 2.014 0 0 0-2.768-.116l-.122.117c-.016.016-.036.037-.058.034l-.023-.011-.343-.315a1 1 0 0 0-1.439 1.384l.087.09.344.315a2.043 2.043 0 0 0 2.721.035l.132-.126c.009-.011.022-.027.034-.015.79.816 2.1.816 2.89 0l.012-.002.028.024c.73.752 1.9.825 2.715.195l.132-.111.344-.315a1 1 0 0 0-1.254-1.553l-.098.079-.343.315c-.023.02-.045.01-.063-.007M8.5 8a1.5 1.5 0 1 0 0 3 1.5 1.5 0 0 0 0-3m7 0a1.5 1.5 0 1 0 0 3 1.5 1.5 0 0 0 0-3"/></g></svg>