<svg xmlns="http://www.w3.org/2000/svg" width="24" height="24"><g fill="none" fill-rule="evenodd"><path d="M24 0v24H0V0zM12.594 23.258l-.012.002-.071.035-.02.004-.014-.004-.071-.036c-.01-.003-.019 0-.024.006l-.004.01-.017.428.005.02.01.013.104.074.015.004.012-.004.104-.074.012-.016.004-.017-.017-.427c-.002-.01-.009-.017-.016-.018m.264-.113-.014.002-.184.093-.01.01-.003.011.018.43.005.012.008.008.201.092c.012.004.023 0 .029-.008l.004-.014-.034-.614c-.003-.012-.01-.02-.02-.022m-.715.002a.023.023 0 0 0-.027.006l-.006.014-.034.614c0 .012.007.02.017.024l.015-.002.201-.093.01-.008.003-.011.018-.43-.003-.012-.01-.01z"/><path fill="#09244B" d="M12 2c5.523 0 10 4.477 10 10a9.996 9.996 0 0 1-5 8.662V13a1 1 0 1 0-2 0v8c0 .182.049.352.133.5-.985.324-2.039.5-3.133.5a9.991 9.991 0 0 1-3.133-.5A.996.996 0 0 0 9 21v-8a1 1 0 1 0-2 0v7.662A9.996 9.996 0 0 1 2 12C2 6.477 6.477 2 12 2m-2 6H7a1 1 0 0 0-.117 1.993L7 10h3a1 1 0 0 0 .117-1.993zm7 0h-3a1 1 0 1 0 0 2h3a1 1 0 1 0 0-2"/></g></svg>