<?xml version="1.0" encoding="UTF-8"?>
<svg width="24px" height="24px" viewBox="0 0 24 24" version="1.1" xmlns="http://www.w3.org/2000/svg" xmlns:xlink="http://www.w3.org/1999/xlink">
    <title>sweats_fill</title>
    <g id="Icon" stroke="none" stroke-width="1" fill="none" fill-rule="evenodd">
        <g id="Emoji" transform="translate(-816.000000, -48.000000)">
            <g id="sweats_fill" transform="translate(816.000000, 48.000000)">
                <path d="M24,0 L24,24 L0,24 L0,0 L24,0 Z M12.5935,23.2578 L12.5819,23.2595 L12.5109,23.295 L12.4919,23.2987 L12.4767,23.295 L12.4057,23.2595 C12.3958,23.2564 12.387,23.259 12.3821,23.2649 L12.378,23.2758 L12.3609,23.7031 L12.3659,23.7235 L12.3769,23.7357 L12.4805,23.8097 L12.4953,23.8136 L12.5071,23.8097 L12.6107,23.7357 L12.6233,23.7197 L12.6267,23.7031 L12.6096,23.2758 C12.6076,23.2657 12.601,23.2593 12.5935,23.2578 Z M12.8584,23.1453 L12.8445,23.1473 L12.6598,23.2397 L12.6499,23.2499 L12.6472,23.2611 L12.6651,23.6906 L12.6699,23.7034 L12.6784,23.7105 L12.8793,23.8032 C12.8914,23.8069 12.9022,23.803 12.9078,23.7952 L12.9118,23.7812 L12.8777,23.1665 C12.8753,23.1546 12.8674,23.147 12.8584,23.1453 Z M12.143,23.1473 C12.1332,23.1424 12.1222,23.1453 12.1156,23.1526 L12.1099,23.1665 L12.0758,23.7812 C12.0751,23.7927 12.0828,23.8019 12.0926,23.8046 L12.1083,23.8032 L12.3092,23.7105 L12.3186,23.7024 L12.3225,23.6906 L12.3404,23.2611 L12.3372,23.2485 L12.3278,23.2397 L12.143,23.1473 Z" id="MingCute" fill-rule="nonzero"></path>
                <path d="M12,2 C14.1056,2 16.0592,2.65077 17.6707,3.76215 C17.5014,4.00559 17.3203,4.28082 17.1433,4.57638 L17.0468839,4.73998393 L17.0468839,4.73998393 L16.8439936,5.10495904 C16.43104,5.8819104 16,6.927448 16,8 C16,9.97014 17.5625,12 20,12 C20.7523,12 21.4213,11.8066 21.9868,11.4813 C21.9956,11.6531 22,11.826 22,12 C22,17.5228 17.5228,22 12,22 C6.47715,22 2,17.5228 2,12 C2,6.47715 6.47715,2 12,2 Z M12,14 L9,14 C8.44772,14 8,14.4477 8,15 C8,15.5523 8.44772,16 9,16 L12,16 C12.5523,16 13,15.5523 13,15 C13,14.4477 12.5523,14 12,14 Z M9,10 L6,10 C5.44772,10 5,10.4477 5,11 C5,11.5523 5.44772,12 6,12 L9,12 C9.55228,12 10,11.5523 10,11 C10,10.4477 9.55228,10 9,10 Z M15,10 L12,10 C11.4477,10 11,10.4477 11,11 C11,11.5523 11.4477,12 12,12 L15,12 C15.5523,12 16,11.5523 16,11 C16,10.4477 15.5523,10 15,10 Z M20.0498,4.05956 L20.2882878,4.35916577 L20.4928326,4.63150969 C21.0850685,5.44050014 22,6.87273493 22,8 C22,9 21.2031,10 20,10 C18.7968,10 18,9 18,8 C18,7.1545512 18.514649,6.13755693 19.0218054,5.3406075 L19.2371771,5.01367154 L19.2371771,5.01367154 L19.4424978,4.72052982 L19.4424978,4.72052982 L19.6286336,4.46803232 L19.6286336,4.46803232 L19.851886,4.18047831 L19.851886,4.18047831 L19.9501,4.05956 L19.9501,4.05956 C19.9762,4.02805 20.0238,4.02805 20.0498,4.05956 Z" id="形状" fill="#09244B"></path>
            </g>
        </g>
    </g>
</svg>