<svg xmlns="http://www.w3.org/2000/svg" width="24" height="24"><g fill="none" fill-rule="evenodd"><path d="M24 0v24H0V0zM12.594 23.258l-.012.002-.071.035-.02.004-.014-.004-.071-.036c-.01-.003-.019 0-.024.006l-.004.01-.017.428.005.02.01.013.104.074.015.004.012-.004.104-.074.012-.016.004-.017-.017-.427c-.002-.01-.009-.017-.016-.018m.264-.113-.014.002-.184.093-.01.01-.003.011.018.43.005.012.008.008.201.092c.012.004.023 0 .029-.008l.004-.014-.034-.614c-.003-.012-.01-.02-.02-.022m-.715.002a.023.023 0 0 0-.027.006l-.006.014-.034.614c0 .012.007.02.017.024l.015-.002.201-.093.01-.008.003-.011.018-.43-.003-.012-.01-.01z"/><path fill="#09244B" d="M12 2c2.106 0 4.06.65 5.67 1.762-.169.244-.35.519-.527.814l-.096.164-.203.365C16.431 5.882 16 6.927 16 8c0 1.97 1.563 4 4 4 .752 0 1.421-.193 1.987-.519.009.172.013.345.013.519 0 5.523-4.477 10-10 10S2 17.523 2 12 6.477 2 12 2m0 12H9a1 1 0 1 0 0 2h3a1 1 0 1 0 0-2m-3-4H6a1 1 0 1 0 0 2h3a1 1 0 1 0 0-2m6 0h-3a1 1 0 1 0 0 2h3a1 1 0 1 0 0-2m5.05-5.94.238.3.205.272C21.085 5.44 22 6.872 22 8c0 1-.797 2-2 2-1.203 0-2-1-2-2 0-.845.515-1.862 1.022-2.66l.215-.326.205-.293.187-.253.223-.288.098-.12a.064.064 0 0 1 .1 0"/></g></svg>