<?xml version="1.0" encoding="UTF-8"?>
<svg width="24px" height="24px" viewBox="0 0 24 24" version="1.1" xmlns="http://www.w3.org/2000/svg" xmlns:xlink="http://www.w3.org/1999/xlink">
    <title>terror_fill</title>
    <g id="Icon" stroke="none" stroke-width="1" fill="none" fill-rule="evenodd">
        <g id="Emoji" transform="translate(-864.000000, -48.000000)" fill-rule="nonzero">
            <g id="terror_fill" transform="translate(864.000000, 48.000000)">
                <path d="M24,0 L24,24 L0,24 L0,0 L24,0 Z M12.5935,23.2578 L12.5819,23.2595 L12.5109,23.295 L12.4919,23.2987 L12.4767,23.295 L12.4057,23.2595 C12.3958,23.2564 12.387,23.259 12.3821,23.2649 L12.378,23.2758 L12.3609,23.7031 L12.3659,23.7235 L12.3769,23.7357 L12.4805,23.8097 L12.4953,23.8136 L12.5071,23.8097 L12.6107,23.7357 L12.6233,23.7197 L12.6267,23.7031 L12.6096,23.2758 C12.6076,23.2657 12.601,23.2593 12.5935,23.2578 Z M12.8584,23.1453 L12.8445,23.1473 L12.6598,23.2397 L12.6499,23.2499 L12.6472,23.2611 L12.6651,23.6906 L12.6699,23.7034 L12.6784,23.7105 L12.8793,23.8032 C12.8914,23.8069 12.9022,23.803 12.9078,23.7952 L12.9118,23.7812 L12.8777,23.1665 C12.8753,23.1546 12.8674,23.147 12.8584,23.1453 Z M12.143,23.1473 C12.1332,23.1424 12.1222,23.1453 12.1156,23.1526 L12.1099,23.1665 L12.0758,23.7812 C12.0751,23.7927 12.0828,23.8019 12.0926,23.8046 L12.1083,23.8032 L12.3092,23.7105 L12.3186,23.7024 L12.3225,23.6906 L12.3404,23.2611 L12.3372,23.2485 L12.3278,23.2397 L12.143,23.1473 Z" id="MingCute"></path>
                <path d="M12,2 C17.5228,2 22,6.47715 22,12 C22,17.5228 17.5228,22 12,22 C6.47715,22 2,17.5228 2,12 C2,6.47715 6.47715,2 12,2 Z M12,11 C10.3431,11 9,12.3431 9,14 L9,15 C9,16.6569 10.3431,18 12,18 C13.6569,18 15,16.6569 15,15 L15,14 C15,12.3431 13.6569,11 12,11 Z M12,13 C12.5523,13 13,13.4477 13,14 L13,15 C13,15.5523 12.5523,16 12,16 C11.4477,16 11,15.5523 11,15 L11,14 C11,13.4477 11.4477,13 12,13 Z M8.42171,7.27628 C7.962,7.39121 7.52701,7.65878 7.17681,8.00899 C6.8266,8.35919 6.55903,8.79418 6.4441,9.25389 C6.3348,9.69108 6.33085,10.345 6.82325,10.8374 C7.31566,11.3298 7.96959,11.3259 8.40678,11.2166 C8.86649,11.1016 9.30148,10.8341 9.65168,10.4839 C10.0019,10.1337 10.2695,9.69867 10.3844,9.23896 C10.4937,8.80177 10.4976,8.14784 10.0052,7.65543 C9.51283,7.16303 8.8589,7.16698 8.42171,7.27628 Z M13.9948,7.65543 C13.5024,8.14784 13.5063,8.80177 13.6156,9.23896 C13.7305,9.69867 13.9981,10.1337 14.3483,10.4839 C14.6985,10.8341 15.1335,11.1016 15.5932,11.2166 C16.0304,11.3259 16.6843,11.3298 17.1767,10.8374 C17.6692,10.345 17.6652,9.69108 17.5559,9.25389 C17.441,8.79418 17.1734,8.35919 16.8232,8.00899 C16.473,7.65878 16.038,7.39121 15.5783,7.27628 C15.1411,7.16698 14.4872,7.16303 13.9948,7.65543 Z" id="形状" fill="#09244B"></path>
            </g>
        </g>
    </g>
</svg>