<?xml version="1.0" encoding="UTF-8"?>
<svg width="24px" height="24px" viewBox="0 0 24 24" version="1.1" xmlns="http://www.w3.org/2000/svg" xmlns:xlink="http://www.w3.org/1999/xlink">
    <title>unhappy_line</title>
    <g id="Icon" stroke="none" stroke-width="1" fill="none" fill-rule="evenodd">
        <g id="Emoji" transform="translate(-48.000000, -96.000000)" fill-rule="nonzero">
            <g id="unhappy_line" transform="translate(48.000000, 96.000000)">
                <path d="M24,0 L24,24 L0,24 L0,0 L24,0 Z M12.5935,23.2578 L12.5819,23.2595 L12.5109,23.295 L12.4919,23.2987 L12.4767,23.295 L12.4057,23.2595 C12.3958,23.2564 12.387,23.259 12.3821,23.2649 L12.378,23.2758 L12.3609,23.7031 L12.3659,23.7235 L12.3769,23.7357 L12.4805,23.8097 L12.4953,23.8136 L12.5071,23.8097 L12.6107,23.7357 L12.6233,23.7197 L12.6267,23.7031 L12.6096,23.2758 C12.6076,23.2657 12.601,23.2593 12.5935,23.2578 Z M12.8584,23.1453 L12.8445,23.1473 L12.6598,23.2397 L12.6499,23.2499 L12.6472,23.2611 L12.6651,23.6906 L12.6699,23.7034 L12.6784,23.7105 L12.8793,23.8032 C12.8914,23.8069 12.9022,23.803 12.9078,23.7952 L12.9118,23.7812 L12.8777,23.1665 C12.8753,23.1546 12.8674,23.147 12.8584,23.1453 Z M12.143,23.1473 C12.1332,23.1424 12.1222,23.1453 12.1156,23.1526 L12.1099,23.1665 L12.0758,23.7812 C12.0751,23.7927 12.0828,23.8019 12.0926,23.8046 L12.1083,23.8032 L12.3092,23.7105 L12.3186,23.7024 L12.3225,23.6906 L12.3404,23.2611 L12.3372,23.2485 L12.3278,23.2397 L12.143,23.1473 Z" id="MingCute"></path>
                <path d="M12,2 C17.5228,2 22,6.47715 22,12 C22,17.5228 17.5228,22 12,22 C6.47715,22 2,17.5228 2,12 C2,6.47715 6.47715,2 12,2 Z M12,4 C7.58172,4 4,7.58172 4,12 C4,16.4183 7.58172,20 12,20 C16.4183,20 20,16.4183 20,12 C20,7.58172 16.4183,4 12,4 Z M12.0001,14 C13.2674,14 14.4268,14.4728 15.3076,15.2503 C15.7217,15.6157 15.7611,16.2477 15.3956,16.6617 C15.0302,17.0758 14.3982,17.1152 13.9842,16.7497 C13.4547,16.2824 12.7616,16 12.0001,16 C11.2386,16 10.5454,16.2824 10.016,16.7497 C9.60191,17.1152 8.96997,17.0758 8.60451,16.6617 C8.23904,16.2477 8.27845,15.6157 8.69251,15.2503 C9.57333,14.4728 10.7327,14 12.0001,14 Z M9.04128074,9.66444283 L9.10588,9.55221 C9.35321,9.0584 9.95402,8.85859 10.4478,9.10592 C10.9416,9.35324 11.1414,9.95405 10.8941,10.4479 C10.4575,11.3196 9.58664,12 8.5,12 C7.41336,12 6.54249,11.3196 6.10588,10.4479 C5.85855,9.95405 6.05836,9.35324 6.55217,9.10592 C7.01070786,8.87625643 7.56150592,9.03213704 7.83587812,9.45094938 L7.89412,9.55221 C8.05634,9.8761 8.30472,10 8.5,10 C8.67087,10 8.88239469,9.90513906 9.04128074,9.66444283 L9.04128074,9.66444283 Z M17.4478,9.10592 C17.9416,9.35324 18.1414,9.95405 17.8941,10.4479 C17.4575,11.3196 16.5866,12 15.5,12 C14.4134,12 13.5425,11.3196 13.1059,10.4479 C12.8586,9.95405 13.0584,9.35324 13.5522,9.10592 C14.0107286,8.87625643 14.5615173,9.03213704 14.8358642,9.45094938 L14.8941,9.55221 C15.0563,9.8761 15.3047,10 15.5,10 C15.6708875,10 15.8824297,9.90513906 16.0413064,9.66444283 L16.1059,9.55221 C16.3532,9.0584 16.954,8.85859 17.4478,9.10592 Z" id="形状" fill="#09244B"></path>
            </g>
        </g>
    </g>
</svg>