<svg xmlns="http://www.w3.org/2000/svg" width="24" height="24"><g fill="none"><path d="M24 0v24H0V0zM12.593 23.258l-.011.002-.071.035-.02.004-.014-.004-.071-.035c-.01-.004-.019-.001-.024.005l-.004.01-.017.428.005.02.01.013.104.074.015.004.012-.004.104-.074.012-.016.004-.017-.017-.427c-.002-.01-.009-.017-.017-.018m.265-.113-.013.002-.185.093-.01.01-.003.011.018.43.005.012.008.007.201.093c.012.004.023 0 .029-.008l.004-.014-.034-.614c-.003-.012-.01-.02-.02-.022m-.715.002a.023.023 0 0 0-.027.006l-.006.014-.034.614c0 .012.007.02.017.024l.015-.002.201-.093.01-.008.004-.011.017-.43-.003-.012-.01-.01z"/><path fill="#09244B" d="m8.11 13.768 3.536 3.535a.5.5 0 0 0 .707 0l3.536-3.535a.5.5 0 0 1 .707 0l1.556 1.555a.5.5 0 0 1 0 .707l-5.799 5.799a.5.5 0 0 1-.707 0L5.848 16.03a.5.5 0 0 1 0-.707l1.556-1.555a.5.5 0 0 1 .707 0Zm12.094-3.735.069.058 1.556 1.555a.5.5 0 0 1 .058.638l-.058.07-1.556 1.555a.5.5 0 0 1-.638.058l-.069-.058-1.556-1.556a.5.5 0 0 1-.057-.637l.057-.07 1.556-1.555a.5.5 0 0 1 .562-.101zm-15.77.058 1.556 1.555a.5.5 0 0 1 0 .707L4.434 13.91a.5.5 0 0 1-.707 0L2.17 12.353a.5.5 0 0 1 0-.707l1.556-1.555a.5.5 0 0 1 .707 0Zm7.85-.058.07.058 1.555 1.555a.5.5 0 0 1 .058.638l-.058.07-1.555 1.555a.5.5 0 0 1-.638.058l-.07-.058-1.555-1.556a.5.5 0 0 1-.058-.637l.058-.07 1.555-1.555a.5.5 0 0 1 .562-.101zm.07-7.862 5.798 5.798a.5.5 0 0 1 0 .707l-1.556 1.556a.5.5 0 0 1-.707 0l-3.535-3.535a.5.5 0 0 0-.708 0l-3.535 3.535a.5.5 0 0 1-.707 0L5.848 8.676a.5.5 0 0 1 0-.707l5.798-5.798a.5.5 0 0 1 .707 0Z"/></g></svg>