<?xml version="1.0" encoding="UTF-8"?>
<svg width="24px" height="24px" viewBox="0 0 24 24" version="1.1" xmlns="http://www.w3.org/2000/svg" xmlns:xlink="http://www.w3.org/1999/xlink">
    <title>BNB_line</title>
    <g id="页面-1" stroke="none" stroke-width="1" fill="none" fill-rule="evenodd">
        <g id="Business" transform="translate(-192.000000, -384.000000)" fill-rule="nonzero">
            <g id="BNB_line" transform="translate(192.000000, 384.000000)">
                <path d="M24,0 L24,24 L0,24 L0,0 L24,0 Z M12.5934901,23.257841 L12.5819402,23.2595131 L12.5108777,23.2950439 L12.4918791,23.2987469 L12.4918791,23.2987469 L12.4767152,23.2950439 L12.4056548,23.2595131 C12.3958229,23.2563662 12.3870493,23.2590235 12.3821421,23.2649074 L12.3780323,23.275831 L12.360941,23.7031097 L12.3658947,23.7234994 L12.3769048,23.7357139 L12.4804777,23.8096931 L12.4953491,23.8136134 L12.4953491,23.8136134 L12.5071152,23.8096931 L12.6106902,23.7357139 L12.6232938,23.7196733 L12.6232938,23.7196733 L12.6266527,23.7031097 L12.609561,23.275831 C12.6075724,23.2657013 12.6010112,23.2592993 12.5934901,23.257841 L12.5934901,23.257841 Z M12.8583906,23.1452862 L12.8445485,23.1473072 L12.6598443,23.2396597 L12.6498822,23.2499052 L12.6498822,23.2499052 L12.6471943,23.2611114 L12.6650943,23.6906389 L12.6699349,23.7034178 L12.6699349,23.7034178 L12.678386,23.7104931 L12.8793402,23.8032389 C12.8914285,23.8068999 12.9022333,23.8029875 12.9078286,23.7952264 L12.9118235,23.7811639 L12.8776777,23.1665331 C12.8752882,23.1545897 12.8674102,23.1470016 12.8583906,23.1452862 L12.8583906,23.1452862 Z M12.1430473,23.1473072 C12.1332178,23.1423925 12.1221763,23.1452606 12.1156365,23.1525954 L12.1099173,23.1665331 L12.0757714,23.7811639 C12.0751323,23.7926639 12.0828099,23.8018602 12.0926481,23.8045676 L12.108256,23.8032389 L12.3092106,23.7104931 L12.3186497,23.7024347 L12.3186497,23.7024347 L12.3225043,23.6906389 L12.340401,23.2611114 L12.337245,23.2485176 L12.337245,23.2485176 L12.3277531,23.2396597 L12.1430473,23.1473072 Z" id="MingCute" fill-rule="nonzero"></path>
                <path d="M14.8661,19.3452 C15.1422,19.8235 14.9784,20.435 14.5001,20.7112 L13.25,21.4329 C12.4765,21.8795 11.5235,21.8795 10.75,21.4329 L9.5,20.7112 C9.02171,20.435 8.85783,19.8235 9.13397,19.3452 C9.41012,18.8669 10.0217,18.703 10.5,18.9791 L11.75,19.7008 C11.9047,19.7902 12.0953,19.7902 12.25,19.7008 L13.5001,18.9791 C13.9784,18.703 14.59,18.8669 14.8661,19.3452 Z M19.7943,11.1186 C20.3466,11.1186 20.7943,11.5663 20.7943,12.1186 L20.7943,15.6339 C20.7943,16.527 20.3178,17.3523 19.5443,17.7989 L16.5001,19.5565 C16.0218,19.8326 15.4102,19.6688 15.1341,19.1905 C14.8579,18.7122 15.0218,18.1006 15.5001,17.8244 L18.5443,16.0669 C18.699,15.9776 18.7943,15.8125 18.7943,15.6339 L18.7943,12.1186 C18.7943,11.5663 19.242,11.1186 19.7943,11.1186 Z M4.20581,11.1187 C4.7581,11.1187 5.20581,11.5664 5.20581,12.1187 L5.20581,15.6339 C5.20581,15.8125 5.30111,15.9776 5.45581,16.0669 L8.5,17.8244 C8.97829,18.1006 9.14217,18.7122 8.86602,19.1905 C8.58988,19.6688 7.97829,19.8326 7.5,19.5565 L4.45581,17.7989 C3.68231,17.3523 3.20581,16.527 3.20581,15.6339 L3.20581,12.1187 C3.20581,11.5664 3.65353,11.1187 4.20581,11.1187 Z M15.6248619,7.4643932 L15.7435,7.52175 L17.2566,8.38033 C17.5368667,8.53941444 17.7211333,8.82230333 17.7567447,9.13787612 L17.7630278,9.25757 L17.75,10.9971 C17.7476,11.3122111 17.5970519,11.6053568 17.3479402,11.7911335 L17.25,11.8556 L14.4999,13.4433 L14.4999,16.62 C14.4999,16.9352889 14.3513568,17.2297185 14.1034336,17.4173235 L14.0059,17.4825 L12.5059,18.3625 C12.23255,18.5228875 11.9019313,18.5429359 11.6142641,18.4226453 L11.4939,18.3625 L9.99388,17.4825 C9.72188,17.3229444 9.54313827,17.0458185 9.50677591,16.7370877 L9.49991,16.62 L9.49991,13.4433 L6.74991,11.8556 C6.47696778,11.698 6.29633568,11.4224346 6.25768262,11.1140966 L6.24994,10.9971 L6.23672325,9.25756 C6.23434126,8.93520444 6.3872073,8.63413481 6.64274386,8.44552082 L6.74328,8.38024 L8.25643,7.52172 C8.52628,7.36862125 8.8494175,7.35057109 9.13170508,7.46722117 L9.24991,7.52546 L11.9999,9.11319 L14.75,7.52546 C15.0187125,7.3703225 15.3417078,7.34985078 15.6248619,7.4643932 Z M15.2543,9.54368 L12.4999,11.1339 C12.229175,11.2902625 11.9034781,11.3098078 11.6190102,11.1925359 L11.4999,11.1339 L8.74558,9.54368 L8.24117,9.82987 L8.24555,10.4097 L10.9999,11.9999 C11.2749222,12.1587444 11.4560778,12.4372136 11.4929392,12.7480075 L11.4999,12.8659 L11.4999,16.0473 L11.9999,16.3406 L12.4999,16.0473 L12.4999,12.866 C12.4999,12.5484 12.6504975,12.2522914 12.9012652,12.0649739 L12.9999,12 L15.7543,10.4097 L15.7587,9.82991 L15.2543,9.54368 Z M17.6219,13.2029984 L17.6291,13.2695 L17.6291,14.6725 C17.6291,14.9901 17.4785025,15.2862086 17.2277348,15.4735963 L17.1291,15.5386 L15.9141,16.2401 C15.7341,16.34396 15.5136,16.237463 15.4713,16.0467989 L15.4641,15.9803 L15.4641,14.5772 C15.4641,14.2596889 15.6146975,13.9635111 15.8654652,13.7761772 L15.9641,13.7112 L17.1791,13.0097 C17.3591,12.90575 17.5796,13.012319 17.6219,13.2029984 Z M6.82084,13.0097 L8.0359,13.7112 C8.3453,13.8898 8.5359,14.22 8.5359,14.5772 L8.5359,15.9803 C8.5359,16.2112 8.2859,16.3555 8.0859,16.2401 L6.87084,15.5386 C6.56144,15.3599 6.37084,15.0298 6.37084,14.6725 L6.37084,13.2695 C6.37084,13.0385 6.62084,12.8942 6.82084,13.0097 Z M18.2493,5.45321 L19.5443,6.20085 C20.3178,6.64743 20.7943,7.47275 20.7943,8.36591 L20.7943,9.80922 C20.7943,10.3615 20.3466,10.8092 19.7943,10.8092 C19.242,10.8092 18.7943,10.3615 18.7943,9.80922 L18.7943,8.36591 C18.7943,8.18728 18.699,8.02221 18.5443,7.9329 L17.2493,7.18527 C16.771,6.90912 16.6072,6.29753 16.8833,5.81924 C17.1595,5.34095 17.771,5.17707 18.2493,5.45321 Z M7.07186,5.84517 C7.348,6.32346 7.18412,6.93505 6.70583,7.21119 L5.45581,7.93289 C5.30111,8.02221 5.20581,8.18727 5.20581,8.36591 L5.20581,9.80931 C5.20581,10.3616 4.7581,10.8093 4.20581,10.8093 C3.65353,10.8093 3.20581,10.3616 3.20581,9.80931 L3.20581,8.36591 C3.20581,7.47274 3.68231,6.64743 4.45581,6.20084 L5.70583,5.47914 C6.18412,5.203 6.79571,5.36688 7.07186,5.84517 Z M12.5,5.78856 L13.7151,6.49008 C13.9151,6.60555 13.9151,6.89423 13.7151,7.0097 L12.5,7.71121 C12.1906,7.88984 11.8094,7.88984 11.5,7.71121 L10.285,7.00969 C10.085,6.89422 10.085,6.60554 10.285,6.49007 L11.5,5.78856 C11.8094,5.60992 12.1906,5.60992 12.5,5.78856 Z M13.25,2.56687 L16.2943,4.32449 C16.7726,4.60063 16.9365,5.21222 16.6604,5.69052 C16.3842,6.16881 15.7726,6.33268 15.2943,6.05654 L12.25,4.29892 C12.0953,4.2096 11.9047,4.2096 11.75,4.29892 L8.70583,6.05649 C8.22754,6.33264 7.61595,6.16876 7.33981,5.69047 C7.06366,5.21218 7.22754,4.60059 7.70583,4.32444 L10.75,2.56687 C11.5235,2.12029 12.4765,2.12029 13.25,2.56687 Z" id="形状" fill="#09244B"></path>
            </g>
        </g>
    </g>
</svg>