<svg xmlns="http://www.w3.org/2000/svg" width="24" height="24"><g fill="none" fill-rule="evenodd"><path d="M24 0v24H0V0zM12.593 23.258l-.011.002-.071.035-.02.004-.014-.004-.071-.035c-.01-.004-.019-.001-.024.005l-.004.01-.017.428.005.02.01.013.104.074.015.004.012-.004.104-.074.012-.016.004-.017-.017-.427c-.002-.01-.009-.017-.017-.018m.265-.113-.013.002-.185.093-.01.01-.003.011.018.43.005.012.008.007.201.093c.012.004.023 0 .029-.008l.004-.014-.034-.614c-.003-.012-.01-.02-.02-.022m-.715.002a.023.023 0 0 0-.027.006l-.006.014-.034.614c0 .012.007.02.017.024l.015-.002.201-.093.01-.008.004-.011.017-.43-.003-.012-.01-.01z"/><path fill="#09244B" d="M11 2.5a1 1 0 1 1 2 0 1 1 0 0 1-2 0m1 1a1.5 1.5 0 1 0 0 3 1.5 1.5 0 0 0 0-3m3.884-.227a1 1 0 1 1 1.732 1 1 1 0 0 1-1.732-1M6.75 2.907a1 1 0 1 1 1 1.732 1 1 0 0 1-1-1.732m9.14 3.083a1.5 1.5 0 1 1 .08 2.195c.08.448.007.926-.238 1.35a1.991 1.991 0 0 1-.698.713 2 2 0 0 1 2.758.862 1.5 1.5 0 1 1 0 1.779 2 2 0 0 1-2.76.862 1.992 1.992 0 0 1 .936 2.064 1.5 1.5 0 1 1-.514 1.023A2.002 2.002 0 0 1 12 15.502a2 2 0 0 1-3.454 1.336 1.5 1.5 0 1 1-.515-1.024 1.992 1.992 0 0 1 .237-1.35 1.99 1.99 0 0 1 .7-.713 2 2 0 0 1-2.76-.861 1.5 1.5 0 1 1 0-1.779 2 2 0 0 1 2.759-.862 1.991 1.991 0 0 1-.699-.713 1.992 1.992 0 0 1-.237-1.35 1.5 1.5 0 1 1 .515-1.024A2 2 0 0 1 12 8.498a2 2 0 0 1 3.454-1.336c-.031-.42.114-.851.435-1.172ZM12 8.57a1.998 1.998 0 0 1-2.97 1.715 1.999 1.999 0 0 1-.001 3.43A1.999 1.999 0 0 1 12 15.43a1.999 1.999 0 0 1 2.97-1.715 1.999 1.999 0 0 1 0-3.43A1.999 1.999 0 0 1 12 8.57M3.5 12a1 1 0 1 0-2 0 1 1 0 0 0 2 0m-.593-5.25a1 1 0 1 1 1.732 1 1 1 0 0 1-1.732-1m16.82-.366a1 1 0 1 1 1 1.732 1 1 0 0 1-1-1.732M20.5 12a1 1 0 1 1 2 0 1 1 0 0 1-2 0M3.273 15.884a1 1 0 1 1 1 1.732 1 1 0 0 1-1-1.732m16.088.366a1 1 0 1 1 1.732 1 1 1 0 0 1-1.732-1M10.5 19a1.5 1.5 0 1 1 3 0 1.5 1.5 0 0 1-3 0m1.5 1.5a1 1 0 1 0 0 2 1 1 0 0 0 0-2m-5.616-.773a1 1 0 1 1 1.732 1 1 1 0 0 1-1.732-1m9.866-.366a1 1 0 1 1 1 1.733 1 1 0 0 1-1-1.733"/></g></svg>