<svg xmlns="http://www.w3.org/2000/svg" width="24" height="24"><g fill="none" fill-rule="evenodd"><path d="M24 0v24H0V0zM12.593 23.258l-.011.002-.071.035-.02.004-.014-.004-.071-.035c-.01-.004-.019-.001-.024.005l-.004.01-.017.428.005.02.01.013.104.074.015.004.012-.004.104-.074.012-.016.004-.017-.017-.427c-.002-.01-.009-.017-.017-.018m.265-.113-.013.002-.185.093-.01.01-.003.011.018.43.005.012.008.007.201.093c.012.004.023 0 .029-.008l.004-.014-.034-.614c-.003-.012-.01-.02-.02-.022m-.715.002a.023.023 0 0 0-.027.006l-.006.014-.034.614c0 .012.007.02.017.024l.015-.002.201-.093.01-.008.004-.011.017-.43-.003-.012-.01-.01z"/><path fill="#09244B" d="M14.718 1.858a10.502 10.502 0 0 1 7.784 10.06c.01 1.314-1.449 2.04-2.492 1.337l-2.678-1.805a1.692 1.692 0 0 1-.4-.37c-.08.338-.23.65-.432.92a2.5 2.5 0 0 1-2 4H14v1a1 1 0 1 1-2 0v-1h-1v1a1 1 0 1 1-2 0v-1H8a1 1 0 0 1-1-1l.004-.094c-.344.425-.902.68-1.573.534l-.108-.024a7.504 7.504 0 0 0 13.175.335 1.5 1.5 0 0 1 2.599 1.498c-2.317 4.019-7.119 6.152-11.815 4.893a10.502 10.502 0 0 1-7.784-10.06c-.01-1.314 1.45-2.04 2.492-1.337l2.678 1.805c.64.432.814 1.112.661 1.708A.996.996 0 0 1 8 14v-4a1 1 0 0 1 0-2h1V7a1 1 0 0 1 2 0v1h1V7a1 1 0 1 1 2 0v1h.5a2.5 2.5 0 0 1 2.272 1.456c.287-.627.952-1.08 1.797-.895l.109.023A7.504 7.504 0 0 0 5.504 8.25a1.5 1.5 0 1 1-2.6-1.498C5.22 2.732 10.022.6 14.718 1.858M14.5 13H10v1h4.5a.5.5 0 0 0 .09-.992zm0-3H10v1h4.5a.5.5 0 0 0 0-1"/></g></svg>