<svg xmlns="http://www.w3.org/2000/svg" width="24" height="24"><g fill="none"><path d="M24 0v24H0V0zM12.593 23.258l-.011.002-.071.035-.02.004-.014-.004-.071-.035c-.01-.004-.019-.001-.024.005l-.004.01-.017.428.005.02.01.013.104.074.015.004.012-.004.104-.074.012-.016.004-.017-.017-.427c-.002-.01-.009-.017-.017-.018m.265-.113-.013.002-.185.093-.01.01-.003.011.018.43.005.012.008.007.201.093c.012.004.023 0 .029-.008l.004-.014-.034-.614c-.003-.012-.01-.02-.02-.022m-.715.002a.023.023 0 0 0-.027.006l-.006.014-.034.614c0 .012.007.02.017.024l.015-.002.201-.093.01-.008.004-.011.017-.43-.003-.012-.01-.01z"/><path fill="#09244B" d="M17.42 3a2 2 0 0 1 1.736 1.008L22.49 9.84a2 2 0 0 1-.322 2.406l-9.283 9.283a1.25 1.25 0 0 1-1.768 0l-9.283-9.283a2 2 0 0 1-.322-2.406l3.333-5.833A2 2 0 0 1 6.58 3zM15 6H9a1 1 0 0 0-.117 1.993L9 8h2v1.545c-.758.07-1.447.217-2.004.426-.395.148-.749.336-1.013.571-.264.234-.483.557-.483.958 0 .401.219.724.483.958.264.235.618.423 1.013.57.594.223 1.338.377 2.157.44a.994.994 0 0 0-.146.416L11 14v2a1 1 0 0 0 1.993.117L13 16v-2a.995.995 0 0 0-.153-.532c.819-.063 1.563-.216 2.157-.44.395-.147.749-.335 1.013-.57.264-.234.483-.557.483-.958 0-.401-.219-.724-.483-.958-.264-.235-.618-.423-1.013-.57a7.494 7.494 0 0 0-1.683-.392L13 9.545V8h2a1 1 0 0 0 .117-1.993zm-2.001 4.55a6.789 6.789 0 0 1 1.654.357c.329.124.56.259.7.383a.46.46 0 0 1 .14.178l.007.032-.007.032a.46.46 0 0 1-.14.178c-.14.124-.371.26-.7.382-.655.246-1.593.408-2.653.408s-1.998-.162-2.653-.408c-.329-.123-.56-.258-.701-.382a.46.46 0 0 1-.14-.178L8.5 11.5c0-.013.005-.085.146-.21.14-.124.372-.26.701-.382.44-.165 1.007-.293 1.654-.358a1 1 0 0 0 1.998 0"/></g></svg>