<svg xmlns="http://www.w3.org/2000/svg" width="24" height="24"><g fill="none"><path d="M24 0v24H0V0zM12.593 23.258l-.011.002-.071.035-.02.004-.014-.004-.071-.035c-.01-.004-.019-.001-.024.005l-.004.01-.017.428.005.02.01.013.104.074.015.004.012-.004.104-.074.012-.016.004-.017-.017-.427c-.002-.01-.009-.017-.017-.018m.265-.113-.013.002-.185.093-.01.01-.003.011.018.43.005.012.008.007.201.093c.012.004.023 0 .029-.008l.004-.014-.034-.614c-.003-.012-.01-.02-.02-.022m-.715.002a.023.023 0 0 0-.027.006l-.006.014-.034.614c0 .012.007.02.017.024l.015-.002.201-.093.01-.008.004-.011.017-.43-.003-.012-.01-.01z"/><path fill="#09244B" d="M9.882 3.122a1.5 1.5 0 0 1-.798 1.965 7.503 7.503 0 0 0 0 13.825 1.5 1.5 0 1 1-1.168 2.764A10.502 10.502 0 0 1 1.5 12c0-4.353 2.649-8.084 6.416-9.676a1.5 1.5 0 0 1 1.966.798m6.202-.798A10.503 10.503 0 0 1 22.5 12c0 4.353-2.649 8.084-6.416 9.676a1.5 1.5 0 0 1-1.168-2.764 7.503 7.503 0 0 0 0-13.825 1.5 1.5 0 1 1 1.168-2.763M12 5.5A1.5 1.5 0 0 1 13.5 7H15a1.5 1.5 0 0 1 0 3h-1.5v.5h.25a3.25 3.25 0 0 1 0 6.5h-.25a1.5 1.5 0 0 1-3 0H9a1.5 1.5 0 0 1 0-3h1.5v-.5h-.25a3.25 3.25 0 0 1 0-6.5h.25A1.5 1.5 0 0 1 12 5.5m1.75 8h-.25v.5h.25a.25.25 0 1 0 0-.5M10.5 10h-.25a.25.25 0 1 0 0 .5h.25z"/></g></svg>